<?xml version="1.0" encoding="UTF-8" standalone="no"?>
<!DOCTYPE svg PUBLIC "-//W3C//DTD SVG 1.1//EN"
 "http://www.w3.org/Graphics/SVG/1.1/DTD/svg11.dtd">
<!-- Generated by graphviz version 2.26.3 (20100126.1600)
 -->
<!-- Title: MojDbInnoEngine Pages: 1 -->
<svg width="124pt" height="204pt"
 viewBox="0.00 0.00 124.00 204.00" xmlns="http://www.w3.org/2000/svg" xmlns:xlink="http://www.w3.org/1999/xlink">
<g id="graph1" class="graph" transform="scale(1 1) rotate(0) translate(4 200)">
<title>MojDbInnoEngine</title>
<polygon fill="white" stroke="white" points="-4,5 -4,-200 121,-200 121,5 -4,5"/>
<!-- Node1 -->
<g id="node1" class="node"><title>Node1</title>
<polygon fill="#bfbfbf" stroke="black" points="7.5,-0.5 7.5,-21.5 108.5,-21.5 108.5,-0.5 7.5,-0.5"/>
<text text-anchor="middle" x="58" y="-8.5" font-family="Helvetica,sans-Serif" font-size="10.00">MojDbInnoEngine</text>
</g>
<!-- Node2 -->
<g id="node2" class="node"><title>Node2</title>
<a xlink:href="classMojDbStorageEngine.htm" target="_top" xlink:title="MojDbStorageEngine">
<polygon fill="white" stroke="black" points="-0.5,-58.5 -0.5,-79.5 116.5,-79.5 116.5,-58.5 -0.5,-58.5"/>
<text text-anchor="middle" x="58" y="-66.5" font-family="Helvetica,sans-Serif" font-size="10.00">MojDbStorageEngine</text>
</a>
</g>
<!-- Node2&#45;&gt;Node1 -->
<g id="edge2" class="edge"><title>Node2&#45;&gt;Node1</title>
<path fill="none" stroke="midnightblue" d="M58,-48.1906C58,-39.1684 58,-28.9941 58,-21.5707"/>
<polygon fill="midnightblue" stroke="midnightblue" points="54.5001,-48.3619 58,-58.3619 61.5001,-48.3619 54.5001,-48.3619"/>
</g>
<!-- Node3 -->
<g id="node4" class="node"><title>Node3</title>
<a xlink:href="classMojRefCounted.htm" target="_top" xlink:title="MojRefCounted">
<polygon fill="white" stroke="black" points="13,-116.5 13,-137.5 103,-137.5 103,-116.5 13,-116.5"/>
<text text-anchor="middle" x="58" y="-124.5" font-family="Helvetica,sans-Serif" font-size="10.00">MojRefCounted</text>
</a>
</g>
<!-- Node3&#45;&gt;Node2 -->
<g id="edge4" class="edge"><title>Node3&#45;&gt;Node2</title>
<path fill="none" stroke="midnightblue" d="M58,-106.191C58,-97.1684 58,-86.9941 58,-79.5707"/>
<polygon fill="midnightblue" stroke="midnightblue" points="54.5001,-106.362 58,-116.362 61.5001,-106.362 54.5001,-106.362"/>
</g>
<!-- Node4 -->
<g id="node6" class="node"><title>Node4</title>
<a xlink:href="classMojNoCopy.htm" target="_top" xlink:title="MojNoCopy">
<polygon fill="white" stroke="black" points="22,-174.5 22,-195.5 94,-195.5 94,-174.5 22,-174.5"/>
<text text-anchor="middle" x="58" y="-182.5" font-family="Helvetica,sans-Serif" font-size="10.00">MojNoCopy</text>
</a>
</g>
<!-- Node4&#45;&gt;Node3 -->
<g id="edge6" class="edge"><title>Node4&#45;&gt;Node3</title>
<path fill="none" stroke="#8b1a1a" d="M58,-164.191C58,-155.168 58,-144.994 58,-137.571"/>
<polygon fill="#8b1a1a" stroke="#8b1a1a" points="54.5001,-164.362 58,-174.362 61.5001,-164.362 54.5001,-164.362"/>
</g>
</g>
</svg>
