<?xml version="1.0" encoding="UTF-8" standalone="no"?>
<!DOCTYPE svg PUBLIC "-//W3C//DTD SVG 1.1//EN"
 "http://www.w3.org/Graphics/SVG/1.1/DTD/svg11.dtd">
<!-- Generated by graphviz version 2.26.3 (20100126.1600)
 -->
<!-- Title: MojAutoArrayPtr&lt; T &gt; Pages: 1 -->
<svg width="132pt" height="230pt"
 viewBox="0.00 0.00 132.00 230.00" xmlns="http://www.w3.org/2000/svg" xmlns:xlink="http://www.w3.org/1999/xlink">
<g id="graph1" class="graph" transform="scale(1 1) rotate(0) translate(4 226)">
<title>MojAutoArrayPtr&lt; T &gt;</title>
<polygon fill="white" stroke="white" points="-4,5 -4,-226 129,-226 129,5 -4,5"/>
<!-- Node1 -->
<g id="node1" class="node"><title>Node1</title>
<polygon fill="#bfbfbf" stroke="black" points="2.5,-0.5 2.5,-21.5 121.5,-21.5 121.5,-0.5 2.5,-0.5"/>
<text text-anchor="middle" x="62" y="-8.5" font-family="Helvetica,sans-Serif" font-size="10.00">MojAutoArrayPtr&lt; T &gt;</text>
</g>
<!-- Node2 -->
<g id="node2" class="node"><title>Node2</title>
<a xlink:href="classMojAutoPtrBase.htm" target="_top" xlink:title="MojAutoPtrBase\&lt; T,\l MojArrayDeleteDtor\l\&lt; T \&gt; \&gt;">
<polygon fill="white" stroke="black" points="5.5,-58.5 5.5,-105.5 118.5,-105.5 118.5,-58.5 5.5,-58.5"/>
<text text-anchor="start" x="13.5" y="-92.5" font-family="Helvetica,sans-Serif" font-size="10.00">MojAutoPtrBase&lt; T,</text>
<text text-anchor="start" x="13.5" y="-79.5" font-family="Helvetica,sans-Serif" font-size="10.00"> MojArrayDeleteDtor</text>
<text text-anchor="middle" x="62" y="-66.5" font-family="Helvetica,sans-Serif" font-size="10.00">&lt; T &gt; &gt;</text>
</a>
</g>
<!-- Node2&#45;&gt;Node1 -->
<g id="edge2" class="edge"><title>Node2&#45;&gt;Node1</title>
<path fill="none" stroke="midnightblue" d="M62,-48.1273C62,-38.5183 62,-28.7499 62,-21.6462"/>
<polygon fill="midnightblue" stroke="midnightblue" points="58.5001,-48.358 62,-58.358 65.5001,-48.3581 58.5001,-48.358"/>
</g>
<!-- Node3 -->
<g id="node4" class="node"><title>Node3</title>
<a xlink:href="classMojSmartPtrBase.htm" target="_top" xlink:title="MojSmartPtrBase\&lt; T \&gt;">
<polygon fill="white" stroke="black" points="0,-142.5 0,-163.5 124,-163.5 124,-142.5 0,-142.5"/>
<text text-anchor="middle" x="62" y="-150.5" font-family="Helvetica,sans-Serif" font-size="10.00">MojSmartPtrBase&lt; T &gt;</text>
</a>
</g>
<!-- Node3&#45;&gt;Node2 -->
<g id="edge4" class="edge"><title>Node3&#45;&gt;Node2</title>
<path fill="none" stroke="midnightblue" d="M62,-132.191C62,-123.835 62,-114.16 62,-105.548"/>
<polygon fill="midnightblue" stroke="midnightblue" points="58.5001,-132.217 62,-142.217 65.5001,-132.217 58.5001,-132.217"/>
</g>
<!-- Node4 -->
<g id="node6" class="node"><title>Node4</title>
<a xlink:href="classMojNoCopy.htm" target="_top" xlink:title="MojNoCopy">
<polygon fill="white" stroke="black" points="26,-200.5 26,-221.5 98,-221.5 98,-200.5 26,-200.5"/>
<text text-anchor="middle" x="62" y="-208.5" font-family="Helvetica,sans-Serif" font-size="10.00">MojNoCopy</text>
</a>
</g>
<!-- Node4&#45;&gt;Node3 -->
<g id="edge6" class="edge"><title>Node4&#45;&gt;Node3</title>
<path fill="none" stroke="#8b1a1a" d="M62,-190.191C62,-181.168 62,-170.994 62,-163.571"/>
<polygon fill="#8b1a1a" stroke="#8b1a1a" points="58.5001,-190.362 62,-200.362 65.5001,-190.362 58.5001,-190.362"/>
</g>
</g>
</svg>
