<?xml version="1.0" encoding="UTF-8" standalone="no"?>
<!DOCTYPE svg PUBLIC "-//W3C//DTD SVG 1.1//EN"
 "http://www.w3.org/Graphics/SVG/1.1/DTD/svg11.dtd">
<!-- Generated by graphviz version 2.26.3 (20100126.1600)
 -->
<!-- Title: MojListEntry Pages: 1 -->
<svg width="139pt" height="94pt"
 viewBox="0.00 0.00 139.00 94.00" xmlns="http://www.w3.org/2000/svg" xmlns:xlink="http://www.w3.org/1999/xlink">
<g id="graph1" class="graph" transform="scale(1 1) rotate(0) translate(4 90)">
<title>MojListEntry</title>
<polygon fill="white" stroke="white" points="-4,5 -4,-90 136,-90 136,5 -4,5"/>
<!-- Node1 -->
<g id="node1" class="node"><title>Node1</title>
<polygon fill="#bfbfbf" stroke="black" points="-0.5,-2.5 -0.5,-23.5 74.5,-23.5 74.5,-2.5 -0.5,-2.5"/>
<text text-anchor="middle" x="37" y="-10.5" font-family="Helvetica,sans-Serif" font-size="10.00">MojListEntry</text>
</g>
<!-- Node1&#45;&gt;Node1 -->
<g id="edge4" class="edge"><title>Node1&#45;&gt;Node1</title>
<path fill="none" stroke="#9a32cd" stroke-dasharray="5,2" d="M84.7711,-17.7971C89.2044,-16.808 92,-15.209 92,-13 92,-9.375 84.4715,-7.39258 74.5316,-7.05273"/>
<polygon fill="#9a32cd" stroke="#9a32cd" points="84.0784,-14.3528 74.5316,-18.9473 84.8598,-21.3091 84.0784,-14.3528"/>
<text text-anchor="middle" x="111.5" y="-17" font-family="Helvetica,sans-Serif" font-size="10.00"> m_prev</text>
<text text-anchor="middle" x="111.5" y="-4" font-family="Helvetica,sans-Serif" font-size="10.00">m_next</text>
</g>
<!-- Node2 -->
<g id="node2" class="node"><title>Node2</title>
<a xlink:href="classMojNoCopy.htm" target="_top" xlink:title="MojNoCopy">
<polygon fill="white" stroke="black" points="1,-64.5 1,-85.5 73,-85.5 73,-64.5 1,-64.5"/>
<text text-anchor="middle" x="37" y="-72.5" font-family="Helvetica,sans-Serif" font-size="10.00">MojNoCopy</text>
</a>
</g>
<!-- Node2&#45;&gt;Node1 -->
<g id="edge2" class="edge"><title>Node2&#45;&gt;Node1</title>
<path fill="none" stroke="#8b1a1a" d="M37,-54.2993C37,-44.0786 37,-32.1727 37,-23.7774"/>
<polygon fill="#8b1a1a" stroke="#8b1a1a" points="33.5001,-54.4825 37,-64.4825 40.5001,-54.4826 33.5001,-54.4825"/>
</g>
</g>
</svg>
