<?xml version="1.0" encoding="UTF-8" standalone="no"?>
<!DOCTYPE svg PUBLIC "-//W3C//DTD SVG 1.1//EN"
 "http://www.w3.org/Graphics/SVG/1.1/DTD/svg11.dtd">
<!-- Generated by graphviz version 2.26.3 (20100126.1600)
 -->
<!-- Title: MojDbBerkeleyItem Pages: 1 -->
<svg width="247pt" height="226pt"
 viewBox="0.00 0.00 247.00 226.00" xmlns="http://www.w3.org/2000/svg" xmlns:xlink="http://www.w3.org/1999/xlink">
<g id="graph1" class="graph" transform="scale(1 1) rotate(0) translate(4 222)">
<title>MojDbBerkeleyItem</title>
<polygon fill="white" stroke="white" points="-4,5 -4,-222 244,-222 244,5 -4,5"/>
<!-- Node1 -->
<g id="node1" class="node"><title>Node1</title>
<polygon fill="#bfbfbf" stroke="black" points="38,-0.5 38,-21.5 146,-21.5 146,-0.5 38,-0.5"/>
<text text-anchor="middle" x="92" y="-8.5" font-family="Helvetica,sans-Serif" font-size="10.00">MojDbBerkeleyItem</text>
</g>
<!-- Node2 -->
<g id="node2" class="node"><title>Node2</title>
<a xlink:href="classMojDbStorageItem.htm" target="_top" xlink:title="MojDbStorageItem">
<polygon fill="white" stroke="black" points="40,-60.5 40,-81.5 144,-81.5 144,-60.5 40,-60.5"/>
<text text-anchor="middle" x="92" y="-68.5" font-family="Helvetica,sans-Serif" font-size="10.00">MojDbStorageItem</text>
</a>
</g>
<!-- Node2&#45;&gt;Node1 -->
<g id="edge2" class="edge"><title>Node2&#45;&gt;Node1</title>
<path fill="none" stroke="midnightblue" d="M92,-50.2312C92,-40.5922 92,-29.5444 92,-21.6339"/>
<polygon fill="midnightblue" stroke="midnightblue" points="88.5001,-50.2732 92,-60.2732 95.5001,-50.2732 88.5001,-50.2732"/>
</g>
<!-- Node3 -->
<g id="node4" class="node"><title>Node3</title>
<a xlink:href="classMojRefCounted.htm" target="_top" xlink:title="MojRefCounted">
<polygon fill="white" stroke="black" points="0,-134.5 0,-155.5 90,-155.5 90,-134.5 0,-134.5"/>
<text text-anchor="middle" x="45" y="-142.5" font-family="Helvetica,sans-Serif" font-size="10.00">MojRefCounted</text>
</a>
</g>
<!-- Node3&#45;&gt;Node2 -->
<g id="edge4" class="edge"><title>Node3&#45;&gt;Node2</title>
<path fill="none" stroke="midnightblue" d="M57.1255,-125.909C66.0861,-111.801 77.9545,-93.1143 85.2785,-81.5827"/>
<polygon fill="midnightblue" stroke="midnightblue" points="54.1409,-124.08 51.734,-134.398 60.0498,-127.833 54.1409,-124.08"/>
</g>
<!-- Node4 -->
<g id="node6" class="node"><title>Node4</title>
<a xlink:href="classMojNoCopy.htm" target="_top" xlink:title="MojNoCopy">
<polygon fill="white" stroke="black" points="9,-196.5 9,-217.5 81,-217.5 81,-196.5 9,-196.5"/>
<text text-anchor="middle" x="45" y="-204.5" font-family="Helvetica,sans-Serif" font-size="10.00">MojNoCopy</text>
</a>
</g>
<!-- Node4&#45;&gt;Node3 -->
<g id="edge6" class="edge"><title>Node4&#45;&gt;Node3</title>
<path fill="none" stroke="#8b1a1a" d="M45,-186.299C45,-176.079 45,-164.173 45,-155.777"/>
<polygon fill="#8b1a1a" stroke="#8b1a1a" points="41.5001,-186.483 45,-196.483 48.5001,-186.483 41.5001,-186.483"/>
</g>
<!-- Node5 -->
<g id="node8" class="node"><title>Node5</title>
<a xlink:href="classMojObject.htm" target="_top" xlink:title="MojObject">
<polygon fill="white" stroke="black" points="108,-134.5 108,-155.5 172,-155.5 172,-134.5 108,-134.5"/>
<text text-anchor="middle" x="140" y="-142.5" font-family="Helvetica,sans-Serif" font-size="10.00">MojObject</text>
</a>
</g>
<!-- Node5&#45;&gt;Node2 -->
<g id="edge8" class="edge"><title>Node5&#45;&gt;Node2</title>
<path fill="none" stroke="#9a32cd" stroke-dasharray="5,2" d="M127.617,-125.909C118.465,-111.801 106.344,-93.1143 98.8645,-81.5827"/>
<polygon fill="#9a32cd" stroke="#9a32cd" points="124.744,-127.913 133.123,-134.398 130.617,-124.103 124.744,-127.913"/>
<text text-anchor="middle" x="131" y="-104.5" font-family="Helvetica,sans-Serif" font-size="10.00"> m_id</text>
</g>
<!-- Node5&#45;&gt;Node5 -->
<g id="edge10" class="edge"><title>Node5&#45;&gt;Node5</title>
<path fill="none" stroke="#9a32cd" stroke-dasharray="5,2" d="M182.222,-150.066C186.945,-149.111 190,-147.422 190,-145 190,-141.125 182.179,-139.127 172.22,-139.006"/>
<polygon fill="#9a32cd" stroke="#9a32cd" points="181.854,-146.585 172.22,-150.994 182.501,-153.555 181.854,-146.585"/>
<text text-anchor="middle" x="214.5" y="-149" font-family="Helvetica,sans-Serif" font-size="10.00"> Null</text>
<text text-anchor="middle" x="214.5" y="-136" font-family="Helvetica,sans-Serif" font-size="10.00">Undefined</text>
</g>
</g>
</svg>
