<?xml version="1.0" encoding="UTF-8" standalone="no"?>
<!DOCTYPE svg PUBLIC "-//W3C//DTD SVG 1.1//EN"
 "http://www.w3.org/Graphics/SVG/1.1/DTD/svg11.dtd">
<!-- Generated by graphviz version 2.26.3 (20100126.1600)
 -->
<!-- Title: MojDbStorageDatabase Pages: 1 -->
<svg width="404pt" height="262pt"
 viewBox="0.00 0.00 404.00 262.00" xmlns="http://www.w3.org/2000/svg" xmlns:xlink="http://www.w3.org/1999/xlink">
<g id="graph1" class="graph" transform="scale(1 1) rotate(0) translate(4 258)">
<title>MojDbStorageDatabase</title>
<polygon fill="white" stroke="white" points="-4,5 -4,-258 401,-258 401,5 -4,5"/>
<!-- Node1 -->
<g id="node1" class="node"><title>Node1</title>
<polygon fill="#bfbfbf" stroke="black" points="141.5,-58.5 141.5,-79.5 270.5,-79.5 270.5,-58.5 141.5,-58.5"/>
<text text-anchor="middle" x="206" y="-66.5" font-family="Helvetica,sans-Serif" font-size="10.00">MojDbStorageDatabase</text>
</g>
<!-- Node5 -->
<g id="node9" class="node"><title>Node5</title>
<a xlink:href="classMojDbBerkeleyDatabase.htm" target="_top" xlink:title="MojDbBerkeleyDatabase">
<polygon fill="white" stroke="black" points="-0.5,-0.5 -0.5,-21.5 132.5,-21.5 132.5,-0.5 -0.5,-0.5"/>
<text text-anchor="middle" x="66" y="-8.5" font-family="Helvetica,sans-Serif" font-size="10.00">MojDbBerkeleyDatabase</text>
</a>
</g>
<!-- Node1&#45;&gt;Node5 -->
<g id="edge8" class="edge"><title>Node1&#45;&gt;Node5</title>
<path fill="none" stroke="midnightblue" d="M171.278,-54.6153C146.594,-44.3889 113.985,-30.8796 91.6374,-21.6212"/>
<polygon fill="midnightblue" stroke="midnightblue" points="170.069,-57.9027 180.647,-58.4966 172.748,-51.4357 170.069,-57.9027"/>
</g>
<!-- Node6 -->
<g id="node11" class="node"><title>Node6</title>
<a xlink:href="classMojDbInnoDatabase.htm" target="_top" xlink:title="MojDbInnoDatabase">
<polygon fill="white" stroke="black" points="149.5,-0.5 149.5,-21.5 262.5,-21.5 262.5,-0.5 149.5,-0.5"/>
<text text-anchor="middle" x="206" y="-8.5" font-family="Helvetica,sans-Serif" font-size="10.00">MojDbInnoDatabase</text>
</a>
</g>
<!-- Node1&#45;&gt;Node6 -->
<g id="edge10" class="edge"><title>Node1&#45;&gt;Node6</title>
<path fill="none" stroke="midnightblue" d="M206,-48.1906C206,-39.1684 206,-28.9941 206,-21.5707"/>
<polygon fill="midnightblue" stroke="midnightblue" points="202.5,-48.3619 206,-58.3619 209.5,-48.3619 202.5,-48.3619"/>
</g>
<!-- Node7 -->
<g id="node13" class="node"><title>Node7</title>
<a xlink:href="classMojDbLevelDatabase.htm" target="_top" xlink:title="MojDbLevelDatabase">
<polygon fill="white" stroke="black" points="279.5,-0.5 279.5,-21.5 396.5,-21.5 396.5,-0.5 279.5,-0.5"/>
<text text-anchor="middle" x="338" y="-8.5" font-family="Helvetica,sans-Serif" font-size="10.00">MojDbLevelDatabase</text>
</a>
</g>
<!-- Node1&#45;&gt;Node7 -->
<g id="edge12" class="edge"><title>Node1&#45;&gt;Node7</title>
<path fill="none" stroke="midnightblue" d="M239.357,-54.3431C262.555,-44.1502 292.943,-30.7977 313.828,-21.6212"/>
<polygon fill="midnightblue" stroke="midnightblue" points="237.651,-51.2695 229.904,-58.4966 240.467,-57.6782 237.651,-51.2695"/>
</g>
<!-- Node2 -->
<g id="node2" class="node"><title>Node2</title>
<a xlink:href="classMojDbStorageCollection.htm" target="_top" xlink:title="MojDbStorageCollection">
<polygon fill="white" stroke="black" points="140.5,-116.5 140.5,-137.5 271.5,-137.5 271.5,-116.5 140.5,-116.5"/>
<text text-anchor="middle" x="206" y="-124.5" font-family="Helvetica,sans-Serif" font-size="10.00">MojDbStorageCollection</text>
</a>
</g>
<!-- Node2&#45;&gt;Node1 -->
<g id="edge2" class="edge"><title>Node2&#45;&gt;Node1</title>
<path fill="none" stroke="midnightblue" d="M206,-106.191C206,-97.1684 206,-86.9941 206,-79.5707"/>
<polygon fill="midnightblue" stroke="midnightblue" points="202.5,-106.362 206,-116.362 209.5,-106.362 202.5,-106.362"/>
</g>
<!-- Node3 -->
<g id="node4" class="node"><title>Node3</title>
<a xlink:href="classMojRefCounted.htm" target="_top" xlink:title="MojRefCounted">
<polygon fill="white" stroke="black" points="161,-174.5 161,-195.5 251,-195.5 251,-174.5 161,-174.5"/>
<text text-anchor="middle" x="206" y="-182.5" font-family="Helvetica,sans-Serif" font-size="10.00">MojRefCounted</text>
</a>
</g>
<!-- Node3&#45;&gt;Node2 -->
<g id="edge4" class="edge"><title>Node3&#45;&gt;Node2</title>
<path fill="none" stroke="midnightblue" d="M206,-164.191C206,-155.168 206,-144.994 206,-137.571"/>
<polygon fill="midnightblue" stroke="midnightblue" points="202.5,-164.362 206,-174.362 209.5,-164.362 202.5,-164.362"/>
</g>
<!-- Node4 -->
<g id="node6" class="node"><title>Node4</title>
<a xlink:href="classMojNoCopy.htm" target="_top" xlink:title="MojNoCopy">
<polygon fill="white" stroke="black" points="170,-232.5 170,-253.5 242,-253.5 242,-232.5 170,-232.5"/>
<text text-anchor="middle" x="206" y="-240.5" font-family="Helvetica,sans-Serif" font-size="10.00">MojNoCopy</text>
</a>
</g>
<!-- Node4&#45;&gt;Node3 -->
<g id="edge6" class="edge"><title>Node4&#45;&gt;Node3</title>
<path fill="none" stroke="#8b1a1a" d="M206,-222.191C206,-213.168 206,-202.994 206,-195.571"/>
<polygon fill="#8b1a1a" stroke="#8b1a1a" points="202.5,-222.362 206,-232.362 209.5,-222.362 202.5,-222.362"/>
</g>
</g>
</svg>
