<?xml version="1.0" encoding="UTF-8" standalone="no"?>
<!DOCTYPE svg PUBLIC "-//W3C//DTD SVG 1.1//EN"
 "http://www.w3.org/Graphics/SVG/1.1/DTD/svg11.dtd">
<!-- Generated by graphviz version 2.26.3 (20100126.1600)
 -->
<!-- Title: MojMessage Pages: 1 -->
<svg width="237pt" height="234pt"
 viewBox="0.00 0.00 237.00 234.00" xmlns="http://www.w3.org/2000/svg" xmlns:xlink="http://www.w3.org/1999/xlink">
<g id="graph1" class="graph" transform="scale(1 1) rotate(0) translate(4 230)">
<title>MojMessage</title>
<polygon fill="white" stroke="white" points="-4,5 -4,-230 234,-230 234,5 -4,5"/>
<!-- Node1 -->
<g id="node1" class="node"><title>Node1</title>
<polygon fill="#bfbfbf" stroke="black" points="75.5,-0.5 75.5,-21.5 152.5,-21.5 152.5,-0.5 75.5,-0.5"/>
<text text-anchor="middle" x="114" y="-8.5" font-family="Helvetica,sans-Serif" font-size="10.00">MojMessage</text>
</g>
<!-- Node2 -->
<g id="node2" class="node"><title>Node2</title>
<a xlink:href="classMojSignalHandler.htm" target="_top" xlink:title="MojSignalHandler">
<polygon fill="white" stroke="black" points="-0.5,-60.5 -0.5,-81.5 100.5,-81.5 100.5,-60.5 -0.5,-60.5"/>
<text text-anchor="middle" x="50" y="-68.5" font-family="Helvetica,sans-Serif" font-size="10.00">MojSignalHandler</text>
</a>
</g>
<!-- Node2&#45;&gt;Node1 -->
<g id="edge2" class="edge"><title>Node2&#45;&gt;Node1</title>
<path fill="none" stroke="midnightblue" d="M68.8948,-53.2861C79.8621,-43.0043 93.312,-30.395 102.657,-21.6339"/>
<polygon fill="midnightblue" stroke="midnightblue" points="66.3435,-50.8804 61.4419,-60.2732 71.1311,-55.9871 66.3435,-50.8804"/>
</g>
<!-- Node3 -->
<g id="node4" class="node"><title>Node3</title>
<a xlink:href="classMojRefCounted.htm" target="_top" xlink:title="MojRefCounted">
<polygon fill="white" stroke="black" points="13,-144.5 13,-165.5 103,-165.5 103,-144.5 13,-144.5"/>
<text text-anchor="middle" x="58" y="-152.5" font-family="Helvetica,sans-Serif" font-size="10.00">MojRefCounted</text>
</a>
</g>
<!-- Node3&#45;&gt;Node2 -->
<g id="edge4" class="edge"><title>Node3&#45;&gt;Node2</title>
<path fill="none" stroke="midnightblue" d="M55.9948,-133.945C54.4054,-117.257 52.2513,-94.6387 51.005,-81.5523"/>
<polygon fill="midnightblue" stroke="midnightblue" points="52.5544,-134.738 56.9868,-144.361 59.5229,-134.075 52.5544,-134.738"/>
</g>
<!-- Node4 -->
<g id="node6" class="node"><title>Node4</title>
<a xlink:href="classMojNoCopy.htm" target="_top" xlink:title="MojNoCopy">
<polygon fill="white" stroke="black" points="71,-204.5 71,-225.5 143,-225.5 143,-204.5 71,-204.5"/>
<text text-anchor="middle" x="107" y="-212.5" font-family="Helvetica,sans-Serif" font-size="10.00">MojNoCopy</text>
</a>
</g>
<!-- Node4&#45;&gt;Node3 -->
<g id="edge6" class="edge"><title>Node4&#45;&gt;Node3</title>
<path fill="none" stroke="#8b1a1a" d="M91.7952,-196.382C83.5397,-186.273 73.6308,-174.14 66.6844,-165.634"/>
<polygon fill="#8b1a1a" stroke="#8b1a1a" points="89.2035,-198.742 98.2398,-204.273 94.6253,-194.314 89.2035,-198.742"/>
</g>
<!-- Node5 -->
<g id="node8" class="node"><title>Node5</title>
<a xlink:href="classMojListEntry.htm" target="_top" xlink:title="MojListEntry">
<polygon fill="white" stroke="black" points="97.5,-102.5 97.5,-123.5 172.5,-123.5 172.5,-102.5 97.5,-102.5"/>
<text text-anchor="middle" x="135" y="-110.5" font-family="Helvetica,sans-Serif" font-size="10.00">MojListEntry</text>
</a>
</g>
<!-- Node4&#45;&gt;Node5 -->
<g id="edge10" class="edge"><title>Node4&#45;&gt;Node5</title>
<path fill="none" stroke="#8b1a1a" d="M112.562,-194.74C118.437,-173.336 127.476,-140.409 132.083,-123.627"/>
<polygon fill="#8b1a1a" stroke="#8b1a1a" points="109.163,-193.899 109.891,-204.468 115.913,-195.752 109.163,-193.899"/>
</g>
<!-- Node5&#45;&gt;Node1 -->
<g id="edge8" class="edge"><title>Node5&#45;&gt;Node1</title>
<path fill="none" stroke="#9a32cd" stroke-dasharray="5,2" d="M130.768,-92.446C126.36,-71.0356 119.627,-38.3326 116.188,-21.6271"/>
<polygon fill="#9a32cd" stroke="#9a32cd" points="127.387,-93.3796 132.832,-102.468 134.243,-91.968 127.387,-93.3796"/>
<text text-anchor="middle" x="163.5" y="-68.5" font-family="Helvetica,sans-Serif" font-size="10.00"> m_queueEntry</text>
</g>
<!-- Node5&#45;&gt;Node5 -->
<g id="edge12" class="edge"><title>Node5&#45;&gt;Node5</title>
<path fill="none" stroke="#9a32cd" stroke-dasharray="5,2" d="M182.771,-119.296C187.204,-117.998 190,-115.899 190,-113 190,-108.242 182.472,-105.64 172.532,-105.194"/>
<polygon fill="#9a32cd" stroke="#9a32cd" points="181.914,-115.885 172.532,-120.806 182.935,-122.81 181.914,-115.885"/>
<text text-anchor="middle" x="209.5" y="-117" font-family="Helvetica,sans-Serif" font-size="10.00"> m_prev</text>
<text text-anchor="middle" x="209.5" y="-104" font-family="Helvetica,sans-Serif" font-size="10.00">m_next</text>
</g>
</g>
</svg>
