<?xml version="1.0" encoding="UTF-8" standalone="no"?>
<!DOCTYPE svg PUBLIC "-//W3C//DTD SVG 1.1//EN"
 "http://www.w3.org/Graphics/SVG/1.1/DTD/svg11.dtd">
<!-- Generated by graphviz version 2.26.3 (20100126.1600)
 -->
<!-- Title: MojSlotBase0 Pages: 1 -->
<svg width="90pt" height="146pt"
 viewBox="0.00 0.00 90.00 146.00" xmlns="http://www.w3.org/2000/svg" xmlns:xlink="http://www.w3.org/1999/xlink">
<g id="graph1" class="graph" transform="scale(1 1) rotate(0) translate(4 142)">
<title>MojSlotBase0</title>
<polygon fill="white" stroke="white" points="-4,5 -4,-142 87,-142 87,5 -4,5"/>
<!-- Node1 -->
<g id="node1" class="node"><title>Node1</title>
<polygon fill="#bfbfbf" stroke="black" points="0,-0.5 0,-21.5 82,-21.5 82,-0.5 0,-0.5"/>
<text text-anchor="middle" x="41" y="-8.5" font-family="Helvetica,sans-Serif" font-size="10.00">MojSlotBase0</text>
</g>
<!-- Node2 -->
<g id="node2" class="node"><title>Node2</title>
<a xlink:href="classMojSlotBase.htm" target="_top" xlink:title="MojSlotBase">
<polygon fill="white" stroke="black" points="3,-58.5 3,-79.5 79,-79.5 79,-58.5 3,-58.5"/>
<text text-anchor="middle" x="41" y="-66.5" font-family="Helvetica,sans-Serif" font-size="10.00">MojSlotBase</text>
</a>
</g>
<!-- Node2&#45;&gt;Node1 -->
<g id="edge2" class="edge"><title>Node2&#45;&gt;Node1</title>
<path fill="none" stroke="midnightblue" d="M41,-48.1906C41,-39.1684 41,-28.9941 41,-21.5707"/>
<polygon fill="midnightblue" stroke="midnightblue" points="37.5001,-48.3619 41,-58.3619 44.5001,-48.3619 37.5001,-48.3619"/>
</g>
<!-- Node3 -->
<g id="node4" class="node"><title>Node3</title>
<a xlink:href="classMojNoCopy.htm" target="_top" xlink:title="MojNoCopy">
<polygon fill="white" stroke="black" points="5,-116.5 5,-137.5 77,-137.5 77,-116.5 5,-116.5"/>
<text text-anchor="middle" x="41" y="-124.5" font-family="Helvetica,sans-Serif" font-size="10.00">MojNoCopy</text>
</a>
</g>
<!-- Node3&#45;&gt;Node2 -->
<g id="edge4" class="edge"><title>Node3&#45;&gt;Node2</title>
<path fill="none" stroke="#8b1a1a" d="M41,-106.191C41,-97.1684 41,-86.9941 41,-79.5707"/>
<polygon fill="#8b1a1a" stroke="#8b1a1a" points="37.5001,-106.362 41,-116.362 44.5001,-106.362 37.5001,-106.362"/>
</g>
</g>
</svg>
