<?xml version="1.0" encoding="UTF-8" standalone="no"?>
<!DOCTYPE svg PUBLIC "-//W3C//DTD SVG 1.1//EN"
 "http://www.w3.org/Graphics/SVG/1.1/DTD/svg11.dtd">
<!-- Generated by graphviz version 2.26.3 (20100126.1600)
 -->
<!-- Title: MojReactorApp&lt; REACTOR &gt; Pages: 1 -->
<svg width="166pt" height="204pt"
 viewBox="0.00 0.00 166.00 204.00" xmlns="http://www.w3.org/2000/svg" xmlns:xlink="http://www.w3.org/1999/xlink">
<g id="graph1" class="graph" transform="scale(1 1) rotate(0) translate(4 200)">
<title>MojReactorApp&lt; REACTOR &gt;</title>
<polygon fill="white" stroke="white" points="-4,5 -4,-200 163,-200 163,5 -4,5"/>
<!-- Node1 -->
<g id="node1" class="node"><title>Node1</title>
<polygon fill="#bfbfbf" stroke="black" points="-0.5,-0.5 -0.5,-21.5 158.5,-21.5 158.5,-0.5 -0.5,-0.5"/>
<text text-anchor="middle" x="79" y="-8.5" font-family="Helvetica,sans-Serif" font-size="10.00">MojReactorApp&lt; REACTOR &gt;</text>
</g>
<!-- Node2 -->
<g id="node2" class="node"><title>Node2</title>
<a xlink:href="classMojServiceApp.htm" target="_top" xlink:title="MojServiceApp">
<polygon fill="white" stroke="black" points="35,-58.5 35,-79.5 123,-79.5 123,-58.5 35,-58.5"/>
<text text-anchor="middle" x="79" y="-66.5" font-family="Helvetica,sans-Serif" font-size="10.00">MojServiceApp</text>
</a>
</g>
<!-- Node2&#45;&gt;Node1 -->
<g id="edge2" class="edge"><title>Node2&#45;&gt;Node1</title>
<path fill="none" stroke="midnightblue" d="M79,-48.1906C79,-39.1684 79,-28.9941 79,-21.5707"/>
<polygon fill="midnightblue" stroke="midnightblue" points="75.5001,-48.3619 79,-58.3619 82.5001,-48.3619 75.5001,-48.3619"/>
</g>
<!-- Node3 -->
<g id="node4" class="node"><title>Node3</title>
<a xlink:href="classMojApp.htm" target="_top" xlink:title="MojApp">
<polygon fill="white" stroke="black" points="52.5,-116.5 52.5,-137.5 105.5,-137.5 105.5,-116.5 52.5,-116.5"/>
<text text-anchor="middle" x="79" y="-124.5" font-family="Helvetica,sans-Serif" font-size="10.00">MojApp</text>
</a>
</g>
<!-- Node3&#45;&gt;Node2 -->
<g id="edge4" class="edge"><title>Node3&#45;&gt;Node2</title>
<path fill="none" stroke="midnightblue" d="M79,-106.191C79,-97.1684 79,-86.9941 79,-79.5707"/>
<polygon fill="midnightblue" stroke="midnightblue" points="75.5001,-106.362 79,-116.362 82.5001,-106.362 75.5001,-106.362"/>
</g>
<!-- Node4 -->
<g id="node6" class="node"><title>Node4</title>
<a xlink:href="classMojNoCopy.htm" target="_top" xlink:title="MojNoCopy">
<polygon fill="white" stroke="black" points="43,-174.5 43,-195.5 115,-195.5 115,-174.5 43,-174.5"/>
<text text-anchor="middle" x="79" y="-182.5" font-family="Helvetica,sans-Serif" font-size="10.00">MojNoCopy</text>
</a>
</g>
<!-- Node4&#45;&gt;Node3 -->
<g id="edge6" class="edge"><title>Node4&#45;&gt;Node3</title>
<path fill="none" stroke="#8b1a1a" d="M79,-164.191C79,-155.168 79,-144.994 79,-137.571"/>
<polygon fill="#8b1a1a" stroke="#8b1a1a" points="75.5001,-164.362 79,-174.362 82.5001,-164.362 75.5001,-164.362"/>
</g>
</g>
</svg>
