<?xml version="1.0" encoding="UTF-8" standalone="no"?>
<!DOCTYPE svg PUBLIC "-//W3C//DTD SVG 1.1//EN"
 "http://www.w3.org/Graphics/SVG/1.1/DTD/svg11.dtd">
<!-- Generated by graphviz version 2.26.3 (20100126.1600)
 -->
<!-- Title: MojList&lt; T, ENTRY &gt;::Iterator Pages: 1 -->
<svg width="160pt" height="254pt"
 viewBox="0.00 0.00 160.00 254.00" xmlns="http://www.w3.org/2000/svg" xmlns:xlink="http://www.w3.org/1999/xlink">
<g id="graph1" class="graph" transform="scale(1 1) rotate(0) translate(4 250)">
<title>MojList&lt; T, ENTRY &gt;::Iterator</title>
<polygon fill="white" stroke="white" points="-4,5 -4,-250 157,-250 157,5 -4,5"/>
<!-- Node1 -->
<g id="node1" class="node"><title>Node1</title>
<polygon fill="#bfbfbf" stroke="black" points="0,-1 0,-35 116,-35 116,-1 0,-1"/>
<text text-anchor="start" x="8" y="-22" font-family="Helvetica,sans-Serif" font-size="10.00">MojList&lt; T, ENTRY &gt;</text>
<text text-anchor="middle" x="58" y="-9" font-family="Helvetica,sans-Serif" font-size="10.00">::Iterator</text>
</g>
<!-- Node2 -->
<g id="node2" class="node"><title>Node2</title>
<a xlink:href="classMojList_1_1ConstIterator.htm" target="_top" xlink:title="MojList\&lt; T, ENTRY \&gt;\l::ConstIterator">
<polygon fill="white" stroke="black" points="0,-75 0,-109 116,-109 116,-75 0,-75"/>
<text text-anchor="start" x="8" y="-96" font-family="Helvetica,sans-Serif" font-size="10.00">MojList&lt; T, ENTRY &gt;</text>
<text text-anchor="middle" x="58" y="-83" font-family="Helvetica,sans-Serif" font-size="10.00">::ConstIterator</text>
</a>
</g>
<!-- Node2&#45;&gt;Node1 -->
<g id="edge2" class="edge"><title>Node2&#45;&gt;Node1</title>
<path fill="none" stroke="#8b1a1a" d="M58,-64.6275C58,-54.7253 58,-43.8344 58,-35.07"/>
<polygon fill="#8b1a1a" stroke="#8b1a1a" points="54.5001,-64.8369 58,-74.8369 61.5001,-64.8369 54.5001,-64.8369"/>
</g>
<!-- Node3 -->
<g id="node4" class="node"><title>Node3</title>
<a xlink:href="classMojListEntry.htm" target="_top" xlink:title="MojListEntry">
<polygon fill="white" stroke="black" points="20.5,-162.5 20.5,-183.5 95.5,-183.5 95.5,-162.5 20.5,-162.5"/>
<text text-anchor="middle" x="58" y="-170.5" font-family="Helvetica,sans-Serif" font-size="10.00">MojListEntry</text>
</a>
</g>
<!-- Node3&#45;&gt;Node2 -->
<g id="edge4" class="edge"><title>Node3&#45;&gt;Node2</title>
<path fill="none" stroke="#9a32cd" stroke-dasharray="5,2" d="M58,-152.253C58,-138.875 58,-121.689 58,-109.098"/>
<polygon fill="#9a32cd" stroke="#9a32cd" points="54.5001,-152.411 58,-162.411 61.5001,-152.411 54.5001,-152.411"/>
<text text-anchor="middle" x="75.5" y="-132.5" font-family="Helvetica,sans-Serif" font-size="10.00"> m_pos</text>
</g>
<!-- Node3&#45;&gt;Node3 -->
<g id="edge8" class="edge"><title>Node3&#45;&gt;Node3</title>
<path fill="none" stroke="#9a32cd" stroke-dasharray="5,2" d="M105.771,-177.797C110.204,-176.808 113,-175.209 113,-173 113,-169.375 105.472,-167.393 95.5316,-167.053"/>
<polygon fill="#9a32cd" stroke="#9a32cd" points="105.078,-174.353 95.5316,-178.947 105.86,-181.309 105.078,-174.353"/>
<text text-anchor="middle" x="132.5" y="-177" font-family="Helvetica,sans-Serif" font-size="10.00"> m_prev</text>
<text text-anchor="middle" x="132.5" y="-164" font-family="Helvetica,sans-Serif" font-size="10.00">m_next</text>
</g>
<!-- Node4 -->
<g id="node6" class="node"><title>Node4</title>
<a xlink:href="classMojNoCopy.htm" target="_top" xlink:title="MojNoCopy">
<polygon fill="white" stroke="black" points="22,-224.5 22,-245.5 94,-245.5 94,-224.5 22,-224.5"/>
<text text-anchor="middle" x="58" y="-232.5" font-family="Helvetica,sans-Serif" font-size="10.00">MojNoCopy</text>
</a>
</g>
<!-- Node4&#45;&gt;Node3 -->
<g id="edge6" class="edge"><title>Node4&#45;&gt;Node3</title>
<path fill="none" stroke="#8b1a1a" d="M58,-214.299C58,-204.079 58,-192.173 58,-183.777"/>
<polygon fill="#8b1a1a" stroke="#8b1a1a" points="54.5001,-214.483 58,-224.483 61.5001,-214.483 54.5001,-214.483"/>
</g>
</g>
</svg>
