<?xml version="1.0" encoding="UTF-8" standalone="no"?>
<!DOCTYPE svg PUBLIC "-//W3C//DTD SVG 1.1//EN"
 "http://www.w3.org/Graphics/SVG/1.1/DTD/svg11.dtd">
<!-- Generated by graphviz version 2.26.3 (20100126.1600)
 -->
<!-- Title: MojDbIsamQuery Pages: 1 -->
<svg width="1536pt" height="560pt"
 viewBox="0.00 0.00 1536.00 560.00" xmlns="http://www.w3.org/2000/svg" xmlns:xlink="http://www.w3.org/1999/xlink">
<g id="graph1" class="graph" transform="scale(1 1) rotate(0) translate(4 556)">
<title>MojDbIsamQuery</title>
<polygon fill="white" stroke="white" points="-4,5 -4,-556 1533,-556 1533,5 -4,5"/>
<!-- Node1 -->
<g id="node1" class="node"><title>Node1</title>
<polygon fill="#bfbfbf" stroke="black" points="1430,-200.5 1430,-221.5 1528,-221.5 1528,-200.5 1430,-200.5"/>
<text text-anchor="middle" x="1479" y="-208.5" font-family="Helvetica,sans-Serif" font-size="10.00">MojDbIsamQuery</text>
</g>
<!-- Node2 -->
<g id="node2" class="node"><title>Node2</title>
<a xlink:href="classMojDbStorageQuery.htm" target="_top" xlink:title="MojDbStorageQuery">
<polygon fill="white" stroke="black" points="1192.5,-372.5 1192.5,-393.5 1305.5,-393.5 1305.5,-372.5 1192.5,-372.5"/>
<text text-anchor="middle" x="1249" y="-380.5" font-family="Helvetica,sans-Serif" font-size="10.00">MojDbStorageQuery</text>
</a>
</g>
<!-- Node2&#45;&gt;Node1 -->
<g id="edge2" class="edge"><title>Node2&#45;&gt;Node1</title>
<path fill="none" stroke="midnightblue" d="M1315.87,-379.203C1347.9,-374.358 1385.06,-363.957 1412,-342 1452,-309.401 1470.59,-246.684 1476.65,-221.676"/>
<polygon fill="midnightblue" stroke="midnightblue" points="1315.1,-375.774 1305.67,-380.588 1316.05,-382.71 1315.1,-375.774"/>
</g>
<!-- Node3 -->
<g id="node4" class="node"><title>Node3</title>
<a xlink:href="classMojRefCounted.htm" target="_top" xlink:title="MojRefCounted">
<polygon fill="white" stroke="black" points="113,-315.5 113,-336.5 203,-336.5 203,-315.5 113,-315.5"/>
<text text-anchor="middle" x="158" y="-323.5" font-family="Helvetica,sans-Serif" font-size="10.00">MojRefCounted</text>
</a>
</g>
<!-- Node3&#45;&gt;Node2 -->
<g id="edge4" class="edge"><title>Node3&#45;&gt;Node2</title>
<path fill="none" stroke="midnightblue" d="M213.116,-328.612C251.937,-330.229 305.137,-332 352,-332 352,-332 352,-332 876,-332 995.67,-332 1026.35,-336.125 1144,-358 1152.16,-359.518 1153.95,-360.958 1162,-363 1174.77,-366.239 1188.65,-369.533 1201.5,-372.487"/>
<polygon fill="midnightblue" stroke="midnightblue" points="213.208,-325.113 203.068,-328.183 212.909,-332.106 213.208,-325.113"/>
</g>
<!-- Node12 -->
<g id="node23" class="node"><title>Node12</title>
<a xlink:href="classMojDbStorageItem.htm" target="_top" xlink:title="MojDbStorageItem">
<polygon fill="white" stroke="black" points="300,-232.5 300,-253.5 404,-253.5 404,-232.5 300,-232.5"/>
<text text-anchor="middle" x="352" y="-240.5" font-family="Helvetica,sans-Serif" font-size="10.00">MojDbStorageItem</text>
</a>
</g>
<!-- Node3&#45;&gt;Node12 -->
<g id="edge26" class="edge"><title>Node3&#45;&gt;Node12</title>
<path fill="none" stroke="midnightblue" d="M191.866,-311.511C230.562,-294.955 292.958,-268.26 327.324,-253.557"/>
<polygon fill="midnightblue" stroke="midnightblue" points="190.387,-308.337 182.57,-315.488 193.141,-314.772 190.387,-308.337"/>
</g>
<!-- Node19 -->
<g id="node41" class="node"><title>Node19</title>
<a xlink:href="classMojSignalHandler.htm" target="_top" xlink:title="MojSignalHandler">
<polygon fill="white" stroke="black" points="301.5,-406.5 301.5,-427.5 402.5,-427.5 402.5,-406.5 301.5,-406.5"/>
<text text-anchor="middle" x="352" y="-414.5" font-family="Helvetica,sans-Serif" font-size="10.00">MojSignalHandler</text>
</a>
</g>
<!-- Node3&#45;&gt;Node19 -->
<g id="edge48" class="edge"><title>Node3&#45;&gt;Node19</title>
<path fill="none" stroke="midnightblue" d="M190.034,-341.026C229.385,-359.485 295.136,-390.327 329.51,-406.451"/>
<polygon fill="midnightblue" stroke="midnightblue" points="191.174,-337.695 180.634,-336.617 188.201,-344.032 191.174,-337.695"/>
</g>
<!-- Node4 -->
<g id="node6" class="node"><title>Node4</title>
<a xlink:href="classMojNoCopy.htm" target="_top" xlink:title="MojNoCopy">
<polygon fill="white" stroke="black" points="0,-234.5 0,-255.5 72,-255.5 72,-234.5 0,-234.5"/>
<text text-anchor="middle" x="36" y="-242.5" font-family="Helvetica,sans-Serif" font-size="10.00">MojNoCopy</text>
</a>
</g>
<!-- Node4&#45;&gt;Node3 -->
<g id="edge6" class="edge"><title>Node4&#45;&gt;Node3</title>
<path fill="none" stroke="#8b1a1a" d="M52.4299,-263.384C62.5188,-273.901 76.132,-286.791 90,-296 101.717,-303.78 115.784,-310.374 128.075,-315.381"/>
<polygon fill="#8b1a1a" stroke="#8b1a1a" points="54.8354,-260.832 45.456,-255.905 49.7156,-265.606 54.8354,-260.832"/>
</g>
<!-- Node10 -->
<g id="node18" class="node"><title>Node10</title>
<a xlink:href="classMojSmartPtrBase.htm" target="_top" xlink:title="MojSmartPtrBase\&lt; MojDbObject\lItem \&gt;">
<polygon fill="white" stroke="black" points="792,-265 792,-299 960,-299 960,-265 792,-265"/>
<text text-anchor="start" x="800" y="-286" font-family="Helvetica,sans-Serif" font-size="10.00">MojSmartPtrBase&lt; MojDbObject</text>
<text text-anchor="middle" x="876" y="-273" font-family="Helvetica,sans-Serif" font-size="10.00">Item &gt;</text>
</a>
</g>
<!-- Node4&#45;&gt;Node10 -->
<g id="edge20" class="edge"><title>Node4&#45;&gt;Node10</title>
<path fill="none" stroke="#8b1a1a" d="M66.3694,-259.645C90.5974,-269.982 125.708,-282 158,-282 158,-282 158,-282 564,-282 641.188,-282 729.116,-282 791.912,-282"/>
<polygon fill="#8b1a1a" stroke="#8b1a1a" points="67.5718,-256.35 57.0108,-255.504 64.7392,-262.751 67.5718,-256.35"/>
</g>
<!-- Node16 -->
<g id="node33" class="node"><title>Node16</title>
<a xlink:href="classMojSmartPtrBase.htm" target="_top" xlink:title="MojSmartPtrBase\&lt; MojDbQuery\lPlan \&gt;">
<polygon fill="white" stroke="black" points="268.5,-142 268.5,-176 435.5,-176 435.5,-142 268.5,-142"/>
<text text-anchor="start" x="276.5" y="-163" font-family="Helvetica,sans-Serif" font-size="10.00">MojSmartPtrBase&lt; MojDbQuery</text>
<text text-anchor="middle" x="352" y="-150" font-family="Helvetica,sans-Serif" font-size="10.00">Plan &gt;</text>
</a>
</g>
<!-- Node4&#45;&gt;Node16 -->
<g id="edge38" class="edge"><title>Node4&#45;&gt;Node16</title>
<path fill="none" stroke="#8b1a1a" d="M43.251,-224.908C53.6253,-199.548 75.3687,-157.059 110,-139 172.799,-106.253 257.395,-125.1 308.134,-141.926"/>
<polygon fill="#8b1a1a" stroke="#8b1a1a" points="39.959,-223.717 39.6065,-234.306 46.4854,-226.248 39.959,-223.717"/>
</g>
<!-- Node17 -->
<g id="node36" class="node"><title>Node17</title>
<a xlink:href="classMojDbQueryPlan.htm" target="_top" xlink:title="MojDbQueryPlan">
<polygon fill="white" stroke="black" points="110,-148.5 110,-169.5 206,-169.5 206,-148.5 110,-148.5"/>
<text text-anchor="middle" x="158" y="-156.5" font-family="Helvetica,sans-Serif" font-size="10.00">MojDbQueryPlan</text>
</a>
</g>
<!-- Node4&#45;&gt;Node17 -->
<g id="edge42" class="edge"><title>Node4&#45;&gt;Node17</title>
<path fill="none" stroke="#8b1a1a" d="M52.7408,-227.061C66.9272,-212.641 88.3621,-192.613 110,-179 115.655,-175.443 122.051,-172.271 128.288,-169.559"/>
<polygon fill="#8b1a1a" stroke="#8b1a1a" points="50.069,-224.79 45.6499,-234.419 55.1094,-229.647 50.069,-224.79"/>
</g>
<!-- Node5 -->
<g id="node8" class="node"><title>Node5</title>
<polygon fill="white" stroke="#bfbfbf" points="858,-447.5 858,-468.5 894,-468.5 894,-447.5 858,-447.5"/>
<text text-anchor="middle" x="876" y="-455.5" font-family="Helvetica,sans-Serif" font-size="10.00">bool</text>
</g>
<!-- Node5&#45;&gt;Node1 -->
<g id="edge62" class="edge"><title>Node5&#45;&gt;Node1</title>
<path fill="none" stroke="#9a32cd" stroke-dasharray="5,2" d="M903.92,-463.401C992.631,-478.787 1270.52,-513.019 1412,-370 1455.4,-326.131 1472.34,-249.908 1477.3,-221.806"/>
<polygon fill="#9a32cd" stroke="#9a32cd" points="904.523,-459.953 894.061,-461.631 903.286,-466.843 904.523,-459.953"/>
<text text-anchor="middle" x="1249" y="-477" font-family="Helvetica,sans-Serif" font-size="10.00"> m_isOpen</text>
</g>
<!-- Node5&#45;&gt;Node2 -->
<g id="edge8" class="edge"><title>Node5&#45;&gt;Node2</title>
<path fill="none" stroke="#9a32cd" stroke-dasharray="5,2" d="M903.908,-452.09C924.365,-447.865 952.84,-442.206 978,-438 1051.46,-425.718 1071.26,-431.018 1144,-415 1169.68,-409.344 1198.19,-400.487 1219.01,-393.524"/>
<polygon fill="#9a32cd" stroke="#9a32cd" points="903.077,-448.688 894.001,-454.154 904.505,-455.541 903.077,-448.688"/>
<text text-anchor="middle" x="1061" y="-442" font-family="Helvetica,sans-Serif" font-size="10.00"> m_verify</text>
</g>
<!-- Node6 -->
<g id="node10" class="node"><title>Node6</title>
<a xlink:href="classMojSet.htm" target="_top" xlink:title="MojSet\&lt; MojString \&gt;">
<polygon fill="white" stroke="black" points="819.5,-400.5 819.5,-421.5 932.5,-421.5 932.5,-400.5 819.5,-400.5"/>
<text text-anchor="middle" x="876" y="-408.5" font-family="Helvetica,sans-Serif" font-size="10.00">MojSet&lt; MojString &gt;</text>
</a>
</g>
<!-- Node6&#45;&gt;Node2 -->
<g id="edge10" class="edge"><title>Node6&#45;&gt;Node2</title>
<path fill="none" stroke="#9a32cd" stroke-dasharray="5,2" d="M942.816,-404.931C954.539,-403.916 966.624,-402.901 978,-402 1052.05,-396.138 1137.56,-390.297 1192.4,-386.67"/>
<polygon fill="#9a32cd" stroke="#9a32cd" points="942.292,-401.463 932.635,-405.82 942.901,-408.437 942.292,-401.463"/>
<text text-anchor="middle" x="1061" y="-406" font-family="Helvetica,sans-Serif" font-size="10.00"> m_excludeKinds</text>
</g>
<!-- Node7 -->
<g id="node12" class="node"><title>Node7</title>
<a xlink:href="classMojRbTreeBase.htm" target="_top" xlink:title="MojRbTreeBase">
<polygon fill="white" stroke="black" points="517.5,-400.5 517.5,-421.5 610.5,-421.5 610.5,-400.5 517.5,-400.5"/>
<text text-anchor="middle" x="564" y="-408.5" font-family="Helvetica,sans-Serif" font-size="10.00">MojRbTreeBase</text>
</a>
</g>
<!-- Node7&#45;&gt;Node6 -->
<g id="edge12" class="edge"><title>Node7&#45;&gt;Node6</title>
<path fill="none" stroke="#8b1a1a" d="M620.882,-411C677.274,-411 763.164,-411 819.443,-411"/>
<polygon fill="#8b1a1a" stroke="#8b1a1a" points="620.71,-407.5 610.71,-411 620.71,-414.5 620.71,-407.5"/>
</g>
<!-- Node8 -->
<g id="node14" class="node"><title>Node8</title>
<a xlink:href="classMojDbKey.htm" target="_top" xlink:title="MojDbKey">
<polygon fill="white" stroke="black" points="843.5,-360.5 843.5,-381.5 908.5,-381.5 908.5,-360.5 843.5,-360.5"/>
<text text-anchor="middle" x="876" y="-368.5" font-family="Helvetica,sans-Serif" font-size="10.00">MojDbKey</text>
</a>
</g>
<!-- Node8&#45;&gt;Node2 -->
<g id="edge14" class="edge"><title>Node8&#45;&gt;Node2</title>
<path fill="none" stroke="#9a32cd" stroke-dasharray="5,2" d="M918.696,-367.608C971.648,-363.999 1064.64,-359.617 1144,-366 1160.47,-367.325 1178.26,-369.801 1194.43,-372.462"/>
<polygon fill="#9a32cd" stroke="#9a32cd" points="918.384,-364.122 908.655,-368.316 918.876,-371.104 918.384,-364.122"/>
<text text-anchor="middle" x="1061" y="-370" font-family="Helvetica,sans-Serif" font-size="10.00"> m_endKey</text>
</g>
<!-- Node9 -->
<g id="node16" class="node"><title>Node9</title>
<a xlink:href="classMojRefCountedPtr.htm" target="_top" xlink:title="MojRefCountedPtr\&lt; MojDbObject\lItem \&gt;">
<polygon fill="white" stroke="black" points="1162.5,-320 1162.5,-354 1335.5,-354 1335.5,-320 1162.5,-320"/>
<text text-anchor="start" x="1170.5" y="-341" font-family="Helvetica,sans-Serif" font-size="10.00">MojRefCountedPtr&lt; MojDbObject</text>
<text text-anchor="middle" x="1249" y="-328" font-family="Helvetica,sans-Serif" font-size="10.00">Item &gt;</text>
</a>
</g>
<!-- Node9&#45;&gt;Node1 -->
<g id="edge16" class="edge"><title>Node9&#45;&gt;Node1</title>
<path fill="none" stroke="#9a32cd" stroke-dasharray="5,2" d="M1345.48,-328.939C1368.57,-323.848 1392.24,-315.763 1412,-303 1443.87,-282.416 1465.62,-240.958 1474.51,-221.516"/>
<polygon fill="#9a32cd" stroke="#9a32cd" points="1344.73,-325.519 1335.63,-330.942 1346.13,-332.378 1344.73,-325.519"/>
<text text-anchor="middle" x="1383" y="-329" font-family="Helvetica,sans-Serif" font-size="10.00"> m_lastItem</text>
</g>
<!-- Node10&#45;&gt;Node9 -->
<g id="edge18" class="edge"><title>Node10&#45;&gt;Node9</title>
<path fill="none" stroke="midnightblue" d="M970.142,-293.582C1021.59,-300.18 1086.4,-308.924 1144,-318 1149.95,-318.937 1156.08,-319.942 1162.25,-320.984"/>
<polygon fill="midnightblue" stroke="midnightblue" points="970.399,-290.087 960.036,-292.292 969.512,-297.03 970.399,-290.087"/>
</g>
<!-- Node11 -->
<g id="node21" class="node"><title>Node11</title>
<a xlink:href="classMojDbObjectItem.htm" target="_top" xlink:title="MojDbObjectItem">
<polygon fill="white" stroke="black" points="515.5,-232.5 515.5,-253.5 612.5,-253.5 612.5,-232.5 515.5,-232.5"/>
<text text-anchor="middle" x="564" y="-240.5" font-family="Helvetica,sans-Serif" font-size="10.00">MojDbObjectItem</text>
</a>
</g>
<!-- Node11&#45;&gt;Node10 -->
<g id="edge22" class="edge"><title>Node11&#45;&gt;Node10</title>
<path fill="none" stroke="#9a32cd" stroke-dasharray="5,2" d="M622.797,-243.198C665.089,-244.107 723.359,-246.935 774,-255 789.015,-257.391 805.016,-261.07 819.785,-264.95"/>
<polygon fill="#9a32cd" stroke="#9a32cd" points="622.738,-239.696 612.674,-243.01 622.608,-246.695 622.738,-239.696"/>
<text text-anchor="middle" x="723" y="-259" font-family="Helvetica,sans-Serif" font-size="10.00"> m_p</text>
</g>
<!-- Node12&#45;&gt;Node11 -->
<g id="edge24" class="edge"><title>Node12&#45;&gt;Node11</title>
<path fill="none" stroke="midnightblue" d="M414.35,-243C446.585,-243 485.346,-243 515.343,-243"/>
<polygon fill="midnightblue" stroke="midnightblue" points="414.133,-239.5 404.133,-243 414.133,-246.5 414.133,-239.5"/>
</g>
<!-- Node13 -->
<g id="node26" class="node"><title>Node13</title>
<a xlink:href="classMojObject.htm" target="_top" xlink:title="MojObject">
<polygon fill="white" stroke="black" points="126,-188.5 126,-209.5 190,-209.5 190,-188.5 126,-188.5"/>
<text text-anchor="middle" x="158" y="-196.5" font-family="Helvetica,sans-Serif" font-size="10.00">MojObject</text>
</a>
</g>
<!-- Node13&#45;&gt;Node12 -->
<g id="edge28" class="edge"><title>Node13&#45;&gt;Node12</title>
<path fill="none" stroke="#9a32cd" stroke-dasharray="5,2" d="M200.1,-208.548C231.133,-215.587 273.344,-225.161 305.393,-232.429"/>
<polygon fill="#9a32cd" stroke="#9a32cd" points="200.562,-205.064 190.035,-206.266 199.013,-211.891 200.562,-205.064"/>
<text text-anchor="middle" x="237" y="-224" font-family="Helvetica,sans-Serif" font-size="10.00"> m_id</text>
</g>
<!-- Node13&#45;&gt;Node13 -->
<g id="edge30" class="edge"><title>Node13&#45;&gt;Node13</title>
<path fill="none" stroke="#9a32cd" stroke-dasharray="5,2" d="M145.913,-219.793C146.98,-224.529 151.009,-228 158,-228 169.473,-228 172.968,-218.653 168.487,-209.708"/>
<polygon fill="#9a32cd" stroke="#9a32cd" points="149.403,-220.133 147.513,-209.708 142.489,-219.036 149.403,-220.133"/>
<text text-anchor="middle" x="158" y="-245" font-family="Helvetica,sans-Serif" font-size="10.00"> Null</text>
<text text-anchor="middle" x="158" y="-232" font-family="Helvetica,sans-Serif" font-size="10.00">Undefined</text>
</g>
<!-- Node14 -->
<g id="node29" class="node"><title>Node14</title>
<a xlink:href="classMojAutoPtr.htm" target="_top" xlink:title="MojAutoPtr\&lt; MojDbQueryPlan \&gt;">
<polygon fill="white" stroke="black" points="978,-202.5 978,-223.5 1144,-223.5 1144,-202.5 978,-202.5"/>
<text text-anchor="middle" x="1061" y="-210.5" font-family="Helvetica,sans-Serif" font-size="10.00">MojAutoPtr&lt; MojDbQueryPlan &gt;</text>
</a>
</g>
<!-- Node14&#45;&gt;Node1 -->
<g id="edge32" class="edge"><title>Node14&#45;&gt;Node1</title>
<path fill="none" stroke="#9a32cd" stroke-dasharray="5,2" d="M1085.6,-228.862C1105.36,-240.608 1134.29,-255.633 1162,-262 1237.37,-279.317 1259.8,-275.182 1336,-262 1380.41,-254.317 1429.3,-234.143 1456.86,-221.593"/>
<polygon fill="#9a32cd" stroke="#9a32cd" points="1087.3,-225.801 1076.94,-223.576 1083.65,-231.775 1087.3,-225.801"/>
<text text-anchor="middle" x="1249" y="-277" font-family="Helvetica,sans-Serif" font-size="10.00"> m_plan</text>
</g>
<!-- Node15 -->
<g id="node31" class="node"><title>Node15</title>
<a xlink:href="classMojAutoPtrBase.htm" target="_top" xlink:title="MojAutoPtrBase\&lt; MojDbQuery\lPlan, MojDeleteDtor\&lt; MojDbQuery\lPlan \&gt; \&gt;">
<polygon fill="white" stroke="black" points="474.5,-158.5 474.5,-205.5 653.5,-205.5 653.5,-158.5 474.5,-158.5"/>
<text text-anchor="start" x="482.5" y="-192.5" font-family="Helvetica,sans-Serif" font-size="10.00">MojAutoPtrBase&lt; MojDbQuery</text>
<text text-anchor="start" x="482.5" y="-179.5" font-family="Helvetica,sans-Serif" font-size="10.00">Plan, MojDeleteDtor&lt; MojDbQuery</text>
<text text-anchor="middle" x="564" y="-166.5" font-family="Helvetica,sans-Serif" font-size="10.00">Plan &gt; &gt;</text>
</a>
</g>
<!-- Node15&#45;&gt;Node14 -->
<g id="edge34" class="edge"><title>Node15&#45;&gt;Node14</title>
<path fill="none" stroke="midnightblue" d="M663.893,-188.231C756.054,-193.979 891.316,-202.416 977.765,-207.808"/>
<polygon fill="midnightblue" stroke="midnightblue" points="663.914,-184.725 653.715,-187.596 663.478,-191.712 663.914,-184.725"/>
</g>
<!-- Node16&#45;&gt;Node15 -->
<g id="edge36" class="edge"><title>Node16&#45;&gt;Node15</title>
<path fill="none" stroke="midnightblue" d="M445.92,-169.189C455.316,-170.209 464.841,-171.242 474.194,-172.257"/>
<polygon fill="midnightblue" stroke="midnightblue" points="446.107,-165.689 435.788,-168.09 445.352,-172.648 446.107,-165.689"/>
</g>
<!-- Node17&#45;&gt;Node16 -->
<g id="edge40" class="edge"><title>Node17&#45;&gt;Node16</title>
<path fill="none" stroke="#9a32cd" stroke-dasharray="5,2" d="M216.849,-159C233.075,-159 250.995,-159 268.335,-159"/>
<polygon fill="#9a32cd" stroke="#9a32cd" points="216.454,-155.5 206.454,-159 216.454,-162.5 216.454,-155.5"/>
<text text-anchor="middle" x="237" y="-163" font-family="Helvetica,sans-Serif" font-size="10.00"> m_p</text>
</g>
<!-- Node18 -->
<g id="node39" class="node"><title>Node18</title>
<a xlink:href="classMojDbStorageTxn.htm" target="_top" xlink:title="MojDbStorageTxn">
<polygon fill="white" stroke="black" points="672,-481.5 672,-502.5 774,-502.5 774,-481.5 672,-481.5"/>
<text text-anchor="middle" x="723" y="-489.5" font-family="Helvetica,sans-Serif" font-size="10.00">MojDbStorageTxn</text>
</a>
</g>
<!-- Node18&#45;&gt;Node1 -->
<g id="edge44" class="edge"><title>Node18&#45;&gt;Node1</title>
<path fill="none" stroke="#9a32cd" stroke-dasharray="5,2" d="M773.321,-504.908C881.8,-530.02 1143.43,-575.838 1336,-490 1446.61,-440.695 1472.97,-266.338 1477.98,-221.55"/>
<polygon fill="#9a32cd" stroke="#9a32cd" points="773.845,-501.436 763.309,-502.548 772.239,-508.249 773.845,-501.436"/>
<text text-anchor="middle" x="1061" y="-543" font-family="Helvetica,sans-Serif" font-size="10.00"> m_txn</text>
</g>
<!-- Node19&#45;&gt;Node18 -->
<g id="edge46" class="edge"><title>Node19&#45;&gt;Node18</title>
<path fill="none" stroke="midnightblue" d="M412.676,-429.266C484.894,-443.865 604.202,-467.984 671.914,-481.673"/>
<polygon fill="midnightblue" stroke="midnightblue" points="413.303,-425.822 402.808,-427.271 411.916,-432.683 413.303,-425.822"/>
</g>
<!-- Node20 -->
<g id="node44" class="node"><title>Node20</title>
<a xlink:href="classMojString.htm" target="_top" xlink:title="MojString">
<polygon fill="white" stroke="black" points="1218,-200.5 1218,-221.5 1280,-221.5 1280,-200.5 1218,-200.5"/>
<text text-anchor="middle" x="1249" y="-208.5" font-family="Helvetica,sans-Serif" font-size="10.00">MojString</text>
</a>
</g>
<!-- Node20&#45;&gt;Node1 -->
<g id="edge50" class="edge"><title>Node20&#45;&gt;Node1</title>
<path fill="none" stroke="#9a32cd" stroke-dasharray="5,2" d="M1290.49,-211C1329.56,-211 1388.11,-211 1429.58,-211"/>
<polygon fill="#9a32cd" stroke="#9a32cd" points="1290.02,-207.5 1280.02,-211 1290.02,-214.5 1290.02,-207.5"/>
<text text-anchor="middle" x="1383" y="-215" font-family="Helvetica,sans-Serif" font-size="10.00"> m_distinct</text>
</g>
<!-- Node20&#45;&gt;Node20 -->
<g id="edge52" class="edge"><title>Node20&#45;&gt;Node20</title>
<path fill="none" stroke="#9a32cd" stroke-dasharray="5,2" d="M1224.31,-231.427C1226.21,-236.349 1234.44,-240 1249,-240 1272.29,-240 1279.39,-230.653 1270.29,-221.708"/>
<polygon fill="#9a32cd" stroke="#9a32cd" points="1227.71,-232.303 1227.71,-221.708 1221.1,-229.989 1227.71,-232.303"/>
<text text-anchor="middle" x="1249" y="-244" font-family="Helvetica,sans-Serif" font-size="10.00"> Empty</text>
</g>
<!-- Node21 -->
<g id="node47" class="node"><title>Node21</title>
<polygon fill="white" stroke="#bfbfbf" points="1207.5,-160.5 1207.5,-181.5 1290.5,-181.5 1290.5,-160.5 1207.5,-160.5"/>
<text text-anchor="middle" x="1249" y="-168.5" font-family="Helvetica,sans-Serif" font-size="10.00">unsigned char</text>
</g>
<!-- Node21&#45;&gt;Node1 -->
<g id="edge54" class="edge"><title>Node21&#45;&gt;Node1</title>
<path fill="none" stroke="#9a32cd" stroke-dasharray="5,2" d="M1300.82,-176.857C1332.97,-180.851 1375.06,-186.729 1412,-194 1421.3,-195.831 1431.24,-198.151 1440.54,-200.483"/>
<polygon fill="#9a32cd" stroke="#9a32cd" points="1301.1,-173.365 1290.75,-175.627 1300.25,-180.313 1301.1,-173.365"/>
<text text-anchor="middle" x="1383" y="-198" font-family="Helvetica,sans-Serif" font-size="10.00"> m_keyData</text>
</g>
<!-- Node22 -->
<g id="node49" class="node"><title>Node22</title>
<polygon fill="white" stroke="#bfbfbf" points="1209.5,-120.5 1209.5,-141.5 1288.5,-141.5 1288.5,-120.5 1209.5,-120.5"/>
<text text-anchor="middle" x="1249" y="-128.5" font-family="Helvetica,sans-Serif" font-size="10.00">ConstIterator</text>
</g>
<!-- Node22&#45;&gt;Node1 -->
<g id="edge56" class="edge"><title>Node22&#45;&gt;Node1</title>
<path fill="none" stroke="#9a32cd" stroke-dasharray="5,2" d="M1298.59,-137.664C1331.62,-143.201 1375.5,-152.701 1412,-168 1431.89,-176.335 1452.42,-190.479 1465.42,-200.258"/>
<polygon fill="#9a32cd" stroke="#9a32cd" points="1299.14,-134.207 1288.71,-136.071 1298.03,-141.118 1299.14,-134.207"/>
<text text-anchor="middle" x="1383" y="-172" font-family="Helvetica,sans-Serif" font-size="10.00"> m_iter</text>
</g>
<!-- Node23 -->
<g id="node51" class="node"><title>Node23</title>
<polygon fill="white" stroke="#bfbfbf" points="1222,-80.5 1222,-101.5 1276,-101.5 1276,-80.5 1222,-80.5"/>
<text text-anchor="middle" x="1249" y="-88.5" font-family="Helvetica,sans-Serif" font-size="10.00">MojSize</text>
</g>
<!-- Node23&#45;&gt;Node1 -->
<g id="edge58" class="edge"><title>Node23&#45;&gt;Node1</title>
<path fill="none" stroke="#9a32cd" stroke-dasharray="5,2" d="M1286.41,-93.9062C1321.3,-98.0985 1373.57,-108.292 1412,-133 1439.78,-150.862 1462.4,-183.642 1472.81,-200.451"/>
<polygon fill="#9a32cd" stroke="#9a32cd" points="1286.5,-90.3951 1276.18,-92.7884 1285.74,-97.3537 1286.5,-90.3951"/>
<text text-anchor="middle" x="1383" y="-137" font-family="Helvetica,sans-Serif" font-size="10.00"> m_keySize</text>
</g>
<!-- Node24 -->
<g id="node53" class="node"><title>Node24</title>
<polygon fill="white" stroke="#bfbfbf" points="1234.5,-40.5 1234.5,-61.5 1263.5,-61.5 1263.5,-40.5 1234.5,-40.5"/>
<text text-anchor="middle" x="1249" y="-48.5" font-family="Helvetica,sans-Serif" font-size="10.00">int</text>
</g>
<!-- Node24&#45;&gt;Node1 -->
<g id="edge60" class="edge"><title>Node24&#45;&gt;Node1</title>
<path fill="none" stroke="#9a32cd" stroke-dasharray="5,2" d="M1273.92,-51.1928C1308.43,-52.697 1371.14,-60.0416 1412,-92 1449.16,-121.069 1469.03,-176.852 1476.04,-200.252"/>
<polygon fill="#9a32cd" stroke="#9a32cd" points="1273.87,-47.6897 1263.77,-50.8858 1273.66,-54.6866 1273.87,-47.6897"/>
<text text-anchor="middle" x="1383" y="-96" font-family="Helvetica,sans-Serif" font-size="10.00"> m_count</text>
</g>
<!-- Node25 -->
<g id="node56" class="node"><title>Node25</title>
<polygon fill="white" stroke="#bfbfbf" points="1228.5,-0.5 1228.5,-21.5 1269.5,-21.5 1269.5,-0.5 1228.5,-0.5"/>
<text text-anchor="middle" x="1249" y="-8.5" font-family="Helvetica,sans-Serif" font-size="10.00">State</text>
</g>
<!-- Node25&#45;&gt;Node1 -->
<g id="edge64" class="edge"><title>Node25&#45;&gt;Node1</title>
<path fill="none" stroke="#9a32cd" stroke-dasharray="5,2" d="M1279.99,-9.94604C1315.82,-10.3816 1374.65,-16.4134 1412,-48 1460.59,-89.0955 1474.45,-171.016 1477.94,-200.292"/>
<polygon fill="#9a32cd" stroke="#9a32cd" points="1279.65,-6.44667 1269.65,-9.96844 1279.66,-13.4467 1279.65,-6.44667"/>
<text text-anchor="middle" x="1383" y="-52" font-family="Helvetica,sans-Serif" font-size="10.00"> m_state</text>
</g>
</g>
</svg>
