<?xml version="1.0" encoding="UTF-8" standalone="no"?>
<!DOCTYPE svg PUBLIC "-//W3C//DTD SVG 1.1//EN"
 "http://www.w3.org/Graphics/SVG/1.1/DTD/svg11.dtd">
<!-- Generated by graphviz version 2.26.3 (20100126.1600)
 -->
<!-- Title: MojServiceApp Pages: 1 -->
<svg width="259pt" height="246pt"
 viewBox="0.00 0.00 259.00 246.00" xmlns="http://www.w3.org/2000/svg" xmlns:xlink="http://www.w3.org/1999/xlink">
<g id="graph1" class="graph" transform="scale(1 1) rotate(0) translate(4 242)">
<title>MojServiceApp</title>
<polygon fill="white" stroke="white" points="-4,5 -4,-242 256,-242 256,5 -4,5"/>
<!-- Node1 -->
<g id="node1" class="node"><title>Node1</title>
<polygon fill="#bfbfbf" stroke="black" points="78,-0.5 78,-21.5 166,-21.5 166,-0.5 78,-0.5"/>
<text text-anchor="middle" x="122" y="-8.5" font-family="Helvetica,sans-Serif" font-size="10.00">MojServiceApp</text>
</g>
<!-- Node2 -->
<g id="node2" class="node"><title>Node2</title>
<a xlink:href="classMojApp.htm" target="_top" xlink:title="MojApp">
<polygon fill="white" stroke="black" points="50.5,-72.5 50.5,-93.5 103.5,-93.5 103.5,-72.5 50.5,-72.5"/>
<text text-anchor="middle" x="77" y="-80.5" font-family="Helvetica,sans-Serif" font-size="10.00">MojApp</text>
</a>
</g>
<!-- Node2&#45;&gt;Node1 -->
<g id="edge2" class="edge"><title>Node2&#45;&gt;Node1</title>
<path fill="none" stroke="midnightblue" d="M88.9938,-63.8099C97.4309,-50.3106 108.409,-32.7449 115.333,-21.6674"/>
<polygon fill="midnightblue" stroke="midnightblue" points="85.9719,-62.0411 83.6399,-72.3762 91.9079,-65.7512 85.9719,-62.0411"/>
</g>
<!-- Node3 -->
<g id="node4" class="node"><title>Node3</title>
<a xlink:href="classMojNoCopy.htm" target="_top" xlink:title="MojNoCopy">
<polygon fill="white" stroke="black" points="0,-216.5 0,-237.5 72,-237.5 72,-216.5 0,-216.5"/>
<text text-anchor="middle" x="36" y="-224.5" font-family="Helvetica,sans-Serif" font-size="10.00">MojNoCopy</text>
</a>
</g>
<!-- Node3&#45;&gt;Node2 -->
<g id="edge4" class="edge"><title>Node3&#45;&gt;Node2</title>
<path fill="none" stroke="#8b1a1a" d="M32.2364,-205.897C30.4455,-191.57 29.5468,-172.334 34,-156 40.6545,-131.592 57.7779,-107.029 68.2987,-93.5371"/>
<polygon fill="#8b1a1a" stroke="#8b1a1a" points="28.8347,-206.814 33.7787,-216.185 35.7574,-205.776 28.8347,-206.814"/>
</g>
<!-- Node5 -->
<g id="node8" class="node"><title>Node5</title>
<a xlink:href="classMojLogger.htm" target="_top" xlink:title="MojLogger">
<polygon fill="white" stroke="black" points="43,-156.5 43,-177.5 111,-177.5 111,-156.5 43,-156.5"/>
<text text-anchor="middle" x="77" y="-164.5" font-family="Helvetica,sans-Serif" font-size="10.00">MojLogger</text>
</a>
</g>
<!-- Node3&#45;&gt;Node5 -->
<g id="edge10" class="edge"><title>Node3&#45;&gt;Node5</title>
<path fill="none" stroke="#8b1a1a" d="M49.1384,-207.773C55.9607,-197.789 64.0374,-185.97 69.7335,-177.634"/>
<polygon fill="#8b1a1a" stroke="#8b1a1a" points="46.0822,-206.042 43.33,-216.273 51.8617,-209.991 46.0822,-206.042"/>
</g>
<!-- Node4 -->
<g id="node6" class="node"><title>Node4</title>
<polygon fill="white" stroke="#bfbfbf" points="129,-156.5 129,-177.5 251,-177.5 251,-156.5 129,-156.5"/>
<text text-anchor="middle" x="190" y="-164.5" font-family="Helvetica,sans-Serif" font-size="10.00">static const MojUInt32</text>
</g>
<!-- Node4&#45;&gt;Node2 -->
<g id="edge6" class="edge"><title>Node4&#45;&gt;Node2</title>
<path fill="none" stroke="#9a32cd" stroke-dasharray="5,2" d="M167.613,-150.358C144.892,-133.469 110.408,-107.834 91.1953,-93.5523"/>
<polygon fill="#9a32cd" stroke="#9a32cd" points="165.575,-153.204 175.688,-156.361 169.751,-147.587 165.575,-153.204"/>
<text text-anchor="middle" x="183.5" y="-129" font-family="Helvetica,sans-Serif" font-size="10.00"> MinorVersion</text>
<text text-anchor="middle" x="183.5" y="-116" font-family="Helvetica,sans-Serif" font-size="10.00">MajorVersion</text>
</g>
<!-- Node5&#45;&gt;Node2 -->
<g id="edge8" class="edge"><title>Node5&#45;&gt;Node2</title>
<path fill="none" stroke="#9a32cd" stroke-dasharray="5,2" d="M77,-145.945C77,-129.257 77,-106.639 77,-93.5523"/>
<polygon fill="#9a32cd" stroke="#9a32cd" points="73.5001,-146.361 77,-156.361 80.5001,-146.361 73.5001,-146.361"/>
<text text-anchor="middle" x="91.5" y="-122.5" font-family="Helvetica,sans-Serif" font-size="10.00"> s_log</text>
</g>
<!-- Node6 -->
<g id="node11" class="node"><title>Node6</title>
<polygon fill="white" stroke="#bfbfbf" points="121,-72.5 121,-93.5 157,-93.5 157,-72.5 121,-72.5"/>
<text text-anchor="middle" x="139" y="-80.5" font-family="Helvetica,sans-Serif" font-size="10.00">bool</text>
</g>
<!-- Node6&#45;&gt;Node1 -->
<g id="edge12" class="edge"><title>Node6&#45;&gt;Node1</title>
<path fill="none" stroke="#9a32cd" stroke-dasharray="5,2" d="M134.191,-62.6318C131.044,-49.3026 127.059,-32.4253 124.519,-21.6674"/>
<polygon fill="#9a32cd" stroke="#9a32cd" points="130.787,-63.4481 136.492,-72.3762 137.6,-61.8395 130.787,-63.4481"/>
<text text-anchor="middle" x="163.5" y="-44.5" font-family="Helvetica,sans-Serif" font-size="10.00"> m_shutdown</text>
</g>
</g>
</svg>
