<?xml version="1.0" encoding="UTF-8" standalone="no"?>
<!DOCTYPE svg PUBLIC "-//W3C//DTD SVG 1.1//EN"
 "http://www.w3.org/Graphics/SVG/1.1/DTD/svg11.dtd">
<!-- Generated by graphviz version 2.26.3 (20100126.1600)
 -->
<!-- Title: MojSocketMessage Pages: 1 -->
<svg width="120pt" height="320pt"
 viewBox="0.00 0.00 120.00 320.00" xmlns="http://www.w3.org/2000/svg" xmlns:xlink="http://www.w3.org/1999/xlink">
<g id="graph1" class="graph" transform="scale(1 1) rotate(0) translate(4 316)">
<title>MojSocketMessage</title>
<polygon fill="white" stroke="white" points="-4,5 -4,-316 117,-316 117,5 -4,5"/>
<!-- Node1 -->
<g id="node1" class="node"><title>Node1</title>
<polygon fill="#bfbfbf" stroke="black" points="1,-0.5 1,-21.5 111,-21.5 111,-0.5 1,-0.5"/>
<text text-anchor="middle" x="56" y="-8.5" font-family="Helvetica,sans-Serif" font-size="10.00">MojSocketMessage</text>
</g>
<!-- Node2 -->
<g id="node2" class="node"><title>Node2</title>
<a xlink:href="classMojServiceMessage.htm" target="_top" xlink:title="MojServiceMessage">
<polygon fill="white" stroke="black" points="-0.5,-58.5 -0.5,-79.5 112.5,-79.5 112.5,-58.5 -0.5,-58.5"/>
<text text-anchor="middle" x="56" y="-66.5" font-family="Helvetica,sans-Serif" font-size="10.00">MojServiceMessage</text>
</a>
</g>
<!-- Node2&#45;&gt;Node1 -->
<g id="edge2" class="edge"><title>Node2&#45;&gt;Node1</title>
<path fill="none" stroke="midnightblue" d="M56,-48.1906C56,-39.1684 56,-28.9941 56,-21.5707"/>
<polygon fill="midnightblue" stroke="midnightblue" points="52.5001,-48.3619 56,-58.3619 59.5001,-48.3619 52.5001,-48.3619"/>
</g>
<!-- Node3 -->
<g id="node4" class="node"><title>Node3</title>
<a xlink:href="classMojMessage.htm" target="_top" xlink:title="MojMessage">
<polygon fill="white" stroke="black" points="17.5,-116.5 17.5,-137.5 94.5,-137.5 94.5,-116.5 17.5,-116.5"/>
<text text-anchor="middle" x="56" y="-124.5" font-family="Helvetica,sans-Serif" font-size="10.00">MojMessage</text>
</a>
</g>
<!-- Node3&#45;&gt;Node2 -->
<g id="edge4" class="edge"><title>Node3&#45;&gt;Node2</title>
<path fill="none" stroke="midnightblue" d="M56,-106.191C56,-97.1684 56,-86.9941 56,-79.5707"/>
<polygon fill="midnightblue" stroke="midnightblue" points="52.5001,-106.362 56,-116.362 59.5001,-106.362 52.5001,-106.362"/>
</g>
<!-- Node4 -->
<g id="node6" class="node"><title>Node4</title>
<a xlink:href="classMojSignalHandler.htm" target="_top" xlink:title="MojSignalHandler">
<polygon fill="white" stroke="black" points="5.5,-174.5 5.5,-195.5 106.5,-195.5 106.5,-174.5 5.5,-174.5"/>
<text text-anchor="middle" x="56" y="-182.5" font-family="Helvetica,sans-Serif" font-size="10.00">MojSignalHandler</text>
</a>
</g>
<!-- Node4&#45;&gt;Node3 -->
<g id="edge6" class="edge"><title>Node4&#45;&gt;Node3</title>
<path fill="none" stroke="midnightblue" d="M56,-164.191C56,-155.168 56,-144.994 56,-137.571"/>
<polygon fill="midnightblue" stroke="midnightblue" points="52.5001,-164.362 56,-174.362 59.5001,-164.362 52.5001,-164.362"/>
</g>
<!-- Node5 -->
<g id="node8" class="node"><title>Node5</title>
<a xlink:href="classMojRefCounted.htm" target="_top" xlink:title="MojRefCounted">
<polygon fill="white" stroke="black" points="11,-232.5 11,-253.5 101,-253.5 101,-232.5 11,-232.5"/>
<text text-anchor="middle" x="56" y="-240.5" font-family="Helvetica,sans-Serif" font-size="10.00">MojRefCounted</text>
</a>
</g>
<!-- Node5&#45;&gt;Node4 -->
<g id="edge8" class="edge"><title>Node5&#45;&gt;Node4</title>
<path fill="none" stroke="midnightblue" d="M56,-222.191C56,-213.168 56,-202.994 56,-195.571"/>
<polygon fill="midnightblue" stroke="midnightblue" points="52.5001,-222.362 56,-232.362 59.5001,-222.362 52.5001,-222.362"/>
</g>
<!-- Node6 -->
<g id="node10" class="node"><title>Node6</title>
<a xlink:href="classMojNoCopy.htm" target="_top" xlink:title="MojNoCopy">
<polygon fill="white" stroke="black" points="20,-290.5 20,-311.5 92,-311.5 92,-290.5 20,-290.5"/>
<text text-anchor="middle" x="56" y="-298.5" font-family="Helvetica,sans-Serif" font-size="10.00">MojNoCopy</text>
</a>
</g>
<!-- Node6&#45;&gt;Node5 -->
<g id="edge10" class="edge"><title>Node6&#45;&gt;Node5</title>
<path fill="none" stroke="#8b1a1a" d="M56,-280.191C56,-271.168 56,-260.994 56,-253.571"/>
<polygon fill="#8b1a1a" stroke="#8b1a1a" points="52.5001,-280.362 56,-290.362 59.5001,-280.362 52.5001,-280.362"/>
</g>
</g>
</svg>
