<?xml version="1.0" encoding="UTF-8" standalone="no"?>
<!DOCTYPE svg PUBLIC "-//W3C//DTD SVG 1.1//EN"
 "http://www.w3.org/Graphics/SVG/1.1/DTD/svg11.dtd">
<!-- Generated by graphviz version 2.26.3 (20100126.1600)
 -->
<!-- Title: MojDbLevelEnv Pages: 1 -->
<svg width="159pt" height="230pt"
 viewBox="0.00 0.00 159.00 230.00" xmlns="http://www.w3.org/2000/svg" xmlns:xlink="http://www.w3.org/1999/xlink">
<g id="graph1" class="graph" transform="scale(1 1) rotate(0) translate(4 226)">
<title>MojDbLevelEnv</title>
<polygon fill="white" stroke="white" points="-4,5 -4,-226 156,-226 156,5 -4,5"/>
<!-- Node1 -->
<g id="node1" class="node"><title>Node1</title>
<polygon fill="#bfbfbf" stroke="black" points="52,-0.5 52,-21.5 142,-21.5 142,-0.5 52,-0.5"/>
<text text-anchor="middle" x="97" y="-8.5" font-family="Helvetica,sans-Serif" font-size="10.00">MojDbLevelEnv</text>
</g>
<!-- Node2 -->
<g id="node2" class="node"><title>Node2</title>
<a xlink:href="classMojDbEnv.htm" target="_top" xlink:title="MojDbEnv">
<polygon fill="white" stroke="black" points="13.5,-60.5 13.5,-81.5 78.5,-81.5 78.5,-60.5 13.5,-60.5"/>
<text text-anchor="middle" x="46" y="-68.5" font-family="Helvetica,sans-Serif" font-size="10.00">MojDbEnv</text>
</a>
</g>
<!-- Node2&#45;&gt;Node1 -->
<g id="edge2" class="edge"><title>Node2&#45;&gt;Node1</title>
<path fill="none" stroke="midnightblue" d="M61.8254,-52.3819C70.4179,-42.273 80.7312,-30.1398 87.9612,-21.6339"/>
<polygon fill="midnightblue" stroke="midnightblue" points="58.9275,-50.387 55.1178,-60.2732 64.2611,-54.9206 58.9275,-50.387"/>
</g>
<!-- Node3 -->
<g id="node4" class="node"><title>Node3</title>
<a xlink:href="classMojRefCounted.htm" target="_top" xlink:title="MojRefCounted">
<polygon fill="white" stroke="black" points="0,-140.5 0,-161.5 90,-161.5 90,-140.5 0,-140.5"/>
<text text-anchor="middle" x="45" y="-148.5" font-family="Helvetica,sans-Serif" font-size="10.00">MojRefCounted</text>
</a>
</g>
<!-- Node3&#45;&gt;Node2 -->
<g id="edge4" class="edge"><title>Node3&#45;&gt;Node2</title>
<path fill="none" stroke="midnightblue" d="M45.263,-129.958C45.4573,-114.413 45.7138,-93.8973 45.8673,-81.6182"/>
<polygon fill="midnightblue" stroke="midnightblue" points="41.7602,-130.168 45.1349,-140.211 48.7597,-130.255 41.7602,-130.168"/>
</g>
<!-- Node4 -->
<g id="node6" class="node"><title>Node4</title>
<a xlink:href="classMojNoCopy.htm" target="_top" xlink:title="MojNoCopy">
<polygon fill="white" stroke="black" points="57,-200.5 57,-221.5 129,-221.5 129,-200.5 57,-200.5"/>
<text text-anchor="middle" x="93" y="-208.5" font-family="Helvetica,sans-Serif" font-size="10.00">MojNoCopy</text>
</a>
</g>
<!-- Node4&#45;&gt;Node3 -->
<g id="edge6" class="edge"><title>Node4&#45;&gt;Node3</title>
<path fill="none" stroke="#8b1a1a" d="M78.1055,-192.382C70.0184,-182.273 60.3118,-170.14 53.5071,-161.634"/>
<polygon fill="#8b1a1a" stroke="#8b1a1a" points="75.4385,-194.651 84.4186,-200.273 80.9046,-190.278 75.4385,-194.651"/>
</g>
<!-- Node5 -->
<g id="node8" class="node"><title>Node5</title>
<a xlink:href="classMojLogger.htm" target="_top" xlink:title="MojLogger">
<polygon fill="white" stroke="black" points="83,-100.5 83,-121.5 151,-121.5 151,-100.5 83,-100.5"/>
<text text-anchor="middle" x="117" y="-108.5" font-family="Helvetica,sans-Serif" font-size="10.00">MojLogger</text>
</a>
</g>
<!-- Node4&#45;&gt;Node5 -->
<g id="edge10" class="edge"><title>Node4&#45;&gt;Node5</title>
<path fill="none" stroke="#8b1a1a" d="M97.9254,-190.477C102.943,-169.57 110.528,-137.967 114.45,-121.625"/>
<polygon fill="#8b1a1a" stroke="#8b1a1a" points="94.4989,-189.758 95.5684,-200.298 101.306,-191.391 94.4989,-189.758"/>
</g>
<!-- Node5&#45;&gt;Node1 -->
<g id="edge8" class="edge"><title>Node5&#45;&gt;Node1</title>
<path fill="none" stroke="#9a32cd" stroke-dasharray="5,2" d="M112.895,-90.4774C108.714,-69.5699 102.393,-37.9672 99.125,-21.6248"/>
<polygon fill="#9a32cd" stroke="#9a32cd" points="109.466,-91.1789 114.86,-100.298 116.33,-89.806 109.466,-91.1789"/>
<text text-anchor="middle" x="125.5" y="-68.5" font-family="Helvetica,sans-Serif" font-size="10.00"> s_log</text>
</g>
</g>
</svg>
