<?xml version="1.0" encoding="UTF-8" standalone="no"?>
<!DOCTYPE svg PUBLIC "-//W3C//DTD SVG 1.1//EN"
 "http://www.w3.org/Graphics/SVG/1.1/DTD/svg11.dtd">
<!-- Generated by graphviz version 2.26.3 (20100126.1600)
 -->
<!-- Title: MojSlot0&lt; THANDLER &gt; Pages: 1 -->
<svg width="140pt" height="204pt"
 viewBox="0.00 0.00 140.00 204.00" xmlns="http://www.w3.org/2000/svg" xmlns:xlink="http://www.w3.org/1999/xlink">
<g id="graph1" class="graph" transform="scale(1 1) rotate(0) translate(4 200)">
<title>MojSlot0&lt; THANDLER &gt;</title>
<polygon fill="white" stroke="white" points="-4,5 -4,-200 137,-200 137,5 -4,5"/>
<!-- Node1 -->
<g id="node1" class="node"><title>Node1</title>
<polygon fill="#bfbfbf" stroke="black" points="0,-0.5 0,-21.5 132,-21.5 132,-0.5 0,-0.5"/>
<text text-anchor="middle" x="66" y="-8.5" font-family="Helvetica,sans-Serif" font-size="10.00">MojSlot0&lt; THANDLER &gt;</text>
</g>
<!-- Node2 -->
<g id="node2" class="node"><title>Node2</title>
<a xlink:href="classMojSlotBase0.htm" target="_top" xlink:title="MojSlotBase0">
<polygon fill="white" stroke="black" points="25,-58.5 25,-79.5 107,-79.5 107,-58.5 25,-58.5"/>
<text text-anchor="middle" x="66" y="-66.5" font-family="Helvetica,sans-Serif" font-size="10.00">MojSlotBase0</text>
</a>
</g>
<!-- Node2&#45;&gt;Node1 -->
<g id="edge2" class="edge"><title>Node2&#45;&gt;Node1</title>
<path fill="none" stroke="midnightblue" d="M66,-48.1906C66,-39.1684 66,-28.9941 66,-21.5707"/>
<polygon fill="midnightblue" stroke="midnightblue" points="62.5001,-48.3619 66,-58.3619 69.5001,-48.3619 62.5001,-48.3619"/>
</g>
<!-- Node3 -->
<g id="node4" class="node"><title>Node3</title>
<a xlink:href="classMojSlotBase.htm" target="_top" xlink:title="MojSlotBase">
<polygon fill="white" stroke="black" points="28,-116.5 28,-137.5 104,-137.5 104,-116.5 28,-116.5"/>
<text text-anchor="middle" x="66" y="-124.5" font-family="Helvetica,sans-Serif" font-size="10.00">MojSlotBase</text>
</a>
</g>
<!-- Node3&#45;&gt;Node2 -->
<g id="edge4" class="edge"><title>Node3&#45;&gt;Node2</title>
<path fill="none" stroke="midnightblue" d="M66,-106.191C66,-97.1684 66,-86.9941 66,-79.5707"/>
<polygon fill="midnightblue" stroke="midnightblue" points="62.5001,-106.362 66,-116.362 69.5001,-106.362 62.5001,-106.362"/>
</g>
<!-- Node4 -->
<g id="node6" class="node"><title>Node4</title>
<a xlink:href="classMojNoCopy.htm" target="_top" xlink:title="MojNoCopy">
<polygon fill="white" stroke="black" points="30,-174.5 30,-195.5 102,-195.5 102,-174.5 30,-174.5"/>
<text text-anchor="middle" x="66" y="-182.5" font-family="Helvetica,sans-Serif" font-size="10.00">MojNoCopy</text>
</a>
</g>
<!-- Node4&#45;&gt;Node3 -->
<g id="edge6" class="edge"><title>Node4&#45;&gt;Node3</title>
<path fill="none" stroke="#8b1a1a" d="M66,-164.191C66,-155.168 66,-144.994 66,-137.571"/>
<polygon fill="#8b1a1a" stroke="#8b1a1a" points="62.5001,-164.362 66,-174.362 69.5001,-164.362 62.5001,-164.362"/>
</g>
</g>
</svg>
