<?xml version="1.0" encoding="UTF-8" standalone="no"?>
<!DOCTYPE svg PUBLIC "-//W3C//DTD SVG 1.1//EN"
 "http://www.w3.org/Graphics/SVG/1.1/DTD/svg11.dtd">
<!-- Generated by graphviz version 2.26.3 (20100126.1600)
 -->
<!-- Title: MojDbPutHandler Pages: 1 -->
<svg width="264pt" height="146pt"
 viewBox="0.00 0.00 264.00 146.00" xmlns="http://www.w3.org/2000/svg" xmlns:xlink="http://www.w3.org/1999/xlink">
<g id="graph1" class="graph" transform="scale(1 1) rotate(0) translate(4 142)">
<title>MojDbPutHandler</title>
<polygon fill="white" stroke="white" points="-4,5 -4,-142 261,-142 261,5 -4,5"/>
<!-- Node1 -->
<g id="node1" class="node"><title>Node1</title>
<polygon fill="#bfbfbf" stroke="black" points="83.5,-58.5 83.5,-79.5 182.5,-79.5 182.5,-58.5 83.5,-58.5"/>
<text text-anchor="middle" x="133" y="-66.5" font-family="Helvetica,sans-Serif" font-size="10.00">MojDbPutHandler</text>
</g>
<!-- Node3 -->
<g id="node5" class="node"><title>Node3</title>
<a xlink:href="classMojDbPermissionEngine.htm" target="_top" xlink:title="MojDbPermissionEngine">
<polygon fill="white" stroke="black" points="-0.5,-0.5 -0.5,-21.5 130.5,-21.5 130.5,-0.5 -0.5,-0.5"/>
<text text-anchor="middle" x="65" y="-8.5" font-family="Helvetica,sans-Serif" font-size="10.00">MojDbPermissionEngine</text>
</a>
</g>
<!-- Node1&#45;&gt;Node3 -->
<g id="edge4" class="edge"><title>Node1&#45;&gt;Node3</title>
<path fill="none" stroke="midnightblue" d="M112.706,-51.6908C101.227,-41.8996 87.2442,-29.973 77.3932,-21.5707"/>
<polygon fill="midnightblue" stroke="midnightblue" points="110.648,-54.5353 120.528,-58.3619 115.191,-49.2095 110.648,-54.5353"/>
</g>
<!-- Node4 -->
<g id="node7" class="node"><title>Node4</title>
<a xlink:href="classMojDbQuotaEngine.htm" target="_top" xlink:title="MojDbQuotaEngine">
<polygon fill="white" stroke="black" points="148,-0.5 148,-21.5 256,-21.5 256,-0.5 148,-0.5"/>
<text text-anchor="middle" x="202" y="-8.5" font-family="Helvetica,sans-Serif" font-size="10.00">MojDbQuotaEngine</text>
</a>
</g>
<!-- Node1&#45;&gt;Node4 -->
<g id="edge6" class="edge"><title>Node1&#45;&gt;Node4</title>
<path fill="none" stroke="midnightblue" d="M153.592,-51.6908C165.24,-41.8996 179.429,-29.973 189.425,-21.5707"/>
<polygon fill="midnightblue" stroke="midnightblue" points="151.058,-49.2481 145.656,-58.3619 155.563,-54.6066 151.058,-49.2481"/>
</g>
<!-- Node2 -->
<g id="node2" class="node"><title>Node2</title>
<a xlink:href="classMojNoCopy.htm" target="_top" xlink:title="MojNoCopy">
<polygon fill="white" stroke="black" points="97,-116.5 97,-137.5 169,-137.5 169,-116.5 97,-116.5"/>
<text text-anchor="middle" x="133" y="-124.5" font-family="Helvetica,sans-Serif" font-size="10.00">MojNoCopy</text>
</a>
</g>
<!-- Node2&#45;&gt;Node1 -->
<g id="edge2" class="edge"><title>Node2&#45;&gt;Node1</title>
<path fill="none" stroke="#8b1a1a" d="M133,-106.191C133,-97.1684 133,-86.9941 133,-79.5707"/>
<polygon fill="#8b1a1a" stroke="#8b1a1a" points="129.5,-106.362 133,-116.362 136.5,-106.362 129.5,-106.362"/>
</g>
</g>
</svg>
