<?xml version="1.0" encoding="UTF-8" standalone="no"?>
<!DOCTYPE svg PUBLIC "-//W3C//DTD SVG 1.1//EN"
 "http://www.w3.org/Graphics/SVG/1.1/DTD/svg11.dtd">
<!-- Generated by graphviz version 2.26.3 (20100126.1600)
 -->
<!-- Title: MojDbServiceHandlerBase Pages: 1 -->
<svg width="942pt" height="414pt"
 viewBox="0.00 0.00 942.00 414.00" xmlns="http://www.w3.org/2000/svg" xmlns:xlink="http://www.w3.org/1999/xlink">
<g id="graph1" class="graph" transform="scale(1 1) rotate(0) translate(4 410)">
<title>MojDbServiceHandlerBase</title>
<polygon fill="white" stroke="white" points="-4,5 -4,-410 939,-410 939,5 -4,5"/>
<!-- Node1 -->
<g id="node1" class="node"><title>Node1</title>
<polygon fill="#bfbfbf" stroke="black" points="790.5,-150.5 790.5,-171.5 933.5,-171.5 933.5,-150.5 790.5,-150.5"/>
<text text-anchor="middle" x="862" y="-158.5" font-family="Helvetica,sans-Serif" font-size="10.00">MojDbServiceHandlerBase</text>
</g>
<!-- Node2 -->
<g id="node2" class="node"><title>Node2</title>
<a xlink:href="classMojService_1_1CategoryHandler.htm" target="_top" xlink:title="MojService::CategoryHandler">
<polygon fill="white" stroke="black" points="568.5,-371.5 568.5,-392.5 723.5,-392.5 723.5,-371.5 568.5,-371.5"/>
<text text-anchor="middle" x="646" y="-379.5" font-family="Helvetica,sans-Serif" font-size="10.00">MojService::CategoryHandler</text>
</a>
</g>
<!-- Node2&#45;&gt;Node1 -->
<g id="edge2" class="edge"><title>Node2&#45;&gt;Node1</title>
<path fill="none" stroke="midnightblue" d="M702.724,-367.888C710.18,-364.882 717.484,-361.285 724,-357 798.063,-308.295 844.414,-204.952 857.896,-171.609"/>
<polygon fill="midnightblue" stroke="midnightblue" points="701.416,-364.64 693.248,-371.388 703.841,-371.206 701.416,-364.64"/>
</g>
<!-- Node3 -->
<g id="node4" class="node"><title>Node3</title>
<a xlink:href="classMojSignalHandler.htm" target="_top" xlink:title="MojSignalHandler">
<polygon fill="white" stroke="black" points="325.5,-318.5 325.5,-339.5 426.5,-339.5 426.5,-318.5 325.5,-318.5"/>
<text text-anchor="middle" x="376" y="-326.5" font-family="Helvetica,sans-Serif" font-size="10.00">MojSignalHandler</text>
</a>
</g>
<!-- Node3&#45;&gt;Node2 -->
<g id="edge4" class="edge"><title>Node3&#45;&gt;Node2</title>
<path fill="none" stroke="midnightblue" d="M436.771,-340.929C483.465,-350.095 547.351,-362.636 592.205,-371.44"/>
<polygon fill="midnightblue" stroke="midnightblue" points="437.272,-337.461 426.785,-338.969 435.923,-344.33 437.272,-337.461"/>
</g>
<!-- Node4 -->
<g id="node6" class="node"><title>Node4</title>
<a xlink:href="classMojRefCounted.htm" target="_top" xlink:title="MojRefCounted">
<polygon fill="white" stroke="black" points="110,-267.5 110,-288.5 200,-288.5 200,-267.5 110,-267.5"/>
<text text-anchor="middle" x="155" y="-275.5" font-family="Helvetica,sans-Serif" font-size="10.00">MojRefCounted</text>
</a>
</g>
<!-- Node4&#45;&gt;Node3 -->
<g id="edge6" class="edge"><title>Node4&#45;&gt;Node3</title>
<path fill="none" stroke="midnightblue" d="M210.391,-290.783C247.44,-299.332 295.599,-310.446 330.425,-318.483"/>
<polygon fill="midnightblue" stroke="midnightblue" points="210.787,-287.282 200.256,-288.444 209.213,-294.103 210.787,-287.282"/>
</g>
<!-- Node5 -->
<g id="node8" class="node"><title>Node5</title>
<a xlink:href="classMojNoCopy.htm" target="_top" xlink:title="MojNoCopy">
<polygon fill="white" stroke="black" points="0,-166.5 0,-187.5 72,-187.5 72,-166.5 0,-166.5"/>
<text text-anchor="middle" x="36" y="-174.5" font-family="Helvetica,sans-Serif" font-size="10.00">MojNoCopy</text>
</a>
</g>
<!-- Node5&#45;&gt;Node4 -->
<g id="edge8" class="edge"><title>Node5&#45;&gt;Node4</title>
<path fill="none" stroke="#8b1a1a" d="M54.0928,-194.962C64.3839,-204.954 77.6479,-217.463 90,-228 106.789,-242.322 127.076,-257.63 140.47,-267.481"/>
<polygon fill="#8b1a1a" stroke="#8b1a1a" points="56.4605,-192.382 46.8669,-187.886 51.5628,-197.383 56.4605,-192.382"/>
</g>
<!-- Node8 -->
<g id="node14" class="node"><title>Node8</title>
<a xlink:href="classMojDb.htm" target="_top" xlink:title="MojDb">
<polygon fill="white" stroke="black" points="622.5,-150.5 622.5,-171.5 669.5,-171.5 669.5,-150.5 622.5,-150.5"/>
<text text-anchor="middle" x="646" y="-158.5" font-family="Helvetica,sans-Serif" font-size="10.00">MojDb</text>
</a>
</g>
<!-- Node5&#45;&gt;Node8 -->
<g id="edge16" class="edge"><title>Node5&#45;&gt;Node8</title>
<path fill="none" stroke="#8b1a1a" d="M82.2212,-186.297C172.907,-202.955 380.116,-233.191 550,-200 577.719,-194.584 607.546,-181.143 626.47,-171.557"/>
<polygon fill="#8b1a1a" stroke="#8b1a1a" points="82.7371,-182.833 72.2643,-184.436 81.451,-189.714 82.7371,-182.833"/>
</g>
<!-- Node11 -->
<g id="node21" class="node"><title>Node11</title>
<a xlink:href="classMojLogger.htm" target="_top" xlink:title="MojLogger">
<polygon fill="white" stroke="black" points="342,-57.5 342,-78.5 410,-78.5 410,-57.5 342,-57.5"/>
<text text-anchor="middle" x="376" y="-65.5" font-family="Helvetica,sans-Serif" font-size="10.00">MojLogger</text>
</a>
</g>
<!-- Node5&#45;&gt;Node11 -->
<g id="edge24" class="edge"><title>Node5&#45;&gt;Node11</title>
<path fill="none" stroke="#8b1a1a" d="M77.0459,-163.142C130.191,-145.297 225.755,-113.544 308,-88 318.929,-84.6056 330.892,-81.0379 341.695,-77.8709"/>
<polygon fill="#8b1a1a" stroke="#8b1a1a" points="75.6775,-159.909 67.314,-166.413 77.908,-166.544 75.6775,-159.909"/>
</g>
<!-- Node12 -->
<g id="node26" class="node"><title>Node12</title>
<a xlink:href="classMojReactor.htm" target="_top" xlink:title="MojReactor">
<polygon fill="white" stroke="black" points="218.5,-0.5 218.5,-21.5 289.5,-21.5 289.5,-0.5 218.5,-0.5"/>
<text text-anchor="middle" x="254" y="-8.5" font-family="Helvetica,sans-Serif" font-size="10.00">MojReactor</text>
</a>
</g>
<!-- Node5&#45;&gt;Node12 -->
<g id="edge32" class="edge"><title>Node5&#45;&gt;Node12</title>
<path fill="none" stroke="#8b1a1a" d="M53.5277,-159.205C63.8145,-149.083 77.259,-136.392 90,-126 141.201,-84.2396 206.739,-41.1204 237.128,-21.6628"/>
<polygon fill="#8b1a1a" stroke="#8b1a1a" points="50.9553,-156.828 46.3407,-166.365 55.8955,-161.787 50.9553,-156.828"/>
</g>
<!-- Node6 -->
<g id="node10" class="node"><title>Node6</title>
<a xlink:href="classMojHashMap.htm" target="_top" xlink:title="MojHashMap\&lt; MojString,\l CallbackInfo, const\l MojChar * \&gt;">
<polygon fill="white" stroke="black" points="308,-358.5 308,-405.5 444,-405.5 444,-358.5 308,-358.5"/>
<text text-anchor="start" x="316" y="-392.5" font-family="Helvetica,sans-Serif" font-size="10.00">MojHashMap&lt; MojString,</text>
<text text-anchor="start" x="316" y="-379.5" font-family="Helvetica,sans-Serif" font-size="10.00"> CallbackInfo, const</text>
<text text-anchor="middle" x="376" y="-366.5" font-family="Helvetica,sans-Serif" font-size="10.00"> MojChar * &gt;</text>
</a>
</g>
<!-- Node6&#45;&gt;Node2 -->
<g id="edge10" class="edge"><title>Node6&#45;&gt;Node2</title>
<path fill="none" stroke="#9a32cd" stroke-dasharray="5,2" d="M454.536,-382C490.349,-382 532.628,-382 568.335,-382"/>
<polygon fill="#9a32cd" stroke="#9a32cd" points="454.132,-378.5 444.132,-382 454.132,-385.5 454.132,-378.5"/>
<text text-anchor="middle" x="506" y="-386" font-family="Helvetica,sans-Serif" font-size="10.00"> m_callbackMap</text>
</g>
<!-- Node7 -->
<g id="node12" class="node"><title>Node7</title>
<a xlink:href="classMojHashBase.htm" target="_top" xlink:title="MojHashBase">
<polygon fill="white" stroke="black" points="113.5,-371.5 113.5,-392.5 196.5,-392.5 196.5,-371.5 113.5,-371.5"/>
<text text-anchor="middle" x="155" y="-379.5" font-family="Helvetica,sans-Serif" font-size="10.00">MojHashBase</text>
</a>
</g>
<!-- Node7&#45;&gt;Node6 -->
<g id="edge12" class="edge"><title>Node7&#45;&gt;Node6</title>
<path fill="none" stroke="#8b1a1a" d="M206.845,-382C236.926,-382 275.173,-382 307.687,-382"/>
<polygon fill="#8b1a1a" stroke="#8b1a1a" points="206.568,-378.5 196.568,-382 206.568,-385.5 206.568,-378.5"/>
</g>
<!-- Node8&#45;&gt;Node1 -->
<g id="edge14" class="edge"><title>Node8&#45;&gt;Node1</title>
<path fill="none" stroke="#9a32cd" stroke-dasharray="5,2" d="M679.687,-161C709.123,-161 752.858,-161 790.114,-161"/>
<polygon fill="#9a32cd" stroke="#9a32cd" points="679.527,-157.5 669.527,-161 679.527,-164.5 679.527,-157.5"/>
<text text-anchor="middle" x="757" y="-165" font-family="Helvetica,sans-Serif" font-size="10.00"> m_db</text>
</g>
<!-- Node9 -->
<g id="node17" class="node"><title>Node9</title>
<polygon fill="white" stroke="#bfbfbf" points="357,-97.5 357,-118.5 395,-118.5 395,-97.5 357,-97.5"/>
<text text-anchor="middle" x="376" y="-105.5" font-family="Helvetica,sans-Serif" font-size="10.00">char</text>
</g>
<!-- Node9&#45;&gt;Node8 -->
<g id="edge18" class="edge"><title>Node9&#45;&gt;Node8</title>
<path fill="none" stroke="#9a32cd" stroke-dasharray="5,2" d="M405.203,-103.906C440.225,-99.963 500.411,-96.2805 550,-109 581.58,-117.1 614.06,-137.789 631.975,-150.495"/>
<polygon fill="#9a32cd" stroke="#9a32cd" points="404.689,-100.442 395.182,-105.12 405.531,-107.392 404.689,-100.442"/>
<text text-anchor="middle" x="506" y="-191" font-family="Helvetica,sans-Serif" font-size="10.00"> IdKey</text>
<text text-anchor="middle" x="506" y="-178" font-family="Helvetica,sans-Serif" font-size="10.00">DelKey</text>
<text text-anchor="middle" x="506" y="-165" font-family="Helvetica,sans-Serif" font-size="10.00">SyncKey</text>
<text text-anchor="middle" x="506" y="-152" font-family="Helvetica,sans-Serif" font-size="10.00">IgnoreIdKey</text>
<text text-anchor="middle" x="506" y="-139" font-family="Helvetica,sans-Serif" font-size="10.00">RevKey</text>
<text text-anchor="middle" x="506" y="-126" font-family="Helvetica,sans-Serif" font-size="10.00">KindKey</text>
<text text-anchor="middle" x="506" y="-113" font-family="Helvetica,sans-Serif" font-size="10.00">ConfKey</text>
</g>
<!-- Node10 -->
<g id="node19" class="node"><title>Node10</title>
<polygon fill="white" stroke="#bfbfbf" points="315,-260.5 315,-281.5 437,-281.5 437,-260.5 315,-260.5"/>
<text text-anchor="middle" x="376" y="-268.5" font-family="Helvetica,sans-Serif" font-size="10.00">static const MojUInt32</text>
</g>
<!-- Node10&#45;&gt;Node1 -->
<g id="edge26" class="edge"><title>Node10&#45;&gt;Node1</title>
<path fill="none" stroke="#9a32cd" stroke-dasharray="5,2" d="M447.302,-278.317C478.972,-280.007 516.569,-279.867 550,-274 664.052,-253.982 791.346,-195.738 840.778,-171.634"/>
<polygon fill="#9a32cd" stroke="#9a32cd" points="447.434,-274.819 437.241,-277.709 447.011,-281.806 447.434,-274.819"/>
<text text-anchor="middle" x="646" y="-327" font-family="Helvetica,sans-Serif" font-size="10.00"> DeadlockSleepMillis</text>
<text text-anchor="middle" x="646" y="-314" font-family="Helvetica,sans-Serif" font-size="10.00">MaxIndexlockRetries</text>
<text text-anchor="middle" x="646" y="-301" font-family="Helvetica,sans-Serif" font-size="10.00">MaxDeadlockRetries</text>
<text text-anchor="middle" x="646" y="-288" font-family="Helvetica,sans-Serif" font-size="10.00">MinIndexlockRetries</text>
<text text-anchor="middle" x="646" y="-275" font-family="Helvetica,sans-Serif" font-size="10.00">MaxBatchRetries</text>
</g>
<!-- Node10&#45;&gt;Node8 -->
<g id="edge20" class="edge"><title>Node10&#45;&gt;Node8</title>
<path fill="none" stroke="#9a32cd" stroke-dasharray="5,2" d="M425.245,-257.778C437.266,-254.565 450.093,-251.148 462,-248 501.082,-237.667 513.119,-241.551 550,-225 582.164,-210.566 615.478,-185.729 633.157,-171.615"/>
<polygon fill="#9a32cd" stroke="#9a32cd" points="424.131,-254.453 415.376,-260.419 425.94,-261.215 424.131,-254.453"/>
<text text-anchor="middle" x="506" y="-265" font-family="Helvetica,sans-Serif" font-size="10.00"> AutoCompactSize</text>
<text text-anchor="middle" x="506" y="-252" font-family="Helvetica,sans-Serif" font-size="10.00">AutoBatchSize</text>
</g>
<!-- Node11&#45;&gt;Node1 -->
<g id="edge28" class="edge"><title>Node11&#45;&gt;Node1</title>
<path fill="none" stroke="#9a32cd" stroke-dasharray="5,2" d="M420.225,-62.3571C455.556,-58.8975 506.228,-56.2872 550,-63 660.556,-79.9546 785.719,-128.848 837.539,-150.485"/>
<polygon fill="#9a32cd" stroke="#9a32cd" points="419.815,-58.8808 410.232,-63.3983 420.541,-65.8431 419.815,-58.8808"/>
<text text-anchor="middle" x="646" y="-112" font-family="Helvetica,sans-Serif" font-size="10.00"> s_log</text>
</g>
<!-- Node11&#45;&gt;Node8 -->
<g id="edge22" class="edge"><title>Node11&#45;&gt;Node8</title>
<path fill="none" stroke="#9a32cd" stroke-dasharray="5,2" d="M420.287,-65.1679C456.471,-64.4528 508.27,-67.1459 550,-84 587.046,-98.9624 621.194,-133.152 636.911,-150.495"/>
<polygon fill="#9a32cd" stroke="#9a32cd" points="419.946,-61.6763 410.053,-65.469 420.152,-68.6733 419.946,-61.6763"/>
<text text-anchor="middle" x="506" y="-88" font-family="Helvetica,sans-Serif" font-size="10.00"> s_log</text>
</g>
<!-- Node12&#45;&gt;Node1 -->
<g id="edge30" class="edge"><title>Node12&#45;&gt;Node1</title>
<path fill="none" stroke="#9a32cd" stroke-dasharray="5,2" d="M299.881,-8.47027C386.129,-5.33847 576.982,-6.17912 724,-63 777.448,-83.657 829.541,-129.705 851.332,-150.478"/>
<polygon fill="#9a32cd" stroke="#9a32cd" points="299.498,-4.98268 289.646,-8.8791 299.778,-11.9771 299.498,-4.98268"/>
<text text-anchor="middle" x="506" y="-24" font-family="Helvetica,sans-Serif" font-size="10.00"> m_reactor</text>
</g>
</g>
</svg>
