<?xml version="1.0" encoding="UTF-8" standalone="no"?>
<!DOCTYPE svg PUBLIC "-//W3C//DTD SVG 1.1//EN"
 "http://www.w3.org/Graphics/SVG/1.1/DTD/svg11.dtd">
<!-- Generated by graphviz version 2.26.3 (20100126.1600)
 -->
<!-- Title: MojService::Category Pages: 1 -->
<svg width="1410pt" height="587pt"
 viewBox="0.00 0.00 1410.00 587.00" xmlns="http://www.w3.org/2000/svg" xmlns:xlink="http://www.w3.org/1999/xlink">
<g id="graph1" class="graph" transform="scale(1 1) rotate(0) translate(4 583)">
<title>MojService::Category</title>
<polygon fill="white" stroke="white" points="-4,5 -4,-583 1407,-583 1407,5 -4,5"/>
<!-- Node1 -->
<g id="node1" class="node"><title>Node1</title>
<polygon fill="#bfbfbf" stroke="black" points="1284.5,-475.5 1284.5,-496.5 1401.5,-496.5 1401.5,-475.5 1284.5,-475.5"/>
<text text-anchor="middle" x="1343" y="-483.5" font-family="Helvetica,sans-Serif" font-size="10.00">MojService::Category</text>
</g>
<!-- Node2 -->
<g id="node2" class="node"><title>Node2</title>
<a xlink:href="classMojRefCounted.htm" target="_top" xlink:title="MojRefCounted">
<polygon fill="white" stroke="black" points="171,-529.5 171,-550.5 261,-550.5 261,-529.5 171,-529.5"/>
<text text-anchor="middle" x="216" y="-537.5" font-family="Helvetica,sans-Serif" font-size="10.00">MojRefCounted</text>
</a>
</g>
<!-- Node2&#45;&gt;Node1 -->
<g id="edge2" class="edge"><title>Node2&#45;&gt;Node1</title>
<path fill="none" stroke="midnightblue" d="M270.861,-551.218C332.074,-562.74 434.19,-579 523,-579 523,-579 523,-579 1111,-579 1198.65,-579 1292.43,-521.096 1328.09,-496.668"/>
<polygon fill="midnightblue" stroke="midnightblue" points="271.506,-547.778 261.028,-549.341 270.194,-554.654 271.506,-547.778"/>
</g>
<!-- Node7 -->
<g id="node13" class="node"><title>Node7</title>
<a xlink:href="classMojSignalHandler.htm" target="_top" xlink:title="MojSignalHandler">
<polygon fill="white" stroke="black" points="472.5,-529.5 472.5,-550.5 573.5,-550.5 573.5,-529.5 472.5,-529.5"/>
<text text-anchor="middle" x="523" y="-537.5" font-family="Helvetica,sans-Serif" font-size="10.00">MojSignalHandler</text>
</a>
</g>
<!-- Node2&#45;&gt;Node7 -->
<g id="edge16" class="edge"><title>Node2&#45;&gt;Node7</title>
<path fill="none" stroke="midnightblue" d="M271.601,-540C328.796,-540 417.109,-540 472.402,-540"/>
<polygon fill="midnightblue" stroke="midnightblue" points="271.299,-536.5 261.299,-540 271.299,-543.5 271.299,-536.5"/>
</g>
<!-- Node3 -->
<g id="node4" class="node"><title>Node3</title>
<a xlink:href="classMojNoCopy.htm" target="_top" xlink:title="MojNoCopy">
<polygon fill="white" stroke="black" points="11,-439.5 11,-460.5 83,-460.5 83,-439.5 11,-439.5"/>
<text text-anchor="middle" x="47" y="-447.5" font-family="Helvetica,sans-Serif" font-size="10.00">MojNoCopy</text>
</a>
</g>
<!-- Node3&#45;&gt;Node2 -->
<g id="edge4" class="edge"><title>Node3&#45;&gt;Node2</title>
<path fill="none" stroke="#8b1a1a" d="M60.7501,-468.543C72.6895,-483.32 91.2829,-503.394 112,-515 129.902,-525.029 151.726,-531.058 170.751,-534.672"/>
<polygon fill="#8b1a1a" stroke="#8b1a1a" points="63.4331,-466.292 54.5235,-460.559 57.9131,-470.597 63.4331,-466.292"/>
</g>
<!-- Node5 -->
<g id="node8" class="node"><title>Node5</title>
<a xlink:href="classMojSmartPtrBase.htm" target="_top" xlink:title="MojSmartPtrBase\&lt; MojService\l::CategoryHandler \&gt;">
<polygon fill="white" stroke="black" points="828.5,-469 828.5,-503 989.5,-503 989.5,-469 828.5,-469"/>
<text text-anchor="start" x="836.5" y="-490" font-family="Helvetica,sans-Serif" font-size="10.00">MojSmartPtrBase&lt; MojService</text>
<text text-anchor="middle" x="909" y="-477" font-family="Helvetica,sans-Serif" font-size="10.00">::CategoryHandler &gt;</text>
</a>
</g>
<!-- Node3&#45;&gt;Node5 -->
<g id="edge10" class="edge"><title>Node3&#45;&gt;Node5</title>
<path fill="none" stroke="#8b1a1a" d="M76.3194,-465.159C87.3434,-470.545 100.091,-476.405 112,-481 155.914,-497.944 168.931,-501 216,-501 216,-501 216,-501 690,-501 735.922,-501 787.135,-497.677 828.483,-494.158"/>
<polygon fill="#8b1a1a" stroke="#8b1a1a" points="77.6521,-461.913 67.1399,-460.592 74.534,-468.18 77.6521,-461.913"/>
</g>
<!-- Node10 -->
<g id="node20" class="node"><title>Node10</title>
<a xlink:href="classMojService.htm" target="_top" xlink:title="MojService">
<polygon fill="white" stroke="black" points="488.5,-312.5 488.5,-333.5 557.5,-333.5 557.5,-312.5 488.5,-312.5"/>
<text text-anchor="middle" x="523" y="-320.5" font-family="Helvetica,sans-Serif" font-size="10.00">MojService</text>
</a>
</g>
<!-- Node3&#45;&gt;Node10 -->
<g id="edge24" class="edge"><title>Node3&#45;&gt;Node10</title>
<path fill="none" stroke="#8b1a1a" d="M92.7992,-462.508C172.49,-481.502 339.117,-508.713 454,-441 495.093,-416.779 514.194,-357.849 520.504,-333.646"/>
<polygon fill="#8b1a1a" stroke="#8b1a1a" points="93.6075,-459.102 83.062,-460.124 91.9428,-465.902 93.6075,-459.102"/>
</g>
<!-- Node11 -->
<g id="node23" class="node"><title>Node11</title>
<a xlink:href="classMojThreadMutex.htm" target="_top" xlink:title="MojThreadMutex">
<polygon fill="white" stroke="black" points="167.5,-413.5 167.5,-434.5 264.5,-434.5 264.5,-413.5 167.5,-413.5"/>
<text text-anchor="middle" x="216" y="-421.5" font-family="Helvetica,sans-Serif" font-size="10.00">MojThreadMutex</text>
</a>
</g>
<!-- Node3&#45;&gt;Node11 -->
<g id="edge28" class="edge"><title>Node3&#45;&gt;Node11</title>
<path fill="none" stroke="#8b1a1a" d="M93.4306,-442.857C116.375,-439.327 144.053,-435.069 167.298,-431.493"/>
<polygon fill="#8b1a1a" stroke="#8b1a1a" points="92.6062,-439.442 83.2547,-444.422 93.6707,-446.361 92.6062,-439.442"/>
</g>
<!-- Node15 -->
<g id="node34" class="node"><title>Node15</title>
<a xlink:href="classMojMessageDispatcher.htm" target="_top" xlink:title="MojMessageDispatcher">
<polygon fill="white" stroke="black" points="152,-373.5 152,-394.5 280,-394.5 280,-373.5 152,-373.5"/>
<text text-anchor="middle" x="216" y="-381.5" font-family="Helvetica,sans-Serif" font-size="10.00">MojMessageDispatcher</text>
</a>
</g>
<!-- Node3&#45;&gt;Node15 -->
<g id="edge42" class="edge"><title>Node3&#45;&gt;Node15</title>
<path fill="none" stroke="#8b1a1a" d="M72.2955,-434.028C88.7749,-424.205 111.035,-412.009 132,-404 141.663,-400.309 152.219,-397.154 162.485,-394.516"/>
<polygon fill="#8b1a1a" stroke="#8b1a1a" points="70.0414,-431.302 63.3142,-439.487 73.6774,-437.284 70.0414,-431.302"/>
</g>
<!-- Node16 -->
<g id="node37" class="node"><title>Node16</title>
<a xlink:href="classMojLogger.htm" target="_top" xlink:title="MojLogger">
<polygon fill="white" stroke="black" points="182,-333.5 182,-354.5 250,-354.5 250,-333.5 182,-333.5"/>
<text text-anchor="middle" x="216" y="-341.5" font-family="Helvetica,sans-Serif" font-size="10.00">MojLogger</text>
</a>
</g>
<!-- Node3&#45;&gt;Node16 -->
<g id="edge46" class="edge"><title>Node3&#45;&gt;Node16</title>
<path fill="none" stroke="#8b1a1a" d="M60.4458,-431.166C75.5828,-411.39 102.014,-380.871 132,-364 147.155,-355.473 165.823,-350.567 181.709,-347.752"/>
<polygon fill="#8b1a1a" stroke="#8b1a1a" points="57.4744,-429.297 54.3135,-439.409 63.0907,-433.475 57.4744,-429.297"/>
</g>
<!-- Node4 -->
<g id="node6" class="node"><title>Node4</title>
<a xlink:href="classMojRefCountedPtr.htm" target="_top" xlink:title="MojRefCountedPtr\&lt; MojService\l::CategoryHandler \&gt;">
<polygon fill="white" stroke="black" points="1028.5,-469 1028.5,-503 1193.5,-503 1193.5,-469 1028.5,-469"/>
<text text-anchor="start" x="1036.5" y="-490" font-family="Helvetica,sans-Serif" font-size="10.00">MojRefCountedPtr&lt; MojService</text>
<text text-anchor="middle" x="1111" y="-477" font-family="Helvetica,sans-Serif" font-size="10.00">::CategoryHandler &gt;</text>
</a>
</g>
<!-- Node4&#45;&gt;Node1 -->
<g id="edge6" class="edge"><title>Node4&#45;&gt;Node1</title>
<path fill="none" stroke="#9a32cd" stroke-dasharray="5,2" d="M1204.06,-486C1231.14,-486 1259.97,-486 1284.3,-486"/>
<polygon fill="#9a32cd" stroke="#9a32cd" points="1203.77,-482.5 1193.77,-486 1203.77,-489.5 1203.77,-482.5"/>
<text text-anchor="middle" x="1239" y="-490" font-family="Helvetica,sans-Serif" font-size="10.00"> m_handler</text>
</g>
<!-- Node5&#45;&gt;Node4 -->
<g id="edge8" class="edge"><title>Node5&#45;&gt;Node4</title>
<path fill="none" stroke="midnightblue" d="M999.944,-486C1009.44,-486 1019.05,-486 1028.44,-486"/>
<polygon fill="midnightblue" stroke="midnightblue" points="999.707,-482.5 989.707,-486 999.707,-489.5 999.707,-482.5"/>
</g>
<!-- Node6 -->
<g id="node11" class="node"><title>Node6</title>
<a xlink:href="classMojService_1_1CategoryHandler.htm" target="_top" xlink:title="MojService::CategoryHandler">
<polygon fill="white" stroke="black" points="612.5,-451.5 612.5,-472.5 767.5,-472.5 767.5,-451.5 612.5,-451.5"/>
<text text-anchor="middle" x="690" y="-459.5" font-family="Helvetica,sans-Serif" font-size="10.00">MojService::CategoryHandler</text>
</a>
</g>
<!-- Node6&#45;&gt;Node5 -->
<g id="edge12" class="edge"><title>Node6&#45;&gt;Node5</title>
<path fill="none" stroke="#9a32cd" stroke-dasharray="5,2" d="M778.079,-470.595C788.835,-471.707 799.67,-472.858 810,-474 815.937,-474.657 822.072,-475.354 828.243,-476.07"/>
<polygon fill="#9a32cd" stroke="#9a32cd" points="778.114,-467.08 767.809,-469.541 777.399,-474.043 778.114,-467.08"/>
<text text-anchor="middle" x="798" y="-478" font-family="Helvetica,sans-Serif" font-size="10.00"> m_p</text>
</g>
<!-- Node7&#45;&gt;Node6 -->
<g id="edge14" class="edge"><title>Node7&#45;&gt;Node6</title>
<path fill="none" stroke="midnightblue" d="M554.707,-525.191C587.596,-509.829 638.204,-486.192 667.301,-472.602"/>
<polygon fill="midnightblue" stroke="midnightblue" points="553.102,-522.078 545.522,-529.481 556.064,-528.42 553.102,-522.078"/>
</g>
<!-- Node8 -->
<g id="node16" class="node"><title>Node8</title>
<a xlink:href="classMojHashMap.htm" target="_top" xlink:title="MojHashMap\&lt; MojString,\l CallbackInfo, const\l MojChar * \&gt;">
<polygon fill="white" stroke="black" points="318,-158.5 318,-205.5 454,-205.5 454,-158.5 318,-158.5"/>
<text text-anchor="start" x="326" y="-192.5" font-family="Helvetica,sans-Serif" font-size="10.00">MojHashMap&lt; MojString,</text>
<text text-anchor="start" x="326" y="-179.5" font-family="Helvetica,sans-Serif" font-size="10.00"> CallbackInfo, const</text>
<text text-anchor="middle" x="386" y="-166.5" font-family="Helvetica,sans-Serif" font-size="10.00"> MojChar * &gt;</text>
</a>
</g>
<!-- Node8&#45;&gt;Node6 -->
<g id="edge18" class="edge"><title>Node8&#45;&gt;Node6</title>
<path fill="none" stroke="#9a32cd" stroke-dasharray="5,2" d="M454.175,-210.254C512.323,-240.654 530.685,-246.916 574,-290 626.86,-342.578 670.079,-422.585 684.687,-451.287"/>
<polygon fill="#9a32cd" stroke="#9a32cd" points="455.779,-207.143 445.299,-205.587 452.521,-213.339 455.779,-207.143"/>
<text text-anchor="middle" x="523" y="-294" font-family="Helvetica,sans-Serif" font-size="10.00"> m_callbackMap</text>
</g>
<!-- Node9 -->
<g id="node18" class="node"><title>Node9</title>
<a xlink:href="classMojHashBase.htm" target="_top" xlink:title="MojHashBase">
<polygon fill="white" stroke="black" points="5.5,-119.5 5.5,-140.5 88.5,-140.5 88.5,-119.5 5.5,-119.5"/>
<text text-anchor="middle" x="47" y="-127.5" font-family="Helvetica,sans-Serif" font-size="10.00">MojHashBase</text>
</a>
</g>
<!-- Node9&#45;&gt;Node8 -->
<g id="edge20" class="edge"><title>Node9&#45;&gt;Node8</title>
<path fill="none" stroke="#8b1a1a" d="M78.0896,-144.623C93.8853,-151.389 113.588,-158.834 132,-163 193.892,-177.002 266.207,-181.277 317.813,-182.33"/>
<polygon fill="#8b1a1a" stroke="#8b1a1a" points="79.3684,-141.362 68.8059,-140.534 76.5465,-147.768 79.3684,-141.362"/>
</g>
<!-- Node13 -->
<g id="node29" class="node"><title>Node13</title>
<a xlink:href="classMojHashMap.htm" target="_top" xlink:title="MojHashMap\&lt; MojString,\l MojRefCountedPtr\&lt; Category\l \&gt;, const MojChar * \&gt;">
<polygon fill="white" stroke="black" points="136.5,-106.5 136.5,-153.5 295.5,-153.5 295.5,-106.5 136.5,-106.5"/>
<text text-anchor="start" x="144.5" y="-140.5" font-family="Helvetica,sans-Serif" font-size="10.00">MojHashMap&lt; MojString,</text>
<text text-anchor="start" x="144.5" y="-127.5" font-family="Helvetica,sans-Serif" font-size="10.00"> MojRefCountedPtr&lt; Category</text>
<text text-anchor="middle" x="216" y="-114.5" font-family="Helvetica,sans-Serif" font-size="10.00"> &gt;, const MojChar * &gt;</text>
</a>
</g>
<!-- Node9&#45;&gt;Node13 -->
<g id="edge36" class="edge"><title>Node9&#45;&gt;Node13</title>
<path fill="none" stroke="#8b1a1a" d="M98.9277,-130C110.811,-130 123.709,-130 136.456,-130"/>
<polygon fill="#8b1a1a" stroke="#8b1a1a" points="98.7753,-126.5 88.7753,-130 98.7753,-133.5 98.7753,-126.5"/>
</g>
<!-- Node17 -->
<g id="node40" class="node"><title>Node17</title>
<a xlink:href="classMojHashMap.htm" target="_top" xlink:title="MojHashMap\&lt; Token,\l MojRefCountedPtr\&lt; MojService\lRequest \&gt; \&gt;">
<polygon fill="white" stroke="black" points="132,-40.5 132,-87.5 300,-87.5 300,-40.5 132,-40.5"/>
<text text-anchor="start" x="140" y="-74.5" font-family="Helvetica,sans-Serif" font-size="10.00">MojHashMap&lt; Token,</text>
<text text-anchor="start" x="140" y="-61.5" font-family="Helvetica,sans-Serif" font-size="10.00"> MojRefCountedPtr&lt; MojService</text>
<text text-anchor="middle" x="216" y="-48.5" font-family="Helvetica,sans-Serif" font-size="10.00">Request &gt; &gt;</text>
</a>
</g>
<!-- Node9&#45;&gt;Node17 -->
<g id="edge50" class="edge"><title>Node9&#45;&gt;Node17</title>
<path fill="none" stroke="#8b1a1a" d="M83.6585,-115.684C104.671,-107.478 131.57,-96.9727 155.623,-87.5793"/>
<polygon fill="#8b1a1a" stroke="#8b1a1a" points="82.1944,-112.498 74.1528,-119.396 84.7409,-119.018 82.1944,-112.498"/>
</g>
<!-- Node10&#45;&gt;Node1 -->
<g id="edge22" class="edge"><title>Node10&#45;&gt;Node1</title>
<path fill="none" stroke="#9a32cd" stroke-dasharray="5,2" d="M567.246,-309.449C569.538,-308.644 571.801,-307.826 574,-307 626.726,-287.207 633.682,-256 690,-256 690,-256 690,-256 1111,-256 1237.19,-256 1319.28,-429.743 1338.6,-475.215"/>
<polygon fill="#9a32cd" stroke="#9a32cd" points="566.092,-306.145 557.742,-312.666 568.336,-312.775 566.092,-306.145"/>
<text text-anchor="middle" x="909" y="-260" font-family="Helvetica,sans-Serif" font-size="10.00"> m_service</text>
</g>
<!-- Node11&#45;&gt;Node10 -->
<g id="edge26" class="edge"><title>Node11&#45;&gt;Node10</title>
<path fill="none" stroke="#9a32cd" stroke-dasharray="5,2" d="M274.742,-426.76C324.884,-426.755 397.617,-421.009 454,-393 481.814,-379.183 504.955,-349.632 516.009,-333.702"/>
<polygon fill="#9a32cd" stroke="#9a32cd" points="274.739,-423.26 264.713,-426.685 274.686,-430.26 274.739,-423.26"/>
<text text-anchor="middle" x="386" y="-428" font-family="Helvetica,sans-Serif" font-size="10.00"> m_mutex</text>
</g>
<!-- Node12 -->
<g id="node26" class="node"><title>Node12</title>
<a xlink:href="classMojString.htm" target="_top" xlink:title="MojString">
<polygon fill="white" stroke="black" points="185,-210.5 185,-231.5 247,-231.5 247,-210.5 185,-210.5"/>
<text text-anchor="middle" x="216" y="-218.5" font-family="Helvetica,sans-Serif" font-size="10.00">MojString</text>
</a>
</g>
<!-- Node12&#45;&gt;Node10 -->
<g id="edge30" class="edge"><title>Node12&#45;&gt;Node10</title>
<path fill="none" stroke="#9a32cd" stroke-dasharray="5,2" d="M257.12,-231.216C322.85,-247.617 445.146,-278.449 454,-283 463.262,-287.761 463.262,-292.334 472,-298 480.274,-303.365 489.866,-308.353 498.483,-312.44"/>
<polygon fill="#9a32cd" stroke="#9a32cd" points="257.632,-227.737 247.082,-228.714 255.939,-234.529 257.632,-227.737"/>
<text text-anchor="middle" x="386" y="-287" font-family="Helvetica,sans-Serif" font-size="10.00"> m_name</text>
</g>
<!-- Node12&#45;&gt;Node12 -->
<g id="edge32" class="edge"><title>Node12&#45;&gt;Node12</title>
<path fill="none" stroke="#9a32cd" stroke-dasharray="5,2" d="M197.202,-241.427C198.653,-246.349 204.918,-250 216,-250 233.73,-250 239.133,-240.653 232.207,-231.708"/>
<polygon fill="#9a32cd" stroke="#9a32cd" points="200.599,-242.272 199.793,-231.708 193.836,-240.469 200.599,-242.272"/>
<text text-anchor="middle" x="216" y="-254" font-family="Helvetica,sans-Serif" font-size="10.00"> Empty</text>
</g>
<!-- Node13&#45;&gt;Node10 -->
<g id="edge34" class="edge"><title>Node13&#45;&gt;Node10</title>
<path fill="none" stroke="#9a32cd" stroke-dasharray="5,2" d="M247.202,-160.411C266.164,-177.117 291.726,-196.686 318,-208 374.238,-232.216 408.627,-188.885 454,-230 477.167,-250.992 452.175,-273.827 472,-298 477.002,-304.1 483.859,-308.828 490.922,-312.447"/>
<polygon fill="#9a32cd" stroke="#9a32cd" points="249.526,-157.794 239.755,-153.698 244.839,-162.993 249.526,-157.794"/>
<text text-anchor="middle" x="386" y="-234" font-family="Helvetica,sans-Serif" font-size="10.00"> m_categories</text>
</g>
<!-- Node14 -->
<g id="node32" class="node"><title>Node14</title>
<polygon fill="white" stroke="#bfbfbf" points="197,-0.5 197,-21.5 235,-21.5 235,-0.5 197,-0.5"/>
<text text-anchor="middle" x="216" y="-8.5" font-family="Helvetica,sans-Serif" font-size="10.00">char</text>
</g>
<!-- Node14&#45;&gt;Node10 -->
<g id="edge38" class="edge"><title>Node14&#45;&gt;Node10</title>
<path fill="none" stroke="#9a32cd" stroke-dasharray="5,2" d="M245.045,-6.22709C295.912,0.286255 400.765,5.14698 454,-54 490.373,-94.4115 441.556,-252.954 472,-298 476.141,-304.127 482.233,-308.81 488.778,-312.369"/>
<polygon fill="#9a32cd" stroke="#9a32cd" points="244.469,-2.77341 235.047,-7.61961 245.435,-9.70647 244.469,-2.77341"/>
<text text-anchor="middle" x="386" y="-58" font-family="Helvetica,sans-Serif" font-size="10.00"> DefaultCategory</text>
</g>
<!-- Node15&#45;&gt;Node10 -->
<g id="edge40" class="edge"><title>Node15&#45;&gt;Node10</title>
<path fill="none" stroke="#9a32cd" stroke-dasharray="5,2" d="M290.302,-379.702C337.788,-375.644 400.309,-367.849 454,-353 470.996,-348.299 489.255,-340.214 502.718,-333.62"/>
<polygon fill="#9a32cd" stroke="#9a32cd" points="289.783,-376.232 280.102,-380.536 290.354,-383.209 289.783,-376.232"/>
<text text-anchor="middle" x="386" y="-380" font-family="Helvetica,sans-Serif" font-size="10.00"> m_dispatcher</text>
</g>
<!-- Node16&#45;&gt;Node10 -->
<g id="edge44" class="edge"><title>Node16&#45;&gt;Node10</title>
<path fill="none" stroke="#9a32cd" stroke-dasharray="5,2" d="M260.214,-340.976C321.846,-336.76 432.307,-329.204 488.35,-325.37"/>
<polygon fill="#9a32cd" stroke="#9a32cd" points="259.765,-337.498 250.027,-341.672 260.243,-344.482 259.765,-337.498"/>
<text text-anchor="middle" x="386" y="-340" font-family="Helvetica,sans-Serif" font-size="10.00"> s_log</text>
</g>
<!-- Node17&#45;&gt;Node10 -->
<g id="edge48" class="edge"><title>Node17&#45;&gt;Node10</title>
<path fill="none" stroke="#9a32cd" stroke-dasharray="5,2" d="M310.208,-68.3923C360.497,-75.9268 419.061,-93.9965 454,-136 500.327,-191.694 430.331,-238.74 472,-298 476.311,-304.13 482.557,-308.824 489.209,-312.394"/>
<polygon fill="#9a32cd" stroke="#9a32cd" points="310.655,-64.9208 300.27,-67.0218 309.698,-71.8552 310.655,-64.9208"/>
<text text-anchor="middle" x="386" y="-140" font-family="Helvetica,sans-Serif" font-size="10.00"> m_requests</text>
</g>
<!-- Node18 -->
<g id="node43" class="node"><title>Node18</title>
<a xlink:href="classMojMap.htm" target="_top" xlink:title="MojMap\&lt; SubscriptionKey,\l MojServiceMessage * \&gt;">
<polygon fill="white" stroke="black" points="145.5,-281 145.5,-315 286.5,-315 286.5,-281 145.5,-281"/>
<text text-anchor="start" x="153.5" y="-302" font-family="Helvetica,sans-Serif" font-size="10.00">MojMap&lt; SubscriptionKey,</text>
<text text-anchor="middle" x="216" y="-289" font-family="Helvetica,sans-Serif" font-size="10.00"> MojServiceMessage * &gt;</text>
</a>
</g>
<!-- Node18&#45;&gt;Node10 -->
<g id="edge52" class="edge"><title>Node18&#45;&gt;Node10</title>
<path fill="none" stroke="#9a32cd" stroke-dasharray="5,2" d="M296.978,-300.061C343.108,-301.825 401.919,-305.07 454,-311 465.235,-312.279 477.414,-314.213 488.367,-316.156"/>
<polygon fill="#9a32cd" stroke="#9a32cd" points="296.859,-296.554 286.738,-299.685 296.603,-303.549 296.859,-296.554"/>
<text text-anchor="middle" x="386" y="-315" font-family="Helvetica,sans-Serif" font-size="10.00"> m_subscriptions</text>
</g>
<!-- Node19 -->
<g id="node45" class="node"><title>Node19</title>
<a xlink:href="classMojRbTreeBase.htm" target="_top" xlink:title="MojRbTreeBase">
<polygon fill="white" stroke="black" points="0.5,-287.5 0.5,-308.5 93.5,-308.5 93.5,-287.5 0.5,-287.5"/>
<text text-anchor="middle" x="47" y="-295.5" font-family="Helvetica,sans-Serif" font-size="10.00">MojRbTreeBase</text>
</a>
</g>
<!-- Node19&#45;&gt;Node18 -->
<g id="edge54" class="edge"><title>Node19&#45;&gt;Node18</title>
<path fill="none" stroke="#8b1a1a" d="M103.649,-298C117.056,-298 131.517,-298 145.457,-298"/>
<polygon fill="#8b1a1a" stroke="#8b1a1a" points="103.627,-294.5 93.6274,-298 103.627,-301.5 103.627,-294.5"/>
</g>
</g>
</svg>
