<?xml version="1.0" encoding="UTF-8" standalone="no"?>
<!DOCTYPE svg PUBLIC "-//W3C//DTD SVG 1.1//EN"
 "http://www.w3.org/Graphics/SVG/1.1/DTD/svg11.dtd">
<!-- Generated by graphviz version 2.26.3 (20100126.1600)
 -->
<!-- Title: MojDbStorageItem Pages: 1 -->
<svg width="446pt" height="204pt"
 viewBox="0.00 0.00 446.00 204.00" xmlns="http://www.w3.org/2000/svg" xmlns:xlink="http://www.w3.org/1999/xlink">
<g id="graph1" class="graph" transform="scale(1 1) rotate(0) translate(4 200)">
<title>MojDbStorageItem</title>
<polygon fill="white" stroke="white" points="-4,5 -4,-200 443,-200 443,5 -4,5"/>
<!-- Node1 -->
<g id="node1" class="node"><title>Node1</title>
<polygon fill="#bfbfbf" stroke="black" points="172,-58.5 172,-79.5 276,-79.5 276,-58.5 172,-58.5"/>
<text text-anchor="middle" x="224" y="-66.5" font-family="Helvetica,sans-Serif" font-size="10.00">MojDbStorageItem</text>
</g>
<!-- Node4 -->
<g id="node7" class="node"><title>Node4</title>
<a xlink:href="classMojDbBerkeleyItem.htm" target="_top" xlink:title="MojDbBerkeleyItem">
<polygon fill="white" stroke="black" points="0,-0.5 0,-21.5 108,-21.5 108,-0.5 0,-0.5"/>
<text text-anchor="middle" x="54" y="-8.5" font-family="Helvetica,sans-Serif" font-size="10.00">MojDbBerkeleyItem</text>
</a>
</g>
<!-- Node1&#45;&gt;Node4 -->
<g id="edge6" class="edge"><title>Node1&#45;&gt;Node4</title>
<path fill="none" stroke="midnightblue" d="M183.388,-55.1443C153.136,-44.8229 112.456,-30.9439 84.8435,-21.5231"/>
<polygon fill="midnightblue" stroke="midnightblue" points="182.62,-58.5801 193.214,-58.4966 184.88,-51.955 182.62,-58.5801"/>
</g>
<!-- Node5 -->
<g id="node9" class="node"><title>Node5</title>
<a xlink:href="classMojDbInnoItem.htm" target="_top" xlink:title="MojDbInnoItem">
<polygon fill="white" stroke="black" points="126,-0.5 126,-21.5 214,-21.5 214,-0.5 126,-0.5"/>
<text text-anchor="middle" x="170" y="-8.5" font-family="Helvetica,sans-Serif" font-size="10.00">MojDbInnoItem</text>
</a>
</g>
<!-- Node1&#45;&gt;Node5 -->
<g id="edge8" class="edge"><title>Node1&#45;&gt;Node5</title>
<path fill="none" stroke="midnightblue" d="M207.083,-50.8299C198.125,-41.2078 187.437,-29.7282 179.842,-21.5707"/>
<polygon fill="midnightblue" stroke="midnightblue" points="204.72,-53.4279 214.096,-58.3619 209.843,-48.658 204.72,-53.4279"/>
</g>
<!-- Node6 -->
<g id="node11" class="node"><title>Node6</title>
<a xlink:href="classMojDbLevelItem.htm" target="_top" xlink:title="MojDbLevelItem">
<polygon fill="white" stroke="black" points="232,-0.5 232,-21.5 324,-21.5 324,-0.5 232,-0.5"/>
<text text-anchor="middle" x="278" y="-8.5" font-family="Helvetica,sans-Serif" font-size="10.00">MojDbLevelItem</text>
</a>
</g>
<!-- Node1&#45;&gt;Node6 -->
<g id="edge10" class="edge"><title>Node1&#45;&gt;Node6</title>
<path fill="none" stroke="midnightblue" d="M240.917,-50.8299C249.875,-41.2078 260.563,-29.7282 268.158,-21.5707"/>
<polygon fill="midnightblue" stroke="midnightblue" points="238.157,-48.658 233.904,-58.3619 243.28,-53.4279 238.157,-48.658"/>
</g>
<!-- Node7 -->
<g id="node13" class="node"><title>Node7</title>
<a xlink:href="classMojDbObjectItem.htm" target="_top" xlink:title="MojDbObjectItem">
<polygon fill="white" stroke="black" points="341.5,-0.5 341.5,-21.5 438.5,-21.5 438.5,-0.5 341.5,-0.5"/>
<text text-anchor="middle" x="390" y="-8.5" font-family="Helvetica,sans-Serif" font-size="10.00">MojDbObjectItem</text>
</a>
</g>
<!-- Node1&#45;&gt;Node7 -->
<g id="edge12" class="edge"><title>Node1&#45;&gt;Node7</title>
<path fill="none" stroke="midnightblue" d="M263.656,-55.1443C293.196,-44.8229 332.919,-30.9439 359.882,-21.5231"/>
<polygon fill="midnightblue" stroke="midnightblue" points="262.347,-51.894 254.061,-58.4966 264.656,-58.5023 262.347,-51.894"/>
</g>
<!-- Node2 -->
<g id="node2" class="node"><title>Node2</title>
<a xlink:href="classMojRefCounted.htm" target="_top" xlink:title="MojRefCounted">
<polygon fill="white" stroke="black" points="179,-116.5 179,-137.5 269,-137.5 269,-116.5 179,-116.5"/>
<text text-anchor="middle" x="224" y="-124.5" font-family="Helvetica,sans-Serif" font-size="10.00">MojRefCounted</text>
</a>
</g>
<!-- Node2&#45;&gt;Node1 -->
<g id="edge2" class="edge"><title>Node2&#45;&gt;Node1</title>
<path fill="none" stroke="midnightblue" d="M224,-106.191C224,-97.1684 224,-86.9941 224,-79.5707"/>
<polygon fill="midnightblue" stroke="midnightblue" points="220.5,-106.362 224,-116.362 227.5,-106.362 220.5,-106.362"/>
</g>
<!-- Node3 -->
<g id="node4" class="node"><title>Node3</title>
<a xlink:href="classMojNoCopy.htm" target="_top" xlink:title="MojNoCopy">
<polygon fill="white" stroke="black" points="188,-174.5 188,-195.5 260,-195.5 260,-174.5 188,-174.5"/>
<text text-anchor="middle" x="224" y="-182.5" font-family="Helvetica,sans-Serif" font-size="10.00">MojNoCopy</text>
</a>
</g>
<!-- Node3&#45;&gt;Node2 -->
<g id="edge4" class="edge"><title>Node3&#45;&gt;Node2</title>
<path fill="none" stroke="#8b1a1a" d="M224,-164.191C224,-155.168 224,-144.994 224,-137.571"/>
<polygon fill="#8b1a1a" stroke="#8b1a1a" points="220.5,-164.362 224,-174.362 227.5,-164.362 220.5,-164.362"/>
</g>
</g>
</svg>
