<?xml version="1.0" encoding="UTF-8" standalone="no"?>
<!DOCTYPE svg PUBLIC "-//W3C//DTD SVG 1.1//EN"
 "http://www.w3.org/Graphics/SVG/1.1/DTD/svg11.dtd">
<!-- Generated by graphviz version 2.26.3 (20100126.1600)
 -->
<!-- Title: MojSlotBase1&lt; TARG1 &gt; Pages: 1 -->
<svg width="144pt" height="276pt"
 viewBox="0.00 0.00 144.00 276.00" xmlns="http://www.w3.org/2000/svg" xmlns:xlink="http://www.w3.org/1999/xlink">
<g id="graph1" class="graph" transform="scale(1 1) rotate(0) translate(4 272)">
<title>MojSlotBase1&lt; TARG1 &gt;</title>
<polygon fill="white" stroke="white" points="-4,5 -4,-272 141,-272 141,5 -4,5"/>
<!-- Node1 -->
<g id="node1" class="node"><title>Node1</title>
<polygon fill="#bfbfbf" stroke="black" points="0.5,-130.5 0.5,-151.5 135.5,-151.5 135.5,-130.5 0.5,-130.5"/>
<text text-anchor="middle" x="68" y="-138.5" font-family="Helvetica,sans-Serif" font-size="10.00">MojSlotBase1&lt; TARG1 &gt;</text>
</g>
<!-- Node4 -->
<g id="node7" class="node"><title>Node4</title>
<a xlink:href="classMojSlot1.htm" target="_top" xlink:title="MojSlot1\&lt; TARG1 \&gt;">
<polygon fill="white" stroke="black" points="12.5,-72.5 12.5,-93.5 123.5,-93.5 123.5,-72.5 12.5,-72.5"/>
<text text-anchor="middle" x="68" y="-80.5" font-family="Helvetica,sans-Serif" font-size="10.00">MojSlot1&lt; TARG1 &gt;</text>
</a>
</g>
<!-- Node1&#45;&gt;Node4 -->
<g id="edge6" class="edge"><title>Node1&#45;&gt;Node4</title>
<path fill="none" stroke="midnightblue" d="M68,-120.191C68,-111.168 68,-100.994 68,-93.5707"/>
<polygon fill="midnightblue" stroke="midnightblue" points="64.5001,-120.362 68,-130.362 71.5001,-120.362 64.5001,-120.362"/>
</g>
<!-- Node2 -->
<g id="node2" class="node"><title>Node2</title>
<a xlink:href="classMojSlotBase.htm" target="_top" xlink:title="MojSlotBase">
<polygon fill="white" stroke="black" points="30,-188.5 30,-209.5 106,-209.5 106,-188.5 30,-188.5"/>
<text text-anchor="middle" x="68" y="-196.5" font-family="Helvetica,sans-Serif" font-size="10.00">MojSlotBase</text>
</a>
</g>
<!-- Node2&#45;&gt;Node1 -->
<g id="edge2" class="edge"><title>Node2&#45;&gt;Node1</title>
<path fill="none" stroke="midnightblue" d="M68,-178.191C68,-169.168 68,-158.994 68,-151.571"/>
<polygon fill="midnightblue" stroke="midnightblue" points="64.5001,-178.362 68,-188.362 71.5001,-178.362 64.5001,-178.362"/>
</g>
<!-- Node3 -->
<g id="node4" class="node"><title>Node3</title>
<a xlink:href="classMojNoCopy.htm" target="_top" xlink:title="MojNoCopy">
<polygon fill="white" stroke="black" points="32,-246.5 32,-267.5 104,-267.5 104,-246.5 32,-246.5"/>
<text text-anchor="middle" x="68" y="-254.5" font-family="Helvetica,sans-Serif" font-size="10.00">MojNoCopy</text>
</a>
</g>
<!-- Node3&#45;&gt;Node2 -->
<g id="edge4" class="edge"><title>Node3&#45;&gt;Node2</title>
<path fill="none" stroke="#8b1a1a" d="M68,-236.191C68,-227.168 68,-216.994 68,-209.571"/>
<polygon fill="#8b1a1a" stroke="#8b1a1a" points="64.5001,-236.362 68,-246.362 71.5001,-236.362 64.5001,-236.362"/>
</g>
<!-- Node5 -->
<g id="node9" class="node"><title>Node5</title>
<a xlink:href="classMojSignal1_1_1Slot.htm" target="_top" xlink:title="MojSignal1\&lt; THANDLER,\l TARG1 \&gt;::Slot">
<polygon fill="white" stroke="black" points="-0.5,-1 -0.5,-35 136.5,-35 136.5,-1 -0.5,-1"/>
<text text-anchor="start" x="7.5" y="-22" font-family="Helvetica,sans-Serif" font-size="10.00">MojSignal1&lt; THANDLER,</text>
<text text-anchor="middle" x="68" y="-9" font-family="Helvetica,sans-Serif" font-size="10.00"> TARG1 &gt;::Slot</text>
</a>
</g>
<!-- Node4&#45;&gt;Node5 -->
<g id="edge8" class="edge"><title>Node4&#45;&gt;Node5</title>
<path fill="none" stroke="midnightblue" d="M68,-62.1306C68,-53.4049 68,-43.3908 68,-35.1099"/>
<polygon fill="midnightblue" stroke="midnightblue" points="64.5001,-62.2665 68,-72.2666 71.5001,-62.2666 64.5001,-62.2665"/>
</g>
</g>
</svg>
