<?xml version="1.0" encoding="UTF-8" standalone="no"?>
<!DOCTYPE svg PUBLIC "-//W3C//DTD SVG 1.1//EN"
 "http://www.w3.org/Graphics/SVG/1.1/DTD/svg11.dtd">
<!-- Generated by graphviz version 2.26.3 (20100126.1600)
 -->
<!-- Title: MojLogAppender Pages: 1 -->
<svg width="364pt" height="146pt"
 viewBox="0.00 0.00 364.00 146.00" xmlns="http://www.w3.org/2000/svg" xmlns:xlink="http://www.w3.org/1999/xlink">
<g id="graph1" class="graph" transform="scale(1 1) rotate(0) translate(4 142)">
<title>MojLogAppender</title>
<polygon fill="white" stroke="white" points="-4,5 -4,-142 361,-142 361,5 -4,5"/>
<!-- Node1 -->
<g id="node1" class="node"><title>Node1</title>
<polygon fill="#bfbfbf" stroke="black" points="121,-58.5 121,-79.5 219,-79.5 219,-58.5 121,-58.5"/>
<text text-anchor="middle" x="170" y="-66.5" font-family="Helvetica,sans-Serif" font-size="10.00">MojLogAppender</text>
</g>
<!-- Node3 -->
<g id="node5" class="node"><title>Node3</title>
<a xlink:href="classMojFileAppender.htm" target="_top" xlink:title="MojFileAppender">
<polygon fill="white" stroke="black" points="-0.5,-0.5 -0.5,-21.5 96.5,-21.5 96.5,-0.5 -0.5,-0.5"/>
<text text-anchor="middle" x="48" y="-8.5" font-family="Helvetica,sans-Serif" font-size="10.00">MojFileAppender</text>
</a>
</g>
<!-- Node1&#45;&gt;Node3 -->
<g id="edge4" class="edge"><title>Node1&#45;&gt;Node3</title>
<path fill="none" stroke="midnightblue" d="M138.594,-54.0693C117.229,-43.9121 89.471,-30.7157 70.3412,-21.6212"/>
<polygon fill="midnightblue" stroke="midnightblue" points="137.373,-57.364 147.907,-58.4966 140.378,-51.042 137.373,-57.364"/>
</g>
<!-- Node4 -->
<g id="node7" class="node"><title>Node4</title>
<a xlink:href="classMojPmLogAppender.htm" target="_top" xlink:title="MojPmLogAppender">
<polygon fill="white" stroke="black" points="113.5,-0.5 113.5,-21.5 226.5,-21.5 226.5,-0.5 113.5,-0.5"/>
<text text-anchor="middle" x="170" y="-8.5" font-family="Helvetica,sans-Serif" font-size="10.00">MojPmLogAppender</text>
</a>
</g>
<!-- Node1&#45;&gt;Node4 -->
<g id="edge6" class="edge"><title>Node1&#45;&gt;Node4</title>
<path fill="none" stroke="midnightblue" d="M170,-48.1906C170,-39.1684 170,-28.9941 170,-21.5707"/>
<polygon fill="midnightblue" stroke="midnightblue" points="166.5,-48.3619 170,-58.3619 173.5,-48.3619 166.5,-48.3619"/>
</g>
<!-- Node5 -->
<g id="node9" class="node"><title>Node5</title>
<a xlink:href="classMojSyslogAppender.htm" target="_top" xlink:title="MojSyslogAppender">
<polygon fill="white" stroke="black" points="244,-0.5 244,-21.5 356,-21.5 356,-0.5 244,-0.5"/>
<text text-anchor="middle" x="300" y="-8.5" font-family="Helvetica,sans-Serif" font-size="10.00">MojSyslogAppender</text>
</a>
</g>
<!-- Node1&#45;&gt;Node5 -->
<g id="edge8" class="edge"><title>Node1&#45;&gt;Node5</title>
<path fill="none" stroke="midnightblue" d="M202.852,-54.3431C225.698,-44.1502 255.626,-30.7977 276.194,-21.6212"/>
<polygon fill="midnightblue" stroke="midnightblue" points="201.248,-51.2259 193.542,-58.4966 204.1,-57.6185 201.248,-51.2259"/>
</g>
<!-- Node2 -->
<g id="node2" class="node"><title>Node2</title>
<a xlink:href="classMojNoCopy.htm" target="_top" xlink:title="MojNoCopy">
<polygon fill="white" stroke="black" points="134,-116.5 134,-137.5 206,-137.5 206,-116.5 134,-116.5"/>
<text text-anchor="middle" x="170" y="-124.5" font-family="Helvetica,sans-Serif" font-size="10.00">MojNoCopy</text>
</a>
</g>
<!-- Node2&#45;&gt;Node1 -->
<g id="edge2" class="edge"><title>Node2&#45;&gt;Node1</title>
<path fill="none" stroke="#8b1a1a" d="M170,-106.191C170,-97.1684 170,-86.9941 170,-79.5707"/>
<polygon fill="#8b1a1a" stroke="#8b1a1a" points="166.5,-106.362 170,-116.362 173.5,-106.362 166.5,-106.362"/>
</g>
</g>
</svg>
