<?xml version="1.0" encoding="UTF-8" standalone="no"?>
<!DOCTYPE svg PUBLIC "-//W3C//DTD SVG 1.1//EN"
 "http://www.w3.org/Graphics/SVG/1.1/DTD/svg11.dtd">
<!-- Generated by graphviz version 2.26.3 (20100126.1600)
 -->
<!-- Title: MojSmartPtrBase&lt; T &gt; Pages: 1 -->
<svg width="560pt" height="292pt"
 viewBox="0.00 0.00 560.00 292.00" xmlns="http://www.w3.org/2000/svg" xmlns:xlink="http://www.w3.org/1999/xlink">
<g id="graph1" class="graph" transform="scale(1 1) rotate(0) translate(4 288)">
<title>MojSmartPtrBase&lt; T &gt;</title>
<polygon fill="white" stroke="white" points="-4,5 -4,-288 557,-288 557,5 -4,5"/>
<!-- Node1 -->
<g id="node1" class="node"><title>Node1</title>
<polygon fill="#bfbfbf" stroke="black" points="108,-124.5 108,-145.5 232,-145.5 232,-124.5 108,-124.5"/>
<text text-anchor="middle" x="170" y="-132.5" font-family="Helvetica,sans-Serif" font-size="10.00">MojSmartPtrBase&lt; T &gt;</text>
</g>
<!-- Node3 -->
<g id="node5" class="node"><title>Node3</title>
<a xlink:href="classMojAutoPtrBase.htm" target="_top" xlink:title="MojAutoPtrBase\&lt; T \&gt;">
<polygon fill="white" stroke="black" points="273.5,-262.5 273.5,-283.5 390.5,-283.5 390.5,-262.5 273.5,-262.5"/>
<text text-anchor="middle" x="332" y="-270.5" font-family="Helvetica,sans-Serif" font-size="10.00">MojAutoPtrBase&lt; T &gt;</text>
</a>
</g>
<!-- Node1&#45;&gt;Node3 -->
<g id="edge4" class="edge"><title>Node1&#45;&gt;Node3</title>
<path fill="none" stroke="midnightblue" d="M180.987,-154.177C196.899,-180.276 228.79,-226.729 268,-253 273.706,-256.823 280.181,-259.946 286.768,-262.489"/>
<polygon fill="midnightblue" stroke="midnightblue" points="183.982,-152.365 175.864,-145.558 177.965,-155.942 183.982,-152.365"/>
</g>
<!-- Node4 -->
<g id="node7" class="node"><title>Node4</title>
<a xlink:href="classMojAutoPtrBase.htm" target="_top" xlink:title="MojAutoPtrBase\&lt; T,\l MojArrayDeleteDtor\l\&lt; T \&gt; \&gt;">
<polygon fill="white" stroke="black" points="275.5,-196.5 275.5,-243.5 388.5,-243.5 388.5,-196.5 275.5,-196.5"/>
<text text-anchor="start" x="283.5" y="-230.5" font-family="Helvetica,sans-Serif" font-size="10.00">MojAutoPtrBase&lt; T,</text>
<text text-anchor="start" x="283.5" y="-217.5" font-family="Helvetica,sans-Serif" font-size="10.00"> MojArrayDeleteDtor</text>
<text text-anchor="middle" x="332" y="-204.5" font-family="Helvetica,sans-Serif" font-size="10.00">&lt; T &gt; &gt;</text>
</a>
</g>
<!-- Node1&#45;&gt;Node4 -->
<g id="edge6" class="edge"><title>Node1&#45;&gt;Node4</title>
<path fill="none" stroke="midnightblue" d="M198.838,-150.416C218.335,-160.81 244.68,-174.801 268,-187 273.871,-190.071 280.054,-193.285 286.169,-196.451"/>
<polygon fill="midnightblue" stroke="midnightblue" points="200.33,-147.245 189.859,-145.626 197.035,-153.421 200.33,-147.245"/>
</g>
<!-- Node6 -->
<g id="node11" class="node"><title>Node6</title>
<a xlink:href="classMojAutoPtrBase.htm" target="_top" xlink:title="MojAutoPtrBase\&lt; T,\l MojCloseDtor\&lt; T \&gt; \&gt;">
<polygon fill="white" stroke="black" points="273,-144 273,-178 391,-178 391,-144 273,-144"/>
<text text-anchor="start" x="281" y="-165" font-family="Helvetica,sans-Serif" font-size="10.00">MojAutoPtrBase&lt; T,</text>
<text text-anchor="middle" x="332" y="-152" font-family="Helvetica,sans-Serif" font-size="10.00"> MojCloseDtor&lt; T &gt; &gt;</text>
</a>
</g>
<!-- Node1&#45;&gt;Node6 -->
<g id="edge10" class="edge"><title>Node1&#45;&gt;Node6</title>
<path fill="none" stroke="midnightblue" d="M242.32,-146.607C252.557,-148.25 262.98,-149.923 272.927,-151.519"/>
<polygon fill="midnightblue" stroke="midnightblue" points="242.598,-143.107 232.17,-144.978 241.489,-150.018 242.598,-143.107"/>
</g>
<!-- Node8 -->
<g id="node15" class="node"><title>Node8</title>
<a xlink:href="classMojAutoPtrBase.htm" target="_top" xlink:title="MojAutoPtrBase\&lt; T,\l MojDeleteDtor\&lt; T \&gt; \&gt;">
<polygon fill="white" stroke="black" points="271,-92 271,-126 393,-126 393,-92 271,-92"/>
<text text-anchor="start" x="279" y="-113" font-family="Helvetica,sans-Serif" font-size="10.00">MojAutoPtrBase&lt; T,</text>
<text text-anchor="middle" x="332" y="-100" font-family="Helvetica,sans-Serif" font-size="10.00"> MojDeleteDtor&lt; T &gt; &gt;</text>
</a>
</g>
<!-- Node1&#45;&gt;Node8 -->
<g id="edge14" class="edge"><title>Node1&#45;&gt;Node8</title>
<path fill="none" stroke="midnightblue" d="M242.077,-123.432C251.664,-121.893 261.42,-120.328 270.798,-118.823"/>
<polygon fill="midnightblue" stroke="midnightblue" points="241.489,-119.982 232.17,-125.022 242.598,-126.893 241.489,-119.982"/>
</g>
<!-- Node10 -->
<g id="node19" class="node"><title>Node10</title>
<a xlink:href="classMojAutoPtrBase.htm" target="_top" xlink:title="MojAutoPtrBase\&lt; T,\l MojFreeDtor \&gt;">
<polygon fill="white" stroke="black" points="277,-40 277,-74 387,-74 387,-40 277,-40"/>
<text text-anchor="start" x="285" y="-61" font-family="Helvetica,sans-Serif" font-size="10.00">MojAutoPtrBase&lt; T,</text>
<text text-anchor="middle" x="332" y="-48" font-family="Helvetica,sans-Serif" font-size="10.00"> MojFreeDtor &gt;</text>
</a>
</g>
<!-- Node1&#45;&gt;Node10 -->
<g id="edge18" class="edge"><title>Node1&#45;&gt;Node10</title>
<path fill="none" stroke="midnightblue" d="M197.407,-119.492C216.85,-108.729 243.704,-94.3451 268,-83 274.52,-79.9555 281.499,-76.9099 288.365,-74.0309"/>
<polygon fill="midnightblue" stroke="midnightblue" points="195.532,-116.53 188.5,-124.456 198.939,-122.645 195.532,-116.53"/>
</g>
<!-- Node12 -->
<g id="node23" class="node"><title>Node12</title>
<a xlink:href="classMojRefCountedPtr.htm" target="_top" xlink:title="MojRefCountedPtr\&lt; T \&gt;">
<polygon fill="white" stroke="black" points="268,-0.5 268,-21.5 396,-21.5 396,-0.5 268,-0.5"/>
<text text-anchor="middle" x="332" y="-8.5" font-family="Helvetica,sans-Serif" font-size="10.00">MojRefCountedPtr&lt; T &gt;</text>
</a>
</g>
<!-- Node1&#45;&gt;Node12 -->
<g id="edge22" class="edge"><title>Node1&#45;&gt;Node12</title>
<path fill="none" stroke="midnightblue" d="M183.001,-116.126C199.966,-92.8656 231.793,-53.6493 268,-31 274.02,-27.2341 280.805,-24.1274 287.649,-21.5794"/>
<polygon fill="midnightblue" stroke="midnightblue" points="180.008,-114.294 177.055,-124.469 185.709,-118.357 180.008,-114.294"/>
</g>
<!-- Node2 -->
<g id="node2" class="node"><title>Node2</title>
<a xlink:href="classMojNoCopy.htm" target="_top" xlink:title="MojNoCopy">
<polygon fill="white" stroke="black" points="0,-124.5 0,-145.5 72,-145.5 72,-124.5 0,-124.5"/>
<text text-anchor="middle" x="36" y="-132.5" font-family="Helvetica,sans-Serif" font-size="10.00">MojNoCopy</text>
</a>
</g>
<!-- Node2&#45;&gt;Node1 -->
<g id="edge2" class="edge"><title>Node2&#45;&gt;Node1</title>
<path fill="none" stroke="#8b1a1a" d="M82.3957,-135C90.6233,-135 99.3102,-135 107.89,-135"/>
<polygon fill="#8b1a1a" stroke="#8b1a1a" points="82.2624,-131.5 72.2623,-135 82.2623,-138.5 82.2624,-131.5"/>
</g>
<!-- Node5 -->
<g id="node9" class="node"><title>Node5</title>
<a xlink:href="classMojAutoArrayPtr.htm" target="_top" xlink:title="MojAutoArrayPtr\&lt; T \&gt;">
<polygon fill="white" stroke="black" points="432.5,-209.5 432.5,-230.5 551.5,-230.5 551.5,-209.5 432.5,-209.5"/>
<text text-anchor="middle" x="492" y="-217.5" font-family="Helvetica,sans-Serif" font-size="10.00">MojAutoArrayPtr&lt; T &gt;</text>
</a>
</g>
<!-- Node4&#45;&gt;Node5 -->
<g id="edge8" class="edge"><title>Node4&#45;&gt;Node5</title>
<path fill="none" stroke="midnightblue" d="M398.924,-220C410.014,-220 421.45,-220 432.345,-220"/>
<polygon fill="midnightblue" stroke="midnightblue" points="398.861,-216.5 388.861,-220 398.86,-223.5 398.861,-216.5"/>
</g>
<!-- Node7 -->
<g id="node13" class="node"><title>Node7</title>
<a xlink:href="classMojAutoCloser.htm" target="_top" xlink:title="MojAutoCloser\&lt; T \&gt;">
<polygon fill="white" stroke="black" points="437,-150.5 437,-171.5 547,-171.5 547,-150.5 437,-150.5"/>
<text text-anchor="middle" x="492" y="-158.5" font-family="Helvetica,sans-Serif" font-size="10.00">MojAutoCloser&lt; T &gt;</text>
</a>
</g>
<!-- Node6&#45;&gt;Node7 -->
<g id="edge12" class="edge"><title>Node6&#45;&gt;Node7</title>
<path fill="none" stroke="midnightblue" d="M401.423,-161C413.265,-161 425.423,-161 436.832,-161"/>
<polygon fill="midnightblue" stroke="midnightblue" points="401.124,-157.5 391.124,-161 401.123,-164.5 401.124,-157.5"/>
</g>
<!-- Node9 -->
<g id="node17" class="node"><title>Node9</title>
<a xlink:href="classMojAutoPtr.htm" target="_top" xlink:title="MojAutoPtr\&lt; T \&gt;">
<polygon fill="white" stroke="black" points="445.5,-98.5 445.5,-119.5 538.5,-119.5 538.5,-98.5 445.5,-98.5"/>
<text text-anchor="middle" x="492" y="-106.5" font-family="Helvetica,sans-Serif" font-size="10.00">MojAutoPtr&lt; T &gt;</text>
</a>
</g>
<!-- Node8&#45;&gt;Node9 -->
<g id="edge16" class="edge"><title>Node8&#45;&gt;Node9</title>
<path fill="none" stroke="midnightblue" d="M403.638,-109C417.815,-109 432.347,-109 445.426,-109"/>
<polygon fill="midnightblue" stroke="midnightblue" points="403.403,-105.5 393.403,-109 403.403,-112.5 403.403,-105.5"/>
</g>
<!-- Node11 -->
<g id="node21" class="node"><title>Node11</title>
<a xlink:href="classMojAutoFreePtr.htm" target="_top" xlink:title="MojAutoFreePtr\&lt; T \&gt;">
<polygon fill="white" stroke="black" points="434.5,-46.5 434.5,-67.5 549.5,-67.5 549.5,-46.5 434.5,-46.5"/>
<text text-anchor="middle" x="492" y="-54.5" font-family="Helvetica,sans-Serif" font-size="10.00">MojAutoFreePtr&lt; T &gt;</text>
</a>
</g>
<!-- Node10&#45;&gt;Node11 -->
<g id="edge20" class="edge"><title>Node10&#45;&gt;Node11</title>
<path fill="none" stroke="midnightblue" d="M397.255,-57C409.555,-57 422.337,-57 434.383,-57"/>
<polygon fill="midnightblue" stroke="midnightblue" points="397.063,-53.5001 387.063,-57 397.063,-60.5001 397.063,-53.5001"/>
</g>
</g>
</svg>
