<?xml version="1.0" encoding="UTF-8" standalone="no"?>
<!DOCTYPE svg PUBLIC "-//W3C//DTD SVG 1.1//EN"
 "http://www.w3.org/Graphics/SVG/1.1/DTD/svg11.dtd">
<!-- Generated by graphviz version 2.26.3 (20100126.1600)
 -->
<!-- Title: MojSlot1&lt; THANDLER, TARG1 &gt; Pages: 1 -->
<svg width="144pt" height="290pt"
 viewBox="0.00 0.00 144.00 290.00" xmlns="http://www.w3.org/2000/svg" xmlns:xlink="http://www.w3.org/1999/xlink">
<g id="graph1" class="graph" transform="scale(1 1) rotate(0) translate(4 286)">
<title>MojSlot1&lt; THANDLER, TARG1 &gt;</title>
<polygon fill="white" stroke="white" points="-4,5 -4,-286 141,-286 141,5 -4,5"/>
<!-- Node1 -->
<g id="node1" class="node"><title>Node1</title>
<polygon fill="#bfbfbf" stroke="black" points="5.5,-73 5.5,-107 130.5,-107 130.5,-73 5.5,-73"/>
<text text-anchor="start" x="13.5" y="-94" font-family="Helvetica,sans-Serif" font-size="10.00">MojSlot1&lt; THANDLER,</text>
<text text-anchor="middle" x="68" y="-81" font-family="Helvetica,sans-Serif" font-size="10.00"> TARG1 &gt;</text>
</g>
<!-- Node5 -->
<g id="node9" class="node"><title>Node5</title>
<a xlink:href="classMojSignal1_1_1Slot.htm" target="_top" xlink:title="MojSignal1\&lt; THANDLER,\l TARG1 \&gt;::Slot">
<polygon fill="white" stroke="black" points="-0.5,-1 -0.5,-35 136.5,-35 136.5,-1 -0.5,-1"/>
<text text-anchor="start" x="7.5" y="-22" font-family="Helvetica,sans-Serif" font-size="10.00">MojSignal1&lt; THANDLER,</text>
<text text-anchor="middle" x="68" y="-9" font-family="Helvetica,sans-Serif" font-size="10.00"> TARG1 &gt;::Slot</text>
</a>
</g>
<!-- Node1&#45;&gt;Node5 -->
<g id="edge8" class="edge"><title>Node1&#45;&gt;Node5</title>
<path fill="none" stroke="midnightblue" d="M68,-62.7193C68,-53.572 68,-43.6255 68,-35.4407"/>
<polygon fill="midnightblue" stroke="midnightblue" points="64.5001,-62.937 68,-72.937 71.5001,-62.937 64.5001,-62.937"/>
</g>
<!-- Node2 -->
<g id="node2" class="node"><title>Node2</title>
<a xlink:href="classMojSlotBase1.htm" target="_top" xlink:title="MojSlotBase1\&lt; TARG1 \&gt;">
<polygon fill="white" stroke="black" points="0.5,-144.5 0.5,-165.5 135.5,-165.5 135.5,-144.5 0.5,-144.5"/>
<text text-anchor="middle" x="68" y="-152.5" font-family="Helvetica,sans-Serif" font-size="10.00">MojSlotBase1&lt; TARG1 &gt;</text>
</a>
</g>
<!-- Node2&#45;&gt;Node1 -->
<g id="edge2" class="edge"><title>Node2&#45;&gt;Node1</title>
<path fill="none" stroke="midnightblue" d="M68,-134.131C68,-125.405 68,-115.391 68,-107.11"/>
<polygon fill="midnightblue" stroke="midnightblue" points="64.5001,-134.267 68,-144.267 71.5001,-134.267 64.5001,-134.267"/>
</g>
<!-- Node3 -->
<g id="node4" class="node"><title>Node3</title>
<a xlink:href="classMojSlotBase.htm" target="_top" xlink:title="MojSlotBase">
<polygon fill="white" stroke="black" points="30,-202.5 30,-223.5 106,-223.5 106,-202.5 30,-202.5"/>
<text text-anchor="middle" x="68" y="-210.5" font-family="Helvetica,sans-Serif" font-size="10.00">MojSlotBase</text>
</a>
</g>
<!-- Node3&#45;&gt;Node2 -->
<g id="edge4" class="edge"><title>Node3&#45;&gt;Node2</title>
<path fill="none" stroke="midnightblue" d="M68,-192.191C68,-183.168 68,-172.994 68,-165.571"/>
<polygon fill="midnightblue" stroke="midnightblue" points="64.5001,-192.362 68,-202.362 71.5001,-192.362 64.5001,-192.362"/>
</g>
<!-- Node4 -->
<g id="node6" class="node"><title>Node4</title>
<a xlink:href="classMojNoCopy.htm" target="_top" xlink:title="MojNoCopy">
<polygon fill="white" stroke="black" points="32,-260.5 32,-281.5 104,-281.5 104,-260.5 32,-260.5"/>
<text text-anchor="middle" x="68" y="-268.5" font-family="Helvetica,sans-Serif" font-size="10.00">MojNoCopy</text>
</a>
</g>
<!-- Node4&#45;&gt;Node3 -->
<g id="edge6" class="edge"><title>Node4&#45;&gt;Node3</title>
<path fill="none" stroke="#8b1a1a" d="M68,-250.191C68,-241.168 68,-230.994 68,-223.571"/>
<polygon fill="#8b1a1a" stroke="#8b1a1a" points="64.5001,-250.362 68,-260.362 71.5001,-250.362 64.5001,-250.362"/>
</g>
</g>
</svg>
