<?xml version="1.0" encoding="UTF-8" standalone="no"?>
<!DOCTYPE svg PUBLIC "-//W3C//DTD SVG 1.1//EN"
 "http://www.w3.org/Graphics/SVG/1.1/DTD/svg11.dtd">
<!-- Generated by graphviz version 2.26.3 (20100126.1600)
 -->
<!-- Title: MojDbStorageEngineFactory Pages: 1 -->
<svg width="374pt" height="204pt"
 viewBox="0.00 0.00 374.00 204.00" xmlns="http://www.w3.org/2000/svg" xmlns:xlink="http://www.w3.org/1999/xlink">
<g id="graph1" class="graph" transform="scale(1 1) rotate(0) translate(4 200)">
<title>MojDbStorageEngineFactory</title>
<polygon fill="white" stroke="white" points="-4,5 -4,-200 371,-200 371,5 -4,5"/>
<!-- Node1 -->
<g id="node1" class="node"><title>Node1</title>
<polygon fill="#bfbfbf" stroke="black" points="115,-58.5 115,-79.5 267,-79.5 267,-58.5 115,-58.5"/>
<text text-anchor="middle" x="191" y="-66.5" font-family="Helvetica,sans-Serif" font-size="10.00">MojDbStorageEngineFactory</text>
</g>
<!-- Node4 -->
<g id="node7" class="node"><title>Node4</title>
<a xlink:href="classMojDbBerkeleyFactory.htm" target="_top" xlink:title="MojDbBerkeleyFactory">
<polygon fill="white" stroke="black" points="-0.5,-0.5 -0.5,-21.5 122.5,-21.5 122.5,-0.5 -0.5,-0.5"/>
<text text-anchor="middle" x="61" y="-8.5" font-family="Helvetica,sans-Serif" font-size="10.00">MojDbBerkeleyFactory</text>
</a>
</g>
<!-- Node1&#45;&gt;Node4 -->
<g id="edge6" class="edge"><title>Node1&#45;&gt;Node4</title>
<path fill="none" stroke="midnightblue" d="M158.148,-54.3431C135.302,-44.1502 105.374,-30.7977 84.8062,-21.6212"/>
<polygon fill="midnightblue" stroke="midnightblue" points="156.9,-57.6185 167.458,-58.4966 159.752,-51.2259 156.9,-57.6185"/>
</g>
<!-- Node5 -->
<g id="node9" class="node"><title>Node5</title>
<a xlink:href="classMojDbInnoFactory.htm" target="_top" xlink:title="MojDbInnoFactory">
<polygon fill="white" stroke="black" points="139.5,-0.5 139.5,-21.5 242.5,-21.5 242.5,-0.5 139.5,-0.5"/>
<text text-anchor="middle" x="191" y="-8.5" font-family="Helvetica,sans-Serif" font-size="10.00">MojDbInnoFactory</text>
</a>
</g>
<!-- Node1&#45;&gt;Node5 -->
<g id="edge8" class="edge"><title>Node1&#45;&gt;Node5</title>
<path fill="none" stroke="midnightblue" d="M191,-48.1906C191,-39.1684 191,-28.9941 191,-21.5707"/>
<polygon fill="midnightblue" stroke="midnightblue" points="187.5,-48.3619 191,-58.3619 194.5,-48.3619 187.5,-48.3619"/>
</g>
<!-- Node6 -->
<g id="node11" class="node"><title>Node6</title>
<a xlink:href="classMojDbLevelFactory.htm" target="_top" xlink:title="MojDbLevelFactory">
<polygon fill="white" stroke="black" points="259.5,-0.5 259.5,-21.5 366.5,-21.5 366.5,-0.5 259.5,-0.5"/>
<text text-anchor="middle" x="313" y="-8.5" font-family="Helvetica,sans-Serif" font-size="10.00">MojDbLevelFactory</text>
</a>
</g>
<!-- Node1&#45;&gt;Node6 -->
<g id="edge10" class="edge"><title>Node1&#45;&gt;Node6</title>
<path fill="none" stroke="midnightblue" d="M222.406,-54.0693C243.771,-43.9121 271.529,-30.7157 290.659,-21.6212"/>
<polygon fill="midnightblue" stroke="midnightblue" points="220.622,-51.042 213.093,-58.4966 223.627,-57.364 220.622,-51.042"/>
</g>
<!-- Node2 -->
<g id="node2" class="node"><title>Node2</title>
<a xlink:href="classMojRefCounted.htm" target="_top" xlink:title="MojRefCounted">
<polygon fill="white" stroke="black" points="146,-116.5 146,-137.5 236,-137.5 236,-116.5 146,-116.5"/>
<text text-anchor="middle" x="191" y="-124.5" font-family="Helvetica,sans-Serif" font-size="10.00">MojRefCounted</text>
</a>
</g>
<!-- Node2&#45;&gt;Node1 -->
<g id="edge2" class="edge"><title>Node2&#45;&gt;Node1</title>
<path fill="none" stroke="midnightblue" d="M191,-106.191C191,-97.1684 191,-86.9941 191,-79.5707"/>
<polygon fill="midnightblue" stroke="midnightblue" points="187.5,-106.362 191,-116.362 194.5,-106.362 187.5,-106.362"/>
</g>
<!-- Node3 -->
<g id="node4" class="node"><title>Node3</title>
<a xlink:href="classMojNoCopy.htm" target="_top" xlink:title="MojNoCopy">
<polygon fill="white" stroke="black" points="155,-174.5 155,-195.5 227,-195.5 227,-174.5 155,-174.5"/>
<text text-anchor="middle" x="191" y="-182.5" font-family="Helvetica,sans-Serif" font-size="10.00">MojNoCopy</text>
</a>
</g>
<!-- Node3&#45;&gt;Node2 -->
<g id="edge4" class="edge"><title>Node3&#45;&gt;Node2</title>
<path fill="none" stroke="#8b1a1a" d="M191,-164.191C191,-155.168 191,-144.994 191,-137.571"/>
<polygon fill="#8b1a1a" stroke="#8b1a1a" points="187.5,-164.362 191,-174.362 194.5,-164.362 187.5,-164.362"/>
</g>
</g>
</svg>
