<?xml version="1.0" encoding="UTF-8" standalone="no"?>
<!DOCTYPE svg PUBLIC "-//W3C//DTD SVG 1.1//EN"
 "http://www.w3.org/Graphics/SVG/1.1/DTD/svg11.dtd">
<!-- Generated by graphviz version 2.26.3 (20100126.1600)
 -->
<!-- Title: MojRefCountedPtr&lt; T &gt; Pages: 1 -->
<svg width="142pt" height="162pt"
 viewBox="0.00 0.00 142.00 162.00" xmlns="http://www.w3.org/2000/svg" xmlns:xlink="http://www.w3.org/1999/xlink">
<g id="graph1" class="graph" transform="scale(1 1) rotate(0) translate(4 158)">
<title>MojRefCountedPtr&lt; T &gt;</title>
<polygon fill="white" stroke="white" points="-4,5 -4,-158 139,-158 139,5 -4,5"/>
<!-- Node1 -->
<g id="node1" class="node"><title>Node1</title>
<polygon fill="#bfbfbf" stroke="black" points="6,-0.5 6,-21.5 134,-21.5 134,-0.5 6,-0.5"/>
<text text-anchor="middle" x="70" y="-8.5" font-family="Helvetica,sans-Serif" font-size="10.00">MojRefCountedPtr&lt; T &gt;</text>
</g>
<!-- Node2 -->
<g id="node2" class="node"><title>Node2</title>
<a xlink:href="classMojSmartPtrBase.htm" target="_top" xlink:title="MojSmartPtrBase\&lt; T \&gt;">
<polygon fill="white" stroke="black" points="8,-60.5 8,-81.5 132,-81.5 132,-60.5 8,-60.5"/>
<text text-anchor="middle" x="70" y="-68.5" font-family="Helvetica,sans-Serif" font-size="10.00">MojSmartPtrBase&lt; T &gt;</text>
</a>
</g>
<!-- Node2&#45;&gt;Node1 -->
<g id="edge2" class="edge"><title>Node2&#45;&gt;Node1</title>
<path fill="none" stroke="midnightblue" d="M70,-50.2312C70,-40.5922 70,-29.5444 70,-21.6339"/>
<polygon fill="midnightblue" stroke="midnightblue" points="66.5001,-50.2732 70,-60.2732 73.5001,-50.2732 66.5001,-50.2732"/>
</g>
<!-- Node3 -->
<g id="node4" class="node"><title>Node3</title>
<a xlink:href="classMojNoCopy.htm" target="_top" xlink:title="MojNoCopy">
<polygon fill="white" stroke="black" points="0,-132.5 0,-153.5 72,-153.5 72,-132.5 0,-132.5"/>
<text text-anchor="middle" x="36" y="-140.5" font-family="Helvetica,sans-Serif" font-size="10.00">MojNoCopy</text>
</a>
</g>
<!-- Node3&#45;&gt;Node2 -->
<g id="edge4" class="edge"><title>Node3&#45;&gt;Node2</title>
<path fill="none" stroke="#8b1a1a" d="M45.4319,-123.027C51.7546,-109.637 59.8322,-92.5318 64.9626,-81.6674"/>
<polygon fill="#8b1a1a" stroke="#8b1a1a" points="42.1221,-121.839 41.0168,-132.376 48.4518,-124.828 42.1221,-121.839"/>
</g>
<!-- Node4 -->
<g id="node6" class="node"><title>Node4</title>
<polygon fill="white" stroke="#bfbfbf" points="89.5,-132.5 89.5,-153.5 118.5,-153.5 118.5,-132.5 89.5,-132.5"/>
<text text-anchor="middle" x="104" y="-140.5" font-family="Helvetica,sans-Serif" font-size="10.00">T</text>
</g>
<!-- Node4&#45;&gt;Node2 -->
<g id="edge6" class="edge"><title>Node4&#45;&gt;Node2</title>
<path fill="none" stroke="#9a32cd" stroke-dasharray="5,2" d="M94.5681,-123.027C88.2454,-109.637 80.1678,-92.5318 75.0374,-81.6674"/>
<polygon fill="#9a32cd" stroke="#9a32cd" points="91.5482,-124.828 98.9832,-132.376 97.8779,-121.839 91.5482,-124.828"/>
<text text-anchor="middle" x="102" y="-104.5" font-family="Helvetica,sans-Serif" font-size="10.00"> m_p</text>
</g>
</g>
</svg>
