<?xml version="1.0" encoding="UTF-8" standalone="no"?>
<!DOCTYPE svg PUBLIC "-//W3C//DTD SVG 1.1//EN"
 "http://www.w3.org/Graphics/SVG/1.1/DTD/svg11.dtd">
<!-- Generated by graphviz version 2.26.3 (20100126.1600)
 -->
<!-- Title: MojSignal3&lt; ARG1, ARG2, ARG3 &gt;::Slot&lt; THANDLER &gt; Pages: 1 -->
<svg width="162pt" height="304pt"
 viewBox="0.00 0.00 162.00 304.00" xmlns="http://www.w3.org/2000/svg" xmlns:xlink="http://www.w3.org/1999/xlink">
<g id="graph1" class="graph" transform="scale(1 1) rotate(0) translate(4 300)">
<title>MojSignal3&lt; ARG1, ARG2, ARG3 &gt;::Slot&lt; THANDLER &gt;</title>
<polygon fill="white" stroke="white" points="-4,5 -4,-300 159,-300 159,5 -4,5"/>
<!-- Node1 -->
<g id="node1" class="node"><title>Node1</title>
<polygon fill="#bfbfbf" stroke="black" points="0,-1 0,-35 154,-35 154,-1 0,-1"/>
<text text-anchor="start" x="8" y="-22" font-family="Helvetica,sans-Serif" font-size="10.00">MojSignal3&lt; ARG1, ARG2,</text>
<text text-anchor="middle" x="77" y="-9" font-family="Helvetica,sans-Serif" font-size="10.00"> ARG3 &gt;::Slot&lt; THANDLER &gt;</text>
</g>
<!-- Node2 -->
<g id="node2" class="node"><title>Node2</title>
<a xlink:href="classMojSlot3.htm" target="_top" xlink:title="MojSlot3\&lt; THANDLER,\l TARG1, TARG2, TARG3 \&gt;">
<polygon fill="white" stroke="black" points="4.5,-73 4.5,-107 149.5,-107 149.5,-73 4.5,-73"/>
<text text-anchor="start" x="12.5" y="-94" font-family="Helvetica,sans-Serif" font-size="10.00">MojSlot3&lt; THANDLER,</text>
<text text-anchor="middle" x="77" y="-81" font-family="Helvetica,sans-Serif" font-size="10.00"> TARG1, TARG2, TARG3 &gt;</text>
</a>
</g>
<!-- Node2&#45;&gt;Node1 -->
<g id="edge2" class="edge"><title>Node2&#45;&gt;Node1</title>
<path fill="none" stroke="midnightblue" d="M77,-62.7193C77,-53.572 77,-43.6255 77,-35.4407"/>
<polygon fill="midnightblue" stroke="midnightblue" points="73.5001,-62.937 77,-72.937 80.5001,-62.937 73.5001,-62.937"/>
</g>
<!-- Node3 -->
<g id="node4" class="node"><title>Node3</title>
<a xlink:href="structMojSlotBase3.htm" target="_top" xlink:title="MojSlotBase3\&lt; TARG1,\l TARG2, TARG3 \&gt;">
<polygon fill="white" stroke="black" points="13,-145 13,-179 141,-179 141,-145 13,-145"/>
<text text-anchor="start" x="21" y="-166" font-family="Helvetica,sans-Serif" font-size="10.00">MojSlotBase3&lt; TARG1,</text>
<text text-anchor="middle" x="77" y="-153" font-family="Helvetica,sans-Serif" font-size="10.00"> TARG2, TARG3 &gt;</text>
</a>
</g>
<!-- Node3&#45;&gt;Node2 -->
<g id="edge4" class="edge"><title>Node3&#45;&gt;Node2</title>
<path fill="none" stroke="midnightblue" d="M77,-134.719C77,-125.572 77,-115.625 77,-107.441"/>
<polygon fill="midnightblue" stroke="midnightblue" points="73.5001,-134.937 77,-144.937 80.5001,-134.937 73.5001,-134.937"/>
</g>
<!-- Node4 -->
<g id="node6" class="node"><title>Node4</title>
<a xlink:href="classMojSlotBase.htm" target="_top" xlink:title="MojSlotBase">
<polygon fill="white" stroke="black" points="39,-216.5 39,-237.5 115,-237.5 115,-216.5 39,-216.5"/>
<text text-anchor="middle" x="77" y="-224.5" font-family="Helvetica,sans-Serif" font-size="10.00">MojSlotBase</text>
</a>
</g>
<!-- Node4&#45;&gt;Node3 -->
<g id="edge6" class="edge"><title>Node4&#45;&gt;Node3</title>
<path fill="none" stroke="midnightblue" d="M77,-206.131C77,-197.405 77,-187.391 77,-179.11"/>
<polygon fill="midnightblue" stroke="midnightblue" points="73.5001,-206.267 77,-216.267 80.5001,-206.267 73.5001,-206.267"/>
</g>
<!-- Node5 -->
<g id="node8" class="node"><title>Node5</title>
<a xlink:href="classMojNoCopy.htm" target="_top" xlink:title="MojNoCopy">
<polygon fill="white" stroke="black" points="41,-274.5 41,-295.5 113,-295.5 113,-274.5 41,-274.5"/>
<text text-anchor="middle" x="77" y="-282.5" font-family="Helvetica,sans-Serif" font-size="10.00">MojNoCopy</text>
</a>
</g>
<!-- Node5&#45;&gt;Node4 -->
<g id="edge8" class="edge"><title>Node5&#45;&gt;Node4</title>
<path fill="none" stroke="#8b1a1a" d="M77,-264.191C77,-255.168 77,-244.994 77,-237.571"/>
<polygon fill="#8b1a1a" stroke="#8b1a1a" points="73.5001,-264.362 77,-274.362 80.5001,-264.362 73.5001,-264.362"/>
</g>
</g>
</svg>
