<?xml version="1.0" encoding="UTF-8" standalone="no"?>
<!DOCTYPE svg PUBLIC "-//W3C//DTD SVG 1.1//EN"
 "http://www.w3.org/Graphics/SVG/1.1/DTD/svg11.dtd">
<!-- Generated by graphviz version 2.26.3 (20100126.1600)
 -->
<!-- Title: MojReactorApp&lt; REACTOR &gt; Pages: 1 -->
<svg width="281pt" height="318pt"
 viewBox="0.00 0.00 281.00 318.00" xmlns="http://www.w3.org/2000/svg" xmlns:xlink="http://www.w3.org/1999/xlink">
<g id="graph1" class="graph" transform="scale(1 1) rotate(0) translate(4 314)">
<title>MojReactorApp&lt; REACTOR &gt;</title>
<polygon fill="white" stroke="white" points="-4,5 -4,-314 278,-314 278,5 -4,5"/>
<!-- Node1 -->
<g id="node1" class="node"><title>Node1</title>
<polygon fill="#bfbfbf" stroke="black" points="114.5,-0.5 114.5,-21.5 273.5,-21.5 273.5,-0.5 114.5,-0.5"/>
<text text-anchor="middle" x="194" y="-8.5" font-family="Helvetica,sans-Serif" font-size="10.00">MojReactorApp&lt; REACTOR &gt;</text>
</g>
<!-- Node2 -->
<g id="node2" class="node"><title>Node2</title>
<a xlink:href="classMojServiceApp.htm" target="_top" xlink:title="MojServiceApp">
<polygon fill="white" stroke="black" points="78,-72.5 78,-93.5 166,-93.5 166,-72.5 78,-72.5"/>
<text text-anchor="middle" x="122" y="-80.5" font-family="Helvetica,sans-Serif" font-size="10.00">MojServiceApp</text>
</a>
</g>
<!-- Node2&#45;&gt;Node1 -->
<g id="edge2" class="edge"><title>Node2&#45;&gt;Node1</title>
<path fill="none" stroke="midnightblue" d="M140.032,-64.9677C153.671,-51.3294 171.936,-33.0644 183.333,-21.6674"/>
<polygon fill="midnightblue" stroke="midnightblue" points="137.22,-62.8302 132.624,-72.3762 142.17,-67.7799 137.22,-62.8302"/>
</g>
<!-- Node3 -->
<g id="node4" class="node"><title>Node3</title>
<a xlink:href="classMojApp.htm" target="_top" xlink:title="MojApp">
<polygon fill="white" stroke="black" points="50.5,-144.5 50.5,-165.5 103.5,-165.5 103.5,-144.5 50.5,-144.5"/>
<text text-anchor="middle" x="77" y="-152.5" font-family="Helvetica,sans-Serif" font-size="10.00">MojApp</text>
</a>
</g>
<!-- Node3&#45;&gt;Node2 -->
<g id="edge4" class="edge"><title>Node3&#45;&gt;Node2</title>
<path fill="none" stroke="midnightblue" d="M88.9938,-135.81C97.4309,-122.311 108.409,-104.745 115.333,-93.6674"/>
<polygon fill="midnightblue" stroke="midnightblue" points="85.9719,-134.041 83.6399,-144.376 91.9079,-137.751 85.9719,-134.041"/>
</g>
<!-- Node4 -->
<g id="node6" class="node"><title>Node4</title>
<a xlink:href="classMojNoCopy.htm" target="_top" xlink:title="MojNoCopy">
<polygon fill="white" stroke="black" points="0,-288.5 0,-309.5 72,-309.5 72,-288.5 0,-288.5"/>
<text text-anchor="middle" x="36" y="-296.5" font-family="Helvetica,sans-Serif" font-size="10.00">MojNoCopy</text>
</a>
</g>
<!-- Node4&#45;&gt;Node3 -->
<g id="edge6" class="edge"><title>Node4&#45;&gt;Node3</title>
<path fill="none" stroke="#8b1a1a" d="M32.2364,-277.897C30.4455,-263.57 29.5468,-244.334 34,-228 40.6545,-203.592 57.7779,-179.029 68.2987,-165.537"/>
<polygon fill="#8b1a1a" stroke="#8b1a1a" points="28.8347,-278.814 33.7787,-288.185 35.7574,-277.776 28.8347,-278.814"/>
</g>
<!-- Node6 -->
<g id="node10" class="node"><title>Node6</title>
<a xlink:href="classMojLogger.htm" target="_top" xlink:title="MojLogger">
<polygon fill="white" stroke="black" points="43,-228.5 43,-249.5 111,-249.5 111,-228.5 43,-228.5"/>
<text text-anchor="middle" x="77" y="-236.5" font-family="Helvetica,sans-Serif" font-size="10.00">MojLogger</text>
</a>
</g>
<!-- Node4&#45;&gt;Node6 -->
<g id="edge12" class="edge"><title>Node4&#45;&gt;Node6</title>
<path fill="none" stroke="#8b1a1a" d="M49.1384,-279.773C55.9607,-269.789 64.0374,-257.97 69.7335,-249.634"/>
<polygon fill="#8b1a1a" stroke="#8b1a1a" points="46.0822,-278.042 43.33,-288.273 51.8617,-281.991 46.0822,-278.042"/>
</g>
<!-- Node5 -->
<g id="node8" class="node"><title>Node5</title>
<polygon fill="white" stroke="#bfbfbf" points="129,-228.5 129,-249.5 251,-249.5 251,-228.5 129,-228.5"/>
<text text-anchor="middle" x="190" y="-236.5" font-family="Helvetica,sans-Serif" font-size="10.00">static const MojUInt32</text>
</g>
<!-- Node5&#45;&gt;Node3 -->
<g id="edge8" class="edge"><title>Node5&#45;&gt;Node3</title>
<path fill="none" stroke="#9a32cd" stroke-dasharray="5,2" d="M167.613,-222.358C144.892,-205.469 110.408,-179.834 91.1953,-165.552"/>
<polygon fill="#9a32cd" stroke="#9a32cd" points="165.575,-225.204 175.688,-228.361 169.751,-219.587 165.575,-225.204"/>
<text text-anchor="middle" x="184.5" y="-201" font-family="Helvetica,sans-Serif" font-size="10.00"> MinorVersion</text>
<text text-anchor="middle" x="184.5" y="-188" font-family="Helvetica,sans-Serif" font-size="10.00">MajorVersion</text>
</g>
<!-- Node6&#45;&gt;Node3 -->
<g id="edge10" class="edge"><title>Node6&#45;&gt;Node3</title>
<path fill="none" stroke="#9a32cd" stroke-dasharray="5,2" d="M77,-217.945C77,-201.257 77,-178.639 77,-165.552"/>
<polygon fill="#9a32cd" stroke="#9a32cd" points="73.5001,-218.361 77,-228.361 80.5001,-218.361 73.5001,-218.361"/>
<text text-anchor="middle" x="91.5" y="-194.5" font-family="Helvetica,sans-Serif" font-size="10.00"> s_log</text>
</g>
<!-- Node7 -->
<g id="node13" class="node"><title>Node7</title>
<polygon fill="white" stroke="#bfbfbf" points="121,-144.5 121,-165.5 157,-165.5 157,-144.5 121,-144.5"/>
<text text-anchor="middle" x="139" y="-152.5" font-family="Helvetica,sans-Serif" font-size="10.00">bool</text>
</g>
<!-- Node7&#45;&gt;Node2 -->
<g id="edge14" class="edge"><title>Node7&#45;&gt;Node2</title>
<path fill="none" stroke="#9a32cd" stroke-dasharray="5,2" d="M134.191,-134.632C131.044,-121.303 127.059,-104.425 124.519,-93.6674"/>
<polygon fill="#9a32cd" stroke="#9a32cd" points="130.787,-135.448 136.492,-144.376 137.6,-133.839 130.787,-135.448"/>
<text text-anchor="middle" x="164.5" y="-116.5" font-family="Helvetica,sans-Serif" font-size="10.00"> m_shutdown</text>
</g>
<!-- Node8 -->
<g id="node15" class="node"><title>Node8</title>
<polygon fill="white" stroke="#bfbfbf" points="184,-72.5 184,-93.5 252,-93.5 252,-72.5 184,-72.5"/>
<text text-anchor="middle" x="218" y="-80.5" font-family="Helvetica,sans-Serif" font-size="10.00">REACTOR</text>
</g>
<!-- Node8&#45;&gt;Node1 -->
<g id="edge16" class="edge"><title>Node8&#45;&gt;Node1</title>
<path fill="none" stroke="#9a32cd" stroke-dasharray="5,2" d="M211.211,-62.6318C206.768,-49.3026 201.142,-32.4253 197.556,-21.6674"/>
<polygon fill="#9a32cd" stroke="#9a32cd" points="207.976,-63.9961 214.459,-72.3762 214.617,-61.7825 207.976,-63.9961"/>
<text text-anchor="middle" x="234" y="-44.5" font-family="Helvetica,sans-Serif" font-size="10.00"> m_reactor</text>
</g>
</g>
</svg>
