<?xml version="1.0" encoding="UTF-8" standalone="no"?>
<!DOCTYPE svg PUBLIC "-//W3C//DTD SVG 1.1//EN"
 "http://www.w3.org/Graphics/SVG/1.1/DTD/svg11.dtd">
<!-- Generated by graphviz version 2.26.3 (20100126.1600)
 -->
<!-- Title: MojTime Pages: 1 -->
<svg width="100pt" height="128pt"
 viewBox="0.00 0.00 100.00 128.00" xmlns="http://www.w3.org/2000/svg" xmlns:xlink="http://www.w3.org/1999/xlink">
<g id="graph1" class="graph" transform="scale(1 1) rotate(0) translate(4 124)">
<title>MojTime</title>
<polygon fill="white" stroke="white" points="-4,5 -4,-124 97,-124 97,5 -4,5"/>
<!-- Node1 -->
<g id="node1" class="node"><title>Node1</title>
<polygon fill="#bfbfbf" stroke="black" points="0.5,-0.5 0.5,-21.5 57.5,-21.5 57.5,-0.5 0.5,-0.5"/>
<text text-anchor="middle" x="29" y="-8.5" font-family="Helvetica,sans-Serif" font-size="10.00">MojTime</text>
</g>
<!-- Node2 -->
<g id="node2" class="node"><title>Node2</title>
<polygon fill="white" stroke="#bfbfbf" points="0,-98.5 0,-119.5 58,-119.5 58,-98.5 0,-98.5"/>
<text text-anchor="middle" x="29" y="-106.5" font-family="Helvetica,sans-Serif" font-size="10.00">MojInt64</text>
</g>
<!-- Node2&#45;&gt;Node1 -->
<g id="edge2" class="edge"><title>Node2&#45;&gt;Node1</title>
<path fill="none" stroke="#9a32cd" stroke-dasharray="5,2" d="M29,-87.9567C29,-67.5572 29,-37.4427 29,-21.6129"/>
<polygon fill="#9a32cd" stroke="#9a32cd" points="25.5001,-88.1378 29,-98.1378 32.5001,-88.1379 25.5001,-88.1378"/>
<text text-anchor="middle" x="60.5" y="-70.5" font-family="Helvetica,sans-Serif" font-size="10.00"> UnitsPerDay</text>
<text text-anchor="middle" x="60.5" y="-57.5" font-family="Helvetica,sans-Serif" font-size="10.00">UnitsPerMilli</text>
<text text-anchor="middle" x="60.5" y="-44.5" font-family="Helvetica,sans-Serif" font-size="10.00">UnitsPerSec</text>
</g>
</g>
</svg>
