<?xml version="1.0" encoding="UTF-8" standalone="no"?>
<!DOCTYPE svg PUBLIC "-//W3C//DTD SVG 1.1//EN"
 "http://www.w3.org/Graphics/SVG/1.1/DTD/svg11.dtd">
<!-- Generated by graphviz version 2.26.3 (20100126.1600)
 -->
<!-- Title: MojSignal&lt; TARG1, TARG2, TARG3 &gt; Pages: 1 -->
<svg width="1002pt" height="155pt"
 viewBox="0.00 0.00 1002.00 155.49" xmlns="http://www.w3.org/2000/svg" xmlns:xlink="http://www.w3.org/1999/xlink">
<g id="graph1" class="graph" transform="scale(1 1) rotate(0) translate(4 151.488)">
<title>MojSignal&lt; TARG1, TARG2, TARG3 &gt;</title>
<polygon fill="white" stroke="white" points="-4,5 -4,-151.488 999,-151.488 999,5 -4,5"/>
<!-- Node1 -->
<g id="node1" class="node"><title>Node1</title>
<polygon fill="#bfbfbf" stroke="black" points="844,-65 844,-99 994,-99 994,-65 844,-65"/>
<text text-anchor="start" x="852" y="-86" font-family="Helvetica,sans-Serif" font-size="10.00">MojSignal&lt; TARG1, TARG2,</text>
<text text-anchor="middle" x="919" y="-73" font-family="Helvetica,sans-Serif" font-size="10.00"> TARG3 &gt;</text>
</g>
<!-- Node2 -->
<g id="node2" class="node"><title>Node2</title>
<a xlink:href="classMojSignal3.htm" target="_top" xlink:title="MojSignal3\&lt; TARG1,\l TARG2, TARG3 \&gt;">
<polygon fill="white" stroke="black" points="690,-65 690,-99 806,-99 806,-65 690,-65"/>
<text text-anchor="start" x="698" y="-86" font-family="Helvetica,sans-Serif" font-size="10.00">MojSignal3&lt; TARG1,</text>
<text text-anchor="middle" x="748" y="-73" font-family="Helvetica,sans-Serif" font-size="10.00"> TARG2, TARG3 &gt;</text>
</a>
</g>
<!-- Node2&#45;&gt;Node1 -->
<g id="edge2" class="edge"><title>Node2&#45;&gt;Node1</title>
<path fill="none" stroke="midnightblue" d="M816.45,-82C825.497,-82 834.81,-82 843.961,-82"/>
<polygon fill="midnightblue" stroke="midnightblue" points="816.37,-78.5001 806.37,-82 816.37,-85.5001 816.37,-78.5001"/>
</g>
<!-- Node3 -->
<g id="node4" class="node"><title>Node3</title>
<a xlink:href="classMojSignalBase.htm" target="_top" xlink:title="MojSignalBase">
<polygon fill="white" stroke="black" points="564.5,-71.5 564.5,-92.5 651.5,-92.5 651.5,-71.5 564.5,-71.5"/>
<text text-anchor="middle" x="608" y="-79.5" font-family="Helvetica,sans-Serif" font-size="10.00">MojSignalBase</text>
</a>
</g>
<!-- Node3&#45;&gt;Node2 -->
<g id="edge4" class="edge"><title>Node3&#45;&gt;Node2</title>
<path fill="none" stroke="midnightblue" d="M661.714,-82C670.917,-82 680.517,-82 689.829,-82"/>
<polygon fill="midnightblue" stroke="midnightblue" points="661.529,-78.5001 651.529,-82 661.529,-85.5001 661.529,-78.5001"/>
</g>
<!-- Node4 -->
<g id="node6" class="node"><title>Node4</title>
<a xlink:href="classMojNoCopy.htm" target="_top" xlink:title="MojNoCopy">
<polygon fill="white" stroke="black" points="0,-70.5 0,-91.5 72,-91.5 72,-70.5 0,-70.5"/>
<text text-anchor="middle" x="36" y="-78.5" font-family="Helvetica,sans-Serif" font-size="10.00">MojNoCopy</text>
</a>
</g>
<!-- Node4&#45;&gt;Node3 -->
<g id="edge6" class="edge"><title>Node4&#45;&gt;Node3</title>
<path fill="none" stroke="#8b1a1a" d="M56.9327,-97.6167C71.0332,-107.712 90.5457,-119.653 110,-125 265.993,-167.873 312.773,-138.344 474,-125 506.331,-122.324 515.149,-123.032 546,-113 561.679,-107.901 578.333,-99.3818 590.428,-92.5629"/>
<polygon fill="#8b1a1a" stroke="#8b1a1a" points="59.0147,-94.8033 48.9015,-91.6452 54.838,-100.421 59.0147,-94.8033"/>
</g>
<!-- Node6 -->
<g id="node10" class="node"><title>Node6</title>
<a xlink:href="classMojRefCounted.htm" target="_top" xlink:title="MojRefCounted">
<polygon fill="white" stroke="black" points="110,-94.5 110,-115.5 200,-115.5 200,-94.5 110,-94.5"/>
<text text-anchor="middle" x="155" y="-102.5" font-family="Helvetica,sans-Serif" font-size="10.00">MojRefCounted</text>
</a>
</g>
<!-- Node4&#45;&gt;Node6 -->
<g id="edge12" class="edge"><title>Node4&#45;&gt;Node6</title>
<path fill="none" stroke="#8b1a1a" d="M82.077,-90.2928C91.1885,-92.1304 100.743,-94.0574 109.824,-95.8889"/>
<polygon fill="#8b1a1a" stroke="#8b1a1a" points="82.5215,-86.8121 72.0269,-88.2659 81.1375,-93.6739 82.5215,-86.8121"/>
</g>
<!-- Node7 -->
<g id="node13" class="node"><title>Node7</title>
<a xlink:href="classMojThreadMutex.htm" target="_top" xlink:title="MojThreadMutex">
<polygon fill="white" stroke="black" points="237.5,-53.5 237.5,-74.5 334.5,-74.5 334.5,-53.5 237.5,-53.5"/>
<text text-anchor="middle" x="286" y="-61.5" font-family="Helvetica,sans-Serif" font-size="10.00">MojThreadMutex</text>
</a>
</g>
<!-- Node4&#45;&gt;Node7 -->
<g id="edge16" class="edge"><title>Node4&#45;&gt;Node7</title>
<path fill="none" stroke="#8b1a1a" d="M82.2506,-77.855C126.382,-74.8541 192.606,-70.3508 237.477,-67.2996"/>
<polygon fill="#8b1a1a" stroke="#8b1a1a" points="81.8246,-74.3757 72.0852,-78.5462 82.2996,-81.3596 81.8246,-74.3757"/>
</g>
<!-- Node8 -->
<g id="node16" class="node"><title>Node8</title>
<a xlink:href="classMojList.htm" target="_top" xlink:title="MojList\&lt; MojSlotBase,\l&amp;MojSlotBase::m_entry \&gt;">
<polygon fill="white" stroke="black" points="218.5,-0 218.5,-34 353.5,-34 353.5,-0 218.5,-0"/>
<text text-anchor="start" x="226.5" y="-21" font-family="Helvetica,sans-Serif" font-size="10.00">MojList&lt; MojSlotBase,</text>
<text text-anchor="middle" x="286" y="-8" font-family="Helvetica,sans-Serif" font-size="10.00">&amp;MojSlotBase::m_entry &gt;</text>
</a>
</g>
<!-- Node4&#45;&gt;Node8 -->
<g id="edge20" class="edge"><title>Node4&#45;&gt;Node8</title>
<path fill="none" stroke="#8b1a1a" d="M81.9837,-69.2282C120.5,-59.368 175.981,-45.1648 219.366,-34.0582"/>
<polygon fill="#8b1a1a" stroke="#8b1a1a" points="80.9047,-65.8914 72.0852,-71.7622 82.6408,-72.6728 80.9047,-65.8914"/>
</g>
<!-- Node5 -->
<g id="node8" class="node"><title>Node5</title>
<a xlink:href="classMojSignalHandler.htm" target="_top" xlink:title="MojSignalHandler">
<polygon fill="white" stroke="black" points="372.5,-94.5 372.5,-115.5 473.5,-115.5 473.5,-94.5 372.5,-94.5"/>
<text text-anchor="middle" x="423" y="-102.5" font-family="Helvetica,sans-Serif" font-size="10.00">MojSignalHandler</text>
</a>
</g>
<!-- Node5&#45;&gt;Node3 -->
<g id="edge8" class="edge"><title>Node5&#45;&gt;Node3</title>
<path fill="none" stroke="#9a32cd" stroke-dasharray="5,2" d="M483.81,-97.4399C510.145,-94.1657 540.379,-90.407 564.421,-87.4179"/>
<polygon fill="#9a32cd" stroke="#9a32cd" points="483.044,-94.0081 473.552,-98.7151 483.908,-100.955 483.044,-94.0081"/>
<text text-anchor="middle" x="519" y="-100" font-family="Helvetica,sans-Serif" font-size="10.00"> m_handler</text>
</g>
<!-- Node6&#45;&gt;Node5 -->
<g id="edge10" class="edge"><title>Node6&#45;&gt;Node5</title>
<path fill="none" stroke="midnightblue" d="M210.283,-105C257.855,-105 325.932,-105 372.165,-105"/>
<polygon fill="midnightblue" stroke="midnightblue" points="210.16,-101.5 200.159,-105 210.159,-108.5 210.16,-101.5"/>
</g>
<!-- Node7&#45;&gt;Node3 -->
<g id="edge14" class="edge"><title>Node7&#45;&gt;Node3</title>
<path fill="none" stroke="#9a32cd" stroke-dasharray="5,2" d="M344.842,-66.0207C381.916,-67.4136 430.776,-69.4681 474,-72 504.159,-73.7666 538.095,-76.3048 564.27,-78.3819"/>
<polygon fill="#9a32cd" stroke="#9a32cd" points="344.835,-62.5181 334.713,-65.6456 344.576,-69.5133 344.835,-62.5181"/>
<text text-anchor="middle" x="423" y="-76" font-family="Helvetica,sans-Serif" font-size="10.00"> m_mutex</text>
</g>
<!-- Node8&#45;&gt;Node3 -->
<g id="edge18" class="edge"><title>Node8&#45;&gt;Node3</title>
<path fill="none" stroke="#9a32cd" stroke-dasharray="5,2" d="M363.497,-29.5159C397.494,-35.2867 437.82,-42.5118 474,-50 505.268,-56.4715 540.365,-64.8957 566.795,-71.4761"/>
<polygon fill="#9a32cd" stroke="#9a32cd" points="364.067,-26.0627 353.624,-27.8506 362.903,-32.9652 364.067,-26.0627"/>
<text text-anchor="middle" x="423" y="-54" font-family="Helvetica,sans-Serif" font-size="10.00"> m_slots</text>
</g>
</g>
</svg>
