<?xml version="1.0" encoding="UTF-8" standalone="no"?>
<!DOCTYPE svg PUBLIC "-//W3C//DTD SVG 1.1//EN"
 "http://www.w3.org/Graphics/SVG/1.1/DTD/svg11.dtd">
<!-- Generated by graphviz version 2.26.3 (20100126.1600)
 -->
<!-- Title: MojDbInnoItem Pages: 1 -->
<svg width="112pt" height="204pt"
 viewBox="0.00 0.00 112.00 204.00" xmlns="http://www.w3.org/2000/svg" xmlns:xlink="http://www.w3.org/1999/xlink">
<g id="graph1" class="graph" transform="scale(1 1) rotate(0) translate(4 200)">
<title>MojDbInnoItem</title>
<polygon fill="white" stroke="white" points="-4,5 -4,-200 109,-200 109,5 -4,5"/>
<!-- Node1 -->
<g id="node1" class="node"><title>Node1</title>
<polygon fill="#bfbfbf" stroke="black" points="8,-0.5 8,-21.5 96,-21.5 96,-0.5 8,-0.5"/>
<text text-anchor="middle" x="52" y="-8.5" font-family="Helvetica,sans-Serif" font-size="10.00">MojDbInnoItem</text>
</g>
<!-- Node2 -->
<g id="node2" class="node"><title>Node2</title>
<a xlink:href="classMojDbStorageItem.htm" target="_top" xlink:title="MojDbStorageItem">
<polygon fill="white" stroke="black" points="0,-58.5 0,-79.5 104,-79.5 104,-58.5 0,-58.5"/>
<text text-anchor="middle" x="52" y="-66.5" font-family="Helvetica,sans-Serif" font-size="10.00">MojDbStorageItem</text>
</a>
</g>
<!-- Node2&#45;&gt;Node1 -->
<g id="edge2" class="edge"><title>Node2&#45;&gt;Node1</title>
<path fill="none" stroke="midnightblue" d="M52,-48.1906C52,-39.1684 52,-28.9941 52,-21.5707"/>
<polygon fill="midnightblue" stroke="midnightblue" points="48.5001,-48.3619 52,-58.3619 55.5001,-48.3619 48.5001,-48.3619"/>
</g>
<!-- Node3 -->
<g id="node4" class="node"><title>Node3</title>
<a xlink:href="classMojRefCounted.htm" target="_top" xlink:title="MojRefCounted">
<polygon fill="white" stroke="black" points="7,-116.5 7,-137.5 97,-137.5 97,-116.5 7,-116.5"/>
<text text-anchor="middle" x="52" y="-124.5" font-family="Helvetica,sans-Serif" font-size="10.00">MojRefCounted</text>
</a>
</g>
<!-- Node3&#45;&gt;Node2 -->
<g id="edge4" class="edge"><title>Node3&#45;&gt;Node2</title>
<path fill="none" stroke="midnightblue" d="M52,-106.191C52,-97.1684 52,-86.9941 52,-79.5707"/>
<polygon fill="midnightblue" stroke="midnightblue" points="48.5001,-106.362 52,-116.362 55.5001,-106.362 48.5001,-106.362"/>
</g>
<!-- Node4 -->
<g id="node6" class="node"><title>Node4</title>
<a xlink:href="classMojNoCopy.htm" target="_top" xlink:title="MojNoCopy">
<polygon fill="white" stroke="black" points="16,-174.5 16,-195.5 88,-195.5 88,-174.5 16,-174.5"/>
<text text-anchor="middle" x="52" y="-182.5" font-family="Helvetica,sans-Serif" font-size="10.00">MojNoCopy</text>
</a>
</g>
<!-- Node4&#45;&gt;Node3 -->
<g id="edge6" class="edge"><title>Node4&#45;&gt;Node3</title>
<path fill="none" stroke="#8b1a1a" d="M52,-164.191C52,-155.168 52,-144.994 52,-137.571"/>
<polygon fill="#8b1a1a" stroke="#8b1a1a" points="48.5001,-164.362 52,-174.362 55.5001,-164.362 48.5001,-164.362"/>
</g>
</g>
</svg>
