<?xml version="1.0" encoding="UTF-8" standalone="no"?>
<!DOCTYPE svg PUBLIC "-//W3C//DTD SVG 1.1//EN"
 "http://www.w3.org/Graphics/SVG/1.1/DTD/svg11.dtd">
<!-- Generated by graphviz version 2.26.3 (20100126.1600)
 -->
<!-- Title: MojDbServiceHandlerInternal Pages: 1 -->
<svg width="717pt" height="600pt"
 viewBox="0.00 0.00 717.45 600.00" xmlns="http://www.w3.org/2000/svg" xmlns:xlink="http://www.w3.org/1999/xlink">
<g id="graph1" class="graph" transform="scale(1 1) rotate(0) translate(4 596)">
<title>MojDbServiceHandlerInternal</title>
<polygon fill="white" stroke="white" points="-4,5 -4,-596 714.448,-596 714.448,5 -4,5"/>
<!-- Node1 -->
<g id="node1" class="node"><title>Node1</title>
<polygon fill="#bfbfbf" stroke="black" points="7.94764,-0.5 7.94764,-21.5 162.948,-21.5 162.948,-0.5 7.94764,-0.5"/>
<text text-anchor="middle" x="85.4476" y="-8.5" font-family="Helvetica,sans-Serif" font-size="10.00">MojDbServiceHandlerInternal</text>
</g>
<!-- Node2 -->
<g id="node2" class="node"><title>Node2</title>
<a xlink:href="classMojDbServiceHandlerBase.htm" target="_top" xlink:title="MojDbServiceHandlerBase">
<polygon fill="white" stroke="black" points="192.948,-60.5 192.948,-81.5 335.948,-81.5 335.948,-60.5 192.948,-60.5"/>
<text text-anchor="middle" x="264.448" y="-68.5" font-family="Helvetica,sans-Serif" font-size="10.00">MojDbServiceHandlerBase</text>
</a>
</g>
<!-- Node2&#45;&gt;Node1 -->
<g id="edge2" class="edge"><title>Node2&#45;&gt;Node1</title>
<path fill="none" stroke="midnightblue" d="M223.239,-57.1872C190.909,-46.3502 146.578,-31.4905 117.022,-21.5836"/>
<polygon fill="midnightblue" stroke="midnightblue" points="222.264,-60.5516 232.858,-60.4113 224.489,-53.9146 222.264,-60.5516"/>
</g>
<!-- Node3 -->
<g id="node4" class="node"><title>Node3</title>
<a xlink:href="classMojService_1_1CategoryHandler.htm" target="_top" xlink:title="MojService::CategoryHandler">
<polygon fill="white" stroke="black" points="454.948,-232.5 454.948,-253.5 609.948,-253.5 609.948,-232.5 454.948,-232.5"/>
<text text-anchor="middle" x="532.448" y="-240.5" font-family="Helvetica,sans-Serif" font-size="10.00">MojService::CategoryHandler</text>
</a>
</g>
<!-- Node3&#45;&gt;Node2 -->
<g id="edge4" class="edge"><title>Node3&#45;&gt;Node2</title>
<path fill="none" stroke="midnightblue" d="M525.661,-222.598C513.934,-190.766 486.686,-129.848 441.448,-100 424.228,-88.6388 377.418,-81.2695 336.26,-76.8034"/>
<polygon fill="midnightblue" stroke="midnightblue" points="522.418,-223.926 529.047,-232.191 529.019,-221.596 522.418,-223.926"/>
</g>
<!-- Node4 -->
<g id="node6" class="node"><title>Node4</title>
<a xlink:href="classMojSignalHandler.htm" target="_top" xlink:title="MojSignalHandler">
<polygon fill="white" stroke="black" points="608.948,-417.5 608.948,-438.5 709.948,-438.5 709.948,-417.5 608.948,-417.5"/>
<text text-anchor="middle" x="659.448" y="-425.5" font-family="Helvetica,sans-Serif" font-size="10.00">MojSignalHandler</text>
</a>
</g>
<!-- Node4&#45;&gt;Node3 -->
<g id="edge6" class="edge"><title>Node4&#45;&gt;Node3</title>
<path fill="none" stroke="midnightblue" d="M655.871,-407.215C650.159,-379.043 636.723,-328.324 609.448,-294 595.183,-276.049 572.828,-262.239 555.873,-253.545"/>
<polygon fill="midnightblue" stroke="midnightblue" points="652.453,-407.976 657.752,-417.15 659.331,-406.674 652.453,-407.976"/>
</g>
<!-- Node5 -->
<g id="node8" class="node"><title>Node5</title>
<a xlink:href="classMojRefCounted.htm" target="_top" xlink:title="MojRefCounted">
<polygon fill="white" stroke="black" points="590.448,-510.5 590.448,-531.5 680.448,-531.5 680.448,-510.5 590.448,-510.5"/>
<text text-anchor="middle" x="635.448" y="-518.5" font-family="Helvetica,sans-Serif" font-size="10.00">MojRefCounted</text>
</a>
</g>
<!-- Node5&#45;&gt;Node4 -->
<g id="edge8" class="edge"><title>Node5&#45;&gt;Node4</title>
<path fill="none" stroke="midnightblue" d="M640.745,-500.472C645.685,-481.329 652.857,-453.54 656.727,-438.544"/>
<polygon fill="midnightblue" stroke="midnightblue" points="637.311,-499.774 638.201,-510.332 644.089,-501.524 637.311,-499.774"/>
</g>
<!-- Node6 -->
<g id="node10" class="node"><title>Node6</title>
<a xlink:href="classMojNoCopy.htm" target="_top" xlink:title="MojNoCopy">
<polygon fill="white" stroke="black" points="250.448,-570.5 250.448,-591.5 322.448,-591.5 322.448,-570.5 250.448,-570.5"/>
<text text-anchor="middle" x="286.448" y="-578.5" font-family="Helvetica,sans-Serif" font-size="10.00">MojNoCopy</text>
</a>
</g>
<!-- Node6&#45;&gt;Node5 -->
<g id="edge10" class="edge"><title>Node6&#45;&gt;Node5</title>
<path fill="none" stroke="#8b1a1a" d="M332.797,-573.182C389.549,-563.587 488.594,-546.771 573.448,-532 578.94,-531.044 584.705,-530.032 590.416,-529.025"/>
<polygon fill="#8b1a1a" stroke="#8b1a1a" points="331.982,-569.77 322.705,-574.887 333.149,-576.672 331.982,-569.77"/>
</g>
<!-- Node9 -->
<g id="node16" class="node"><title>Node9</title>
<a xlink:href="classMojDb.htm" target="_top" xlink:title="MojDb">
<polygon fill="white" stroke="black" points="147.948,-232.5 147.948,-253.5 194.948,-253.5 194.948,-232.5 147.948,-232.5"/>
<text text-anchor="middle" x="171.448" y="-240.5" font-family="Helvetica,sans-Serif" font-size="10.00">MojDb</text>
</a>
</g>
<!-- Node6&#45;&gt;Node9 -->
<g id="edge18" class="edge"><title>Node6&#45;&gt;Node9</title>
<path fill="none" stroke="#8b1a1a" d="M267.943,-563.3C244.605,-539.952 204.83,-496.579 182.448,-452 148.048,-383.484 162.881,-285.931 169.159,-253.752"/>
<polygon fill="#8b1a1a" stroke="#8b1a1a" points="265.597,-565.901 275.178,-570.423 270.508,-560.913 265.597,-565.901"/>
</g>
<!-- Node12 -->
<g id="node23" class="node"><title>Node12</title>
<a xlink:href="classMojLogger.htm" target="_top" xlink:title="MojLogger">
<polygon fill="white" stroke="black" points="191.448,-417.5 191.448,-438.5 259.448,-438.5 259.448,-417.5 191.448,-417.5"/>
<text text-anchor="middle" x="225.448" y="-425.5" font-family="Helvetica,sans-Serif" font-size="10.00">MojLogger</text>
</a>
</g>
<!-- Node6&#45;&gt;Node12 -->
<g id="edge26" class="edge"><title>Node6&#45;&gt;Node12</title>
<path fill="none" stroke="#8b1a1a" d="M278.479,-561.012C265.382,-528.164 239.755,-463.887 229.67,-438.59"/>
<polygon fill="#8b1a1a" stroke="#8b1a1a" points="275.3,-562.491 282.255,-570.484 281.802,-559.899 275.3,-562.491"/>
</g>
<!-- Node13 -->
<g id="node28" class="node"><title>Node13</title>
<a xlink:href="classMojReactor.htm" target="_top" xlink:title="MojReactor">
<polygon fill="white" stroke="black" points="315.948,-470.5 315.948,-491.5 386.948,-491.5 386.948,-470.5 315.948,-470.5"/>
<text text-anchor="middle" x="351.448" y="-478.5" font-family="Helvetica,sans-Serif" font-size="10.00">MojReactor</text>
</a>
</g>
<!-- Node6&#45;&gt;Node13 -->
<g id="edge34" class="edge"><title>Node6&#45;&gt;Node13</title>
<path fill="none" stroke="#8b1a1a" d="M298.863,-561.899C312.43,-541.028 333.675,-508.342 344.542,-491.625"/>
<polygon fill="#8b1a1a" stroke="#8b1a1a" points="295.919,-560.006 293.404,-570.298 301.788,-563.821 295.919,-560.006"/>
</g>
<!-- Node7 -->
<g id="node12" class="node"><title>Node7</title>
<a xlink:href="classMojHashMap.htm" target="_top" xlink:title="MojHashMap\&lt; MojString,\l CallbackInfo, const\l MojChar * \&gt;">
<polygon fill="white" stroke="black" points="455.448,-404.5 455.448,-451.5 591.448,-451.5 591.448,-404.5 455.448,-404.5"/>
<text text-anchor="start" x="463.448" y="-438.5" font-family="Helvetica,sans-Serif" font-size="10.00">MojHashMap&lt; MojString,</text>
<text text-anchor="start" x="463.448" y="-425.5" font-family="Helvetica,sans-Serif" font-size="10.00"> CallbackInfo, const</text>
<text text-anchor="middle" x="523.448" y="-412.5" font-family="Helvetica,sans-Serif" font-size="10.00"> MojChar * &gt;</text>
</a>
</g>
<!-- Node7&#45;&gt;Node3 -->
<g id="edge12" class="edge"><title>Node7&#45;&gt;Node3</title>
<path fill="none" stroke="#9a32cd" stroke-dasharray="5,2" d="M525.103,-393.982C527.181,-351.252 530.633,-280.294 531.932,-253.594"/>
<polygon fill="#9a32cd" stroke="#9a32cd" points="521.596,-394.035 524.606,-404.193 528.588,-394.375 521.596,-394.035"/>
<text text-anchor="middle" x="567.448" y="-337.5" font-family="Helvetica,sans-Serif" font-size="10.00"> m_callbackMap</text>
</g>
<!-- Node8 -->
<g id="node14" class="node"><title>Node8</title>
<a xlink:href="classMojHashBase.htm" target="_top" xlink:title="MojHashBase">
<polygon fill="white" stroke="black" points="481.948,-510.5 481.948,-531.5 564.948,-531.5 564.948,-510.5 481.948,-510.5"/>
<text text-anchor="middle" x="523.448" y="-518.5" font-family="Helvetica,sans-Serif" font-size="10.00">MojHashBase</text>
</a>
</g>
<!-- Node8&#45;&gt;Node7 -->
<g id="edge14" class="edge"><title>Node8&#45;&gt;Node7</title>
<path fill="none" stroke="#8b1a1a" d="M523.448,-499.99C523.448,-485.629 523.448,-466.573 523.448,-451.675"/>
<polygon fill="#8b1a1a" stroke="#8b1a1a" points="519.948,-500.332 523.448,-510.332 526.948,-500.332 519.948,-500.332"/>
</g>
<!-- Node9&#45;&gt;Node2 -->
<g id="edge16" class="edge"><title>Node9&#45;&gt;Node2</title>
<path fill="none" stroke="#9a32cd" stroke-dasharray="5,2" d="M167.542,-222.06C163.147,-191.775 159.841,-135.496 187.448,-100 193.849,-91.7686 202.861,-85.8735 212.474,-81.6517"/>
<polygon fill="#9a32cd" stroke="#9a32cd" points="164.148,-222.994 169.218,-232.297 171.056,-221.863 164.148,-222.994"/>
<text text-anchor="middle" x="201.948" y="-143.5" font-family="Helvetica,sans-Serif" font-size="10.00"> m_db</text>
</g>
<!-- Node10 -->
<g id="node19" class="node"><title>Node10</title>
<polygon fill="white" stroke="#bfbfbf" points="29.4476,-417.5 29.4476,-438.5 67.4476,-438.5 67.4476,-417.5 29.4476,-417.5"/>
<text text-anchor="middle" x="48.4476" y="-425.5" font-family="Helvetica,sans-Serif" font-size="10.00">char</text>
</g>
<!-- Node10&#45;&gt;Node1 -->
<g id="edge36" class="edge"><title>Node10&#45;&gt;Node1</title>
<path fill="none" stroke="#9a32cd" stroke-dasharray="5,2" d="M40.6997,-407.964C21.6735,-355.656 -23.083,-211.315 15.4476,-100 26.8932,-66.9337 56.2645,-36.8223 73.1,-21.5429"/>
<polygon fill="#9a32cd" stroke="#9a32cd" points="37.4545,-409.279 44.2301,-417.424 44.0127,-406.832 37.4545,-409.279"/>
<text text-anchor="middle" x="88.4476" y="-182.5" font-family="Helvetica,sans-Serif" font-size="10.00"> PreRestoreMethod</text>
<text text-anchor="middle" x="88.4476" y="-169.5" font-family="Helvetica,sans-Serif" font-size="10.00">PreBackupMethod</text>
<text text-anchor="middle" x="88.4476" y="-156.5" font-family="Helvetica,sans-Serif" font-size="10.00">ScheduledPurgeMethod</text>
<text text-anchor="middle" x="88.4476" y="-143.5" font-family="Helvetica,sans-Serif" font-size="10.00">PostRestoreMethod</text>
<text text-anchor="middle" x="88.4476" y="-130.5" font-family="Helvetica,sans-Serif" font-size="10.00">PostBackupMethod</text>
<text text-anchor="middle" x="88.4476" y="-117.5" font-family="Helvetica,sans-Serif" font-size="10.00">ScheduledSpaceCheckMethod</text>
<text text-anchor="middle" x="88.4476" y="-104.5" font-family="Helvetica,sans-Serif" font-size="10.00">SpaceCheckMethod</text>
</g>
<!-- Node10&#45;&gt;Node9 -->
<g id="edge20" class="edge"><title>Node10&#45;&gt;Node9</title>
<path fill="none" stroke="#9a32cd" stroke-dasharray="5,2" d="M48.2175,-407.071C48.945,-378.691 54.0539,-327.684 79.4476,-294 96.4876,-271.397 126.62,-257.469 147.744,-249.997"/>
<polygon fill="#9a32cd" stroke="#9a32cd" points="44.7147,-407.378 48.1246,-417.409 51.7144,-407.441 44.7147,-407.378"/>
<text text-anchor="middle" x="108.448" y="-376.5" font-family="Helvetica,sans-Serif" font-size="10.00"> IdKey</text>
<text text-anchor="middle" x="108.448" y="-363.5" font-family="Helvetica,sans-Serif" font-size="10.00">DelKey</text>
<text text-anchor="middle" x="108.448" y="-350.5" font-family="Helvetica,sans-Serif" font-size="10.00">SyncKey</text>
<text text-anchor="middle" x="108.448" y="-337.5" font-family="Helvetica,sans-Serif" font-size="10.00">IgnoreIdKey</text>
<text text-anchor="middle" x="108.448" y="-324.5" font-family="Helvetica,sans-Serif" font-size="10.00">RevKey</text>
<text text-anchor="middle" x="108.448" y="-311.5" font-family="Helvetica,sans-Serif" font-size="10.00">KindKey</text>
<text text-anchor="middle" x="108.448" y="-298.5" font-family="Helvetica,sans-Serif" font-size="10.00">ConfKey</text>
</g>
<!-- Node11 -->
<g id="node21" class="node"><title>Node11</title>
<polygon fill="white" stroke="#bfbfbf" points="277.448,-417.5 277.448,-438.5 399.448,-438.5 399.448,-417.5 277.448,-417.5"/>
<text text-anchor="middle" x="338.448" y="-425.5" font-family="Helvetica,sans-Serif" font-size="10.00">static const MojUInt32</text>
</g>
<!-- Node11&#45;&gt;Node2 -->
<g id="edge28" class="edge"><title>Node11&#45;&gt;Node2</title>
<path fill="none" stroke="#9a32cd" stroke-dasharray="5,2" d="M347.088,-407.796C357.542,-379.945 371.211,-329.213 349.448,-294 340.043,-278.783 324.569,-290.012 313.448,-276 307.192,-268.118 275.5,-122.385 266.711,-81.5541"/>
<polygon fill="#9a32cd" stroke="#9a32cd" points="343.764,-406.684 343.32,-417.27 350.268,-409.272 343.764,-406.684"/>
<text text-anchor="middle" x="363.448" y="-266.5" font-family="Helvetica,sans-Serif" font-size="10.00"> DeadlockSleepMillis</text>
<text text-anchor="middle" x="363.448" y="-253.5" font-family="Helvetica,sans-Serif" font-size="10.00">MaxIndexlockRetries</text>
<text text-anchor="middle" x="363.448" y="-240.5" font-family="Helvetica,sans-Serif" font-size="10.00">MaxDeadlockRetries</text>
<text text-anchor="middle" x="363.448" y="-227.5" font-family="Helvetica,sans-Serif" font-size="10.00">MinIndexlockRetries</text>
<text text-anchor="middle" x="363.448" y="-214.5" font-family="Helvetica,sans-Serif" font-size="10.00">MaxBatchRetries</text>
</g>
<!-- Node11&#45;&gt;Node9 -->
<g id="edge22" class="edge"><title>Node11&#45;&gt;Node9</title>
<path fill="none" stroke="#9a32cd" stroke-dasharray="5,2" d="M300.944,-413.069C287.536,-406.336 273.119,-397.318 262.448,-386 231.354,-353.023 243.866,-331.526 218.448,-294 208.049,-278.648 193.153,-263.31 182.933,-253.526"/>
<polygon fill="#9a32cd" stroke="#9a32cd" points="299.472,-416.244 310.008,-417.365 302.471,-409.919 299.472,-416.244"/>
<text text-anchor="middle" x="305.948" y="-344" font-family="Helvetica,sans-Serif" font-size="10.00"> AutoCompactSize</text>
<text text-anchor="middle" x="305.948" y="-331" font-family="Helvetica,sans-Serif" font-size="10.00">AutoBatchSize</text>
</g>
<!-- Node12&#45;&gt;Node2 -->
<g id="edge30" class="edge"><title>Node12&#45;&gt;Node2</title>
<path fill="none" stroke="#9a32cd" stroke-dasharray="5,2" d="M227.593,-407.029C231.585,-368.16 240.473,-282.301 248.448,-210 253.721,-162.193 260.408,-105.187 263.168,-81.81"/>
<polygon fill="#9a32cd" stroke="#9a32cd" points="224.098,-406.803 226.56,-417.108 231.062,-407.517 224.098,-406.803"/>
<text text-anchor="middle" x="262.948" y="-240.5" font-family="Helvetica,sans-Serif" font-size="10.00"> s_log</text>
</g>
<!-- Node12&#45;&gt;Node9 -->
<g id="edge24" class="edge"><title>Node12&#45;&gt;Node9</title>
<path fill="none" stroke="#9a32cd" stroke-dasharray="5,2" d="M203.633,-410.393C196.642,-403.546 189.634,-395.144 185.448,-386 164.578,-340.41 167.85,-278.255 170.219,-253.653"/>
<polygon fill="#9a32cd" stroke="#9a32cd" points="201.328,-413.028 211.078,-417.174 206.041,-407.853 201.328,-413.028"/>
<text text-anchor="middle" x="199.948" y="-337.5" font-family="Helvetica,sans-Serif" font-size="10.00"> s_log</text>
</g>
<!-- Node13&#45;&gt;Node2 -->
<g id="edge32" class="edge"><title>Node13&#45;&gt;Node2</title>
<path fill="none" stroke="#9a32cd" stroke-dasharray="5,2" d="M395.067,-465.385C400.344,-461.766 405.057,-457.356 408.448,-452 465.981,-361.099 456.335,-308.66 413.448,-210 386.581,-148.194 317.191,-101.402 283.442,-81.504"/>
<polygon fill="#9a32cd" stroke="#9a32cd" points="393.284,-462.373 386.419,-470.443 396.818,-468.415 393.284,-462.373"/>
<text text-anchor="middle" x="474.448" y="-337.5" font-family="Helvetica,sans-Serif" font-size="10.00"> m_reactor</text>
</g>
</g>
</svg>
