<?xml version="1.0" encoding="UTF-8" standalone="no"?>
<!DOCTYPE svg PUBLIC "-//W3C//DTD SVG 1.1//EN"
 "http://www.w3.org/Graphics/SVG/1.1/DTD/svg11.dtd">
<!-- Generated by graphviz version 2.26.3 (20100126.1600)
 -->
<!-- Title: MojDbStorageQuery Pages: 1 -->
<svg width="364pt" height="162pt"
 viewBox="0.00 0.00 364.00 162.00" xmlns="http://www.w3.org/2000/svg" xmlns:xlink="http://www.w3.org/1999/xlink">
<g id="graph1" class="graph" transform="scale(1 1) rotate(0) translate(4 158)">
<title>MojDbStorageQuery</title>
<polygon fill="white" stroke="white" points="-4,5 -4,-158 361,-158 361,5 -4,5"/>
<!-- Node1 -->
<g id="node1" class="node"><title>Node1</title>
<polygon fill="#bfbfbf" stroke="black" points="108.5,-0.5 108.5,-21.5 221.5,-21.5 221.5,-0.5 108.5,-0.5"/>
<text text-anchor="middle" x="165" y="-8.5" font-family="Helvetica,sans-Serif" font-size="10.00">MojDbStorageQuery</text>
</g>
<!-- Node2 -->
<g id="node2" class="node"><title>Node2</title>
<a xlink:href="classMojRefCounted.htm" target="_top" xlink:title="MojRefCounted">
<polygon fill="white" stroke="black" points="0,-72.5 0,-93.5 90,-93.5 90,-72.5 0,-72.5"/>
<text text-anchor="middle" x="45" y="-80.5" font-family="Helvetica,sans-Serif" font-size="10.00">MojRefCounted</text>
</a>
</g>
<!-- Node2&#45;&gt;Node1 -->
<g id="edge2" class="edge"><title>Node2&#45;&gt;Node1</title>
<path fill="none" stroke="midnightblue" d="M71.3062,-67.2163C94.3343,-53.3994 127.161,-33.7035 147.221,-21.6674"/>
<polygon fill="midnightblue" stroke="midnightblue" points="69.4806,-64.2299 62.7064,-72.3762 73.0821,-70.2324 69.4806,-64.2299"/>
</g>
<!-- Node3 -->
<g id="node4" class="node"><title>Node3</title>
<a xlink:href="classMojNoCopy.htm" target="_top" xlink:title="MojNoCopy">
<polygon fill="white" stroke="black" points="9,-132.5 9,-153.5 81,-153.5 81,-132.5 9,-132.5"/>
<text text-anchor="middle" x="45" y="-140.5" font-family="Helvetica,sans-Serif" font-size="10.00">MojNoCopy</text>
</a>
</g>
<!-- Node3&#45;&gt;Node2 -->
<g id="edge4" class="edge"><title>Node3&#45;&gt;Node2</title>
<path fill="none" stroke="#8b1a1a" d="M45,-122.231C45,-112.592 45,-101.544 45,-93.6339"/>
<polygon fill="#8b1a1a" stroke="#8b1a1a" points="41.5001,-122.273 45,-132.273 48.5001,-122.273 41.5001,-122.273"/>
</g>
<!-- Node4 -->
<g id="node6" class="node"><title>Node4</title>
<polygon fill="white" stroke="#bfbfbf" points="108,-72.5 108,-93.5 144,-93.5 144,-72.5 108,-72.5"/>
<text text-anchor="middle" x="126" y="-80.5" font-family="Helvetica,sans-Serif" font-size="10.00">bool</text>
</g>
<!-- Node4&#45;&gt;Node1 -->
<g id="edge6" class="edge"><title>Node4&#45;&gt;Node1</title>
<path fill="none" stroke="#9a32cd" stroke-dasharray="5,2" d="M130.839,-62.6033C133.051,-55.2127 136.071,-46.9736 140,-40 143.785,-33.2821 149.273,-26.698 154.143,-21.5057"/>
<polygon fill="#9a32cd" stroke="#9a32cd" points="127.458,-61.6996 128.24,-72.2655 134.217,-63.518 127.458,-61.6996"/>
<text text-anchor="middle" x="161.5" y="-44.5" font-family="Helvetica,sans-Serif" font-size="10.00"> m_verify</text>
</g>
<!-- Node5 -->
<g id="node8" class="node"><title>Node5</title>
<a xlink:href="classMojSet.htm" target="_top" xlink:title="MojSet\&lt; MojString \&gt;">
<polygon fill="white" stroke="black" points="161.5,-72.5 161.5,-93.5 274.5,-93.5 274.5,-72.5 161.5,-72.5"/>
<text text-anchor="middle" x="218" y="-80.5" font-family="Helvetica,sans-Serif" font-size="10.00">MojSet&lt; MojString &gt;</text>
</a>
</g>
<!-- Node5&#45;&gt;Node1 -->
<g id="edge8" class="edge"><title>Node5&#45;&gt;Node1</title>
<path fill="none" stroke="#9a32cd" stroke-dasharray="5,2" d="M204.16,-64.1981C194.186,-50.649 181.085,-32.8514 172.852,-21.6674"/>
<polygon fill="#9a32cd" stroke="#9a32cd" points="201.433,-66.3976 210.18,-72.3762 207.07,-62.2479 201.433,-66.3976"/>
<text text-anchor="middle" x="236" y="-44.5" font-family="Helvetica,sans-Serif" font-size="10.00"> m_excludeKinds</text>
</g>
<!-- Node6 -->
<g id="node10" class="node"><title>Node6</title>
<a xlink:href="classMojRbTreeBase.htm" target="_top" xlink:title="MojRbTreeBase">
<polygon fill="white" stroke="black" points="171.5,-132.5 171.5,-153.5 264.5,-153.5 264.5,-132.5 171.5,-132.5"/>
<text text-anchor="middle" x="218" y="-140.5" font-family="Helvetica,sans-Serif" font-size="10.00">MojRbTreeBase</text>
</a>
</g>
<!-- Node6&#45;&gt;Node5 -->
<g id="edge10" class="edge"><title>Node6&#45;&gt;Node5</title>
<path fill="none" stroke="#8b1a1a" d="M218,-122.231C218,-112.592 218,-101.544 218,-93.6339"/>
<polygon fill="#8b1a1a" stroke="#8b1a1a" points="214.5,-122.273 218,-132.273 221.5,-122.273 214.5,-122.273"/>
</g>
<!-- Node7 -->
<g id="node12" class="node"><title>Node7</title>
<a xlink:href="classMojDbKey.htm" target="_top" xlink:title="MojDbKey">
<polygon fill="white" stroke="black" points="291.5,-72.5 291.5,-93.5 356.5,-93.5 356.5,-72.5 291.5,-72.5"/>
<text text-anchor="middle" x="324" y="-80.5" font-family="Helvetica,sans-Serif" font-size="10.00">MojDbKey</text>
</a>
</g>
<!-- Node7&#45;&gt;Node1 -->
<g id="edge12" class="edge"><title>Node7&#45;&gt;Node1</title>
<path fill="none" stroke="#9a32cd" stroke-dasharray="5,2" d="M309.057,-64.4015C301.242,-55.8105 291.017,-46.1693 280,-40 262.214,-30.0405 240.986,-23.4471 221.638,-19.1058"/>
<polygon fill="#9a32cd" stroke="#9a32cd" points="306.576,-66.8837 315.759,-72.1688 311.876,-62.3109 306.576,-66.8837"/>
<text text-anchor="middle" x="324" y="-44.5" font-family="Helvetica,sans-Serif" font-size="10.00"> m_endKey</text>
</g>
</g>
</svg>
