<?xml version="1.0" encoding="UTF-8" standalone="no"?>
<!DOCTYPE svg PUBLIC "-//W3C//DTD SVG 1.1//EN"
 "http://www.w3.org/Graphics/SVG/1.1/DTD/svg11.dtd">
<!-- Generated by graphviz version 2.26.3 (20100126.1600)
 -->
<!-- Title: MojList&lt; T, ENTRY &gt;::ConstIterator Pages: 1 -->
<svg width="160pt" height="180pt"
 viewBox="0.00 0.00 160.00 180.00" xmlns="http://www.w3.org/2000/svg" xmlns:xlink="http://www.w3.org/1999/xlink">
<g id="graph1" class="graph" transform="scale(1 1) rotate(0) translate(4 176)">
<title>MojList&lt; T, ENTRY &gt;::ConstIterator</title>
<polygon fill="white" stroke="white" points="-4,5 -4,-176 157,-176 157,5 -4,5"/>
<!-- Node1 -->
<g id="node1" class="node"><title>Node1</title>
<polygon fill="#bfbfbf" stroke="black" points="0,-1 0,-35 116,-35 116,-1 0,-1"/>
<text text-anchor="start" x="8" y="-22" font-family="Helvetica,sans-Serif" font-size="10.00">MojList&lt; T, ENTRY &gt;</text>
<text text-anchor="middle" x="58" y="-9" font-family="Helvetica,sans-Serif" font-size="10.00">::ConstIterator</text>
</g>
<!-- Node2 -->
<g id="node2" class="node"><title>Node2</title>
<a xlink:href="classMojListEntry.htm" target="_top" xlink:title="MojListEntry">
<polygon fill="white" stroke="black" points="20.5,-88.5 20.5,-109.5 95.5,-109.5 95.5,-88.5 20.5,-88.5"/>
<text text-anchor="middle" x="58" y="-96.5" font-family="Helvetica,sans-Serif" font-size="10.00">MojListEntry</text>
</a>
</g>
<!-- Node2&#45;&gt;Node1 -->
<g id="edge2" class="edge"><title>Node2&#45;&gt;Node1</title>
<path fill="none" stroke="#9a32cd" stroke-dasharray="5,2" d="M58,-78.2533C58,-64.8753 58,-47.6892 58,-35.0976"/>
<polygon fill="#9a32cd" stroke="#9a32cd" points="54.5001,-78.4106 58,-88.4107 61.5001,-78.4107 54.5001,-78.4106"/>
<text text-anchor="middle" x="75.5" y="-58.5" font-family="Helvetica,sans-Serif" font-size="10.00"> m_pos</text>
</g>
<!-- Node2&#45;&gt;Node2 -->
<g id="edge6" class="edge"><title>Node2&#45;&gt;Node2</title>
<path fill="none" stroke="#9a32cd" stroke-dasharray="5,2" d="M105.771,-103.797C110.204,-102.808 113,-101.209 113,-99 113,-95.375 105.472,-93.3926 95.5316,-93.0527"/>
<polygon fill="#9a32cd" stroke="#9a32cd" points="105.078,-100.353 95.5316,-104.947 105.86,-107.309 105.078,-100.353"/>
<text text-anchor="middle" x="132.5" y="-103" font-family="Helvetica,sans-Serif" font-size="10.00"> m_prev</text>
<text text-anchor="middle" x="132.5" y="-90" font-family="Helvetica,sans-Serif" font-size="10.00">m_next</text>
</g>
<!-- Node3 -->
<g id="node4" class="node"><title>Node3</title>
<a xlink:href="classMojNoCopy.htm" target="_top" xlink:title="MojNoCopy">
<polygon fill="white" stroke="black" points="22,-150.5 22,-171.5 94,-171.5 94,-150.5 22,-150.5"/>
<text text-anchor="middle" x="58" y="-158.5" font-family="Helvetica,sans-Serif" font-size="10.00">MojNoCopy</text>
</a>
</g>
<!-- Node3&#45;&gt;Node2 -->
<g id="edge4" class="edge"><title>Node3&#45;&gt;Node2</title>
<path fill="none" stroke="#8b1a1a" d="M58,-140.299C58,-130.079 58,-118.173 58,-109.777"/>
<polygon fill="#8b1a1a" stroke="#8b1a1a" points="54.5001,-140.483 58,-150.483 61.5001,-140.483 54.5001,-140.483"/>
</g>
</g>
</svg>
