<?xml version="1.0" encoding="UTF-8" standalone="no"?>
<!DOCTYPE svg PUBLIC "-//W3C//DTD SVG 1.1//EN"
 "http://www.w3.org/Graphics/SVG/1.1/DTD/svg11.dtd">
<!-- Generated by graphviz version 2.26.3 (20100126.1600)
 -->
<!-- Title: MojSlot1&lt; THANDLER, TARG1 &gt; Pages: 1 -->
<svg width="142pt" height="218pt"
 viewBox="0.00 0.00 142.00 218.00" xmlns="http://www.w3.org/2000/svg" xmlns:xlink="http://www.w3.org/1999/xlink">
<g id="graph1" class="graph" transform="scale(1 1) rotate(0) translate(4 214)">
<title>MojSlot1&lt; THANDLER, TARG1 &gt;</title>
<polygon fill="white" stroke="white" points="-4,5 -4,-214 139,-214 139,5 -4,5"/>
<!-- Node1 -->
<g id="node1" class="node"><title>Node1</title>
<polygon fill="#bfbfbf" stroke="black" points="4.5,-1 4.5,-35 129.5,-35 129.5,-1 4.5,-1"/>
<text text-anchor="start" x="12.5" y="-22" font-family="Helvetica,sans-Serif" font-size="10.00">MojSlot1&lt; THANDLER,</text>
<text text-anchor="middle" x="67" y="-9" font-family="Helvetica,sans-Serif" font-size="10.00"> TARG1 &gt;</text>
</g>
<!-- Node2 -->
<g id="node2" class="node"><title>Node2</title>
<a xlink:href="classMojSlotBase1.htm" target="_top" xlink:title="MojSlotBase1\&lt; TARG1 \&gt;">
<polygon fill="white" stroke="black" points="-0.5,-72.5 -0.5,-93.5 134.5,-93.5 134.5,-72.5 -0.5,-72.5"/>
<text text-anchor="middle" x="67" y="-80.5" font-family="Helvetica,sans-Serif" font-size="10.00">MojSlotBase1&lt; TARG1 &gt;</text>
</a>
</g>
<!-- Node2&#45;&gt;Node1 -->
<g id="edge2" class="edge"><title>Node2&#45;&gt;Node1</title>
<path fill="none" stroke="midnightblue" d="M67,-62.1306C67,-53.4049 67,-43.3908 67,-35.1099"/>
<polygon fill="midnightblue" stroke="midnightblue" points="63.5001,-62.2665 67,-72.2666 70.5001,-62.2666 63.5001,-62.2665"/>
</g>
<!-- Node3 -->
<g id="node4" class="node"><title>Node3</title>
<a xlink:href="classMojSlotBase.htm" target="_top" xlink:title="MojSlotBase">
<polygon fill="white" stroke="black" points="29,-130.5 29,-151.5 105,-151.5 105,-130.5 29,-130.5"/>
<text text-anchor="middle" x="67" y="-138.5" font-family="Helvetica,sans-Serif" font-size="10.00">MojSlotBase</text>
</a>
</g>
<!-- Node3&#45;&gt;Node2 -->
<g id="edge4" class="edge"><title>Node3&#45;&gt;Node2</title>
<path fill="none" stroke="midnightblue" d="M67,-120.191C67,-111.168 67,-100.994 67,-93.5707"/>
<polygon fill="midnightblue" stroke="midnightblue" points="63.5001,-120.362 67,-130.362 70.5001,-120.362 63.5001,-120.362"/>
</g>
<!-- Node4 -->
<g id="node6" class="node"><title>Node4</title>
<a xlink:href="classMojNoCopy.htm" target="_top" xlink:title="MojNoCopy">
<polygon fill="white" stroke="black" points="31,-188.5 31,-209.5 103,-209.5 103,-188.5 31,-188.5"/>
<text text-anchor="middle" x="67" y="-196.5" font-family="Helvetica,sans-Serif" font-size="10.00">MojNoCopy</text>
</a>
</g>
<!-- Node4&#45;&gt;Node3 -->
<g id="edge6" class="edge"><title>Node4&#45;&gt;Node3</title>
<path fill="none" stroke="#8b1a1a" d="M67,-178.191C67,-169.168 67,-158.994 67,-151.571"/>
<polygon fill="#8b1a1a" stroke="#8b1a1a" points="63.5001,-178.362 67,-188.362 70.5001,-178.362 63.5001,-178.362"/>
</g>
</g>
</svg>
