<?xml version="1.0" encoding="UTF-8" standalone="no"?>
<!DOCTYPE svg PUBLIC "-//W3C//DTD SVG 1.1//EN"
 "http://www.w3.org/Graphics/SVG/1.1/DTD/svg11.dtd">
<!-- Generated by graphviz version 2.26.3 (20100126.1600)
 -->
<!-- Title: MojDbServiceHandler Pages: 1 -->
<svg width="1170pt" height="486pt"
 viewBox="0.00 0.00 1170.00 486.00" xmlns="http://www.w3.org/2000/svg" xmlns:xlink="http://www.w3.org/1999/xlink">
<g id="graph1" class="graph" transform="scale(1 1) rotate(0) translate(4 482)">
<title>MojDbServiceHandler</title>
<polygon fill="white" stroke="white" points="-4,5 -4,-482 1167,-482 1167,5 -4,5"/>
<!-- Node1 -->
<g id="node1" class="node"><title>Node1</title>
<polygon fill="#bfbfbf" stroke="black" points="1042.5,-391.5 1042.5,-412.5 1161.5,-412.5 1161.5,-391.5 1042.5,-391.5"/>
<text text-anchor="middle" x="1102" y="-399.5" font-family="Helvetica,sans-Serif" font-size="10.00">MojDbServiceHandler</text>
</g>
<!-- Node2 -->
<g id="node2" class="node"><title>Node2</title>
<a xlink:href="classMojDbServiceHandlerBase.htm" target="_top" xlink:title="MojDbServiceHandlerBase">
<polygon fill="white" stroke="black" points="860.5,-173.5 860.5,-194.5 1003.5,-194.5 1003.5,-173.5 860.5,-173.5"/>
<text text-anchor="middle" x="932" y="-181.5" font-family="Helvetica,sans-Serif" font-size="10.00">MojDbServiceHandlerBase</text>
</a>
</g>
<!-- Node2&#45;&gt;Node1 -->
<g id="edge2" class="edge"><title>Node2&#45;&gt;Node1</title>
<path fill="none" stroke="midnightblue" d="M946.553,-202.663C980.997,-246.832 1066.65,-356.664 1093.68,-391.336"/>
<polygon fill="midnightblue" stroke="midnightblue" points="949.109,-200.248 940.199,-194.515 943.589,-204.553 949.109,-200.248"/>
</g>
<!-- Node3 -->
<g id="node4" class="node"><title>Node3</title>
<a xlink:href="classMojService_1_1CategoryHandler.htm" target="_top" xlink:title="MojService::CategoryHandler">
<polygon fill="white" stroke="black" points="568.5,-53.5 568.5,-74.5 723.5,-74.5 723.5,-53.5 568.5,-53.5"/>
<text text-anchor="middle" x="646" y="-61.5" font-family="Helvetica,sans-Serif" font-size="10.00">MojService::CategoryHandler</text>
</a>
</g>
<!-- Node3&#45;&gt;Node2 -->
<g id="edge4" class="edge"><title>Node3&#45;&gt;Node2</title>
<path fill="none" stroke="midnightblue" d="M733.825,-70.6663C768.879,-75.9242 808.73,-85.3001 842,-102 877.516,-119.827 909.405,-155.694 923.841,-173.49"/>
<polygon fill="midnightblue" stroke="midnightblue" points="733.985,-67.1544 723.595,-69.2265 733.009,-74.0861 733.985,-67.1544"/>
</g>
<!-- Node4 -->
<g id="node6" class="node"><title>Node4</title>
<a xlink:href="classMojSignalHandler.htm" target="_top" xlink:title="MojSignalHandler">
<polygon fill="white" stroke="black" points="325.5,-0.5 325.5,-21.5 426.5,-21.5 426.5,-0.5 325.5,-0.5"/>
<text text-anchor="middle" x="376" y="-8.5" font-family="Helvetica,sans-Serif" font-size="10.00">MojSignalHandler</text>
</a>
</g>
<!-- Node4&#45;&gt;Node3 -->
<g id="edge6" class="edge"><title>Node4&#45;&gt;Node3</title>
<path fill="none" stroke="midnightblue" d="M436.771,-22.9292C483.465,-32.095 547.351,-44.6356 592.205,-53.4403"/>
<polygon fill="midnightblue" stroke="midnightblue" points="437.272,-19.4607 426.785,-20.9689 435.923,-26.3296 437.272,-19.4607"/>
</g>
<!-- Node5 -->
<g id="node8" class="node"><title>Node5</title>
<a xlink:href="classMojRefCounted.htm" target="_top" xlink:title="MojRefCounted">
<polygon fill="white" stroke="black" points="110,-10.5 110,-31.5 200,-31.5 200,-10.5 110,-10.5"/>
<text text-anchor="middle" x="155" y="-18.5" font-family="Helvetica,sans-Serif" font-size="10.00">MojRefCounted</text>
</a>
</g>
<!-- Node5&#45;&gt;Node4 -->
<g id="edge8" class="edge"><title>Node5&#45;&gt;Node4</title>
<path fill="none" stroke="midnightblue" d="M210.394,-18.4935C245.692,-16.8963 291.074,-14.8428 325.402,-13.2895"/>
<polygon fill="midnightblue" stroke="midnightblue" points="210.087,-15.0037 200.256,-18.9522 210.404,-21.9965 210.087,-15.0037"/>
</g>
<!-- Node6 -->
<g id="node10" class="node"><title>Node6</title>
<a xlink:href="classMojNoCopy.htm" target="_top" xlink:title="MojNoCopy">
<polygon fill="white" stroke="black" points="0,-125.5 0,-146.5 72,-146.5 72,-125.5 0,-125.5"/>
<text text-anchor="middle" x="36" y="-133.5" font-family="Helvetica,sans-Serif" font-size="10.00">MojNoCopy</text>
</a>
</g>
<!-- Node6&#45;&gt;Node5 -->
<g id="edge10" class="edge"><title>Node6&#45;&gt;Node5</title>
<path fill="none" stroke="#8b1a1a" d="M47.9021,-116.804C61.1237,-96.6798 84.0568,-65.1063 110,-44 115.853,-39.2382 122.852,-35.08 129.567,-31.6574"/>
<polygon fill="#8b1a1a" stroke="#8b1a1a" points="44.8306,-115.11 42.3777,-125.417 50.7228,-118.89 44.8306,-115.11"/>
</g>
<!-- Node9 -->
<g id="node16" class="node"><title>Node9</title>
<a xlink:href="classMojDb.htm" target="_top" xlink:title="MojDb">
<polygon fill="white" stroke="black" points="622.5,-207.5 622.5,-228.5 669.5,-228.5 669.5,-207.5 622.5,-207.5"/>
<text text-anchor="middle" x="646" y="-215.5" font-family="Helvetica,sans-Serif" font-size="10.00">MojDb</text>
</a>
</g>
<!-- Node6&#45;&gt;Node9 -->
<g id="edge18" class="edge"><title>Node6&#45;&gt;Node9</title>
<path fill="none" stroke="#8b1a1a" d="M63.202,-151.517C129.031,-188.064 303.224,-278.824 462,-310 500.378,-317.536 513.709,-324.582 550,-310 591.555,-293.303 625.259,-249.079 639.147,-228.637"/>
<polygon fill="#8b1a1a" stroke="#8b1a1a" points="64.7265,-148.359 54.2905,-146.531 61.3089,-154.468 64.7265,-148.359"/>
</g>
<!-- Node12 -->
<g id="node23" class="node"><title>Node12</title>
<a xlink:href="classMojLogger.htm" target="_top" xlink:title="MojLogger">
<polygon fill="white" stroke="black" points="342,-144.5 342,-165.5 410,-165.5 410,-144.5 342,-144.5"/>
<text text-anchor="middle" x="376" y="-152.5" font-family="Helvetica,sans-Serif" font-size="10.00">MojLogger</text>
</a>
</g>
<!-- Node6&#45;&gt;Node12 -->
<g id="edge26" class="edge"><title>Node6&#45;&gt;Node12</title>
<path fill="none" stroke="#8b1a1a" d="M82.201,-140.411C84.8386,-140.622 87.4525,-140.82 90,-141 180.747,-147.419 287.9,-151.815 341.633,-153.8"/>
<polygon fill="#8b1a1a" stroke="#8b1a1a" points="82.2587,-136.904 72.0003,-139.553 81.6714,-143.879 82.2587,-136.904"/>
</g>
<!-- Node13 -->
<g id="node28" class="node"><title>Node13</title>
<a xlink:href="classMojReactor.htm" target="_top" xlink:title="MojReactor">
<polygon fill="white" stroke="black" points="218.5,-105.5 218.5,-126.5 289.5,-126.5 289.5,-105.5 218.5,-105.5"/>
<text text-anchor="middle" x="254" y="-113.5" font-family="Helvetica,sans-Serif" font-size="10.00">MojReactor</text>
</a>
</g>
<!-- Node6&#45;&gt;Node13 -->
<g id="edge34" class="edge"><title>Node6&#45;&gt;Node13</title>
<path fill="none" stroke="#8b1a1a" d="M82.6903,-131.716C123.372,-127.984 181.489,-122.652 218.479,-119.259"/>
<polygon fill="#8b1a1a" stroke="#8b1a1a" points="82.1267,-128.253 72.4883,-132.652 82.7663,-135.224 82.1267,-128.253"/>
</g>
<!-- Node7 -->
<g id="node12" class="node"><title>Node7</title>
<a xlink:href="classMojHashMap.htm" target="_top" xlink:title="MojHashMap\&lt; MojString,\l CallbackInfo, const\l MojChar * \&gt;">
<polygon fill="white" stroke="black" points="308,-40.5 308,-87.5 444,-87.5 444,-40.5 308,-40.5"/>
<text text-anchor="start" x="316" y="-74.5" font-family="Helvetica,sans-Serif" font-size="10.00">MojHashMap&lt; MojString,</text>
<text text-anchor="start" x="316" y="-61.5" font-family="Helvetica,sans-Serif" font-size="10.00"> CallbackInfo, const</text>
<text text-anchor="middle" x="376" y="-48.5" font-family="Helvetica,sans-Serif" font-size="10.00"> MojChar * &gt;</text>
</a>
</g>
<!-- Node7&#45;&gt;Node3 -->
<g id="edge12" class="edge"><title>Node7&#45;&gt;Node3</title>
<path fill="none" stroke="#9a32cd" stroke-dasharray="5,2" d="M454.536,-64C490.349,-64 532.628,-64 568.335,-64"/>
<polygon fill="#9a32cd" stroke="#9a32cd" points="454.132,-60.5001 444.132,-64 454.132,-67.5001 454.132,-60.5001"/>
<text text-anchor="middle" x="506" y="-68" font-family="Helvetica,sans-Serif" font-size="10.00"> m_callbackMap</text>
</g>
<!-- Node8 -->
<g id="node14" class="node"><title>Node8</title>
<a xlink:href="classMojHashBase.htm" target="_top" xlink:title="MojHashBase">
<polygon fill="white" stroke="black" points="113.5,-53.5 113.5,-74.5 196.5,-74.5 196.5,-53.5 113.5,-53.5"/>
<text text-anchor="middle" x="155" y="-61.5" font-family="Helvetica,sans-Serif" font-size="10.00">MojHashBase</text>
</a>
</g>
<!-- Node8&#45;&gt;Node7 -->
<g id="edge14" class="edge"><title>Node8&#45;&gt;Node7</title>
<path fill="none" stroke="#8b1a1a" d="M206.845,-64C236.926,-64 275.173,-64 307.687,-64"/>
<polygon fill="#8b1a1a" stroke="#8b1a1a" points="206.568,-60.5001 196.568,-64 206.568,-67.5001 206.568,-60.5001"/>
</g>
<!-- Node9&#45;&gt;Node2 -->
<g id="edge16" class="edge"><title>Node9&#45;&gt;Node2</title>
<path fill="none" stroke="#9a32cd" stroke-dasharray="5,2" d="M679.833,-213.978C724.04,-208.723 802.602,-199.383 860.324,-192.521"/>
<polygon fill="#9a32cd" stroke="#9a32cd" points="679.409,-210.504 669.892,-215.16 680.236,-217.455 679.409,-210.504"/>
<text text-anchor="middle" x="792" y="-210" font-family="Helvetica,sans-Serif" font-size="10.00"> m_db</text>
</g>
<!-- Node10 -->
<g id="node19" class="node"><title>Node10</title>
<polygon fill="white" stroke="#bfbfbf" points="357,-207.5 357,-228.5 395,-228.5 395,-207.5 357,-207.5"/>
<text text-anchor="middle" x="376" y="-215.5" font-family="Helvetica,sans-Serif" font-size="10.00">char</text>
</g>
<!-- Node10&#45;&gt;Node9 -->
<g id="edge20" class="edge"><title>Node10&#45;&gt;Node9</title>
<path fill="none" stroke="#9a32cd" stroke-dasharray="5,2" d="M405.694,-218C459.689,-218 572.918,-218 622.217,-218"/>
<polygon fill="#9a32cd" stroke="#9a32cd" points="405.418,-214.5 395.418,-218 405.418,-221.5 405.418,-214.5"/>
<text text-anchor="middle" x="506" y="-300" font-family="Helvetica,sans-Serif" font-size="10.00"> IdKey</text>
<text text-anchor="middle" x="506" y="-287" font-family="Helvetica,sans-Serif" font-size="10.00">DelKey</text>
<text text-anchor="middle" x="506" y="-274" font-family="Helvetica,sans-Serif" font-size="10.00">SyncKey</text>
<text text-anchor="middle" x="506" y="-261" font-family="Helvetica,sans-Serif" font-size="10.00">IgnoreIdKey</text>
<text text-anchor="middle" x="506" y="-248" font-family="Helvetica,sans-Serif" font-size="10.00">RevKey</text>
<text text-anchor="middle" x="506" y="-235" font-family="Helvetica,sans-Serif" font-size="10.00">KindKey</text>
<text text-anchor="middle" x="506" y="-222" font-family="Helvetica,sans-Serif" font-size="10.00">ConfKey</text>
</g>
<!-- Node11 -->
<g id="node21" class="node"><title>Node11</title>
<polygon fill="white" stroke="#bfbfbf" points="315,-387.5 315,-408.5 437,-408.5 437,-387.5 315,-387.5"/>
<text text-anchor="middle" x="376" y="-395.5" font-family="Helvetica,sans-Serif" font-size="10.00">static const MojUInt32</text>
</g>
<!-- Node11&#45;&gt;Node1 -->
<g id="edge36" class="edge"><title>Node11&#45;&gt;Node1</title>
<path fill="none" stroke="#9a32cd" stroke-dasharray="5,2" d="M416.927,-411.622C455.412,-423.666 514.89,-440.33 568,-447 747.316,-469.521 961.962,-431.955 1055.08,-412.522"/>
<polygon fill="#9a32cd" stroke="#9a32cd" points="417.722,-408.202 407.132,-408.514 415.605,-414.874 417.722,-408.202"/>
<text text-anchor="middle" x="792" y="-469" font-family="Helvetica,sans-Serif" font-size="10.00"> MaxReserveIdCount</text>
<text text-anchor="middle" x="792" y="-456" font-family="Helvetica,sans-Serif" font-size="10.00">MaxQueryLimit</text>
</g>
<!-- Node11&#45;&gt;Node2 -->
<g id="edge28" class="edge"><title>Node11&#45;&gt;Node2</title>
<path fill="none" stroke="#9a32cd" stroke-dasharray="5,2" d="M447.219,-398.683C479.18,-397.365 517.029,-393.527 550,-384 704.262,-339.424 868.202,-229.135 917.3,-194.549"/>
<polygon fill="#9a32cd" stroke="#9a32cd" points="446.939,-395.19 437.063,-399.026 447.176,-402.186 446.939,-395.19"/>
<text text-anchor="middle" x="646" y="-434" font-family="Helvetica,sans-Serif" font-size="10.00"> DeadlockSleepMillis</text>
<text text-anchor="middle" x="646" y="-421" font-family="Helvetica,sans-Serif" font-size="10.00">MaxIndexlockRetries</text>
<text text-anchor="middle" x="646" y="-408" font-family="Helvetica,sans-Serif" font-size="10.00">MaxDeadlockRetries</text>
<text text-anchor="middle" x="646" y="-395" font-family="Helvetica,sans-Serif" font-size="10.00">MinIndexlockRetries</text>
<text text-anchor="middle" x="646" y="-382" font-family="Helvetica,sans-Serif" font-size="10.00">MaxBatchRetries</text>
</g>
<!-- Node11&#45;&gt;Node9 -->
<g id="edge22" class="edge"><title>Node11&#45;&gt;Node9</title>
<path fill="none" stroke="#9a32cd" stroke-dasharray="5,2" d="M405.144,-382.849C421.544,-374.732 442.573,-364.993 462,-358 500.036,-344.309 515.959,-356.803 550,-335 594.03,-306.799 627.617,-251.743 640.39,-228.624"/>
<polygon fill="#9a32cd" stroke="#9a32cd" points="403.434,-379.791 396.07,-387.408 406.577,-386.046 403.434,-379.791"/>
<text text-anchor="middle" x="506" y="-375" font-family="Helvetica,sans-Serif" font-size="10.00"> AutoCompactSize</text>
<text text-anchor="middle" x="506" y="-362" font-family="Helvetica,sans-Serif" font-size="10.00">AutoBatchSize</text>
</g>
<!-- Node12&#45;&gt;Node2 -->
<g id="edge30" class="edge"><title>Node12&#45;&gt;Node2</title>
<path fill="none" stroke="#9a32cd" stroke-dasharray="5,2" d="M420.602,-157.326C516.697,-162.338 743.981,-174.193 860.463,-180.269"/>
<polygon fill="#9a32cd" stroke="#9a32cd" points="420.529,-153.818 410.361,-156.792 420.165,-160.808 420.529,-153.818"/>
<text text-anchor="middle" x="646" y="-176" font-family="Helvetica,sans-Serif" font-size="10.00"> s_log</text>
</g>
<!-- Node12&#45;&gt;Node9 -->
<g id="edge24" class="edge"><title>Node12&#45;&gt;Node9</title>
<path fill="none" stroke="#9a32cd" stroke-dasharray="5,2" d="M420.137,-165.299C477.936,-178.785 577.206,-201.948 622.379,-212.488"/>
<polygon fill="#9a32cd" stroke="#9a32cd" points="420.729,-161.843 410.196,-162.979 419.139,-168.66 420.729,-161.843"/>
<text text-anchor="middle" x="506" y="-197" font-family="Helvetica,sans-Serif" font-size="10.00"> s_log</text>
</g>
<!-- Node13&#45;&gt;Node2 -->
<g id="edge32" class="edge"><title>Node13&#45;&gt;Node2</title>
<path fill="none" stroke="#9a32cd" stroke-dasharray="5,2" d="M299.807,-119.16C398.916,-126.228 640.572,-144.698 842,-170 850.159,-171.025 858.716,-172.211 867.174,-173.451"/>
<polygon fill="#9a32cd" stroke="#9a32cd" points="299.772,-115.649 289.549,-118.433 299.277,-122.632 299.772,-115.649"/>
<text text-anchor="middle" x="506" y="-142" font-family="Helvetica,sans-Serif" font-size="10.00"> m_reactor</text>
</g>
</g>
</svg>
