<?xml version="1.0" encoding="UTF-8" standalone="no"?>
<!DOCTYPE svg PUBLIC "-//W3C//DTD SVG 1.1//EN"
 "http://www.w3.org/Graphics/SVG/1.1/DTD/svg11.dtd">
<!-- Generated by graphviz version 2.26.3 (20100126.1600)
 -->
<!-- Title: MojDbKind Pages: 1 -->
<svg width="98pt" height="146pt"
 viewBox="0.00 0.00 98.00 146.00" xmlns="http://www.w3.org/2000/svg" xmlns:xlink="http://www.w3.org/1999/xlink">
<g id="graph1" class="graph" transform="scale(1 1) rotate(0) translate(4 142)">
<title>MojDbKind</title>
<polygon fill="white" stroke="white" points="-4,5 -4,-142 95,-142 95,5 -4,5"/>
<!-- Node1 -->
<g id="node1" class="node"><title>Node1</title>
<polygon fill="#bfbfbf" stroke="black" points="11,-0.5 11,-21.5 79,-21.5 79,-0.5 11,-0.5"/>
<text text-anchor="middle" x="45" y="-8.5" font-family="Helvetica,sans-Serif" font-size="10.00">MojDbKind</text>
</g>
<!-- Node2 -->
<g id="node2" class="node"><title>Node2</title>
<a xlink:href="classMojRefCounted.htm" target="_top" xlink:title="MojRefCounted">
<polygon fill="white" stroke="black" points="0,-58.5 0,-79.5 90,-79.5 90,-58.5 0,-58.5"/>
<text text-anchor="middle" x="45" y="-66.5" font-family="Helvetica,sans-Serif" font-size="10.00">MojRefCounted</text>
</a>
</g>
<!-- Node2&#45;&gt;Node1 -->
<g id="edge2" class="edge"><title>Node2&#45;&gt;Node1</title>
<path fill="none" stroke="midnightblue" d="M45,-48.1906C45,-39.1684 45,-28.9941 45,-21.5707"/>
<polygon fill="midnightblue" stroke="midnightblue" points="41.5001,-48.3619 45,-58.3619 48.5001,-48.3619 41.5001,-48.3619"/>
</g>
<!-- Node3 -->
<g id="node4" class="node"><title>Node3</title>
<a xlink:href="classMojNoCopy.htm" target="_top" xlink:title="MojNoCopy">
<polygon fill="white" stroke="black" points="9,-116.5 9,-137.5 81,-137.5 81,-116.5 9,-116.5"/>
<text text-anchor="middle" x="45" y="-124.5" font-family="Helvetica,sans-Serif" font-size="10.00">MojNoCopy</text>
</a>
</g>
<!-- Node3&#45;&gt;Node2 -->
<g id="edge4" class="edge"><title>Node3&#45;&gt;Node2</title>
<path fill="none" stroke="#8b1a1a" d="M45,-106.191C45,-97.1684 45,-86.9941 45,-79.5707"/>
<polygon fill="#8b1a1a" stroke="#8b1a1a" points="41.5001,-106.362 45,-116.362 48.5001,-106.362 41.5001,-106.362"/>
</g>
</g>
</svg>
