<?xml version="1.0" encoding="UTF-8" standalone="no"?>
<!DOCTYPE svg PUBLIC "-//W3C//DTD SVG 1.1//EN"
 "http://www.w3.org/Graphics/SVG/1.1/DTD/svg11.dtd">
<!-- Generated by graphviz version 2.26.3 (20100126.1600)
 -->
<!-- Title: MojDbLunaServiceApp Pages: 1 -->
<svg width="353pt" height="374pt"
 viewBox="0.00 0.00 353.00 374.00" xmlns="http://www.w3.org/2000/svg" xmlns:xlink="http://www.w3.org/1999/xlink">
<g id="graph1" class="graph" transform="scale(1 1) rotate(0) translate(4 370)">
<title>MojDbLunaServiceApp</title>
<polygon fill="white" stroke="white" points="-4,5 -4,-370 350,-370 350,5 -4,5"/>
<!-- Node1 -->
<g id="node1" class="node"><title>Node1</title>
<polygon fill="#bfbfbf" stroke="black" points="174,-0.5 174,-21.5 298,-21.5 298,-0.5 174,-0.5"/>
<text text-anchor="middle" x="236" y="-8.5" font-family="Helvetica,sans-Serif" font-size="10.00">MojDbLunaServiceApp</text>
</g>
<!-- Node2 -->
<g id="node2" class="node"><title>Node2</title>
<a xlink:href="classMojReactorApp.htm" target="_top" xlink:title="MojReactorApp\&lt; MojGmainReactor \&gt;">
<polygon fill="white" stroke="black" points="139,-60.5 139,-81.5 333,-81.5 333,-60.5 139,-60.5"/>
<text text-anchor="middle" x="236" y="-68.5" font-family="Helvetica,sans-Serif" font-size="10.00">MojReactorApp&lt; MojGmainReactor &gt;</text>
</a>
</g>
<!-- Node2&#45;&gt;Node1 -->
<g id="edge2" class="edge"><title>Node2&#45;&gt;Node1</title>
<path fill="none" stroke="midnightblue" d="M236,-50.2312C236,-40.5922 236,-29.5444 236,-21.6339"/>
<polygon fill="midnightblue" stroke="midnightblue" points="232.5,-50.2732 236,-60.2732 239.5,-50.2732 232.5,-50.2732"/>
</g>
<!-- Node3 -->
<g id="node4" class="node"><title>Node3</title>
<a xlink:href="classMojServiceApp.htm" target="_top" xlink:title="MojServiceApp">
<polygon fill="white" stroke="black" points="120,-120.5 120,-141.5 208,-141.5 208,-120.5 120,-120.5"/>
<text text-anchor="middle" x="164" y="-128.5" font-family="Helvetica,sans-Serif" font-size="10.00">MojServiceApp</text>
</a>
</g>
<!-- Node3&#45;&gt;Node2 -->
<g id="edge4" class="edge"><title>Node3&#45;&gt;Node2</title>
<path fill="none" stroke="midnightblue" d="M184.898,-113.585C197.301,-103.25 212.624,-90.48 223.239,-81.6339"/>
<polygon fill="midnightblue" stroke="midnightblue" points="182.314,-111.183 176.872,-120.273 186.795,-116.56 182.314,-111.183"/>
</g>
<!-- Node4 -->
<g id="node6" class="node"><title>Node4</title>
<a xlink:href="classMojApp.htm" target="_top" xlink:title="MojApp">
<polygon fill="white" stroke="black" points="70.5,-200.5 70.5,-221.5 123.5,-221.5 123.5,-200.5 70.5,-200.5"/>
<text text-anchor="middle" x="97" y="-208.5" font-family="Helvetica,sans-Serif" font-size="10.00">MojApp</text>
</a>
</g>
<!-- Node4&#45;&gt;Node3 -->
<g id="edge6" class="edge"><title>Node4&#45;&gt;Node3</title>
<path fill="none" stroke="midnightblue" d="M112.757,-192.186C125.957,-176.424 144.324,-154.493 155.107,-141.618"/>
<polygon fill="midnightblue" stroke="midnightblue" points="109.773,-190.297 106.036,-200.211 115.14,-194.792 109.773,-190.297"/>
</g>
<!-- Node5 -->
<g id="node8" class="node"><title>Node5</title>
<a xlink:href="classMojNoCopy.htm" target="_top" xlink:title="MojNoCopy">
<polygon fill="white" stroke="black" points="60,-344.5 60,-365.5 132,-365.5 132,-344.5 60,-344.5"/>
<text text-anchor="middle" x="96" y="-352.5" font-family="Helvetica,sans-Serif" font-size="10.00">MojNoCopy</text>
</a>
</g>
<!-- Node5&#45;&gt;Node4 -->
<g id="edge8" class="edge"><title>Node5&#45;&gt;Node4</title>
<path fill="none" stroke="#8b1a1a" d="M96.1461,-333.965C96.3631,-302.718 96.7626,-245.19 96.9267,-221.558"/>
<polygon fill="#8b1a1a" stroke="#8b1a1a" points="92.6448,-334.152 96.0752,-344.177 99.6446,-334.201 92.6448,-334.152"/>
</g>
<!-- Node7 -->
<g id="node12" class="node"><title>Node7</title>
<a xlink:href="classMojLogger.htm" target="_top" xlink:title="MojLogger">
<polygon fill="white" stroke="black" points="0,-284.5 0,-305.5 68,-305.5 68,-284.5 0,-284.5"/>
<text text-anchor="middle" x="34" y="-292.5" font-family="Helvetica,sans-Serif" font-size="10.00">MojLogger</text>
</a>
</g>
<!-- Node5&#45;&gt;Node7 -->
<g id="edge14" class="edge"><title>Node5&#45;&gt;Node7</title>
<path fill="none" stroke="#8b1a1a" d="M77.6956,-337.286C67.0711,-327.004 54.0415,-314.395 44.9884,-305.634"/>
<polygon fill="#8b1a1a" stroke="#8b1a1a" points="75.2956,-339.834 84.9156,-344.273 80.1636,-334.804 75.2956,-339.834"/>
</g>
<!-- Node10 -->
<g id="node19" class="node"><title>Node10</title>
<a xlink:href="classMojReactor.htm" target="_top" xlink:title="MojReactor">
<polygon fill="white" stroke="black" points="263.5,-284.5 263.5,-305.5 334.5,-305.5 334.5,-284.5 263.5,-284.5"/>
<text text-anchor="middle" x="299" y="-292.5" font-family="Helvetica,sans-Serif" font-size="10.00">MojReactor</text>
</a>
</g>
<!-- Node5&#45;&gt;Node10 -->
<g id="edge22" class="edge"><title>Node5&#45;&gt;Node10</title>
<path fill="none" stroke="#8b1a1a" d="M141.788,-341.467C178.53,-330.607 229.385,-315.576 263.192,-305.584"/>
<polygon fill="#8b1a1a" stroke="#8b1a1a" points="140.423,-338.22 131.825,-344.411 142.407,-344.933 140.423,-338.22"/>
</g>
<!-- Node6 -->
<g id="node10" class="node"><title>Node6</title>
<polygon fill="white" stroke="#bfbfbf" points="124,-284.5 124,-305.5 246,-305.5 246,-284.5 124,-284.5"/>
<text text-anchor="middle" x="185" y="-292.5" font-family="Helvetica,sans-Serif" font-size="10.00">static const MojUInt32</text>
</g>
<!-- Node6&#45;&gt;Node4 -->
<g id="edge10" class="edge"><title>Node6&#45;&gt;Node4</title>
<path fill="none" stroke="#9a32cd" stroke-dasharray="5,2" d="M166.383,-277.23C148.694,-260.345 122.687,-235.519 108.055,-221.552"/>
<polygon fill="#9a32cd" stroke="#9a32cd" points="164.204,-279.988 173.855,-284.361 169.038,-274.925 164.204,-279.988"/>
<text text-anchor="middle" x="187.5" y="-257" font-family="Helvetica,sans-Serif" font-size="10.00"> MinorVersion</text>
<text text-anchor="middle" x="187.5" y="-244" font-family="Helvetica,sans-Serif" font-size="10.00">MajorVersion</text>
</g>
<!-- Node7&#45;&gt;Node4 -->
<g id="edge12" class="edge"><title>Node7&#45;&gt;Node4</title>
<path fill="none" stroke="#9a32cd" stroke-dasharray="5,2" d="M37.7827,-274.235C40.5805,-263.213 45.2852,-249.933 53,-240 58.8362,-232.485 67.1922,-226.29 75.0575,-221.583"/>
<polygon fill="#9a32cd" stroke="#9a32cd" points="34.2996,-273.78 35.5798,-284.297 41.1376,-275.277 34.2996,-273.78"/>
<text text-anchor="middle" x="67.5" y="-250.5" font-family="Helvetica,sans-Serif" font-size="10.00"> s_log</text>
</g>
<!-- Node8 -->
<g id="node15" class="node"><title>Node8</title>
<polygon fill="white" stroke="#bfbfbf" points="146,-200.5 146,-221.5 182,-221.5 182,-200.5 146,-200.5"/>
<text text-anchor="middle" x="164" y="-208.5" font-family="Helvetica,sans-Serif" font-size="10.00">bool</text>
</g>
<!-- Node8&#45;&gt;Node3 -->
<g id="edge16" class="edge"><title>Node8&#45;&gt;Node3</title>
<path fill="none" stroke="#9a32cd" stroke-dasharray="5,2" d="M164,-189.958C164,-174.413 164,-153.897 164,-141.618"/>
<polygon fill="#9a32cd" stroke="#9a32cd" points="160.5,-190.211 164,-200.211 167.5,-190.211 160.5,-190.211"/>
<text text-anchor="middle" x="195.5" y="-168.5" font-family="Helvetica,sans-Serif" font-size="10.00"> m_shutdown</text>
</g>
<!-- Node9 -->
<g id="node17" class="node"><title>Node9</title>
<a xlink:href="classMojGmainReactor.htm" target="_top" xlink:title="MojGmainReactor">
<polygon fill="white" stroke="black" points="243,-160.5 243,-181.5 345,-181.5 345,-160.5 243,-160.5"/>
<text text-anchor="middle" x="294" y="-168.5" font-family="Helvetica,sans-Serif" font-size="10.00">MojGmainReactor</text>
</a>
</g>
<!-- Node9&#45;&gt;Node2 -->
<g id="edge18" class="edge"><title>Node9&#45;&gt;Node2</title>
<path fill="none" stroke="#9a32cd" stroke-dasharray="5,2" d="M282.758,-151.617C270.646,-130.735 251.815,-98.2671 242.162,-81.6248"/>
<polygon fill="#9a32cd" stroke="#9a32cd" points="279.748,-153.404 287.793,-160.298 285.803,-149.892 279.748,-153.404"/>
<text text-anchor="middle" x="303" y="-128.5" font-family="Helvetica,sans-Serif" font-size="10.00"> m_reactor</text>
</g>
<!-- Node10&#45;&gt;Node9 -->
<g id="edge20" class="edge"><title>Node10&#45;&gt;Node9</title>
<path fill="none" stroke="midnightblue" d="M298.163,-274.241C297.085,-247.498 295.251,-202.022 294.425,-181.545"/>
<polygon fill="midnightblue" stroke="midnightblue" points="294.674,-274.577 298.574,-284.428 301.668,-274.295 294.674,-274.577"/>
</g>
</g>
</svg>
