<?xml version="1.0" encoding="UTF-8" standalone="no"?>
<!DOCTYPE svg PUBLIC "-//W3C//DTD SVG 1.1//EN"
 "http://www.w3.org/Graphics/SVG/1.1/DTD/svg11.dtd">
<!-- Generated by graphviz version 2.26.3 (20100126.1600)
 -->
<!-- Title: MojDbInnoTxn Pages: 1 -->
<svg width="110pt" height="262pt"
 viewBox="0.00 0.00 110.00 262.00" xmlns="http://www.w3.org/2000/svg" xmlns:xlink="http://www.w3.org/1999/xlink">
<g id="graph1" class="graph" transform="scale(1 1) rotate(0) translate(4 258)">
<title>MojDbInnoTxn</title>
<polygon fill="white" stroke="white" points="-4,5 -4,-258 107,-258 107,5 -4,5"/>
<!-- Node1 -->
<g id="node1" class="node"><title>Node1</title>
<polygon fill="#bfbfbf" stroke="black" points="8,-0.5 8,-21.5 94,-21.5 94,-0.5 8,-0.5"/>
<text text-anchor="middle" x="51" y="-8.5" font-family="Helvetica,sans-Serif" font-size="10.00">MojDbInnoTxn</text>
</g>
<!-- Node2 -->
<g id="node2" class="node"><title>Node2</title>
<a xlink:href="classMojDbStorageTxn.htm" target="_top" xlink:title="MojDbStorageTxn">
<polygon fill="white" stroke="black" points="0,-58.5 0,-79.5 102,-79.5 102,-58.5 0,-58.5"/>
<text text-anchor="middle" x="51" y="-66.5" font-family="Helvetica,sans-Serif" font-size="10.00">MojDbStorageTxn</text>
</a>
</g>
<!-- Node2&#45;&gt;Node1 -->
<g id="edge2" class="edge"><title>Node2&#45;&gt;Node1</title>
<path fill="none" stroke="midnightblue" d="M51,-48.1906C51,-39.1684 51,-28.9941 51,-21.5707"/>
<polygon fill="midnightblue" stroke="midnightblue" points="47.5001,-48.3619 51,-58.3619 54.5001,-48.3619 47.5001,-48.3619"/>
</g>
<!-- Node3 -->
<g id="node4" class="node"><title>Node3</title>
<a xlink:href="classMojSignalHandler.htm" target="_top" xlink:title="MojSignalHandler">
<polygon fill="white" stroke="black" points="0.5,-116.5 0.5,-137.5 101.5,-137.5 101.5,-116.5 0.5,-116.5"/>
<text text-anchor="middle" x="51" y="-124.5" font-family="Helvetica,sans-Serif" font-size="10.00">MojSignalHandler</text>
</a>
</g>
<!-- Node3&#45;&gt;Node2 -->
<g id="edge4" class="edge"><title>Node3&#45;&gt;Node2</title>
<path fill="none" stroke="midnightblue" d="M51,-106.191C51,-97.1684 51,-86.9941 51,-79.5707"/>
<polygon fill="midnightblue" stroke="midnightblue" points="47.5001,-106.362 51,-116.362 54.5001,-106.362 47.5001,-106.362"/>
</g>
<!-- Node4 -->
<g id="node6" class="node"><title>Node4</title>
<a xlink:href="classMojRefCounted.htm" target="_top" xlink:title="MojRefCounted">
<polygon fill="white" stroke="black" points="6,-174.5 6,-195.5 96,-195.5 96,-174.5 6,-174.5"/>
<text text-anchor="middle" x="51" y="-182.5" font-family="Helvetica,sans-Serif" font-size="10.00">MojRefCounted</text>
</a>
</g>
<!-- Node4&#45;&gt;Node3 -->
<g id="edge6" class="edge"><title>Node4&#45;&gt;Node3</title>
<path fill="none" stroke="midnightblue" d="M51,-164.191C51,-155.168 51,-144.994 51,-137.571"/>
<polygon fill="midnightblue" stroke="midnightblue" points="47.5001,-164.362 51,-174.362 54.5001,-164.362 47.5001,-164.362"/>
</g>
<!-- Node5 -->
<g id="node8" class="node"><title>Node5</title>
<a xlink:href="classMojNoCopy.htm" target="_top" xlink:title="MojNoCopy">
<polygon fill="white" stroke="black" points="15,-232.5 15,-253.5 87,-253.5 87,-232.5 15,-232.5"/>
<text text-anchor="middle" x="51" y="-240.5" font-family="Helvetica,sans-Serif" font-size="10.00">MojNoCopy</text>
</a>
</g>
<!-- Node5&#45;&gt;Node4 -->
<g id="edge8" class="edge"><title>Node5&#45;&gt;Node4</title>
<path fill="none" stroke="#8b1a1a" d="M51,-222.191C51,-213.168 51,-202.994 51,-195.571"/>
<polygon fill="#8b1a1a" stroke="#8b1a1a" points="47.5001,-222.362 51,-232.362 54.5001,-222.362 47.5001,-222.362"/>
</g>
</g>
</svg>
