<?xml version="1.0" encoding="UTF-8" standalone="no"?>
<!DOCTYPE svg PUBLIC "-//W3C//DTD SVG 1.1//EN"
 "http://www.w3.org/Graphics/SVG/1.1/DTD/svg11.dtd">
<!-- Generated by graphviz version 2.26.3 (20100126.1600)
 -->
<!-- Title: MojDbInnoEngine Pages: 1 -->
<svg width="726pt" height="512pt"
 viewBox="0.00 0.00 726.00 512.00" xmlns="http://www.w3.org/2000/svg" xmlns:xlink="http://www.w3.org/1999/xlink">
<g id="graph1" class="graph" transform="scale(1 1) rotate(0) translate(4 508)">
<title>MojDbInnoEngine</title>
<polygon fill="white" stroke="white" points="-4,5 -4,-508 723,-508 723,5 -4,5"/>
<!-- Node1 -->
<g id="node1" class="node"><title>Node1</title>
<polygon fill="#bfbfbf" stroke="black" points="245.5,-0.5 245.5,-21.5 346.5,-21.5 346.5,-0.5 245.5,-0.5"/>
<text text-anchor="middle" x="296" y="-8.5" font-family="Helvetica,sans-Serif" font-size="10.00">MojDbInnoEngine</text>
</g>
<!-- Node2 -->
<g id="node2" class="node"><title>Node2</title>
<a xlink:href="classMojDbStorageEngine.htm" target="_top" xlink:title="MojDbStorageEngine">
<polygon fill="white" stroke="black" points="65.5,-98.5 65.5,-119.5 182.5,-119.5 182.5,-98.5 65.5,-98.5"/>
<text text-anchor="middle" x="124" y="-106.5" font-family="Helvetica,sans-Serif" font-size="10.00">MojDbStorageEngine</text>
</a>
</g>
<!-- Node2&#45;&gt;Node1 -->
<g id="edge2" class="edge"><title>Node2&#45;&gt;Node1</title>
<path fill="none" stroke="midnightblue" d="M149.492,-92.76C172.37,-78.381 207.019,-57.0849 238,-40 249.633,-33.5849 262.865,-26.9223 273.75,-21.6033"/>
<polygon fill="midnightblue" stroke="midnightblue" points="147.335,-89.9829 140.746,-98.2803 151.071,-95.9023 147.335,-89.9829"/>
</g>
<!-- Node3 -->
<g id="node4" class="node"><title>Node3</title>
<a xlink:href="classMojRefCounted.htm" target="_top" xlink:title="MojRefCounted">
<polygon fill="white" stroke="black" points="59,-422.5 59,-443.5 149,-443.5 149,-422.5 59,-422.5"/>
<text text-anchor="middle" x="104" y="-430.5" font-family="Helvetica,sans-Serif" font-size="10.00">MojRefCounted</text>
</a>
</g>
<!-- Node3&#45;&gt;Node2 -->
<g id="edge4" class="edge"><title>Node3&#45;&gt;Node2</title>
<path fill="none" stroke="midnightblue" d="M59.9276,-418.532C31.5739,-406.142 0,-385.132 0,-353 0,-353 0,-353 0,-188 0,-150.733 40.3318,-130.278 74.9919,-119.581"/>
<polygon fill="midnightblue" stroke="midnightblue" points="58.7894,-421.848 69.3695,-422.407 61.4471,-415.372 58.7894,-421.848"/>
</g>
<!-- Node7 -->
<g id="node13" class="node"><title>Node7</title>
<a xlink:href="classMojDbStorageEngineFactory.htm" target="_top" xlink:title="MojDbStorageEngineFactory">
<polygon fill="white" stroke="black" points="28,-342.5 28,-363.5 180,-363.5 180,-342.5 28,-342.5"/>
<text text-anchor="middle" x="104" y="-350.5" font-family="Helvetica,sans-Serif" font-size="10.00">MojDbStorageEngineFactory</text>
</a>
</g>
<!-- Node3&#45;&gt;Node7 -->
<g id="edge16" class="edge"><title>Node3&#45;&gt;Node7</title>
<path fill="none" stroke="midnightblue" d="M104,-411.958C104,-396.413 104,-375.897 104,-363.618"/>
<polygon fill="midnightblue" stroke="midnightblue" points="100.5,-412.211 104,-422.211 107.5,-412.211 100.5,-412.211"/>
</g>
<!-- Node4 -->
<g id="node6" class="node"><title>Node4</title>
<a xlink:href="classMojNoCopy.htm" target="_top" xlink:title="MojNoCopy">
<polygon fill="white" stroke="black" points="172,-482.5 172,-503.5 244,-503.5 244,-482.5 172,-482.5"/>
<text text-anchor="middle" x="208" y="-490.5" font-family="Helvetica,sans-Serif" font-size="10.00">MojNoCopy</text>
</a>
</g>
<!-- Node4&#45;&gt;Node3 -->
<g id="edge6" class="edge"><title>Node4&#45;&gt;Node3</title>
<path fill="none" stroke="#8b1a1a" d="M180.619,-477.203C162.259,-466.611 138.576,-452.948 122.432,-443.634"/>
<polygon fill="#8b1a1a" stroke="#8b1a1a" points="178.996,-480.308 189.407,-482.273 182.494,-474.244 178.996,-480.308"/>
</g>
<!-- Node6 -->
<g id="node10" class="node"><title>Node6</title>
<a xlink:href="classMojSmartPtrBase.htm" target="_top" xlink:title="MojSmartPtrBase\&lt; MojDbStorage\lEngineFactory \&gt;">
<polygon fill="white" stroke="black" points="36,-257 36,-291 212,-291 212,-257 36,-257"/>
<text text-anchor="start" x="44" y="-278" font-family="Helvetica,sans-Serif" font-size="10.00">MojSmartPtrBase&lt; MojDbStorage</text>
<text text-anchor="middle" x="124" y="-265" font-family="Helvetica,sans-Serif" font-size="10.00">EngineFactory &gt;</text>
</a>
</g>
<!-- Node4&#45;&gt;Node6 -->
<g id="edge12" class="edge"><title>Node4&#45;&gt;Node6</title>
<path fill="none" stroke="#8b1a1a" d="M209.372,-472.334C210.524,-442.155 209.43,-384.949 189,-342 179.319,-321.648 161.187,-303.478 146.528,-291.051"/>
<polygon fill="#8b1a1a" stroke="#8b1a1a" points="205.868,-472.327 208.857,-482.492 212.859,-472.682 205.868,-472.327"/>
</g>
<!-- Node11 -->
<g id="node22" class="node"><title>Node11</title>
<a xlink:href="classMojLogger.htm" target="_top" xlink:title="MojLogger">
<polygon fill="white" stroke="black" points="223,-382.5 223,-403.5 291,-403.5 291,-382.5 223,-382.5"/>
<text text-anchor="middle" x="257" y="-390.5" font-family="Helvetica,sans-Serif" font-size="10.00">MojLogger</text>
</a>
</g>
<!-- Node4&#45;&gt;Node11 -->
<g id="edge26" class="edge"><title>Node4&#45;&gt;Node11</title>
<path fill="none" stroke="#8b1a1a" d="M217.775,-473.05C228.016,-452.151 243.713,-420.117 251.794,-403.625"/>
<polygon fill="#8b1a1a" stroke="#8b1a1a" points="214.501,-471.778 213.244,-482.298 220.787,-474.858 214.501,-471.778"/>
</g>
<!-- Node5 -->
<g id="node8" class="node"><title>Node5</title>
<a xlink:href="classMojRefCountedPtr.htm" target="_top" xlink:title="MojRefCountedPtr\&lt; MojDbStorage\lEngineFactory \&gt;">
<polygon fill="white" stroke="black" points="34,-171 34,-205 214,-205 214,-171 34,-171"/>
<text text-anchor="start" x="42" y="-192" font-family="Helvetica,sans-Serif" font-size="10.00">MojRefCountedPtr&lt; MojDbStorage</text>
<text text-anchor="middle" x="124" y="-179" font-family="Helvetica,sans-Serif" font-size="10.00">EngineFactory &gt;</text>
</a>
</g>
<!-- Node5&#45;&gt;Node2 -->
<g id="edge8" class="edge"><title>Node5&#45;&gt;Node2</title>
<path fill="none" stroke="#9a32cd" stroke-dasharray="5,2" d="M124,-160.623C124,-146.473 124,-130.024 124,-119.567"/>
<polygon fill="#9a32cd" stroke="#9a32cd" points="120.5,-160.858 124,-170.858 127.5,-160.858 120.5,-160.858"/>
<text text-anchor="middle" x="149" y="-142.5" font-family="Helvetica,sans-Serif" font-size="10.00"> m_factory</text>
</g>
<!-- Node6&#45;&gt;Node5 -->
<g id="edge10" class="edge"><title>Node6&#45;&gt;Node5</title>
<path fill="none" stroke="midnightblue" d="M124,-246.342C124,-232.774 124,-216.861 124,-205.084"/>
<polygon fill="midnightblue" stroke="midnightblue" points="120.5,-246.597 124,-256.597 127.5,-246.597 120.5,-246.597"/>
</g>
<!-- Node7&#45;&gt;Node6 -->
<g id="edge14" class="edge"><title>Node7&#45;&gt;Node6</title>
<path fill="none" stroke="#9a32cd" stroke-dasharray="5,2" d="M109.178,-332.549C112.433,-319.691 116.584,-303.293 119.665,-291.124"/>
<polygon fill="#9a32cd" stroke="#9a32cd" points="105.759,-331.793 106.697,-342.346 112.545,-333.511 105.759,-331.793"/>
<text text-anchor="middle" x="127" y="-314.5" font-family="Helvetica,sans-Serif" font-size="10.00"> m_p</text>
</g>
<!-- Node8 -->
<g id="node16" class="node"><title>Node8</title>
<polygon fill="white" stroke="#bfbfbf" points="280,-98.5 280,-119.5 334,-119.5 334,-98.5 280,-98.5"/>
<text text-anchor="middle" x="307" y="-106.5" font-family="Helvetica,sans-Serif" font-size="10.00">MojSize</text>
</g>
<!-- Node8&#45;&gt;Node1 -->
<g id="edge18" class="edge"><title>Node8&#45;&gt;Node1</title>
<path fill="none" stroke="#9a32cd" stroke-dasharray="5,2" d="M299.18,-88.9747C298.289,-86.005 297.516,-82.9508 297,-80 293.447,-59.7022 294.217,-35.5319 295.105,-21.8555"/>
<polygon fill="#9a32cd" stroke="#9a32cd" points="295.888,-90.1658 302.465,-98.4723 302.503,-87.8775 295.888,-90.1658"/>
<text text-anchor="middle" x="377.5" y="-70.5" font-family="Helvetica,sans-Serif" font-size="10.00"> CfgBufferPoolSizeDefault</text>
<text text-anchor="middle" x="377.5" y="-57.5" font-family="Helvetica,sans-Serif" font-size="10.00">CfgLogFileSizeDefault</text>
<text text-anchor="middle" x="377.5" y="-44.5" font-family="Helvetica,sans-Serif" font-size="10.00">CfgAdditionalMemPoolSizeDefault</text>
</g>
<!-- Node9 -->
<g id="node18" class="node"><title>Node9</title>
<polygon fill="white" stroke="#bfbfbf" points="461,-98.5 461,-119.5 499,-119.5 499,-98.5 461,-98.5"/>
<text text-anchor="middle" x="480" y="-106.5" font-family="Helvetica,sans-Serif" font-size="10.00">char</text>
</g>
<!-- Node9&#45;&gt;Node1 -->
<g id="edge20" class="edge"><title>Node9&#45;&gt;Node1</title>
<path fill="none" stroke="#9a32cd" stroke-dasharray="5,2" d="M478.905,-88.0598C476.936,-72.5126 471.696,-52.0036 458,-40 441.723,-25.7345 387.975,-18.1971 346.807,-14.4206"/>
<polygon fill="#9a32cd" stroke="#9a32cd" points="475.446,-88.6679 479.835,-98.311 482.417,-88.0358 475.446,-88.6679"/>
<text text-anchor="middle" x="522.5" y="-57.5" font-family="Helvetica,sans-Serif" font-size="10.00"> SequenceDbName</text>
</g>
<!-- Node10 -->
<g id="node20" class="node"><title>Node10</title>
<polygon fill="white" stroke="#bfbfbf" points="533,-98.5 533,-119.5 655,-119.5 655,-98.5 533,-98.5"/>
<text text-anchor="middle" x="594" y="-106.5" font-family="Helvetica,sans-Serif" font-size="10.00">static const MojUInt32</text>
</g>
<!-- Node10&#45;&gt;Node1 -->
<g id="edge22" class="edge"><title>Node10&#45;&gt;Node1</title>
<path fill="none" stroke="#9a32cd" stroke-dasharray="5,2" d="M593.176,-88.036C591.363,-72.304 586.2,-51.5636 572,-40 554.931,-26.1003 421.581,-17.2671 346.666,-13.3502"/>
<polygon fill="#9a32cd" stroke="#9a32cd" points="589.718,-88.7061 593.985,-98.4034 596.697,-88.1613 589.718,-88.7061"/>
<text text-anchor="middle" x="654.5" y="-70.5" font-family="Helvetica,sans-Serif" font-size="10.00"> CfgWriteIoThreadsDefault</text>
<text text-anchor="middle" x="654.5" y="-57.5" font-family="Helvetica,sans-Serif" font-size="10.00">CfgFileIoThreadsDefault</text>
<text text-anchor="middle" x="654.5" y="-44.5" font-family="Helvetica,sans-Serif" font-size="10.00">CfgReadIoThreadsDefault</text>
</g>
<!-- Node11&#45;&gt;Node1 -->
<g id="edge24" class="edge"><title>Node11&#45;&gt;Node1</title>
<path fill="none" stroke="#9a32cd" stroke-dasharray="5,2" d="M254.858,-371.812C253.501,-356.581 252,-335.545 252,-317 252,-317 252,-317 252,-109 252,-74.6839 274.73,-39.0702 287.516,-21.752"/>
<polygon fill="#9a32cd" stroke="#9a32cd" points="251.413,-372.566 255.84,-382.191 258.382,-371.906 251.413,-372.566"/>
<text text-anchor="middle" x="266.5" y="-228.5" font-family="Helvetica,sans-Serif" font-size="10.00"> s_log</text>
</g>
</g>
</svg>
