<?xml version="1.0" encoding="UTF-8" standalone="no"?>
<!DOCTYPE svg PUBLIC "-//W3C//DTD SVG 1.1//EN"
 "http://www.w3.org/Graphics/SVG/1.1/DTD/svg11.dtd">
<!-- Generated by graphviz version 2.26.3 (20100126.1600)
 -->
<!-- Title: MojLunaRequest Pages: 1 -->
<svg width="248pt" height="282pt"
 viewBox="0.00 0.00 248.00 282.00" xmlns="http://www.w3.org/2000/svg" xmlns:xlink="http://www.w3.org/1999/xlink">
<g id="graph1" class="graph" transform="scale(1 1) rotate(0) translate(4 278)">
<title>MojLunaRequest</title>
<polygon fill="white" stroke="white" points="-4,5 -4,-278 245,-278 245,5 -4,5"/>
<!-- Node1 -->
<g id="node1" class="node"><title>Node1</title>
<polygon fill="#bfbfbf" stroke="black" points="98,-0.5 98,-21.5 194,-21.5 194,-0.5 98,-0.5"/>
<text text-anchor="middle" x="146" y="-8.5" font-family="Helvetica,sans-Serif" font-size="10.00">MojLunaRequest</text>
</g>
<!-- Node2 -->
<g id="node2" class="node"><title>Node2</title>
<a xlink:href="classMojServiceRequest.htm" target="_top" xlink:title="MojServiceRequest">
<polygon fill="white" stroke="black" points="92,-60.5 92,-81.5 200,-81.5 200,-60.5 92,-60.5"/>
<text text-anchor="middle" x="146" y="-68.5" font-family="Helvetica,sans-Serif" font-size="10.00">MojServiceRequest</text>
</a>
</g>
<!-- Node2&#45;&gt;Node1 -->
<g id="edge2" class="edge"><title>Node2&#45;&gt;Node1</title>
<path fill="none" stroke="midnightblue" d="M146,-50.2312C146,-40.5922 146,-29.5444 146,-21.6339"/>
<polygon fill="midnightblue" stroke="midnightblue" points="142.5,-50.2732 146,-60.2732 149.5,-50.2732 142.5,-50.2732"/>
</g>
<!-- Node3 -->
<g id="node4" class="node"><title>Node3</title>
<a xlink:href="classMojSignalHandler.htm" target="_top" xlink:title="MojSignalHandler">
<polygon fill="white" stroke="black" points="-0.5,-132.5 -0.5,-153.5 100.5,-153.5 100.5,-132.5 -0.5,-132.5"/>
<text text-anchor="middle" x="50" y="-140.5" font-family="Helvetica,sans-Serif" font-size="10.00">MojSignalHandler</text>
</a>
</g>
<!-- Node3&#45;&gt;Node2 -->
<g id="edge4" class="edge"><title>Node3&#45;&gt;Node2</title>
<path fill="none" stroke="midnightblue" d="M72.5285,-126.104C90.8547,-112.359 116.155,-93.384 131.777,-81.6674"/>
<polygon fill="midnightblue" stroke="midnightblue" points="70.0651,-123.576 64.1651,-132.376 74.2652,-129.176 70.0651,-123.576"/>
</g>
<!-- Node4 -->
<g id="node6" class="node"><title>Node4</title>
<a xlink:href="classMojRefCounted.htm" target="_top" xlink:title="MojRefCounted">
<polygon fill="white" stroke="black" points="5,-192.5 5,-213.5 95,-213.5 95,-192.5 5,-192.5"/>
<text text-anchor="middle" x="50" y="-200.5" font-family="Helvetica,sans-Serif" font-size="10.00">MojRefCounted</text>
</a>
</g>
<!-- Node4&#45;&gt;Node3 -->
<g id="edge6" class="edge"><title>Node4&#45;&gt;Node3</title>
<path fill="none" stroke="midnightblue" d="M50,-182.231C50,-172.592 50,-161.544 50,-153.634"/>
<polygon fill="midnightblue" stroke="midnightblue" points="46.5001,-182.273 50,-192.273 53.5001,-182.273 46.5001,-182.273"/>
</g>
<!-- Node5 -->
<g id="node8" class="node"><title>Node5</title>
<a xlink:href="classMojNoCopy.htm" target="_top" xlink:title="MojNoCopy">
<polygon fill="white" stroke="black" points="14,-252.5 14,-273.5 86,-273.5 86,-252.5 14,-252.5"/>
<text text-anchor="middle" x="50" y="-260.5" font-family="Helvetica,sans-Serif" font-size="10.00">MojNoCopy</text>
</a>
</g>
<!-- Node5&#45;&gt;Node4 -->
<g id="edge8" class="edge"><title>Node5&#45;&gt;Node4</title>
<path fill="none" stroke="#8b1a1a" d="M50,-242.231C50,-232.592 50,-221.544 50,-213.634"/>
<polygon fill="#8b1a1a" stroke="#8b1a1a" points="46.5001,-242.273 50,-252.273 53.5001,-242.273 46.5001,-242.273"/>
</g>
<!-- Node6 -->
<g id="node10" class="node"><title>Node6</title>
<polygon fill="white" stroke="#bfbfbf" points="118,-132.5 118,-153.5 240,-153.5 240,-132.5 118,-132.5"/>
<text text-anchor="middle" x="179" y="-140.5" font-family="Helvetica,sans-Serif" font-size="10.00">static const MojUInt32</text>
</g>
<!-- Node6&#45;&gt;Node2 -->
<g id="edge10" class="edge"><title>Node6&#45;&gt;Node2</title>
<path fill="none" stroke="#9a32cd" stroke-dasharray="5,2" d="M169.846,-123.027C163.709,-109.637 155.869,-92.5318 150.889,-81.6674"/>
<polygon fill="#9a32cd" stroke="#9a32cd" points="166.782,-124.744 174.131,-132.376 173.146,-121.827 166.782,-124.744"/>
<text text-anchor="middle" x="188.5" y="-104.5" font-family="Helvetica,sans-Serif" font-size="10.00"> Unlimited</text>
</g>
</g>
</svg>
