<?xml version="1.0" encoding="UTF-8" standalone="no"?>
<!DOCTYPE svg PUBLIC "-//W3C//DTD SVG 1.1//EN"
 "http://www.w3.org/Graphics/SVG/1.1/DTD/svg11.dtd">
<!-- Generated by graphviz version 2.26.3 (20100126.1600)
 -->
<!-- Title: MojApp Pages: 1 -->
<svg width="378pt" height="262pt"
 viewBox="0.00 0.00 378.00 262.00" xmlns="http://www.w3.org/2000/svg" xmlns:xlink="http://www.w3.org/1999/xlink">
<g id="graph1" class="graph" transform="scale(1 1) rotate(0) translate(4 258)">
<title>MojApp</title>
<polygon fill="white" stroke="white" points="-4,5 -4,-258 375,-258 375,5 -4,5"/>
<!-- Node1 -->
<g id="node1" class="node"><title>Node1</title>
<polygon fill="#bfbfbf" stroke="black" points="202.5,-174.5 202.5,-195.5 255.5,-195.5 255.5,-174.5 202.5,-174.5"/>
<text text-anchor="middle" x="229" y="-182.5" font-family="Helvetica,sans-Serif" font-size="10.00">MojApp</text>
</g>
<!-- Node3 -->
<g id="node5" class="node"><title>Node3</title>
<a xlink:href="classMojServiceApp.htm" target="_top" xlink:title="MojServiceApp">
<polygon fill="white" stroke="black" points="132,-116.5 132,-137.5 220,-137.5 220,-116.5 132,-116.5"/>
<text text-anchor="middle" x="176" y="-124.5" font-family="Helvetica,sans-Serif" font-size="10.00">MojServiceApp</text>
</a>
</g>
<!-- Node1&#45;&gt;Node3 -->
<g id="edge4" class="edge"><title>Node1&#45;&gt;Node3</title>
<path fill="none" stroke="midnightblue" d="M212.396,-166.83C203.604,-157.208 193.114,-145.728 185.659,-137.571"/>
<polygon fill="midnightblue" stroke="midnightblue" points="209.949,-169.341 219.279,-174.362 215.117,-164.619 209.949,-169.341"/>
</g>
<!-- Node7 -->
<g id="node13" class="node"><title>Node7</title>
<a xlink:href="classMojTestRunner.htm" target="_top" xlink:title="MojTestRunner">
<polygon fill="white" stroke="black" points="237.5,-116.5 237.5,-137.5 326.5,-137.5 326.5,-116.5 237.5,-116.5"/>
<text text-anchor="middle" x="282" y="-124.5" font-family="Helvetica,sans-Serif" font-size="10.00">MojTestRunner</text>
</a>
</g>
<!-- Node1&#45;&gt;Node7 -->
<g id="edge12" class="edge"><title>Node1&#45;&gt;Node7</title>
<path fill="none" stroke="midnightblue" d="M245.604,-166.83C254.396,-157.208 264.886,-145.728 272.341,-137.571"/>
<polygon fill="midnightblue" stroke="midnightblue" points="242.883,-164.619 238.721,-174.362 248.051,-169.341 242.883,-164.619"/>
</g>
<!-- Node2 -->
<g id="node2" class="node"><title>Node2</title>
<a xlink:href="classMojNoCopy.htm" target="_top" xlink:title="MojNoCopy">
<polygon fill="white" stroke="black" points="193,-232.5 193,-253.5 265,-253.5 265,-232.5 193,-232.5"/>
<text text-anchor="middle" x="229" y="-240.5" font-family="Helvetica,sans-Serif" font-size="10.00">MojNoCopy</text>
</a>
</g>
<!-- Node2&#45;&gt;Node1 -->
<g id="edge2" class="edge"><title>Node2&#45;&gt;Node1</title>
<path fill="none" stroke="#8b1a1a" d="M229,-222.191C229,-213.168 229,-202.994 229,-195.571"/>
<polygon fill="#8b1a1a" stroke="#8b1a1a" points="225.5,-222.362 229,-232.362 232.5,-222.362 225.5,-222.362"/>
</g>
<!-- Node4 -->
<g id="node7" class="node"><title>Node4</title>
<a xlink:href="classMojReactorApp.htm" target="_top" xlink:title="MojReactorApp\&lt; REACTOR \&gt;">
<polygon fill="white" stroke="black" points="-0.5,-58.5 -0.5,-79.5 158.5,-79.5 158.5,-58.5 -0.5,-58.5"/>
<text text-anchor="middle" x="79" y="-66.5" font-family="Helvetica,sans-Serif" font-size="10.00">MojReactorApp&lt; REACTOR &gt;</text>
</a>
</g>
<!-- Node3&#45;&gt;Node4 -->
<g id="edge6" class="edge"><title>Node3&#45;&gt;Node4</title>
<path fill="none" stroke="midnightblue" d="M149.41,-111.101C132.627,-101.066 111.413,-88.3808 96.6785,-79.5707"/>
<polygon fill="midnightblue" stroke="midnightblue" points="147.83,-114.234 158.209,-116.362 151.422,-108.226 147.83,-114.234"/>
</g>
<!-- Node5 -->
<g id="node9" class="node"><title>Node5</title>
<a xlink:href="classMojReactorApp.htm" target="_top" xlink:title="MojReactorApp\&lt; MojGmainReactor \&gt;">
<polygon fill="white" stroke="black" points="176,-58.5 176,-79.5 370,-79.5 370,-58.5 176,-58.5"/>
<text text-anchor="middle" x="273" y="-66.5" font-family="Helvetica,sans-Serif" font-size="10.00">MojReactorApp&lt; MojGmainReactor &gt;</text>
</a>
</g>
<!-- Node3&#45;&gt;Node5 -->
<g id="edge8" class="edge"><title>Node3&#45;&gt;Node5</title>
<path fill="none" stroke="midnightblue" d="M202.59,-111.101C219.373,-101.066 240.587,-88.3808 255.321,-79.5707"/>
<polygon fill="midnightblue" stroke="midnightblue" points="200.578,-108.226 193.791,-116.362 204.17,-114.234 200.578,-108.226"/>
</g>
<!-- Node6 -->
<g id="node11" class="node"><title>Node6</title>
<a xlink:href="classMojDbLunaServiceApp.htm" target="_top" xlink:title="MojDbLunaServiceApp">
<polygon fill="white" stroke="black" points="211,-0.5 211,-21.5 335,-21.5 335,-0.5 211,-0.5"/>
<text text-anchor="middle" x="273" y="-8.5" font-family="Helvetica,sans-Serif" font-size="10.00">MojDbLunaServiceApp</text>
</a>
</g>
<!-- Node5&#45;&gt;Node6 -->
<g id="edge10" class="edge"><title>Node5&#45;&gt;Node6</title>
<path fill="none" stroke="midnightblue" d="M273,-48.1906C273,-39.1684 273,-28.9941 273,-21.5707"/>
<polygon fill="midnightblue" stroke="midnightblue" points="269.5,-48.3619 273,-58.3619 276.5,-48.3619 269.5,-48.3619"/>
</g>
</g>
</svg>
