<?xml version="1.0" encoding="UTF-8" standalone="no"?>
<!DOCTYPE svg PUBLIC "-//W3C//DTD SVG 1.1//EN"
 "http://www.w3.org/Graphics/SVG/1.1/DTD/svg11.dtd">
<!-- Generated by graphviz version 2.26.3 (20100126.1600)
 -->
<!-- Title: MojService::CategoryHandler Pages: 1 -->
<svg width="262pt" height="248pt"
 viewBox="0.00 0.00 262.00 248.00" xmlns="http://www.w3.org/2000/svg" xmlns:xlink="http://www.w3.org/1999/xlink">
<g id="graph1" class="graph" transform="scale(1 1) rotate(0) translate(4 244)">
<title>MojService::CategoryHandler</title>
<polygon fill="white" stroke="white" points="-4,5 -4,-244 259,-244 259,5 -4,5"/>
<!-- Node1 -->
<g id="node1" class="node"><title>Node1</title>
<polygon fill="#bfbfbf" stroke="black" points="52.5,-0.5 52.5,-21.5 207.5,-21.5 207.5,-0.5 52.5,-0.5"/>
<text text-anchor="middle" x="130" y="-8.5" font-family="Helvetica,sans-Serif" font-size="10.00">MojService::CategoryHandler</text>
</g>
<!-- Node2 -->
<g id="node2" class="node"><title>Node2</title>
<a xlink:href="classMojSignalHandler.htm" target="_top" xlink:title="MojSignalHandler">
<polygon fill="white" stroke="black" points="-0.5,-85.5 -0.5,-106.5 100.5,-106.5 100.5,-85.5 -0.5,-85.5"/>
<text text-anchor="middle" x="50" y="-93.5" font-family="Helvetica,sans-Serif" font-size="10.00">MojSignalHandler</text>
</a>
</g>
<!-- Node2&#45;&gt;Node1 -->
<g id="edge2" class="edge"><title>Node2&#45;&gt;Node1</title>
<path fill="none" stroke="midnightblue" d="M67.3606,-77.5544C83.4302,-60.4804 106.768,-35.684 119.95,-21.6779"/>
<polygon fill="midnightblue" stroke="midnightblue" points="64.437,-75.5539 60.1321,-85.2347 69.5344,-80.3515 64.437,-75.5539"/>
</g>
<!-- Node3 -->
<g id="node4" class="node"><title>Node3</title>
<a xlink:href="classMojRefCounted.htm" target="_top" xlink:title="MojRefCounted">
<polygon fill="white" stroke="black" points="5,-158.5 5,-179.5 95,-179.5 95,-158.5 5,-158.5"/>
<text text-anchor="middle" x="50" y="-166.5" font-family="Helvetica,sans-Serif" font-size="10.00">MojRefCounted</text>
</a>
</g>
<!-- Node3&#45;&gt;Node2 -->
<g id="edge4" class="edge"><title>Node3&#45;&gt;Node2</title>
<path fill="none" stroke="midnightblue" d="M50,-147.946C50,-134.496 50,-117.615 50,-106.816"/>
<polygon fill="midnightblue" stroke="midnightblue" points="46.5001,-148.229 50,-158.229 53.5001,-148.229 46.5001,-148.229"/>
</g>
<!-- Node4 -->
<g id="node6" class="node"><title>Node4</title>
<a xlink:href="classMojNoCopy.htm" target="_top" xlink:title="MojNoCopy">
<polygon fill="white" stroke="black" points="14,-218.5 14,-239.5 86,-239.5 86,-218.5 14,-218.5"/>
<text text-anchor="middle" x="50" y="-226.5" font-family="Helvetica,sans-Serif" font-size="10.00">MojNoCopy</text>
</a>
</g>
<!-- Node4&#45;&gt;Node3 -->
<g id="edge6" class="edge"><title>Node4&#45;&gt;Node3</title>
<path fill="none" stroke="#8b1a1a" d="M50,-208.231C50,-198.592 50,-187.544 50,-179.634"/>
<polygon fill="#8b1a1a" stroke="#8b1a1a" points="46.5001,-208.273 50,-218.273 53.5001,-208.273 46.5001,-208.273"/>
</g>
<!-- Node5 -->
<g id="node8" class="node"><title>Node5</title>
<a xlink:href="classMojHashMap.htm" target="_top" xlink:title="MojHashMap\&lt; MojString,\l CallbackInfo, const\l MojChar * \&gt;">
<polygon fill="white" stroke="black" points="118,-72.5 118,-119.5 254,-119.5 254,-72.5 118,-72.5"/>
<text text-anchor="start" x="126" y="-106.5" font-family="Helvetica,sans-Serif" font-size="10.00">MojHashMap&lt; MojString,</text>
<text text-anchor="start" x="126" y="-93.5" font-family="Helvetica,sans-Serif" font-size="10.00"> CallbackInfo, const</text>
<text text-anchor="middle" x="186" y="-80.5" font-family="Helvetica,sans-Serif" font-size="10.00"> MojChar * &gt;</text>
</a>
</g>
<!-- Node5&#45;&gt;Node1 -->
<g id="edge8" class="edge"><title>Node5&#45;&gt;Node1</title>
<path fill="none" stroke="#9a32cd" stroke-dasharray="5,2" d="M164.835,-63.8747C155.085,-49.0756 144.157,-32.4889 137.185,-21.9057"/>
<polygon fill="#9a32cd" stroke="#9a32cd" points="161.977,-65.8977 170.401,-72.3228 167.822,-62.0466 161.977,-65.8977"/>
<text text-anchor="middle" x="196" y="-44.5" font-family="Helvetica,sans-Serif" font-size="10.00"> m_callbackMap</text>
</g>
<!-- Node6 -->
<g id="node10" class="node"><title>Node6</title>
<a xlink:href="classMojHashBase.htm" target="_top" xlink:title="MojHashBase">
<polygon fill="white" stroke="black" points="144.5,-158.5 144.5,-179.5 227.5,-179.5 227.5,-158.5 144.5,-158.5"/>
<text text-anchor="middle" x="186" y="-166.5" font-family="Helvetica,sans-Serif" font-size="10.00">MojHashBase</text>
</a>
</g>
<!-- Node6&#45;&gt;Node5 -->
<g id="edge10" class="edge"><title>Node6&#45;&gt;Node5</title>
<path fill="none" stroke="#8b1a1a" d="M186,-148.053C186,-139.23 186,-128.915 186,-119.805"/>
<polygon fill="#8b1a1a" stroke="#8b1a1a" points="182.5,-148.229 186,-158.229 189.5,-148.229 182.5,-148.229"/>
</g>
</g>
</svg>
