<?xml version="1.0" encoding="UTF-8" standalone="no"?>
<!DOCTYPE svg PUBLIC "-//W3C//DTD SVG 1.1//EN"
 "http://www.w3.org/Graphics/SVG/1.1/DTD/svg11.dtd">
<!-- Generated by graphviz version 2.26.3 (20100126.1600)
 -->
<!-- Title: MojDbPropExtractor Pages: 1 -->
<svg width="469pt" height="290pt"
 viewBox="0.00 0.00 469.00 290.00" xmlns="http://www.w3.org/2000/svg" xmlns:xlink="http://www.w3.org/1999/xlink">
<g id="graph1" class="graph" transform="scale(1 1) rotate(0) translate(4 286)">
<title>MojDbPropExtractor</title>
<polygon fill="white" stroke="white" points="-4,5 -4,-286 466,-286 466,5 -4,5"/>
<!-- Node1 -->
<g id="node1" class="node"><title>Node1</title>
<polygon fill="#bfbfbf" stroke="black" points="313,-0.5 313,-21.5 425,-21.5 425,-0.5 313,-0.5"/>
<text text-anchor="middle" x="369" y="-8.5" font-family="Helvetica,sans-Serif" font-size="10.00">MojDbPropExtractor</text>
</g>
<!-- Node2 -->
<g id="node2" class="node"><title>Node2</title>
<a xlink:href="classMojDbExtractor.htm" target="_top" xlink:title="MojDbExtractor">
<polygon fill="white" stroke="black" points="222.5,-88.5 222.5,-109.5 311.5,-109.5 311.5,-88.5 222.5,-88.5"/>
<text text-anchor="middle" x="267" y="-96.5" font-family="Helvetica,sans-Serif" font-size="10.00">MojDbExtractor</text>
</a>
</g>
<!-- Node2&#45;&gt;Node1 -->
<g id="edge2" class="edge"><title>Node2&#45;&gt;Node1</title>
<path fill="none" stroke="midnightblue" d="M287.121,-81.6404C307.837,-63.7684 339.452,-36.4925 356.709,-21.6039"/>
<polygon fill="midnightblue" stroke="midnightblue" points="284.792,-79.027 279.507,-88.2095 289.365,-84.3272 284.792,-79.027"/>
</g>
<!-- Node3 -->
<g id="node4" class="node"><title>Node3</title>
<a xlink:href="classMojRefCounted.htm" target="_top" xlink:title="MojRefCounted">
<polygon fill="white" stroke="black" points="0,-200.5 0,-221.5 90,-221.5 90,-200.5 0,-200.5"/>
<text text-anchor="middle" x="45" y="-208.5" font-family="Helvetica,sans-Serif" font-size="10.00">MojRefCounted</text>
</a>
</g>
<!-- Node3&#45;&gt;Node2 -->
<g id="edge4" class="edge"><title>Node3&#45;&gt;Node2</title>
<path fill="none" stroke="midnightblue" d="M74.9859,-195.872C120.635,-172.842 206.424,-129.561 246.009,-109.59"/>
<polygon fill="midnightblue" stroke="midnightblue" points="73.2368,-192.834 65.8852,-200.463 76.3899,-199.084 73.2368,-192.834"/>
</g>
<!-- Node4 -->
<g id="node6" class="node"><title>Node4</title>
<a xlink:href="classMojNoCopy.htm" target="_top" xlink:title="MojNoCopy">
<polygon fill="white" stroke="black" points="9,-260.5 9,-281.5 81,-281.5 81,-260.5 9,-260.5"/>
<text text-anchor="middle" x="45" y="-268.5" font-family="Helvetica,sans-Serif" font-size="10.00">MojNoCopy</text>
</a>
</g>
<!-- Node4&#45;&gt;Node3 -->
<g id="edge6" class="edge"><title>Node4&#45;&gt;Node3</title>
<path fill="none" stroke="#8b1a1a" d="M45,-250.231C45,-240.592 45,-229.544 45,-221.634"/>
<polygon fill="#8b1a1a" stroke="#8b1a1a" points="41.5001,-250.273 45,-260.273 48.5001,-250.273 41.5001,-250.273"/>
</g>
<!-- Node5 -->
<g id="node8" class="node"><title>Node5</title>
<polygon fill="white" stroke="#bfbfbf" points="108,-200.5 108,-221.5 236,-221.5 236,-200.5 108,-200.5"/>
<text text-anchor="middle" x="172" y="-208.5" font-family="Helvetica,sans-Serif" font-size="10.00">MojDbCollationStrength</text>
</g>
<!-- Node5&#45;&gt;Node2 -->
<g id="edge8" class="edge"><title>Node5&#45;&gt;Node2</title>
<path fill="none" stroke="#9a32cd" stroke-dasharray="5,2" d="M181.218,-191.061C186.743,-180.152 194.365,-166.717 203,-156 217.75,-137.694 238.672,-120.272 252.528,-109.616"/>
<polygon fill="#9a32cd" stroke="#9a32cd" points="177.99,-189.695 176.764,-200.219 184.285,-192.757 177.99,-189.695"/>
<text text-anchor="middle" x="231.5" y="-166.5" font-family="Helvetica,sans-Serif" font-size="10.00"> m_collation</text>
</g>
<!-- Node6 -->
<g id="node10" class="node"><title>Node6</title>
<a xlink:href="classMojString.htm" target="_top" xlink:title="MojString">
<polygon fill="white" stroke="black" points="254,-200.5 254,-221.5 316,-221.5 316,-200.5 254,-200.5"/>
<text text-anchor="middle" x="285" y="-208.5" font-family="Helvetica,sans-Serif" font-size="10.00">MojString</text>
</a>
</g>
<!-- Node6&#45;&gt;Node2 -->
<g id="edge10" class="edge"><title>Node6&#45;&gt;Node2</title>
<path fill="none" stroke="#9a32cd" stroke-dasharray="5,2" d="M271.849,-191.644C270.275,-188.533 268.907,-185.261 268,-182 261.014,-156.869 263.407,-125.784 265.408,-109.727"/>
<polygon fill="#9a32cd" stroke="#9a32cd" points="268.858,-193.462 276.935,-200.319 274.897,-189.922 268.858,-193.462"/>
<text text-anchor="middle" x="290" y="-166.5" font-family="Helvetica,sans-Serif" font-size="10.00"> m_name</text>
</g>
<!-- Node6&#45;&gt;Node6 -->
<g id="edge12" class="edge"><title>Node6&#45;&gt;Node6</title>
<path fill="none" stroke="#9a32cd" stroke-dasharray="5,2" d="M326.153,-215.792C330.909,-214.905 334,-213.307 334,-211 334,-207.309 326.087,-205.434 316.102,-205.376"/>
<polygon fill="#9a32cd" stroke="#9a32cd" points="325.779,-212.311 316.102,-216.624 326.357,-219.287 325.779,-212.311"/>
<text text-anchor="middle" x="350.5" y="-208.5" font-family="Helvetica,sans-Serif" font-size="10.00"> Empty</text>
</g>
<!-- Node7 -->
<g id="node13" class="node"><title>Node7</title>
<polygon fill="white" stroke="#bfbfbf" points="385,-200.5 385,-221.5 423,-221.5 423,-200.5 385,-200.5"/>
<text text-anchor="middle" x="404" y="-208.5" font-family="Helvetica,sans-Serif" font-size="10.00">char</text>
</g>
<!-- Node7&#45;&gt;Node1 -->
<g id="edge16" class="edge"><title>Node7&#45;&gt;Node1</title>
<path fill="none" stroke="#9a32cd" stroke-dasharray="5,2" d="M400.375,-190.285C393.001,-148.151 376.482,-53.7533 370.891,-21.806"/>
<polygon fill="#9a32cd" stroke="#9a32cd" points="396.947,-191 402.118,-200.247 403.842,-189.793 396.947,-191"/>
<text text-anchor="middle" x="426" y="-129" font-family="Helvetica,sans-Serif" font-size="10.00"> PrimaryKey</text>
<text text-anchor="middle" x="426" y="-116" font-family="Helvetica,sans-Serif" font-size="10.00">DefaultKey</text>
<text text-anchor="middle" x="426" y="-103" font-family="Helvetica,sans-Serif" font-size="10.00">TokenizeKey</text>
<text text-anchor="middle" x="426" y="-90" font-family="Helvetica,sans-Serif" font-size="10.00">AllKey</text>
<text text-anchor="middle" x="426" y="-77" font-family="Helvetica,sans-Serif" font-size="10.00">TertiaryKey</text>
<text text-anchor="middle" x="426" y="-64" font-family="Helvetica,sans-Serif" font-size="10.00">SecondaryKey</text>
</g>
<!-- Node7&#45;&gt;Node2 -->
<g id="edge14" class="edge"><title>Node7&#45;&gt;Node2</title>
<path fill="none" stroke="#9a32cd" stroke-dasharray="5,2" d="M375.647,-199.833C358.229,-192.843 338.581,-184.672 335,-182 327.685,-176.541 291.711,-130.788 275.25,-109.641"/>
<polygon fill="#9a32cd" stroke="#9a32cd" points="374.393,-203.101 384.978,-203.553 376.985,-196.599 374.393,-203.101"/>
<text text-anchor="middle" x="362.5" y="-173" font-family="Helvetica,sans-Serif" font-size="10.00"> CollateKey</text>
<text text-anchor="middle" x="362.5" y="-160" font-family="Helvetica,sans-Serif" font-size="10.00">NameKey</text>
</g>
</g>
</svg>
