<?xml version="1.0" encoding="UTF-8" standalone="no"?>
<!DOCTYPE svg PUBLIC "-//W3C//DTD SVG 1.1//EN"
 "http://www.w3.org/Graphics/SVG/1.1/DTD/svg11.dtd">
<!-- Generated by graphviz version 2.26.3 (20100126.1600)
 -->
<!-- Title: MojService::CategoryHandler Pages: 1 -->
<svg width="298pt" height="320pt"
 viewBox="0.00 0.00 298.00 320.00" xmlns="http://www.w3.org/2000/svg" xmlns:xlink="http://www.w3.org/1999/xlink">
<g id="graph1" class="graph" transform="scale(1 1) rotate(0) translate(4 316)">
<title>MojService::CategoryHandler</title>
<polygon fill="white" stroke="white" points="-4,5 -4,-316 295,-316 295,5 -4,5"/>
<!-- Node1 -->
<g id="node1" class="node"><title>Node1</title>
<polygon fill="#bfbfbf" stroke="black" points="58.5,-116.5 58.5,-137.5 213.5,-137.5 213.5,-116.5 58.5,-116.5"/>
<text text-anchor="middle" x="136" y="-124.5" font-family="Helvetica,sans-Serif" font-size="10.00">MojService::CategoryHandler</text>
</g>
<!-- Node5 -->
<g id="node9" class="node"><title>Node5</title>
<a xlink:href="classMojDbServiceHandlerBase.htm" target="_top" xlink:title="MojDbServiceHandlerBase">
<polygon fill="white" stroke="black" points="64.5,-58.5 64.5,-79.5 207.5,-79.5 207.5,-58.5 64.5,-58.5"/>
<text text-anchor="middle" x="136" y="-66.5" font-family="Helvetica,sans-Serif" font-size="10.00">MojDbServiceHandlerBase</text>
</a>
</g>
<!-- Node1&#45;&gt;Node5 -->
<g id="edge8" class="edge"><title>Node1&#45;&gt;Node5</title>
<path fill="none" stroke="midnightblue" d="M136,-106.191C136,-97.1684 136,-86.9941 136,-79.5707"/>
<polygon fill="midnightblue" stroke="midnightblue" points="132.5,-106.362 136,-116.362 139.5,-106.362 132.5,-106.362"/>
</g>
<!-- Node2 -->
<g id="node2" class="node"><title>Node2</title>
<a xlink:href="classMojSignalHandler.htm" target="_top" xlink:title="MojSignalHandler">
<polygon fill="white" stroke="black" points="85.5,-174.5 85.5,-195.5 186.5,-195.5 186.5,-174.5 85.5,-174.5"/>
<text text-anchor="middle" x="136" y="-182.5" font-family="Helvetica,sans-Serif" font-size="10.00">MojSignalHandler</text>
</a>
</g>
<!-- Node2&#45;&gt;Node1 -->
<g id="edge2" class="edge"><title>Node2&#45;&gt;Node1</title>
<path fill="none" stroke="midnightblue" d="M136,-164.191C136,-155.168 136,-144.994 136,-137.571"/>
<polygon fill="midnightblue" stroke="midnightblue" points="132.5,-164.362 136,-174.362 139.5,-164.362 132.5,-164.362"/>
</g>
<!-- Node3 -->
<g id="node4" class="node"><title>Node3</title>
<a xlink:href="classMojRefCounted.htm" target="_top" xlink:title="MojRefCounted">
<polygon fill="white" stroke="black" points="91,-232.5 91,-253.5 181,-253.5 181,-232.5 91,-232.5"/>
<text text-anchor="middle" x="136" y="-240.5" font-family="Helvetica,sans-Serif" font-size="10.00">MojRefCounted</text>
</a>
</g>
<!-- Node3&#45;&gt;Node2 -->
<g id="edge4" class="edge"><title>Node3&#45;&gt;Node2</title>
<path fill="none" stroke="midnightblue" d="M136,-222.191C136,-213.168 136,-202.994 136,-195.571"/>
<polygon fill="midnightblue" stroke="midnightblue" points="132.5,-222.362 136,-232.362 139.5,-222.362 132.5,-222.362"/>
</g>
<!-- Node4 -->
<g id="node6" class="node"><title>Node4</title>
<a xlink:href="classMojNoCopy.htm" target="_top" xlink:title="MojNoCopy">
<polygon fill="white" stroke="black" points="100,-290.5 100,-311.5 172,-311.5 172,-290.5 100,-290.5"/>
<text text-anchor="middle" x="136" y="-298.5" font-family="Helvetica,sans-Serif" font-size="10.00">MojNoCopy</text>
</a>
</g>
<!-- Node4&#45;&gt;Node3 -->
<g id="edge6" class="edge"><title>Node4&#45;&gt;Node3</title>
<path fill="none" stroke="#8b1a1a" d="M136,-280.191C136,-271.168 136,-260.994 136,-253.571"/>
<polygon fill="#8b1a1a" stroke="#8b1a1a" points="132.5,-280.362 136,-290.362 139.5,-280.362 132.5,-280.362"/>
</g>
<!-- Node6 -->
<g id="node11" class="node"><title>Node6</title>
<a xlink:href="classMojDbServiceHandler.htm" target="_top" xlink:title="MojDbServiceHandler">
<polygon fill="white" stroke="black" points="-0.5,-0.5 -0.5,-21.5 118.5,-21.5 118.5,-0.5 -0.5,-0.5"/>
<text text-anchor="middle" x="59" y="-8.5" font-family="Helvetica,sans-Serif" font-size="10.00">MojDbServiceHandler</text>
</a>
</g>
<!-- Node5&#45;&gt;Node6 -->
<g id="edge10" class="edge"><title>Node5&#45;&gt;Node6</title>
<path fill="none" stroke="midnightblue" d="M113.774,-52.2587C100.639,-42.3641 84.4048,-30.1361 73.0335,-21.5707"/>
<polygon fill="midnightblue" stroke="midnightblue" points="111.784,-55.1409 121.877,-58.3619 115.995,-49.5496 111.784,-55.1409"/>
</g>
<!-- Node7 -->
<g id="node13" class="node"><title>Node7</title>
<a xlink:href="classMojDbServiceHandlerInternal.htm" target="_top" xlink:title="MojDbServiceHandlerInternal">
<polygon fill="white" stroke="black" points="135.5,-0.5 135.5,-21.5 290.5,-21.5 290.5,-0.5 135.5,-0.5"/>
<text text-anchor="middle" x="213" y="-8.5" font-family="Helvetica,sans-Serif" font-size="10.00">MojDbServiceHandlerInternal</text>
</a>
</g>
<!-- Node5&#45;&gt;Node7 -->
<g id="edge12" class="edge"><title>Node5&#45;&gt;Node7</title>
<path fill="none" stroke="midnightblue" d="M158.226,-52.2587C171.361,-42.3641 187.595,-30.1361 198.967,-21.5707"/>
<polygon fill="midnightblue" stroke="midnightblue" points="156.005,-49.5496 150.123,-58.3619 160.216,-55.1409 156.005,-49.5496"/>
</g>
</g>
</svg>
