<?xml version="1.0" encoding="UTF-8" standalone="no"?>
<!DOCTYPE svg PUBLIC "-//W3C//DTD SVG 1.1//EN"
 "http://www.w3.org/Graphics/SVG/1.1/DTD/svg11.dtd">
<!-- Generated by graphviz version 2.26.3 (20100126.1600)
 -->
<!-- Title: MojObjectWriter Pages: 1 -->
<svg width="236pt" height="174pt"
 viewBox="0.00 0.00 236.00 174.00" xmlns="http://www.w3.org/2000/svg" xmlns:xlink="http://www.w3.org/1999/xlink">
<g id="graph1" class="graph" transform="scale(1 1) rotate(0) translate(4 170)">
<title>MojObjectWriter</title>
<polygon fill="white" stroke="white" points="-4,5 -4,-170 233,-170 233,5 -4,5"/>
<!-- Node1 -->
<g id="node1" class="node"><title>Node1</title>
<polygon fill="#bfbfbf" stroke="black" points="78,-0.5 78,-21.5 170,-21.5 170,-0.5 78,-0.5"/>
<text text-anchor="middle" x="124" y="-8.5" font-family="Helvetica,sans-Serif" font-size="10.00">MojObjectWriter</text>
</g>
<!-- Node2 -->
<g id="node2" class="node"><title>Node2</title>
<a xlink:href="classMojObjectVisitor.htm" target="_top" xlink:title="MojObjectVisitor">
<polygon fill="white" stroke="black" points="-0.5,-84.5 -0.5,-105.5 92.5,-105.5 92.5,-84.5 -0.5,-84.5"/>
<text text-anchor="middle" x="46" y="-92.5" font-family="Helvetica,sans-Serif" font-size="10.00">MojObjectVisitor</text>
</a>
</g>
<!-- Node2&#45;&gt;Node1 -->
<g id="edge2" class="edge"><title>Node2&#45;&gt;Node1</title>
<path fill="none" stroke="midnightblue" d="M62.9266,-76.7714C78.5944,-59.8983 101.349,-35.3936 114.201,-21.5523"/>
<polygon fill="midnightblue" stroke="midnightblue" points="60.1185,-74.6518 55.8788,-84.3613 65.2481,-79.415 60.1185,-74.6518"/>
</g>
<!-- Node3 -->
<g id="node4" class="node"><title>Node3</title>
<a xlink:href="classMojNoCopy.htm" target="_top" xlink:title="MojNoCopy">
<polygon fill="white" stroke="black" points="10,-144.5 10,-165.5 82,-165.5 82,-144.5 10,-144.5"/>
<text text-anchor="middle" x="46" y="-152.5" font-family="Helvetica,sans-Serif" font-size="10.00">MojNoCopy</text>
</a>
</g>
<!-- Node3&#45;&gt;Node2 -->
<g id="edge4" class="edge"><title>Node3&#45;&gt;Node2</title>
<path fill="none" stroke="#8b1a1a" d="M46,-134.231C46,-124.592 46,-113.544 46,-105.634"/>
<polygon fill="#8b1a1a" stroke="#8b1a1a" points="42.5001,-134.273 46,-144.273 49.5001,-134.273 42.5001,-134.273"/>
</g>
<!-- Node4 -->
<g id="node6" class="node"><title>Node4</title>
<polygon fill="white" stroke="#bfbfbf" points="109.5,-84.5 109.5,-105.5 192.5,-105.5 192.5,-84.5 109.5,-84.5"/>
<text text-anchor="middle" x="151" y="-92.5" font-family="Helvetica,sans-Serif" font-size="10.00">unsigned char</text>
</g>
<!-- Node4&#45;&gt;Node1 -->
<g id="edge6" class="edge"><title>Node4&#45;&gt;Node1</title>
<path fill="none" stroke="#9a32cd" stroke-dasharray="5,2" d="M144.387,-74.4249C139.008,-57.6927 131.639,-34.7645 127.392,-21.5523"/>
<polygon fill="#9a32cd" stroke="#9a32cd" points="141.188,-75.9121 147.58,-84.3613 147.852,-73.77 141.188,-75.9121"/>
<text text-anchor="middle" x="184.5" y="-57" font-family="Helvetica,sans-Serif" font-size="10.00"> Version</text>
<text text-anchor="middle" x="184.5" y="-44" font-family="Helvetica,sans-Serif" font-size="10.00">TokenStartMarker</text>
</g>
</g>
</svg>
