<?xml version="1.0" encoding="UTF-8" standalone="no"?>
<!DOCTYPE svg PUBLIC "-//W3C//DTD SVG 1.1//EN"
 "http://www.w3.org/Graphics/SVG/1.1/DTD/svg11.dtd">
<!-- Generated by graphviz version 2.26.3 (20100126.1600)
 -->
<!-- Title: MojSignal3&lt; ARG1, ARG2, ARG3 &gt; Pages: 1 -->
<svg width="150pt" height="160pt"
 viewBox="0.00 0.00 150.00 160.00" xmlns="http://www.w3.org/2000/svg" xmlns:xlink="http://www.w3.org/1999/xlink">
<g id="graph1" class="graph" transform="scale(1 1) rotate(0) translate(4 156)">
<title>MojSignal3&lt; ARG1, ARG2, ARG3 &gt;</title>
<polygon fill="white" stroke="white" points="-4,5 -4,-156 147,-156 147,5 -4,5"/>
<!-- Node1 -->
<g id="node1" class="node"><title>Node1</title>
<polygon fill="#bfbfbf" stroke="black" points="-0.5,-1 -0.5,-35 142.5,-35 142.5,-1 -0.5,-1"/>
<text text-anchor="start" x="7.5" y="-22" font-family="Helvetica,sans-Serif" font-size="10.00">MojSignal3&lt; ARG1, ARG2,</text>
<text text-anchor="middle" x="71" y="-9" font-family="Helvetica,sans-Serif" font-size="10.00"> ARG3 &gt;</text>
</g>
<!-- Node2 -->
<g id="node2" class="node"><title>Node2</title>
<a xlink:href="classMojSignalBase.htm" target="_top" xlink:title="MojSignalBase">
<polygon fill="white" stroke="black" points="27.5,-72.5 27.5,-93.5 114.5,-93.5 114.5,-72.5 27.5,-72.5"/>
<text text-anchor="middle" x="71" y="-80.5" font-family="Helvetica,sans-Serif" font-size="10.00">MojSignalBase</text>
</a>
</g>
<!-- Node2&#45;&gt;Node1 -->
<g id="edge2" class="edge"><title>Node2&#45;&gt;Node1</title>
<path fill="none" stroke="midnightblue" d="M71,-62.1306C71,-53.4049 71,-43.3908 71,-35.1099"/>
<polygon fill="midnightblue" stroke="midnightblue" points="67.5001,-62.2665 71,-72.2666 74.5001,-62.2666 67.5001,-62.2665"/>
</g>
<!-- Node3 -->
<g id="node4" class="node"><title>Node3</title>
<a xlink:href="classMojNoCopy.htm" target="_top" xlink:title="MojNoCopy">
<polygon fill="white" stroke="black" points="35,-130.5 35,-151.5 107,-151.5 107,-130.5 35,-130.5"/>
<text text-anchor="middle" x="71" y="-138.5" font-family="Helvetica,sans-Serif" font-size="10.00">MojNoCopy</text>
</a>
</g>
<!-- Node3&#45;&gt;Node2 -->
<g id="edge4" class="edge"><title>Node3&#45;&gt;Node2</title>
<path fill="none" stroke="#8b1a1a" d="M71,-120.191C71,-111.168 71,-100.994 71,-93.5707"/>
<polygon fill="#8b1a1a" stroke="#8b1a1a" points="67.5001,-120.362 71,-130.362 74.5001,-120.362 67.5001,-120.362"/>
</g>
</g>
</svg>
