<?xml version="1.0" encoding="UTF-8" standalone="no"?>
<!DOCTYPE svg PUBLIC "-//W3C//DTD SVG 1.1//EN"
 "http://www.w3.org/Graphics/SVG/1.1/DTD/svg11.dtd">
<!-- Generated by graphviz version 2.26.3 (20100126.1600)
 -->
<!-- Title: MojSignalBase Pages: 1 -->
<svg width="636pt" height="520pt"
 viewBox="0.00 0.00 636.00 520.00" xmlns="http://www.w3.org/2000/svg" xmlns:xlink="http://www.w3.org/1999/xlink">
<g id="graph1" class="graph" transform="scale(1 1) rotate(0) translate(4 516)">
<title>MojSignalBase</title>
<polygon fill="white" stroke="white" points="-4,5 -4,-516 633,-516 633,5 -4,5"/>
<!-- Node1 -->
<g id="node1" class="node"><title>Node1</title>
<polygon fill="#bfbfbf" stroke="black" points="108.5,-266.5 108.5,-287.5 195.5,-287.5 195.5,-266.5 108.5,-266.5"/>
<text text-anchor="middle" x="152" y="-274.5" font-family="Helvetica,sans-Serif" font-size="10.00">MojSignalBase</text>
</g>
<!-- Node3 -->
<g id="node5" class="node"><title>Node3</title>
<a xlink:href="classMojSignal0.htm" target="_top" xlink:title="MojSignal0">
<polygon fill="white" stroke="black" points="284.5,-484.5 284.5,-505.5 353.5,-505.5 353.5,-484.5 284.5,-484.5"/>
<text text-anchor="middle" x="319" y="-492.5" font-family="Helvetica,sans-Serif" font-size="10.00">MojSignal0</text>
</a>
</g>
<!-- Node1&#45;&gt;Node3 -->
<g id="edge4" class="edge"><title>Node1&#45;&gt;Node3</title>
<path fill="none" stroke="midnightblue" d="M154.119,-297.565C159.429,-338.036 177.09,-428.147 232,-475 246.383,-487.273 266.816,-492.39 284.266,-494.385"/>
<polygon fill="midnightblue" stroke="midnightblue" points="157.584,-297.061 152.928,-287.544 150.633,-297.887 157.584,-297.061"/>
</g>
<!-- Node5 -->
<g id="node9" class="node"><title>Node5</title>
<a xlink:href="classMojSignal1.htm" target="_top" xlink:title="MojSignal1\&lt; ARG1 \&gt;">
<polygon fill="white" stroke="black" points="261,-444.5 261,-465.5 377,-465.5 377,-444.5 261,-444.5"/>
<text text-anchor="middle" x="319" y="-452.5" font-family="Helvetica,sans-Serif" font-size="10.00">MojSignal1&lt; ARG1 &gt;</text>
</a>
</g>
<!-- Node1&#45;&gt;Node5 -->
<g id="edge8" class="edge"><title>Node1&#45;&gt;Node5</title>
<path fill="none" stroke="midnightblue" d="M156.464,-297.642C164.955,-331.749 186.773,-399.606 232,-435 240.299,-441.495 250.328,-445.951 260.582,-448.992"/>
<polygon fill="midnightblue" stroke="midnightblue" points="159.855,-296.774 154.162,-287.839 153.04,-298.374 159.855,-296.774"/>
</g>
<!-- Node6 -->
<g id="node11" class="node"><title>Node6</title>
<a xlink:href="classMojSignal1.htm" target="_top" xlink:title="MojSignal1\&lt; TARG1 \&gt;">
<polygon fill="white" stroke="black" points="258,-404.5 258,-425.5 380,-425.5 380,-404.5 258,-404.5"/>
<text text-anchor="middle" x="319" y="-412.5" font-family="Helvetica,sans-Serif" font-size="10.00">MojSignal1&lt; TARG1 &gt;</text>
</a>
</g>
<!-- Node1&#45;&gt;Node6 -->
<g id="edge10" class="edge"><title>Node1&#45;&gt;Node6</title>
<path fill="none" stroke="midnightblue" d="M160.089,-297.303C171.813,-324.012 196.125,-370.431 232,-395 239.672,-400.254 248.527,-404.144 257.589,-407.021"/>
<polygon fill="midnightblue" stroke="midnightblue" points="163.196,-295.662 156.088,-287.806 156.745,-298.38 163.196,-295.662"/>
</g>
<!-- Node8 -->
<g id="node15" class="node"><title>Node8</title>
<a xlink:href="classMojSignal2.htm" target="_top" xlink:title="MojSignal2\&lt; ARG1, ARG2 \&gt;">
<polygon fill="white" stroke="black" points="244.5,-364.5 244.5,-385.5 393.5,-385.5 393.5,-364.5 244.5,-364.5"/>
<text text-anchor="middle" x="319" y="-372.5" font-family="Helvetica,sans-Serif" font-size="10.00">MojSignal2&lt; ARG1, ARG2 &gt;</text>
</a>
</g>
<!-- Node1&#45;&gt;Node8 -->
<g id="edge14" class="edge"><title>Node1&#45;&gt;Node8</title>
<path fill="none" stroke="midnightblue" d="M166.095,-295.753C180.625,-313.724 204.926,-340.232 232,-355 239.075,-358.859 246.865,-361.976 254.789,-364.492"/>
<polygon fill="midnightblue" stroke="midnightblue" points="168.706,-293.41 159.778,-287.706 163.199,-297.733 168.706,-293.41"/>
</g>
<!-- Node9 -->
<g id="node17" class="node"><title>Node9</title>
<a xlink:href="classMojSignal2.htm" target="_top" xlink:title="MojSignal2\&lt; TARG1,\l TARG2 \&gt;">
<polygon fill="white" stroke="black" points="261,-312 261,-346 377,-346 377,-312 261,-312"/>
<text text-anchor="start" x="269" y="-333" font-family="Helvetica,sans-Serif" font-size="10.00">MojSignal2&lt; TARG1,</text>
<text text-anchor="middle" x="319" y="-320" font-family="Helvetica,sans-Serif" font-size="10.00"> TARG2 &gt;</text>
</a>
</g>
<!-- Node1&#45;&gt;Node9 -->
<g id="edge16" class="edge"><title>Node1&#45;&gt;Node9</title>
<path fill="none" stroke="midnightblue" d="M193.481,-290.689C205.854,-294.716 219.459,-299.089 232,-303 241.481,-305.957 251.565,-309.033 261.38,-311.991"/>
<polygon fill="midnightblue" stroke="midnightblue" points="194.459,-287.326 183.866,-287.549 192.285,-293.981 194.459,-287.326"/>
</g>
<!-- Node11 -->
<g id="node21" class="node"><title>Node11</title>
<a xlink:href="classMojSignal3.htm" target="_top" xlink:title="MojSignal3\&lt; ARG1, ARG2,\l ARG3 \&gt;">
<polygon fill="white" stroke="black" points="247.5,-260 247.5,-294 390.5,-294 390.5,-260 247.5,-260"/>
<text text-anchor="start" x="255.5" y="-281" font-family="Helvetica,sans-Serif" font-size="10.00">MojSignal3&lt; ARG1, ARG2,</text>
<text text-anchor="middle" x="319" y="-268" font-family="Helvetica,sans-Serif" font-size="10.00"> ARG3 &gt;</text>
</a>
</g>
<!-- Node1&#45;&gt;Node11 -->
<g id="edge20" class="edge"><title>Node1&#45;&gt;Node11</title>
<path fill="none" stroke="midnightblue" d="M206.143,-277C219.277,-277 233.521,-277 247.325,-277"/>
<polygon fill="midnightblue" stroke="midnightblue" points="205.877,-273.5 195.877,-277 205.877,-280.5 205.877,-273.5"/>
</g>
<!-- Node12 -->
<g id="node23" class="node"><title>Node12</title>
<a xlink:href="classMojSignal3.htm" target="_top" xlink:title="MojSignal3\&lt; MojDbStorage\lTxn *, MojTagNil, MojTagNil \&gt;">
<polygon fill="white" stroke="black" points="240,-208 240,-242 398,-242 398,-208 240,-208"/>
<text text-anchor="start" x="248" y="-229" font-family="Helvetica,sans-Serif" font-size="10.00">MojSignal3&lt; MojDbStorage</text>
<text text-anchor="middle" x="319" y="-216" font-family="Helvetica,sans-Serif" font-size="10.00">Txn *, MojTagNil, MojTagNil &gt;</text>
</a>
</g>
<!-- Node1&#45;&gt;Node12 -->
<g id="edge22" class="edge"><title>Node1&#45;&gt;Node12</title>
<path fill="none" stroke="midnightblue" d="M193.481,-263.311C205.854,-259.284 219.459,-254.911 232,-251 241.481,-248.043 251.565,-244.967 261.38,-242.009"/>
<polygon fill="midnightblue" stroke="midnightblue" points="192.285,-260.019 183.866,-266.451 194.459,-266.674 192.285,-260.019"/>
</g>
<!-- Node14 -->
<g id="node27" class="node"><title>Node14</title>
<a xlink:href="classMojSignal3.htm" target="_top" xlink:title="MojSignal3\&lt; MojObject\l &amp;, MojErr, MojTagNil \&gt;">
<polygon fill="white" stroke="black" points="256,-156 256,-190 382,-190 382,-156 256,-156"/>
<text text-anchor="start" x="264" y="-177" font-family="Helvetica,sans-Serif" font-size="10.00">MojSignal3&lt; MojObject</text>
<text text-anchor="middle" x="319" y="-164" font-family="Helvetica,sans-Serif" font-size="10.00"> &amp;, MojErr, MojTagNil &gt;</text>
</a>
</g>
<!-- Node1&#45;&gt;Node14 -->
<g id="edge26" class="edge"><title>Node1&#45;&gt;Node14</title>
<path fill="none" stroke="midnightblue" d="M166.545,-258.332C181.261,-240.647 205.56,-214.548 232,-199 239.338,-194.685 247.451,-191.034 255.686,-187.958"/>
<polygon fill="midnightblue" stroke="midnightblue" points="163.701,-256.282 160.124,-266.254 169.139,-260.689 163.701,-256.282"/>
</g>
<!-- Node16 -->
<g id="node31" class="node"><title>Node16</title>
<a xlink:href="classMojSignal3.htm" target="_top" xlink:title="MojSignal3\&lt; MojServiceMessage\l *, MojObject &amp;, MojErr \&gt;">
<polygon fill="white" stroke="black" points="232,-104 232,-138 406,-138 406,-104 232,-104"/>
<text text-anchor="start" x="240" y="-125" font-family="Helvetica,sans-Serif" font-size="10.00">MojSignal3&lt; MojServiceMessage</text>
<text text-anchor="middle" x="319" y="-112" font-family="Helvetica,sans-Serif" font-size="10.00"> *, MojObject &amp;, MojErr &gt;</text>
</a>
</g>
<!-- Node1&#45;&gt;Node16 -->
<g id="edge30" class="edge"><title>Node1&#45;&gt;Node16</title>
<path fill="none" stroke="midnightblue" d="M159.125,-256.689C170.222,-228.004 194.35,-175.906 232,-147 236.376,-143.64 241.182,-140.713 246.219,-138.163"/>
<polygon fill="midnightblue" stroke="midnightblue" points="155.705,-255.846 155.509,-266.439 162.268,-258.28 155.705,-255.846"/>
</g>
<!-- Node18 -->
<g id="node35" class="node"><title>Node18</title>
<a xlink:href="classMojSignal3.htm" target="_top" xlink:title="MojSignal3\&lt; MojServiceMessage\l *, MojTagNil, MojTagNil \&gt;">
<polygon fill="white" stroke="black" points="232,-52 232,-86 406,-86 406,-52 232,-52"/>
<text text-anchor="start" x="240" y="-73" font-family="Helvetica,sans-Serif" font-size="10.00">MojSignal3&lt; MojServiceMessage</text>
<text text-anchor="middle" x="319" y="-60" font-family="Helvetica,sans-Serif" font-size="10.00"> *, MojTagNil, MojTagNil &gt;</text>
</a>
</g>
<!-- Node1&#45;&gt;Node18 -->
<g id="edge34" class="edge"><title>Node1&#45;&gt;Node18</title>
<path fill="none" stroke="midnightblue" d="M155.283,-256.278C162.349,-218.585 182.558,-138.674 232,-95 235.781,-91.6603 239.976,-88.7493 244.422,-86.212"/>
<polygon fill="midnightblue" stroke="midnightblue" points="151.835,-255.677 153.559,-266.131 158.73,-256.884 151.835,-255.677"/>
</g>
<!-- Node20 -->
<g id="node39" class="node"><title>Node20</title>
<a xlink:href="classMojSignal3.htm" target="_top" xlink:title="MojSignal3\&lt; TARG1,\l TARG2, TARG3 \&gt;">
<polygon fill="white" stroke="black" points="261,-0 261,-34 377,-34 377,-0 261,-0"/>
<text text-anchor="start" x="269" y="-21" font-family="Helvetica,sans-Serif" font-size="10.00">MojSignal3&lt; TARG1,</text>
<text text-anchor="middle" x="319" y="-8" font-family="Helvetica,sans-Serif" font-size="10.00"> TARG2, TARG3 &gt;</text>
</a>
</g>
<!-- Node1&#45;&gt;Node20 -->
<g id="edge38" class="edge"><title>Node1&#45;&gt;Node20</title>
<path fill="none" stroke="midnightblue" d="M152.967,-256.257C156.218,-210.907 170.381,-102.261 232,-43 239.954,-35.3508 250.062,-29.9408 260.553,-26.1173"/>
<polygon fill="midnightblue" stroke="midnightblue" points="149.467,-256.161 152.353,-266.355 156.454,-256.586 149.467,-256.161"/>
</g>
<!-- Node2 -->
<g id="node2" class="node"><title>Node2</title>
<a xlink:href="classMojNoCopy.htm" target="_top" xlink:title="MojNoCopy">
<polygon fill="white" stroke="black" points="0,-266.5 0,-287.5 72,-287.5 72,-266.5 0,-266.5"/>
<text text-anchor="middle" x="36" y="-274.5" font-family="Helvetica,sans-Serif" font-size="10.00">MojNoCopy</text>
</a>
</g>
<!-- Node2&#45;&gt;Node1 -->
<g id="edge2" class="edge"><title>Node2&#45;&gt;Node1</title>
<path fill="none" stroke="#8b1a1a" d="M82.2691,-277C90.8205,-277 99.7269,-277 108.202,-277"/>
<polygon fill="#8b1a1a" stroke="#8b1a1a" points="82.0673,-273.5 72.0673,-277 82.0672,-280.5 82.0673,-273.5"/>
</g>
<!-- Node4 -->
<g id="node7" class="node"><title>Node4</title>
<a xlink:href="classMojSignal_3_01MojTagNil_00_01MojTagNil_00_01MojTagNil_01_4.htm" target="_top" xlink:title="MojSignal\&lt; MojTagNil,\l MojTagNil, MojTagNil \&gt;">
<polygon fill="white" stroke="black" points="470,-478 470,-512 600,-512 600,-478 470,-478"/>
<text text-anchor="start" x="478" y="-499" font-family="Helvetica,sans-Serif" font-size="10.00">MojSignal&lt; MojTagNil,</text>
<text text-anchor="middle" x="535" y="-486" font-family="Helvetica,sans-Serif" font-size="10.00"> MojTagNil, MojTagNil &gt;</text>
</a>
</g>
<!-- Node3&#45;&gt;Node4 -->
<g id="edge6" class="edge"><title>Node3&#45;&gt;Node4</title>
<path fill="none" stroke="midnightblue" d="M364.079,-495C394.713,-495 435.718,-495 469.886,-495"/>
<polygon fill="midnightblue" stroke="midnightblue" points="363.704,-491.5 353.704,-495 363.704,-498.5 363.704,-491.5"/>
</g>
<!-- Node7 -->
<g id="node13" class="node"><title>Node7</title>
<a xlink:href="classMojSignal_3_01TARG1_00_01MojTagNil_00_01MojTagNil_01_4.htm" target="_top" xlink:title="MojSignal\&lt; TARG1, MojTag\lNil, MojTagNil \&gt;">
<polygon fill="white" stroke="black" points="460.5,-398 460.5,-432 609.5,-432 609.5,-398 460.5,-398"/>
<text text-anchor="start" x="468.5" y="-419" font-family="Helvetica,sans-Serif" font-size="10.00">MojSignal&lt; TARG1, MojTag</text>
<text text-anchor="middle" x="535" y="-406" font-family="Helvetica,sans-Serif" font-size="10.00">Nil, MojTagNil &gt;</text>
</a>
</g>
<!-- Node6&#45;&gt;Node7 -->
<g id="edge12" class="edge"><title>Node6&#45;&gt;Node7</title>
<path fill="none" stroke="midnightblue" d="M390.175,-415C412.661,-415 437.566,-415 460.292,-415"/>
<polygon fill="midnightblue" stroke="midnightblue" points="390.031,-411.5 380.031,-415 390.031,-418.5 390.031,-411.5"/>
</g>
<!-- Node10 -->
<g id="node19" class="node"><title>Node10</title>
<a xlink:href="classMojSignal_3_01TARG1_00_01TARG2_00_01MojTagNil_01_4.htm" target="_top" xlink:title="MojSignal\&lt; TARG1, TARG2,\l MojTagNil \&gt;">
<polygon fill="white" stroke="black" points="460,-312 460,-346 610,-346 610,-312 460,-312"/>
<text text-anchor="start" x="468" y="-333" font-family="Helvetica,sans-Serif" font-size="10.00">MojSignal&lt; TARG1, TARG2,</text>
<text text-anchor="middle" x="535" y="-320" font-family="Helvetica,sans-Serif" font-size="10.00"> MojTagNil &gt;</text>
</a>
</g>
<!-- Node9&#45;&gt;Node10 -->
<g id="edge18" class="edge"><title>Node9&#45;&gt;Node10</title>
<path fill="none" stroke="midnightblue" d="M387.195,-329C410.234,-329 436.083,-329 459.644,-329"/>
<polygon fill="midnightblue" stroke="midnightblue" points="387.168,-325.5 377.168,-329 387.168,-332.5 387.168,-325.5"/>
</g>
<!-- Node13 -->
<g id="node25" class="node"><title>Node13</title>
<a xlink:href="classMojSignal.htm" target="_top" xlink:title="MojSignal\&lt; MojDbStorageTxn * \&gt;">
<polygon fill="white" stroke="black" points="447.5,-214.5 447.5,-235.5 622.5,-235.5 622.5,-214.5 447.5,-214.5"/>
<text text-anchor="middle" x="535" y="-222.5" font-family="Helvetica,sans-Serif" font-size="10.00">MojSignal&lt; MojDbStorageTxn * &gt;</text>
</a>
</g>
<!-- Node12&#45;&gt;Node13 -->
<g id="edge24" class="edge"><title>Node12&#45;&gt;Node13</title>
<path fill="none" stroke="midnightblue" d="M408.445,-225C421.329,-225 434.577,-225 447.424,-225"/>
<polygon fill="midnightblue" stroke="midnightblue" points="408.204,-221.5 398.204,-225 408.204,-228.5 408.204,-221.5"/>
</g>
<!-- Node15 -->
<g id="node29" class="node"><title>Node15</title>
<a xlink:href="classMojSignal.htm" target="_top" xlink:title="MojSignal\&lt; MojObject\l &amp;, MojErr \&gt;">
<polygon fill="white" stroke="black" points="475.5,-156 475.5,-190 594.5,-190 594.5,-156 475.5,-156"/>
<text text-anchor="start" x="483.5" y="-177" font-family="Helvetica,sans-Serif" font-size="10.00">MojSignal&lt; MojObject</text>
<text text-anchor="middle" x="535" y="-164" font-family="Helvetica,sans-Serif" font-size="10.00"> &amp;, MojErr &gt;</text>
</a>
</g>
<!-- Node14&#45;&gt;Node15 -->
<g id="edge28" class="edge"><title>Node14&#45;&gt;Node15</title>
<path fill="none" stroke="midnightblue" d="M392.236,-173C419.252,-173 449.516,-173 475.204,-173"/>
<polygon fill="midnightblue" stroke="midnightblue" points="392.057,-169.5 382.057,-173 392.057,-176.5 392.057,-169.5"/>
</g>
<!-- Node17 -->
<g id="node33" class="node"><title>Node17</title>
<a xlink:href="classMojSignal.htm" target="_top" xlink:title="MojSignal\&lt; MojServiceMessage\l *, MojObject &amp;, MojErr \&gt;">
<polygon fill="white" stroke="black" points="451,-104 451,-138 619,-138 619,-104 451,-104"/>
<text text-anchor="start" x="459" y="-125" font-family="Helvetica,sans-Serif" font-size="10.00">MojSignal&lt; MojServiceMessage</text>
<text text-anchor="middle" x="535" y="-112" font-family="Helvetica,sans-Serif" font-size="10.00"> *, MojObject &amp;, MojErr &gt;</text>
</a>
</g>
<!-- Node16&#45;&gt;Node17 -->
<g id="edge32" class="edge"><title>Node16&#45;&gt;Node17</title>
<path fill="none" stroke="midnightblue" d="M416.329,-121C427.882,-121 439.599,-121 450.945,-121"/>
<polygon fill="midnightblue" stroke="midnightblue" points="416.233,-117.5 406.233,-121 416.233,-124.5 416.233,-117.5"/>
</g>
<!-- Node19 -->
<g id="node37" class="node"><title>Node19</title>
<a xlink:href="classMojSignal.htm" target="_top" xlink:title="MojSignal\&lt; MojServiceMessage * \&gt;">
<polygon fill="white" stroke="black" points="442.5,-58.5 442.5,-79.5 627.5,-79.5 627.5,-58.5 442.5,-58.5"/>
<text text-anchor="middle" x="535" y="-66.5" font-family="Helvetica,sans-Serif" font-size="10.00">MojSignal&lt; MojServiceMessage * &gt;</text>
</a>
</g>
<!-- Node18&#45;&gt;Node19 -->
<g id="edge36" class="edge"><title>Node18&#45;&gt;Node19</title>
<path fill="none" stroke="midnightblue" d="M416.279,-69C424.885,-69 433.582,-69 442.149,-69"/>
<polygon fill="midnightblue" stroke="midnightblue" points="416.233,-65.5001 406.233,-69 416.233,-72.5001 416.233,-65.5001"/>
</g>
<!-- Node21 -->
<g id="node41" class="node"><title>Node21</title>
<a xlink:href="classMojSignal.htm" target="_top" xlink:title="MojSignal\&lt; TARG1, TARG2,\l TARG3 \&gt;">
<polygon fill="white" stroke="black" points="460,-0 460,-34 610,-34 610,-0 460,-0"/>
<text text-anchor="start" x="468" y="-21" font-family="Helvetica,sans-Serif" font-size="10.00">MojSignal&lt; TARG1, TARG2,</text>
<text text-anchor="middle" x="535" y="-8" font-family="Helvetica,sans-Serif" font-size="10.00"> TARG3 &gt;</text>
</a>
</g>
<!-- Node20&#45;&gt;Node21 -->
<g id="edge40" class="edge"><title>Node20&#45;&gt;Node21</title>
<path fill="none" stroke="midnightblue" d="M387.195,-17C410.234,-17 436.083,-17 459.644,-17"/>
<polygon fill="midnightblue" stroke="midnightblue" points="387.168,-13.5001 377.168,-17 387.168,-20.5001 387.168,-13.5001"/>
</g>
</g>
</svg>
