<?xml version="1.0" encoding="UTF-8" standalone="no"?>
<!DOCTYPE svg PUBLIC "-//W3C//DTD SVG 1.1//EN"
 "http://www.w3.org/Graphics/SVG/1.1/DTD/svg11.dtd">
<!-- Generated by graphviz version 2.26.3 (20100126.1600)
 -->
<!-- Title: MojServiceApp Pages: 1 -->
<svg width="378pt" height="262pt"
 viewBox="0.00 0.00 378.00 262.00" xmlns="http://www.w3.org/2000/svg" xmlns:xlink="http://www.w3.org/1999/xlink">
<g id="graph1" class="graph" transform="scale(1 1) rotate(0) translate(4 258)">
<title>MojServiceApp</title>
<polygon fill="white" stroke="white" points="-4,5 -4,-258 375,-258 375,5 -4,5"/>
<!-- Node1 -->
<g id="node1" class="node"><title>Node1</title>
<polygon fill="#bfbfbf" stroke="black" points="132,-116.5 132,-137.5 220,-137.5 220,-116.5 132,-116.5"/>
<text text-anchor="middle" x="176" y="-124.5" font-family="Helvetica,sans-Serif" font-size="10.00">MojServiceApp</text>
</g>
<!-- Node4 -->
<g id="node7" class="node"><title>Node4</title>
<a xlink:href="classMojReactorApp.htm" target="_top" xlink:title="MojReactorApp\&lt; REACTOR \&gt;">
<polygon fill="white" stroke="black" points="-0.5,-58.5 -0.5,-79.5 158.5,-79.5 158.5,-58.5 -0.5,-58.5"/>
<text text-anchor="middle" x="79" y="-66.5" font-family="Helvetica,sans-Serif" font-size="10.00">MojReactorApp&lt; REACTOR &gt;</text>
</a>
</g>
<!-- Node1&#45;&gt;Node4 -->
<g id="edge6" class="edge"><title>Node1&#45;&gt;Node4</title>
<path fill="none" stroke="midnightblue" d="M149.41,-111.101C132.627,-101.066 111.413,-88.3808 96.6785,-79.5707"/>
<polygon fill="midnightblue" stroke="midnightblue" points="147.83,-114.234 158.209,-116.362 151.422,-108.226 147.83,-114.234"/>
</g>
<!-- Node5 -->
<g id="node9" class="node"><title>Node5</title>
<a xlink:href="classMojReactorApp.htm" target="_top" xlink:title="MojReactorApp\&lt; MojGmainReactor \&gt;">
<polygon fill="white" stroke="black" points="176,-58.5 176,-79.5 370,-79.5 370,-58.5 176,-58.5"/>
<text text-anchor="middle" x="273" y="-66.5" font-family="Helvetica,sans-Serif" font-size="10.00">MojReactorApp&lt; MojGmainReactor &gt;</text>
</a>
</g>
<!-- Node1&#45;&gt;Node5 -->
<g id="edge8" class="edge"><title>Node1&#45;&gt;Node5</title>
<path fill="none" stroke="midnightblue" d="M202.59,-111.101C219.373,-101.066 240.587,-88.3808 255.321,-79.5707"/>
<polygon fill="midnightblue" stroke="midnightblue" points="200.578,-108.226 193.791,-116.362 204.17,-114.234 200.578,-108.226"/>
</g>
<!-- Node2 -->
<g id="node2" class="node"><title>Node2</title>
<a xlink:href="classMojApp.htm" target="_top" xlink:title="MojApp">
<polygon fill="white" stroke="black" points="149.5,-174.5 149.5,-195.5 202.5,-195.5 202.5,-174.5 149.5,-174.5"/>
<text text-anchor="middle" x="176" y="-182.5" font-family="Helvetica,sans-Serif" font-size="10.00">MojApp</text>
</a>
</g>
<!-- Node2&#45;&gt;Node1 -->
<g id="edge2" class="edge"><title>Node2&#45;&gt;Node1</title>
<path fill="none" stroke="midnightblue" d="M176,-164.191C176,-155.168 176,-144.994 176,-137.571"/>
<polygon fill="midnightblue" stroke="midnightblue" points="172.5,-164.362 176,-174.362 179.5,-164.362 172.5,-164.362"/>
</g>
<!-- Node3 -->
<g id="node4" class="node"><title>Node3</title>
<a xlink:href="classMojNoCopy.htm" target="_top" xlink:title="MojNoCopy">
<polygon fill="white" stroke="black" points="140,-232.5 140,-253.5 212,-253.5 212,-232.5 140,-232.5"/>
<text text-anchor="middle" x="176" y="-240.5" font-family="Helvetica,sans-Serif" font-size="10.00">MojNoCopy</text>
</a>
</g>
<!-- Node3&#45;&gt;Node2 -->
<g id="edge4" class="edge"><title>Node3&#45;&gt;Node2</title>
<path fill="none" stroke="#8b1a1a" d="M176,-222.191C176,-213.168 176,-202.994 176,-195.571"/>
<polygon fill="#8b1a1a" stroke="#8b1a1a" points="172.5,-222.362 176,-232.362 179.5,-222.362 172.5,-222.362"/>
</g>
<!-- Node6 -->
<g id="node11" class="node"><title>Node6</title>
<a xlink:href="classMojDbLunaServiceApp.htm" target="_top" xlink:title="MojDbLunaServiceApp">
<polygon fill="white" stroke="black" points="211,-0.5 211,-21.5 335,-21.5 335,-0.5 211,-0.5"/>
<text text-anchor="middle" x="273" y="-8.5" font-family="Helvetica,sans-Serif" font-size="10.00">MojDbLunaServiceApp</text>
</a>
</g>
<!-- Node5&#45;&gt;Node6 -->
<g id="edge10" class="edge"><title>Node5&#45;&gt;Node6</title>
<path fill="none" stroke="midnightblue" d="M273,-48.1906C273,-39.1684 273,-28.9941 273,-21.5707"/>
<polygon fill="midnightblue" stroke="midnightblue" points="269.5,-48.3619 273,-58.3619 276.5,-48.3619 269.5,-48.3619"/>
</g>
</g>
</svg>
