<?xml version="1.0" encoding="UTF-8" standalone="no"?>
<!DOCTYPE svg PUBLIC "-//W3C//DTD SVG 1.1//EN"
 "http://www.w3.org/Graphics/SVG/1.1/DTD/svg11.dtd">
<!-- Generated by graphviz version 2.26.3 (20100126.1600)
 -->
<!-- Title: MojRefCounted Pages: 1 -->
<svg width="624pt" height="1174pt"
 viewBox="0.00 0.00 624.00 1174.00" xmlns="http://www.w3.org/2000/svg" xmlns:xlink="http://www.w3.org/1999/xlink">
<g id="graph1" class="graph" transform="scale(1 1) rotate(0) translate(4 1170)">
<title>MojRefCounted</title>
<polygon fill="white" stroke="white" points="-4,5 -4,-1170 621,-1170 621,5 -4,5"/>
<!-- Node1 -->
<g id="node1" class="node"><title>Node1</title>
<polygon fill="#bfbfbf" stroke="black" points="108,-584.5 108,-605.5 198,-605.5 198,-584.5 108,-584.5"/>
<text text-anchor="middle" x="153" y="-592.5" font-family="Helvetica,sans-Serif" font-size="10.00">MojRefCounted</text>
</g>
<!-- Node3 -->
<g id="node5" class="node"><title>Node3</title>
<a xlink:href="classMojDbEnv.htm" target="_top" xlink:title="MojDbEnv">
<polygon fill="white" stroke="black" points="277.5,-1104.5 277.5,-1125.5 342.5,-1125.5 342.5,-1104.5 277.5,-1104.5"/>
<text text-anchor="middle" x="310" y="-1112.5" font-family="Helvetica,sans-Serif" font-size="10.00">MojDbEnv</text>
</a>
</g>
<!-- Node1&#45;&gt;Node3 -->
<g id="edge4" class="edge"><title>Node1&#45;&gt;Node3</title>
<path fill="none" stroke="midnightblue" d="M154.713,-616.033C161.507,-695.76 188.424,-978.692 234,-1055 247.189,-1077.08 271.759,-1094.2 289.396,-1104.4"/>
<polygon fill="midnightblue" stroke="midnightblue" points="158.178,-615.467 153.857,-605.793 151.203,-616.05 158.178,-615.467"/>
</g>
<!-- Node6 -->
<g id="node11" class="node"><title>Node6</title>
<a xlink:href="classMojDbExtractor.htm" target="_top" xlink:title="MojDbExtractor">
<polygon fill="white" stroke="black" points="265.5,-1024.5 265.5,-1045.5 354.5,-1045.5 354.5,-1024.5 265.5,-1024.5"/>
<text text-anchor="middle" x="310" y="-1032.5" font-family="Helvetica,sans-Serif" font-size="10.00">MojDbExtractor</text>
</a>
</g>
<!-- Node1&#45;&gt;Node6 -->
<g id="edge10" class="edge"><title>Node1&#45;&gt;Node6</title>
<path fill="none" stroke="midnightblue" d="M155.559,-615.886C164.458,-686.188 195.622,-913.275 234,-975 247.67,-996.985 272.396,-1014.23 289.929,-1024.49"/>
<polygon fill="midnightblue" stroke="midnightblue" points="158.994,-615.147 154.282,-605.658 152.047,-616.014 158.994,-615.147"/>
</g>
<!-- Node9 -->
<g id="node17" class="node"><title>Node9</title>
<a xlink:href="classMojDbKind.htm" target="_top" xlink:title="MojDbKind">
<polygon fill="white" stroke="black" points="276,-944.5 276,-965.5 344,-965.5 344,-944.5 276,-944.5"/>
<text text-anchor="middle" x="310" y="-952.5" font-family="Helvetica,sans-Serif" font-size="10.00">MojDbKind</text>
</a>
</g>
<!-- Node1&#45;&gt;Node9 -->
<g id="edge16" class="edge"><title>Node1&#45;&gt;Node9</title>
<path fill="none" stroke="midnightblue" d="M155.15,-615.596C162.483,-681.952 188.607,-888.53 234,-935 244.868,-946.126 261.128,-951.309 275.822,-953.636"/>
<polygon fill="midnightblue" stroke="midnightblue" points="158.618,-615.113 154.066,-605.546 151.659,-615.863 158.618,-615.113"/>
</g>
<!-- Node10 -->
<g id="node19" class="node"><title>Node10</title>
<a xlink:href="classMojDbQuotaEngine_1_1Quota.htm" target="_top" xlink:title="MojDbQuotaEngine::Quota">
<polygon fill="white" stroke="black" points="239.5,-904.5 239.5,-925.5 380.5,-925.5 380.5,-904.5 239.5,-904.5"/>
<text text-anchor="middle" x="310" y="-912.5" font-family="Helvetica,sans-Serif" font-size="10.00">MojDbQuotaEngine::Quota</text>
</a>
</g>
<!-- Node1&#45;&gt;Node10 -->
<g id="edge18" class="edge"><title>Node1&#45;&gt;Node10</title>
<path fill="none" stroke="midnightblue" d="M155.842,-615.531C164.685,-676.513 193.56,-854.818 234,-895 237.775,-898.75 242.163,-901.822 246.89,-904.336"/>
<polygon fill="midnightblue" stroke="midnightblue" points="159.299,-614.978 154.426,-605.57 152.369,-615.963 159.299,-614.978"/>
</g>
<!-- Node11 -->
<g id="node21" class="node"><title>Node11</title>
<a xlink:href="classMojDbRevisionSet.htm" target="_top" xlink:title="MojDbRevisionSet">
<polygon fill="white" stroke="black" points="258.5,-864.5 258.5,-885.5 361.5,-885.5 361.5,-864.5 258.5,-864.5"/>
<text text-anchor="middle" x="310" y="-872.5" font-family="Helvetica,sans-Serif" font-size="10.00">MojDbRevisionSet</text>
</a>
</g>
<!-- Node1&#45;&gt;Node11 -->
<g id="edge20" class="edge"><title>Node1&#45;&gt;Node11</title>
<path fill="none" stroke="midnightblue" d="M156.774,-615.656C167.294,-671.062 198.516,-821.068 234,-855 240.804,-861.506 249.461,-865.958 258.479,-868.991"/>
<polygon fill="midnightblue" stroke="midnightblue" points="160.176,-614.809 154.9,-605.621 153.295,-616.094 160.176,-614.809"/>
</g>
<!-- Node12 -->
<g id="node23" class="node"><title>Node12</title>
<a xlink:href="classMojDbStorageCollection.htm" target="_top" xlink:title="MojDbStorageCollection">
<polygon fill="white" stroke="black" points="244.5,-824.5 244.5,-845.5 375.5,-845.5 375.5,-824.5 244.5,-824.5"/>
<text text-anchor="middle" x="310" y="-832.5" font-family="Helvetica,sans-Serif" font-size="10.00">MojDbStorageCollection</text>
</a>
</g>
<!-- Node1&#45;&gt;Node12 -->
<g id="edge22" class="edge"><title>Node1&#45;&gt;Node12</title>
<path fill="none" stroke="midnightblue" d="M154.446,-615.835C158.624,-659.49 174.554,-760.974 234,-815 238.14,-818.762 242.903,-821.832 247.983,-824.336"/>
<polygon fill="midnightblue" stroke="midnightblue" points="157.91,-615.264 153.584,-605.593 150.935,-615.851 157.91,-615.264"/>
</g>
<!-- Node15 -->
<g id="node29" class="node"><title>Node15</title>
<a xlink:href="classMojDbStorageEngine.htm" target="_top" xlink:title="MojDbStorageEngine">
<polygon fill="white" stroke="black" points="251.5,-784.5 251.5,-805.5 368.5,-805.5 368.5,-784.5 251.5,-784.5"/>
<text text-anchor="middle" x="310" y="-792.5" font-family="Helvetica,sans-Serif" font-size="10.00">MojDbStorageEngine</text>
</a>
</g>
<!-- Node1&#45;&gt;Node15 -->
<g id="edge28" class="edge"><title>Node1&#45;&gt;Node15</title>
<path fill="none" stroke="midnightblue" d="M158.899,-615.58C169.267,-648.618 193.578,-713.933 234,-755 246.865,-768.07 264.912,-777.815 280.192,-784.412"/>
<polygon fill="midnightblue" stroke="midnightblue" points="162.155,-614.257 155.914,-605.695 155.454,-616.28 162.155,-614.257"/>
</g>
<!-- Node19 -->
<g id="node37" class="node"><title>Node19</title>
<a xlink:href="classMojDbStorageEngineFactory.htm" target="_top" xlink:title="MojDbStorageEngineFactory">
<polygon fill="white" stroke="black" points="234,-724.5 234,-745.5 386,-745.5 386,-724.5 234,-724.5"/>
<text text-anchor="middle" x="310" y="-732.5" font-family="Helvetica,sans-Serif" font-size="10.00">MojDbStorageEngineFactory</text>
</a>
</g>
<!-- Node1&#45;&gt;Node19 -->
<g id="edge36" class="edge"><title>Node1&#45;&gt;Node19</title>
<path fill="none" stroke="midnightblue" d="M172.415,-612.313C205.325,-641.659 271.108,-700.319 298.063,-724.355"/>
<polygon fill="midnightblue" stroke="midnightblue" points="174.594,-609.566 164.801,-605.523 169.935,-614.79 174.594,-609.566"/>
</g>
<!-- Node23 -->
<g id="node45" class="node"><title>Node23</title>
<a xlink:href="classMojDbStorageItem.htm" target="_top" xlink:title="MojDbStorageItem">
<polygon fill="white" stroke="black" points="258,-604.5 258,-625.5 362,-625.5 362,-604.5 258,-604.5"/>
<text text-anchor="middle" x="310" y="-612.5" font-family="Helvetica,sans-Serif" font-size="10.00">MojDbStorageItem</text>
</a>
</g>
<!-- Node1&#45;&gt;Node23 -->
<g id="edge44" class="edge"><title>Node1&#45;&gt;Node23</title>
<path fill="none" stroke="midnightblue" d="M208.68,-602.093C224.658,-604.128 242.016,-606.34 257.778,-608.347"/>
<polygon fill="midnightblue" stroke="midnightblue" points="208.773,-598.577 198.411,-600.785 207.888,-605.521 208.773,-598.577"/>
</g>
<!-- Node28 -->
<g id="node55" class="node"><title>Node28</title>
<a xlink:href="classMojDbStorageQuery.htm" target="_top" xlink:title="MojDbStorageQuery">
<polygon fill="white" stroke="black" points="253.5,-564.5 253.5,-585.5 366.5,-585.5 366.5,-564.5 253.5,-564.5"/>
<text text-anchor="middle" x="310" y="-572.5" font-family="Helvetica,sans-Serif" font-size="10.00">MojDbStorageQuery</text>
</a>
</g>
<!-- Node1&#45;&gt;Node28 -->
<g id="edge54" class="edge"><title>Node1&#45;&gt;Node28</title>
<path fill="none" stroke="midnightblue" d="M208.702,-587.904C223.154,-586.063 238.733,-584.079 253.238,-582.231"/>
<polygon fill="midnightblue" stroke="midnightblue" points="207.888,-584.479 198.411,-589.215 208.773,-591.423 207.888,-584.479"/>
</g>
<!-- Node30 -->
<g id="node59" class="node"><title>Node30</title>
<a xlink:href="classMojDbStorageSeq.htm" target="_top" xlink:title="MojDbStorageSeq">
<polygon fill="white" stroke="black" points="258.5,-524.5 258.5,-545.5 361.5,-545.5 361.5,-524.5 258.5,-524.5"/>
<text text-anchor="middle" x="310" y="-532.5" font-family="Helvetica,sans-Serif" font-size="10.00">MojDbStorageSeq</text>
</a>
</g>
<!-- Node1&#45;&gt;Node30 -->
<g id="edge58" class="edge"><title>Node1&#45;&gt;Node30</title>
<path fill="none" stroke="midnightblue" d="M180.788,-579.541C196.143,-571.446 215.753,-561.827 234,-555 243.456,-551.462 253.796,-548.298 263.718,-545.588"/>
<polygon fill="midnightblue" stroke="midnightblue" points="178.987,-576.535 171.828,-584.346 182.295,-582.704 178.987,-576.535"/>
</g>
<!-- Node34 -->
<g id="node67" class="node"><title>Node34</title>
<a xlink:href="classMojDbTextCollator.htm" target="_top" xlink:title="MojDbTextCollator">
<polygon fill="white" stroke="black" points="258,-484.5 258,-505.5 362,-505.5 362,-484.5 258,-484.5"/>
<text text-anchor="middle" x="310" y="-492.5" font-family="Helvetica,sans-Serif" font-size="10.00">MojDbTextCollator</text>
</a>
</g>
<!-- Node1&#45;&gt;Node34 -->
<g id="edge66" class="edge"><title>Node1&#45;&gt;Node34</title>
<path fill="none" stroke="midnightblue" d="M167.083,-576.243C181.804,-557.946 206.556,-530.65 234,-515 241.348,-510.81 249.595,-507.476 257.874,-504.83"/>
<polygon fill="midnightblue" stroke="midnightblue" points="164.097,-574.378 160.693,-584.412 169.611,-578.691 164.097,-574.378"/>
</g>
<!-- Node35 -->
<g id="node69" class="node"><title>Node35</title>
<a xlink:href="classMojDbTextTokenizer.htm" target="_top" xlink:title="MojDbTextTokenizer">
<polygon fill="white" stroke="black" points="252.5,-444.5 252.5,-465.5 367.5,-465.5 367.5,-444.5 252.5,-444.5"/>
<text text-anchor="middle" x="310" y="-452.5" font-family="Helvetica,sans-Serif" font-size="10.00">MojDbTextTokenizer</text>
</a>
</g>
<!-- Node1&#45;&gt;Node35 -->
<g id="edge68" class="edge"><title>Node1&#45;&gt;Node35</title>
<path fill="none" stroke="midnightblue" d="M161.103,-574.926C173.009,-548.022 197.808,-500.684 234,-475 239.563,-471.052 245.853,-467.883 252.372,-465.34"/>
<polygon fill="midnightblue" stroke="midnightblue" points="157.741,-573.89 157.047,-584.462 164.182,-576.63 157.741,-573.89"/>
</g>
<!-- Node36 -->
<g id="node71" class="node"><title>Node36</title>
<a xlink:href="classMojSchema.htm" target="_top" xlink:title="MojSchema">
<polygon fill="white" stroke="black" points="274,-404.5 274,-425.5 346,-425.5 346,-404.5 274,-404.5"/>
<text text-anchor="middle" x="310" y="-412.5" font-family="Helvetica,sans-Serif" font-size="10.00">MojSchema</text>
</a>
</g>
<!-- Node1&#45;&gt;Node36 -->
<g id="edge70" class="edge"><title>Node1&#45;&gt;Node36</title>
<path fill="none" stroke="midnightblue" d="M157.643,-574.253C166.422,-539.945 188.771,-471.556 234,-435 245.248,-425.909 260.211,-420.918 273.884,-418.189"/>
<polygon fill="midnightblue" stroke="midnightblue" points="154.208,-573.568 155.258,-584.111 161.011,-575.215 154.208,-573.568"/>
</g>
<!-- Node37 -->
<g id="node73" class="node"><title>Node37</title>
<polygon fill="white" stroke="#bfbfbf" points="261,-246.5 261,-267.5 359,-267.5 359,-246.5 261,-246.5"/>
<text text-anchor="middle" x="310" y="-254.5" font-family="Helvetica,sans-Serif" font-size="10.00">MojSchema::Rule</text>
</g>
<!-- Node1&#45;&gt;Node37 -->
<g id="edge72" class="edge"><title>Node1&#45;&gt;Node37</title>
<path fill="none" stroke="midnightblue" d="M160.231,-574.918C173.543,-538.494 203.383,-459.348 234,-395 257.268,-346.098 290.007,-290.289 303.647,-267.511"/>
<polygon fill="midnightblue" stroke="midnightblue" points="156.911,-573.806 156.787,-584.401 163.49,-576.196 156.911,-573.806"/>
</g>
<!-- Node47 -->
<g id="node93" class="node"><title>Node47</title>
<a xlink:href="classMojService_1_1Category.htm" target="_top" xlink:title="MojService::Category">
<polygon fill="white" stroke="red" points="251.5,-206.5 251.5,-227.5 368.5,-227.5 368.5,-206.5 251.5,-206.5"/>
<text text-anchor="middle" x="310" y="-214.5" font-family="Helvetica,sans-Serif" font-size="10.00">MojService::Category</text>
</a>
</g>
<!-- Node1&#45;&gt;Node47 -->
<g id="edge92" class="edge"><title>Node1&#45;&gt;Node47</title>
<path fill="none" stroke="midnightblue" d="M154.903,-574.213C161.618,-505.354 186.405,-286.281 234,-237 238.834,-231.995 244.758,-228.19 251.146,-225.306"/>
<polygon fill="midnightblue" stroke="midnightblue" points="151.41,-573.975 153.949,-584.261 158.378,-574.637 151.41,-573.975"/>
</g>
<!-- Node48 -->
<g id="node95" class="node"><title>Node48</title>
<a xlink:href="classMojSharedTokenSet.htm" target="_top" xlink:title="MojSharedTokenSet">
<polygon fill="white" stroke="red" points="253,-166.5 253,-187.5 367,-187.5 367,-166.5 253,-166.5"/>
<text text-anchor="middle" x="310" y="-174.5" font-family="Helvetica,sans-Serif" font-size="10.00">MojSharedTokenSet</text>
</a>
</g>
<!-- Node1&#45;&gt;Node48 -->
<g id="edge94" class="edge"><title>Node1&#45;&gt;Node48</title>
<path fill="none" stroke="midnightblue" d="M154.416,-573.869C159.81,-499.678 181.477,-252.58 234,-197 239.248,-191.447 245.836,-187.366 252.928,-184.379"/>
<polygon fill="midnightblue" stroke="midnightblue" points="150.897,-574.015 153.688,-584.236 157.88,-574.505 150.897,-574.015"/>
</g>
<!-- Node49 -->
<g id="node97" class="node"><title>Node49</title>
<a xlink:href="classMojSignalHandler.htm" target="_top" xlink:title="MojSignalHandler">
<polygon fill="white" stroke="red" points="259.5,-126.5 259.5,-147.5 360.5,-147.5 360.5,-126.5 259.5,-126.5"/>
<text text-anchor="middle" x="310" y="-134.5" font-family="Helvetica,sans-Serif" font-size="10.00">MojSignalHandler</text>
</a>
</g>
<!-- Node1&#45;&gt;Node49 -->
<g id="edge96" class="edge"><title>Node1&#45;&gt;Node49</title>
<path fill="none" stroke="midnightblue" d="M153.965,-574.321C158.034,-496.033 176.337,-219.125 234,-157 240.776,-149.7 249.867,-144.937 259.402,-141.858"/>
<polygon fill="midnightblue" stroke="midnightblue" points="150.466,-574.219 153.465,-584.381 157.457,-574.567 150.466,-574.219"/>
</g>
<!-- Node2 -->
<g id="node2" class="node"><title>Node2</title>
<a xlink:href="classMojNoCopy.htm" target="_top" xlink:title="MojNoCopy">
<polygon fill="white" stroke="black" points="0,-584.5 0,-605.5 72,-605.5 72,-584.5 0,-584.5"/>
<text text-anchor="middle" x="36" y="-592.5" font-family="Helvetica,sans-Serif" font-size="10.00">MojNoCopy</text>
</a>
</g>
<!-- Node2&#45;&gt;Node1 -->
<g id="edge2" class="edge"><title>Node2&#45;&gt;Node1</title>
<path fill="none" stroke="#8b1a1a" d="M82.1193,-595C90.5547,-595 99.35,-595 107.76,-595"/>
<polygon fill="#8b1a1a" stroke="#8b1a1a" points="82.0586,-591.5 72.0585,-595 82.0585,-598.5 82.0586,-591.5"/>
</g>
<!-- Node4 -->
<g id="node7" class="node"><title>Node4</title>
<a xlink:href="classMojDbBerkeleyEnv.htm" target="_top" xlink:title="MojDbBerkeleyEnv">
<polygon fill="white" stroke="black" points="466,-1144.5 466,-1165.5 572,-1165.5 572,-1144.5 466,-1144.5"/>
<text text-anchor="middle" x="519" y="-1152.5" font-family="Helvetica,sans-Serif" font-size="10.00">MojDbBerkeleyEnv</text>
</a>
</g>
<!-- Node3&#45;&gt;Node4 -->
<g id="edge6" class="edge"><title>Node3&#45;&gt;Node4</title>
<path fill="none" stroke="midnightblue" d="M352.809,-1123.19C385.529,-1129.46 430.817,-1138.12 465.855,-1144.83"/>
<polygon fill="midnightblue" stroke="midnightblue" points="353.136,-1119.69 342.656,-1121.25 351.82,-1126.57 353.136,-1119.69"/>
</g>
<!-- Node5 -->
<g id="node9" class="node"><title>Node5</title>
<a xlink:href="classMojDbLevelEnv.htm" target="_top" xlink:title="MojDbLevelEnv">
<polygon fill="white" stroke="black" points="474,-1104.5 474,-1125.5 564,-1125.5 564,-1104.5 474,-1104.5"/>
<text text-anchor="middle" x="519" y="-1112.5" font-family="Helvetica,sans-Serif" font-size="10.00">MojDbLevelEnv</text>
</a>
</g>
<!-- Node3&#45;&gt;Node5 -->
<g id="edge8" class="edge"><title>Node3&#45;&gt;Node5</title>
<path fill="none" stroke="midnightblue" d="M353.095,-1115C388.325,-1115 437.984,-1115 473.779,-1115"/>
<polygon fill="midnightblue" stroke="midnightblue" points="352.656,-1111.5 342.656,-1115 352.656,-1118.5 352.656,-1111.5"/>
</g>
<!-- Node7 -->
<g id="node13" class="node"><title>Node7</title>
<a xlink:href="classMojDbMultiExtractor.htm" target="_top" xlink:title="MojDbMultiExtractor">
<polygon fill="white" stroke="black" points="463.5,-1064.5 463.5,-1085.5 574.5,-1085.5 574.5,-1064.5 463.5,-1064.5"/>
<text text-anchor="middle" x="519" y="-1072.5" font-family="Helvetica,sans-Serif" font-size="10.00">MojDbMultiExtractor</text>
</a>
</g>
<!-- Node6&#45;&gt;Node7 -->
<g id="edge12" class="edge"><title>Node6&#45;&gt;Node7</title>
<path fill="none" stroke="midnightblue" d="M364.661,-1045.46C395.297,-1051.32 433.395,-1058.62 464.073,-1064.49"/>
<polygon fill="midnightblue" stroke="midnightblue" points="365.059,-1041.97 354.579,-1043.53 363.743,-1048.85 365.059,-1041.97"/>
</g>
<!-- Node8 -->
<g id="node15" class="node"><title>Node8</title>
<a xlink:href="classMojDbPropExtractor.htm" target="_top" xlink:title="MojDbPropExtractor">
<polygon fill="white" stroke="black" points="463,-1024.5 463,-1045.5 575,-1045.5 575,-1024.5 463,-1024.5"/>
<text text-anchor="middle" x="519" y="-1032.5" font-family="Helvetica,sans-Serif" font-size="10.00">MojDbPropExtractor</text>
</a>
</g>
<!-- Node6&#45;&gt;Node8 -->
<g id="edge14" class="edge"><title>Node6&#45;&gt;Node8</title>
<path fill="none" stroke="midnightblue" d="M364.94,-1035C395.144,-1035 432.536,-1035 462.919,-1035"/>
<polygon fill="midnightblue" stroke="midnightblue" points="364.579,-1031.5 354.579,-1035 364.579,-1038.5 364.579,-1031.5"/>
</g>
<!-- Node13 -->
<g id="node25" class="node"><title>Node13</title>
<a xlink:href="classMojDbStorageDatabase.htm" target="_top" xlink:title="MojDbStorageDatabase">
<polygon fill="white" stroke="red" points="454.5,-984.5 454.5,-1005.5 583.5,-1005.5 583.5,-984.5 454.5,-984.5"/>
<text text-anchor="middle" x="519" y="-992.5" font-family="Helvetica,sans-Serif" font-size="10.00">MojDbStorageDatabase</text>
</a>
</g>
<!-- Node12&#45;&gt;Node13 -->
<g id="edge24" class="edge"><title>Node12&#45;&gt;Node13</title>
<path fill="none" stroke="midnightblue" d="M381.335,-851.021C382.968,-852.254 384.528,-853.578 386,-855 426.039,-893.695 380.931,-937.4 422,-975 431.004,-983.244 442.475,-988.453 454.352,-991.677"/>
<polygon fill="midnightblue" stroke="midnightblue" points="382.968,-847.914 372.632,-845.588 379.261,-853.852 382.968,-847.914"/>
</g>
<!-- Node14 -->
<g id="node27" class="node"><title>Node14</title>
<a xlink:href="classMojDbStorageIndex.htm" target="_top" xlink:title="MojDbStorageIndex">
<polygon fill="white" stroke="red" points="464,-944.5 464,-965.5 574,-965.5 574,-944.5 464,-944.5"/>
<text text-anchor="middle" x="519" y="-952.5" font-family="Helvetica,sans-Serif" font-size="10.00">MojDbStorageIndex</text>
</a>
</g>
<!-- Node12&#45;&gt;Node14 -->
<g id="edge26" class="edge"><title>Node12&#45;&gt;Node14</title>
<path fill="none" stroke="midnightblue" d="M379.785,-850.42C381.96,-851.818 384.041,-853.341 386,-855 415.755,-880.196 391.576,-910.616 422,-935 433.807,-944.463 448.959,-949.783 463.76,-952.691"/>
<polygon fill="midnightblue" stroke="midnightblue" points="381.444,-847.339 370.989,-845.623 378.092,-853.484 381.444,-847.339"/>
</g>
<!-- Node16 -->
<g id="node31" class="node"><title>Node16</title>
<a xlink:href="classMojDbBerkeleyEngine.htm" target="_top" xlink:title="MojDbBerkeleyEngine">
<polygon fill="white" stroke="black" points="458.5,-904.5 458.5,-925.5 579.5,-925.5 579.5,-904.5 458.5,-904.5"/>
<text text-anchor="middle" x="519" y="-912.5" font-family="Helvetica,sans-Serif" font-size="10.00">MojDbBerkeleyEngine</text>
</a>
</g>
<!-- Node15&#45;&gt;Node16 -->
<g id="edge30" class="edge"><title>Node15&#45;&gt;Node16</title>
<path fill="none" stroke="midnightblue" d="M377.787,-809.186C380.69,-810.91 383.449,-812.84 386,-815 415.755,-840.196 391.576,-870.616 422,-895 432.398,-903.334 445.39,-908.455 458.453,-911.544"/>
<polygon fill="midnightblue" stroke="midnightblue" points="379.211,-805.984 368.706,-804.608 376.06,-812.235 379.211,-805.984"/>
</g>
<!-- Node17 -->
<g id="node33" class="node"><title>Node17</title>
<a xlink:href="classMojDbInnoEngine.htm" target="_top" xlink:title="MojDbInnoEngine">
<polygon fill="white" stroke="black" points="468.5,-864.5 468.5,-885.5 569.5,-885.5 569.5,-864.5 468.5,-864.5"/>
<text text-anchor="middle" x="519" y="-872.5" font-family="Helvetica,sans-Serif" font-size="10.00">MojDbInnoEngine</text>
</a>
</g>
<!-- Node15&#45;&gt;Node17 -->
<g id="edge32" class="edge"><title>Node15&#45;&gt;Node17</title>
<path fill="none" stroke="midnightblue" d="M375.123,-809.338C378.903,-811.022 382.56,-812.902 386,-815 406.42,-827.453 401.252,-843.102 422,-855 436.021,-863.04 452.824,-867.872 468.475,-870.769"/>
<polygon fill="midnightblue" stroke="midnightblue" points="376.119,-805.968 365.533,-805.54 373.542,-812.476 376.119,-805.968"/>
</g>
<!-- Node18 -->
<g id="node35" class="node"><title>Node18</title>
<a xlink:href="classMojDbLevelEngine.htm" target="_top" xlink:title="MojDbLevelEngine">
<polygon fill="white" stroke="black" points="466.5,-824.5 466.5,-845.5 571.5,-845.5 571.5,-824.5 466.5,-824.5"/>
<text text-anchor="middle" x="519" y="-832.5" font-family="Helvetica,sans-Serif" font-size="10.00">MojDbLevelEngine</text>
</a>
</g>
<!-- Node15&#45;&gt;Node18 -->
<g id="edge34" class="edge"><title>Node15&#45;&gt;Node18</title>
<path fill="none" stroke="midnightblue" d="M375.063,-807.452C404.386,-813.064 438.565,-819.606 466.256,-824.906"/>
<polygon fill="midnightblue" stroke="midnightblue" points="375.392,-803.952 364.912,-805.51 374.076,-810.827 375.392,-803.952"/>
</g>
<!-- Node20 -->
<g id="node39" class="node"><title>Node20</title>
<a xlink:href="classMojDbBerkeleyFactory.htm" target="_top" xlink:title="MojDbBerkeleyFactory">
<polygon fill="white" stroke="black" points="457.5,-784.5 457.5,-805.5 580.5,-805.5 580.5,-784.5 457.5,-784.5"/>
<text text-anchor="middle" x="519" y="-792.5" font-family="Helvetica,sans-Serif" font-size="10.00">MojDbBerkeleyFactory</text>
</a>
</g>
<!-- Node19&#45;&gt;Node20 -->
<g id="edge38" class="edge"><title>Node19&#45;&gt;Node20</title>
<path fill="none" stroke="midnightblue" d="M345.865,-749.253C367.642,-757.544 396.138,-767.754 422,-775 434.583,-778.526 448.244,-781.721 461.234,-784.471"/>
<polygon fill="midnightblue" stroke="midnightblue" points="346.955,-745.923 336.366,-745.597 344.441,-752.456 346.955,-745.923"/>
</g>
<!-- Node21 -->
<g id="node41" class="node"><title>Node21</title>
<a xlink:href="classMojDbInnoFactory.htm" target="_top" xlink:title="MojDbInnoFactory">
<polygon fill="white" stroke="black" points="467.5,-744.5 467.5,-765.5 570.5,-765.5 570.5,-744.5 467.5,-744.5"/>
<text text-anchor="middle" x="519" y="-752.5" font-family="Helvetica,sans-Serif" font-size="10.00">MojDbInnoFactory</text>
</a>
</g>
<!-- Node19&#45;&gt;Node21 -->
<g id="edge40" class="edge"><title>Node19&#45;&gt;Node21</title>
<path fill="none" stroke="midnightblue" d="M396.313,-743.26C420.499,-745.574 446.027,-748.017 467.496,-750.071"/>
<polygon fill="midnightblue" stroke="midnightblue" points="396.333,-739.746 386.045,-742.277 395.666,-746.714 396.333,-739.746"/>
</g>
<!-- Node22 -->
<g id="node43" class="node"><title>Node22</title>
<a xlink:href="classMojDbLevelFactory.htm" target="_top" xlink:title="MojDbLevelFactory">
<polygon fill="white" stroke="black" points="465.5,-704.5 465.5,-725.5 572.5,-725.5 572.5,-704.5 465.5,-704.5"/>
<text text-anchor="middle" x="519" y="-712.5" font-family="Helvetica,sans-Serif" font-size="10.00">MojDbLevelFactory</text>
</a>
</g>
<!-- Node19&#45;&gt;Node22 -->
<g id="edge42" class="edge"><title>Node19&#45;&gt;Node22</title>
<path fill="none" stroke="midnightblue" d="M396,-726.77C419.446,-724.527 444.175,-722.16 465.261,-720.142"/>
<polygon fill="midnightblue" stroke="midnightblue" points="395.666,-723.286 386.045,-727.723 396.333,-730.254 395.666,-723.286"/>
</g>
<!-- Node24 -->
<g id="node47" class="node"><title>Node24</title>
<a xlink:href="classMojDbBerkeleyItem.htm" target="_top" xlink:title="MojDbBerkeleyItem">
<polygon fill="white" stroke="black" points="465,-664.5 465,-685.5 573,-685.5 573,-664.5 465,-664.5"/>
<text text-anchor="middle" x="519" y="-672.5" font-family="Helvetica,sans-Serif" font-size="10.00">MojDbBerkeleyItem</text>
</a>
</g>
<!-- Node23&#45;&gt;Node24 -->
<g id="edge46" class="edge"><title>Node23&#45;&gt;Node24</title>
<path fill="none" stroke="midnightblue" d="M345.865,-629.253C367.642,-637.544 396.138,-647.754 422,-655 435.742,-658.85 450.77,-662.306 464.805,-665.219"/>
<polygon fill="midnightblue" stroke="midnightblue" points="346.955,-625.923 336.366,-625.597 344.441,-632.456 346.955,-625.923"/>
</g>
<!-- Node25 -->
<g id="node49" class="node"><title>Node25</title>
<a xlink:href="classMojDbInnoItem.htm" target="_top" xlink:title="MojDbInnoItem">
<polygon fill="white" stroke="black" points="475,-624.5 475,-645.5 563,-645.5 563,-624.5 475,-624.5"/>
<text text-anchor="middle" x="519" y="-632.5" font-family="Helvetica,sans-Serif" font-size="10.00">MojDbInnoItem</text>
</a>
</g>
<!-- Node23&#45;&gt;Node25 -->
<g id="edge48" class="edge"><title>Node23&#45;&gt;Node25</title>
<path fill="none" stroke="midnightblue" d="M372.215,-620.954C405.244,-624.114 445.052,-627.924 474.875,-630.778"/>
<polygon fill="midnightblue" stroke="midnightblue" points="372.488,-617.464 362.2,-619.995 371.821,-624.432 372.488,-617.464"/>
</g>
<!-- Node26 -->
<g id="node51" class="node"><title>Node26</title>
<a xlink:href="classMojDbLevelItem.htm" target="_top" xlink:title="MojDbLevelItem">
<polygon fill="white" stroke="black" points="473,-584.5 473,-605.5 565,-605.5 565,-584.5 473,-584.5"/>
<text text-anchor="middle" x="519" y="-592.5" font-family="Helvetica,sans-Serif" font-size="10.00">MojDbLevelItem</text>
</a>
</g>
<!-- Node23&#45;&gt;Node26 -->
<g id="edge50" class="edge"><title>Node23&#45;&gt;Node26</title>
<path fill="none" stroke="midnightblue" d="M372.419,-609.027C404.645,-605.943 443.281,-602.246 472.795,-599.421"/>
<polygon fill="midnightblue" stroke="midnightblue" points="371.821,-605.568 362.2,-610.005 372.488,-612.536 371.821,-605.568"/>
</g>
<!-- Node27 -->
<g id="node53" class="node"><title>Node27</title>
<a xlink:href="classMojDbObjectItem.htm" target="_top" xlink:title="MojDbObjectItem">
<polygon fill="white" stroke="black" points="470.5,-544.5 470.5,-565.5 567.5,-565.5 567.5,-544.5 470.5,-544.5"/>
<text text-anchor="middle" x="519" y="-552.5" font-family="Helvetica,sans-Serif" font-size="10.00">MojDbObjectItem</text>
</a>
</g>
<!-- Node23&#45;&gt;Node27 -->
<g id="edge52" class="edge"><title>Node23&#45;&gt;Node27</title>
<path fill="none" stroke="midnightblue" d="M367.524,-601.506C373.833,-599.541 380.102,-597.371 386,-595 402.983,-588.173 404.839,-581.366 422,-575 437.315,-569.319 454.621,-565.1 470.332,-562.04"/>
<polygon fill="midnightblue" stroke="midnightblue" points="366.227,-598.239 357.623,-604.422 368.205,-604.954 366.227,-598.239"/>
</g>
<!-- Node29 -->
<g id="node57" class="node"><title>Node29</title>
<a xlink:href="classMojDbIsamQuery.htm" target="_top" xlink:title="MojDbIsamQuery">
<polygon fill="white" stroke="red" points="470,-504.5 470,-525.5 568,-525.5 568,-504.5 470,-504.5"/>
<text text-anchor="middle" x="519" y="-512.5" font-family="Helvetica,sans-Serif" font-size="10.00">MojDbIsamQuery</text>
</a>
</g>
<!-- Node28&#45;&gt;Node29 -->
<g id="edge56" class="edge"><title>Node28&#45;&gt;Node29</title>
<path fill="none" stroke="midnightblue" d="M367.524,-561.506C373.833,-559.541 380.102,-557.371 386,-555 402.983,-548.173 404.839,-541.366 422,-535 437.154,-529.379 454.257,-525.189 469.835,-522.137"/>
<polygon fill="midnightblue" stroke="midnightblue" points="366.227,-558.239 357.623,-564.422 368.205,-564.954 366.227,-558.239"/>
</g>
<!-- Node31 -->
<g id="node61" class="node"><title>Node31</title>
<a xlink:href="classMojDbBerkeleySeq.htm" target="_top" xlink:title="MojDbBerkeleySeq">
<polygon fill="white" stroke="black" points="465.5,-464.5 465.5,-485.5 572.5,-485.5 572.5,-464.5 465.5,-464.5"/>
<text text-anchor="middle" x="519" y="-472.5" font-family="Helvetica,sans-Serif" font-size="10.00">MojDbBerkeleySeq</text>
</a>
</g>
<!-- Node30&#45;&gt;Node31 -->
<g id="edge60" class="edge"><title>Node30&#45;&gt;Node31</title>
<path fill="none" stroke="midnightblue" d="M367.524,-521.506C373.833,-519.541 380.102,-517.371 386,-515 402.983,-508.173 404.839,-501.366 422,-495 435.703,-489.917 451,-486.004 465.322,-483.045"/>
<polygon fill="midnightblue" stroke="midnightblue" points="366.227,-518.239 357.623,-524.422 368.205,-524.954 366.227,-518.239"/>
</g>
<!-- Node32 -->
<g id="node63" class="node"><title>Node32</title>
<a xlink:href="classMojDbInnoSeq.htm" target="_top" xlink:title="MojDbInnoSeq">
<polygon fill="white" stroke="black" points="476,-424.5 476,-445.5 562,-445.5 562,-424.5 476,-424.5"/>
<text text-anchor="middle" x="519" y="-432.5" font-family="Helvetica,sans-Serif" font-size="10.00">MojDbInnoSeq</text>
</a>
</g>
<!-- Node30&#45;&gt;Node32 -->
<g id="edge62" class="edge"><title>Node30&#45;&gt;Node32</title>
<path fill="none" stroke="midnightblue" d="M371.214,-523.523C376.475,-521.187 381.499,-518.378 386,-515 410.872,-496.332 396.633,-472.99 422,-455 437.568,-443.959 457.872,-438.733 475.878,-436.354"/>
<polygon fill="midnightblue" stroke="midnightblue" points="369.629,-520.382 361.549,-527.235 372.139,-526.916 369.629,-520.382"/>
</g>
<!-- Node33 -->
<g id="node65" class="node"><title>Node33</title>
<a xlink:href="classMojDbLevelSeq.htm" target="_top" xlink:title="MojDbLevelSeq">
<polygon fill="white" stroke="black" points="473.5,-384.5 473.5,-405.5 564.5,-405.5 564.5,-384.5 473.5,-384.5"/>
<text text-anchor="middle" x="519" y="-392.5" font-family="Helvetica,sans-Serif" font-size="10.00">MojDbLevelSeq</text>
</a>
</g>
<!-- Node30&#45;&gt;Node33 -->
<g id="edge64" class="edge"><title>Node30&#45;&gt;Node33</title>
<path fill="none" stroke="midnightblue" d="M371.09,-524.831C376.523,-522.24 381.616,-519.013 386,-515 420.842,-483.104 386.31,-445.944 422,-415 436.031,-402.835 455.487,-397.375 473.294,-395.127"/>
<polygon fill="midnightblue" stroke="midnightblue" points="369.657,-521.635 361.69,-528.619 372.273,-528.128 369.657,-521.635"/>
</g>
<!-- Node38 -->
<g id="node75" class="node"><title>Node38</title>
<polygon fill="white" stroke="#bfbfbf" points="422.5,-344.5 422.5,-365.5 615.5,-365.5 615.5,-344.5 422.5,-344.5"/>
<text text-anchor="middle" x="519" y="-352.5" font-family="Helvetica,sans-Serif" font-size="10.00">MojSchema::AdditionalPropertiesRule</text>
</g>
<!-- Node37&#45;&gt;Node38 -->
<g id="edge74" class="edge"><title>Node37&#45;&gt;Node38</title>
<path fill="none" stroke="midnightblue" d="M329.429,-274.26C350.671,-292.192 386.444,-319.722 422,-335 430.926,-338.835 440.637,-341.952 450.351,-344.48"/>
<polygon fill="midnightblue" stroke="midnightblue" points="331.637,-271.543 321.772,-267.678 327.074,-276.851 331.637,-271.543"/>
</g>
<!-- Node39 -->
<g id="node77" class="node"><title>Node39</title>
<polygon fill="white" stroke="#bfbfbf" points="448.5,-292 448.5,-326 589.5,-326 589.5,-292 448.5,-292"/>
<text text-anchor="start" x="456.5" y="-313" font-family="Helvetica,sans-Serif" font-size="10.00">MojSchema::ArrayLenRule</text>
<text text-anchor="middle" x="519" y="-300" font-family="Helvetica,sans-Serif" font-size="10.00">&lt; COMP &gt;</text>
</g>
<!-- Node37&#45;&gt;Node39 -->
<g id="edge76" class="edge"><title>Node37&#45;&gt;Node39</title>
<path fill="none" stroke="midnightblue" d="M362.204,-269.989C388.899,-276.63 421.73,-284.799 450.439,-291.942"/>
<polygon fill="midnightblue" stroke="midnightblue" points="362.843,-266.541 352.294,-267.523 361.153,-273.334 362.843,-266.541"/>
</g>
<!-- Node40 -->
<g id="node79" class="node"><title>Node40</title>
<polygon fill="white" stroke="#bfbfbf" points="456.5,-240 456.5,-274 581.5,-274 581.5,-240 456.5,-240"/>
<text text-anchor="start" x="464.5" y="-261" font-family="Helvetica,sans-Serif" font-size="10.00">MojSchema::CompRule</text>
<text text-anchor="middle" x="519" y="-248" font-family="Helvetica,sans-Serif" font-size="10.00">&lt; COMP1, COMP2 &gt;</text>
</g>
<!-- Node37&#45;&gt;Node40 -->
<g id="edge78" class="edge"><title>Node37&#45;&gt;Node40</title>
<path fill="none" stroke="midnightblue" d="M369.173,-257C396.419,-257 428.764,-257 456.416,-257"/>
<polygon fill="midnightblue" stroke="midnightblue" points="369.001,-253.5 359.001,-257 369.001,-260.5 369.001,-253.5"/>
</g>
<!-- Node41 -->
<g id="node81" class="node"><title>Node41</title>
<polygon fill="white" stroke="#bfbfbf" points="451,-200.5 451,-221.5 587,-221.5 587,-200.5 451,-200.5"/>
<text text-anchor="middle" x="519" y="-208.5" font-family="Helvetica,sans-Serif" font-size="10.00">MojSchema::DivisibleRule</text>
</g>
<!-- Node37&#45;&gt;Node41 -->
<g id="edge80" class="edge"><title>Node37&#45;&gt;Node41</title>
<path fill="none" stroke="midnightblue" d="M364.04,-244.17C382.412,-239.884 403.08,-235.146 422,-231 436.529,-227.816 452.313,-224.501 466.847,-221.506"/>
<polygon fill="midnightblue" stroke="midnightblue" points="363.034,-240.811 354.095,-246.498 364.629,-247.627 363.034,-240.811"/>
</g>
<!-- Node42 -->
<g id="node83" class="node"><title>Node42</title>
<polygon fill="white" stroke="#bfbfbf" points="457,-160.5 457,-181.5 581,-181.5 581,-160.5 457,-160.5"/>
<text text-anchor="middle" x="519" y="-168.5" font-family="Helvetica,sans-Serif" font-size="10.00">MojSchema::EnumRule</text>
</g>
<!-- Node37&#45;&gt;Node42 -->
<g id="edge82" class="edge"><title>Node37&#45;&gt;Node42</title>
<path fill="none" stroke="midnightblue" d="M368.704,-245.761C374.795,-243.38 380.69,-240.495 386,-237 407.686,-222.729 399.936,-204.681 422,-191 432.448,-184.521 444.627,-180.101 456.754,-177.096"/>
<polygon fill="midnightblue" stroke="midnightblue" points="367.336,-242.531 359.027,-249.105 369.622,-249.147 367.336,-242.531"/>
</g>
<!-- Node43 -->
<g id="node85" class="node"><title>Node43</title>
<polygon fill="white" stroke="#bfbfbf" points="446,-120.5 446,-141.5 592,-141.5 592,-120.5 446,-120.5"/>
<text text-anchor="middle" x="519" y="-128.5" font-family="Helvetica,sans-Serif" font-size="10.00">MojSchema::PropertiesRule</text>
</g>
<!-- Node37&#45;&gt;Node43 -->
<g id="edge84" class="edge"><title>Node37&#45;&gt;Node43</title>
<path fill="none" stroke="midnightblue" d="M368.544,-247.641C374.885,-244.929 380.882,-241.452 386,-237 417.265,-209.808 390.012,-177.339 422,-151 428.902,-145.317 437.003,-141.117 445.53,-138.033"/>
<polygon fill="midnightblue" stroke="midnightblue" points="367.266,-244.382 359.069,-251.094 369.663,-250.959 367.266,-244.382"/>
</g>
<!-- Node44 -->
<g id="node87" class="node"><title>Node44</title>
<polygon fill="white" stroke="#bfbfbf" points="449,-80.5 449,-101.5 589,-101.5 589,-80.5 449,-80.5"/>
<text text-anchor="middle" x="519" y="-88.5" font-family="Helvetica,sans-Serif" font-size="10.00">MojSchema::RequiresRule</text>
</g>
<!-- Node37&#45;&gt;Node44 -->
<g id="edge86" class="edge"><title>Node37&#45;&gt;Node44</title>
<path fill="none" stroke="midnightblue" d="M368.819,-248.328C375.165,-245.502 381.088,-241.81 386,-237 427.612,-196.252 379.303,-150.61 422,-111 429.563,-103.983 438.91,-99.1573 448.788,-95.8802"/>
<polygon fill="midnightblue" stroke="midnightblue" points="367.436,-245.109 359.288,-251.881 369.881,-251.668 367.436,-245.109"/>
</g>
<!-- Node45 -->
<g id="node89" class="node"><title>Node45</title>
<polygon fill="white" stroke="#bfbfbf" points="451,-40.5 451,-61.5 587,-61.5 587,-40.5 451,-40.5"/>
<text text-anchor="middle" x="519" y="-48.5" font-family="Helvetica,sans-Serif" font-size="10.00">MojSchema::SchemaRule</text>
</g>
<!-- Node37&#45;&gt;Node45 -->
<g id="edge88" class="edge"><title>Node37&#45;&gt;Node45</title>
<path fill="none" stroke="midnightblue" d="M368.873,-248.746C375.263,-245.854 381.183,-242.033 386,-237 438.201,-182.463 368.346,-124.108 422,-71 429.943,-63.1376 440.106,-57.9784 450.85,-54.6567"/>
<polygon fill="midnightblue" stroke="midnightblue" points="367.385,-245.566 359.248,-252.351 369.841,-252.121 367.385,-245.566"/>
</g>
<!-- Node46 -->
<g id="node91" class="node"><title>Node46</title>
<polygon fill="white" stroke="#bfbfbf" points="441.5,-0.5 441.5,-21.5 596.5,-21.5 596.5,-0.5 441.5,-0.5"/>
<text text-anchor="middle" x="519" y="-8.5" font-family="Helvetica,sans-Serif" font-size="10.00">MojSchema::SimpleItemsRule</text>
</g>
<!-- Node37&#45;&gt;Node46 -->
<g id="edge90" class="edge"><title>Node37&#45;&gt;Node46</title>
<path fill="none" stroke="midnightblue" d="M368.82,-249.046C375.274,-246.11 381.224,-242.197 386,-237 448.893,-168.568 357.283,-97.7096 422,-31 427.507,-25.323 434.167,-21.0404 441.388,-17.8344"/>
<polygon fill="midnightblue" stroke="midnightblue" points="367.225,-245.906 359.082,-252.685 369.675,-252.463 367.225,-245.906"/>
</g>
</g>
</svg>
