<?xml version="1.0" encoding="UTF-8" standalone="no"?>
<!DOCTYPE svg PUBLIC "-//W3C//DTD SVG 1.1//EN"
 "http://www.w3.org/Graphics/SVG/1.1/DTD/svg11.dtd">
<!-- Generated by graphviz version 2.26.3 (20100126.1600)
 -->
<!-- Title: MojDbStorageTxn Pages: 1 -->
<svg width="364pt" height="320pt"
 viewBox="0.00 0.00 364.00 320.00" xmlns="http://www.w3.org/2000/svg" xmlns:xlink="http://www.w3.org/1999/xlink">
<g id="graph1" class="graph" transform="scale(1 1) rotate(0) translate(4 316)">
<title>MojDbStorageTxn</title>
<polygon fill="white" stroke="white" points="-4,5 -4,-316 361,-316 361,5 -4,5"/>
<!-- Node1 -->
<g id="node1" class="node"><title>Node1</title>
<polygon fill="#bfbfbf" stroke="black" points="116,-116.5 116,-137.5 218,-137.5 218,-116.5 116,-116.5"/>
<text text-anchor="middle" x="167" y="-124.5" font-family="Helvetica,sans-Serif" font-size="10.00">MojDbStorageTxn</text>
</g>
<!-- Node5 -->
<g id="node9" class="node"><title>Node5</title>
<a xlink:href="classMojDbBerkeleyTxn.htm" target="_top" xlink:title="MojDbBerkeleyTxn">
<polygon fill="white" stroke="black" points="0,-58.5 0,-79.5 106,-79.5 106,-58.5 0,-58.5"/>
<text text-anchor="middle" x="53" y="-66.5" font-family="Helvetica,sans-Serif" font-size="10.00">MojDbBerkeleyTxn</text>
</a>
</g>
<!-- Node1&#45;&gt;Node5 -->
<g id="edge8" class="edge"><title>Node1&#45;&gt;Node5</title>
<path fill="none" stroke="midnightblue" d="M137.383,-111.932C117.456,-101.793 91.6711,-88.6748 73.8762,-79.6212"/>
<polygon fill="midnightblue" stroke="midnightblue" points="135.856,-115.081 146.355,-116.497 139.03,-108.843 135.856,-115.081"/>
</g>
<!-- Node6 -->
<g id="node11" class="node"><title>Node6</title>
<a xlink:href="classMojDbInnoTxn.htm" target="_top" xlink:title="MojDbInnoTxn">
<polygon fill="white" stroke="black" points="124,-58.5 124,-79.5 210,-79.5 210,-58.5 124,-58.5"/>
<text text-anchor="middle" x="167" y="-66.5" font-family="Helvetica,sans-Serif" font-size="10.00">MojDbInnoTxn</text>
</a>
</g>
<!-- Node1&#45;&gt;Node6 -->
<g id="edge10" class="edge"><title>Node1&#45;&gt;Node6</title>
<path fill="none" stroke="midnightblue" d="M167,-106.191C167,-97.1684 167,-86.9941 167,-79.5707"/>
<polygon fill="midnightblue" stroke="midnightblue" points="163.5,-106.362 167,-116.362 170.5,-106.362 163.5,-106.362"/>
</g>
<!-- Node7 -->
<g id="node13" class="node"><title>Node7</title>
<a xlink:href="classMojDbLevelAbstractTxn.htm" target="_top" xlink:title="MojDbLevelAbstractTxn">
<polygon fill="white" stroke="black" points="228,-58.5 228,-79.5 356,-79.5 356,-58.5 228,-58.5"/>
<text text-anchor="middle" x="292" y="-66.5" font-family="Helvetica,sans-Serif" font-size="10.00">MojDbLevelAbstractTxn</text>
</a>
</g>
<!-- Node1&#45;&gt;Node7 -->
<g id="edge12" class="edge"><title>Node1&#45;&gt;Node7</title>
<path fill="none" stroke="midnightblue" d="M198.883,-112.206C220.812,-102.031 249.421,-88.7567 269.109,-79.6212"/>
<polygon fill="midnightblue" stroke="midnightblue" points="197.234,-109.113 189.637,-116.497 200.181,-115.462 197.234,-109.113"/>
</g>
<!-- Node2 -->
<g id="node2" class="node"><title>Node2</title>
<a xlink:href="classMojSignalHandler.htm" target="_top" xlink:title="MojSignalHandler">
<polygon fill="white" stroke="black" points="116.5,-174.5 116.5,-195.5 217.5,-195.5 217.5,-174.5 116.5,-174.5"/>
<text text-anchor="middle" x="167" y="-182.5" font-family="Helvetica,sans-Serif" font-size="10.00">MojSignalHandler</text>
</a>
</g>
<!-- Node2&#45;&gt;Node1 -->
<g id="edge2" class="edge"><title>Node2&#45;&gt;Node1</title>
<path fill="none" stroke="midnightblue" d="M167,-164.191C167,-155.168 167,-144.994 167,-137.571"/>
<polygon fill="midnightblue" stroke="midnightblue" points="163.5,-164.362 167,-174.362 170.5,-164.362 163.5,-164.362"/>
</g>
<!-- Node3 -->
<g id="node4" class="node"><title>Node3</title>
<a xlink:href="classMojRefCounted.htm" target="_top" xlink:title="MojRefCounted">
<polygon fill="white" stroke="black" points="122,-232.5 122,-253.5 212,-253.5 212,-232.5 122,-232.5"/>
<text text-anchor="middle" x="167" y="-240.5" font-family="Helvetica,sans-Serif" font-size="10.00">MojRefCounted</text>
</a>
</g>
<!-- Node3&#45;&gt;Node2 -->
<g id="edge4" class="edge"><title>Node3&#45;&gt;Node2</title>
<path fill="none" stroke="midnightblue" d="M167,-222.191C167,-213.168 167,-202.994 167,-195.571"/>
<polygon fill="midnightblue" stroke="midnightblue" points="163.5,-222.362 167,-232.362 170.5,-222.362 163.5,-222.362"/>
</g>
<!-- Node4 -->
<g id="node6" class="node"><title>Node4</title>
<a xlink:href="classMojNoCopy.htm" target="_top" xlink:title="MojNoCopy">
<polygon fill="white" stroke="black" points="131,-290.5 131,-311.5 203,-311.5 203,-290.5 131,-290.5"/>
<text text-anchor="middle" x="167" y="-298.5" font-family="Helvetica,sans-Serif" font-size="10.00">MojNoCopy</text>
</a>
</g>
<!-- Node4&#45;&gt;Node3 -->
<g id="edge6" class="edge"><title>Node4&#45;&gt;Node3</title>
<path fill="none" stroke="#8b1a1a" d="M167,-280.191C167,-271.168 167,-260.994 167,-253.571"/>
<polygon fill="#8b1a1a" stroke="#8b1a1a" points="163.5,-280.362 167,-290.362 170.5,-280.362 163.5,-280.362"/>
</g>
<!-- Node8 -->
<g id="node15" class="node"><title>Node8</title>
<a xlink:href="classMojDbLevelEnvTxn.htm" target="_top" xlink:title="MojDbLevelEnvTxn">
<polygon fill="white" stroke="black" points="238,-0.5 238,-21.5 346,-21.5 346,-0.5 238,-0.5"/>
<text text-anchor="middle" x="292" y="-8.5" font-family="Helvetica,sans-Serif" font-size="10.00">MojDbLevelEnvTxn</text>
</a>
</g>
<!-- Node7&#45;&gt;Node8 -->
<g id="edge14" class="edge"><title>Node7&#45;&gt;Node8</title>
<path fill="none" stroke="midnightblue" d="M292,-48.1906C292,-39.1684 292,-28.9941 292,-21.5707"/>
<polygon fill="midnightblue" stroke="midnightblue" points="288.5,-48.3619 292,-58.3619 295.5,-48.3619 288.5,-48.3619"/>
</g>
</g>
</svg>
