<?xml version="1.0" encoding="UTF-8" standalone="no"?>
<!DOCTYPE svg PUBLIC "-//W3C//DTD SVG 1.1//EN"
 "http://www.w3.org/Graphics/SVG/1.1/DTD/svg11.dtd">
<!-- Generated by graphviz version 2.26.3 (20100126.1600)
 -->
<!-- Title: MojDbInnoTableSchema Pages: 1 -->
<svg width="269pt" height="128pt"
 viewBox="0.00 0.00 269.00 128.00" xmlns="http://www.w3.org/2000/svg" xmlns:xlink="http://www.w3.org/1999/xlink">
<g id="graph1" class="graph" transform="scale(1 1) rotate(0) translate(4 124)">
<title>MojDbInnoTableSchema</title>
<polygon fill="white" stroke="white" points="-4,5 -4,-124 266,-124 266,5 -4,5"/>
<!-- Node1 -->
<g id="node1" class="node"><title>Node1</title>
<polygon fill="#bfbfbf" stroke="black" points="51,-0.5 51,-21.5 183,-21.5 183,-0.5 51,-0.5"/>
<text text-anchor="middle" x="117" y="-8.5" font-family="Helvetica,sans-Serif" font-size="10.00">MojDbInnoTableSchema</text>
</g>
<!-- Node2 -->
<g id="node2" class="node"><title>Node2</title>
<a xlink:href="classMojNoCopy.htm" target="_top" xlink:title="MojNoCopy">
<polygon fill="white" stroke="black" points="0,-91.5 0,-112.5 72,-112.5 72,-91.5 0,-91.5"/>
<text text-anchor="middle" x="36" y="-99.5" font-family="Helvetica,sans-Serif" font-size="10.00">MojNoCopy</text>
</a>
</g>
<!-- Node2&#45;&gt;Node1 -->
<g id="edge2" class="edge"><title>Node2&#45;&gt;Node1</title>
<path fill="none" stroke="#8b1a1a" d="M52.3629,-83.617C68.9857,-64.9419 94.1495,-36.6716 107.653,-21.5013"/>
<polygon fill="#8b1a1a" stroke="#8b1a1a" points="49.6443,-81.4071 45.6098,-91.2038 54.873,-86.0612 49.6443,-81.4071"/>
</g>
<!-- Node3 -->
<g id="node4" class="node"><title>Node3</title>
<polygon fill="white" stroke="#bfbfbf" points="90,-91.5 90,-112.5 144,-112.5 144,-91.5 90,-91.5"/>
<text text-anchor="middle" x="117" y="-99.5" font-family="Helvetica,sans-Serif" font-size="10.00">MojSize</text>
</g>
<!-- Node3&#45;&gt;Node1 -->
<g id="edge4" class="edge"><title>Node3&#45;&gt;Node1</title>
<path fill="none" stroke="#9a32cd" stroke-dasharray="5,2" d="M117,-81.0488C117,-62.4328 117,-35.9913 117,-21.5013"/>
<polygon fill="#9a32cd" stroke="#9a32cd" points="113.5,-81.2037 117,-91.2038 120.5,-81.2038 113.5,-81.2037"/>
<text text-anchor="middle" x="148" y="-57" font-family="Helvetica,sans-Serif" font-size="10.00"> MaxKeySize</text>
<text text-anchor="middle" x="148" y="-44" font-family="Helvetica,sans-Serif" font-size="10.00">PageSize</text>
</g>
<!-- Node4 -->
<g id="node6" class="node"><title>Node4</title>
<polygon fill="white" stroke="#bfbfbf" points="161.5,-85 161.5,-119 258.5,-119 258.5,-85 161.5,-85"/>
<text text-anchor="start" x="169.5" y="-106" font-family="Helvetica,sans-Serif" font-size="10.00">static const ib_tbl</text>
<text text-anchor="middle" x="210" y="-93" font-family="Helvetica,sans-Serif" font-size="10.00">_fmt_t</text>
</g>
<!-- Node4&#45;&gt;Node1 -->
<g id="edge6" class="edge"><title>Node4&#45;&gt;Node1</title>
<path fill="none" stroke="#9a32cd" stroke-dasharray="5,2" d="M203.192,-75.191C199.017,-63.1918 192.583,-49.6145 183,-40 174.96,-31.9334 164.296,-25.9372 153.89,-21.5589"/>
<polygon fill="#9a32cd" stroke="#9a32cd" points="199.865,-76.2763 206.188,-84.7774 206.546,-74.1886 199.865,-76.2763"/>
<text text-anchor="middle" x="229.5" y="-50.5" font-family="Helvetica,sans-Serif" font-size="10.00"> TableFormat</text>
</g>
</g>
</svg>
