<?xml version="1.0" encoding="UTF-8" standalone="no"?>
<!DOCTYPE svg PUBLIC "-//W3C//DTD SVG 1.1//EN"
 "http://www.w3.org/Graphics/SVG/1.1/DTD/svg11.dtd">
<!-- Generated by graphviz version 2.26.3 (20100126.1600)
 -->
<!-- Title: MojDbInnoDatabase Pages: 1 -->
<svg width="226pt" height="294pt"
 viewBox="0.00 0.00 226.00 294.00" xmlns="http://www.w3.org/2000/svg" xmlns:xlink="http://www.w3.org/1999/xlink">
<g id="graph1" class="graph" transform="scale(1 1) rotate(0) translate(4 290)">
<title>MojDbInnoDatabase</title>
<polygon fill="white" stroke="white" points="-4,5 -4,-290 223,-290 223,5 -4,5"/>
<!-- Node1 -->
<g id="node1" class="node"><title>Node1</title>
<polygon fill="#bfbfbf" stroke="black" points="83.5,-0.5 83.5,-21.5 196.5,-21.5 196.5,-0.5 83.5,-0.5"/>
<text text-anchor="middle" x="140" y="-8.5" font-family="Helvetica,sans-Serif" font-size="10.00">MojDbInnoDatabase</text>
</g>
<!-- Node2 -->
<g id="node2" class="node"><title>Node2</title>
<a xlink:href="classMojDbStorageDatabase.htm" target="_top" xlink:title="MojDbStorageDatabase">
<polygon fill="white" stroke="black" points="0.5,-84.5 0.5,-105.5 129.5,-105.5 129.5,-84.5 0.5,-84.5"/>
<text text-anchor="middle" x="65" y="-92.5" font-family="Helvetica,sans-Serif" font-size="10.00">MojDbStorageDatabase</text>
</a>
</g>
<!-- Node2&#45;&gt;Node1 -->
<g id="edge2" class="edge"><title>Node2&#45;&gt;Node1</title>
<path fill="none" stroke="midnightblue" d="M81.2755,-76.7714C96.3408,-59.8983 118.22,-35.3936 130.578,-21.5523"/>
<polygon fill="midnightblue" stroke="midnightblue" points="78.5482,-74.5709 74.4988,-84.3613 83.7698,-79.233 78.5482,-74.5709"/>
</g>
<!-- Node3 -->
<g id="node4" class="node"><title>Node3</title>
<a xlink:href="classMojDbStorageCollection.htm" target="_top" xlink:title="MojDbStorageCollection">
<polygon fill="white" stroke="black" points="-0.5,-144.5 -0.5,-165.5 130.5,-165.5 130.5,-144.5 -0.5,-144.5"/>
<text text-anchor="middle" x="65" y="-152.5" font-family="Helvetica,sans-Serif" font-size="10.00">MojDbStorageCollection</text>
</a>
</g>
<!-- Node3&#45;&gt;Node2 -->
<g id="edge4" class="edge"><title>Node3&#45;&gt;Node2</title>
<path fill="none" stroke="midnightblue" d="M65,-134.231C65,-124.592 65,-113.544 65,-105.634"/>
<polygon fill="midnightblue" stroke="midnightblue" points="61.5001,-134.273 65,-144.273 68.5001,-134.273 61.5001,-134.273"/>
</g>
<!-- Node4 -->
<g id="node6" class="node"><title>Node4</title>
<a xlink:href="classMojRefCounted.htm" target="_top" xlink:title="MojRefCounted">
<polygon fill="white" stroke="black" points="20,-204.5 20,-225.5 110,-225.5 110,-204.5 20,-204.5"/>
<text text-anchor="middle" x="65" y="-212.5" font-family="Helvetica,sans-Serif" font-size="10.00">MojRefCounted</text>
</a>
</g>
<!-- Node4&#45;&gt;Node3 -->
<g id="edge6" class="edge"><title>Node4&#45;&gt;Node3</title>
<path fill="none" stroke="midnightblue" d="M65,-194.231C65,-184.592 65,-173.544 65,-165.634"/>
<polygon fill="midnightblue" stroke="midnightblue" points="61.5001,-194.273 65,-204.273 68.5001,-194.273 61.5001,-194.273"/>
</g>
<!-- Node5 -->
<g id="node8" class="node"><title>Node5</title>
<a xlink:href="classMojNoCopy.htm" target="_top" xlink:title="MojNoCopy">
<polygon fill="white" stroke="black" points="29,-264.5 29,-285.5 101,-285.5 101,-264.5 29,-264.5"/>
<text text-anchor="middle" x="65" y="-272.5" font-family="Helvetica,sans-Serif" font-size="10.00">MojNoCopy</text>
</a>
</g>
<!-- Node5&#45;&gt;Node4 -->
<g id="edge8" class="edge"><title>Node5&#45;&gt;Node4</title>
<path fill="none" stroke="#8b1a1a" d="M65,-254.231C65,-244.592 65,-233.544 65,-225.634"/>
<polygon fill="#8b1a1a" stroke="#8b1a1a" points="61.5001,-254.273 65,-264.273 68.5001,-254.273 61.5001,-254.273"/>
</g>
<!-- Node6 -->
<g id="node10" class="node"><title>Node6</title>
<polygon fill="white" stroke="#bfbfbf" points="147,-84.5 147,-105.5 185,-105.5 185,-84.5 147,-84.5"/>
<text text-anchor="middle" x="166" y="-92.5" font-family="Helvetica,sans-Serif" font-size="10.00">char</text>
</g>
<!-- Node6&#45;&gt;Node1 -->
<g id="edge10" class="edge"><title>Node6&#45;&gt;Node1</title>
<path fill="none" stroke="#9a32cd" stroke-dasharray="5,2" d="M159.632,-74.4249C154.452,-57.6927 147.356,-34.7645 143.266,-21.5523"/>
<polygon fill="#9a32cd" stroke="#9a32cd" points="156.407,-75.8434 162.707,-84.3613 163.094,-73.7736 156.407,-75.8434"/>
<text text-anchor="middle" x="187" y="-57" font-family="Helvetica,sans-Serif" font-size="10.00"> ValColName</text>
<text text-anchor="middle" x="187" y="-44" font-family="Helvetica,sans-Serif" font-size="10.00">KeyColName</text>
</g>
</g>
</svg>
