<?xml version="1.0" encoding="UTF-8" standalone="no"?>
<!DOCTYPE svg PUBLIC "-//W3C//DTD SVG 1.1//EN"
 "http://www.w3.org/Graphics/SVG/1.1/DTD/svg11.dtd">
<!-- Generated by graphviz version 2.26.3 (20100126.1600)
 -->
<!-- Title: MojAutoPtrBase&lt; T, DTOR &gt; Pages: 1 -->
<svg width="132pt" height="160pt"
 viewBox="0.00 0.00 132.00 160.00" xmlns="http://www.w3.org/2000/svg" xmlns:xlink="http://www.w3.org/1999/xlink">
<g id="graph1" class="graph" transform="scale(1 1) rotate(0) translate(4 156)">
<title>MojAutoPtrBase&lt; T, DTOR &gt;</title>
<polygon fill="white" stroke="white" points="-4,5 -4,-156 129,-156 129,5 -4,5"/>
<!-- Node1 -->
<g id="node1" class="node"><title>Node1</title>
<polygon fill="#bfbfbf" stroke="black" points="7,-1 7,-35 117,-35 117,-1 7,-1"/>
<text text-anchor="start" x="15" y="-22" font-family="Helvetica,sans-Serif" font-size="10.00">MojAutoPtrBase&lt; T,</text>
<text text-anchor="middle" x="62" y="-9" font-family="Helvetica,sans-Serif" font-size="10.00"> DTOR &gt;</text>
</g>
<!-- Node2 -->
<g id="node2" class="node"><title>Node2</title>
<a xlink:href="classMojSmartPtrBase.htm" target="_top" xlink:title="MojSmartPtrBase\&lt; T \&gt;">
<polygon fill="white" stroke="black" points="0,-72.5 0,-93.5 124,-93.5 124,-72.5 0,-72.5"/>
<text text-anchor="middle" x="62" y="-80.5" font-family="Helvetica,sans-Serif" font-size="10.00">MojSmartPtrBase&lt; T &gt;</text>
</a>
</g>
<!-- Node2&#45;&gt;Node1 -->
<g id="edge2" class="edge"><title>Node2&#45;&gt;Node1</title>
<path fill="none" stroke="midnightblue" d="M62,-62.1306C62,-53.4049 62,-43.3908 62,-35.1099"/>
<polygon fill="midnightblue" stroke="midnightblue" points="58.5001,-62.2665 62,-72.2666 65.5001,-62.2666 58.5001,-62.2665"/>
</g>
<!-- Node3 -->
<g id="node4" class="node"><title>Node3</title>
<a xlink:href="classMojNoCopy.htm" target="_top" xlink:title="MojNoCopy">
<polygon fill="white" stroke="black" points="26,-130.5 26,-151.5 98,-151.5 98,-130.5 26,-130.5"/>
<text text-anchor="middle" x="62" y="-138.5" font-family="Helvetica,sans-Serif" font-size="10.00">MojNoCopy</text>
</a>
</g>
<!-- Node3&#45;&gt;Node2 -->
<g id="edge4" class="edge"><title>Node3&#45;&gt;Node2</title>
<path fill="none" stroke="#8b1a1a" d="M62,-120.191C62,-111.168 62,-100.994 62,-93.5707"/>
<polygon fill="#8b1a1a" stroke="#8b1a1a" points="58.5001,-120.362 62,-130.362 65.5001,-120.362 58.5001,-120.362"/>
</g>
</g>
</svg>
