<?xml version="1.0" encoding="UTF-8" standalone="no"?>
<!DOCTYPE svg PUBLIC "-//W3C//DTD SVG 1.1//EN"
 "http://www.w3.org/Graphics/SVG/1.1/DTD/svg11.dtd">
<!-- Generated by graphviz version 2.26.3 (20100126.1600)
 -->
<!-- Title: MojDbExtractor Pages: 1 -->
<svg width="248pt" height="204pt"
 viewBox="0.00 0.00 248.00 204.00" xmlns="http://www.w3.org/2000/svg" xmlns:xlink="http://www.w3.org/1999/xlink">
<g id="graph1" class="graph" transform="scale(1 1) rotate(0) translate(4 200)">
<title>MojDbExtractor</title>
<polygon fill="white" stroke="white" points="-4,5 -4,-200 245,-200 245,5 -4,5"/>
<!-- Node1 -->
<g id="node1" class="node"><title>Node1</title>
<polygon fill="#bfbfbf" stroke="black" points="74.5,-58.5 74.5,-79.5 163.5,-79.5 163.5,-58.5 74.5,-58.5"/>
<text text-anchor="middle" x="119" y="-66.5" font-family="Helvetica,sans-Serif" font-size="10.00">MojDbExtractor</text>
</g>
<!-- Node4 -->
<g id="node7" class="node"><title>Node4</title>
<a xlink:href="classMojDbMultiExtractor.htm" target="_top" xlink:title="MojDbMultiExtractor">
<polygon fill="white" stroke="black" points="-0.5,-0.5 -0.5,-21.5 110.5,-21.5 110.5,-0.5 -0.5,-0.5"/>
<text text-anchor="middle" x="55" y="-8.5" font-family="Helvetica,sans-Serif" font-size="10.00">MojDbMultiExtractor</text>
</a>
</g>
<!-- Node1&#45;&gt;Node4 -->
<g id="edge6" class="edge"><title>Node1&#45;&gt;Node4</title>
<path fill="none" stroke="midnightblue" d="M99.5848,-51.405C88.8409,-41.6683 75.8457,-29.8914 66.6642,-21.5707"/>
<polygon fill="midnightblue" stroke="midnightblue" points="97.5012,-54.2401 107.261,-58.3619 102.202,-49.0532 97.5012,-54.2401"/>
</g>
<!-- Node5 -->
<g id="node9" class="node"><title>Node5</title>
<a xlink:href="classMojDbPropExtractor.htm" target="_top" xlink:title="MojDbPropExtractor">
<polygon fill="white" stroke="black" points="128,-0.5 128,-21.5 240,-21.5 240,-0.5 128,-0.5"/>
<text text-anchor="middle" x="184" y="-8.5" font-family="Helvetica,sans-Serif" font-size="10.00">MojDbPropExtractor</text>
</a>
</g>
<!-- Node1&#45;&gt;Node5 -->
<g id="edge8" class="edge"><title>Node1&#45;&gt;Node5</title>
<path fill="none" stroke="midnightblue" d="M138.398,-51.6908C149.371,-41.8996 162.737,-29.973 172.154,-21.5707"/>
<polygon fill="midnightblue" stroke="midnightblue" points="136.053,-49.0925 130.922,-58.3619 140.714,-54.3155 136.053,-49.0925"/>
</g>
<!-- Node2 -->
<g id="node2" class="node"><title>Node2</title>
<a xlink:href="classMojRefCounted.htm" target="_top" xlink:title="MojRefCounted">
<polygon fill="white" stroke="black" points="74,-116.5 74,-137.5 164,-137.5 164,-116.5 74,-116.5"/>
<text text-anchor="middle" x="119" y="-124.5" font-family="Helvetica,sans-Serif" font-size="10.00">MojRefCounted</text>
</a>
</g>
<!-- Node2&#45;&gt;Node1 -->
<g id="edge2" class="edge"><title>Node2&#45;&gt;Node1</title>
<path fill="none" stroke="midnightblue" d="M119,-106.191C119,-97.1684 119,-86.9941 119,-79.5707"/>
<polygon fill="midnightblue" stroke="midnightblue" points="115.5,-106.362 119,-116.362 122.5,-106.362 115.5,-106.362"/>
</g>
<!-- Node3 -->
<g id="node4" class="node"><title>Node3</title>
<a xlink:href="classMojNoCopy.htm" target="_top" xlink:title="MojNoCopy">
<polygon fill="white" stroke="black" points="83,-174.5 83,-195.5 155,-195.5 155,-174.5 83,-174.5"/>
<text text-anchor="middle" x="119" y="-182.5" font-family="Helvetica,sans-Serif" font-size="10.00">MojNoCopy</text>
</a>
</g>
<!-- Node3&#45;&gt;Node2 -->
<g id="edge4" class="edge"><title>Node3&#45;&gt;Node2</title>
<path fill="none" stroke="#8b1a1a" d="M119,-164.191C119,-155.168 119,-144.994 119,-137.571"/>
<polygon fill="#8b1a1a" stroke="#8b1a1a" points="115.5,-164.362 119,-174.362 122.5,-164.362 115.5,-164.362"/>
</g>
</g>
</svg>
