<?xml version="1.0" encoding="UTF-8" standalone="no"?>
<!DOCTYPE svg PUBLIC "-//W3C//DTD SVG 1.1//EN"
 "http://www.w3.org/Graphics/SVG/1.1/DTD/svg11.dtd">
<!-- Generated by graphviz version 2.26.3 (20100126.1600)
 -->
<!-- Title: MojDbInnoTxn Pages: 1 -->
<svg width="226pt" height="296pt"
 viewBox="0.00 0.00 226.00 296.00" xmlns="http://www.w3.org/2000/svg" xmlns:xlink="http://www.w3.org/1999/xlink">
<g id="graph1" class="graph" transform="scale(1 1) rotate(0) translate(4 292)">
<title>MojDbInnoTxn</title>
<polygon fill="white" stroke="white" points="-4,5 -4,-292 223,-292 223,5 -4,5"/>
<!-- Node1 -->
<g id="node1" class="node"><title>Node1</title>
<polygon fill="#bfbfbf" stroke="black" points="96,-0.5 96,-21.5 182,-21.5 182,-0.5 96,-0.5"/>
<text text-anchor="middle" x="139" y="-8.5" font-family="Helvetica,sans-Serif" font-size="10.00">MojDbInnoTxn</text>
</g>
<!-- Node2 -->
<g id="node2" class="node"><title>Node2</title>
<a xlink:href="classMojDbStorageTxn.htm" target="_top" xlink:title="MojDbStorageTxn">
<polygon fill="white" stroke="black" points="0,-79.5 0,-100.5 102,-100.5 102,-79.5 0,-79.5"/>
<text text-anchor="middle" x="51" y="-87.5" font-family="Helvetica,sans-Serif" font-size="10.00">MojDbStorageTxn</text>
</a>
</g>
<!-- Node2&#45;&gt;Node1 -->
<g id="edge2" class="edge"><title>Node2&#45;&gt;Node1</title>
<path fill="none" stroke="midnightblue" d="M70.6922,-72.3218C87.9793,-56.8027 112.562,-34.7342 127.039,-21.7378"/>
<polygon fill="midnightblue" stroke="midnightblue" points="67.9713,-70.0609 62.8681,-79.3457 72.6476,-75.2699 67.9713,-70.0609"/>
</g>
<!-- Node3 -->
<g id="node4" class="node"><title>Node3</title>
<a xlink:href="classMojSignalHandler.htm" target="_top" xlink:title="MojSignalHandler">
<polygon fill="white" stroke="black" points="0.5,-146.5 0.5,-167.5 101.5,-167.5 101.5,-146.5 0.5,-146.5"/>
<text text-anchor="middle" x="51" y="-154.5" font-family="Helvetica,sans-Serif" font-size="10.00">MojSignalHandler</text>
</a>
</g>
<!-- Node3&#45;&gt;Node2 -->
<g id="edge4" class="edge"><title>Node3&#45;&gt;Node2</title>
<path fill="none" stroke="midnightblue" d="M51,-135.904C51,-124.127 51,-109.967 51,-100.517"/>
<polygon fill="midnightblue" stroke="midnightblue" points="47.5001,-136.235 51,-146.235 54.5001,-136.235 47.5001,-136.235"/>
</g>
<!-- Node4 -->
<g id="node6" class="node"><title>Node4</title>
<a xlink:href="classMojRefCounted.htm" target="_top" xlink:title="MojRefCounted">
<polygon fill="white" stroke="black" points="6,-206.5 6,-227.5 96,-227.5 96,-206.5 6,-206.5"/>
<text text-anchor="middle" x="51" y="-214.5" font-family="Helvetica,sans-Serif" font-size="10.00">MojRefCounted</text>
</a>
</g>
<!-- Node4&#45;&gt;Node3 -->
<g id="edge6" class="edge"><title>Node4&#45;&gt;Node3</title>
<path fill="none" stroke="midnightblue" d="M51,-196.231C51,-186.592 51,-175.544 51,-167.634"/>
<polygon fill="midnightblue" stroke="midnightblue" points="47.5001,-196.273 51,-206.273 54.5001,-196.273 47.5001,-196.273"/>
</g>
<!-- Node5 -->
<g id="node8" class="node"><title>Node5</title>
<a xlink:href="classMojNoCopy.htm" target="_top" xlink:title="MojNoCopy">
<polygon fill="white" stroke="black" points="15,-266.5 15,-287.5 87,-287.5 87,-266.5 15,-266.5"/>
<text text-anchor="middle" x="51" y="-274.5" font-family="Helvetica,sans-Serif" font-size="10.00">MojNoCopy</text>
</a>
</g>
<!-- Node5&#45;&gt;Node4 -->
<g id="edge8" class="edge"><title>Node5&#45;&gt;Node4</title>
<path fill="none" stroke="#8b1a1a" d="M51,-256.231C51,-246.592 51,-235.544 51,-227.634"/>
<polygon fill="#8b1a1a" stroke="#8b1a1a" points="47.5001,-256.273 51,-266.273 54.5001,-256.273 47.5001,-256.273"/>
</g>
<!-- Node6 -->
<g id="node10" class="node"><title>Node6</title>
<polygon fill="white" stroke="#bfbfbf" points="120,-73 120,-107 218,-107 218,-73 120,-73"/>
<text text-anchor="start" x="128" y="-94" font-family="Helvetica,sans-Serif" font-size="10.00">static const ib_trx</text>
<text text-anchor="middle" x="169" y="-81" font-family="Helvetica,sans-Serif" font-size="10.00">_level_t</text>
</g>
<!-- Node6&#45;&gt;Node1 -->
<g id="edge10" class="edge"><title>Node6&#45;&gt;Node1</title>
<path fill="none" stroke="#9a32cd" stroke-dasharray="5,2" d="M158.919,-63.4525C153.476,-49.1201 147.062,-32.2294 143.013,-21.5672"/>
<polygon fill="#9a32cd" stroke="#9a32cd" points="155.668,-64.7521 162.49,-72.8582 162.212,-62.267 155.668,-64.7521"/>
<text text-anchor="middle" x="168.5" y="-44.5" font-family="Helvetica,sans-Serif" font-size="10.00"> Level</text>
</g>
</g>
</svg>
