<?xml version="1.0" encoding="UTF-8" standalone="no"?>
<!DOCTYPE svg PUBLIC "-//W3C//DTD SVG 1.1//EN"
 "http://www.w3.org/Graphics/SVG/1.1/DTD/svg11.dtd">
<!-- Generated by graphviz version 2.26.3 (20100126.1600)
 -->
<!-- Title: MojSchema Pages: 1 -->
<svg width="240pt" height="292pt"
 viewBox="0.00 0.00 240.00 292.00" xmlns="http://www.w3.org/2000/svg" xmlns:xlink="http://www.w3.org/1999/xlink">
<g id="graph1" class="graph" transform="scale(1 1) rotate(0) translate(4 288)">
<title>MojSchema</title>
<polygon fill="white" stroke="white" points="-4,5 -4,-288 237,-288 237,5 -4,5"/>
<!-- Node1 -->
<g id="node1" class="node"><title>Node1</title>
<polygon fill="#bfbfbf" stroke="black" points="70,-0.5 70,-21.5 142,-21.5 142,-0.5 70,-0.5"/>
<text text-anchor="middle" x="106" y="-8.5" font-family="Helvetica,sans-Serif" font-size="10.00">MojSchema</text>
</g>
<!-- Node2 -->
<g id="node2" class="node"><title>Node2</title>
<a xlink:href="classMojRefCounted.htm" target="_top" xlink:title="MojRefCounted">
<polygon fill="white" stroke="black" points="0,-202.5 0,-223.5 90,-223.5 90,-202.5 0,-202.5"/>
<text text-anchor="middle" x="45" y="-210.5" font-family="Helvetica,sans-Serif" font-size="10.00">MojRefCounted</text>
</a>
</g>
<!-- Node2&#45;&gt;Node1 -->
<g id="edge2" class="edge"><title>Node2&#45;&gt;Node1</title>
<path fill="none" stroke="midnightblue" d="M51.1305,-192.699C63.8807,-150.477 92.8845,-54.4316 102.69,-21.9612"/>
<polygon fill="midnightblue" stroke="midnightblue" points="47.7341,-191.839 48.1937,-202.424 54.4352,-193.863 47.7341,-191.839"/>
</g>
<!-- Node3 -->
<g id="node4" class="node"><title>Node3</title>
<a xlink:href="classMojNoCopy.htm" target="_top" xlink:title="MojNoCopy">
<polygon fill="white" stroke="black" points="9,-262.5 9,-283.5 81,-283.5 81,-262.5 9,-262.5"/>
<text text-anchor="middle" x="45" y="-270.5" font-family="Helvetica,sans-Serif" font-size="10.00">MojNoCopy</text>
</a>
</g>
<!-- Node3&#45;&gt;Node2 -->
<g id="edge4" class="edge"><title>Node3&#45;&gt;Node2</title>
<path fill="none" stroke="#8b1a1a" d="M45,-252.231C45,-242.592 45,-231.544 45,-223.634"/>
<polygon fill="#8b1a1a" stroke="#8b1a1a" points="41.5001,-252.273 45,-262.273 48.5001,-252.273 41.5001,-252.273"/>
</g>
<!-- Node4 -->
<g id="node6" class="node"><title>Node4</title>
<polygon fill="white" stroke="#bfbfbf" points="108,-202.5 108,-223.5 146,-223.5 146,-202.5 108,-202.5"/>
<text text-anchor="middle" x="127" y="-210.5" font-family="Helvetica,sans-Serif" font-size="10.00">char</text>
</g>
<!-- Node4&#45;&gt;Node1 -->
<g id="edge6" class="edge"><title>Node4&#45;&gt;Node1</title>
<path fill="none" stroke="#9a32cd" stroke-dasharray="5,2" d="M124.861,-192.429C120.458,-150.069 110.508,-54.3627 107.14,-21.9612"/>
<polygon fill="#9a32cd" stroke="#9a32cd" points="121.385,-192.84 125.901,-202.424 128.348,-192.116 121.385,-192.84"/>
<text text-anchor="middle" x="177.5" y="-174.5" font-family="Helvetica,sans-Serif" font-size="10.00"> MaxLengthKey</text>
<text text-anchor="middle" x="177.5" y="-161.5" font-family="Helvetica,sans-Serif" font-size="10.00">EnumKey</text>
<text text-anchor="middle" x="177.5" y="-148.5" font-family="Helvetica,sans-Serif" font-size="10.00">PropertiesKey</text>
<text text-anchor="middle" x="177.5" y="-135.5" font-family="Helvetica,sans-Serif" font-size="10.00">MaximumCanEqualKey</text>
<text text-anchor="middle" x="177.5" y="-122.5" font-family="Helvetica,sans-Serif" font-size="10.00">MinItemsKey</text>
<text text-anchor="middle" x="177.5" y="-109.5" font-family="Helvetica,sans-Serif" font-size="10.00">UniqueItemsKey</text>
<text text-anchor="middle" x="177.5" y="-96.5" font-family="Helvetica,sans-Serif" font-size="10.00">OptionalKey</text>
<text text-anchor="middle" x="177.5" y="-83.5" font-family="Helvetica,sans-Serif" font-size="10.00">MaximumKey</text>
<text text-anchor="middle" x="177.5" y="-70.5" font-family="Helvetica,sans-Serif" font-size="10.00">MinimumKey</text>
<text text-anchor="middle" x="177.5" y="-57.5" font-family="Helvetica,sans-Serif" font-size="10.00">TypeKey</text>
<text text-anchor="middle" x="177.5" y="-44.5" font-family="Helvetica,sans-Serif" font-size="10.00">...</text>
</g>
</g>
</svg>
