<?xml version="1.0" encoding="UTF-8" standalone="no"?>
<!DOCTYPE svg PUBLIC "-//W3C//DTD SVG 1.1//EN"
 "http://www.w3.org/Graphics/SVG/1.1/DTD/svg11.dtd">
<!-- Generated by graphviz version 2.26.3 (20100126.1600)
 -->
<!-- Title: MojSlot2&lt; THANDLER, TARG1, TARG2 &gt; Pages: 1 -->
<svg width="136pt" height="232pt"
 viewBox="0.00 0.00 136.00 232.00" xmlns="http://www.w3.org/2000/svg" xmlns:xlink="http://www.w3.org/1999/xlink">
<g id="graph1" class="graph" transform="scale(1 1) rotate(0) translate(4 228)">
<title>MojSlot2&lt; THANDLER, TARG1, TARG2 &gt;</title>
<polygon fill="white" stroke="white" points="-4,5 -4,-228 133,-228 133,5 -4,5"/>
<!-- Node1 -->
<g id="node1" class="node"><title>Node1</title>
<polygon fill="#bfbfbf" stroke="black" points="1.5,-1 1.5,-35 126.5,-35 126.5,-1 1.5,-1"/>
<text text-anchor="start" x="9.5" y="-22" font-family="Helvetica,sans-Serif" font-size="10.00">MojSlot2&lt; THANDLER,</text>
<text text-anchor="middle" x="64" y="-9" font-family="Helvetica,sans-Serif" font-size="10.00"> TARG1, TARG2 &gt;</text>
</g>
<!-- Node2 -->
<g id="node2" class="node"><title>Node2</title>
<a xlink:href="classMojSlotBase2.htm" target="_top" xlink:title="MojSlotBase2\&lt; TARG1,\l TARG2 \&gt;">
<polygon fill="white" stroke="black" points="0,-73 0,-107 128,-107 128,-73 0,-73"/>
<text text-anchor="start" x="8" y="-94" font-family="Helvetica,sans-Serif" font-size="10.00">MojSlotBase2&lt; TARG1,</text>
<text text-anchor="middle" x="64" y="-81" font-family="Helvetica,sans-Serif" font-size="10.00"> TARG2 &gt;</text>
</a>
</g>
<!-- Node2&#45;&gt;Node1 -->
<g id="edge2" class="edge"><title>Node2&#45;&gt;Node1</title>
<path fill="none" stroke="midnightblue" d="M64,-62.7193C64,-53.572 64,-43.6255 64,-35.4407"/>
<polygon fill="midnightblue" stroke="midnightblue" points="60.5001,-62.937 64,-72.937 67.5001,-62.937 60.5001,-62.937"/>
</g>
<!-- Node3 -->
<g id="node4" class="node"><title>Node3</title>
<a xlink:href="classMojSlotBase.htm" target="_top" xlink:title="MojSlotBase">
<polygon fill="white" stroke="black" points="26,-144.5 26,-165.5 102,-165.5 102,-144.5 26,-144.5"/>
<text text-anchor="middle" x="64" y="-152.5" font-family="Helvetica,sans-Serif" font-size="10.00">MojSlotBase</text>
</a>
</g>
<!-- Node3&#45;&gt;Node2 -->
<g id="edge4" class="edge"><title>Node3&#45;&gt;Node2</title>
<path fill="none" stroke="midnightblue" d="M64,-134.131C64,-125.405 64,-115.391 64,-107.11"/>
<polygon fill="midnightblue" stroke="midnightblue" points="60.5001,-134.267 64,-144.267 67.5001,-134.267 60.5001,-134.267"/>
</g>
<!-- Node4 -->
<g id="node6" class="node"><title>Node4</title>
<a xlink:href="classMojNoCopy.htm" target="_top" xlink:title="MojNoCopy">
<polygon fill="white" stroke="black" points="28,-202.5 28,-223.5 100,-223.5 100,-202.5 28,-202.5"/>
<text text-anchor="middle" x="64" y="-210.5" font-family="Helvetica,sans-Serif" font-size="10.00">MojNoCopy</text>
</a>
</g>
<!-- Node4&#45;&gt;Node3 -->
<g id="edge6" class="edge"><title>Node4&#45;&gt;Node3</title>
<path fill="none" stroke="#8b1a1a" d="M64,-192.191C64,-183.168 64,-172.994 64,-165.571"/>
<polygon fill="#8b1a1a" stroke="#8b1a1a" points="60.5001,-192.362 64,-202.362 67.5001,-192.362 60.5001,-192.362"/>
</g>
</g>
</svg>
