<?xml version="1.0" encoding="UTF-8" standalone="no"?>
<!DOCTYPE svg PUBLIC "-//W3C//DTD SVG 1.1//EN"
 "http://www.w3.org/Graphics/SVG/1.1/DTD/svg11.dtd">
<!-- Generated by graphviz version 2.26.3 (20100126.1600)
 -->
<!-- Title: MojDbStorageIndex Pages: 1 -->
<svg width="350pt" height="262pt"
 viewBox="0.00 0.00 350.00 262.00" xmlns="http://www.w3.org/2000/svg" xmlns:xlink="http://www.w3.org/1999/xlink">
<g id="graph1" class="graph" transform="scale(1 1) rotate(0) translate(4 258)">
<title>MojDbStorageIndex</title>
<polygon fill="white" stroke="white" points="-4,5 -4,-258 347,-258 347,5 -4,5"/>
<!-- Node1 -->
<g id="node1" class="node"><title>Node1</title>
<polygon fill="#bfbfbf" stroke="black" points="124,-58.5 124,-79.5 234,-79.5 234,-58.5 124,-58.5"/>
<text text-anchor="middle" x="179" y="-66.5" font-family="Helvetica,sans-Serif" font-size="10.00">MojDbStorageIndex</text>
</g>
<!-- Node5 -->
<g id="node9" class="node"><title>Node5</title>
<a xlink:href="classMojDbBerkeleyIndex.htm" target="_top" xlink:title="MojDbBerkeleyIndex">
<polygon fill="white" stroke="black" points="0,-0.5 0,-21.5 114,-21.5 114,-0.5 0,-0.5"/>
<text text-anchor="middle" x="57" y="-8.5" font-family="Helvetica,sans-Serif" font-size="10.00">MojDbBerkeleyIndex</text>
</a>
</g>
<!-- Node1&#45;&gt;Node5 -->
<g id="edge8" class="edge"><title>Node1&#45;&gt;Node5</title>
<path fill="none" stroke="midnightblue" d="M147.594,-54.0693C126.229,-43.9121 98.471,-30.7157 79.3412,-21.6212"/>
<polygon fill="midnightblue" stroke="midnightblue" points="146.373,-57.364 156.907,-58.4966 149.378,-51.042 146.373,-57.364"/>
</g>
<!-- Node6 -->
<g id="node11" class="node"><title>Node6</title>
<a xlink:href="classMojDbInnoIndex.htm" target="_top" xlink:title="MojDbInnoIndex">
<polygon fill="white" stroke="black" points="132,-0.5 132,-21.5 226,-21.5 226,-0.5 132,-0.5"/>
<text text-anchor="middle" x="179" y="-8.5" font-family="Helvetica,sans-Serif" font-size="10.00">MojDbInnoIndex</text>
</a>
</g>
<!-- Node1&#45;&gt;Node6 -->
<g id="edge10" class="edge"><title>Node1&#45;&gt;Node6</title>
<path fill="none" stroke="midnightblue" d="M179,-48.1906C179,-39.1684 179,-28.9941 179,-21.5707"/>
<polygon fill="midnightblue" stroke="midnightblue" points="175.5,-48.3619 179,-58.3619 182.5,-48.3619 175.5,-48.3619"/>
</g>
<!-- Node7 -->
<g id="node13" class="node"><title>Node7</title>
<a xlink:href="classMojDbLevelIndex.htm" target="_top" xlink:title="MojDbLevelIndex">
<polygon fill="white" stroke="black" points="244,-0.5 244,-21.5 342,-21.5 342,-0.5 244,-0.5"/>
<text text-anchor="middle" x="293" y="-8.5" font-family="Helvetica,sans-Serif" font-size="10.00">MojDbLevelIndex</text>
</a>
</g>
<!-- Node1&#45;&gt;Node7 -->
<g id="edge12" class="edge"><title>Node1&#45;&gt;Node7</title>
<path fill="none" stroke="midnightblue" d="M208.617,-53.9319C228.544,-43.7932 254.329,-30.6748 272.124,-21.6212"/>
<polygon fill="midnightblue" stroke="midnightblue" points="206.97,-50.8425 199.645,-58.4966 210.144,-57.0815 206.97,-50.8425"/>
</g>
<!-- Node2 -->
<g id="node2" class="node"><title>Node2</title>
<a xlink:href="classMojDbStorageCollection.htm" target="_top" xlink:title="MojDbStorageCollection">
<polygon fill="white" stroke="black" points="113.5,-116.5 113.5,-137.5 244.5,-137.5 244.5,-116.5 113.5,-116.5"/>
<text text-anchor="middle" x="179" y="-124.5" font-family="Helvetica,sans-Serif" font-size="10.00">MojDbStorageCollection</text>
</a>
</g>
<!-- Node2&#45;&gt;Node1 -->
<g id="edge2" class="edge"><title>Node2&#45;&gt;Node1</title>
<path fill="none" stroke="midnightblue" d="M179,-106.191C179,-97.1684 179,-86.9941 179,-79.5707"/>
<polygon fill="midnightblue" stroke="midnightblue" points="175.5,-106.362 179,-116.362 182.5,-106.362 175.5,-106.362"/>
</g>
<!-- Node3 -->
<g id="node4" class="node"><title>Node3</title>
<a xlink:href="classMojRefCounted.htm" target="_top" xlink:title="MojRefCounted">
<polygon fill="white" stroke="black" points="134,-174.5 134,-195.5 224,-195.5 224,-174.5 134,-174.5"/>
<text text-anchor="middle" x="179" y="-182.5" font-family="Helvetica,sans-Serif" font-size="10.00">MojRefCounted</text>
</a>
</g>
<!-- Node3&#45;&gt;Node2 -->
<g id="edge4" class="edge"><title>Node3&#45;&gt;Node2</title>
<path fill="none" stroke="midnightblue" d="M179,-164.191C179,-155.168 179,-144.994 179,-137.571"/>
<polygon fill="midnightblue" stroke="midnightblue" points="175.5,-164.362 179,-174.362 182.5,-164.362 175.5,-164.362"/>
</g>
<!-- Node4 -->
<g id="node6" class="node"><title>Node4</title>
<a xlink:href="classMojNoCopy.htm" target="_top" xlink:title="MojNoCopy">
<polygon fill="white" stroke="black" points="143,-232.5 143,-253.5 215,-253.5 215,-232.5 143,-232.5"/>
<text text-anchor="middle" x="179" y="-240.5" font-family="Helvetica,sans-Serif" font-size="10.00">MojNoCopy</text>
</a>
</g>
<!-- Node4&#45;&gt;Node3 -->
<g id="edge6" class="edge"><title>Node4&#45;&gt;Node3</title>
<path fill="none" stroke="#8b1a1a" d="M179,-222.191C179,-213.168 179,-202.994 179,-195.571"/>
<polygon fill="#8b1a1a" stroke="#8b1a1a" points="175.5,-222.362 179,-232.362 182.5,-222.362 175.5,-222.362"/>
</g>
</g>
</svg>
