<?xml version="1.0" encoding="UTF-8" standalone="no"?>
<!DOCTYPE svg PUBLIC "-//W3C//DTD SVG 1.1//EN"
 "http://www.w3.org/Graphics/SVG/1.1/DTD/svg11.dtd">
<!-- Generated by graphviz version 2.26.3 (20100126.1600)
 -->
<!-- Title: MojAutoPtrBase&lt; T, DTOR &gt; Pages: 1 -->
<svg width="140pt" height="176pt"
 viewBox="0.00 0.00 140.00 176.00" xmlns="http://www.w3.org/2000/svg" xmlns:xlink="http://www.w3.org/1999/xlink">
<g id="graph1" class="graph" transform="scale(1 1) rotate(0) translate(4 172)">
<title>MojAutoPtrBase&lt; T, DTOR &gt;</title>
<polygon fill="white" stroke="white" points="-4,5 -4,-172 137,-172 137,5 -4,5"/>
<!-- Node1 -->
<g id="node1" class="node"><title>Node1</title>
<polygon fill="#bfbfbf" stroke="black" points="15,-1 15,-35 125,-35 125,-1 15,-1"/>
<text text-anchor="start" x="23" y="-22" font-family="Helvetica,sans-Serif" font-size="10.00">MojAutoPtrBase&lt; T,</text>
<text text-anchor="middle" x="70" y="-9" font-family="Helvetica,sans-Serif" font-size="10.00"> DTOR &gt;</text>
</g>
<!-- Node2 -->
<g id="node2" class="node"><title>Node2</title>
<a xlink:href="classMojSmartPtrBase.htm" target="_top" xlink:title="MojSmartPtrBase\&lt; T \&gt;">
<polygon fill="white" stroke="black" points="8,-74.5 8,-95.5 132,-95.5 132,-74.5 8,-74.5"/>
<text text-anchor="middle" x="70" y="-82.5" font-family="Helvetica,sans-Serif" font-size="10.00">MojSmartPtrBase&lt; T &gt;</text>
</a>
</g>
<!-- Node2&#45;&gt;Node1 -->
<g id="edge2" class="edge"><title>Node2&#45;&gt;Node1</title>
<path fill="none" stroke="midnightblue" d="M70,-64.1655C70,-54.7973 70,-43.8796 70,-35.0139"/>
<polygon fill="midnightblue" stroke="midnightblue" points="66.5001,-64.2353 70,-74.2353 73.5001,-64.2353 66.5001,-64.2353"/>
</g>
<!-- Node3 -->
<g id="node4" class="node"><title>Node3</title>
<a xlink:href="classMojNoCopy.htm" target="_top" xlink:title="MojNoCopy">
<polygon fill="white" stroke="black" points="0,-146.5 0,-167.5 72,-167.5 72,-146.5 0,-146.5"/>
<text text-anchor="middle" x="36" y="-154.5" font-family="Helvetica,sans-Serif" font-size="10.00">MojNoCopy</text>
</a>
</g>
<!-- Node3&#45;&gt;Node2 -->
<g id="edge4" class="edge"><title>Node3&#45;&gt;Node2</title>
<path fill="none" stroke="#8b1a1a" d="M45.4319,-137.027C51.7546,-123.637 59.8322,-106.532 64.9626,-95.6674"/>
<polygon fill="#8b1a1a" stroke="#8b1a1a" points="42.1221,-135.839 41.0168,-146.376 48.4518,-138.828 42.1221,-135.839"/>
</g>
<!-- Node4 -->
<g id="node6" class="node"><title>Node4</title>
<polygon fill="white" stroke="#bfbfbf" points="89.5,-146.5 89.5,-167.5 118.5,-167.5 118.5,-146.5 89.5,-146.5"/>
<text text-anchor="middle" x="104" y="-154.5" font-family="Helvetica,sans-Serif" font-size="10.00">T</text>
</g>
<!-- Node4&#45;&gt;Node2 -->
<g id="edge6" class="edge"><title>Node4&#45;&gt;Node2</title>
<path fill="none" stroke="#9a32cd" stroke-dasharray="5,2" d="M94.5681,-137.027C88.2454,-123.637 80.1678,-106.532 75.0374,-95.6674"/>
<polygon fill="#9a32cd" stroke="#9a32cd" points="91.5482,-138.828 98.9832,-146.376 97.8779,-135.839 91.5482,-138.828"/>
<text text-anchor="middle" x="102" y="-118.5" font-family="Helvetica,sans-Serif" font-size="10.00"> m_p</text>
</g>
</g>
</svg>
