<?xml version="1.0" encoding="UTF-8" standalone="no"?>
<!DOCTYPE svg PUBLIC "-//W3C//DTD SVG 1.1//EN"
 "http://www.w3.org/Graphics/SVG/1.1/DTD/svg11.dtd">
<!-- Generated by graphviz version 2.26.3 (20100126.1600)
 -->
<!-- Title: MojSharedArrayPtr&lt; T &gt; Pages: 1 -->
<svg width="140pt" height="114pt"
 viewBox="0.00 0.00 140.00 114.00" xmlns="http://www.w3.org/2000/svg" xmlns:xlink="http://www.w3.org/1999/xlink">
<g id="graph1" class="graph" transform="scale(1 1) rotate(0) translate(4 110)">
<title>MojSharedArrayPtr&lt; T &gt;</title>
<polygon fill="white" stroke="white" points="-4,5 -4,-110 137,-110 137,5 -4,5"/>
<!-- Node1 -->
<g id="node1" class="node"><title>Node1</title>
<polygon fill="#bfbfbf" stroke="black" points="0,-0.5 0,-21.5 132,-21.5 132,-0.5 0,-0.5"/>
<text text-anchor="middle" x="66" y="-8.5" font-family="Helvetica,sans-Serif" font-size="10.00">MojSharedArrayPtr&lt; T &gt;</text>
</g>
<!-- Node2 -->
<g id="node2" class="node"><title>Node2</title>
<a xlink:href="classMojSharedPtrBase.htm" target="_top" xlink:title="MojSharedPtrBase\&lt; T,\l MojArrayDeleteDtor\l\&lt; T \&gt; \&gt;">
<polygon fill="white" stroke="black" points="4,-58.5 4,-105.5 128,-105.5 128,-58.5 4,-58.5"/>
<text text-anchor="start" x="12" y="-92.5" font-family="Helvetica,sans-Serif" font-size="10.00">MojSharedPtrBase&lt; T,</text>
<text text-anchor="start" x="12" y="-79.5" font-family="Helvetica,sans-Serif" font-size="10.00"> MojArrayDeleteDtor</text>
<text text-anchor="middle" x="66" y="-66.5" font-family="Helvetica,sans-Serif" font-size="10.00">&lt; T &gt; &gt;</text>
</a>
</g>
<!-- Node2&#45;&gt;Node1 -->
<g id="edge2" class="edge"><title>Node2&#45;&gt;Node1</title>
<path fill="none" stroke="midnightblue" d="M66,-48.1273C66,-38.5183 66,-28.7499 66,-21.6462"/>
<polygon fill="midnightblue" stroke="midnightblue" points="62.5001,-48.358 66,-58.358 69.5001,-48.3581 62.5001,-48.358"/>
</g>
</g>
</svg>
