<?xml version="1.0" encoding="UTF-8" standalone="no"?>
<!DOCTYPE svg PUBLIC "-//W3C//DTD SVG 1.1//EN"
 "http://www.w3.org/Graphics/SVG/1.1/DTD/svg11.dtd">
<!-- Generated by graphviz version 2.26.3 (20100126.1600)
 -->
<!-- Title: MojDbIndex Pages: 1 -->
<svg width="368pt" height="352pt"
 viewBox="0.00 0.00 368.00 352.00" xmlns="http://www.w3.org/2000/svg" xmlns:xlink="http://www.w3.org/1999/xlink">
<g id="graph1" class="graph" transform="scale(1 1) rotate(0) translate(4 348)">
<title>MojDbIndex</title>
<polygon fill="white" stroke="white" points="-4,5 -4,-348 365,-348 365,5 -4,5"/>
<!-- Node1 -->
<g id="node1" class="node"><title>Node1</title>
<polygon fill="#bfbfbf" stroke="black" points="108.5,-0.5 108.5,-21.5 181.5,-21.5 181.5,-0.5 108.5,-0.5"/>
<text text-anchor="middle" x="145" y="-8.5" font-family="Helvetica,sans-Serif" font-size="10.00">MojDbIndex</text>
</g>
<!-- Node2 -->
<g id="node2" class="node"><title>Node2</title>
<a xlink:href="classMojSignalHandler.htm" target="_top" xlink:title="MojSignalHandler">
<polygon fill="white" stroke="black" points="-0.5,-202.5 -0.5,-223.5 100.5,-223.5 100.5,-202.5 -0.5,-202.5"/>
<text text-anchor="middle" x="50" y="-210.5" font-family="Helvetica,sans-Serif" font-size="10.00">MojSignalHandler</text>
</a>
</g>
<!-- Node2&#45;&gt;Node1 -->
<g id="edge2" class="edge"><title>Node2&#45;&gt;Node1</title>
<path fill="none" stroke="midnightblue" d="M59.296,-193.234C79.0203,-151.294 124.509,-54.5695 139.845,-21.9612"/>
<polygon fill="midnightblue" stroke="midnightblue" points="56.0625,-191.885 54.9739,-202.424 62.3969,-194.864 56.0625,-191.885"/>
</g>
<!-- Node3 -->
<g id="node4" class="node"><title>Node3</title>
<a xlink:href="classMojRefCounted.htm" target="_top" xlink:title="MojRefCounted">
<polygon fill="white" stroke="black" points="5,-262.5 5,-283.5 95,-283.5 95,-262.5 5,-262.5"/>
<text text-anchor="middle" x="50" y="-270.5" font-family="Helvetica,sans-Serif" font-size="10.00">MojRefCounted</text>
</a>
</g>
<!-- Node3&#45;&gt;Node2 -->
<g id="edge4" class="edge"><title>Node3&#45;&gt;Node2</title>
<path fill="none" stroke="midnightblue" d="M50,-252.231C50,-242.592 50,-231.544 50,-223.634"/>
<polygon fill="midnightblue" stroke="midnightblue" points="46.5001,-252.273 50,-262.273 53.5001,-252.273 46.5001,-252.273"/>
</g>
<!-- Node4 -->
<g id="node6" class="node"><title>Node4</title>
<a xlink:href="classMojNoCopy.htm" target="_top" xlink:title="MojNoCopy">
<polygon fill="white" stroke="black" points="14,-322.5 14,-343.5 86,-343.5 86,-322.5 14,-322.5"/>
<text text-anchor="middle" x="50" y="-330.5" font-family="Helvetica,sans-Serif" font-size="10.00">MojNoCopy</text>
</a>
</g>
<!-- Node4&#45;&gt;Node3 -->
<g id="edge6" class="edge"><title>Node4&#45;&gt;Node3</title>
<path fill="none" stroke="#8b1a1a" d="M50,-312.231C50,-302.592 50,-291.544 50,-283.634"/>
<polygon fill="#8b1a1a" stroke="#8b1a1a" points="46.5001,-312.273 50,-322.273 53.5001,-312.273 46.5001,-312.273"/>
</g>
<!-- Node5 -->
<g id="node8" class="node"><title>Node5</title>
<polygon fill="white" stroke="#bfbfbf" points="118,-202.5 118,-223.5 172,-223.5 172,-202.5 118,-202.5"/>
<text text-anchor="middle" x="145" y="-210.5" font-family="Helvetica,sans-Serif" font-size="10.00">MojSize</text>
</g>
<!-- Node5&#45;&gt;Node1 -->
<g id="edge8" class="edge"><title>Node5&#45;&gt;Node1</title>
<path fill="none" stroke="#9a32cd" stroke-dasharray="5,2" d="M145,-192.158C145,-149.662 145,-54.2937 145,-21.9612"/>
<polygon fill="#9a32cd" stroke="#9a32cd" points="141.5,-192.424 145,-202.424 148.5,-192.424 141.5,-192.424"/>
<text text-anchor="middle" x="193" y="-109.5" font-family="Helvetica,sans-Serif" font-size="10.00"> MaxIndexNameLen</text>
</g>
<!-- Node6 -->
<g id="node10" class="node"><title>Node6</title>
<polygon fill="white" stroke="#bfbfbf" points="245,-202.5 245,-223.5 283,-223.5 283,-202.5 245,-202.5"/>
<text text-anchor="middle" x="264" y="-210.5" font-family="Helvetica,sans-Serif" font-size="10.00">char</text>
</g>
<!-- Node6&#45;&gt;Node1 -->
<g id="edge10" class="edge"><title>Node6&#45;&gt;Node1</title>
<path fill="none" stroke="#9a32cd" stroke-dasharray="5,2" d="M267.988,-191.876C273.441,-156.119 278.755,-83.3382 242,-40 234.013,-30.583 205.576,-22.7674 181.541,-17.632"/>
<polygon fill="#9a32cd" stroke="#9a32cd" points="264.476,-191.658 266.266,-202.1 271.378,-192.821 264.476,-191.658"/>
<text text-anchor="middle" x="315.5" y="-174.5" font-family="Helvetica,sans-Serif" font-size="10.00"> SizeKey</text>
<text text-anchor="middle" x="315.5" y="-161.5" font-family="Helvetica,sans-Serif" font-size="10.00">DefaultKey</text>
<text text-anchor="middle" x="315.5" y="-148.5" font-family="Helvetica,sans-Serif" font-size="10.00">PropsKey</text>
<text text-anchor="middle" x="315.5" y="-135.5" font-family="Helvetica,sans-Serif" font-size="10.00">WatchesKey</text>
<text text-anchor="middle" x="315.5" y="-122.5" font-family="Helvetica,sans-Serif" font-size="10.00">DelMissesKey</text>
<text text-anchor="middle" x="315.5" y="-109.5" font-family="Helvetica,sans-Serif" font-size="10.00">NameKey</text>
<text text-anchor="middle" x="315.5" y="-96.5" font-family="Helvetica,sans-Serif" font-size="10.00">TypeKey</text>
<text text-anchor="middle" x="315.5" y="-83.5" font-family="Helvetica,sans-Serif" font-size="10.00">MultiKey</text>
<text text-anchor="middle" x="315.5" y="-70.5" font-family="Helvetica,sans-Serif" font-size="10.00">IncludeDeletedKey</text>
<text text-anchor="middle" x="315.5" y="-57.5" font-family="Helvetica,sans-Serif" font-size="10.00">CountKey</text>
<text text-anchor="middle" x="315.5" y="-44.5" font-family="Helvetica,sans-Serif" font-size="10.00">...</text>
</g>
</g>
</svg>
