<?xml version="1.0" encoding="UTF-8" standalone="no"?>
<!DOCTYPE svg PUBLIC "-//W3C//DTD SVG 1.1//EN"
 "http://www.w3.org/Graphics/SVG/1.1/DTD/svg11.dtd">
<!-- Generated by graphviz version 2.26.3 (20100126.1600)
 -->
<!-- Title: MojServiceRequest Pages: 1 -->
<svg width="248pt" height="222pt"
 viewBox="0.00 0.00 248.00 222.00" xmlns="http://www.w3.org/2000/svg" xmlns:xlink="http://www.w3.org/1999/xlink">
<g id="graph1" class="graph" transform="scale(1 1) rotate(0) translate(4 218)">
<title>MojServiceRequest</title>
<polygon fill="white" stroke="white" points="-4,5 -4,-218 245,-218 245,5 -4,5"/>
<!-- Node1 -->
<g id="node1" class="node"><title>Node1</title>
<polygon fill="#bfbfbf" stroke="black" points="92,-0.5 92,-21.5 200,-21.5 200,-0.5 92,-0.5"/>
<text text-anchor="middle" x="146" y="-8.5" font-family="Helvetica,sans-Serif" font-size="10.00">MojServiceRequest</text>
</g>
<!-- Node2 -->
<g id="node2" class="node"><title>Node2</title>
<a xlink:href="classMojSignalHandler.htm" target="_top" xlink:title="MojSignalHandler">
<polygon fill="white" stroke="black" points="-0.5,-72.5 -0.5,-93.5 100.5,-93.5 100.5,-72.5 -0.5,-72.5"/>
<text text-anchor="middle" x="50" y="-80.5" font-family="Helvetica,sans-Serif" font-size="10.00">MojSignalHandler</text>
</a>
</g>
<!-- Node2&#45;&gt;Node1 -->
<g id="edge2" class="edge"><title>Node2&#45;&gt;Node1</title>
<path fill="none" stroke="midnightblue" d="M72.5285,-66.1037C90.8547,-52.359 116.155,-33.384 131.777,-21.6674"/>
<polygon fill="midnightblue" stroke="midnightblue" points="70.0651,-63.5761 64.1651,-72.3762 74.2652,-69.1761 70.0651,-63.5761"/>
</g>
<!-- Node3 -->
<g id="node4" class="node"><title>Node3</title>
<a xlink:href="classMojRefCounted.htm" target="_top" xlink:title="MojRefCounted">
<polygon fill="white" stroke="black" points="5,-132.5 5,-153.5 95,-153.5 95,-132.5 5,-132.5"/>
<text text-anchor="middle" x="50" y="-140.5" font-family="Helvetica,sans-Serif" font-size="10.00">MojRefCounted</text>
</a>
</g>
<!-- Node3&#45;&gt;Node2 -->
<g id="edge4" class="edge"><title>Node3&#45;&gt;Node2</title>
<path fill="none" stroke="midnightblue" d="M50,-122.231C50,-112.592 50,-101.544 50,-93.6339"/>
<polygon fill="midnightblue" stroke="midnightblue" points="46.5001,-122.273 50,-132.273 53.5001,-122.273 46.5001,-122.273"/>
</g>
<!-- Node4 -->
<g id="node6" class="node"><title>Node4</title>
<a xlink:href="classMojNoCopy.htm" target="_top" xlink:title="MojNoCopy">
<polygon fill="white" stroke="black" points="14,-192.5 14,-213.5 86,-213.5 86,-192.5 14,-192.5"/>
<text text-anchor="middle" x="50" y="-200.5" font-family="Helvetica,sans-Serif" font-size="10.00">MojNoCopy</text>
</a>
</g>
<!-- Node4&#45;&gt;Node3 -->
<g id="edge6" class="edge"><title>Node4&#45;&gt;Node3</title>
<path fill="none" stroke="#8b1a1a" d="M50,-182.231C50,-172.592 50,-161.544 50,-153.634"/>
<polygon fill="#8b1a1a" stroke="#8b1a1a" points="46.5001,-182.273 50,-192.273 53.5001,-182.273 46.5001,-182.273"/>
</g>
<!-- Node5 -->
<g id="node8" class="node"><title>Node5</title>
<polygon fill="white" stroke="#bfbfbf" points="118,-72.5 118,-93.5 240,-93.5 240,-72.5 118,-72.5"/>
<text text-anchor="middle" x="179" y="-80.5" font-family="Helvetica,sans-Serif" font-size="10.00">static const MojUInt32</text>
</g>
<!-- Node5&#45;&gt;Node1 -->
<g id="edge8" class="edge"><title>Node5&#45;&gt;Node1</title>
<path fill="none" stroke="#9a32cd" stroke-dasharray="5,2" d="M169.846,-63.0266C163.709,-49.6374 155.869,-32.5318 150.889,-21.6674"/>
<polygon fill="#9a32cd" stroke="#9a32cd" points="166.782,-64.7438 174.131,-72.3762 173.146,-61.8272 166.782,-64.7438"/>
<text text-anchor="middle" x="188.5" y="-44.5" font-family="Helvetica,sans-Serif" font-size="10.00"> Unlimited</text>
</g>
</g>
</svg>
