<?xml version="1.0" encoding="UTF-8" standalone="no"?>
<!DOCTYPE svg PUBLIC "-//W3C//DTD SVG 1.1//EN"
 "http://www.w3.org/Graphics/SVG/1.1/DTD/svg11.dtd">
<!-- Generated by graphviz version 2.26.3 (20100126.1600)
 -->
<!-- Title: MojDbLunaServiceApp Pages: 1 -->
<svg width="202pt" height="262pt"
 viewBox="0.00 0.00 202.00 262.00" xmlns="http://www.w3.org/2000/svg" xmlns:xlink="http://www.w3.org/1999/xlink">
<g id="graph1" class="graph" transform="scale(1 1) rotate(0) translate(4 258)">
<title>MojDbLunaServiceApp</title>
<polygon fill="white" stroke="white" points="-4,5 -4,-258 199,-258 199,5 -4,5"/>
<!-- Node1 -->
<g id="node1" class="node"><title>Node1</title>
<polygon fill="#bfbfbf" stroke="black" points="35,-0.5 35,-21.5 159,-21.5 159,-0.5 35,-0.5"/>
<text text-anchor="middle" x="97" y="-8.5" font-family="Helvetica,sans-Serif" font-size="10.00">MojDbLunaServiceApp</text>
</g>
<!-- Node2 -->
<g id="node2" class="node"><title>Node2</title>
<a xlink:href="classMojReactorApp.htm" target="_top" xlink:title="MojReactorApp\&lt; MojGmainReactor \&gt;">
<polygon fill="white" stroke="black" points="0,-58.5 0,-79.5 194,-79.5 194,-58.5 0,-58.5"/>
<text text-anchor="middle" x="97" y="-66.5" font-family="Helvetica,sans-Serif" font-size="10.00">MojReactorApp&lt; MojGmainReactor &gt;</text>
</a>
</g>
<!-- Node2&#45;&gt;Node1 -->
<g id="edge2" class="edge"><title>Node2&#45;&gt;Node1</title>
<path fill="none" stroke="midnightblue" d="M97,-48.1906C97,-39.1684 97,-28.9941 97,-21.5707"/>
<polygon fill="midnightblue" stroke="midnightblue" points="93.5001,-48.3619 97,-58.3619 100.5,-48.3619 93.5001,-48.3619"/>
</g>
<!-- Node3 -->
<g id="node4" class="node"><title>Node3</title>
<a xlink:href="classMojServiceApp.htm" target="_top" xlink:title="MojServiceApp">
<polygon fill="white" stroke="black" points="53,-116.5 53,-137.5 141,-137.5 141,-116.5 53,-116.5"/>
<text text-anchor="middle" x="97" y="-124.5" font-family="Helvetica,sans-Serif" font-size="10.00">MojServiceApp</text>
</a>
</g>
<!-- Node3&#45;&gt;Node2 -->
<g id="edge4" class="edge"><title>Node3&#45;&gt;Node2</title>
<path fill="none" stroke="midnightblue" d="M97,-106.191C97,-97.1684 97,-86.9941 97,-79.5707"/>
<polygon fill="midnightblue" stroke="midnightblue" points="93.5001,-106.362 97,-116.362 100.5,-106.362 93.5001,-106.362"/>
</g>
<!-- Node4 -->
<g id="node6" class="node"><title>Node4</title>
<a xlink:href="classMojApp.htm" target="_top" xlink:title="MojApp">
<polygon fill="white" stroke="black" points="70.5,-174.5 70.5,-195.5 123.5,-195.5 123.5,-174.5 70.5,-174.5"/>
<text text-anchor="middle" x="97" y="-182.5" font-family="Helvetica,sans-Serif" font-size="10.00">MojApp</text>
</a>
</g>
<!-- Node4&#45;&gt;Node3 -->
<g id="edge6" class="edge"><title>Node4&#45;&gt;Node3</title>
<path fill="none" stroke="midnightblue" d="M97,-164.191C97,-155.168 97,-144.994 97,-137.571"/>
<polygon fill="midnightblue" stroke="midnightblue" points="93.5001,-164.362 97,-174.362 100.5,-164.362 93.5001,-164.362"/>
</g>
<!-- Node5 -->
<g id="node8" class="node"><title>Node5</title>
<a xlink:href="classMojNoCopy.htm" target="_top" xlink:title="MojNoCopy">
<polygon fill="white" stroke="black" points="61,-232.5 61,-253.5 133,-253.5 133,-232.5 61,-232.5"/>
<text text-anchor="middle" x="97" y="-240.5" font-family="Helvetica,sans-Serif" font-size="10.00">MojNoCopy</text>
</a>
</g>
<!-- Node5&#45;&gt;Node4 -->
<g id="edge8" class="edge"><title>Node5&#45;&gt;Node4</title>
<path fill="none" stroke="#8b1a1a" d="M97,-222.191C97,-213.168 97,-202.994 97,-195.571"/>
<polygon fill="#8b1a1a" stroke="#8b1a1a" points="93.5001,-222.362 97,-232.362 100.5,-222.362 93.5001,-222.362"/>
</g>
</g>
</svg>
