<?xml version="1.0" encoding="UTF-8" standalone="no"?>
<!DOCTYPE svg PUBLIC "-//W3C//DTD SVG 1.1//EN"
 "http://www.w3.org/Graphics/SVG/1.1/DTD/svg11.dtd">
<!-- Generated by graphviz version 2.26.3 (20100126.1600)
 -->
<!-- Title: MojSlotBase Pages: 1 -->
<svg width="754pt" height="200pt"
 viewBox="0.00 0.00 754.00 200.00" xmlns="http://www.w3.org/2000/svg" xmlns:xlink="http://www.w3.org/1999/xlink">
<g id="graph1" class="graph" transform="scale(1 1) rotate(0) translate(4 196)">
<title>MojSlotBase</title>
<polygon fill="white" stroke="white" points="-4,5 -4,-196 751,-196 751,5 -4,5"/>
<!-- Node1 -->
<g id="node1" class="node"><title>Node1</title>
<polygon fill="#bfbfbf" stroke="black" points="108,-96.5 108,-117.5 184,-117.5 184,-96.5 108,-96.5"/>
<text text-anchor="middle" x="146" y="-104.5" font-family="Helvetica,sans-Serif" font-size="10.00">MojSlotBase</text>
</g>
<!-- Node3 -->
<g id="node5" class="node"><title>Node3</title>
<a xlink:href="classMojSlotBase0.htm" target="_top" xlink:title="MojSlotBase0">
<polygon fill="white" stroke="black" points="247,-165.5 247,-186.5 329,-186.5 329,-165.5 247,-165.5"/>
<text text-anchor="middle" x="288" y="-173.5" font-family="Helvetica,sans-Serif" font-size="10.00">MojSlotBase0</text>
</a>
</g>
<!-- Node1&#45;&gt;Node3 -->
<g id="edge4" class="edge"><title>Node1&#45;&gt;Node3</title>
<path fill="none" stroke="midnightblue" d="M169.338,-123.444C183.526,-132.943 202.271,-144.628 220,-153 230.03,-157.736 241.304,-161.959 251.746,-165.453"/>
<polygon fill="midnightblue" stroke="midnightblue" points="170.963,-120.316 160.729,-117.575 167.02,-126.1 170.963,-120.316"/>
</g>
<!-- Node6 -->
<g id="node11" class="node"><title>Node6</title>
<a xlink:href="classMojSlotBase1.htm" target="_top" xlink:title="MojSlotBase1\&lt; TARG1 \&gt;">
<polygon fill="white" stroke="black" points="220.5,-122.5 220.5,-143.5 355.5,-143.5 355.5,-122.5 220.5,-122.5"/>
<text text-anchor="middle" x="288" y="-130.5" font-family="Helvetica,sans-Serif" font-size="10.00">MojSlotBase1&lt; TARG1 &gt;</text>
</a>
</g>
<!-- Node1&#45;&gt;Node6 -->
<g id="edge10" class="edge"><title>Node1&#45;&gt;Node6</title>
<path fill="none" stroke="midnightblue" d="M194.084,-115.804C205.815,-117.952 218.481,-120.271 230.598,-122.49"/>
<polygon fill="midnightblue" stroke="midnightblue" points="194.52,-112.326 184.053,-113.968 193.259,-119.211 194.52,-112.326"/>
</g>
<!-- Node9 -->
<g id="node17" class="node"><title>Node9</title>
<a xlink:href="classMojSlotBase2.htm" target="_top" xlink:title="MojSlotBase2\&lt; TARG1,\l TARG2 \&gt;">
<polygon fill="white" stroke="black" points="224,-67 224,-101 352,-101 352,-67 224,-67"/>
<text text-anchor="start" x="232" y="-88" font-family="Helvetica,sans-Serif" font-size="10.00">MojSlotBase2&lt; TARG1,</text>
<text text-anchor="middle" x="288" y="-75" font-family="Helvetica,sans-Serif" font-size="10.00"> TARG2 &gt;</text>
</a>
</g>
<!-- Node1&#45;&gt;Node9 -->
<g id="edge16" class="edge"><title>Node1&#45;&gt;Node9</title>
<path fill="none" stroke="midnightblue" d="M194.125,-99.2051C203.665,-97.6599 213.822,-96.0147 223.798,-94.3989"/>
<polygon fill="midnightblue" stroke="midnightblue" points="193.365,-95.7825 184.053,-100.836 194.484,-102.692 193.365,-95.7825"/>
</g>
<!-- Node12 -->
<g id="node23" class="node"><title>Node12</title>
<a xlink:href="structMojSlotBase3.htm" target="_top" xlink:title="MojSlotBase3\&lt; TARG1,\l TARG2, TARG3 \&gt;">
<polygon fill="white" stroke="black" points="224,-12 224,-46 352,-46 352,-12 224,-12"/>
<text text-anchor="start" x="232" y="-33" font-family="Helvetica,sans-Serif" font-size="10.00">MojSlotBase3&lt; TARG1,</text>
<text text-anchor="middle" x="288" y="-20" font-family="Helvetica,sans-Serif" font-size="10.00"> TARG2, TARG3 &gt;</text>
</a>
</g>
<!-- Node1&#45;&gt;Node12 -->
<g id="edge22" class="edge"><title>Node1&#45;&gt;Node12</title>
<path fill="none" stroke="midnightblue" d="M168.499,-90.5502C182.833,-80.4664 202.025,-67.6803 220,-58 227.797,-53.8011 236.331,-49.7589 244.638,-46.094"/>
<polygon fill="midnightblue" stroke="midnightblue" points="166.367,-87.772 160.257,-96.4276 170.431,-93.4715 166.367,-87.772"/>
</g>
<!-- Node2 -->
<g id="node2" class="node"><title>Node2</title>
<a xlink:href="classMojNoCopy.htm" target="_top" xlink:title="MojNoCopy">
<polygon fill="white" stroke="black" points="0,-96.5 0,-117.5 72,-117.5 72,-96.5 0,-96.5"/>
<text text-anchor="middle" x="36" y="-104.5" font-family="Helvetica,sans-Serif" font-size="10.00">MojNoCopy</text>
</a>
</g>
<!-- Node2&#45;&gt;Node1 -->
<g id="edge2" class="edge"><title>Node2&#45;&gt;Node1</title>
<path fill="none" stroke="#8b1a1a" d="M82.1622,-107C90.6415,-107 99.4086,-107 107.629,-107"/>
<polygon fill="#8b1a1a" stroke="#8b1a1a" points="82.0181,-103.5 72.0181,-107 82.0181,-110.5 82.0181,-103.5"/>
</g>
<!-- Node4 -->
<g id="node7" class="node"><title>Node4</title>
<a xlink:href="classMojSlot0.htm" target="_top" xlink:title="MojSlot0\&lt; THANDLER \&gt;">
<polygon fill="white" stroke="black" points="402,-167.5 402,-188.5 534,-188.5 534,-167.5 402,-167.5"/>
<text text-anchor="middle" x="468" y="-175.5" font-family="Helvetica,sans-Serif" font-size="10.00">MojSlot0&lt; THANDLER &gt;</text>
</a>
</g>
<!-- Node3&#45;&gt;Node4 -->
<g id="edge6" class="edge"><title>Node3&#45;&gt;Node4</title>
<path fill="none" stroke="midnightblue" d="M339.456,-176.572C358.884,-176.788 381.265,-177.036 401.852,-177.265"/>
<polygon fill="midnightblue" stroke="midnightblue" points="339.334,-173.07 329.296,-176.459 339.256,-180.07 339.334,-173.07"/>
</g>
<!-- Node5 -->
<g id="node9" class="node"><title>Node5</title>
<a xlink:href="classMojSignal0_1_1Slot.htm" target="_top" xlink:title="MojSignal0::Slot\&lt; THANDLER \&gt;">
<polygon fill="white" stroke="black" points="580,-170.5 580,-191.5 746,-191.5 746,-170.5 580,-170.5"/>
<text text-anchor="middle" x="663" y="-178.5" font-family="Helvetica,sans-Serif" font-size="10.00">MojSignal0::Slot&lt; THANDLER &gt;</text>
</a>
</g>
<!-- Node4&#45;&gt;Node5 -->
<g id="edge8" class="edge"><title>Node4&#45;&gt;Node5</title>
<path fill="none" stroke="midnightblue" d="M544.153,-179.172C555.832,-179.351 567.941,-179.538 579.763,-179.719"/>
<polygon fill="midnightblue" stroke="midnightblue" points="544.071,-175.67 534.018,-179.016 543.963,-182.669 544.071,-175.67"/>
</g>
<!-- Node7 -->
<g id="node13" class="node"><title>Node7</title>
<a xlink:href="classMojSlot1.htm" target="_top" xlink:title="MojSlot1\&lt; TARG1 \&gt;">
<polygon fill="white" stroke="black" points="412.5,-123.5 412.5,-144.5 523.5,-144.5 523.5,-123.5 412.5,-123.5"/>
<text text-anchor="middle" x="468" y="-131.5" font-family="Helvetica,sans-Serif" font-size="10.00">MojSlot1&lt; TARG1 &gt;</text>
</a>
</g>
<!-- Node6&#45;&gt;Node7 -->
<g id="edge12" class="edge"><title>Node6&#45;&gt;Node7</title>
<path fill="none" stroke="midnightblue" d="M365.761,-133.432C381.462,-133.519 397.668,-133.609 412.422,-133.691"/>
<polygon fill="midnightblue" stroke="midnightblue" points="365.557,-129.931 355.537,-133.375 365.518,-136.931 365.557,-129.931"/>
</g>
<!-- Node8 -->
<g id="node15" class="node"><title>Node8</title>
<a xlink:href="classMojSignal1_1_1Slot.htm" target="_top" xlink:title="MojSignal1\&lt; THANDLER,\l TARG1 \&gt;::Slot">
<polygon fill="white" stroke="black" points="594.5,-118 594.5,-152 731.5,-152 731.5,-118 594.5,-118"/>
<text text-anchor="start" x="602.5" y="-139" font-family="Helvetica,sans-Serif" font-size="10.00">MojSignal1&lt; THANDLER,</text>
<text text-anchor="middle" x="663" y="-126" font-family="Helvetica,sans-Serif" font-size="10.00"> TARG1 &gt;::Slot</text>
</a>
</g>
<!-- Node7&#45;&gt;Node8 -->
<g id="edge14" class="edge"><title>Node7&#45;&gt;Node8</title>
<path fill="none" stroke="midnightblue" d="M533.658,-134.337C553.228,-134.437 574.722,-134.547 594.471,-134.649"/>
<polygon fill="midnightblue" stroke="midnightblue" points="533.636,-130.837 523.618,-134.285 533.6,-137.837 533.636,-130.837"/>
</g>
<!-- Node10 -->
<g id="node19" class="node"><title>Node10</title>
<a xlink:href="classMojSlot2.htm" target="_top" xlink:title="MojSlot2\&lt; TARG1, TARG2 \&gt;">
<polygon fill="white" stroke="black" points="392,-72.5 392,-93.5 544,-93.5 544,-72.5 392,-72.5"/>
<text text-anchor="middle" x="468" y="-80.5" font-family="Helvetica,sans-Serif" font-size="10.00">MojSlot2&lt; TARG1, TARG2 &gt;</text>
</a>
</g>
<!-- Node9&#45;&gt;Node10 -->
<g id="edge18" class="edge"><title>Node9&#45;&gt;Node10</title>
<path fill="none" stroke="midnightblue" d="M362.271,-83.5874C372.022,-83.5332 382.027,-83.4776 391.809,-83.4233"/>
<polygon fill="midnightblue" stroke="midnightblue" points="362.202,-80.0876 352.222,-83.6432 362.241,-87.0875 362.202,-80.0876"/>
</g>
<!-- Node11 -->
<g id="node21" class="node"><title>Node11</title>
<a xlink:href="classMojSignal2_1_1Slot.htm" target="_top" xlink:title="MojSignal2\&lt; THANDLER,\l TARG1, TARG2 \&gt;::Slot">
<polygon fill="white" stroke="black" points="594.5,-66 594.5,-100 731.5,-100 731.5,-66 594.5,-66"/>
<text text-anchor="start" x="602.5" y="-87" font-family="Helvetica,sans-Serif" font-size="10.00">MojSignal2&lt; THANDLER,</text>
<text text-anchor="middle" x="663" y="-74" font-family="Helvetica,sans-Serif" font-size="10.00"> TARG1, TARG2 &gt;::Slot</text>
</a>
</g>
<!-- Node10&#45;&gt;Node11 -->
<g id="edge20" class="edge"><title>Node10&#45;&gt;Node11</title>
<path fill="none" stroke="midnightblue" d="M554.409,-83C567.814,-83 581.503,-83 594.444,-83"/>
<polygon fill="midnightblue" stroke="midnightblue" points="554.23,-79.5001 544.23,-83 554.23,-86.5001 554.23,-79.5001"/>
</g>
<!-- Node13 -->
<g id="node25" class="node"><title>Node13</title>
<a xlink:href="classMojSlot3.htm" target="_top" xlink:title="MojSlot3\&lt; TARG1, TARG2,\l TARG3 \&gt;">
<polygon fill="white" stroke="black" points="395.5,-9 395.5,-43 540.5,-43 540.5,-9 395.5,-9"/>
<text text-anchor="start" x="403.5" y="-30" font-family="Helvetica,sans-Serif" font-size="10.00">MojSlot3&lt; TARG1, TARG2,</text>
<text text-anchor="middle" x="468" y="-17" font-family="Helvetica,sans-Serif" font-size="10.00"> TARG3 &gt;</text>
</a>
</g>
<!-- Node12&#45;&gt;Node13 -->
<g id="edge24" class="edge"><title>Node12&#45;&gt;Node13</title>
<path fill="none" stroke="midnightblue" d="M362.482,-27.7586C373.305,-27.5783 384.436,-27.3927 395.224,-27.2129"/>
<polygon fill="midnightblue" stroke="midnightblue" points="362.162,-24.2634 352.222,-27.9296 362.279,-31.2624 362.162,-24.2634"/>
</g>
<!-- Node14 -->
<g id="node27" class="node"><title>Node14</title>
<a xlink:href="classMojSignal3_1_1Slot.htm" target="_top" xlink:title="MojSignal3\&lt; THANDLER,\l TARG1, TARG2, TARG3\l \&gt;::Slot">
<polygon fill="white" stroke="black" points="594.5,-0.5 594.5,-47.5 731.5,-47.5 731.5,-0.5 594.5,-0.5"/>
<text text-anchor="start" x="602.5" y="-34.5" font-family="Helvetica,sans-Serif" font-size="10.00">MojSignal3&lt; THANDLER,</text>
<text text-anchor="start" x="602.5" y="-21.5" font-family="Helvetica,sans-Serif" font-size="10.00"> TARG1, TARG2, TARG3</text>
<text text-anchor="middle" x="663" y="-8.5" font-family="Helvetica,sans-Serif" font-size="10.00"> &gt;::Slot</text>
</a>
</g>
<!-- Node13&#45;&gt;Node14 -->
<g id="edge26" class="edge"><title>Node13&#45;&gt;Node14</title>
<path fill="none" stroke="midnightblue" d="M551.003,-25.1487C565.404,-25.001 580.237,-24.8488 594.207,-24.7056"/>
<polygon fill="midnightblue" stroke="midnightblue" points="550.574,-21.6528 540.611,-25.2553 550.646,-28.6524 550.574,-21.6528"/>
</g>
</g>
</svg>
