<?xml version="1.0" encoding="UTF-8" standalone="no"?>
<!DOCTYPE svg PUBLIC "-//W3C//DTD SVG 1.1//EN"
 "http://www.w3.org/Graphics/SVG/1.1/DTD/svg11.dtd">
<!-- Generated by graphviz version 2.26.3 (20100126.1600)
 -->
<!-- Title: MojDbKindEngine Pages: 1 -->
<svg width="199pt" height="232pt"
 viewBox="0.00 0.00 199.00 232.00" xmlns="http://www.w3.org/2000/svg" xmlns:xlink="http://www.w3.org/1999/xlink">
<g id="graph1" class="graph" transform="scale(1 1) rotate(0) translate(4 228)">
<title>MojDbKindEngine</title>
<polygon fill="white" stroke="white" points="-4,5 -4,-228 196,-228 196,5 -4,5"/>
<!-- Node1 -->
<g id="node1" class="node"><title>Node1</title>
<polygon fill="#bfbfbf" stroke="black" points="21.5,-0.5 21.5,-21.5 122.5,-21.5 122.5,-0.5 21.5,-0.5"/>
<text text-anchor="middle" x="72" y="-8.5" font-family="Helvetica,sans-Serif" font-size="10.00">MojDbKindEngine</text>
</g>
<!-- Node2 -->
<g id="node2" class="node"><title>Node2</title>
<a xlink:href="classMojNoCopy.htm" target="_top" xlink:title="MojNoCopy">
<polygon fill="white" stroke="black" points="0,-202.5 0,-223.5 72,-223.5 72,-202.5 0,-202.5"/>
<text text-anchor="middle" x="36" y="-210.5" font-family="Helvetica,sans-Serif" font-size="10.00">MojNoCopy</text>
</a>
</g>
<!-- Node2&#45;&gt;Node1 -->
<g id="edge2" class="edge"><title>Node2&#45;&gt;Node1</title>
<path fill="none" stroke="#8b1a1a" d="M39.6661,-192.429C47.2154,-150.069 64.272,-54.3627 70.0465,-21.9612"/>
<polygon fill="#8b1a1a" stroke="#8b1a1a" points="36.1937,-191.965 37.8848,-202.424 43.0852,-193.193 36.1937,-191.965"/>
</g>
<!-- Node3 -->
<g id="node4" class="node"><title>Node3</title>
<polygon fill="white" stroke="#bfbfbf" points="90,-202.5 90,-223.5 128,-223.5 128,-202.5 90,-202.5"/>
<text text-anchor="middle" x="109" y="-210.5" font-family="Helvetica,sans-Serif" font-size="10.00">char</text>
</g>
<!-- Node3&#45;&gt;Node1 -->
<g id="edge4" class="edge"><title>Node3&#45;&gt;Node1</title>
<path fill="none" stroke="#9a32cd" stroke-dasharray="5,2" d="M105.232,-192.429C97.4731,-150.069 79.9427,-54.3627 74.0077,-21.9612"/>
<polygon fill="#9a32cd" stroke="#9a32cd" points="101.818,-193.218 107.063,-202.424 108.704,-191.957 101.818,-193.218"/>
<text text-anchor="middle" x="147" y="-174.5" font-family="Helvetica,sans-Serif" font-size="10.00"> PermissionId</text>
<text text-anchor="middle" x="147" y="-161.5" font-family="Helvetica,sans-Serif" font-size="10.00">KindKindIdPrefix</text>
<text text-anchor="middle" x="147" y="-148.5" font-family="Helvetica,sans-Serif" font-size="10.00">IndexesKindId</text>
<text text-anchor="middle" x="147" y="-135.5" font-family="Helvetica,sans-Serif" font-size="10.00">QuotaId</text>
<text text-anchor="middle" x="147" y="-122.5" font-family="Helvetica,sans-Serif" font-size="10.00">PermissionIdPrefix</text>
<text text-anchor="middle" x="147" y="-109.5" font-family="Helvetica,sans-Serif" font-size="10.00">RevTimestampId</text>
<text text-anchor="middle" x="147" y="-96.5" font-family="Helvetica,sans-Serif" font-size="10.00">DbStateId</text>
<text text-anchor="middle" x="147" y="-83.5" font-family="Helvetica,sans-Serif" font-size="10.00">QuotaIdPrefix</text>
<text text-anchor="middle" x="147" y="-70.5" font-family="Helvetica,sans-Serif" font-size="10.00">KindKindId</text>
<text text-anchor="middle" x="147" y="-57.5" font-family="Helvetica,sans-Serif" font-size="10.00">RootKindId</text>
<text text-anchor="middle" x="147" y="-44.5" font-family="Helvetica,sans-Serif" font-size="10.00">...</text>
</g>
</g>
</svg>
