<?xml version="1.0" encoding="UTF-8" standalone="no"?>
<!DOCTYPE svg PUBLIC "-//W3C//DTD SVG 1.1//EN"
 "http://www.w3.org/Graphics/SVG/1.1/DTD/svg11.dtd">
<!-- Generated by graphviz version 2.26.3 (20100126.1600)
 -->
<!-- Title: MojSlot2&lt; THANDLER, TARG1, TARG2 &gt; Pages: 1 -->
<svg width="144pt" height="304pt"
 viewBox="0.00 0.00 144.00 304.00" xmlns="http://www.w3.org/2000/svg" xmlns:xlink="http://www.w3.org/1999/xlink">
<g id="graph1" class="graph" transform="scale(1 1) rotate(0) translate(4 300)">
<title>MojSlot2&lt; THANDLER, TARG1, TARG2 &gt;</title>
<polygon fill="white" stroke="white" points="-4,5 -4,-300 141,-300 141,5 -4,5"/>
<!-- Node1 -->
<g id="node1" class="node"><title>Node1</title>
<polygon fill="#bfbfbf" stroke="black" points="5.5,-73 5.5,-107 130.5,-107 130.5,-73 5.5,-73"/>
<text text-anchor="start" x="13.5" y="-94" font-family="Helvetica,sans-Serif" font-size="10.00">MojSlot2&lt; THANDLER,</text>
<text text-anchor="middle" x="68" y="-81" font-family="Helvetica,sans-Serif" font-size="10.00"> TARG1, TARG2 &gt;</text>
</g>
<!-- Node5 -->
<g id="node9" class="node"><title>Node5</title>
<a xlink:href="classMojSignal2_1_1Slot.htm" target="_top" xlink:title="MojSignal2\&lt; THANDLER,\l TARG1, TARG2 \&gt;::Slot">
<polygon fill="white" stroke="black" points="-0.5,-1 -0.5,-35 136.5,-35 136.5,-1 -0.5,-1"/>
<text text-anchor="start" x="7.5" y="-22" font-family="Helvetica,sans-Serif" font-size="10.00">MojSignal2&lt; THANDLER,</text>
<text text-anchor="middle" x="68" y="-9" font-family="Helvetica,sans-Serif" font-size="10.00"> TARG1, TARG2 &gt;::Slot</text>
</a>
</g>
<!-- Node1&#45;&gt;Node5 -->
<g id="edge8" class="edge"><title>Node1&#45;&gt;Node5</title>
<path fill="none" stroke="midnightblue" d="M68,-62.7193C68,-53.572 68,-43.6255 68,-35.4407"/>
<polygon fill="midnightblue" stroke="midnightblue" points="64.5001,-62.937 68,-72.937 71.5001,-62.937 64.5001,-62.937"/>
</g>
<!-- Node2 -->
<g id="node2" class="node"><title>Node2</title>
<a xlink:href="classMojSlotBase2.htm" target="_top" xlink:title="MojSlotBase2\&lt; TARG1,\l TARG2 \&gt;">
<polygon fill="white" stroke="black" points="4,-145 4,-179 132,-179 132,-145 4,-145"/>
<text text-anchor="start" x="12" y="-166" font-family="Helvetica,sans-Serif" font-size="10.00">MojSlotBase2&lt; TARG1,</text>
<text text-anchor="middle" x="68" y="-153" font-family="Helvetica,sans-Serif" font-size="10.00"> TARG2 &gt;</text>
</a>
</g>
<!-- Node2&#45;&gt;Node1 -->
<g id="edge2" class="edge"><title>Node2&#45;&gt;Node1</title>
<path fill="none" stroke="midnightblue" d="M68,-134.719C68,-125.572 68,-115.625 68,-107.441"/>
<polygon fill="midnightblue" stroke="midnightblue" points="64.5001,-134.937 68,-144.937 71.5001,-134.937 64.5001,-134.937"/>
</g>
<!-- Node3 -->
<g id="node4" class="node"><title>Node3</title>
<a xlink:href="classMojSlotBase.htm" target="_top" xlink:title="MojSlotBase">
<polygon fill="white" stroke="black" points="30,-216.5 30,-237.5 106,-237.5 106,-216.5 30,-216.5"/>
<text text-anchor="middle" x="68" y="-224.5" font-family="Helvetica,sans-Serif" font-size="10.00">MojSlotBase</text>
</a>
</g>
<!-- Node3&#45;&gt;Node2 -->
<g id="edge4" class="edge"><title>Node3&#45;&gt;Node2</title>
<path fill="none" stroke="midnightblue" d="M68,-206.131C68,-197.405 68,-187.391 68,-179.11"/>
<polygon fill="midnightblue" stroke="midnightblue" points="64.5001,-206.267 68,-216.267 71.5001,-206.267 64.5001,-206.267"/>
</g>
<!-- Node4 -->
<g id="node6" class="node"><title>Node4</title>
<a xlink:href="classMojNoCopy.htm" target="_top" xlink:title="MojNoCopy">
<polygon fill="white" stroke="black" points="32,-274.5 32,-295.5 104,-295.5 104,-274.5 32,-274.5"/>
<text text-anchor="middle" x="68" y="-282.5" font-family="Helvetica,sans-Serif" font-size="10.00">MojNoCopy</text>
</a>
</g>
<!-- Node4&#45;&gt;Node3 -->
<g id="edge6" class="edge"><title>Node4&#45;&gt;Node3</title>
<path fill="none" stroke="#8b1a1a" d="M68,-264.191C68,-255.168 68,-244.994 68,-237.571"/>
<polygon fill="#8b1a1a" stroke="#8b1a1a" points="64.5001,-264.362 68,-274.362 71.5001,-264.362 64.5001,-264.362"/>
</g>
</g>
</svg>
