<?xml version="1.0" encoding="UTF-8" standalone="no"?>
<!DOCTYPE svg PUBLIC "-//W3C//DTD SVG 1.1//EN"
 "http://www.w3.org/Graphics/SVG/1.1/DTD/svg11.dtd">
<!-- Generated by graphviz version 2.26.3 (20100126.1600)
 -->
<!-- Title: MojDbStorageEngine Pages: 1 -->
<svg width="241pt" height="382pt"
 viewBox="0.00 0.00 241.00 382.00" xmlns="http://www.w3.org/2000/svg" xmlns:xlink="http://www.w3.org/1999/xlink">
<g id="graph1" class="graph" transform="scale(1 1) rotate(0) translate(4 378)">
<title>MojDbStorageEngine</title>
<polygon fill="white" stroke="white" points="-4,5 -4,-378 238,-378 238,5 -4,5"/>
<!-- Node1 -->
<g id="node1" class="node"><title>Node1</title>
<polygon fill="#bfbfbf" stroke="black" points="-0.5,-0.5 -0.5,-21.5 116.5,-21.5 116.5,-0.5 -0.5,-0.5"/>
<text text-anchor="middle" x="58" y="-8.5" font-family="Helvetica,sans-Serif" font-size="10.00">MojDbStorageEngine</text>
</g>
<!-- Node2 -->
<g id="node2" class="node"><title>Node2</title>
<a xlink:href="classMojRefCounted.htm" target="_top" xlink:title="MojRefCounted">
<polygon fill="white" stroke="black" points="80,-292.5 80,-313.5 170,-313.5 170,-292.5 80,-292.5"/>
<text text-anchor="middle" x="125" y="-300.5" font-family="Helvetica,sans-Serif" font-size="10.00">MojRefCounted</text>
</a>
</g>
<!-- Node2&#45;&gt;Node1 -->
<g id="edge2" class="edge"><title>Node2&#45;&gt;Node1</title>
<path fill="none" stroke="midnightblue" d="M70.379,-292.148C45.2814,-283.66 21,-268.785 21,-243 21,-243 21,-243 21,-90 21,-63.3448 38.4883,-36.0006 49.4185,-21.5136"/>
<polygon fill="midnightblue" stroke="midnightblue" points="69.4021,-295.51 79.989,-295.098 71.4564,-288.818 69.4021,-295.51"/>
</g>
<!-- Node6 -->
<g id="node11" class="node"><title>Node6</title>
<a xlink:href="classMojDbStorageEngineFactory.htm" target="_top" xlink:title="MojDbStorageEngineFactory">
<polygon fill="white" stroke="black" points="49,-232.5 49,-253.5 201,-253.5 201,-232.5 49,-232.5"/>
<text text-anchor="middle" x="125" y="-240.5" font-family="Helvetica,sans-Serif" font-size="10.00">MojDbStorageEngineFactory</text>
</a>
</g>
<!-- Node2&#45;&gt;Node6 -->
<g id="edge14" class="edge"><title>Node2&#45;&gt;Node6</title>
<path fill="none" stroke="midnightblue" d="M125,-282.231C125,-272.592 125,-261.544 125,-253.634"/>
<polygon fill="midnightblue" stroke="midnightblue" points="121.5,-282.273 125,-292.273 128.5,-282.273 121.5,-282.273"/>
</g>
<!-- Node3 -->
<g id="node4" class="node"><title>Node3</title>
<a xlink:href="classMojNoCopy.htm" target="_top" xlink:title="MojNoCopy">
<polygon fill="white" stroke="black" points="161,-352.5 161,-373.5 233,-373.5 233,-352.5 161,-352.5"/>
<text text-anchor="middle" x="197" y="-360.5" font-family="Helvetica,sans-Serif" font-size="10.00">MojNoCopy</text>
</a>
</g>
<!-- Node3&#45;&gt;Node2 -->
<g id="edge4" class="edge"><title>Node3&#45;&gt;Node2</title>
<path fill="none" stroke="#8b1a1a" d="M176.102,-345.585C163.699,-335.25 148.376,-322.48 137.761,-313.634"/>
<polygon fill="#8b1a1a" stroke="#8b1a1a" points="174.205,-348.56 184.128,-352.273 178.686,-343.183 174.205,-348.56"/>
</g>
<!-- Node5 -->
<g id="node8" class="node"><title>Node5</title>
<a xlink:href="classMojSmartPtrBase.htm" target="_top" xlink:title="MojSmartPtrBase\&lt; MojDbStorage\lEngineFactory \&gt;">
<polygon fill="white" stroke="black" points="51,-147 51,-181 227,-181 227,-147 51,-147"/>
<text text-anchor="start" x="59" y="-168" font-family="Helvetica,sans-Serif" font-size="10.00">MojSmartPtrBase&lt; MojDbStorage</text>
<text text-anchor="middle" x="139" y="-155" font-family="Helvetica,sans-Serif" font-size="10.00">EngineFactory &gt;</text>
</a>
</g>
<!-- Node3&#45;&gt;Node5 -->
<g id="edge10" class="edge"><title>Node3&#45;&gt;Node5</title>
<path fill="none" stroke="#8b1a1a" d="M204.949,-342.557C213.994,-315.962 225.616,-268.579 210,-232 200.953,-210.809 181.703,-193.057 165.528,-181.011"/>
<polygon fill="#8b1a1a" stroke="#8b1a1a" points="201.541,-341.689 201.436,-352.283 208.125,-344.067 201.541,-341.689"/>
</g>
<!-- Node4 -->
<g id="node6" class="node"><title>Node4</title>
<a xlink:href="classMojRefCountedPtr.htm" target="_top" xlink:title="MojRefCountedPtr\&lt; MojDbStorage\lEngineFactory \&gt;">
<polygon fill="white" stroke="black" points="49,-73 49,-107 229,-107 229,-73 49,-73"/>
<text text-anchor="start" x="57" y="-94" font-family="Helvetica,sans-Serif" font-size="10.00">MojRefCountedPtr&lt; MojDbStorage</text>
<text text-anchor="middle" x="139" y="-81" font-family="Helvetica,sans-Serif" font-size="10.00">EngineFactory &gt;</text>
</a>
</g>
<!-- Node4&#45;&gt;Node1 -->
<g id="edge6" class="edge"><title>Node4&#45;&gt;Node1</title>
<path fill="none" stroke="#9a32cd" stroke-dasharray="5,2" d="M113.881,-65.5009C98.7651,-50.7586 80.2924,-32.742 68.8347,-21.5672"/>
<polygon fill="#9a32cd" stroke="#9a32cd" points="111.822,-68.3816 121.424,-72.8582 116.709,-63.3704 111.822,-68.3816"/>
<text text-anchor="middle" x="126" y="-44.5" font-family="Helvetica,sans-Serif" font-size="10.00"> m_factory</text>
</g>
<!-- Node5&#45;&gt;Node4 -->
<g id="edge8" class="edge"><title>Node5&#45;&gt;Node4</title>
<path fill="none" stroke="midnightblue" d="M139,-136.627C139,-126.725 139,-115.834 139,-107.07"/>
<polygon fill="midnightblue" stroke="midnightblue" points="135.5,-136.837 139,-146.837 142.5,-136.837 135.5,-136.837"/>
</g>
<!-- Node6&#45;&gt;Node5 -->
<g id="edge12" class="edge"><title>Node6&#45;&gt;Node5</title>
<path fill="none" stroke="#9a32cd" stroke-dasharray="5,2" d="M128.693,-222.162C130.961,-209.363 133.83,-193.171 135.965,-181.124"/>
<polygon fill="#9a32cd" stroke="#9a32cd" points="125.187,-221.888 126.888,-232.346 132.079,-223.11 125.187,-221.888"/>
<text text-anchor="middle" x="144" y="-204.5" font-family="Helvetica,sans-Serif" font-size="10.00"> m_p</text>
</g>
</g>
</svg>
