<?xml version="1.0" encoding="UTF-8" standalone="no"?>
<!DOCTYPE svg PUBLIC "-//W3C//DTD SVG 1.1//EN"
 "http://www.w3.org/Graphics/SVG/1.1/DTD/svg11.dtd">
<!-- Generated by graphviz version 2.26.3 (20100126.1600)
 -->
<!-- Title: MojSlot3&lt; THANDLER, TARG1, TARG2, TARG3 &gt; Pages: 1 -->
<svg width="152pt" height="232pt"
 viewBox="0.00 0.00 152.00 232.00" xmlns="http://www.w3.org/2000/svg" xmlns:xlink="http://www.w3.org/1999/xlink">
<g id="graph1" class="graph" transform="scale(1 1) rotate(0) translate(4 228)">
<title>MojSlot3&lt; THANDLER, TARG1, TARG2, TARG3 &gt;</title>
<polygon fill="white" stroke="white" points="-4,5 -4,-228 149,-228 149,5 -4,5"/>
<!-- Node1 -->
<g id="node1" class="node"><title>Node1</title>
<polygon fill="#bfbfbf" stroke="black" points="-0.5,-1 -0.5,-35 144.5,-35 144.5,-1 -0.5,-1"/>
<text text-anchor="start" x="7.5" y="-22" font-family="Helvetica,sans-Serif" font-size="10.00">MojSlot3&lt; THANDLER,</text>
<text text-anchor="middle" x="72" y="-9" font-family="Helvetica,sans-Serif" font-size="10.00"> TARG1, TARG2, TARG3 &gt;</text>
</g>
<!-- Node2 -->
<g id="node2" class="node"><title>Node2</title>
<a xlink:href="structMojSlotBase3.htm" target="_top" xlink:title="MojSlotBase3\&lt; TARG1,\l TARG2, TARG3 \&gt;">
<polygon fill="white" stroke="black" points="8,-73 8,-107 136,-107 136,-73 8,-73"/>
<text text-anchor="start" x="16" y="-94" font-family="Helvetica,sans-Serif" font-size="10.00">MojSlotBase3&lt; TARG1,</text>
<text text-anchor="middle" x="72" y="-81" font-family="Helvetica,sans-Serif" font-size="10.00"> TARG2, TARG3 &gt;</text>
</a>
</g>
<!-- Node2&#45;&gt;Node1 -->
<g id="edge2" class="edge"><title>Node2&#45;&gt;Node1</title>
<path fill="none" stroke="midnightblue" d="M72,-62.7193C72,-53.572 72,-43.6255 72,-35.4407"/>
<polygon fill="midnightblue" stroke="midnightblue" points="68.5001,-62.937 72,-72.937 75.5001,-62.937 68.5001,-62.937"/>
</g>
<!-- Node3 -->
<g id="node4" class="node"><title>Node3</title>
<a xlink:href="classMojSlotBase.htm" target="_top" xlink:title="MojSlotBase">
<polygon fill="white" stroke="black" points="34,-144.5 34,-165.5 110,-165.5 110,-144.5 34,-144.5"/>
<text text-anchor="middle" x="72" y="-152.5" font-family="Helvetica,sans-Serif" font-size="10.00">MojSlotBase</text>
</a>
</g>
<!-- Node3&#45;&gt;Node2 -->
<g id="edge4" class="edge"><title>Node3&#45;&gt;Node2</title>
<path fill="none" stroke="midnightblue" d="M72,-134.131C72,-125.405 72,-115.391 72,-107.11"/>
<polygon fill="midnightblue" stroke="midnightblue" points="68.5001,-134.267 72,-144.267 75.5001,-134.267 68.5001,-134.267"/>
</g>
<!-- Node4 -->
<g id="node6" class="node"><title>Node4</title>
<a xlink:href="classMojNoCopy.htm" target="_top" xlink:title="MojNoCopy">
<polygon fill="white" stroke="black" points="36,-202.5 36,-223.5 108,-223.5 108,-202.5 36,-202.5"/>
<text text-anchor="middle" x="72" y="-210.5" font-family="Helvetica,sans-Serif" font-size="10.00">MojNoCopy</text>
</a>
</g>
<!-- Node4&#45;&gt;Node3 -->
<g id="edge6" class="edge"><title>Node4&#45;&gt;Node3</title>
<path fill="none" stroke="#8b1a1a" d="M72,-192.191C72,-183.168 72,-172.994 72,-165.571"/>
<polygon fill="#8b1a1a" stroke="#8b1a1a" points="68.5001,-192.362 72,-202.362 75.5001,-192.362 68.5001,-192.362"/>
</g>
</g>
</svg>
