<?xml version="1.0" encoding="UTF-8" standalone="no"?>
<!DOCTYPE svg PUBLIC "-//W3C//DTD SVG 1.1//EN"
 "http://www.w3.org/Graphics/SVG/1.1/DTD/svg11.dtd">
<!-- Generated by graphviz version 2.26.3 (20100126.1600)
 -->
<!-- Title: MojHashMap&lt; KEY, VAL, LKEY, HASH, KEQ, VEQ &gt;::ConstIterator Pages: 1 -->
<svg width="144pt" height="140pt"
 viewBox="0.00 0.00 144.00 140.00" xmlns="http://www.w3.org/2000/svg" xmlns:xlink="http://www.w3.org/1999/xlink">
<g id="graph1" class="graph" transform="scale(1 1) rotate(0) translate(4 136)">
<title>MojHashMap&lt; KEY, VAL, LKEY, HASH, KEQ, VEQ &gt;::ConstIterator</title>
<polygon fill="white" stroke="white" points="-4,5 -4,-136 141,-136 141,5 -4,5"/>
<!-- Node1 -->
<g id="node1" class="node"><title>Node1</title>
<polygon fill="#bfbfbf" stroke="black" points="0,-84.5 0,-131.5 136,-131.5 136,-84.5 0,-84.5"/>
<text text-anchor="start" x="8" y="-118.5" font-family="Helvetica,sans-Serif" font-size="10.00">MojHashMap&lt; KEY, VAL,</text>
<text text-anchor="start" x="8" y="-105.5" font-family="Helvetica,sans-Serif" font-size="10.00"> LKEY, HASH, KEQ, VEQ</text>
<text text-anchor="middle" x="68" y="-92.5" font-family="Helvetica,sans-Serif" font-size="10.00"> &gt;::ConstIterator</text>
</g>
<!-- Node2 -->
<g id="node3" class="node"><title>Node2</title>
<a xlink:href="classMojHashMap_1_1Iterator.htm" target="_top" xlink:title="MojHashMap\&lt; KEY, VAL,\l LKEY, HASH, KEQ, VEQ\l \&gt;::Iterator">
<polygon fill="white" stroke="black" points="0,-0.5 0,-47.5 136,-47.5 136,-0.5 0,-0.5"/>
<text text-anchor="start" x="8" y="-34.5" font-family="Helvetica,sans-Serif" font-size="10.00">MojHashMap&lt; KEY, VAL,</text>
<text text-anchor="start" x="8" y="-21.5" font-family="Helvetica,sans-Serif" font-size="10.00"> LKEY, HASH, KEQ, VEQ</text>
<text text-anchor="middle" x="68" y="-8.5" font-family="Helvetica,sans-Serif" font-size="10.00"> &gt;::Iterator</text>
</a>
</g>
<!-- Node1&#45;&gt;Node2 -->
<g id="edge2" class="edge"><title>Node1&#45;&gt;Node2</title>
<path fill="none" stroke="#8b1a1a" d="M68,-74.0664C68,-65.1933 68,-55.821 68,-47.6152"/>
<polygon fill="#8b1a1a" stroke="#8b1a1a" points="64.5001,-74.1536 68,-84.1537 71.5001,-74.1537 64.5001,-74.1536"/>
</g>
</g>
</svg>
