<?xml version="1.0" encoding="UTF-8" standalone="no"?>
<!DOCTYPE svg PUBLIC "-//W3C//DTD SVG 1.1//EN"
 "http://www.w3.org/Graphics/SVG/1.1/DTD/svg11.dtd">
<!-- Generated by graphviz version 2.26.3 (20100126.1600)
 -->
<!-- Title: MojSockAddr Pages: 1 -->
<svg width="324pt" height="102pt"
 viewBox="0.00 0.00 324.00 102.00" xmlns="http://www.w3.org/2000/svg" xmlns:xlink="http://www.w3.org/1999/xlink">
<g id="graph1" class="graph" transform="scale(1 1) rotate(0) translate(4 98)">
<title>MojSockAddr</title>
<polygon fill="white" stroke="white" points="-4,5 -4,-98 321,-98 321,5 -4,5"/>
<!-- Node1 -->
<g id="node1" class="node"><title>Node1</title>
<polygon fill="#bfbfbf" stroke="black" points="121,-0.5 121,-21.5 201,-21.5 201,-0.5 121,-0.5"/>
<text text-anchor="middle" x="161" y="-8.5" font-family="Helvetica,sans-Serif" font-size="10.00">MojSockAddr</text>
</g>
<!-- Node2 -->
<g id="node2" class="node"><title>Node2</title>
<polygon fill="white" stroke="#bfbfbf" points="0,-72.5 0,-93.5 100,-93.5 100,-72.5 0,-72.5"/>
<text text-anchor="middle" x="50" y="-80.5" font-family="Helvetica,sans-Serif" font-size="10.00">MojSockAddrUnT</text>
</g>
<!-- Node2&#45;&gt;Node1 -->
<g id="edge2" class="edge"><title>Node2&#45;&gt;Node1</title>
<path fill="none" stroke="#9a32cd" stroke-dasharray="5,2" d="M74.9008,-66.8481C96.1708,-53.0514 126.163,-33.597 144.554,-21.6674"/>
<polygon fill="#9a32cd" stroke="#9a32cd" points="72.8634,-63.9978 66.3784,-72.3762 76.6727,-69.8706 72.8634,-63.9978"/>
<text text-anchor="middle" x="130.5" y="-44.5" font-family="Helvetica,sans-Serif" font-size="10.00"> m_un</text>
</g>
<!-- Node3 -->
<g id="node4" class="node"><title>Node3</title>
<polygon fill="white" stroke="#bfbfbf" points="118,-72.5 118,-93.5 204,-93.5 204,-72.5 118,-72.5"/>
<text text-anchor="middle" x="161" y="-80.5" font-family="Helvetica,sans-Serif" font-size="10.00">MojSockAddrT</text>
</g>
<!-- Node3&#45;&gt;Node1 -->
<g id="edge4" class="edge"><title>Node3&#45;&gt;Node1</title>
<path fill="none" stroke="#9a32cd" stroke-dasharray="5,2" d="M161,-62.2348C161,-48.969 161,-32.3188 161,-21.6674"/>
<polygon fill="#9a32cd" stroke="#9a32cd" points="157.5,-62.3761 161,-72.3762 164.5,-62.3762 157.5,-62.3761"/>
<text text-anchor="middle" x="175.5" y="-44.5" font-family="Helvetica,sans-Serif" font-size="10.00"> m_sa</text>
</g>
<!-- Node4 -->
<g id="node6" class="node"><title>Node4</title>
<polygon fill="white" stroke="#bfbfbf" points="221.5,-72.5 221.5,-93.5 316.5,-93.5 316.5,-72.5 221.5,-72.5"/>
<text text-anchor="middle" x="269" y="-80.5" font-family="Helvetica,sans-Serif" font-size="10.00">MojSockAddrInT</text>
</g>
<!-- Node4&#45;&gt;Node1 -->
<g id="edge6" class="edge"><title>Node4&#45;&gt;Node1</title>
<path fill="none" stroke="#9a32cd" stroke-dasharray="5,2" d="M244.494,-66.663C223.817,-52.8778 194.816,-33.5437 177.001,-21.6674"/>
<polygon fill="#9a32cd" stroke="#9a32cd" points="242.802,-69.7413 253.064,-72.3762 246.685,-63.9169 242.802,-69.7413"/>
<text text-anchor="middle" x="237" y="-44.5" font-family="Helvetica,sans-Serif" font-size="10.00"> m_in</text>
</g>
</g>
</svg>
