<?xml version="1.0" encoding="UTF-8" standalone="no"?>
<!DOCTYPE svg PUBLIC "-//W3C//DTD SVG 1.1//EN"
 "http://www.w3.org/Graphics/SVG/1.1/DTD/svg11.dtd">
<!-- Generated by graphviz version 2.26.3 (20100126.1600)
 -->
<!-- Title: MojDbInnoSeq Pages: 1 -->
<svg width="110pt" height="204pt"
 viewBox="0.00 0.00 110.00 204.00" xmlns="http://www.w3.org/2000/svg" xmlns:xlink="http://www.w3.org/1999/xlink">
<g id="graph1" class="graph" transform="scale(1 1) rotate(0) translate(4 200)">
<title>MojDbInnoSeq</title>
<polygon fill="white" stroke="white" points="-4,5 -4,-200 107,-200 107,5 -4,5"/>
<!-- Node1 -->
<g id="node1" class="node"><title>Node1</title>
<polygon fill="#bfbfbf" stroke="black" points="8,-0.5 8,-21.5 94,-21.5 94,-0.5 8,-0.5"/>
<text text-anchor="middle" x="51" y="-8.5" font-family="Helvetica,sans-Serif" font-size="10.00">MojDbInnoSeq</text>
</g>
<!-- Node2 -->
<g id="node2" class="node"><title>Node2</title>
<a xlink:href="classMojDbStorageSeq.htm" target="_top" xlink:title="MojDbStorageSeq">
<polygon fill="white" stroke="black" points="-0.5,-58.5 -0.5,-79.5 102.5,-79.5 102.5,-58.5 -0.5,-58.5"/>
<text text-anchor="middle" x="51" y="-66.5" font-family="Helvetica,sans-Serif" font-size="10.00">MojDbStorageSeq</text>
</a>
</g>
<!-- Node2&#45;&gt;Node1 -->
<g id="edge2" class="edge"><title>Node2&#45;&gt;Node1</title>
<path fill="none" stroke="midnightblue" d="M51,-48.1906C51,-39.1684 51,-28.9941 51,-21.5707"/>
<polygon fill="midnightblue" stroke="midnightblue" points="47.5001,-48.3619 51,-58.3619 54.5001,-48.3619 47.5001,-48.3619"/>
</g>
<!-- Node3 -->
<g id="node4" class="node"><title>Node3</title>
<a xlink:href="classMojRefCounted.htm" target="_top" xlink:title="MojRefCounted">
<polygon fill="white" stroke="black" points="6,-116.5 6,-137.5 96,-137.5 96,-116.5 6,-116.5"/>
<text text-anchor="middle" x="51" y="-124.5" font-family="Helvetica,sans-Serif" font-size="10.00">MojRefCounted</text>
</a>
</g>
<!-- Node3&#45;&gt;Node2 -->
<g id="edge4" class="edge"><title>Node3&#45;&gt;Node2</title>
<path fill="none" stroke="midnightblue" d="M51,-106.191C51,-97.1684 51,-86.9941 51,-79.5707"/>
<polygon fill="midnightblue" stroke="midnightblue" points="47.5001,-106.362 51,-116.362 54.5001,-106.362 47.5001,-106.362"/>
</g>
<!-- Node4 -->
<g id="node6" class="node"><title>Node4</title>
<a xlink:href="classMojNoCopy.htm" target="_top" xlink:title="MojNoCopy">
<polygon fill="white" stroke="black" points="15,-174.5 15,-195.5 87,-195.5 87,-174.5 15,-174.5"/>
<text text-anchor="middle" x="51" y="-182.5" font-family="Helvetica,sans-Serif" font-size="10.00">MojNoCopy</text>
</a>
</g>
<!-- Node4&#45;&gt;Node3 -->
<g id="edge6" class="edge"><title>Node4&#45;&gt;Node3</title>
<path fill="none" stroke="#8b1a1a" d="M51,-164.191C51,-155.168 51,-144.994 51,-137.571"/>
<polygon fill="#8b1a1a" stroke="#8b1a1a" points="47.5001,-164.362 51,-174.362 54.5001,-164.362 47.5001,-164.362"/>
</g>
</g>
</svg>
