<?xml version="1.0" encoding="UTF-8" standalone="no"?>
<!DOCTYPE svg PUBLIC "-//W3C//DTD SVG 1.1//EN"
 "http://www.w3.org/Graphics/SVG/1.1/DTD/svg11.dtd">
<!-- Generated by graphviz version 2.26.3 (20100126.1600)
 -->
<!-- Title: MojLogEngine Pages: 1 -->
<svg width="174pt" height="180pt"
 viewBox="0.00 0.00 174.00 180.00" xmlns="http://www.w3.org/2000/svg" xmlns:xlink="http://www.w3.org/1999/xlink">
<g id="graph1" class="graph" transform="scale(1 1) rotate(0) translate(4 176)">
<title>MojLogEngine</title>
<polygon fill="white" stroke="white" points="-4,5 -4,-176 171,-176 171,5 -4,5"/>
<!-- Node1 -->
<g id="node1" class="node"><title>Node1</title>
<polygon fill="#bfbfbf" stroke="black" points="29.5,-0.5 29.5,-21.5 114.5,-21.5 114.5,-0.5 29.5,-0.5"/>
<text text-anchor="middle" x="72" y="-8.5" font-family="Helvetica,sans-Serif" font-size="10.00">MojLogEngine</text>
</g>
<!-- Node2 -->
<g id="node2" class="node"><title>Node2</title>
<a xlink:href="classMojNoCopy.htm" target="_top" xlink:title="MojNoCopy">
<polygon fill="white" stroke="black" points="0,-150.5 0,-171.5 72,-171.5 72,-150.5 0,-150.5"/>
<text text-anchor="middle" x="36" y="-158.5" font-family="Helvetica,sans-Serif" font-size="10.00">MojNoCopy</text>
</a>
</g>
<!-- Node2&#45;&gt;Node1 -->
<g id="edge2" class="edge"><title>Node2&#45;&gt;Node1</title>
<path fill="none" stroke="#8b1a1a" d="M40.9286,-140.464C48.6904,-108.123 63.49,-46.4584 69.4344,-21.6899"/>
<polygon fill="#8b1a1a" stroke="#8b1a1a" points="37.5195,-139.672 38.589,-150.212 44.3262,-141.305 37.5195,-139.672"/>
</g>
<!-- Node3 -->
<g id="node4" class="node"><title>Node3</title>
<polygon fill="white" stroke="#bfbfbf" points="90,-150.5 90,-171.5 128,-171.5 128,-150.5 90,-150.5"/>
<text text-anchor="middle" x="109" y="-158.5" font-family="Helvetica,sans-Serif" font-size="10.00">char</text>
</g>
<!-- Node3&#45;&gt;Node1 -->
<g id="edge4" class="edge"><title>Node3&#45;&gt;Node1</title>
<path fill="none" stroke="#9a32cd" stroke-dasharray="5,2" d="M103.935,-140.464C95.957,-108.123 80.7464,-46.4584 74.6368,-21.6899"/>
<polygon fill="#9a32cd" stroke="#9a32cd" points="100.546,-141.342 106.339,-150.212 107.342,-139.665 100.546,-141.342"/>
<text text-anchor="middle" x="133.5" y="-122.5" font-family="Helvetica,sans-Serif" font-size="10.00"> DefaultKey</text>
<text text-anchor="middle" x="133.5" y="-109.5" font-family="Helvetica,sans-Serif" font-size="10.00">AppenderKey</text>
<text text-anchor="middle" x="133.5" y="-96.5" font-family="Helvetica,sans-Serif" font-size="10.00">TypeKey</text>
<text text-anchor="middle" x="133.5" y="-83.5" font-family="Helvetica,sans-Serif" font-size="10.00">LogKey</text>
<text text-anchor="middle" x="133.5" y="-70.5" font-family="Helvetica,sans-Serif" font-size="10.00">LevelsKey</text>
<text text-anchor="middle" x="133.5" y="-57.5" font-family="Helvetica,sans-Serif" font-size="10.00">PathKey</text>
<text text-anchor="middle" x="133.5" y="-44.5" font-family="Helvetica,sans-Serif" font-size="10.00">ErrorKey</text>
</g>
</g>
</svg>
