<?xml version="1.0" encoding="UTF-8" standalone="no"?>
<!DOCTYPE svg PUBLIC "-//W3C//DTD SVG 1.1//EN"
 "http://www.w3.org/Graphics/SVG/1.1/DTD/svg11.dtd">
<!-- Generated by graphviz version 2.26.3 (20100126.1600)
 -->
<!-- Title: MojDbKindState Pages: 1 -->
<svg width="259pt" height="262pt"
 viewBox="0.00 0.00 259.00 262.00" xmlns="http://www.w3.org/2000/svg" xmlns:xlink="http://www.w3.org/1999/xlink">
<g id="graph1" class="graph" transform="scale(1 1) rotate(0) translate(4 258)">
<title>MojDbKindState</title>
<polygon fill="white" stroke="white" points="-4,5 -4,-258 256,-258 256,5 -4,5"/>
<!-- Node1 -->
<g id="node1" class="node"><title>Node1</title>
<polygon fill="#bfbfbf" stroke="black" points="109,-0.5 109,-21.5 201,-21.5 201,-0.5 109,-0.5"/>
<text text-anchor="middle" x="155" y="-8.5" font-family="Helvetica,sans-Serif" font-size="10.00">MojDbKindState</text>
</g>
<!-- Node2 -->
<g id="node2" class="node"><title>Node2</title>
<a xlink:href="classMojSharedTokenSet.htm" target="_top" xlink:title="MojSharedTokenSet">
<polygon fill="white" stroke="black" points="0,-105.5 0,-126.5 114,-126.5 114,-105.5 0,-105.5"/>
<text text-anchor="middle" x="57" y="-113.5" font-family="Helvetica,sans-Serif" font-size="10.00">MojSharedTokenSet</text>
</a>
</g>
<!-- Node2&#45;&gt;Node1 -->
<g id="edge2" class="edge"><title>Node2&#45;&gt;Node1</title>
<path fill="none" stroke="midnightblue" d="M74.0273,-97.7565C94.5662,-75.7505 128.407,-39.4925 145.082,-21.626"/>
<polygon fill="midnightblue" stroke="midnightblue" points="71.3831,-95.4599 67.1186,-105.159 76.5005,-100.236 71.3831,-95.4599"/>
</g>
<!-- Node3 -->
<g id="node4" class="node"><title>Node3</title>
<a xlink:href="classMojRefCounted.htm" target="_top" xlink:title="MojRefCounted">
<polygon fill="white" stroke="black" points="12,-172.5 12,-193.5 102,-193.5 102,-172.5 12,-172.5"/>
<text text-anchor="middle" x="57" y="-180.5" font-family="Helvetica,sans-Serif" font-size="10.00">MojRefCounted</text>
</a>
</g>
<!-- Node3&#45;&gt;Node2 -->
<g id="edge4" class="edge"><title>Node3&#45;&gt;Node2</title>
<path fill="none" stroke="midnightblue" d="M57,-161.904C57,-150.127 57,-135.967 57,-126.517"/>
<polygon fill="midnightblue" stroke="midnightblue" points="53.5001,-162.235 57,-172.235 60.5001,-162.235 53.5001,-162.235"/>
</g>
<!-- Node4 -->
<g id="node6" class="node"><title>Node4</title>
<a xlink:href="classMojNoCopy.htm" target="_top" xlink:title="MojNoCopy">
<polygon fill="white" stroke="black" points="21,-232.5 21,-253.5 93,-253.5 93,-232.5 21,-232.5"/>
<text text-anchor="middle" x="57" y="-240.5" font-family="Helvetica,sans-Serif" font-size="10.00">MojNoCopy</text>
</a>
</g>
<!-- Node4&#45;&gt;Node3 -->
<g id="edge6" class="edge"><title>Node4&#45;&gt;Node3</title>
<path fill="none" stroke="#8b1a1a" d="M57,-222.231C57,-212.592 57,-201.544 57,-193.634"/>
<polygon fill="#8b1a1a" stroke="#8b1a1a" points="53.5001,-222.273 57,-232.273 60.5001,-222.273 53.5001,-222.273"/>
</g>
<!-- Node5 -->
<g id="node8" class="node"><title>Node5</title>
<polygon fill="white" stroke="#bfbfbf" points="131.5,-99 131.5,-133 244.5,-133 244.5,-99 131.5,-99"/>
<text text-anchor="start" x="139.5" y="-120" font-family="Helvetica,sans-Serif" font-size="10.00">static const MojChar</text>
<text text-anchor="middle" x="188" y="-107" font-family="Helvetica,sans-Serif" font-size="10.00"> *const</text>
</g>
<!-- Node5&#45;&gt;Node1 -->
<g id="edge8" class="edge"><title>Node5&#45;&gt;Node1</title>
<path fill="none" stroke="#9a32cd" stroke-dasharray="5,2" d="M179.489,-88.9181C172.598,-66.9934 163.257,-37.2731 158.342,-21.6336"/>
<polygon fill="#9a32cd" stroke="#9a32cd" points="176.213,-90.1709 182.551,-98.6614 182.891,-88.072 176.213,-90.1709"/>
<text text-anchor="middle" x="213.5" y="-70.5" font-family="Helvetica,sans-Serif" font-size="10.00"> TokensKey</text>
<text text-anchor="middle" x="213.5" y="-57.5" font-family="Helvetica,sans-Serif" font-size="10.00">KindTokensKey</text>
<text text-anchor="middle" x="213.5" y="-44.5" font-family="Helvetica,sans-Serif" font-size="10.00">IndexIdsKey</text>
</g>
</g>
</svg>
