<?xml version="1.0" encoding="UTF-8" standalone="no"?>
<!DOCTYPE svg PUBLIC "-//W3C//DTD SVG 1.1//EN"
 "http://www.w3.org/Graphics/SVG/1.1/DTD/svg11.dtd">
<!-- Generated by graphviz version 2.26.3 (20100126.1600)
 -->
<!-- Title: MojLunaMessage Pages: 1 -->
<svg width="2026pt" height="771pt"
 viewBox="0.00 0.00 2026.00 771.00" xmlns="http://www.w3.org/2000/svg" xmlns:xlink="http://www.w3.org/1999/xlink">
<g id="graph1" class="graph" transform="scale(1 1) rotate(0) translate(4 767)">
<title>MojLunaMessage</title>
<polygon fill="white" stroke="white" points="-4,5 -4,-767 2023,-767 2023,5 -4,5"/>
<!-- Node1 -->
<g id="node1" class="node"><title>Node1</title>
<polygon fill="#bfbfbf" stroke="black" points="1916.5,-484.5 1916.5,-505.5 2017.5,-505.5 2017.5,-484.5 1916.5,-484.5"/>
<text text-anchor="middle" x="1967" y="-492.5" font-family="Helvetica,sans-Serif" font-size="10.00">MojLunaMessage</text>
</g>
<!-- Node2 -->
<g id="node2" class="node"><title>Node2</title>
<a xlink:href="classMojServiceMessage.htm" target="_top" xlink:title="MojServiceMessage">
<polygon fill="white" stroke="black" points="1764.5,-484.5 1764.5,-505.5 1877.5,-505.5 1877.5,-484.5 1764.5,-484.5"/>
<text text-anchor="middle" x="1821" y="-492.5" font-family="Helvetica,sans-Serif" font-size="10.00">MojServiceMessage</text>
</a>
</g>
<!-- Node2&#45;&gt;Node1 -->
<g id="edge2" class="edge"><title>Node2&#45;&gt;Node1</title>
<path fill="none" stroke="midnightblue" d="M1888.06,-495C1897.53,-495 1907.14,-495 1916.23,-495"/>
<polygon fill="midnightblue" stroke="midnightblue" points="1887.87,-491.5 1877.87,-495 1887.87,-498.5 1887.87,-491.5"/>
</g>
<!-- Node2&#45;&gt;Node2 -->
<g id="edge22" class="edge"><title>Node2&#45;&gt;Node2</title>
<path fill="none" stroke="#9a32cd" stroke-dasharray="5,2" d="M1807.08,-515.793C1808.31,-520.529 1812.95,-524 1821,-524 1834.21,-524 1838.24,-514.653 1833.08,-505.708"/>
<polygon fill="#9a32cd" stroke="#9a32cd" points="1810.57,-516.174 1808.92,-505.708 1803.68,-514.916 1810.57,-516.174"/>
<text text-anchor="middle" x="1821" y="-528" font-family="Helvetica,sans-Serif" font-size="10.00"> m_dispatchMethod</text>
</g>
<!-- Node3 -->
<g id="node4" class="node"><title>Node3</title>
<a xlink:href="classMojMessage.htm" target="_top" xlink:title="MojMessage">
<polygon fill="white" stroke="black" points="703.5,-627.5 703.5,-648.5 780.5,-648.5 780.5,-627.5 703.5,-627.5"/>
<text text-anchor="middle" x="742" y="-635.5" font-family="Helvetica,sans-Serif" font-size="10.00">MojMessage</text>
</a>
</g>
<!-- Node3&#45;&gt;Node2 -->
<g id="edge4" class="edge"><title>Node3&#45;&gt;Node2</title>
<path fill="none" stroke="midnightblue" d="M790.811,-638C836.386,-638 906.299,-638 967,-638 967,-638 967,-638 1589,-638 1660.12,-638 1686.81,-646.443 1746,-607 1784.56,-581.304 1808.34,-528.358 1817.13,-505.685"/>
<polygon fill="midnightblue" stroke="midnightblue" points="790.619,-634.5 780.619,-638 790.619,-641.5 790.619,-634.5"/>
</g>
<!-- Node4 -->
<g id="node6" class="node"><title>Node4</title>
<a xlink:href="classMojSignalHandler.htm" target="_top" xlink:title="MojSignalHandler">
<polygon fill="white" stroke="black" points="472.5,-567.5 472.5,-588.5 573.5,-588.5 573.5,-567.5 472.5,-567.5"/>
<text text-anchor="middle" x="523" y="-575.5" font-family="Helvetica,sans-Serif" font-size="10.00">MojSignalHandler</text>
</a>
</g>
<!-- Node4&#45;&gt;Node3 -->
<g id="edge6" class="edge"><title>Node4&#45;&gt;Node3</title>
<path fill="none" stroke="midnightblue" d="M571.157,-591.194C610.984,-602.105 666.795,-617.396 703.647,-627.492"/>
<polygon fill="midnightblue" stroke="midnightblue" points="571.967,-587.787 561.397,-588.52 570.117,-594.538 571.967,-587.787"/>
</g>
<!-- Node13 -->
<g id="node29" class="node"><title>Node13</title>
<a xlink:href="classMojService_1_1CategoryHandler.htm" target="_top" xlink:title="MojService::CategoryHandler">
<polygon fill="white" stroke="black" points="664.5,-437.5 664.5,-458.5 819.5,-458.5 819.5,-437.5 664.5,-437.5"/>
<text text-anchor="middle" x="742" y="-445.5" font-family="Helvetica,sans-Serif" font-size="10.00">MojService::CategoryHandler</text>
</a>
</g>
<!-- Node4&#45;&gt;Node13 -->
<g id="edge36" class="edge"><title>Node4&#45;&gt;Node13</title>
<path fill="none" stroke="midnightblue" d="M549.595,-562.213C594.853,-535.347 685.677,-481.434 724.138,-458.603"/>
<polygon fill="midnightblue" stroke="midnightblue" points="547.734,-559.247 540.922,-567.362 551.307,-565.267 547.734,-559.247"/>
</g>
<!-- Node29 -->
<g id="node70" class="node"><title>Node29</title>
<a xlink:href="classMojSignalBase.htm" target="_top" xlink:title="MojSignalBase">
<polygon fill="white" stroke="black" points="698.5,-567.5 698.5,-588.5 785.5,-588.5 785.5,-567.5 698.5,-567.5"/>
<text text-anchor="middle" x="742" y="-575.5" font-family="Helvetica,sans-Serif" font-size="10.00">MojSignalBase</text>
</a>
</g>
<!-- Node4&#45;&gt;Node29 -->
<g id="edge88" class="edge"><title>Node4&#45;&gt;Node29</title>
<path fill="none" stroke="#9a32cd" stroke-dasharray="5,2" d="M583.533,-578C619.961,-578 665.495,-578 698.395,-578"/>
<polygon fill="#9a32cd" stroke="#9a32cd" points="583.518,-574.5 573.518,-578 583.518,-581.5 583.518,-574.5"/>
<text text-anchor="middle" x="619" y="-582" font-family="Helvetica,sans-Serif" font-size="10.00"> m_handler</text>
</g>
<!-- Node5 -->
<g id="node8" class="node"><title>Node5</title>
<a xlink:href="classMojRefCounted.htm" target="_top" xlink:title="MojRefCounted">
<polygon fill="white" stroke="black" points="171,-529.5 171,-550.5 261,-550.5 261,-529.5 171,-529.5"/>
<text text-anchor="middle" x="216" y="-537.5" font-family="Helvetica,sans-Serif" font-size="10.00">MojRefCounted</text>
</a>
</g>
<!-- Node5&#45;&gt;Node4 -->
<g id="edge8" class="edge"><title>Node5&#45;&gt;Node4</title>
<path fill="none" stroke="midnightblue" d="M271.392,-547.807C286.5,-549.88 302.873,-552.077 318,-554 370.61,-560.689 430.906,-567.666 472.418,-572.361"/>
<polygon fill="midnightblue" stroke="midnightblue" points="271.55,-544.295 261.165,-546.396 270.593,-551.23 271.55,-544.295"/>
</g>
<!-- Node10 -->
<g id="node21" class="node"><title>Node10</title>
<a xlink:href="classMojService_1_1Category.htm" target="_top" xlink:title="MojService::Category">
<polygon fill="white" stroke="black" points="1530.5,-437.5 1530.5,-458.5 1647.5,-458.5 1647.5,-437.5 1530.5,-437.5"/>
<text text-anchor="middle" x="1589" y="-445.5" font-family="Helvetica,sans-Serif" font-size="10.00">MojService::Category</text>
</a>
</g>
<!-- Node5&#45;&gt;Node10 -->
<g id="edge26" class="edge"><title>Node5&#45;&gt;Node10</title>
<path fill="none" stroke="midnightblue" d="M271.516,-540.185C342.059,-539.844 467.464,-537.311 574,-525 649.507,-516.275 665.991,-493 742,-493 742,-493 742,-493 1225,-493 1353.16,-493 1385.42,-485.073 1512,-465 1522.95,-463.263 1534.68,-460.924 1545.6,-458.536"/>
<polygon fill="midnightblue" stroke="midnightblue" points="271.083,-536.686 261.095,-540.221 271.107,-543.686 271.083,-536.686"/>
</g>
<!-- Node6 -->
<g id="node10" class="node"><title>Node6</title>
<a xlink:href="classMojNoCopy.htm" target="_top" xlink:title="MojNoCopy">
<polygon fill="white" stroke="black" points="11,-489.5 11,-510.5 83,-510.5 83,-489.5 11,-489.5"/>
<text text-anchor="middle" x="47" y="-497.5" font-family="Helvetica,sans-Serif" font-size="10.00">MojNoCopy</text>
</a>
</g>
<!-- Node6&#45;&gt;Node5 -->
<g id="edge10" class="edge"><title>Node6&#45;&gt;Node5</title>
<path fill="none" stroke="#8b1a1a" d="M92.9949,-510.886C117.38,-516.658 147.206,-523.717 171.381,-529.439"/>
<polygon fill="#8b1a1a" stroke="#8b1a1a" points="93.792,-507.478 83.2547,-508.581 92.1797,-514.29 93.792,-507.478"/>
</g>
<!-- Node7 -->
<g id="node12" class="node"><title>Node7</title>
<a xlink:href="classMojListEntry.htm" target="_top" xlink:title="MojListEntry">
<polygon fill="white" stroke="black" points="348.5,-697.5 348.5,-718.5 423.5,-718.5 423.5,-697.5 348.5,-697.5"/>
<text text-anchor="middle" x="386" y="-705.5" font-family="Helvetica,sans-Serif" font-size="10.00">MojListEntry</text>
</a>
</g>
<!-- Node6&#45;&gt;Node7 -->
<g id="edge14" class="edge"><title>Node6&#45;&gt;Node7</title>
<path fill="none" stroke="#8b1a1a" d="M49.9736,-520.715C56.7034,-558.856 77.0376,-639.276 132,-672 199.927,-712.443 295.768,-714.11 348.159,-711.329"/>
<polygon fill="#8b1a1a" stroke="#8b1a1a" points="53.4123,-520.054 48.3581,-510.743 46.5023,-521.174 53.4123,-520.054"/>
</g>
<!-- Node12 -->
<g id="node26" class="node"><title>Node12</title>
<a xlink:href="classMojSmartPtrBase.htm" target="_top" xlink:title="MojSmartPtrBase\&lt; MojService\l::CategoryHandler \&gt;">
<polygon fill="white" stroke="black" points="886.5,-431 886.5,-465 1047.5,-465 1047.5,-431 886.5,-431"/>
<text text-anchor="start" x="894.5" y="-452" font-family="Helvetica,sans-Serif" font-size="10.00">MojSmartPtrBase&lt; MojService</text>
<text text-anchor="middle" x="967" y="-439" font-family="Helvetica,sans-Serif" font-size="10.00">::CategoryHandler &gt;</text>
</a>
</g>
<!-- Node6&#45;&gt;Node12 -->
<g id="edge32" class="edge"><title>Node6&#45;&gt;Node12</title>
<path fill="none" stroke="#8b1a1a" d="M81.2753,-485.526C131.93,-465 230.267,-428.436 318,-415 520.825,-383.938 763.031,-413.668 886.289,-433.489"/>
<polygon fill="#8b1a1a" stroke="#8b1a1a" points="79.726,-482.378 71.7972,-489.406 82.3778,-488.857 79.726,-482.378"/>
</g>
<!-- Node16 -->
<g id="node36" class="node"><title>Node16</title>
<a xlink:href="classMojService.htm" target="_top" xlink:title="MojService">
<polygon fill="white" stroke="black" points="488.5,-293.5 488.5,-314.5 557.5,-314.5 557.5,-293.5 488.5,-293.5"/>
<text text-anchor="middle" x="523" y="-301.5" font-family="Helvetica,sans-Serif" font-size="10.00">MojService</text>
</a>
</g>
<!-- Node6&#45;&gt;Node16 -->
<g id="edge44" class="edge"><title>Node6&#45;&gt;Node16</title>
<path fill="none" stroke="#8b1a1a" d="M50.0989,-479.281C57.0378,-441.051 77.707,-360.038 132,-324 189.763,-285.659 403.755,-295.724 488.306,-301.394"/>
<polygon fill="#8b1a1a" stroke="#8b1a1a" points="46.6264,-478.827 48.4263,-489.268 53.5302,-479.983 46.6264,-478.827"/>
</g>
<!-- Node17 -->
<g id="node39" class="node"><title>Node17</title>
<a xlink:href="classMojThreadMutex.htm" target="_top" xlink:title="MojThreadMutex">
<polygon fill="white" stroke="black" points="167.5,-489.5 167.5,-510.5 264.5,-510.5 264.5,-489.5 167.5,-489.5"/>
<text text-anchor="middle" x="216" y="-497.5" font-family="Helvetica,sans-Serif" font-size="10.00">MojThreadMutex</text>
</a>
</g>
<!-- Node6&#45;&gt;Node17 -->
<g id="edge48" class="edge"><title>Node6&#45;&gt;Node17</title>
<path fill="none" stroke="#8b1a1a" d="M93.4306,-500C116.375,-500 144.053,-500 167.298,-500"/>
<polygon fill="#8b1a1a" stroke="#8b1a1a" points="93.2548,-496.5 83.2547,-500 93.2547,-503.5 93.2548,-496.5"/>
</g>
<!-- Node21 -->
<g id="node50" class="node"><title>Node21</title>
<a xlink:href="classMojMessageDispatcher.htm" target="_top" xlink:title="MojMessageDispatcher">
<polygon fill="white" stroke="black" points="152,-373.5 152,-394.5 280,-394.5 280,-373.5 152,-373.5"/>
<text text-anchor="middle" x="216" y="-381.5" font-family="Helvetica,sans-Serif" font-size="10.00">MojMessageDispatcher</text>
</a>
</g>
<!-- Node6&#45;&gt;Node21 -->
<g id="edge62" class="edge"><title>Node6&#45;&gt;Node21</title>
<path fill="none" stroke="#8b1a1a" d="M66.6685,-482.756C79.2771,-472.009 96.1885,-458.154 112,-447 140.462,-426.922 175.439,-406.554 196.708,-394.611"/>
<polygon fill="#8b1a1a" stroke="#8b1a1a" points="64.3521,-480.132 59.059,-489.31 68.9202,-485.436 64.3521,-480.132"/>
</g>
<!-- Node22 -->
<g id="node53" class="node"><title>Node22</title>
<a xlink:href="classMojLogger.htm" target="_top" xlink:title="MojLogger">
<polygon fill="white" stroke="black" points="182,-333.5 182,-354.5 250,-354.5 250,-333.5 182,-333.5"/>
<text text-anchor="middle" x="216" y="-341.5" font-family="Helvetica,sans-Serif" font-size="10.00">MojLogger</text>
</a>
</g>
<!-- Node6&#45;&gt;Node22 -->
<g id="edge66" class="edge"><title>Node6&#45;&gt;Node22</title>
<path fill="none" stroke="#8b1a1a" d="M53.9615,-479.686C65.3607,-449.578 90.9372,-393.5 132,-364 146.366,-353.679 165.336,-348.624 181.612,-346.172"/>
<polygon fill="#8b1a1a" stroke="#8b1a1a" points="50.6424,-478.572 50.5186,-489.166 57.222,-480.962 50.6424,-478.572"/>
</g>
<!-- Node6&#45;&gt;Node29 -->
<g id="edge86" class="edge"><title>Node6&#45;&gt;Node29</title>
<path fill="none" stroke="#8b1a1a" d="M65.6635,-517.429C81.8832,-531.465 106.692,-550.388 132,-560 316.322,-630.008 376.874,-602.105 574,-598 606.021,-597.333 614.16,-598.467 646,-595 663.163,-593.131 681.89,-590.053 698.209,-587.025"/>
<polygon fill="#8b1a1a" stroke="#8b1a1a" points="67.8027,-514.647 58.0075,-510.609 63.1466,-519.874 67.8027,-514.647"/>
</g>
<!-- Node30 -->
<g id="node75" class="node"><title>Node30</title>
<a xlink:href="classMojList.htm" target="_top" xlink:title="MojList\&lt; MojSlotBase,\l&amp;MojSlotBase::m_entry \&gt;">
<polygon fill="white" stroke="black" points="318.5,-644 318.5,-678 453.5,-678 453.5,-644 318.5,-644"/>
<text text-anchor="start" x="326.5" y="-665" font-family="Helvetica,sans-Serif" font-size="10.00">MojList&lt; MojSlotBase,</text>
<text text-anchor="middle" x="386" y="-652" font-family="Helvetica,sans-Serif" font-size="10.00">&amp;MojSlotBase::m_entry &gt;</text>
</a>
</g>
<!-- Node6&#45;&gt;Node30 -->
<g id="edge94" class="edge"><title>Node6&#45;&gt;Node30</title>
<path fill="none" stroke="#8b1a1a" d="M50.8778,-520.861C57.618,-550.697 74.5317,-604.833 112,-631 172.223,-673.058 258.737,-675.465 318.361,-670.65"/>
<polygon fill="#8b1a1a" stroke="#8b1a1a" points="54.2329,-519.804 48.7711,-510.725 47.3794,-521.228 54.2329,-519.804"/>
</g>
<!-- Node7&#45;&gt;Node3 -->
<g id="edge12" class="edge"><title>Node7&#45;&gt;Node3</title>
<path fill="none" stroke="#9a32cd" stroke-dasharray="5,2" d="M433.67,-706.131C486.354,-703.188 573.368,-695.722 646,-677 672.653,-670.13 701.738,-657.541 720.827,-648.523"/>
<polygon fill="#9a32cd" stroke="#9a32cd" points="433.407,-702.64 423.605,-706.661 433.775,-709.63 433.407,-702.64"/>
<text text-anchor="middle" x="523" y="-707" font-family="Helvetica,sans-Serif" font-size="10.00"> m_queueEntry</text>
</g>
<!-- Node7&#45;&gt;Node7 -->
<g id="edge16" class="edge"><title>Node7&#45;&gt;Node7</title>
<path fill="none" stroke="#9a32cd" stroke-dasharray="5,2" d="M360.804,-728.055C362.456,-733.164 370.855,-737 386,-737 409.641,-737 416.844,-727.653 407.609,-718.708"/>
<polygon fill="#9a32cd" stroke="#9a32cd" points="364.076,-729.298 364.391,-718.708 357.54,-726.79 364.076,-729.298"/>
<text text-anchor="middle" x="386" y="-754" font-family="Helvetica,sans-Serif" font-size="10.00"> m_prev</text>
<text text-anchor="middle" x="386" y="-741" font-family="Helvetica,sans-Serif" font-size="10.00">m_next</text>
</g>
<!-- Node8 -->
<g id="node16" class="node"><title>Node8</title>
<polygon fill="white" stroke="#bfbfbf" points="1532.5,-566 1532.5,-600 1645.5,-600 1645.5,-566 1532.5,-566"/>
<text text-anchor="start" x="1540.5" y="-587" font-family="Helvetica,sans-Serif" font-size="10.00">static const MojChar</text>
<text text-anchor="middle" x="1589" y="-574" font-family="Helvetica,sans-Serif" font-size="10.00"> *const</text>
</g>
<!-- Node8&#45;&gt;Node2 -->
<g id="edge18" class="edge"><title>Node8&#45;&gt;Node2</title>
<path fill="none" stroke="#9a32cd" stroke-dasharray="5,2" d="M1655.62,-568.369C1684.04,-561.102 1717.22,-551.233 1746,-539 1767.67,-529.788 1790.78,-515.464 1805.53,-505.679"/>
<polygon fill="#9a32cd" stroke="#9a32cd" points="1654.63,-565.008 1645.78,-570.83 1656.33,-571.799 1654.63,-565.008"/>
<text text-anchor="middle" x="1706" y="-594" font-family="Helvetica,sans-Serif" font-size="10.00"> ReturnValueKey</text>
<text text-anchor="middle" x="1706" y="-581" font-family="Helvetica,sans-Serif" font-size="10.00">ErrorTextKey</text>
<text text-anchor="middle" x="1706" y="-568" font-family="Helvetica,sans-Serif" font-size="10.00">ErrorCodeKey</text>
</g>
<!-- Node9 -->
<g id="node18" class="node"><title>Node9</title>
<polygon fill="white" stroke="#bfbfbf" points="1562,-526.5 1562,-547.5 1616,-547.5 1616,-526.5 1562,-526.5"/>
<text text-anchor="middle" x="1589" y="-534.5" font-family="Helvetica,sans-Serif" font-size="10.00">MojSize</text>
</g>
<!-- Node9&#45;&gt;Node2 -->
<g id="edge20" class="edge"><title>Node9&#45;&gt;Node2</title>
<path fill="none" stroke="#9a32cd" stroke-dasharray="5,2" d="M1626.42,-530.413C1658.24,-524.792 1705.13,-516.458 1746,-509 1752.12,-507.882 1758.53,-506.703 1764.9,-505.523"/>
<polygon fill="#9a32cd" stroke="#9a32cd" points="1625.48,-527.025 1616.24,-532.21 1626.7,-533.919 1625.48,-527.025"/>
<text text-anchor="middle" x="1706" y="-526" font-family="Helvetica,sans-Serif" font-size="10.00"> m_numReplies</text>
</g>
<!-- Node10&#45;&gt;Node2 -->
<g id="edge24" class="edge"><title>Node10&#45;&gt;Node2</title>
<path fill="none" stroke="#9a32cd" stroke-dasharray="5,2" d="M1657.69,-453.46C1685.37,-456.51 1717.45,-461.13 1746,-468 1763.09,-472.112 1781.68,-478.789 1796.08,-484.474"/>
<polygon fill="#9a32cd" stroke="#9a32cd" points="1658.02,-449.975 1647.71,-452.405 1657.28,-456.936 1658.02,-449.975"/>
<text text-anchor="middle" x="1706" y="-472" font-family="Helvetica,sans-Serif" font-size="10.00"> m_category</text>
</g>
<!-- Node11 -->
<g id="node24" class="node"><title>Node11</title>
<a xlink:href="classMojRefCountedPtr.htm" target="_top" xlink:title="MojRefCountedPtr\&lt; MojService\l::CategoryHandler \&gt;">
<polygon fill="white" stroke="black" points="1142.5,-431 1142.5,-465 1307.5,-465 1307.5,-431 1142.5,-431"/>
<text text-anchor="start" x="1150.5" y="-452" font-family="Helvetica,sans-Serif" font-size="10.00">MojRefCountedPtr&lt; MojService</text>
<text text-anchor="middle" x="1225" y="-439" font-family="Helvetica,sans-Serif" font-size="10.00">::CategoryHandler &gt;</text>
</a>
</g>
<!-- Node11&#45;&gt;Node10 -->
<g id="edge28" class="edge"><title>Node11&#45;&gt;Node10</title>
<path fill="none" stroke="#9a32cd" stroke-dasharray="5,2" d="M1317.72,-448C1384.6,-448 1472.85,-448 1530.25,-448"/>
<polygon fill="#9a32cd" stroke="#9a32cd" points="1317.6,-444.5 1307.6,-448 1317.6,-451.5 1317.6,-444.5"/>
<text text-anchor="middle" x="1419" y="-452" font-family="Helvetica,sans-Serif" font-size="10.00"> m_handler</text>
</g>
<!-- Node12&#45;&gt;Node11 -->
<g id="edge30" class="edge"><title>Node12&#45;&gt;Node11</title>
<path fill="none" stroke="midnightblue" d="M1057.61,-448C1085.19,-448 1115.35,-448 1142.37,-448"/>
<polygon fill="midnightblue" stroke="midnightblue" points="1057.57,-444.5 1047.57,-448 1057.57,-451.5 1057.57,-444.5"/>
</g>
<!-- Node13&#45;&gt;Node12 -->
<g id="edge34" class="edge"><title>Node13&#45;&gt;Node12</title>
<path fill="none" stroke="#9a32cd" stroke-dasharray="5,2" d="M829.933,-448C848.466,-448 867.933,-448 886.189,-448"/>
<polygon fill="#9a32cd" stroke="#9a32cd" points="829.747,-444.5 819.747,-448 829.747,-451.5 829.747,-444.5"/>
<text text-anchor="middle" x="850" y="-452" font-family="Helvetica,sans-Serif" font-size="10.00"> m_p</text>
</g>
<!-- Node14 -->
<g id="node32" class="node"><title>Node14</title>
<a xlink:href="classMojHashMap.htm" target="_top" xlink:title="MojHashMap\&lt; MojString,\l CallbackInfo, const\l MojChar * \&gt;">
<polygon fill="white" stroke="black" points="318,-416.5 318,-463.5 454,-463.5 454,-416.5 318,-416.5"/>
<text text-anchor="start" x="326" y="-450.5" font-family="Helvetica,sans-Serif" font-size="10.00">MojHashMap&lt; MojString,</text>
<text text-anchor="start" x="326" y="-437.5" font-family="Helvetica,sans-Serif" font-size="10.00"> CallbackInfo, const</text>
<text text-anchor="middle" x="386" y="-424.5" font-family="Helvetica,sans-Serif" font-size="10.00"> MojChar * &gt;</text>
</a>
</g>
<!-- Node14&#45;&gt;Node13 -->
<g id="edge38" class="edge"><title>Node14&#45;&gt;Node13</title>
<path fill="none" stroke="#9a32cd" stroke-dasharray="5,2" d="M464.31,-441.76C523.771,-443.096 605.138,-444.924 664.418,-446.257"/>
<polygon fill="#9a32cd" stroke="#9a32cd" points="464.295,-438.259 454.219,-441.533 464.138,-445.257 464.295,-438.259"/>
<text text-anchor="middle" x="523" y="-449" font-family="Helvetica,sans-Serif" font-size="10.00"> m_callbackMap</text>
</g>
<!-- Node15 -->
<g id="node34" class="node"><title>Node15</title>
<a xlink:href="classMojHashBase.htm" target="_top" xlink:title="MojHashBase">
<polygon fill="white" stroke="black" points="5.5,-242.5 5.5,-263.5 88.5,-263.5 88.5,-242.5 5.5,-242.5"/>
<text text-anchor="middle" x="47" y="-250.5" font-family="Helvetica,sans-Serif" font-size="10.00">MojHashBase</text>
</a>
</g>
<!-- Node15&#45;&gt;Node14 -->
<g id="edge40" class="edge"><title>Node15&#45;&gt;Node14</title>
<path fill="none" stroke="#8b1a1a" d="M52.2313,-273.627C61.8699,-307.04 85.8066,-372.435 132,-404 186.516,-441.252 263.072,-447.431 317.859,-446.034"/>
<polygon fill="#8b1a1a" stroke="#8b1a1a" points="55.5087,-272.343 49.4991,-263.617 48.7557,-274.186 55.5087,-272.343"/>
</g>
<!-- Node19 -->
<g id="node45" class="node"><title>Node19</title>
<a xlink:href="classMojHashMap.htm" target="_top" xlink:title="MojHashMap\&lt; MojString,\l MojRefCountedPtr\&lt; Category\l \&gt;, const MojChar * \&gt;">
<polygon fill="white" stroke="black" points="136.5,-163.5 136.5,-210.5 295.5,-210.5 295.5,-163.5 136.5,-163.5"/>
<text text-anchor="start" x="144.5" y="-197.5" font-family="Helvetica,sans-Serif" font-size="10.00">MojHashMap&lt; MojString,</text>
<text text-anchor="start" x="144.5" y="-184.5" font-family="Helvetica,sans-Serif" font-size="10.00"> MojRefCountedPtr&lt; Category</text>
<text text-anchor="middle" x="216" y="-171.5" font-family="Helvetica,sans-Serif" font-size="10.00"> &gt;, const MojChar * &gt;</text>
</a>
</g>
<!-- Node15&#45;&gt;Node19 -->
<g id="edge56" class="edge"><title>Node15&#45;&gt;Node19</title>
<path fill="none" stroke="#8b1a1a" d="M83.6585,-238.684C104.671,-230.478 131.57,-219.973 155.623,-210.579"/>
<polygon fill="#8b1a1a" stroke="#8b1a1a" points="82.1944,-235.498 74.1528,-242.396 84.7409,-242.018 82.1944,-235.498"/>
</g>
<!-- Node23 -->
<g id="node56" class="node"><title>Node23</title>
<a xlink:href="classMojHashMap.htm" target="_top" xlink:title="MojHashMap\&lt; Token,\l MojRefCountedPtr\&lt; MojService\lRequest \&gt; \&gt;">
<polygon fill="white" stroke="black" points="132,-229.5 132,-276.5 300,-276.5 300,-229.5 132,-229.5"/>
<text text-anchor="start" x="140" y="-263.5" font-family="Helvetica,sans-Serif" font-size="10.00">MojHashMap&lt; Token,</text>
<text text-anchor="start" x="140" y="-250.5" font-family="Helvetica,sans-Serif" font-size="10.00"> MojRefCountedPtr&lt; MojService</text>
<text text-anchor="middle" x="216" y="-237.5" font-family="Helvetica,sans-Serif" font-size="10.00">Request &gt; &gt;</text>
</a>
</g>
<!-- Node15&#45;&gt;Node23 -->
<g id="edge70" class="edge"><title>Node15&#45;&gt;Node23</title>
<path fill="none" stroke="#8b1a1a" d="M98.918,-253C109.351,-253 120.566,-253 131.775,-253"/>
<polygon fill="#8b1a1a" stroke="#8b1a1a" points="98.7753,-249.5 88.7753,-253 98.7753,-256.5 98.7753,-249.5"/>
</g>
<!-- Node16&#45;&gt;Node2 -->
<g id="edge78" class="edge"><title>Node16&#45;&gt;Node2</title>
<path fill="none" stroke="#9a32cd" stroke-dasharray="5,2" d="M567.647,-305.293C611.9,-306.461 681.624,-308 742,-308 742,-308 742,-308 1589,-308 1702.3,-308 1791.53,-444.852 1814.96,-484.41"/>
<polygon fill="#9a32cd" stroke="#9a32cd" points="567.604,-301.79 557.513,-305.02 567.415,-308.788 567.604,-301.79"/>
<text text-anchor="middle" x="1098" y="-312" font-family="Helvetica,sans-Serif" font-size="10.00"> m_service</text>
</g>
<!-- Node16&#45;&gt;Node10 -->
<g id="edge42" class="edge"><title>Node16&#45;&gt;Node10</title>
<path fill="none" stroke="#9a32cd" stroke-dasharray="5,2" d="M558.545,-318.116C601.35,-333.817 675.768,-357 742,-357 742,-357 742,-357 1225,-357 1290.71,-357 1478.92,-413.518 1555.74,-437.472"/>
<polygon fill="#9a32cd" stroke="#9a32cd" points="559.729,-314.822 549.137,-314.598 557.277,-321.379 559.729,-314.822"/>
<text text-anchor="middle" x="967" y="-361" font-family="Helvetica,sans-Serif" font-size="10.00"> m_service</text>
</g>
<!-- Node17&#45;&gt;Node16 -->
<g id="edge46" class="edge"><title>Node17&#45;&gt;Node16</title>
<path fill="none" stroke="#9a32cd" stroke-dasharray="5,2" d="M274.699,-492.819C342.855,-484.266 446.917,-470.451 454,-465 457.246,-462.502 503.922,-350.121 518.609,-314.626"/>
<polygon fill="#9a32cd" stroke="#9a32cd" points="273.994,-489.38 264.505,-494.093 274.862,-496.326 273.994,-489.38"/>
<text text-anchor="middle" x="386" y="-490" font-family="Helvetica,sans-Serif" font-size="10.00"> m_mutex</text>
</g>
<!-- Node17&#45;&gt;Node29 -->
<g id="edge90" class="edge"><title>Node17&#45;&gt;Node29</title>
<path fill="none" stroke="#9a32cd" stroke-dasharray="5,2" d="M274.596,-506.111C345.642,-513.81 468.926,-528.097 574,-545 616.406,-551.822 664.466,-561.456 698.286,-568.555"/>
<polygon fill="#9a32cd" stroke="#9a32cd" points="274.819,-502.615 264.502,-505.024 274.069,-509.575 274.819,-502.615"/>
<text text-anchor="middle" x="523" y="-549" font-family="Helvetica,sans-Serif" font-size="10.00"> m_mutex</text>
</g>
<!-- Node18 -->
<g id="node42" class="node"><title>Node18</title>
<a xlink:href="classMojString.htm" target="_top" xlink:title="MojString">
<polygon fill="white" stroke="black" points="185,-0.5 185,-21.5 247,-21.5 247,-0.5 185,-0.5"/>
<text text-anchor="middle" x="216" y="-8.5" font-family="Helvetica,sans-Serif" font-size="10.00">MojString</text>
</a>
</g>
<!-- Node18&#45;&gt;Node16 -->
<g id="edge50" class="edge"><title>Node18&#45;&gt;Node16</title>
<path fill="none" stroke="#9a32cd" stroke-dasharray="5,2" d="M257.508,-8.07855C310.143,-6.75146 400.472,-12.7793 454,-63 488.993,-95.8303 514.895,-250.9 521.406,-293.276"/>
<polygon fill="#9a32cd" stroke="#9a32cd" points="257.06,-4.59219 247.19,-8.44552 257.309,-11.5878 257.06,-4.59219"/>
<text text-anchor="middle" x="386" y="-67" font-family="Helvetica,sans-Serif" font-size="10.00"> m_name</text>
</g>
<!-- Node18&#45;&gt;Node18 -->
<g id="edge52" class="edge"><title>Node18&#45;&gt;Node18</title>
<path fill="none" stroke="#9a32cd" stroke-dasharray="5,2" d="M197.202,-31.4266C198.653,-36.3489 204.918,-40 216,-40 233.73,-40 239.133,-30.6531 232.207,-21.7079"/>
<polygon fill="#9a32cd" stroke="#9a32cd" points="200.599,-32.272 199.793,-21.7079 193.836,-30.4689 200.599,-32.272"/>
<text text-anchor="middle" x="216" y="-44" font-family="Helvetica,sans-Serif" font-size="10.00"> Empty</text>
</g>
<!-- Node19&#45;&gt;Node16 -->
<g id="edge54" class="edge"><title>Node19&#45;&gt;Node16</title>
<path fill="none" stroke="#9a32cd" stroke-dasharray="5,2" d="M305.654,-196.211C351.946,-203.663 408.17,-217.051 454,-241 479.303,-254.223 502.428,-279.041 514.41,-293.262"/>
<polygon fill="#9a32cd" stroke="#9a32cd" points="306.049,-192.73 295.632,-194.664 304.981,-199.648 306.049,-192.73"/>
<text text-anchor="middle" x="386" y="-245" font-family="Helvetica,sans-Serif" font-size="10.00"> m_categories</text>
</g>
<!-- Node20 -->
<g id="node48" class="node"><title>Node20</title>
<polygon fill="white" stroke="#bfbfbf" points="197,-123.5 197,-144.5 235,-144.5 235,-123.5 197,-123.5"/>
<text text-anchor="middle" x="216" y="-131.5" font-family="Helvetica,sans-Serif" font-size="10.00">char</text>
</g>
<!-- Node20&#45;&gt;Node16 -->
<g id="edge58" class="edge"><title>Node20&#45;&gt;Node16</title>
<path fill="none" stroke="#9a32cd" stroke-dasharray="5,2" d="M245.096,-132.654C293.213,-131.908 390.358,-136.812 454,-183 493.143,-211.408 513.239,-269.281 520.158,-293.241"/>
<polygon fill="#9a32cd" stroke="#9a32cd" points="244.965,-129.156 235.056,-132.905 245.14,-136.154 244.965,-129.156"/>
<text text-anchor="middle" x="386" y="-187" font-family="Helvetica,sans-Serif" font-size="10.00"> DefaultCategory</text>
</g>
<!-- Node21&#45;&gt;Node16 -->
<g id="edge60" class="edge"><title>Node21&#45;&gt;Node16</title>
<path fill="none" stroke="#9a32cd" stroke-dasharray="5,2" d="M290.055,-377.036C348.486,-370.873 424.836,-361.142 454,-350 475.787,-341.676 497.631,-325.466 510.735,-314.685"/>
<polygon fill="#9a32cd" stroke="#9a32cd" points="289.692,-373.555 280.107,-378.07 290.415,-380.518 289.692,-373.555"/>
<text text-anchor="middle" x="386" y="-378" font-family="Helvetica,sans-Serif" font-size="10.00"> m_dispatcher</text>
</g>
<!-- Node22&#45;&gt;Node16 -->
<g id="edge64" class="edge"><title>Node22&#45;&gt;Node16</title>
<path fill="none" stroke="#9a32cd" stroke-dasharray="5,2" d="M260.364,-339.089C308.214,-333.676 386.605,-324.475 454,-315 465.171,-313.429 477.332,-311.548 488.289,-309.789"/>
<polygon fill="#9a32cd" stroke="#9a32cd" points="259.887,-335.62 250.341,-340.218 260.67,-342.576 259.887,-335.62"/>
<text text-anchor="middle" x="386" y="-337" font-family="Helvetica,sans-Serif" font-size="10.00"> s_log</text>
</g>
<!-- Node23&#45;&gt;Node16 -->
<g id="edge68" class="edge"><title>Node23&#45;&gt;Node16</title>
<path fill="none" stroke="#9a32cd" stroke-dasharray="5,2" d="M310.238,-256.586C354.369,-259.766 407.371,-265.75 454,-277 470.006,-280.862 487.256,-287.612 500.505,-293.396"/>
<polygon fill="#9a32cd" stroke="#9a32cd" points="310.309,-253.083 300.094,-255.893 309.832,-260.067 310.309,-253.083"/>
<text text-anchor="middle" x="386" y="-281" font-family="Helvetica,sans-Serif" font-size="10.00"> m_requests</text>
</g>
<!-- Node24 -->
<g id="node59" class="node"><title>Node24</title>
<a xlink:href="classMojMap.htm" target="_top" xlink:title="MojMap\&lt; SubscriptionKey,\l MojServiceMessage * \&gt;">
<polygon fill="white" stroke="black" points="145.5,-71 145.5,-105 286.5,-105 286.5,-71 145.5,-71"/>
<text text-anchor="start" x="153.5" y="-92" font-family="Helvetica,sans-Serif" font-size="10.00">MojMap&lt; SubscriptionKey,</text>
<text text-anchor="middle" x="216" y="-79" font-family="Helvetica,sans-Serif" font-size="10.00"> MojServiceMessage * &gt;</text>
</a>
</g>
<!-- Node24&#45;&gt;Node16 -->
<g id="edge72" class="edge"><title>Node24&#45;&gt;Node16</title>
<path fill="none" stroke="#9a32cd" stroke-dasharray="5,2" d="M296.852,-79.1546C347.132,-78.0463 410.304,-85.1792 454,-120 510.297,-164.862 520.666,-260.77 522.572,-293.101"/>
<polygon fill="#9a32cd" stroke="#9a32cd" points="296.532,-75.6633 286.654,-79.4947 296.765,-82.6594 296.532,-75.6633"/>
<text text-anchor="middle" x="386" y="-124" font-family="Helvetica,sans-Serif" font-size="10.00"> m_subscriptions</text>
</g>
<!-- Node25 -->
<g id="node61" class="node"><title>Node25</title>
<a xlink:href="classMojRbTreeBase.htm" target="_top" xlink:title="MojRbTreeBase">
<polygon fill="white" stroke="black" points="0.5,-77.5 0.5,-98.5 93.5,-98.5 93.5,-77.5 0.5,-77.5"/>
<text text-anchor="middle" x="47" y="-85.5" font-family="Helvetica,sans-Serif" font-size="10.00">MojRbTreeBase</text>
</a>
</g>
<!-- Node25&#45;&gt;Node24 -->
<g id="edge74" class="edge"><title>Node25&#45;&gt;Node24</title>
<path fill="none" stroke="#8b1a1a" d="M103.649,-88C117.056,-88 131.517,-88 145.457,-88"/>
<polygon fill="#8b1a1a" stroke="#8b1a1a" points="103.627,-84.5001 93.6274,-88 103.627,-91.5001 103.627,-84.5001"/>
</g>
<!-- Node26 -->
<g id="node63" class="node"><title>Node26</title>
<polygon fill="white" stroke="#bfbfbf" points="1571,-397.5 1571,-418.5 1607,-418.5 1607,-397.5 1571,-397.5"/>
<text text-anchor="middle" x="1589" y="-405.5" font-family="Helvetica,sans-Serif" font-size="10.00">bool</text>
</g>
<!-- Node26&#45;&gt;Node2 -->
<g id="edge76" class="edge"><title>Node26&#45;&gt;Node2</title>
<path fill="none" stroke="#9a32cd" stroke-dasharray="5,2" d="M1617.59,-405.547C1650.2,-403.934 1704.38,-404.923 1746,-424 1775.83,-437.672 1801.34,-468.078 1813.46,-484.308"/>
<polygon fill="#9a32cd" stroke="#9a32cd" points="1617.17,-402.066 1607.41,-406.172 1617.6,-409.053 1617.17,-402.066"/>
<text text-anchor="middle" x="1706" y="-441" font-family="Helvetica,sans-Serif" font-size="10.00"> m_fixmode</text>
<text text-anchor="middle" x="1706" y="-428" font-family="Helvetica,sans-Serif" font-size="10.00">m_subscribed</text>
</g>
<!-- Node27 -->
<g id="node66" class="node"><title>Node27</title>
<a xlink:href="classMojSignal.htm" target="_top" xlink:title="MojSignal\&lt; MojServiceMessage * \&gt;">
<polygon fill="white" stroke="black" points="1326.5,-513.5 1326.5,-534.5 1511.5,-534.5 1511.5,-513.5 1326.5,-513.5"/>
<text text-anchor="middle" x="1419" y="-521.5" font-family="Helvetica,sans-Serif" font-size="10.00">MojSignal&lt; MojServiceMessage * &gt;</text>
</a>
</g>
<!-- Node27&#45;&gt;Node2 -->
<g id="edge80" class="edge"><title>Node27&#45;&gt;Node2</title>
<path fill="none" stroke="#9a32cd" stroke-dasharray="5,2" d="M1486.41,-511.655C1508.18,-507.705 1527.44,-504.269 1530,-504 1611.06,-495.491 1705.46,-494.13 1764.23,-494.289"/>
<polygon fill="#9a32cd" stroke="#9a32cd" points="1485.49,-508.264 1476.27,-513.496 1486.74,-515.151 1485.49,-508.264"/>
<text text-anchor="middle" x="1589" y="-508" font-family="Helvetica,sans-Serif" font-size="10.00"> m_cancelSignal</text>
</g>
<!-- Node28 -->
<g id="node68" class="node"><title>Node28</title>
<a xlink:href="classMojSignal3.htm" target="_top" xlink:title="MojSignal3\&lt; MojServiceMessage\l *, MojTagNil, MojTagNil \&gt;">
<polygon fill="white" stroke="black" points="880,-550 880,-584 1054,-584 1054,-550 880,-550"/>
<text text-anchor="start" x="888" y="-571" font-family="Helvetica,sans-Serif" font-size="10.00">MojSignal3&lt; MojServiceMessage</text>
<text text-anchor="middle" x="967" y="-558" font-family="Helvetica,sans-Serif" font-size="10.00"> *, MojTagNil, MojTagNil &gt;</text>
</a>
</g>
<!-- Node28&#45;&gt;Node27 -->
<g id="edge82" class="edge"><title>Node28&#45;&gt;Node27</title>
<path fill="none" stroke="midnightblue" d="M1064.41,-557.733C1142.02,-550.35 1249.94,-540.083 1326.29,-532.82"/>
<polygon fill="midnightblue" stroke="midnightblue" points="1063.77,-554.278 1054.15,-558.709 1064.44,-561.246 1063.77,-554.278"/>
</g>
<!-- Node29&#45;&gt;Node28 -->
<g id="edge84" class="edge"><title>Node29&#45;&gt;Node28</title>
<path fill="none" stroke="midnightblue" d="M795.702,-575.375C820.822,-574.146 851.382,-572.652 879.697,-571.268"/>
<polygon fill="midnightblue" stroke="midnightblue" points="795.466,-571.882 785.649,-575.866 795.808,-578.873 795.466,-571.882"/>
</g>
<!-- Node30&#45;&gt;Node29 -->
<g id="edge92" class="edge"><title>Node30&#45;&gt;Node29</title>
<path fill="none" stroke="#9a32cd" stroke-dasharray="5,2" d="M463.844,-657.765C516.291,-653.911 586.491,-645.473 646,-627 647,-626.69 693.536,-602.857 721.441,-588.548"/>
<polygon fill="#9a32cd" stroke="#9a32cd" points="463.334,-654.292 453.6,-658.476 463.818,-661.275 463.334,-654.292"/>
<text text-anchor="middle" x="523" y="-660" font-family="Helvetica,sans-Serif" font-size="10.00"> m_slots</text>
</g>
</g>
</svg>
