<?xml version="1.0" encoding="UTF-8" standalone="no"?>
<!DOCTYPE svg PUBLIC "-//W3C//DTD SVG 1.1//EN"
 "http://www.w3.org/Graphics/SVG/1.1/DTD/svg11.dtd">
<!-- Generated by graphviz version 2.26.3 (20100126.1600)
 -->
<!-- Title: MojDbLevelEnvTxn Pages: 1 -->
<svg width="136pt" height="320pt"
 viewBox="0.00 0.00 136.00 320.00" xmlns="http://www.w3.org/2000/svg" xmlns:xlink="http://www.w3.org/1999/xlink">
<g id="graph1" class="graph" transform="scale(1 1) rotate(0) translate(4 316)">
<title>MojDbLevelEnvTxn</title>
<polygon fill="white" stroke="white" points="-4,5 -4,-316 133,-316 133,5 -4,5"/>
<!-- Node1 -->
<g id="node1" class="node"><title>Node1</title>
<polygon fill="#bfbfbf" stroke="black" points="10,-0.5 10,-21.5 118,-21.5 118,-0.5 10,-0.5"/>
<text text-anchor="middle" x="64" y="-8.5" font-family="Helvetica,sans-Serif" font-size="10.00">MojDbLevelEnvTxn</text>
</g>
<!-- Node2 -->
<g id="node2" class="node"><title>Node2</title>
<a xlink:href="classMojDbLevelAbstractTxn.htm" target="_top" xlink:title="MojDbLevelAbstractTxn">
<polygon fill="white" stroke="black" points="0,-58.5 0,-79.5 128,-79.5 128,-58.5 0,-58.5"/>
<text text-anchor="middle" x="64" y="-66.5" font-family="Helvetica,sans-Serif" font-size="10.00">MojDbLevelAbstractTxn</text>
</a>
</g>
<!-- Node2&#45;&gt;Node1 -->
<g id="edge2" class="edge"><title>Node2&#45;&gt;Node1</title>
<path fill="none" stroke="midnightblue" d="M64,-48.1906C64,-39.1684 64,-28.9941 64,-21.5707"/>
<polygon fill="midnightblue" stroke="midnightblue" points="60.5001,-48.3619 64,-58.3619 67.5001,-48.3619 60.5001,-48.3619"/>
</g>
<!-- Node3 -->
<g id="node4" class="node"><title>Node3</title>
<a xlink:href="classMojDbStorageTxn.htm" target="_top" xlink:title="MojDbStorageTxn">
<polygon fill="white" stroke="black" points="13,-116.5 13,-137.5 115,-137.5 115,-116.5 13,-116.5"/>
<text text-anchor="middle" x="64" y="-124.5" font-family="Helvetica,sans-Serif" font-size="10.00">MojDbStorageTxn</text>
</a>
</g>
<!-- Node3&#45;&gt;Node2 -->
<g id="edge4" class="edge"><title>Node3&#45;&gt;Node2</title>
<path fill="none" stroke="midnightblue" d="M64,-106.191C64,-97.1684 64,-86.9941 64,-79.5707"/>
<polygon fill="midnightblue" stroke="midnightblue" points="60.5001,-106.362 64,-116.362 67.5001,-106.362 60.5001,-106.362"/>
</g>
<!-- Node4 -->
<g id="node6" class="node"><title>Node4</title>
<a xlink:href="classMojSignalHandler.htm" target="_top" xlink:title="MojSignalHandler">
<polygon fill="white" stroke="black" points="13.5,-174.5 13.5,-195.5 114.5,-195.5 114.5,-174.5 13.5,-174.5"/>
<text text-anchor="middle" x="64" y="-182.5" font-family="Helvetica,sans-Serif" font-size="10.00">MojSignalHandler</text>
</a>
</g>
<!-- Node4&#45;&gt;Node3 -->
<g id="edge6" class="edge"><title>Node4&#45;&gt;Node3</title>
<path fill="none" stroke="midnightblue" d="M64,-164.191C64,-155.168 64,-144.994 64,-137.571"/>
<polygon fill="midnightblue" stroke="midnightblue" points="60.5001,-164.362 64,-174.362 67.5001,-164.362 60.5001,-164.362"/>
</g>
<!-- Node5 -->
<g id="node8" class="node"><title>Node5</title>
<a xlink:href="classMojRefCounted.htm" target="_top" xlink:title="MojRefCounted">
<polygon fill="white" stroke="black" points="19,-232.5 19,-253.5 109,-253.5 109,-232.5 19,-232.5"/>
<text text-anchor="middle" x="64" y="-240.5" font-family="Helvetica,sans-Serif" font-size="10.00">MojRefCounted</text>
</a>
</g>
<!-- Node5&#45;&gt;Node4 -->
<g id="edge8" class="edge"><title>Node5&#45;&gt;Node4</title>
<path fill="none" stroke="midnightblue" d="M64,-222.191C64,-213.168 64,-202.994 64,-195.571"/>
<polygon fill="midnightblue" stroke="midnightblue" points="60.5001,-222.362 64,-232.362 67.5001,-222.362 60.5001,-222.362"/>
</g>
<!-- Node6 -->
<g id="node10" class="node"><title>Node6</title>
<a xlink:href="classMojNoCopy.htm" target="_top" xlink:title="MojNoCopy">
<polygon fill="white" stroke="black" points="28,-290.5 28,-311.5 100,-311.5 100,-290.5 28,-290.5"/>
<text text-anchor="middle" x="64" y="-298.5" font-family="Helvetica,sans-Serif" font-size="10.00">MojNoCopy</text>
</a>
</g>
<!-- Node6&#45;&gt;Node5 -->
<g id="edge10" class="edge"><title>Node6&#45;&gt;Node5</title>
<path fill="none" stroke="#8b1a1a" d="M64,-280.191C64,-271.168 64,-260.994 64,-253.571"/>
<polygon fill="#8b1a1a" stroke="#8b1a1a" points="60.5001,-280.362 64,-290.362 67.5001,-280.362 60.5001,-280.362"/>
</g>
</g>
</svg>
