<?xml version="1.0" encoding="UTF-8" standalone="no"?>
<!DOCTYPE svg PUBLIC "-//W3C//DTD SVG 1.1//EN"
 "http://www.w3.org/Graphics/SVG/1.1/DTD/svg11.dtd">
<!-- Generated by graphviz version 2.26.3 (20100126.1600)
 -->
<!-- Title: MojTestRunner Pages: 1 -->
<svg width="259pt" height="234pt"
 viewBox="0.00 0.00 259.00 234.00" xmlns="http://www.w3.org/2000/svg" xmlns:xlink="http://www.w3.org/1999/xlink">
<g id="graph1" class="graph" transform="scale(1 1) rotate(0) translate(4 230)">
<title>MojTestRunner</title>
<polygon fill="white" stroke="white" points="-4,5 -4,-230 256,-230 256,5 -4,5"/>
<!-- Node1 -->
<g id="node1" class="node"><title>Node1</title>
<polygon fill="#bfbfbf" stroke="black" points="32.5,-0.5 32.5,-21.5 121.5,-21.5 121.5,-0.5 32.5,-0.5"/>
<text text-anchor="middle" x="77" y="-8.5" font-family="Helvetica,sans-Serif" font-size="10.00">MojTestRunner</text>
</g>
<!-- Node2 -->
<g id="node2" class="node"><title>Node2</title>
<a xlink:href="classMojApp.htm" target="_top" xlink:title="MojApp">
<polygon fill="white" stroke="black" points="50.5,-60.5 50.5,-81.5 103.5,-81.5 103.5,-60.5 50.5,-60.5"/>
<text text-anchor="middle" x="77" y="-68.5" font-family="Helvetica,sans-Serif" font-size="10.00">MojApp</text>
</a>
</g>
<!-- Node2&#45;&gt;Node1 -->
<g id="edge2" class="edge"><title>Node2&#45;&gt;Node1</title>
<path fill="none" stroke="midnightblue" d="M77,-50.2312C77,-40.5922 77,-29.5444 77,-21.6339"/>
<polygon fill="midnightblue" stroke="midnightblue" points="73.5001,-50.2732 77,-60.2732 80.5001,-50.2732 73.5001,-50.2732"/>
</g>
<!-- Node3 -->
<g id="node4" class="node"><title>Node3</title>
<a xlink:href="classMojNoCopy.htm" target="_top" xlink:title="MojNoCopy">
<polygon fill="white" stroke="black" points="0,-204.5 0,-225.5 72,-225.5 72,-204.5 0,-204.5"/>
<text text-anchor="middle" x="36" y="-212.5" font-family="Helvetica,sans-Serif" font-size="10.00">MojNoCopy</text>
</a>
</g>
<!-- Node3&#45;&gt;Node2 -->
<g id="edge4" class="edge"><title>Node3&#45;&gt;Node2</title>
<path fill="none" stroke="#8b1a1a" d="M32.2364,-193.897C30.4455,-179.57 29.5468,-160.334 34,-144 40.6545,-119.592 57.7779,-95.0286 68.2987,-81.5371"/>
<polygon fill="#8b1a1a" stroke="#8b1a1a" points="28.8347,-194.814 33.7787,-204.185 35.7574,-193.776 28.8347,-194.814"/>
</g>
<!-- Node5 -->
<g id="node8" class="node"><title>Node5</title>
<a xlink:href="classMojLogger.htm" target="_top" xlink:title="MojLogger">
<polygon fill="white" stroke="black" points="43,-144.5 43,-165.5 111,-165.5 111,-144.5 43,-144.5"/>
<text text-anchor="middle" x="77" y="-152.5" font-family="Helvetica,sans-Serif" font-size="10.00">MojLogger</text>
</a>
</g>
<!-- Node3&#45;&gt;Node5 -->
<g id="edge10" class="edge"><title>Node3&#45;&gt;Node5</title>
<path fill="none" stroke="#8b1a1a" d="M49.1384,-195.773C55.9607,-185.789 64.0374,-173.97 69.7335,-165.634"/>
<polygon fill="#8b1a1a" stroke="#8b1a1a" points="46.0822,-194.042 43.33,-204.273 51.8617,-197.991 46.0822,-194.042"/>
</g>
<!-- Node4 -->
<g id="node6" class="node"><title>Node4</title>
<polygon fill="white" stroke="#bfbfbf" points="129,-144.5 129,-165.5 251,-165.5 251,-144.5 129,-144.5"/>
<text text-anchor="middle" x="190" y="-152.5" font-family="Helvetica,sans-Serif" font-size="10.00">static const MojUInt32</text>
</g>
<!-- Node4&#45;&gt;Node2 -->
<g id="edge6" class="edge"><title>Node4&#45;&gt;Node2</title>
<path fill="none" stroke="#9a32cd" stroke-dasharray="5,2" d="M167.613,-138.358C144.892,-121.469 110.408,-95.8341 91.1953,-81.5523"/>
<polygon fill="#9a32cd" stroke="#9a32cd" points="165.575,-141.204 175.688,-144.361 169.751,-135.587 165.575,-141.204"/>
<text text-anchor="middle" x="183.5" y="-117" font-family="Helvetica,sans-Serif" font-size="10.00"> MinorVersion</text>
<text text-anchor="middle" x="183.5" y="-104" font-family="Helvetica,sans-Serif" font-size="10.00">MajorVersion</text>
</g>
<!-- Node5&#45;&gt;Node2 -->
<g id="edge8" class="edge"><title>Node5&#45;&gt;Node2</title>
<path fill="none" stroke="#9a32cd" stroke-dasharray="5,2" d="M77,-133.945C77,-117.257 77,-94.6387 77,-81.5523"/>
<polygon fill="#9a32cd" stroke="#9a32cd" points="73.5001,-134.361 77,-144.361 80.5001,-134.361 73.5001,-134.361"/>
<text text-anchor="middle" x="91.5" y="-110.5" font-family="Helvetica,sans-Serif" font-size="10.00"> s_log</text>
</g>
</g>
</svg>
