<?xml version="1.0" encoding="UTF-8" standalone="no"?>
<!DOCTYPE svg PUBLIC "-//W3C//DTD SVG 1.1//EN"
 "http://www.w3.org/Graphics/SVG/1.1/DTD/svg11.dtd">
<!-- Generated by graphviz version 2.26.3 (20100126.1600)
 -->
<!-- Title: MojObjectVisitor Pages: 1 -->
<svg width="526pt" height="146pt"
 viewBox="0.00 0.00 526.00 146.00" xmlns="http://www.w3.org/2000/svg" xmlns:xlink="http://www.w3.org/1999/xlink">
<g id="graph1" class="graph" transform="scale(1 1) rotate(0) translate(4 142)">
<title>MojObjectVisitor</title>
<polygon fill="white" stroke="white" points="-4,5 -4,-142 523,-142 523,5 -4,5"/>
<!-- Node1 -->
<g id="node1" class="node"><title>Node1</title>
<polygon fill="#bfbfbf" stroke="black" points="213.5,-58.5 213.5,-79.5 306.5,-79.5 306.5,-58.5 213.5,-58.5"/>
<text text-anchor="middle" x="260" y="-66.5" font-family="Helvetica,sans-Serif" font-size="10.00">MojObjectVisitor</text>
</g>
<!-- Node3 -->
<g id="node5" class="node"><title>Node3</title>
<a xlink:href="classMojJsonWriter.htm" target="_top" xlink:title="MojJsonWriter">
<polygon fill="white" stroke="black" points="-0.5,-0.5 -0.5,-21.5 84.5,-21.5 84.5,-0.5 -0.5,-0.5"/>
<text text-anchor="middle" x="42" y="-8.5" font-family="Helvetica,sans-Serif" font-size="10.00">MojJsonWriter</text>
</a>
</g>
<!-- Node1&#45;&gt;Node3 -->
<g id="edge4" class="edge"><title>Node1&#45;&gt;Node3</title>
<path fill="none" stroke="midnightblue" d="M210.432,-55.8123C171.403,-45.4285 117.731,-31.1487 81.5522,-21.5231"/>
<polygon fill="midnightblue" stroke="midnightblue" points="209.958,-59.3078 220.522,-58.4966 211.758,-52.5431 209.958,-59.3078"/>
</g>
<!-- Node4 -->
<g id="node7" class="node"><title>Node4</title>
<a xlink:href="classMojObjectBuilder.htm" target="_top" xlink:title="MojObjectBuilder">
<polygon fill="white" stroke="black" points="102,-0.5 102,-21.5 198,-21.5 198,-0.5 102,-0.5"/>
<text text-anchor="middle" x="150" y="-8.5" font-family="Helvetica,sans-Serif" font-size="10.00">MojObjectBuilder</text>
</a>
</g>
<!-- Node1&#45;&gt;Node4 -->
<g id="edge6" class="edge"><title>Node1&#45;&gt;Node4</title>
<path fill="none" stroke="midnightblue" d="M231.161,-53.794C211.969,-43.6746 187.236,-30.6338 170.144,-21.6212"/>
<polygon fill="midnightblue" stroke="midnightblue" points="229.602,-56.9285 240.08,-58.4966 232.867,-50.7365 229.602,-56.9285"/>
</g>
<!-- Node5 -->
<g id="node9" class="node"><title>Node5</title>
<a xlink:href="classMojObjectEater.htm" target="_top" xlink:title="MojObjectEater">
<polygon fill="white" stroke="black" points="215.5,-0.5 215.5,-21.5 304.5,-21.5 304.5,-0.5 215.5,-0.5"/>
<text text-anchor="middle" x="260" y="-8.5" font-family="Helvetica,sans-Serif" font-size="10.00">MojObjectEater</text>
</a>
</g>
<!-- Node1&#45;&gt;Node5 -->
<g id="edge8" class="edge"><title>Node1&#45;&gt;Node5</title>
<path fill="none" stroke="midnightblue" d="M260,-48.1906C260,-39.1684 260,-28.9941 260,-21.5707"/>
<polygon fill="midnightblue" stroke="midnightblue" points="256.5,-48.3619 260,-58.3619 263.5,-48.3619 256.5,-48.3619"/>
</g>
<!-- Node6 -->
<g id="node11" class="node"><title>Node6</title>
<a xlink:href="classMojObjectFilter.htm" target="_top" xlink:title="MojObjectFilter">
<polygon fill="white" stroke="black" points="321.5,-0.5 321.5,-21.5 408.5,-21.5 408.5,-0.5 321.5,-0.5"/>
<text text-anchor="middle" x="365" y="-8.5" font-family="Helvetica,sans-Serif" font-size="10.00">MojObjectFilter</text>
</a>
</g>
<!-- Node1&#45;&gt;Node6 -->
<g id="edge10" class="edge"><title>Node1&#45;&gt;Node6</title>
<path fill="none" stroke="midnightblue" d="M288.029,-53.5175C306.311,-43.4189 329.692,-30.5032 345.863,-21.5707"/>
<polygon fill="midnightblue" stroke="midnightblue" points="286.32,-50.463 279.259,-58.3619 289.704,-56.5903 286.32,-50.463"/>
</g>
<!-- Node7 -->
<g id="node13" class="node"><title>Node7</title>
<a xlink:href="classMojObjectWriter.htm" target="_top" xlink:title="MojObjectWriter">
<polygon fill="white" stroke="black" points="426,-0.5 426,-21.5 518,-21.5 518,-0.5 426,-0.5"/>
<text text-anchor="middle" x="472" y="-8.5" font-family="Helvetica,sans-Serif" font-size="10.00">MojObjectWriter</text>
</a>
</g>
<!-- Node1&#45;&gt;Node7 -->
<g id="edge12" class="edge"><title>Node1&#45;&gt;Node7</title>
<path fill="none" stroke="midnightblue" d="M308.203,-55.8123C346.158,-45.4285 398.353,-31.1487 433.536,-21.5231"/>
<polygon fill="midnightblue" stroke="midnightblue" points="307.114,-52.4818 298.392,-58.4966 308.961,-59.2336 307.114,-52.4818"/>
</g>
<!-- Node2 -->
<g id="node2" class="node"><title>Node2</title>
<a xlink:href="classMojNoCopy.htm" target="_top" xlink:title="MojNoCopy">
<polygon fill="white" stroke="black" points="224,-116.5 224,-137.5 296,-137.5 296,-116.5 224,-116.5"/>
<text text-anchor="middle" x="260" y="-124.5" font-family="Helvetica,sans-Serif" font-size="10.00">MojNoCopy</text>
</a>
</g>
<!-- Node2&#45;&gt;Node1 -->
<g id="edge2" class="edge"><title>Node2&#45;&gt;Node1</title>
<path fill="none" stroke="#8b1a1a" d="M260,-106.191C260,-97.1684 260,-86.9941 260,-79.5707"/>
<polygon fill="#8b1a1a" stroke="#8b1a1a" points="256.5,-106.362 260,-116.362 263.5,-106.362 256.5,-106.362"/>
</g>
</g>
</svg>
