<?xml version="1.0" encoding="UTF-8" standalone="no"?>
<!DOCTYPE svg PUBLIC "-//W3C//DTD SVG 1.1//EN"
 "http://www.w3.org/Graphics/SVG/1.1/DTD/svg11.dtd">
<!-- Generated by graphviz version 2.26.3 (20100126.1600)
 -->
<!-- Title: MojDbQuotaEngine Pages: 1 -->
<svg width="467pt" height="384pt"
 viewBox="0.00 0.00 467.00 384.00" xmlns="http://www.w3.org/2000/svg" xmlns:xlink="http://www.w3.org/1999/xlink">
<g id="graph1" class="graph" transform="scale(1 1) rotate(0) translate(4 380)">
<title>MojDbQuotaEngine</title>
<polygon fill="white" stroke="white" points="-4,5 -4,-380 464,-380 464,5 -4,5"/>
<!-- Node1 -->
<g id="node1" class="node"><title>Node1</title>
<polygon fill="#bfbfbf" stroke="black" points="225,-0.5 225,-21.5 333,-21.5 333,-0.5 225,-0.5"/>
<text text-anchor="middle" x="279" y="-8.5" font-family="Helvetica,sans-Serif" font-size="10.00">MojDbQuotaEngine</text>
</g>
<!-- Node2 -->
<g id="node2" class="node"><title>Node2</title>
<a xlink:href="classMojDbPutHandler.htm" target="_top" xlink:title="MojDbPutHandler">
<polygon fill="white" stroke="black" points="229.5,-60.5 229.5,-81.5 328.5,-81.5 328.5,-60.5 229.5,-60.5"/>
<text text-anchor="middle" x="279" y="-68.5" font-family="Helvetica,sans-Serif" font-size="10.00">MojDbPutHandler</text>
</a>
</g>
<!-- Node2&#45;&gt;Node1 -->
<g id="edge2" class="edge"><title>Node2&#45;&gt;Node1</title>
<path fill="none" stroke="midnightblue" d="M279,-50.2312C279,-40.5922 279,-29.5444 279,-21.6339"/>
<polygon fill="midnightblue" stroke="midnightblue" points="275.5,-50.2732 279,-60.2732 282.5,-50.2732 275.5,-50.2732"/>
</g>
<!-- Node3 -->
<g id="node4" class="node"><title>Node3</title>
<a xlink:href="classMojNoCopy.htm" target="_top" xlink:title="MojNoCopy">
<polygon fill="white" stroke="black" points="0,-354.5 0,-375.5 72,-375.5 72,-354.5 0,-354.5"/>
<text text-anchor="middle" x="36" y="-362.5" font-family="Helvetica,sans-Serif" font-size="10.00">MojNoCopy</text>
</a>
</g>
<!-- Node3&#45;&gt;Node2 -->
<g id="edge4" class="edge"><title>Node3&#45;&gt;Node2</title>
<path fill="none" stroke="#8b1a1a" d="M28.8457,-344.306C17.8416,-308.483 1.17072,-233.965 33,-184 76.0536,-116.416 170.878,-88.7317 229.416,-77.7783"/>
<polygon fill="#8b1a1a" stroke="#8b1a1a" points="25.6098,-345.675 32.0189,-354.111 32.2698,-343.519 25.6098,-345.675"/>
</g>
<!-- Node4 -->
<g id="node6" class="node"><title>Node4</title>
<a xlink:href="classMojDb.htm" target="_top" xlink:title="MojDb">
<polygon fill="white" stroke="black" points="140.5,-144.5 140.5,-165.5 187.5,-165.5 187.5,-144.5 140.5,-144.5"/>
<text text-anchor="middle" x="164" y="-152.5" font-family="Helvetica,sans-Serif" font-size="10.00">MojDb</text>
</a>
</g>
<!-- Node3&#45;&gt;Node4 -->
<g id="edge8" class="edge"><title>Node3&#45;&gt;Node4</title>
<path fill="none" stroke="#8b1a1a" d="M34.1458,-344.335C32.0165,-307.336 33.1129,-229.412 74,-184 82.8972,-174.118 116.575,-165.13 140.107,-159.862"/>
<polygon fill="#8b1a1a" stroke="#8b1a1a" points="30.6628,-344.698 34.8697,-354.422 37.6448,-344.197 30.6628,-344.698"/>
</g>
<!-- Node7 -->
<g id="node13" class="node"><title>Node7</title>
<a xlink:href="classMojLogger.htm" target="_top" xlink:title="MojLogger">
<polygon fill="white" stroke="black" points="260,-294.5 260,-315.5 328,-315.5 328,-294.5 260,-294.5"/>
<text text-anchor="middle" x="294" y="-302.5" font-family="Helvetica,sans-Serif" font-size="10.00">MojLogger</text>
</a>
</g>
<!-- Node3&#45;&gt;Node7 -->
<g id="edge16" class="edge"><title>Node3&#45;&gt;Node7</title>
<path fill="none" stroke="#8b1a1a" d="M82.2213,-354.835C125.816,-345.161 192.953,-330.037 251,-316 253.846,-315.312 256.795,-314.585 259.753,-313.848"/>
<polygon fill="#8b1a1a" stroke="#8b1a1a" points="81.2134,-351.474 72.2071,-357.054 82.7274,-358.308 81.2134,-351.474"/>
</g>
<!-- Node4&#45;&gt;Node2 -->
<g id="edge6" class="edge"><title>Node4&#45;&gt;Node2</title>
<path fill="none" stroke="#9a32cd" stroke-dasharray="5,2" d="M186.783,-138.358C209.906,-121.469 245.001,-95.8341 264.553,-81.5523"/>
<polygon fill="#9a32cd" stroke="#9a32cd" points="184.576,-135.637 178.565,-144.361 188.705,-141.289 184.576,-135.637"/>
<text text-anchor="middle" x="253.5" y="-110.5" font-family="Helvetica,sans-Serif" font-size="10.00"> m_db</text>
</g>
<!-- Node5 -->
<g id="node9" class="node"><title>Node5</title>
<polygon fill="white" stroke="#bfbfbf" points="64,-294.5 64,-315.5 102,-315.5 102,-294.5 64,-294.5"/>
<text text-anchor="middle" x="83" y="-302.5" font-family="Helvetica,sans-Serif" font-size="10.00">char</text>
</g>
<!-- Node5&#45;&gt;Node4 -->
<g id="edge10" class="edge"><title>Node5&#45;&gt;Node4</title>
<path fill="none" stroke="#9a32cd" stroke-dasharray="5,2" d="M79.5541,-284.115C76.4557,-258.032 75.2547,-213.283 97,-184 107.277,-170.161 125.544,-162.841 140.411,-159.02"/>
<polygon fill="#9a32cd" stroke="#9a32cd" points="76.1351,-284.939 80.9861,-294.358 83.0677,-283.97 76.1351,-284.939"/>
<text text-anchor="middle" x="126" y="-266.5" font-family="Helvetica,sans-Serif" font-size="10.00"> IdKey</text>
<text text-anchor="middle" x="126" y="-253.5" font-family="Helvetica,sans-Serif" font-size="10.00">DelKey</text>
<text text-anchor="middle" x="126" y="-240.5" font-family="Helvetica,sans-Serif" font-size="10.00">SyncKey</text>
<text text-anchor="middle" x="126" y="-227.5" font-family="Helvetica,sans-Serif" font-size="10.00">IgnoreIdKey</text>
<text text-anchor="middle" x="126" y="-214.5" font-family="Helvetica,sans-Serif" font-size="10.00">RevKey</text>
<text text-anchor="middle" x="126" y="-201.5" font-family="Helvetica,sans-Serif" font-size="10.00">KindKey</text>
<text text-anchor="middle" x="126" y="-188.5" font-family="Helvetica,sans-Serif" font-size="10.00">ConfKey</text>
</g>
<!-- Node6 -->
<g id="node11" class="node"><title>Node6</title>
<polygon fill="white" stroke="#bfbfbf" points="120,-294.5 120,-315.5 242,-315.5 242,-294.5 120,-294.5"/>
<text text-anchor="middle" x="181" y="-302.5" font-family="Helvetica,sans-Serif" font-size="10.00">static const MojUInt32</text>
</g>
<!-- Node6&#45;&gt;Node4 -->
<g id="edge12" class="edge"><title>Node6&#45;&gt;Node4</title>
<path fill="none" stroke="#9a32cd" stroke-dasharray="5,2" d="M168.47,-285.29C167.049,-282.276 165.819,-279.125 165,-276 154.619,-236.372 159.472,-186.909 162.375,-165.586"/>
<polygon fill="#9a32cd" stroke="#9a32cd" points="165.513,-287.176 173.395,-294.256 171.649,-283.806 165.513,-287.176"/>
<text text-anchor="middle" x="208.5" y="-234" font-family="Helvetica,sans-Serif" font-size="10.00"> AutoCompactSize</text>
<text text-anchor="middle" x="208.5" y="-221" font-family="Helvetica,sans-Serif" font-size="10.00">AutoBatchSize</text>
</g>
<!-- Node7&#45;&gt;Node2 -->
<g id="edge18" class="edge"><title>Node7&#45;&gt;Node2</title>
<path fill="none" stroke="#9a32cd" stroke-dasharray="5,2" d="M301.86,-284.981C302.745,-282.011 303.505,-278.954 304,-276 316.384,-202.096 291.884,-112.227 282.471,-81.7192"/>
<polygon fill="#9a32cd" stroke="#9a32cd" points="298.536,-283.884 298.574,-294.479 305.151,-286.173 298.536,-283.884"/>
<text text-anchor="middle" x="316.5" y="-152.5" font-family="Helvetica,sans-Serif" font-size="10.00"> s_log</text>
</g>
<!-- Node7&#45;&gt;Node4 -->
<g id="edge14" class="edge"><title>Node7&#45;&gt;Node4</title>
<path fill="none" stroke="#9a32cd" stroke-dasharray="5,2" d="M280.269,-285.985C278.312,-282.753 276.468,-279.355 275,-276 258.103,-237.388 280.69,-214.875 252,-184 243.185,-174.514 210.652,-165.489 187.72,-160.098"/>
<polygon fill="#9a32cd" stroke="#9a32cd" points="277.443,-288.057 285.871,-294.477 283.286,-284.202 277.443,-288.057"/>
<text text-anchor="middle" x="289.5" y="-227.5" font-family="Helvetica,sans-Serif" font-size="10.00"> s_log</text>
</g>
<!-- Node8 -->
<g id="node17" class="node"><title>Node8</title>
<polygon fill="white" stroke="#bfbfbf" points="365,-144.5 365,-165.5 459,-165.5 459,-144.5 365,-144.5"/>
<text text-anchor="middle" x="412" y="-152.5" font-family="Helvetica,sans-Serif" font-size="10.00">const MojChar *</text>
</g>
<!-- Node8&#45;&gt;Node2 -->
<g id="edge20" class="edge"><title>Node8&#45;&gt;Node2</title>
<path fill="none" stroke="#9a32cd" stroke-dasharray="5,2" d="M388.993,-138.261C373.226,-127.02 351.681,-112.107 332,-100 321.458,-93.5153 309.374,-86.8472 299.409,-81.5426"/>
<polygon fill="#9a32cd" stroke="#9a32cd" points="387.388,-141.417 397.552,-144.407 391.471,-135.731 387.388,-141.417"/>
<text text-anchor="middle" x="398" y="-117" font-family="Helvetica,sans-Serif" font-size="10.00"> m_kindId</text>
<text text-anchor="middle" x="398" y="-104" font-family="Helvetica,sans-Serif" font-size="10.00">m_confProp</text>
</g>
</g>
</svg>
