<?xml version="1.0" encoding="UTF-8" standalone="no"?>
<!DOCTYPE svg PUBLIC "-//W3C//DTD SVG 1.1//EN"
 "http://www.w3.org/Graphics/SVG/1.1/DTD/svg11.dtd">
<!-- Generated by graphviz version 2.26.3 (20100126.1600)
 -->
<!-- Title: MojDbQuotaCommitHandler Pages: 1 -->
<svg width="620pt" height="456pt"
 viewBox="0.00 0.00 620.00 456.00" xmlns="http://www.w3.org/2000/svg" xmlns:xlink="http://www.w3.org/1999/xlink">
<g id="graph1" class="graph" transform="scale(1 1) rotate(0) translate(4 452)">
<title>MojDbQuotaCommitHandler</title>
<polygon fill="white" stroke="white" points="-4,5 -4,-452 617,-452 617,5 -4,5"/>
<!-- Node1 -->
<g id="node1" class="node"><title>Node1</title>
<polygon fill="#bfbfbf" stroke="black" points="178,-0.5 178,-21.5 326,-21.5 326,-0.5 178,-0.5"/>
<text text-anchor="middle" x="252" y="-8.5" font-family="Helvetica,sans-Serif" font-size="10.00">MojDbQuotaCommitHandler</text>
</g>
<!-- Node2 -->
<g id="node2" class="node"><title>Node2</title>
<a xlink:href="classMojSignalHandler.htm" target="_top" xlink:title="MojSignalHandler">
<polygon fill="white" stroke="black" points="-0.5,-174.5 -0.5,-195.5 100.5,-195.5 100.5,-174.5 -0.5,-174.5"/>
<text text-anchor="middle" x="50" y="-182.5" font-family="Helvetica,sans-Serif" font-size="10.00">MojSignalHandler</text>
</a>
</g>
<!-- Node2&#45;&gt;Node1 -->
<g id="edge2" class="edge"><title>Node2&#45;&gt;Node1</title>
<path fill="none" stroke="midnightblue" d="M51.2263,-164.24C53.7856,-139.228 61.6777,-97.4099 86,-72 111.795,-45.0509 150.498,-29.9419 184.045,-21.5046"/>
<polygon fill="midnightblue" stroke="midnightblue" points="47.7198,-164.176 50.3859,-174.429 54.6961,-164.751 47.7198,-164.176"/>
</g>
<!-- Node3 -->
<g id="node4" class="node"><title>Node3</title>
<a xlink:href="classMojRefCounted.htm" target="_top" xlink:title="MojRefCounted">
<polygon fill="white" stroke="black" points="9,-291.5 9,-312.5 99,-312.5 99,-291.5 9,-291.5"/>
<text text-anchor="middle" x="54" y="-299.5" font-family="Helvetica,sans-Serif" font-size="10.00">MojRefCounted</text>
</a>
</g>
<!-- Node3&#45;&gt;Node2 -->
<g id="edge4" class="edge"><title>Node3&#45;&gt;Node2</title>
<path fill="none" stroke="midnightblue" d="M53.2801,-280.943C52.4241,-255.904 51.0284,-215.081 50.3682,-195.771"/>
<polygon fill="midnightblue" stroke="midnightblue" points="49.7911,-281.328 53.6309,-291.203 56.787,-281.089 49.7911,-281.328"/>
</g>
<!-- Node4 -->
<g id="node6" class="node"><title>Node4</title>
<a xlink:href="classMojNoCopy.htm" target="_top" xlink:title="MojNoCopy">
<polygon fill="white" stroke="black" points="276,-426.5 276,-447.5 348,-447.5 348,-426.5 276,-426.5"/>
<text text-anchor="middle" x="312" y="-434.5" font-family="Helvetica,sans-Serif" font-size="10.00">MojNoCopy</text>
</a>
</g>
<!-- Node4&#45;&gt;Node3 -->
<g id="edge6" class="edge"><title>Node4&#45;&gt;Node3</title>
<path fill="none" stroke="#8b1a1a" d="M265.46,-432.566C206.272,-426.022 108.548,-411.901 82,-388 59.9446,-368.144 55.1937,-330.731 54.2176,-312.508"/>
<polygon fill="#8b1a1a" stroke="#8b1a1a" points="265.364,-436.075 275.681,-433.663 266.111,-429.115 265.364,-436.075"/>
</g>
<!-- Node6 -->
<g id="node10" class="node"><title>Node6</title>
<a xlink:href="classMojDbPutHandler.htm" target="_top" xlink:title="MojDbPutHandler">
<polygon fill="white" stroke="black" points="150.5,-132.5 150.5,-153.5 249.5,-153.5 249.5,-132.5 150.5,-132.5"/>
<text text-anchor="middle" x="200" y="-140.5" font-family="Helvetica,sans-Serif" font-size="10.00">MojDbPutHandler</text>
</a>
</g>
<!-- Node4&#45;&gt;Node6 -->
<g id="edge12" class="edge"><title>Node4&#45;&gt;Node6</title>
<path fill="none" stroke="#8b1a1a" d="M348.271,-421.46C361.524,-413.618 374.787,-402.611 381,-388 392.379,-361.243 389.524,-269.402 385,-256 369.989,-211.53 360.324,-197.622 321,-172 309.1,-164.246 277.498,-156.806 249.576,-151.404"/>
<polygon fill="#8b1a1a" stroke="#8b1a1a" points="346.305,-418.544 339.184,-426.389 349.643,-424.697 346.305,-418.544"/>
</g>
<!-- Node7 -->
<g id="node13" class="node"><title>Node7</title>
<a xlink:href="classMojDb.htm" target="_top" xlink:title="MojDb">
<polygon fill="white" stroke="black" points="176.5,-216.5 176.5,-237.5 223.5,-237.5 223.5,-216.5 176.5,-216.5"/>
<text text-anchor="middle" x="200" y="-224.5" font-family="Helvetica,sans-Serif" font-size="10.00">MojDb</text>
</a>
</g>
<!-- Node4&#45;&gt;Node7 -->
<g id="edge16" class="edge"><title>Node4&#45;&gt;Node7</title>
<path fill="none" stroke="#8b1a1a" d="M336.442,-420.052C346.66,-411.632 357.62,-400.568 364,-388 378.691,-359.058 375.739,-263.683 369,-256 348.751,-232.917 261.891,-245.026 232,-238 229.255,-237.355 226.414,-236.565 223.61,-235.707"/>
<polygon fill="#8b1a1a" stroke="#8b1a1a" points="334.257,-417.317 328.508,-426.216 338.552,-422.845 334.257,-417.317"/>
</g>
<!-- Node10 -->
<g id="node20" class="node"><title>Node10</title>
<a xlink:href="classMojLogger.htm" target="_top" xlink:title="MojLogger">
<polygon fill="white" stroke="black" points="91,-366.5 91,-387.5 159,-387.5 159,-366.5 91,-366.5"/>
<text text-anchor="middle" x="125" y="-374.5" font-family="Helvetica,sans-Serif" font-size="10.00">MojLogger</text>
</a>
</g>
<!-- Node4&#45;&gt;Node10 -->
<g id="edge24" class="edge"><title>Node4&#45;&gt;Node10</title>
<path fill="none" stroke="#8b1a1a" d="M269.386,-423.327C235.574,-412.478 188.995,-397.533 157.985,-387.584"/>
<polygon fill="#8b1a1a" stroke="#8b1a1a" points="268.407,-426.689 278.999,-426.411 270.546,-420.023 268.407,-426.689"/>
</g>
<!-- Node5 -->
<g id="node8" class="node"><title>Node5</title>
<a xlink:href="classMojDbQuotaEngine.htm" target="_top" xlink:title="MojDbQuotaEngine">
<polygon fill="white" stroke="black" points="95,-72.5 95,-93.5 203,-93.5 203,-72.5 95,-72.5"/>
<text text-anchor="middle" x="149" y="-80.5" font-family="Helvetica,sans-Serif" font-size="10.00">MojDbQuotaEngine</text>
</a>
</g>
<!-- Node5&#45;&gt;Node1 -->
<g id="edge8" class="edge"><title>Node5&#45;&gt;Node1</title>
<path fill="none" stroke="#9a32cd" stroke-dasharray="5,2" d="M167.171,-65.2796C176.069,-57.0762 187.178,-47.5082 198,-40 207.88,-33.1454 219.559,-26.6918 229.524,-21.6207"/>
<polygon fill="#9a32cd" stroke="#9a32cd" points="164.567,-62.9247 159.692,-72.3315 169.369,-68.0177 164.567,-62.9247"/>
<text text-anchor="middle" x="223" y="-44.5" font-family="Helvetica,sans-Serif" font-size="10.00"> m_engine</text>
</g>
<!-- Node6&#45;&gt;Node5 -->
<g id="edge10" class="edge"><title>Node6&#45;&gt;Node5</title>
<path fill="none" stroke="midnightblue" d="M184.175,-124.382C175.582,-114.273 165.269,-102.14 158.039,-93.6339"/>
<polygon fill="midnightblue" stroke="midnightblue" points="181.739,-126.921 190.882,-132.273 187.072,-122.387 181.739,-126.921"/>
</g>
<!-- Node7&#45;&gt;Node6 -->
<g id="edge14" class="edge"><title>Node7&#45;&gt;Node6</title>
<path fill="none" stroke="#9a32cd" stroke-dasharray="5,2" d="M200,-205.945C200,-189.257 200,-166.639 200,-153.552"/>
<polygon fill="#9a32cd" stroke="#9a32cd" points="196.5,-206.361 200,-216.361 203.5,-206.361 196.5,-206.361"/>
<text text-anchor="middle" x="214.5" y="-182.5" font-family="Helvetica,sans-Serif" font-size="10.00"> m_db</text>
</g>
<!-- Node8 -->
<g id="node16" class="node"><title>Node8</title>
<polygon fill="white" stroke="#bfbfbf" points="177,-366.5 177,-387.5 215,-387.5 215,-366.5 177,-366.5"/>
<text text-anchor="middle" x="196" y="-374.5" font-family="Helvetica,sans-Serif" font-size="10.00">char</text>
</g>
<!-- Node8&#45;&gt;Node7 -->
<g id="edge18" class="edge"><title>Node8&#45;&gt;Node7</title>
<path fill="none" stroke="#9a32cd" stroke-dasharray="5,2" d="M196.559,-356.041C197.424,-323.588 199.057,-262.351 199.715,-237.69"/>
<polygon fill="#9a32cd" stroke="#9a32cd" points="193.056,-356.123 196.288,-366.212 200.053,-356.309 193.056,-356.123"/>
<text text-anchor="middle" x="229" y="-338.5" font-family="Helvetica,sans-Serif" font-size="10.00"> IdKey</text>
<text text-anchor="middle" x="229" y="-325.5" font-family="Helvetica,sans-Serif" font-size="10.00">DelKey</text>
<text text-anchor="middle" x="229" y="-312.5" font-family="Helvetica,sans-Serif" font-size="10.00">SyncKey</text>
<text text-anchor="middle" x="229" y="-299.5" font-family="Helvetica,sans-Serif" font-size="10.00">IgnoreIdKey</text>
<text text-anchor="middle" x="229" y="-286.5" font-family="Helvetica,sans-Serif" font-size="10.00">RevKey</text>
<text text-anchor="middle" x="229" y="-273.5" font-family="Helvetica,sans-Serif" font-size="10.00">KindKey</text>
<text text-anchor="middle" x="229" y="-260.5" font-family="Helvetica,sans-Serif" font-size="10.00">ConfKey</text>
</g>
<!-- Node9 -->
<g id="node18" class="node"><title>Node9</title>
<polygon fill="white" stroke="#bfbfbf" points="233,-366.5 233,-387.5 355,-387.5 355,-366.5 233,-366.5"/>
<text text-anchor="middle" x="294" y="-374.5" font-family="Helvetica,sans-Serif" font-size="10.00">static const MojUInt32</text>
</g>
<!-- Node9&#45;&gt;Node7 -->
<g id="edge20" class="edge"><title>Node9&#45;&gt;Node7</title>
<path fill="none" stroke="#9a32cd" stroke-dasharray="5,2" d="M285.237,-356.901C284.078,-353.942 282.96,-350.911 282,-348 268.796,-307.975 285.484,-288.787 259,-256 254.123,-249.962 237.776,-242.155 223.523,-236.163"/>
<polygon fill="#9a32cd" stroke="#9a32cd" points="282.111,-358.501 289.173,-366.4 288.578,-355.822 282.111,-358.501"/>
<text text-anchor="middle" x="325.5" y="-306" font-family="Helvetica,sans-Serif" font-size="10.00"> AutoCompactSize</text>
<text text-anchor="middle" x="325.5" y="-293" font-family="Helvetica,sans-Serif" font-size="10.00">AutoBatchSize</text>
</g>
<!-- Node10&#45;&gt;Node6 -->
<g id="edge26" class="edge"><title>Node10&#45;&gt;Node6</title>
<path fill="none" stroke="#9a32cd" stroke-dasharray="5,2" d="M122.109,-356.554C118.583,-324.631 115.674,-261.859 139,-216 151.729,-190.974 174.452,-166.994 188.283,-153.707"/>
<polygon fill="#9a32cd" stroke="#9a32cd" points="118.636,-356.987 123.341,-366.481 125.583,-356.126 118.636,-356.987"/>
<text text-anchor="middle" x="153.5" y="-224.5" font-family="Helvetica,sans-Serif" font-size="10.00"> s_log</text>
</g>
<!-- Node10&#45;&gt;Node7 -->
<g id="edge22" class="edge"><title>Node10&#45;&gt;Node7</title>
<path fill="none" stroke="#9a32cd" stroke-dasharray="5,2" d="M127.925,-356.396C132.329,-330.95 142.544,-287.212 164,-256 168.91,-248.857 176.085,-242.58 182.739,-237.709"/>
<polygon fill="#9a32cd" stroke="#9a32cd" points="124.45,-355.965 126.335,-366.391 131.363,-357.065 124.45,-355.965"/>
<text text-anchor="middle" x="178.5" y="-299.5" font-family="Helvetica,sans-Serif" font-size="10.00"> s_log</text>
</g>
<!-- Node11 -->
<g id="node24" class="node"><title>Node11</title>
<polygon fill="white" stroke="#bfbfbf" points="241,-216.5 241,-237.5 335,-237.5 335,-216.5 241,-216.5"/>
<text text-anchor="middle" x="288" y="-224.5" font-family="Helvetica,sans-Serif" font-size="10.00">const MojChar *</text>
</g>
<!-- Node11&#45;&gt;Node6 -->
<g id="edge28" class="edge"><title>Node11&#45;&gt;Node6</title>
<path fill="none" stroke="#9a32cd" stroke-dasharray="5,2" d="M270.54,-208.961C259.867,-198.08 245.842,-184.04 233,-172 226.323,-165.74 218.655,-158.977 212.392,-153.557"/>
<polygon fill="#9a32cd" stroke="#9a32cd" points="268.165,-211.539 277.654,-216.251 273.175,-206.65 268.165,-211.539"/>
<text text-anchor="middle" x="288" y="-189" font-family="Helvetica,sans-Serif" font-size="10.00"> m_kindId</text>
<text text-anchor="middle" x="288" y="-176" font-family="Helvetica,sans-Serif" font-size="10.00">m_confProp</text>
</g>
<!-- Node12 -->
<g id="node26" class="node"><title>Node12</title>
<a xlink:href="classMojString.htm" target="_top" xlink:title="MojString">
<polygon fill="white" stroke="black" points="221,-72.5 221,-93.5 283,-93.5 283,-72.5 221,-72.5"/>
<text text-anchor="middle" x="252" y="-80.5" font-family="Helvetica,sans-Serif" font-size="10.00">MojString</text>
</a>
</g>
<!-- Node12&#45;&gt;Node1 -->
<g id="edge30" class="edge"><title>Node12&#45;&gt;Node1</title>
<path fill="none" stroke="#9a32cd" stroke-dasharray="5,2" d="M252,-62.2348C252,-48.969 252,-32.3188 252,-21.6674"/>
<polygon fill="#9a32cd" stroke="#9a32cd" points="248.5,-62.3761 252,-72.3762 255.5,-62.3762 248.5,-62.3761"/>
<text text-anchor="middle" x="275.5" y="-44.5" font-family="Helvetica,sans-Serif" font-size="10.00"> m_owner</text>
</g>
<!-- Node12&#45;&gt;Node12 -->
<g id="edge32" class="edge"><title>Node12&#45;&gt;Node12</title>
<path fill="none" stroke="#9a32cd" stroke-dasharray="5,2" d="M293.153,-87.7922C297.909,-86.9045 301,-85.3071 301,-83 301,-79.3086 293.087,-77.4341 283.102,-77.3764"/>
<polygon fill="#9a32cd" stroke="#9a32cd" points="292.779,-84.3111 283.102,-88.6236 293.357,-91.2873 292.779,-84.3111"/>
<text text-anchor="middle" x="317.5" y="-80.5" font-family="Helvetica,sans-Serif" font-size="10.00"> Empty</text>
</g>
<!-- Node13 -->
<g id="node29" class="node"><title>Node13</title>
<polygon fill="white" stroke="#bfbfbf" points="352,-72.5 352,-93.5 410,-93.5 410,-72.5 352,-72.5"/>
<text text-anchor="middle" x="381" y="-80.5" font-family="Helvetica,sans-Serif" font-size="10.00">MojInt64</text>
</g>
<!-- Node13&#45;&gt;Node1 -->
<g id="edge34" class="edge"><title>Node13&#45;&gt;Node1</title>
<path fill="none" stroke="#9a32cd" stroke-dasharray="5,2" d="M353.049,-67.3994C328.278,-53.5738 292.773,-33.7568 271.112,-21.6674"/>
<polygon fill="#9a32cd" stroke="#9a32cd" points="351.528,-70.5586 361.966,-72.3762 354.939,-64.4462 351.528,-70.5586"/>
<text text-anchor="middle" x="346.5" y="-44.5" font-family="Helvetica,sans-Serif" font-size="10.00"> m_size</text>
</g>
<!-- Node14 -->
<g id="node31" class="node"><title>Node14</title>
<polygon fill="white" stroke="#bfbfbf" points="428,-72.5 428,-93.5 612,-93.5 612,-72.5 428,-72.5"/>
<text text-anchor="middle" x="520" y="-80.5" font-family="Helvetica,sans-Serif" font-size="10.00">Slot&lt; MojDbQuotaCommitHandler &gt;</text>
</g>
<!-- Node14&#45;&gt;Node1 -->
<g id="edge36" class="edge"><title>Node14&#45;&gt;Node1</title>
<path fill="none" stroke="#9a32cd" stroke-dasharray="5,2" d="M474.662,-69.6483C444.734,-60.9435 404.616,-49.482 369,-40 344.935,-33.5931 317.962,-26.8763 295.984,-21.5221"/>
<polygon fill="#9a32cd" stroke="#9a32cd" points="473.82,-73.0484 484.4,-72.4878 475.779,-66.3282 473.82,-73.0484"/>
<text text-anchor="middle" x="435" y="-44.5" font-family="Helvetica,sans-Serif" font-size="10.00"> m_slot</text>
</g>
</g>
</svg>
