<?xml version="1.0" encoding="UTF-8" standalone="no"?>
<!DOCTYPE svg PUBLIC "-//W3C//DTD SVG 1.1//EN"
 "http://www.w3.org/Graphics/SVG/1.1/DTD/svg11.dtd">
<!-- Generated by graphviz version 2.26.3 (20100126.1600)
 -->
<!-- Title: MojDbQuery Pages: 1 -->
<svg width="197pt" height="232pt"
 viewBox="0.00 0.00 197.00 232.00" xmlns="http://www.w3.org/2000/svg" xmlns:xlink="http://www.w3.org/1999/xlink">
<g id="graph1" class="graph" transform="scale(1 1) rotate(0) translate(4 228)">
<title>MojDbQuery</title>
<polygon fill="white" stroke="white" points="-4,5 -4,-228 194,-228 194,5 -4,5"/>
<!-- Node1 -->
<g id="node1" class="node"><title>Node1</title>
<polygon fill="#bfbfbf" stroke="black" points="30.5,-0.5 30.5,-21.5 105.5,-21.5 105.5,-0.5 30.5,-0.5"/>
<text text-anchor="middle" x="68" y="-8.5" font-family="Helvetica,sans-Serif" font-size="10.00">MojDbQuery</text>
</g>
<!-- Node2 -->
<g id="node2" class="node"><title>Node2</title>
<polygon fill="white" stroke="#bfbfbf" points="0,-202.5 0,-223.5 38,-223.5 38,-202.5 0,-202.5"/>
<text text-anchor="middle" x="19" y="-210.5" font-family="Helvetica,sans-Serif" font-size="10.00">char</text>
</g>
<!-- Node2&#45;&gt;Node1 -->
<g id="edge2" class="edge"><title>Node2&#45;&gt;Node1</title>
<path fill="none" stroke="#9a32cd" stroke-dasharray="5,2" d="M16.6524,-192.047C13.8113,-158.153 12.1288,-90.0487 37,-40 40.5421,-32.8722 46.6129,-26.5971 52.4483,-21.7239"/>
<polygon fill="#9a32cd" stroke="#9a32cd" points="13.1831,-192.535 17.6237,-202.155 20.151,-191.866 13.1831,-192.535"/>
<text text-anchor="middle" x="66" y="-174.5" font-family="Helvetica,sans-Serif" font-size="10.00"> PropKey</text>
<text text-anchor="middle" x="66" y="-161.5" font-family="Helvetica,sans-Serif" font-size="10.00">DescKey</text>
<text text-anchor="middle" x="66" y="-148.5" font-family="Helvetica,sans-Serif" font-size="10.00">OrderByKey</text>
<text text-anchor="middle" x="66" y="-135.5" font-family="Helvetica,sans-Serif" font-size="10.00">LimitKey</text>
<text text-anchor="middle" x="66" y="-122.5" font-family="Helvetica,sans-Serif" font-size="10.00">DelKey</text>
<text text-anchor="middle" x="66" y="-109.5" font-family="Helvetica,sans-Serif" font-size="10.00">PageKey</text>
<text text-anchor="middle" x="66" y="-96.5" font-family="Helvetica,sans-Serif" font-size="10.00">SelectKey</text>
<text text-anchor="middle" x="66" y="-83.5" font-family="Helvetica,sans-Serif" font-size="10.00">CollateKey</text>
<text text-anchor="middle" x="66" y="-70.5" font-family="Helvetica,sans-Serif" font-size="10.00">DistinctKey</text>
<text text-anchor="middle" x="66" y="-57.5" font-family="Helvetica,sans-Serif" font-size="10.00">FromKey</text>
<text text-anchor="middle" x="66" y="-44.5" font-family="Helvetica,sans-Serif" font-size="10.00">...</text>
</g>
<!-- Node3 -->
<g id="node4" class="node"><title>Node3</title>
<polygon fill="white" stroke="#bfbfbf" points="56,-202.5 56,-223.5 178,-223.5 178,-202.5 56,-202.5"/>
<text text-anchor="middle" x="117" y="-210.5" font-family="Helvetica,sans-Serif" font-size="10.00">static const MojUInt32</text>
</g>
<!-- Node3&#45;&gt;Node1 -->
<g id="edge4" class="edge"><title>Node3&#45;&gt;Node1</title>
<path fill="none" stroke="#9a32cd" stroke-dasharray="5,2" d="M118.343,-192.207C119.67,-158.538 118.771,-90.7435 95,-40 91.7316,-33.0231 86.1551,-26.6002 80.9157,-21.582"/>
<polygon fill="#9a32cd" stroke="#9a32cd" points="114.845,-192.08 117.838,-202.243 121.837,-192.432 114.845,-192.08"/>
<text text-anchor="middle" x="153.5" y="-116" font-family="Helvetica,sans-Serif" font-size="10.00"> LimitDefault</text>
<text text-anchor="middle" x="153.5" y="-103" font-family="Helvetica,sans-Serif" font-size="10.00">MaxQueryLimit</text>
</g>
</g>
</svg>
