<?xml version="1.0" encoding="UTF-8" standalone="no"?>
<!DOCTYPE svg PUBLIC "-//W3C//DTD SVG 1.1//EN"
 "http://www.w3.org/Graphics/SVG/1.1/DTD/svg11.dtd">
<!-- Generated by graphviz version 2.26.3 (20100126.1600)
 -->
<!-- Title: MojDbInnoItem Pages: 1 -->
<svg width="462pt" height="258pt"
 viewBox="0.00 0.00 462.00 258.00" xmlns="http://www.w3.org/2000/svg" xmlns:xlink="http://www.w3.org/1999/xlink">
<g id="graph1" class="graph" transform="scale(1 1) rotate(0) translate(4 254)">
<title>MojDbInnoItem</title>
<polygon fill="white" stroke="white" points="-4,5 -4,-254 459,-254 459,5 -4,5"/>
<!-- Node1 -->
<g id="node1" class="node"><title>Node1</title>
<polygon fill="#bfbfbf" stroke="black" points="146,-0.5 146,-21.5 234,-21.5 234,-0.5 146,-0.5"/>
<text text-anchor="middle" x="190" y="-8.5" font-family="Helvetica,sans-Serif" font-size="10.00">MojDbInnoItem</text>
</g>
<!-- Node2 -->
<g id="node2" class="node"><title>Node2</title>
<a xlink:href="classMojDbStorageItem.htm" target="_top" xlink:title="MojDbStorageItem">
<polygon fill="white" stroke="black" points="138,-60.5 138,-81.5 242,-81.5 242,-60.5 138,-60.5"/>
<text text-anchor="middle" x="190" y="-68.5" font-family="Helvetica,sans-Serif" font-size="10.00">MojDbStorageItem</text>
</a>
</g>
<!-- Node2&#45;&gt;Node1 -->
<g id="edge2" class="edge"><title>Node2&#45;&gt;Node1</title>
<path fill="none" stroke="midnightblue" d="M190,-50.2312C190,-40.5922 190,-29.5444 190,-21.6339"/>
<polygon fill="midnightblue" stroke="midnightblue" points="186.5,-50.2732 190,-60.2732 193.5,-50.2732 186.5,-50.2732"/>
</g>
<!-- Node3 -->
<g id="node4" class="node"><title>Node3</title>
<a xlink:href="classMojRefCounted.htm" target="_top" xlink:title="MojRefCounted">
<polygon fill="white" stroke="black" points="174,-142.5 174,-163.5 264,-163.5 264,-142.5 174,-142.5"/>
<text text-anchor="middle" x="219" y="-150.5" font-family="Helvetica,sans-Serif" font-size="10.00">MojRefCounted</text>
</a>
</g>
<!-- Node3&#45;&gt;Node2 -->
<g id="edge4" class="edge"><title>Node3&#45;&gt;Node2</title>
<path fill="none" stroke="midnightblue" d="M211.808,-132.665C206.102,-116.531 198.352,-94.6153 193.792,-81.7227"/>
<polygon fill="midnightblue" stroke="midnightblue" points="208.575,-134.019 215.209,-142.28 215.174,-131.685 208.575,-134.019"/>
</g>
<!-- Node4 -->
<g id="node6" class="node"><title>Node4</title>
<a xlink:href="classMojNoCopy.htm" target="_top" xlink:title="MojNoCopy">
<polygon fill="white" stroke="black" points="182,-228.5 182,-249.5 254,-249.5 254,-228.5 182,-228.5"/>
<text text-anchor="middle" x="218" y="-236.5" font-family="Helvetica,sans-Serif" font-size="10.00">MojNoCopy</text>
</a>
</g>
<!-- Node4&#45;&gt;Node3 -->
<g id="edge6" class="edge"><title>Node4&#45;&gt;Node3</title>
<path fill="none" stroke="#8b1a1a" d="M218.241,-218.256C218.442,-201.026 218.718,-177.215 218.876,-163.632"/>
<polygon fill="#8b1a1a" stroke="#8b1a1a" points="214.739,-218.415 218.123,-228.455 221.739,-218.496 214.739,-218.415"/>
</g>
<!-- Node6 -->
<g id="node11" class="node"><title>Node6</title>
<a xlink:href="classMojDbInnoCursor.htm" target="_top" xlink:title="MojDbInnoCursor">
<polygon fill="white" stroke="black" points="-0.5,-100.5 -0.5,-121.5 98.5,-121.5 98.5,-100.5 -0.5,-100.5"/>
<text text-anchor="middle" x="49" y="-108.5" font-family="Helvetica,sans-Serif" font-size="10.00">MojDbInnoCursor</text>
</a>
</g>
<!-- Node4&#45;&gt;Node6 -->
<g id="edge14" class="edge"><title>Node4&#45;&gt;Node6</title>
<path fill="none" stroke="midnightblue" d="M171.576,-228.72C117.812,-215.764 34.2643,-192.021 16,-166 9.3612,-156.542 11.2363,-150.528 16,-140 19.3328,-132.634 25.5634,-126.396 31.7207,-121.615"/>
<polygon fill="midnightblue" stroke="midnightblue" points="171.037,-232.189 181.574,-231.088 172.65,-225.378 171.037,-232.189"/>
</g>
<!-- Node7 -->
<g id="node14" class="node"><title>Node7</title>
<a xlink:href="classMojDbInnoTuple.htm" target="_top" xlink:title="MojDbInnoTuple">
<polygon fill="white" stroke="black" points="282,-142.5 282,-163.5 376,-163.5 376,-142.5 282,-142.5"/>
<text text-anchor="middle" x="329" y="-150.5" font-family="Helvetica,sans-Serif" font-size="10.00">MojDbInnoTuple</text>
</a>
</g>
<!-- Node4&#45;&gt;Node7 -->
<g id="edge18" class="edge"><title>Node4&#45;&gt;Node7</title>
<path fill="none" stroke="#8b1a1a" d="M239.552,-222.302C261.95,-204.949 296.327,-178.314 315.278,-163.632"/>
<polygon fill="#8b1a1a" stroke="#8b1a1a" points="237.372,-219.563 231.611,-228.455 241.659,-225.097 237.372,-219.563"/>
</g>
<!-- Node5 -->
<g id="node8" class="node"><title>Node5</title>
<a xlink:href="classMojObject.htm" target="_top" xlink:title="MojObject">
<polygon fill="white" stroke="black" points="25,-142.5 25,-163.5 89,-163.5 89,-142.5 25,-142.5"/>
<text text-anchor="middle" x="57" y="-150.5" font-family="Helvetica,sans-Serif" font-size="10.00">MojObject</text>
</a>
</g>
<!-- Node5&#45;&gt;Node2 -->
<g id="edge8" class="edge"><title>Node5&#45;&gt;Node2</title>
<path fill="none" stroke="#9a32cd" stroke-dasharray="5,2" d="M82.886,-137.04C109.487,-120.639 150.14,-95.5751 172.951,-81.5117"/>
<polygon fill="#9a32cd" stroke="#9a32cd" points="80.7905,-134.22 74.1151,-142.448 84.4642,-140.179 80.7905,-134.22"/>
<text text-anchor="middle" x="152" y="-108.5" font-family="Helvetica,sans-Serif" font-size="10.00"> m_id</text>
</g>
<!-- Node5&#45;&gt;Node5 -->
<g id="edge10" class="edge"><title>Node5&#45;&gt;Node5</title>
<path fill="none" stroke="#9a32cd" stroke-dasharray="5,2" d="M99.2224,-159.649C103.945,-158.395 107,-156.179 107,-153 107,-147.914 99.1794,-145.292 89.2203,-145.133"/>
<polygon fill="#9a32cd" stroke="#9a32cd" points="98.7238,-156.184 89.2203,-160.867 99.5701,-163.133 98.7238,-156.184"/>
<text text-anchor="middle" x="131.5" y="-157" font-family="Helvetica,sans-Serif" font-size="10.00"> Null</text>
<text text-anchor="middle" x="131.5" y="-144" font-family="Helvetica,sans-Serif" font-size="10.00">Undefined</text>
</g>
<!-- Node6&#45;&gt;Node1 -->
<g id="edge12" class="edge"><title>Node6&#45;&gt;Node1</title>
<path fill="none" stroke="#9a32cd" stroke-dasharray="5,2" d="M58.3329,-91.1839C64.0046,-80.824 72.0707,-68.5555 82,-60 102.901,-41.9906 131.512,-29.4094 154.035,-21.5081"/>
<polygon fill="#9a32cd" stroke="#9a32cd" points="55.0832,-89.8515 53.646,-100.348 61.3154,-93.0388 55.0832,-89.8515"/>
<text text-anchor="middle" x="105.5" y="-68.5" font-family="Helvetica,sans-Serif" font-size="10.00"> m_cursor</text>
</g>
<!-- Node7&#45;&gt;Node1 -->
<g id="edge16" class="edge"><title>Node7&#45;&gt;Node1</title>
<path fill="none" stroke="#9a32cd" stroke-dasharray="5,2" d="M315.085,-134.311C300.199,-114.843 275.418,-83.9066 251,-60 236.246,-45.5553 217.508,-30.9893 204.718,-21.5383"/>
<polygon fill="#9a32cd" stroke="#9a32cd" points="312.367,-136.519 321.192,-142.382 317.949,-132.295 312.367,-136.519"/>
<text text-anchor="middle" x="291" y="-68.5" font-family="Helvetica,sans-Serif" font-size="10.00"> m_tuple</text>
</g>
<!-- Node8 -->
<g id="node17" class="node"><title>Node8</title>
<polygon fill="white" stroke="#bfbfbf" points="404,-228.5 404,-249.5 454,-249.5 454,-228.5 404,-228.5"/>
<text text-anchor="middle" x="429" y="-236.5" font-family="Helvetica,sans-Serif" font-size="10.00">ib_tpl_t</text>
</g>
<!-- Node8&#45;&gt;Node7 -->
<g id="edge20" class="edge"><title>Node8&#45;&gt;Node7</title>
<path fill="none" stroke="#9a32cd" stroke-dasharray="5,2" d="M409.531,-221.359C397.407,-210.465 381.425,-196.273 367,-184 358.959,-177.159 349.792,-169.672 342.477,-163.77"/>
<polygon fill="#9a32cd" stroke="#9a32cd" points="407.471,-224.213 417.242,-228.309 412.157,-219.014 407.471,-224.213"/>
<text text-anchor="middle" x="410.5" y="-194.5" font-family="Helvetica,sans-Serif" font-size="10.00"> m_tpl</text>
</g>
<!-- Node9 -->
<g id="node19" class="node"><title>Node9</title>
<polygon fill="white" stroke="#bfbfbf" points="272,-228.5 272,-249.5 386,-249.5 386,-228.5 272,-228.5"/>
<text text-anchor="middle" x="329" y="-236.5" font-family="Helvetica,sans-Serif" font-size="10.00">static const ib_ulint_t</text>
</g>
<!-- Node9&#45;&gt;Node7 -->
<g id="edge22" class="edge"><title>Node9&#45;&gt;Node7</title>
<path fill="none" stroke="#9a32cd" stroke-dasharray="5,2" d="M329,-218.256C329,-201.026 329,-177.215 329,-163.632"/>
<polygon fill="#9a32cd" stroke="#9a32cd" points="325.5,-218.455 329,-228.455 332.5,-218.455 325.5,-218.455"/>
<text text-anchor="middle" x="346" y="-201" font-family="Helvetica,sans-Serif" font-size="10.00"> ValCol</text>
<text text-anchor="middle" x="346" y="-188" font-family="Helvetica,sans-Serif" font-size="10.00">KeyCol</text>
</g>
</g>
</svg>
