<?xml version="1.0" encoding="UTF-8" standalone="no"?>
<!DOCTYPE svg PUBLIC "-//W3C//DTD SVG 1.1//EN"
 "http://www.w3.org/Graphics/SVG/1.1/DTD/svg11.dtd">
<!-- Generated by graphviz version 2.26.3 (20100126.1600)
 -->
<!-- Title: MojApp Pages: 1 -->
<svg width="259pt" height="174pt"
 viewBox="0.00 0.00 259.00 174.00" xmlns="http://www.w3.org/2000/svg" xmlns:xlink="http://www.w3.org/1999/xlink">
<g id="graph1" class="graph" transform="scale(1 1) rotate(0) translate(4 170)">
<title>MojApp</title>
<polygon fill="white" stroke="white" points="-4,5 -4,-170 256,-170 256,5 -4,5"/>
<!-- Node1 -->
<g id="node1" class="node"><title>Node1</title>
<polygon fill="#bfbfbf" stroke="black" points="50.5,-0.5 50.5,-21.5 103.5,-21.5 103.5,-0.5 50.5,-0.5"/>
<text text-anchor="middle" x="77" y="-8.5" font-family="Helvetica,sans-Serif" font-size="10.00">MojApp</text>
</g>
<!-- Node2 -->
<g id="node2" class="node"><title>Node2</title>
<a xlink:href="classMojNoCopy.htm" target="_top" xlink:title="MojNoCopy">
<polygon fill="white" stroke="black" points="0,-144.5 0,-165.5 72,-165.5 72,-144.5 0,-144.5"/>
<text text-anchor="middle" x="36" y="-152.5" font-family="Helvetica,sans-Serif" font-size="10.00">MojNoCopy</text>
</a>
</g>
<!-- Node2&#45;&gt;Node1 -->
<g id="edge2" class="edge"><title>Node2&#45;&gt;Node1</title>
<path fill="none" stroke="#8b1a1a" d="M32.2364,-133.897C30.4455,-119.57 29.5468,-100.334 34,-84 40.6545,-59.5916 57.7779,-35.0286 68.2987,-21.5371"/>
<polygon fill="#8b1a1a" stroke="#8b1a1a" points="28.8347,-134.814 33.7787,-144.185 35.7574,-133.776 28.8347,-134.814"/>
</g>
<!-- Node4 -->
<g id="node6" class="node"><title>Node4</title>
<a xlink:href="classMojLogger.htm" target="_top" xlink:title="MojLogger">
<polygon fill="white" stroke="black" points="43,-84.5 43,-105.5 111,-105.5 111,-84.5 43,-84.5"/>
<text text-anchor="middle" x="77" y="-92.5" font-family="Helvetica,sans-Serif" font-size="10.00">MojLogger</text>
</a>
</g>
<!-- Node2&#45;&gt;Node4 -->
<g id="edge8" class="edge"><title>Node2&#45;&gt;Node4</title>
<path fill="none" stroke="#8b1a1a" d="M49.1384,-135.773C55.9607,-125.789 64.0374,-113.97 69.7335,-105.634"/>
<polygon fill="#8b1a1a" stroke="#8b1a1a" points="46.0822,-134.042 43.33,-144.273 51.8617,-137.991 46.0822,-134.042"/>
</g>
<!-- Node3 -->
<g id="node4" class="node"><title>Node3</title>
<polygon fill="white" stroke="#bfbfbf" points="129,-84.5 129,-105.5 251,-105.5 251,-84.5 129,-84.5"/>
<text text-anchor="middle" x="190" y="-92.5" font-family="Helvetica,sans-Serif" font-size="10.00">static const MojUInt32</text>
</g>
<!-- Node3&#45;&gt;Node1 -->
<g id="edge4" class="edge"><title>Node3&#45;&gt;Node1</title>
<path fill="none" stroke="#9a32cd" stroke-dasharray="5,2" d="M167.613,-78.3583C144.892,-61.4685 110.408,-35.8341 91.1953,-21.5523"/>
<polygon fill="#9a32cd" stroke="#9a32cd" points="165.575,-81.2044 175.688,-84.3613 169.751,-75.5865 165.575,-81.2044"/>
<text text-anchor="middle" x="183.5" y="-57" font-family="Helvetica,sans-Serif" font-size="10.00"> MinorVersion</text>
<text text-anchor="middle" x="183.5" y="-44" font-family="Helvetica,sans-Serif" font-size="10.00">MajorVersion</text>
</g>
<!-- Node4&#45;&gt;Node1 -->
<g id="edge6" class="edge"><title>Node4&#45;&gt;Node1</title>
<path fill="none" stroke="#9a32cd" stroke-dasharray="5,2" d="M77,-73.9452C77,-57.2568 77,-34.6387 77,-21.5523"/>
<polygon fill="#9a32cd" stroke="#9a32cd" points="73.5001,-74.3613 77,-84.3613 80.5001,-74.3614 73.5001,-74.3613"/>
<text text-anchor="middle" x="91.5" y="-50.5" font-family="Helvetica,sans-Serif" font-size="10.00"> s_log</text>
</g>
</g>
</svg>
