<?xml version="1.0" encoding="UTF-8" standalone="no"?>
<!DOCTYPE svg PUBLIC "-//W3C//DTD SVG 1.1//EN"
 "http://www.w3.org/Graphics/SVG/1.1/DTD/svg11.dtd">
<!-- Generated by graphviz version 2.26.3 (20100126.1600)
 -->
<!-- Title: MojDbStorageCollection Pages: 1 -->
<svg width="710pt" height="230pt"
 viewBox="0.00 0.00 710.00 230.00" xmlns="http://www.w3.org/2000/svg" xmlns:xlink="http://www.w3.org/1999/xlink">
<g id="graph1" class="graph" transform="scale(1 1) rotate(0) translate(4 226)">
<title>MojDbStorageCollection</title>
<polygon fill="white" stroke="white" points="-4,5 -4,-226 707,-226 707,5 -4,5"/>
<!-- Node1 -->
<g id="node1" class="node"><title>Node1</title>
<polygon fill="#bfbfbf" stroke="black" points="234.5,-100.5 234.5,-121.5 365.5,-121.5 365.5,-100.5 234.5,-100.5"/>
<text text-anchor="middle" x="300" y="-108.5" font-family="Helvetica,sans-Serif" font-size="10.00">MojDbStorageCollection</text>
</g>
<!-- Node4 -->
<g id="node7" class="node"><title>Node4</title>
<a xlink:href="classMojDbStorageDatabase.htm" target="_top" xlink:title="MojDbStorageDatabase">
<polygon fill="white" stroke="black" points="402.5,-140.5 402.5,-161.5 531.5,-161.5 531.5,-140.5 402.5,-140.5"/>
<text text-anchor="middle" x="467" y="-148.5" font-family="Helvetica,sans-Serif" font-size="10.00">MojDbStorageDatabase</text>
</a>
</g>
<!-- Node1&#45;&gt;Node4 -->
<g id="edge6" class="edge"><title>Node1&#45;&gt;Node4</title>
<path fill="none" stroke="midnightblue" d="M353.904,-123.911C376.285,-129.272 401.924,-135.413 423.126,-140.491"/>
<polygon fill="midnightblue" stroke="midnightblue" points="354.418,-120.435 343.877,-121.51 352.787,-127.243 354.418,-120.435"/>
</g>
<!-- Node8 -->
<g id="node15" class="node"><title>Node8</title>
<a xlink:href="classMojDbStorageIndex.htm" target="_top" xlink:title="MojDbStorageIndex">
<polygon fill="white" stroke="black" points="412,-60.5 412,-81.5 522,-81.5 522,-60.5 412,-60.5"/>
<text text-anchor="middle" x="467" y="-68.5" font-family="Helvetica,sans-Serif" font-size="10.00">MojDbStorageIndex</text>
</a>
</g>
<!-- Node1&#45;&gt;Node8 -->
<g id="edge14" class="edge"><title>Node1&#45;&gt;Node8</title>
<path fill="none" stroke="midnightblue" d="M353.904,-98.089C376.285,-92.7282 401.924,-86.587 423.126,-81.5087"/>
<polygon fill="midnightblue" stroke="midnightblue" points="352.787,-94.7573 343.877,-100.49 354.418,-101.565 352.787,-94.7573"/>
</g>
<!-- Node2 -->
<g id="node2" class="node"><title>Node2</title>
<a xlink:href="classMojRefCounted.htm" target="_top" xlink:title="MojRefCounted">
<polygon fill="white" stroke="black" points="108,-100.5 108,-121.5 198,-121.5 198,-100.5 108,-100.5"/>
<text text-anchor="middle" x="153" y="-108.5" font-family="Helvetica,sans-Serif" font-size="10.00">MojRefCounted</text>
</a>
</g>
<!-- Node2&#45;&gt;Node1 -->
<g id="edge2" class="edge"><title>Node2&#45;&gt;Node1</title>
<path fill="none" stroke="midnightblue" d="M208.414,-111C216.868,-111 225.662,-111 234.31,-111"/>
<polygon fill="midnightblue" stroke="midnightblue" points="208.304,-107.5 198.304,-111 208.304,-114.5 208.304,-107.5"/>
</g>
<!-- Node3 -->
<g id="node4" class="node"><title>Node3</title>
<a xlink:href="classMojNoCopy.htm" target="_top" xlink:title="MojNoCopy">
<polygon fill="white" stroke="black" points="0,-100.5 0,-121.5 72,-121.5 72,-100.5 0,-100.5"/>
<text text-anchor="middle" x="36" y="-108.5" font-family="Helvetica,sans-Serif" font-size="10.00">MojNoCopy</text>
</a>
</g>
<!-- Node3&#45;&gt;Node2 -->
<g id="edge4" class="edge"><title>Node3&#45;&gt;Node2</title>
<path fill="none" stroke="#8b1a1a" d="M82.1193,-111C90.5547,-111 99.35,-111 107.76,-111"/>
<polygon fill="#8b1a1a" stroke="#8b1a1a" points="82.0586,-107.5 72.0585,-111 82.0585,-114.5 82.0586,-107.5"/>
</g>
<!-- Node5 -->
<g id="node9" class="node"><title>Node5</title>
<a xlink:href="classMojDbBerkeleyDatabase.htm" target="_top" xlink:title="MojDbBerkeleyDatabase">
<polygon fill="white" stroke="black" points="568.5,-200.5 568.5,-221.5 701.5,-221.5 701.5,-200.5 568.5,-200.5"/>
<text text-anchor="middle" x="635" y="-208.5" font-family="Helvetica,sans-Serif" font-size="10.00">MojDbBerkeleyDatabase</text>
</a>
</g>
<!-- Node4&#45;&gt;Node5 -->
<g id="edge8" class="edge"><title>Node4&#45;&gt;Node5</title>
<path fill="none" stroke="midnightblue" d="M501.427,-165.496C520.826,-173.446 545.59,-183.234 568,-191 577.52,-194.299 587.91,-197.561 597.605,-200.464"/>
<polygon fill="midnightblue" stroke="midnightblue" points="502.67,-162.223 492.091,-161.642 500,-168.693 502.67,-162.223"/>
</g>
<!-- Node6 -->
<g id="node11" class="node"><title>Node6</title>
<a xlink:href="classMojDbInnoDatabase.htm" target="_top" xlink:title="MojDbInnoDatabase">
<polygon fill="white" stroke="black" points="578.5,-160.5 578.5,-181.5 691.5,-181.5 691.5,-160.5 578.5,-160.5"/>
<text text-anchor="middle" x="635" y="-168.5" font-family="Helvetica,sans-Serif" font-size="10.00">MojDbInnoDatabase</text>
</a>
</g>
<!-- Node4&#45;&gt;Node6 -->
<g id="edge10" class="edge"><title>Node4&#45;&gt;Node6</title>
<path fill="none" stroke="midnightblue" d="M542.117,-159.943C554.315,-161.395 566.766,-162.877 578.425,-164.265"/>
<polygon fill="midnightblue" stroke="midnightblue" points="542.297,-156.439 531.953,-158.733 541.469,-163.39 542.297,-156.439"/>
</g>
<!-- Node7 -->
<g id="node13" class="node"><title>Node7</title>
<a xlink:href="classMojDbLevelDatabase.htm" target="_top" xlink:title="MojDbLevelDatabase">
<polygon fill="white" stroke="black" points="576.5,-120.5 576.5,-141.5 693.5,-141.5 693.5,-120.5 576.5,-120.5"/>
<text text-anchor="middle" x="635" y="-128.5" font-family="Helvetica,sans-Serif" font-size="10.00">MojDbLevelDatabase</text>
</a>
</g>
<!-- Node4&#45;&gt;Node7 -->
<g id="edge12" class="edge"><title>Node4&#45;&gt;Node7</title>
<path fill="none" stroke="midnightblue" d="M541.972,-142.075C553.464,-140.707 565.184,-139.311 576.258,-137.993"/>
<polygon fill="midnightblue" stroke="midnightblue" points="541.469,-138.61 531.953,-143.267 542.297,-145.561 541.469,-138.61"/>
</g>
<!-- Node9 -->
<g id="node17" class="node"><title>Node9</title>
<a xlink:href="classMojDbBerkeleyIndex.htm" target="_top" xlink:title="MojDbBerkeleyIndex">
<polygon fill="white" stroke="black" points="578,-80.5 578,-101.5 692,-101.5 692,-80.5 578,-80.5"/>
<text text-anchor="middle" x="635" y="-88.5" font-family="Helvetica,sans-Serif" font-size="10.00">MojDbBerkeleyIndex</text>
</a>
</g>
<!-- Node8&#45;&gt;Node9 -->
<g id="edge16" class="edge"><title>Node8&#45;&gt;Node9</title>
<path fill="none" stroke="midnightblue" d="M532.261,-78.7692C547.3,-80.5596 563.184,-82.4505 577.848,-84.1962"/>
<polygon fill="midnightblue" stroke="midnightblue" points="532.353,-75.2555 522.009,-77.5487 531.526,-82.2064 532.353,-75.2555"/>
</g>
<!-- Node10 -->
<g id="node19" class="node"><title>Node10</title>
<a xlink:href="classMojDbInnoIndex.htm" target="_top" xlink:title="MojDbInnoIndex">
<polygon fill="white" stroke="black" points="588,-40.5 588,-61.5 682,-61.5 682,-40.5 588,-40.5"/>
<text text-anchor="middle" x="635" y="-48.5" font-family="Helvetica,sans-Serif" font-size="10.00">MojDbInnoIndex</text>
</a>
</g>
<!-- Node8&#45;&gt;Node10 -->
<g id="edge18" class="edge"><title>Node8&#45;&gt;Node10</title>
<path fill="none" stroke="midnightblue" d="M532.15,-63.2441C550.685,-61.0374 570.512,-58.6771 587.763,-56.6235"/>
<polygon fill="midnightblue" stroke="midnightblue" points="531.526,-59.7936 522.009,-64.4513 532.353,-66.7445 531.526,-59.7936"/>
</g>
<!-- Node11 -->
<g id="node21" class="node"><title>Node11</title>
<a xlink:href="classMojDbLevelIndex.htm" target="_top" xlink:title="MojDbLevelIndex">
<polygon fill="white" stroke="black" points="586,-0.5 586,-21.5 684,-21.5 684,-0.5 586,-0.5"/>
<text text-anchor="middle" x="635" y="-8.5" font-family="Helvetica,sans-Serif" font-size="10.00">MojDbLevelIndex</text>
</a>
</g>
<!-- Node8&#45;&gt;Node11 -->
<g id="edge20" class="edge"><title>Node8&#45;&gt;Node11</title>
<path fill="none" stroke="midnightblue" d="M501.427,-56.5041C520.826,-48.5541 545.59,-38.7657 568,-31 577.52,-27.7009 587.91,-24.4388 597.605,-21.5363"/>
<polygon fill="midnightblue" stroke="midnightblue" points="500,-53.3068 492.091,-60.3575 502.67,-59.7773 500,-53.3068"/>
</g>
</g>
</svg>
