<?xml version="1.0" encoding="UTF-8" standalone="no"?>
<!DOCTYPE svg PUBLIC "-//W3C//DTD SVG 1.1//EN"
 "http://www.w3.org/Graphics/SVG/1.1/DTD/svg11.dtd">
<!-- Generated by graphviz version 2.26.3 (20100126.1600)
 -->
<!-- Title: MojAutoFreePtr&lt; T &gt; Pages: 1 -->
<svg width="140pt" height="236pt"
 viewBox="0.00 0.00 140.00 236.00" xmlns="http://www.w3.org/2000/svg" xmlns:xlink="http://www.w3.org/1999/xlink">
<g id="graph1" class="graph" transform="scale(1 1) rotate(0) translate(4 232)">
<title>MojAutoFreePtr&lt; T &gt;</title>
<polygon fill="white" stroke="white" points="-4,5 -4,-232 137,-232 137,5 -4,5"/>
<!-- Node1 -->
<g id="node1" class="node"><title>Node1</title>
<polygon fill="#bfbfbf" stroke="black" points="12.5,-0.5 12.5,-21.5 127.5,-21.5 127.5,-0.5 12.5,-0.5"/>
<text text-anchor="middle" x="70" y="-8.5" font-family="Helvetica,sans-Serif" font-size="10.00">MojAutoFreePtr&lt; T &gt;</text>
</g>
<!-- Node2 -->
<g id="node2" class="node"><title>Node2</title>
<a xlink:href="classMojAutoPtrBase.htm" target="_top" xlink:title="MojAutoPtrBase\&lt; T,\l MojFreeDtor \&gt;">
<polygon fill="white" stroke="black" points="15,-61 15,-95 125,-95 125,-61 15,-61"/>
<text text-anchor="start" x="23" y="-82" font-family="Helvetica,sans-Serif" font-size="10.00">MojAutoPtrBase&lt; T,</text>
<text text-anchor="middle" x="70" y="-69" font-family="Helvetica,sans-Serif" font-size="10.00"> MojFreeDtor &gt;</text>
</a>
</g>
<!-- Node2&#45;&gt;Node1 -->
<g id="edge2" class="edge"><title>Node2&#45;&gt;Node1</title>
<path fill="none" stroke="midnightblue" d="M70,-50.5344C70,-40.3057 70,-29.3007 70,-21.5056"/>
<polygon fill="midnightblue" stroke="midnightblue" points="66.5001,-50.7458 70,-60.7458 73.5001,-50.7459 66.5001,-50.7458"/>
</g>
<!-- Node3 -->
<g id="node4" class="node"><title>Node3</title>
<a xlink:href="classMojSmartPtrBase.htm" target="_top" xlink:title="MojSmartPtrBase\&lt; T \&gt;">
<polygon fill="white" stroke="black" points="8,-134.5 8,-155.5 132,-155.5 132,-134.5 8,-134.5"/>
<text text-anchor="middle" x="70" y="-142.5" font-family="Helvetica,sans-Serif" font-size="10.00">MojSmartPtrBase&lt; T &gt;</text>
</a>
</g>
<!-- Node3&#45;&gt;Node2 -->
<g id="edge4" class="edge"><title>Node3&#45;&gt;Node2</title>
<path fill="none" stroke="midnightblue" d="M70,-124.165C70,-114.797 70,-103.88 70,-95.0139"/>
<polygon fill="midnightblue" stroke="midnightblue" points="66.5001,-124.235 70,-134.235 73.5001,-124.235 66.5001,-124.235"/>
</g>
<!-- Node4 -->
<g id="node6" class="node"><title>Node4</title>
<a xlink:href="classMojNoCopy.htm" target="_top" xlink:title="MojNoCopy">
<polygon fill="white" stroke="black" points="0,-206.5 0,-227.5 72,-227.5 72,-206.5 0,-206.5"/>
<text text-anchor="middle" x="36" y="-214.5" font-family="Helvetica,sans-Serif" font-size="10.00">MojNoCopy</text>
</a>
</g>
<!-- Node4&#45;&gt;Node3 -->
<g id="edge6" class="edge"><title>Node4&#45;&gt;Node3</title>
<path fill="none" stroke="#8b1a1a" d="M45.4319,-197.027C51.7546,-183.637 59.8322,-166.532 64.9626,-155.667"/>
<polygon fill="#8b1a1a" stroke="#8b1a1a" points="42.1221,-195.839 41.0168,-206.376 48.4518,-198.828 42.1221,-195.839"/>
</g>
<!-- Node5 -->
<g id="node8" class="node"><title>Node5</title>
<polygon fill="white" stroke="#bfbfbf" points="89.5,-206.5 89.5,-227.5 118.5,-227.5 118.5,-206.5 89.5,-206.5"/>
<text text-anchor="middle" x="104" y="-214.5" font-family="Helvetica,sans-Serif" font-size="10.00">T</text>
</g>
<!-- Node5&#45;&gt;Node3 -->
<g id="edge8" class="edge"><title>Node5&#45;&gt;Node3</title>
<path fill="none" stroke="#9a32cd" stroke-dasharray="5,2" d="M94.5681,-197.027C88.2454,-183.637 80.1678,-166.532 75.0374,-155.667"/>
<polygon fill="#9a32cd" stroke="#9a32cd" points="91.5482,-198.828 98.9832,-206.376 97.8779,-195.839 91.5482,-198.828"/>
<text text-anchor="middle" x="102" y="-178.5" font-family="Helvetica,sans-Serif" font-size="10.00"> m_p</text>
</g>
</g>
</svg>
