<?xml version="1.0" encoding="UTF-8" standalone="no"?>
<!DOCTYPE svg PUBLIC "-//W3C//DTD SVG 1.1//EN"
 "http://www.w3.org/Graphics/SVG/1.1/DTD/svg11.dtd">
<!-- Generated by graphviz version 2.26.3 (20100126.1600)
 -->
<!-- Title: MojDbMultiExtractor Pages: 1 -->
<svg width="118pt" height="204pt"
 viewBox="0.00 0.00 118.00 204.00" xmlns="http://www.w3.org/2000/svg" xmlns:xlink="http://www.w3.org/1999/xlink">
<g id="graph1" class="graph" transform="scale(1 1) rotate(0) translate(4 200)">
<title>MojDbMultiExtractor</title>
<polygon fill="white" stroke="white" points="-4,5 -4,-200 115,-200 115,5 -4,5"/>
<!-- Node1 -->
<g id="node1" class="node"><title>Node1</title>
<polygon fill="#bfbfbf" stroke="black" points="-0.5,-0.5 -0.5,-21.5 110.5,-21.5 110.5,-0.5 -0.5,-0.5"/>
<text text-anchor="middle" x="55" y="-8.5" font-family="Helvetica,sans-Serif" font-size="10.00">MojDbMultiExtractor</text>
</g>
<!-- Node2 -->
<g id="node2" class="node"><title>Node2</title>
<a xlink:href="classMojDbExtractor.htm" target="_top" xlink:title="MojDbExtractor">
<polygon fill="white" stroke="black" points="10.5,-58.5 10.5,-79.5 99.5,-79.5 99.5,-58.5 10.5,-58.5"/>
<text text-anchor="middle" x="55" y="-66.5" font-family="Helvetica,sans-Serif" font-size="10.00">MojDbExtractor</text>
</a>
</g>
<!-- Node2&#45;&gt;Node1 -->
<g id="edge2" class="edge"><title>Node2&#45;&gt;Node1</title>
<path fill="none" stroke="midnightblue" d="M55,-48.1906C55,-39.1684 55,-28.9941 55,-21.5707"/>
<polygon fill="midnightblue" stroke="midnightblue" points="51.5001,-48.3619 55,-58.3619 58.5001,-48.3619 51.5001,-48.3619"/>
</g>
<!-- Node3 -->
<g id="node4" class="node"><title>Node3</title>
<a xlink:href="classMojRefCounted.htm" target="_top" xlink:title="MojRefCounted">
<polygon fill="white" stroke="black" points="10,-116.5 10,-137.5 100,-137.5 100,-116.5 10,-116.5"/>
<text text-anchor="middle" x="55" y="-124.5" font-family="Helvetica,sans-Serif" font-size="10.00">MojRefCounted</text>
</a>
</g>
<!-- Node3&#45;&gt;Node2 -->
<g id="edge4" class="edge"><title>Node3&#45;&gt;Node2</title>
<path fill="none" stroke="midnightblue" d="M55,-106.191C55,-97.1684 55,-86.9941 55,-79.5707"/>
<polygon fill="midnightblue" stroke="midnightblue" points="51.5001,-106.362 55,-116.362 58.5001,-106.362 51.5001,-106.362"/>
</g>
<!-- Node4 -->
<g id="node6" class="node"><title>Node4</title>
<a xlink:href="classMojNoCopy.htm" target="_top" xlink:title="MojNoCopy">
<polygon fill="white" stroke="black" points="19,-174.5 19,-195.5 91,-195.5 91,-174.5 19,-174.5"/>
<text text-anchor="middle" x="55" y="-182.5" font-family="Helvetica,sans-Serif" font-size="10.00">MojNoCopy</text>
</a>
</g>
<!-- Node4&#45;&gt;Node3 -->
<g id="edge6" class="edge"><title>Node4&#45;&gt;Node3</title>
<path fill="none" stroke="#8b1a1a" d="M55,-164.191C55,-155.168 55,-144.994 55,-137.571"/>
<polygon fill="#8b1a1a" stroke="#8b1a1a" points="51.5001,-164.362 55,-174.362 58.5001,-164.362 51.5001,-164.362"/>
</g>
</g>
</svg>
