<?xml version="1.0" encoding="UTF-8" standalone="no"?>
<!DOCTYPE svg PUBLIC "-//W3C//DTD SVG 1.1//EN"
 "http://www.w3.org/Graphics/SVG/1.1/DTD/svg11.dtd">
<!-- Generated by graphviz version 2.26.3 (20100126.1600)
 -->
<!-- Title: MojDbStorageSeq Pages: 1 -->
<svg width="326pt" height="204pt"
 viewBox="0.00 0.00 326.00 204.00" xmlns="http://www.w3.org/2000/svg" xmlns:xlink="http://www.w3.org/1999/xlink">
<g id="graph1" class="graph" transform="scale(1 1) rotate(0) translate(4 200)">
<title>MojDbStorageSeq</title>
<polygon fill="white" stroke="white" points="-4,5 -4,-200 323,-200 323,5 -4,5"/>
<!-- Node1 -->
<g id="node1" class="node"><title>Node1</title>
<polygon fill="#bfbfbf" stroke="black" points="115.5,-58.5 115.5,-79.5 218.5,-79.5 218.5,-58.5 115.5,-58.5"/>
<text text-anchor="middle" x="167" y="-66.5" font-family="Helvetica,sans-Serif" font-size="10.00">MojDbStorageSeq</text>
</g>
<!-- Node4 -->
<g id="node7" class="node"><title>Node4</title>
<a xlink:href="classMojDbBerkeleySeq.htm" target="_top" xlink:title="MojDbBerkeleySeq">
<polygon fill="white" stroke="black" points="-0.5,-0.5 -0.5,-21.5 106.5,-21.5 106.5,-0.5 -0.5,-0.5"/>
<text text-anchor="middle" x="53" y="-8.5" font-family="Helvetica,sans-Serif" font-size="10.00">MojDbBerkeleySeq</text>
</a>
</g>
<!-- Node1&#45;&gt;Node4 -->
<g id="edge6" class="edge"><title>Node1&#45;&gt;Node4</title>
<path fill="none" stroke="midnightblue" d="M137.383,-53.9319C117.456,-43.7932 91.6711,-30.6748 73.8762,-21.6212"/>
<polygon fill="midnightblue" stroke="midnightblue" points="135.856,-57.0815 146.355,-58.4966 139.03,-50.8425 135.856,-57.0815"/>
</g>
<!-- Node5 -->
<g id="node9" class="node"><title>Node5</title>
<a xlink:href="classMojDbInnoSeq.htm" target="_top" xlink:title="MojDbInnoSeq">
<polygon fill="white" stroke="black" points="124,-0.5 124,-21.5 210,-21.5 210,-0.5 124,-0.5"/>
<text text-anchor="middle" x="167" y="-8.5" font-family="Helvetica,sans-Serif" font-size="10.00">MojDbInnoSeq</text>
</a>
</g>
<!-- Node1&#45;&gt;Node5 -->
<g id="edge8" class="edge"><title>Node1&#45;&gt;Node5</title>
<path fill="none" stroke="midnightblue" d="M167,-48.1906C167,-39.1684 167,-28.9941 167,-21.5707"/>
<polygon fill="midnightblue" stroke="midnightblue" points="163.5,-48.3619 167,-58.3619 170.5,-48.3619 163.5,-48.3619"/>
</g>
<!-- Node6 -->
<g id="node11" class="node"><title>Node6</title>
<a xlink:href="classMojDbLevelSeq.htm" target="_top" xlink:title="MojDbLevelSeq">
<polygon fill="white" stroke="black" points="227.5,-0.5 227.5,-21.5 318.5,-21.5 318.5,-0.5 227.5,-0.5"/>
<text text-anchor="middle" x="273" y="-8.5" font-family="Helvetica,sans-Serif" font-size="10.00">MojDbLevelSeq</text>
</a>
</g>
<!-- Node1&#45;&gt;Node6 -->
<g id="edge10" class="edge"><title>Node1&#45;&gt;Node6</title>
<path fill="none" stroke="midnightblue" d="M195.296,-53.5175C213.752,-43.4189 237.356,-30.5032 253.681,-21.5707"/>
<polygon fill="midnightblue" stroke="midnightblue" points="193.535,-50.4913 186.442,-58.3619 196.895,-56.6322 193.535,-50.4913"/>
</g>
<!-- Node2 -->
<g id="node2" class="node"><title>Node2</title>
<a xlink:href="classMojRefCounted.htm" target="_top" xlink:title="MojRefCounted">
<polygon fill="white" stroke="black" points="122,-116.5 122,-137.5 212,-137.5 212,-116.5 122,-116.5"/>
<text text-anchor="middle" x="167" y="-124.5" font-family="Helvetica,sans-Serif" font-size="10.00">MojRefCounted</text>
</a>
</g>
<!-- Node2&#45;&gt;Node1 -->
<g id="edge2" class="edge"><title>Node2&#45;&gt;Node1</title>
<path fill="none" stroke="midnightblue" d="M167,-106.191C167,-97.1684 167,-86.9941 167,-79.5707"/>
<polygon fill="midnightblue" stroke="midnightblue" points="163.5,-106.362 167,-116.362 170.5,-106.362 163.5,-106.362"/>
</g>
<!-- Node3 -->
<g id="node4" class="node"><title>Node3</title>
<a xlink:href="classMojNoCopy.htm" target="_top" xlink:title="MojNoCopy">
<polygon fill="white" stroke="black" points="131,-174.5 131,-195.5 203,-195.5 203,-174.5 131,-174.5"/>
<text text-anchor="middle" x="167" y="-182.5" font-family="Helvetica,sans-Serif" font-size="10.00">MojNoCopy</text>
</a>
</g>
<!-- Node3&#45;&gt;Node2 -->
<g id="edge4" class="edge"><title>Node3&#45;&gt;Node2</title>
<path fill="none" stroke="#8b1a1a" d="M167,-164.191C167,-155.168 167,-144.994 167,-137.571"/>
<polygon fill="#8b1a1a" stroke="#8b1a1a" points="163.5,-164.362 167,-174.362 170.5,-164.362 163.5,-164.362"/>
</g>
</g>
</svg>
