<?xml version="1.0" encoding="UTF-8" standalone="no"?>
<!DOCTYPE svg PUBLIC "-//W3C//DTD SVG 1.1//EN"
 "http://www.w3.org/Graphics/SVG/1.1/DTD/svg11.dtd">
<!-- Generated by graphviz version 2.26.3 (20100126.1600)
 -->
<!-- Title: MojDbInnoSeq Pages: 1 -->
<svg width="197pt" height="222pt"
 viewBox="0.00 0.00 197.00 222.00" xmlns="http://www.w3.org/2000/svg" xmlns:xlink="http://www.w3.org/1999/xlink">
<g id="graph1" class="graph" transform="scale(1 1) rotate(0) translate(4 218)">
<title>MojDbInnoSeq</title>
<polygon fill="white" stroke="white" points="-4,5 -4,-218 194,-218 194,5 -4,5"/>
<!-- Node1 -->
<g id="node1" class="node"><title>Node1</title>
<polygon fill="#bfbfbf" stroke="black" points="81,-0.5 81,-21.5 167,-21.5 167,-0.5 81,-0.5"/>
<text text-anchor="middle" x="124" y="-8.5" font-family="Helvetica,sans-Serif" font-size="10.00">MojDbInnoSeq</text>
</g>
<!-- Node2 -->
<g id="node2" class="node"><title>Node2</title>
<a xlink:href="classMojDbStorageSeq.htm" target="_top" xlink:title="MojDbStorageSeq">
<polygon fill="white" stroke="black" points="-0.5,-72.5 -0.5,-93.5 102.5,-93.5 102.5,-72.5 -0.5,-72.5"/>
<text text-anchor="middle" x="51" y="-80.5" font-family="Helvetica,sans-Serif" font-size="10.00">MojDbStorageSeq</text>
</a>
</g>
<!-- Node2&#45;&gt;Node1 -->
<g id="edge2" class="edge"><title>Node2&#45;&gt;Node1</title>
<path fill="none" stroke="midnightblue" d="M68.8963,-65.3488C82.7637,-51.6714 101.521,-33.1709 113.184,-21.6674"/>
<polygon fill="midnightblue" stroke="midnightblue" points="66.4333,-62.8621 61.7714,-72.3762 71.3489,-67.8459 66.4333,-62.8621"/>
</g>
<!-- Node3 -->
<g id="node4" class="node"><title>Node3</title>
<a xlink:href="classMojRefCounted.htm" target="_top" xlink:title="MojRefCounted">
<polygon fill="white" stroke="black" points="6,-132.5 6,-153.5 96,-153.5 96,-132.5 6,-132.5"/>
<text text-anchor="middle" x="51" y="-140.5" font-family="Helvetica,sans-Serif" font-size="10.00">MojRefCounted</text>
</a>
</g>
<!-- Node3&#45;&gt;Node2 -->
<g id="edge4" class="edge"><title>Node3&#45;&gt;Node2</title>
<path fill="none" stroke="midnightblue" d="M51,-122.231C51,-112.592 51,-101.544 51,-93.6339"/>
<polygon fill="midnightblue" stroke="midnightblue" points="47.5001,-122.273 51,-132.273 54.5001,-122.273 47.5001,-122.273"/>
</g>
<!-- Node4 -->
<g id="node6" class="node"><title>Node4</title>
<a xlink:href="classMojNoCopy.htm" target="_top" xlink:title="MojNoCopy">
<polygon fill="white" stroke="black" points="15,-192.5 15,-213.5 87,-213.5 87,-192.5 15,-192.5"/>
<text text-anchor="middle" x="51" y="-200.5" font-family="Helvetica,sans-Serif" font-size="10.00">MojNoCopy</text>
</a>
</g>
<!-- Node4&#45;&gt;Node3 -->
<g id="edge6" class="edge"><title>Node4&#45;&gt;Node3</title>
<path fill="none" stroke="#8b1a1a" d="M51,-182.231C51,-172.592 51,-161.544 51,-153.634"/>
<polygon fill="#8b1a1a" stroke="#8b1a1a" points="47.5001,-182.273 51,-192.273 54.5001,-182.273 47.5001,-182.273"/>
</g>
<!-- Node5 -->
<g id="node8" class="node"><title>Node5</title>
<polygon fill="white" stroke="#bfbfbf" points="120,-72.5 120,-93.5 178,-93.5 178,-72.5 120,-72.5"/>
<text text-anchor="middle" x="149" y="-80.5" font-family="Helvetica,sans-Serif" font-size="10.00">MojInt64</text>
</g>
<!-- Node5&#45;&gt;Node1 -->
<g id="edge8" class="edge"><title>Node5&#45;&gt;Node1</title>
<path fill="none" stroke="#9a32cd" stroke-dasharray="5,2" d="M141.928,-62.6318C137.3,-49.3026 131.439,-32.4253 127.704,-21.6674"/>
<polygon fill="#9a32cd" stroke="#9a32cd" points="138.725,-64.0775 145.311,-72.3762 145.337,-61.7813 138.725,-64.0775"/>
<text text-anchor="middle" x="163.5" y="-44.5" font-family="Helvetica,sans-Serif" font-size="10.00"> Increment</text>
</g>
</g>
</svg>
