<?xml version="1.0" encoding="UTF-8" standalone="no"?>
<!DOCTYPE svg PUBLIC "-//W3C//DTD SVG 1.1//EN"
 "http://www.w3.org/Graphics/SVG/1.1/DTD/svg11.dtd">
<!-- Generated by graphviz version 2.26.3 (20100126.1600)
 -->
<!-- Title: MojAutoCloser&lt; T &gt; Pages: 1 -->
<svg width="132pt" height="218pt"
 viewBox="0.00 0.00 132.00 218.00" xmlns="http://www.w3.org/2000/svg" xmlns:xlink="http://www.w3.org/1999/xlink">
<g id="graph1" class="graph" transform="scale(1 1) rotate(0) translate(4 214)">
<title>MojAutoCloser&lt; T &gt;</title>
<polygon fill="white" stroke="white" points="-4,5 -4,-214 129,-214 129,5 -4,5"/>
<!-- Node1 -->
<g id="node1" class="node"><title>Node1</title>
<polygon fill="#bfbfbf" stroke="black" points="7,-0.5 7,-21.5 117,-21.5 117,-0.5 7,-0.5"/>
<text text-anchor="middle" x="62" y="-8.5" font-family="Helvetica,sans-Serif" font-size="10.00">MojAutoCloser&lt; T &gt;</text>
</g>
<!-- Node2 -->
<g id="node2" class="node"><title>Node2</title>
<a xlink:href="classMojAutoPtrBase.htm" target="_top" xlink:title="MojAutoPtrBase\&lt; T,\l MojCloseDtor\&lt; T \&gt; \&gt;">
<polygon fill="white" stroke="black" points="3,-59 3,-93 121,-93 121,-59 3,-59"/>
<text text-anchor="start" x="11" y="-80" font-family="Helvetica,sans-Serif" font-size="10.00">MojAutoPtrBase&lt; T,</text>
<text text-anchor="middle" x="62" y="-67" font-family="Helvetica,sans-Serif" font-size="10.00"> MojCloseDtor&lt; T &gt; &gt;</text>
</a>
</g>
<!-- Node2&#45;&gt;Node1 -->
<g id="edge2" class="edge"><title>Node2&#45;&gt;Node1</title>
<path fill="none" stroke="midnightblue" d="M62,-48.6879C62,-39.2415 62,-29.1949 62,-21.8521"/>
<polygon fill="midnightblue" stroke="midnightblue" points="58.5001,-48.922 62,-58.922 65.5001,-48.922 58.5001,-48.922"/>
</g>
<!-- Node3 -->
<g id="node4" class="node"><title>Node3</title>
<a xlink:href="classMojSmartPtrBase.htm" target="_top" xlink:title="MojSmartPtrBase\&lt; T \&gt;">
<polygon fill="white" stroke="black" points="0,-130.5 0,-151.5 124,-151.5 124,-130.5 0,-130.5"/>
<text text-anchor="middle" x="62" y="-138.5" font-family="Helvetica,sans-Serif" font-size="10.00">MojSmartPtrBase&lt; T &gt;</text>
</a>
</g>
<!-- Node3&#45;&gt;Node2 -->
<g id="edge4" class="edge"><title>Node3&#45;&gt;Node2</title>
<path fill="none" stroke="midnightblue" d="M62,-120.131C62,-111.405 62,-101.391 62,-93.1099"/>
<polygon fill="midnightblue" stroke="midnightblue" points="58.5001,-120.267 62,-130.267 65.5001,-120.267 58.5001,-120.267"/>
</g>
<!-- Node4 -->
<g id="node6" class="node"><title>Node4</title>
<a xlink:href="classMojNoCopy.htm" target="_top" xlink:title="MojNoCopy">
<polygon fill="white" stroke="black" points="26,-188.5 26,-209.5 98,-209.5 98,-188.5 26,-188.5"/>
<text text-anchor="middle" x="62" y="-196.5" font-family="Helvetica,sans-Serif" font-size="10.00">MojNoCopy</text>
</a>
</g>
<!-- Node4&#45;&gt;Node3 -->
<g id="edge6" class="edge"><title>Node4&#45;&gt;Node3</title>
<path fill="none" stroke="#8b1a1a" d="M62,-178.191C62,-169.168 62,-158.994 62,-151.571"/>
<polygon fill="#8b1a1a" stroke="#8b1a1a" points="58.5001,-178.362 62,-188.362 65.5001,-178.362 58.5001,-178.362"/>
</g>
</g>
</svg>
