<?xml version="1.0" encoding="UTF-8" standalone="no"?>
<!DOCTYPE svg PUBLIC "-//W3C//DTD SVG 1.1//EN"
 "http://www.w3.org/Graphics/SVG/1.1/DTD/svg11.dtd">
<!-- Generated by graphviz version 2.26.3 (20100126.1600)
 -->
<!-- Title: MojDbStorageEngine Pages: 1 -->
<svg width="368pt" height="204pt"
 viewBox="0.00 0.00 368.00 204.00" xmlns="http://www.w3.org/2000/svg" xmlns:xlink="http://www.w3.org/1999/xlink">
<g id="graph1" class="graph" transform="scale(1 1) rotate(0) translate(4 200)">
<title>MojDbStorageEngine</title>
<polygon fill="white" stroke="white" points="-4,5 -4,-200 365,-200 365,5 -4,5"/>
<!-- Node1 -->
<g id="node1" class="node"><title>Node1</title>
<polygon fill="#bfbfbf" stroke="black" points="129.5,-58.5 129.5,-79.5 246.5,-79.5 246.5,-58.5 129.5,-58.5"/>
<text text-anchor="middle" x="188" y="-66.5" font-family="Helvetica,sans-Serif" font-size="10.00">MojDbStorageEngine</text>
</g>
<!-- Node4 -->
<g id="node7" class="node"><title>Node4</title>
<a xlink:href="classMojDbBerkeleyEngine.htm" target="_top" xlink:title="MojDbBerkeleyEngine">
<polygon fill="white" stroke="black" points="-0.5,-0.5 -0.5,-21.5 120.5,-21.5 120.5,-0.5 -0.5,-0.5"/>
<text text-anchor="middle" x="60" y="-8.5" font-family="Helvetica,sans-Serif" font-size="10.00">MojDbBerkeleyEngine</text>
</a>
</g>
<!-- Node1&#45;&gt;Node4 -->
<g id="edge6" class="edge"><title>Node1&#45;&gt;Node4</title>
<path fill="none" stroke="midnightblue" d="M155.654,-54.3431C133.159,-44.1502 103.691,-30.7977 83.4399,-21.6212"/>
<polygon fill="midnightblue" stroke="midnightblue" points="154.267,-57.5573 164.82,-58.4966 157.156,-51.1813 154.267,-57.5573"/>
</g>
<!-- Node5 -->
<g id="node9" class="node"><title>Node5</title>
<a xlink:href="classMojDbInnoEngine.htm" target="_top" xlink:title="MojDbInnoEngine">
<polygon fill="white" stroke="black" points="137.5,-0.5 137.5,-21.5 238.5,-21.5 238.5,-0.5 137.5,-0.5"/>
<text text-anchor="middle" x="188" y="-8.5" font-family="Helvetica,sans-Serif" font-size="10.00">MojDbInnoEngine</text>
</a>
</g>
<!-- Node1&#45;&gt;Node5 -->
<g id="edge8" class="edge"><title>Node1&#45;&gt;Node5</title>
<path fill="none" stroke="midnightblue" d="M188,-48.1906C188,-39.1684 188,-28.9941 188,-21.5707"/>
<polygon fill="midnightblue" stroke="midnightblue" points="184.5,-48.3619 188,-58.3619 191.5,-48.3619 184.5,-48.3619"/>
</g>
<!-- Node6 -->
<g id="node11" class="node"><title>Node6</title>
<a xlink:href="classMojDbLevelEngine.htm" target="_top" xlink:title="MojDbLevelEngine">
<polygon fill="white" stroke="black" points="255.5,-0.5 255.5,-21.5 360.5,-21.5 360.5,-0.5 255.5,-0.5"/>
<text text-anchor="middle" x="308" y="-8.5" font-family="Helvetica,sans-Serif" font-size="10.00">MojDbLevelEngine</text>
</a>
</g>
<!-- Node1&#45;&gt;Node6 -->
<g id="edge10" class="edge"><title>Node1&#45;&gt;Node6</title>
<path fill="none" stroke="midnightblue" d="M218.891,-54.0693C239.906,-43.9121 267.209,-30.7157 286.025,-21.6212"/>
<polygon fill="midnightblue" stroke="midnightblue" points="217.211,-50.9937 209.731,-58.4966 220.258,-57.2961 217.211,-50.9937"/>
</g>
<!-- Node2 -->
<g id="node2" class="node"><title>Node2</title>
<a xlink:href="classMojRefCounted.htm" target="_top" xlink:title="MojRefCounted">
<polygon fill="white" stroke="black" points="143,-116.5 143,-137.5 233,-137.5 233,-116.5 143,-116.5"/>
<text text-anchor="middle" x="188" y="-124.5" font-family="Helvetica,sans-Serif" font-size="10.00">MojRefCounted</text>
</a>
</g>
<!-- Node2&#45;&gt;Node1 -->
<g id="edge2" class="edge"><title>Node2&#45;&gt;Node1</title>
<path fill="none" stroke="midnightblue" d="M188,-106.191C188,-97.1684 188,-86.9941 188,-79.5707"/>
<polygon fill="midnightblue" stroke="midnightblue" points="184.5,-106.362 188,-116.362 191.5,-106.362 184.5,-106.362"/>
</g>
<!-- Node3 -->
<g id="node4" class="node"><title>Node3</title>
<a xlink:href="classMojNoCopy.htm" target="_top" xlink:title="MojNoCopy">
<polygon fill="white" stroke="black" points="152,-174.5 152,-195.5 224,-195.5 224,-174.5 152,-174.5"/>
<text text-anchor="middle" x="188" y="-182.5" font-family="Helvetica,sans-Serif" font-size="10.00">MojNoCopy</text>
</a>
</g>
<!-- Node3&#45;&gt;Node2 -->
<g id="edge4" class="edge"><title>Node3&#45;&gt;Node2</title>
<path fill="none" stroke="#8b1a1a" d="M188,-164.191C188,-155.168 188,-144.994 188,-137.571"/>
<polygon fill="#8b1a1a" stroke="#8b1a1a" points="184.5,-164.362 188,-174.362 191.5,-164.362 184.5,-164.362"/>
</g>
</g>
</svg>
