<?xml version="1.0" encoding="UTF-8" standalone="no"?>
<!DOCTYPE svg PUBLIC "-//W3C//DTD SVG 1.1//EN"
 "http://www.w3.org/Graphics/SVG/1.1/DTD/svg11.dtd">
<!-- Generated by graphviz version 2.26.3 (20100126.1600)
 -->
<!-- Title: MojDbPermissionEngine Pages: 1 -->
<svg width="452pt" height="424pt"
 viewBox="0.00 0.00 452.13 424.00" xmlns="http://www.w3.org/2000/svg" xmlns:xlink="http://www.w3.org/1999/xlink">
<g id="graph1" class="graph" transform="scale(1 1) rotate(0) translate(4 420)">
<title>MojDbPermissionEngine</title>
<polygon fill="white" stroke="white" points="-4,5 -4,-420 449.133,-420 449.133,5 -4,5"/>
<!-- Node1 -->
<g id="node1" class="node"><title>Node1</title>
<polygon fill="#bfbfbf" stroke="black" points="229.633,-0.5 229.633,-21.5 360.633,-21.5 360.633,-0.5 229.633,-0.5"/>
<text text-anchor="middle" x="295.133" y="-8.5" font-family="Helvetica,sans-Serif" font-size="10.00">MojDbPermissionEngine</text>
</g>
<!-- Node2 -->
<g id="node2" class="node"><title>Node2</title>
<a xlink:href="classMojDbPutHandler.htm" target="_top" xlink:title="MojDbPutHandler">
<polygon fill="white" stroke="black" points="95.6329,-60.5 95.6329,-81.5 194.633,-81.5 194.633,-60.5 95.6329,-60.5"/>
<text text-anchor="middle" x="145.133" y="-68.5" font-family="Helvetica,sans-Serif" font-size="10.00">MojDbPutHandler</text>
</a>
</g>
<!-- Node2&#45;&gt;Node1 -->
<g id="edge2" class="edge"><title>Node2&#45;&gt;Node1</title>
<path fill="none" stroke="midnightblue" d="M181.075,-56.6231C208.035,-45.8393 244.334,-31.3197 268.674,-21.5836"/>
<polygon fill="midnightblue" stroke="midnightblue" points="179.589,-53.4477 171.605,-60.4113 182.189,-59.947 179.589,-53.4477"/>
</g>
<!-- Node3 -->
<g id="node4" class="node"><title>Node3</title>
<a xlink:href="classMojNoCopy.htm" target="_top" xlink:title="MojNoCopy">
<polygon fill="white" stroke="black" points="9.13286,-394.5 9.13286,-415.5 81.1329,-415.5 81.1329,-394.5 9.13286,-394.5"/>
<text text-anchor="middle" x="45.1329" y="-402.5" font-family="Helvetica,sans-Serif" font-size="10.00">MojNoCopy</text>
</a>
</g>
<!-- Node3&#45;&gt;Node2 -->
<g id="edge4" class="edge"><title>Node3&#45;&gt;Node2</title>
<path fill="none" stroke="#8b1a1a" d="M23.8132,-387.141C15.3545,-378.682 6.59127,-367.84 2.13286,-356 -1.31284,-346.849 0.492826,-343.639 2.13286,-334 20.617,-225.361 10.4764,-181.969 84.1329,-100 91.3434,-91.9757 101.25,-85.9735 110.983,-81.5763"/>
<polygon fill="#8b1a1a" stroke="#8b1a1a" points="21.6683,-389.927 31.3636,-394.199 26.4487,-384.814 21.6683,-389.927"/>
</g>
<!-- Node4 -->
<g id="node6" class="node"><title>Node4</title>
<a xlink:href="classMojDb.htm" target="_top" xlink:title="MojDb">
<polygon fill="white" stroke="black" points="121.633,-184.5 121.633,-205.5 168.633,-205.5 168.633,-184.5 121.633,-184.5"/>
<text text-anchor="middle" x="145.133" y="-192.5" font-family="Helvetica,sans-Serif" font-size="10.00">MojDb</text>
</a>
</g>
<!-- Node3&#45;&gt;Node4 -->
<g id="edge8" class="edge"><title>Node3&#45;&gt;Node4</title>
<path fill="none" stroke="#8b1a1a" d="M91.0915,-398.616C139.226,-390.943 210.28,-376.488 228.133,-356 247.348,-333.949 250.196,-247.407 233.133,-224 217.733,-202.874 201.94,-214.25 177.133,-206 174.457,-205.11 171.66,-204.167 168.881,-203.223"/>
<polygon fill="#8b1a1a" stroke="#8b1a1a" points="90.541,-395.16 81.1954,-400.151 91.6136,-402.077 90.541,-395.16"/>
</g>
<!-- Node7 -->
<g id="node13" class="node"><title>Node7</title>
<a xlink:href="classMojLogger.htm" target="_top" xlink:title="MojLogger">
<polygon fill="white" stroke="black" points="11.1329,-334.5 11.1329,-355.5 79.1329,-355.5 79.1329,-334.5 11.1329,-334.5"/>
<text text-anchor="middle" x="45.1329" y="-342.5" font-family="Helvetica,sans-Serif" font-size="10.00">MojLogger</text>
</a>
</g>
<!-- Node3&#45;&gt;Node7 -->
<g id="edge16" class="edge"><title>Node3&#45;&gt;Node7</title>
<path fill="none" stroke="#8b1a1a" d="M45.1329,-384.231C45.1329,-374.592 45.1329,-363.544 45.1329,-355.634"/>
<polygon fill="#8b1a1a" stroke="#8b1a1a" points="41.633,-384.273 45.1329,-394.273 48.633,-384.273 41.633,-384.273"/>
</g>
<!-- Node4&#45;&gt;Node2 -->
<g id="edge6" class="edge"><title>Node4&#45;&gt;Node2</title>
<path fill="none" stroke="#9a32cd" stroke-dasharray="5,2" d="M145.133,-174.241C145.133,-147.498 145.133,-102.022 145.133,-81.5454"/>
<polygon fill="#9a32cd" stroke="#9a32cd" points="141.633,-174.428 145.133,-184.428 148.633,-174.428 141.633,-174.428"/>
<text text-anchor="middle" x="159.633" y="-130.5" font-family="Helvetica,sans-Serif" font-size="10.00"> m_db</text>
</g>
<!-- Node5 -->
<g id="node9" class="node"><title>Node5</title>
<polygon fill="white" stroke="#bfbfbf" points="304.133,-334.5 304.133,-355.5 342.133,-355.5 342.133,-334.5 304.133,-334.5"/>
<text text-anchor="middle" x="323.133" y="-342.5" font-family="Helvetica,sans-Serif" font-size="10.00">char</text>
</g>
<!-- Node5&#45;&gt;Node1 -->
<g id="edge22" class="edge"><title>Node5&#45;&gt;Node1</title>
<path fill="none" stroke="#9a32cd" stroke-dasharray="5,2" d="M335.686,-325.296C337.104,-322.281 338.327,-319.129 339.133,-316 349.331,-276.403 343.29,-264.677 339.133,-224 331.07,-145.115 306.627,-52.3204 298.103,-21.5193"/>
<polygon fill="#9a32cd" stroke="#9a32cd" points="332.508,-323.812 330.762,-334.262 338.643,-327.182 332.508,-323.812"/>
<text text-anchor="middle" x="387.133" y="-156.5" font-family="Helvetica,sans-Serif" font-size="10.00"> PermissionsKey</text>
<text text-anchor="middle" x="387.133" y="-143.5" font-family="Helvetica,sans-Serif" font-size="10.00">AllowKey</text>
<text text-anchor="middle" x="387.133" y="-130.5" font-family="Helvetica,sans-Serif" font-size="10.00">PermissionsEnabledKey</text>
<text text-anchor="middle" x="387.133" y="-117.5" font-family="Helvetica,sans-Serif" font-size="10.00">DenyKey</text>
<text text-anchor="middle" x="387.133" y="-104.5" font-family="Helvetica,sans-Serif" font-size="10.00">WildcardOperation</text>
</g>
<!-- Node5&#45;&gt;Node4 -->
<g id="edge10" class="edge"><title>Node5&#45;&gt;Node4</title>
<path fill="none" stroke="#9a32cd" stroke-dasharray="5,2" d="M295.469,-330.172C290.063,-326.191 284.907,-321.45 281.133,-316 257.136,-281.351 288.325,-253.408 258.133,-224 231.715,-198.268 212.627,-216.01 177.133,-206 174.419,-205.235 171.598,-204.37 168.805,-203.469"/>
<polygon fill="#9a32cd" stroke="#9a32cd" points="293.733,-333.22 304.01,-335.796 297.583,-327.373 293.733,-333.22"/>
<text text-anchor="middle" x="310.133" y="-306.5" font-family="Helvetica,sans-Serif" font-size="10.00"> IdKey</text>
<text text-anchor="middle" x="310.133" y="-293.5" font-family="Helvetica,sans-Serif" font-size="10.00">DelKey</text>
<text text-anchor="middle" x="310.133" y="-280.5" font-family="Helvetica,sans-Serif" font-size="10.00">SyncKey</text>
<text text-anchor="middle" x="310.133" y="-267.5" font-family="Helvetica,sans-Serif" font-size="10.00">IgnoreIdKey</text>
<text text-anchor="middle" x="310.133" y="-254.5" font-family="Helvetica,sans-Serif" font-size="10.00">RevKey</text>
<text text-anchor="middle" x="310.133" y="-241.5" font-family="Helvetica,sans-Serif" font-size="10.00">KindKey</text>
<text text-anchor="middle" x="310.133" y="-228.5" font-family="Helvetica,sans-Serif" font-size="10.00">ConfKey</text>
</g>
<!-- Node6 -->
<g id="node11" class="node"><title>Node6</title>
<polygon fill="white" stroke="#bfbfbf" points="97.1329,-334.5 97.1329,-355.5 219.133,-355.5 219.133,-334.5 97.1329,-334.5"/>
<text text-anchor="middle" x="158.133" y="-342.5" font-family="Helvetica,sans-Serif" font-size="10.00">static const MojUInt32</text>
</g>
<!-- Node6&#45;&gt;Node4 -->
<g id="edge12" class="edge"><title>Node6&#45;&gt;Node4</title>
<path fill="none" stroke="#9a32cd" stroke-dasharray="5,2" d="M148.677,-324.922C147.633,-321.985 146.733,-318.954 146.133,-316 138.024,-276.06 141.631,-227.166 143.854,-205.826"/>
<polygon fill="#9a32cd" stroke="#9a32cd" points="145.496,-326.389 152.546,-334.297 151.967,-323.718 145.496,-326.389"/>
<text text-anchor="middle" x="189.633" y="-274" font-family="Helvetica,sans-Serif" font-size="10.00"> AutoCompactSize</text>
<text text-anchor="middle" x="189.633" y="-261" font-family="Helvetica,sans-Serif" font-size="10.00">AutoBatchSize</text>
</g>
<!-- Node7&#45;&gt;Node2 -->
<g id="edge18" class="edge"><title>Node7&#45;&gt;Node2</title>
<path fill="none" stroke="#9a32cd" stroke-dasharray="5,2" d="M46.1161,-324.109C47.7507,-299.597 52.0371,-257.987 63.1329,-224 81.8389,-166.702 121.366,-105.549 137.763,-81.5355"/>
<polygon fill="#9a32cd" stroke="#9a32cd" points="42.606,-324.184 45.5225,-334.37 49.5943,-324.588 42.606,-324.184"/>
<text text-anchor="middle" x="93.6329" y="-192.5" font-family="Helvetica,sans-Serif" font-size="10.00"> s_log</text>
</g>
<!-- Node7&#45;&gt;Node4 -->
<g id="edge14" class="edge"><title>Node7&#45;&gt;Node4</title>
<path fill="none" stroke="#9a32cd" stroke-dasharray="5,2" d="M57.4498,-325.812C59.4115,-322.572 61.3725,-319.216 63.1329,-316 84.8944,-276.241 78.5445,-259.171 107.133,-224 112.891,-216.916 120.717,-210.566 127.77,-205.626"/>
<polygon fill="#9a32cd" stroke="#9a32cd" points="54.4017,-324.085 52.0849,-334.424 60.3432,-327.787 54.4017,-324.085"/>
<text text-anchor="middle" x="121.633" y="-267.5" font-family="Helvetica,sans-Serif" font-size="10.00"> s_log</text>
</g>
<!-- Node8 -->
<g id="node17" class="node"><title>Node8</title>
<polygon fill="white" stroke="#bfbfbf" points="186.133,-184.5 186.133,-205.5 280.133,-205.5 280.133,-184.5 186.133,-184.5"/>
<text text-anchor="middle" x="233.133" y="-192.5" font-family="Helvetica,sans-Serif" font-size="10.00">const MojChar *</text>
</g>
<!-- Node8&#45;&gt;Node2 -->
<g id="edge20" class="edge"><title>Node8&#45;&gt;Node2</title>
<path fill="none" stroke="#9a32cd" stroke-dasharray="5,2" d="M224.043,-175.196C214.299,-155.11 197.579,-123.691 178.133,-100 172.616,-93.2793 165.469,-86.7934 159.237,-81.666"/>
<polygon fill="#9a32cd" stroke="#9a32cd" points="220.919,-176.776 228.364,-184.314 227.245,-173.779 220.919,-176.776"/>
<text text-anchor="middle" x="247.133" y="-137" font-family="Helvetica,sans-Serif" font-size="10.00"> m_kindId</text>
<text text-anchor="middle" x="247.133" y="-124" font-family="Helvetica,sans-Serif" font-size="10.00">m_confProp</text>
</g>
</g>
</svg>
