<?xml version="1.0" encoding="UTF-8" standalone="no"?>
<!DOCTYPE svg PUBLIC "-//W3C//DTD SVG 1.1//EN"
 "http://www.w3.org/Graphics/SVG/1.1/DTD/svg11.dtd">
<!-- Generated by graphviz version 2.26.3 (20100126.1600)
 -->
<!-- Title: MojDbPutHandler Pages: 1 -->
<svg width="467pt" height="324pt"
 viewBox="0.00 0.00 467.00 324.00" xmlns="http://www.w3.org/2000/svg" xmlns:xlink="http://www.w3.org/1999/xlink">
<g id="graph1" class="graph" transform="scale(1 1) rotate(0) translate(4 320)">
<title>MojDbPutHandler</title>
<polygon fill="white" stroke="white" points="-4,5 -4,-320 464,-320 464,5 -4,5"/>
<!-- Node1 -->
<g id="node1" class="node"><title>Node1</title>
<polygon fill="#bfbfbf" stroke="black" points="229.5,-0.5 229.5,-21.5 328.5,-21.5 328.5,-0.5 229.5,-0.5"/>
<text text-anchor="middle" x="279" y="-8.5" font-family="Helvetica,sans-Serif" font-size="10.00">MojDbPutHandler</text>
</g>
<!-- Node2 -->
<g id="node2" class="node"><title>Node2</title>
<a xlink:href="classMojNoCopy.htm" target="_top" xlink:title="MojNoCopy">
<polygon fill="white" stroke="black" points="0,-294.5 0,-315.5 72,-315.5 72,-294.5 0,-294.5"/>
<text text-anchor="middle" x="36" y="-302.5" font-family="Helvetica,sans-Serif" font-size="10.00">MojNoCopy</text>
</a>
</g>
<!-- Node2&#45;&gt;Node1 -->
<g id="edge2" class="edge"><title>Node2&#45;&gt;Node1</title>
<path fill="none" stroke="#8b1a1a" d="M28.8457,-284.306C17.8416,-248.483 1.17072,-173.965 33,-124 76.0536,-56.4158 170.878,-28.7317 229.416,-17.7783"/>
<polygon fill="#8b1a1a" stroke="#8b1a1a" points="25.6098,-285.675 32.0189,-294.111 32.2698,-283.519 25.6098,-285.675"/>
</g>
<!-- Node3 -->
<g id="node4" class="node"><title>Node3</title>
<a xlink:href="classMojDb.htm" target="_top" xlink:title="MojDb">
<polygon fill="white" stroke="black" points="140.5,-84.5 140.5,-105.5 187.5,-105.5 187.5,-84.5 140.5,-84.5"/>
<text text-anchor="middle" x="164" y="-92.5" font-family="Helvetica,sans-Serif" font-size="10.00">MojDb</text>
</a>
</g>
<!-- Node2&#45;&gt;Node3 -->
<g id="edge6" class="edge"><title>Node2&#45;&gt;Node3</title>
<path fill="none" stroke="#8b1a1a" d="M34.1458,-284.335C32.0165,-247.336 33.1129,-169.412 74,-124 82.8972,-114.118 116.575,-105.13 140.107,-99.8615"/>
<polygon fill="#8b1a1a" stroke="#8b1a1a" points="30.6628,-284.698 34.8697,-294.422 37.6448,-284.197 30.6628,-284.698"/>
</g>
<!-- Node6 -->
<g id="node11" class="node"><title>Node6</title>
<a xlink:href="classMojLogger.htm" target="_top" xlink:title="MojLogger">
<polygon fill="white" stroke="black" points="260,-234.5 260,-255.5 328,-255.5 328,-234.5 260,-234.5"/>
<text text-anchor="middle" x="294" y="-242.5" font-family="Helvetica,sans-Serif" font-size="10.00">MojLogger</text>
</a>
</g>
<!-- Node2&#45;&gt;Node6 -->
<g id="edge14" class="edge"><title>Node2&#45;&gt;Node6</title>
<path fill="none" stroke="#8b1a1a" d="M82.2213,-294.835C125.816,-285.161 192.953,-270.037 251,-256 253.846,-255.312 256.795,-254.585 259.753,-253.848"/>
<polygon fill="#8b1a1a" stroke="#8b1a1a" points="81.2134,-291.474 72.2071,-297.054 82.7274,-298.308 81.2134,-291.474"/>
</g>
<!-- Node3&#45;&gt;Node1 -->
<g id="edge4" class="edge"><title>Node3&#45;&gt;Node1</title>
<path fill="none" stroke="#9a32cd" stroke-dasharray="5,2" d="M186.783,-78.3583C209.906,-61.4685 245.001,-35.8341 264.553,-21.5523"/>
<polygon fill="#9a32cd" stroke="#9a32cd" points="184.576,-75.6366 178.565,-84.3613 188.705,-81.2892 184.576,-75.6366"/>
<text text-anchor="middle" x="253.5" y="-50.5" font-family="Helvetica,sans-Serif" font-size="10.00"> m_db</text>
</g>
<!-- Node4 -->
<g id="node7" class="node"><title>Node4</title>
<polygon fill="white" stroke="#bfbfbf" points="64,-234.5 64,-255.5 102,-255.5 102,-234.5 64,-234.5"/>
<text text-anchor="middle" x="83" y="-242.5" font-family="Helvetica,sans-Serif" font-size="10.00">char</text>
</g>
<!-- Node4&#45;&gt;Node3 -->
<g id="edge8" class="edge"><title>Node4&#45;&gt;Node3</title>
<path fill="none" stroke="#9a32cd" stroke-dasharray="5,2" d="M79.5541,-224.115C76.4557,-198.032 75.2547,-153.283 97,-124 107.277,-110.161 125.544,-102.841 140.411,-99.0199"/>
<polygon fill="#9a32cd" stroke="#9a32cd" points="76.1351,-224.939 80.9861,-234.358 83.0677,-223.97 76.1351,-224.939"/>
<text text-anchor="middle" x="126" y="-206.5" font-family="Helvetica,sans-Serif" font-size="10.00"> IdKey</text>
<text text-anchor="middle" x="126" y="-193.5" font-family="Helvetica,sans-Serif" font-size="10.00">DelKey</text>
<text text-anchor="middle" x="126" y="-180.5" font-family="Helvetica,sans-Serif" font-size="10.00">SyncKey</text>
<text text-anchor="middle" x="126" y="-167.5" font-family="Helvetica,sans-Serif" font-size="10.00">IgnoreIdKey</text>
<text text-anchor="middle" x="126" y="-154.5" font-family="Helvetica,sans-Serif" font-size="10.00">RevKey</text>
<text text-anchor="middle" x="126" y="-141.5" font-family="Helvetica,sans-Serif" font-size="10.00">KindKey</text>
<text text-anchor="middle" x="126" y="-128.5" font-family="Helvetica,sans-Serif" font-size="10.00">ConfKey</text>
</g>
<!-- Node5 -->
<g id="node9" class="node"><title>Node5</title>
<polygon fill="white" stroke="#bfbfbf" points="120,-234.5 120,-255.5 242,-255.5 242,-234.5 120,-234.5"/>
<text text-anchor="middle" x="181" y="-242.5" font-family="Helvetica,sans-Serif" font-size="10.00">static const MojUInt32</text>
</g>
<!-- Node5&#45;&gt;Node3 -->
<g id="edge10" class="edge"><title>Node5&#45;&gt;Node3</title>
<path fill="none" stroke="#9a32cd" stroke-dasharray="5,2" d="M168.47,-225.29C167.049,-222.276 165.819,-219.125 165,-216 154.619,-176.372 159.472,-126.909 162.375,-105.586"/>
<polygon fill="#9a32cd" stroke="#9a32cd" points="165.513,-227.176 173.395,-234.256 171.649,-223.806 165.513,-227.176"/>
<text text-anchor="middle" x="208.5" y="-174" font-family="Helvetica,sans-Serif" font-size="10.00"> AutoCompactSize</text>
<text text-anchor="middle" x="208.5" y="-161" font-family="Helvetica,sans-Serif" font-size="10.00">AutoBatchSize</text>
</g>
<!-- Node6&#45;&gt;Node1 -->
<g id="edge16" class="edge"><title>Node6&#45;&gt;Node1</title>
<path fill="none" stroke="#9a32cd" stroke-dasharray="5,2" d="M301.86,-224.981C302.745,-222.011 303.505,-218.954 304,-216 316.384,-142.096 291.884,-52.2268 282.471,-21.7192"/>
<polygon fill="#9a32cd" stroke="#9a32cd" points="298.536,-223.884 298.574,-234.479 305.151,-226.173 298.536,-223.884"/>
<text text-anchor="middle" x="316.5" y="-92.5" font-family="Helvetica,sans-Serif" font-size="10.00"> s_log</text>
</g>
<!-- Node6&#45;&gt;Node3 -->
<g id="edge12" class="edge"><title>Node6&#45;&gt;Node3</title>
<path fill="none" stroke="#9a32cd" stroke-dasharray="5,2" d="M280.269,-225.985C278.312,-222.753 276.468,-219.355 275,-216 258.103,-177.388 280.69,-154.875 252,-124 243.185,-114.514 210.652,-105.489 187.72,-100.098"/>
<polygon fill="#9a32cd" stroke="#9a32cd" points="277.443,-228.057 285.871,-234.477 283.286,-224.202 277.443,-228.057"/>
<text text-anchor="middle" x="289.5" y="-167.5" font-family="Helvetica,sans-Serif" font-size="10.00"> s_log</text>
</g>
<!-- Node7 -->
<g id="node15" class="node"><title>Node7</title>
<polygon fill="white" stroke="#bfbfbf" points="365,-84.5 365,-105.5 459,-105.5 459,-84.5 365,-84.5"/>
<text text-anchor="middle" x="412" y="-92.5" font-family="Helvetica,sans-Serif" font-size="10.00">const MojChar *</text>
</g>
<!-- Node7&#45;&gt;Node1 -->
<g id="edge18" class="edge"><title>Node7&#45;&gt;Node1</title>
<path fill="none" stroke="#9a32cd" stroke-dasharray="5,2" d="M388.993,-78.2613C373.226,-67.0196 351.681,-52.1066 332,-40 321.458,-33.5153 309.374,-26.8472 299.409,-21.5426"/>
<polygon fill="#9a32cd" stroke="#9a32cd" points="387.388,-81.4172 397.552,-84.407 391.471,-75.7313 387.388,-81.4172"/>
<text text-anchor="middle" x="398" y="-57" font-family="Helvetica,sans-Serif" font-size="10.00"> m_kindId</text>
<text text-anchor="middle" x="398" y="-44" font-family="Helvetica,sans-Serif" font-size="10.00">m_confProp</text>
</g>
</g>
</svg>
