<?xml version="1.0" encoding="UTF-8" standalone="no"?>
<!DOCTYPE svg PUBLIC "-//W3C//DTD SVG 1.1//EN"
 "http://www.w3.org/Graphics/SVG/1.1/DTD/svg11.dtd">
<!-- Generated by graphviz version 2.26.3 (20100126.1600)
 -->
<!-- Title: MojSignal&lt; MojTagNil, MojTagNil, MojTagNil &gt; Pages: 1 -->
<svg width="138pt" height="218pt"
 viewBox="0.00 0.00 138.00 218.00" xmlns="http://www.w3.org/2000/svg" xmlns:xlink="http://www.w3.org/1999/xlink">
<g id="graph1" class="graph" transform="scale(1 1) rotate(0) translate(4 214)">
<title>MojSignal&lt; MojTagNil, MojTagNil, MojTagNil &gt;</title>
<polygon fill="white" stroke="white" points="-4,5 -4,-214 135,-214 135,5 -4,5"/>
<!-- Node1 -->
<g id="node1" class="node"><title>Node1</title>
<polygon fill="#bfbfbf" stroke="black" points="0,-1 0,-35 130,-35 130,-1 0,-1"/>
<text text-anchor="start" x="8" y="-22" font-family="Helvetica,sans-Serif" font-size="10.00">MojSignal&lt; MojTagNil,</text>
<text text-anchor="middle" x="65" y="-9" font-family="Helvetica,sans-Serif" font-size="10.00"> MojTagNil, MojTagNil &gt;</text>
</g>
<!-- Node2 -->
<g id="node2" class="node"><title>Node2</title>
<a xlink:href="classMojSignal0.htm" target="_top" xlink:title="MojSignal0">
<polygon fill="white" stroke="black" points="30.5,-72.5 30.5,-93.5 99.5,-93.5 99.5,-72.5 30.5,-72.5"/>
<text text-anchor="middle" x="65" y="-80.5" font-family="Helvetica,sans-Serif" font-size="10.00">MojSignal0</text>
</a>
</g>
<!-- Node2&#45;&gt;Node1 -->
<g id="edge2" class="edge"><title>Node2&#45;&gt;Node1</title>
<path fill="none" stroke="midnightblue" d="M65,-62.1306C65,-53.4049 65,-43.3908 65,-35.1099"/>
<polygon fill="midnightblue" stroke="midnightblue" points="61.5001,-62.2665 65,-72.2666 68.5001,-62.2666 61.5001,-62.2665"/>
</g>
<!-- Node3 -->
<g id="node4" class="node"><title>Node3</title>
<a xlink:href="classMojSignalBase.htm" target="_top" xlink:title="MojSignalBase">
<polygon fill="white" stroke="black" points="21.5,-130.5 21.5,-151.5 108.5,-151.5 108.5,-130.5 21.5,-130.5"/>
<text text-anchor="middle" x="65" y="-138.5" font-family="Helvetica,sans-Serif" font-size="10.00">MojSignalBase</text>
</a>
</g>
<!-- Node3&#45;&gt;Node2 -->
<g id="edge4" class="edge"><title>Node3&#45;&gt;Node2</title>
<path fill="none" stroke="midnightblue" d="M65,-120.191C65,-111.168 65,-100.994 65,-93.5707"/>
<polygon fill="midnightblue" stroke="midnightblue" points="61.5001,-120.362 65,-130.362 68.5001,-120.362 61.5001,-120.362"/>
</g>
<!-- Node4 -->
<g id="node6" class="node"><title>Node4</title>
<a xlink:href="classMojNoCopy.htm" target="_top" xlink:title="MojNoCopy">
<polygon fill="white" stroke="black" points="29,-188.5 29,-209.5 101,-209.5 101,-188.5 29,-188.5"/>
<text text-anchor="middle" x="65" y="-196.5" font-family="Helvetica,sans-Serif" font-size="10.00">MojNoCopy</text>
</a>
</g>
<!-- Node4&#45;&gt;Node3 -->
<g id="edge6" class="edge"><title>Node4&#45;&gt;Node3</title>
<path fill="none" stroke="#8b1a1a" d="M65,-178.191C65,-169.168 65,-158.994 65,-151.571"/>
<polygon fill="#8b1a1a" stroke="#8b1a1a" points="61.5001,-178.362 65,-188.362 68.5001,-178.362 61.5001,-178.362"/>
</g>
</g>
</svg>
