<?xml version="1.0" encoding="UTF-8" standalone="no"?>
<!DOCTYPE svg PUBLIC "-//W3C//DTD SVG 1.1//EN"
 "http://www.w3.org/Graphics/SVG/1.1/DTD/svg11.dtd">
<!-- Generated by graphviz version 2.26.3 (20100126.1600)
 -->
<!-- Title: MojTestCase Pages: 1 -->
<svg width="123pt" height="102pt"
 viewBox="0.00 0.00 123.00 102.00" xmlns="http://www.w3.org/2000/svg" xmlns:xlink="http://www.w3.org/1999/xlink">
<g id="graph1" class="graph" transform="scale(1 1) rotate(0) translate(4 98)">
<title>MojTestCase</title>
<polygon fill="white" stroke="white" points="-4,5 -4,-98 120,-98 120,5 -4,5"/>
<!-- Node1 -->
<g id="node1" class="node"><title>Node1</title>
<polygon fill="#bfbfbf" stroke="black" points="12,-0.5 12,-21.5 92,-21.5 92,-0.5 12,-0.5"/>
<text text-anchor="middle" x="52" y="-8.5" font-family="Helvetica,sans-Serif" font-size="10.00">MojTestCase</text>
</g>
<!-- Node2 -->
<g id="node2" class="node"><title>Node2</title>
<polygon fill="white" stroke="#bfbfbf" points="0,-72.5 0,-93.5 38,-93.5 38,-72.5 0,-72.5"/>
<text text-anchor="middle" x="19" y="-80.5" font-family="Helvetica,sans-Serif" font-size="10.00">char</text>
</g>
<!-- Node2&#45;&gt;Node1 -->
<g id="edge2" class="edge"><title>Node2&#45;&gt;Node1</title>
<path fill="none" stroke="#9a32cd" stroke-dasharray="5,2" d="M16.2004,-62.0376C16.0692,-54.7749 16.9067,-46.7644 20,-40 23.305,-32.7725 29.3594,-26.5583 35.3197,-21.7573"/>
<polygon fill="#9a32cd" stroke="#9a32cd" points="12.7271,-62.5224 16.9765,-72.2277 19.7069,-61.9908 12.7271,-62.5224"/>
<text text-anchor="middle" x="42" y="-44.5" font-family="Helvetica,sans-Serif" font-size="10.00"> m_name</text>
</g>
<!-- Node3 -->
<g id="node4" class="node"><title>Node3</title>
<polygon fill="white" stroke="#bfbfbf" points="68,-72.5 68,-93.5 104,-93.5 104,-72.5 68,-72.5"/>
<text text-anchor="middle" x="86" y="-80.5" font-family="Helvetica,sans-Serif" font-size="10.00">bool</text>
</g>
<!-- Node3&#45;&gt;Node1 -->
<g id="edge4" class="edge"><title>Node3&#45;&gt;Node1</title>
<path fill="none" stroke="#9a32cd" stroke-dasharray="5,2" d="M76.5681,-63.0266C70.2454,-49.6374 62.1678,-32.5318 57.0374,-21.6674"/>
<polygon fill="#9a32cd" stroke="#9a32cd" points="73.5482,-64.8282 80.9832,-72.3762 79.8779,-61.8391 73.5482,-64.8282"/>
<text text-anchor="middle" x="93.5" y="-44.5" font-family="Helvetica,sans-Serif" font-size="10.00"> m_failed</text>
</g>
</g>
</svg>
