<?xml version="1.0" encoding="UTF-8" standalone="no"?>
<!DOCTYPE svg PUBLIC "-//W3C//DTD SVG 1.1//EN"
 "http://www.w3.org/Graphics/SVG/1.1/DTD/svg11.dtd">
<!-- Generated by graphviz version 2.26.3 (20100126.1600)
 -->
<!-- Title: MojDbServiceDefs Pages: 1 -->
<svg width="151pt" height="232pt"
 viewBox="0.00 0.00 151.00 232.00" xmlns="http://www.w3.org/2000/svg" xmlns:xlink="http://www.w3.org/1999/xlink">
<g id="graph1" class="graph" transform="scale(1 1) rotate(0) translate(4 228)">
<title>MojDbServiceDefs</title>
<polygon fill="white" stroke="white" points="-4,5 -4,-228 148,-228 148,5 -4,5"/>
<!-- Node1 -->
<g id="node1" class="node"><title>Node1</title>
<polygon fill="#bfbfbf" stroke="black" points="0,-0.5 0,-21.5 104,-21.5 104,-0.5 0,-0.5"/>
<text text-anchor="middle" x="52" y="-8.5" font-family="Helvetica,sans-Serif" font-size="10.00">MojDbServiceDefs</text>
</g>
<!-- Node2 -->
<g id="node2" class="node"><title>Node2</title>
<polygon fill="white" stroke="#bfbfbf" points="33,-202.5 33,-223.5 71,-223.5 71,-202.5 33,-202.5"/>
<text text-anchor="middle" x="52" y="-210.5" font-family="Helvetica,sans-Serif" font-size="10.00">char</text>
</g>
<!-- Node2&#45;&gt;Node1 -->
<g id="edge2" class="edge"><title>Node2&#45;&gt;Node1</title>
<path fill="none" stroke="#9a32cd" stroke-dasharray="5,2" d="M52,-192.158C52,-149.662 52,-54.2937 52,-21.9612"/>
<polygon fill="#9a32cd" stroke="#9a32cd" points="48.5001,-192.424 52,-202.424 55.5001,-192.424 48.5001,-192.424"/>
<text text-anchor="middle" x="97.5" y="-174.5" font-family="Helvetica,sans-Serif" font-size="10.00"> AllowValue</text>
<text text-anchor="middle" x="97.5" y="-161.5" font-family="Helvetica,sans-Serif" font-size="10.00">SizeKey</text>
<text text-anchor="middle" x="97.5" y="-148.5" font-family="Helvetica,sans-Serif" font-size="10.00">ObjectsKey</text>
<text text-anchor="middle" x="97.5" y="-135.5" font-family="Helvetica,sans-Serif" font-size="10.00">IdKey</text>
<text text-anchor="middle" x="97.5" y="-122.5" font-family="Helvetica,sans-Serif" font-size="10.00">ServiceName</text>
<text text-anchor="middle" x="97.5" y="-109.5" font-family="Helvetica,sans-Serif" font-size="10.00">PreRestoreMethod</text>
<text text-anchor="middle" x="97.5" y="-96.5" font-family="Helvetica,sans-Serif" font-size="10.00">PrevKey</text>
<text text-anchor="middle" x="97.5" y="-83.5" font-family="Helvetica,sans-Serif" font-size="10.00">OwnerKey</text>
<text text-anchor="middle" x="97.5" y="-70.5" font-family="Helvetica,sans-Serif" font-size="10.00">KindNameKey</text>
<text text-anchor="middle" x="97.5" y="-57.5" font-family="Helvetica,sans-Serif" font-size="10.00">DirKey</text>
<text text-anchor="middle" x="97.5" y="-44.5" font-family="Helvetica,sans-Serif" font-size="10.00">...</text>
</g>
</g>
</svg>
