<?xml version="1.0" encoding="UTF-8" standalone="no"?>
<!DOCTYPE svg PUBLIC "-//W3C//DTD SVG 1.1//EN"
 "http://www.w3.org/Graphics/SVG/1.1/DTD/svg11.dtd">
<!-- Generated by graphviz version 2.26.3 (20100126.1600)
 -->
<!-- Title: MojSignal1&lt; ARG1 &gt;::Slot&lt; THANDLER &gt; Pages: 1 -->
<svg width="142pt" height="290pt"
 viewBox="0.00 0.00 142.00 290.00" xmlns="http://www.w3.org/2000/svg" xmlns:xlink="http://www.w3.org/1999/xlink">
<g id="graph1" class="graph" transform="scale(1 1) rotate(0) translate(4 286)">
<title>MojSignal1&lt; ARG1 &gt;::Slot&lt; THANDLER &gt;</title>
<polygon fill="white" stroke="white" points="-4,5 -4,-286 139,-286 139,5 -4,5"/>
<!-- Node1 -->
<g id="node1" class="node"><title>Node1</title>
<polygon fill="#bfbfbf" stroke="black" points="9,-1 9,-35 125,-35 125,-1 9,-1"/>
<text text-anchor="start" x="17" y="-22" font-family="Helvetica,sans-Serif" font-size="10.00">MojSignal1&lt; ARG1 &gt;</text>
<text text-anchor="middle" x="67" y="-9" font-family="Helvetica,sans-Serif" font-size="10.00">::Slot&lt; THANDLER &gt;</text>
</g>
<!-- Node2 -->
<g id="node2" class="node"><title>Node2</title>
<a xlink:href="classMojSlot1.htm" target="_top" xlink:title="MojSlot1\&lt; THANDLER,\l TARG1 \&gt;">
<polygon fill="white" stroke="black" points="4.5,-73 4.5,-107 129.5,-107 129.5,-73 4.5,-73"/>
<text text-anchor="start" x="12.5" y="-94" font-family="Helvetica,sans-Serif" font-size="10.00">MojSlot1&lt; THANDLER,</text>
<text text-anchor="middle" x="67" y="-81" font-family="Helvetica,sans-Serif" font-size="10.00"> TARG1 &gt;</text>
</a>
</g>
<!-- Node2&#45;&gt;Node1 -->
<g id="edge2" class="edge"><title>Node2&#45;&gt;Node1</title>
<path fill="none" stroke="midnightblue" d="M67,-62.7193C67,-53.572 67,-43.6255 67,-35.4407"/>
<polygon fill="midnightblue" stroke="midnightblue" points="63.5001,-62.937 67,-72.937 70.5001,-62.937 63.5001,-62.937"/>
</g>
<!-- Node3 -->
<g id="node4" class="node"><title>Node3</title>
<a xlink:href="classMojSlotBase1.htm" target="_top" xlink:title="MojSlotBase1\&lt; TARG1 \&gt;">
<polygon fill="white" stroke="black" points="-0.5,-144.5 -0.5,-165.5 134.5,-165.5 134.5,-144.5 -0.5,-144.5"/>
<text text-anchor="middle" x="67" y="-152.5" font-family="Helvetica,sans-Serif" font-size="10.00">MojSlotBase1&lt; TARG1 &gt;</text>
</a>
</g>
<!-- Node3&#45;&gt;Node2 -->
<g id="edge4" class="edge"><title>Node3&#45;&gt;Node2</title>
<path fill="none" stroke="midnightblue" d="M67,-134.131C67,-125.405 67,-115.391 67,-107.11"/>
<polygon fill="midnightblue" stroke="midnightblue" points="63.5001,-134.267 67,-144.267 70.5001,-134.267 63.5001,-134.267"/>
</g>
<!-- Node4 -->
<g id="node6" class="node"><title>Node4</title>
<a xlink:href="classMojSlotBase.htm" target="_top" xlink:title="MojSlotBase">
<polygon fill="white" stroke="black" points="29,-202.5 29,-223.5 105,-223.5 105,-202.5 29,-202.5"/>
<text text-anchor="middle" x="67" y="-210.5" font-family="Helvetica,sans-Serif" font-size="10.00">MojSlotBase</text>
</a>
</g>
<!-- Node4&#45;&gt;Node3 -->
<g id="edge6" class="edge"><title>Node4&#45;&gt;Node3</title>
<path fill="none" stroke="midnightblue" d="M67,-192.191C67,-183.168 67,-172.994 67,-165.571"/>
<polygon fill="midnightblue" stroke="midnightblue" points="63.5001,-192.362 67,-202.362 70.5001,-192.362 63.5001,-192.362"/>
</g>
<!-- Node5 -->
<g id="node8" class="node"><title>Node5</title>
<a xlink:href="classMojNoCopy.htm" target="_top" xlink:title="MojNoCopy">
<polygon fill="white" stroke="black" points="31,-260.5 31,-281.5 103,-281.5 103,-260.5 31,-260.5"/>
<text text-anchor="middle" x="67" y="-268.5" font-family="Helvetica,sans-Serif" font-size="10.00">MojNoCopy</text>
</a>
</g>
<!-- Node5&#45;&gt;Node4 -->
<g id="edge8" class="edge"><title>Node5&#45;&gt;Node4</title>
<path fill="none" stroke="#8b1a1a" d="M67,-250.191C67,-241.168 67,-230.994 67,-223.571"/>
<polygon fill="#8b1a1a" stroke="#8b1a1a" points="63.5001,-250.362 67,-260.362 70.5001,-250.362 63.5001,-250.362"/>
</g>
</g>
</svg>
