<?xml version="1.0" encoding="UTF-8" standalone="no"?>
<!DOCTYPE svg PUBLIC "-//W3C//DTD SVG 1.1//EN"
 "http://www.w3.org/Graphics/SVG/1.1/DTD/svg11.dtd">
<!-- Generated by graphviz version 2.26.3 (20100126.1600)
 -->
<!-- Title: MojDbEnv Pages: 1 -->
<svg width="222pt" height="204pt"
 viewBox="0.00 0.00 222.00 204.00" xmlns="http://www.w3.org/2000/svg" xmlns:xlink="http://www.w3.org/1999/xlink">
<g id="graph1" class="graph" transform="scale(1 1) rotate(0) translate(4 200)">
<title>MojDbEnv</title>
<polygon fill="white" stroke="white" points="-4,5 -4,-200 219,-200 219,5 -4,5"/>
<!-- Node1 -->
<g id="node1" class="node"><title>Node1</title>
<polygon fill="#bfbfbf" stroke="black" points="78.5,-58.5 78.5,-79.5 143.5,-79.5 143.5,-58.5 78.5,-58.5"/>
<text text-anchor="middle" x="111" y="-66.5" font-family="Helvetica,sans-Serif" font-size="10.00">MojDbEnv</text>
</g>
<!-- Node4 -->
<g id="node7" class="node"><title>Node4</title>
<a xlink:href="classMojDbBerkeleyEnv.htm" target="_top" xlink:title="MojDbBerkeleyEnv">
<polygon fill="white" stroke="black" points="0,-0.5 0,-21.5 106,-21.5 106,-0.5 0,-0.5"/>
<text text-anchor="middle" x="53" y="-8.5" font-family="Helvetica,sans-Serif" font-size="10.00">MojDbBerkeleyEnv</text>
</a>
</g>
<!-- Node1&#45;&gt;Node4 -->
<g id="edge6" class="edge"><title>Node1&#45;&gt;Node4</title>
<path fill="none" stroke="midnightblue" d="M93.118,-51.118C83.4377,-41.4377 71.8098,-29.8098 63.5707,-21.5707"/>
<polygon fill="midnightblue" stroke="midnightblue" points="90.8159,-53.7657 100.362,-58.3619 95.7657,-48.8159 90.8159,-53.7657"/>
</g>
<!-- Node5 -->
<g id="node9" class="node"><title>Node5</title>
<a xlink:href="classMojDbLevelEnv.htm" target="_top" xlink:title="MojDbLevelEnv">
<polygon fill="white" stroke="black" points="124,-0.5 124,-21.5 214,-21.5 214,-0.5 124,-0.5"/>
<text text-anchor="middle" x="169" y="-8.5" font-family="Helvetica,sans-Serif" font-size="10.00">MojDbLevelEnv</text>
</a>
</g>
<!-- Node1&#45;&gt;Node5 -->
<g id="edge8" class="edge"><title>Node1&#45;&gt;Node5</title>
<path fill="none" stroke="midnightblue" d="M128.882,-51.118C138.562,-41.4377 150.19,-29.8098 158.429,-21.5707"/>
<polygon fill="midnightblue" stroke="midnightblue" points="126.234,-48.8159 121.638,-58.3619 131.184,-53.7657 126.234,-48.8159"/>
</g>
<!-- Node2 -->
<g id="node2" class="node"><title>Node2</title>
<a xlink:href="classMojRefCounted.htm" target="_top" xlink:title="MojRefCounted">
<polygon fill="white" stroke="black" points="66,-116.5 66,-137.5 156,-137.5 156,-116.5 66,-116.5"/>
<text text-anchor="middle" x="111" y="-124.5" font-family="Helvetica,sans-Serif" font-size="10.00">MojRefCounted</text>
</a>
</g>
<!-- Node2&#45;&gt;Node1 -->
<g id="edge2" class="edge"><title>Node2&#45;&gt;Node1</title>
<path fill="none" stroke="midnightblue" d="M111,-106.191C111,-97.1684 111,-86.9941 111,-79.5707"/>
<polygon fill="midnightblue" stroke="midnightblue" points="107.5,-106.362 111,-116.362 114.5,-106.362 107.5,-106.362"/>
</g>
<!-- Node3 -->
<g id="node4" class="node"><title>Node3</title>
<a xlink:href="classMojNoCopy.htm" target="_top" xlink:title="MojNoCopy">
<polygon fill="white" stroke="black" points="75,-174.5 75,-195.5 147,-195.5 147,-174.5 75,-174.5"/>
<text text-anchor="middle" x="111" y="-182.5" font-family="Helvetica,sans-Serif" font-size="10.00">MojNoCopy</text>
</a>
</g>
<!-- Node3&#45;&gt;Node2 -->
<g id="edge4" class="edge"><title>Node3&#45;&gt;Node2</title>
<path fill="none" stroke="#8b1a1a" d="M111,-164.191C111,-155.168 111,-144.994 111,-137.571"/>
<polygon fill="#8b1a1a" stroke="#8b1a1a" points="107.5,-164.362 111,-174.362 114.5,-164.362 107.5,-164.362"/>
</g>
</g>
</svg>
