<?xml version="1.0" encoding="UTF-8" standalone="no"?>
<!DOCTYPE svg PUBLIC "-//W3C//DTD SVG 1.1//EN"
 "http://www.w3.org/Graphics/SVG/1.1/DTD/svg11.dtd">
<!-- Generated by graphviz version 2.26.3 (20100126.1600)
 -->
<!-- Title: MojDbBerkeleyDatabase Pages: 1 -->
<svg width="140pt" height="262pt"
 viewBox="0.00 0.00 140.00 262.00" xmlns="http://www.w3.org/2000/svg" xmlns:xlink="http://www.w3.org/1999/xlink">
<g id="graph1" class="graph" transform="scale(1 1) rotate(0) translate(4 258)">
<title>MojDbBerkeleyDatabase</title>
<polygon fill="white" stroke="white" points="-4,5 -4,-258 137,-258 137,5 -4,5"/>
<!-- Node1 -->
<g id="node1" class="node"><title>Node1</title>
<polygon fill="#bfbfbf" stroke="black" points="-0.5,-0.5 -0.5,-21.5 132.5,-21.5 132.5,-0.5 -0.5,-0.5"/>
<text text-anchor="middle" x="66" y="-8.5" font-family="Helvetica,sans-Serif" font-size="10.00">MojDbBerkeleyDatabase</text>
</g>
<!-- Node2 -->
<g id="node2" class="node"><title>Node2</title>
<a xlink:href="classMojDbStorageDatabase.htm" target="_top" xlink:title="MojDbStorageDatabase">
<polygon fill="white" stroke="black" points="1.5,-58.5 1.5,-79.5 130.5,-79.5 130.5,-58.5 1.5,-58.5"/>
<text text-anchor="middle" x="66" y="-66.5" font-family="Helvetica,sans-Serif" font-size="10.00">MojDbStorageDatabase</text>
</a>
</g>
<!-- Node2&#45;&gt;Node1 -->
<g id="edge2" class="edge"><title>Node2&#45;&gt;Node1</title>
<path fill="none" stroke="midnightblue" d="M66,-48.1906C66,-39.1684 66,-28.9941 66,-21.5707"/>
<polygon fill="midnightblue" stroke="midnightblue" points="62.5001,-48.3619 66,-58.3619 69.5001,-48.3619 62.5001,-48.3619"/>
</g>
<!-- Node3 -->
<g id="node4" class="node"><title>Node3</title>
<a xlink:href="classMojDbStorageCollection.htm" target="_top" xlink:title="MojDbStorageCollection">
<polygon fill="white" stroke="black" points="0.5,-116.5 0.5,-137.5 131.5,-137.5 131.5,-116.5 0.5,-116.5"/>
<text text-anchor="middle" x="66" y="-124.5" font-family="Helvetica,sans-Serif" font-size="10.00">MojDbStorageCollection</text>
</a>
</g>
<!-- Node3&#45;&gt;Node2 -->
<g id="edge4" class="edge"><title>Node3&#45;&gt;Node2</title>
<path fill="none" stroke="midnightblue" d="M66,-106.191C66,-97.1684 66,-86.9941 66,-79.5707"/>
<polygon fill="midnightblue" stroke="midnightblue" points="62.5001,-106.362 66,-116.362 69.5001,-106.362 62.5001,-106.362"/>
</g>
<!-- Node4 -->
<g id="node6" class="node"><title>Node4</title>
<a xlink:href="classMojRefCounted.htm" target="_top" xlink:title="MojRefCounted">
<polygon fill="white" stroke="black" points="21,-174.5 21,-195.5 111,-195.5 111,-174.5 21,-174.5"/>
<text text-anchor="middle" x="66" y="-182.5" font-family="Helvetica,sans-Serif" font-size="10.00">MojRefCounted</text>
</a>
</g>
<!-- Node4&#45;&gt;Node3 -->
<g id="edge6" class="edge"><title>Node4&#45;&gt;Node3</title>
<path fill="none" stroke="midnightblue" d="M66,-164.191C66,-155.168 66,-144.994 66,-137.571"/>
<polygon fill="midnightblue" stroke="midnightblue" points="62.5001,-164.362 66,-174.362 69.5001,-164.362 62.5001,-164.362"/>
</g>
<!-- Node5 -->
<g id="node8" class="node"><title>Node5</title>
<a xlink:href="classMojNoCopy.htm" target="_top" xlink:title="MojNoCopy">
<polygon fill="white" stroke="black" points="30,-232.5 30,-253.5 102,-253.5 102,-232.5 30,-232.5"/>
<text text-anchor="middle" x="66" y="-240.5" font-family="Helvetica,sans-Serif" font-size="10.00">MojNoCopy</text>
</a>
</g>
<!-- Node5&#45;&gt;Node4 -->
<g id="edge8" class="edge"><title>Node5&#45;&gt;Node4</title>
<path fill="none" stroke="#8b1a1a" d="M66,-222.191C66,-213.168 66,-202.994 66,-195.571"/>
<polygon fill="#8b1a1a" stroke="#8b1a1a" points="62.5001,-222.362 66,-232.362 69.5001,-222.362 62.5001,-222.362"/>
</g>
</g>
</svg>
