<?xml version="1.0" encoding="UTF-8" standalone="no"?>
<!DOCTYPE svg PUBLIC "-//W3C//DTD SVG 1.1//EN"
 "http://www.w3.org/Graphics/SVG/1.1/DTD/svg11.dtd">
<!-- Generated by graphviz version 2.26.3 (20100126.1600)
 -->
<!-- Title: MojService Pages: 1 -->
<svg width="218pt" height="146pt"
 viewBox="0.00 0.00 218.00 146.00" xmlns="http://www.w3.org/2000/svg" xmlns:xlink="http://www.w3.org/1999/xlink">
<g id="graph1" class="graph" transform="scale(1 1) rotate(0) translate(4 142)">
<title>MojService</title>
<polygon fill="white" stroke="white" points="-4,5 -4,-142 215,-142 215,5 -4,5"/>
<!-- Node1 -->
<g id="node1" class="node"><title>Node1</title>
<polygon fill="#bfbfbf" stroke="black" points="68.5,-58.5 68.5,-79.5 137.5,-79.5 137.5,-58.5 68.5,-58.5"/>
<text text-anchor="middle" x="103" y="-66.5" font-family="Helvetica,sans-Serif" font-size="10.00">MojService</text>
</g>
<!-- Node3 -->
<g id="node5" class="node"><title>Node3</title>
<a xlink:href="classMojLunaService.htm" target="_top" xlink:title="MojLunaService">
<polygon fill="white" stroke="black" points="0,-0.5 0,-21.5 92,-21.5 92,-0.5 0,-0.5"/>
<text text-anchor="middle" x="46" y="-8.5" font-family="Helvetica,sans-Serif" font-size="10.00">MojLunaService</text>
</a>
</g>
<!-- Node1&#45;&gt;Node3 -->
<g id="edge4" class="edge"><title>Node1&#45;&gt;Node3</title>
<path fill="none" stroke="midnightblue" d="M85.4263,-51.118C75.913,-41.4377 64.4855,-29.8098 56.3884,-21.5707"/>
<polygon fill="midnightblue" stroke="midnightblue" points="83.0397,-53.6829 92.5453,-58.3619 88.0323,-48.7763 83.0397,-53.6829"/>
</g>
<!-- Node4 -->
<g id="node7" class="node"><title>Node4</title>
<a xlink:href="classMojSocketService.htm" target="_top" xlink:title="MojSocketService">
<polygon fill="white" stroke="black" points="109.5,-0.5 109.5,-21.5 210.5,-21.5 210.5,-0.5 109.5,-0.5"/>
<text text-anchor="middle" x="160" y="-8.5" font-family="Helvetica,sans-Serif" font-size="10.00">MojSocketService</text>
</a>
</g>
<!-- Node1&#45;&gt;Node4 -->
<g id="edge6" class="edge"><title>Node1&#45;&gt;Node4</title>
<path fill="none" stroke="midnightblue" d="M120.574,-51.118C130.087,-41.4377 141.514,-29.8098 149.612,-21.5707"/>
<polygon fill="midnightblue" stroke="midnightblue" points="117.968,-48.7763 113.455,-58.3619 122.96,-53.6829 117.968,-48.7763"/>
</g>
<!-- Node2 -->
<g id="node2" class="node"><title>Node2</title>
<a xlink:href="classMojNoCopy.htm" target="_top" xlink:title="MojNoCopy">
<polygon fill="white" stroke="black" points="67,-116.5 67,-137.5 139,-137.5 139,-116.5 67,-116.5"/>
<text text-anchor="middle" x="103" y="-124.5" font-family="Helvetica,sans-Serif" font-size="10.00">MojNoCopy</text>
</a>
</g>
<!-- Node2&#45;&gt;Node1 -->
<g id="edge2" class="edge"><title>Node2&#45;&gt;Node1</title>
<path fill="none" stroke="#8b1a1a" d="M103,-106.191C103,-97.1684 103,-86.9941 103,-79.5707"/>
<polygon fill="#8b1a1a" stroke="#8b1a1a" points="99.5001,-106.362 103,-116.362 106.5,-106.362 99.5001,-106.362"/>
</g>
</g>
</svg>
