<?xml version="1.0" encoding="UTF-8" standalone="no"?>
<!DOCTYPE svg PUBLIC "-//W3C//DTD SVG 1.1//EN"
 "http://www.w3.org/Graphics/SVG/1.1/DTD/svg11.dtd">
<!-- Generated by graphviz version 2.26.3 (20100126.1600)
 -->
<!-- Title: MojDbExtractor Pages: 1 -->
<svg width="431pt" height="174pt"
 viewBox="0.00 0.00 431.00 174.00" xmlns="http://www.w3.org/2000/svg" xmlns:xlink="http://www.w3.org/1999/xlink">
<g id="graph1" class="graph" transform="scale(1 1) rotate(0) translate(4 170)">
<title>MojDbExtractor</title>
<polygon fill="white" stroke="white" points="-4,5 -4,-170 428,-170 428,5 -4,5"/>
<!-- Node1 -->
<g id="node1" class="node"><title>Node1</title>
<polygon fill="#bfbfbf" stroke="black" points="175.5,-0.5 175.5,-21.5 264.5,-21.5 264.5,-0.5 175.5,-0.5"/>
<text text-anchor="middle" x="220" y="-8.5" font-family="Helvetica,sans-Serif" font-size="10.00">MojDbExtractor</text>
</g>
<!-- Node2 -->
<g id="node2" class="node"><title>Node2</title>
<a xlink:href="classMojRefCounted.htm" target="_top" xlink:title="MojRefCounted">
<polygon fill="white" stroke="black" points="0,-84.5 0,-105.5 90,-105.5 90,-84.5 0,-84.5"/>
<text text-anchor="middle" x="45" y="-92.5" font-family="Helvetica,sans-Serif" font-size="10.00">MojRefCounted</text>
</a>
</g>
<!-- Node2&#45;&gt;Node1 -->
<g id="edge2" class="edge"><title>Node2&#45;&gt;Node1</title>
<path fill="none" stroke="midnightblue" d="M76.4683,-79.8952C111.541,-63.0603 167.345,-36.2745 198.016,-21.5523"/>
<polygon fill="midnightblue" stroke="midnightblue" points="74.6645,-76.8786 67.1639,-84.3613 77.6937,-83.1893 74.6645,-76.8786"/>
</g>
<!-- Node3 -->
<g id="node4" class="node"><title>Node3</title>
<a xlink:href="classMojNoCopy.htm" target="_top" xlink:title="MojNoCopy">
<polygon fill="white" stroke="black" points="9,-144.5 9,-165.5 81,-165.5 81,-144.5 9,-144.5"/>
<text text-anchor="middle" x="45" y="-152.5" font-family="Helvetica,sans-Serif" font-size="10.00">MojNoCopy</text>
</a>
</g>
<!-- Node3&#45;&gt;Node2 -->
<g id="edge4" class="edge"><title>Node3&#45;&gt;Node2</title>
<path fill="none" stroke="#8b1a1a" d="M45,-134.231C45,-124.592 45,-113.544 45,-105.634"/>
<polygon fill="#8b1a1a" stroke="#8b1a1a" points="41.5001,-134.273 45,-144.273 48.5001,-134.273 41.5001,-134.273"/>
</g>
<!-- Node4 -->
<g id="node6" class="node"><title>Node4</title>
<polygon fill="white" stroke="#bfbfbf" points="108,-84.5 108,-105.5 236,-105.5 236,-84.5 108,-84.5"/>
<text text-anchor="middle" x="172" y="-92.5" font-family="Helvetica,sans-Serif" font-size="10.00">MojDbCollationStrength</text>
</g>
<!-- Node4&#45;&gt;Node1 -->
<g id="edge6" class="edge"><title>Node4&#45;&gt;Node1</title>
<path fill="none" stroke="#9a32cd" stroke-dasharray="5,2" d="M175.717,-74.3272C178.299,-63.524 182.478,-50.4202 189,-40 193.379,-33.0033 199.86,-26.578 205.766,-21.5632"/>
<polygon fill="#9a32cd" stroke="#9a32cd" points="172.278,-73.6718 173.639,-84.1788 179.127,-75.1161 172.278,-73.6718"/>
<text text-anchor="middle" x="217.5" y="-50.5" font-family="Helvetica,sans-Serif" font-size="10.00"> m_collation</text>
</g>
<!-- Node5 -->
<g id="node8" class="node"><title>Node5</title>
<a xlink:href="classMojString.htm" target="_top" xlink:title="MojString">
<polygon fill="white" stroke="black" points="254,-84.5 254,-105.5 316,-105.5 316,-84.5 254,-84.5"/>
<text text-anchor="middle" x="285" y="-92.5" font-family="Helvetica,sans-Serif" font-size="10.00">MojString</text>
</a>
</g>
<!-- Node5&#45;&gt;Node1 -->
<g id="edge8" class="edge"><title>Node5&#45;&gt;Node1</title>
<path fill="none" stroke="#9a32cd" stroke-dasharray="5,2" d="M272.262,-75.9154C264.881,-65.1496 255.244,-51.5767 246,-40 241.021,-33.765 235.108,-27.1164 230.18,-21.7603"/>
<polygon fill="#9a32cd" stroke="#9a32cd" points="269.365,-77.8796 277.873,-84.193 275.159,-73.9517 269.365,-77.8796"/>
<text text-anchor="middle" x="286" y="-50.5" font-family="Helvetica,sans-Serif" font-size="10.00"> m_name</text>
</g>
<!-- Node5&#45;&gt;Node5 -->
<g id="edge10" class="edge"><title>Node5&#45;&gt;Node5</title>
<path fill="none" stroke="#9a32cd" stroke-dasharray="5,2" d="M326.153,-99.7922C330.909,-98.9045 334,-97.3071 334,-95 334,-91.3086 326.087,-89.4341 316.102,-89.3764"/>
<polygon fill="#9a32cd" stroke="#9a32cd" points="325.779,-96.3111 316.102,-100.624 326.357,-103.287 325.779,-96.3111"/>
<text text-anchor="middle" x="350.5" y="-92.5" font-family="Helvetica,sans-Serif" font-size="10.00"> Empty</text>
</g>
<!-- Node6 -->
<g id="node11" class="node"><title>Node6</title>
<polygon fill="white" stroke="#bfbfbf" points="385,-84.5 385,-105.5 423,-105.5 423,-84.5 385,-84.5"/>
<text text-anchor="middle" x="404" y="-92.5" font-family="Helvetica,sans-Serif" font-size="10.00">char</text>
</g>
<!-- Node6&#45;&gt;Node1 -->
<g id="edge12" class="edge"><title>Node6&#45;&gt;Node1</title>
<path fill="none" stroke="#9a32cd" stroke-dasharray="5,2" d="M379.938,-78.4866C361.852,-66.6103 336.141,-50.8413 312,-40 295.653,-32.6591 276.899,-26.3885 260.606,-21.5759"/>
<polygon fill="#9a32cd" stroke="#9a32cd" points="378.39,-81.6612 388.652,-84.2957 382.273,-75.8367 378.39,-81.6612"/>
<text text-anchor="middle" x="385.5" y="-57" font-family="Helvetica,sans-Serif" font-size="10.00"> CollateKey</text>
<text text-anchor="middle" x="385.5" y="-44" font-family="Helvetica,sans-Serif" font-size="10.00">NameKey</text>
</g>
</g>
</svg>
