<?xml version="1.0" encoding="UTF-8" standalone="no"?>
<!DOCTYPE svg PUBLIC "-//W3C//DTD SVG 1.1//EN"
 "http://www.w3.org/Graphics/SVG/1.1/DTD/svg11.dtd">
<!-- Generated by graphviz version 2.26.3 (20100126.1600)
 -->
<!-- Title: MojServiceMessage Pages: 1 -->
<svg width="402pt" height="320pt"
 viewBox="0.00 0.00 402.00 320.00" xmlns="http://www.w3.org/2000/svg" xmlns:xlink="http://www.w3.org/1999/xlink">
<g id="graph1" class="graph" transform="scale(1 1) rotate(0) translate(4 316)">
<title>MojServiceMessage</title>
<polygon fill="white" stroke="white" points="-4,5 -4,-316 399,-316 399,5 -4,5"/>
<!-- Node1 -->
<g id="node1" class="node"><title>Node1</title>
<polygon fill="#bfbfbf" stroke="black" points="116.5,-58.5 116.5,-79.5 229.5,-79.5 229.5,-58.5 116.5,-58.5"/>
<text text-anchor="middle" x="173" y="-66.5" font-family="Helvetica,sans-Serif" font-size="10.00">MojServiceMessage</text>
</g>
<!-- Node6 -->
<g id="node11" class="node"><title>Node6</title>
<a xlink:href="classMojLunaMessage.htm" target="_top" xlink:title="MojLunaMessage">
<polygon fill="white" stroke="black" points="-0.5,-0.5 -0.5,-21.5 100.5,-21.5 100.5,-0.5 -0.5,-0.5"/>
<text text-anchor="middle" x="50" y="-8.5" font-family="Helvetica,sans-Serif" font-size="10.00">MojLunaMessage</text>
</a>
</g>
<!-- Node1&#45;&gt;Node6 -->
<g id="edge10" class="edge"><title>Node1&#45;&gt;Node6</title>
<path fill="none" stroke="midnightblue" d="M141.627,-54.2064C120.049,-44.031 91.8978,-30.7567 72.5243,-21.6212"/>
<polygon fill="midnightblue" stroke="midnightblue" points="140.188,-57.3972 150.726,-58.4966 143.174,-51.0658 140.188,-57.3972"/>
</g>
<!-- Node7 -->
<g id="node13" class="node"><title>Node7</title>
<a xlink:href="classMojSocketMessage.htm" target="_top" xlink:title="MojSocketMessage">
<polygon fill="white" stroke="black" points="118,-0.5 118,-21.5 228,-21.5 228,-0.5 118,-0.5"/>
<text text-anchor="middle" x="173" y="-8.5" font-family="Helvetica,sans-Serif" font-size="10.00">MojSocketMessage</text>
</a>
</g>
<!-- Node1&#45;&gt;Node7 -->
<g id="edge12" class="edge"><title>Node1&#45;&gt;Node7</title>
<path fill="none" stroke="midnightblue" d="M173,-48.1906C173,-39.1684 173,-28.9941 173,-21.5707"/>
<polygon fill="midnightblue" stroke="midnightblue" points="169.5,-48.3619 173,-58.3619 176.5,-48.3619 169.5,-48.3619"/>
</g>
<!-- Node8 -->
<g id="node15" class="node"><title>Node8</title>
<polygon fill="white" stroke="#bfbfbf" points="245.5,-0.5 245.5,-21.5 394.5,-21.5 394.5,-0.5 245.5,-0.5"/>
<text text-anchor="middle" x="320" y="-8.5" font-family="Helvetica,sans-Serif" font-size="10.00">MojSocketService::Message</text>
</g>
<!-- Node1&#45;&gt;Node8 -->
<g id="edge14" class="edge"><title>Node1&#45;&gt;Node8</title>
<path fill="none" stroke="midnightblue" d="M209.114,-54.7509C235.073,-44.5086 269.512,-30.9206 293.081,-21.6212"/>
<polygon fill="midnightblue" stroke="midnightblue" points="207.638,-51.5706 199.621,-58.4966 210.207,-58.0821 207.638,-51.5706"/>
</g>
<!-- Node2 -->
<g id="node2" class="node"><title>Node2</title>
<a xlink:href="classMojMessage.htm" target="_top" xlink:title="MojMessage">
<polygon fill="white" stroke="black" points="134.5,-116.5 134.5,-137.5 211.5,-137.5 211.5,-116.5 134.5,-116.5"/>
<text text-anchor="middle" x="173" y="-124.5" font-family="Helvetica,sans-Serif" font-size="10.00">MojMessage</text>
</a>
</g>
<!-- Node2&#45;&gt;Node1 -->
<g id="edge2" class="edge"><title>Node2&#45;&gt;Node1</title>
<path fill="none" stroke="midnightblue" d="M173,-106.191C173,-97.1684 173,-86.9941 173,-79.5707"/>
<polygon fill="midnightblue" stroke="midnightblue" points="169.5,-106.362 173,-116.362 176.5,-106.362 169.5,-106.362"/>
</g>
<!-- Node3 -->
<g id="node4" class="node"><title>Node3</title>
<a xlink:href="classMojSignalHandler.htm" target="_top" xlink:title="MojSignalHandler">
<polygon fill="white" stroke="black" points="122.5,-174.5 122.5,-195.5 223.5,-195.5 223.5,-174.5 122.5,-174.5"/>
<text text-anchor="middle" x="173" y="-182.5" font-family="Helvetica,sans-Serif" font-size="10.00">MojSignalHandler</text>
</a>
</g>
<!-- Node3&#45;&gt;Node2 -->
<g id="edge4" class="edge"><title>Node3&#45;&gt;Node2</title>
<path fill="none" stroke="midnightblue" d="M173,-164.191C173,-155.168 173,-144.994 173,-137.571"/>
<polygon fill="midnightblue" stroke="midnightblue" points="169.5,-164.362 173,-174.362 176.5,-164.362 169.5,-164.362"/>
</g>
<!-- Node4 -->
<g id="node6" class="node"><title>Node4</title>
<a xlink:href="classMojRefCounted.htm" target="_top" xlink:title="MojRefCounted">
<polygon fill="white" stroke="black" points="128,-232.5 128,-253.5 218,-253.5 218,-232.5 128,-232.5"/>
<text text-anchor="middle" x="173" y="-240.5" font-family="Helvetica,sans-Serif" font-size="10.00">MojRefCounted</text>
</a>
</g>
<!-- Node4&#45;&gt;Node3 -->
<g id="edge6" class="edge"><title>Node4&#45;&gt;Node3</title>
<path fill="none" stroke="midnightblue" d="M173,-222.191C173,-213.168 173,-202.994 173,-195.571"/>
<polygon fill="midnightblue" stroke="midnightblue" points="169.5,-222.362 173,-232.362 176.5,-222.362 169.5,-222.362"/>
</g>
<!-- Node5 -->
<g id="node8" class="node"><title>Node5</title>
<a xlink:href="classMojNoCopy.htm" target="_top" xlink:title="MojNoCopy">
<polygon fill="white" stroke="black" points="137,-290.5 137,-311.5 209,-311.5 209,-290.5 137,-290.5"/>
<text text-anchor="middle" x="173" y="-298.5" font-family="Helvetica,sans-Serif" font-size="10.00">MojNoCopy</text>
</a>
</g>
<!-- Node5&#45;&gt;Node4 -->
<g id="edge8" class="edge"><title>Node5&#45;&gt;Node4</title>
<path fill="none" stroke="#8b1a1a" d="M173,-280.191C173,-271.168 173,-260.994 173,-253.571"/>
<polygon fill="#8b1a1a" stroke="#8b1a1a" points="169.5,-280.362 173,-290.362 176.5,-280.362 169.5,-280.362"/>
</g>
</g>
</svg>
