<?xml version="1.0" encoding="UTF-8" standalone="no"?>
<!DOCTYPE svg PUBLIC "-//W3C//DTD SVG 1.1//EN"
 "http://www.w3.org/Graphics/SVG/1.1/DTD/svg11.dtd">
<!-- Generated by graphviz version 2.26.3 (20100126.1600)
 -->
<!-- Title: MojSignal&lt; TARG1, TARG2, TARG3 &gt; Pages: 1 -->
<svg width="158pt" height="232pt"
 viewBox="0.00 0.00 158.00 232.00" xmlns="http://www.w3.org/2000/svg" xmlns:xlink="http://www.w3.org/1999/xlink">
<g id="graph1" class="graph" transform="scale(1 1) rotate(0) translate(4 228)">
<title>MojSignal&lt; TARG1, TARG2, TARG3 &gt;</title>
<polygon fill="white" stroke="white" points="-4,5 -4,-228 155,-228 155,5 -4,5"/>
<!-- Node1 -->
<g id="node1" class="node"><title>Node1</title>
<polygon fill="#bfbfbf" stroke="black" points="0,-1 0,-35 150,-35 150,-1 0,-1"/>
<text text-anchor="start" x="8" y="-22" font-family="Helvetica,sans-Serif" font-size="10.00">MojSignal&lt; TARG1, TARG2,</text>
<text text-anchor="middle" x="75" y="-9" font-family="Helvetica,sans-Serif" font-size="10.00"> TARG3 &gt;</text>
</g>
<!-- Node2 -->
<g id="node2" class="node"><title>Node2</title>
<a xlink:href="classMojSignal3.htm" target="_top" xlink:title="MojSignal3\&lt; TARG1,\l TARG2, TARG3 \&gt;">
<polygon fill="white" stroke="black" points="17,-73 17,-107 133,-107 133,-73 17,-73"/>
<text text-anchor="start" x="25" y="-94" font-family="Helvetica,sans-Serif" font-size="10.00">MojSignal3&lt; TARG1,</text>
<text text-anchor="middle" x="75" y="-81" font-family="Helvetica,sans-Serif" font-size="10.00"> TARG2, TARG3 &gt;</text>
</a>
</g>
<!-- Node2&#45;&gt;Node1 -->
<g id="edge2" class="edge"><title>Node2&#45;&gt;Node1</title>
<path fill="none" stroke="midnightblue" d="M75,-62.7193C75,-53.572 75,-43.6255 75,-35.4407"/>
<polygon fill="midnightblue" stroke="midnightblue" points="71.5001,-62.937 75,-72.937 78.5001,-62.937 71.5001,-62.937"/>
</g>
<!-- Node3 -->
<g id="node4" class="node"><title>Node3</title>
<a xlink:href="classMojSignalBase.htm" target="_top" xlink:title="MojSignalBase">
<polygon fill="white" stroke="black" points="31.5,-144.5 31.5,-165.5 118.5,-165.5 118.5,-144.5 31.5,-144.5"/>
<text text-anchor="middle" x="75" y="-152.5" font-family="Helvetica,sans-Serif" font-size="10.00">MojSignalBase</text>
</a>
</g>
<!-- Node3&#45;&gt;Node2 -->
<g id="edge4" class="edge"><title>Node3&#45;&gt;Node2</title>
<path fill="none" stroke="midnightblue" d="M75,-134.131C75,-125.405 75,-115.391 75,-107.11"/>
<polygon fill="midnightblue" stroke="midnightblue" points="71.5001,-134.267 75,-144.267 78.5001,-134.267 71.5001,-134.267"/>
</g>
<!-- Node4 -->
<g id="node6" class="node"><title>Node4</title>
<a xlink:href="classMojNoCopy.htm" target="_top" xlink:title="MojNoCopy">
<polygon fill="white" stroke="black" points="39,-202.5 39,-223.5 111,-223.5 111,-202.5 39,-202.5"/>
<text text-anchor="middle" x="75" y="-210.5" font-family="Helvetica,sans-Serif" font-size="10.00">MojNoCopy</text>
</a>
</g>
<!-- Node4&#45;&gt;Node3 -->
<g id="edge6" class="edge"><title>Node4&#45;&gt;Node3</title>
<path fill="none" stroke="#8b1a1a" d="M75,-192.191C75,-183.168 75,-172.994 75,-165.571"/>
<polygon fill="#8b1a1a" stroke="#8b1a1a" points="71.5001,-192.362 75,-202.362 78.5001,-192.362 71.5001,-192.362"/>
</g>
</g>
</svg>
