<?xml version="1.0" encoding="UTF-8" standalone="no"?>
<!DOCTYPE svg PUBLIC "-//W3C//DTD SVG 1.1//EN"
 "http://www.w3.org/Graphics/SVG/1.1/DTD/svg11.dtd">
<!-- Generated by graphviz version 2.26.3 (20100126.1600)
 -->
<!-- Title: MojDbIsamQuery Pages: 1 -->
<svg width="356pt" height="262pt"
 viewBox="0.00 0.00 356.00 262.00" xmlns="http://www.w3.org/2000/svg" xmlns:xlink="http://www.w3.org/1999/xlink">
<g id="graph1" class="graph" transform="scale(1 1) rotate(0) translate(4 258)">
<title>MojDbIsamQuery</title>
<polygon fill="white" stroke="white" points="-4,5 -4,-258 353,-258 353,5 -4,5"/>
<!-- Node1 -->
<g id="node1" class="node"><title>Node1</title>
<polygon fill="#bfbfbf" stroke="black" points="133,-58.5 133,-79.5 231,-79.5 231,-58.5 133,-58.5"/>
<text text-anchor="middle" x="182" y="-66.5" font-family="Helvetica,sans-Serif" font-size="10.00">MojDbIsamQuery</text>
</g>
<!-- Node5 -->
<g id="node9" class="node"><title>Node5</title>
<a xlink:href="classMojDbBerkeleyQuery.htm" target="_top" xlink:title="MojDbBerkeleyQuery">
<polygon fill="white" stroke="black" points="0,-0.5 0,-21.5 116,-21.5 116,-0.5 0,-0.5"/>
<text text-anchor="middle" x="58" y="-8.5" font-family="Helvetica,sans-Serif" font-size="10.00">MojDbBerkeleyQuery</text>
</a>
</g>
<!-- Node1&#45;&gt;Node5 -->
<g id="edge8" class="edge"><title>Node1&#45;&gt;Node5</title>
<path fill="none" stroke="midnightblue" d="M150.372,-54.2064C128.618,-44.031 100.238,-30.7567 80.7074,-21.6212"/>
<polygon fill="midnightblue" stroke="midnightblue" points="149.004,-57.4301 159.545,-58.4966 151.969,-51.0894 149.004,-57.4301"/>
</g>
<!-- Node6 -->
<g id="node11" class="node"><title>Node6</title>
<a xlink:href="classMojDbInnoQuery.htm" target="_top" xlink:title="MojDbInnoQuery">
<polygon fill="white" stroke="black" points="134,-0.5 134,-21.5 230,-21.5 230,-0.5 134,-0.5"/>
<text text-anchor="middle" x="182" y="-8.5" font-family="Helvetica,sans-Serif" font-size="10.00">MojDbInnoQuery</text>
</a>
</g>
<!-- Node1&#45;&gt;Node6 -->
<g id="edge10" class="edge"><title>Node1&#45;&gt;Node6</title>
<path fill="none" stroke="midnightblue" d="M182,-48.1906C182,-39.1684 182,-28.9941 182,-21.5707"/>
<polygon fill="midnightblue" stroke="midnightblue" points="178.5,-48.3619 182,-58.3619 185.5,-48.3619 178.5,-48.3619"/>
</g>
<!-- Node7 -->
<g id="node13" class="node"><title>Node7</title>
<a xlink:href="classMojDbLevelQuery.htm" target="_top" xlink:title="MojDbLevelQuery">
<polygon fill="white" stroke="black" points="247.5,-0.5 247.5,-21.5 348.5,-21.5 348.5,-0.5 247.5,-0.5"/>
<text text-anchor="middle" x="298" y="-8.5" font-family="Helvetica,sans-Serif" font-size="10.00">MojDbLevelQuery</text>
</a>
</g>
<!-- Node1&#45;&gt;Node7 -->
<g id="edge12" class="edge"><title>Node1&#45;&gt;Node7</title>
<path fill="none" stroke="midnightblue" d="M212.136,-53.9319C232.414,-43.7932 258.65,-30.6748 276.758,-21.6212"/>
<polygon fill="midnightblue" stroke="midnightblue" points="210.386,-50.8939 203.007,-58.4966 213.516,-57.1549 210.386,-50.8939"/>
</g>
<!-- Node2 -->
<g id="node2" class="node"><title>Node2</title>
<a xlink:href="classMojDbStorageQuery.htm" target="_top" xlink:title="MojDbStorageQuery">
<polygon fill="white" stroke="black" points="125.5,-116.5 125.5,-137.5 238.5,-137.5 238.5,-116.5 125.5,-116.5"/>
<text text-anchor="middle" x="182" y="-124.5" font-family="Helvetica,sans-Serif" font-size="10.00">MojDbStorageQuery</text>
</a>
</g>
<!-- Node2&#45;&gt;Node1 -->
<g id="edge2" class="edge"><title>Node2&#45;&gt;Node1</title>
<path fill="none" stroke="midnightblue" d="M182,-106.191C182,-97.1684 182,-86.9941 182,-79.5707"/>
<polygon fill="midnightblue" stroke="midnightblue" points="178.5,-106.362 182,-116.362 185.5,-106.362 178.5,-106.362"/>
</g>
<!-- Node3 -->
<g id="node4" class="node"><title>Node3</title>
<a xlink:href="classMojRefCounted.htm" target="_top" xlink:title="MojRefCounted">
<polygon fill="white" stroke="black" points="137,-174.5 137,-195.5 227,-195.5 227,-174.5 137,-174.5"/>
<text text-anchor="middle" x="182" y="-182.5" font-family="Helvetica,sans-Serif" font-size="10.00">MojRefCounted</text>
</a>
</g>
<!-- Node3&#45;&gt;Node2 -->
<g id="edge4" class="edge"><title>Node3&#45;&gt;Node2</title>
<path fill="none" stroke="midnightblue" d="M182,-164.191C182,-155.168 182,-144.994 182,-137.571"/>
<polygon fill="midnightblue" stroke="midnightblue" points="178.5,-164.362 182,-174.362 185.5,-164.362 178.5,-164.362"/>
</g>
<!-- Node4 -->
<g id="node6" class="node"><title>Node4</title>
<a xlink:href="classMojNoCopy.htm" target="_top" xlink:title="MojNoCopy">
<polygon fill="white" stroke="black" points="146,-232.5 146,-253.5 218,-253.5 218,-232.5 146,-232.5"/>
<text text-anchor="middle" x="182" y="-240.5" font-family="Helvetica,sans-Serif" font-size="10.00">MojNoCopy</text>
</a>
</g>
<!-- Node4&#45;&gt;Node3 -->
<g id="edge6" class="edge"><title>Node4&#45;&gt;Node3</title>
<path fill="none" stroke="#8b1a1a" d="M182,-222.191C182,-213.168 182,-202.994 182,-195.571"/>
<polygon fill="#8b1a1a" stroke="#8b1a1a" points="178.5,-222.362 182,-232.362 185.5,-222.362 178.5,-222.362"/>
</g>
</g>
</svg>
