<?xml version="1.0" encoding="UTF-8" standalone="no"?>
<!DOCTYPE svg PUBLIC "-//W3C//DTD SVG 1.1//EN"
 "http://www.w3.org/Graphics/SVG/1.1/DTD/svg11.dtd">
<!-- Generated by graphviz version 2.26.3 (20100126.1600)
 -->
<!-- Title: MojDbRevisionSet Pages: 1 -->
<svg width="176pt" height="174pt"
 viewBox="0.00 0.00 176.00 174.00" xmlns="http://www.w3.org/2000/svg" xmlns:xlink="http://www.w3.org/1999/xlink">
<g id="graph1" class="graph" transform="scale(1 1) rotate(0) translate(4 170)">
<title>MojDbRevisionSet</title>
<polygon fill="white" stroke="white" points="-4,5 -4,-170 173,-170 173,5 -4,5"/>
<!-- Node1 -->
<g id="node1" class="node"><title>Node1</title>
<polygon fill="#bfbfbf" stroke="black" points="54.5,-0.5 54.5,-21.5 157.5,-21.5 157.5,-0.5 54.5,-0.5"/>
<text text-anchor="middle" x="106" y="-8.5" font-family="Helvetica,sans-Serif" font-size="10.00">MojDbRevisionSet</text>
</g>
<!-- Node2 -->
<g id="node2" class="node"><title>Node2</title>
<a xlink:href="classMojRefCounted.htm" target="_top" xlink:title="MojRefCounted">
<polygon fill="white" stroke="black" points="0,-84.5 0,-105.5 90,-105.5 90,-84.5 0,-84.5"/>
<text text-anchor="middle" x="45" y="-92.5" font-family="Helvetica,sans-Serif" font-size="10.00">MojRefCounted</text>
</a>
</g>
<!-- Node2&#45;&gt;Node1 -->
<g id="edge2" class="edge"><title>Node2&#45;&gt;Node1</title>
<path fill="none" stroke="midnightblue" d="M58.9112,-75.8436C71.135,-59.0108 88.4683,-35.142 98.337,-21.5523"/>
<polygon fill="midnightblue" stroke="midnightblue" points="55.7697,-74.2132 52.7257,-84.3613 61.4338,-78.3264 55.7697,-74.2132"/>
</g>
<!-- Node3 -->
<g id="node4" class="node"><title>Node3</title>
<a xlink:href="classMojNoCopy.htm" target="_top" xlink:title="MojNoCopy">
<polygon fill="white" stroke="black" points="9,-144.5 9,-165.5 81,-165.5 81,-144.5 9,-144.5"/>
<text text-anchor="middle" x="45" y="-152.5" font-family="Helvetica,sans-Serif" font-size="10.00">MojNoCopy</text>
</a>
</g>
<!-- Node3&#45;&gt;Node2 -->
<g id="edge4" class="edge"><title>Node3&#45;&gt;Node2</title>
<path fill="none" stroke="#8b1a1a" d="M45,-134.231C45,-124.592 45,-113.544 45,-105.634"/>
<polygon fill="#8b1a1a" stroke="#8b1a1a" points="41.5001,-134.273 45,-144.273 48.5001,-134.273 41.5001,-134.273"/>
</g>
<!-- Node4 -->
<g id="node6" class="node"><title>Node4</title>
<polygon fill="white" stroke="#bfbfbf" points="108,-84.5 108,-105.5 146,-105.5 146,-84.5 108,-84.5"/>
<text text-anchor="middle" x="127" y="-92.5" font-family="Helvetica,sans-Serif" font-size="10.00">char</text>
</g>
<!-- Node4&#45;&gt;Node1 -->
<g id="edge6" class="edge"><title>Node4&#45;&gt;Node1</title>
<path fill="none" stroke="#9a32cd" stroke-dasharray="5,2" d="M121.856,-74.4249C117.673,-57.6927 111.941,-34.7645 108.638,-21.5523"/>
<polygon fill="#9a32cd" stroke="#9a32cd" points="118.519,-75.5088 124.34,-84.3613 125.31,-73.811 118.519,-75.5088"/>
<text text-anchor="middle" x="143.5" y="-57" font-family="Helvetica,sans-Serif" font-size="10.00"> PropsKey</text>
<text text-anchor="middle" x="143.5" y="-44" font-family="Helvetica,sans-Serif" font-size="10.00">NameKey</text>
</g>
</g>
</svg>
