<?xml version="1.0" encoding="UTF-8" standalone="no"?>
<!DOCTYPE svg PUBLIC "-//W3C//DTD SVG 1.1//EN"
 "http://www.w3.org/Graphics/SVG/1.1/DTD/svg11.dtd">
<!-- Generated by graphviz version 2.26.3 (20100126.1600)
 -->
<!-- Title: MojDbServiceHandler Pages: 1 -->
<svg width="162pt" height="320pt"
 viewBox="0.00 0.00 162.00 320.00" xmlns="http://www.w3.org/2000/svg" xmlns:xlink="http://www.w3.org/1999/xlink">
<g id="graph1" class="graph" transform="scale(1 1) rotate(0) translate(4 316)">
<title>MojDbServiceHandler</title>
<polygon fill="white" stroke="white" points="-4,5 -4,-316 159,-316 159,5 -4,5"/>
<!-- Node1 -->
<g id="node1" class="node"><title>Node1</title>
<polygon fill="#bfbfbf" stroke="black" points="17.5,-0.5 17.5,-21.5 136.5,-21.5 136.5,-0.5 17.5,-0.5"/>
<text text-anchor="middle" x="77" y="-8.5" font-family="Helvetica,sans-Serif" font-size="10.00">MojDbServiceHandler</text>
</g>
<!-- Node2 -->
<g id="node2" class="node"><title>Node2</title>
<a xlink:href="classMojDbServiceHandlerBase.htm" target="_top" xlink:title="MojDbServiceHandlerBase">
<polygon fill="white" stroke="black" points="5.5,-58.5 5.5,-79.5 148.5,-79.5 148.5,-58.5 5.5,-58.5"/>
<text text-anchor="middle" x="77" y="-66.5" font-family="Helvetica,sans-Serif" font-size="10.00">MojDbServiceHandlerBase</text>
</a>
</g>
<!-- Node2&#45;&gt;Node1 -->
<g id="edge2" class="edge"><title>Node2&#45;&gt;Node1</title>
<path fill="none" stroke="midnightblue" d="M77,-48.1906C77,-39.1684 77,-28.9941 77,-21.5707"/>
<polygon fill="midnightblue" stroke="midnightblue" points="73.5001,-48.3619 77,-58.3619 80.5001,-48.3619 73.5001,-48.3619"/>
</g>
<!-- Node3 -->
<g id="node4" class="node"><title>Node3</title>
<a xlink:href="classMojService_1_1CategoryHandler.htm" target="_top" xlink:title="MojService::CategoryHandler">
<polygon fill="white" stroke="black" points="-0.5,-116.5 -0.5,-137.5 154.5,-137.5 154.5,-116.5 -0.5,-116.5"/>
<text text-anchor="middle" x="77" y="-124.5" font-family="Helvetica,sans-Serif" font-size="10.00">MojService::CategoryHandler</text>
</a>
</g>
<!-- Node3&#45;&gt;Node2 -->
<g id="edge4" class="edge"><title>Node3&#45;&gt;Node2</title>
<path fill="none" stroke="midnightblue" d="M77,-106.191C77,-97.1684 77,-86.9941 77,-79.5707"/>
<polygon fill="midnightblue" stroke="midnightblue" points="73.5001,-106.362 77,-116.362 80.5001,-106.362 73.5001,-106.362"/>
</g>
<!-- Node4 -->
<g id="node6" class="node"><title>Node4</title>
<a xlink:href="classMojSignalHandler.htm" target="_top" xlink:title="MojSignalHandler">
<polygon fill="white" stroke="black" points="26.5,-174.5 26.5,-195.5 127.5,-195.5 127.5,-174.5 26.5,-174.5"/>
<text text-anchor="middle" x="77" y="-182.5" font-family="Helvetica,sans-Serif" font-size="10.00">MojSignalHandler</text>
</a>
</g>
<!-- Node4&#45;&gt;Node3 -->
<g id="edge6" class="edge"><title>Node4&#45;&gt;Node3</title>
<path fill="none" stroke="midnightblue" d="M77,-164.191C77,-155.168 77,-144.994 77,-137.571"/>
<polygon fill="midnightblue" stroke="midnightblue" points="73.5001,-164.362 77,-174.362 80.5001,-164.362 73.5001,-164.362"/>
</g>
<!-- Node5 -->
<g id="node8" class="node"><title>Node5</title>
<a xlink:href="classMojRefCounted.htm" target="_top" xlink:title="MojRefCounted">
<polygon fill="white" stroke="black" points="32,-232.5 32,-253.5 122,-253.5 122,-232.5 32,-232.5"/>
<text text-anchor="middle" x="77" y="-240.5" font-family="Helvetica,sans-Serif" font-size="10.00">MojRefCounted</text>
</a>
</g>
<!-- Node5&#45;&gt;Node4 -->
<g id="edge8" class="edge"><title>Node5&#45;&gt;Node4</title>
<path fill="none" stroke="midnightblue" d="M77,-222.191C77,-213.168 77,-202.994 77,-195.571"/>
<polygon fill="midnightblue" stroke="midnightblue" points="73.5001,-222.362 77,-232.362 80.5001,-222.362 73.5001,-222.362"/>
</g>
<!-- Node6 -->
<g id="node10" class="node"><title>Node6</title>
<a xlink:href="classMojNoCopy.htm" target="_top" xlink:title="MojNoCopy">
<polygon fill="white" stroke="black" points="41,-290.5 41,-311.5 113,-311.5 113,-290.5 41,-290.5"/>
<text text-anchor="middle" x="77" y="-298.5" font-family="Helvetica,sans-Serif" font-size="10.00">MojNoCopy</text>
</a>
</g>
<!-- Node6&#45;&gt;Node5 -->
<g id="edge10" class="edge"><title>Node6&#45;&gt;Node5</title>
<path fill="none" stroke="#8b1a1a" d="M77,-280.191C77,-271.168 77,-260.994 77,-253.571"/>
<polygon fill="#8b1a1a" stroke="#8b1a1a" points="73.5001,-280.362 77,-290.362 80.5001,-280.362 73.5001,-280.362"/>
</g>
</g>
</svg>
