<?xml version="1.0" encoding="UTF-8" standalone="no"?>
<!DOCTYPE svg PUBLIC "-//W3C//DTD SVG 1.1//EN"
 "http://www.w3.org/Graphics/SVG/1.1/DTD/svg11.dtd">
<!-- Generated by graphviz version 2.26.3 (20100126.1600)
 -->
<!-- Title: MojSignal2&lt; ARG1, ARG2 &gt;::Slot&lt; THANDLER &gt; Pages: 1 -->
<svg width="148pt" height="304pt"
 viewBox="0.00 0.00 148.00 304.00" xmlns="http://www.w3.org/2000/svg" xmlns:xlink="http://www.w3.org/1999/xlink">
<g id="graph1" class="graph" transform="scale(1 1) rotate(0) translate(4 300)">
<title>MojSignal2&lt; ARG1, ARG2 &gt;::Slot&lt; THANDLER &gt;</title>
<polygon fill="white" stroke="white" points="-4,5 -4,-300 145,-300 145,5 -4,5"/>
<!-- Node1 -->
<g id="node1" class="node"><title>Node1</title>
<polygon fill="#bfbfbf" stroke="black" points="0,-1 0,-35 140,-35 140,-1 0,-1"/>
<text text-anchor="start" x="8" y="-22" font-family="Helvetica,sans-Serif" font-size="10.00">MojSignal2&lt; ARG1, ARG2</text>
<text text-anchor="middle" x="70" y="-9" font-family="Helvetica,sans-Serif" font-size="10.00"> &gt;::Slot&lt; THANDLER &gt;</text>
</g>
<!-- Node2 -->
<g id="node2" class="node"><title>Node2</title>
<a xlink:href="classMojSlot2.htm" target="_top" xlink:title="MojSlot2\&lt; THANDLER,\l TARG1, TARG2 \&gt;">
<polygon fill="white" stroke="black" points="7.5,-73 7.5,-107 132.5,-107 132.5,-73 7.5,-73"/>
<text text-anchor="start" x="15.5" y="-94" font-family="Helvetica,sans-Serif" font-size="10.00">MojSlot2&lt; THANDLER,</text>
<text text-anchor="middle" x="70" y="-81" font-family="Helvetica,sans-Serif" font-size="10.00"> TARG1, TARG2 &gt;</text>
</a>
</g>
<!-- Node2&#45;&gt;Node1 -->
<g id="edge2" class="edge"><title>Node2&#45;&gt;Node1</title>
<path fill="none" stroke="midnightblue" d="M70,-62.7193C70,-53.572 70,-43.6255 70,-35.4407"/>
<polygon fill="midnightblue" stroke="midnightblue" points="66.5001,-62.937 70,-72.937 73.5001,-62.937 66.5001,-62.937"/>
</g>
<!-- Node3 -->
<g id="node4" class="node"><title>Node3</title>
<a xlink:href="classMojSlotBase2.htm" target="_top" xlink:title="MojSlotBase2\&lt; TARG1,\l TARG2 \&gt;">
<polygon fill="white" stroke="black" points="6,-145 6,-179 134,-179 134,-145 6,-145"/>
<text text-anchor="start" x="14" y="-166" font-family="Helvetica,sans-Serif" font-size="10.00">MojSlotBase2&lt; TARG1,</text>
<text text-anchor="middle" x="70" y="-153" font-family="Helvetica,sans-Serif" font-size="10.00"> TARG2 &gt;</text>
</a>
</g>
<!-- Node3&#45;&gt;Node2 -->
<g id="edge4" class="edge"><title>Node3&#45;&gt;Node2</title>
<path fill="none" stroke="midnightblue" d="M70,-134.719C70,-125.572 70,-115.625 70,-107.441"/>
<polygon fill="midnightblue" stroke="midnightblue" points="66.5001,-134.937 70,-144.937 73.5001,-134.937 66.5001,-134.937"/>
</g>
<!-- Node4 -->
<g id="node6" class="node"><title>Node4</title>
<a xlink:href="classMojSlotBase.htm" target="_top" xlink:title="MojSlotBase">
<polygon fill="white" stroke="black" points="32,-216.5 32,-237.5 108,-237.5 108,-216.5 32,-216.5"/>
<text text-anchor="middle" x="70" y="-224.5" font-family="Helvetica,sans-Serif" font-size="10.00">MojSlotBase</text>
</a>
</g>
<!-- Node4&#45;&gt;Node3 -->
<g id="edge6" class="edge"><title>Node4&#45;&gt;Node3</title>
<path fill="none" stroke="midnightblue" d="M70,-206.131C70,-197.405 70,-187.391 70,-179.11"/>
<polygon fill="midnightblue" stroke="midnightblue" points="66.5001,-206.267 70,-216.267 73.5001,-206.267 66.5001,-206.267"/>
</g>
<!-- Node5 -->
<g id="node8" class="node"><title>Node5</title>
<a xlink:href="classMojNoCopy.htm" target="_top" xlink:title="MojNoCopy">
<polygon fill="white" stroke="black" points="34,-274.5 34,-295.5 106,-295.5 106,-274.5 34,-274.5"/>
<text text-anchor="middle" x="70" y="-282.5" font-family="Helvetica,sans-Serif" font-size="10.00">MojNoCopy</text>
</a>
</g>
<!-- Node5&#45;&gt;Node4 -->
<g id="edge8" class="edge"><title>Node5&#45;&gt;Node4</title>
<path fill="none" stroke="#8b1a1a" d="M70,-264.191C70,-255.168 70,-244.994 70,-237.571"/>
<polygon fill="#8b1a1a" stroke="#8b1a1a" points="66.5001,-264.362 70,-274.362 73.5001,-264.362 66.5001,-264.362"/>
</g>
</g>
</svg>
