<?xml version="1.0" encoding="UTF-8" standalone="no"?>
<!DOCTYPE svg PUBLIC "-//W3C//DTD SVG 1.1//EN"
 "http://www.w3.org/Graphics/SVG/1.1/DTD/svg11.dtd">
<!-- Generated by graphviz version 2.26.3 (20100126.1600)
 -->
<!-- Title: MojAutoArrayPtr&lt; T &gt; Pages: 1 -->
<svg width="140pt" height="248pt"
 viewBox="0.00 0.00 140.00 248.00" xmlns="http://www.w3.org/2000/svg" xmlns:xlink="http://www.w3.org/1999/xlink">
<g id="graph1" class="graph" transform="scale(1 1) rotate(0) translate(4 244)">
<title>MojAutoArrayPtr&lt; T &gt;</title>
<polygon fill="white" stroke="white" points="-4,5 -4,-244 137,-244 137,5 -4,5"/>
<!-- Node1 -->
<g id="node1" class="node"><title>Node1</title>
<polygon fill="#bfbfbf" stroke="black" points="10.5,-0.5 10.5,-21.5 129.5,-21.5 129.5,-0.5 10.5,-0.5"/>
<text text-anchor="middle" x="70" y="-8.5" font-family="Helvetica,sans-Serif" font-size="10.00">MojAutoArrayPtr&lt; T &gt;</text>
</g>
<!-- Node2 -->
<g id="node2" class="node"><title>Node2</title>
<a xlink:href="classMojAutoPtrBase.htm" target="_top" xlink:title="MojAutoPtrBase\&lt; T,\l MojArrayDeleteDtor\l\&lt; T \&gt; \&gt;">
<polygon fill="white" stroke="black" points="13.5,-60.5 13.5,-107.5 126.5,-107.5 126.5,-60.5 13.5,-60.5"/>
<text text-anchor="start" x="21.5" y="-94.5" font-family="Helvetica,sans-Serif" font-size="10.00">MojAutoPtrBase&lt; T,</text>
<text text-anchor="start" x="21.5" y="-81.5" font-family="Helvetica,sans-Serif" font-size="10.00"> MojArrayDeleteDtor</text>
<text text-anchor="middle" x="70" y="-68.5" font-family="Helvetica,sans-Serif" font-size="10.00">&lt; T &gt; &gt;</text>
</a>
</g>
<!-- Node2&#45;&gt;Node1 -->
<g id="edge2" class="edge"><title>Node2&#45;&gt;Node1</title>
<path fill="none" stroke="midnightblue" d="M70,-50.0345C70,-39.7609 70,-29.2182 70,-21.6832"/>
<polygon fill="midnightblue" stroke="midnightblue" points="66.5001,-50.097 70,-60.0971 73.5001,-50.0971 66.5001,-50.097"/>
</g>
<!-- Node3 -->
<g id="node4" class="node"><title>Node3</title>
<a xlink:href="classMojSmartPtrBase.htm" target="_top" xlink:title="MojSmartPtrBase\&lt; T \&gt;">
<polygon fill="white" stroke="black" points="8,-146.5 8,-167.5 132,-167.5 132,-146.5 8,-146.5"/>
<text text-anchor="middle" x="70" y="-154.5" font-family="Helvetica,sans-Serif" font-size="10.00">MojSmartPtrBase&lt; T &gt;</text>
</a>
</g>
<!-- Node3&#45;&gt;Node2 -->
<g id="edge4" class="edge"><title>Node3&#45;&gt;Node2</title>
<path fill="none" stroke="midnightblue" d="M70,-136.053C70,-127.23 70,-116.915 70,-107.805"/>
<polygon fill="midnightblue" stroke="midnightblue" points="66.5001,-136.229 70,-146.229 73.5001,-136.229 66.5001,-136.229"/>
</g>
<!-- Node4 -->
<g id="node6" class="node"><title>Node4</title>
<a xlink:href="classMojNoCopy.htm" target="_top" xlink:title="MojNoCopy">
<polygon fill="white" stroke="black" points="0,-218.5 0,-239.5 72,-239.5 72,-218.5 0,-218.5"/>
<text text-anchor="middle" x="36" y="-226.5" font-family="Helvetica,sans-Serif" font-size="10.00">MojNoCopy</text>
</a>
</g>
<!-- Node4&#45;&gt;Node3 -->
<g id="edge6" class="edge"><title>Node4&#45;&gt;Node3</title>
<path fill="none" stroke="#8b1a1a" d="M45.4319,-209.027C51.7546,-195.637 59.8322,-178.532 64.9626,-167.667"/>
<polygon fill="#8b1a1a" stroke="#8b1a1a" points="42.1221,-207.839 41.0168,-218.376 48.4518,-210.828 42.1221,-207.839"/>
</g>
<!-- Node5 -->
<g id="node8" class="node"><title>Node5</title>
<polygon fill="white" stroke="#bfbfbf" points="89.5,-218.5 89.5,-239.5 118.5,-239.5 118.5,-218.5 89.5,-218.5"/>
<text text-anchor="middle" x="104" y="-226.5" font-family="Helvetica,sans-Serif" font-size="10.00">T</text>
</g>
<!-- Node5&#45;&gt;Node3 -->
<g id="edge8" class="edge"><title>Node5&#45;&gt;Node3</title>
<path fill="none" stroke="#9a32cd" stroke-dasharray="5,2" d="M94.5681,-209.027C88.2454,-195.637 80.1678,-178.532 75.0374,-167.667"/>
<polygon fill="#9a32cd" stroke="#9a32cd" points="91.5482,-210.828 98.9832,-218.376 97.8779,-207.839 91.5482,-210.828"/>
<text text-anchor="middle" x="102" y="-190.5" font-family="Helvetica,sans-Serif" font-size="10.00"> m_p</text>
</g>
</g>
</svg>
