<?xml version="1.0" encoding="UTF-8" standalone="no"?>
<!DOCTYPE svg PUBLIC "-//W3C//DTD SVG 1.1//EN"
 "http://www.w3.org/Graphics/SVG/1.1/DTD/svg11.dtd">
<!-- Generated by graphviz version 2.26.3 (20100126.1600)
 -->
<!-- Title: MojDbInnoFactory Pages: 1 -->
<svg width="219pt" height="222pt"
 viewBox="0.00 0.00 219.00 222.00" xmlns="http://www.w3.org/2000/svg" xmlns:xlink="http://www.w3.org/1999/xlink">
<g id="graph1" class="graph" transform="scale(1 1) rotate(0) translate(4 218)">
<title>MojDbInnoFactory</title>
<polygon fill="white" stroke="white" points="-4,5 -4,-218 216,-218 216,5 -4,5"/>
<!-- Node1 -->
<g id="node1" class="node"><title>Node1</title>
<polygon fill="#bfbfbf" stroke="black" points="108.5,-0.5 108.5,-21.5 211.5,-21.5 211.5,-0.5 108.5,-0.5"/>
<text text-anchor="middle" x="160" y="-8.5" font-family="Helvetica,sans-Serif" font-size="10.00">MojDbInnoFactory</text>
</g>
<!-- Node2 -->
<g id="node2" class="node"><title>Node2</title>
<a xlink:href="classMojDbStorageEngineFactory.htm" target="_top" xlink:title="MojDbStorageEngineFactory">
<polygon fill="white" stroke="black" points="0,-72.5 0,-93.5 152,-93.5 152,-72.5 0,-72.5"/>
<text text-anchor="middle" x="76" y="-80.5" font-family="Helvetica,sans-Serif" font-size="10.00">MojDbStorageEngineFactory</text>
</a>
</g>
<!-- Node2&#45;&gt;Node1 -->
<g id="edge2" class="edge"><title>Node2&#45;&gt;Node1</title>
<path fill="none" stroke="midnightblue" d="M96.1512,-65.7275C112.15,-52.0146 134.01,-33.2774 147.555,-21.6674"/>
<polygon fill="midnightblue" stroke="midnightblue" points="93.7093,-63.2108 88.3945,-72.3762 98.2649,-68.5256 93.7093,-63.2108"/>
</g>
<!-- Node3 -->
<g id="node4" class="node"><title>Node3</title>
<a xlink:href="classMojRefCounted.htm" target="_top" xlink:title="MojRefCounted">
<polygon fill="white" stroke="black" points="31,-132.5 31,-153.5 121,-153.5 121,-132.5 31,-132.5"/>
<text text-anchor="middle" x="76" y="-140.5" font-family="Helvetica,sans-Serif" font-size="10.00">MojRefCounted</text>
</a>
</g>
<!-- Node3&#45;&gt;Node2 -->
<g id="edge4" class="edge"><title>Node3&#45;&gt;Node2</title>
<path fill="none" stroke="midnightblue" d="M76,-122.231C76,-112.592 76,-101.544 76,-93.6339"/>
<polygon fill="midnightblue" stroke="midnightblue" points="72.5001,-122.273 76,-132.273 79.5001,-122.273 72.5001,-122.273"/>
</g>
<!-- Node4 -->
<g id="node6" class="node"><title>Node4</title>
<a xlink:href="classMojNoCopy.htm" target="_top" xlink:title="MojNoCopy">
<polygon fill="white" stroke="black" points="40,-192.5 40,-213.5 112,-213.5 112,-192.5 40,-192.5"/>
<text text-anchor="middle" x="76" y="-200.5" font-family="Helvetica,sans-Serif" font-size="10.00">MojNoCopy</text>
</a>
</g>
<!-- Node4&#45;&gt;Node3 -->
<g id="edge6" class="edge"><title>Node4&#45;&gt;Node3</title>
<path fill="none" stroke="#8b1a1a" d="M76,-182.231C76,-172.592 76,-161.544 76,-153.634"/>
<polygon fill="#8b1a1a" stroke="#8b1a1a" points="72.5001,-182.273 76,-192.273 79.5001,-182.273 72.5001,-182.273"/>
</g>
<!-- Node5 -->
<g id="node8" class="node"><title>Node5</title>
<polygon fill="white" stroke="#bfbfbf" points="170,-72.5 170,-93.5 208,-93.5 208,-72.5 170,-72.5"/>
<text text-anchor="middle" x="189" y="-80.5" font-family="Helvetica,sans-Serif" font-size="10.00">char</text>
</g>
<!-- Node5&#45;&gt;Node1 -->
<g id="edge8" class="edge"><title>Node5&#45;&gt;Node1</title>
<path fill="none" stroke="#9a32cd" stroke-dasharray="5,2" d="M180.955,-63.0266C175.562,-49.6374 168.673,-32.5318 164.297,-21.6674"/>
<polygon fill="#9a32cd" stroke="#9a32cd" points="177.738,-64.4079 184.721,-72.3762 184.231,-61.7926 177.738,-64.4079"/>
<text text-anchor="middle" x="192.5" y="-44.5" font-family="Helvetica,sans-Serif" font-size="10.00"> Name</text>
</g>
</g>
</svg>
