<?xml version="1.0" encoding="UTF-8" standalone="no"?>
<!DOCTYPE svg PUBLIC "-//W3C//DTD SVG 1.1//EN"
 "http://www.w3.org/Graphics/SVG/1.1/DTD/svg11.dtd">
<!-- Generated by graphviz version 2.26.3 (20100126.1600)
 -->
<!-- Title: MojObjectBuilder Pages: 1 -->
<svg width="104pt" height="146pt"
 viewBox="0.00 0.00 104.00 146.00" xmlns="http://www.w3.org/2000/svg" xmlns:xlink="http://www.w3.org/1999/xlink">
<g id="graph1" class="graph" transform="scale(1 1) rotate(0) translate(4 142)">
<title>MojObjectBuilder</title>
<polygon fill="white" stroke="white" points="-4,5 -4,-142 101,-142 101,5 -4,5"/>
<!-- Node1 -->
<g id="node1" class="node"><title>Node1</title>
<polygon fill="#bfbfbf" stroke="black" points="0,-0.5 0,-21.5 96,-21.5 96,-0.5 0,-0.5"/>
<text text-anchor="middle" x="48" y="-8.5" font-family="Helvetica,sans-Serif" font-size="10.00">MojObjectBuilder</text>
</g>
<!-- Node2 -->
<g id="node2" class="node"><title>Node2</title>
<a xlink:href="classMojObjectVisitor.htm" target="_top" xlink:title="MojObjectVisitor">
<polygon fill="white" stroke="black" points="1.5,-58.5 1.5,-79.5 94.5,-79.5 94.5,-58.5 1.5,-58.5"/>
<text text-anchor="middle" x="48" y="-66.5" font-family="Helvetica,sans-Serif" font-size="10.00">MojObjectVisitor</text>
</a>
</g>
<!-- Node2&#45;&gt;Node1 -->
<g id="edge2" class="edge"><title>Node2&#45;&gt;Node1</title>
<path fill="none" stroke="midnightblue" d="M48,-48.1906C48,-39.1684 48,-28.9941 48,-21.5707"/>
<polygon fill="midnightblue" stroke="midnightblue" points="44.5001,-48.3619 48,-58.3619 51.5001,-48.3619 44.5001,-48.3619"/>
</g>
<!-- Node3 -->
<g id="node4" class="node"><title>Node3</title>
<a xlink:href="classMojNoCopy.htm" target="_top" xlink:title="MojNoCopy">
<polygon fill="white" stroke="black" points="12,-116.5 12,-137.5 84,-137.5 84,-116.5 12,-116.5"/>
<text text-anchor="middle" x="48" y="-124.5" font-family="Helvetica,sans-Serif" font-size="10.00">MojNoCopy</text>
</a>
</g>
<!-- Node3&#45;&gt;Node2 -->
<g id="edge4" class="edge"><title>Node3&#45;&gt;Node2</title>
<path fill="none" stroke="#8b1a1a" d="M48,-106.191C48,-97.1684 48,-86.9941 48,-79.5707"/>
<polygon fill="#8b1a1a" stroke="#8b1a1a" points="44.5001,-106.362 48,-116.362 51.5001,-106.362 44.5001,-106.362"/>
</g>
</g>
</svg>
