<?xml version="1.0" encoding="UTF-8" standalone="no"?>
<!DOCTYPE svg PUBLIC "-//W3C//DTD SVG 1.1//EN"
 "http://www.w3.org/Graphics/SVG/1.1/DTD/svg11.dtd">
<!-- Generated by graphviz version 2.26.3 (20100126.1600)
 -->
<!-- Title: MojDbInnoTuple Pages: 1 -->
<svg width="280pt" height="114pt"
 viewBox="0.00 0.00 280.00 114.00" xmlns="http://www.w3.org/2000/svg" xmlns:xlink="http://www.w3.org/1999/xlink">
<g id="graph1" class="graph" transform="scale(1 1) rotate(0) translate(4 110)">
<title>MojDbInnoTuple</title>
<polygon fill="white" stroke="white" points="-4,5 -4,-110 277,-110 277,5 -4,5"/>
<!-- Node1 -->
<g id="node1" class="node"><title>Node1</title>
<polygon fill="#bfbfbf" stroke="black" points="68,-0.5 68,-21.5 162,-21.5 162,-0.5 68,-0.5"/>
<text text-anchor="middle" x="115" y="-8.5" font-family="Helvetica,sans-Serif" font-size="10.00">MojDbInnoTuple</text>
</g>
<!-- Node2 -->
<g id="node2" class="node"><title>Node2</title>
<a xlink:href="classMojNoCopy.htm" target="_top" xlink:title="MojNoCopy">
<polygon fill="white" stroke="black" points="0,-84.5 0,-105.5 72,-105.5 72,-84.5 0,-84.5"/>
<text text-anchor="middle" x="36" y="-92.5" font-family="Helvetica,sans-Serif" font-size="10.00">MojNoCopy</text>
</a>
</g>
<!-- Node2&#45;&gt;Node1 -->
<g id="edge2" class="edge"><title>Node2&#45;&gt;Node1</title>
<path fill="none" stroke="#8b1a1a" d="M53.1436,-76.7714C69.0123,-59.8983 92.0584,-35.3936 105.076,-21.5523"/>
<polygon fill="#8b1a1a" stroke="#8b1a1a" points="50.3068,-74.6789 46.0054,-84.3613 55.406,-79.4746 50.3068,-74.6789"/>
</g>
<!-- Node3 -->
<g id="node4" class="node"><title>Node3</title>
<polygon fill="white" stroke="#bfbfbf" points="90,-84.5 90,-105.5 140,-105.5 140,-84.5 90,-84.5"/>
<text text-anchor="middle" x="115" y="-92.5" font-family="Helvetica,sans-Serif" font-size="10.00">ib_tpl_t</text>
</g>
<!-- Node3&#45;&gt;Node1 -->
<g id="edge4" class="edge"><title>Node3&#45;&gt;Node1</title>
<path fill="none" stroke="#9a32cd" stroke-dasharray="5,2" d="M115,-73.9452C115,-57.2568 115,-34.6387 115,-21.5523"/>
<polygon fill="#9a32cd" stroke="#9a32cd" points="111.5,-74.3613 115,-84.3613 118.5,-74.3614 111.5,-74.3613"/>
<text text-anchor="middle" x="129.5" y="-50.5" font-family="Helvetica,sans-Serif" font-size="10.00"> m_tpl</text>
</g>
<!-- Node4 -->
<g id="node6" class="node"><title>Node4</title>
<polygon fill="white" stroke="#bfbfbf" points="158,-84.5 158,-105.5 272,-105.5 272,-84.5 158,-84.5"/>
<text text-anchor="middle" x="215" y="-92.5" font-family="Helvetica,sans-Serif" font-size="10.00">static const ib_ulint_t</text>
</g>
<!-- Node4&#45;&gt;Node1 -->
<g id="edge6" class="edge"><title>Node4&#45;&gt;Node1</title>
<path fill="none" stroke="#9a32cd" stroke-dasharray="5,2" d="M194.655,-77.9098C174.545,-61.0177 144.415,-35.7082 127.562,-21.5523"/>
<polygon fill="#9a32cd" stroke="#9a32cd" points="192.427,-80.6094 202.335,-84.3613 196.929,-75.2494 192.427,-80.6094"/>
<text text-anchor="middle" x="196" y="-57" font-family="Helvetica,sans-Serif" font-size="10.00"> ValCol</text>
<text text-anchor="middle" x="196" y="-44" font-family="Helvetica,sans-Serif" font-size="10.00">KeyCol</text>
</g>
</g>
</svg>
