<?xml version="1.0" encoding="UTF-8" standalone="no"?>
<!DOCTYPE svg PUBLIC "-//W3C//DTD SVG 1.1//EN"
 "http://www.w3.org/Graphics/SVG/1.1/DTD/svg11.dtd">
<!-- Generated by graphviz version 2.26.3 (20100126.1600)
 -->
<!-- Title: MojDecimal Pages: 1 -->
<svg width="369pt" height="114pt"
 viewBox="0.00 0.00 369.00 114.00" xmlns="http://www.w3.org/2000/svg" xmlns:xlink="http://www.w3.org/1999/xlink">
<g id="graph1" class="graph" transform="scale(1 1) rotate(0) translate(4 110)">
<title>MojDecimal</title>
<polygon fill="white" stroke="white" points="-4,5 -4,-110 366,-110 366,5 -4,5"/>
<!-- Node1 -->
<g id="node1" class="node"><title>Node1</title>
<polygon fill="#bfbfbf" stroke="black" points="141.5,-0.5 141.5,-21.5 212.5,-21.5 212.5,-0.5 141.5,-0.5"/>
<text text-anchor="middle" x="177" y="-8.5" font-family="Helvetica,sans-Serif" font-size="10.00">MojDecimal</text>
</g>
<!-- Node2 -->
<g id="node2" class="node"><title>Node2</title>
<polygon fill="white" stroke="#bfbfbf" points="0,-84.5 0,-105.5 54,-105.5 54,-84.5 0,-84.5"/>
<text text-anchor="middle" x="27" y="-92.5" font-family="Helvetica,sans-Serif" font-size="10.00">MojSize</text>
</g>
<!-- Node2&#45;&gt;Node1 -->
<g id="edge2" class="edge"><title>Node2&#45;&gt;Node1</title>
<path fill="none" stroke="#9a32cd" stroke-dasharray="5,2" d="M32.5704,-74.8053C36.8431,-62.9831 43.928,-48.7114 55,-40 68.26,-29.5671 110.187,-21.1366 141.206,-16.1083"/>
<polygon fill="#9a32cd" stroke="#9a32cd" points="29.2264,-73.7717 29.51,-84.3627 35.893,-75.9064 29.2264,-73.7717"/>
<text text-anchor="middle" x="91" y="-57" font-family="Helvetica,sans-Serif" font-size="10.00"> MaxStringSize</text>
<text text-anchor="middle" x="91" y="-44" font-family="Helvetica,sans-Serif" font-size="10.00">Precision</text>
</g>
<!-- Node3 -->
<g id="node4" class="node"><title>Node3</title>
<polygon fill="white" stroke="#bfbfbf" points="72,-84.5 72,-105.5 194,-105.5 194,-84.5 72,-84.5"/>
<text text-anchor="middle" x="133" y="-92.5" font-family="Helvetica,sans-Serif" font-size="10.00">static const MojUInt32</text>
</g>
<!-- Node3&#45;&gt;Node1 -->
<g id="edge4" class="edge"><title>Node3&#45;&gt;Node1</title>
<path fill="none" stroke="#9a32cd" stroke-dasharray="5,2" d="M130.973,-73.8796C130.882,-63.1125 132.292,-50.1794 138,-40 142.209,-32.4932 149.256,-26.3646 156.21,-21.7076"/>
<polygon fill="#9a32cd" stroke="#9a32cd" points="127.489,-74.3006 131.493,-84.1097 134.48,-73.9446 127.489,-74.3006"/>
<text text-anchor="middle" x="169" y="-57" font-family="Helvetica,sans-Serif" font-size="10.00"> FractionMax</text>
<text text-anchor="middle" x="169" y="-44" font-family="Helvetica,sans-Serif" font-size="10.00">FractionMin</text>
</g>
<!-- Node4 -->
<g id="node6" class="node"><title>Node4</title>
<polygon fill="white" stroke="#bfbfbf" points="211.5,-84.5 211.5,-105.5 240.5,-105.5 240.5,-84.5 211.5,-84.5"/>
<text text-anchor="middle" x="226" y="-92.5" font-family="Helvetica,sans-Serif" font-size="10.00">int</text>
</g>
<!-- Node4&#45;&gt;Node1 -->
<g id="edge6" class="edge"><title>Node4&#45;&gt;Node1</title>
<path fill="none" stroke="#9a32cd" stroke-dasharray="5,2" d="M217.936,-75.1564C213.258,-64.4353 206.929,-51.1487 200,-40 195.998,-33.5597 190.798,-26.8952 186.356,-21.5814"/>
<polygon fill="#9a32cd" stroke="#9a32cd" points="214.766,-76.6463 221.882,-84.4957 221.214,-73.922 214.766,-76.6463"/>
<text text-anchor="middle" x="239.5" y="-50.5" font-family="Helvetica,sans-Serif" font-size="10.00"> Numerator</text>
</g>
<!-- Node5 -->
<g id="node8" class="node"><title>Node5</title>
<polygon fill="white" stroke="#bfbfbf" points="269,-84.5 269,-105.5 327,-105.5 327,-84.5 269,-84.5"/>
<text text-anchor="middle" x="298" y="-92.5" font-family="Helvetica,sans-Serif" font-size="10.00">MojInt64</text>
</g>
<!-- Node5&#45;&gt;Node1 -->
<g id="edge8" class="edge"><title>Node5&#45;&gt;Node1</title>
<path fill="none" stroke="#9a32cd" stroke-dasharray="5,2" d="M291.924,-74.304C287.548,-62.7312 280.531,-48.89 270,-40 253.975,-26.4723 231.654,-19.2456 212.897,-15.3896"/>
<polygon fill="#9a32cd" stroke="#9a32cd" points="288.712,-75.7309 295.225,-84.0872 295.344,-73.493 288.712,-75.7309"/>
<text text-anchor="middle" x="324.5" y="-57" font-family="Helvetica,sans-Serif" font-size="10.00"> MagnitudeMax</text>
<text text-anchor="middle" x="324.5" y="-44" font-family="Helvetica,sans-Serif" font-size="10.00">MagnitudeMin</text>
</g>
</g>
</svg>
