<?xml version="1.0" encoding="UTF-8" standalone="no"?>
<!DOCTYPE svg PUBLIC "-//W3C//DTD SVG 1.1//EN"
 "http://www.w3.org/Graphics/SVG/1.1/DTD/svg11.dtd">
<!-- Generated by graphviz version 2.26.3 (20100126.1600)
 -->
<!-- Title: MojReactor Pages: 1 -->
<svg width="222pt" height="146pt"
 viewBox="0.00 0.00 222.00 146.00" xmlns="http://www.w3.org/2000/svg" xmlns:xlink="http://www.w3.org/1999/xlink">
<g id="graph1" class="graph" transform="scale(1 1) rotate(0) translate(4 142)">
<title>MojReactor</title>
<polygon fill="white" stroke="white" points="-4,5 -4,-142 219,-142 219,5 -4,5"/>
<!-- Node1 -->
<g id="node1" class="node"><title>Node1</title>
<polygon fill="#bfbfbf" stroke="black" points="69.5,-58.5 69.5,-79.5 140.5,-79.5 140.5,-58.5 69.5,-58.5"/>
<text text-anchor="middle" x="105" y="-66.5" font-family="Helvetica,sans-Serif" font-size="10.00">MojReactor</text>
</g>
<!-- Node3 -->
<g id="node5" class="node"><title>Node3</title>
<a xlink:href="classMojEpollReactor.htm" target="_top" xlink:title="MojEpollReactor">
<polygon fill="white" stroke="black" points="-0.5,-0.5 -0.5,-21.5 94.5,-21.5 94.5,-0.5 -0.5,-0.5"/>
<text text-anchor="middle" x="47" y="-8.5" font-family="Helvetica,sans-Serif" font-size="10.00">MojEpollReactor</text>
</a>
</g>
<!-- Node1&#45;&gt;Node3 -->
<g id="edge4" class="edge"><title>Node1&#45;&gt;Node3</title>
<path fill="none" stroke="midnightblue" d="M87.118,-51.118C77.4377,-41.4377 65.8098,-29.8098 57.5707,-21.5707"/>
<polygon fill="midnightblue" stroke="midnightblue" points="84.8159,-53.7657 94.3619,-58.3619 89.7657,-48.8159 84.8159,-53.7657"/>
</g>
<!-- Node4 -->
<g id="node7" class="node"><title>Node4</title>
<a xlink:href="classMojGmainReactor.htm" target="_top" xlink:title="MojGmainReactor">
<polygon fill="white" stroke="black" points="112,-0.5 112,-21.5 214,-21.5 214,-0.5 112,-0.5"/>
<text text-anchor="middle" x="163" y="-8.5" font-family="Helvetica,sans-Serif" font-size="10.00">MojGmainReactor</text>
</a>
</g>
<!-- Node1&#45;&gt;Node4 -->
<g id="edge6" class="edge"><title>Node1&#45;&gt;Node4</title>
<path fill="none" stroke="midnightblue" d="M122.882,-51.118C132.562,-41.4377 144.19,-29.8098 152.429,-21.5707"/>
<polygon fill="midnightblue" stroke="midnightblue" points="120.234,-48.8159 115.638,-58.3619 125.184,-53.7657 120.234,-48.8159"/>
</g>
<!-- Node2 -->
<g id="node2" class="node"><title>Node2</title>
<a xlink:href="classMojNoCopy.htm" target="_top" xlink:title="MojNoCopy">
<polygon fill="white" stroke="black" points="69,-116.5 69,-137.5 141,-137.5 141,-116.5 69,-116.5"/>
<text text-anchor="middle" x="105" y="-124.5" font-family="Helvetica,sans-Serif" font-size="10.00">MojNoCopy</text>
</a>
</g>
<!-- Node2&#45;&gt;Node1 -->
<g id="edge2" class="edge"><title>Node2&#45;&gt;Node1</title>
<path fill="none" stroke="#8b1a1a" d="M105,-106.191C105,-97.1684 105,-86.9941 105,-79.5707"/>
<polygon fill="#8b1a1a" stroke="#8b1a1a" points="101.5,-106.362 105,-116.362 108.5,-106.362 101.5,-106.362"/>
</g>
</g>
</svg>
