<?xml version="1.0" encoding="UTF-8" standalone="no"?>
<!DOCTYPE svg PUBLIC "-//W3C//DTD SVG 1.1//EN"
 "http://www.w3.org/Graphics/SVG/1.1/DTD/svg11.dtd">
<!-- Generated by graphviz version 2.26.3 (20100126.1600)
 -->
<!-- Title: MojDbMultiExtractor Pages: 1 -->
<svg width="448pt" height="234pt"
 viewBox="0.00 0.00 448.00 234.00" xmlns="http://www.w3.org/2000/svg" xmlns:xlink="http://www.w3.org/1999/xlink">
<g id="graph1" class="graph" transform="scale(1 1) rotate(0) translate(4 230)">
<title>MojDbMultiExtractor</title>
<polygon fill="white" stroke="white" points="-4,5 -4,-230 445,-230 445,5 -4,5"/>
<!-- Node1 -->
<g id="node1" class="node"><title>Node1</title>
<polygon fill="#bfbfbf" stroke="black" points="313.5,-0.5 313.5,-21.5 424.5,-21.5 424.5,-0.5 313.5,-0.5"/>
<text text-anchor="middle" x="369" y="-8.5" font-family="Helvetica,sans-Serif" font-size="10.00">MojDbMultiExtractor</text>
</g>
<!-- Node2 -->
<g id="node2" class="node"><title>Node2</title>
<a xlink:href="classMojDbExtractor.htm" target="_top" xlink:title="MojDbExtractor">
<polygon fill="white" stroke="black" points="222.5,-60.5 222.5,-81.5 311.5,-81.5 311.5,-60.5 222.5,-60.5"/>
<text text-anchor="middle" x="267" y="-68.5" font-family="Helvetica,sans-Serif" font-size="10.00">MojDbExtractor</text>
</a>
</g>
<!-- Node2&#45;&gt;Node1 -->
<g id="edge2" class="edge"><title>Node2&#45;&gt;Node1</title>
<path fill="none" stroke="midnightblue" d="M294.101,-55.058C312.073,-44.4864 335.161,-30.9053 350.922,-21.6339"/>
<polygon fill="midnightblue" stroke="midnightblue" points="292.08,-52.1862 285.236,-60.2732 295.629,-58.2197 292.08,-52.1862"/>
</g>
<!-- Node3 -->
<g id="node4" class="node"><title>Node3</title>
<a xlink:href="classMojRefCounted.htm" target="_top" xlink:title="MojRefCounted">
<polygon fill="white" stroke="black" points="0,-144.5 0,-165.5 90,-165.5 90,-144.5 0,-144.5"/>
<text text-anchor="middle" x="45" y="-152.5" font-family="Helvetica,sans-Serif" font-size="10.00">MojRefCounted</text>
</a>
</g>
<!-- Node3&#45;&gt;Node2 -->
<g id="edge4" class="edge"><title>Node3&#45;&gt;Node2</title>
<path fill="none" stroke="midnightblue" d="M79.6785,-140.487C107.257,-129.089 146.902,-113.022 182,-100 199.25,-93.6 218.657,-86.9385 234.567,-81.6164"/>
<polygon fill="midnightblue" stroke="midnightblue" points="77.9917,-137.397 70.0949,-144.461 80.6729,-143.864 77.9917,-137.397"/>
</g>
<!-- Node4 -->
<g id="node6" class="node"><title>Node4</title>
<a xlink:href="classMojNoCopy.htm" target="_top" xlink:title="MojNoCopy">
<polygon fill="white" stroke="black" points="9,-204.5 9,-225.5 81,-225.5 81,-204.5 9,-204.5"/>
<text text-anchor="middle" x="45" y="-212.5" font-family="Helvetica,sans-Serif" font-size="10.00">MojNoCopy</text>
</a>
</g>
<!-- Node4&#45;&gt;Node3 -->
<g id="edge6" class="edge"><title>Node4&#45;&gt;Node3</title>
<path fill="none" stroke="#8b1a1a" d="M45,-194.231C45,-184.592 45,-173.544 45,-165.634"/>
<polygon fill="#8b1a1a" stroke="#8b1a1a" points="41.5001,-194.273 45,-204.273 48.5001,-194.273 41.5001,-194.273"/>
</g>
<!-- Node5 -->
<g id="node8" class="node"><title>Node5</title>
<polygon fill="white" stroke="#bfbfbf" points="108,-144.5 108,-165.5 236,-165.5 236,-144.5 108,-144.5"/>
<text text-anchor="middle" x="172" y="-152.5" font-family="Helvetica,sans-Serif" font-size="10.00">MojDbCollationStrength</text>
</g>
<!-- Node5&#45;&gt;Node2 -->
<g id="edge8" class="edge"><title>Node5&#45;&gt;Node2</title>
<path fill="none" stroke="#9a32cd" stroke-dasharray="5,2" d="M179.909,-135.147C185.294,-123.677 193.377,-109.654 204,-100 212.644,-92.1452 223.782,-86.0793 234.283,-81.5744"/>
<polygon fill="#9a32cd" stroke="#9a32cd" points="176.665,-133.83 175.875,-144.396 183.081,-136.629 176.665,-133.83"/>
<text text-anchor="middle" x="232.5" y="-110.5" font-family="Helvetica,sans-Serif" font-size="10.00"> m_collation</text>
</g>
<!-- Node6 -->
<g id="node10" class="node"><title>Node6</title>
<a xlink:href="classMojString.htm" target="_top" xlink:title="MojString">
<polygon fill="white" stroke="black" points="254,-144.5 254,-165.5 316,-165.5 316,-144.5 254,-144.5"/>
<text text-anchor="middle" x="285" y="-152.5" font-family="Helvetica,sans-Serif" font-size="10.00">MojString</text>
</a>
</g>
<!-- Node6&#45;&gt;Node2 -->
<g id="edge10" class="edge"><title>Node6&#45;&gt;Node2</title>
<path fill="none" stroke="#9a32cd" stroke-dasharray="5,2" d="M271.867,-135.639C270.29,-132.529 268.917,-129.258 268,-126 263.811,-111.107 264.523,-93.0379 265.611,-81.7766"/>
<polygon fill="#9a32cd" stroke="#9a32cd" points="268.876,-137.457 276.953,-144.314 274.915,-133.917 268.876,-137.457"/>
<text text-anchor="middle" x="290" y="-110.5" font-family="Helvetica,sans-Serif" font-size="10.00"> m_name</text>
</g>
<!-- Node6&#45;&gt;Node6 -->
<g id="edge12" class="edge"><title>Node6&#45;&gt;Node6</title>
<path fill="none" stroke="#9a32cd" stroke-dasharray="5,2" d="M326.153,-159.792C330.909,-158.905 334,-157.307 334,-155 334,-151.309 326.087,-149.434 316.102,-149.376"/>
<polygon fill="#9a32cd" stroke="#9a32cd" points="325.779,-156.311 316.102,-160.624 326.357,-163.287 325.779,-156.311"/>
<text text-anchor="middle" x="350.5" y="-152.5" font-family="Helvetica,sans-Serif" font-size="10.00"> Empty</text>
</g>
<!-- Node7 -->
<g id="node13" class="node"><title>Node7</title>
<polygon fill="white" stroke="#bfbfbf" points="385,-144.5 385,-165.5 423,-165.5 423,-144.5 385,-144.5"/>
<text text-anchor="middle" x="404" y="-152.5" font-family="Helvetica,sans-Serif" font-size="10.00">char</text>
</g>
<!-- Node7&#45;&gt;Node1 -->
<g id="edge16" class="edge"><title>Node7&#45;&gt;Node1</title>
<path fill="none" stroke="#9a32cd" stroke-dasharray="5,2" d="M398.987,-134.375C391.415,-103.224 377.335,-45.2935 371.566,-21.5577"/>
<polygon fill="#9a32cd" stroke="#9a32cd" points="395.606,-135.286 401.369,-144.177 402.408,-133.633 395.606,-135.286"/>
<text text-anchor="middle" x="412.5" y="-68.5" font-family="Helvetica,sans-Serif" font-size="10.00"> IncludeKey</text>
</g>
<!-- Node7&#45;&gt;Node2 -->
<g id="edge14" class="edge"><title>Node7&#45;&gt;Node2</title>
<path fill="none" stroke="#9a32cd" stroke-dasharray="5,2" d="M375.358,-143.66C358.034,-136.68 338.608,-128.588 335,-126 322.463,-117.008 323.705,-110.051 312,-100 304.102,-93.2186 294.502,-86.8201 286.2,-81.7676"/>
<polygon fill="#9a32cd" stroke="#9a32cd" points="374.068,-146.914 384.653,-147.382 376.67,-140.416 374.068,-146.914"/>
<text text-anchor="middle" x="362.5" y="-117" font-family="Helvetica,sans-Serif" font-size="10.00"> CollateKey</text>
<text text-anchor="middle" x="362.5" y="-104" font-family="Helvetica,sans-Serif" font-size="10.00">NameKey</text>
</g>
</g>
</svg>
