<?xml version="1.0" encoding="UTF-8" standalone="no"?>
<!DOCTYPE svg PUBLIC "-//W3C//DTD SVG 1.1//EN"
 "http://www.w3.org/Graphics/SVG/1.1/DTD/svg11.dtd">
<!-- Generated by graphviz version 2.26.3 (20100126.1600)
 -->
<!-- Title: MojSignalHandler Pages: 1 -->
<svg width="920pt" height="810pt"
 viewBox="0.00 0.00 920.00 810.00" xmlns="http://www.w3.org/2000/svg" xmlns:xlink="http://www.w3.org/1999/xlink">
<g id="graph1" class="graph" transform="scale(1 1) rotate(0) translate(4 806)">
<title>MojSignalHandler</title>
<polygon fill="white" stroke="white" points="-4,5 -4,-806 917,-806 917,5 -4,5"/>
<!-- Node1 -->
<g id="node1" class="node"><title>Node1</title>
<polygon fill="#bfbfbf" stroke="black" points="234.5,-360.5 234.5,-381.5 335.5,-381.5 335.5,-360.5 234.5,-360.5"/>
<text text-anchor="middle" x="285" y="-368.5" font-family="Helvetica,sans-Serif" font-size="10.00">MojSignalHandler</text>
</g>
<!-- Node4 -->
<g id="node7" class="node"><title>Node4</title>
<a xlink:href="classMojDbClient.htm" target="_top" xlink:title="MojDbClient">
<polygon fill="white" stroke="black" points="419,-780.5 419,-801.5 493,-801.5 493,-780.5 419,-780.5"/>
<text text-anchor="middle" x="456" y="-788.5" font-family="Helvetica,sans-Serif" font-size="10.00">MojDbClient</text>
</a>
</g>
<!-- Node1&#45;&gt;Node4 -->
<g id="edge6" class="edge"><title>Node1&#45;&gt;Node4</title>
<path fill="none" stroke="midnightblue" d="M286.653,-391.836C292.96,-466.029 317.927,-715.858 372,-771 384.07,-783.309 402.247,-788.595 418.609,-790.684"/>
<polygon fill="midnightblue" stroke="midnightblue" points="290.14,-391.527 285.828,-381.849 283.164,-392.103 290.14,-391.527"/>
</g>
<!-- Node6 -->
<g id="node11" class="node"><title>Node6</title>
<a xlink:href="classMojDbIndex.htm" target="_top" xlink:title="MojDbIndex">
<polygon fill="white" stroke="black" points="419.5,-740.5 419.5,-761.5 492.5,-761.5 492.5,-740.5 419.5,-740.5"/>
<text text-anchor="middle" x="456" y="-748.5" font-family="Helvetica,sans-Serif" font-size="10.00">MojDbIndex</text>
</a>
</g>
<!-- Node1&#45;&gt;Node6 -->
<g id="edge10" class="edge"><title>Node1&#45;&gt;Node6</title>
<path fill="none" stroke="midnightblue" d="M287.209,-391.961C294.946,-461.389 323.034,-682.2 372,-731 384.317,-743.275 402.719,-748.533 419.162,-750.612"/>
<polygon fill="midnightblue" stroke="midnightblue" points="290.668,-391.392 286.106,-381.829 283.709,-392.149 290.668,-391.392"/>
</g>
<!-- Node7 -->
<g id="node13" class="node"><title>Node7</title>
<a xlink:href="classMojDbQuotaCommitHandler.htm" target="_top" xlink:title="MojDbQuotaCommitHandler">
<polygon fill="white" stroke="black" points="382,-700.5 382,-721.5 530,-721.5 530,-700.5 382,-700.5"/>
<text text-anchor="middle" x="456" y="-708.5" font-family="Helvetica,sans-Serif" font-size="10.00">MojDbQuotaCommitHandler</text>
</a>
</g>
<!-- Node1&#45;&gt;Node7 -->
<g id="edge12" class="edge"><title>Node1&#45;&gt;Node7</title>
<path fill="none" stroke="midnightblue" d="M287.847,-391.686C297.057,-455.634 328.018,-648.392 372,-691 375.876,-694.755 380.323,-697.85 385.104,-700.395"/>
<polygon fill="midnightblue" stroke="midnightblue" points="291.29,-391.033 286.425,-381.621 284.358,-392.012 291.29,-391.033"/>
</g>
<!-- Node8 -->
<g id="node15" class="node"><title>Node8</title>
<a xlink:href="classMojDbQuotaEngine_1_1Offset.htm" target="_top" xlink:title="MojDbQuotaEngine::Offset">
<polygon fill="white" stroke="black" points="385.5,-660.5 385.5,-681.5 526.5,-681.5 526.5,-660.5 385.5,-660.5"/>
<text text-anchor="middle" x="456" y="-668.5" font-family="Helvetica,sans-Serif" font-size="10.00">MojDbQuotaEngine::Offset</text>
</a>
</g>
<!-- Node1&#45;&gt;Node8 -->
<g id="edge14" class="edge"><title>Node1&#45;&gt;Node8</title>
<path fill="none" stroke="midnightblue" d="M288.64,-391.364C299.434,-449.519 332.958,-614.509 372,-651 376.052,-654.787 380.688,-657.898 385.653,-660.448"/>
<polygon fill="midnightblue" stroke="midnightblue" points="292.081,-390.723 286.841,-381.514 285.195,-391.981 292.081,-390.723"/>
</g>
<!-- Node9 -->
<g id="node17" class="node"><title>Node9</title>
<polygon fill="white" stroke="#bfbfbf" points="396.5,-608 396.5,-642 515.5,-642 515.5,-608 396.5,-608"/>
<text text-anchor="start" x="404.5" y="-629" font-family="Helvetica,sans-Serif" font-size="10.00">MojDbServiceHandler</text>
<text text-anchor="middle" x="456" y="-616" font-family="Helvetica,sans-Serif" font-size="10.00">::Watcher</text>
</g>
<!-- Node1&#45;&gt;Node9 -->
<g id="edge16" class="edge"><title>Node1&#45;&gt;Node9</title>
<path fill="none" stroke="midnightblue" d="M286.931,-391.807C292.182,-436.352 310.73,-541.552 372,-599 378.905,-605.474 387.392,-610.337 396.29,-613.99"/>
<polygon fill="midnightblue" stroke="midnightblue" points="290.386,-391.196 285.843,-381.625 283.425,-391.94 290.386,-391.196"/>
</g>
<!-- Node10 -->
<g id="node19" class="node"><title>Node10</title>
<polygon fill="white" stroke="#bfbfbf" points="378.5,-556 378.5,-590 533.5,-590 533.5,-556 378.5,-556"/>
<text text-anchor="start" x="386.5" y="-577" font-family="Helvetica,sans-Serif" font-size="10.00">MojDbServiceHandlerInternal</text>
<text text-anchor="middle" x="456" y="-564" font-family="Helvetica,sans-Serif" font-size="10.00">::AlertHandler</text>
</g>
<!-- Node1&#45;&gt;Node10 -->
<g id="edge18" class="edge"><title>Node1&#45;&gt;Node10</title>
<path fill="none" stroke="midnightblue" d="M289.494,-391.504C298.586,-428.136 322.635,-504.917 372,-547 375.95,-550.367 380.332,-553.299 384.963,-555.851"/>
<polygon fill="midnightblue" stroke="midnightblue" points="292.839,-390.44 287.141,-381.508 286.025,-392.044 292.839,-390.44"/>
</g>
<!-- Node11 -->
<g id="node21" class="node"><title>Node11</title>
<polygon fill="white" stroke="#bfbfbf" points="378.5,-504 378.5,-538 533.5,-538 533.5,-504 378.5,-504"/>
<text text-anchor="start" x="386.5" y="-525" font-family="Helvetica,sans-Serif" font-size="10.00">MojDbServiceHandlerInternal</text>
<text text-anchor="middle" x="456" y="-512" font-family="Helvetica,sans-Serif" font-size="10.00">::LocaleHandler</text>
</g>
<!-- Node1&#45;&gt;Node11 -->
<g id="edge20" class="edge"><title>Node1&#45;&gt;Node11</title>
<path fill="none" stroke="midnightblue" d="M293.916,-391.148C307.084,-418.618 334.304,-467.539 372,-495 376.689,-498.416 381.837,-501.39 387.204,-503.979"/>
<polygon fill="midnightblue" stroke="midnightblue" points="296.946,-389.36 289.565,-381.759 290.595,-392.304 296.946,-389.36"/>
</g>
<!-- Node12 -->
<g id="node23" class="node"><title>Node12</title>
<polygon fill="white" stroke="#bfbfbf" points="378.5,-452 378.5,-486 533.5,-486 533.5,-452 378.5,-452"/>
<text text-anchor="start" x="386.5" y="-473" font-family="Helvetica,sans-Serif" font-size="10.00">MojDbServiceHandlerInternal</text>
<text text-anchor="middle" x="456" y="-460" font-family="Helvetica,sans-Serif" font-size="10.00">::PurgeHandler</text>
</g>
<!-- Node1&#45;&gt;Node12 -->
<g id="edge22" class="edge"><title>Node1&#45;&gt;Node12</title>
<path fill="none" stroke="midnightblue" d="M302.283,-388.857C318.829,-405.034 345.175,-428.493 372,-443 378.177,-446.34 384.846,-449.32 391.631,-451.96"/>
<polygon fill="midnightblue" stroke="midnightblue" points="304.538,-386.162 294.989,-381.572 299.591,-391.115 304.538,-386.162"/>
</g>
<!-- Node13 -->
<g id="node25" class="node"><title>Node13</title>
<polygon fill="white" stroke="#bfbfbf" points="378.5,-400 378.5,-434 533.5,-434 533.5,-400 378.5,-400"/>
<text text-anchor="start" x="386.5" y="-421" font-family="Helvetica,sans-Serif" font-size="10.00">MojDbServiceHandlerInternal</text>
<text text-anchor="middle" x="456" y="-408" font-family="Helvetica,sans-Serif" font-size="10.00">::SpaceCheckHandler</text>
</g>
<!-- Node1&#45;&gt;Node13 -->
<g id="edge24" class="edge"><title>Node1&#45;&gt;Node13</title>
<path fill="none" stroke="midnightblue" d="M334.04,-384.192C352.249,-389.09 373.173,-394.719 392.49,-399.915"/>
<polygon fill="midnightblue" stroke="midnightblue" points="334.797,-380.771 324.231,-381.553 332.978,-387.531 334.797,-380.771"/>
</g>
<!-- Node14 -->
<g id="node27" class="node"><title>Node14</title>
<a xlink:href="classMojDbStorageTxn.htm" target="_top" xlink:title="MojDbStorageTxn">
<polygon fill="white" stroke="black" points="405,-360.5 405,-381.5 507,-381.5 507,-360.5 405,-360.5"/>
<text text-anchor="middle" x="456" y="-368.5" font-family="Helvetica,sans-Serif" font-size="10.00">MojDbStorageTxn</text>
</a>
</g>
<!-- Node1&#45;&gt;Node14 -->
<g id="edge26" class="edge"><title>Node1&#45;&gt;Node14</title>
<path fill="none" stroke="midnightblue" d="M346.012,-371C365.245,-371 386.283,-371 404.762,-371"/>
<polygon fill="midnightblue" stroke="midnightblue" points="345.843,-367.5 335.843,-371 345.843,-374.5 345.843,-367.5"/>
</g>
<!-- Node19 -->
<g id="node37" class="node"><title>Node19</title>
<a xlink:href="classMojDbWatcher.htm" target="_top" xlink:title="MojDbWatcher">
<polygon fill="white" stroke="black" points="413,-320.5 413,-341.5 499,-341.5 499,-320.5 413,-320.5"/>
<text text-anchor="middle" x="456" y="-328.5" font-family="Helvetica,sans-Serif" font-size="10.00">MojDbWatcher</text>
</a>
</g>
<!-- Node1&#45;&gt;Node19 -->
<g id="edge36" class="edge"><title>Node1&#45;&gt;Node19</title>
<path fill="none" stroke="midnightblue" d="M339.811,-358.179C363.444,-352.651 390.684,-346.279 412.846,-341.094"/>
<polygon fill="midnightblue" stroke="midnightblue" points="338.868,-354.805 329.928,-360.49 340.463,-361.621 338.868,-354.805"/>
</g>
<!-- Node20 -->
<g id="node39" class="node"><title>Node20</title>
<polygon fill="white" stroke="#bfbfbf" points="386,-280.5 386,-301.5 526,-301.5 526,-280.5 386,-280.5"/>
<text text-anchor="middle" x="456" y="-288.5" font-family="Helvetica,sans-Serif" font-size="10.00">MojEpollReactor::SockInfo</text>
</g>
<!-- Node1&#45;&gt;Node20 -->
<g id="edge38" class="edge"><title>Node1&#45;&gt;Node20</title>
<path fill="none" stroke="midnightblue" d="M305.083,-353.917C321.931,-340.413 347.163,-322.054 372,-311 380.491,-307.221 389.797,-304.099 399.024,-301.538"/>
<polygon fill="midnightblue" stroke="midnightblue" points="302.6,-351.426 297.083,-360.471 307.036,-356.841 302.6,-351.426"/>
</g>
<!-- Node21 -->
<g id="node41" class="node"><title>Node21</title>
<polygon fill="white" stroke="#bfbfbf" points="382,-240.5 382,-261.5 530,-261.5 530,-240.5 382,-240.5"/>
<text text-anchor="middle" x="456" y="-248.5" font-family="Helvetica,sans-Serif" font-size="10.00">MojGmainReactor::SockInfo</text>
</g>
<!-- Node1&#45;&gt;Node21 -->
<g id="edge40" class="edge"><title>Node1&#45;&gt;Node21</title>
<path fill="none" stroke="midnightblue" d="M296.397,-351.789C310.985,-328.931 338.433,-291.317 372,-271 378.284,-267.196 385.24,-264.116 392.381,-261.622"/>
<polygon fill="midnightblue" stroke="midnightblue" points="293.408,-349.968 291.117,-360.312 299.358,-353.654 293.408,-349.968"/>
</g>
<!-- Node22 -->
<g id="node43" class="node"><title>Node22</title>
<a xlink:href="classMojMessage.htm" target="_top" xlink:title="MojMessage">
<polygon fill="white" stroke="black" points="417.5,-200.5 417.5,-221.5 494.5,-221.5 494.5,-200.5 417.5,-200.5"/>
<text text-anchor="middle" x="456" y="-208.5" font-family="Helvetica,sans-Serif" font-size="10.00">MojMessage</text>
</a>
</g>
<!-- Node1&#45;&gt;Node22 -->
<g id="edge42" class="edge"><title>Node1&#45;&gt;Node22</title>
<path fill="none" stroke="midnightblue" d="M291.92,-350.546C303.457,-319.668 329.628,-261.522 372,-231 385.137,-221.537 402.14,-216.499 417.408,-213.836"/>
<polygon fill="midnightblue" stroke="midnightblue" points="288.525,-349.646 288.447,-360.241 295.115,-352.007 288.525,-349.646"/>
</g>
<!-- Node27 -->
<g id="node53" class="node"><title>Node27</title>
<a xlink:href="classMojService_1_1CategoryHandler.htm" target="_top" xlink:title="MojService::CategoryHandler">
<polygon fill="white" stroke="black" points="378.5,-160.5 378.5,-181.5 533.5,-181.5 533.5,-160.5 378.5,-160.5"/>
<text text-anchor="middle" x="456" y="-168.5" font-family="Helvetica,sans-Serif" font-size="10.00">MojService::CategoryHandler</text>
</a>
</g>
<!-- Node1&#45;&gt;Node27 -->
<g id="edge52" class="edge"><title>Node1&#45;&gt;Node27</title>
<path fill="none" stroke="midnightblue" d="M288.968,-350.192C297.302,-312.403 320.298,-232.567 372,-191 376.673,-187.243 381.937,-184.171 387.493,-181.663"/>
<polygon fill="midnightblue" stroke="midnightblue" points="285.522,-349.574 286.915,-360.077 292.376,-350.998 285.522,-349.574"/>
</g>
<!-- Node31 -->
<g id="node61" class="node"><title>Node31</title>
<a xlink:href="classMojServiceRequest.htm" target="_top" xlink:title="MojServiceRequest">
<polygon fill="white" stroke="black" points="402,-120.5 402,-141.5 510,-141.5 510,-120.5 402,-120.5"/>
<text text-anchor="middle" x="456" y="-128.5" font-family="Helvetica,sans-Serif" font-size="10.00">MojServiceRequest</text>
</a>
</g>
<!-- Node1&#45;&gt;Node31 -->
<g id="edge60" class="edge"><title>Node1&#45;&gt;Node31</title>
<path fill="none" stroke="midnightblue" d="M286.926,-350.296C292.147,-306.512 310.606,-204.196 372,-151 380.384,-143.736 390.94,-139 401.711,-135.938"/>
<polygon fill="midnightblue" stroke="midnightblue" points="283.437,-350.011 285.844,-360.328 290.397,-350.761 283.437,-350.011"/>
</g>
<!-- Node33 -->
<g id="node65" class="node"><title>Node33</title>
<polygon fill="white" stroke="#bfbfbf" points="376,-80.5 376,-101.5 536,-101.5 536,-80.5 376,-80.5"/>
<text text-anchor="middle" x="456" y="-88.5" font-family="Helvetica,sans-Serif" font-size="10.00">MojSocketService::Connection</text>
</g>
<!-- Node1&#45;&gt;Node33 -->
<g id="edge64" class="edge"><title>Node1&#45;&gt;Node33</title>
<path fill="none" stroke="midnightblue" d="M289.228,-350.282C300.971,-294.722 335.525,-144.359 372,-111 376.093,-107.257 380.758,-104.177 385.743,-101.649"/>
<polygon fill="midnightblue" stroke="midnightblue" points="285.745,-349.843 287.133,-360.347 292.598,-351.27 285.745,-349.843"/>
</g>
<!-- Node34 -->
<g id="node67" class="node"><title>Node34</title>
<polygon fill="white" stroke="#bfbfbf" points="387.5,-40.5 387.5,-61.5 524.5,-61.5 524.5,-40.5 387.5,-40.5"/>
<text text-anchor="middle" x="456" y="-48.5" font-family="Helvetica,sans-Serif" font-size="10.00">MojSocketService::Server</text>
</g>
<!-- Node1&#45;&gt;Node34 -->
<g id="edge66" class="edge"><title>Node1&#45;&gt;Node34</title>
<path fill="none" stroke="midnightblue" d="M288.23,-350.409C298.229,-289.259 330.508,-110.526 372,-71 376.45,-66.7606 381.63,-63.3661 387.19,-60.6547"/>
<polygon fill="midnightblue" stroke="midnightblue" points="284.756,-349.97 286.626,-360.398 291.668,-351.08 284.756,-349.97"/>
</g>
<!-- Node35 -->
<g id="node69" class="node"><title>Node35</title>
<polygon fill="white" stroke="#bfbfbf" points="372.5,-0.5 372.5,-21.5 539.5,-21.5 539.5,-0.5 372.5,-0.5"/>
<text text-anchor="middle" x="456" y="-8.5" font-family="Helvetica,sans-Serif" font-size="10.00">MojSocketService::SockHandler</text>
</g>
<!-- Node1&#45;&gt;Node35 -->
<g id="edge68" class="edge"><title>Node1&#45;&gt;Node35</title>
<path fill="none" stroke="midnightblue" d="M287.49,-350.345C295.921,-283.807 325.491,-76.7358 372,-31 375.848,-27.216 380.275,-24.1008 385.042,-21.5411"/>
<polygon fill="midnightblue" stroke="midnightblue" points="283.997,-350.069 286.24,-360.423 290.944,-350.93 283.997,-350.069"/>
</g>
<!-- Node2 -->
<g id="node2" class="node"><title>Node2</title>
<a xlink:href="classMojRefCounted.htm" target="_top" xlink:title="MojRefCounted">
<polygon fill="white" stroke="black" points="108,-360.5 108,-381.5 198,-381.5 198,-360.5 108,-360.5"/>
<text text-anchor="middle" x="153" y="-368.5" font-family="Helvetica,sans-Serif" font-size="10.00">MojRefCounted</text>
</a>
</g>
<!-- Node2&#45;&gt;Node1 -->
<g id="edge2" class="edge"><title>Node2&#45;&gt;Node1</title>
<path fill="none" stroke="midnightblue" d="M208.082,-371C216.753,-371 225.684,-371 234.251,-371"/>
<polygon fill="midnightblue" stroke="midnightblue" points="208.058,-367.5 198.058,-371 208.058,-374.5 208.058,-367.5"/>
</g>
<!-- Node3 -->
<g id="node4" class="node"><title>Node3</title>
<a xlink:href="classMojNoCopy.htm" target="_top" xlink:title="MojNoCopy">
<polygon fill="white" stroke="black" points="0,-360.5 0,-381.5 72,-381.5 72,-360.5 0,-360.5"/>
<text text-anchor="middle" x="36" y="-368.5" font-family="Helvetica,sans-Serif" font-size="10.00">MojNoCopy</text>
</a>
</g>
<!-- Node3&#45;&gt;Node2 -->
<g id="edge4" class="edge"><title>Node3&#45;&gt;Node2</title>
<path fill="none" stroke="#8b1a1a" d="M82.1193,-371C90.5547,-371 99.35,-371 107.76,-371"/>
<polygon fill="#8b1a1a" stroke="#8b1a1a" points="82.0586,-367.5 72.0585,-371 82.0585,-374.5 82.0586,-367.5"/>
</g>
<!-- Node5 -->
<g id="node9" class="node"><title>Node5</title>
<a xlink:href="classMojDbServiceClient.htm" target="_top" xlink:title="MojDbServiceClient">
<polygon fill="white" stroke="black" points="593.5,-780.5 593.5,-801.5 702.5,-801.5 702.5,-780.5 593.5,-780.5"/>
<text text-anchor="middle" x="648" y="-788.5" font-family="Helvetica,sans-Serif" font-size="10.00">MojDbServiceClient</text>
</a>
</g>
<!-- Node4&#45;&gt;Node5 -->
<g id="edge8" class="edge"><title>Node4&#45;&gt;Node5</title>
<path fill="none" stroke="midnightblue" d="M503.092,-791C530.362,-791 564.816,-791 593.286,-791"/>
<polygon fill="midnightblue" stroke="midnightblue" points="503.02,-787.5 493.02,-791 503.019,-794.5 503.02,-787.5"/>
</g>
<!-- Node15 -->
<g id="node29" class="node"><title>Node15</title>
<a xlink:href="classMojDbBerkeleyTxn.htm" target="_top" xlink:title="MojDbBerkeleyTxn">
<polygon fill="white" stroke="black" points="595,-400.5 595,-421.5 701,-421.5 701,-400.5 595,-400.5"/>
<text text-anchor="middle" x="648" y="-408.5" font-family="Helvetica,sans-Serif" font-size="10.00">MojDbBerkeleyTxn</text>
</a>
</g>
<!-- Node14&#45;&gt;Node15 -->
<g id="edge28" class="edge"><title>Node14&#45;&gt;Node15</title>
<path fill="none" stroke="midnightblue" d="M516.24,-383.55C542.374,-388.995 572.633,-395.299 597.558,-400.491"/>
<polygon fill="midnightblue" stroke="midnightblue" points="516.949,-380.123 506.446,-381.51 515.522,-386.976 516.949,-380.123"/>
</g>
<!-- Node16 -->
<g id="node31" class="node"><title>Node16</title>
<a xlink:href="classMojDbInnoTxn.htm" target="_top" xlink:title="MojDbInnoTxn">
<polygon fill="white" stroke="black" points="605,-360.5 605,-381.5 691,-381.5 691,-360.5 605,-360.5"/>
<text text-anchor="middle" x="648" y="-368.5" font-family="Helvetica,sans-Serif" font-size="10.00">MojDbInnoTxn</text>
</a>
</g>
<!-- Node14&#45;&gt;Node16 -->
<g id="edge30" class="edge"><title>Node14&#45;&gt;Node16</title>
<path fill="none" stroke="midnightblue" d="M517.444,-371C545.88,-371 578.986,-371 604.744,-371"/>
<polygon fill="midnightblue" stroke="midnightblue" points="517.2,-367.5 507.2,-371 517.2,-374.5 517.2,-367.5"/>
</g>
<!-- Node17 -->
<g id="node33" class="node"><title>Node17</title>
<a xlink:href="classMojDbLevelAbstractTxn.htm" target="_top" xlink:title="MojDbLevelAbstractTxn">
<polygon fill="white" stroke="black" points="584,-320.5 584,-341.5 712,-341.5 712,-320.5 584,-320.5"/>
<text text-anchor="middle" x="648" y="-328.5" font-family="Helvetica,sans-Serif" font-size="10.00">MojDbLevelAbstractTxn</text>
</a>
</g>
<!-- Node14&#45;&gt;Node17 -->
<g id="edge32" class="edge"><title>Node14&#45;&gt;Node17</title>
<path fill="none" stroke="midnightblue" d="M516.24,-358.45C542.374,-353.005 572.633,-346.701 597.558,-341.509"/>
<polygon fill="midnightblue" stroke="midnightblue" points="515.522,-355.024 506.446,-360.49 516.949,-361.877 515.522,-355.024"/>
</g>
<!-- Node18 -->
<g id="node35" class="node"><title>Node18</title>
<a xlink:href="classMojDbLevelEnvTxn.htm" target="_top" xlink:title="MojDbLevelEnvTxn">
<polygon fill="white" stroke="black" points="780,-320.5 780,-341.5 888,-341.5 888,-320.5 780,-320.5"/>
<text text-anchor="middle" x="834" y="-328.5" font-family="Helvetica,sans-Serif" font-size="10.00">MojDbLevelEnvTxn</text>
</a>
</g>
<!-- Node17&#45;&gt;Node18 -->
<g id="edge34" class="edge"><title>Node17&#45;&gt;Node18</title>
<path fill="none" stroke="midnightblue" d="M722.245,-331C741.463,-331 761.797,-331 779.775,-331"/>
<polygon fill="midnightblue" stroke="midnightblue" points="722.011,-327.5 712.011,-331 722.011,-334.5 722.011,-327.5"/>
</g>
<!-- Node23 -->
<g id="node45" class="node"><title>Node23</title>
<a xlink:href="classMojServiceMessage.htm" target="_top" xlink:title="MojServiceMessage">
<polygon fill="white" stroke="black" points="591.5,-220.5 591.5,-241.5 704.5,-241.5 704.5,-220.5 591.5,-220.5"/>
<text text-anchor="middle" x="648" y="-228.5" font-family="Helvetica,sans-Serif" font-size="10.00">MojServiceMessage</text>
</a>
</g>
<!-- Node22&#45;&gt;Node23 -->
<g id="edge44" class="edge"><title>Node22&#45;&gt;Node23</title>
<path fill="none" stroke="midnightblue" d="M504.985,-216.103C531.326,-218.846 563.937,-222.243 591.363,-225.1"/>
<polygon fill="midnightblue" stroke="midnightblue" points="505.163,-212.602 494.854,-215.047 504.438,-219.565 505.163,-212.602"/>
</g>
<!-- Node24 -->
<g id="node47" class="node"><title>Node24</title>
<a xlink:href="classMojLunaMessage.htm" target="_top" xlink:title="MojLunaMessage">
<polygon fill="white" stroke="black" points="783.5,-280.5 783.5,-301.5 884.5,-301.5 884.5,-280.5 783.5,-280.5"/>
<text text-anchor="middle" x="834" y="-288.5" font-family="Helvetica,sans-Serif" font-size="10.00">MojLunaMessage</text>
</a>
</g>
<!-- Node23&#45;&gt;Node24 -->
<g id="edge46" class="edge"><title>Node23&#45;&gt;Node24</title>
<path fill="none" stroke="midnightblue" d="M683.793,-245.32C704.67,-253.404 731.616,-263.381 756,-271 766.808,-274.377 778.586,-277.62 789.637,-280.474"/>
<polygon fill="midnightblue" stroke="midnightblue" points="684.954,-242.015 674.366,-241.638 682.408,-248.536 684.954,-242.015"/>
</g>
<!-- Node25 -->
<g id="node49" class="node"><title>Node25</title>
<a xlink:href="classMojSocketMessage.htm" target="_top" xlink:title="MojSocketMessage">
<polygon fill="white" stroke="black" points="779,-240.5 779,-261.5 889,-261.5 889,-240.5 779,-240.5"/>
<text text-anchor="middle" x="834" y="-248.5" font-family="Helvetica,sans-Serif" font-size="10.00">MojSocketMessage</text>
</a>
</g>
<!-- Node23&#45;&gt;Node25 -->
<g id="edge48" class="edge"><title>Node23&#45;&gt;Node25</title>
<path fill="none" stroke="midnightblue" d="M714.728,-238.175C735.798,-240.441 758.827,-242.917 778.983,-245.084"/>
<polygon fill="midnightblue" stroke="midnightblue" points="714.881,-234.671 704.564,-237.082 714.132,-241.631 714.881,-234.671"/>
</g>
<!-- Node26 -->
<g id="node51" class="node"><title>Node26</title>
<polygon fill="white" stroke="#bfbfbf" points="759.5,-200.5 759.5,-221.5 908.5,-221.5 908.5,-200.5 759.5,-200.5"/>
<text text-anchor="middle" x="834" y="-208.5" font-family="Helvetica,sans-Serif" font-size="10.00">MojSocketService::Message</text>
</g>
<!-- Node23&#45;&gt;Node26 -->
<g id="edge50" class="edge"><title>Node23&#45;&gt;Node26</title>
<path fill="none" stroke="midnightblue" d="M714.851,-223.812C729.228,-222.266 744.514,-220.622 759.172,-219.046"/>
<polygon fill="midnightblue" stroke="midnightblue" points="714.132,-220.369 704.564,-224.918 714.881,-227.329 714.132,-220.369"/>
</g>
<!-- Node28 -->
<g id="node55" class="node"><title>Node28</title>
<a xlink:href="classMojDbServiceHandlerBase.htm" target="_top" xlink:title="MojDbServiceHandlerBase">
<polygon fill="white" stroke="black" points="576.5,-160.5 576.5,-181.5 719.5,-181.5 719.5,-160.5 576.5,-160.5"/>
<text text-anchor="middle" x="648" y="-168.5" font-family="Helvetica,sans-Serif" font-size="10.00">MojDbServiceHandlerBase</text>
</a>
</g>
<!-- Node27&#45;&gt;Node28 -->
<g id="edge54" class="edge"><title>Node27&#45;&gt;Node28</title>
<path fill="none" stroke="midnightblue" d="M543.568,-171C554.55,-171 565.68,-171 576.378,-171"/>
<polygon fill="midnightblue" stroke="midnightblue" points="543.54,-167.5 533.54,-171 543.54,-174.5 543.54,-167.5"/>
</g>
<!-- Node29 -->
<g id="node57" class="node"><title>Node29</title>
<a xlink:href="classMojDbServiceHandler.htm" target="_top" xlink:title="MojDbServiceHandler">
<polygon fill="white" stroke="black" points="774.5,-160.5 774.5,-181.5 893.5,-181.5 893.5,-160.5 774.5,-160.5"/>
<text text-anchor="middle" x="834" y="-168.5" font-family="Helvetica,sans-Serif" font-size="10.00">MojDbServiceHandler</text>
</a>
</g>
<!-- Node28&#45;&gt;Node29 -->
<g id="edge56" class="edge"><title>Node28&#45;&gt;Node29</title>
<path fill="none" stroke="midnightblue" d="M729.936,-171C744.918,-171 760.287,-171 774.461,-171"/>
<polygon fill="midnightblue" stroke="midnightblue" points="729.646,-167.5 719.646,-171 729.646,-174.5 729.646,-167.5"/>
</g>
<!-- Node30 -->
<g id="node59" class="node"><title>Node30</title>
<a xlink:href="classMojDbServiceHandlerInternal.htm" target="_top" xlink:title="MojDbServiceHandlerInternal">
<polygon fill="white" stroke="black" points="756.5,-120.5 756.5,-141.5 911.5,-141.5 911.5,-120.5 756.5,-120.5"/>
<text text-anchor="middle" x="834" y="-128.5" font-family="Helvetica,sans-Serif" font-size="10.00">MojDbServiceHandlerInternal</text>
</a>
</g>
<!-- Node28&#45;&gt;Node30 -->
<g id="edge58" class="edge"><title>Node28&#45;&gt;Node30</title>
<path fill="none" stroke="midnightblue" d="M706.692,-158.378C731.933,-152.95 761.095,-146.679 785.134,-141.509"/>
<polygon fill="midnightblue" stroke="midnightblue" points="705.91,-154.966 696.869,-160.49 707.382,-161.81 705.91,-154.966"/>
</g>
<!-- Node32 -->
<g id="node63" class="node"><title>Node32</title>
<a xlink:href="classMojLunaRequest.htm" target="_top" xlink:title="MojLunaRequest">
<polygon fill="white" stroke="black" points="600,-120.5 600,-141.5 696,-141.5 696,-120.5 600,-120.5"/>
<text text-anchor="middle" x="648" y="-128.5" font-family="Helvetica,sans-Serif" font-size="10.00">MojLunaRequest</text>
</a>
</g>
<!-- Node31&#45;&gt;Node32 -->
<g id="edge62" class="edge"><title>Node31&#45;&gt;Node32</title>
<path fill="none" stroke="midnightblue" d="M520.377,-131C546.319,-131 575.73,-131 599.774,-131"/>
<polygon fill="midnightblue" stroke="midnightblue" points="520.25,-127.5 510.25,-131 520.25,-134.5 520.25,-127.5"/>
</g>
</g>
</svg>
