<?xml version="1.0" encoding="UTF-8" standalone="no"?>
<!DOCTYPE svg PUBLIC "-//W3C//DTD SVG 1.1//EN"
 "http://www.w3.org/Graphics/SVG/1.1/DTD/svg11.dtd">
<!-- Generated by graphviz version 2.26.3 (20100126.1600)
 -->
<!-- Title: MojService::SubscriptionKey Pages: 1 -->
<svg width="181pt" height="94pt"
 viewBox="0.00 0.00 181.00 94.00" xmlns="http://www.w3.org/2000/svg" xmlns:xlink="http://www.w3.org/1999/xlink">
<g id="graph1" class="graph" transform="scale(1 1) rotate(0) translate(4 90)">
<title>MojService::SubscriptionKey</title>
<polygon fill="white" stroke="white" points="-4,5 -4,-90 178,-90 178,5 -4,5"/>
<!-- Node1 -->
<g id="node1" class="node"><title>Node1</title>
<polygon fill="#bfbfbf" stroke="black" points="-0.5,-0.5 -0.5,-21.5 148.5,-21.5 148.5,-0.5 -0.5,-0.5"/>
<text text-anchor="middle" x="74" y="-8.5" font-family="Helvetica,sans-Serif" font-size="10.00">MojService::SubscriptionKey</text>
</g>
<!-- Node2 -->
<g id="node2" class="node"><title>Node2</title>
<a xlink:href="classMojObject.htm" target="_top" xlink:title="MojObject">
<polygon fill="white" stroke="black" points="42,-62.5 42,-83.5 106,-83.5 106,-62.5 42,-62.5"/>
<text text-anchor="middle" x="74" y="-70.5" font-family="Helvetica,sans-Serif" font-size="10.00">MojObject</text>
</a>
</g>
<!-- Node2&#45;&gt;Node1 -->
<g id="edge2" class="edge"><title>Node2&#45;&gt;Node1</title>
<path fill="none" stroke="midnightblue" d="M74,-52.2993C74,-42.0786 74,-30.1727 74,-21.7774"/>
<polygon fill="midnightblue" stroke="midnightblue" points="70.5001,-52.4825 74,-62.4825 77.5001,-52.4826 70.5001,-52.4825"/>
</g>
<!-- Node2&#45;&gt;Node2 -->
<g id="edge4" class="edge"><title>Node2&#45;&gt;Node2</title>
<path fill="none" stroke="#9a32cd" stroke-dasharray="5,2" d="M116.222,-78.0661C120.945,-77.1106 124,-75.4219 124,-73 124,-69.125 116.179,-67.127 106.22,-67.0059"/>
<polygon fill="#9a32cd" stroke="#9a32cd" points="115.854,-74.5851 106.22,-78.9941 116.501,-81.5552 115.854,-74.5851"/>
<text text-anchor="middle" x="148.5" y="-77" font-family="Helvetica,sans-Serif" font-size="10.00"> Null</text>
<text text-anchor="middle" x="148.5" y="-64" font-family="Helvetica,sans-Serif" font-size="10.00">Undefined</text>
</g>
</g>
</svg>
