<?xml version="1.0" encoding="UTF-8" standalone="no"?>
<!DOCTYPE svg PUBLIC "-//W3C//DTD SVG 1.1//EN"
 "http://www.w3.org/Graphics/SVG/1.1/DTD/svg11.dtd">
<!-- Generated by graphviz version 2.26.3 (20100126.1600)
 -->
<!-- Title: MojSlot3&lt; THANDLER, TARG1, TARG2, TARG3 &gt; Pages: 1 -->
<svg width="152pt" height="316pt"
 viewBox="0.00 0.00 152.00 316.00" xmlns="http://www.w3.org/2000/svg" xmlns:xlink="http://www.w3.org/1999/xlink">
<g id="graph1" class="graph" transform="scale(1 1) rotate(0) translate(4 312)">
<title>MojSlot3&lt; THANDLER, TARG1, TARG2, TARG3 &gt;</title>
<polygon fill="white" stroke="white" points="-4,5 -4,-312 149,-312 149,5 -4,5"/>
<!-- Node1 -->
<g id="node1" class="node"><title>Node1</title>
<polygon fill="#bfbfbf" stroke="black" points="-0.5,-85 -0.5,-119 144.5,-119 144.5,-85 -0.5,-85"/>
<text text-anchor="start" x="7.5" y="-106" font-family="Helvetica,sans-Serif" font-size="10.00">MojSlot3&lt; THANDLER,</text>
<text text-anchor="middle" x="72" y="-93" font-family="Helvetica,sans-Serif" font-size="10.00"> TARG1, TARG2, TARG3 &gt;</text>
</g>
<!-- Node5 -->
<g id="node9" class="node"><title>Node5</title>
<a xlink:href="classMojSignal3_1_1Slot.htm" target="_top" xlink:title="MojSignal3\&lt; THANDLER,\l TARG1, TARG2, TARG3\l \&gt;::Slot">
<polygon fill="white" stroke="black" points="3.5,-0.5 3.5,-47.5 140.5,-47.5 140.5,-0.5 3.5,-0.5"/>
<text text-anchor="start" x="11.5" y="-34.5" font-family="Helvetica,sans-Serif" font-size="10.00">MojSignal3&lt; THANDLER,</text>
<text text-anchor="start" x="11.5" y="-21.5" font-family="Helvetica,sans-Serif" font-size="10.00"> TARG1, TARG2, TARG3</text>
<text text-anchor="middle" x="72" y="-8.5" font-family="Helvetica,sans-Serif" font-size="10.00"> &gt;::Slot</text>
</a>
</g>
<!-- Node1&#45;&gt;Node5 -->
<g id="edge8" class="edge"><title>Node1&#45;&gt;Node5</title>
<path fill="none" stroke="midnightblue" d="M72,-74.5793C72,-65.8339 72,-56.2342 72,-47.77"/>
<polygon fill="midnightblue" stroke="midnightblue" points="68.5001,-74.6892 72,-84.6893 75.5001,-74.6893 68.5001,-74.6892"/>
</g>
<!-- Node2 -->
<g id="node2" class="node"><title>Node2</title>
<a xlink:href="structMojSlotBase3.htm" target="_top" xlink:title="MojSlotBase3\&lt; TARG1,\l TARG2, TARG3 \&gt;">
<polygon fill="white" stroke="black" points="8,-157 8,-191 136,-191 136,-157 8,-157"/>
<text text-anchor="start" x="16" y="-178" font-family="Helvetica,sans-Serif" font-size="10.00">MojSlotBase3&lt; TARG1,</text>
<text text-anchor="middle" x="72" y="-165" font-family="Helvetica,sans-Serif" font-size="10.00"> TARG2, TARG3 &gt;</text>
</a>
</g>
<!-- Node2&#45;&gt;Node1 -->
<g id="edge2" class="edge"><title>Node2&#45;&gt;Node1</title>
<path fill="none" stroke="midnightblue" d="M72,-146.719C72,-137.572 72,-127.625 72,-119.441"/>
<polygon fill="midnightblue" stroke="midnightblue" points="68.5001,-146.937 72,-156.937 75.5001,-146.937 68.5001,-146.937"/>
</g>
<!-- Node3 -->
<g id="node4" class="node"><title>Node3</title>
<a xlink:href="classMojSlotBase.htm" target="_top" xlink:title="MojSlotBase">
<polygon fill="white" stroke="black" points="34,-228.5 34,-249.5 110,-249.5 110,-228.5 34,-228.5"/>
<text text-anchor="middle" x="72" y="-236.5" font-family="Helvetica,sans-Serif" font-size="10.00">MojSlotBase</text>
</a>
</g>
<!-- Node3&#45;&gt;Node2 -->
<g id="edge4" class="edge"><title>Node3&#45;&gt;Node2</title>
<path fill="none" stroke="midnightblue" d="M72,-218.131C72,-209.405 72,-199.391 72,-191.11"/>
<polygon fill="midnightblue" stroke="midnightblue" points="68.5001,-218.267 72,-228.267 75.5001,-218.267 68.5001,-218.267"/>
</g>
<!-- Node4 -->
<g id="node6" class="node"><title>Node4</title>
<a xlink:href="classMojNoCopy.htm" target="_top" xlink:title="MojNoCopy">
<polygon fill="white" stroke="black" points="36,-286.5 36,-307.5 108,-307.5 108,-286.5 36,-286.5"/>
<text text-anchor="middle" x="72" y="-294.5" font-family="Helvetica,sans-Serif" font-size="10.00">MojNoCopy</text>
</a>
</g>
<!-- Node4&#45;&gt;Node3 -->
<g id="edge6" class="edge"><title>Node4&#45;&gt;Node3</title>
<path fill="none" stroke="#8b1a1a" d="M72,-276.191C72,-267.168 72,-256.994 72,-249.571"/>
<polygon fill="#8b1a1a" stroke="#8b1a1a" points="68.5001,-276.362 72,-286.362 75.5001,-276.362 68.5001,-276.362"/>
</g>
</g>
</svg>
