<?xml version="1.0" encoding="UTF-8" standalone="no"?>
<!DOCTYPE svg PUBLIC "-//W3C//DTD SVG 1.1//EN"
 "http://www.w3.org/Graphics/SVG/1.1/DTD/svg11.dtd">
<!-- Generated by graphviz version 2.26.3 (20100126.1600)
 -->
<!-- Title: MojDbStorageItem Pages: 1 -->
<svg width="247pt" height="166pt"
 viewBox="0.00 0.00 247.00 166.00" xmlns="http://www.w3.org/2000/svg" xmlns:xlink="http://www.w3.org/1999/xlink">
<g id="graph1" class="graph" transform="scale(1 1) rotate(0) translate(4 162)">
<title>MojDbStorageItem</title>
<polygon fill="white" stroke="white" points="-4,5 -4,-162 244,-162 244,5 -4,5"/>
<!-- Node1 -->
<g id="node1" class="node"><title>Node1</title>
<polygon fill="#bfbfbf" stroke="black" points="40,-0.5 40,-21.5 144,-21.5 144,-0.5 40,-0.5"/>
<text text-anchor="middle" x="92" y="-8.5" font-family="Helvetica,sans-Serif" font-size="10.00">MojDbStorageItem</text>
</g>
<!-- Node2 -->
<g id="node2" class="node"><title>Node2</title>
<a xlink:href="classMojRefCounted.htm" target="_top" xlink:title="MojRefCounted">
<polygon fill="white" stroke="black" points="0,-74.5 0,-95.5 90,-95.5 90,-74.5 0,-74.5"/>
<text text-anchor="middle" x="45" y="-82.5" font-family="Helvetica,sans-Serif" font-size="10.00">MojRefCounted</text>
</a>
</g>
<!-- Node2&#45;&gt;Node1 -->
<g id="edge2" class="edge"><title>Node2&#45;&gt;Node1</title>
<path fill="none" stroke="midnightblue" d="M57.1255,-65.9088C66.0861,-51.8005 77.9545,-33.1143 85.2785,-21.5827"/>
<polygon fill="midnightblue" stroke="midnightblue" points="54.1409,-64.0798 51.734,-74.3976 60.0498,-67.8328 54.1409,-64.0798"/>
</g>
<!-- Node3 -->
<g id="node4" class="node"><title>Node3</title>
<a xlink:href="classMojNoCopy.htm" target="_top" xlink:title="MojNoCopy">
<polygon fill="white" stroke="black" points="9,-136.5 9,-157.5 81,-157.5 81,-136.5 9,-136.5"/>
<text text-anchor="middle" x="45" y="-144.5" font-family="Helvetica,sans-Serif" font-size="10.00">MojNoCopy</text>
</a>
</g>
<!-- Node3&#45;&gt;Node2 -->
<g id="edge4" class="edge"><title>Node3&#45;&gt;Node2</title>
<path fill="none" stroke="#8b1a1a" d="M45,-126.299C45,-116.079 45,-104.173 45,-95.7774"/>
<polygon fill="#8b1a1a" stroke="#8b1a1a" points="41.5001,-126.483 45,-136.483 48.5001,-126.483 41.5001,-126.483"/>
</g>
<!-- Node4 -->
<g id="node6" class="node"><title>Node4</title>
<a xlink:href="classMojObject.htm" target="_top" xlink:title="MojObject">
<polygon fill="white" stroke="black" points="108,-74.5 108,-95.5 172,-95.5 172,-74.5 108,-74.5"/>
<text text-anchor="middle" x="140" y="-82.5" font-family="Helvetica,sans-Serif" font-size="10.00">MojObject</text>
</a>
</g>
<!-- Node4&#45;&gt;Node1 -->
<g id="edge6" class="edge"><title>Node4&#45;&gt;Node1</title>
<path fill="none" stroke="#9a32cd" stroke-dasharray="5,2" d="M127.617,-65.9088C118.465,-51.8005 106.344,-33.1143 98.8645,-21.5827"/>
<polygon fill="#9a32cd" stroke="#9a32cd" points="124.744,-67.9127 133.123,-74.3976 130.617,-64.1033 124.744,-67.9127"/>
<text text-anchor="middle" x="131" y="-44.5" font-family="Helvetica,sans-Serif" font-size="10.00"> m_id</text>
</g>
<!-- Node4&#45;&gt;Node4 -->
<g id="edge8" class="edge"><title>Node4&#45;&gt;Node4</title>
<path fill="none" stroke="#9a32cd" stroke-dasharray="5,2" d="M182.222,-90.0661C186.945,-89.1106 190,-87.4219 190,-85 190,-81.125 182.179,-79.127 172.22,-79.0059"/>
<polygon fill="#9a32cd" stroke="#9a32cd" points="181.854,-86.5851 172.22,-90.9941 182.501,-93.5552 181.854,-86.5851"/>
<text text-anchor="middle" x="214.5" y="-89" font-family="Helvetica,sans-Serif" font-size="10.00"> Null</text>
<text text-anchor="middle" x="214.5" y="-76" font-family="Helvetica,sans-Serif" font-size="10.00">Undefined</text>
</g>
</g>
</svg>
