<?xml version="1.0" encoding="UTF-8" standalone="no"?>
<!DOCTYPE svg PUBLIC "-//W3C//DTD SVG 1.1//EN"
 "http://www.w3.org/Graphics/SVG/1.1/DTD/svg11.dtd">
<!-- Generated by graphviz version 2.26.3 (20100126.1600)
 -->
<!-- Title: MojDbBerkeleyEngine Pages: 1 -->
<svg width="299pt" height="474pt"
 viewBox="0.00 0.00 299.00 474.00" xmlns="http://www.w3.org/2000/svg" xmlns:xlink="http://www.w3.org/1999/xlink">
<g id="graph1" class="graph" transform="scale(1 1) rotate(0) translate(4 470)">
<title>MojDbBerkeleyEngine</title>
<polygon fill="white" stroke="white" points="-4,5 -4,-470 296,-470 296,5 -4,5"/>
<!-- Node1 -->
<g id="node1" class="node"><title>Node1</title>
<polygon fill="#bfbfbf" stroke="black" points="151.5,-0.5 151.5,-21.5 272.5,-21.5 272.5,-0.5 151.5,-0.5"/>
<text text-anchor="middle" x="212" y="-8.5" font-family="Helvetica,sans-Serif" font-size="10.00">MojDbBerkeleyEngine</text>
</g>
<!-- Node2 -->
<g id="node2" class="node"><title>Node2</title>
<a xlink:href="classMojDbStorageEngine.htm" target="_top" xlink:title="MojDbStorageEngine">
<polygon fill="white" stroke="black" points="65.5,-60.5 65.5,-81.5 182.5,-81.5 182.5,-60.5 65.5,-60.5"/>
<text text-anchor="middle" x="124" y="-68.5" font-family="Helvetica,sans-Serif" font-size="10.00">MojDbStorageEngine</text>
</a>
</g>
<!-- Node2&#45;&gt;Node1 -->
<g id="edge2" class="edge"><title>Node2&#45;&gt;Node1</title>
<path fill="none" stroke="midnightblue" d="M148.239,-54.4731C163.615,-43.9895 183.055,-30.7352 196.404,-21.6339"/>
<polygon fill="midnightblue" stroke="midnightblue" points="146.023,-51.748 139.733,-60.2732 149.967,-57.5316 146.023,-51.748"/>
</g>
<!-- Node3 -->
<g id="node4" class="node"><title>Node3</title>
<a xlink:href="classMojRefCounted.htm" target="_top" xlink:title="MojRefCounted">
<polygon fill="white" stroke="black" points="59,-384.5 59,-405.5 149,-405.5 149,-384.5 59,-384.5"/>
<text text-anchor="middle" x="104" y="-392.5" font-family="Helvetica,sans-Serif" font-size="10.00">MojRefCounted</text>
</a>
</g>
<!-- Node3&#45;&gt;Node2 -->
<g id="edge4" class="edge"><title>Node3&#45;&gt;Node2</title>
<path fill="none" stroke="midnightblue" d="M59.9276,-380.532C31.5739,-368.142 0,-347.132 0,-315 0,-315 0,-315 0,-150 0,-112.733 40.3318,-92.2782 74.9919,-81.5807"/>
<polygon fill="midnightblue" stroke="midnightblue" points="58.7894,-383.848 69.3695,-384.407 61.4471,-377.372 58.7894,-383.848"/>
</g>
<!-- Node7 -->
<g id="node13" class="node"><title>Node7</title>
<a xlink:href="classMojDbStorageEngineFactory.htm" target="_top" xlink:title="MojDbStorageEngineFactory">
<polygon fill="white" stroke="black" points="28,-304.5 28,-325.5 180,-325.5 180,-304.5 28,-304.5"/>
<text text-anchor="middle" x="104" y="-312.5" font-family="Helvetica,sans-Serif" font-size="10.00">MojDbStorageEngineFactory</text>
</a>
</g>
<!-- Node3&#45;&gt;Node7 -->
<g id="edge16" class="edge"><title>Node3&#45;&gt;Node7</title>
<path fill="none" stroke="midnightblue" d="M104,-373.958C104,-358.413 104,-337.897 104,-325.618"/>
<polygon fill="midnightblue" stroke="midnightblue" points="100.5,-374.211 104,-384.211 107.5,-374.211 100.5,-374.211"/>
</g>
<!-- Node4 -->
<g id="node6" class="node"><title>Node4</title>
<a xlink:href="classMojNoCopy.htm" target="_top" xlink:title="MojNoCopy">
<polygon fill="white" stroke="black" points="172,-444.5 172,-465.5 244,-465.5 244,-444.5 172,-444.5"/>
<text text-anchor="middle" x="208" y="-452.5" font-family="Helvetica,sans-Serif" font-size="10.00">MojNoCopy</text>
</a>
</g>
<!-- Node4&#45;&gt;Node3 -->
<g id="edge6" class="edge"><title>Node4&#45;&gt;Node3</title>
<path fill="none" stroke="#8b1a1a" d="M180.619,-439.203C162.259,-428.611 138.576,-414.948 122.432,-405.634"/>
<polygon fill="#8b1a1a" stroke="#8b1a1a" points="178.996,-442.308 189.407,-444.273 182.494,-436.244 178.996,-442.308"/>
</g>
<!-- Node6 -->
<g id="node10" class="node"><title>Node6</title>
<a xlink:href="classMojSmartPtrBase.htm" target="_top" xlink:title="MojSmartPtrBase\&lt; MojDbStorage\lEngineFactory \&gt;">
<polygon fill="white" stroke="black" points="36,-219 36,-253 212,-253 212,-219 36,-219"/>
<text text-anchor="start" x="44" y="-240" font-family="Helvetica,sans-Serif" font-size="10.00">MojSmartPtrBase&lt; MojDbStorage</text>
<text text-anchor="middle" x="124" y="-227" font-family="Helvetica,sans-Serif" font-size="10.00">EngineFactory &gt;</text>
</a>
</g>
<!-- Node4&#45;&gt;Node6 -->
<g id="edge12" class="edge"><title>Node4&#45;&gt;Node6</title>
<path fill="none" stroke="#8b1a1a" d="M209.372,-434.334C210.524,-404.155 209.43,-346.949 189,-304 179.319,-283.648 161.187,-265.478 146.528,-253.051"/>
<polygon fill="#8b1a1a" stroke="#8b1a1a" points="205.868,-434.327 208.857,-444.492 212.859,-434.682 205.868,-434.327"/>
</g>
<!-- Node8 -->
<g id="node16" class="node"><title>Node8</title>
<a xlink:href="classMojLogger.htm" target="_top" xlink:title="MojLogger">
<polygon fill="white" stroke="black" points="223,-344.5 223,-365.5 291,-365.5 291,-344.5 223,-344.5"/>
<text text-anchor="middle" x="257" y="-352.5" font-family="Helvetica,sans-Serif" font-size="10.00">MojLogger</text>
</a>
</g>
<!-- Node4&#45;&gt;Node8 -->
<g id="edge20" class="edge"><title>Node4&#45;&gt;Node8</title>
<path fill="none" stroke="#8b1a1a" d="M217.775,-435.05C228.016,-414.151 243.713,-382.117 251.794,-365.625"/>
<polygon fill="#8b1a1a" stroke="#8b1a1a" points="214.501,-433.778 213.244,-444.298 220.787,-436.858 214.501,-433.778"/>
</g>
<!-- Node5 -->
<g id="node8" class="node"><title>Node5</title>
<a xlink:href="classMojRefCountedPtr.htm" target="_top" xlink:title="MojRefCountedPtr\&lt; MojDbStorage\lEngineFactory \&gt;">
<polygon fill="white" stroke="black" points="34,-133 34,-167 214,-167 214,-133 34,-133"/>
<text text-anchor="start" x="42" y="-154" font-family="Helvetica,sans-Serif" font-size="10.00">MojRefCountedPtr&lt; MojDbStorage</text>
<text text-anchor="middle" x="124" y="-141" font-family="Helvetica,sans-Serif" font-size="10.00">EngineFactory &gt;</text>
</a>
</g>
<!-- Node5&#45;&gt;Node2 -->
<g id="edge8" class="edge"><title>Node5&#45;&gt;Node2</title>
<path fill="none" stroke="#9a32cd" stroke-dasharray="5,2" d="M124,-122.623C124,-108.473 124,-92.0243 124,-81.5672"/>
<polygon fill="#9a32cd" stroke="#9a32cd" points="120.5,-122.858 124,-132.858 127.5,-122.858 120.5,-122.858"/>
<text text-anchor="middle" x="149" y="-104.5" font-family="Helvetica,sans-Serif" font-size="10.00"> m_factory</text>
</g>
<!-- Node6&#45;&gt;Node5 -->
<g id="edge10" class="edge"><title>Node6&#45;&gt;Node5</title>
<path fill="none" stroke="midnightblue" d="M124,-208.342C124,-194.774 124,-178.861 124,-167.084"/>
<polygon fill="midnightblue" stroke="midnightblue" points="120.5,-208.597 124,-218.597 127.5,-208.597 120.5,-208.597"/>
</g>
<!-- Node7&#45;&gt;Node6 -->
<g id="edge14" class="edge"><title>Node7&#45;&gt;Node6</title>
<path fill="none" stroke="#9a32cd" stroke-dasharray="5,2" d="M109.178,-294.549C112.433,-281.691 116.584,-265.293 119.665,-253.124"/>
<polygon fill="#9a32cd" stroke="#9a32cd" points="105.759,-293.793 106.697,-304.346 112.545,-295.511 105.759,-293.793"/>
<text text-anchor="middle" x="127" y="-276.5" font-family="Helvetica,sans-Serif" font-size="10.00"> m_p</text>
</g>
<!-- Node8&#45;&gt;Node1 -->
<g id="edge18" class="edge"><title>Node8&#45;&gt;Node1</title>
<path fill="none" stroke="#9a32cd" stroke-dasharray="5,2" d="M254.858,-333.812C253.501,-318.581 252,-297.545 252,-279 252,-279 252,-279 252,-71 252,-50.9692 236.375,-32.5394 224.656,-21.5339"/>
<polygon fill="#9a32cd" stroke="#9a32cd" points="251.413,-334.566 255.84,-344.191 258.382,-333.906 251.413,-334.566"/>
<text text-anchor="middle" x="266.5" y="-190.5" font-family="Helvetica,sans-Serif" font-size="10.00"> s_log</text>
</g>
</g>
</svg>
