<?xml version="1.0" encoding="UTF-8" standalone="no"?>
<!DOCTYPE svg PUBLIC "-//W3C//DTD SVG 1.1//EN"
 "http://www.w3.org/Graphics/SVG/1.1/DTD/svg11.dtd">
<!-- Generated by graphviz version 2.26.3 (20100126.1600)
 -->
<!-- Title: MojDb Pages: 1 -->
<svg width="337pt" height="240pt"
 viewBox="0.00 0.00 337.00 240.00" xmlns="http://www.w3.org/2000/svg" xmlns:xlink="http://www.w3.org/1999/xlink">
<g id="graph1" class="graph" transform="scale(1 1) rotate(0) translate(4 236)">
<title>MojDb</title>
<polygon fill="white" stroke="white" points="-4,5 -4,-236 334,-236 334,5 -4,5"/>
<!-- Node1 -->
<g id="node1" class="node"><title>Node1</title>
<polygon fill="#bfbfbf" stroke="black" points="97.5,-0.5 97.5,-21.5 144.5,-21.5 144.5,-0.5 97.5,-0.5"/>
<text text-anchor="middle" x="121" y="-8.5" font-family="Helvetica,sans-Serif" font-size="10.00">MojDb</text>
</g>
<!-- Node2 -->
<g id="node2" class="node"><title>Node2</title>
<a xlink:href="classMojNoCopy.htm" target="_top" xlink:title="MojNoCopy">
<polygon fill="white" stroke="black" points="0,-210.5 0,-231.5 72,-231.5 72,-210.5 0,-210.5"/>
<text text-anchor="middle" x="36" y="-218.5" font-family="Helvetica,sans-Serif" font-size="10.00">MojNoCopy</text>
</a>
</g>
<!-- Node2&#45;&gt;Node1 -->
<g id="edge2" class="edge"><title>Node2&#45;&gt;Node1</title>
<path fill="none" stroke="#8b1a1a" d="M34.9735,-200.428C34.5849,-191.668 34.1905,-181.337 34,-172 32.7549,-110.963 33.3989,-87.2966 72,-40 78.6879,-31.8056 88.3453,-25.395 97.3215,-20.7085"/>
<polygon fill="#8b1a1a" stroke="#8b1a1a" points="31.4807,-200.665 35.4469,-210.49 38.473,-200.336 31.4807,-200.665"/>
</g>
<!-- Node5 -->
<g id="node8" class="node"><title>Node5</title>
<a xlink:href="classMojLogger.htm" target="_top" xlink:title="MojLogger">
<polygon fill="white" stroke="black" points="43,-150.5 43,-171.5 111,-171.5 111,-150.5 43,-150.5"/>
<text text-anchor="middle" x="77" y="-158.5" font-family="Helvetica,sans-Serif" font-size="10.00">MojLogger</text>
</a>
</g>
<!-- Node2&#45;&gt;Node5 -->
<g id="edge10" class="edge"><title>Node2&#45;&gt;Node5</title>
<path fill="none" stroke="#8b1a1a" d="M49.1384,-201.773C55.9607,-191.789 64.0374,-179.97 69.7335,-171.634"/>
<polygon fill="#8b1a1a" stroke="#8b1a1a" points="46.0822,-200.042 43.33,-210.273 51.8617,-203.991 46.0822,-200.042"/>
</g>
<!-- Node3 -->
<g id="node4" class="node"><title>Node3</title>
<polygon fill="white" stroke="#bfbfbf" points="129,-150.5 129,-171.5 167,-171.5 167,-150.5 129,-150.5"/>
<text text-anchor="middle" x="148" y="-158.5" font-family="Helvetica,sans-Serif" font-size="10.00">char</text>
</g>
<!-- Node3&#45;&gt;Node1 -->
<g id="edge4" class="edge"><title>Node3&#45;&gt;Node1</title>
<path fill="none" stroke="#9a32cd" stroke-dasharray="5,2" d="M144.227,-140.041C138.386,-107.588 127.363,-46.3507 122.924,-21.6899"/>
<polygon fill="#9a32cd" stroke="#9a32cd" points="140.842,-140.991 146.058,-150.212 147.731,-139.75 140.842,-140.991"/>
<text text-anchor="middle" x="171" y="-122.5" font-family="Helvetica,sans-Serif" font-size="10.00"> IdKey</text>
<text text-anchor="middle" x="171" y="-109.5" font-family="Helvetica,sans-Serif" font-size="10.00">DelKey</text>
<text text-anchor="middle" x="171" y="-96.5" font-family="Helvetica,sans-Serif" font-size="10.00">SyncKey</text>
<text text-anchor="middle" x="171" y="-83.5" font-family="Helvetica,sans-Serif" font-size="10.00">IgnoreIdKey</text>
<text text-anchor="middle" x="171" y="-70.5" font-family="Helvetica,sans-Serif" font-size="10.00">RevKey</text>
<text text-anchor="middle" x="171" y="-57.5" font-family="Helvetica,sans-Serif" font-size="10.00">KindKey</text>
<text text-anchor="middle" x="171" y="-44.5" font-family="Helvetica,sans-Serif" font-size="10.00">ConfKey</text>
</g>
<!-- Node4 -->
<g id="node6" class="node"><title>Node4</title>
<polygon fill="white" stroke="#bfbfbf" points="185,-150.5 185,-171.5 307,-171.5 307,-150.5 185,-150.5"/>
<text text-anchor="middle" x="246" y="-158.5" font-family="Helvetica,sans-Serif" font-size="10.00">static const MojUInt32</text>
</g>
<!-- Node4&#45;&gt;Node1 -->
<g id="edge6" class="edge"><title>Node4&#45;&gt;Node1</title>
<path fill="none" stroke="#9a32cd" stroke-dasharray="5,2" d="M244.253,-140.196C240.926,-113.51 231.351,-67.4066 204,-40 188.15,-24.1177 163.135,-16.9132 144.707,-13.6573"/>
<polygon fill="#9a32cd" stroke="#9a32cd" points="240.793,-140.759 245.33,-150.334 247.753,-140.02 240.793,-140.759"/>
<text text-anchor="middle" x="285.5" y="-90" font-family="Helvetica,sans-Serif" font-size="10.00"> AutoCompactSize</text>
<text text-anchor="middle" x="285.5" y="-77" font-family="Helvetica,sans-Serif" font-size="10.00">AutoBatchSize</text>
</g>
<!-- Node5&#45;&gt;Node1 -->
<g id="edge8" class="edge"><title>Node5&#45;&gt;Node1</title>
<path fill="none" stroke="#9a32cd" stroke-dasharray="5,2" d="M75.9025,-140.178C75.425,-115.14 77.3452,-72.4358 93,-40 96.407,-32.9409 102.192,-26.5077 107.623,-21.5039"/>
<polygon fill="#9a32cd" stroke="#9a32cd" points="72.4101,-140.465 76.2498,-150.339 79.406,-140.226 72.4101,-140.465"/>
<text text-anchor="middle" x="107.5" y="-83.5" font-family="Helvetica,sans-Serif" font-size="10.00"> s_log</text>
</g>
</g>
</svg>
