<?xml version="1.0" encoding="UTF-8" standalone="no"?>
<!DOCTYPE svg PUBLIC "-//W3C//DTD SVG 1.1//EN"
 "http://www.w3.org/Graphics/SVG/1.1/DTD/svg11.dtd">
<!-- Generated by graphviz version 2.26.3 (20100126.1600)
 -->
<!-- Title: MojService Pages: 1 -->
<svg width="494pt" height="446pt"
 viewBox="0.00 0.00 494.00 446.32" xmlns="http://www.w3.org/2000/svg" xmlns:xlink="http://www.w3.org/1999/xlink">
<g id="graph1" class="graph" transform="scale(1 1) rotate(0) translate(4 442.321)">
<title>MojService</title>
<polygon fill="white" stroke="white" points="-4,5 -4,-442.321 491,-442.321 491,5 -4,5"/>
<!-- Node1 -->
<g id="node1" class="node"><title>Node1</title>
<polygon fill="#bfbfbf" stroke="black" points="416.5,-224.5 416.5,-245.5 485.5,-245.5 485.5,-224.5 416.5,-224.5"/>
<text text-anchor="middle" x="451" y="-232.5" font-family="Helvetica,sans-Serif" font-size="10.00">MojService</text>
</g>
<!-- Node2 -->
<g id="node2" class="node"><title>Node2</title>
<a xlink:href="classMojNoCopy.htm" target="_top" xlink:title="MojNoCopy">
<polygon fill="white" stroke="black" points="11,-359.5 11,-380.5 83,-380.5 83,-359.5 11,-359.5"/>
<text text-anchor="middle" x="47" y="-367.5" font-family="Helvetica,sans-Serif" font-size="10.00">MojNoCopy</text>
</a>
</g>
<!-- Node2&#45;&gt;Node1 -->
<g id="edge2" class="edge"><title>Node2&#45;&gt;Node1</title>
<path fill="none" stroke="#8b1a1a" d="M75.2349,-385.337C91.3523,-393.216 112.231,-401.986 132,-406 247.957,-429.543 306.096,-469.525 398,-395 422.092,-375.464 442.629,-278.558 448.976,-245.824"/>
<polygon fill="#8b1a1a" stroke="#8b1a1a" points="76.3704,-381.989 65.8674,-380.597 73.2099,-388.235 76.3704,-381.989"/>
</g>
<!-- Node3 -->
<g id="node4" class="node"><title>Node3</title>
<a xlink:href="classMojThreadMutex.htm" target="_top" xlink:title="MojThreadMutex">
<polygon fill="white" stroke="black" points="167.5,-375.5 167.5,-396.5 264.5,-396.5 264.5,-375.5 167.5,-375.5"/>
<text text-anchor="middle" x="216" y="-383.5" font-family="Helvetica,sans-Serif" font-size="10.00">MojThreadMutex</text>
</a>
</g>
<!-- Node2&#45;&gt;Node3 -->
<g id="edge6" class="edge"><title>Node2&#45;&gt;Node3</title>
<path fill="none" stroke="#8b1a1a" d="M93.4306,-374.396C116.375,-376.568 144.053,-379.188 167.298,-381.389"/>
<polygon fill="#8b1a1a" stroke="#8b1a1a" points="93.5401,-370.891 83.2547,-373.432 92.8803,-377.859 93.5401,-370.891"/>
</g>
<!-- Node8 -->
<g id="node16" class="node"><title>Node8</title>
<a xlink:href="classMojMessageDispatcher.htm" target="_top" xlink:title="MojMessageDispatcher">
<polygon fill="white" stroke="black" points="152,-335.5 152,-356.5 280,-356.5 280,-335.5 152,-335.5"/>
<text text-anchor="middle" x="216" y="-343.5" font-family="Helvetica,sans-Serif" font-size="10.00">MojMessageDispatcher</text>
</a>
</g>
<!-- Node2&#45;&gt;Node8 -->
<g id="edge20" class="edge"><title>Node2&#45;&gt;Node8</title>
<path fill="none" stroke="#8b1a1a" d="M93.2395,-363.433C111.311,-360.867 132.343,-357.88 151.839,-355.112"/>
<polygon fill="#8b1a1a" stroke="#8b1a1a" points="92.6633,-359.98 83.2547,-364.851 93.6475,-366.911 92.6633,-359.98"/>
</g>
<!-- Node9 -->
<g id="node19" class="node"><title>Node9</title>
<a xlink:href="classMojLogger.htm" target="_top" xlink:title="MojLogger">
<polygon fill="white" stroke="black" points="182,-295.5 182,-316.5 250,-316.5 250,-295.5 182,-295.5"/>
<text text-anchor="middle" x="216" y="-303.5" font-family="Helvetica,sans-Serif" font-size="10.00">MojLogger</text>
</a>
</g>
<!-- Node2&#45;&gt;Node9 -->
<g id="edge24" class="edge"><title>Node2&#45;&gt;Node9</title>
<path fill="none" stroke="#8b1a1a" d="M73.3201,-354.247C89.7345,-344.967 111.557,-333.595 132,-326 148.02,-320.048 166.43,-315.431 181.924,-312.141"/>
<polygon fill="#8b1a1a" stroke="#8b1a1a" points="71.2497,-351.4 64.3318,-359.425 74.7439,-357.466 71.2497,-351.4"/>
</g>
<!-- Node3&#45;&gt;Node1 -->
<g id="edge4" class="edge"><title>Node3&#45;&gt;Node1</title>
<path fill="none" stroke="#9a32cd" stroke-dasharray="5,2" d="M274.702,-385.575C313.413,-382.448 363.206,-372.661 398,-345 430.689,-319.012 444.453,-267.882 449.061,-245.694"/>
<polygon fill="#9a32cd" stroke="#9a32cd" points="274.348,-382.091 264.608,-386.262 274.823,-389.075 274.348,-382.091"/>
<text text-anchor="middle" x="358" y="-382" font-family="Helvetica,sans-Serif" font-size="10.00"> m_mutex</text>
</g>
<!-- Node4 -->
<g id="node7" class="node"><title>Node4</title>
<a xlink:href="classMojString.htm" target="_top" xlink:title="MojString">
<polygon fill="white" stroke="black" points="185,-224.5 185,-245.5 247,-245.5 247,-224.5 185,-224.5"/>
<text text-anchor="middle" x="216" y="-232.5" font-family="Helvetica,sans-Serif" font-size="10.00">MojString</text>
</a>
</g>
<!-- Node4&#45;&gt;Node1 -->
<g id="edge8" class="edge"><title>Node4&#45;&gt;Node1</title>
<path fill="none" stroke="#9a32cd" stroke-dasharray="5,2" d="M257.24,-235C302.345,-235 373.846,-235 416.219,-235"/>
<polygon fill="#9a32cd" stroke="#9a32cd" points="257.206,-231.5 247.206,-235 257.206,-238.5 257.206,-231.5"/>
<text text-anchor="middle" x="358" y="-239" font-family="Helvetica,sans-Serif" font-size="10.00"> m_name</text>
</g>
<!-- Node4&#45;&gt;Node4 -->
<g id="edge10" class="edge"><title>Node4&#45;&gt;Node4</title>
<path fill="none" stroke="#9a32cd" stroke-dasharray="5,2" d="M197.202,-255.427C198.653,-260.349 204.918,-264 216,-264 233.73,-264 239.133,-254.653 232.207,-245.708"/>
<polygon fill="#9a32cd" stroke="#9a32cd" points="200.599,-256.272 199.793,-245.708 193.836,-254.469 200.599,-256.272"/>
<text text-anchor="middle" x="216" y="-268" font-family="Helvetica,sans-Serif" font-size="10.00"> Empty</text>
</g>
<!-- Node5 -->
<g id="node10" class="node"><title>Node5</title>
<a xlink:href="classMojHashMap.htm" target="_top" xlink:title="MojHashMap\&lt; MojString,\l MojRefCountedPtr\&lt; Category\l \&gt;, const MojChar * \&gt;">
<polygon fill="white" stroke="black" points="136.5,-158.5 136.5,-205.5 295.5,-205.5 295.5,-158.5 136.5,-158.5"/>
<text text-anchor="start" x="144.5" y="-192.5" font-family="Helvetica,sans-Serif" font-size="10.00">MojHashMap&lt; MojString,</text>
<text text-anchor="start" x="144.5" y="-179.5" font-family="Helvetica,sans-Serif" font-size="10.00"> MojRefCountedPtr&lt; Category</text>
<text text-anchor="middle" x="216" y="-166.5" font-family="Helvetica,sans-Serif" font-size="10.00"> &gt;, const MojChar * &gt;</text>
</a>
</g>
<!-- Node5&#45;&gt;Node1 -->
<g id="edge12" class="edge"><title>Node5&#45;&gt;Node1</title>
<path fill="none" stroke="#9a32cd" stroke-dasharray="5,2" d="M305.624,-197.602C335.202,-203.315 368.161,-210.291 398,-218 405.204,-219.861 412.869,-222.141 420.067,-224.419"/>
<polygon fill="#9a32cd" stroke="#9a32cd" points="306.211,-194.151 295.732,-195.713 304.898,-201.026 306.211,-194.151"/>
<text text-anchor="middle" x="358" y="-222" font-family="Helvetica,sans-Serif" font-size="10.00"> m_categories</text>
</g>
<!-- Node6 -->
<g id="node12" class="node"><title>Node6</title>
<a xlink:href="classMojHashBase.htm" target="_top" xlink:title="MojHashBase">
<polygon fill="white" stroke="black" points="5.5,-149.5 5.5,-170.5 88.5,-170.5 88.5,-149.5 5.5,-149.5"/>
<text text-anchor="middle" x="47" y="-157.5" font-family="Helvetica,sans-Serif" font-size="10.00">MojHashBase</text>
</a>
</g>
<!-- Node6&#45;&gt;Node5 -->
<g id="edge14" class="edge"><title>Node6&#45;&gt;Node5</title>
<path fill="none" stroke="#8b1a1a" d="M98.9277,-166.76C110.811,-168.307 123.709,-169.986 136.456,-171.645"/>
<polygon fill="#8b1a1a" stroke="#8b1a1a" points="99.1435,-163.258 88.7753,-165.438 98.2398,-170.2 99.1435,-163.258"/>
</g>
<!-- Node10 -->
<g id="node22" class="node"><title>Node10</title>
<a xlink:href="classMojHashMap.htm" target="_top" xlink:title="MojHashMap\&lt; Token,\l MojRefCountedPtr\&lt; MojService\lRequest \&gt; \&gt;">
<polygon fill="white" stroke="black" points="132,-92.5 132,-139.5 300,-139.5 300,-92.5 132,-92.5"/>
<text text-anchor="start" x="140" y="-126.5" font-family="Helvetica,sans-Serif" font-size="10.00">MojHashMap&lt; Token,</text>
<text text-anchor="start" x="140" y="-113.5" font-family="Helvetica,sans-Serif" font-size="10.00"> MojRefCountedPtr&lt; MojService</text>
<text text-anchor="middle" x="216" y="-100.5" font-family="Helvetica,sans-Serif" font-size="10.00">Request &gt; &gt;</text>
</a>
</g>
<!-- Node6&#45;&gt;Node10 -->
<g id="edge28" class="edge"><title>Node6&#45;&gt;Node10</title>
<path fill="none" stroke="#8b1a1a" d="M97.1964,-146.931C108.086,-144.096 119.891,-141.023 131.691,-137.95"/>
<polygon fill="#8b1a1a" stroke="#8b1a1a" points="96.2752,-143.554 87.4797,-149.461 98.039,-150.328 96.2752,-143.554"/>
</g>
<!-- Node7 -->
<g id="node14" class="node"><title>Node7</title>
<polygon fill="white" stroke="#bfbfbf" points="197,-52.5 197,-73.5 235,-73.5 235,-52.5 197,-52.5"/>
<text text-anchor="middle" x="216" y="-60.5" font-family="Helvetica,sans-Serif" font-size="10.00">char</text>
</g>
<!-- Node7&#45;&gt;Node1 -->
<g id="edge16" class="edge"><title>Node7&#45;&gt;Node1</title>
<path fill="none" stroke="#9a32cd" stroke-dasharray="5,2" d="M245.273,-66.1286C284.881,-71.8471 355.466,-87.5072 398,-129 426.572,-156.872 442.276,-203.374 448.207,-224.264"/>
<polygon fill="#9a32cd" stroke="#9a32cd" points="245.579,-62.6386 235.205,-64.7941 244.659,-69.5779 245.579,-62.6386"/>
<text text-anchor="middle" x="358" y="-133" font-family="Helvetica,sans-Serif" font-size="10.00"> DefaultCategory</text>
</g>
<!-- Node8&#45;&gt;Node1 -->
<g id="edge18" class="edge"><title>Node8&#45;&gt;Node1</title>
<path fill="none" stroke="#9a32cd" stroke-dasharray="5,2" d="M290.309,-336.253C325.106,-329.12 365.865,-316.882 398,-296 418.469,-282.699 435.597,-259.298 444.47,-245.672"/>
<polygon fill="#9a32cd" stroke="#9a32cd" points="289.341,-332.876 280.193,-338.22 290.677,-339.747 289.341,-332.876"/>
<text text-anchor="middle" x="358" y="-332" font-family="Helvetica,sans-Serif" font-size="10.00"> m_dispatcher</text>
</g>
<!-- Node9&#45;&gt;Node1 -->
<g id="edge22" class="edge"><title>Node9&#45;&gt;Node1</title>
<path fill="none" stroke="#9a32cd" stroke-dasharray="5,2" d="M260.159,-296.291C273.065,-293.236 287.153,-289.69 300,-286 343.083,-273.624 392.107,-256.488 422.301,-245.573"/>
<polygon fill="#9a32cd" stroke="#9a32cd" points="259.056,-292.954 250.108,-298.628 260.641,-299.772 259.056,-292.954"/>
<text text-anchor="middle" x="358" y="-283" font-family="Helvetica,sans-Serif" font-size="10.00"> s_log</text>
</g>
<!-- Node10&#45;&gt;Node1 -->
<g id="edge26" class="edge"><title>Node10&#45;&gt;Node1</title>
<path fill="none" stroke="#9a32cd" stroke-dasharray="5,2" d="M309.579,-141.952C339.112,-152.328 371.045,-165.938 398,-183 416.081,-194.444 432.998,-212.911 442.658,-224.481"/>
<polygon fill="#9a32cd" stroke="#9a32cd" points="310.679,-138.629 300.084,-138.697 308.408,-145.251 310.679,-138.629"/>
<text text-anchor="middle" x="358" y="-187" font-family="Helvetica,sans-Serif" font-size="10.00"> m_requests</text>
</g>
<!-- Node11 -->
<g id="node25" class="node"><title>Node11</title>
<a xlink:href="classMojMap.htm" target="_top" xlink:title="MojMap\&lt; SubscriptionKey,\l MojServiceMessage * \&gt;">
<polygon fill="white" stroke="black" points="145.5,-0 145.5,-34 286.5,-34 286.5,-0 145.5,-0"/>
<text text-anchor="start" x="153.5" y="-21" font-family="Helvetica,sans-Serif" font-size="10.00">MojMap&lt; SubscriptionKey,</text>
<text text-anchor="middle" x="216" y="-8" font-family="Helvetica,sans-Serif" font-size="10.00"> MojServiceMessage * &gt;</text>
</a>
</g>
<!-- Node11&#45;&gt;Node1 -->
<g id="edge30" class="edge"><title>Node11&#45;&gt;Node1</title>
<path fill="none" stroke="#9a32cd" stroke-dasharray="5,2" d="M296.829,-22.1287C331.908,-28.2856 371.042,-41.0343 398,-67 421.459,-89.5959 442.571,-190.893 449.002,-224.285"/>
<polygon fill="#9a32cd" stroke="#9a32cd" points="297.002,-18.6121 286.575,-20.4918 295.899,-25.5245 297.002,-18.6121"/>
<text text-anchor="middle" x="358" y="-71" font-family="Helvetica,sans-Serif" font-size="10.00"> m_subscriptions</text>
</g>
<!-- Node12 -->
<g id="node27" class="node"><title>Node12</title>
<a xlink:href="classMojRbTreeBase.htm" target="_top" xlink:title="MojRbTreeBase">
<polygon fill="white" stroke="black" points="0.5,-6.5 0.5,-27.5 93.5,-27.5 93.5,-6.5 0.5,-6.5"/>
<text text-anchor="middle" x="47" y="-14.5" font-family="Helvetica,sans-Serif" font-size="10.00">MojRbTreeBase</text>
</a>
</g>
<!-- Node12&#45;&gt;Node11 -->
<g id="edge32" class="edge"><title>Node12&#45;&gt;Node11</title>
<path fill="none" stroke="#8b1a1a" d="M103.649,-17C117.056,-17 131.517,-17 145.457,-17"/>
<polygon fill="#8b1a1a" stroke="#8b1a1a" points="103.627,-13.5001 93.6274,-17 103.627,-20.5001 103.627,-13.5001"/>
</g>
</g>
</svg>
