<?xml version="1.0" encoding="UTF-8" standalone="no"?>
<!DOCTYPE svg PUBLIC "-//W3C//DTD SVG 1.1//EN"
 "http://www.w3.org/Graphics/SVG/1.1/DTD/svg11.dtd">
<!-- Generated by graphviz version 2.26.3 (20100126.1600)
 -->
<!-- Title: MojDbBerkeleyEngine Pages: 1 -->
<svg width="128pt" height="204pt"
 viewBox="0.00 0.00 128.00 204.00" xmlns="http://www.w3.org/2000/svg" xmlns:xlink="http://www.w3.org/1999/xlink">
<g id="graph1" class="graph" transform="scale(1 1) rotate(0) translate(4 200)">
<title>MojDbBerkeleyEngine</title>
<polygon fill="white" stroke="white" points="-4,5 -4,-200 125,-200 125,5 -4,5"/>
<!-- Node1 -->
<g id="node1" class="node"><title>Node1</title>
<polygon fill="#bfbfbf" stroke="black" points="-0.5,-0.5 -0.5,-21.5 120.5,-21.5 120.5,-0.5 -0.5,-0.5"/>
<text text-anchor="middle" x="60" y="-8.5" font-family="Helvetica,sans-Serif" font-size="10.00">MojDbBerkeleyEngine</text>
</g>
<!-- Node2 -->
<g id="node2" class="node"><title>Node2</title>
<a xlink:href="classMojDbStorageEngine.htm" target="_top" xlink:title="MojDbStorageEngine">
<polygon fill="white" stroke="black" points="1.5,-58.5 1.5,-79.5 118.5,-79.5 118.5,-58.5 1.5,-58.5"/>
<text text-anchor="middle" x="60" y="-66.5" font-family="Helvetica,sans-Serif" font-size="10.00">MojDbStorageEngine</text>
</a>
</g>
<!-- Node2&#45;&gt;Node1 -->
<g id="edge2" class="edge"><title>Node2&#45;&gt;Node1</title>
<path fill="none" stroke="midnightblue" d="M60,-48.1906C60,-39.1684 60,-28.9941 60,-21.5707"/>
<polygon fill="midnightblue" stroke="midnightblue" points="56.5001,-48.3619 60,-58.3619 63.5001,-48.3619 56.5001,-48.3619"/>
</g>
<!-- Node3 -->
<g id="node4" class="node"><title>Node3</title>
<a xlink:href="classMojRefCounted.htm" target="_top" xlink:title="MojRefCounted">
<polygon fill="white" stroke="black" points="15,-116.5 15,-137.5 105,-137.5 105,-116.5 15,-116.5"/>
<text text-anchor="middle" x="60" y="-124.5" font-family="Helvetica,sans-Serif" font-size="10.00">MojRefCounted</text>
</a>
</g>
<!-- Node3&#45;&gt;Node2 -->
<g id="edge4" class="edge"><title>Node3&#45;&gt;Node2</title>
<path fill="none" stroke="midnightblue" d="M60,-106.191C60,-97.1684 60,-86.9941 60,-79.5707"/>
<polygon fill="midnightblue" stroke="midnightblue" points="56.5001,-106.362 60,-116.362 63.5001,-106.362 56.5001,-106.362"/>
</g>
<!-- Node4 -->
<g id="node6" class="node"><title>Node4</title>
<a xlink:href="classMojNoCopy.htm" target="_top" xlink:title="MojNoCopy">
<polygon fill="white" stroke="black" points="24,-174.5 24,-195.5 96,-195.5 96,-174.5 24,-174.5"/>
<text text-anchor="middle" x="60" y="-182.5" font-family="Helvetica,sans-Serif" font-size="10.00">MojNoCopy</text>
</a>
</g>
<!-- Node4&#45;&gt;Node3 -->
<g id="edge6" class="edge"><title>Node4&#45;&gt;Node3</title>
<path fill="none" stroke="#8b1a1a" d="M60,-164.191C60,-155.168 60,-144.994 60,-137.571"/>
<polygon fill="#8b1a1a" stroke="#8b1a1a" points="56.5001,-164.362 60,-174.362 63.5001,-164.362 56.5001,-164.362"/>
</g>
</g>
</svg>
