<?xml version="1.0" encoding="UTF-8" standalone="no"?>
<!DOCTYPE svg PUBLIC "-//W3C//DTD SVG 1.1//EN"
 "http://www.w3.org/Graphics/SVG/1.1/DTD/svg11.dtd">
<!-- Generated by graphviz version 2.26.3 (20100126.1600)
 -->
<!-- Title: MojSlotBase2&lt; TARG1, TARG2 &gt; Pages: 1 -->
<svg width="160pt" height="290pt"
 viewBox="0.00 0.00 160.00 290.00" xmlns="http://www.w3.org/2000/svg" xmlns:xlink="http://www.w3.org/1999/xlink">
<g id="graph1" class="graph" transform="scale(1 1) rotate(0) translate(4 286)">
<title>MojSlotBase2&lt; TARG1, TARG2 &gt;</title>
<polygon fill="white" stroke="white" points="-4,5 -4,-286 157,-286 157,5 -4,5"/>
<!-- Node1 -->
<g id="node1" class="node"><title>Node1</title>
<polygon fill="#bfbfbf" stroke="black" points="12,-131 12,-165 140,-165 140,-131 12,-131"/>
<text text-anchor="start" x="20" y="-152" font-family="Helvetica,sans-Serif" font-size="10.00">MojSlotBase2&lt; TARG1,</text>
<text text-anchor="middle" x="76" y="-139" font-family="Helvetica,sans-Serif" font-size="10.00"> TARG2 &gt;</text>
</g>
<!-- Node4 -->
<g id="node7" class="node"><title>Node4</title>
<a xlink:href="classMojSlot2.htm" target="_top" xlink:title="MojSlot2\&lt; TARG1, TARG2 \&gt;">
<polygon fill="white" stroke="black" points="0,-72.5 0,-93.5 152,-93.5 152,-72.5 0,-72.5"/>
<text text-anchor="middle" x="76" y="-80.5" font-family="Helvetica,sans-Serif" font-size="10.00">MojSlot2&lt; TARG1, TARG2 &gt;</text>
</a>
</g>
<!-- Node1&#45;&gt;Node4 -->
<g id="edge6" class="edge"><title>Node1&#45;&gt;Node4</title>
<path fill="none" stroke="midnightblue" d="M76,-120.688C76,-111.242 76,-101.195 76,-93.8521"/>
<polygon fill="midnightblue" stroke="midnightblue" points="72.5001,-120.922 76,-130.922 79.5001,-120.922 72.5001,-120.922"/>
</g>
<!-- Node2 -->
<g id="node2" class="node"><title>Node2</title>
<a xlink:href="classMojSlotBase.htm" target="_top" xlink:title="MojSlotBase">
<polygon fill="white" stroke="black" points="38,-202.5 38,-223.5 114,-223.5 114,-202.5 38,-202.5"/>
<text text-anchor="middle" x="76" y="-210.5" font-family="Helvetica,sans-Serif" font-size="10.00">MojSlotBase</text>
</a>
</g>
<!-- Node2&#45;&gt;Node1 -->
<g id="edge2" class="edge"><title>Node2&#45;&gt;Node1</title>
<path fill="none" stroke="midnightblue" d="M76,-192.131C76,-183.405 76,-173.391 76,-165.11"/>
<polygon fill="midnightblue" stroke="midnightblue" points="72.5001,-192.267 76,-202.267 79.5001,-192.267 72.5001,-192.267"/>
</g>
<!-- Node3 -->
<g id="node4" class="node"><title>Node3</title>
<a xlink:href="classMojNoCopy.htm" target="_top" xlink:title="MojNoCopy">
<polygon fill="white" stroke="black" points="40,-260.5 40,-281.5 112,-281.5 112,-260.5 40,-260.5"/>
<text text-anchor="middle" x="76" y="-268.5" font-family="Helvetica,sans-Serif" font-size="10.00">MojNoCopy</text>
</a>
</g>
<!-- Node3&#45;&gt;Node2 -->
<g id="edge4" class="edge"><title>Node3&#45;&gt;Node2</title>
<path fill="none" stroke="#8b1a1a" d="M76,-250.191C76,-241.168 76,-230.994 76,-223.571"/>
<polygon fill="#8b1a1a" stroke="#8b1a1a" points="72.5001,-250.362 76,-260.362 79.5001,-250.362 72.5001,-250.362"/>
</g>
<!-- Node5 -->
<g id="node9" class="node"><title>Node5</title>
<a xlink:href="classMojSignal2_1_1Slot.htm" target="_top" xlink:title="MojSignal2\&lt; THANDLER,\l TARG1, TARG2 \&gt;::Slot">
<polygon fill="white" stroke="black" points="7.5,-1 7.5,-35 144.5,-35 144.5,-1 7.5,-1"/>
<text text-anchor="start" x="15.5" y="-22" font-family="Helvetica,sans-Serif" font-size="10.00">MojSignal2&lt; THANDLER,</text>
<text text-anchor="middle" x="76" y="-9" font-family="Helvetica,sans-Serif" font-size="10.00"> TARG1, TARG2 &gt;::Slot</text>
</a>
</g>
<!-- Node4&#45;&gt;Node5 -->
<g id="edge8" class="edge"><title>Node4&#45;&gt;Node5</title>
<path fill="none" stroke="midnightblue" d="M76,-62.1306C76,-53.4049 76,-43.3908 76,-35.1099"/>
<polygon fill="midnightblue" stroke="midnightblue" points="72.5001,-62.2665 76,-72.2666 79.5001,-62.2666 72.5001,-62.2665"/>
</g>
</g>
</svg>
