<?xml version="1.0" encoding="UTF-8" standalone="no"?>
<!DOCTYPE svg PUBLIC "-//W3C//DTD SVG 1.1//EN"
 "http://www.w3.org/Graphics/SVG/1.1/DTD/svg11.dtd">
<!-- Generated by graphviz version 2.26.3 (20100126.1600)
 -->
<!-- Title: MojTokenSet Pages: 1 -->
<svg width="183pt" height="102pt"
 viewBox="0.00 0.00 183.00 102.00" xmlns="http://www.w3.org/2000/svg" xmlns:xlink="http://www.w3.org/1999/xlink">
<g id="graph1" class="graph" transform="scale(1 1) rotate(0) translate(4 98)">
<title>MojTokenSet</title>
<polygon fill="white" stroke="white" points="-4,5 -4,-98 180,-98 180,5 -4,5"/>
<!-- Node1 -->
<g id="node1" class="node"><title>Node1</title>
<polygon fill="#bfbfbf" stroke="black" points="43,-0.5 43,-21.5 123,-21.5 123,-0.5 43,-0.5"/>
<text text-anchor="middle" x="83" y="-8.5" font-family="Helvetica,sans-Serif" font-size="10.00">MojTokenSet</text>
</g>
<!-- Node2 -->
<g id="node2" class="node"><title>Node2</title>
<a xlink:href="classMojNoCopy.htm" target="_top" xlink:title="MojNoCopy">
<polygon fill="white" stroke="black" points="0,-72.5 0,-93.5 72,-93.5 72,-72.5 0,-72.5"/>
<text text-anchor="middle" x="36" y="-80.5" font-family="Helvetica,sans-Serif" font-size="10.00">MojNoCopy</text>
</a>
</g>
<!-- Node2&#45;&gt;Node1 -->
<g id="edge2" class="edge"><title>Node2&#45;&gt;Node1</title>
<path fill="none" stroke="midnightblue" d="M48.5269,-63.8099C57.3389,-50.3106 68.8054,-32.7449 76.0365,-21.6674"/>
<polygon fill="midnightblue" stroke="midnightblue" points="45.4704,-62.0892 42.935,-72.3762 51.3321,-65.9155 45.4704,-62.0892"/>
</g>
<!-- Node3 -->
<g id="node4" class="node"><title>Node3</title>
<polygon fill="white" stroke="#bfbfbf" points="89.5,-72.5 89.5,-93.5 172.5,-93.5 172.5,-72.5 89.5,-72.5"/>
<text text-anchor="middle" x="131" y="-80.5" font-family="Helvetica,sans-Serif" font-size="10.00">unsigned char</text>
</g>
<!-- Node3&#45;&gt;Node1 -->
<g id="edge4" class="edge"><title>Node3&#45;&gt;Node1</title>
<path fill="none" stroke="#9a32cd" stroke-dasharray="5,2" d="M118.207,-63.8099C109.207,-50.3106 97.4966,-32.7449 90.1116,-21.6674"/>
<polygon fill="#9a32cd" stroke="#9a32cd" points="115.458,-65.9971 123.917,-72.3762 121.283,-62.1142 115.458,-65.9971"/>
<text text-anchor="middle" x="143" y="-44.5" font-family="Helvetica,sans-Serif" font-size="10.00"> InvalidToken</text>
</g>
</g>
</svg>
