<?xml version="1.0" encoding="UTF-8" standalone="no"?>
<!DOCTYPE svg PUBLIC "-//W3C//DTD SVG 1.1//EN"
 "http://www.w3.org/Graphics/SVG/1.1/DTD/svg11.dtd">
<!-- Generated by graphviz version 2.26.3 (20100126.1600)
 -->
<!-- Title: defs.h Pages: 1 -->
<svg width="412pt" height="88pt"
 viewBox="0.00 0.00 412.00 88.00" xmlns="http://www.w3.org/2000/svg" xmlns:xlink="http://www.w3.org/1999/xlink">
<g id="graph1" class="graph" transform="scale(1 1) rotate(0) translate(4 84)">
<title>defs.h</title>
<polygon fill="white" stroke="white" points="-4,5 -4,-84 409,-84 409,5 -4,5"/>
<!-- Node1 -->
<g id="node1" class="node"><title>Node1</title>
<polygon fill="#bfbfbf" stroke="black" points="185.5,-58.5 185.5,-79.5 230.5,-79.5 230.5,-58.5 185.5,-58.5"/>
<text text-anchor="middle" x="208" y="-66.5" font-family="Helvetica,sans-Serif" font-size="10.00">defs.h</text>
</g>
<!-- Node2 -->
<g id="node3" class="node"><title>Node2</title>
<a xlink:href="MojDbLevelCursor_8cpp.htm" target="_top" xlink:title="MojDbLevelCursor.cpp">
<polygon fill="white" stroke="black" points="-0.5,-0.5 -0.5,-21.5 122.5,-21.5 122.5,-0.5 -0.5,-0.5"/>
<text text-anchor="middle" x="61" y="-8.5" font-family="Helvetica,sans-Serif" font-size="10.00">MojDbLevelCursor.cpp</text>
</a>
</g>
<!-- Node1&#45;&gt;Node2 -->
<g id="edge2" class="edge"><title>Node1&#45;&gt;Node2</title>
<path fill="none" stroke="midnightblue" d="M175.793,-56.2925C149.379,-45.8707 112.433,-31.2933 87.6585,-21.5183"/>
<polygon fill="midnightblue" stroke="midnightblue" points="174.767,-59.6501 185.353,-60.0646 177.336,-53.1386 174.767,-59.6501"/>
</g>
<!-- Node3 -->
<g id="node5" class="node"><title>Node3</title>
<a xlink:href="MojDbLevelDatabase_8cpp.htm" target="_top" xlink:title="MojDbLevelDatabase.cpp">
<polygon fill="white" stroke="black" points="139.5,-0.5 139.5,-21.5 276.5,-21.5 276.5,-0.5 139.5,-0.5"/>
<text text-anchor="middle" x="208" y="-8.5" font-family="Helvetica,sans-Serif" font-size="10.00">MojDbLevelDatabase.cpp</text>
</a>
</g>
<!-- Node1&#45;&gt;Node3 -->
<g id="edge4" class="edge"><title>Node1&#45;&gt;Node3</title>
<path fill="none" stroke="midnightblue" d="M208,-48.1906C208,-39.1684 208,-28.9941 208,-21.5707"/>
<polygon fill="midnightblue" stroke="midnightblue" points="204.5,-48.3619 208,-58.3619 211.5,-48.3619 204.5,-48.3619"/>
</g>
<!-- Node4 -->
<g id="node7" class="node"><title>Node4</title>
<a xlink:href="MojDbLevelTxn_8cpp.htm" target="_top" xlink:title="MojDbLevelTxn.cpp">
<polygon fill="white" stroke="black" points="294,-0.5 294,-21.5 404,-21.5 404,-0.5 294,-0.5"/>
<text text-anchor="middle" x="349" y="-8.5" font-family="Helvetica,sans-Serif" font-size="10.00">MojDbLevelTxn.cpp</text>
</a>
</g>
<!-- Node1&#45;&gt;Node4 -->
<g id="edge6" class="edge"><title>Node1&#45;&gt;Node4</title>
<path fill="none" stroke="midnightblue" d="M240.111,-55.7913C265.218,-45.4633 299.672,-31.291 323.051,-21.674"/>
<polygon fill="midnightblue" stroke="midnightblue" points="238.571,-52.6402 230.654,-59.6813 241.234,-59.1139 238.571,-52.6402"/>
</g>
</g>
</svg>
