<?xml version="1.0" encoding="UTF-8" standalone="no"?>
<!DOCTYPE svg PUBLIC "-//W3C//DTD SVG 1.1//EN"
 "http://www.w3.org/Graphics/SVG/1.1/DTD/svg11.dtd">
<!-- Generated by graphviz version 2.26.3 (20100126.1600)
 -->
<!-- Title: src Pages: 1 -->
<svg width="398pt" height="161pt"
 viewBox="0.00 0.00 398.00 161.00" xmlns="http://www.w3.org/2000/svg" xmlns:xlink="http://www.w3.org/1999/xlink">
<g id="graph1" class="graph" transform="scale(1 1) rotate(0) translate(4 157)">
<title>src</title>
<polygon fill="white" stroke="white" points="-4,5 -4,-157 395,-157 395,5 -4,5"/>
<g id="graph2" class="cluster"><title>clusterdir_d12ce74c60ba4453696fd67a7aa87277</title>
<a xlink:href="dir_d12ce74c60ba4453696fd67a7aa87277.htm" target="_top" xlink:title="db8">
<polygon fill="#ddddee" stroke="black" points="8,-56 8,-145 382,-145 382,-56 8,-56"/>
<text text-anchor="middle" x="195" y="-132" font-family="Helvetica,sans-Serif" font-size="10.00">db8</text>
</a>
</g>
<g id="graph3" class="cluster"><title>clusterdir_67ac0abd6823ecc7fc95b633f646df56</title>
<a xlink:href="dir_67ac0abd6823ecc7fc95b633f646df56.htm" target="_top">
<polygon fill="#eeeeff" stroke="black" points="16,-64 16,-116 374,-116 374,-64 16,-64"/>
</a>
</g>
<!-- dir_67ac0abd6823ecc7fc95b633f646df56 -->
<g id="node3" class="node"><title>dir_67ac0abd6823ecc7fc95b633f646df56</title>
<text text-anchor="middle" x="339" y="-87.5" font-family="Helvetica,sans-Serif" font-size="10.00">src</text>
</g>
<!-- dir_dd1ebf382294f23c4a2ead8c40681283 -->
<g id="node4" class="node"><title>dir_dd1ebf382294f23c4a2ead8c40681283</title>
<a xlink:href="dir_dd1ebf382294f23c4a2ead8c40681283.htm" target="_top" xlink:title="core">
<polygon fill="white" stroke="black" points="294,-108 240,-108 240,-72 294,-72 294,-108"/>
<text text-anchor="middle" x="267" y="-87.5" font-family="Helvetica,sans-Serif" font-size="10.00">core</text>
</a>
</g>
<!-- dir_ab3315a18952f2cc3afda64b4c490669 -->
<g id="node8" class="node"><title>dir_ab3315a18952f2cc3afda64b4c490669</title>
<a xlink:href="dir_ab3315a18952f2cc3afda64b4c490669.htm" target="_top" xlink:title="inc">
<polygon fill="white" stroke="red" points="186,-36 132,-36 132,-1.77636e-14 186,-3.55271e-15 186,-36"/>
<text text-anchor="middle" x="159" y="-15.5" font-family="Helvetica,sans-Serif" font-size="10.00">inc</text>
</a>
</g>
<!-- dir_dd1ebf382294f23c4a2ead8c40681283&#45;&gt;dir_ab3315a18952f2cc3afda64b4c490669 -->
<g id="edge4" class="edge"><title>dir_dd1ebf382294f23c4a2ead8c40681283&#45;&gt;dir_ab3315a18952f2cc3afda64b4c490669</title>
<path fill="none" stroke="black" d="M249.525,-71.6849C243.89,-66.2892 237.431,-60.6034 231,-56 219.936,-48.0807 207.012,-40.7439 195.191,-34.6714"/>
<polygon fill="black" stroke="black" points="196.514,-31.4203 186.004,-30.0854 193.388,-37.6833 196.514,-31.4203"/>
<a xlink:href="dir_000005_000001.htm" target="_top" xlink:title="67">
<text text-anchor="middle" x="200.999" y="-27.9853" font-family="Helvetica,sans-Serif" font-size="10.00">67</text>
</a>
</g>
<!-- dir_1aa12d9a723e06259da3edfdf96bff8d -->
<g id="node5" class="node"><title>dir_1aa12d9a723e06259da3edfdf96bff8d</title>
<a xlink:href="dir_1aa12d9a723e06259da3edfdf96bff8d.htm" target="_top" xlink:title="db">
<polygon fill="white" stroke="black" points="222,-108 168,-108 168,-72 222,-72 222,-108"/>
<text text-anchor="middle" x="195" y="-87.5" font-family="Helvetica,sans-Serif" font-size="10.00">db</text>
</a>
</g>
<!-- dir_1aa12d9a723e06259da3edfdf96bff8d&#45;&gt;dir_ab3315a18952f2cc3afda64b4c490669 -->
<g id="edge8" class="edge"><title>dir_1aa12d9a723e06259da3edfdf96bff8d&#45;&gt;dir_ab3315a18952f2cc3afda64b4c490669</title>
<path fill="none" stroke="black" d="M185.916,-71.8314C181.939,-63.8771 177.185,-54.369 172.786,-45.5723"/>
<polygon fill="black" stroke="black" points="175.809,-43.7923 168.207,-36.4133 169.548,-46.9228 175.809,-43.7923"/>
<a xlink:href="dir_000008_000001.htm" target="_top" xlink:title="142">
<text text-anchor="middle" x="179.956" y="-43.2377" font-family="Helvetica,sans-Serif" font-size="10.00">142</text>
</a>
</g>
<!-- dir_e5d0d25a06e7c62d3c23b6c9edd564e2 -->
<g id="node6" class="node"><title>dir_e5d0d25a06e7c62d3c23b6c9edd564e2</title>
<a xlink:href="dir_e5d0d25a06e7c62d3c23b6c9edd564e2.htm" target="_top" xlink:title="db&#45;luna">
<polygon fill="white" stroke="red" points="150,-108 96,-108 96,-72 150,-72 150,-108"/>
<text text-anchor="middle" x="123" y="-87.5" font-family="Helvetica,sans-Serif" font-size="10.00">db&#45;luna</text>
</a>
</g>
<!-- dir_e5d0d25a06e7c62d3c23b6c9edd564e2&#45;&gt;dir_ab3315a18952f2cc3afda64b4c490669 -->
<g id="edge6" class="edge"><title>dir_e5d0d25a06e7c62d3c23b6c9edd564e2&#45;&gt;dir_ab3315a18952f2cc3afda64b4c490669</title>
<path fill="none" stroke="black" d="M132.084,-71.8314C136.061,-63.8771 140.815,-54.369 145.214,-45.5723"/>
<polygon fill="black" stroke="black" points="148.452,-46.9228 149.793,-36.4133 142.191,-43.7923 148.452,-46.9228"/>
<a xlink:href="dir_000010_000001.htm" target="_top" xlink:title="84">
<text text-anchor="middle" x="149.384" y="-48.9077" font-family="Helvetica,sans-Serif" font-size="10.00">84</text>
</a>
</g>
<!-- dir_b2f31a0800d0cd90d9f359b80758c79b -->
<g id="node7" class="node"><title>dir_b2f31a0800d0cd90d9f359b80758c79b</title>
<a xlink:href="dir_b2f31a0800d0cd90d9f359b80758c79b.htm" target="_top" xlink:title="luna">
<polygon fill="white" stroke="black" points="78,-108 24,-108 24,-72 78,-72 78,-108"/>
<text text-anchor="middle" x="51" y="-87.5" font-family="Helvetica,sans-Serif" font-size="10.00">luna</text>
</a>
</g>
<!-- dir_b2f31a0800d0cd90d9f359b80758c79b&#45;&gt;dir_ab3315a18952f2cc3afda64b4c490669 -->
<g id="edge10" class="edge"><title>dir_b2f31a0800d0cd90d9f359b80758c79b&#45;&gt;dir_ab3315a18952f2cc3afda64b4c490669</title>
<path fill="none" stroke="black" d="M68.4752,-71.6849C74.1104,-66.2892 80.5686,-60.6034 87,-56 98.0642,-48.0807 110.988,-40.7439 122.809,-34.6714"/>
<polygon fill="black" stroke="black" points="124.612,-37.6833 131.996,-30.0854 121.486,-31.4203 124.612,-37.6833"/>
<a xlink:href="dir_000013_000001.htm" target="_top" xlink:title="13">
<text text-anchor="middle" x="122.664" y="-39.3291" font-family="Helvetica,sans-Serif" font-size="10.00">13</text>
</a>
</g>
</g>
</svg>
