<?xml version="1.0" encoding="UTF-8" standalone="no"?>
<!DOCTYPE svg PUBLIC "-//W3C//DTD SVG 1.1//EN"
 "http://www.w3.org/Graphics/SVG/1.1/DTD/svg11.dtd">
<!-- Generated by graphviz version 2.26.3 (20100126.1600)
 -->
<!-- Title: db8 Pages: 1 -->
<svg width="166pt" height="148pt"
 viewBox="0.00 0.00 166.00 148.00" xmlns="http://www.w3.org/2000/svg" xmlns:xlink="http://www.w3.org/1999/xlink">
<g id="graph1" class="graph" transform="scale(1 1) rotate(0) translate(4 144)">
<title>db8</title>
<polygon fill="white" stroke="white" points="-4,5 -4,-144 163,-144 163,5 -4,5"/>
<g id="graph2" class="cluster"><title>clusterdir_d12ce74c60ba4453696fd67a7aa87277</title>
<a xlink:href="dir_d12ce74c60ba4453696fd67a7aa87277.htm" target="_top">
<polygon fill="#eeeeff" stroke="black" points="8,-8 8,-132 150,-132 150,-8 8,-8"/>
</a>
</g>
<!-- dir_d12ce74c60ba4453696fd67a7aa87277 -->
<g id="node2" class="node"><title>dir_d12ce74c60ba4453696fd67a7aa87277</title>
<text text-anchor="middle" x="115" y="-103.5" font-family="Helvetica,sans-Serif" font-size="10.00">db8</text>
</g>
<!-- dir_ab3315a18952f2cc3afda64b4c490669 -->
<g id="node3" class="node"><title>dir_ab3315a18952f2cc3afda64b4c490669</title>
<a xlink:href="dir_ab3315a18952f2cc3afda64b4c490669.htm" target="_top" xlink:title="inc">
<polygon fill="white" stroke="red" points="70,-52 16,-52 16,-16 70,-16 70,-52"/>
<text text-anchor="middle" x="43" y="-31.5" font-family="Helvetica,sans-Serif" font-size="10.00">inc</text>
</a>
</g>
<!-- dir_67ac0abd6823ecc7fc95b633f646df56 -->
<g id="node4" class="node"><title>dir_67ac0abd6823ecc7fc95b633f646df56</title>
<a xlink:href="dir_67ac0abd6823ecc7fc95b633f646df56.htm" target="_top" xlink:title="src">
<polygon fill="white" stroke="red" points="70,-124 16,-124 16,-88 70,-88 70,-124"/>
<text text-anchor="middle" x="43" y="-103.5" font-family="Helvetica,sans-Serif" font-size="10.00">src</text>
</a>
</g>
<!-- dir_67ac0abd6823ecc7fc95b633f646df56&#45;&gt;dir_ab3315a18952f2cc3afda64b4c490669 -->
<g id="edge3" class="edge"><title>dir_67ac0abd6823ecc7fc95b633f646df56&#45;&gt;dir_ab3315a18952f2cc3afda64b4c490669</title>
<path fill="none" stroke="black" d="M43,-87.8314C43,-80.131 43,-70.9743 43,-62.4166"/>
<polygon fill="black" stroke="black" points="46.5001,-62.4132 43,-52.4133 39.5001,-62.4133 46.5001,-62.4132"/>
<a xlink:href="dir_000004_000001.htm" target="_top" xlink:title="306">
<text text-anchor="middle" x="49.3393" y="-63.5079" font-family="Helvetica,sans-Serif" font-size="10.00">306</text>
</a>
</g>
</g>
</svg>
