<?xml version="1.0" encoding="UTF-8" standalone="no"?>
<!DOCTYPE svg PUBLIC "-//W3C//DTD SVG 1.1//EN"
 "http://www.w3.org/Graphics/SVG/1.1/DTD/svg11.dtd">
<!-- Generated by graphviz version 2.26.3 (20100126.1600)
 -->
<!-- Title: db Pages: 1 -->
<svg width="150pt" height="153pt"
 viewBox="0.00 0.00 150.00 153.00" xmlns="http://www.w3.org/2000/svg" xmlns:xlink="http://www.w3.org/1999/xlink">
<g id="graph1" class="graph" transform="scale(1 1) rotate(0) translate(4 149)">
<title>db</title>
<polygon fill="white" stroke="white" points="-4,5 -4,-149 147,-149 147,5 -4,5"/>
<g id="graph2" class="cluster"><title>clusterdir_ab3315a18952f2cc3afda64b4c490669</title>
<a xlink:href="dir_ab3315a18952f2cc3afda64b4c490669.htm" target="_top" xlink:title="inc">
<polygon fill="#ddddee" stroke="black" points="8,-64 8,-137 78,-137 78,-64 8,-64"/>
<text text-anchor="middle" x="43" y="-124" font-family="Helvetica,sans-Serif" font-size="10.00">inc</text>
</a>
</g>
<!-- dir_4ebc794d77aff84e0824324efa8a4e54 -->
<g id="node2" class="node"><title>dir_4ebc794d77aff84e0824324efa8a4e54</title>
<a xlink:href="dir_4ebc794d77aff84e0824324efa8a4e54.htm" target="_top" xlink:title="db">
<polygon fill="#eeeeff" stroke="black" points="70,-108 16,-108 16,-72 70,-72 70,-108"/>
<text text-anchor="middle" x="43" y="-87.5" font-family="Helvetica,sans-Serif" font-size="10.00">db</text>
</a>
</g>
<!-- dir_685b375dd46acea5de12f3408a2d36f6 -->
<g id="node3" class="node"><title>dir_685b375dd46acea5de12f3408a2d36f6</title>
<a xlink:href="dir_685b375dd46acea5de12f3408a2d36f6.htm" target="_top" xlink:title="luna">
<polygon fill="none" stroke="black" points="142,-108 88,-108 88,-72 142,-72 142,-108"/>
<text text-anchor="middle" x="115" y="-87.5" font-family="Helvetica,sans-Serif" font-size="10.00">luna</text>
</a>
</g>
<!-- dir_4ebc794d77aff84e0824324efa8a4e54&#45;&gt;dir_685b375dd46acea5de12f3408a2d36f6 -->
<g id="edge7" class="edge"><title>dir_4ebc794d77aff84e0824324efa8a4e54&#45;&gt;dir_685b375dd46acea5de12f3408a2d36f6</title>
<path fill="none" stroke="black" d="M70,-90C72.6147,-90 75.2295,-90 77.8442,-90"/>
<polygon fill="black" stroke="black" points="77.9297,-93.5001 87.9297,-90 77.9297,-86.5001 77.9297,-93.5001"/>
<a xlink:href="dir_000009_000012.htm" target="_top" xlink:title="1">
<text text-anchor="middle" x="74.3351" y="-93.8393" font-family="Helvetica,sans-Serif" font-size="10.00">1</text>
</a>
</g>
<!-- dir_9b75fe00674b2f7c8f07e2ba0c802a09 -->
<g id="node4" class="node"><title>dir_9b75fe00674b2f7c8f07e2ba0c802a09</title>
<a xlink:href="dir_9b75fe00674b2f7c8f07e2ba0c802a09.htm" target="_top" xlink:title="core">
<polygon fill="white" stroke="red" points="106,-36 52,-36 52,-1.77636e-14 106,-3.55271e-15 106,-36"/>
<text text-anchor="middle" x="79" y="-15.5" font-family="Helvetica,sans-Serif" font-size="10.00">core</text>
</a>
</g>
<!-- dir_4ebc794d77aff84e0824324efa8a4e54&#45;&gt;dir_9b75fe00674b2f7c8f07e2ba0c802a09 -->
<g id="edge9" class="edge"><title>dir_4ebc794d77aff84e0824324efa8a4e54&#45;&gt;dir_9b75fe00674b2f7c8f07e2ba0c802a09</title>
<path fill="none" stroke="black" d="M46.1319,-71.8314C49.368,-63.7925 53.9746,-54.1666 58.7828,-45.2918"/>
<polygon fill="black" stroke="black" points="61.9292,-46.8385 63.8174,-36.4133 55.8401,-43.3856 61.9292,-46.8385"/>
<a xlink:href="dir_000009_000006.htm" target="_top" xlink:title="65">
<text text-anchor="middle" x="62.626" y="-48.8659" font-family="Helvetica,sans-Serif" font-size="10.00">65</text>
</a>
</g>
<!-- dir_685b375dd46acea5de12f3408a2d36f6&#45;&gt;dir_9b75fe00674b2f7c8f07e2ba0c802a09 -->
<g id="edge3" class="edge"><title>dir_685b375dd46acea5de12f3408a2d36f6&#45;&gt;dir_9b75fe00674b2f7c8f07e2ba0c802a09</title>
<path fill="none" stroke="black" d="M105.916,-71.8314C101.939,-63.8771 97.1845,-54.369 92.7861,-45.5723"/>
<polygon fill="black" stroke="black" points="95.8093,-43.7923 88.2066,-36.4133 89.5483,-46.9228 95.8093,-43.7923"/>
<a xlink:href="dir_000012_000006.htm" target="_top" xlink:title="8">
<text text-anchor="middle" x="99.9563" y="-43.2377" font-family="Helvetica,sans-Serif" font-size="10.00">8</text>
</a>
</g>
<!-- dir_9b75fe00674b2f7c8f07e2ba0c802a09&#45;&gt;dir_4ebc794d77aff84e0824324efa8a4e54 -->
<g id="edge5" class="edge"><title>dir_9b75fe00674b2f7c8f07e2ba0c802a09&#45;&gt;dir_4ebc794d77aff84e0824324efa8a4e54</title>
<path fill="none" stroke="black" d="M75.7694,-36.4133C72.5057,-44.484 67.8833,-54.1182 63.0711,-62.9775"/>
<polygon fill="black" stroke="black" points="59.9372,-61.4084 58.0367,-71.8314 66.0222,-64.8684 59.9372,-61.4084"/>
<a xlink:href="dir_000006_000009.htm" target="_top" xlink:title="1">
<text text-anchor="middle" x="59.2457" y="-54.3802" font-family="Helvetica,sans-Serif" font-size="10.00">1</text>
</a>
</g>
</g>
</svg>
