<?xml version="1.0" encoding="UTF-8" standalone="no"?>
<!DOCTYPE svg PUBLIC "-//W3C//DTD SVG 1.1//EN"
 "http://www.w3.org/Graphics/SVG/1.1/DTD/svg11.dtd">
<!-- Generated by graphviz version 2.26.3 (20100126.1600)
 -->
<!-- Title: db&#45;luna Pages: 1 -->
<svg width="182pt" height="233pt"
 viewBox="0.00 0.00 182.00 233.00" xmlns="http://www.w3.org/2000/svg" xmlns:xlink="http://www.w3.org/1999/xlink">
<g id="graph1" class="graph" transform="scale(1 1) rotate(0) translate(4 229)">
<title>db&#45;luna</title>
<polygon fill="white" stroke="white" points="-4,5 -4,-229 179,-229 179,5 -4,5"/>
<g id="graph2" class="cluster"><title>clusterdir_ab3315a18952f2cc3afda64b4c490669</title>
<a xlink:href="dir_ab3315a18952f2cc3afda64b4c490669.htm" target="_top" xlink:title="inc">
<polygon fill="#ddddee" stroke="black" points="8,-128 8,-217 166,-217 166,-128 8,-128"/>
<text text-anchor="middle" x="87" y="-204" font-family="Helvetica,sans-Serif" font-size="10.00">inc</text>
</a>
</g>
<g id="graph3" class="cluster"><title>clusterdir_6a393f136aaead588d871a301e0428f6</title>
<a xlink:href="dir_6a393f136aaead588d871a301e0428f6.htm" target="_top">
<polygon fill="#eeeeff" stroke="black" points="16,-136 16,-188 158,-188 158,-136 16,-136"/>
</a>
</g>
<!-- dir_6a393f136aaead588d871a301e0428f6 -->
<g id="node3" class="node"><title>dir_6a393f136aaead588d871a301e0428f6</title>
<text text-anchor="middle" x="51" y="-159.5" font-family="Helvetica,sans-Serif" font-size="10.00">db&#45;luna</text>
</g>
<!-- dir_9b75fe00674b2f7c8f07e2ba0c802a09 -->
<g id="node5" class="node"><title>dir_9b75fe00674b2f7c8f07e2ba0c802a09</title>
<a xlink:href="dir_9b75fe00674b2f7c8f07e2ba0c802a09.htm" target="_top" xlink:title="core">
<polygon fill="white" stroke="red" points="114,-108 60,-108 60,-72 114,-72 114,-108"/>
<text text-anchor="middle" x="87" y="-87.5" font-family="Helvetica,sans-Serif" font-size="10.00">core</text>
</a>
</g>
<!-- dir_6a393f136aaead588d871a301e0428f6&#45;&gt;dir_9b75fe00674b2f7c8f07e2ba0c802a09 -->
<g id="edge10" class="edge"><title>dir_6a393f136aaead588d871a301e0428f6&#45;&gt;dir_9b75fe00674b2f7c8f07e2ba0c802a09</title>
<path fill="none" stroke="black" d="M60.0843,-143.831C64.0615,-135.877 68.8155,-126.369 73.2139,-117.572"/>
<polygon fill="black" stroke="black" points="76.4517,-118.923 77.7934,-108.413 70.1907,-115.792 76.4517,-118.923"/>
<a xlink:href="dir_000002_000006.htm" target="_top" xlink:title="9">
<text text-anchor="middle" x="77.3837" y="-120.908" font-family="Helvetica,sans-Serif" font-size="10.00">9</text>
</a>
</g>
<!-- dir_4ebc794d77aff84e0824324efa8a4e54 -->
<g id="node6" class="node"><title>dir_4ebc794d77aff84e0824324efa8a4e54</title>
<a xlink:href="dir_4ebc794d77aff84e0824324efa8a4e54.htm" target="_top" xlink:title="db">
<polygon fill="none" stroke="black" points="114,-36 60,-36 60,-1.77636e-14 114,-3.55271e-15 114,-36"/>
<text text-anchor="middle" x="87" y="-15.5" font-family="Helvetica,sans-Serif" font-size="10.00">db</text>
</a>
</g>
<!-- dir_6a393f136aaead588d871a301e0428f6&#45;&gt;dir_4ebc794d77aff84e0824324efa8a4e54 -->
<g id="edge12" class="edge"><title>dir_6a393f136aaead588d871a301e0428f6&#45;&gt;dir_4ebc794d77aff84e0824324efa8a4e54</title>
<path fill="none" stroke="black" d="M47.9883,-143.964C45.5895,-125.467 43.7101,-96.0768 51,-72 53.9564,-62.2355 59.3252,-52.6229 65.03,-44.2762"/>
<polygon fill="black" stroke="black" points="67.9414,-46.2239 71.0095,-36.0831 62.2871,-42.0973 67.9414,-46.2239"/>
<a xlink:href="dir_000002_000009.htm" target="_top" xlink:title="28">
<text text-anchor="middle" x="68.1158" y="-48.3013" font-family="Helvetica,sans-Serif" font-size="10.00">28</text>
</a>
</g>
<!-- dir_df4da4abfc6c1d108ce932ad6588aac1 -->
<g id="node4" class="node"><title>dir_df4da4abfc6c1d108ce932ad6588aac1</title>
<a xlink:href="dir_df4da4abfc6c1d108ce932ad6588aac1.htm" target="_top" xlink:title="leveldb">
<polygon fill="white" stroke="black" points="150,-180 96,-180 96,-144 150,-144 150,-180"/>
<text text-anchor="middle" x="123" y="-159.5" font-family="Helvetica,sans-Serif" font-size="10.00">leveldb</text>
</a>
</g>
<!-- dir_df4da4abfc6c1d108ce932ad6588aac1&#45;&gt;dir_9b75fe00674b2f7c8f07e2ba0c802a09 -->
<g id="edge4" class="edge"><title>dir_df4da4abfc6c1d108ce932ad6588aac1&#45;&gt;dir_9b75fe00674b2f7c8f07e2ba0c802a09</title>
<path fill="none" stroke="black" d="M113.916,-143.831C109.939,-135.877 105.185,-126.369 100.786,-117.572"/>
<polygon fill="black" stroke="black" points="103.809,-115.792 96.2066,-108.413 97.5483,-118.923 103.809,-115.792"/>
<a xlink:href="dir_000003_000006.htm" target="_top" xlink:title="7">
<text text-anchor="middle" x="107.956" y="-115.238" font-family="Helvetica,sans-Serif" font-size="10.00">7</text>
</a>
</g>
<!-- dir_df4da4abfc6c1d108ce932ad6588aac1&#45;&gt;dir_4ebc794d77aff84e0824324efa8a4e54 -->
<g id="edge6" class="edge"><title>dir_df4da4abfc6c1d108ce932ad6588aac1&#45;&gt;dir_4ebc794d77aff84e0824324efa8a4e54</title>
<path fill="none" stroke="black" d="M126.012,-143.964C128.41,-125.467 130.29,-96.0768 123,-72 120.044,-62.2355 114.675,-52.6229 108.97,-44.2762"/>
<polygon fill="black" stroke="black" points="111.713,-42.0973 102.99,-36.0831 106.059,-46.2239 111.713,-42.0973"/>
<a xlink:href="dir_000003_000009.htm" target="_top" xlink:title="15">
<text text-anchor="middle" x="116.125" y="-40.827" font-family="Helvetica,sans-Serif" font-size="10.00">15</text>
</a>
</g>
<!-- dir_9b75fe00674b2f7c8f07e2ba0c802a09&#45;&gt;dir_4ebc794d77aff84e0824324efa8a4e54 -->
<g id="edge8" class="edge"><title>dir_9b75fe00674b2f7c8f07e2ba0c802a09&#45;&gt;dir_4ebc794d77aff84e0824324efa8a4e54</title>
<path fill="none" stroke="black" d="M81.0476,-71.8314C80.2972,-64.131 80.0763,-54.9743 80.3849,-46.4166"/>
<polygon fill="black" stroke="black" points="83.8792,-46.6161 81.024,-36.4133 76.8935,-46.1697 83.8792,-46.6161"/>
<a xlink:href="dir_000006_000009.htm" target="_top" xlink:title="1">
<text text-anchor="middle" x="86.4836" y="-47.8844" font-family="Helvetica,sans-Serif" font-size="10.00">1</text>
</a>
</g>
<!-- dir_4ebc794d77aff84e0824324efa8a4e54&#45;&gt;dir_9b75fe00674b2f7c8f07e2ba0c802a09 -->
<g id="edge14" class="edge"><title>dir_4ebc794d77aff84e0824324efa8a4e54&#45;&gt;dir_9b75fe00674b2f7c8f07e2ba0c802a09</title>
<path fill="none" stroke="black" d="M92.976,-36.4133C93.7071,-44.0593 93.9203,-53.1084 93.6155,-61.5726"/>
<polygon fill="black" stroke="black" points="90.1048,-61.6264 92.9524,-71.8314 97.0902,-62.078 90.1048,-61.6264"/>
<a xlink:href="dir_000009_000006.htm" target="_top" xlink:title="65">
<text text-anchor="middle" x="87.5032" y="-55.3562" font-family="Helvetica,sans-Serif" font-size="10.00">65</text>
</a>
</g>
</g>
</svg>
