<?xml version="1.0" encoding="UTF-8" standalone="no"?>
<!DOCTYPE svg PUBLIC "-//W3C//DTD SVG 1.1//EN"
 "http://www.w3.org/Graphics/SVG/1.1/DTD/svg11.dtd">
<!-- Generated by graphviz version 2.26.3 (20100126.1600)
 -->
<!-- Title: leveldb Pages: 1 -->
<svg width="94pt" height="153pt"
 viewBox="0.00 0.00 94.00 153.00" xmlns="http://www.w3.org/2000/svg" xmlns:xlink="http://www.w3.org/1999/xlink">
<g id="graph1" class="graph" transform="scale(1 1) rotate(0) translate(4 149)">
<title>leveldb</title>
<polygon fill="white" stroke="white" points="-4,5 -4,-149 91,-149 91,5 -4,5"/>
<g id="graph2" class="cluster"><title>clusterdir_e5d0d25a06e7c62d3c23b6c9edd564e2</title>
<a xlink:href="dir_e5d0d25a06e7c62d3c23b6c9edd564e2.htm" target="_top" xlink:title="db&#45;luna">
<polygon fill="#ddddee" stroke="black" points="8,-64 8,-137 78,-137 78,-64 8,-64"/>
<text text-anchor="middle" x="43" y="-124" font-family="Helvetica,sans-Serif" font-size="10.00">db&#45;luna</text>
</a>
</g>
<!-- dir_176b4ea5e782820793bf0206ed06e6fc -->
<g id="node2" class="node"><title>dir_176b4ea5e782820793bf0206ed06e6fc</title>
<a xlink:href="dir_176b4ea5e782820793bf0206ed06e6fc.htm" target="_top" xlink:title="leveldb">
<polygon fill="#eeeeff" stroke="black" points="70,-108 16,-108 16,-72 70,-72 70,-108"/>
<text text-anchor="middle" x="43" y="-87.5" font-family="Helvetica,sans-Serif" font-size="10.00">leveldb</text>
</a>
</g>
<!-- dir_ab3315a18952f2cc3afda64b4c490669 -->
<g id="node3" class="node"><title>dir_ab3315a18952f2cc3afda64b4c490669</title>
<a xlink:href="dir_ab3315a18952f2cc3afda64b4c490669.htm" target="_top" xlink:title="inc">
<polygon fill="white" stroke="red" points="70,-36 16,-36 16,-1.77636e-14 70,-3.55271e-15 70,-36"/>
<text text-anchor="middle" x="43" y="-15.5" font-family="Helvetica,sans-Serif" font-size="10.00">inc</text>
</a>
</g>
<!-- dir_176b4ea5e782820793bf0206ed06e6fc&#45;&gt;dir_ab3315a18952f2cc3afda64b4c490669 -->
<g id="edge3" class="edge"><title>dir_176b4ea5e782820793bf0206ed06e6fc&#45;&gt;dir_ab3315a18952f2cc3afda64b4c490669</title>
<path fill="none" stroke="black" d="M43,-71.8314C43,-64.131 43,-54.9743 43,-46.4166"/>
<polygon fill="black" stroke="black" points="46.5001,-46.4132 43,-36.4133 39.5001,-46.4133 46.5001,-46.4132"/>
<a xlink:href="dir_000011_000001.htm" target="_top" xlink:title="59">
<text text-anchor="middle" x="49.3393" y="-47.5079" font-family="Helvetica,sans-Serif" font-size="10.00">59</text>
</a>
</g>
</g>
</svg>
