<?xml version="1.0" encoding="UTF-8" standalone="no"?>
<!DOCTYPE svg PUBLIC "-//W3C//DTD SVG 1.1//EN"
 "http://www.w3.org/Graphics/SVG/1.1/DTD/svg11.dtd">
<!-- Generated by graphviz version 2.26.3 (20100126.1600)
 -->
<!-- Title: inc Pages: 1 -->
<svg width="182pt" height="329pt"
 viewBox="0.00 0.00 182.00 329.00" xmlns="http://www.w3.org/2000/svg" xmlns:xlink="http://www.w3.org/1999/xlink">
<g id="graph1" class="graph" transform="scale(1 1) rotate(0) translate(4 325)">
<title>inc</title>
<polygon fill="white" stroke="white" points="-4,5 -4,-325 179,-325 179,5 -4,5"/>
<g id="graph2" class="cluster"><title>clusterdir_d12ce74c60ba4453696fd67a7aa87277</title>
<a xlink:href="dir_d12ce74c60ba4453696fd67a7aa87277.htm" target="_top" xlink:title="db8">
<polygon fill="#ddddee" stroke="black" points="8,-8 8,-313 166,-313 166,-8 8,-8"/>
<text text-anchor="middle" x="87" y="-300" font-family="Helvetica,sans-Serif" font-size="10.00">db8</text>
</a>
</g>
<g id="graph3" class="cluster"><title>clusterdir_ab3315a18952f2cc3afda64b4c490669</title>
<a xlink:href="dir_ab3315a18952f2cc3afda64b4c490669.htm" target="_top">
<polygon fill="#eeeeff" stroke="black" points="16,-16 16,-284 158,-284 158,-16 16,-16"/>
</a>
</g>
<!-- dir_ab3315a18952f2cc3afda64b4c490669 -->
<g id="node3" class="node"><title>dir_ab3315a18952f2cc3afda64b4c490669</title>
<text text-anchor="middle" x="123" y="-255.5" font-family="Helvetica,sans-Serif" font-size="10.00">inc</text>
</g>
<!-- dir_9b75fe00674b2f7c8f07e2ba0c802a09 -->
<g id="node4" class="node"><title>dir_9b75fe00674b2f7c8f07e2ba0c802a09</title>
<a xlink:href="dir_9b75fe00674b2f7c8f07e2ba0c802a09.htm" target="_top" xlink:title="core">
<polygon fill="white" stroke="red" points="78,-204 24,-204 24,-168 78,-168 78,-204"/>
<text text-anchor="middle" x="51" y="-183.5" font-family="Helvetica,sans-Serif" font-size="10.00">core</text>
</a>
</g>
<!-- dir_4ebc794d77aff84e0824324efa8a4e54 -->
<g id="node5" class="node"><title>dir_4ebc794d77aff84e0824324efa8a4e54</title>
<a xlink:href="dir_4ebc794d77aff84e0824324efa8a4e54.htm" target="_top" xlink:title="db">
<polygon fill="white" stroke="black" points="111,-132 57,-132 57,-96 111,-96 111,-132"/>
<text text-anchor="middle" x="84" y="-111.5" font-family="Helvetica,sans-Serif" font-size="10.00">db</text>
</a>
</g>
<!-- dir_9b75fe00674b2f7c8f07e2ba0c802a09&#45;&gt;dir_4ebc794d77aff84e0824324efa8a4e54 -->
<g id="edge6" class="edge"><title>dir_9b75fe00674b2f7c8f07e2ba0c802a09&#45;&gt;dir_4ebc794d77aff84e0824324efa8a4e54</title>
<path fill="none" stroke="black" d="M53.3749,-167.831C56.276,-159.792 60.4815,-150.167 64.9199,-141.292"/>
<polygon fill="black" stroke="black" points="68.0319,-142.894 69.5846,-132.413 61.8351,-139.638 68.0319,-142.894"/>
<a xlink:href="dir_000006_000009.htm" target="_top" xlink:title="1">
<text text-anchor="middle" x="68.8736" y="-144.896" font-family="Helvetica,sans-Serif" font-size="10.00">1</text>
</a>
</g>
<!-- dir_4ebc794d77aff84e0824324efa8a4e54&#45;&gt;dir_9b75fe00674b2f7c8f07e2ba0c802a09 -->
<g id="edge14" class="edge"><title>dir_4ebc794d77aff84e0824324efa8a4e54&#45;&gt;dir_9b75fe00674b2f7c8f07e2ba0c802a09</title>
<path fill="none" stroke="black" d="M81.5366,-132.413C78.6092,-140.484 74.3882,-150.118 69.9452,-158.978"/>
<polygon fill="black" stroke="black" points="66.8452,-157.353 65.2797,-167.831 73.038,-160.616 66.8452,-157.353"/>
<a xlink:href="dir_000009_000006.htm" target="_top" xlink:title="65">
<text text-anchor="middle" x="66.009" y="-150.349" font-family="Helvetica,sans-Serif" font-size="10.00">65</text>
</a>
</g>
<!-- dir_685b375dd46acea5de12f3408a2d36f6 -->
<g id="node7" class="node"><title>dir_685b375dd46acea5de12f3408a2d36f6</title>
<a xlink:href="dir_685b375dd46acea5de12f3408a2d36f6.htm" target="_top" xlink:title="luna">
<polygon fill="white" stroke="black" points="94,-60 40,-60 40,-24 94,-24 94,-60"/>
<text text-anchor="middle" x="67" y="-39.5" font-family="Helvetica,sans-Serif" font-size="10.00">luna</text>
</a>
</g>
<!-- dir_4ebc794d77aff84e0824324efa8a4e54&#45;&gt;dir_685b375dd46acea5de12f3408a2d36f6 -->
<g id="edge12" class="edge"><title>dir_4ebc794d77aff84e0824324efa8a4e54&#45;&gt;dir_685b375dd46acea5de12f3408a2d36f6</title>
<path fill="none" stroke="black" d="M79.7102,-95.8314C77.892,-88.131 75.7301,-78.9743 73.7095,-70.4166"/>
<polygon fill="black" stroke="black" points="77.0519,-69.3414 71.3476,-60.4133 70.2392,-70.95 77.0519,-69.3414"/>
<a xlink:href="dir_000009_000012.htm" target="_top" xlink:title="1">
<text text-anchor="middle" x="80.6412" y="-69.6874" font-family="Helvetica,sans-Serif" font-size="10.00">1</text>
</a>
</g>
<!-- dir_6a393f136aaead588d871a301e0428f6 -->
<g id="node6" class="node"><title>dir_6a393f136aaead588d871a301e0428f6</title>
<a xlink:href="dir_6a393f136aaead588d871a301e0428f6.htm" target="_top" xlink:title="db&#45;luna">
<polygon fill="white" stroke="red" points="78,-276 24,-276 24,-240 78,-240 78,-276"/>
<text text-anchor="middle" x="51" y="-255.5" font-family="Helvetica,sans-Serif" font-size="10.00">db&#45;luna</text>
</a>
</g>
<!-- dir_6a393f136aaead588d871a301e0428f6&#45;&gt;dir_9b75fe00674b2f7c8f07e2ba0c802a09 -->
<g id="edge8" class="edge"><title>dir_6a393f136aaead588d871a301e0428f6&#45;&gt;dir_9b75fe00674b2f7c8f07e2ba0c802a09</title>
<path fill="none" stroke="black" d="M51,-239.831C51,-232.131 51,-222.974 51,-214.417"/>
<polygon fill="black" stroke="black" points="54.5001,-214.413 51,-204.413 47.5001,-214.413 54.5001,-214.413"/>
<a xlink:href="dir_000002_000006.htm" target="_top" xlink:title="9">
<text text-anchor="middle" x="57.3393" y="-215.508" font-family="Helvetica,sans-Serif" font-size="10.00">9</text>
</a>
</g>
<!-- dir_6a393f136aaead588d871a301e0428f6&#45;&gt;dir_4ebc794d77aff84e0824324efa8a4e54 -->
<g id="edge10" class="edge"><title>dir_6a393f136aaead588d871a301e0428f6&#45;&gt;dir_4ebc794d77aff84e0824324efa8a4e54</title>
<path fill="none" stroke="black" d="M66.9905,-239.917C74.6538,-230.037 83.0166,-217.156 87,-204 93.0973,-183.862 91.9544,-160.023 89.4988,-141.941"/>
<polygon fill="black" stroke="black" points="92.9519,-141.368 87.9461,-132.031 86.0363,-142.452 92.9519,-141.368"/>
<a xlink:href="dir_000002_000009.htm" target="_top" xlink:title="28">
<text text-anchor="middle" x="96.3133" y="-141.98" font-family="Helvetica,sans-Serif" font-size="10.00">28</text>
</a>
</g>
<!-- dir_685b375dd46acea5de12f3408a2d36f6&#45;&gt;dir_9b75fe00674b2f7c8f07e2ba0c802a09 -->
<g id="edge4" class="edge"><title>dir_685b375dd46acea5de12f3408a2d36f6&#45;&gt;dir_9b75fe00674b2f7c8f07e2ba0c802a09</title>
<path fill="none" stroke="black" d="M58.9083,-60.0835C54.7439,-70.3821 50.1082,-83.6564 48,-96 44.4961,-116.515 45.4477,-140.032 47.1684,-157.88"/>
<polygon fill="black" stroke="black" points="43.7009,-158.369 48.2742,-167.926 50.6589,-157.603 43.7009,-158.369"/>
<a xlink:href="dir_000012_000006.htm" target="_top" xlink:title="8">
<text text-anchor="middle" x="40.4854" y="-152.606" font-family="Helvetica,sans-Serif" font-size="10.00">8</text>
</a>
</g>
</g>
</svg>
