<?xml version="1.0" encoding="UTF-8" standalone="no"?>
<!DOCTYPE svg PUBLIC "-//W3C//DTD SVG 1.1//EN"
 "http://www.w3.org/Graphics/SVG/1.1/DTD/svg11.dtd">
<!-- Generated by graphviz version 2.26.3 (20100126.1600)
 -->
<!-- Title: core Pages: 1 -->
<svg width="164pt" height="185pt"
 viewBox="0.00 0.00 164.00 185.00" xmlns="http://www.w3.org/2000/svg" xmlns:xlink="http://www.w3.org/1999/xlink">
<g id="graph1" class="graph" transform="scale(1 1) rotate(0) translate(4 181)">
<title>core</title>
<polygon fill="white" stroke="white" points="-4,5 -4,-181 161,-181 161,5 -4,5"/>
<g id="graph2" class="cluster"><title>clusterdir_ab3315a18952f2cc3afda64b4c490669</title>
<a xlink:href="dir_ab3315a18952f2cc3afda64b4c490669.htm" target="_top" xlink:title="inc">
<polygon fill="#ddddee" stroke="black" points="8,-8 8,-169 94,-169 94,-8 8,-8"/>
<text text-anchor="middle" x="51" y="-156" font-family="Helvetica,sans-Serif" font-size="10.00">inc</text>
</a>
</g>
<g id="graph3" class="cluster"><title>clusterdir_9b75fe00674b2f7c8f07e2ba0c802a09</title>
<a xlink:href="dir_9b75fe00674b2f7c8f07e2ba0c802a09.htm" target="_top">
<polygon fill="#eeeeff" stroke="black" points="16,-16 16,-140 86,-140 86,-16 16,-16"/>
</a>
</g>
<!-- dir_9b75fe00674b2f7c8f07e2ba0c802a09 -->
<g id="node3" class="node"><title>dir_9b75fe00674b2f7c8f07e2ba0c802a09</title>
<text text-anchor="middle" x="51" y="-111.5" font-family="Helvetica,sans-Serif" font-size="10.00">core</text>
</g>
<!-- dir_37ae48469ed4fed8a4ec1f66a4a44aa7 -->
<g id="node4" class="node"><title>dir_37ae48469ed4fed8a4ec1f66a4a44aa7</title>
<a xlink:href="dir_37ae48469ed4fed8a4ec1f66a4a44aa7.htm" target="_top" xlink:title="internal">
<polygon fill="white" stroke="black" points="78,-60 24,-60 24,-24 78,-24 78,-60"/>
<text text-anchor="middle" x="51" y="-39.5" font-family="Helvetica,sans-Serif" font-size="10.00">internal</text>
</a>
</g>
<!-- dir_9b75fe00674b2f7c8f07e2ba0c802a09&#45;&gt;dir_37ae48469ed4fed8a4ec1f66a4a44aa7 -->
<g id="edge6" class="edge"><title>dir_9b75fe00674b2f7c8f07e2ba0c802a09&#45;&gt;dir_37ae48469ed4fed8a4ec1f66a4a44aa7</title>
<path fill="none" stroke="black" d="M51,-95.8314C51,-88.131 51,-78.9743 51,-70.4166"/>
<polygon fill="black" stroke="black" points="54.5001,-70.4132 51,-60.4133 47.5001,-70.4133 54.5001,-70.4132"/>
<a xlink:href="dir_000006_000007.htm" target="_top" xlink:title="17">
<text text-anchor="middle" x="57.3393" y="-71.5079" font-family="Helvetica,sans-Serif" font-size="10.00">17</text>
</a>
</g>
<!-- dir_4ebc794d77aff84e0824324efa8a4e54 -->
<g id="node5" class="node"><title>dir_4ebc794d77aff84e0824324efa8a4e54</title>
<a xlink:href="dir_4ebc794d77aff84e0824324efa8a4e54.htm" target="_top" xlink:title="db">
<polygon fill="none" stroke="black" points="156,-60 102,-60 102,-24 156,-24 156,-60"/>
<text text-anchor="middle" x="129" y="-39.5" font-family="Helvetica,sans-Serif" font-size="10.00">db</text>
</a>
</g>
<!-- dir_9b75fe00674b2f7c8f07e2ba0c802a09&#45;&gt;dir_4ebc794d77aff84e0824324efa8a4e54 -->
<g id="edge4" class="edge"><title>dir_9b75fe00674b2f7c8f07e2ba0c802a09&#45;&gt;dir_4ebc794d77aff84e0824324efa8a4e54</title>
<path fill="none" stroke="black" d="M64.7303,-95.8314C73.3892,-87.0485 84.7892,-76.3712 95.6269,-66.8489"/>
<polygon fill="black" stroke="black" points="98.0893,-69.3469 103.372,-60.1628 93.515,-64.0482 98.0893,-69.3469"/>
<a xlink:href="dir_000006_000009.htm" target="_top" xlink:title="1">
<text text-anchor="middle" x="97.2237" y="-71.345" font-family="Helvetica,sans-Serif" font-size="10.00">1</text>
</a>
</g>
<!-- dir_4ebc794d77aff84e0824324efa8a4e54&#45;&gt;dir_9b75fe00674b2f7c8f07e2ba0c802a09 -->
<g id="edge8" class="edge"><title>dir_4ebc794d77aff84e0824324efa8a4e54&#45;&gt;dir_9b75fe00674b2f7c8f07e2ba0c802a09</title>
<path fill="none" stroke="black" d="M115.028,-60.4133C106.385,-69.1637 95.0732,-79.7519 84.3201,-89.1978"/>
<polygon fill="black" stroke="black" points="81.918,-86.6476 76.6351,-95.8314 86.492,-91.9465 81.918,-86.6476"/>
<a xlink:href="dir_000009_000006.htm" target="_top" xlink:title="65">
<text text-anchor="middle" x="82.7838" y="-79.6495" font-family="Helvetica,sans-Serif" font-size="10.00">65</text>
</a>
</g>
</g>
</svg>
