<?xml version="1.0" encoding="UTF-8" standalone="no"?>
<!DOCTYPE svg PUBLIC "-//W3C//DTD SVG 1.1//EN"
 "http://www.w3.org/Graphics/SVG/1.1/DTD/svg11.dtd">
<!-- Generated by graphviz version 2.26.3 (20100126.1600)
 -->
<!-- Title: Graphical Class Hierarchy Pages: 1 -->
<svg width="314pt" height="670pt"
 viewBox="0.00 0.00 314.00 670.00" xmlns="http://www.w3.org/2000/svg" xmlns:xlink="http://www.w3.org/1999/xlink">
<g id="graph1" class="graph" transform="scale(1 1) rotate(0) translate(4 666)">
<title>Graphical Class Hierarchy</title>
<polygon fill="white" stroke="white" points="-4,5 -4,-666 311,-666 311,5 -4,5"/>
<!-- Node1 -->
<g id="node1" class="node"><title>Node1</title>
<a xlink:href="classMojHashBase.htm" target="_top" xlink:title="MojHashBase">
<polygon fill="white" stroke="black" points="0.5,-337.5 0.5,-358.5 83.5,-358.5 83.5,-337.5 0.5,-337.5"/>
<text text-anchor="middle" x="42" y="-345.5" font-family="Helvetica,sans-Serif" font-size="10.00">MojHashBase</text>
</a>
</g>
<!-- Node2 -->
<g id="node3" class="node"><title>Node2</title>
<a xlink:href="classMojHashMap.htm" target="_top" xlink:title="MojHashMap\&lt; KEY, VAL,\l LKEY, HASH, KEQ, VEQ \&gt;">
<polygon fill="white" stroke="black" points="141.5,-628 141.5,-662 284.5,-662 284.5,-628 141.5,-628"/>
<text text-anchor="start" x="149.5" y="-649" font-family="Helvetica,sans-Serif" font-size="10.00">MojHashMap&lt; KEY, VAL,</text>
<text text-anchor="middle" x="213" y="-636" font-family="Helvetica,sans-Serif" font-size="10.00"> LKEY, HASH, KEQ, VEQ &gt;</text>
</a>
</g>
<!-- Node1&#45;&gt;Node2 -->
<g id="edge2" class="edge"><title>Node1&#45;&gt;Node2</title>
<path fill="none" stroke="#8b1a1a" d="M45.305,-368.737C54.79,-425.754 83.7558,-583.032 120,-619 126.069,-625.023 133.411,-629.678 141.277,-633.271"/>
<polygon fill="#8b1a1a" stroke="#8b1a1a" points="48.7378,-368.041 43.6714,-358.736 41.8294,-369.17 48.7378,-368.041"/>
</g>
<!-- Node3 -->
<g id="node5" class="node"><title>Node3</title>
<a xlink:href="classMojHashMap.htm" target="_top" xlink:title="MojHashMap\&lt; MojInt64,\l MojString \&gt;">
<polygon fill="white" stroke="black" points="147,-576 147,-610 279,-610 279,-576 147,-576"/>
<text text-anchor="start" x="155" y="-597" font-family="Helvetica,sans-Serif" font-size="10.00">MojHashMap&lt; MojInt64,</text>
<text text-anchor="middle" x="213" y="-584" font-family="Helvetica,sans-Serif" font-size="10.00"> MojString &gt;</text>
</a>
</g>
<!-- Node1&#45;&gt;Node3 -->
<g id="edge4" class="edge"><title>Node1&#45;&gt;Node3</title>
<path fill="none" stroke="#8b1a1a" d="M43.2624,-368.984C47.0306,-412.454 61.8977,-512.804 120,-567 127.601,-574.09 136.975,-579.271 146.818,-583.051"/>
<polygon fill="#8b1a1a" stroke="#8b1a1a" points="46.7511,-368.701 42.5094,-358.993 39.7709,-369.227 46.7511,-368.701"/>
</g>
<!-- Node4 -->
<g id="node7" class="node"><title>Node4</title>
<a xlink:href="classMojHashMap.htm" target="_top" xlink:title="MojHashMap\&lt; MojServiceMessage\l::Token, ConnectionPtr \&gt;">
<polygon fill="white" stroke="black" points="120.5,-524 120.5,-558 305.5,-558 305.5,-524 120.5,-524"/>
<text text-anchor="start" x="128.5" y="-545" font-family="Helvetica,sans-Serif" font-size="10.00">MojHashMap&lt; MojServiceMessage</text>
<text text-anchor="middle" x="213" y="-532" font-family="Helvetica,sans-Serif" font-size="10.00">::Token, ConnectionPtr &gt;</text>
</a>
</g>
<!-- Node1&#45;&gt;Node4 -->
<g id="edge6" class="edge"><title>Node1&#45;&gt;Node4</title>
<path fill="none" stroke="#8b1a1a" d="M45.9121,-369.031C53.625,-404.507 74.1892,-476.161 120,-515 123.964,-518.361 128.332,-521.289 132.948,-523.84"/>
<polygon fill="#8b1a1a" stroke="#8b1a1a" points="49.2684,-367.973 43.8437,-358.872 42.4091,-369.369 49.2684,-367.973"/>
</g>
<!-- Node5 -->
<g id="node9" class="node"><title>Node5</title>
<a xlink:href="classMojHashMap.htm" target="_top" xlink:title="MojHashMap\&lt; MojSockT,\l SockInfoPtr \&gt;">
<polygon fill="white" stroke="black" points="144,-472 144,-506 282,-506 282,-472 144,-472"/>
<text text-anchor="start" x="152" y="-493" font-family="Helvetica,sans-Serif" font-size="10.00">MojHashMap&lt; MojSockT,</text>
<text text-anchor="middle" x="213" y="-480" font-family="Helvetica,sans-Serif" font-size="10.00"> SockInfoPtr &gt;</text>
</a>
</g>
<!-- Node1&#45;&gt;Node5 -->
<g id="edge8" class="edge"><title>Node1&#45;&gt;Node5</title>
<path fill="none" stroke="#8b1a1a" d="M50.2333,-367.938C61.9202,-393.761 85.7709,-438.371 120,-463 127.212,-468.19 135.425,-472.345 143.914,-475.671"/>
<polygon fill="#8b1a1a" stroke="#8b1a1a" points="53.4285,-366.509 46.2264,-358.738 47.0108,-369.304 53.4285,-366.509"/>
</g>
<!-- Node6 -->
<g id="node11" class="node"><title>Node6</title>
<a xlink:href="classMojHashMap.htm" target="_top" xlink:title="MojHashMap\&lt; MojSockT,\l SourcePtr \&gt;">
<polygon fill="white" stroke="black" points="144,-420 144,-454 282,-454 282,-420 144,-420"/>
<text text-anchor="start" x="152" y="-441" font-family="Helvetica,sans-Serif" font-size="10.00">MojHashMap&lt; MojSockT,</text>
<text text-anchor="middle" x="213" y="-428" font-family="Helvetica,sans-Serif" font-size="10.00"> SourcePtr &gt;</text>
</a>
</g>
<!-- Node1&#45;&gt;Node6 -->
<g id="edge10" class="edge"><title>Node1&#45;&gt;Node6</title>
<path fill="none" stroke="#8b1a1a" d="M60.0677,-366.215C74.9706,-380.291 97.2853,-399.289 120,-411 127.451,-414.841 135.538,-418.174 143.73,-421.05"/>
<polygon fill="#8b1a1a" stroke="#8b1a1a" points="62.2139,-363.421 52.5953,-358.979 57.3442,-368.449 62.2139,-363.421"/>
</g>
<!-- Node7 -->
<g id="node13" class="node"><title>Node7</title>
<a xlink:href="classMojHashMap.htm" target="_top" xlink:title="MojHashMap\&lt; MojString,\l CallbackInfo, const\l MojChar * \&gt;">
<polygon fill="white" stroke="black" points="145,-354.5 145,-401.5 281,-401.5 281,-354.5 145,-354.5"/>
<text text-anchor="start" x="153" y="-388.5" font-family="Helvetica,sans-Serif" font-size="10.00">MojHashMap&lt; MojString,</text>
<text text-anchor="start" x="153" y="-375.5" font-family="Helvetica,sans-Serif" font-size="10.00"> CallbackInfo, const</text>
<text text-anchor="middle" x="213" y="-362.5" font-family="Helvetica,sans-Serif" font-size="10.00"> MojChar * &gt;</text>
</a>
</g>
<!-- Node1&#45;&gt;Node7 -->
<g id="edge12" class="edge"><title>Node1&#45;&gt;Node7</title>
<path fill="none" stroke="#8b1a1a" d="M94.0724,-357.136C110.11,-359.949 128.009,-363.089 144.954,-366.062"/>
<polygon fill="#8b1a1a" stroke="#8b1a1a" points="94.2857,-353.62 83.8313,-355.339 93.0761,-360.514 94.2857,-353.62"/>
</g>
<!-- Node8 -->
<g id="node15" class="node"><title>Node8</title>
<a xlink:href="classMojHashMap.htm" target="_top" xlink:title="MojHashMap\&lt; MojString,\l ConnectionPtr \&gt;">
<polygon fill="white" stroke="black" points="145,-302 145,-336 281,-336 281,-302 145,-302"/>
<text text-anchor="start" x="153" y="-323" font-family="Helvetica,sans-Serif" font-size="10.00">MojHashMap&lt; MojString,</text>
<text text-anchor="middle" x="213" y="-310" font-family="Helvetica,sans-Serif" font-size="10.00"> ConnectionPtr &gt;</text>
</a>
</g>
<!-- Node1&#45;&gt;Node8 -->
<g id="edge14" class="edge"><title>Node1&#45;&gt;Node8</title>
<path fill="none" stroke="#8b1a1a" d="M94.0724,-339.169C110.11,-336.449 128.009,-333.414 144.954,-330.54"/>
<polygon fill="#8b1a1a" stroke="#8b1a1a" points="93.1053,-335.783 83.8313,-340.906 94.2758,-342.684 93.1053,-335.783"/>
</g>
<!-- Node9 -->
<g id="node17" class="node"><title>Node9</title>
<a xlink:href="classMojHashMap.htm" target="_top" xlink:title="MojHashMap\&lt; MojString,\l MojRefCountedPtr\&lt; Category\l \&gt;, const MojChar * \&gt;">
<polygon fill="white" stroke="black" points="133.5,-236.5 133.5,-283.5 292.5,-283.5 292.5,-236.5 133.5,-236.5"/>
<text text-anchor="start" x="141.5" y="-270.5" font-family="Helvetica,sans-Serif" font-size="10.00">MojHashMap&lt; MojString,</text>
<text text-anchor="start" x="141.5" y="-257.5" font-family="Helvetica,sans-Serif" font-size="10.00"> MojRefCountedPtr&lt; Category</text>
<text text-anchor="middle" x="213" y="-244.5" font-family="Helvetica,sans-Serif" font-size="10.00"> &gt;, const MojChar * &gt;</text>
</a>
</g>
<!-- Node1&#45;&gt;Node9 -->
<g id="edge16" class="edge"><title>Node1&#45;&gt;Node9</title>
<path fill="none" stroke="#8b1a1a" d="M62.9711,-330.822C78.1236,-319.024 99.4566,-303.632 120,-293 126.39,-289.693 133.187,-286.583 140.085,-283.694"/>
<polygon fill="#8b1a1a" stroke="#8b1a1a" points="60.4758,-328.334 54.8165,-337.291 64.8261,-333.818 60.4758,-328.334"/>
</g>
<!-- Node10 -->
<g id="node19" class="node"><title>Node10</title>
<a xlink:href="classMojHashMap.htm" target="_top" xlink:title="MojHashMap\&lt; MojString,\l MojRefCountedPtr\&lt; MojDbKind\l \&gt;, const MojChar * \&gt;">
<polygon fill="white" stroke="black" points="129.5,-170.5 129.5,-217.5 296.5,-217.5 296.5,-170.5 129.5,-170.5"/>
<text text-anchor="start" x="137.5" y="-204.5" font-family="Helvetica,sans-Serif" font-size="10.00">MojHashMap&lt; MojString,</text>
<text text-anchor="start" x="137.5" y="-191.5" font-family="Helvetica,sans-Serif" font-size="10.00"> MojRefCountedPtr&lt; MojDbKind</text>
<text text-anchor="middle" x="213" y="-178.5" font-family="Helvetica,sans-Serif" font-size="10.00"> &gt;, const MojChar * &gt;</text>
</a>
</g>
<!-- Node1&#45;&gt;Node10 -->
<g id="edge18" class="edge"><title>Node1&#45;&gt;Node10</title>
<path fill="none" stroke="#8b1a1a" d="M50.0497,-327.789C61.6636,-301.084 85.5726,-254.252 120,-227 124.433,-223.491 129.268,-220.338 134.329,-217.508"/>
<polygon fill="#8b1a1a" stroke="#8b1a1a" points="46.715,-326.691 46.0788,-337.266 53.1713,-329.396 46.715,-326.691"/>
</g>
<!-- Node11 -->
<g id="node21" class="node"><title>Node11</title>
<a xlink:href="classMojHashMap.htm" target="_top" xlink:title="MojHashMap\&lt; MojString,\l ObjectMap, const MojChar * \&gt;">
<polygon fill="white" stroke="black" points="132,-118 132,-152 294,-152 294,-118 132,-118"/>
<text text-anchor="start" x="140" y="-139" font-family="Helvetica,sans-Serif" font-size="10.00">MojHashMap&lt; MojString,</text>
<text text-anchor="middle" x="213" y="-126" font-family="Helvetica,sans-Serif" font-size="10.00"> ObjectMap, const MojChar * &gt;</text>
</a>
</g>
<!-- Node1&#45;&gt;Node11 -->
<g id="edge20" class="edge"><title>Node1&#45;&gt;Node11</title>
<path fill="none" stroke="#8b1a1a" d="M44.6974,-327.196C50.8207,-288.596 69.3967,-205.753 120,-161 123.768,-157.668 127.929,-154.76 132.341,-152.222"/>
<polygon fill="#8b1a1a" stroke="#8b1a1a" points="41.2103,-326.854 43.2292,-337.255 48.1369,-327.865 41.2103,-326.854"/>
</g>
<!-- Node12 -->
<g id="node23" class="node"><title>Node12</title>
<a xlink:href="classMojHashMap.htm" target="_top" xlink:title="MojHashMap\&lt; MojString,\l WhereClause, const MojChar * \&gt;">
<polygon fill="white" stroke="black" points="125.5,-66 125.5,-100 300.5,-100 300.5,-66 125.5,-66"/>
<text text-anchor="start" x="133.5" y="-87" font-family="Helvetica,sans-Serif" font-size="10.00">MojHashMap&lt; MojString,</text>
<text text-anchor="middle" x="213" y="-74" font-family="Helvetica,sans-Serif" font-size="10.00"> WhereClause, const MojChar * &gt;</text>
</a>
</g>
<!-- Node1&#45;&gt;Node12 -->
<g id="edge22" class="edge"><title>Node1&#45;&gt;Node12</title>
<path fill="none" stroke="#8b1a1a" d="M46.1394,-327.334C56.9836,-275.151 87.6277,-140.014 120,-109 123.511,-105.637 127.419,-102.702 131.591,-100.141"/>
<polygon fill="#8b1a1a" stroke="#8b1a1a" points="42.654,-326.909 44.0792,-337.407 49.512,-328.311 42.654,-326.909"/>
</g>
<!-- Node13 -->
<g id="node25" class="node"><title>Node13</title>
<a xlink:href="classMojHashMap.htm" target="_top" xlink:title="MojHashMap\&lt; Token,\l MojRefCountedPtr\&lt; MojService\lRequest \&gt; \&gt;">
<polygon fill="white" stroke="black" points="129,-0.5 129,-47.5 297,-47.5 297,-0.5 129,-0.5"/>
<text text-anchor="start" x="137" y="-34.5" font-family="Helvetica,sans-Serif" font-size="10.00">MojHashMap&lt; Token,</text>
<text text-anchor="start" x="137" y="-21.5" font-family="Helvetica,sans-Serif" font-size="10.00"> MojRefCountedPtr&lt; MojService</text>
<text text-anchor="middle" x="213" y="-8.5" font-family="Helvetica,sans-Serif" font-size="10.00">Request &gt; &gt;</text>
</a>
</g>
<!-- Node1&#45;&gt;Node13 -->
<g id="edge24" class="edge"><title>Node1&#45;&gt;Node13</title>
<path fill="none" stroke="#8b1a1a" d="M45.0445,-327.069C54.1283,-267.262 82.7375,-97.3327 120,-57 123.255,-53.4765 126.911,-50.3291 130.841,-47.5175"/>
<polygon fill="#8b1a1a" stroke="#8b1a1a" points="41.5476,-326.79 43.5344,-337.196 48.4711,-327.822 41.5476,-326.79"/>
</g>
</g>
</svg>
