<?xml version="1.0" encoding="UTF-8" standalone="no"?>
<!DOCTYPE svg PUBLIC "-//W3C//DTD SVG 1.1//EN"
 "http://www.w3.org/Graphics/SVG/1.1/DTD/svg11.dtd">
<!-- Generated by graphviz version 2.26.3 (20100126.1600)
 -->
<!-- Title: Graphical Class Hierarchy Pages: 1 -->
<svg width="314pt" height="42pt"
 viewBox="0.00 0.00 314.00 42.00" xmlns="http://www.w3.org/2000/svg" xmlns:xlink="http://www.w3.org/1999/xlink">
<g id="graph1" class="graph" transform="scale(1 1) rotate(0) translate(4 38)">
<title>Graphical Class Hierarchy</title>
<polygon fill="white" stroke="white" points="-4,5 -4,-38 311,-38 311,5 -4,5"/>
<!-- Node1 -->
<g id="node1" class="node"><title>Node1</title>
<a xlink:href="structMojComp.htm" target="_top" xlink:title="MojComp\&lt; const MojSet\l\&lt; T, COMP \&gt; \&gt;">
<polygon fill="white" stroke="black" points="0,-0 0,-34 132,-34 132,-0 0,-0"/>
<text text-anchor="start" x="8" y="-21" font-family="Helvetica,sans-Serif" font-size="10.00">MojComp&lt; const MojSet</text>
<text text-anchor="middle" x="66" y="-8" font-family="Helvetica,sans-Serif" font-size="10.00">&lt; T, COMP &gt; &gt;</text>
</a>
</g>
<!-- Node2 -->
<g id="node3" class="node"><title>Node2</title>
<a xlink:href="structMojComp_3_01MojSet_3_01class_01T_00_01class_01COMP_01_4_01_4.htm" target="_top" xlink:title="MojComp\&lt; MojSet\&lt; class\l T, class COMP \&gt; \&gt;">
<polygon fill="white" stroke="black" points="168.5,-0 168.5,-34 305.5,-34 305.5,-0 168.5,-0"/>
<text text-anchor="start" x="176.5" y="-21" font-family="Helvetica,sans-Serif" font-size="10.00">MojComp&lt; MojSet&lt; class</text>
<text text-anchor="middle" x="237" y="-8" font-family="Helvetica,sans-Serif" font-size="10.00"> T, class COMP &gt; &gt;</text>
</a>
</g>
<!-- Node1&#45;&gt;Node2 -->
<g id="edge2" class="edge"><title>Node1&#45;&gt;Node2</title>
<path fill="none" stroke="midnightblue" d="M142.207,-17C150.875,-17 159.672,-17 168.235,-17"/>
<polygon fill="midnightblue" stroke="midnightblue" points="142.113,-13.5001 132.113,-17 142.113,-20.5001 142.113,-13.5001"/>
</g>
</g>
</svg>
