<?xml version="1.0" encoding="UTF-8" standalone="no"?>
<!DOCTYPE svg PUBLIC "-//W3C//DTD SVG 1.1//EN"
 "http://www.w3.org/Graphics/SVG/1.1/DTD/svg11.dtd">
<!-- Generated by graphviz version 2.26.3 (20100126.1600)
 -->
<!-- Title: Graphical Class Hierarchy Pages: 1 -->
<svg width="300pt" height="56pt"
 viewBox="0.00 0.00 300.00 56.00" xmlns="http://www.w3.org/2000/svg" xmlns:xlink="http://www.w3.org/1999/xlink">
<g id="graph1" class="graph" transform="scale(1 1) rotate(0) translate(4 52)">
<title>Graphical Class Hierarchy</title>
<polygon fill="white" stroke="white" points="-4,5 -4,-52 297,-52 297,5 -4,5"/>
<!-- Node1 -->
<g id="node1" class="node"><title>Node1</title>
<a xlink:href="classMojSharedPtrBase.htm" target="_top" xlink:title="MojSharedPtrBase\&lt; T,\l MojArrayDeleteDtor\l\&lt; T \&gt; \&gt;">
<polygon fill="white" stroke="black" points="0,-0.5 0,-47.5 124,-47.5 124,-0.5 0,-0.5"/>
<text text-anchor="start" x="8" y="-34.5" font-family="Helvetica,sans-Serif" font-size="10.00">MojSharedPtrBase&lt; T,</text>
<text text-anchor="start" x="8" y="-21.5" font-family="Helvetica,sans-Serif" font-size="10.00"> MojArrayDeleteDtor</text>
<text text-anchor="middle" x="62" y="-8.5" font-family="Helvetica,sans-Serif" font-size="10.00">&lt; T &gt; &gt;</text>
</a>
</g>
<!-- Node2 -->
<g id="node3" class="node"><title>Node2</title>
<a xlink:href="classMojSharedArrayPtr.htm" target="_top" xlink:title="MojSharedArrayPtr\&lt; T \&gt;">
<polygon fill="white" stroke="black" points="160,-13.5 160,-34.5 292,-34.5 292,-13.5 160,-13.5"/>
<text text-anchor="middle" x="226" y="-21.5" font-family="Helvetica,sans-Serif" font-size="10.00">MojSharedArrayPtr&lt; T &gt;</text>
</a>
</g>
<!-- Node1&#45;&gt;Node2 -->
<g id="edge2" class="edge"><title>Node1&#45;&gt;Node2</title>
<path fill="none" stroke="midnightblue" d="M134.269,-24C142.764,-24 151.4,-24 159.806,-24"/>
<polygon fill="midnightblue" stroke="midnightblue" points="134.001,-20.5001 124.001,-24 134.001,-27.5001 134.001,-20.5001"/>
</g>
</g>
</svg>
