<?xml version="1.0" encoding="UTF-8" standalone="no"?>
<!DOCTYPE svg PUBLIC "-//W3C//DTD SVG 1.1//EN"
 "http://www.w3.org/Graphics/SVG/1.1/DTD/svg11.dtd">
<!-- Generated by graphviz version 2.26.3 (20100126.1600)
 -->
<!-- Title: Graphical Class Hierarchy Pages: 1 -->
<svg width="300pt" height="70pt"
 viewBox="0.00 0.00 300.00 70.00" xmlns="http://www.w3.org/2000/svg" xmlns:xlink="http://www.w3.org/1999/xlink">
<g id="graph1" class="graph" transform="scale(1 1) rotate(0) translate(4 66)">
<title>Graphical Class Hierarchy</title>
<polygon fill="white" stroke="white" points="-4,5 -4,-66 297,-66 297,5 -4,5"/>
<!-- Node1 -->
<g id="node1" class="node"><title>Node1</title>
<a xlink:href="structMojEq_3_01const_01MojChar_01_5_01_4.htm" target="_top" xlink:title="MojEq\&lt; const MojChar * \&gt;">
<polygon fill="white" stroke="black" points="0,-20.5 0,-41.5 142,-41.5 142,-20.5 0,-20.5"/>
<text text-anchor="middle" x="71" y="-28.5" font-family="Helvetica,sans-Serif" font-size="10.00">MojEq&lt; const MojChar * &gt;</text>
</a>
</g>
<!-- Node2 -->
<g id="node3" class="node"><title>Node2</title>
<a xlink:href="structMojEq_3_01MojChar_01_5_01_4.htm" target="_top" xlink:title="MojEq\&lt; MojChar * \&gt;">
<polygon fill="white" stroke="black" points="178.5,-40.5 178.5,-61.5 291.5,-61.5 291.5,-40.5 178.5,-40.5"/>
<text text-anchor="middle" x="235" y="-48.5" font-family="Helvetica,sans-Serif" font-size="10.00">MojEq&lt; MojChar * &gt;</text>
</a>
</g>
<!-- Node1&#45;&gt;Node2 -->
<g id="edge2" class="edge"><title>Node1&#45;&gt;Node2</title>
<path fill="none" stroke="midnightblue" d="M152.555,-40.9457C161.18,-41.9976 169.812,-43.0503 178.069,-44.0572"/>
<polygon fill="midnightblue" stroke="midnightblue" points="152.806,-37.4505 142.456,-39.7141 151.958,-44.399 152.806,-37.4505"/>
</g>
<!-- Node3 -->
<g id="node5" class="node"><title>Node3</title>
<a xlink:href="structMojEq_3_01MojString_01_4.htm" target="_top" xlink:title="MojEq\&lt; MojString \&gt;">
<polygon fill="white" stroke="black" points="180,-0.5 180,-21.5 290,-21.5 290,-0.5 180,-0.5"/>
<text text-anchor="middle" x="235" y="-8.5" font-family="Helvetica,sans-Serif" font-size="10.00">MojEq&lt; MojString &gt;</text>
</a>
</g>
<!-- Node1&#45;&gt;Node3 -->
<g id="edge4" class="edge"><title>Node1&#45;&gt;Node3</title>
<path fill="none" stroke="midnightblue" d="M152.408,-21.0722C161.604,-19.9507 170.81,-18.8281 179.563,-17.7606"/>
<polygon fill="midnightblue" stroke="midnightblue" points="151.958,-17.601 142.456,-22.2859 152.806,-24.5495 151.958,-17.601"/>
</g>
</g>
</svg>
