<?xml version="1.0" encoding="UTF-8" standalone="no"?>
<!DOCTYPE svg PUBLIC "-//W3C//DTD SVG 1.1//EN"
 "http://www.w3.org/Graphics/SVG/1.1/DTD/svg11.dtd">
<!-- Generated by graphviz version 2.26.3 (20100126.1600)
 -->
<!-- Title: Graphical Class Hierarchy Pages: 1 -->
<svg width="298pt" height="42pt"
 viewBox="0.00 0.00 298.00 42.00" xmlns="http://www.w3.org/2000/svg" xmlns:xlink="http://www.w3.org/1999/xlink">
<g id="graph1" class="graph" transform="scale(1 1) rotate(0) translate(4 38)">
<title>Graphical Class Hierarchy</title>
<polygon fill="white" stroke="white" points="-4,5 -4,-38 295,-38 295,5 -4,5"/>
<!-- Node1 -->
<g id="node1" class="node"><title>Node1</title>
<a xlink:href="structMojIntHasher.htm" target="_top" xlink:title="MojIntHasher\&lt; long\l unsigned int \&gt;">
<polygon fill="white" stroke="black" points="0,-0 0,-34 110,-34 110,-0 0,-0"/>
<text text-anchor="start" x="8" y="-21" font-family="Helvetica,sans-Serif" font-size="10.00">MojIntHasher&lt; long</text>
<text text-anchor="middle" x="55" y="-8" font-family="Helvetica,sans-Serif" font-size="10.00"> unsigned int &gt;</text>
</a>
</g>
<!-- Node2 -->
<g id="node3" class="node"><title>Node2</title>
<a xlink:href="structMojHasher_3_01long_01unsigned_01int_01_4.htm" target="_top" xlink:title="MojHasher\&lt; long unsigned\l int \&gt;">
<polygon fill="white" stroke="black" points="146.5,-0 146.5,-34 289.5,-34 289.5,-0 146.5,-0"/>
<text text-anchor="start" x="154.5" y="-21" font-family="Helvetica,sans-Serif" font-size="10.00">MojHasher&lt; long unsigned</text>
<text text-anchor="middle" x="218" y="-8" font-family="Helvetica,sans-Serif" font-size="10.00"> int &gt;</text>
</a>
</g>
<!-- Node1&#45;&gt;Node2 -->
<g id="edge2" class="edge"><title>Node1&#45;&gt;Node2</title>
<path fill="none" stroke="midnightblue" d="M120.45,-17C128.988,-17 137.77,-17 146.402,-17"/>
<polygon fill="midnightblue" stroke="midnightblue" points="120.184,-13.5001 110.184,-17 120.184,-20.5001 120.184,-13.5001"/>
</g>
</g>
</svg>
