<?xml version="1.0" encoding="UTF-8" standalone="no"?>
<!DOCTYPE svg PUBLIC "-//W3C//DTD SVG 1.1//EN"
 "http://www.w3.org/Graphics/SVG/1.1/DTD/svg11.dtd">
<!-- Generated by graphviz version 2.26.3 (20100126.1600)
 -->
<!-- Title: Graphical Class Hierarchy Pages: 1 -->
<svg width="332pt" height="724pt"
 viewBox="0.00 0.00 332.00 724.00" xmlns="http://www.w3.org/2000/svg" xmlns:xlink="http://www.w3.org/1999/xlink">
<g id="graph1" class="graph" transform="scale(1 1) rotate(0) translate(4 720)">
<title>Graphical Class Hierarchy</title>
<polygon fill="white" stroke="white" points="-4,5 -4,-720 329,-720 329,5 -4,5"/>
<!-- Node1 -->
<g id="node1" class="node"><title>Node1</title>
<a xlink:href="classMojRbTreeBase.htm" target="_top" xlink:title="MojRbTreeBase">
<polygon fill="white" stroke="black" points="0.5,-296.5 0.5,-317.5 93.5,-317.5 93.5,-296.5 0.5,-296.5"/>
<text text-anchor="middle" x="47" y="-304.5" font-family="Helvetica,sans-Serif" font-size="10.00">MojRbTreeBase</text>
</a>
</g>
<!-- Node2 -->
<g id="node3" class="node"><title>Node2</title>
<a xlink:href="classMojMap.htm" target="_top" xlink:title="MojMap\&lt; KEY, VAL, LKEY,\l KCOMP, VCOMP \&gt;">
<polygon fill="white" stroke="black" points="155.5,-682 155.5,-716 298.5,-716 298.5,-682 155.5,-682"/>
<text text-anchor="start" x="163.5" y="-703" font-family="Helvetica,sans-Serif" font-size="10.00">MojMap&lt; KEY, VAL, LKEY,</text>
<text text-anchor="middle" x="227" y="-690" font-family="Helvetica,sans-Serif" font-size="10.00"> KCOMP, VCOMP &gt;</text>
</a>
</g>
<!-- Node1&#45;&gt;Node2 -->
<g id="edge2" class="edge"><title>Node1&#45;&gt;Node2</title>
<path fill="none" stroke="#8b1a1a" d="M48.9203,-327.781C55.7849,-397.629 81.3316,-622.402 130,-673 137.01,-680.288 145.823,-685.608 155.261,-689.478"/>
<polygon fill="#8b1a1a" stroke="#8b1a1a" points="52.384,-327.233 47.9467,-317.612 45.4158,-327.901 52.384,-327.233"/>
</g>
<!-- Node3 -->
<g id="node5" class="node"><title>Node3</title>
<a xlink:href="classMojMap.htm" target="_top" xlink:title="MojMap\&lt; MojString,\l DbCallback, const MojChar\l *, MojComp\&lt; const MojChar\l * \&gt;, MojCompAddr\&lt; DbCallback \&gt; \&gt;">
<polygon fill="white" stroke="black" points="134,-604 134,-664 320,-664 320,-604 134,-604"/>
<text text-anchor="start" x="142" y="-651" font-family="Helvetica,sans-Serif" font-size="10.00">MojMap&lt; MojString,</text>
<text text-anchor="start" x="142" y="-638" font-family="Helvetica,sans-Serif" font-size="10.00"> DbCallback, const MojChar</text>
<text text-anchor="start" x="142" y="-625" font-family="Helvetica,sans-Serif" font-size="10.00"> *, MojComp&lt; const MojChar</text>
<text text-anchor="middle" x="227" y="-612" font-family="Helvetica,sans-Serif" font-size="10.00"> * &gt;, MojCompAddr&lt; DbCallback &gt; &gt;</text>
</a>
</g>
<!-- Node1&#45;&gt;Node3 -->
<g id="edge4" class="edge"><title>Node1&#45;&gt;Node3</title>
<path fill="none" stroke="#8b1a1a" d="M50.5342,-327.654C60.9977,-386.681 93.3851,-554.459 130,-595 132.92,-598.233 136.145,-601.202 139.592,-603.929"/>
<polygon fill="#8b1a1a" stroke="#8b1a1a" points="53.9571,-326.909 48.789,-317.66 47.0614,-328.113 53.9571,-326.909"/>
</g>
<!-- Node4 -->
<g id="node7" class="node"><title>Node4</title>
<a xlink:href="classMojMap.htm" target="_top" xlink:title="MojMap\&lt; MojString,\l MojLogger::Level \&gt;">
<polygon fill="white" stroke="black" points="171.5,-552 171.5,-586 282.5,-586 282.5,-552 171.5,-552"/>
<text text-anchor="start" x="179.5" y="-573" font-family="Helvetica,sans-Serif" font-size="10.00">MojMap&lt; MojString,</text>
<text text-anchor="middle" x="227" y="-560" font-family="Helvetica,sans-Serif" font-size="10.00"> MojLogger::Level &gt;</text>
</a>
</g>
<!-- Node1&#45;&gt;Node4 -->
<g id="edge6" class="edge"><title>Node1&#45;&gt;Node4</title>
<path fill="none" stroke="#8b1a1a" d="M48.0515,-327.748C51.5247,-373.588 66.4114,-484.087 130,-543 141.319,-553.486 156.404,-559.83 171.299,-563.641"/>
<polygon fill="#8b1a1a" stroke="#8b1a1a" points="51.5306,-327.311 47.3917,-317.558 44.5453,-327.763 51.5306,-327.311"/>
</g>
<!-- Node5 -->
<g id="node9" class="node"><title>Node5</title>
<a xlink:href="classMojMap.htm" target="_top" xlink:title="MojMap\&lt; MojString,\l MojObject, const MojChar * \&gt;">
<polygon fill="white" stroke="black" points="148,-500 148,-534 306,-534 306,-500 148,-500"/>
<text text-anchor="start" x="156" y="-521" font-family="Helvetica,sans-Serif" font-size="10.00">MojMap&lt; MojString,</text>
<text text-anchor="middle" x="227" y="-508" font-family="Helvetica,sans-Serif" font-size="10.00"> MojObject, const MojChar * &gt;</text>
</a>
</g>
<!-- Node1&#45;&gt;Node5 -->
<g id="edge8" class="edge"><title>Node1&#45;&gt;Node5</title>
<path fill="none" stroke="#8b1a1a" d="M50.351,-327.554C57.669,-365.676 78.7203,-447.415 130,-491 135.314,-495.516 141.335,-499.256 147.713,-502.352"/>
<polygon fill="#8b1a1a" stroke="#8b1a1a" points="53.7796,-326.844 48.5695,-317.618 46.8895,-328.079 53.7796,-326.844"/>
</g>
<!-- Node6 -->
<g id="node11" class="node"><title>Node6</title>
<a xlink:href="classMojMap.htm" target="_top" xlink:title="MojMap\&lt; MojString,\l MojRefCountedPtr\&lt; Offset\l \&gt;, const MojChar * \&gt;">
<polygon fill="white" stroke="black" points="155,-434.5 155,-481.5 299,-481.5 299,-434.5 155,-434.5"/>
<text text-anchor="start" x="163" y="-468.5" font-family="Helvetica,sans-Serif" font-size="10.00">MojMap&lt; MojString,</text>
<text text-anchor="start" x="163" y="-455.5" font-family="Helvetica,sans-Serif" font-size="10.00"> MojRefCountedPtr&lt; Offset</text>
<text text-anchor="middle" x="227" y="-442.5" font-family="Helvetica,sans-Serif" font-size="10.00"> &gt;, const MojChar * &gt;</text>
</a>
</g>
<!-- Node1&#45;&gt;Node6 -->
<g id="edge10" class="edge"><title>Node1&#45;&gt;Node6</title>
<path fill="none" stroke="#8b1a1a" d="M55.9839,-326.769C68.8128,-352.877 94.782,-398.622 130,-425 137.546,-430.652 146.125,-435.378 154.986,-439.319"/>
<polygon fill="#8b1a1a" stroke="#8b1a1a" points="59.0328,-325.03 51.5788,-317.501 52.7107,-328.035 59.0328,-325.03"/>
</g>
<!-- Node7 -->
<g id="node13" class="node"><title>Node7</title>
<a xlink:href="classMojMap.htm" target="_top" xlink:title="MojMap\&lt; MojString,\l MojRefCountedPtr\&lt; Quota\l \&gt;, const MojChar *, LengthComp \&gt;">
<polygon fill="white" stroke="black" points="135.5,-368.5 135.5,-415.5 318.5,-415.5 318.5,-368.5 135.5,-368.5"/>
<text text-anchor="start" x="143.5" y="-402.5" font-family="Helvetica,sans-Serif" font-size="10.00">MojMap&lt; MojString,</text>
<text text-anchor="start" x="143.5" y="-389.5" font-family="Helvetica,sans-Serif" font-size="10.00"> MojRefCountedPtr&lt; Quota</text>
<text text-anchor="middle" x="227" y="-376.5" font-family="Helvetica,sans-Serif" font-size="10.00"> &gt;, const MojChar *, LengthComp &gt;</text>
</a>
</g>
<!-- Node1&#45;&gt;Node7 -->
<g id="edge12" class="edge"><title>Node1&#45;&gt;Node7</title>
<path fill="none" stroke="#8b1a1a" d="M70.0068,-323.447C86.2222,-334.523 108.75,-348.897 130,-359 136.988,-362.322 144.402,-365.469 151.896,-368.402"/>
<polygon fill="#8b1a1a" stroke="#8b1a1a" points="71.9072,-320.506 61.6958,-317.681 67.917,-326.257 71.9072,-320.506"/>
</g>
<!-- Node8 -->
<g id="node15" class="node"><title>Node8</title>
<a xlink:href="classMojMap.htm" target="_top" xlink:title="MojMap\&lt; MojString,\l MojRefCountedPtr\&lt; SchemaRule \&gt; \&gt;">
<polygon fill="white" stroke="black" points="130.5,-316 130.5,-350 323.5,-350 323.5,-316 130.5,-316"/>
<text text-anchor="start" x="138.5" y="-337" font-family="Helvetica,sans-Serif" font-size="10.00">MojMap&lt; MojString,</text>
<text text-anchor="middle" x="227" y="-324" font-family="Helvetica,sans-Serif" font-size="10.00"> MojRefCountedPtr&lt; SchemaRule &gt; &gt;</text>
</a>
</g>
<!-- Node1&#45;&gt;Node8 -->
<g id="edge14" class="edge"><title>Node1&#45;&gt;Node8</title>
<path fill="none" stroke="#8b1a1a" d="M103.946,-315.225C112.451,-316.454 121.413,-317.749 130.464,-319.056"/>
<polygon fill="#8b1a1a" stroke="#8b1a1a" points="104.221,-311.729 93.823,-313.763 103.22,-318.657 104.221,-311.729"/>
</g>
<!-- Node9 -->
<g id="node17" class="node"><title>Node9</title>
<a xlink:href="classMojMap.htm" target="_top" xlink:title="MojMap\&lt; MojString,\l MojSize \&gt;">
<polygon fill="white" stroke="black" points="171.5,-264 171.5,-298 282.5,-298 282.5,-264 171.5,-264"/>
<text text-anchor="start" x="179.5" y="-285" font-family="Helvetica,sans-Serif" font-size="10.00">MojMap&lt; MojString,</text>
<text text-anchor="middle" x="227" y="-272" font-family="Helvetica,sans-Serif" font-size="10.00"> MojSize &gt;</text>
</a>
</g>
<!-- Node1&#45;&gt;Node9 -->
<g id="edge16" class="edge"><title>Node1&#45;&gt;Node9</title>
<path fill="none" stroke="#8b1a1a" d="M103.835,-298.791C125.427,-295.672 149.981,-292.125 171.452,-289.024"/>
<polygon fill="#8b1a1a" stroke="#8b1a1a" points="103.22,-295.343 93.823,-300.237 104.221,-302.271 103.22,-295.343"/>
</g>
<!-- Node10 -->
<g id="node19" class="node"><title>Node10</title>
<a xlink:href="classMojMap.htm" target="_top" xlink:title="MojMap\&lt; MojString,\l Option, const MojChar * \&gt;">
<polygon fill="white" stroke="black" points="155.5,-212 155.5,-246 298.5,-246 298.5,-212 155.5,-212"/>
<text text-anchor="start" x="163.5" y="-233" font-family="Helvetica,sans-Serif" font-size="10.00">MojMap&lt; MojString,</text>
<text text-anchor="middle" x="227" y="-220" font-family="Helvetica,sans-Serif" font-size="10.00"> Option, const MojChar * &gt;</text>
</a>
</g>
<!-- Node1&#45;&gt;Node10 -->
<g id="edge18" class="edge"><title>Node1&#45;&gt;Node10</title>
<path fill="none" stroke="#8b1a1a" d="M69.2158,-290.516C85.3774,-279.18 108.165,-264.511 130,-255 138.072,-251.484 146.734,-248.344 155.439,-245.567"/>
<polygon fill="#8b1a1a" stroke="#8b1a1a" points="67.0636,-287.752 60.967,-296.417 71.1365,-293.446 67.0636,-287.752"/>
</g>
<!-- Node11 -->
<g id="node21" class="node"><title>Node11</title>
<a xlink:href="classMojMap.htm" target="_top" xlink:title="MojMap\&lt; SubscriptionKey,\l MojServiceMessage * \&gt;">
<polygon fill="white" stroke="black" points="156.5,-160 156.5,-194 297.5,-194 297.5,-160 156.5,-160"/>
<text text-anchor="start" x="164.5" y="-181" font-family="Helvetica,sans-Serif" font-size="10.00">MojMap&lt; SubscriptionKey,</text>
<text text-anchor="middle" x="227" y="-168" font-family="Helvetica,sans-Serif" font-size="10.00"> MojServiceMessage * &gt;</text>
</a>
</g>
<!-- Node1&#45;&gt;Node11 -->
<g id="edge20" class="edge"><title>Node1&#45;&gt;Node11</title>
<path fill="none" stroke="#8b1a1a" d="M57.3513,-287.532C70.9012,-263.946 96.8735,-224.682 130,-203 138.023,-197.748 147.076,-193.553 156.346,-190.203"/>
<polygon fill="#8b1a1a" stroke="#8b1a1a" points="54.2758,-285.861 52.4719,-296.301 60.3926,-289.265 54.2758,-285.861"/>
</g>
<!-- Node12 -->
<g id="node23" class="node"><title>Node12</title>
<a xlink:href="classMojSet.htm" target="_top" xlink:title="MojSet\&lt; T, COMP \&gt;">
<polygon fill="white" stroke="black" points="171.5,-120.5 171.5,-141.5 282.5,-141.5 282.5,-120.5 171.5,-120.5"/>
<text text-anchor="middle" x="227" y="-128.5" font-family="Helvetica,sans-Serif" font-size="10.00">MojSet&lt; T, COMP &gt;</text>
</a>
</g>
<!-- Node1&#45;&gt;Node12 -->
<g id="edge22" class="edge"><title>Node1&#45;&gt;Node12</title>
<path fill="none" stroke="#8b1a1a" d="M51.8611,-286.486C61.0087,-252.617 84.1268,-185.339 130,-151 141.907,-142.087 156.842,-136.914 171.399,-133.971"/>
<polygon fill="#8b1a1a" stroke="#8b1a1a" points="48.4574,-285.669 49.3709,-296.225 55.2392,-287.404 48.4574,-285.669"/>
</g>
<!-- Node13 -->
<g id="node25" class="node"><title>Node13</title>
<a xlink:href="classMojSet.htm" target="_top" xlink:title="MojSet\&lt; MojDbKey \&gt;">
<polygon fill="white" stroke="black" points="169,-80.5 169,-101.5 285,-101.5 285,-80.5 169,-80.5"/>
<text text-anchor="middle" x="227" y="-88.5" font-family="Helvetica,sans-Serif" font-size="10.00">MojSet&lt; MojDbKey &gt;</text>
</a>
</g>
<!-- Node1&#45;&gt;Node13 -->
<g id="edge24" class="edge"><title>Node1&#45;&gt;Node13</title>
<path fill="none" stroke="#8b1a1a" d="M49.4282,-286.511C55.3464,-246.215 74.3648,-156.617 130,-111 140.97,-102.006 154.943,-96.7314 168.845,-93.7136"/>
<polygon fill="#8b1a1a" stroke="#8b1a1a" points="45.9501,-286.115 48.0868,-296.492 52.8877,-287.048 45.9501,-286.115"/>
</g>
<!-- Node14 -->
<g id="node27" class="node"><title>Node14</title>
<a xlink:href="classMojSet.htm" target="_top" xlink:title="MojSet\&lt; MojObject \&gt;">
<polygon fill="white" stroke="black" points="169.5,-40.5 169.5,-61.5 284.5,-61.5 284.5,-40.5 169.5,-40.5"/>
<text text-anchor="middle" x="227" y="-48.5" font-family="Helvetica,sans-Serif" font-size="10.00">MojSet&lt; MojObject &gt;</text>
</a>
</g>
<!-- Node1&#45;&gt;Node14 -->
<g id="edge26" class="edge"><title>Node1&#45;&gt;Node14</title>
<path fill="none" stroke="#8b1a1a" d="M51.5041,-286.444C63.2796,-234.561 96.4019,-100.348 130,-71 140.943,-61.4417 155.23,-56.0144 169.461,-53.0323"/>
<polygon fill="#8b1a1a" stroke="#8b1a1a" points="48.0309,-285.938 49.2651,-296.461 54.8623,-287.466 48.0309,-285.938"/>
</g>
<!-- Node15 -->
<g id="node29" class="node"><title>Node15</title>
<a xlink:href="classMojSet.htm" target="_top" xlink:title="MojSet\&lt; MojString \&gt;">
<polygon fill="white" stroke="black" points="170.5,-0.5 170.5,-21.5 283.5,-21.5 283.5,-0.5 170.5,-0.5"/>
<text text-anchor="middle" x="227" y="-8.5" font-family="Helvetica,sans-Serif" font-size="10.00">MojSet&lt; MojString &gt;</text>
</a>
</g>
<!-- Node1&#45;&gt;Node15 -->
<g id="edge28" class="edge"><title>Node1&#45;&gt;Node15</title>
<path fill="none" stroke="#8b1a1a" d="M50.4557,-286.128C60.4952,-228.016 91.4108,-66.3066 130,-31 141.037,-20.9021 155.775,-15.3577 170.424,-12.4381"/>
<polygon fill="#8b1a1a" stroke="#8b1a1a" points="46.9519,-285.857 48.7301,-296.301 53.8533,-287.027 46.9519,-285.857"/>
</g>
</g>
</svg>
