<?xml version="1.0" encoding="UTF-8" standalone="no"?>
<!DOCTYPE svg PUBLIC "-//W3C//DTD SVG 1.1//EN"
 "http://www.w3.org/Graphics/SVG/1.1/DTD/svg11.dtd">
<!-- Generated by graphviz version 2.26.3 (20100126.1600)
 -->
<!-- Title: Graphical Class Hierarchy Pages: 1 -->
<svg width="344pt" height="70pt"
 viewBox="0.00 0.00 344.00 70.00" xmlns="http://www.w3.org/2000/svg" xmlns:xlink="http://www.w3.org/1999/xlink">
<g id="graph1" class="graph" transform="scale(1 1) rotate(0) translate(4 66)">
<title>Graphical Class Hierarchy</title>
<polygon fill="white" stroke="white" points="-4,5 -4,-66 341,-66 341,5 -4,5"/>
<!-- Node1 -->
<g id="node1" class="node"><title>Node1</title>
<a xlink:href="structMojHasher_3_01const_01MojChar_01_5_01_4.htm" target="_top" xlink:title="MojHasher\&lt; const MojChar * \&gt;">
<polygon fill="white" stroke="black" points="0,-20.5 0,-41.5 164,-41.5 164,-20.5 0,-20.5"/>
<text text-anchor="middle" x="82" y="-28.5" font-family="Helvetica,sans-Serif" font-size="10.00">MojHasher&lt; const MojChar * &gt;</text>
</a>
</g>
<!-- Node2 -->
<g id="node3" class="node"><title>Node2</title>
<a xlink:href="structMojHasher_3_01MojChar_01_5_01_4.htm" target="_top" xlink:title="MojHasher\&lt; MojChar * \&gt;">
<polygon fill="white" stroke="black" points="200.5,-40.5 200.5,-61.5 335.5,-61.5 335.5,-40.5 200.5,-40.5"/>
<text text-anchor="middle" x="268" y="-48.5" font-family="Helvetica,sans-Serif" font-size="10.00">MojHasher&lt; MojChar * &gt;</text>
</a>
</g>
<!-- Node1&#45;&gt;Node2 -->
<g id="edge2" class="edge"><title>Node1&#45;&gt;Node2</title>
<path fill="none" stroke="midnightblue" d="M174.346,-40.9297C183.073,-41.868 191.807,-42.8072 200.241,-43.7141"/>
<polygon fill="midnightblue" stroke="midnightblue" points="174.441,-37.4198 164.124,-39.8305 173.692,-44.3796 174.441,-37.4198"/>
</g>
<!-- Node3 -->
<g id="node5" class="node"><title>Node3</title>
<a xlink:href="structMojHasher_3_01MojString_01_4.htm" target="_top" xlink:title="MojHasher\&lt; MojString \&gt;">
<polygon fill="white" stroke="black" points="202.5,-0.5 202.5,-21.5 333.5,-21.5 333.5,-0.5 202.5,-0.5"/>
<text text-anchor="middle" x="268" y="-8.5" font-family="Helvetica,sans-Serif" font-size="10.00">MojHasher&lt; MojString &gt;</text>
</a>
</g>
<!-- Node1&#45;&gt;Node3 -->
<g id="edge4" class="edge"><title>Node1&#45;&gt;Node3</title>
<path fill="none" stroke="midnightblue" d="M174.323,-21.0728C183.743,-20.0599 193.171,-19.0461 202.223,-18.0728"/>
<polygon fill="midnightblue" stroke="midnightblue" points="173.692,-17.6204 164.124,-22.1695 174.441,-24.5802 173.692,-17.6204"/>
</g>
</g>
</svg>
