<?xml version="1.0" encoding="UTF-8" standalone="no"?>
<!DOCTYPE svg PUBLIC "-//W3C//DTD SVG 1.1//EN"
 "http://www.w3.org/Graphics/SVG/1.1/DTD/svg11.dtd">
<!-- Generated by graphviz version 2.26.3 (20100126.1600)
 -->
<!-- Title: Graphical Class Hierarchy Pages: 1 -->
<svg width="368pt" height="56pt"
 viewBox="0.00 0.00 368.00 56.00" xmlns="http://www.w3.org/2000/svg" xmlns:xlink="http://www.w3.org/1999/xlink">
<g id="graph1" class="graph" transform="scale(1 1) rotate(0) translate(4 52)">
<title>Graphical Class Hierarchy</title>
<polygon fill="white" stroke="white" points="-4,5 -4,-52 365,-52 365,5 -4,5"/>
<!-- Node1 -->
<g id="node1" class="node"><title>Node1</title>
<a xlink:href="structMojComp.htm" target="_top" xlink:title="MojComp\&lt; const MojMap\l\&lt; KEY, VAL, LKEY, KCOMP,\l VCOMP \&gt; \&gt;">
<polygon fill="white" stroke="black" points="0,-0.5 0,-47.5 148,-47.5 148,-0.5 0,-0.5"/>
<text text-anchor="start" x="8" y="-34.5" font-family="Helvetica,sans-Serif" font-size="10.00">MojComp&lt; const MojMap</text>
<text text-anchor="start" x="8" y="-21.5" font-family="Helvetica,sans-Serif" font-size="10.00">&lt; KEY, VAL, LKEY, KCOMP,</text>
<text text-anchor="middle" x="74" y="-8.5" font-family="Helvetica,sans-Serif" font-size="10.00"> VCOMP &gt; &gt;</text>
</a>
</g>
<!-- Node2 -->
<g id="node3" class="node"><title>Node2</title>
<a xlink:href="structMojComp_3_01MojMap_3_01KEY_00_01VAL_00_01LKEY_00_01KCOMP_00_01VCOMP_01_4_01_4.htm" target="_top" xlink:title="MojComp\&lt; MojMap\&lt; KEY,\l VAL, LKEY, KCOMP, VCOMP \&gt; \&gt;">
<polygon fill="white" stroke="black" points="184,-7 184,-41 360,-41 360,-7 184,-7"/>
<text text-anchor="start" x="192" y="-28" font-family="Helvetica,sans-Serif" font-size="10.00">MojComp&lt; MojMap&lt; KEY,</text>
<text text-anchor="middle" x="272" y="-15" font-family="Helvetica,sans-Serif" font-size="10.00"> VAL, LKEY, KCOMP, VCOMP &gt; &gt;</text>
</a>
</g>
<!-- Node1&#45;&gt;Node2 -->
<g id="edge2" class="edge"><title>Node1&#45;&gt;Node2</title>
<path fill="none" stroke="midnightblue" d="M158.213,-24C166.652,-24 175.237,-24 183.716,-24"/>
<polygon fill="midnightblue" stroke="midnightblue" points="158.009,-20.5001 148.009,-24 158.009,-27.5001 158.009,-20.5001"/>
</g>
</g>
</svg>
