<?xml version="1.0" encoding="UTF-8" standalone="no"?>
<!DOCTYPE svg PUBLIC "-//W3C//DTD SVG 1.1//EN"
 "http://www.w3.org/Graphics/SVG/1.1/DTD/svg11.dtd">
<!-- Generated by graphviz version 2.26.3 (20100126.1600)
 -->
<!-- Title: MojApp.h Pages: 1 -->
<svg width="1068pt" height="754pt"
 viewBox="0.00 0.00 1068.15 754.00" xmlns="http://www.w3.org/2000/svg" xmlns:xlink="http://www.w3.org/1999/xlink">
<g id="graph1" class="graph" transform="scale(1 1) rotate(0) translate(4 750)">
<title>MojApp.h</title>
<polygon fill="white" stroke="white" points="-4,5 -4,-750 1065.15,-750 1065.15,5 -4,5"/>
<!-- Node1 -->
<g id="node1" class="node"><title>Node1</title>
<polygon fill="#bfbfbf" stroke="black" points="643.5,-724.5 643.5,-745.5 704.5,-745.5 704.5,-724.5 643.5,-724.5"/>
<text text-anchor="middle" x="674" y="-732.5" font-family="Helvetica,sans-Serif" font-size="10.00">MojApp.h</text>
</g>
<!-- Node2 -->
<g id="node3" class="node"><title>Node2</title>
<a xlink:href="MojCoreDefs_8h.htm" target="_top" xlink:title="core/MojCoreDefs.h">
<polygon fill="white" stroke="black" points="619.5,-232.5 619.5,-253.5 730.5,-253.5 730.5,-232.5 619.5,-232.5"/>
<text text-anchor="middle" x="675" y="-240.5" font-family="Helvetica,sans-Serif" font-size="10.00">core/MojCoreDefs.h</text>
</a>
</g>
<!-- Node1&#45;&gt;Node2 -->
<g id="edge2" class="edge"><title>Node1&#45;&gt;Node2</title>
<path fill="none" stroke="midnightblue" d="M704.611,-732.441C795.909,-723.976 1060,-693.086 1060,-619 1060,-619 1060,-619 1060,-366 1060,-351.9 1062.45,-335.085 950,-290 881.72,-262.624 797.662,-251.188 740.582,-246.414"/>
<polygon fill="midnightblue" stroke="midnightblue" points="740.847,-242.924 730.602,-245.625 740.294,-249.903 740.847,-242.924"/>
</g>
<!-- Node12 -->
<g id="node23" class="node"><title>Node12</title>
<a xlink:href="MojAutoPtr_8h.htm" target="_top" xlink:title="core/MojAutoPtr.h">
<polygon fill="white" stroke="black" points="166.5,-427.5 166.5,-448.5 267.5,-448.5 267.5,-427.5 166.5,-427.5"/>
<text text-anchor="middle" x="217" y="-435.5" font-family="Helvetica,sans-Serif" font-size="10.00">core/MojAutoPtr.h</text>
</a>
</g>
<!-- Node1&#45;&gt;Node12 -->
<g id="edge22" class="edge"><title>Node1&#45;&gt;Node12</title>
<path fill="none" stroke="midnightblue" d="M643.483,-734.234C537.53,-730.759 192,-712.278 192,-619 192,-619 192,-619 192,-561 192,-524.34 202.797,-482.744 210.2,-458.532"/>
<polygon fill="midnightblue" stroke="midnightblue" points="213.627,-459.3 213.311,-448.71 206.954,-457.186 213.627,-459.3"/>
</g>
<!-- Node15 -->
<g id="node32" class="node"><title>Node15</title>
<a xlink:href="MojMap_8h.htm" target="_top" xlink:title="core/MojMap.h">
<polygon fill="white" stroke="black" points="668.5,-550.5 668.5,-571.5 755.5,-571.5 755.5,-550.5 668.5,-550.5"/>
<text text-anchor="middle" x="712" y="-558.5" font-family="Helvetica,sans-Serif" font-size="10.00">core/MojMap.h</text>
</a>
</g>
<!-- Node1&#45;&gt;Node15 -->
<g id="edge34" class="edge"><title>Node1&#45;&gt;Node15</title>
<path fill="none" stroke="midnightblue" d="M667.507,-724.279C660.125,-710.741 649.74,-686.714 655,-666 663.278,-633.399 683.941,-599.967 697.976,-579.84"/>
<polygon fill="midnightblue" stroke="midnightblue" points="700.915,-581.747 703.89,-571.579 695.223,-577.672 700.915,-581.747"/>
</g>
<!-- Node18 -->
<g id="node42" class="node"><title>Node18</title>
<a xlink:href="MojObject_8h.htm" target="_top" xlink:title="core/MojObject.h">
<polygon fill="white" stroke="black" points="664,-666.5 664,-687.5 760,-687.5 760,-666.5 664,-666.5"/>
<text text-anchor="middle" x="712" y="-674.5" font-family="Helvetica,sans-Serif" font-size="10.00">core/MojObject.h</text>
</a>
</g>
<!-- Node1&#45;&gt;Node18 -->
<g id="edge48" class="edge"><title>Node1&#45;&gt;Node18</title>
<path fill="none" stroke="midnightblue" d="M680.97,-724.362C686.166,-716.431 693.401,-705.389 699.578,-695.961"/>
<polygon fill="midnightblue" stroke="midnightblue" points="702.522,-697.853 705.074,-687.571 696.666,-694.017 702.522,-697.853"/>
</g>
<!-- Node23 -->
<g id="node58" class="node"><title>Node23</title>
<a xlink:href="MojString_8h.htm" target="_top" xlink:title="core/MojString.h">
<polygon fill="white" stroke="black" points="740,-608.5 740,-629.5 834,-629.5 834,-608.5 740,-608.5"/>
<text text-anchor="middle" x="787" y="-616.5" font-family="Helvetica,sans-Serif" font-size="10.00">core/MojString.h</text>
</a>
</g>
<!-- Node1&#45;&gt;Node23 -->
<g id="edge104" class="edge"><title>Node1&#45;&gt;Node23</title>
<path fill="none" stroke="midnightblue" d="M704.822,-727.101C725.849,-720.162 752.736,-707.978 769,-688 780.086,-674.382 784.413,-654.672 786.068,-639.801"/>
<polygon fill="midnightblue" stroke="midnightblue" points="789.579,-639.799 786.88,-629.554 782.601,-639.246 789.579,-639.799"/>
</g>
<!-- Node24 -->
<g id="node64" class="node"><title>Node24</title>
<a xlink:href="MojVector_8h.htm" target="_top" xlink:title="core/MojVector.h">
<polygon fill="white" stroke="black" points="293.5,-550.5 293.5,-571.5 390.5,-571.5 390.5,-550.5 293.5,-550.5"/>
<text text-anchor="middle" x="342" y="-558.5" font-family="Helvetica,sans-Serif" font-size="10.00">core/MojVector.h</text>
</a>
</g>
<!-- Node1&#45;&gt;Node24 -->
<g id="edge106" class="edge"><title>Node1&#45;&gt;Node24</title>
<path fill="none" stroke="midnightblue" d="M653.732,-724.377C597.239,-694.77 437.824,-611.221 371.51,-576.466"/>
<polygon fill="midnightblue" stroke="midnightblue" points="372.907,-573.247 362.425,-571.705 369.657,-579.447 372.907,-573.247"/>
</g>
<!-- Node3 -->
<g id="node5" class="node"><title>Node3</title>
<a xlink:href="MojConfig_8h.htm" target="_top" xlink:title="core/internal/MojConfig.h">
<polygon fill="white" stroke="black" points="732.5,-174.5 732.5,-195.5 867.5,-195.5 867.5,-174.5 732.5,-174.5"/>
<text text-anchor="middle" x="800" y="-182.5" font-family="Helvetica,sans-Serif" font-size="10.00">core/internal/MojConfig.h</text>
</a>
</g>
<!-- Node2&#45;&gt;Node3 -->
<g id="edge4" class="edge"><title>Node2&#45;&gt;Node3</title>
<path fill="none" stroke="midnightblue" d="M697.637,-232.497C717.248,-223.397 745.846,-210.127 767.833,-199.925"/>
<polygon fill="midnightblue" stroke="midnightblue" points="769.512,-203.005 777.109,-195.621 766.565,-196.655 769.512,-203.005"/>
</g>
<!-- Node4 -->
<g id="node7" class="node"><title>Node4</title>
<a xlink:href="MojNew_8h.htm" target="_top" xlink:title="core/internal/MojNew.h">
<polygon fill="white" stroke="black" points="394.5,-174.5 394.5,-195.5 519.5,-195.5 519.5,-174.5 394.5,-174.5"/>
<text text-anchor="middle" x="457" y="-182.5" font-family="Helvetica,sans-Serif" font-size="10.00">core/internal/MojNew.h</text>
</a>
</g>
<!-- Node2&#45;&gt;Node4 -->
<g id="edge6" class="edge"><title>Node2&#45;&gt;Node4</title>
<path fill="none" stroke="midnightblue" d="M635.522,-232.497C599.367,-222.877 545.696,-208.598 506.647,-198.209"/>
<polygon fill="midnightblue" stroke="midnightblue" points="507.116,-194.712 496.552,-195.523 505.316,-201.477 507.116,-194.712"/>
</g>
<!-- Node6 -->
<g id="node11" class="node"><title>Node6</title>
<a xlink:href="MojErr_8h.htm" target="_top" xlink:title="core/MojErr.h">
<polygon fill="white" stroke="black" points="537,-174.5 537,-195.5 617,-195.5 617,-174.5 537,-174.5"/>
<text text-anchor="middle" x="577" y="-182.5" font-family="Helvetica,sans-Serif" font-size="10.00">core/MojErr.h</text>
</a>
</g>
<!-- Node2&#45;&gt;Node6 -->
<g id="edge10" class="edge"><title>Node2&#45;&gt;Node6</title>
<path fill="none" stroke="midnightblue" d="M657.025,-232.362C642.106,-223.532 620.667,-210.844 603.734,-200.822"/>
<polygon fill="midnightblue" stroke="midnightblue" points="605.249,-197.652 594.861,-195.571 601.684,-203.676 605.249,-197.652"/>
</g>
<!-- Node10 -->
<g id="node19" class="node"><title>Node10</title>
<a xlink:href="MojOs_8h.htm" target="_top" xlink:title="core/MojOs.h">
<polygon fill="white" stroke="black" points="635,-174.5 635,-195.5 715,-195.5 715,-174.5 635,-174.5"/>
<text text-anchor="middle" x="675" y="-182.5" font-family="Helvetica,sans-Serif" font-size="10.00">core/MojOs.h</text>
</a>
</g>
<!-- Node2&#45;&gt;Node10 -->
<g id="edge18" class="edge"><title>Node2&#45;&gt;Node10</title>
<path fill="none" stroke="midnightblue" d="M675,-232.362C675,-224.922 675,-214.743 675,-205.728"/>
<polygon fill="midnightblue" stroke="midnightblue" points="678.5,-205.571 675,-195.571 671.5,-205.571 678.5,-205.571"/>
</g>
<!-- Node5 -->
<g id="node9" class="node"><title>Node5</title>
<polygon fill="white" stroke="#bfbfbf" points="439,-116.5 439,-137.5 475,-137.5 475,-116.5 439,-116.5"/>
<text text-anchor="middle" x="457" y="-124.5" font-family="Helvetica,sans-Serif" font-size="10.00">new</text>
</g>
<!-- Node4&#45;&gt;Node5 -->
<g id="edge8" class="edge"><title>Node4&#45;&gt;Node5</title>
<path fill="none" stroke="midnightblue" d="M457,-174.362C457,-166.922 457,-156.743 457,-147.728"/>
<polygon fill="midnightblue" stroke="midnightblue" points="460.5,-147.571 457,-137.571 453.5,-147.571 460.5,-147.571"/>
</g>
<!-- Node7 -->
<g id="node13" class="node"><title>Node7</title>
<a xlink:href="MojLog_8h.htm" target="_top" xlink:title="core/MojLog.h">
<polygon fill="white" stroke="black" points="494,-116.5 494,-137.5 578,-137.5 578,-116.5 494,-116.5"/>
<text text-anchor="middle" x="536" y="-124.5" font-family="Helvetica,sans-Serif" font-size="10.00">core/MojLog.h</text>
</a>
</g>
<!-- Node6&#45;&gt;Node7 -->
<g id="edge12" class="edge"><title>Node6&#45;&gt;Node7</title>
<path fill="none" stroke="midnightblue" d="M569.48,-174.362C563.874,-166.431 556.068,-155.389 549.403,-145.961"/>
<polygon fill="midnightblue" stroke="midnightblue" points="552.103,-143.716 543.472,-137.571 546.387,-147.757 552.103,-143.716"/>
</g>
<!-- Node8 -->
<g id="node15" class="node"><title>Node8</title>
<a xlink:href="MojListEntry_8h.htm" target="_top" xlink:title="core/MojListEntry.h">
<polygon fill="white" stroke="black" points="274.5,-58.5 274.5,-79.5 381.5,-79.5 381.5,-58.5 274.5,-58.5"/>
<text text-anchor="middle" x="328" y="-66.5" font-family="Helvetica,sans-Serif" font-size="10.00">core/MojListEntry.h</text>
</a>
</g>
<!-- Node7&#45;&gt;Node8 -->
<g id="edge14" class="edge"><title>Node7&#45;&gt;Node8</title>
<path fill="none" stroke="midnightblue" d="M498.333,-116.497C463.983,-106.918 413.063,-92.7196 375.846,-82.3418"/>
<polygon fill="midnightblue" stroke="midnightblue" points="376.311,-78.8377 365.738,-79.5231 374.43,-85.5805 376.311,-78.8377"/>
</g>
<!-- Node9 -->
<g id="node17" class="node"><title>Node9</title>
<a xlink:href="MojNoCopy_8h.htm" target="_top" xlink:title="core/MojNoCopy.h">
<polygon fill="white" stroke="black" points="150,-0.5 150,-21.5 254,-21.5 254,-0.5 150,-0.5"/>
<text text-anchor="middle" x="202" y="-8.5" font-family="Helvetica,sans-Serif" font-size="10.00">core/MojNoCopy.h</text>
</a>
</g>
<!-- Node8&#45;&gt;Node9 -->
<g id="edge16" class="edge"><title>Node8&#45;&gt;Node9</title>
<path fill="none" stroke="midnightblue" d="M305.182,-58.4966C285.414,-49.397 256.587,-36.1273 234.424,-25.9253"/>
<polygon fill="midnightblue" stroke="midnightblue" points="235.621,-22.6234 225.074,-21.6212 232.694,-28.982 235.621,-22.6234"/>
</g>
<!-- Node11 -->
<g id="node21" class="node"><title>Node11</title>
<a xlink:href="MojOsInternal_8h.htm" target="_top" xlink:title="core/internal/MojOsInternal.h">
<polygon fill="white" stroke="black" points="598,-116.5 598,-137.5 752,-137.5 752,-116.5 598,-116.5"/>
<text text-anchor="middle" x="675" y="-124.5" font-family="Helvetica,sans-Serif" font-size="10.00">core/internal/MojOsInternal.h</text>
</a>
</g>
<!-- Node10&#45;&gt;Node11 -->
<g id="edge20" class="edge"><title>Node10&#45;&gt;Node11</title>
<path fill="none" stroke="midnightblue" d="M675,-174.362C675,-166.922 675,-156.743 675,-147.728"/>
<polygon fill="midnightblue" stroke="midnightblue" points="678.5,-147.571 675,-137.571 671.5,-147.571 678.5,-147.571"/>
</g>
<!-- Node12&#45;&gt;Node2 -->
<g id="edge24" class="edge"><title>Node12&#45;&gt;Node2</title>
<path fill="none" stroke="midnightblue" d="M219.472,-427.283C224.302,-408.647 236.708,-370.146 261,-348 311.778,-301.709 506.008,-267.412 609.377,-252.004"/>
<polygon fill="midnightblue" stroke="midnightblue" points="610.01,-255.449 619.393,-250.528 608.989,-248.524 610.01,-255.449"/>
</g>
<!-- Node12&#45;&gt;Node9 -->
<g id="edge30" class="edge"><title>Node12&#45;&gt;Node9</title>
<path fill="none" stroke="midnightblue" d="M167.716,-427.409C142.467,-419.521 113.273,-406.159 95,-384 70.9241,-354.803 76,-338.843 76,-301 76,-301 76,-301 76,-127 76,-77.7978 128.646,-43.7359 165.878,-25.7991"/>
<polygon fill="midnightblue" stroke="midnightblue" points="167.368,-28.9662 174.97,-21.5869 164.425,-22.6147 167.368,-28.9662"/>
</g>
<!-- Node13 -->
<g id="node26" class="node"><title>Node13</title>
<a xlink:href="MojAtomicInt_8h.htm" target="_top" xlink:title="core/MojAtomicInt.h">
<polygon fill="white" stroke="black" points="104,-355.5 104,-376.5 214,-376.5 214,-355.5 104,-355.5"/>
<text text-anchor="middle" x="159" y="-363.5" font-family="Helvetica,sans-Serif" font-size="10.00">core/MojAtomicInt.h</text>
</a>
</g>
<!-- Node12&#45;&gt;Node13 -->
<g id="edge26" class="edge"><title>Node12&#45;&gt;Node13</title>
<path fill="none" stroke="midnightblue" d="M208.442,-427.376C199.361,-416.103 184.838,-398.075 173.877,-384.468"/>
<polygon fill="midnightblue" stroke="midnightblue" points="176.592,-382.259 167.593,-376.667 171.141,-386.651 176.592,-382.259"/>
</g>
<!-- Node14 -->
<g id="node30" class="node"><title>Node14</title>
<a xlink:href="MojAutoPtrInternal_8h.htm" target="_top" xlink:title="core/internal/MojAutoPtr\lInternal.h">
<polygon fill="white" stroke="black" points="269.5,-349 269.5,-383 400.5,-383 400.5,-349 269.5,-349"/>
<text text-anchor="start" x="277.5" y="-370" font-family="Helvetica,sans-Serif" font-size="10.00">core/internal/MojAutoPtr</text>
<text text-anchor="middle" x="335" y="-357" font-family="Helvetica,sans-Serif" font-size="10.00">Internal.h</text>
</a>
</g>
<!-- Node12&#45;&gt;Node14 -->
<g id="edge32" class="edge"><title>Node12&#45;&gt;Node14</title>
<path fill="none" stroke="midnightblue" d="M234.411,-427.376C251.128,-417.176 276.907,-401.447 298.182,-388.465"/>
<polygon fill="midnightblue" stroke="midnightblue" points="300.271,-391.291 306.984,-383.094 296.625,-385.315 300.271,-391.291"/>
</g>
<!-- Node13&#45;&gt;Node2 -->
<g id="edge28" class="edge"><title>Node13&#45;&gt;Node2</title>
<path fill="none" stroke="midnightblue" d="M165.024,-355.422C175.407,-338.317 198.435,-304.988 228,-290 293.064,-257.015 501.522,-247.141 609.214,-244.214"/>
<polygon fill="midnightblue" stroke="midnightblue" points="609.407,-247.71 619.313,-243.952 609.225,-240.713 609.407,-247.71"/>
</g>
<!-- Node15&#45;&gt;Node2 -->
<g id="edge36" class="edge"><title>Node15&#45;&gt;Node2</title>
<path fill="none" stroke="midnightblue" d="M719.21,-550.491C744.391,-512.373 823.976,-378.952 769,-290 759.698,-274.95 743.957,-264.558 727.988,-257.454"/>
<polygon fill="midnightblue" stroke="midnightblue" points="729.189,-254.164 718.607,-253.641 726.553,-260.649 729.189,-254.164"/>
</g>
<!-- Node16 -->
<g id="node35" class="node"><title>Node16</title>
<a xlink:href="MojComp_8h.htm" target="_top" xlink:title="core/MojComp.h">
<polygon fill="white" stroke="black" points="666,-290.5 666,-311.5 760,-311.5 760,-290.5 666,-290.5"/>
<text text-anchor="middle" x="713" y="-298.5" font-family="Helvetica,sans-Serif" font-size="10.00">core/MojComp.h</text>
</a>
</g>
<!-- Node15&#45;&gt;Node16 -->
<g id="edge38" class="edge"><title>Node15&#45;&gt;Node16</title>
<path fill="none" stroke="midnightblue" d="M712.04,-550.486C712.191,-511.453 712.718,-374.414 712.92,-321.793"/>
<polygon fill="midnightblue" stroke="midnightblue" points="716.42,-321.659 712.959,-311.645 709.421,-321.632 716.42,-321.659"/>
</g>
<!-- Node17 -->
<g id="node38" class="node"><title>Node17</title>
<a xlink:href="MojRbTreeBase_8h.htm" target="_top" xlink:title="core/internal/MojRbTreeBase.h">
<polygon fill="white" stroke="black" points="446,-492.5 446,-513.5 610,-513.5 610,-492.5 446,-492.5"/>
<text text-anchor="middle" x="528" y="-500.5" font-family="Helvetica,sans-Serif" font-size="10.00">core/internal/MojRbTreeBase.h</text>
</a>
</g>
<!-- Node15&#45;&gt;Node17 -->
<g id="edge42" class="edge"><title>Node15&#45;&gt;Node17</title>
<path fill="none" stroke="midnightblue" d="M678.679,-550.497C648.552,-541 604.017,-526.962 571.172,-516.609"/>
<polygon fill="midnightblue" stroke="midnightblue" points="571.973,-513.191 561.384,-513.523 569.869,-519.868 571.973,-513.191"/>
</g>
<!-- Node16&#45;&gt;Node2 -->
<g id="edge40" class="edge"><title>Node16&#45;&gt;Node2</title>
<path fill="none" stroke="midnightblue" d="M706.03,-290.362C700.834,-282.431 693.599,-271.389 687.422,-261.961"/>
<polygon fill="midnightblue" stroke="midnightblue" points="690.334,-260.017 681.926,-253.571 684.478,-263.853 690.334,-260.017"/>
</g>
<!-- Node17&#45;&gt;Node2 -->
<g id="edge44" class="edge"><title>Node17&#45;&gt;Node2</title>
<path fill="none" stroke="midnightblue" d="M484.237,-492.497C451.558,-483.665 410.907,-470.23 401,-456 391.858,-442.869 396.513,-435.358 401,-420 428.835,-324.732 546.975,-276.949 618.729,-256.285"/>
<polygon fill="midnightblue" stroke="midnightblue" points="619.842,-259.608 628.532,-253.547 617.959,-252.866 619.842,-259.608"/>
</g>
<!-- Node17&#45;&gt;Node12 -->
<g id="edge46" class="edge"><title>Node17&#45;&gt;Node12</title>
<path fill="none" stroke="midnightblue" d="M477.687,-492.484C422.92,-481.038 335.383,-462.742 277.058,-450.552"/>
<polygon fill="midnightblue" stroke="midnightblue" points="277.745,-447.12 267.241,-448.501 276.313,-453.972 277.745,-447.12"/>
</g>
<!-- Node18&#45;&gt;Node2 -->
<g id="edge50" class="edge"><title>Node18&#45;&gt;Node2</title>
<path fill="none" stroke="midnightblue" d="M760.097,-669.279C847.171,-653.931 1022,-616.237 1022,-561 1022,-561 1022,-561 1022,-366 1022,-353.299 1023.41,-336.159 914,-290 858.347,-266.52 790.391,-254.61 741.189,-248.668"/>
<polygon fill="midnightblue" stroke="midnightblue" points="741.321,-245.16 730.985,-247.489 740.517,-252.114 741.321,-245.16"/>
</g>
<!-- Node18&#45;&gt;Node15 -->
<g id="edge68" class="edge"><title>Node18&#45;&gt;Node15</title>
<path fill="none" stroke="midnightblue" d="M712,-666.295C712,-647.131 712,-606.654 712,-581.843"/>
<polygon fill="midnightblue" stroke="midnightblue" points="715.5,-581.679 712,-571.679 708.5,-581.679 715.5,-581.679"/>
</g>
<!-- Node19 -->
<g id="node45" class="node"><title>Node19</title>
<a xlink:href="MojDecimal_8h.htm" target="_top" xlink:title="core/MojDecimal.h">
<polygon fill="white" stroke="black" points="852,-550.5 852,-571.5 956,-571.5 956,-550.5 852,-550.5"/>
<text text-anchor="middle" x="904" y="-558.5" font-family="Helvetica,sans-Serif" font-size="10.00">core/MojDecimal.h</text>
</a>
</g>
<!-- Node18&#45;&gt;Node19 -->
<g id="edge52" class="edge"><title>Node18&#45;&gt;Node19</title>
<path fill="none" stroke="midnightblue" d="M758.608,-666.427C784.904,-659.011 817.499,-647.285 843,-630 862.805,-616.577 880.298,-595.272 891.415,-579.885"/>
<polygon fill="midnightblue" stroke="midnightblue" points="894.336,-581.816 897.194,-571.614 888.598,-577.807 894.336,-581.816"/>
</g>
<!-- Node18&#45;&gt;Node23 -->
<g id="edge70" class="edge"><title>Node18&#45;&gt;Node23</title>
<path fill="none" stroke="midnightblue" d="M725.756,-666.362C736.751,-657.859 752.373,-645.779 765.086,-635.947"/>
<polygon fill="midnightblue" stroke="midnightblue" points="767.562,-638.457 773.331,-629.571 763.279,-632.919 767.562,-638.457"/>
</g>
<!-- Node18&#45;&gt;Node24 -->
<g id="edge102" class="edge"><title>Node18&#45;&gt;Node24</title>
<path fill="none" stroke="midnightblue" d="M678.184,-666.398C610.746,-645.255 459.625,-597.877 385.156,-574.53"/>
<polygon fill="midnightblue" stroke="midnightblue" points="386.193,-571.187 375.604,-571.535 384.098,-577.866 386.193,-571.187"/>
</g>
<!-- Node19&#45;&gt;Node2 -->
<g id="edge54" class="edge"><title>Node19&#45;&gt;Node2</title>
<path fill="none" stroke="midnightblue" d="M910.379,-550.231C922.128,-529.345 946,-481.55 946,-438 946,-438 946,-438 946,-366 946,-318.929 808.716,-276.553 729.571,-256.035"/>
<polygon fill="midnightblue" stroke="midnightblue" points="730.306,-252.61 719.75,-253.523 728.571,-259.392 730.306,-252.61"/>
</g>
<!-- Node20 -->
<g id="node48" class="node"><title>Node20</title>
<a xlink:href="MojHasher_8h.htm" target="_top" xlink:title="core/MojHasher.h">
<polygon fill="white" stroke="black" points="817.5,-492.5 817.5,-513.5 918.5,-513.5 918.5,-492.5 817.5,-492.5"/>
<text text-anchor="middle" x="868" y="-500.5" font-family="Helvetica,sans-Serif" font-size="10.00">core/MojHasher.h</text>
</a>
</g>
<!-- Node19&#45;&gt;Node20 -->
<g id="edge56" class="edge"><title>Node19&#45;&gt;Node20</title>
<path fill="none" stroke="midnightblue" d="M897.397,-550.362C892.525,-542.513 885.762,-531.616 879.95,-522.253"/>
<polygon fill="midnightblue" stroke="midnightblue" points="882.809,-520.221 874.561,-513.571 876.861,-523.913 882.809,-520.221"/>
</g>
<!-- Node20&#45;&gt;Node2 -->
<g id="edge58" class="edge"><title>Node20&#45;&gt;Node2</title>
<path fill="none" stroke="midnightblue" d="M867.968,-492.052C867.273,-457.545 860.46,-349.803 804,-290 787.177,-272.18 763.06,-261.093 740.221,-254.205"/>
<polygon fill="midnightblue" stroke="midnightblue" points="741.109,-250.819 730.536,-251.502 739.227,-257.561 741.109,-250.819"/>
</g>
<!-- Node21 -->
<g id="node51" class="node"><title>Node21</title>
<a xlink:href="MojUtil_8h.htm" target="_top" xlink:title="core/MojUtil.h">
<polygon fill="white" stroke="black" points="567.5,-427.5 567.5,-448.5 648.5,-448.5 648.5,-427.5 567.5,-427.5"/>
<text text-anchor="middle" x="608" y="-435.5" font-family="Helvetica,sans-Serif" font-size="10.00">core/MojUtil.h</text>
</a>
</g>
<!-- Node20&#45;&gt;Node21 -->
<g id="edge60" class="edge"><title>Node20&#45;&gt;Node21</title>
<path fill="none" stroke="midnightblue" d="M825.938,-492.484C780.222,-481.055 707.192,-462.798 658.432,-450.608"/>
<polygon fill="midnightblue" stroke="midnightblue" points="659.267,-447.209 648.717,-448.179 657.569,-454 659.267,-447.209"/>
</g>
<!-- Node21&#45;&gt;Node2 -->
<g id="edge62" class="edge"><title>Node21&#45;&gt;Node2</title>
<path fill="none" stroke="midnightblue" d="M611.397,-427.171C619.134,-402.637 638.808,-340.984 657,-290 660.138,-281.205 663.793,-271.562 666.987,-263.311"/>
<polygon fill="midnightblue" stroke="midnightblue" points="670.334,-264.363 670.711,-253.775 663.813,-261.816 670.334,-264.363"/>
</g>
<!-- Node22 -->
<g id="node54" class="node"><title>Node22</title>
<a xlink:href="MojUtilInternal_8h.htm" target="_top" xlink:title="core/internal/MojUtilInternal.h">
<polygon fill="white" stroke="black" points="455.5,-355.5 455.5,-376.5 610.5,-376.5 610.5,-355.5 455.5,-355.5"/>
<text text-anchor="middle" x="533" y="-363.5" font-family="Helvetica,sans-Serif" font-size="10.00">core/internal/MojUtilInternal.h</text>
</a>
</g>
<!-- Node21&#45;&gt;Node22 -->
<g id="edge64" class="edge"><title>Node21&#45;&gt;Node22</title>
<path fill="none" stroke="midnightblue" d="M596.933,-427.376C584.969,-415.89 565.701,-397.393 551.441,-383.703"/>
<polygon fill="midnightblue" stroke="midnightblue" points="553.75,-381.068 544.112,-376.667 548.902,-386.118 553.75,-381.068"/>
</g>
<!-- Node22&#45;&gt;Node16 -->
<g id="edge66" class="edge"><title>Node22&#45;&gt;Node16</title>
<path fill="none" stroke="midnightblue" d="M562.321,-355.412C592.786,-344.411 640.613,-327.14 674.194,-315.013"/>
<polygon fill="midnightblue" stroke="midnightblue" points="675.475,-318.272 683.692,-311.584 673.098,-311.688 675.475,-318.272"/>
</g>
<!-- Node23&#45;&gt;Node2 -->
<g id="edge72" class="edge"><title>Node23&#45;&gt;Node2</title>
<path fill="none" stroke="midnightblue" d="M834.359,-611.936C880.614,-604.108 946.654,-590.153 965,-572 987.61,-549.627 984,-534.808 984,-503 984,-503 984,-503 984,-366 984,-355.335 984.055,-337.41 879,-290 834.93,-270.112 781.575,-258.202 740.484,-251.348"/>
<polygon fill="midnightblue" stroke="midnightblue" points="741.012,-247.888 730.583,-249.755 739.899,-254.799 741.012,-247.888"/>
</g>
<!-- Node23&#45;&gt;Node12 -->
<g id="edge74" class="edge"><title>Node23&#45;&gt;Node12</title>
<path fill="none" stroke="midnightblue" d="M739.917,-608.582C671.542,-592.634 541.521,-559.195 437,-514 419.088,-506.255 416.924,-499.718 399,-492 358.187,-474.425 309.882,-460.385 273.296,-451.03"/>
<polygon fill="midnightblue" stroke="midnightblue" points="273.856,-447.562 263.304,-448.517 272.148,-454.35 273.856,-447.562"/>
</g>
<!-- Node23&#45;&gt;Node16 -->
<g id="edge76" class="edge"><title>Node23&#45;&gt;Node16</title>
<path fill="none" stroke="midnightblue" d="M784.8,-608.367C777.222,-571.933 751.271,-448.807 726,-348 723.824,-339.321 721.229,-329.797 718.932,-321.606"/>
<polygon fill="midnightblue" stroke="midnightblue" points="722.243,-320.451 716.144,-311.788 715.509,-322.364 722.243,-320.451"/>
</g>
<!-- Node23&#45;&gt;Node20 -->
<g id="edge78" class="edge"><title>Node23&#45;&gt;Node20</title>
<path fill="none" stroke="midnightblue" d="M794.475,-608.295C808.158,-588.7 837.402,-546.82 854.599,-522.191"/>
<polygon fill="midnightblue" stroke="midnightblue" points="857.687,-523.882 860.543,-513.679 851.948,-519.874 857.687,-523.882"/>
</g>
<!-- Node23&#45;&gt;Node24 -->
<g id="edge80" class="edge"><title>Node23&#45;&gt;Node24</title>
<path fill="none" stroke="midnightblue" d="M739.766,-613.524C652.195,-603.319 467.767,-581.562 404,-572 402.919,-571.838 401.828,-571.672 400.729,-571.502"/>
<polygon fill="midnightblue" stroke="midnightblue" points="401.124,-568.021 390.696,-569.893 400.016,-574.932 401.124,-568.021"/>
</g>
<!-- Node24&#45;&gt;Node2 -->
<g id="edge82" class="edge"><title>Node24&#45;&gt;Node2</title>
<path fill="none" stroke="midnightblue" d="M293.263,-558.281C219.672,-553.356 84.5698,-540.873 45,-514 12.5259,-491.946 0,-477.255 0,-438 0,-438 0,-438 0,-366 0,-300.602 63.8008,-310.204 126,-290 214.162,-261.363 483.476,-249.148 609.137,-244.904"/>
<polygon fill="midnightblue" stroke="midnightblue" points="609.509,-248.393 619.387,-244.564 609.277,-241.397 609.509,-248.393"/>
</g>
<!-- Node24&#45;&gt;Node16 -->
<g id="edge84" class="edge"><title>Node24&#45;&gt;Node16</title>
<path fill="none" stroke="midnightblue" d="M390.59,-559.098C464.243,-555.267 599.453,-544.223 636,-514 666.713,-488.602 697.066,-369.874 708.372,-321.545"/>
<polygon fill="midnightblue" stroke="midnightblue" points="711.826,-322.14 710.658,-311.61 705.005,-320.57 711.826,-322.14"/>
</g>
<!-- Node24&#45;&gt;Node21 -->
<g id="edge98" class="edge"><title>Node24&#45;&gt;Node21</title>
<path fill="none" stroke="midnightblue" d="M390.742,-556.137C466.267,-548.105 604.443,-531.235 619,-514 631.966,-498.649 625.852,-475.031 618.63,-458.2"/>
<polygon fill="midnightblue" stroke="midnightblue" points="621.591,-456.276 614.151,-448.733 615.264,-459.269 621.591,-456.276"/>
</g>
<!-- Node25 -->
<g id="node68" class="node"><title>Node25</title>
<a xlink:href="MojRefCount_8h.htm" target="_top" xlink:title="core/MojRefCount.h">
<polygon fill="white" stroke="black" points="54,-492.5 54,-513.5 164,-513.5 164,-492.5 54,-492.5"/>
<text text-anchor="middle" x="109" y="-500.5" font-family="Helvetica,sans-Serif" font-size="10.00">core/MojRefCount.h</text>
</a>
</g>
<!-- Node24&#45;&gt;Node25 -->
<g id="edge86" class="edge"><title>Node24&#45;&gt;Node25</title>
<path fill="none" stroke="midnightblue" d="M299.805,-550.497C260.834,-540.795 202.822,-526.355 161.001,-515.945"/>
<polygon fill="midnightblue" stroke="midnightblue" points="161.823,-512.542 151.274,-513.523 160.132,-519.335 161.823,-512.542"/>
</g>
<!-- Node27 -->
<g id="node77" class="node"><title>Node27</title>
<a xlink:href="MojVectorInternal_8h.htm" target="_top" xlink:title="core/internal/MojVectorInternal.h">
<polygon fill="white" stroke="black" points="219.5,-492.5 219.5,-513.5 390.5,-513.5 390.5,-492.5 219.5,-492.5"/>
<text text-anchor="middle" x="305" y="-500.5" font-family="Helvetica,sans-Serif" font-size="10.00">core/internal/MojVectorInternal.h</text>
</a>
</g>
<!-- Node24&#45;&gt;Node27 -->
<g id="edge100" class="edge"><title>Node24&#45;&gt;Node27</title>
<path fill="none" stroke="midnightblue" d="M335.214,-550.362C330.207,-542.513 323.255,-531.616 317.282,-522.253"/>
<polygon fill="midnightblue" stroke="midnightblue" points="320.072,-520.119 311.743,-513.571 314.171,-523.884 320.072,-520.119"/>
</g>
<!-- Node25&#45;&gt;Node2 -->
<g id="edge88" class="edge"><title>Node25&#45;&gt;Node2</title>
<path fill="none" stroke="midnightblue" d="M104.084,-492.317C92.6715,-465.806 67.3849,-395.703 95,-348 120.934,-303.201 146.696,-305.768 196,-290 271.152,-265.965 496.104,-251.813 608.938,-246.043"/>
<polygon fill="midnightblue" stroke="midnightblue" points="609.359,-249.527 619.17,-245.527 609.006,-242.536 609.359,-249.527"/>
</g>
<!-- Node25&#45;&gt;Node12 -->
<g id="edge92" class="edge"><title>Node25&#45;&gt;Node12</title>
<path fill="none" stroke="midnightblue" d="M126.834,-492.267C144.291,-481.76 171.08,-465.637 190.926,-453.692"/>
<polygon fill="midnightblue" stroke="midnightblue" points="192.735,-456.689 199.498,-448.534 189.125,-450.692 192.735,-456.689"/>
</g>
<!-- Node25&#45;&gt;Node13 -->
<g id="edge90" class="edge"><title>Node25&#45;&gt;Node13</title>
<path fill="none" stroke="midnightblue" d="M112.923,-492.25C121.248,-469.441 140.796,-415.879 151.563,-386.379"/>
<polygon fill="midnightblue" stroke="midnightblue" points="154.954,-387.294 155.095,-376.7 148.378,-384.894 154.954,-387.294"/>
</g>
<!-- Node26 -->
<g id="node73" class="node"><title>Node26</title>
<a xlink:href="MojRefCountInternal_8h.htm" target="_top" xlink:title="core/internal/MojRefCount\lInternal.h">
<polygon fill="white" stroke="black" points="410,-421 410,-455 550,-455 550,-421 410,-421"/>
<text text-anchor="start" x="418" y="-442" font-family="Helvetica,sans-Serif" font-size="10.00">core/internal/MojRefCount</text>
<text text-anchor="middle" x="480" y="-429" font-family="Helvetica,sans-Serif" font-size="10.00">Internal.h</text>
</a>
</g>
<!-- Node25&#45;&gt;Node26 -->
<g id="edge94" class="edge"><title>Node25&#45;&gt;Node26</title>
<path fill="none" stroke="midnightblue" d="M164.142,-493.339C226.477,-482.418 328.523,-464.539 399.7,-452.069"/>
<polygon fill="midnightblue" stroke="midnightblue" points="400.723,-455.443 409.969,-450.27 399.515,-448.548 400.723,-455.443"/>
</g>
<!-- Node26&#45;&gt;Node22 -->
<g id="edge96" class="edge"><title>Node26&#45;&gt;Node22</title>
<path fill="none" stroke="midnightblue" d="M492.56,-420.937C500.483,-410.174 510.729,-396.255 518.925,-385.12"/>
<polygon fill="midnightblue" stroke="midnightblue" points="521.866,-387.029 524.976,-376.901 516.229,-382.88 521.866,-387.029"/>
</g>
</g>
</svg>
