<?xml version="1.0" encoding="UTF-8" standalone="no"?>
<!DOCTYPE svg PUBLIC "-//W3C//DTD SVG 1.1//EN"
 "http://www.w3.org/Graphics/SVG/1.1/DTD/svg11.dtd">
<!-- Generated by graphviz version 2.26.3 (20100126.1600)
 -->
<!-- Title: MojApp.cpp Pages: 1 -->
<svg width="1845pt" height="812pt"
 viewBox="0.00 0.00 1844.60 812.00" xmlns="http://www.w3.org/2000/svg" xmlns:xlink="http://www.w3.org/1999/xlink">
<g id="graph1" class="graph" transform="scale(1 1) rotate(0) translate(4 808)">
<title>MojApp.cpp</title>
<polygon fill="white" stroke="white" points="-4,5 -4,-808 1841.6,-808 1841.6,5 -4,5"/>
<!-- Node1 -->
<g id="node1" class="node"><title>Node1</title>
<polygon fill="#bfbfbf" stroke="black" points="849.596,-782.5 849.596,-803.5 921.596,-803.5 921.596,-782.5 849.596,-782.5"/>
<text text-anchor="middle" x="885.596" y="-790.5" font-family="Helvetica,sans-Serif" font-size="10.00">MojApp.cpp</text>
</g>
<!-- Node2 -->
<g id="node3" class="node"><title>Node2</title>
<a xlink:href="MojApp_8h.htm" target="_top" xlink:title="core/MojApp.h">
<polygon fill="white" stroke="black" points="758.096,-724.5 758.096,-745.5 843.096,-745.5 843.096,-724.5 758.096,-724.5"/>
<text text-anchor="middle" x="800.596" y="-732.5" font-family="Helvetica,sans-Serif" font-size="10.00">core/MojApp.h</text>
</a>
</g>
<!-- Node1&#45;&gt;Node2 -->
<g id="edge2" class="edge"><title>Node1&#45;&gt;Node2</title>
<path fill="none" stroke="midnightblue" d="M870.006,-782.362C857.305,-773.696 839.158,-761.313 824.604,-751.382"/>
<polygon fill="midnightblue" stroke="midnightblue" points="826.321,-748.316 816.088,-745.571 822.375,-754.098 826.321,-748.316"/>
</g>
<!-- Node29 -->
<g id="node84" class="node"><title>Node29</title>
<a xlink:href="MojLogEngine_8h.htm" target="_top" xlink:title="core/MojLogEngine.h">
<polygon fill="white" stroke="black" points="1015.1,-666.5 1015.1,-687.5 1132.1,-687.5 1132.1,-666.5 1015.1,-666.5"/>
<text text-anchor="middle" x="1073.6" y="-674.5" font-family="Helvetica,sans-Serif" font-size="10.00">core/MojLogEngine.h</text>
</a>
</g>
<!-- Node1&#45;&gt;Node29 -->
<g id="edge110" class="edge"><title>Node1&#45;&gt;Node29</title>
<path fill="none" stroke="midnightblue" d="M902.946,-782.295C936.187,-761.785 1009,-716.859 1047.9,-692.857"/>
<polygon fill="midnightblue" stroke="midnightblue" points="1049.89,-695.741 1056.56,-687.512 1046.21,-689.784 1049.89,-695.741"/>
</g>
<!-- Node3 -->
<g id="node5" class="node"><title>Node3</title>
<a xlink:href="MojCoreDefs_8h.htm" target="_top" xlink:title="core/MojCoreDefs.h">
<polygon fill="white" stroke="black" points="934.096,-232.5 934.096,-253.5 1045.1,-253.5 1045.1,-232.5 934.096,-232.5"/>
<text text-anchor="middle" x="989.596" y="-240.5" font-family="Helvetica,sans-Serif" font-size="10.00">core/MojCoreDefs.h</text>
</a>
</g>
<!-- Node2&#45;&gt;Node3 -->
<g id="edge4" class="edge"><title>Node2&#45;&gt;Node3</title>
<path fill="none" stroke="midnightblue" d="M843.215,-733.466C1010.7,-726.883 1614.6,-697.689 1614.6,-619 1614.6,-619 1614.6,-619 1614.6,-366 1614.6,-314.991 1575.47,-310.115 1528.6,-290 1486.06,-271.746 1189.47,-253.738 1055.28,-246.419"/>
<polygon fill="midnightblue" stroke="midnightblue" points="1055.3,-242.915 1045.13,-245.869 1054.93,-249.905 1055.3,-242.915"/>
</g>
<!-- Node13 -->
<g id="node25" class="node"><title>Node13</title>
<a xlink:href="MojAutoPtr_8h.htm" target="_top" xlink:title="core/MojAutoPtr.h">
<polygon fill="white" stroke="black" points="834.096,-427.5 834.096,-448.5 935.096,-448.5 935.096,-427.5 834.096,-427.5"/>
<text text-anchor="middle" x="884.596" y="-435.5" font-family="Helvetica,sans-Serif" font-size="10.00">core/MojAutoPtr.h</text>
</a>
</g>
<!-- Node2&#45;&gt;Node13 -->
<g id="edge24" class="edge"><title>Node2&#45;&gt;Node13</title>
<path fill="none" stroke="midnightblue" d="M800.596,-724.444C800.596,-704.062 800.596,-657.868 800.596,-619 800.596,-619 800.596,-619 800.596,-561 800.596,-529.192 802.348,-518.725 819.596,-492 829.386,-476.833 844.781,-463.77 858.132,-454.293"/>
<polygon fill="midnightblue" stroke="midnightblue" points="860.219,-457.107 866.531,-448.597 856.29,-451.314 860.219,-457.107"/>
</g>
<!-- Node16 -->
<g id="node34" class="node"><title>Node16</title>
<a xlink:href="MojMap_8h.htm" target="_top" xlink:title="core/MojMap.h">
<polygon fill="white" stroke="black" points="838.096,-608.5 838.096,-629.5 925.096,-629.5 925.096,-608.5 838.096,-608.5"/>
<text text-anchor="middle" x="881.596" y="-616.5" font-family="Helvetica,sans-Serif" font-size="10.00">core/MojMap.h</text>
</a>
</g>
<!-- Node2&#45;&gt;Node16 -->
<g id="edge36" class="edge"><title>Node2&#45;&gt;Node16</title>
<path fill="none" stroke="midnightblue" d="M808.072,-724.295C821.754,-704.7 850.998,-662.82 868.196,-638.191"/>
<polygon fill="midnightblue" stroke="midnightblue" points="871.284,-639.882 874.139,-629.679 865.545,-635.874 871.284,-639.882"/>
</g>
<!-- Node19 -->
<g id="node44" class="node"><title>Node19</title>
<a xlink:href="MojObject_8h.htm" target="_top" xlink:title="core/MojObject.h">
<polygon fill="white" stroke="black" points="492.596,-666.5 492.596,-687.5 588.596,-687.5 588.596,-666.5 492.596,-666.5"/>
<text text-anchor="middle" x="540.596" y="-674.5" font-family="Helvetica,sans-Serif" font-size="10.00">core/MojObject.h</text>
</a>
</g>
<!-- Node2&#45;&gt;Node19 -->
<g id="edge50" class="edge"><title>Node2&#45;&gt;Node19</title>
<path fill="none" stroke="midnightblue" d="M757.954,-725.487C714.376,-715.766 646.424,-700.608 598.108,-689.83"/>
<polygon fill="midnightblue" stroke="midnightblue" points="598.634,-686.361 588.112,-687.6 597.11,-693.193 598.634,-686.361"/>
</g>
<!-- Node24 -->
<g id="node60" class="node"><title>Node24</title>
<a xlink:href="MojString_8h.htm" target="_top" xlink:title="core/MojString.h">
<polygon fill="white" stroke="black" points="549.596,-608.5 549.596,-629.5 643.596,-629.5 643.596,-608.5 549.596,-608.5"/>
<text text-anchor="middle" x="596.596" y="-616.5" font-family="Helvetica,sans-Serif" font-size="10.00">core/MojString.h</text>
</a>
</g>
<!-- Node2&#45;&gt;Node24 -->
<g id="edge106" class="edge"><title>Node2&#45;&gt;Node24</title>
<path fill="none" stroke="midnightblue" d="M781.77,-724.295C745.548,-703.698 666.027,-658.48 623.951,-634.555"/>
<polygon fill="midnightblue" stroke="midnightblue" points="625.505,-631.412 615.083,-629.512 622.045,-637.497 625.505,-631.412"/>
</g>
<!-- Node25 -->
<g id="node66" class="node"><title>Node25</title>
<a xlink:href="MojVector_8h.htm" target="_top" xlink:title="core/MojVector.h">
<polygon fill="white" stroke="black" points="220.096,-550.5 220.096,-571.5 317.096,-571.5 317.096,-550.5 220.096,-550.5"/>
<text text-anchor="middle" x="268.596" y="-558.5" font-family="Helvetica,sans-Serif" font-size="10.00">core/MojVector.h</text>
</a>
</g>
<!-- Node2&#45;&gt;Node25 -->
<g id="edge108" class="edge"><title>Node2&#45;&gt;Node25</title>
<path fill="none" stroke="midnightblue" d="M757.971,-733.383C696.066,-729.993 578.332,-719.6 483.596,-688 432.283,-670.884 423.196,-657.468 376.596,-630 347.413,-612.798 314.743,-591.652 293.055,-577.337"/>
<polygon fill="midnightblue" stroke="midnightblue" points="294.744,-574.258 284.474,-571.652 290.877,-580.093 294.744,-574.258"/>
</g>
<!-- Node4 -->
<g id="node7" class="node"><title>Node4</title>
<a xlink:href="MojConfig_8h.htm" target="_top" xlink:title="core/internal/MojConfig.h">
<polygon fill="white" stroke="black" points="1145.1,-174.5 1145.1,-195.5 1280.1,-195.5 1280.1,-174.5 1145.1,-174.5"/>
<text text-anchor="middle" x="1212.6" y="-182.5" font-family="Helvetica,sans-Serif" font-size="10.00">core/internal/MojConfig.h</text>
</a>
</g>
<!-- Node3&#45;&gt;Node4 -->
<g id="edge6" class="edge"><title>Node3&#45;&gt;Node4</title>
<path fill="none" stroke="midnightblue" d="M1029.98,-232.497C1067.12,-222.836 1122.33,-208.477 1162.32,-198.077"/>
<polygon fill="midnightblue" stroke="midnightblue" points="1163.34,-201.428 1172.14,-195.523 1161.58,-194.653 1163.34,-201.428"/>
</g>
<!-- Node5 -->
<g id="node9" class="node"><title>Node5</title>
<a xlink:href="MojNew_8h.htm" target="_top" xlink:title="core/internal/MojNew.h">
<polygon fill="white" stroke="black" points="807.096,-174.5 807.096,-195.5 932.096,-195.5 932.096,-174.5 807.096,-174.5"/>
<text text-anchor="middle" x="869.596" y="-182.5" font-family="Helvetica,sans-Serif" font-size="10.00">core/internal/MojNew.h</text>
</a>
</g>
<!-- Node3&#45;&gt;Node5 -->
<g id="edge8" class="edge"><title>Node3&#45;&gt;Node5</title>
<path fill="none" stroke="midnightblue" d="M967.865,-232.497C949.123,-223.438 921.83,-210.246 900.761,-200.063"/>
<polygon fill="midnightblue" stroke="midnightblue" points="902.098,-196.822 891.571,-195.621 899.052,-203.124 902.098,-196.822"/>
</g>
<!-- Node7 -->
<g id="node13" class="node"><title>Node7</title>
<a xlink:href="MojErr_8h.htm" target="_top" xlink:title="core/MojErr.h">
<polygon fill="white" stroke="black" points="949.596,-174.5 949.596,-195.5 1029.6,-195.5 1029.6,-174.5 949.596,-174.5"/>
<text text-anchor="middle" x="989.596" y="-182.5" font-family="Helvetica,sans-Serif" font-size="10.00">core/MojErr.h</text>
</a>
</g>
<!-- Node3&#45;&gt;Node7 -->
<g id="edge12" class="edge"><title>Node3&#45;&gt;Node7</title>
<path fill="none" stroke="midnightblue" d="M989.596,-232.362C989.596,-224.922 989.596,-214.743 989.596,-205.728"/>
<polygon fill="midnightblue" stroke="midnightblue" points="993.097,-205.571 989.596,-195.571 986.097,-205.571 993.097,-205.571"/>
</g>
<!-- Node11 -->
<g id="node21" class="node"><title>Node11</title>
<a xlink:href="MojOs_8h.htm" target="_top" xlink:title="core/MojOs.h">
<polygon fill="white" stroke="black" points="1047.6,-174.5 1047.6,-195.5 1127.6,-195.5 1127.6,-174.5 1047.6,-174.5"/>
<text text-anchor="middle" x="1087.6" y="-182.5" font-family="Helvetica,sans-Serif" font-size="10.00">core/MojOs.h</text>
</a>
</g>
<!-- Node3&#45;&gt;Node11 -->
<g id="edge20" class="edge"><title>Node3&#45;&gt;Node11</title>
<path fill="none" stroke="midnightblue" d="M1007.57,-232.362C1022.49,-223.532 1043.93,-210.844 1060.86,-200.822"/>
<polygon fill="midnightblue" stroke="midnightblue" points="1062.91,-203.676 1069.74,-195.571 1059.35,-197.652 1062.91,-203.676"/>
</g>
<!-- Node6 -->
<g id="node11" class="node"><title>Node6</title>
<polygon fill="white" stroke="#bfbfbf" points="851.596,-116.5 851.596,-137.5 887.596,-137.5 887.596,-116.5 851.596,-116.5"/>
<text text-anchor="middle" x="869.596" y="-124.5" font-family="Helvetica,sans-Serif" font-size="10.00">new</text>
</g>
<!-- Node5&#45;&gt;Node6 -->
<g id="edge10" class="edge"><title>Node5&#45;&gt;Node6</title>
<path fill="none" stroke="midnightblue" d="M869.596,-174.362C869.596,-166.922 869.596,-156.743 869.596,-147.728"/>
<polygon fill="midnightblue" stroke="midnightblue" points="873.097,-147.571 869.596,-137.571 866.097,-147.571 873.097,-147.571"/>
</g>
<!-- Node8 -->
<g id="node15" class="node"><title>Node8</title>
<a xlink:href="MojLog_8h.htm" target="_top" xlink:title="core/MojLog.h">
<polygon fill="white" stroke="black" points="906.596,-116.5 906.596,-137.5 990.596,-137.5 990.596,-116.5 906.596,-116.5"/>
<text text-anchor="middle" x="948.596" y="-124.5" font-family="Helvetica,sans-Serif" font-size="10.00">core/MojLog.h</text>
</a>
</g>
<!-- Node7&#45;&gt;Node8 -->
<g id="edge14" class="edge"><title>Node7&#45;&gt;Node8</title>
<path fill="none" stroke="midnightblue" d="M982.076,-174.362C976.47,-166.431 968.664,-155.389 962,-145.961"/>
<polygon fill="midnightblue" stroke="midnightblue" points="964.699,-143.716 956.069,-137.571 958.983,-147.757 964.699,-143.716"/>
</g>
<!-- Node9 -->
<g id="node17" class="node"><title>Node9</title>
<a xlink:href="MojListEntry_8h.htm" target="_top" xlink:title="core/MojListEntry.h">
<polygon fill="white" stroke="black" points="851.096,-58.5 851.096,-79.5 958.096,-79.5 958.096,-58.5 851.096,-58.5"/>
<text text-anchor="middle" x="904.596" y="-66.5" font-family="Helvetica,sans-Serif" font-size="10.00">core/MojListEntry.h</text>
</a>
</g>
<!-- Node8&#45;&gt;Node9 -->
<g id="edge16" class="edge"><title>Node8&#45;&gt;Node9</title>
<path fill="none" stroke="midnightblue" d="M940.526,-116.362C934.448,-108.35 925.96,-97.1605 918.76,-87.6696"/>
<polygon fill="midnightblue" stroke="midnightblue" points="921.448,-85.4222 912.616,-79.5707 915.871,-89.653 921.448,-85.4222"/>
</g>
<!-- Node10 -->
<g id="node19" class="node"><title>Node10</title>
<a xlink:href="MojNoCopy_8h.htm" target="_top" xlink:title="core/MojNoCopy.h">
<polygon fill="white" stroke="black" points="789.596,-0.5 789.596,-21.5 893.596,-21.5 893.596,-0.5 789.596,-0.5"/>
<text text-anchor="middle" x="841.596" y="-8.5" font-family="Helvetica,sans-Serif" font-size="10.00">core/MojNoCopy.h</text>
</a>
</g>
<!-- Node9&#45;&gt;Node10 -->
<g id="edge18" class="edge"><title>Node9&#45;&gt;Node10</title>
<path fill="none" stroke="midnightblue" d="M893.041,-58.3619C883.983,-50.0226 871.187,-38.2418 860.623,-28.5162"/>
<polygon fill="midnightblue" stroke="midnightblue" points="862.806,-25.7688 853.078,-21.5707 858.065,-30.9187 862.806,-25.7688"/>
</g>
<!-- Node12 -->
<g id="node23" class="node"><title>Node12</title>
<a xlink:href="MojOsInternal_8h.htm" target="_top" xlink:title="core/internal/MojOsInternal.h">
<polygon fill="white" stroke="black" points="1010.6,-116.5 1010.6,-137.5 1164.6,-137.5 1164.6,-116.5 1010.6,-116.5"/>
<text text-anchor="middle" x="1087.6" y="-124.5" font-family="Helvetica,sans-Serif" font-size="10.00">core/internal/MojOsInternal.h</text>
</a>
</g>
<!-- Node11&#45;&gt;Node12 -->
<g id="edge22" class="edge"><title>Node11&#45;&gt;Node12</title>
<path fill="none" stroke="midnightblue" d="M1087.6,-174.362C1087.6,-166.922 1087.6,-156.743 1087.6,-147.728"/>
<polygon fill="midnightblue" stroke="midnightblue" points="1091.1,-147.571 1087.6,-137.571 1084.1,-147.571 1091.1,-147.571"/>
</g>
<!-- Node13&#45;&gt;Node3 -->
<g id="edge26" class="edge"><title>Node13&#45;&gt;Node3</title>
<path fill="none" stroke="midnightblue" d="M906.812,-427.427C923.618,-418.273 945.902,-403.443 958.596,-384 983.031,-346.575 988.466,-292.87 989.515,-263.727"/>
<polygon fill="midnightblue" stroke="midnightblue" points="993.019,-263.589 989.735,-253.516 986.02,-263.438 993.019,-263.589"/>
</g>
<!-- Node13&#45;&gt;Node10 -->
<g id="edge32" class="edge"><title>Node13&#45;&gt;Node10</title>
<path fill="none" stroke="midnightblue" d="M862.381,-427.427C845.574,-418.273 823.291,-403.443 810.596,-384 775.519,-330.274 779.596,-307.163 779.596,-243 779.596,-243 779.596,-243 779.596,-127 779.596,-88.6979 806.213,-50.7886 824.568,-29.2006"/>
<polygon fill="midnightblue" stroke="midnightblue" points="827.367,-31.318 831.358,-21.5037 822.118,-26.6868 827.367,-31.318"/>
</g>
<!-- Node14 -->
<g id="node28" class="node"><title>Node14</title>
<a xlink:href="MojAtomicInt_8h.htm" target="_top" xlink:title="core/MojAtomicInt.h">
<polygon fill="white" stroke="black" points="1005.6,-355.5 1005.6,-376.5 1115.6,-376.5 1115.6,-355.5 1005.6,-355.5"/>
<text text-anchor="middle" x="1060.6" y="-363.5" font-family="Helvetica,sans-Serif" font-size="10.00">core/MojAtomicInt.h</text>
</a>
</g>
<!-- Node13&#45;&gt;Node14 -->
<g id="edge28" class="edge"><title>Node13&#45;&gt;Node14</title>
<path fill="none" stroke="midnightblue" d="M910.566,-427.376C940.939,-414.951 991.371,-394.319 1025.28,-380.446"/>
<polygon fill="midnightblue" stroke="midnightblue" points="1026.88,-383.576 1034.81,-376.55 1024.23,-377.097 1026.88,-383.576"/>
</g>
<!-- Node15 -->
<g id="node32" class="node"><title>Node15</title>
<a xlink:href="MojAutoPtrInternal_8h.htm" target="_top" xlink:title="core/internal/MojAutoPtr\lInternal.h">
<polygon fill="white" stroke="black" points="819.096,-349 819.096,-383 950.096,-383 950.096,-349 819.096,-349"/>
<text text-anchor="start" x="827.096" y="-370" font-family="Helvetica,sans-Serif" font-size="10.00">core/internal/MojAutoPtr</text>
<text text-anchor="middle" x="884.596" y="-357" font-family="Helvetica,sans-Serif" font-size="10.00">Internal.h</text>
</a>
</g>
<!-- Node13&#45;&gt;Node15 -->
<g id="edge34" class="edge"><title>Node13&#45;&gt;Node15</title>
<path fill="none" stroke="midnightblue" d="M884.596,-427.376C884.596,-418.451 884.596,-405.293 884.596,-393.446"/>
<polygon fill="midnightblue" stroke="midnightblue" points="888.097,-393.094 884.596,-383.094 881.097,-393.094 888.097,-393.094"/>
</g>
<!-- Node14&#45;&gt;Node3 -->
<g id="edge30" class="edge"><title>Node14&#45;&gt;Node3</title>
<path fill="none" stroke="midnightblue" d="M1054.3,-355.085C1042.27,-334.244 1015.88,-288.537 1000.79,-262.384"/>
<polygon fill="midnightblue" stroke="midnightblue" points="1003.81,-260.626 995.782,-253.715 997.75,-264.126 1003.81,-260.626"/>
</g>
<!-- Node16&#45;&gt;Node3 -->
<g id="edge38" class="edge"><title>Node16&#45;&gt;Node3</title>
<path fill="none" stroke="midnightblue" d="M925.216,-617.833C1037.42,-614.42 1333.72,-602.686 1426.6,-572 1482.11,-553.659 1538.6,-561.466 1538.6,-503 1538.6,-503 1538.6,-503 1538.6,-366 1538.6,-312.62 1494.89,-310.488 1445.6,-290 1376.72,-261.37 1164.21,-249.468 1055.35,-245.147"/>
<polygon fill="midnightblue" stroke="midnightblue" points="1055.28,-241.641 1045.15,-244.752 1055.01,-248.636 1055.28,-241.641"/>
</g>
<!-- Node17 -->
<g id="node37" class="node"><title>Node17</title>
<a xlink:href="MojComp_8h.htm" target="_top" xlink:title="core/MojComp.h">
<polygon fill="white" stroke="black" points="610.596,-290.5 610.596,-311.5 704.596,-311.5 704.596,-290.5 610.596,-290.5"/>
<text text-anchor="middle" x="657.596" y="-298.5" font-family="Helvetica,sans-Serif" font-size="10.00">core/MojComp.h</text>
</a>
</g>
<!-- Node16&#45;&gt;Node17 -->
<g id="edge40" class="edge"><title>Node16&#45;&gt;Node17</title>
<path fill="none" stroke="midnightblue" d="M874.882,-608.416C851.443,-571.637 770.652,-446.266 696.596,-348 689.322,-338.347 680.792,-327.971 673.568,-319.43"/>
<polygon fill="midnightblue" stroke="midnightblue" points="676.031,-316.924 666.874,-311.595 670.709,-321.472 676.031,-316.924"/>
</g>
<!-- Node18 -->
<g id="node40" class="node"><title>Node18</title>
<a xlink:href="MojRbTreeBase_8h.htm" target="_top" xlink:title="core/internal/MojRbTreeBase.h">
<polygon fill="white" stroke="black" points="828.596,-492.5 828.596,-513.5 992.596,-513.5 992.596,-492.5 828.596,-492.5"/>
<text text-anchor="middle" x="910.596" y="-500.5" font-family="Helvetica,sans-Serif" font-size="10.00">core/internal/MojRbTreeBase.h</text>
</a>
</g>
<!-- Node16&#45;&gt;Node18 -->
<g id="edge44" class="edge"><title>Node16&#45;&gt;Node18</title>
<path fill="none" stroke="midnightblue" d="M884.273,-608.295C889.085,-589.045 899.274,-548.289 905.469,-523.509"/>
<polygon fill="midnightblue" stroke="midnightblue" points="908.897,-524.23 907.927,-513.679 902.106,-522.532 908.897,-524.23"/>
</g>
<!-- Node17&#45;&gt;Node3 -->
<g id="edge42" class="edge"><title>Node17&#45;&gt;Node3</title>
<path fill="none" stroke="midnightblue" d="M704.811,-292.752C762.163,-282.732 859.24,-265.773 923.876,-254.481"/>
<polygon fill="midnightblue" stroke="midnightblue" points="924.711,-257.888 933.96,-252.72 923.506,-250.993 924.711,-257.888"/>
</g>
<!-- Node18&#45;&gt;Node3 -->
<g id="edge46" class="edge"><title>Node18&#45;&gt;Node3</title>
<path fill="none" stroke="midnightblue" d="M955.781,-492.436C1007.06,-477.762 1088.28,-445.743 1124.6,-384 1155.99,-330.622 1073.79,-281.609 1024.16,-257.924"/>
<polygon fill="midnightblue" stroke="midnightblue" points="1025.56,-254.711 1015.01,-253.665 1022.6,-261.058 1025.56,-254.711"/>
</g>
<!-- Node18&#45;&gt;Node13 -->
<g id="edge48" class="edge"><title>Node18&#45;&gt;Node13</title>
<path fill="none" stroke="midnightblue" d="M906.303,-492.267C902.593,-482.991 897.131,-469.336 892.615,-458.045"/>
<polygon fill="midnightblue" stroke="midnightblue" points="895.774,-456.519 888.81,-448.534 889.274,-459.118 895.774,-456.519"/>
</g>
<!-- Node19&#45;&gt;Node3 -->
<g id="edge52" class="edge"><title>Node19&#45;&gt;Node3</title>
<path fill="none" stroke="midnightblue" d="M492.175,-671.618C360.48,-656.331 5.59648,-610.54 5.59648,-561 5.59648,-561 5.59648,-561 5.59648,-366 5.59648,-332.761 -43.5386,-339.422 157.596,-290 302.422,-254.414 753.577,-245.663 923.745,-243.604"/>
<polygon fill="midnightblue" stroke="midnightblue" points="923.859,-247.103 933.817,-243.486 923.777,-240.104 923.859,-247.103"/>
</g>
<!-- Node19&#45;&gt;Node16 -->
<g id="edge70" class="edge"><title>Node19&#45;&gt;Node16</title>
<path fill="none" stroke="midnightblue" d="M588.73,-668.813C651.814,-658.083 762.134,-639.319 827.873,-628.138"/>
<polygon fill="midnightblue" stroke="midnightblue" points="828.755,-631.538 838.027,-626.411 827.582,-624.637 828.755,-631.538"/>
</g>
<!-- Node20 -->
<g id="node47" class="node"><title>Node20</title>
<a xlink:href="MojDecimal_8h.htm" target="_top" xlink:title="core/MojDecimal.h">
<polygon fill="white" stroke="black" points="334.596,-550.5 334.596,-571.5 438.596,-571.5 438.596,-550.5 334.596,-550.5"/>
<text text-anchor="middle" x="386.596" y="-558.5" font-family="Helvetica,sans-Serif" font-size="10.00">core/MojDecimal.h</text>
</a>
</g>
<!-- Node19&#45;&gt;Node20 -->
<g id="edge54" class="edge"><title>Node19&#45;&gt;Node20</title>
<path fill="none" stroke="midnightblue" d="M526.385,-666.295C499.568,-646.096 441.314,-602.216 409.117,-577.963"/>
<polygon fill="midnightblue" stroke="midnightblue" points="410.867,-574.9 400.774,-571.679 406.656,-580.491 410.867,-574.9"/>
</g>
<!-- Node19&#45;&gt;Node24 -->
<g id="edge72" class="edge"><title>Node19&#45;&gt;Node24</title>
<path fill="none" stroke="midnightblue" d="M550.868,-666.362C558.841,-658.104 570.071,-646.472 579.408,-636.803"/>
<polygon fill="midnightblue" stroke="midnightblue" points="581.962,-639.196 586.39,-629.571 576.926,-634.334 581.962,-639.196"/>
</g>
<!-- Node19&#45;&gt;Node25 -->
<g id="edge104" class="edge"><title>Node19&#45;&gt;Node25</title>
<path fill="none" stroke="midnightblue" d="M515.495,-666.295C466.489,-645.395 358.039,-599.145 302.628,-575.513"/>
<polygon fill="midnightblue" stroke="midnightblue" points="303.816,-572.215 293.245,-571.512 301.07,-578.654 303.816,-572.215"/>
</g>
<!-- Node20&#45;&gt;Node3 -->
<g id="edge56" class="edge"><title>Node20&#45;&gt;Node3</title>
<path fill="none" stroke="midnightblue" d="M378.066,-550.498C364.044,-532.482 336.674,-493.946 326.596,-456 306.176,-379.105 327.345,-334.053 393.596,-290 436.907,-261.201 777.766,-248.687 923.681,-244.611"/>
<polygon fill="midnightblue" stroke="midnightblue" points="923.944,-248.105 933.844,-244.332 923.751,-241.108 923.944,-248.105"/>
</g>
<!-- Node21 -->
<g id="node50" class="node"><title>Node21</title>
<a xlink:href="MojHasher_8h.htm" target="_top" xlink:title="core/MojHasher.h">
<polygon fill="white" stroke="black" points="374.096,-492.5 374.096,-513.5 475.096,-513.5 475.096,-492.5 374.096,-492.5"/>
<text text-anchor="middle" x="424.596" y="-500.5" font-family="Helvetica,sans-Serif" font-size="10.00">core/MojHasher.h</text>
</a>
</g>
<!-- Node20&#45;&gt;Node21 -->
<g id="edge58" class="edge"><title>Node20&#45;&gt;Node21</title>
<path fill="none" stroke="midnightblue" d="M393.566,-550.362C398.762,-542.431 405.997,-531.389 412.174,-521.961"/>
<polygon fill="midnightblue" stroke="midnightblue" points="415.118,-523.853 417.671,-513.571 409.263,-520.017 415.118,-523.853"/>
</g>
<!-- Node21&#45;&gt;Node3 -->
<g id="edge60" class="edge"><title>Node21&#45;&gt;Node3</title>
<path fill="none" stroke="midnightblue" d="M427.149,-492.355C436.406,-456.364 471.886,-338.759 550.596,-290 581.59,-270.8 808.992,-254.179 923.743,-246.908"/>
<polygon fill="midnightblue" stroke="midnightblue" points="924.056,-250.396 933.817,-246.276 923.617,-243.409 924.056,-250.396"/>
</g>
<!-- Node22 -->
<g id="node53" class="node"><title>Node22</title>
<a xlink:href="MojUtil_8h.htm" target="_top" xlink:title="core/MojUtil.h">
<polygon fill="white" stroke="black" points="335.096,-427.5 335.096,-448.5 416.096,-448.5 416.096,-427.5 335.096,-427.5"/>
<text text-anchor="middle" x="375.596" y="-435.5" font-family="Helvetica,sans-Serif" font-size="10.00">core/MojUtil.h</text>
</a>
</g>
<!-- Node21&#45;&gt;Node22 -->
<g id="edge62" class="edge"><title>Node21&#45;&gt;Node22</title>
<path fill="none" stroke="midnightblue" d="M416.505,-492.267C409.227,-482.612 398.374,-468.215 389.675,-456.675"/>
<polygon fill="midnightblue" stroke="midnightblue" points="392.352,-454.412 383.537,-448.534 386.762,-458.626 392.352,-454.412"/>
</g>
<!-- Node22&#45;&gt;Node3 -->
<g id="edge64" class="edge"><title>Node22&#45;&gt;Node3</title>
<path fill="none" stroke="midnightblue" d="M374.756,-427.283C373.235,-399.537 373.459,-325.081 415.596,-290 453.923,-258.092 781.13,-247.372 923.676,-244.195"/>
<polygon fill="midnightblue" stroke="midnightblue" points="924.101,-247.686 934.023,-243.97 923.949,-240.688 924.101,-247.686"/>
</g>
<!-- Node23 -->
<g id="node56" class="node"><title>Node23</title>
<a xlink:href="MojUtilInternal_8h.htm" target="_top" xlink:title="core/internal/MojUtilInternal.h">
<polygon fill="white" stroke="black" points="533.096,-355.5 533.096,-376.5 688.096,-376.5 688.096,-355.5 533.096,-355.5"/>
<text text-anchor="middle" x="610.596" y="-363.5" font-family="Helvetica,sans-Serif" font-size="10.00">core/internal/MojUtilInternal.h</text>
</a>
</g>
<!-- Node22&#45;&gt;Node23 -->
<g id="edge66" class="edge"><title>Node22&#45;&gt;Node23</title>
<path fill="none" stroke="midnightblue" d="M410.019,-427.453C451.471,-414.753 521.164,-393.401 566.513,-379.506"/>
<polygon fill="midnightblue" stroke="midnightblue" points="567.546,-382.851 576.082,-376.575 565.495,-376.158 567.546,-382.851"/>
</g>
<!-- Node23&#45;&gt;Node17 -->
<g id="edge68" class="edge"><title>Node23&#45;&gt;Node17</title>
<path fill="none" stroke="midnightblue" d="M618.358,-355.267C625.339,-345.612 635.749,-331.215 644.093,-319.675"/>
<polygon fill="midnightblue" stroke="midnightblue" points="646.957,-321.688 649.98,-311.534 641.284,-317.586 646.957,-321.688"/>
</g>
<!-- Node24&#45;&gt;Node3 -->
<g id="edge74" class="edge"><title>Node24&#45;&gt;Node3</title>
<path fill="none" stroke="midnightblue" d="M604.263,-608.242C636.335,-563.404 760.413,-391.7 810.596,-348 856.058,-308.412 918.559,-275.718 956.405,-257.818"/>
<polygon fill="midnightblue" stroke="midnightblue" points="957.887,-260.989 965.471,-253.591 954.928,-254.645 957.887,-260.989"/>
</g>
<!-- Node24&#45;&gt;Node13 -->
<g id="edge76" class="edge"><title>Node24&#45;&gt;Node13</title>
<path fill="none" stroke="midnightblue" d="M617.703,-608.427C635.211,-599.398 660.554,-585.729 681.596,-572 730.732,-539.942 737.438,-524.022 786.596,-492 808.558,-477.695 834.592,-463.469 854.305,-453.212"/>
<polygon fill="midnightblue" stroke="midnightblue" points="856.142,-456.203 863.429,-448.513 852.937,-449.98 856.142,-456.203"/>
</g>
<!-- Node24&#45;&gt;Node17 -->
<g id="edge78" class="edge"><title>Node24&#45;&gt;Node17</title>
<path fill="none" stroke="midnightblue" d="M588.053,-608.321C558.18,-569.619 463.46,-434.447 524.596,-348 533.919,-334.818 568.924,-322.746 600.68,-314.138"/>
<polygon fill="midnightblue" stroke="midnightblue" points="601.619,-317.51 610.399,-311.58 599.838,-310.74 601.619,-317.51"/>
</g>
<!-- Node24&#45;&gt;Node21 -->
<g id="edge80" class="edge"><title>Node24&#45;&gt;Node21</title>
<path fill="none" stroke="midnightblue" d="M564.283,-608.428C542.354,-600.381 513.327,-587.971 490.596,-572 470.414,-557.82 451.396,-536.813 439.007,-521.706"/>
<polygon fill="midnightblue" stroke="midnightblue" points="441.497,-519.215 432.52,-513.589 436.029,-523.586 441.497,-519.215"/>
</g>
<!-- Node24&#45;&gt;Node25 -->
<g id="edge82" class="edge"><title>Node24&#45;&gt;Node25</title>
<path fill="none" stroke="midnightblue" d="M549.549,-611.118C497.521,-602.34 410.945,-587.55 327.32,-572.295"/>
<polygon fill="midnightblue" stroke="midnightblue" points="327.869,-568.838 317.403,-570.482 326.61,-575.724 327.869,-568.838"/>
</g>
<!-- Node25&#45;&gt;Node3 -->
<g id="edge84" class="edge"><title>Node25&#45;&gt;Node3</title>
<path fill="none" stroke="midnightblue" d="M219.629,-555.74C165.96,-548.985 84.5435,-535.498 62.5965,-514 37.7239,-489.636 43.5965,-472.817 43.5965,-438 43.5965,-438 43.5965,-438 43.5965,-366 43.5965,-277.09 709.191,-250.795 923.777,-244.627"/>
<polygon fill="midnightblue" stroke="midnightblue" points="924.054,-248.121 933.952,-244.34 923.857,-241.124 924.054,-248.121"/>
</g>
<!-- Node25&#45;&gt;Node17 -->
<g id="edge86" class="edge"><title>Node25&#45;&gt;Node17</title>
<path fill="none" stroke="midnightblue" d="M270.192,-550.309C274.562,-524.559 289.007,-458.395 326.596,-420 400.956,-344.046 527.221,-316.365 600.43,-306.426"/>
<polygon fill="midnightblue" stroke="midnightblue" points="600.928,-309.891 610.397,-305.138 600.031,-302.948 600.928,-309.891"/>
</g>
<!-- Node25&#45;&gt;Node22 -->
<g id="edge100" class="edge"><title>Node25&#45;&gt;Node22</title>
<path fill="none" stroke="midnightblue" d="M278.092,-550.085C296.46,-528.97 337.033,-482.33 359.623,-456.362"/>
<polygon fill="midnightblue" stroke="midnightblue" points="362.352,-458.557 366.275,-448.715 357.071,-453.963 362.352,-458.557"/>
</g>
<!-- Node26 -->
<g id="node70" class="node"><title>Node26</title>
<a xlink:href="MojRefCount_8h.htm" target="_top" xlink:title="core/MojRefCount.h">
<polygon fill="white" stroke="black" points="548.596,-492.5 548.596,-513.5 658.596,-513.5 658.596,-492.5 548.596,-492.5"/>
<text text-anchor="middle" x="603.596" y="-500.5" font-family="Helvetica,sans-Serif" font-size="10.00">core/MojRefCount.h</text>
</a>
</g>
<!-- Node25&#45;&gt;Node26 -->
<g id="edge88" class="edge"><title>Node25&#45;&gt;Node26</title>
<path fill="none" stroke="midnightblue" d="M317.4,-551.505C320.172,-550.989 322.919,-550.485 325.596,-550 398.26,-536.848 481.824,-522.875 538.208,-513.616"/>
<polygon fill="midnightblue" stroke="midnightblue" points="539.109,-517.015 548.411,-511.943 537.976,-510.107 539.109,-517.015"/>
</g>
<!-- Node28 -->
<g id="node79" class="node"><title>Node28</title>
<a xlink:href="MojVectorInternal_8h.htm" target="_top" xlink:title="core/internal/MojVectorInternal.h">
<polygon fill="white" stroke="black" points="71.0965,-492.5 71.0965,-513.5 242.096,-513.5 242.096,-492.5 71.0965,-492.5"/>
<text text-anchor="middle" x="156.596" y="-500.5" font-family="Helvetica,sans-Serif" font-size="10.00">core/internal/MojVectorInternal.h</text>
</a>
</g>
<!-- Node25&#45;&gt;Node28 -->
<g id="edge102" class="edge"><title>Node25&#45;&gt;Node28</title>
<path fill="none" stroke="midnightblue" d="M248.314,-550.497C230.979,-541.519 205.806,-528.484 186.216,-518.339"/>
<polygon fill="midnightblue" stroke="midnightblue" points="187.596,-515.112 177.106,-513.621 184.377,-521.328 187.596,-515.112"/>
</g>
<!-- Node26&#45;&gt;Node3 -->
<g id="edge90" class="edge"><title>Node26&#45;&gt;Node3</title>
<path fill="none" stroke="midnightblue" d="M581.176,-492.397C566.759,-484.408 548.866,-472.078 538.596,-456 521.049,-428.526 527.722,-416.449 524.596,-384 523.062,-368.074 517.456,-362.318 524.596,-348 543.717,-309.659 561.857,-306.014 601.596,-290 658.525,-267.06 828.755,-253.071 923.724,-246.838"/>
<polygon fill="midnightblue" stroke="midnightblue" points="924.043,-250.325 933.796,-246.188 923.592,-243.339 924.043,-250.325"/>
</g>
<!-- Node26&#45;&gt;Node13 -->
<g id="edge94" class="edge"><title>Node26&#45;&gt;Node13</title>
<path fill="none" stroke="midnightblue" d="M652.484,-492.466C695.102,-483.186 758.541,-469.137 813.596,-456 820.162,-454.433 827.057,-452.743 833.863,-451.047"/>
<polygon fill="midnightblue" stroke="midnightblue" points="834.874,-454.401 843.721,-448.572 833.17,-447.612 834.874,-454.401"/>
</g>
<!-- Node26&#45;&gt;Node14 -->
<g id="edge92" class="edge"><title>Node26&#45;&gt;Node14</title>
<path fill="none" stroke="midnightblue" d="M628.53,-492.442C669.222,-475.493 752.692,-441.9 825.596,-420 882.302,-402.965 948.083,-388.27 995.601,-378.529"/>
<polygon fill="midnightblue" stroke="midnightblue" points="996.352,-381.949 1005.45,-376.527 994.958,-375.089 996.352,-381.949"/>
</g>
<!-- Node27 -->
<g id="node75" class="node"><title>Node27</title>
<a xlink:href="MojRefCountInternal_8h.htm" target="_top" xlink:title="core/internal/MojRefCount\lInternal.h">
<polygon fill="white" stroke="black" points="547.596,-421 547.596,-455 687.596,-455 687.596,-421 547.596,-421"/>
<text text-anchor="start" x="555.596" y="-442" font-family="Helvetica,sans-Serif" font-size="10.00">core/internal/MojRefCount</text>
<text text-anchor="middle" x="617.596" y="-429" font-family="Helvetica,sans-Serif" font-size="10.00">Internal.h</text>
</a>
</g>
<!-- Node26&#45;&gt;Node27 -->
<g id="edge96" class="edge"><title>Node26&#45;&gt;Node27</title>
<path fill="none" stroke="midnightblue" d="M605.908,-492.267C607.505,-484.852 609.705,-474.64 611.765,-465.074"/>
<polygon fill="midnightblue" stroke="midnightblue" points="615.227,-465.623 613.911,-455.11 608.384,-464.149 615.227,-465.623"/>
</g>
<!-- Node27&#45;&gt;Node23 -->
<g id="edge98" class="edge"><title>Node27&#45;&gt;Node23</title>
<path fill="none" stroke="midnightblue" d="M615.938,-420.937C614.953,-410.814 613.698,-397.898 612.651,-387.133"/>
<polygon fill="midnightblue" stroke="midnightblue" points="616.108,-386.515 611.656,-376.901 609.14,-387.193 616.108,-386.515"/>
</g>
<!-- Node29&#45;&gt;Node3 -->
<g id="edge112" class="edge"><title>Node29&#45;&gt;Node3</title>
<path fill="none" stroke="midnightblue" d="M1132.28,-675.743C1264.97,-671.311 1576.6,-651.291 1576.6,-561 1576.6,-561 1576.6,-561 1576.6,-366 1576.6,-313.985 1535.5,-310.277 1487.6,-290 1411.42,-257.755 1172.85,-247.474 1055.76,-244.323"/>
<polygon fill="midnightblue" stroke="midnightblue" points="1055.58,-240.818 1045.49,-244.057 1055.4,-247.815 1055.58,-240.818"/>
</g>
<!-- Node29&#45;&gt;Node16 -->
<g id="edge120" class="edge"><title>Node29&#45;&gt;Node16</title>
<path fill="none" stroke="midnightblue" d="M1038.83,-666.497C1007.25,-656.959 960.518,-642.841 926.204,-632.475"/>
<polygon fill="midnightblue" stroke="midnightblue" points="927.016,-629.064 916.431,-629.523 924.992,-635.765 927.016,-629.064"/>
</g>
<!-- Node29&#45;&gt;Node24 -->
<g id="edge132" class="edge"><title>Node29&#45;&gt;Node24</title>
<path fill="none" stroke="midnightblue" d="M1014.63,-669.83C922.344,-658.609 744.94,-637.038 653.772,-625.952"/>
<polygon fill="midnightblue" stroke="midnightblue" points="653.975,-622.451 643.625,-624.718 653.13,-629.4 653.975,-622.451"/>
</g>
<!-- Node30 -->
<g id="node87" class="node"><title>Node30</title>
<a xlink:href="MojList_8h.htm" target="_top" xlink:title="core/MojList.h">
<polygon fill="white" stroke="black" points="1642.1,-608.5 1642.1,-629.5 1725.1,-629.5 1725.1,-608.5 1642.1,-608.5"/>
<text text-anchor="middle" x="1683.6" y="-616.5" font-family="Helvetica,sans-Serif" font-size="10.00">core/MojList.h</text>
</a>
</g>
<!-- Node29&#45;&gt;Node30 -->
<g id="edge114" class="edge"><title>Node29&#45;&gt;Node30</title>
<path fill="none" stroke="midnightblue" d="M1132.18,-672.194C1228.09,-664.21 1424.54,-647.365 1590.6,-630 1604,-628.599 1618.47,-626.952 1631.91,-625.365"/>
<polygon fill="midnightblue" stroke="midnightblue" points="1632.44,-628.827 1641.96,-624.169 1631.61,-621.876 1632.44,-628.827"/>
</g>
<!-- Node32 -->
<g id="node93" class="node"><title>Node32</title>
<a xlink:href="MojSet_8h.htm" target="_top" xlink:title="core/MojSet.h">
<polygon fill="white" stroke="black" points="1032.6,-550.5 1032.6,-571.5 1114.6,-571.5 1114.6,-550.5 1032.6,-550.5"/>
<text text-anchor="middle" x="1073.6" y="-558.5" font-family="Helvetica,sans-Serif" font-size="10.00">core/MojSet.h</text>
</a>
</g>
<!-- Node29&#45;&gt;Node32 -->
<g id="edge122" class="edge"><title>Node29&#45;&gt;Node32</title>
<path fill="none" stroke="midnightblue" d="M1073.6,-666.295C1073.6,-647.131 1073.6,-606.654 1073.6,-581.843"/>
<polygon fill="midnightblue" stroke="midnightblue" points="1077.1,-581.679 1073.6,-571.679 1070.1,-581.679 1077.1,-581.679"/>
</g>
<!-- Node34 -->
<g id="node101" class="node"><title>Node34</title>
<a xlink:href="MojThread_8h.htm" target="_top" xlink:title="core/MojThread.h">
<polygon fill="white" stroke="black" points="1317.1,-550.5 1317.1,-571.5 1418.1,-571.5 1418.1,-550.5 1317.1,-550.5"/>
<text text-anchor="middle" x="1367.6" y="-558.5" font-family="Helvetica,sans-Serif" font-size="10.00">core/MojThread.h</text>
</a>
</g>
<!-- Node29&#45;&gt;Node34 -->
<g id="edge134" class="edge"><title>Node29&#45;&gt;Node34</title>
<path fill="none" stroke="midnightblue" d="M1100.47,-666.398C1153.51,-645.471 1271.69,-598.841 1331.47,-575.252"/>
<polygon fill="midnightblue" stroke="midnightblue" points="1332.88,-578.461 1340.9,-571.535 1330.31,-571.95 1332.88,-578.461"/>
</g>
<!-- Node30&#45;&gt;Node3 -->
<g id="edge116" class="edge"><title>Node30&#45;&gt;Node3</title>
<path fill="none" stroke="midnightblue" d="M1678.75,-608.379C1670.03,-588.262 1652.6,-543.024 1652.6,-503 1652.6,-503 1652.6,-503 1652.6,-366 1652.6,-330.578 1656.38,-311.973 1628.6,-290 1584.38,-255.029 1209.51,-245.971 1055.37,-243.716"/>
<polygon fill="midnightblue" stroke="midnightblue" points="1055.15,-240.212 1045.1,-243.571 1055.05,-247.212 1055.15,-240.212"/>
</g>
<!-- Node31 -->
<g id="node90" class="node"><title>Node31</title>
<a xlink:href="MojListInternal_8h.htm" target="_top" xlink:title="core/internal/MojListInternal.h">
<polygon fill="white" stroke="black" points="1680.1,-550.5 1680.1,-571.5 1837.1,-571.5 1837.1,-550.5 1680.1,-550.5"/>
<text text-anchor="middle" x="1758.6" y="-558.5" font-family="Helvetica,sans-Serif" font-size="10.00">core/internal/MojListInternal.h</text>
</a>
</g>
<!-- Node30&#45;&gt;Node31 -->
<g id="edge118" class="edge"><title>Node30&#45;&gt;Node31</title>
<path fill="none" stroke="midnightblue" d="M1697.35,-608.362C1708.35,-599.859 1723.97,-587.779 1736.68,-577.947"/>
<polygon fill="midnightblue" stroke="midnightblue" points="1739.16,-580.457 1744.93,-571.571 1734.88,-574.919 1739.16,-580.457"/>
</g>
<!-- Node32&#45;&gt;Node3 -->
<g id="edge124" class="edge"><title>Node32&#45;&gt;Node3</title>
<path fill="none" stroke="midnightblue" d="M1114.63,-559.089C1192.24,-554.849 1357.11,-542.665 1405.6,-514 1441.94,-492.511 1462.6,-480.222 1462.6,-438 1462.6,-438 1462.6,-438 1462.6,-366 1462.6,-282.872 1185.49,-254.938 1055.48,-246.407"/>
<polygon fill="midnightblue" stroke="midnightblue" points="1055.45,-242.898 1045.25,-245.756 1055,-249.884 1055.45,-242.898"/>
</g>
<!-- Node32&#45;&gt;Node17 -->
<g id="edge126" class="edge"><title>Node32&#45;&gt;Node17</title>
<path fill="none" stroke="midnightblue" d="M1062.15,-550.134C1049.6,-536.841 1032.17,-513.453 1039.6,-492 1063.92,-421.774 1174.45,-403.119 1124.6,-348 1097.58,-318.124 833.678,-306.36 714.955,-302.553"/>
<polygon fill="midnightblue" stroke="midnightblue" points="715.059,-299.054 704.954,-302.24 714.84,-306.051 715.059,-299.054"/>
</g>
<!-- Node32&#45;&gt;Node18 -->
<g id="edge128" class="edge"><title>Node32&#45;&gt;Node18</title>
<path fill="none" stroke="midnightblue" d="M1044.08,-550.497C1017.62,-541.082 978.617,-527.204 949.596,-516.877"/>
<polygon fill="midnightblue" stroke="midnightblue" points="950.765,-513.578 940.17,-513.523 948.418,-520.173 950.765,-513.578"/>
</g>
<!-- Node33 -->
<g id="node98" class="node"><title>Node33</title>
<a xlink:href="MojSetInternal_8h.htm" target="_top" xlink:title="core/internal/MojSetInternal.h">
<polygon fill="white" stroke="black" points="1048.6,-492.5 1048.6,-513.5 1204.6,-513.5 1204.6,-492.5 1048.6,-492.5"/>
<text text-anchor="middle" x="1126.6" y="-500.5" font-family="Helvetica,sans-Serif" font-size="10.00">core/internal/MojSetInternal.h</text>
</a>
</g>
<!-- Node32&#45;&gt;Node33 -->
<g id="edge130" class="edge"><title>Node32&#45;&gt;Node33</title>
<path fill="none" stroke="midnightblue" d="M1083.32,-550.362C1090.79,-542.186 1101.28,-530.702 1110.07,-521.091"/>
<polygon fill="midnightblue" stroke="midnightblue" points="1112.78,-523.314 1116.94,-513.571 1107.61,-518.592 1112.78,-523.314"/>
</g>
<!-- Node34&#45;&gt;Node3 -->
<g id="edge136" class="edge"><title>Node34&#45;&gt;Node3</title>
<path fill="none" stroke="midnightblue" d="M1394.51,-550.458C1433.37,-533.26 1500.6,-495.241 1500.6,-438 1500.6,-438 1500.6,-438 1500.6,-366 1500.6,-310.177 1452.4,-310.803 1400.6,-290 1339.53,-265.476 1155.27,-251.978 1055.49,-246.287"/>
<polygon fill="midnightblue" stroke="midnightblue" points="1055.4,-242.777 1045.22,-245.712 1055.01,-249.766 1055.4,-242.777"/>
</g>
<!-- Node34&#45;&gt;Node14 -->
<g id="edge138" class="edge"><title>Node34&#45;&gt;Node14</title>
<path fill="none" stroke="midnightblue" d="M1380.99,-550.299C1396.78,-536.368 1419.23,-511.5 1405.6,-492 1371.95,-443.887 1208.18,-399.794 1118.91,-378.834"/>
<polygon fill="midnightblue" stroke="midnightblue" points="1119.47,-375.37 1108.94,-376.515 1117.89,-382.188 1119.47,-375.37"/>
</g>
<!-- Node35 -->
<g id="node105" class="node"><title>Node35</title>
<a xlink:href="MojThreadInternal_8h.htm" target="_top" xlink:title="core/internal/MojThreadInternal.h">
<polygon fill="white" stroke="black" points="1222.1,-492.5 1222.1,-513.5 1397.1,-513.5 1397.1,-492.5 1222.1,-492.5"/>
<text text-anchor="middle" x="1309.6" y="-500.5" font-family="Helvetica,sans-Serif" font-size="10.00">core/internal/MojThreadInternal.h</text>
</a>
</g>
<!-- Node34&#45;&gt;Node35 -->
<g id="edge140" class="edge"><title>Node34&#45;&gt;Node35</title>
<path fill="none" stroke="midnightblue" d="M1356.96,-550.362C1348.7,-542.104 1337.07,-530.472 1327.4,-520.803"/>
<polygon fill="midnightblue" stroke="midnightblue" points="1329.71,-518.167 1320.17,-513.571 1324.76,-523.117 1329.71,-518.167"/>
</g>
<!-- Node35&#45;&gt;Node13 -->
<g id="edge142" class="edge"><title>Node35&#45;&gt;Node13</title>
<path fill="none" stroke="midnightblue" d="M1240.84,-492.484C1159,-479.968 1023.61,-459.261 945.427,-447.303"/>
<polygon fill="midnightblue" stroke="midnightblue" points="945.666,-443.799 935.252,-445.747 944.608,-450.719 945.666,-443.799"/>
</g>
</g>
</svg>
