<?xml version="1.0" encoding="UTF-8" standalone="no"?>
<!DOCTYPE svg PUBLIC "-//W3C//DTD SVG 1.1//EN"
 "http://www.w3.org/Graphics/SVG/1.1/DTD/svg11.dtd">
<!-- Generated by graphviz version 2.26.3 (20100126.1600)
 -->
<!-- Title: MojAutoPtr.h Pages: 1 -->
<svg width="701pt" height="392pt"
 viewBox="0.00 0.00 701.00 392.00" xmlns="http://www.w3.org/2000/svg" xmlns:xlink="http://www.w3.org/1999/xlink">
<g id="graph1" class="graph" transform="scale(1 1) rotate(0) translate(4 388)">
<title>MojAutoPtr.h</title>
<polygon fill="white" stroke="white" points="-4,5 -4,-388 698,-388 698,5 -4,5"/>
<!-- Node1 -->
<g id="node1" class="node"><title>Node1</title>
<polygon fill="#bfbfbf" stroke="black" points="450.5,-362.5 450.5,-383.5 527.5,-383.5 527.5,-362.5 450.5,-362.5"/>
<text text-anchor="middle" x="489" y="-370.5" font-family="Helvetica,sans-Serif" font-size="10.00">MojAutoPtr.h</text>
</g>
<!-- Node2 -->
<g id="node3" class="node"><title>Node2</title>
<a xlink:href="MojCoreDefs_8h.htm" target="_top" xlink:title="core/MojCoreDefs.h">
<polygon fill="white" stroke="black" points="283.5,-232.5 283.5,-253.5 394.5,-253.5 394.5,-232.5 283.5,-232.5"/>
<text text-anchor="middle" x="339" y="-240.5" font-family="Helvetica,sans-Serif" font-size="10.00">core/MojCoreDefs.h</text>
</a>
</g>
<!-- Node1&#45;&gt;Node2 -->
<g id="edge2" class="edge"><title>Node1&#45;&gt;Node2</title>
<path fill="none" stroke="midnightblue" d="M450.418,-363.622C427.66,-356.461 399.576,-344.589 380,-326 361.879,-308.793 350.646,-281.87 344.618,-263.381"/>
<polygon fill="midnightblue" stroke="midnightblue" points="347.906,-262.162 341.658,-253.606 341.207,-264.192 347.906,-262.162"/>
</g>
<!-- Node9 -->
<g id="node17" class="node"><title>Node9</title>
<a xlink:href="MojNoCopy_8h.htm" target="_top" xlink:title="core/MojNoCopy.h">
<polygon fill="white" stroke="black" points="402,-0.5 402,-21.5 506,-21.5 506,-0.5 402,-0.5"/>
<text text-anchor="middle" x="454" y="-8.5" font-family="Helvetica,sans-Serif" font-size="10.00">core/MojNoCopy.h</text>
</a>
</g>
<!-- Node1&#45;&gt;Node9 -->
<g id="edge26" class="edge"><title>Node1&#45;&gt;Node9</title>
<path fill="none" stroke="midnightblue" d="M495.591,-362.326C508.31,-340.676 535,-289.684 535,-243 535,-243 535,-243 535,-127 535,-85.9121 500.416,-48.9919 476.444,-28.336"/>
<polygon fill="midnightblue" stroke="midnightblue" points="478.412,-25.4209 468.481,-21.7279 473.941,-30.8075 478.412,-25.4209"/>
</g>
<!-- Node12 -->
<g id="node23" class="node"><title>Node12</title>
<a xlink:href="MojAtomicInt_8h.htm" target="_top" xlink:title="core/MojAtomicInt.h">
<polygon fill="white" stroke="black" points="389,-297.5 389,-318.5 499,-318.5 499,-297.5 389,-297.5"/>
<text text-anchor="middle" x="444" y="-305.5" font-family="Helvetica,sans-Serif" font-size="10.00">core/MojAtomicInt.h</text>
</a>
</g>
<!-- Node1&#45;&gt;Node12 -->
<g id="edge22" class="edge"><title>Node1&#45;&gt;Node12</title>
<path fill="none" stroke="midnightblue" d="M481.569,-362.267C474.951,-352.707 465.113,-338.496 457.164,-327.015"/>
<polygon fill="midnightblue" stroke="midnightblue" points="459.862,-324.763 451.293,-318.534 454.107,-328.748 459.862,-324.763"/>
</g>
<!-- Node13 -->
<g id="node27" class="node"><title>Node13</title>
<a xlink:href="MojAutoPtrInternal_8h.htm" target="_top" xlink:title="core/internal/MojAutoPtr\lInternal.h">
<polygon fill="white" stroke="black" points="562.5,-291 562.5,-325 693.5,-325 693.5,-291 562.5,-291"/>
<text text-anchor="start" x="570.5" y="-312" font-family="Helvetica,sans-Serif" font-size="10.00">core/internal/MojAutoPtr</text>
<text text-anchor="middle" x="628" y="-299" font-family="Helvetica,sans-Serif" font-size="10.00">Internal.h</text>
</a>
</g>
<!-- Node1&#45;&gt;Node13 -->
<g id="edge28" class="edge"><title>Node1&#45;&gt;Node13</title>
<path fill="none" stroke="midnightblue" d="M511.642,-362.412C530.726,-353.488 558.632,-340.438 582.332,-329.356"/>
<polygon fill="midnightblue" stroke="midnightblue" points="583.941,-332.467 591.517,-325.06 580.976,-326.126 583.941,-332.467"/>
</g>
<!-- Node3 -->
<g id="node5" class="node"><title>Node3</title>
<a xlink:href="MojConfig_8h.htm" target="_top" xlink:title="core/internal/MojConfig.h">
<polygon fill="white" stroke="black" points="-0.5,-174.5 -0.5,-195.5 134.5,-195.5 134.5,-174.5 -0.5,-174.5"/>
<text text-anchor="middle" x="67" y="-182.5" font-family="Helvetica,sans-Serif" font-size="10.00">core/internal/MojConfig.h</text>
</a>
</g>
<!-- Node2&#45;&gt;Node3 -->
<g id="edge4" class="edge"><title>Node2&#45;&gt;Node3</title>
<path fill="none" stroke="midnightblue" d="M289.743,-232.497C243.768,-222.693 175.094,-208.05 126.167,-197.616"/>
<polygon fill="midnightblue" stroke="midnightblue" points="126.86,-194.186 116.35,-195.523 125.4,-201.032 126.86,-194.186"/>
</g>
<!-- Node4 -->
<g id="node7" class="node"><title>Node4</title>
<a xlink:href="MojNew_8h.htm" target="_top" xlink:title="core/internal/MojNew.h">
<polygon fill="white" stroke="black" points="151.5,-174.5 151.5,-195.5 276.5,-195.5 276.5,-174.5 151.5,-174.5"/>
<text text-anchor="middle" x="214" y="-182.5" font-family="Helvetica,sans-Serif" font-size="10.00">core/internal/MojNew.h</text>
</a>
</g>
<!-- Node2&#45;&gt;Node4 -->
<g id="edge6" class="edge"><title>Node2&#45;&gt;Node4</title>
<path fill="none" stroke="midnightblue" d="M316.363,-232.497C296.752,-223.397 268.154,-210.127 246.167,-199.925"/>
<polygon fill="midnightblue" stroke="midnightblue" points="247.435,-196.655 236.891,-195.621 244.488,-203.005 247.435,-196.655"/>
</g>
<!-- Node6 -->
<g id="node11" class="node"><title>Node6</title>
<a xlink:href="MojErr_8h.htm" target="_top" xlink:title="core/MojErr.h">
<polygon fill="white" stroke="black" points="294,-174.5 294,-195.5 374,-195.5 374,-174.5 294,-174.5"/>
<text text-anchor="middle" x="334" y="-182.5" font-family="Helvetica,sans-Serif" font-size="10.00">core/MojErr.h</text>
</a>
</g>
<!-- Node2&#45;&gt;Node6 -->
<g id="edge10" class="edge"><title>Node2&#45;&gt;Node6</title>
<path fill="none" stroke="midnightblue" d="M338.083,-232.362C337.442,-224.922 336.564,-214.743 335.787,-205.728"/>
<polygon fill="midnightblue" stroke="midnightblue" points="339.257,-205.233 334.911,-195.571 332.283,-205.834 339.257,-205.233"/>
</g>
<!-- Node10 -->
<g id="node19" class="node"><title>Node10</title>
<a xlink:href="MojOs_8h.htm" target="_top" xlink:title="core/MojOs.h">
<polygon fill="white" stroke="black" points="392,-174.5 392,-195.5 472,-195.5 472,-174.5 392,-174.5"/>
<text text-anchor="middle" x="432" y="-182.5" font-family="Helvetica,sans-Serif" font-size="10.00">core/MojOs.h</text>
</a>
</g>
<!-- Node2&#45;&gt;Node10 -->
<g id="edge18" class="edge"><title>Node2&#45;&gt;Node10</title>
<path fill="none" stroke="midnightblue" d="M356.058,-232.362C370.085,-223.614 390.184,-211.079 406.182,-201.101"/>
<polygon fill="midnightblue" stroke="midnightblue" points="408.418,-203.832 415.051,-195.571 404.713,-197.893 408.418,-203.832"/>
</g>
<!-- Node5 -->
<g id="node9" class="node"><title>Node5</title>
<polygon fill="white" stroke="#bfbfbf" points="196,-116.5 196,-137.5 232,-137.5 232,-116.5 196,-116.5"/>
<text text-anchor="middle" x="214" y="-124.5" font-family="Helvetica,sans-Serif" font-size="10.00">new</text>
</g>
<!-- Node4&#45;&gt;Node5 -->
<g id="edge8" class="edge"><title>Node4&#45;&gt;Node5</title>
<path fill="none" stroke="midnightblue" d="M214,-174.362C214,-166.922 214,-156.743 214,-147.728"/>
<polygon fill="midnightblue" stroke="midnightblue" points="217.5,-147.571 214,-137.571 210.5,-147.571 217.5,-147.571"/>
</g>
<!-- Node7 -->
<g id="node13" class="node"><title>Node7</title>
<a xlink:href="MojLog_8h.htm" target="_top" xlink:title="core/MojLog.h">
<polygon fill="white" stroke="black" points="251,-116.5 251,-137.5 335,-137.5 335,-116.5 251,-116.5"/>
<text text-anchor="middle" x="293" y="-124.5" font-family="Helvetica,sans-Serif" font-size="10.00">core/MojLog.h</text>
</a>
</g>
<!-- Node6&#45;&gt;Node7 -->
<g id="edge12" class="edge"><title>Node6&#45;&gt;Node7</title>
<path fill="none" stroke="midnightblue" d="M326.48,-174.362C320.874,-166.431 313.068,-155.389 306.403,-145.961"/>
<polygon fill="midnightblue" stroke="midnightblue" points="309.103,-143.716 300.472,-137.571 303.387,-147.757 309.103,-143.716"/>
</g>
<!-- Node8 -->
<g id="node15" class="node"><title>Node8</title>
<a xlink:href="MojListEntry_8h.htm" target="_top" xlink:title="core/MojListEntry.h">
<polygon fill="white" stroke="black" points="320.5,-58.5 320.5,-79.5 427.5,-79.5 427.5,-58.5 320.5,-58.5"/>
<text text-anchor="middle" x="374" y="-66.5" font-family="Helvetica,sans-Serif" font-size="10.00">core/MojListEntry.h</text>
</a>
</g>
<!-- Node7&#45;&gt;Node8 -->
<g id="edge14" class="edge"><title>Node7&#45;&gt;Node8</title>
<path fill="none" stroke="midnightblue" d="M307.857,-116.362C319.846,-107.777 336.927,-95.5459 350.728,-85.6636"/>
<polygon fill="midnightblue" stroke="midnightblue" points="353.145,-88.2383 359.238,-79.5707 349.069,-82.5469 353.145,-88.2383"/>
</g>
<!-- Node8&#45;&gt;Node9 -->
<g id="edge16" class="edge"><title>Node8&#45;&gt;Node9</title>
<path fill="none" stroke="midnightblue" d="M388.673,-58.3619C400.514,-49.7773 417.385,-37.5459 431.016,-27.6636"/>
<polygon fill="midnightblue" stroke="midnightblue" points="433.378,-30.274 439.42,-21.5707 429.269,-24.6067 433.378,-30.274"/>
</g>
<!-- Node11 -->
<g id="node21" class="node"><title>Node11</title>
<a xlink:href="MojOsInternal_8h.htm" target="_top" xlink:title="core/internal/MojOsInternal.h">
<polygon fill="white" stroke="black" points="353,-116.5 353,-137.5 507,-137.5 507,-116.5 353,-116.5"/>
<text text-anchor="middle" x="430" y="-124.5" font-family="Helvetica,sans-Serif" font-size="10.00">core/internal/MojOsInternal.h</text>
</a>
</g>
<!-- Node10&#45;&gt;Node11 -->
<g id="edge20" class="edge"><title>Node10&#45;&gt;Node11</title>
<path fill="none" stroke="midnightblue" d="M431.633,-174.362C431.377,-166.922 431.026,-156.743 430.715,-147.728"/>
<polygon fill="midnightblue" stroke="midnightblue" points="434.207,-147.444 430.365,-137.571 427.211,-147.685 434.207,-147.444"/>
</g>
<!-- Node12&#45;&gt;Node2 -->
<g id="edge24" class="edge"><title>Node12&#45;&gt;Node2</title>
<path fill="none" stroke="midnightblue" d="M426.661,-297.267C409.766,-286.807 383.879,-270.782 364.61,-258.854"/>
<polygon fill="midnightblue" stroke="midnightblue" points="366.361,-255.821 356.016,-253.534 362.676,-261.773 366.361,-255.821"/>
</g>
</g>
</svg>
