<?xml version="1.0" encoding="UTF-8" standalone="no"?>
<!DOCTYPE svg PUBLIC "-//W3C//DTD SVG 1.1//EN"
 "http://www.w3.org/Graphics/SVG/1.1/DTD/svg11.dtd">
<!-- Generated by graphviz version 2.26.3 (20100126.1600)
 -->
<!-- Title: MojApp.h Pages: 1 -->
<svg width="458pt" height="262pt"
 viewBox="0.00 0.00 458.00 262.00" xmlns="http://www.w3.org/2000/svg" xmlns:xlink="http://www.w3.org/1999/xlink">
<g id="graph1" class="graph" transform="scale(1 1) rotate(0) translate(4 258)">
<title>MojApp.h</title>
<polygon fill="white" stroke="white" points="-4,5 -4,-258 455,-258 455,5 -4,5"/>
<!-- Node1 -->
<g id="node1" class="node"><title>Node1</title>
<polygon fill="#bfbfbf" stroke="black" points="280.5,-232.5 280.5,-253.5 341.5,-253.5 341.5,-232.5 280.5,-232.5"/>
<text text-anchor="middle" x="311" y="-240.5" font-family="Helvetica,sans-Serif" font-size="10.00">MojApp.h</text>
</g>
<!-- Node2 -->
<g id="node3" class="node"><title>Node2</title>
<a xlink:href="MojServiceApp_8h.htm" target="_top" xlink:title="MojServiceApp.h">
<polygon fill="white" stroke="black" points="143,-174.5 143,-195.5 239,-195.5 239,-174.5 143,-174.5"/>
<text text-anchor="middle" x="191" y="-182.5" font-family="Helvetica,sans-Serif" font-size="10.00">MojServiceApp.h</text>
</a>
</g>
<!-- Node1&#45;&gt;Node2 -->
<g id="edge2" class="edge"><title>Node1&#45;&gt;Node2</title>
<path fill="none" stroke="midnightblue" d="M280.109,-228.069C259.094,-217.912 231.791,-204.716 212.975,-195.621"/>
<polygon fill="midnightblue" stroke="midnightblue" points="278.742,-231.296 289.269,-232.497 281.789,-224.994 278.742,-231.296"/>
</g>
<!-- Node7 -->
<g id="node13" class="node"><title>Node7</title>
<a xlink:href="MojTestRunner_8h.htm" target="_top" xlink:title="MojTestRunner.h">
<polygon fill="white" stroke="black" points="262,-174.5 262,-195.5 360,-195.5 360,-174.5 262,-174.5"/>
<text text-anchor="middle" x="311" y="-182.5" font-family="Helvetica,sans-Serif" font-size="10.00">MojTestRunner.h</text>
</a>
</g>
<!-- Node1&#45;&gt;Node7 -->
<g id="edge12" class="edge"><title>Node1&#45;&gt;Node7</title>
<path fill="none" stroke="midnightblue" d="M311,-222.191C311,-213.168 311,-202.994 311,-195.571"/>
<polygon fill="midnightblue" stroke="midnightblue" points="307.5,-222.362 311,-232.362 314.5,-222.362 307.5,-222.362"/>
</g>
<!-- Node9 -->
<g id="node17" class="node"><title>Node9</title>
<a xlink:href="MojApp_8cpp.htm" target="_top" xlink:title="MojApp.cpp">
<polygon fill="white" stroke="black" points="378,-174.5 378,-195.5 450,-195.5 450,-174.5 378,-174.5"/>
<text text-anchor="middle" x="414" y="-182.5" font-family="Helvetica,sans-Serif" font-size="10.00">MojApp.cpp</text>
</a>
</g>
<!-- Node1&#45;&gt;Node9 -->
<g id="edge16" class="edge"><title>Node1&#45;&gt;Node9</title>
<path fill="none" stroke="midnightblue" d="M338.741,-227.379C356.638,-217.301 379.437,-204.462 395.228,-195.571"/>
<polygon fill="midnightblue" stroke="midnightblue" points="336.888,-224.405 329.892,-232.362 340.323,-230.505 336.888,-224.405"/>
</g>
<!-- Node3 -->
<g id="node5" class="node"><title>Node3</title>
<a xlink:href="MojReactorApp_8h.htm" target="_top" xlink:title="MojReactorApp.h">
<polygon fill="white" stroke="black" points="22,-116.5 22,-137.5 120,-137.5 120,-116.5 22,-116.5"/>
<text text-anchor="middle" x="71" y="-124.5" font-family="Helvetica,sans-Serif" font-size="10.00">MojReactorApp.h</text>
</a>
</g>
<!-- Node2&#45;&gt;Node3 -->
<g id="edge4" class="edge"><title>Node2&#45;&gt;Node3</title>
<path fill="none" stroke="midnightblue" d="M160.109,-170.069C139.094,-159.912 111.791,-146.716 92.9749,-137.621"/>
<polygon fill="midnightblue" stroke="midnightblue" points="158.742,-173.296 169.269,-174.497 161.789,-166.994 158.742,-173.296"/>
</g>
<!-- Node6 -->
<g id="node11" class="node"><title>Node6</title>
<a xlink:href="MojServiceApp_8cpp.htm" target="_top" xlink:title="MojServiceApp.cpp">
<polygon fill="white" stroke="black" points="137.5,-116.5 137.5,-137.5 244.5,-137.5 244.5,-116.5 137.5,-116.5"/>
<text text-anchor="middle" x="191" y="-124.5" font-family="Helvetica,sans-Serif" font-size="10.00">MojServiceApp.cpp</text>
</a>
</g>
<!-- Node2&#45;&gt;Node6 -->
<g id="edge10" class="edge"><title>Node2&#45;&gt;Node6</title>
<path fill="none" stroke="midnightblue" d="M191,-164.191C191,-155.168 191,-144.994 191,-137.571"/>
<polygon fill="midnightblue" stroke="midnightblue" points="187.5,-164.362 191,-174.362 194.5,-164.362 187.5,-164.362"/>
</g>
<!-- Node4 -->
<g id="node7" class="node"><title>Node4</title>
<a xlink:href="MojDbLunaServiceApp_8h.htm" target="_top" xlink:title="MojDbLunaServiceApp.h">
<polygon fill="white" stroke="black" points="5,-58.5 5,-79.5 137,-79.5 137,-58.5 5,-58.5"/>
<text text-anchor="middle" x="71" y="-66.5" font-family="Helvetica,sans-Serif" font-size="10.00">MojDbLunaServiceApp.h</text>
</a>
</g>
<!-- Node3&#45;&gt;Node4 -->
<g id="edge6" class="edge"><title>Node3&#45;&gt;Node4</title>
<path fill="none" stroke="midnightblue" d="M71,-106.191C71,-97.1684 71,-86.9941 71,-79.5707"/>
<polygon fill="midnightblue" stroke="midnightblue" points="67.5001,-106.362 71,-116.362 74.5001,-106.362 67.5001,-106.362"/>
</g>
<!-- Node5 -->
<g id="node9" class="node"><title>Node5</title>
<a xlink:href="MojDbLunaServiceApp_8cpp.htm" target="_top" xlink:title="MojDbLunaServiceApp.cpp">
<polygon fill="white" stroke="black" points="-0.5,-0.5 -0.5,-21.5 142.5,-21.5 142.5,-0.5 -0.5,-0.5"/>
<text text-anchor="middle" x="71" y="-8.5" font-family="Helvetica,sans-Serif" font-size="10.00">MojDbLunaServiceApp.cpp</text>
</a>
</g>
<!-- Node4&#45;&gt;Node5 -->
<g id="edge8" class="edge"><title>Node4&#45;&gt;Node5</title>
<path fill="none" stroke="midnightblue" d="M71,-48.1906C71,-39.1684 71,-28.9941 71,-21.5707"/>
<polygon fill="midnightblue" stroke="midnightblue" points="67.5001,-48.3619 71,-58.3619 74.5001,-48.3619 67.5001,-48.3619"/>
</g>
<!-- Node8 -->
<g id="node15" class="node"><title>Node8</title>
<a xlink:href="MojTestRunner_8cpp.htm" target="_top" xlink:title="MojTestRunner.cpp">
<polygon fill="white" stroke="black" points="261.5,-116.5 261.5,-137.5 370.5,-137.5 370.5,-116.5 261.5,-116.5"/>
<text text-anchor="middle" x="316" y="-124.5" font-family="Helvetica,sans-Serif" font-size="10.00">MojTestRunner.cpp</text>
</a>
</g>
<!-- Node7&#45;&gt;Node8 -->
<g id="edge14" class="edge"><title>Node7&#45;&gt;Node8</title>
<path fill="none" stroke="midnightblue" d="M312.794,-164.191C313.572,-155.168 314.449,-144.994 315.089,-137.571"/>
<polygon fill="midnightblue" stroke="midnightblue" points="309.289,-164.098 311.917,-174.362 316.263,-164.699 309.289,-164.098"/>
</g>
</g>
</svg>
