<?xml version="1.0" encoding="UTF-8" standalone="no"?>
<!DOCTYPE svg PUBLIC "-//W3C//DTD SVG 1.1//EN"
 "http://www.w3.org/Graphics/SVG/1.1/DTD/svg11.dtd">
<!-- Generated by graphviz version 2.26.3 (20100126.1600)
 -->
<!-- Title: MojBuffer.h Pages: 1 -->
<svg width="944pt" height="638pt"
 viewBox="0.00 0.00 943.75 638.00" xmlns="http://www.w3.org/2000/svg" xmlns:xlink="http://www.w3.org/1999/xlink">
<g id="graph1" class="graph" transform="scale(1 1) rotate(0) translate(4 634)">
<title>MojBuffer.h</title>
<polygon fill="white" stroke="white" points="-4,5 -4,-634 940.75,-634 940.75,5 -4,5"/>
<!-- Node1 -->
<g id="node1" class="node"><title>Node1</title>
<polygon fill="#bfbfbf" stroke="black" points="634.75,-608.5 634.75,-629.5 704.75,-629.5 704.75,-608.5 634.75,-608.5"/>
<text text-anchor="middle" x="669.75" y="-616.5" font-family="Helvetica,sans-Serif" font-size="10.00">MojBuffer.h</text>
</g>
<!-- Node2 -->
<g id="node3" class="node"><title>Node2</title>
<a xlink:href="MojCoreDefs_8h.htm" target="_top" xlink:title="core/MojCoreDefs.h">
<polygon fill="white" stroke="black" points="441.25,-232.5 441.25,-253.5 552.25,-253.5 552.25,-232.5 441.25,-232.5"/>
<text text-anchor="middle" x="496.75" y="-240.5" font-family="Helvetica,sans-Serif" font-size="10.00">core/MojCoreDefs.h</text>
</a>
</g>
<!-- Node1&#45;&gt;Node2 -->
<g id="edge2" class="edge"><title>Node1&#45;&gt;Node2</title>
<path fill="none" stroke="midnightblue" d="M704.798,-611.453C777.028,-594.886 935.75,-552.814 935.75,-503 935.75,-503 935.75,-503 935.75,-366 935.75,-289.399 684.787,-258.317 562.361,-247.712"/>
<polygon fill="midnightblue" stroke="midnightblue" points="562.609,-244.22 552.349,-246.865 562.019,-251.195 562.609,-244.22"/>
</g>
<!-- Node12 -->
<g id="node23" class="node"><title>Node12</title>
<a xlink:href="MojAutoPtr_8h.htm" target="_top" xlink:title="core/MojAutoPtr.h">
<polygon fill="white" stroke="black" points="157.25,-427.5 157.25,-448.5 258.25,-448.5 258.25,-427.5 157.25,-427.5"/>
<text text-anchor="middle" x="207.75" y="-435.5" font-family="Helvetica,sans-Serif" font-size="10.00">core/MojAutoPtr.h</text>
</a>
</g>
<!-- Node1&#45;&gt;Node12 -->
<g id="edge22" class="edge"><title>Node1&#45;&gt;Node12</title>
<path fill="none" stroke="midnightblue" d="M634.595,-616.484C562.162,-609.906 393.173,-587.265 274.75,-514 251.527,-499.633 231.83,-474.74 219.923,-457.373"/>
<polygon fill="midnightblue" stroke="midnightblue" points="222.568,-455.028 214.136,-448.613 216.728,-458.886 222.568,-455.028"/>
</g>
<!-- Node15 -->
<g id="node32" class="node"><title>Node15</title>
<a xlink:href="MojList_8h.htm" target="_top" xlink:title="core/MojList.h">
<polygon fill="white" stroke="black" points="682.25,-550.5 682.25,-571.5 765.25,-571.5 765.25,-550.5 682.25,-550.5"/>
<text text-anchor="middle" x="723.75" y="-558.5" font-family="Helvetica,sans-Serif" font-size="10.00">core/MojList.h</text>
</a>
</g>
<!-- Node1&#45;&gt;Node15 -->
<g id="edge34" class="edge"><title>Node1&#45;&gt;Node15</title>
<path fill="none" stroke="midnightblue" d="M679.654,-608.362C687.266,-600.186 697.958,-588.702 706.907,-579.091"/>
<polygon fill="midnightblue" stroke="midnightblue" points="709.655,-581.275 713.908,-571.571 704.532,-576.505 709.655,-581.275"/>
</g>
<!-- Node17 -->
<g id="node37" class="node"><title>Node17</title>
<a xlink:href="MojVector_8h.htm" target="_top" xlink:title="core/MojVector.h">
<polygon fill="white" stroke="black" points="527.25,-550.5 527.25,-571.5 624.25,-571.5 624.25,-550.5 527.25,-550.5"/>
<text text-anchor="middle" x="575.75" y="-558.5" font-family="Helvetica,sans-Serif" font-size="10.00">core/MojVector.h</text>
</a>
</g>
<!-- Node1&#45;&gt;Node17 -->
<g id="edge40" class="edge"><title>Node1&#45;&gt;Node17</title>
<path fill="none" stroke="midnightblue" d="M652.509,-608.362C638.198,-599.532 617.635,-586.844 601.393,-576.822"/>
<polygon fill="midnightblue" stroke="midnightblue" points="603.23,-573.843 592.881,-571.571 599.554,-579.8 603.23,-573.843"/>
</g>
<!-- Node3 -->
<g id="node5" class="node"><title>Node3</title>
<a xlink:href="MojConfig_8h.htm" target="_top" xlink:title="core/internal/MojConfig.h">
<polygon fill="white" stroke="black" points="429.25,-174.5 429.25,-195.5 564.25,-195.5 564.25,-174.5 429.25,-174.5"/>
<text text-anchor="middle" x="496.75" y="-182.5" font-family="Helvetica,sans-Serif" font-size="10.00">core/internal/MojConfig.h</text>
</a>
</g>
<!-- Node2&#45;&gt;Node3 -->
<g id="edge4" class="edge"><title>Node2&#45;&gt;Node3</title>
<path fill="none" stroke="midnightblue" d="M496.75,-232.362C496.75,-224.922 496.75,-214.743 496.75,-205.728"/>
<polygon fill="midnightblue" stroke="midnightblue" points="500.25,-205.571 496.75,-195.571 493.25,-205.571 500.25,-205.571"/>
</g>
<!-- Node4 -->
<g id="node7" class="node"><title>Node4</title>
<a xlink:href="MojNew_8h.htm" target="_top" xlink:title="core/internal/MojNew.h">
<polygon fill="white" stroke="black" points="581.25,-174.5 581.25,-195.5 706.25,-195.5 706.25,-174.5 581.25,-174.5"/>
<text text-anchor="middle" x="643.75" y="-182.5" font-family="Helvetica,sans-Serif" font-size="10.00">core/internal/MojNew.h</text>
</a>
</g>
<!-- Node2&#45;&gt;Node4 -->
<g id="edge6" class="edge"><title>Node2&#45;&gt;Node4</title>
<path fill="none" stroke="midnightblue" d="M523.37,-232.497C546.847,-223.234 581.275,-209.65 607.305,-199.379"/>
<polygon fill="midnightblue" stroke="midnightblue" points="608.813,-202.547 616.83,-195.621 606.244,-196.036 608.813,-202.547"/>
</g>
<!-- Node6 -->
<g id="node11" class="node"><title>Node6</title>
<a xlink:href="MojErr_8h.htm" target="_top" xlink:title="core/MojErr.h">
<polygon fill="white" stroke="black" points="209.75,-174.5 209.75,-195.5 289.75,-195.5 289.75,-174.5 209.75,-174.5"/>
<text text-anchor="middle" x="249.75" y="-182.5" font-family="Helvetica,sans-Serif" font-size="10.00">core/MojErr.h</text>
</a>
</g>
<!-- Node2&#45;&gt;Node6 -->
<g id="edge10" class="edge"><title>Node2&#45;&gt;Node6</title>
<path fill="none" stroke="midnightblue" d="M452.02,-232.497C409.11,-222.421 344.427,-207.232 299.816,-196.757"/>
<polygon fill="midnightblue" stroke="midnightblue" points="300.593,-193.344 290.057,-194.465 298.992,-200.158 300.593,-193.344"/>
</g>
<!-- Node10 -->
<g id="node19" class="node"><title>Node10</title>
<a xlink:href="MojOs_8h.htm" target="_top" xlink:title="core/MojOs.h">
<polygon fill="white" stroke="black" points="331.75,-174.5 331.75,-195.5 411.75,-195.5 411.75,-174.5 331.75,-174.5"/>
<text text-anchor="middle" x="371.75" y="-182.5" font-family="Helvetica,sans-Serif" font-size="10.00">core/MojOs.h</text>
</a>
</g>
<!-- Node2&#45;&gt;Node10 -->
<g id="edge18" class="edge"><title>Node2&#45;&gt;Node10</title>
<path fill="none" stroke="midnightblue" d="M474.113,-232.497C454.502,-223.397 425.903,-210.127 403.916,-199.925"/>
<polygon fill="midnightblue" stroke="midnightblue" points="405.184,-196.655 394.64,-195.621 402.238,-203.005 405.184,-196.655"/>
</g>
<!-- Node5 -->
<g id="node9" class="node"><title>Node5</title>
<polygon fill="white" stroke="#bfbfbf" points="625.75,-116.5 625.75,-137.5 661.75,-137.5 661.75,-116.5 625.75,-116.5"/>
<text text-anchor="middle" x="643.75" y="-124.5" font-family="Helvetica,sans-Serif" font-size="10.00">new</text>
</g>
<!-- Node4&#45;&gt;Node5 -->
<g id="edge8" class="edge"><title>Node4&#45;&gt;Node5</title>
<path fill="none" stroke="midnightblue" d="M643.75,-174.362C643.75,-166.922 643.75,-156.743 643.75,-147.728"/>
<polygon fill="midnightblue" stroke="midnightblue" points="647.25,-147.571 643.75,-137.571 640.25,-147.571 647.25,-147.571"/>
</g>
<!-- Node7 -->
<g id="node13" class="node"><title>Node7</title>
<a xlink:href="MojLog_8h.htm" target="_top" xlink:title="core/MojLog.h">
<polygon fill="white" stroke="black" points="112.75,-116.5 112.75,-137.5 196.75,-137.5 196.75,-116.5 112.75,-116.5"/>
<text text-anchor="middle" x="154.75" y="-124.5" font-family="Helvetica,sans-Serif" font-size="10.00">core/MojLog.h</text>
</a>
</g>
<!-- Node6&#45;&gt;Node7 -->
<g id="edge12" class="edge"><title>Node6&#45;&gt;Node7</title>
<path fill="none" stroke="midnightblue" d="M232.325,-174.362C217.862,-165.532 197.08,-152.844 180.666,-142.822"/>
<polygon fill="midnightblue" stroke="midnightblue" points="182.422,-139.794 172.064,-137.571 178.775,-145.769 182.422,-139.794"/>
</g>
<!-- Node8 -->
<g id="node15" class="node"><title>Node8</title>
<a xlink:href="MojListEntry_8h.htm" target="_top" xlink:title="core/MojListEntry.h">
<polygon fill="white" stroke="black" points="53.2496,-58.5 53.2496,-79.5 160.25,-79.5 160.25,-58.5 53.2496,-58.5"/>
<text text-anchor="middle" x="106.75" y="-66.5" font-family="Helvetica,sans-Serif" font-size="10.00">core/MojListEntry.h</text>
</a>
</g>
<!-- Node7&#45;&gt;Node8 -->
<g id="edge14" class="edge"><title>Node7&#45;&gt;Node8</title>
<path fill="none" stroke="midnightblue" d="M145.946,-116.362C139.247,-108.268 129.866,-96.9318 121.96,-87.3796"/>
<polygon fill="midnightblue" stroke="midnightblue" points="124.57,-85.0431 115.498,-79.5707 119.177,-89.5061 124.57,-85.0431"/>
</g>
<!-- Node9 -->
<g id="node17" class="node"><title>Node9</title>
<a xlink:href="MojNoCopy_8h.htm" target="_top" xlink:title="core/MojNoCopy.h">
<polygon fill="white" stroke="black" points="1.74957,-0.5 1.74957,-21.5 105.75,-21.5 105.75,-0.5 1.74957,-0.5"/>
<text text-anchor="middle" x="53.7496" y="-8.5" font-family="Helvetica,sans-Serif" font-size="10.00">core/MojNoCopy.h</text>
</a>
</g>
<!-- Node8&#45;&gt;Node9 -->
<g id="edge16" class="edge"><title>Node8&#45;&gt;Node9</title>
<path fill="none" stroke="midnightblue" d="M97.0286,-58.3619C89.5575,-50.1861 79.0639,-38.7025 70.2807,-29.0907"/>
<polygon fill="midnightblue" stroke="midnightblue" points="72.7384,-26.5918 63.409,-21.5707 67.571,-31.3138 72.7384,-26.5918"/>
</g>
<!-- Node11 -->
<g id="node21" class="node"><title>Node11</title>
<a xlink:href="MojOsInternal_8h.htm" target="_top" xlink:title="core/internal/MojOsInternal.h">
<polygon fill="white" stroke="black" points="294.75,-116.5 294.75,-137.5 448.75,-137.5 448.75,-116.5 294.75,-116.5"/>
<text text-anchor="middle" x="371.75" y="-124.5" font-family="Helvetica,sans-Serif" font-size="10.00">core/internal/MojOsInternal.h</text>
</a>
</g>
<!-- Node10&#45;&gt;Node11 -->
<g id="edge20" class="edge"><title>Node10&#45;&gt;Node11</title>
<path fill="none" stroke="midnightblue" d="M371.75,-174.362C371.75,-166.922 371.75,-156.743 371.75,-147.728"/>
<polygon fill="midnightblue" stroke="midnightblue" points="375.25,-147.571 371.75,-137.571 368.25,-147.571 375.25,-147.571"/>
</g>
<!-- Node12&#45;&gt;Node2 -->
<g id="edge24" class="edge"><title>Node12&#45;&gt;Node2</title>
<path fill="none" stroke="midnightblue" d="M204.357,-427.408C199.334,-409.621 192.004,-373.227 206.75,-348 233.262,-302.644 260.952,-309.465 309.75,-290 348.828,-274.412 394.608,-262.802 431.091,-255.02"/>
<polygon fill="midnightblue" stroke="midnightblue" points="432.047,-258.396 441.121,-252.927 430.617,-251.544 432.047,-258.396"/>
</g>
<!-- Node12&#45;&gt;Node9 -->
<g id="edge30" class="edge"><title>Node12&#45;&gt;Node9</title>
<path fill="none" stroke="midnightblue" d="M156.873,-429.289C108.153,-419.928 39.3796,-403.705 20.7496,-384 -5.24872,-356.501 1.74957,-338.843 1.74957,-301 1.74957,-301 1.74957,-301 1.74957,-127 1.74957,-90.1452 23.8762,-52.0127 39.2625,-29.9516"/>
<polygon fill="midnightblue" stroke="midnightblue" points="42.1384,-31.9476 45.1628,-21.7936 36.4664,-27.8453 42.1384,-31.9476"/>
</g>
<!-- Node13 -->
<g id="node26" class="node"><title>Node13</title>
<a xlink:href="MojAtomicInt_8h.htm" target="_top" xlink:title="core/MojAtomicInt.h">
<polygon fill="white" stroke="black" points="215.75,-355.5 215.75,-376.5 325.75,-376.5 325.75,-355.5 215.75,-355.5"/>
<text text-anchor="middle" x="270.75" y="-363.5" font-family="Helvetica,sans-Serif" font-size="10.00">core/MojAtomicInt.h</text>
</a>
</g>
<!-- Node12&#45;&gt;Node13 -->
<g id="edge26" class="edge"><title>Node12&#45;&gt;Node13</title>
<path fill="none" stroke="midnightblue" d="M217.045,-427.376C226.909,-416.103 242.684,-398.075 254.59,-384.468"/>
<polygon fill="midnightblue" stroke="midnightblue" points="257.465,-386.498 261.416,-376.667 252.196,-381.888 257.465,-386.498"/>
</g>
<!-- Node14 -->
<g id="node30" class="node"><title>Node14</title>
<a xlink:href="MojAutoPtrInternal_8h.htm" target="_top" xlink:title="core/internal/MojAutoPtr\lInternal.h">
<polygon fill="white" stroke="black" points="29.2496,-349 29.2496,-383 160.25,-383 160.25,-349 29.2496,-349"/>
<text text-anchor="start" x="37.2496" y="-370" font-family="Helvetica,sans-Serif" font-size="10.00">core/internal/MojAutoPtr</text>
<text text-anchor="middle" x="94.7496" y="-357" font-family="Helvetica,sans-Serif" font-size="10.00">Internal.h</text>
</a>
</g>
<!-- Node12&#45;&gt;Node14 -->
<g id="edge32" class="edge"><title>Node12&#45;&gt;Node14</title>
<path fill="none" stroke="midnightblue" d="M191.076,-427.376C175.139,-417.222 150.602,-401.587 130.281,-388.639"/>
<polygon fill="midnightblue" stroke="midnightblue" points="131.893,-385.516 121.578,-383.094 128.131,-391.42 131.893,-385.516"/>
</g>
<!-- Node13&#45;&gt;Node2 -->
<g id="edge28" class="edge"><title>Node13&#45;&gt;Node2</title>
<path fill="none" stroke="midnightblue" d="M277.47,-355.495C288.499,-339.095 312.007,-307.481 339.75,-290 367.324,-272.625 401.657,-261.389 431.178,-254.277"/>
<polygon fill="midnightblue" stroke="midnightblue" points="432.028,-257.673 440.989,-252.02 430.459,-250.851 432.028,-257.673"/>
</g>
<!-- Node15&#45;&gt;Node2 -->
<g id="edge36" class="edge"><title>Node15&#45;&gt;Node2</title>
<path fill="none" stroke="midnightblue" d="M723.75,-550.47C723.75,-529.211 723.75,-479.641 723.75,-438 723.75,-438 723.75,-438 723.75,-366 723.75,-292.029 629.417,-262.313 562.373,-250.535"/>
<polygon fill="midnightblue" stroke="midnightblue" points="562.718,-247.044 552.28,-248.859 561.572,-253.95 562.718,-247.044"/>
</g>
<!-- Node16 -->
<g id="node35" class="node"><title>Node16</title>
<a xlink:href="MojListInternal_8h.htm" target="_top" xlink:title="core/internal/MojListInternal.h">
<polygon fill="white" stroke="black" points="751.25,-492.5 751.25,-513.5 908.25,-513.5 908.25,-492.5 751.25,-492.5"/>
<text text-anchor="middle" x="829.75" y="-500.5" font-family="Helvetica,sans-Serif" font-size="10.00">core/internal/MojListInternal.h</text>
</a>
</g>
<!-- Node15&#45;&gt;Node16 -->
<g id="edge38" class="edge"><title>Node15&#45;&gt;Node16</title>
<path fill="none" stroke="midnightblue" d="M743.192,-550.362C759.553,-541.409 783.163,-528.491 801.593,-518.406"/>
<polygon fill="midnightblue" stroke="midnightblue" points="803.338,-521.441 810.431,-513.571 799.978,-515.3 803.338,-521.441"/>
</g>
<!-- Node17&#45;&gt;Node2 -->
<g id="edge42" class="edge"><title>Node17&#45;&gt;Node2</title>
<path fill="none" stroke="midnightblue" d="M595.925,-550.392C627.681,-532.071 685.75,-491.285 685.75,-438 685.75,-438 685.75,-438 685.75,-366 685.75,-304.324 614.173,-271.977 559.116,-256.218"/>
<polygon fill="midnightblue" stroke="midnightblue" points="559.966,-252.822 549.397,-253.556 558.117,-259.573 559.966,-252.822"/>
</g>
<!-- Node18 -->
<g id="node40" class="node"><title>Node18</title>
<a xlink:href="MojComp_8h.htm" target="_top" xlink:title="core/MojComp.h">
<polygon fill="white" stroke="black" points="449.75,-290.5 449.75,-311.5 543.75,-311.5 543.75,-290.5 449.75,-290.5"/>
<text text-anchor="middle" x="496.75" y="-298.5" font-family="Helvetica,sans-Serif" font-size="10.00">core/MojComp.h</text>
</a>
</g>
<!-- Node17&#45;&gt;Node18 -->
<g id="edge44" class="edge"><title>Node17&#45;&gt;Node18</title>
<path fill="none" stroke="midnightblue" d="M527.497,-550.426C493.099,-541.796 451.173,-528.666 440.75,-514 404.008,-462.304 497.943,-495.655 530.75,-456 561.603,-418.706 563.507,-392.619 544.75,-348 539.785,-336.192 530.246,-325.865 520.971,-317.921"/>
<polygon fill="midnightblue" stroke="midnightblue" points="523.011,-315.072 513.01,-311.577 518.649,-320.547 523.011,-315.072"/>
</g>
<!-- Node19 -->
<g id="node43" class="node"><title>Node19</title>
<a xlink:href="MojRefCount_8h.htm" target="_top" xlink:title="core/MojRefCount.h">
<polygon fill="white" stroke="black" points="283.75,-492.5 283.75,-513.5 393.75,-513.5 393.75,-492.5 283.75,-492.5"/>
<text text-anchor="middle" x="338.75" y="-500.5" font-family="Helvetica,sans-Serif" font-size="10.00">core/MojRefCount.h</text>
</a>
</g>
<!-- Node17&#45;&gt;Node19 -->
<g id="edge48" class="edge"><title>Node17&#45;&gt;Node19</title>
<path fill="none" stroke="midnightblue" d="M532.831,-550.497C493.19,-540.795 434.182,-526.355 391.644,-515.945"/>
<polygon fill="midnightblue" stroke="midnightblue" points="392.294,-512.501 381.749,-513.523 390.63,-519.3 392.294,-512.501"/>
</g>
<!-- Node22 -->
<g id="node53" class="node"><title>Node22</title>
<a xlink:href="MojUtil_8h.htm" target="_top" xlink:title="core/MojUtil.h">
<polygon fill="white" stroke="black" points="577.25,-427.5 577.25,-448.5 658.25,-448.5 658.25,-427.5 577.25,-427.5"/>
<text text-anchor="middle" x="617.75" y="-435.5" font-family="Helvetica,sans-Serif" font-size="10.00">core/MojUtil.h</text>
</a>
</g>
<!-- Node17&#45;&gt;Node22 -->
<g id="edge62" class="edge"><title>Node17&#45;&gt;Node22</title>
<path fill="none" stroke="midnightblue" d="M594.184,-550.467C606.498,-542.287 621.687,-529.702 628.75,-514 636.779,-496.147 631.979,-473.77 626.425,-457.934"/>
<polygon fill="midnightblue" stroke="midnightblue" points="629.676,-456.638 622.793,-448.584 623.151,-459.173 629.676,-456.638"/>
</g>
<!-- Node23 -->
<g id="node57" class="node"><title>Node23</title>
<a xlink:href="MojVectorInternal_8h.htm" target="_top" xlink:title="core/internal/MojVectorInternal.h">
<polygon fill="white" stroke="black" points="449.25,-492.5 449.25,-513.5 620.25,-513.5 620.25,-492.5 449.25,-492.5"/>
<text text-anchor="middle" x="534.75" y="-500.5" font-family="Helvetica,sans-Serif" font-size="10.00">core/internal/MojVectorInternal.h</text>
</a>
</g>
<!-- Node17&#45;&gt;Node23 -->
<g id="edge68" class="edge"><title>Node17&#45;&gt;Node23</title>
<path fill="none" stroke="midnightblue" d="M568.23,-550.362C562.623,-542.431 554.817,-531.389 548.153,-521.961"/>
<polygon fill="midnightblue" stroke="midnightblue" points="550.852,-519.716 542.222,-513.571 545.136,-523.757 550.852,-519.716"/>
</g>
<!-- Node18&#45;&gt;Node2 -->
<g id="edge46" class="edge"><title>Node18&#45;&gt;Node2</title>
<path fill="none" stroke="midnightblue" d="M496.75,-290.362C496.75,-282.922 496.75,-272.743 496.75,-263.728"/>
<polygon fill="midnightblue" stroke="midnightblue" points="500.25,-263.571 496.75,-253.571 493.25,-263.571 500.25,-263.571"/>
</g>
<!-- Node19&#45;&gt;Node2 -->
<g id="edge50" class="edge"><title>Node19&#45;&gt;Node2</title>
<path fill="none" stroke="midnightblue" d="M338.81,-492.378C339.415,-466.006 343.842,-396.196 372.75,-348 396.316,-308.708 439.894,-277.008 468.603,-259.083"/>
<polygon fill="midnightblue" stroke="midnightblue" points="470.635,-261.943 477.358,-253.755 466.996,-255.964 470.635,-261.943"/>
</g>
<!-- Node19&#45;&gt;Node12 -->
<g id="edge54" class="edge"><title>Node19&#45;&gt;Node12</title>
<path fill="none" stroke="midnightblue" d="M317.411,-492.412C295.905,-481.741 262.511,-465.172 238.222,-453.12"/>
<polygon fill="midnightblue" stroke="midnightblue" points="239.593,-449.893 229.079,-448.584 236.482,-456.164 239.593,-449.893"/>
</g>
<!-- Node19&#45;&gt;Node13 -->
<g id="edge52" class="edge"><title>Node19&#45;&gt;Node13</title>
<path fill="none" stroke="midnightblue" d="M333.414,-492.25C322.043,-469.341 295.274,-415.409 280.673,-385.992"/>
<polygon fill="midnightblue" stroke="midnightblue" points="283.642,-384.101 276.061,-376.7 277.372,-387.214 283.642,-384.101"/>
</g>
<!-- Node20 -->
<g id="node48" class="node"><title>Node20</title>
<a xlink:href="MojRefCountInternal_8h.htm" target="_top" xlink:title="core/internal/MojRefCount\lInternal.h">
<polygon fill="white" stroke="black" points="381.75,-421 381.75,-455 521.75,-455 521.75,-421 381.75,-421"/>
<text text-anchor="start" x="389.75" y="-442" font-family="Helvetica,sans-Serif" font-size="10.00">core/internal/MojRefCount</text>
<text text-anchor="middle" x="451.75" y="-429" font-family="Helvetica,sans-Serif" font-size="10.00">Internal.h</text>
</a>
</g>
<!-- Node19&#45;&gt;Node20 -->
<g id="edge56" class="edge"><title>Node19&#45;&gt;Node20</title>
<path fill="none" stroke="midnightblue" d="M357.156,-492.412C372.273,-483.716 394.2,-471.104 413.137,-460.211"/>
<polygon fill="midnightblue" stroke="midnightblue" points="414.948,-463.207 421.871,-455.187 411.457,-457.139 414.948,-463.207"/>
</g>
<!-- Node21 -->
<g id="node50" class="node"><title>Node21</title>
<a xlink:href="MojUtilInternal_8h.htm" target="_top" xlink:title="core/internal/MojUtilInternal.h">
<polygon fill="white" stroke="black" points="381.25,-355.5 381.25,-376.5 536.25,-376.5 536.25,-355.5 381.25,-355.5"/>
<text text-anchor="middle" x="458.75" y="-363.5" font-family="Helvetica,sans-Serif" font-size="10.00">core/internal/MojUtilInternal.h</text>
</a>
</g>
<!-- Node20&#45;&gt;Node21 -->
<g id="edge58" class="edge"><title>Node20&#45;&gt;Node21</title>
<path fill="none" stroke="midnightblue" d="M453.408,-420.937C454.393,-410.814 455.648,-397.898 456.695,-387.133"/>
<polygon fill="midnightblue" stroke="midnightblue" points="460.206,-387.193 457.69,-376.901 453.238,-386.515 460.206,-387.193"/>
</g>
<!-- Node21&#45;&gt;Node18 -->
<g id="edge60" class="edge"><title>Node21&#45;&gt;Node18</title>
<path fill="none" stroke="midnightblue" d="M465.025,-355.267C470.558,-345.801 478.757,-331.777 485.433,-320.357"/>
<polygon fill="midnightblue" stroke="midnightblue" points="488.566,-321.933 490.591,-311.534 482.523,-318.4 488.566,-321.933"/>
</g>
<!-- Node22&#45;&gt;Node2 -->
<g id="edge64" class="edge"><title>Node22&#45;&gt;Node2</title>
<path fill="none" stroke="midnightblue" d="M614.938,-427.458C607.769,-401.938 586.917,-335.585 552.75,-290 544.04,-278.38 531.93,-267.758 521.198,-259.564"/>
<polygon fill="midnightblue" stroke="midnightblue" points="523.113,-256.628 512.979,-253.54 518.975,-262.274 523.113,-256.628"/>
</g>
<!-- Node22&#45;&gt;Node21 -->
<g id="edge66" class="edge"><title>Node22&#45;&gt;Node21</title>
<path fill="none" stroke="midnightblue" d="M594.289,-427.376C567.085,-415.057 522.069,-394.673 491.444,-380.805"/>
<polygon fill="midnightblue" stroke="midnightblue" points="492.601,-377.487 482.048,-376.55 489.714,-383.864 492.601,-377.487"/>
</g>
</g>
</svg>
