<?xml version="1.0" encoding="UTF-8" standalone="no"?>
<!DOCTYPE svg PUBLIC "-//W3C//DTD SVG 1.1//EN"
 "http://www.w3.org/Graphics/SVG/1.1/DTD/svg11.dtd">
<!-- Generated by graphviz version 2.26.3 (20100126.1600)
 -->
<!-- Title: MojConfigUnix.h Pages: 1 -->
<svg width="216pt" height="88pt"
 viewBox="0.00 0.00 216.00 88.00" xmlns="http://www.w3.org/2000/svg" xmlns:xlink="http://www.w3.org/1999/xlink">
<g id="graph1" class="graph" transform="scale(1 1) rotate(0) translate(4 84)">
<title>MojConfigUnix.h</title>
<polygon fill="white" stroke="white" points="-4,5 -4,-84 213,-84 213,5 -4,5"/>
<!-- Node1 -->
<g id="node1" class="node"><title>Node1</title>
<polygon fill="#bfbfbf" stroke="black" points="58,-58.5 58,-79.5 152,-79.5 152,-58.5 58,-58.5"/>
<text text-anchor="middle" x="105" y="-66.5" font-family="Helvetica,sans-Serif" font-size="10.00">MojConfigUnix.h</text>
</g>
<!-- Node2 -->
<g id="node3" class="node"><title>Node2</title>
<a xlink:href="MojConfigLinux_8h.htm" target="_top" xlink:title="MojConfigLinux.h">
<polygon fill="white" stroke="black" points="0,-0.5 0,-21.5 98,-21.5 98,-0.5 0,-0.5"/>
<text text-anchor="middle" x="49" y="-8.5" font-family="Helvetica,sans-Serif" font-size="10.00">MojConfigLinux.h</text>
</a>
</g>
<!-- Node1&#45;&gt;Node2 -->
<g id="edge2" class="edge"><title>Node1&#45;&gt;Node2</title>
<path fill="none" stroke="midnightblue" d="M87.7346,-51.118C78.3882,-41.4377 67.1612,-29.8098 59.2061,-21.5707"/>
<polygon fill="midnightblue" stroke="midnightblue" points="85.2648,-53.599 94.7287,-58.3619 90.3007,-48.7368 85.2648,-53.599"/>
</g>
<!-- Node3 -->
<g id="node5" class="node"><title>Node3</title>
<a xlink:href="MojConfigMac_8h.htm" target="_top" xlink:title="MojConfigMac.h">
<polygon fill="white" stroke="black" points="115.5,-0.5 115.5,-21.5 208.5,-21.5 208.5,-0.5 115.5,-0.5"/>
<text text-anchor="middle" x="162" y="-8.5" font-family="Helvetica,sans-Serif" font-size="10.00">MojConfigMac.h</text>
</a>
</g>
<!-- Node1&#45;&gt;Node3 -->
<g id="edge4" class="edge"><title>Node1&#45;&gt;Node3</title>
<path fill="none" stroke="midnightblue" d="M122.574,-51.118C132.087,-41.4377 143.514,-29.8098 151.612,-21.5707"/>
<polygon fill="midnightblue" stroke="midnightblue" points="119.968,-48.7763 115.455,-58.3619 124.96,-53.6829 119.968,-48.7763"/>
</g>
</g>
</svg>
