<?xml version="1.0" encoding="UTF-8" standalone="no"?>
<!DOCTYPE svg PUBLIC "-//W3C//DTD SVG 1.1//EN"
 "http://www.w3.org/Graphics/SVG/1.1/DTD/svg11.dtd">
<!-- Generated by graphviz version 2.26.3 (20100126.1600)
 -->
<!-- Title: MojDbIndex.cpp Pages: 1 -->
<svg width="3322pt" height="798pt"
 viewBox="0.00 0.00 3322.00 798.00" xmlns="http://www.w3.org/2000/svg" xmlns:xlink="http://www.w3.org/1999/xlink">
<g id="graph1" class="graph" transform="scale(1 1) rotate(0) translate(4 794)">
<title>MojDbIndex.cpp</title>
<polygon fill="white" stroke="white" points="-4,5 -4,-794 3319,-794 3319,5 -4,5"/>
<!-- Node1 -->
<g id="node1" class="node"><title>Node1</title>
<polygon fill="#bfbfbf" stroke="black" points="2500,-768.5 2500,-789.5 2592,-789.5 2592,-768.5 2500,-768.5"/>
<text text-anchor="middle" x="2546" y="-776.5" font-family="Helvetica,sans-Serif" font-size="10.00">MojDbIndex.cpp</text>
</g>
<!-- Node2 -->
<g id="node3" class="node"><title>Node2</title>
<a xlink:href="MojDbIndex_8h.htm" target="_top" xlink:title="db/MojDbIndex.h">
<polygon fill="white" stroke="black" points="1713.5,-652.5 1713.5,-673.5 1808.5,-673.5 1808.5,-652.5 1713.5,-652.5"/>
<text text-anchor="middle" x="1761" y="-660.5" font-family="Helvetica,sans-Serif" font-size="10.00">db/MojDbIndex.h</text>
</a>
</g>
<!-- Node1&#45;&gt;Node2 -->
<g id="edge2" class="edge"><title>Node1&#45;&gt;Node2</title>
<path fill="none" stroke="midnightblue" d="M2499.83,-772.177C2364.39,-752.163 1968.32,-693.635 1818.93,-671.56"/>
<polygon fill="midnightblue" stroke="midnightblue" points="1819.01,-668.034 1808.6,-670.035 1817.99,-674.959 1819.01,-668.034"/>
</g>
<!-- Node7 -->
<g id="node15" class="node"><title>Node7</title>
<a xlink:href="MojObject_8h.htm" target="_top" xlink:title="core/MojObject.h">
<polygon fill="white" stroke="black" points="2557,-304.5 2557,-325.5 2653,-325.5 2653,-304.5 2557,-304.5"/>
<text text-anchor="middle" x="2605" y="-312.5" font-family="Helvetica,sans-Serif" font-size="10.00">core/MojObject.h</text>
</a>
</g>
<!-- Node1&#45;&gt;Node7 -->
<g id="edge322" class="edge"><title>Node1&#45;&gt;Node7</title>
<path fill="none" stroke="midnightblue" d="M2592.42,-778.125C2716.94,-774.529 3049,-756.203 3049,-663 3049,-663 3049,-663 3049,-489 3049,-432.528 3083.41,-403.4 3045,-362 3019.51,-334.522 2777.18,-321.625 2663.43,-317.046"/>
<polygon fill="midnightblue" stroke="midnightblue" points="2663.29,-313.538 2653.16,-316.642 2663.01,-320.533 2663.29,-313.538"/>
</g>
<!-- Node28 -->
<g id="node88" class="node"><title>Node28</title>
<a xlink:href="MojDbQueryPlan_8h.htm" target="_top" xlink:title="db/MojDbQueryPlan.h">
<polygon fill="white" stroke="black" points="1837.5,-478.5 1837.5,-499.5 1956.5,-499.5 1956.5,-478.5 1837.5,-478.5"/>
<text text-anchor="middle" x="1897" y="-486.5" font-family="Helvetica,sans-Serif" font-size="10.00">db/MojDbQueryPlan.h</text>
</a>
</g>
<!-- Node1&#45;&gt;Node28 -->
<g id="edge320" class="edge"><title>Node1&#45;&gt;Node28</title>
<path fill="none" stroke="midnightblue" d="M2564.47,-768.468C2584.31,-755.683 2611.54,-732.97 2600,-710 2580.6,-671.4 2560.95,-670.684 2522,-652 2332.64,-561.168 2085.82,-515.997 1966.98,-498.293"/>
<polygon fill="midnightblue" stroke="midnightblue" points="1967.32,-494.806 1956.92,-496.815 1966.3,-501.731 1967.32,-494.806"/>
</g>
<!-- Node35 -->
<g id="node128" class="node"><title>Node35</title>
<a xlink:href="MojDb_8h.htm" target="_top" xlink:title="db/MojDb.h">
<polygon fill="white" stroke="black" points="615.5,-710.5 615.5,-731.5 684.5,-731.5 684.5,-710.5 615.5,-710.5"/>
<text text-anchor="middle" x="650" y="-718.5" font-family="Helvetica,sans-Serif" font-size="10.00">db/MojDb.h</text>
</a>
</g>
<!-- Node1&#45;&gt;Node35 -->
<g id="edge186" class="edge"><title>Node1&#45;&gt;Node35</title>
<path fill="none" stroke="midnightblue" d="M2499.6,-777.581C2238.16,-769.583 951.5,-730.223 694.658,-722.366"/>
<polygon fill="midnightblue" stroke="midnightblue" points="694.678,-718.865 684.576,-722.058 694.464,-725.862 694.678,-718.865"/>
</g>
<!-- Node36 -->
<g id="node131" class="node"><title>Node36</title>
<a xlink:href="MojDbCursor_8h.htm" target="_top" xlink:title="db/MojDbCursor.h">
<polygon fill="white" stroke="black" points="777.5,-652.5 777.5,-673.5 878.5,-673.5 878.5,-652.5 777.5,-652.5"/>
<text text-anchor="middle" x="828" y="-660.5" font-family="Helvetica,sans-Serif" font-size="10.00">db/MojDbCursor.h</text>
</a>
</g>
<!-- Node1&#45;&gt;Node36 -->
<g id="edge274" class="edge"><title>Node1&#45;&gt;Node36</title>
<path fill="none" stroke="midnightblue" d="M2499.6,-775.867C2259.61,-759.663 1159.83,-685.406 888.596,-667.091"/>
<polygon fill="midnightblue" stroke="midnightblue" points="888.76,-663.595 878.547,-666.413 888.289,-670.579 888.76,-663.595"/>
</g>
<!-- Node45 -->
<g id="node183" class="node"><title>Node45</title>
<a xlink:href="MojDbKind_8h.htm" target="_top" xlink:title="db/MojDbKind.h">
<polygon fill="white" stroke="black" points="2501,-710.5 2501,-731.5 2591,-731.5 2591,-710.5 2501,-710.5"/>
<text text-anchor="middle" x="2546" y="-718.5" font-family="Helvetica,sans-Serif" font-size="10.00">db/MojDbKind.h</text>
</a>
</g>
<!-- Node1&#45;&gt;Node45 -->
<g id="edge276" class="edge"><title>Node1&#45;&gt;Node45</title>
<path fill="none" stroke="midnightblue" d="M2546,-768.362C2546,-760.922 2546,-750.743 2546,-741.728"/>
<polygon fill="midnightblue" stroke="midnightblue" points="2549.5,-741.571 2546,-731.571 2542.5,-741.571 2549.5,-741.571"/>
</g>
<!-- Node49 -->
<g id="node211" class="node"><title>Node49</title>
<a xlink:href="MojObjectSerialization_8h.htm" target="_top" xlink:title="core/MojObjectSerialization.h">
<polygon fill="white" stroke="black" points="3077,-420.5 3077,-441.5 3231,-441.5 3231,-420.5 3077,-420.5"/>
<text text-anchor="middle" x="3154" y="-428.5" font-family="Helvetica,sans-Serif" font-size="10.00">core/MojObjectSerialization.h</text>
</a>
</g>
<!-- Node1&#45;&gt;Node49 -->
<g id="edge324" class="edge"><title>Node1&#45;&gt;Node49</title>
<path fill="none" stroke="midnightblue" d="M2592.33,-776.822C2711.44,-770.936 3021.9,-753.686 3063,-732 3098.18,-713.438 3120,-702.777 3120,-663 3120,-663 3120,-663 3120,-547 3120,-512.058 3134.38,-473.499 3144.44,-450.809"/>
<polygon fill="midnightblue" stroke="midnightblue" points="3147.69,-452.118 3148.69,-441.57 3141.33,-449.193 3147.69,-452.118"/>
</g>
<!-- Node3 -->
<g id="node5" class="node"><title>Node3</title>
<a xlink:href="MojDbDefs_8h.htm" target="_top" xlink:title="db/MojDbDefs.h">
<polygon fill="white" stroke="black" points="1165.5,-304.5 1165.5,-325.5 1256.5,-325.5 1256.5,-304.5 1165.5,-304.5"/>
<text text-anchor="middle" x="1211" y="-312.5" font-family="Helvetica,sans-Serif" font-size="10.00">db/MojDbDefs.h</text>
</a>
</g>
<!-- Node2&#45;&gt;Node3 -->
<g id="edge4" class="edge"><title>Node2&#45;&gt;Node3</title>
<path fill="none" stroke="midnightblue" d="M1747.61,-652.37C1701.58,-616.176 1544.74,-495.792 1401,-420 1362.53,-399.714 1348.32,-404.573 1310,-384 1281.54,-368.721 1251.45,-346.817 1232.02,-331.811"/>
<polygon fill="midnightblue" stroke="midnightblue" points="1234.16,-329.047 1224.13,-325.646 1229.85,-334.562 1234.16,-329.047"/>
</g>
<!-- Node5 -->
<g id="node9" class="node"><title>Node5</title>
<a xlink:href="MojDbExtractor_8h.htm" target="_top" xlink:title="db/MojDbExtractor.h">
<polygon fill="white" stroke="black" points="2101,-420.5 2101,-441.5 2213,-441.5 2213,-420.5 2101,-420.5"/>
<text text-anchor="middle" x="2157" y="-428.5" font-family="Helvetica,sans-Serif" font-size="10.00">db/MojDbExtractor.h</text>
</a>
</g>
<!-- Node2&#45;&gt;Node5 -->
<g id="edge8" class="edge"><title>Node2&#45;&gt;Node5</title>
<path fill="none" stroke="midnightblue" d="M1805.62,-652.494C1904.83,-628.141 2138.47,-564.934 2183,-500 2193.55,-484.612 2183.66,-464.38 2173.18,-449.808"/>
<polygon fill="midnightblue" stroke="midnightblue" points="2175.67,-447.3 2166.76,-441.56 2170.14,-451.601 2175.67,-447.3"/>
</g>
<!-- Node17 -->
<g id="node48" class="node"><title>Node17</title>
<a xlink:href="MojSet_8h.htm" target="_top" xlink:title="core/MojSet.h">
<polygon fill="white" stroke="black" points="2188,-304.5 2188,-325.5 2270,-325.5 2270,-304.5 2188,-304.5"/>
<text text-anchor="middle" x="2229" y="-312.5" font-family="Helvetica,sans-Serif" font-size="10.00">core/MojSet.h</text>
</a>
</g>
<!-- Node2&#45;&gt;Node17 -->
<g id="edge182" class="edge"><title>Node2&#45;&gt;Node17</title>
<path fill="none" stroke="midnightblue" d="M1776.64,-652.444C1814.26,-626.953 1912.55,-559.725 1992,-500 2037.5,-465.799 2040.42,-444.068 2092,-420 2165.54,-385.685 2219.59,-446.783 2271,-384 2284.36,-367.683 2267.53,-346.724 2251.37,-332.209"/>
<polygon fill="midnightblue" stroke="midnightblue" points="2253.52,-329.441 2243.62,-325.649 2248.99,-334.783 2253.52,-329.441"/>
</g>
<!-- Node23 -->
<g id="node69" class="node"><title>Node23</title>
<a xlink:href="MojThread_8h.htm" target="_top" xlink:title="core/MojThread.h">
<polygon fill="white" stroke="black" points="720.5,-304.5 720.5,-325.5 821.5,-325.5 821.5,-304.5 720.5,-304.5"/>
<text text-anchor="middle" x="771" y="-312.5" font-family="Helvetica,sans-Serif" font-size="10.00">core/MojThread.h</text>
</a>
</g>
<!-- Node2&#45;&gt;Node23 -->
<g id="edge184" class="edge"><title>Node2&#45;&gt;Node23</title>
<path fill="none" stroke="midnightblue" d="M1754.28,-652.258C1744.26,-637.111 1724,-609.587 1700,-594 1682,-582.311 983.671,-367.777 963,-362 917.794,-349.366 866.085,-336.816 827.727,-327.866"/>
<polygon fill="midnightblue" stroke="midnightblue" points="828.31,-324.408 817.777,-325.556 826.726,-331.227 828.31,-324.408"/>
</g>
<!-- Node26 -->
<g id="node82" class="node"><title>Node26</title>
<a xlink:href="MojDbStorageEngine_8h.htm" target="_top" xlink:title="db/MojDbStorageEngine.h">
<polygon fill="white" stroke="black" points="758,-594.5 758,-615.5 898,-615.5 898,-594.5 758,-594.5"/>
<text text-anchor="middle" x="828" y="-602.5" font-family="Helvetica,sans-Serif" font-size="10.00">db/MojDbStorageEngine.h</text>
</a>
</g>
<!-- Node2&#45;&gt;Node26 -->
<g id="edge112" class="edge"><title>Node2&#45;&gt;Node26</title>
<path fill="none" stroke="midnightblue" d="M1713.45,-660.044C1563.13,-650.699 1097.01,-621.723 908.422,-609.999"/>
<polygon fill="midnightblue" stroke="midnightblue" points="908.496,-606.497 898.298,-609.37 908.062,-613.484 908.496,-606.497"/>
</g>
<!-- Node27 -->
<g id="node85" class="node"><title>Node27</title>
<a xlink:href="MojDbWatcher_8h.htm" target="_top" xlink:title="db/MojDbWatcher.h">
<polygon fill="white" stroke="black" points="1016.5,-536.5 1016.5,-557.5 1125.5,-557.5 1125.5,-536.5 1016.5,-536.5"/>
<text text-anchor="middle" x="1071" y="-544.5" font-family="Helvetica,sans-Serif" font-size="10.00">db/MojDbWatcher.h</text>
</a>
</g>
<!-- Node2&#45;&gt;Node27 -->
<g id="edge180" class="edge"><title>Node2&#45;&gt;Node27</title>
<path fill="none" stroke="midnightblue" d="M1713.3,-659.953C1634.48,-654.418 1472.3,-640.913 1337,-616 1257.66,-601.39 1167.07,-575.974 1114.71,-560.404"/>
<polygon fill="midnightblue" stroke="midnightblue" points="1115.66,-557.035 1105.08,-557.521 1113.66,-563.741 1115.66,-557.035"/>
</g>
<!-- Node4 -->
<g id="node7" class="node"><title>Node4</title>
<a xlink:href="MojCoreDefs_8h.htm" target="_top" xlink:title="core/MojCoreDefs.h">
<polygon fill="white" stroke="red" points="1754.5,-0.5 1754.5,-21.5 1865.5,-21.5 1865.5,-0.5 1754.5,-0.5"/>
<text text-anchor="middle" x="1810" y="-8.5" font-family="Helvetica,sans-Serif" font-size="10.00">core/MojCoreDefs.h</text>
</a>
</g>
<!-- Node3&#45;&gt;Node4 -->
<g id="edge6" class="edge"><title>Node3&#45;&gt;Node4</title>
<path fill="none" stroke="midnightblue" d="M1193.58,-304.248C1126.63,-262.335 892.042,-109.678 941,-58 968.531,-28.9399 1546.19,-15.7817 1744.13,-12.1143"/>
<polygon fill="midnightblue" stroke="midnightblue" points="1744.45,-15.6091 1754.39,-11.9265 1744.33,-8.61028 1744.45,-15.6091"/>
</g>
<!-- Node5&#45;&gt;Node3 -->
<g id="edge10" class="edge"><title>Node5&#45;&gt;Node3</title>
<path fill="none" stroke="midnightblue" d="M2100.99,-421.117C2017.24,-406.598 1854.3,-379.352 1715,-362 1552.56,-341.767 1359.68,-326.095 1266.66,-319.058"/>
<polygon fill="midnightblue" stroke="midnightblue" points="1266.86,-315.564 1256.62,-318.304 1266.33,-322.544 1266.86,-315.564"/>
</g>
<!-- Node6 -->
<g id="node12" class="node"><title>Node6</title>
<a xlink:href="MojDbKey_8h.htm" target="_top" xlink:title="db/MojDbKey.h">
<polygon fill="white" stroke="red" points="2355.5,-362.5 2355.5,-383.5 2442.5,-383.5 2442.5,-362.5 2355.5,-362.5"/>
<text text-anchor="middle" x="2399" y="-370.5" font-family="Helvetica,sans-Serif" font-size="10.00">db/MojDbKey.h</text>
</a>
</g>
<!-- Node5&#45;&gt;Node6 -->
<g id="edge12" class="edge"><title>Node5&#45;&gt;Node6</title>
<path fill="none" stroke="midnightblue" d="M2200.82,-420.497C2241.39,-410.775 2301.81,-396.294 2345.26,-385.879"/>
<polygon fill="midnightblue" stroke="midnightblue" points="2346.18,-389.257 2355.09,-383.523 2344.55,-382.45 2346.18,-389.257"/>
</g>
<!-- Node5&#45;&gt;Node7 -->
<g id="edge108" class="edge"><title>Node5&#45;&gt;Node7</title>
<path fill="none" stroke="midnightblue" d="M2213.36,-427.083C2317.28,-419.476 2531.14,-401.872 2560,-384 2578.15,-372.758 2590.44,-351.161 2597.52,-335.11"/>
<polygon fill="midnightblue" stroke="midnightblue" points="2600.9,-336.109 2601.44,-325.528 2594.42,-333.46 2600.9,-336.109"/>
</g>
<!-- Node5&#45;&gt;Node17 -->
<g id="edge110" class="edge"><title>Node5&#45;&gt;Node17</title>
<path fill="none" stroke="midnightblue" d="M2211.82,-420.48C2248.78,-412.144 2292.78,-399.364 2304,-384 2319.59,-362.653 2291.44,-342.724 2265.3,-329.827"/>
<polygon fill="midnightblue" stroke="midnightblue" points="2266.75,-326.642 2256.21,-325.568 2263.78,-332.98 2266.75,-326.642"/>
</g>
<!-- Node19 -->
<g id="node56" class="node"><title>Node19</title>
<a xlink:href="MojDbTextCollator_8h.htm" target="_top" xlink:title="db/MojDbTextCollator.h">
<polygon fill="white" stroke="red" points="1579.5,-362.5 1579.5,-383.5 1706.5,-383.5 1706.5,-362.5 1579.5,-362.5"/>
<text text-anchor="middle" x="1643" y="-370.5" font-family="Helvetica,sans-Serif" font-size="10.00">db/MojDbTextCollator.h</text>
</a>
</g>
<!-- Node5&#45;&gt;Node19 -->
<g id="edge74" class="edge"><title>Node5&#45;&gt;Node19</title>
<path fill="none" stroke="midnightblue" d="M2100.52,-424.627C2007.14,-414.09 1820.59,-393.04 1716.87,-381.336"/>
<polygon fill="midnightblue" stroke="midnightblue" points="1717.12,-377.842 1706.79,-380.198 1716.33,-384.797 1717.12,-377.842"/>
</g>
<!-- Node25 -->
<g id="node76" class="node"><title>Node25</title>
<a xlink:href="MojDbTextTokenizer_8h.htm" target="_top" xlink:title="db/MojDbTextTokenizer.h">
<polygon fill="white" stroke="red" points="1951.5,-362.5 1951.5,-383.5 2088.5,-383.5 2088.5,-362.5 1951.5,-362.5"/>
<text text-anchor="middle" x="2020" y="-370.5" font-family="Helvetica,sans-Serif" font-size="10.00">db/MojDbTextTokenizer.h</text>
</a>
</g>
<!-- Node5&#45;&gt;Node25 -->
<g id="edge102" class="edge"><title>Node5&#45;&gt;Node25</title>
<path fill="none" stroke="midnightblue" d="M2132.19,-420.497C2110.5,-411.315 2078.79,-397.889 2054.61,-387.652"/>
<polygon fill="midnightblue" stroke="midnightblue" points="2055.66,-384.297 2045.09,-383.621 2052.93,-390.743 2055.66,-384.297"/>
</g>
<!-- Node6&#45;&gt;Node3 -->
<g id="edge14" class="edge"><title>Node6&#45;&gt;Node3</title>
<path fill="none" stroke="midnightblue" d="M2355.49,-368.811C2330.74,-366.541 2299.16,-363.833 2271,-362 1887.59,-337.036 1425.27,-321.551 1267.17,-316.671"/>
<polygon fill="midnightblue" stroke="midnightblue" points="1266.86,-313.16 1256.75,-316.351 1266.64,-320.156 1266.86,-313.16"/>
</g>
<!-- Node6&#45;&gt;Node7 -->
<g id="edge16" class="edge"><title>Node6&#45;&gt;Node7</title>
<path fill="none" stroke="midnightblue" d="M2436.31,-362.497C2470.32,-352.918 2520.75,-338.72 2557.61,-328.342"/>
<polygon fill="midnightblue" stroke="midnightblue" points="2558.95,-331.602 2567.62,-325.523 2557.05,-324.864 2558.95,-331.602"/>
</g>
<!-- Node16 -->
<g id="node43" class="node"><title>Node16</title>
<a xlink:href="MojVector_8h.htm" target="_top" xlink:title="core/MojVector.h">
<polygon fill="white" stroke="red" points="2256.5,-174.5 2256.5,-195.5 2353.5,-195.5 2353.5,-174.5 2256.5,-174.5"/>
<text text-anchor="middle" x="2305" y="-182.5" font-family="Helvetica,sans-Serif" font-size="10.00">core/MojVector.h</text>
</a>
</g>
<!-- Node6&#45;&gt;Node16 -->
<g id="edge72" class="edge"><title>Node6&#45;&gt;Node16</title>
<path fill="none" stroke="midnightblue" d="M2393.68,-362.354C2378.46,-331.913 2334.58,-244.17 2314.84,-204.677"/>
<polygon fill="midnightblue" stroke="midnightblue" points="2317.87,-202.909 2310.26,-195.53 2311.61,-206.039 2317.87,-202.909"/>
</g>
<!-- Node6&#45;&gt;Node17 -->
<g id="edge62" class="edge"><title>Node6&#45;&gt;Node17</title>
<path fill="none" stroke="midnightblue" d="M2368.21,-362.497C2340.62,-353.082 2299.94,-339.204 2269.67,-328.877"/>
<polygon fill="midnightblue" stroke="midnightblue" points="2270.44,-325.44 2259.84,-325.523 2268.18,-332.065 2270.44,-325.44"/>
</g>
<!-- Node7&#45;&gt;Node4 -->
<g id="edge18" class="edge"><title>Node7&#45;&gt;Node4</title>
<path fill="none" stroke="midnightblue" d="M2652.95,-304.4C2709.23,-288.798 2795,-253.745 2795,-185 2795,-185 2795,-185 2795,-127 2795,-34.1997 2096.5,-15.4343 1875.92,-11.8219"/>
<polygon fill="midnightblue" stroke="midnightblue" points="1875.83,-8.32025 1865.78,-11.6611 1875.72,-15.3194 1875.83,-8.32025"/>
</g>
<!-- Node8 -->
<g id="node18" class="node"><title>Node8</title>
<a xlink:href="MojDecimal_8h.htm" target="_top" xlink:title="core/MojDecimal.h">
<polygon fill="white" stroke="red" points="2443,-116.5 2443,-137.5 2547,-137.5 2547,-116.5 2443,-116.5"/>
<text text-anchor="middle" x="2495" y="-124.5" font-family="Helvetica,sans-Serif" font-size="10.00">core/MojDecimal.h</text>
</a>
</g>
<!-- Node7&#45;&gt;Node8 -->
<g id="edge20" class="edge"><title>Node7&#45;&gt;Node8</title>
<path fill="none" stroke="midnightblue" d="M2602.27,-304.342C2597.88,-288.107 2588.34,-256.486 2575,-232 2557.06,-199.073 2529.37,-165.342 2511.72,-145.286"/>
<polygon fill="midnightblue" stroke="midnightblue" points="2514.1,-142.698 2504.83,-137.571 2508.88,-147.361 2514.1,-142.698"/>
</g>
<!-- Node9 -->
<g id="node21" class="node"><title>Node9</title>
<a xlink:href="MojMap_8h.htm" target="_top" xlink:title="core/MojMap.h">
<polygon fill="white" stroke="black" points="2076.5,-239.5 2076.5,-260.5 2163.5,-260.5 2163.5,-239.5 2076.5,-239.5"/>
<text text-anchor="middle" x="2120" y="-247.5" font-family="Helvetica,sans-Serif" font-size="10.00">core/MojMap.h</text>
</a>
</g>
<!-- Node7&#45;&gt;Node9 -->
<g id="edge24" class="edge"><title>Node7&#45;&gt;Node9</title>
<path fill="none" stroke="midnightblue" d="M2556.72,-308.53C2465.52,-296.307 2268.56,-269.91 2173.49,-257.168"/>
<polygon fill="midnightblue" stroke="midnightblue" points="2173.89,-253.691 2163.51,-255.831 2172.96,-260.629 2173.89,-253.691"/>
</g>
<!-- Node15 -->
<g id="node38" class="node"><title>Node15</title>
<a xlink:href="MojString_8h.htm" target="_top" xlink:title="core/MojString.h">
<polygon fill="white" stroke="red" points="1479,-239.5 1479,-260.5 1573,-260.5 1573,-239.5 1479,-239.5"/>
<text text-anchor="middle" x="1526" y="-247.5" font-family="Helvetica,sans-Serif" font-size="10.00">core/MojString.h</text>
</a>
</g>
<!-- Node7&#45;&gt;Node15 -->
<g id="edge46" class="edge"><title>Node7&#45;&gt;Node15</title>
<path fill="none" stroke="midnightblue" d="M2556.99,-309.059C2540.53,-307.197 2521.98,-305.293 2505,-304 2129.3,-275.385 2033.29,-301.491 1658,-268 1633.42,-265.806 1606.39,-262.314 1583.23,-258.987"/>
<polygon fill="midnightblue" stroke="midnightblue" points="1583.63,-255.507 1573.23,-257.525 1582.62,-262.434 1583.63,-255.507"/>
</g>
<!-- Node7&#45;&gt;Node16 -->
<g id="edge60" class="edge"><title>Node7&#45;&gt;Node16</title>
<path fill="none" stroke="midnightblue" d="M2600.26,-304.357C2591.64,-286.336 2571.61,-250.022 2543,-232 2513.78,-213.592 2424.31,-199.479 2363.79,-191.714"/>
<polygon fill="midnightblue" stroke="midnightblue" points="2363.95,-188.207 2353.59,-190.43 2363.07,-195.152 2363.95,-188.207"/>
</g>
<!-- Node8&#45;&gt;Node4 -->
<g id="edge22" class="edge"><title>Node8&#45;&gt;Node4</title>
<path fill="none" stroke="midnightblue" d="M2471.24,-116.45C2435.06,-100.883 2363.64,-72.0878 2300,-58 2220.93,-40.4955 1990.36,-23.1483 1875.96,-15.3201"/>
<polygon fill="midnightblue" stroke="midnightblue" points="1876.14,-11.8244 1865.92,-14.6376 1875.66,-18.8083 1876.14,-11.8244"/>
</g>
<!-- Node9&#45;&gt;Node4 -->
<g id="edge26" class="edge"><title>Node9&#45;&gt;Node4</title>
<path fill="none" stroke="midnightblue" d="M2107.66,-239.481C2090.14,-224.631 2056.99,-196.791 2028,-174 1958.06,-119.016 1873.09,-56.75 1833.02,-27.6485"/>
<polygon fill="midnightblue" stroke="midnightblue" points="1834.88,-24.6703 1824.73,-21.6322 1830.77,-30.3368 1834.88,-24.6703"/>
</g>
<!-- Node10 -->
<g id="node24" class="node"><title>Node10</title>
<a xlink:href="MojComp_8h.htm" target="_top" xlink:title="core/MojComp.h">
<polygon fill="white" stroke="black" points="1838,-116.5 1838,-137.5 1932,-137.5 1932,-116.5 1838,-116.5"/>
<text text-anchor="middle" x="1885" y="-124.5" font-family="Helvetica,sans-Serif" font-size="10.00">core/MojComp.h</text>
</a>
</g>
<!-- Node9&#45;&gt;Node10 -->
<g id="edge28" class="edge"><title>Node9&#45;&gt;Node10</title>
<path fill="none" stroke="midnightblue" d="M2104.09,-239.442C2080.57,-224.058 2034.89,-195.027 1994,-174 1970.48,-161.906 1943.14,-150.125 1921.73,-141.383"/>
<polygon fill="midnightblue" stroke="midnightblue" points="1922.93,-138.092 1912.35,-137.59 1920.31,-144.582 1922.93,-138.092"/>
</g>
<!-- Node11 -->
<g id="node27" class="node"><title>Node11</title>
<a xlink:href="MojRbTreeBase_8h.htm" target="_top" xlink:title="core/internal/MojRbTreeBase.h">
<polygon fill="white" stroke="black" points="1821,-174.5 1821,-195.5 1985,-195.5 1985,-174.5 1821,-174.5"/>
<text text-anchor="middle" x="1903" y="-182.5" font-family="Helvetica,sans-Serif" font-size="10.00">core/internal/MojRbTreeBase.h</text>
</a>
</g>
<!-- Node9&#45;&gt;Node11 -->
<g id="edge32" class="edge"><title>Node9&#45;&gt;Node11</title>
<path fill="none" stroke="midnightblue" d="M2090.4,-239.433C2083.1,-236.917 2075.29,-234.298 2068,-232 2029.26,-219.786 1984.96,-207.246 1952.03,-198.194"/>
<polygon fill="midnightblue" stroke="midnightblue" points="1952.76,-194.766 1942.19,-195.501 1950.91,-201.517 1952.76,-194.766"/>
</g>
<!-- Node10&#45;&gt;Node4 -->
<g id="edge30" class="edge"><title>Node10&#45;&gt;Node4</title>
<path fill="none" stroke="midnightblue" d="M1878.08,-116.295C1865.41,-96.6998 1838.33,-54.8198 1822.41,-30.1913"/>
<polygon fill="midnightblue" stroke="midnightblue" points="1825.27,-28.1765 1816.9,-21.6792 1819.4,-31.9772 1825.27,-28.1765"/>
</g>
<!-- Node11&#45;&gt;Node4 -->
<g id="edge34" class="edge"><title>Node11&#45;&gt;Node4</title>
<path fill="none" stroke="midnightblue" d="M1875.44,-174.454C1859.29,-166.81 1839.95,-154.84 1829,-138 1807.83,-105.459 1806.67,-58.4303 1808.09,-31.6767"/>
<polygon fill="midnightblue" stroke="midnightblue" points="1811.59,-31.7758 1808.81,-21.5536 1804.61,-31.2814 1811.59,-31.7758"/>
</g>
<!-- Node12 -->
<g id="node30" class="node"><title>Node12</title>
<a xlink:href="MojAutoPtr_8h.htm" target="_top" xlink:title="core/MojAutoPtr.h">
<polygon fill="white" stroke="red" points="1286.5,-116.5 1286.5,-137.5 1387.5,-137.5 1387.5,-116.5 1286.5,-116.5"/>
<text text-anchor="middle" x="1337" y="-124.5" font-family="Helvetica,sans-Serif" font-size="10.00">core/MojAutoPtr.h</text>
</a>
</g>
<!-- Node11&#45;&gt;Node12 -->
<g id="edge36" class="edge"><title>Node11&#45;&gt;Node12</title>
<path fill="none" stroke="midnightblue" d="M1820.7,-176.566C1705.84,-164.796 1500.1,-143.713 1397.97,-133.247"/>
<polygon fill="midnightblue" stroke="midnightblue" points="1398.12,-129.745 1387.82,-132.207 1397.41,-136.709 1398.12,-129.745"/>
</g>
<!-- Node12&#45;&gt;Node4 -->
<g id="edge38" class="edge"><title>Node12&#45;&gt;Node4</title>
<path fill="none" stroke="midnightblue" d="M1351.26,-116.302C1372.88,-100.682 1415.81,-71.9757 1457,-58 1508.74,-40.4446 1657.31,-24.726 1744.34,-16.6765"/>
<polygon fill="midnightblue" stroke="midnightblue" points="1744.73,-20.1547 1754.37,-15.7568 1744.1,-13.1839 1744.73,-20.1547"/>
</g>
<!-- Node13 -->
<g id="node33" class="node"><title>Node13</title>
<a xlink:href="MojAtomicInt_8h.htm" target="_top" xlink:title="core/MojAtomicInt.h">
<polygon fill="white" stroke="black" points="1282,-58.5 1282,-79.5 1392,-79.5 1392,-58.5 1282,-58.5"/>
<text text-anchor="middle" x="1337" y="-66.5" font-family="Helvetica,sans-Serif" font-size="10.00">core/MojAtomicInt.h</text>
</a>
</g>
<!-- Node12&#45;&gt;Node13 -->
<g id="edge40" class="edge"><title>Node12&#45;&gt;Node13</title>
<path fill="none" stroke="midnightblue" d="M1337,-116.362C1337,-108.922 1337,-98.7427 1337,-89.7276"/>
<polygon fill="midnightblue" stroke="midnightblue" points="1340.5,-89.5706 1337,-79.5707 1333.5,-89.5707 1340.5,-89.5706"/>
</g>
<!-- Node14 -->
<g id="node36" class="node"><title>Node14</title>
<a xlink:href="MojNoCopy_8h.htm" target="_top" xlink:title="core/MojNoCopy.h">
<polygon fill="white" stroke="black" points="950,-58.5 950,-79.5 1054,-79.5 1054,-58.5 950,-58.5"/>
<text text-anchor="middle" x="1002" y="-66.5" font-family="Helvetica,sans-Serif" font-size="10.00">core/MojNoCopy.h</text>
</a>
</g>
<!-- Node12&#45;&gt;Node14 -->
<g id="edge44" class="edge"><title>Node12&#45;&gt;Node14</title>
<path fill="none" stroke="midnightblue" d="M1286.48,-118.254C1226.97,-107.951 1128.11,-90.8342 1064.01,-79.736"/>
<polygon fill="midnightblue" stroke="midnightblue" points="1064.48,-76.2658 1054.03,-78.0084 1063.29,-83.1632 1064.48,-76.2658"/>
</g>
<!-- Node13&#45;&gt;Node4 -->
<g id="edge42" class="edge"><title>Node13&#45;&gt;Node4</title>
<path fill="none" stroke="midnightblue" d="M1392.27,-60.7143C1398.91,-59.7713 1405.61,-58.8461 1412,-58 1528.68,-42.5577 1664.93,-27.0022 1743.95,-18.2254"/>
<polygon fill="midnightblue" stroke="midnightblue" points="1744.69,-21.6652 1754.24,-17.0848 1743.92,-14.7079 1744.69,-21.6652"/>
</g>
<!-- Node15&#45;&gt;Node4 -->
<g id="edge48" class="edge"><title>Node15&#45;&gt;Node4</title>
<path fill="none" stroke="midnightblue" d="M1514.34,-239.136C1499.96,-224.35 1478.72,-197.086 1490,-174 1537.06,-77.7127 1665.21,-37.2412 1744.32,-21.0415"/>
<polygon fill="midnightblue" stroke="midnightblue" points="1745.06,-24.4634 1754.19,-19.0937 1743.7,-17.5958 1745.06,-24.4634"/>
</g>
<!-- Node15&#45;&gt;Node10 -->
<g id="edge52" class="edge"><title>Node15&#45;&gt;Node10</title>
<path fill="none" stroke="midnightblue" d="M1573.1,-240.024C1615.11,-230.556 1677.98,-214.973 1731,-196 1753.1,-188.093 1757.61,-183.645 1779,-174 1803.24,-163.072 1830.68,-150.909 1851.57,-141.695"/>
<polygon fill="midnightblue" stroke="midnightblue" points="1853.23,-144.791 1860.97,-137.555 1850.4,-138.385 1853.23,-144.791"/>
</g>
<!-- Node15&#45;&gt;Node12 -->
<g id="edge50" class="edge"><title>Node15&#45;&gt;Node12</title>
<path fill="none" stroke="midnightblue" d="M1509.56,-239.3C1476.38,-217.71 1401.26,-168.82 1361.98,-143.26"/>
<polygon fill="midnightblue" stroke="midnightblue" points="1363.56,-140.109 1353.27,-137.588 1359.74,-145.976 1363.56,-140.109"/>
</g>
<!-- Node15&#45;&gt;Node16 -->
<g id="edge54" class="edge"><title>Node15&#45;&gt;Node16</title>
<path fill="none" stroke="midnightblue" d="M1573.26,-242.82C1598.38,-239.19 1629.82,-234.942 1658,-232 1874.16,-209.433 2132.08,-194.182 2245.97,-188.04"/>
<polygon fill="midnightblue" stroke="midnightblue" points="2246.41,-191.522 2256.21,-187.492 2246.04,-184.532 2246.41,-191.522"/>
</g>
<!-- Node16&#45;&gt;Node4 -->
<g id="edge56" class="edge"><title>Node16&#45;&gt;Node4</title>
<path fill="none" stroke="midnightblue" d="M2303.3,-174.234C2298.71,-149.092 2283.56,-86.4893 2243,-58 2213.64,-37.3733 1989.75,-21.4943 1875.96,-14.6633"/>
<polygon fill="midnightblue" stroke="midnightblue" points="1875.82,-11.1491 1865.63,-14.0501 1875.41,-18.1368 1875.82,-11.1491"/>
</g>
<!-- Node16&#45;&gt;Node10 -->
<g id="edge58" class="edge"><title>Node16&#45;&gt;Node10</title>
<path fill="none" stroke="midnightblue" d="M2256.41,-178.29C2178.37,-167.513 2025.43,-146.393 1942.23,-134.903"/>
<polygon fill="midnightblue" stroke="midnightblue" points="1942.57,-131.417 1932.19,-133.517 1941.62,-138.352 1942.57,-131.417"/>
</g>
<!-- Node17&#45;&gt;Node4 -->
<g id="edge64" class="edge"><title>Node17&#45;&gt;Node4</title>
<path fill="none" stroke="midnightblue" d="M2229,-304.214C2229,-281.939 2229,-229.236 2229,-185 2229,-185 2229,-185 2229,-127 2229,-54.5751 1993.54,-25.5481 1875.64,-15.5533"/>
<polygon fill="midnightblue" stroke="midnightblue" points="1875.89,-12.0624 1865.64,-14.7273 1875.32,-19.0386 1875.89,-12.0624"/>
</g>
<!-- Node17&#45;&gt;Node10 -->
<g id="edge66" class="edge"><title>Node17&#45;&gt;Node10</title>
<path fill="none" stroke="midnightblue" d="M2224.23,-304.339C2215.96,-286.94 2197.36,-252.342 2172,-232 2103.68,-177.209 2004.15,-149.422 1942.06,-136.594"/>
<polygon fill="midnightblue" stroke="midnightblue" points="1942.54,-133.121 1932.05,-134.589 1941.16,-139.985 1942.54,-133.121"/>
</g>
<!-- Node17&#45;&gt;Node11 -->
<g id="edge68" class="edge"><title>Node17&#45;&gt;Node11</title>
<path fill="none" stroke="midnightblue" d="M2187.82,-312.21C2102.56,-306.016 1913.05,-289.91 1894,-268 1879.07,-250.835 1885.83,-223.523 1893.3,-204.956"/>
<polygon fill="midnightblue" stroke="midnightblue" points="1896.56,-206.223 1897.38,-195.66 1890.15,-203.406 1896.56,-206.223"/>
</g>
<!-- Node18 -->
<g id="node53" class="node"><title>Node18</title>
<a xlink:href="MojSetInternal_8h.htm" target="_top" xlink:title="core/internal/MojSetInternal.h">
<polygon fill="white" stroke="black" points="1903,-239.5 1903,-260.5 2059,-260.5 2059,-239.5 1903,-239.5"/>
<text text-anchor="middle" x="1981" y="-247.5" font-family="Helvetica,sans-Serif" font-size="10.00">core/internal/MojSetInternal.h</text>
</a>
</g>
<!-- Node17&#45;&gt;Node18 -->
<g id="edge70" class="edge"><title>Node17&#45;&gt;Node18</title>
<path fill="none" stroke="midnightblue" d="M2188.88,-304.484C2145.84,-293.204 2077.42,-275.27 2030.92,-263.085"/>
<polygon fill="midnightblue" stroke="midnightblue" points="2031.62,-259.65 2021.06,-260.501 2029.85,-266.422 2031.62,-259.65"/>
</g>
<!-- Node19&#45;&gt;Node3 -->
<g id="edge76" class="edge"><title>Node19&#45;&gt;Node3</title>
<path fill="none" stroke="midnightblue" d="M1579.26,-364.442C1494.74,-353.095 1346.95,-333.252 1266.69,-322.477"/>
<polygon fill="midnightblue" stroke="midnightblue" points="1267.15,-319.008 1256.77,-321.146 1266.22,-325.945 1267.15,-319.008"/>
</g>
<!-- Node20 -->
<g id="node59" class="node"><title>Node20</title>
<a xlink:href="MojHashMap_8h.htm" target="_top" xlink:title="core/MojHashMap.h">
<polygon fill="white" stroke="black" points="1767,-304.5 1767,-325.5 1879,-325.5 1879,-304.5 1767,-304.5"/>
<text text-anchor="middle" x="1823" y="-312.5" font-family="Helvetica,sans-Serif" font-size="10.00">core/MojHashMap.h</text>
</a>
</g>
<!-- Node19&#45;&gt;Node20 -->
<g id="edge78" class="edge"><title>Node19&#45;&gt;Node20</title>
<path fill="none" stroke="midnightblue" d="M1675.6,-362.497C1705.07,-353 1748.64,-338.962 1780.77,-328.609"/>
<polygon fill="midnightblue" stroke="midnightblue" points="1781.9,-331.921 1790.34,-325.523 1779.75,-325.259 1781.9,-331.921"/>
</g>
<!-- Node19&#45;&gt;Node23 -->
<g id="edge92" class="edge"><title>Node19&#45;&gt;Node23</title>
<path fill="none" stroke="midnightblue" d="M1579.23,-368.759C1417.01,-357.969 990.266,-329.584 831.575,-319.029"/>
<polygon fill="midnightblue" stroke="midnightblue" points="831.726,-315.531 821.516,-318.36 831.262,-322.516 831.726,-315.531"/>
</g>
<!-- Node20&#45;&gt;Node4 -->
<g id="edge80" class="edge"><title>Node20&#45;&gt;Node4</title>
<path fill="none" stroke="midnightblue" d="M1822.72,-304.488C1822.22,-288.704 1820.94,-257.963 1818,-232 1816.18,-215.882 1813.89,-212.11 1812,-196 1805.97,-144.675 1805.78,-131.647 1804,-80 1803.66,-70.228 1803.38,-67.7581 1804,-58 1804.55,-49.4212 1805.65,-40.0146 1806.76,-31.8855"/>
<polygon fill="midnightblue" stroke="midnightblue" points="1810.25,-32.19 1808.23,-21.7899 1803.32,-31.181 1810.25,-32.19"/>
</g>
<!-- Node20&#45;&gt;Node10 -->
<g id="edge82" class="edge"><title>Node20&#45;&gt;Node10</title>
<path fill="none" stroke="midnightblue" d="M1766.77,-306.356C1724.35,-298.551 1671.28,-285.591 1658,-268 1648.36,-255.23 1648.59,-244.942 1658,-232 1688.5,-190.05 1721.75,-217.39 1769,-196 1802.54,-180.814 1838.61,-158.273 1861.47,-143.128"/>
<polygon fill="midnightblue" stroke="midnightblue" points="1863.48,-145.996 1869.84,-137.523 1859.58,-140.181 1863.48,-145.996"/>
</g>
<!-- Node21 -->
<g id="node63" class="node"><title>Node21</title>
<a xlink:href="MojHashBase_8h.htm" target="_top" xlink:title="core/internal/MojHashBase.h">
<polygon fill="white" stroke="red" points="1498.5,-174.5 1498.5,-195.5 1651.5,-195.5 1651.5,-174.5 1498.5,-174.5"/>
<text text-anchor="middle" x="1575" y="-182.5" font-family="Helvetica,sans-Serif" font-size="10.00">core/internal/MojHashBase.h</text>
</a>
</g>
<!-- Node20&#45;&gt;Node21 -->
<g id="edge84" class="edge"><title>Node20&#45;&gt;Node21</title>
<path fill="none" stroke="midnightblue" d="M1769.2,-304.463C1714.67,-293.43 1636.7,-276.544 1625,-268 1603.45,-252.261 1589.41,-224.16 1581.85,-205.059"/>
<polygon fill="midnightblue" stroke="midnightblue" points="1585.06,-203.668 1578.3,-195.509 1578.5,-206.102 1585.06,-203.668"/>
</g>
<!-- Node22 -->
<g id="node67" class="node"><title>Node22</title>
<a xlink:href="MojHashMapInternal_8h.htm" target="_top" xlink:title="core/internal/MojHashMap\lInternal.h">
<polygon fill="white" stroke="black" points="1667,-233 1667,-267 1809,-267 1809,-233 1667,-233"/>
<text text-anchor="start" x="1675" y="-254" font-family="Helvetica,sans-Serif" font-size="10.00">core/internal/MojHashMap</text>
<text text-anchor="middle" x="1738" y="-241" font-family="Helvetica,sans-Serif" font-size="10.00">Internal.h</text>
</a>
</g>
<!-- Node20&#45;&gt;Node22 -->
<g id="edge90" class="edge"><title>Node20&#45;&gt;Node22</title>
<path fill="none" stroke="midnightblue" d="M1808.96,-304.267C1798.03,-295.906 1782.45,-283.988 1768.66,-273.449"/>
<polygon fill="midnightblue" stroke="midnightblue" points="1770.44,-270.404 1760.37,-267.11 1766.19,-275.965 1770.44,-270.404"/>
</g>
<!-- Node21&#45;&gt;Node4 -->
<g id="edge86" class="edge"><title>Node21&#45;&gt;Node4</title>
<path fill="none" stroke="midnightblue" d="M1579.62,-174.387C1590.71,-150.115 1621.23,-90.1704 1665,-58 1688.26,-40.9059 1718.01,-29.8464 1744.51,-22.7822"/>
<polygon fill="midnightblue" stroke="midnightblue" points="1745.65,-26.1054 1754.49,-20.2662 1743.94,-19.3179 1745.65,-26.1054"/>
</g>
<!-- Node21&#45;&gt;Node12 -->
<g id="edge88" class="edge"><title>Node21&#45;&gt;Node12</title>
<path fill="none" stroke="midnightblue" d="M1531.9,-174.497C1492.09,-164.795 1432.83,-150.355 1390.12,-139.945"/>
<polygon fill="midnightblue" stroke="midnightblue" points="1390.73,-136.49 1380.18,-137.523 1389.07,-143.291 1390.73,-136.49"/>
</g>
<!-- Node23&#45;&gt;Node4 -->
<g id="edge94" class="edge"><title>Node23&#45;&gt;Node4</title>
<path fill="none" stroke="midnightblue" d="M769.817,-304.189C768.839,-294.674 767.528,-280.436 767,-268 765.183,-225.231 763.186,-208.882 788,-174 835.439,-107.315 854.627,-87.4006 931,-58 1006.1,-29.0904 1552.64,-15.9364 1744.02,-12.1816"/>
<polygon fill="midnightblue" stroke="midnightblue" points="1744.29,-15.6771 1754.22,-11.9838 1744.15,-8.67845 1744.29,-15.6771"/>
</g>
<!-- Node23&#45;&gt;Node13 -->
<g id="edge96" class="edge"><title>Node23&#45;&gt;Node13</title>
<path fill="none" stroke="midnightblue" d="M770.221,-304.297C768.937,-277.934 769.578,-209.439 807,-174 873.245,-111.264 1144.85,-83.2425 1271.46,-73.4029"/>
<polygon fill="midnightblue" stroke="midnightblue" points="1272.08,-76.8658 1281.79,-72.6158 1271.55,-69.886 1272.08,-76.8658"/>
</g>
<!-- Node24 -->
<g id="node73" class="node"><title>Node24</title>
<a xlink:href="MojThreadInternal_8h.htm" target="_top" xlink:title="core/internal/MojThreadInternal.h">
<polygon fill="white" stroke="black" points="815.5,-174.5 815.5,-195.5 990.5,-195.5 990.5,-174.5 815.5,-174.5"/>
<text text-anchor="middle" x="903" y="-182.5" font-family="Helvetica,sans-Serif" font-size="10.00">core/internal/MojThreadInternal.h</text>
</a>
</g>
<!-- Node23&#45;&gt;Node24 -->
<g id="edge98" class="edge"><title>Node23&#45;&gt;Node24</title>
<path fill="none" stroke="midnightblue" d="M781.802,-304.362C804.427,-282.079 857.002,-230.301 884.885,-202.841"/>
<polygon fill="midnightblue" stroke="midnightblue" points="887.38,-205.296 892.049,-195.785 882.468,-200.309 887.38,-205.296"/>
</g>
<!-- Node24&#45;&gt;Node12 -->
<g id="edge100" class="edge"><title>Node24&#45;&gt;Node12</title>
<path fill="none" stroke="midnightblue" d="M981.594,-174.497C1066.34,-163.171 1199.41,-145.387 1276.42,-135.096"/>
<polygon fill="midnightblue" stroke="midnightblue" points="1276.99,-138.551 1286.44,-133.757 1276.06,-131.613 1276.99,-138.551"/>
</g>
<!-- Node25&#45;&gt;Node3 -->
<g id="edge104" class="edge"><title>Node25&#45;&gt;Node3</title>
<path fill="none" stroke="midnightblue" d="M1951.37,-368.08C1794.3,-356.819 1411.13,-329.348 1267.03,-319.017"/>
<polygon fill="midnightblue" stroke="midnightblue" points="1266.89,-315.498 1256.66,-318.274 1266.39,-322.48 1266.89,-315.498"/>
</g>
<!-- Node25&#45;&gt;Node17 -->
<g id="edge106" class="edge"><title>Node25&#45;&gt;Node17</title>
<path fill="none" stroke="midnightblue" d="M2057.85,-362.497C2092.51,-352.877 2143.97,-338.598 2181.4,-328.209"/>
<polygon fill="midnightblue" stroke="midnightblue" points="2182.38,-331.57 2191.08,-325.523 2180.51,-324.825 2182.38,-331.57"/>
</g>
<!-- Node26&#45;&gt;Node3 -->
<g id="edge114" class="edge"><title>Node26&#45;&gt;Node3</title>
<path fill="none" stroke="midnightblue" d="M837.229,-594.369C869.567,-557.663 982.031,-434.538 1097,-362 1118.92,-348.169 1145.61,-336.907 1167.65,-328.878"/>
<polygon fill="midnightblue" stroke="midnightblue" points="1168.84,-332.169 1177.1,-325.528 1166.5,-325.571 1168.84,-332.169"/>
</g>
<!-- Node26&#45;&gt;Node7 -->
<g id="edge174" class="edge"><title>Node26&#45;&gt;Node7</title>
<path fill="none" stroke="midnightblue" d="M848.646,-594.444C881.414,-578.306 947.791,-548.101 1008,-536 1264.11,-484.525 1924.92,-540.445 2183,-500 2367.14,-471.144 2454.97,-516.553 2586,-384 2598.58,-371.272 2603.02,-351.023 2604.5,-335.746"/>
<polygon fill="midnightblue" stroke="midnightblue" points="2607.99,-335.877 2605.12,-325.679 2601.01,-335.443 2607.99,-335.877"/>
</g>
<!-- Node26&#45;&gt;Node12 -->
<g id="edge172" class="edge"><title>Node26&#45;&gt;Node12</title>
<path fill="none" stroke="midnightblue" d="M822.931,-594.044C807.284,-561.544 756.329,-465.131 683,-420 611.42,-375.945 462.081,-435.417 503,-362 512.667,-344.655 788.158,-180.268 807,-174 892.596,-145.525 1156.07,-133.142 1276.19,-128.871"/>
<polygon fill="midnightblue" stroke="midnightblue" points="1276.45,-132.364 1286.32,-128.518 1276.2,-125.369 1276.45,-132.364"/>
</g>
<!-- Node26&#45;&gt;Node16 -->
<g id="edge176" class="edge"><title>Node26&#45;&gt;Node16</title>
<path fill="none" stroke="midnightblue" d="M827.882,-594.101C826.892,-561.76 819.223,-465.746 764,-420 677.828,-348.616 449.721,-449.873 519,-362 561.447,-308.16 604.697,-349.781 669,-326 689.134,-318.554 691.392,-310.011 712,-304 1036.87,-209.243 1132.56,-257.514 1470,-232 1761.03,-209.996 2109.84,-193.569 2246.26,-187.528"/>
<polygon fill="midnightblue" stroke="midnightblue" points="2246.65,-191.014 2256.48,-187.077 2246.34,-184.021 2246.65,-191.014"/>
</g>
<!-- Node26&#45;&gt;Node27 -->
<g id="edge116" class="edge"><title>Node26&#45;&gt;Node27</title>
<path fill="none" stroke="midnightblue" d="M872.005,-594.497C912.736,-584.775 973.407,-570.294 1017.04,-559.879"/>
<polygon fill="midnightblue" stroke="midnightblue" points="1018,-563.249 1026.91,-557.523 1016.37,-556.44 1018,-563.249"/>
</g>
<!-- Node30 -->
<g id="node100" class="node"><title>Node30</title>
<a xlink:href="MojSignal_8h.htm" target="_top" xlink:title="core/MojSignal.h">
<polygon fill="white" stroke="black" points="309.5,-362.5 309.5,-383.5 404.5,-383.5 404.5,-362.5 309.5,-362.5"/>
<text text-anchor="middle" x="357" y="-370.5" font-family="Helvetica,sans-Serif" font-size="10.00">core/MojSignal.h</text>
</a>
</g>
<!-- Node26&#45;&gt;Node30 -->
<g id="edge178" class="edge"><title>Node26&#45;&gt;Node30</title>
<path fill="none" stroke="midnightblue" d="M806.72,-594.35C791.054,-585.862 769.818,-572.949 754,-558 699.14,-506.153 719.367,-459.43 655,-420 564.15,-364.347 523.102,-401.455 418,-384 416.912,-383.819 415.813,-383.635 414.706,-383.449"/>
<polygon fill="midnightblue" stroke="midnightblue" points="415.045,-379.956 404.597,-381.714 413.861,-386.855 415.045,-379.956"/>
</g>
<!-- Node33 -->
<g id="node111" class="node"><title>Node33</title>
<a xlink:href="MojDbQuotaEngine_8h.htm" target="_top" xlink:title="db/MojDbQuotaEngine.h">
<polygon fill="white" stroke="black" points="515.5,-420.5 515.5,-441.5 646.5,-441.5 646.5,-420.5 515.5,-420.5"/>
<text text-anchor="middle" x="581" y="-428.5" font-family="Helvetica,sans-Serif" font-size="10.00">db/MojDbQuotaEngine.h</text>
</a>
</g>
<!-- Node26&#45;&gt;Node33 -->
<g id="edge156" class="edge"><title>Node26&#45;&gt;Node33</title>
<path fill="none" stroke="midnightblue" d="M757.854,-597.202C725.554,-590.808 688.226,-579.172 660,-558 640.694,-543.519 607.773,-483.109 591.188,-451.104"/>
<polygon fill="midnightblue" stroke="midnightblue" points="594.095,-449.103 586.415,-441.805 587.868,-452.3 594.095,-449.103"/>
</g>
<!-- Node27&#45;&gt;Node3 -->
<g id="edge118" class="edge"><title>Node27&#45;&gt;Node3</title>
<path fill="none" stroke="midnightblue" d="M1083.84,-536.236C1093.63,-527.407 1106.79,-514.103 1115,-500 1147.32,-444.483 1123.13,-415.957 1158,-362 1165.51,-350.38 1176.65,-339.896 1186.79,-331.794"/>
<polygon fill="midnightblue" stroke="midnightblue" points="1189.12,-334.416 1194.96,-325.576 1184.88,-328.845 1189.12,-334.416"/>
</g>
<!-- Node27&#45;&gt;Node23 -->
<g id="edge154" class="edge"><title>Node27&#45;&gt;Node23</title>
<path fill="none" stroke="midnightblue" d="M1038.05,-536.441C1012.05,-527.725 975.124,-514.473 944,-500 878.667,-469.62 871.327,-442.863 803,-420 744.344,-400.373 567.81,-430.479 527,-384 520.549,-376.653 520.774,-369.54 527,-362 529.949,-358.428 638.831,-338.483 710.134,-325.749"/>
<polygon fill="midnightblue" stroke="midnightblue" points="711.134,-329.126 720.365,-323.926 709.906,-322.235 711.134,-329.126"/>
</g>
<!-- Node27&#45;&gt;Node28 -->
<g id="edge120" class="edge"><title>Node27&#45;&gt;Node28</title>
<path fill="none" stroke="midnightblue" d="M1125.52,-543.172C1270.58,-532.986 1665.96,-505.223 1827.17,-493.903"/>
<polygon fill="midnightblue" stroke="midnightblue" points="1827.71,-497.374 1837.44,-493.182 1827.22,-490.391 1827.71,-497.374"/>
</g>
<!-- Node27&#45;&gt;Node30 -->
<g id="edge140" class="edge"><title>Node27&#45;&gt;Node30</title>
<path fill="none" stroke="midnightblue" d="M1030.74,-536.429C997.174,-527.402 948.202,-513.733 906,-500 807.859,-468.063 788.09,-445.172 688,-420 593.962,-396.35 481.697,-383.552 415.042,-377.513"/>
<polygon fill="midnightblue" stroke="midnightblue" points="415.016,-373.997 404.746,-376.602 414.398,-380.97 415.016,-373.997"/>
</g>
<!-- Node28&#45;&gt;Node3 -->
<g id="edge122" class="edge"><title>Node28&#45;&gt;Node3</title>
<path fill="none" stroke="midnightblue" d="M1837.27,-479.105C1787.46,-470.481 1714.76,-457.024 1652,-442 1504.25,-406.63 1331.92,-353.488 1253.61,-328.674"/>
<polygon fill="midnightblue" stroke="midnightblue" points="1254.24,-325.199 1243.65,-325.507 1252.12,-331.871 1254.24,-325.199"/>
</g>
<!-- Node28&#45;&gt;Node6 -->
<g id="edge138" class="edge"><title>Node28&#45;&gt;Node6</title>
<path fill="none" stroke="midnightblue" d="M1956.52,-484.492C2022.32,-478.566 2131.04,-465.971 2222,-442 2274.62,-428.134 2332.93,-403.481 2367.74,-387.704"/>
<polygon fill="midnightblue" stroke="midnightblue" points="2369.28,-390.851 2376.92,-383.506 2366.37,-384.486 2369.28,-390.851"/>
</g>
<!-- Node29 -->
<g id="node91" class="node"><title>Node29</title>
<a xlink:href="MojDbQuery_8h.htm" target="_top" xlink:title="db/MojDbQuery.h">
<polygon fill="white" stroke="black" points="1853,-420.5 1853,-441.5 1951,-441.5 1951,-420.5 1853,-420.5"/>
<text text-anchor="middle" x="1902" y="-428.5" font-family="Helvetica,sans-Serif" font-size="10.00">db/MojDbQuery.h</text>
</a>
</g>
<!-- Node28&#45;&gt;Node29 -->
<g id="edge124" class="edge"><title>Node28&#45;&gt;Node29</title>
<path fill="none" stroke="midnightblue" d="M1897.92,-478.362C1898.56,-470.922 1899.44,-460.743 1900.21,-451.728"/>
<polygon fill="midnightblue" stroke="midnightblue" points="1903.72,-451.834 1901.09,-441.571 1896.74,-451.233 1903.72,-451.834"/>
</g>
<!-- Node29&#45;&gt;Node3 -->
<g id="edge126" class="edge"><title>Node29&#45;&gt;Node3</title>
<path fill="none" stroke="midnightblue" d="M1852.88,-425.955C1787.96,-418.847 1670.2,-404.432 1571,-384 1534.46,-376.474 1526.44,-369.997 1490,-362 1413.22,-345.148 1323.4,-330.998 1266.85,-322.757"/>
<polygon fill="midnightblue" stroke="midnightblue" points="1267.09,-319.255 1256.69,-321.288 1266.09,-326.183 1267.09,-319.255"/>
</g>
<!-- Node29&#45;&gt;Node6 -->
<g id="edge128" class="edge"><title>Node29&#45;&gt;Node6</title>
<path fill="none" stroke="midnightblue" d="M1951.01,-425.28C2044.58,-414.361 2247.98,-390.624 2345.18,-379.281"/>
<polygon fill="midnightblue" stroke="midnightblue" points="2345.84,-382.728 2355.37,-378.092 2345.03,-375.775 2345.84,-382.728"/>
</g>
<!-- Node29&#45;&gt;Node7 -->
<g id="edge132" class="edge"><title>Node29&#45;&gt;Node7</title>
<path fill="none" stroke="midnightblue" d="M1951.19,-427.735C2076.88,-419.256 2403.31,-396.347 2451,-384 2497.58,-371.942 2547.77,-346.959 2577.77,-330.596"/>
<polygon fill="midnightblue" stroke="midnightblue" points="2579.72,-333.519 2586.78,-325.613 2576.33,-327.394 2579.72,-333.519"/>
</g>
<!-- Node29&#45;&gt;Node15 -->
<g id="edge136" class="edge"><title>Node29&#45;&gt;Node15</title>
<path fill="none" stroke="midnightblue" d="M1880.16,-420.486C1816.56,-389.871 1631.32,-300.697 1557.19,-265.015"/>
<polygon fill="midnightblue" stroke="midnightblue" points="1558.43,-261.727 1547.9,-260.543 1555.39,-268.034 1558.43,-261.727"/>
</g>
<!-- Node29&#45;&gt;Node17 -->
<g id="edge134" class="edge"><title>Node29&#45;&gt;Node17</title>
<path fill="none" stroke="midnightblue" d="M1951.29,-423.187C1991.45,-415.865 2049.15,-403.148 2097,-384 2115.12,-376.75 2117.82,-371.257 2135,-362 2155.65,-350.871 2179.28,-339.064 2197.67,-330.068"/>
<polygon fill="midnightblue" stroke="midnightblue" points="2199.31,-333.162 2206.77,-325.639 2196.25,-326.868 2199.31,-333.162"/>
</g>
<!-- Node29&#45;&gt;Node20 -->
<g id="edge130" class="edge"><title>Node29&#45;&gt;Node20</title>
<path fill="none" stroke="midnightblue" d="M1904.64,-420.341C1907.56,-406.015 1910.59,-380.242 1900,-362 1891.81,-347.888 1877.53,-337.479 1863.48,-330.095"/>
<polygon fill="midnightblue" stroke="midnightblue" points="1864.87,-326.879 1854.35,-325.671 1861.82,-333.179 1864.87,-326.879"/>
</g>
<!-- Node30&#45;&gt;Node4 -->
<g id="edge142" class="edge"><title>Node30&#45;&gt;Node4</title>
<path fill="none" stroke="midnightblue" d="M344.95,-362.477C323.749,-342.727 282,-297.771 282,-250 282,-250 282,-250 282,-127 282,-19.4252 407.845,-75.4217 514,-58 754.557,-18.5207 1515.46,-12.2018 1744.28,-11.1918"/>
<polygon fill="midnightblue" stroke="midnightblue" points="1744.47,-14.6911 1754.45,-11.1489 1744.44,-7.69121 1744.47,-14.6911"/>
</g>
<!-- Node30&#45;&gt;Node16 -->
<g id="edge150" class="edge"><title>Node30&#45;&gt;Node16</title>
<path fill="none" stroke="midnightblue" d="M404.688,-362.543C467.503,-348.823 581.433,-324.129 679,-304 840.084,-270.768 878.639,-251.118 1042,-232 1057.14,-230.228 1998.41,-196.091 2245.91,-187.136"/>
<polygon fill="midnightblue" stroke="midnightblue" points="2246.28,-190.625 2256.14,-186.766 2246.02,-183.63 2246.28,-190.625"/>
</g>
<!-- Node30&#45;&gt;Node23 -->
<g id="edge148" class="edge"><title>Node30&#45;&gt;Node23</title>
<path fill="none" stroke="midnightblue" d="M404.896,-366.29C480.496,-355.699 627.393,-335.119 710.284,-323.506"/>
<polygon fill="midnightblue" stroke="midnightblue" points="710.894,-326.955 720.312,-322.101 709.923,-320.023 710.894,-326.955"/>
</g>
<!-- Node31 -->
<g id="node103" class="node"><title>Node31</title>
<a xlink:href="MojList_8h.htm" target="_top" xlink:title="core/MojList.h">
<polygon fill="white" stroke="red" points="522.5,-58.5 522.5,-79.5 605.5,-79.5 605.5,-58.5 522.5,-58.5"/>
<text text-anchor="middle" x="564" y="-66.5" font-family="Helvetica,sans-Serif" font-size="10.00">core/MojList.h</text>
</a>
</g>
<!-- Node30&#45;&gt;Node31 -->
<g id="edge144" class="edge"><title>Node30&#45;&gt;Node31</title>
<path fill="none" stroke="midnightblue" d="M404.741,-362.606C452.088,-351.858 518.753,-335.364 527,-326 586.989,-257.881 575.5,-137.924 567.862,-89.8178"/>
<polygon fill="midnightblue" stroke="midnightblue" points="571.267,-88.9674 566.138,-79.6971 564.367,-90.1429 571.267,-88.9674"/>
</g>
<!-- Node32 -->
<g id="node108" class="node"><title>Node32</title>
<a xlink:href="MojSignalInternal_8h.htm" target="_top" xlink:title="core/internal/MojSignalInternal.h">
<polygon fill="white" stroke="black" points="348,-304.5 348,-325.5 518,-325.5 518,-304.5 348,-304.5"/>
<text text-anchor="middle" x="433" y="-312.5" font-family="Helvetica,sans-Serif" font-size="10.00">core/internal/MojSignalInternal.h</text>
</a>
</g>
<!-- Node30&#45;&gt;Node32 -->
<g id="edge152" class="edge"><title>Node30&#45;&gt;Node32</title>
<path fill="none" stroke="midnightblue" d="M370.94,-362.362C382.188,-353.777 398.216,-341.546 411.165,-331.664"/>
<polygon fill="midnightblue" stroke="midnightblue" points="413.323,-334.42 419.149,-325.571 409.076,-328.855 413.323,-334.42"/>
</g>
<!-- Node31&#45;&gt;Node4 -->
<g id="edge146" class="edge"><title>Node31&#45;&gt;Node4</title>
<path fill="none" stroke="midnightblue" d="M605.519,-63.5704C622.397,-61.5387 642.104,-59.3891 660,-58 1071.66,-26.0466 1568,-15.0553 1744.12,-12.0045"/>
<polygon fill="midnightblue" stroke="midnightblue" points="1744.33,-15.5017 1754.27,-11.8315 1744.21,-8.50269 1744.33,-15.5017"/>
</g>
<!-- Node33&#45;&gt;Node3 -->
<g id="edge158" class="edge"><title>Node33&#45;&gt;Node3</title>
<path fill="none" stroke="midnightblue" d="M611.94,-420.48C657.59,-405.35 745.915,-377.558 823,-362 939.885,-338.41 1079.13,-325.059 1154.96,-319.007"/>
<polygon fill="midnightblue" stroke="midnightblue" points="1155.54,-322.472 1165.23,-318.201 1154.99,-315.494 1155.54,-322.472"/>
</g>
<!-- Node33&#45;&gt;Node9 -->
<g id="edge166" class="edge"><title>Node33&#45;&gt;Node9</title>
<path fill="none" stroke="midnightblue" d="M515.449,-424.44C437.089,-415.926 314.73,-400.227 301,-384 276.304,-354.813 317.188,-316.081 339,-304 423.046,-257.45 1973.43,-284.92 2068,-268 2073.58,-267.001 2079.37,-265.497 2084.98,-263.776"/>
<polygon fill="midnightblue" stroke="midnightblue" points="2086.39,-266.994 2094.77,-260.507 2084.17,-260.354 2086.39,-266.994"/>
</g>
<!-- Node33&#45;&gt;Node15 -->
<g id="edge170" class="edge"><title>Node33&#45;&gt;Node15</title>
<path fill="none" stroke="midnightblue" d="M515.245,-425.665C428.231,-417.927 283.91,-402.478 268,-384 243.073,-355.051 283.461,-316.83 306,-304 357.061,-274.933 1234.69,-255.711 1468.93,-251.083"/>
<polygon fill="midnightblue" stroke="midnightblue" points="1469.01,-254.582 1478.94,-250.886 1468.88,-247.583 1469.01,-254.582"/>
</g>
<!-- Node33&#45;&gt;Node30 -->
<g id="edge168" class="edge"><title>Node33&#45;&gt;Node30</title>
<path fill="none" stroke="midnightblue" d="M540.435,-420.497C503.127,-410.836 447.668,-396.477 407.502,-386.077"/>
<polygon fill="midnightblue" stroke="midnightblue" points="408.199,-382.641 397.641,-383.523 406.444,-389.418 408.199,-382.641"/>
</g>
<!-- Node34 -->
<g id="node114" class="node"><title>Node34</title>
<a xlink:href="MojDbPutHandler_8h.htm" target="_top" xlink:title="db/MojDbPutHandler.h">
<polygon fill="white" stroke="black" points="832,-362.5 832,-383.5 954,-383.5 954,-362.5 832,-362.5"/>
<text text-anchor="middle" x="893" y="-370.5" font-family="Helvetica,sans-Serif" font-size="10.00">db/MojDbPutHandler.h</text>
</a>
</g>
<!-- Node33&#45;&gt;Node34 -->
<g id="edge160" class="edge"><title>Node33&#45;&gt;Node34</title>
<path fill="none" stroke="midnightblue" d="M637.501,-420.497C690.677,-410.611 770.327,-395.805 826.533,-385.356"/>
<polygon fill="midnightblue" stroke="midnightblue" points="827.201,-388.792 836.393,-383.523 825.922,-381.91 827.201,-388.792"/>
</g>
<!-- Node34&#45;&gt;Node3 -->
<g id="edge162" class="edge"><title>Node34&#45;&gt;Node3</title>
<path fill="none" stroke="midnightblue" d="M951.39,-362.487C1003.89,-353.014 1083.12,-338.67 1152,-326 1153.08,-325.802 1154.16,-325.602 1155.26,-325.4"/>
<polygon fill="midnightblue" stroke="midnightblue" points="1156.07,-328.809 1165.27,-323.549 1154.8,-321.926 1156.07,-328.809"/>
</g>
<!-- Node34&#45;&gt;Node10 -->
<g id="edge164" class="edge"><title>Node34&#45;&gt;Node10</title>
<path fill="none" stroke="midnightblue" d="M931.825,-362.469C983.221,-348.616 1076.72,-323.72 1157,-304 1295.62,-269.948 1330.29,-261.292 1470,-232 1554.12,-214.363 1576.6,-216.752 1660,-196 1692.06,-188.023 1699.42,-183.711 1731,-174 1768.01,-162.619 1810.05,-149.795 1840.85,-140.421"/>
<polygon fill="midnightblue" stroke="midnightblue" points="1841.88,-143.764 1850.43,-137.505 1839.84,-137.067 1841.88,-143.764"/>
</g>
<!-- Node35&#45;&gt;Node3 -->
<g id="edge188" class="edge"><title>Node35&#45;&gt;Node3</title>
<path fill="none" stroke="midnightblue" d="M615.247,-712.749C567.646,-699.14 488,-667.092 488,-605 488,-605 488,-605 488,-489 488,-457.192 483.924,-441.892 507,-420 561.137,-368.639 599.305,-404.702 671,-384 698.689,-376.005 703.887,-368.345 732,-362 811.258,-344.112 1046.53,-326.278 1155.03,-318.74"/>
<polygon fill="midnightblue" stroke="midnightblue" points="1155.39,-322.223 1165.13,-318.042 1154.91,-315.24 1155.39,-322.223"/>
</g>
<!-- Node35&#45;&gt;Node15 -->
<g id="edge268" class="edge"><title>Node35&#45;&gt;Node15</title>
<path fill="none" stroke="midnightblue" d="M615.16,-719.382C510.491,-713.582 206,-689.451 206,-605 206,-605 206,-605 206,-373 206,-329.631 235.299,-321.457 275,-304 330.241,-279.71 1231.04,-256.926 1468.82,-251.314"/>
<polygon fill="midnightblue" stroke="midnightblue" points="1469.07,-254.809 1478.98,-251.075 1468.9,-247.811 1469.07,-254.809"/>
</g>
<!-- Node35&#45;&gt;Node20 -->
<g id="edge264" class="edge"><title>Node35&#45;&gt;Node20</title>
<path fill="none" stroke="midnightblue" d="M684.542,-720.928C873.643,-720.373 1776.42,-715.545 1817,-674 1828.86,-661.858 1824.88,-410.48 1823.43,-335.765"/>
<polygon fill="midnightblue" stroke="midnightblue" points="1826.93,-335.64 1823.23,-325.712 1819.93,-335.78 1826.93,-335.64"/>
</g>
<!-- Node35&#45;&gt;Node26 -->
<g id="edge254" class="edge"><title>Node35&#45;&gt;Node26</title>
<path fill="none" stroke="midnightblue" d="M666.427,-710.295C697.767,-689.871 766.255,-645.238 803.199,-621.162"/>
<polygon fill="midnightblue" stroke="midnightblue" points="805.403,-623.904 811.87,-615.512 801.581,-618.039 805.403,-623.904"/>
</g>
<!-- Node35&#45;&gt;Node27 -->
<g id="edge256" class="edge"><title>Node35&#45;&gt;Node27</title>
<path fill="none" stroke="midnightblue" d="M684.643,-718.558C731.988,-714.246 818.806,-702.828 887,-674 952.966,-646.114 1019.43,-592.452 1051.4,-564.656"/>
<polygon fill="midnightblue" stroke="midnightblue" points="1053.93,-567.095 1059.12,-557.861 1049.3,-561.84 1053.93,-567.095"/>
</g>
<!-- Node35&#45;&gt;Node30 -->
<g id="edge266" class="edge"><title>Node35&#45;&gt;Node30</title>
<path fill="none" stroke="midnightblue" d="M615.185,-719.104C573.811,-715.471 503.976,-704.878 453,-674 418.24,-652.945 393,-645.639 393,-605 393,-605 393,-605 393,-489 393,-453.891 377.772,-415.382 367.124,-392.747"/>
<polygon fill="midnightblue" stroke="midnightblue" points="370.158,-390.984 362.625,-383.534 363.868,-394.056 370.158,-390.984"/>
</g>
<!-- Node35&#45;&gt;Node33 -->
<g id="edge252" class="edge"><title>Node35&#45;&gt;Node33</title>
<path fill="none" stroke="midnightblue" d="M639.143,-710.255C620.884,-690.981 586,-648.471 586,-605 586,-605 586,-605 586,-547 586,-513.567 583.901,-474.763 582.423,-451.582"/>
<polygon fill="midnightblue" stroke="midnightblue" points="585.912,-451.297 581.759,-441.55 578.927,-451.759 585.912,-451.297"/>
</g>
<!-- Node35&#45;&gt;Node36 -->
<g id="edge190" class="edge"><title>Node35&#45;&gt;Node36</title>
<path fill="none" stroke="midnightblue" d="M682.234,-710.497C711.253,-701.041 754.09,-687.083 785.824,-676.743"/>
<polygon fill="midnightblue" stroke="midnightblue" points="787.281,-679.949 795.705,-673.523 785.113,-673.293 787.281,-679.949"/>
</g>
<!-- Node39 -->
<g id="node145" class="node"><title>Node39</title>
<a xlink:href="MojDbIdGenerator_8h.htm" target="_top" xlink:title="db/MojDbIdGenerator.h">
<polygon fill="white" stroke="black" points="535.5,-362.5 535.5,-383.5 662.5,-383.5 662.5,-362.5 535.5,-362.5"/>
<text text-anchor="middle" x="599" y="-370.5" font-family="Helvetica,sans-Serif" font-size="10.00">db/MojDbIdGenerator.h</text>
</a>
</g>
<!-- Node35&#45;&gt;Node39 -->
<g id="edge212" class="edge"><title>Node35&#45;&gt;Node39</title>
<path fill="none" stroke="midnightblue" d="M615.154,-715.648C569.933,-708.053 494.392,-692.94 474,-674 450.21,-651.903 450,-637.469 450,-605 450,-605 450,-605 450,-489 450,-456.531 451.329,-443.243 474,-420 489.443,-404.168 510.733,-393.608 531.369,-386.591"/>
<polygon fill="midnightblue" stroke="midnightblue" points="532.618,-389.867 541.098,-383.516 530.508,-383.192 532.618,-389.867"/>
</g>
<!-- Node40 -->
<g id="node149" class="node"><title>Node40</title>
<a xlink:href="MojDbKindEngine_8h.htm" target="_top" xlink:title="db/MojDbKindEngine.h">
<polygon fill="white" stroke="black" points="1345.5,-594.5 1345.5,-615.5 1468.5,-615.5 1468.5,-594.5 1345.5,-594.5"/>
<text text-anchor="middle" x="1407" y="-602.5" font-family="Helvetica,sans-Serif" font-size="10.00">db/MojDbKindEngine.h</text>
</a>
</g>
<!-- Node35&#45;&gt;Node40 -->
<g id="edge218" class="edge"><title>Node35&#45;&gt;Node40</title>
<path fill="none" stroke="midnightblue" d="M684.798,-720.106C768.534,-717.463 987.617,-707.626 1167,-674 1239.01,-660.502 1320.52,-634.76 1367.62,-618.819"/>
<polygon fill="midnightblue" stroke="midnightblue" points="1368.8,-622.115 1377.13,-615.574 1366.54,-615.49 1368.8,-622.115"/>
</g>
<!-- Node42 -->
<g id="node161" class="node"><title>Node42</title>
<a xlink:href="MojDbPermissionEngine_8h.htm" target="_top" xlink:title="db/MojDbPermissionEngine.h">
<polygon fill="white" stroke="black" points="1238,-420.5 1238,-441.5 1392,-441.5 1392,-420.5 1238,-420.5"/>
<text text-anchor="middle" x="1315" y="-428.5" font-family="Helvetica,sans-Serif" font-size="10.00">db/MojDbPermissionEngine.h</text>
</a>
</g>
<!-- Node35&#45;&gt;Node42 -->
<g id="edge238" class="edge"><title>Node35&#45;&gt;Node42</title>
<path fill="none" stroke="midnightblue" d="M684.536,-718.735C737.253,-714.467 840.382,-702.907 923,-674 1079.39,-619.28 1239.08,-494.251 1294.55,-448.33"/>
<polygon fill="midnightblue" stroke="midnightblue" points="1297.11,-450.756 1302.54,-441.662 1292.62,-445.382 1297.11,-450.756"/>
</g>
<!-- Node43 -->
<g id="node172" class="node"><title>Node43</title>
<a xlink:href="MojDbReq_8h.htm" target="_top" xlink:title="db/MojDbReq.h">
<polygon fill="white" stroke="black" points="89.5,-362.5 89.5,-383.5 178.5,-383.5 178.5,-362.5 89.5,-362.5"/>
<text text-anchor="middle" x="134" y="-370.5" font-family="Helvetica,sans-Serif" font-size="10.00">db/MojDbReq.h</text>
</a>
</g>
<!-- Node35&#45;&gt;Node43 -->
<g id="edge258" class="edge"><title>Node35&#45;&gt;Node43</title>
<path fill="none" stroke="midnightblue" d="M615.211,-720.632C521.522,-719.142 266.006,-711.641 192,-674 155.252,-655.309 130,-646.228 130,-605 130,-605 130,-605 130,-489 130,-455.578 131.679,-416.771 132.861,-393.587"/>
<polygon fill="midnightblue" stroke="midnightblue" points="136.359,-393.723 133.392,-383.552 129.369,-393.353 136.359,-393.723"/>
</g>
<!-- Node44 -->
<g id="node179" class="node"><title>Node44</title>
<a xlink:href="MojFile_8h.htm" target="_top" xlink:title="core/MojFile.h">
<polygon fill="white" stroke="black" points="-0.5,-536.5 -0.5,-557.5 82.5,-557.5 82.5,-536.5 -0.5,-536.5"/>
<text text-anchor="middle" x="41" y="-544.5" font-family="Helvetica,sans-Serif" font-size="10.00">core/MojFile.h</text>
</a>
</g>
<!-- Node35&#45;&gt;Node44 -->
<g id="edge270" class="edge"><title>Node35&#45;&gt;Node44</title>
<path fill="none" stroke="midnightblue" d="M615.389,-719.779C503.781,-715.592 158.166,-700.588 116,-674 77.0111,-649.416 55.7711,-596.614 46.5964,-567.432"/>
<polygon fill="midnightblue" stroke="midnightblue" points="49.8542,-566.106 43.659,-557.511 43.1423,-568.094 49.8542,-566.106"/>
</g>
<!-- Node36&#45;&gt;Node3 -->
<g id="edge192" class="edge"><title>Node36&#45;&gt;Node3</title>
<path fill="none" stroke="midnightblue" d="M798.23,-652.464C770.646,-640.839 735.734,-620.247 749,-594 830.586,-432.585 1051.79,-355.968 1155.69,-328.041"/>
<polygon fill="midnightblue" stroke="midnightblue" points="1156.59,-331.422 1165.37,-325.489 1154.81,-324.654 1156.59,-331.422"/>
</g>
<!-- Node36&#45;&gt;Node14 -->
<g id="edge210" class="edge"><title>Node36&#45;&gt;Node14</title>
<path fill="none" stroke="midnightblue" d="M777.373,-653.742C598.632,-619.81 11.5416,-497.165 81,-362 162.701,-203.012 746.368,-105.712 939.859,-77.5449"/>
<polygon fill="midnightblue" stroke="midnightblue" points="940.469,-80.9933 949.866,-76.0994 939.468,-74.0652 940.469,-80.9933"/>
</g>
<!-- Node36&#45;&gt;Node26 -->
<g id="edge194" class="edge"><title>Node36&#45;&gt;Node26</title>
<path fill="none" stroke="midnightblue" d="M828,-652.362C828,-644.922 828,-634.743 828,-625.728"/>
<polygon fill="midnightblue" stroke="midnightblue" points="831.5,-625.571 828,-615.571 824.5,-625.571 831.5,-625.571"/>
</g>
<!-- Node37 -->
<g id="node135" class="node"><title>Node37</title>
<a xlink:href="MojDbQueryFilter_8h.htm" target="_top" xlink:title="db/MojDbQueryFilter.h">
<polygon fill="white" stroke="black" points="985.5,-478.5 985.5,-499.5 1106.5,-499.5 1106.5,-478.5 985.5,-478.5"/>
<text text-anchor="middle" x="1046" y="-486.5" font-family="Helvetica,sans-Serif" font-size="10.00">db/MojDbQueryFilter.h</text>
</a>
</g>
<!-- Node36&#45;&gt;Node37 -->
<g id="edge196" class="edge"><title>Node36&#45;&gt;Node37</title>
<path fill="none" stroke="midnightblue" d="M848.191,-652.479C864.593,-643.586 888.034,-630.077 907,-616 954.099,-581.043 1003.46,-532.695 1028.78,-506.903"/>
<polygon fill="midnightblue" stroke="midnightblue" points="1031.36,-509.268 1035.83,-499.663 1026.35,-504.383 1031.36,-509.268"/>
</g>
<!-- Node38 -->
<g id="node139" class="node"><title>Node38</title>
<a xlink:href="MojObjectFilter_8h.htm" target="_top" xlink:title="core/MojObjectFilter.h">
<polygon fill="white" stroke="black" points="2143.5,-362.5 2143.5,-383.5 2262.5,-383.5 2262.5,-362.5 2143.5,-362.5"/>
<text text-anchor="middle" x="2203" y="-370.5" font-family="Helvetica,sans-Serif" font-size="10.00">core/MojObjectFilter.h</text>
</a>
</g>
<!-- Node36&#45;&gt;Node38 -->
<g id="edge202" class="edge"><title>Node36&#45;&gt;Node38</title>
<path fill="none" stroke="midnightblue" d="M878.802,-662.099C988.592,-659.546 1255.93,-650.053 1477,-616 1532.08,-607.515 1917.38,-528.952 1965,-500 2005.12,-475.609 1994.35,-445.146 2034,-420 2052.24,-408.436 2102.12,-395.261 2143,-385.809"/>
<polygon fill="midnightblue" stroke="midnightblue" points="2143.94,-389.186 2152.91,-383.55 2142.38,-382.361 2143.94,-389.186"/>
</g>
<!-- Node37&#45;&gt;Node3 -->
<g id="edge198" class="edge"><title>Node37&#45;&gt;Node3</title>
<path fill="none" stroke="midnightblue" d="M1049.76,-478.475C1058.65,-454.897 1083.01,-397.16 1120,-362 1134.57,-348.15 1154.02,-337.366 1171.2,-329.642"/>
<polygon fill="midnightblue" stroke="midnightblue" points="1172.66,-332.826 1180.46,-325.665 1169.89,-326.394 1172.66,-332.826"/>
</g>
<!-- Node37&#45;&gt;Node29 -->
<g id="edge200" class="edge"><title>Node37&#45;&gt;Node29</title>
<path fill="none" stroke="midnightblue" d="M1106.53,-484.898C1264.18,-474.217 1686.03,-445.634 1842.51,-435.031"/>
<polygon fill="midnightblue" stroke="midnightblue" points="1843.13,-438.497 1852.87,-434.329 1842.65,-431.513 1843.13,-438.497"/>
</g>
<!-- Node38&#45;&gt;Node7 -->
<g id="edge204" class="edge"><title>Node38&#45;&gt;Node7</title>
<path fill="none" stroke="midnightblue" d="M2262.75,-364.379C2339.2,-353.349 2470.79,-334.363 2546.6,-323.426"/>
<polygon fill="midnightblue" stroke="midnightblue" points="2547.51,-326.831 2556.91,-321.938 2546.51,-319.902 2547.51,-326.831"/>
</g>
<!-- Node38&#45;&gt;Node15 -->
<g id="edge208" class="edge"><title>Node38&#45;&gt;Node15</title>
<path fill="none" stroke="midnightblue" d="M2143.35,-366.77C2022.58,-354.147 1760.29,-326.682 1758,-326 1737.42,-319.881 1734.97,-311.875 1715,-304 1708.26,-301.341 1627.2,-278.42 1573.45,-263.308"/>
<polygon fill="midnightblue" stroke="midnightblue" points="1574.33,-259.919 1563.75,-260.583 1572.43,-266.658 1574.33,-259.919"/>
</g>
<!-- Node38&#45;&gt;Node17 -->
<g id="edge206" class="edge"><title>Node38&#45;&gt;Node17</title>
<path fill="none" stroke="midnightblue" d="M2207.77,-362.362C2211.21,-354.677 2215.97,-344.069 2220.11,-334.84"/>
<polygon fill="midnightblue" stroke="midnightblue" points="2223.36,-336.127 2224.26,-325.571 2216.98,-333.264 2223.36,-336.127"/>
</g>
<!-- Node39&#45;&gt;Node3 -->
<g id="edge214" class="edge"><title>Node39&#45;&gt;Node3</title>
<path fill="none" stroke="midnightblue" d="M662.831,-363.609C667.285,-363.038 671.707,-362.495 676,-362 850.495,-341.886 1057.89,-325.924 1155.27,-318.895"/>
<polygon fill="midnightblue" stroke="midnightblue" points="1155.75,-322.37 1165.47,-318.162 1155.24,-315.388 1155.75,-322.37"/>
</g>
<!-- Node39&#45;&gt;Node23 -->
<g id="edge216" class="edge"><title>Node39&#45;&gt;Node23</title>
<path fill="none" stroke="midnightblue" d="M630.148,-362.497C658.189,-353.041 699.582,-339.083 730.245,-328.743"/>
<polygon fill="midnightblue" stroke="midnightblue" points="731.436,-332.035 739.794,-325.523 729.2,-325.402 731.436,-332.035"/>
</g>
<!-- Node40&#45;&gt;Node3 -->
<g id="edge220" class="edge"><title>Node40&#45;&gt;Node3</title>
<path fill="none" stroke="midnightblue" d="M1389.02,-594.387C1352.22,-571.624 1268.48,-514.256 1229,-442 1210.58,-408.294 1208.81,-362.358 1209.62,-335.971"/>
<polygon fill="midnightblue" stroke="midnightblue" points="1213.13,-335.796 1210.1,-325.644 1206.14,-335.471 1213.13,-335.796"/>
</g>
<!-- Node40&#45;&gt;Node12 -->
<g id="edge224" class="edge"><title>Node40&#45;&gt;Node12</title>
<path fill="none" stroke="midnightblue" d="M1408.81,-594.172C1413.24,-565.026 1422.72,-482.874 1401,-420 1382.11,-365.301 1324,-372.87 1324,-315 1324,-315 1324,-315 1324,-250 1324,-213.875 1329.61,-172.111 1333.46,-147.72"/>
<polygon fill="midnightblue" stroke="midnightblue" points="1336.92,-148.252 1335.08,-137.819 1330.01,-147.123 1336.92,-148.252"/>
</g>
<!-- Node40&#45;&gt;Node15 -->
<g id="edge228" class="edge"><title>Node40&#45;&gt;Node15</title>
<path fill="none" stroke="midnightblue" d="M1441.36,-594.454C1484.24,-578.908 1552,-545.416 1552,-489 1552,-489 1552,-489 1552,-373 1552,-336.281 1540.77,-294.703 1533.07,-270.511"/>
<polygon fill="midnightblue" stroke="midnightblue" points="1536.29,-269.099 1529.84,-260.698 1529.64,-271.291 1536.29,-269.099"/>
</g>
<!-- Node40&#45;&gt;Node20 -->
<g id="edge226" class="edge"><title>Node40&#45;&gt;Node20</title>
<path fill="none" stroke="midnightblue" d="M1466.31,-594.429C1497.41,-587.206 1535.32,-575.666 1566,-558 1674.26,-495.668 1772.75,-378.946 1808.64,-333.643"/>
<polygon fill="midnightblue" stroke="midnightblue" points="1811.55,-335.601 1814.96,-325.572 1806.04,-331.283 1811.55,-335.601"/>
</g>
<!-- Node40&#45;&gt;Node23 -->
<g id="edge230" class="edge"><title>Node40&#45;&gt;Node23</title>
<path fill="none" stroke="midnightblue" d="M1366.37,-594.431C1313.1,-580.643 1216.69,-555.929 1134,-536 1064.4,-519.228 1043.04,-527.642 977,-500 965.94,-495.37 802.437,-393.405 795,-384 783.967,-370.047 777.82,-350.672 774.516,-336.005"/>
<polygon fill="midnightblue" stroke="midnightblue" points="777.886,-335.003 772.51,-325.874 771.019,-336.363 777.886,-335.003"/>
</g>
<!-- Node40&#45;&gt;Node27 -->
<g id="edge222" class="edge"><title>Node40&#45;&gt;Node27</title>
<path fill="none" stroke="midnightblue" d="M1346.15,-594.497C1286.59,-584.215 1196.18,-568.609 1135.42,-558.12"/>
<polygon fill="midnightblue" stroke="midnightblue" points="1136.01,-554.67 1125.56,-556.418 1134.82,-561.568 1136.01,-554.67"/>
</g>
<!-- Node41 -->
<g id="node157" class="node"><title>Node41</title>
<a xlink:href="MojTokenSet_8h.htm" target="_top" xlink:title="core/MojTokenSet.h">
<polygon fill="white" stroke="red" points="2924,-362.5 2924,-383.5 3036,-383.5 3036,-362.5 2924,-362.5"/>
<text text-anchor="middle" x="2980" y="-370.5" font-family="Helvetica,sans-Serif" font-size="10.00">core/MojTokenSet.h</text>
</a>
</g>
<!-- Node40&#45;&gt;Node41 -->
<g id="edge232" class="edge"><title>Node40&#45;&gt;Node41</title>
<path fill="none" stroke="midnightblue" d="M1468.84,-601.915C1685.51,-590.763 2409.49,-550.521 2636,-500 2697.55,-486.273 2869.84,-417.738 2944.62,-387.442"/>
<polygon fill="midnightblue" stroke="midnightblue" points="2946.13,-390.605 2954.08,-383.601 2943.5,-384.118 2946.13,-390.605"/>
</g>
<!-- Node41&#45;&gt;Node4 -->
<g id="edge234" class="edge"><title>Node41&#45;&gt;Node4</title>
<path fill="none" stroke="midnightblue" d="M2970.16,-362.418C2952.44,-342.22 2917,-296.065 2917,-250 2917,-250 2917,-250 2917,-127 2917,-50.7807 2834.18,-75.5066 2760,-58 2674.65,-37.8568 2076.79,-18.7802 1875.77,-12.8703"/>
<polygon fill="midnightblue" stroke="midnightblue" points="1875.74,-9.36824 1865.65,-12.5741 1875.54,-16.3652 1875.74,-9.36824"/>
</g>
<!-- Node41&#45;&gt;Node20 -->
<g id="edge236" class="edge"><title>Node41&#45;&gt;Node20</title>
<path fill="none" stroke="midnightblue" d="M2923.93,-366.376C2908.72,-364.753 2892.24,-363.153 2877,-362 2683.56,-347.372 2088.65,-324.774 1889.06,-317.41"/>
<polygon fill="midnightblue" stroke="midnightblue" points="1889.14,-313.91 1879.02,-317.039 1888.88,-320.905 1889.14,-313.91"/>
</g>
<!-- Node42&#45;&gt;Node3 -->
<g id="edge240" class="edge"><title>Node42&#45;&gt;Node3</title>
<path fill="none" stroke="midnightblue" d="M1286.33,-420.489C1268.98,-412.799 1247.65,-400.768 1234,-384 1222.82,-370.267 1216.98,-350.872 1214,-336.14"/>
<polygon fill="midnightblue" stroke="midnightblue" points="1217.39,-335.206 1212.22,-325.955 1210.49,-336.407 1217.39,-335.206"/>
</g>
<!-- Node42&#45;&gt;Node9 -->
<g id="edge246" class="edge"><title>Node42&#45;&gt;Node9</title>
<path fill="none" stroke="midnightblue" d="M1345.19,-420.482C1416.23,-396.144 1599.92,-335.618 1758,-304 1894.01,-276.797 1932.77,-298.868 2068,-268 2073.05,-266.847 2078.3,-265.375 2083.43,-263.77"/>
<polygon fill="midnightblue" stroke="midnightblue" points="2084.68,-267.042 2093.07,-260.57 2082.47,-260.398 2084.68,-267.042"/>
</g>
<!-- Node42&#45;&gt;Node15 -->
<g id="edge248" class="edge"><title>Node42&#45;&gt;Node15</title>
<path fill="none" stroke="midnightblue" d="M1314.52,-420.145C1314.05,-395.891 1316.44,-336.86 1348,-304 1364.85,-286.461 1423.48,-270.869 1468.9,-261.003"/>
<polygon fill="midnightblue" stroke="midnightblue" points="1469.9,-264.368 1478.96,-258.864 1468.45,-257.521 1469.9,-264.368"/>
</g>
<!-- Node42&#45;&gt;Node20 -->
<g id="edge244" class="edge"><title>Node42&#45;&gt;Node20</title>
<path fill="none" stroke="midnightblue" d="M1392.06,-426.067C1491.14,-419.016 1657.29,-404.591 1715,-384 1732.7,-377.685 1774.06,-349.666 1800.15,-331.332"/>
<polygon fill="midnightblue" stroke="midnightblue" points="1802.21,-334.161 1808.36,-325.531 1798.17,-328.445 1802.21,-334.161"/>
</g>
<!-- Node42&#45;&gt;Node23 -->
<g id="edge250" class="edge"><title>Node42&#45;&gt;Node23</title>
<path fill="none" stroke="midnightblue" d="M1237.78,-427.038C1108.36,-419.894 858.288,-403.744 823,-384 803.27,-372.961 788.748,-351.004 780.14,-334.81"/>
<polygon fill="midnightblue" stroke="midnightblue" points="783.15,-333.004 775.551,-325.622 776.888,-336.132 783.15,-333.004"/>
</g>
<!-- Node42&#45;&gt;Node34 -->
<g id="edge242" class="edge"><title>Node42&#45;&gt;Node34</title>
<path fill="none" stroke="midnightblue" d="M1238.58,-420.497C1160.5,-409.765 1040.22,-393.234 964.117,-382.774"/>
<polygon fill="midnightblue" stroke="midnightblue" points="964.525,-379.298 954.141,-381.403 963.572,-386.232 964.525,-379.298"/>
</g>
<!-- Node43&#45;&gt;Node3 -->
<g id="edge260" class="edge"><title>Node43&#45;&gt;Node3</title>
<path fill="none" stroke="midnightblue" d="M178.645,-369.887C212.274,-367.584 259.522,-364.437 301,-362 624.159,-343.013 1012.12,-324.35 1154.81,-317.624"/>
<polygon fill="midnightblue" stroke="midnightblue" points="1155.24,-321.109 1165.06,-317.142 1154.91,-314.116 1155.24,-321.109"/>
</g>
<!-- Node43&#45;&gt;Node15 -->
<g id="edge262" class="edge"><title>Node43&#45;&gt;Node15</title>
<path fill="none" stroke="midnightblue" d="M139.187,-362.445C147.699,-346.453 166.29,-316.614 192,-304 250.049,-275.519 1220.67,-255.657 1468.67,-251.031"/>
<polygon fill="midnightblue" stroke="midnightblue" points="1468.97,-254.526 1478.91,-250.841 1468.84,-247.528 1468.97,-254.526"/>
</g>
<!-- Node44&#45;&gt;Node4 -->
<g id="edge272" class="edge"><title>Node44&#45;&gt;Node4</title>
<path fill="none" stroke="midnightblue" d="M38.3438,-536.202C33.5625,-515.79 24,-470.08 24,-431 24,-431 24,-431 24,-127 24,-2.7128 171.932,-75.3636 295,-58 439.547,-37.6059 1471.75,-17.2546 1744.2,-12.1943"/>
<polygon fill="midnightblue" stroke="midnightblue" points="1744.4,-15.6913 1754.33,-12.0067 1744.27,-8.69253 1744.4,-15.6913"/>
</g>
<!-- Node45&#45;&gt;Node2 -->
<g id="edge280" class="edge"><title>Node45&#45;&gt;Node2</title>
<path fill="none" stroke="midnightblue" d="M2500.81,-718.246C2392.65,-711.564 2110.37,-693.595 1875,-674 1856.69,-672.476 1836.75,-670.619 1818.74,-668.869"/>
<polygon fill="midnightblue" stroke="midnightblue" points="1818.97,-665.374 1808.68,-667.882 1818.29,-672.341 1818.97,-665.374"/>
</g>
<!-- Node45&#45;&gt;Node3 -->
<g id="edge278" class="edge"><title>Node45&#45;&gt;Node3</title>
<path fill="none" stroke="midnightblue" d="M2511.32,-710.453C2326.87,-654.359 1461.7,-391.244 1255.3,-328.471"/>
<polygon fill="midnightblue" stroke="midnightblue" points="1256.28,-325.111 1245.69,-325.55 1254.24,-331.809 1256.28,-325.111"/>
</g>
<!-- Node45&#45;&gt;Node7 -->
<g id="edge298" class="edge"><title>Node45&#45;&gt;Node7</title>
<path fill="none" stroke="midnightblue" d="M2591.03,-710.518C2637.05,-699.447 2703.04,-682.45 2712,-674 2735.62,-651.726 2736,-637.469 2736,-605 2736,-605 2736,-605 2736,-431 2736,-381.012 2681.87,-347.358 2643.2,-329.694"/>
<polygon fill="midnightblue" stroke="midnightblue" points="2644.31,-326.359 2633.75,-325.548 2641.5,-332.769 2644.31,-326.359"/>
</g>
<!-- Node45&#45;&gt;Node15 -->
<g id="edge314" class="edge"><title>Node45&#45;&gt;Node15</title>
<path fill="none" stroke="midnightblue" d="M2583.57,-710.436C2628.58,-695.214 2698,-662.428 2698,-605 2698,-605 2698,-605 2698,-547 2698,-440.018 2636.93,-414.998 2544,-362 2349.37,-251.007 1692.84,-271.38 1658,-268 1633.43,-265.617 1606.41,-262.093 1583.25,-258.793"/>
<polygon fill="midnightblue" stroke="midnightblue" points="1583.64,-255.313 1573.24,-257.348 1582.64,-262.241 1583.64,-255.313"/>
</g>
<!-- Node45&#45;&gt;Node16 -->
<g id="edge318" class="edge"><title>Node45&#45;&gt;Node16</title>
<path fill="none" stroke="midnightblue" d="M2591.23,-711.015C2592.84,-710.67 2594.43,-710.331 2596,-710 2674.54,-693.375 2712.31,-726.544 2773,-674 2800.63,-650.082 2895.96,-393.236 2877,-362 2812.01,-254.949 2746.18,-270.47 2627,-232 2537.95,-203.255 2429.33,-192.031 2363.75,-187.689"/>
<polygon fill="midnightblue" stroke="midnightblue" points="2363.8,-184.186 2353.6,-187.05 2363.36,-191.172 2363.8,-184.186"/>
</g>
<!-- Node45&#45;&gt;Node17 -->
<g id="edge312" class="edge"><title>Node45&#45;&gt;Node17</title>
<path fill="none" stroke="midnightblue" d="M2552.11,-710.191C2562.85,-690.127 2584,-645.477 2584,-605 2584,-605 2584,-605 2584,-431 2584,-384.382 2547.11,-381.996 2505,-362 2466.11,-343.533 2348.87,-328.117 2280.35,-320.373"/>
<polygon fill="midnightblue" stroke="midnightblue" points="2280.52,-316.871 2270.2,-319.242 2279.75,-323.828 2280.52,-316.871"/>
</g>
<!-- Node45&#45;&gt;Node20 -->
<g id="edge296" class="edge"><title>Node45&#45;&gt;Node20</title>
<path fill="none" stroke="midnightblue" d="M2539.78,-710.304C2521.63,-678.046 2470,-578.43 2470,-489 2470,-489 2470,-489 2470,-431 2470,-399.192 2475.56,-382.208 2451,-362 2429.54,-344.35 2046.16,-325.094 1889.19,-317.913"/>
<polygon fill="midnightblue" stroke="midnightblue" points="1889.33,-314.416 1879.18,-317.457 1889.01,-321.408 1889.33,-314.416"/>
</g>
<!-- Node45&#45;&gt;Node41 -->
<g id="edge316" class="edge"><title>Node45&#45;&gt;Node41</title>
<path fill="none" stroke="midnightblue" d="M2591.08,-718.397C2660.56,-713.577 2789.62,-701.172 2826,-674 2876.33,-636.415 2888,-609.811 2888,-547 2888,-547 2888,-547 2888,-489 2888,-445.86 2927.54,-409.426 2954.78,-389.448"/>
<polygon fill="midnightblue" stroke="midnightblue" points="2956.98,-392.181 2963.13,-383.552 2952.94,-386.464 2956.98,-392.181"/>
</g>
<!-- Node45&#45;&gt;Node42 -->
<g id="edge282" class="edge"><title>Node45&#45;&gt;Node42</title>
<path fill="none" stroke="midnightblue" d="M2500.96,-719.714C2337.52,-714.881 1781.34,-696.899 1705,-674 1546.16,-626.351 1388.12,-495.855 1334.32,-448.48"/>
<polygon fill="midnightblue" stroke="midnightblue" points="1336.4,-445.642 1326.6,-441.615 1331.75,-450.874 1336.4,-445.642"/>
</g>
<!-- Node46 -->
<g id="node188" class="node"><title>Node46</title>
<a xlink:href="MojDbRevisionSet_8h.htm" target="_top" xlink:title="db/MojDbRevisionSet.h">
<polygon fill="white" stroke="black" points="2049.5,-478.5 2049.5,-499.5 2174.5,-499.5 2174.5,-478.5 2049.5,-478.5"/>
<text text-anchor="middle" x="2112" y="-486.5" font-family="Helvetica,sans-Serif" font-size="10.00">db/MojDbRevisionSet.h</text>
</a>
</g>
<!-- Node45&#45;&gt;Node46 -->
<g id="edge284" class="edge"><title>Node45&#45;&gt;Node46</title>
<path fill="none" stroke="midnightblue" d="M2526.22,-710.429C2456.75,-673.289 2223.61,-548.661 2141.18,-504.597"/>
<polygon fill="midnightblue" stroke="midnightblue" points="2142.36,-501.261 2131.89,-499.634 2139.06,-507.435 2142.36,-501.261"/>
</g>
<!-- Node47 -->
<g id="node192" class="node"><title>Node47</title>
<a xlink:href="MojDbKindState_8h.htm" target="_top" xlink:title="db/MojDbKindState.h">
<polygon fill="white" stroke="red" points="1883.5,-652.5 1883.5,-673.5 1998.5,-673.5 1998.5,-652.5 1883.5,-652.5"/>
<text text-anchor="middle" x="1941" y="-660.5" font-family="Helvetica,sans-Serif" font-size="10.00">db/MojDbKindState.h</text>
</a>
</g>
<!-- Node45&#45;&gt;Node47 -->
<g id="edge290" class="edge"><title>Node45&#45;&gt;Node47</title>
<path fill="none" stroke="midnightblue" d="M2500.89,-718.038C2408.8,-711.769 2192.62,-695.916 2012,-674 2010.92,-673.869 2009.82,-673.733 2008.72,-673.594"/>
<polygon fill="midnightblue" stroke="midnightblue" points="2009.07,-670.109 1998.69,-672.264 2008.14,-677.048 2009.07,-670.109"/>
</g>
<!-- Node48 -->
<g id="node198" class="node"><title>Node48</title>
<a xlink:href="MojSchema_8h.htm" target="_top" xlink:title="core/MojSchema.h">
<polygon fill="white" stroke="black" points="2764,-362.5 2764,-383.5 2868,-383.5 2868,-362.5 2764,-362.5"/>
<text text-anchor="middle" x="2816" y="-370.5" font-family="Helvetica,sans-Serif" font-size="10.00">core/MojSchema.h</text>
</a>
</g>
<!-- Node45&#45;&gt;Node48 -->
<g id="edge300" class="edge"><title>Node45&#45;&gt;Node48</title>
<path fill="none" stroke="midnightblue" d="M2591.11,-710.889C2650.73,-697.483 2748.5,-675.348 2750,-674 2774.17,-652.317 2774,-637.469 2774,-605 2774,-605 2774,-605 2774,-489 2774,-453.364 2791.74,-415.052 2804.16,-392.594"/>
<polygon fill="midnightblue" stroke="midnightblue" points="2807.31,-394.141 2809.25,-383.725 2801.24,-390.656 2807.31,-394.141"/>
</g>
<!-- Node46&#45;&gt;Node3 -->
<g id="edge286" class="edge"><title>Node46&#45;&gt;Node3</title>
<path fill="none" stroke="midnightblue" d="M2049.5,-481.328C1913.1,-464.121 1592.77,-421.049 1490,-384 1471.64,-377.381 1470.27,-368.851 1452,-362 1390.89,-339.087 1316.67,-326.77 1266.88,-320.57"/>
<polygon fill="midnightblue" stroke="midnightblue" points="1266.99,-317.058 1256.64,-319.338 1266.15,-324.008 1266.99,-317.058"/>
</g>
<!-- Node46&#45;&gt;Node5 -->
<g id="edge288" class="edge"><title>Node46&#45;&gt;Node5</title>
<path fill="none" stroke="midnightblue" d="M2120.25,-478.362C2126.47,-470.35 2135.15,-459.161 2142.51,-449.67"/>
<polygon fill="midnightblue" stroke="midnightblue" points="2145.43,-451.617 2148.8,-441.571 2139.9,-447.326 2145.43,-451.617"/>
</g>
<!-- Node47&#45;&gt;Node17 -->
<g id="edge292" class="edge"><title>Node47&#45;&gt;Node17</title>
<path fill="none" stroke="midnightblue" d="M1998.6,-659.509C2114.17,-649.03 2372.8,-607.314 2484,-442 2503.84,-412.498 2506.75,-389.325 2484,-362 2458.61,-331.5 2347.23,-320.718 2280.36,-316.961"/>
<polygon fill="midnightblue" stroke="midnightblue" points="2280.2,-313.448 2270.02,-316.417 2279.83,-320.438 2280.2,-313.448"/>
</g>
<!-- Node47&#45;&gt;Node40 -->
<g id="edge294" class="edge"><title>Node47&#45;&gt;Node40</title>
<path fill="none" stroke="midnightblue" d="M1883.35,-656.738C1785.11,-646.068 1585.56,-624.394 1478.57,-612.773"/>
<polygon fill="midnightblue" stroke="midnightblue" points="1478.83,-609.281 1468.51,-611.681 1478.07,-616.24 1478.83,-609.281"/>
</g>
<!-- Node48&#45;&gt;Node4 -->
<g id="edge302" class="edge"><title>Node48&#45;&gt;Node4</title>
<path fill="none" stroke="midnightblue" d="M2818.51,-362.21C2823.24,-340.893 2833,-291.821 2833,-250 2833,-250 2833,-250 2833,-127 2833,-54.4248 2755.41,-75.6008 2685,-58 2607.33,-38.5844 2065.78,-19.3204 1875.73,-13.0862"/>
<polygon fill="midnightblue" stroke="midnightblue" points="1875.71,-9.58382 1865.6,-12.7554 1875.48,-16.5801 1875.71,-9.58382"/>
</g>
<!-- Node48&#45;&gt;Node7 -->
<g id="edge306" class="edge"><title>Node48&#45;&gt;Node7</title>
<path fill="none" stroke="midnightblue" d="M2777.79,-362.497C2742.8,-352.877 2690.85,-338.598 2653.05,-328.209"/>
<polygon fill="midnightblue" stroke="midnightblue" points="2653.85,-324.799 2643.28,-325.523 2652,-331.548 2653.85,-324.799"/>
</g>
<!-- Node48&#45;&gt;Node9 -->
<g id="edge304" class="edge"><title>Node48&#45;&gt;Node9</title>
<path fill="none" stroke="midnightblue" d="M2789.3,-362.328C2766.66,-353.131 2733.44,-339.277 2705,-326 2685.55,-316.92 2682.59,-310.058 2662,-304 2571.41,-277.35 2292.28,-259.415 2173.93,-252.818"/>
<polygon fill="midnightblue" stroke="midnightblue" points="2173.84,-249.308 2163.66,-252.252 2173.46,-256.297 2173.84,-249.308"/>
</g>
<!-- Node48&#45;&gt;Node16 -->
<g id="edge310" class="edge"><title>Node48&#45;&gt;Node16</title>
<path fill="none" stroke="midnightblue" d="M2801.97,-362.314C2766.24,-335.684 2668.09,-266.072 2575,-232 2504.96,-206.367 2419.47,-194.504 2363.71,-189.157"/>
<polygon fill="midnightblue" stroke="midnightblue" points="2363.93,-185.663 2353.65,-188.233 2363.29,-192.634 2363.93,-185.663"/>
</g>
<!-- Node48&#45;&gt;Node17 -->
<g id="edge308" class="edge"><title>Node48&#45;&gt;Node17</title>
<path fill="none" stroke="midnightblue" d="M2763.91,-367.853C2652.33,-356.828 2391.38,-331.045 2280.41,-320.08"/>
<polygon fill="midnightblue" stroke="midnightblue" points="2280.45,-316.566 2270.15,-319.066 2279.76,-323.532 2280.45,-316.566"/>
</g>
<!-- Node49&#45;&gt;Node4 -->
<g id="edge326" class="edge"><title>Node49&#45;&gt;Node4</title>
<path fill="none" stroke="midnightblue" d="M3151.87,-420.495C3147.96,-400.201 3140,-354.15 3140,-315 3140,-315 3140,-315 3140,-127 3140,10.2477 2974.99,-76.5393 2839,-58 2651.76,-32.4735 2072.36,-17.0615 1875.92,-12.4613"/>
<polygon fill="midnightblue" stroke="midnightblue" points="1875.82,-8.95827 1865.75,-12.2248 1875.66,-15.9564 1875.82,-8.95827"/>
</g>
<!-- Node49&#45;&gt;Node7 -->
<g id="edge332" class="edge"><title>Node49&#45;&gt;Node7</title>
<path fill="none" stroke="midnightblue" d="M3146.05,-420.338C3133.55,-404.488 3107.64,-375.169 3078,-362 3005.22,-329.663 2773.28,-319.37 2663.58,-316.263"/>
<polygon fill="midnightblue" stroke="midnightblue" points="2663.44,-312.758 2653.35,-315.984 2663.25,-319.755 2663.44,-312.758"/>
</g>
<!-- Node49&#45;&gt;Node41 -->
<g id="edge334" class="edge"><title>Node49&#45;&gt;Node41</title>
<path fill="none" stroke="midnightblue" d="M3122.49,-420.497C3094.12,-411.041 3052.25,-397.083 3021.23,-386.743"/>
<polygon fill="midnightblue" stroke="midnightblue" points="3022.16,-383.365 3011.57,-383.523 3019.95,-390.006 3022.16,-383.365"/>
</g>
<!-- Node50 -->
<g id="node214" class="node"><title>Node50</title>
<a xlink:href="MojDataSerialization_8h.htm" target="_top" xlink:title="core/MojDataSerialization.h">
<polygon fill="white" stroke="red" points="3168,-116.5 3168,-137.5 3314,-137.5 3314,-116.5 3168,-116.5"/>
<text text-anchor="middle" x="3241" y="-124.5" font-family="Helvetica,sans-Serif" font-size="10.00">core/MojDataSerialization.h</text>
</a>
</g>
<!-- Node49&#45;&gt;Node50 -->
<g id="edge328" class="edge"><title>Node49&#45;&gt;Node50</title>
<path fill="none" stroke="midnightblue" d="M3163.25,-420.317C3179.15,-400.806 3210,-357.489 3210,-315 3210,-315 3210,-315 3210,-250 3210,-212.785 3223.51,-171.104 3232.69,-147.07"/>
<polygon fill="midnightblue" stroke="midnightblue" points="3236,-148.218 3236.43,-137.631 3229.49,-145.642 3236,-148.218"/>
</g>
<!-- Node50&#45;&gt;Node4 -->
<g id="edge330" class="edge"><title>Node50&#45;&gt;Node4</title>
<path fill="none" stroke="midnightblue" d="M3231.89,-116.341C3217.34,-100.21 3187.11,-70.1876 3154,-58 3093.53,-35.7382 2137.56,-16.9144 1875.81,-12.1587"/>
<polygon fill="midnightblue" stroke="midnightblue" points="1875.76,-8.6573 1865.7,-11.9757 1875.63,-15.6562 1875.76,-8.6573"/>
</g>
</g>
</svg>
