<?xml version="1.0" encoding="UTF-8" standalone="no"?>
<!DOCTYPE svg PUBLIC "-//W3C//DTD SVG 1.1//EN"
 "http://www.w3.org/Graphics/SVG/1.1/DTD/svg11.dtd">
<!-- Generated by graphviz version 2.26.3 (20100126.1600)
 -->
<!-- Title: MojDbTextTokenizer.h Pages: 1 -->
<svg width="1493pt" height="262pt"
 viewBox="0.00 0.00 1493.00 262.00" xmlns="http://www.w3.org/2000/svg" xmlns:xlink="http://www.w3.org/1999/xlink">
<g id="graph1" class="graph" transform="scale(1 1) rotate(0) translate(4 258)">
<title>MojDbTextTokenizer.h</title>
<polygon fill="white" stroke="white" points="-4,5 -4,-258 1490,-258 1490,5 -4,5"/>
<!-- Node1 -->
<g id="node1" class="node"><title>Node1</title>
<polygon fill="#bfbfbf" stroke="black" points="1231.5,-232.5 1231.5,-253.5 1354.5,-253.5 1354.5,-232.5 1231.5,-232.5"/>
<text text-anchor="middle" x="1293" y="-240.5" font-family="Helvetica,sans-Serif" font-size="10.00">MojDbTextTokenizer.h</text>
</g>
<!-- Node2 -->
<g id="node3" class="node"><title>Node2</title>
<a xlink:href="MojDbExtractor_8h.htm" target="_top" xlink:title="MojDbExtractor.h">
<polygon fill="white" stroke="black" points="1110,-174.5 1110,-195.5 1208,-195.5 1208,-174.5 1110,-174.5"/>
<text text-anchor="middle" x="1159" y="-182.5" font-family="Helvetica,sans-Serif" font-size="10.00">MojDbExtractor.h</text>
</a>
</g>
<!-- Node1&#45;&gt;Node2 -->
<g id="edge2" class="edge"><title>Node1&#45;&gt;Node2</title>
<path fill="none" stroke="midnightblue" d="M1259.45,-228.479C1235.86,-218.269 1204.83,-204.839 1183.54,-195.621"/>
<polygon fill="midnightblue" stroke="midnightblue" points="1258.17,-231.736 1268.73,-232.497 1260.95,-225.312 1258.17,-231.736"/>
</g>
<!-- Node14 -->
<g id="node29" class="node"><title>Node14</title>
<a xlink:href="MojDbQueryPlan_8cpp.htm" target="_top" xlink:title="MojDbQueryPlan.cpp">
<polygon fill="white" stroke="black" points="1015,-58.5 1015,-79.5 1131,-79.5 1131,-58.5 1015,-58.5"/>
<text text-anchor="middle" x="1073" y="-66.5" font-family="Helvetica,sans-Serif" font-size="10.00">MojDbQueryPlan.cpp</text>
</a>
</g>
<!-- Node1&#45;&gt;Node14 -->
<g id="edge50" class="edge"><title>Node1&#45;&gt;Node14</title>
<path fill="none" stroke="midnightblue" d="M1302.51,-223.008C1313.98,-195.624 1328.83,-146.394 1304,-116 1282.57,-89.7742 1192.31,-77.8143 1131.16,-72.6357"/>
<polygon fill="midnightblue" stroke="midnightblue" points="1299.22,-221.787 1298.37,-232.348 1305.62,-224.625 1299.22,-221.787"/>
</g>
<!-- Node19 -->
<g id="node41" class="node"><title>Node19</title>
<a xlink:href="MojDbExtractor_8cpp.htm" target="_top" xlink:title="MojDbExtractor.cpp">
<polygon fill="white" stroke="black" points="1186.5,-116.5 1186.5,-137.5 1295.5,-137.5 1295.5,-116.5 1186.5,-116.5"/>
<text text-anchor="middle" x="1241" y="-124.5" font-family="Helvetica,sans-Serif" font-size="10.00">MojDbExtractor.cpp</text>
</a>
</g>
<!-- Node1&#45;&gt;Node19 -->
<g id="edge48" class="edge"><title>Node1&#45;&gt;Node19</title>
<path fill="none" stroke="midnightblue" d="M1284.09,-223.121C1273.01,-198.396 1254.49,-157.082 1245.79,-137.679"/>
<polygon fill="midnightblue" stroke="midnightblue" points="1280.92,-224.602 1288.2,-232.295 1287.3,-221.738 1280.92,-224.602"/>
</g>
<!-- Node20 -->
<g id="node46" class="node"><title>Node20</title>
<a xlink:href="MojDbTextTokenizer_8cpp.htm" target="_top" xlink:title="MojDbTextTokenizer.cpp">
<polygon fill="white" stroke="black" points="1351,-174.5 1351,-195.5 1485,-195.5 1485,-174.5 1351,-174.5"/>
<text text-anchor="middle" x="1418" y="-182.5" font-family="Helvetica,sans-Serif" font-size="10.00">MojDbTextTokenizer.cpp</text>
</a>
</g>
<!-- Node1&#45;&gt;Node20 -->
<g id="edge52" class="edge"><title>Node1&#45;&gt;Node20</title>
<path fill="none" stroke="midnightblue" d="M1324.88,-228.206C1346.81,-218.031 1375.42,-204.757 1395.11,-195.621"/>
<polygon fill="midnightblue" stroke="midnightblue" points="1323.23,-225.113 1315.64,-232.497 1326.18,-231.462 1323.23,-225.113"/>
</g>
<!-- Node3 -->
<g id="node5" class="node"><title>Node3</title>
<a xlink:href="MojDbIndex_8h.htm" target="_top" xlink:title="MojDbIndex.h">
<polygon fill="white" stroke="black" points="792.5,-116.5 792.5,-137.5 873.5,-137.5 873.5,-116.5 792.5,-116.5"/>
<text text-anchor="middle" x="833" y="-124.5" font-family="Helvetica,sans-Serif" font-size="10.00">MojDbIndex.h</text>
</a>
</g>
<!-- Node2&#45;&gt;Node3 -->
<g id="edge4" class="edge"><title>Node2&#45;&gt;Node3</title>
<path fill="none" stroke="midnightblue" d="M1099.68,-174.446C1034.24,-162.803 930.678,-144.378 873.782,-134.256"/>
<polygon fill="midnightblue" stroke="midnightblue" points="1099.38,-177.948 1109.84,-176.254 1100.61,-171.056 1099.38,-177.948"/>
</g>
<!-- Node12 -->
<g id="node23" class="node"><title>Node12</title>
<a xlink:href="MojDbSearchCursor_8cpp.htm" target="_top" xlink:title="MojDbSearchCursor.cpp">
<polygon fill="white" stroke="black" points="861.5,-0.5 861.5,-21.5 992.5,-21.5 992.5,-0.5 861.5,-0.5"/>
<text text-anchor="middle" x="927" y="-8.5" font-family="Helvetica,sans-Serif" font-size="10.00">MojDbSearchCursor.cpp</text>
</a>
</g>
<!-- Node2&#45;&gt;Node12 -->
<g id="edge46" class="edge"><title>Node2&#45;&gt;Node12</title>
<path fill="none" stroke="midnightblue" d="M1162.4,-164.261C1165.71,-136.323 1166.88,-86.7887 1140,-58 1120.17,-36.7551 1047.54,-24.0895 992.557,-17.3529"/>
<polygon fill="midnightblue" stroke="midnightblue" points="1158.89,-164.081 1160.98,-174.468 1165.83,-165.046 1158.89,-164.081"/>
</g>
<!-- Node17 -->
<g id="node36" class="node"><title>Node17</title>
<a xlink:href="MojDbRevisionSet_8h.htm" target="_top" xlink:title="MojDbRevisionSet.h">
<polygon fill="white" stroke="black" points="393.5,-116.5 393.5,-137.5 504.5,-137.5 504.5,-116.5 393.5,-116.5"/>
<text text-anchor="middle" x="449" y="-124.5" font-family="Helvetica,sans-Serif" font-size="10.00">MojDbRevisionSet.h</text>
</a>
</g>
<!-- Node2&#45;&gt;Node17 -->
<g id="edge38" class="edge"><title>Node2&#45;&gt;Node17</title>
<path fill="none" stroke="midnightblue" d="M1099.78,-180.162C964.918,-169.145 636.457,-142.313 504.869,-131.564"/>
<polygon fill="midnightblue" stroke="midnightblue" points="1099.67,-183.665 1109.92,-180.991 1100.24,-176.688 1099.67,-183.665"/>
</g>
<!-- Node2&#45;&gt;Node19 -->
<g id="edge44" class="edge"><title>Node2&#45;&gt;Node19</title>
<path fill="none" stroke="midnightblue" d="M1182.27,-168.541C1196.33,-158.597 1213.83,-146.218 1226.06,-137.571"/>
<polygon fill="midnightblue" stroke="midnightblue" points="1180.18,-165.73 1174.04,-174.362 1184.23,-171.445 1180.18,-165.73"/>
</g>
<!-- Node4 -->
<g id="node7" class="node"><title>Node4</title>
<a xlink:href="MojDbKind_8h.htm" target="_top" xlink:title="MojDbKind.h">
<polygon fill="white" stroke="black" points="411,-58.5 411,-79.5 487,-79.5 487,-58.5 411,-58.5"/>
<text text-anchor="middle" x="449" y="-66.5" font-family="Helvetica,sans-Serif" font-size="10.00">MojDbKind.h</text>
</a>
</g>
<!-- Node3&#45;&gt;Node4 -->
<g id="edge6" class="edge"><title>Node3&#45;&gt;Node4</title>
<path fill="none" stroke="midnightblue" d="M782.19,-121.38C716.017,-113.726 596.878,-98.7987 496,-80 493.117,-79.4627 490.143,-78.8666 487.158,-78.238"/>
<polygon fill="midnightblue" stroke="midnightblue" points="782.011,-124.882 792.344,-122.545 782.809,-117.928 782.011,-124.882"/>
</g>
<!-- Node7 -->
<g id="node13" class="node"><title>Node7</title>
<a xlink:href="MojDbIndex_8cpp.htm" target="_top" xlink:title="MojDbIndex.cpp">
<polygon fill="white" stroke="black" points="648,-0.5 648,-21.5 740,-21.5 740,-0.5 648,-0.5"/>
<text text-anchor="middle" x="694" y="-8.5" font-family="Helvetica,sans-Serif" font-size="10.00">MojDbIndex.cpp</text>
</a>
</g>
<!-- Node3&#45;&gt;Node7 -->
<g id="edge26" class="edge"><title>Node3&#45;&gt;Node7</title>
<path fill="none" stroke="midnightblue" d="M820.025,-107.752C809.39,-92.9381 793.315,-72.5963 776,-58 758.059,-42.8765 734.576,-29.9835 717.339,-21.5481"/>
<polygon fill="midnightblue" stroke="midnightblue" points="817.306,-109.972 825.905,-116.16 823.042,-105.96 817.306,-109.972"/>
</g>
<!-- Node8 -->
<g id="node15" class="node"><title>Node8</title>
<a xlink:href="MojDbKind_8cpp.htm" target="_top" xlink:title="MojDbKind.cpp">
<polygon fill="white" stroke="black" points="757.5,-0.5 757.5,-21.5 844.5,-21.5 844.5,-0.5 757.5,-0.5"/>
<text text-anchor="middle" x="801" y="-8.5" font-family="Helvetica,sans-Serif" font-size="10.00">MojDbKind.cpp</text>
</a>
</g>
<!-- Node3&#45;&gt;Node8 -->
<g id="edge28" class="edge"><title>Node3&#45;&gt;Node8</title>
<path fill="none" stroke="midnightblue" d="M827.333,-106.458C820.493,-81.6635 809.251,-40.9098 803.946,-21.6792"/>
<polygon fill="midnightblue" stroke="midnightblue" points="824.014,-107.586 830.047,-116.295 830.761,-105.724 824.014,-107.586"/>
</g>
<!-- Node3&#45;&gt;Node12 -->
<g id="edge32" class="edge"><title>Node3&#45;&gt;Node12</title>
<path fill="none" stroke="midnightblue" d="M848.053,-108.424C867.948,-83.8721 902.343,-41.4272 918.346,-21.6792"/>
<polygon fill="midnightblue" stroke="midnightblue" points="845.251,-106.322 841.675,-116.295 850.69,-110.729 845.251,-106.322"/>
</g>
<!-- Node13 -->
<g id="node25" class="node"><title>Node13</title>
<a xlink:href="MojDbCursor_8cpp.htm" target="_top" xlink:title="MojDbCursor.cpp">
<polygon fill="white" stroke="black" points="899,-58.5 899,-79.5 997,-79.5 997,-58.5 899,-58.5"/>
<text text-anchor="middle" x="948" y="-66.5" font-family="Helvetica,sans-Serif" font-size="10.00">MojDbCursor.cpp</text>
</a>
</g>
<!-- Node3&#45;&gt;Node13 -->
<g id="edge24" class="edge"><title>Node3&#45;&gt;Node13</title>
<path fill="none" stroke="midnightblue" d="M862.876,-111.932C882.979,-101.793 908.99,-88.6748 926.941,-79.6212"/>
<polygon fill="midnightblue" stroke="midnightblue" points="861.178,-108.868 853.826,-116.497 864.33,-115.118 861.178,-108.868"/>
</g>
<!-- Node3&#45;&gt;Node14 -->
<g id="edge30" class="edge"><title>Node3&#45;&gt;Node14</title>
<path fill="none" stroke="midnightblue" d="M883.448,-114.808C926.615,-104.376 988.12,-89.5126 1029.24,-79.5754"/>
<polygon fill="midnightblue" stroke="midnightblue" points="882.611,-111.41 873.713,-117.161 884.255,-118.214 882.611,-111.41"/>
</g>
<!-- Node15 -->
<g id="node32" class="node"><title>Node15</title>
<a xlink:href="MojDbServiceHandler_8cpp.htm" target="_top" xlink:title="MojDbServiceHandler.cpp">
<polygon fill="white" stroke="black" points="504.5,-58.5 504.5,-79.5 643.5,-79.5 643.5,-58.5 504.5,-58.5"/>
<text text-anchor="middle" x="574" y="-66.5" font-family="Helvetica,sans-Serif" font-size="10.00">MojDbServiceHandler.cpp</text>
</a>
</g>
<!-- Node3&#45;&gt;Node15 -->
<g id="edge34" class="edge"><title>Node3&#45;&gt;Node15</title>
<path fill="none" stroke="midnightblue" d="M782.329,-115.653C735.57,-105.182 666.68,-89.7545 621.094,-79.5462"/>
<polygon fill="midnightblue" stroke="midnightblue" points="781.723,-119.104 792.246,-117.874 783.253,-112.273 781.723,-119.104"/>
</g>
<!-- Node16 -->
<g id="node34" class="node"><title>Node16</title>
<a xlink:href="MojDbWatcher_8cpp.htm" target="_top" xlink:title="MojDbWatcher.cpp">
<polygon fill="white" stroke="black" points="661,-58.5 661,-79.5 767,-79.5 767,-58.5 661,-58.5"/>
<text text-anchor="middle" x="714" y="-66.5" font-family="Helvetica,sans-Serif" font-size="10.00">MojDbWatcher.cpp</text>
</a>
</g>
<!-- Node3&#45;&gt;Node16 -->
<g id="edge36" class="edge"><title>Node3&#45;&gt;Node16</title>
<path fill="none" stroke="midnightblue" d="M802.366,-112.069C781.526,-101.912 754.451,-88.7157 735.792,-79.6212"/>
<polygon fill="midnightblue" stroke="midnightblue" points="800.927,-115.262 811.45,-116.497 803.994,-108.969 800.927,-115.262"/>
</g>
<!-- Node5 -->
<g id="node9" class="node"><title>Node5</title>
<a xlink:href="MojDb_8cpp.htm" target="_top" xlink:title="MojDb.cpp">
<polygon fill="white" stroke="black" points="564,-0.5 564,-21.5 630,-21.5 630,-0.5 564,-0.5"/>
<text text-anchor="middle" x="597" y="-8.5" font-family="Helvetica,sans-Serif" font-size="10.00">MojDb.cpp</text>
</a>
</g>
<!-- Node4&#45;&gt;Node5 -->
<g id="edge8" class="edge"><title>Node4&#45;&gt;Node5</title>
<path fill="none" stroke="midnightblue" d="M485.36,-54.7509C511.495,-44.5086 546.168,-30.9206 569.898,-21.6212"/>
<polygon fill="midnightblue" stroke="midnightblue" points="483.835,-51.5891 475.802,-58.4966 486.389,-58.1065 483.835,-51.5891"/>
</g>
<!-- Node6 -->
<g id="node11" class="node"><title>Node6</title>
<a xlink:href="MojDbAdmin_8cpp.htm" target="_top" xlink:title="MojDbAdmin.cpp">
<polygon fill="white" stroke="black" points="-0.5,-0.5 -0.5,-21.5 94.5,-21.5 94.5,-0.5 -0.5,-0.5"/>
<text text-anchor="middle" x="47" y="-8.5" font-family="Helvetica,sans-Serif" font-size="10.00">MojDbAdmin.cpp</text>
</a>
</g>
<!-- Node4&#45;&gt;Node6 -->
<g id="edge10" class="edge"><title>Node4&#45;&gt;Node6</title>
<path fill="none" stroke="midnightblue" d="M400.737,-57.9298C268.426,-35.0968 231.977,-42.4031 103,-22 100.26,-21.5665 97.4492,-21.0963 94.6162,-20.6025"/>
<polygon fill="midnightblue" stroke="midnightblue" points="400.399,-61.4238 410.853,-59.7015 401.607,-54.5288 400.399,-61.4238"/>
</g>
<!-- Node4&#45;&gt;Node7 -->
<g id="edge12" class="edge"><title>Node4&#45;&gt;Node7</title>
<path fill="none" stroke="midnightblue" d="M496.932,-57.6528C541.093,-47.1985 606.122,-31.8038 649.245,-21.5951"/>
<polygon fill="midnightblue" stroke="midnightblue" points="495.937,-54.2915 487.012,-60.0011 497.55,-61.1033 495.937,-54.2915"/>
</g>
<!-- Node4&#45;&gt;Node8 -->
<g id="edge14" class="edge"><title>Node4&#45;&gt;Node8</title>
<path fill="none" stroke="midnightblue" d="M497.18,-57.9044C609.365,-37.2863 640.323,-41.2043 749,-22 751.726,-21.5183 754.527,-20.9984 757.349,-20.4559"/>
<polygon fill="midnightblue" stroke="midnightblue" points="496.35,-54.4987 487.16,-59.7709 497.631,-61.3804 496.35,-54.4987"/>
</g>
<!-- Node9 -->
<g id="node17" class="node"><title>Node9</title>
<a xlink:href="MojDbKindEngine_8cpp.htm" target="_top" xlink:title="MojDbKindEngine.cpp">
<polygon fill="white" stroke="black" points="112,-0.5 112,-21.5 232,-21.5 232,-0.5 112,-0.5"/>
<text text-anchor="middle" x="172" y="-8.5" font-family="Helvetica,sans-Serif" font-size="10.00">MojDbKindEngine.cpp</text>
</a>
</g>
<!-- Node4&#45;&gt;Node9 -->
<g id="edge16" class="edge"><title>Node4&#45;&gt;Node9</title>
<path fill="none" stroke="midnightblue" d="M400.706,-57.7555C335.18,-43.4715 270.388,-30.3892 225.999,-21.5854"/>
<polygon fill="midnightblue" stroke="midnightblue" points="400.284,-61.2458 410.801,-59.9644 401.78,-54.4076 400.284,-61.2458"/>
</g>
<!-- Node10 -->
<g id="node19" class="node"><title>Node10</title>
<a xlink:href="MojDbPermissionEngine_8cpp.htm" target="_top" xlink:title="MojDbPermissionEngine.cpp">
<polygon fill="white" stroke="black" points="249.5,-0.5 249.5,-21.5 400.5,-21.5 400.5,-0.5 249.5,-0.5"/>
<text text-anchor="middle" x="325" y="-8.5" font-family="Helvetica,sans-Serif" font-size="10.00">MojDbPermissionEngine.cpp</text>
</a>
</g>
<!-- Node4&#45;&gt;Node10 -->
<g id="edge18" class="edge"><title>Node4&#45;&gt;Node10</title>
<path fill="none" stroke="midnightblue" d="M417.372,-54.2064C395.618,-44.031 367.238,-30.7567 347.707,-21.6212"/>
<polygon fill="midnightblue" stroke="midnightblue" points="416.004,-57.4301 426.545,-58.4966 418.969,-51.0894 416.004,-57.4301"/>
</g>
<!-- Node11 -->
<g id="node21" class="node"><title>Node11</title>
<a xlink:href="MojDbQuotaEngine_8cpp.htm" target="_top" xlink:title="MojDbQuotaEngine.cpp">
<polygon fill="white" stroke="black" points="418,-0.5 418,-21.5 546,-21.5 546,-0.5 418,-0.5"/>
<text text-anchor="middle" x="482" y="-8.5" font-family="Helvetica,sans-Serif" font-size="10.00">MojDbQuotaEngine.cpp</text>
</a>
</g>
<!-- Node4&#45;&gt;Node11 -->
<g id="edge20" class="edge"><title>Node4&#45;&gt;Node11</title>
<path fill="none" stroke="midnightblue" d="M460,-49.6667C465.332,-40.2948 471.53,-29.4019 475.986,-21.5707"/>
<polygon fill="midnightblue" stroke="midnightblue" points="456.956,-47.9394 455.053,-58.3619 463.04,-51.4011 456.956,-47.9394"/>
</g>
<!-- Node4&#45;&gt;Node12 -->
<g id="edge22" class="edge"><title>Node4&#45;&gt;Node12</title>
<path fill="none" stroke="midnightblue" d="M497.204,-57.9719C655.05,-32.1704 697.999,-41.3246 853,-22 855.707,-21.6626 858.467,-21.3065 861.254,-20.937"/>
<polygon fill="midnightblue" stroke="midnightblue" points="496.43,-54.5523 487.136,-59.639 497.574,-61.4582 496.43,-54.5523"/>
</g>
<!-- Node17&#45;&gt;Node4 -->
<g id="edge40" class="edge"><title>Node17&#45;&gt;Node4</title>
<path fill="none" stroke="midnightblue" d="M449,-106.191C449,-97.1684 449,-86.9941 449,-79.5707"/>
<polygon fill="midnightblue" stroke="midnightblue" points="445.5,-106.362 449,-116.362 452.5,-106.362 445.5,-106.362"/>
</g>
<!-- Node18 -->
<g id="node39" class="node"><title>Node18</title>
<a xlink:href="MojDbRevisionSet_8cpp.htm" target="_top" xlink:title="MojDbRevisionSet.cpp">
<polygon fill="white" stroke="black" points="271,-58.5 271,-79.5 393,-79.5 393,-58.5 271,-58.5"/>
<text text-anchor="middle" x="332" y="-66.5" font-family="Helvetica,sans-Serif" font-size="10.00">MojDbRevisionSet.cpp</text>
</a>
</g>
<!-- Node17&#45;&gt;Node18 -->
<g id="edge42" class="edge"><title>Node17&#45;&gt;Node18</title>
<path fill="none" stroke="midnightblue" d="M418.604,-111.932C398.152,-101.793 371.689,-88.6748 353.426,-79.6212"/>
<polygon fill="midnightblue" stroke="midnightblue" points="417.298,-115.191 427.812,-116.497 420.407,-108.919 417.298,-115.191"/>
</g>
</g>
</svg>
