<?xml version="1.0" encoding="UTF-8" standalone="no"?>
<!DOCTYPE svg PUBLIC "-//W3C//DTD SVG 1.1//EN"
 "http://www.w3.org/Graphics/SVG/1.1/DTD/svg11.dtd">
<!-- Generated by graphviz version 2.26.3 (20100126.1600)
 -->
<!-- Title: MojDbKindEngine.cpp Pages: 1 -->
<svg width="2759pt" height="986pt"
 viewBox="0.00 0.00 2759.00 986.00" xmlns="http://www.w3.org/2000/svg" xmlns:xlink="http://www.w3.org/1999/xlink">
<g id="graph1" class="graph" transform="scale(1 1) rotate(0) translate(4 982)">
<title>MojDbKindEngine.cpp</title>
<polygon fill="white" stroke="white" points="-4,5 -4,-982 2756,-982 2756,5 -4,5"/>
<!-- Node1 -->
<g id="node1" class="node"><title>Node1</title>
<polygon fill="#bfbfbf" stroke="black" points="1244,-956.5 1244,-977.5 1364,-977.5 1364,-956.5 1244,-956.5"/>
<text text-anchor="middle" x="1304" y="-964.5" font-family="Helvetica,sans-Serif" font-size="10.00">MojDbKindEngine.cpp</text>
</g>
<!-- Node2 -->
<g id="node3" class="node"><title>Node2</title>
<a xlink:href="MojDbKindEngine_8h.htm" target="_top" xlink:title="db/MojDbKindEngine.h">
<polygon fill="white" stroke="black" points="1242.5,-782.5 1242.5,-803.5 1365.5,-803.5 1365.5,-782.5 1242.5,-782.5"/>
<text text-anchor="middle" x="1304" y="-790.5" font-family="Helvetica,sans-Serif" font-size="10.00">db/MojDbKindEngine.h</text>
</a>
</g>
<!-- Node1&#45;&gt;Node2 -->
<g id="edge2" class="edge"><title>Node1&#45;&gt;Node2</title>
<path fill="none" stroke="midnightblue" d="M1304,-956.377C1304,-928.293 1304,-851.673 1304,-814.203"/>
<polygon fill="midnightblue" stroke="midnightblue" points="1307.5,-813.928 1304,-803.928 1300.5,-813.928 1307.5,-813.928"/>
</g>
<!-- Node7 -->
<g id="node15" class="node"><title>Node7</title>
<a xlink:href="MojDbQuery_8h.htm" target="_top" xlink:title="db/MojDbQuery.h">
<polygon fill="white" stroke="black" points="1822,-434.5 1822,-455.5 1920,-455.5 1920,-434.5 1822,-434.5"/>
<text text-anchor="middle" x="1871" y="-442.5" font-family="Helvetica,sans-Serif" font-size="10.00">db/MojDbQuery.h</text>
</a>
</g>
<!-- Node1&#45;&gt;Node7 -->
<g id="edge328" class="edge"><title>Node1&#45;&gt;Node7</title>
<path fill="none" stroke="midnightblue" d="M1364.04,-965.743C1588.96,-960.472 2372.82,-936.829 2453,-862 2494.99,-822.806 2477,-792.443 2477,-735 2477,-735 2477,-735 2477,-619 2477,-562.49 2082.67,-483.927 1930.2,-455.66"/>
<polygon fill="midnightblue" stroke="midnightblue" points="1930.55,-452.166 1920.08,-453.792 1929.28,-459.05 1930.55,-452.166"/>
</g>
<!-- Node36 -->
<g id="node132" class="node"><title>Node36</title>
<a xlink:href="MojDb_8h.htm" target="_top" xlink:title="db/MojDb.h">
<polygon fill="white" stroke="black" points="660.5,-840.5 660.5,-861.5 729.5,-861.5 729.5,-840.5 660.5,-840.5"/>
<text text-anchor="middle" x="695" y="-848.5" font-family="Helvetica,sans-Serif" font-size="10.00">db/MojDb.h</text>
</a>
</g>
<!-- Node1&#45;&gt;Node36 -->
<g id="edge192" class="edge"><title>Node1&#45;&gt;Node36</title>
<path fill="none" stroke="midnightblue" d="M1248.61,-956.45C1129.03,-933.672 848.677,-880.272 739.564,-859.488"/>
<polygon fill="midnightblue" stroke="midnightblue" points="740.028,-856.014 729.55,-857.581 738.718,-862.89 740.028,-856.014"/>
</g>
<!-- Node44 -->
<g id="node175" class="node"><title>Node44</title>
<a xlink:href="MojDbKind_8h.htm" target="_top" xlink:title="db/MojDbKind.h">
<polygon fill="white" stroke="black" points="1864,-898.5 1864,-919.5 1954,-919.5 1954,-898.5 1864,-898.5"/>
<text text-anchor="middle" x="1909" y="-906.5" font-family="Helvetica,sans-Serif" font-size="10.00">db/MojDbKind.h</text>
</a>
</g>
<!-- Node1&#45;&gt;Node44 -->
<g id="edge262" class="edge"><title>Node1&#45;&gt;Node44</title>
<path fill="none" stroke="midnightblue" d="M1364.22,-961.227C1481.75,-949.96 1740.09,-925.193 1853.62,-914.309"/>
<polygon fill="midnightblue" stroke="midnightblue" points="1854.2,-917.769 1863.82,-913.331 1853.54,-910.801 1854.2,-917.769"/>
</g>
<!-- Node50 -->
<g id="node215" class="node"><title>Node50</title>
<a xlink:href="MojDbServiceDefs_8h.htm" target="_top" xlink:title="db/MojDbServiceDefs.h">
<polygon fill="white" stroke="black" points="0,-782.5 0,-803.5 126,-803.5 126,-782.5 0,-782.5"/>
<text text-anchor="middle" x="63" y="-790.5" font-family="Helvetica,sans-Serif" font-size="10.00">db/MojDbServiceDefs.h</text>
</a>
</g>
<!-- Node1&#45;&gt;Node50 -->
<g id="edge330" class="edge"><title>Node1&#45;&gt;Node50</title>
<path fill="none" stroke="midnightblue" d="M1243.8,-966.53C1034.66,-964.135 341.412,-949.614 140,-862 114.489,-850.903 91.6454,-827.953 77.5895,-811.568"/>
<polygon fill="midnightblue" stroke="midnightblue" points="80.1457,-809.167 71.0726,-803.697 74.7537,-813.631 80.1457,-809.167"/>
</g>
<!-- Node3 -->
<g id="node5" class="node"><title>Node3</title>
<a xlink:href="MojDbDefs_8h.htm" target="_top" xlink:title="db/MojDbDefs.h">
<polygon fill="white" stroke="black" points="426.5,-311.5 426.5,-332.5 517.5,-332.5 517.5,-311.5 426.5,-311.5"/>
<text text-anchor="middle" x="472" y="-319.5" font-family="Helvetica,sans-Serif" font-size="10.00">db/MojDbDefs.h</text>
</a>
</g>
<!-- Node2&#45;&gt;Node3 -->
<g id="edge4" class="edge"><title>Node2&#45;&gt;Node3</title>
<path fill="none" stroke="midnightblue" d="M1242.36,-792.017C1076.53,-788.28 625.367,-770.585 506,-688 406.962,-619.48 392.855,-573.398 366,-456 361.817,-437.713 362.462,-386.205 369,-376 381.028,-357.226 401.845,-344.601 421.63,-336.313"/>
<polygon fill="midnightblue" stroke="midnightblue" points="423.166,-339.472 431.217,-332.585 420.628,-332.948 423.166,-339.472"/>
</g>
<!-- Node5 -->
<g id="node9" class="node"><title>Node5</title>
<a xlink:href="MojDbWatcher_8h.htm" target="_top" xlink:title="db/MojDbWatcher.h">
<polygon fill="white" stroke="black" points="694.5,-550.5 694.5,-571.5 803.5,-571.5 803.5,-550.5 694.5,-550.5"/>
<text text-anchor="middle" x="749" y="-558.5" font-family="Helvetica,sans-Serif" font-size="10.00">db/MojDbWatcher.h</text>
</a>
</g>
<!-- Node2&#45;&gt;Node5 -->
<g id="edge8" class="edge"><title>Node2&#45;&gt;Node5</title>
<path fill="none" stroke="midnightblue" d="M1242.48,-789.747C1126.42,-783.156 883.898,-767.045 852,-746 792.54,-706.771 764.08,-620.929 753.758,-581.52"/>
<polygon fill="midnightblue" stroke="midnightblue" points="757.129,-580.572 751.317,-571.713 750.336,-582.263 757.129,-580.572"/>
</g>
<!-- Node15 -->
<g id="node39" class="node"><title>Node15</title>
<a xlink:href="MojAutoPtr_8h.htm" target="_top" xlink:title="core/MojAutoPtr.h">
<polygon fill="white" stroke="black" points="1035.5,-130.5 1035.5,-151.5 1136.5,-151.5 1136.5,-130.5 1035.5,-130.5"/>
<text text-anchor="middle" x="1086" y="-138.5" font-family="Helvetica,sans-Serif" font-size="10.00">core/MojAutoPtr.h</text>
</a>
</g>
<!-- Node2&#45;&gt;Node15 -->
<g id="edge138" class="edge"><title>Node2&#45;&gt;Node15</title>
<path fill="none" stroke="midnightblue" d="M1242.24,-789.031C1150.46,-782.664 972.76,-768.547 823,-746 759.304,-736.41 594.289,-721.049 539,-688 483.799,-655.004 383.551,-517.87 366,-456 356.269,-421.698 348.141,-409.625 360,-376 373.667,-337.248 383.317,-326.036 418,-304 520.333,-238.983 880.828,-174.522 1025.38,-150.667"/>
<polygon fill="midnightblue" stroke="midnightblue" points="1026.1,-154.095 1035.41,-149.021 1024.97,-147.188 1026.1,-154.095"/>
</g>
<!-- Node19 -->
<g id="node49" class="node"><title>Node19</title>
<a xlink:href="MojString_8h.htm" target="_top" xlink:title="core/MojString.h">
<polygon fill="white" stroke="black" points="1354,-246.5 1354,-267.5 1448,-267.5 1448,-246.5 1354,-246.5"/>
<text text-anchor="middle" x="1401" y="-254.5" font-family="Helvetica,sans-Serif" font-size="10.00">core/MojString.h</text>
</a>
</g>
<!-- Node2&#45;&gt;Node19 -->
<g id="edge142" class="edge"><title>Node2&#45;&gt;Node19</title>
<path fill="none" stroke="midnightblue" d="M1305.97,-782.488C1309.61,-762.182 1317,-716.111 1317,-677 1317,-677 1317,-677 1317,-561 1317,-478.508 1273.95,-453.577 1302,-376 1317.37,-333.498 1355.27,-295.483 1379.46,-274.401"/>
<polygon fill="midnightblue" stroke="midnightblue" points="1382.03,-276.811 1387.39,-267.671 1377.5,-271.475 1382.03,-276.811"/>
</g>
<!-- Node23 -->
<g id="node68" class="node"><title>Node23</title>
<a xlink:href="MojHashMap_8h.htm" target="_top" xlink:title="core/MojHashMap.h">
<polygon fill="white" stroke="black" points="1641,-376.5 1641,-397.5 1753,-397.5 1753,-376.5 1641,-376.5"/>
<text text-anchor="middle" x="1697" y="-384.5" font-family="Helvetica,sans-Serif" font-size="10.00">core/MojHashMap.h</text>
</a>
</g>
<!-- Node2&#45;&gt;Node23 -->
<g id="edge140" class="edge"><title>Node2&#45;&gt;Node23</title>
<path fill="none" stroke="midnightblue" d="M1331.24,-782.475C1368.56,-766.066 1431,-730.602 1431,-677 1431,-677 1431,-677 1431,-561 1431,-529.192 1427.71,-514.696 1450,-492 1489.61,-451.662 1519.83,-477.789 1572,-456 1608.1,-440.921 1647.2,-418.207 1671.88,-403.004"/>
<polygon fill="midnightblue" stroke="midnightblue" points="1673.96,-405.834 1680.6,-397.577 1670.26,-399.892 1673.96,-405.834"/>
</g>
<!-- Node28 -->
<g id="node89" class="node"><title>Node28</title>
<a xlink:href="MojThread_8h.htm" target="_top" xlink:title="core/MojThread.h">
<polygon fill="white" stroke="black" points="964.5,-376.5 964.5,-397.5 1065.5,-397.5 1065.5,-376.5 964.5,-376.5"/>
<text text-anchor="middle" x="1015" y="-384.5" font-family="Helvetica,sans-Serif" font-size="10.00">core/MojThread.h</text>
</a>
</g>
<!-- Node2&#45;&gt;Node28 -->
<g id="edge144" class="edge"><title>Node2&#45;&gt;Node28</title>
<path fill="none" stroke="midnightblue" d="M1242.15,-788.592C1151.55,-778.301 986.63,-744.028 923,-630 878.9,-550.97 960.425,-446.566 997.758,-405.097"/>
<polygon fill="midnightblue" stroke="midnightblue" points="1000.4,-407.4 1004.59,-397.669 995.241,-402.663 1000.4,-407.4"/>
</g>
<!-- Node31 -->
<g id="node104" class="node"><title>Node31</title>
<a xlink:href="MojTokenSet_8h.htm" target="_top" xlink:title="core/MojTokenSet.h">
<polygon fill="white" stroke="black" points="1853,-724.5 1853,-745.5 1965,-745.5 1965,-724.5 1853,-724.5"/>
<text text-anchor="middle" x="1909" y="-732.5" font-family="Helvetica,sans-Serif" font-size="10.00">core/MojTokenSet.h</text>
</a>
</g>
<!-- Node2&#45;&gt;Node31 -->
<g id="edge146" class="edge"><title>Node2&#45;&gt;Node31</title>
<path fill="none" stroke="midnightblue" d="M1365.62,-787.093C1480.19,-776.109 1725.03,-752.637 1842.9,-741.337"/>
<polygon fill="midnightblue" stroke="midnightblue" points="1843.26,-744.819 1852.88,-740.38 1842.59,-737.851 1843.26,-744.819"/>
</g>
<!-- Node4 -->
<g id="node7" class="node"><title>Node4</title>
<a xlink:href="MojCoreDefs_8h.htm" target="_top" xlink:title="core/MojCoreDefs.h">
<polygon fill="white" stroke="red" points="1517.5,-0.5 1517.5,-21.5 1628.5,-21.5 1628.5,-0.5 1517.5,-0.5"/>
<text text-anchor="middle" x="1573" y="-8.5" font-family="Helvetica,sans-Serif" font-size="10.00">core/MojCoreDefs.h</text>
</a>
</g>
<!-- Node3&#45;&gt;Node4 -->
<g id="edge6" class="edge"><title>Node3&#45;&gt;Node4</title>
<path fill="none" stroke="midnightblue" d="M467.869,-311.327C460.08,-290.216 444,-241.487 444,-199 444,-199 444,-199 444,-141 444,-94.1454 467.339,-79.4403 509,-58 553.452,-35.1236 1282.37,-17.3517 1507.38,-12.3898"/>
<polygon fill="midnightblue" stroke="midnightblue" points="1507.47,-15.8888 1517.39,-12.1702 1507.32,-8.89045 1507.47,-15.8888"/>
</g>
<!-- Node5&#45;&gt;Node3 -->
<g id="edge10" class="edge"><title>Node5&#45;&gt;Node3</title>
<path fill="none" stroke="midnightblue" d="M694.224,-554.04C600.655,-540.824 416.818,-508.622 383,-456 372.457,-439.595 382.199,-394.156 394,-376 404.804,-359.377 422.694,-346.447 438.617,-337.413"/>
<polygon fill="midnightblue" stroke="midnightblue" points="440.536,-340.355 447.696,-332.545 437.229,-334.185 440.536,-340.355"/>
</g>
<!-- Node6 -->
<g id="node12" class="node"><title>Node6</title>
<a xlink:href="MojDbQueryPlan_8h.htm" target="_top" xlink:title="db/MojDbQueryPlan.h">
<polygon fill="white" stroke="black" points="1458.5,-492.5 1458.5,-513.5 1577.5,-513.5 1577.5,-492.5 1458.5,-492.5"/>
<text text-anchor="middle" x="1518" y="-500.5" font-family="Helvetica,sans-Serif" font-size="10.00">db/MojDbQueryPlan.h</text>
</a>
</g>
<!-- Node5&#45;&gt;Node6 -->
<g id="edge12" class="edge"><title>Node5&#45;&gt;Node6</title>
<path fill="none" stroke="midnightblue" d="M803.688,-556.875C940.375,-546.566 1296.76,-519.687 1448.24,-508.261"/>
<polygon fill="midnightblue" stroke="midnightblue" points="1448.64,-511.741 1458.35,-507.499 1448.12,-504.761 1448.64,-511.741"/>
</g>
<!-- Node26 -->
<g id="node83" class="node"><title>Node26</title>
<a xlink:href="MojSignal_8h.htm" target="_top" xlink:title="core/MojSignal.h">
<polygon fill="white" stroke="black" points="738.5,-434.5 738.5,-455.5 833.5,-455.5 833.5,-434.5 738.5,-434.5"/>
<text text-anchor="middle" x="786" y="-442.5" font-family="Helvetica,sans-Serif" font-size="10.00">core/MojSignal.h</text>
</a>
</g>
<!-- Node5&#45;&gt;Node26 -->
<g id="edge114" class="edge"><title>Node5&#45;&gt;Node26</title>
<path fill="none" stroke="midnightblue" d="M752.415,-550.295C758.555,-531.045 771.554,-490.289 779.458,-465.509"/>
<polygon fill="midnightblue" stroke="midnightblue" points="782.889,-466.27 782.594,-455.679 776.22,-464.143 782.889,-466.27"/>
</g>
<!-- Node5&#45;&gt;Node28 -->
<g id="edge136" class="edge"><title>Node5&#45;&gt;Node28</title>
<path fill="none" stroke="midnightblue" d="M762.434,-550.498C791.575,-527.923 863.122,-473.616 927,-434 945.505,-422.523 967.058,-410.984 984.202,-402.211"/>
<polygon fill="midnightblue" stroke="midnightblue" points="985.886,-405.281 993.225,-397.64 982.723,-399.037 985.886,-405.281"/>
</g>
<!-- Node6&#45;&gt;Node3 -->
<g id="edge14" class="edge"><title>Node6&#45;&gt;Node3</title>
<path fill="none" stroke="midnightblue" d="M1477.01,-492.415C1441.28,-483.102 1388.11,-469.035 1342,-456 1222.38,-422.183 1196.07,-399.448 1074,-376 875.54,-337.879 634.982,-326.553 527.983,-323.281"/>
<polygon fill="midnightblue" stroke="midnightblue" points="527.843,-319.776 517.744,-322.981 527.637,-326.773 527.843,-319.776"/>
</g>
<!-- Node6&#45;&gt;Node7 -->
<g id="edge16" class="edge"><title>Node6&#45;&gt;Node7</title>
<path fill="none" stroke="midnightblue" d="M1577.88,-493.161C1643.14,-482.439 1746.89,-465.392 1811.86,-454.718"/>
<polygon fill="midnightblue" stroke="midnightblue" points="1812.64,-458.136 1821.94,-453.061 1811.5,-451.229 1812.64,-458.136"/>
</g>
<!-- Node8 -->
<g id="node18" class="node"><title>Node8</title>
<a xlink:href="MojDbKey_8h.htm" target="_top" xlink:title="db/MojDbKey.h">
<polygon fill="white" stroke="red" points="1922.5,-376.5 1922.5,-397.5 2009.5,-397.5 2009.5,-376.5 1922.5,-376.5"/>
<text text-anchor="middle" x="1966" y="-384.5" font-family="Helvetica,sans-Serif" font-size="10.00">db/MojDbKey.h</text>
</a>
</g>
<!-- Node6&#45;&gt;Node8 -->
<g id="edge112" class="edge"><title>Node6&#45;&gt;Node8</title>
<path fill="none" stroke="midnightblue" d="M1577.57,-496.543C1690.62,-484.242 1925.39,-458.448 1929,-456 1945.54,-444.775 1955.29,-423.676 1960.59,-407.752"/>
<polygon fill="midnightblue" stroke="midnightblue" points="1964.07,-408.323 1963.58,-397.74 1957.36,-406.321 1964.07,-408.323"/>
</g>
<!-- Node7&#45;&gt;Node3 -->
<g id="edge18" class="edge"><title>Node7&#45;&gt;Node3</title>
<path fill="none" stroke="midnightblue" d="M1856.27,-434.311C1831.46,-416.55 1782.09,-382.284 1762,-376 1643.28,-338.874 760.653,-325.532 528.051,-322.641"/>
<polygon fill="midnightblue" stroke="midnightblue" points="527.834,-319.138 517.792,-322.515 527.748,-326.138 527.834,-319.138"/>
</g>
<!-- Node7&#45;&gt;Node8 -->
<g id="edge20" class="edge"><title>Node7&#45;&gt;Node8</title>
<path fill="none" stroke="midnightblue" d="M1888.42,-434.362C1902.89,-425.532 1923.67,-412.844 1940.08,-402.822"/>
<polygon fill="midnightblue" stroke="midnightblue" points="1941.97,-405.769 1948.69,-397.571 1938.33,-399.794 1941.97,-405.769"/>
</g>
<!-- Node9 -->
<g id="node21" class="node"><title>Node9</title>
<a xlink:href="MojObject_8h.htm" target="_top" xlink:title="core/MojObject.h">
<polygon fill="white" stroke="black" points="2234,-311.5 2234,-332.5 2330,-332.5 2330,-311.5 2234,-311.5"/>
<text text-anchor="middle" x="2282" y="-319.5" font-family="Helvetica,sans-Serif" font-size="10.00">core/MojObject.h</text>
</a>
</g>
<!-- Node7&#45;&gt;Node9 -->
<g id="edge106" class="edge"><title>Node7&#45;&gt;Node9</title>
<path fill="none" stroke="midnightblue" d="M1920.21,-439.084C2017.01,-427.374 2223.45,-402.023 2230,-398 2251.17,-385.007 2265.8,-359.791 2274.03,-341.974"/>
<polygon fill="midnightblue" stroke="midnightblue" points="2277.27,-343.292 2278.04,-332.725 2270.85,-340.507 2277.27,-343.292"/>
</g>
<!-- Node7&#45;&gt;Node19 -->
<g id="edge110" class="edge"><title>Node7&#45;&gt;Node19</title>
<path fill="none" stroke="midnightblue" d="M1874.87,-434.452C1883.68,-408.44 1901.9,-340.687 1868,-304 1840.69,-274.443 1577.47,-262.516 1458.67,-258.61"/>
<polygon fill="midnightblue" stroke="midnightblue" points="1458.42,-255.1 1448.32,-258.278 1458.2,-262.096 1458.42,-255.1"/>
</g>
<!-- Node21 -->
<g id="node60" class="node"><title>Node21</title>
<a xlink:href="MojSet_8h.htm" target="_top" xlink:title="core/MojSet.h">
<polygon fill="white" stroke="black" points="2125,-311.5 2125,-332.5 2207,-332.5 2207,-311.5 2125,-311.5"/>
<text text-anchor="middle" x="2166" y="-319.5" font-family="Helvetica,sans-Serif" font-size="10.00">core/MojSet.h</text>
</a>
</g>
<!-- Node7&#45;&gt;Node21 -->
<g id="edge108" class="edge"><title>Node7&#45;&gt;Node21</title>
<path fill="none" stroke="midnightblue" d="M1874.52,-434.468C1880.23,-419.06 1893.05,-390.622 1914,-376 1978.4,-331.052 2010.27,-356.724 2087,-340 2095.98,-338.042 2105.53,-335.911 2114.76,-333.822"/>
<polygon fill="midnightblue" stroke="midnightblue" points="2115.65,-337.211 2124.62,-331.582 2114.1,-330.385 2115.65,-337.211"/>
</g>
<!-- Node7&#45;&gt;Node23 -->
<g id="edge90" class="edge"><title>Node7&#45;&gt;Node23</title>
<path fill="none" stroke="midnightblue" d="M1839.49,-434.497C1811.12,-425.041 1769.25,-411.083 1738.23,-400.743"/>
<polygon fill="midnightblue" stroke="midnightblue" points="1739.16,-397.365 1728.57,-397.523 1736.95,-404.006 1739.16,-397.365"/>
</g>
<!-- Node8&#45;&gt;Node3 -->
<g id="edge22" class="edge"><title>Node8&#45;&gt;Node3</title>
<path fill="none" stroke="midnightblue" d="M1922.31,-382.912C1896.37,-380.604 1862.83,-377.825 1833,-376 1326.55,-345.024 712.957,-328.038 527.611,-323.351"/>
<polygon fill="midnightblue" stroke="midnightblue" points="527.646,-319.851 517.561,-323.099 527.47,-326.849 527.646,-319.851"/>
</g>
<!-- Node8&#45;&gt;Node9 -->
<g id="edge24" class="edge"><title>Node8&#45;&gt;Node9</title>
<path fill="none" stroke="midnightblue" d="M2009.58,-379.901C2059.64,-371.494 2144.12,-356.53 2216,-340 2222.3,-338.55 2228.91,-336.902 2235.41,-335.207"/>
<polygon fill="midnightblue" stroke="midnightblue" points="2236.72,-338.482 2245.48,-332.524 2234.91,-331.718 2236.72,-338.482"/>
</g>
<!-- Node20 -->
<g id="node55" class="node"><title>Node20</title>
<a xlink:href="MojVector_8h.htm" target="_top" xlink:title="core/MojVector.h">
<polygon fill="white" stroke="red" points="1948.5,-188.5 1948.5,-209.5 2045.5,-209.5 2045.5,-188.5 1948.5,-188.5"/>
<text text-anchor="middle" x="1997" y="-196.5" font-family="Helvetica,sans-Serif" font-size="10.00">core/MojVector.h</text>
</a>
</g>
<!-- Node8&#45;&gt;Node20 -->
<g id="edge88" class="edge"><title>Node8&#45;&gt;Node20</title>
<path fill="none" stroke="midnightblue" d="M1966.67,-376.287C1968.29,-352.595 1973.02,-294.041 1983,-246 1984.83,-237.19 1987.53,-227.643 1990.08,-219.47"/>
<polygon fill="midnightblue" stroke="midnightblue" points="1993.5,-220.286 1993.25,-209.694 1986.84,-218.128 1993.5,-220.286"/>
</g>
<!-- Node8&#45;&gt;Node21 -->
<g id="edge78" class="edge"><title>Node8&#45;&gt;Node21</title>
<path fill="none" stroke="midnightblue" d="M1998.58,-376.412C2032.72,-365.316 2086.48,-347.843 2123.84,-335.702"/>
<polygon fill="midnightblue" stroke="midnightblue" points="2125.01,-339.003 2133.44,-332.584 2122.84,-332.346 2125.01,-339.003"/>
</g>
<!-- Node9&#45;&gt;Node4 -->
<g id="edge26" class="edge"><title>Node9&#45;&gt;Node4</title>
<path fill="none" stroke="midnightblue" d="M2317.17,-311.461C2362.9,-295.327 2437,-259.805 2437,-199 2437,-199 2437,-199 2437,-141 2437,-73.5703 2373.98,-79.2927 2310,-58 2247.29,-37.1312 1807.52,-19.3903 1638.74,-13.2759"/>
<polygon fill="midnightblue" stroke="midnightblue" points="1638.62,-9.76944 1628.5,-12.9072 1638.37,-16.7649 1638.62,-9.76944"/>
</g>
<!-- Node10 -->
<g id="node24" class="node"><title>Node10</title>
<a xlink:href="MojDecimal_8h.htm" target="_top" xlink:title="core/MojDecimal.h">
<polygon fill="white" stroke="black" points="2063,-188.5 2063,-209.5 2167,-209.5 2167,-188.5 2063,-188.5"/>
<text text-anchor="middle" x="2115" y="-196.5" font-family="Helvetica,sans-Serif" font-size="10.00">core/MojDecimal.h</text>
</a>
</g>
<!-- Node9&#45;&gt;Node10 -->
<g id="edge28" class="edge"><title>Node9&#45;&gt;Node10</title>
<path fill="none" stroke="midnightblue" d="M2289.22,-311.492C2299.13,-295.648 2314.09,-265.434 2299,-246 2283.99,-226.674 2224.52,-213.957 2177.2,-206.684"/>
<polygon fill="midnightblue" stroke="midnightblue" points="2177.71,-203.221 2167.31,-205.214 2176.68,-210.145 2177.71,-203.221"/>
</g>
<!-- Node12 -->
<g id="node30" class="node"><title>Node12</title>
<a xlink:href="MojMap_8h.htm" target="_top" xlink:title="core/MojMap.h">
<polygon fill="white" stroke="black" points="1801.5,-246.5 1801.5,-267.5 1888.5,-267.5 1888.5,-246.5 1801.5,-246.5"/>
<text text-anchor="middle" x="1845" y="-254.5" font-family="Helvetica,sans-Serif" font-size="10.00">core/MojMap.h</text>
</a>
</g>
<!-- Node9&#45;&gt;Node12 -->
<g id="edge36" class="edge"><title>Node9&#45;&gt;Node12</title>
<path fill="none" stroke="midnightblue" d="M2246.94,-311.456C2237,-308.738 2226.13,-306.014 2216,-304 2104.32,-281.811 1971.54,-267.966 1898.99,-261.446"/>
<polygon fill="midnightblue" stroke="midnightblue" points="1899,-257.934 1888.73,-260.538 1898.38,-264.907 1899,-257.934"/>
</g>
<!-- Node9&#45;&gt;Node19 -->
<g id="edge60" class="edge"><title>Node9&#45;&gt;Node19</title>
<path fill="none" stroke="midnightblue" d="M2248.72,-311.472C2238.34,-308.582 2226.78,-305.762 2216,-304 2069.72,-280.104 1618.44,-263.881 1458.18,-258.745"/>
<polygon fill="midnightblue" stroke="midnightblue" points="1458.16,-255.242 1448.05,-258.422 1457.94,-262.239 1458.16,-255.242"/>
</g>
<!-- Node9&#45;&gt;Node20 -->
<g id="edge76" class="edge"><title>Node9&#45;&gt;Node20</title>
<path fill="none" stroke="midnightblue" d="M2283.16,-311.427C2284.33,-294.934 2283.88,-263.195 2266,-246 2233.5,-214.757 2115.5,-218.013 2055.88,-210.057"/>
<polygon fill="midnightblue" stroke="midnightblue" points="2056.22,-206.568 2045.8,-208.493 2055.15,-213.486 2056.22,-206.568"/>
</g>
<!-- Node10&#45;&gt;Node4 -->
<g id="edge30" class="edge"><title>Node10&#45;&gt;Node4</title>
<path fill="none" stroke="midnightblue" d="M2107.35,-188.134C2087.39,-160.773 2030.67,-89.0121 1964,-58 1907.78,-31.8464 1734.93,-19.159 1638.95,-13.9851"/>
<polygon fill="midnightblue" stroke="midnightblue" points="1638.94,-10.48 1628.77,-13.4491 1638.57,-17.4703 1638.94,-10.48"/>
</g>
<!-- Node11 -->
<g id="node27" class="node"><title>Node11</title>
<a xlink:href="MojHasher_8h.htm" target="_top" xlink:title="core/MojHasher.h">
<polygon fill="white" stroke="red" points="1401.5,-130.5 1401.5,-151.5 1502.5,-151.5 1502.5,-130.5 1401.5,-130.5"/>
<text text-anchor="middle" x="1452" y="-138.5" font-family="Helvetica,sans-Serif" font-size="10.00">core/MojHasher.h</text>
</a>
</g>
<!-- Node10&#45;&gt;Node11 -->
<g id="edge32" class="edge"><title>Node10&#45;&gt;Node11</title>
<path fill="none" stroke="midnightblue" d="M2062.81,-189.22C2059.84,-188.777 2056.88,-188.366 2054,-188 1839.57,-160.784 1784.39,-170.117 1569,-152 1550.73,-150.463 1530.87,-148.65 1512.79,-146.944"/>
<polygon fill="midnightblue" stroke="midnightblue" points="1512.95,-143.443 1502.66,-145.982 1512.28,-150.412 1512.95,-143.443"/>
</g>
<!-- Node11&#45;&gt;Node4 -->
<g id="edge34" class="edge"><title>Node11&#45;&gt;Node4</title>
<path fill="none" stroke="midnightblue" d="M1461.95,-130.241C1476.61,-114.402 1504.88,-83.883 1529,-58 1537.87,-48.484 1547.77,-37.9071 1555.93,-29.2004"/>
<polygon fill="midnightblue" stroke="midnightblue" points="1558.56,-31.5034 1562.85,-21.8143 1553.46,-26.7158 1558.56,-31.5034"/>
</g>
<!-- Node12&#45;&gt;Node4 -->
<g id="edge38" class="edge"><title>Node12&#45;&gt;Node4</title>
<path fill="none" stroke="midnightblue" d="M1848.18,-246.426C1851.81,-232.196 1856.06,-206.532 1846,-188 1797.54,-98.6977 1682.4,-47.5044 1618.21,-24.9553"/>
<polygon fill="midnightblue" stroke="midnightblue" points="1618.95,-21.5119 1608.36,-21.5808 1616.68,-28.1338 1618.95,-21.5119"/>
</g>
<!-- Node13 -->
<g id="node33" class="node"><title>Node13</title>
<a xlink:href="MojComp_8h.htm" target="_top" xlink:title="core/MojComp.h">
<polygon fill="white" stroke="black" points="1578,-130.5 1578,-151.5 1672,-151.5 1672,-130.5 1578,-130.5"/>
<text text-anchor="middle" x="1625" y="-138.5" font-family="Helvetica,sans-Serif" font-size="10.00">core/MojComp.h</text>
</a>
</g>
<!-- Node12&#45;&gt;Node13 -->
<g id="edge40" class="edge"><title>Node12&#45;&gt;Node13</title>
<path fill="none" stroke="midnightblue" d="M1845.23,-246.466C1844.96,-231.318 1842.12,-203.503 1826,-188 1805.66,-168.437 1734.27,-155.156 1682.34,-147.831"/>
<polygon fill="midnightblue" stroke="midnightblue" points="1682.62,-144.337 1672.23,-146.446 1681.66,-151.272 1682.62,-144.337"/>
</g>
<!-- Node14 -->
<g id="node36" class="node"><title>Node14</title>
<a xlink:href="MojRbTreeBase_8h.htm" target="_top" xlink:title="core/internal/MojRbTreeBase.h">
<polygon fill="white" stroke="black" points="1653,-188.5 1653,-209.5 1817,-209.5 1817,-188.5 1653,-188.5"/>
<text text-anchor="middle" x="1735" y="-196.5" font-family="Helvetica,sans-Serif" font-size="10.00">core/internal/MojRbTreeBase.h</text>
</a>
</g>
<!-- Node12&#45;&gt;Node14 -->
<g id="edge44" class="edge"><title>Node12&#45;&gt;Node14</title>
<path fill="none" stroke="midnightblue" d="M1825.08,-246.497C1808.05,-237.519 1783.33,-224.484 1764.09,-214.339"/>
<polygon fill="midnightblue" stroke="midnightblue" points="1765.62,-211.189 1755.14,-209.621 1762.36,-217.381 1765.62,-211.189"/>
</g>
<!-- Node13&#45;&gt;Node4 -->
<g id="edge42" class="edge"><title>Node13&#45;&gt;Node4</title>
<path fill="none" stroke="midnightblue" d="M1620.74,-130.362C1612.1,-108.746 1592.35,-59.3723 1581.15,-31.3691"/>
<polygon fill="midnightblue" stroke="midnightblue" points="1584.28,-29.7703 1577.31,-21.7854 1577.78,-32.3701 1584.28,-29.7703"/>
</g>
<!-- Node14&#45;&gt;Node4 -->
<g id="edge46" class="edge"><title>Node14&#45;&gt;Node4</title>
<path fill="none" stroke="midnightblue" d="M1726.82,-188.049C1716.44,-174.274 1697.87,-150.003 1681,-130 1649.95,-93.1757 1611.66,-51.8976 1590.02,-28.9208"/>
<polygon fill="midnightblue" stroke="midnightblue" points="1592.51,-26.4596 1583.1,-21.5942 1587.42,-31.2668 1592.51,-26.4596"/>
</g>
<!-- Node14&#45;&gt;Node15 -->
<g id="edge48" class="edge"><title>Node14&#45;&gt;Node15</title>
<path fill="none" stroke="midnightblue" d="M1652.8,-191.654C1520.7,-179.848 1264.11,-156.917 1146.97,-146.449"/>
<polygon fill="midnightblue" stroke="midnightblue" points="1147.02,-142.94 1136.75,-145.536 1146.4,-149.912 1147.02,-142.94"/>
</g>
<!-- Node15&#45;&gt;Node4 -->
<g id="edge50" class="edge"><title>Node15&#45;&gt;Node4</title>
<path fill="none" stroke="midnightblue" d="M1076.59,-130.462C1062.35,-113.24 1038.93,-78.8904 1058,-58 1087.72,-25.4459 1374.91,-15.1793 1507.06,-12.1631"/>
<polygon fill="midnightblue" stroke="midnightblue" points="1507.14,-15.6622 1517.06,-11.9419 1506.99,-8.6639 1507.14,-15.6622"/>
</g>
<!-- Node16 -->
<g id="node42" class="node"><title>Node16</title>
<a xlink:href="MojAtomicInt_8h.htm" target="_top" xlink:title="core/MojAtomicInt.h">
<polygon fill="white" stroke="black" points="901,-65.5 901,-86.5 1011,-86.5 1011,-65.5 901,-65.5"/>
<text text-anchor="middle" x="956" y="-73.5" font-family="Helvetica,sans-Serif" font-size="10.00">core/MojAtomicInt.h</text>
</a>
</g>
<!-- Node15&#45;&gt;Node16 -->
<g id="edge52" class="edge"><title>Node15&#45;&gt;Node16</title>
<path fill="none" stroke="midnightblue" d="M1064.82,-130.412C1043.48,-119.741 1010.34,-103.172 986.24,-91.1198"/>
<polygon fill="midnightblue" stroke="midnightblue" points="987.677,-87.9252 977.167,-86.5835 984.546,-94.1862 987.677,-87.9252"/>
</g>
<!-- Node17 -->
<g id="node45" class="node"><title>Node17</title>
<a xlink:href="MojNoCopy_8h.htm" target="_top" xlink:title="core/MojNoCopy.h">
<polygon fill="white" stroke="black" points="541,-65.5 541,-86.5 645,-86.5 645,-65.5 541,-65.5"/>
<text text-anchor="middle" x="593" y="-73.5" font-family="Helvetica,sans-Serif" font-size="10.00">core/MojNoCopy.h</text>
</a>
</g>
<!-- Node15&#45;&gt;Node17 -->
<g id="edge56" class="edge"><title>Node15&#45;&gt;Node17</title>
<path fill="none" stroke="midnightblue" d="M1035.1,-134.289C944.093,-122.29 753.822,-97.2037 655.223,-84.2038"/>
<polygon fill="midnightblue" stroke="midnightblue" points="655.479,-80.7074 645.107,-82.8701 654.564,-87.6473 655.479,-80.7074"/>
</g>
<!-- Node18 -->
<g id="node47" class="node"><title>Node18</title>
<a xlink:href="MojAutoPtrInternal_8h.htm" target="_top" xlink:title="core/internal/MojAutoPtr\lInternal.h">
<polygon fill="white" stroke="black" points="1066.5,-59 1066.5,-93 1197.5,-93 1197.5,-59 1066.5,-59"/>
<text text-anchor="start" x="1074.5" y="-80" font-family="Helvetica,sans-Serif" font-size="10.00">core/internal/MojAutoPtr</text>
<text text-anchor="middle" x="1132" y="-67" font-family="Helvetica,sans-Serif" font-size="10.00">Internal.h</text>
</a>
</g>
<!-- Node15&#45;&gt;Node18 -->
<g id="edge58" class="edge"><title>Node15&#45;&gt;Node18</title>
<path fill="none" stroke="midnightblue" d="M1093.6,-130.267C1099.12,-122.458 1106.84,-111.546 1113.92,-101.554"/>
<polygon fill="midnightblue" stroke="midnightblue" points="1116.97,-103.294 1119.89,-93.1099 1111.26,-99.2507 1116.97,-103.294"/>
</g>
<!-- Node16&#45;&gt;Node4 -->
<g id="edge54" class="edge"><title>Node16&#45;&gt;Node4</title>
<path fill="none" stroke="midnightblue" d="M991.561,-65.4929C1002.23,-62.6747 1014.02,-59.8891 1025,-58 1197.41,-28.3392 1403.71,-17.0606 1507.1,-13.0447"/>
<polygon fill="midnightblue" stroke="midnightblue" points="1507.52,-16.5313 1517.38,-12.6562 1507.25,-9.53633 1507.52,-16.5313"/>
</g>
<!-- Node19&#45;&gt;Node4 -->
<g id="edge62" class="edge"><title>Node19&#45;&gt;Node4</title>
<path fill="none" stroke="midnightblue" d="M1384.41,-246.5C1372.92,-238.174 1358.57,-225.397 1352,-210 1336.33,-173.249 1364.87,-158.373 1393,-130 1438.35,-84.2594 1503.97,-46.283 1542.18,-26.2731"/>
<polygon fill="midnightblue" stroke="midnightblue" points="1544,-29.2755 1551.28,-21.5791 1540.79,-23.055 1544,-29.2755"/>
</g>
<!-- Node19&#45;&gt;Node11 -->
<g id="edge68" class="edge"><title>Node19&#45;&gt;Node11</title>
<path fill="none" stroke="midnightblue" d="M1386.9,-246.428C1370.56,-232.843 1347.42,-208.561 1360,-188 1369.24,-172.91 1385.01,-162.471 1400.92,-155.339"/>
<polygon fill="midnightblue" stroke="midnightblue" points="1402.33,-158.545 1410.25,-151.512 1399.67,-152.068 1402.33,-158.545"/>
</g>
<!-- Node19&#45;&gt;Node13 -->
<g id="edge66" class="edge"><title>Node19&#45;&gt;Node13</title>
<path fill="none" stroke="midnightblue" d="M1438.31,-246.447C1464.72,-238.257 1500.54,-225.669 1530,-210 1557.78,-195.226 1586.6,-173.182 1605.1,-158.007"/>
<polygon fill="midnightblue" stroke="midnightblue" points="1607.39,-160.656 1612.84,-151.568 1602.91,-155.276 1607.39,-160.656"/>
</g>
<!-- Node19&#45;&gt;Node15 -->
<g id="edge64" class="edge"><title>Node19&#45;&gt;Node15</title>
<path fill="none" stroke="midnightblue" d="M1372.21,-246.398C1315.27,-225.428 1188.24,-178.649 1124.31,-155.107"/>
<polygon fill="midnightblue" stroke="midnightblue" points="1125.2,-151.707 1114.61,-151.535 1122.78,-158.275 1125.2,-151.707"/>
</g>
<!-- Node19&#45;&gt;Node20 -->
<g id="edge70" class="edge"><title>Node19&#45;&gt;Node20</title>
<path fill="none" stroke="midnightblue" d="M1448.02,-252.425C1555.68,-241.947 1819.89,-216.235 1938.13,-204.729"/>
<polygon fill="midnightblue" stroke="midnightblue" points="1938.82,-208.179 1948.43,-203.727 1938.14,-201.212 1938.82,-208.179"/>
</g>
<!-- Node20&#45;&gt;Node4 -->
<g id="edge72" class="edge"><title>Node20&#45;&gt;Node4</title>
<path fill="none" stroke="midnightblue" d="M1995.82,-188.354C1992.24,-161.51 1978.88,-90.8618 1935,-58 1911.79,-40.6173 1736.74,-24.0664 1638.82,-16.0428"/>
<polygon fill="midnightblue" stroke="midnightblue" points="1638.98,-12.544 1628.73,-15.2233 1638.41,-19.521 1638.98,-12.544"/>
</g>
<!-- Node20&#45;&gt;Node13 -->
<g id="edge74" class="edge"><title>Node20&#45;&gt;Node13</title>
<path fill="none" stroke="midnightblue" d="M1948.37,-191.418C1879.81,-180.728 1754.98,-161.266 1682.1,-149.903"/>
<polygon fill="midnightblue" stroke="midnightblue" points="1682.6,-146.438 1672.18,-148.355 1681.52,-153.354 1682.6,-146.438"/>
</g>
<!-- Node21&#45;&gt;Node4 -->
<g id="edge80" class="edge"><title>Node21&#45;&gt;Node4</title>
<path fill="none" stroke="midnightblue" d="M2200.88,-311.499C2265.88,-290.882 2399,-243.255 2399,-199 2399,-199 2399,-199 2399,-141 2399,-48.8498 2298.45,-80.1559 2209,-58 2102.45,-31.6077 1779.39,-17.9029 1639.15,-13.065"/>
<polygon fill="midnightblue" stroke="midnightblue" points="1639.08,-9.56084 1628.97,-12.7184 1638.85,-16.5568 1639.08,-9.56084"/>
</g>
<!-- Node21&#45;&gt;Node13 -->
<g id="edge82" class="edge"><title>Node21&#45;&gt;Node13</title>
<path fill="none" stroke="midnightblue" d="M2144.79,-311.475C2094.23,-286.749 1962.12,-224.309 1846,-188 1791.35,-170.913 1727.18,-158.032 1682.11,-150.115"/>
<polygon fill="midnightblue" stroke="midnightblue" points="1682.67,-146.661 1672.22,-148.404 1681.48,-153.558 1682.67,-146.661"/>
</g>
<!-- Node21&#45;&gt;Node14 -->
<g id="edge84" class="edge"><title>Node21&#45;&gt;Node14</title>
<path fill="none" stroke="midnightblue" d="M2124.79,-316.834C2030.77,-304.939 1807.42,-276.024 1793,-268 1772.31,-256.487 1755.82,-234.48 1745.79,-218.405"/>
<polygon fill="midnightblue" stroke="midnightblue" points="1748.76,-216.56 1740.64,-209.75 1742.74,-220.135 1748.76,-216.56"/>
</g>
<!-- Node22 -->
<g id="node65" class="node"><title>Node22</title>
<a xlink:href="MojSetInternal_8h.htm" target="_top" xlink:title="core/internal/MojSetInternal.h">
<polygon fill="white" stroke="black" points="2101,-246.5 2101,-267.5 2257,-267.5 2257,-246.5 2101,-246.5"/>
<text text-anchor="middle" x="2179" y="-254.5" font-family="Helvetica,sans-Serif" font-size="10.00">core/internal/MojSetInternal.h</text>
</a>
</g>
<!-- Node21&#45;&gt;Node22 -->
<g id="edge86" class="edge"><title>Node21&#45;&gt;Node22</title>
<path fill="none" stroke="midnightblue" d="M2168.15,-311.267C2169.98,-302.085 2172.68,-288.615 2174.92,-277.392"/>
<polygon fill="midnightblue" stroke="midnightblue" points="2178.36,-278.026 2176.89,-267.534 2171.5,-276.653 2178.36,-278.026"/>
</g>
<!-- Node23&#45;&gt;Node4 -->
<g id="edge92" class="edge"><title>Node23&#45;&gt;Node4</title>
<path fill="none" stroke="midnightblue" d="M1741.42,-376.493C1776.22,-367.853 1825.68,-354.678 1868,-340 1869.1,-339.62 2175.36,-210.967 2176,-210 2181.41,-201.852 2180.34,-196.76 2176,-188 2133.58,-102.472 2093.69,-93.3399 2005,-58 1940.06,-32.1219 1742.74,-19.08 1638.74,-13.8514"/>
<polygon fill="midnightblue" stroke="midnightblue" points="1638.83,-10.3517 1628.67,-13.3549 1638.49,-17.3432 1638.83,-10.3517"/>
</g>
<!-- Node23&#45;&gt;Node13 -->
<g id="edge94" class="edge"><title>Node23&#45;&gt;Node13</title>
<path fill="none" stroke="midnightblue" d="M1693.69,-376.249C1685.22,-348.683 1662.16,-273.201 1644,-210 1639.34,-193.793 1634.28,-175.377 1630.56,-161.65"/>
<polygon fill="midnightblue" stroke="midnightblue" points="1633.88,-160.517 1627.89,-151.777 1627.12,-162.344 1633.88,-160.517"/>
</g>
<!-- Node24 -->
<g id="node72" class="node"><title>Node24</title>
<a xlink:href="MojHashBase_8h.htm" target="_top" xlink:title="core/internal/MojHashBase.h">
<polygon fill="white" stroke="black" points="1368.5,-188.5 1368.5,-209.5 1521.5,-209.5 1521.5,-188.5 1368.5,-188.5"/>
<text text-anchor="middle" x="1445" y="-196.5" font-family="Helvetica,sans-Serif" font-size="10.00">core/internal/MojHashBase.h</text>
</a>
</g>
<!-- Node23&#45;&gt;Node24 -->
<g id="edge96" class="edge"><title>Node23&#45;&gt;Node24</title>
<path fill="none" stroke="midnightblue" d="M1682.73,-376.354C1640.8,-345.073 1517.76,-253.283 1467.14,-215.519"/>
<polygon fill="midnightblue" stroke="midnightblue" points="1469.22,-212.704 1459.11,-209.53 1465.04,-218.315 1469.22,-212.704"/>
</g>
<!-- Node25 -->
<g id="node77" class="node"><title>Node25</title>
<a xlink:href="MojHashMapInternal_8h.htm" target="_top" xlink:title="core/internal/MojHashMap\lInternal.h">
<polygon fill="white" stroke="black" points="1717,-305 1717,-339 1859,-339 1859,-305 1717,-305"/>
<text text-anchor="start" x="1725" y="-326" font-family="Helvetica,sans-Serif" font-size="10.00">core/internal/MojHashMap</text>
<text text-anchor="middle" x="1788" y="-313" font-family="Helvetica,sans-Serif" font-size="10.00">Internal.h</text>
</a>
</g>
<!-- Node23&#45;&gt;Node25 -->
<g id="edge104" class="edge"><title>Node23&#45;&gt;Node25</title>
<path fill="none" stroke="midnightblue" d="M1712.03,-376.267C1723.84,-367.827 1740.73,-355.762 1755.59,-345.151"/>
<polygon fill="midnightblue" stroke="midnightblue" points="1757.94,-347.77 1764.05,-339.11 1753.87,-342.074 1757.94,-347.77"/>
</g>
<!-- Node24&#45;&gt;Node4 -->
<g id="edge98" class="edge"><title>Node24&#45;&gt;Node4</title>
<path fill="none" stroke="midnightblue" d="M1465.41,-188.381C1479.73,-180.079 1498.48,-167.383 1511,-152 1541.23,-114.85 1559.51,-60.6599 1567.76,-31.4614"/>
<polygon fill="midnightblue" stroke="midnightblue" points="1571.2,-32.1493 1570.44,-21.5821 1564.45,-30.3194 1571.2,-32.1493"/>
</g>
<!-- Node24&#45;&gt;Node11 -->
<g id="edge102" class="edge"><title>Node24&#45;&gt;Node11</title>
<path fill="none" stroke="midnightblue" d="M1446.28,-188.362C1447.18,-180.922 1448.41,-170.743 1449.5,-161.728"/>
<polygon fill="midnightblue" stroke="midnightblue" points="1453,-161.918 1450.72,-151.571 1446.05,-161.079 1453,-161.918"/>
</g>
<!-- Node24&#45;&gt;Node15 -->
<g id="edge100" class="edge"><title>Node24&#45;&gt;Node15</title>
<path fill="none" stroke="midnightblue" d="M1379.99,-188.497C1313.63,-177.775 1211.43,-161.265 1146.68,-150.804"/>
<polygon fill="midnightblue" stroke="midnightblue" points="1147.05,-147.319 1136.62,-149.179 1145.94,-154.229 1147.05,-147.319"/>
</g>
<!-- Node26&#45;&gt;Node4 -->
<g id="edge116" class="edge"><title>Node26&#45;&gt;Node4</title>
<path fill="none" stroke="midnightblue" d="M748.089,-434.475C728.653,-427.227 706.157,-415.648 692,-398 670.214,-370.841 673,-356.817 673,-322 673,-322 673,-322 673,-141 673,-36.9108 790.32,-80.267 892,-58 1008.02,-32.5923 1359.84,-18.1587 1507.09,-13.0903"/>
<polygon fill="midnightblue" stroke="midnightblue" points="1507.45,-16.5799 1517.33,-12.7415 1507.22,-9.58394 1507.45,-16.5799"/>
</g>
<!-- Node26&#45;&gt;Node20 -->
<g id="edge132" class="edge"><title>Node26&#45;&gt;Node20</title>
<path fill="none" stroke="midnightblue" d="M826.645,-434.398C845.848,-427.274 867.296,-415.833 880,-398 919.534,-342.504 849.655,-291.915 900,-246 938.039,-211.308 1774.59,-212.653 1826,-210 1863.26,-208.077 1905.06,-205.398 1938,-203.165"/>
<polygon fill="midnightblue" stroke="midnightblue" points="1938.63,-206.631 1948.37,-202.458 1938.16,-199.647 1938.63,-206.631"/>
</g>
<!-- Node27 -->
<g id="node86" class="node"><title>Node27</title>
<a xlink:href="MojList_8h.htm" target="_top" xlink:title="core/MojList.h">
<polygon fill="white" stroke="red" points="471.5,-130.5 471.5,-151.5 554.5,-151.5 554.5,-130.5 471.5,-130.5"/>
<text text-anchor="middle" x="513" y="-138.5" font-family="Helvetica,sans-Serif" font-size="10.00">core/MojList.h</text>
</a>
</g>
<!-- Node26&#45;&gt;Node27 -->
<g id="edge118" class="edge"><title>Node26&#45;&gt;Node27</title>
<path fill="none" stroke="midnightblue" d="M738.378,-437.916C711.754,-431.631 679.837,-419.874 659,-398 634.568,-372.352 635,-357.422 635,-322 635,-322 635,-322 635,-257 635,-208.574 583.892,-174.24 547.834,-156.042"/>
<polygon fill="midnightblue" stroke="midnightblue" points="549.1,-152.767 538.575,-151.552 546.046,-159.065 549.1,-152.767"/>
</g>
<!-- Node26&#45;&gt;Node28 -->
<g id="edge122" class="edge"><title>Node26&#45;&gt;Node28</title>
<path fill="none" stroke="midnightblue" d="M827.47,-434.497C865.692,-424.816 922.549,-410.416 963.631,-400.01"/>
<polygon fill="midnightblue" stroke="midnightblue" points="964.617,-403.371 973.452,-397.523 962.899,-396.585 964.617,-403.371"/>
</g>
<!-- Node30 -->
<g id="node97" class="node"><title>Node30</title>
<a xlink:href="MojSignalInternal_8h.htm" target="_top" xlink:title="core/internal/MojSignalInternal.h">
<polygon fill="white" stroke="black" points="701,-376.5 701,-397.5 871,-397.5 871,-376.5 701,-376.5"/>
<text text-anchor="middle" x="786" y="-384.5" font-family="Helvetica,sans-Serif" font-size="10.00">core/internal/MojSignalInternal.h</text>
</a>
</g>
<!-- Node26&#45;&gt;Node30 -->
<g id="edge134" class="edge"><title>Node26&#45;&gt;Node30</title>
<path fill="none" stroke="midnightblue" d="M786,-434.362C786,-426.922 786,-416.743 786,-407.728"/>
<polygon fill="midnightblue" stroke="midnightblue" points="789.5,-407.571 786,-397.571 782.5,-407.571 789.5,-407.571"/>
</g>
<!-- Node27&#45;&gt;Node4 -->
<g id="edge120" class="edge"><title>Node27&#45;&gt;Node4</title>
<path fill="none" stroke="midnightblue" d="M511.793,-130.312C510.418,-112.222 510.663,-75.8063 532,-58 569.473,-26.7284 1283.66,-14.7792 1506.9,-11.7988"/>
<polygon fill="midnightblue" stroke="midnightblue" points="1507.2,-15.2952 1517.15,-11.6636 1507.11,-8.29583 1507.2,-15.2952"/>
</g>
<!-- Node28&#45;&gt;Node4 -->
<g id="edge124" class="edge"><title>Node28&#45;&gt;Node4</title>
<path fill="none" stroke="midnightblue" d="M1025.54,-376.264C1070.37,-331.177 1251.06,-154.994 1431,-58 1458.38,-43.2399 1491.23,-32.0022 1518.43,-24.2222"/>
<polygon fill="midnightblue" stroke="midnightblue" points="1519.48,-27.5633 1528.18,-21.5123 1517.61,-20.8192 1519.48,-27.5633"/>
</g>
<!-- Node28&#45;&gt;Node16 -->
<g id="edge126" class="edge"><title>Node28&#45;&gt;Node16</title>
<path fill="none" stroke="midnightblue" d="M998.399,-376.286C971.66,-357.914 920.027,-317.544 900,-268 875.153,-206.534 918.523,-129.949 942.172,-94.9908"/>
<polygon fill="midnightblue" stroke="midnightblue" points="945.134,-96.8629 947.977,-86.6567 939.39,-92.862 945.134,-96.8629"/>
</g>
<!-- Node29 -->
<g id="node93" class="node"><title>Node29</title>
<a xlink:href="MojThreadInternal_8h.htm" target="_top" xlink:title="core/internal/MojThreadInternal.h">
<polygon fill="white" stroke="black" points="908.5,-246.5 908.5,-267.5 1083.5,-267.5 1083.5,-246.5 908.5,-246.5"/>
<text text-anchor="middle" x="996" y="-254.5" font-family="Helvetica,sans-Serif" font-size="10.00">core/internal/MojThreadInternal.h</text>
</a>
</g>
<!-- Node28&#45;&gt;Node29 -->
<g id="edge128" class="edge"><title>Node28&#45;&gt;Node29</title>
<path fill="none" stroke="midnightblue" d="M1013.45,-376.362C1010.3,-354.841 1003.13,-305.807 999.031,-277.74"/>
<polygon fill="midnightblue" stroke="midnightblue" points="1002.49,-277.174 997.576,-267.785 995.559,-278.187 1002.49,-277.174"/>
</g>
<!-- Node29&#45;&gt;Node15 -->
<g id="edge130" class="edge"><title>Node29&#45;&gt;Node15</title>
<path fill="none" stroke="midnightblue" d="M1004.31,-246.295C1019.58,-226.613 1052.29,-184.45 1071.36,-159.867"/>
<polygon fill="midnightblue" stroke="midnightblue" points="1074.35,-161.726 1077.71,-151.679 1068.82,-157.435 1074.35,-161.726"/>
</g>
<!-- Node31&#45;&gt;Node4 -->
<g id="edge148" class="edge"><title>Node31&#45;&gt;Node4</title>
<path fill="none" stroke="midnightblue" d="M1965.23,-729.385C2153.65,-709.824 2751,-641.465 2751,-561 2751,-561 2751,-561 2751,-141 2751,-36.9108 2633.9,-79.2523 2532,-58 2360.94,-22.3216 1826.83,-13.5587 1639.07,-11.5554"/>
<polygon fill="midnightblue" stroke="midnightblue" points="1638.84,-8.05281 1628.8,-11.4488 1638.77,-15.0524 1638.84,-8.05281"/>
</g>
<!-- Node31&#45;&gt;Node23 -->
<g id="edge150" class="edge"><title>Node31&#45;&gt;Node23</title>
<path fill="none" stroke="midnightblue" d="M1908.99,-724.441C1908.38,-687.447 1901.44,-562.159 1837,-492 1807.3,-459.662 1779.47,-483.197 1745,-456 1728.18,-442.728 1714.86,-421.98 1706.56,-406.7"/>
<polygon fill="midnightblue" stroke="midnightblue" points="1709.55,-404.856 1701.85,-397.581 1703.33,-408.071 1709.55,-404.856"/>
</g>
<!-- Node32 -->
<g id="node108" class="node"><title>Node32</title>
<a xlink:href="MojSharedTokenSet_8h.htm" target="_top" xlink:title="core/MojSharedTokenSet.h">
<polygon fill="white" stroke="black" points="1927,-666.5 1927,-687.5 2073,-687.5 2073,-666.5 1927,-666.5"/>
<text text-anchor="middle" x="2000" y="-674.5" font-family="Helvetica,sans-Serif" font-size="10.00">core/MojSharedTokenSet.h</text>
</a>
</g>
<!-- Node31&#45;&gt;Node32 -->
<g id="edge152" class="edge"><title>Node31&#45;&gt;Node32</title>
<path fill="none" stroke="midnightblue" d="M1925.69,-724.362C1939.42,-715.614 1959.08,-703.079 1974.74,-693.101"/>
<polygon fill="midnightblue" stroke="midnightblue" points="1976.86,-695.897 1983.42,-687.571 1973.1,-689.994 1976.86,-695.897"/>
</g>
<!-- Node32&#45;&gt;Node9 -->
<g id="edge156" class="edge"><title>Node32&#45;&gt;Node9</title>
<path fill="none" stroke="midnightblue" d="M2025.99,-666.397C2095.29,-636.509 2283.99,-544.119 2355,-398 2367.04,-373.233 2339.68,-351.317 2315.1,-337.462"/>
<polygon fill="midnightblue" stroke="midnightblue" points="2316.71,-334.356 2306.25,-332.731 2313.42,-340.531 2316.71,-334.356"/>
</g>
<!-- Node32&#45;&gt;Node20 -->
<g id="edge160" class="edge"><title>Node32&#45;&gt;Node20</title>
<path fill="none" stroke="midnightblue" d="M2044.6,-666.466C2203.9,-627.759 2731.34,-489.734 2656,-376 2504.59,-147.448 2332.26,-251.576 2056.07,-210.219"/>
<polygon fill="midnightblue" stroke="midnightblue" points="2056.2,-206.698 2045.78,-208.618 2055.13,-213.614 2056.2,-206.698"/>
</g>
<!-- Node32&#45;&gt;Node23 -->
<g id="edge154" class="edge"><title>Node32&#45;&gt;Node23</title>
<path fill="none" stroke="midnightblue" d="M2009.59,-666.472C2020.89,-652.728 2036.93,-628.061 2027,-608 1989.31,-531.833 1949.29,-533.267 1875,-492 1835.53,-470.074 1819.01,-478.744 1780,-456 1755.46,-441.693 1730.88,-420.138 1714.92,-404.934"/>
<polygon fill="midnightblue" stroke="midnightblue" points="1717.01,-402.088 1707.4,-397.634 1712.13,-407.111 1717.01,-402.088"/>
</g>
<!-- Node32&#45;&gt;Node28 -->
<g id="edge158" class="edge"><title>Node32&#45;&gt;Node28</title>
<path fill="none" stroke="midnightblue" d="M1964.07,-666.421C1812.93,-621.923 1228.85,-449.961 1060.6,-400.424"/>
<polygon fill="midnightblue" stroke="midnightblue" points="1061.39,-397.01 1050.81,-397.544 1059.42,-403.725 1061.39,-397.01"/>
</g>
<!-- Node33 -->
<g id="node114" class="node"><title>Node33</title>
<a xlink:href="MojDbStorageEngine_8h.htm" target="_top" xlink:title="db/MojDbStorageEngine.h">
<polygon fill="white" stroke="black" points="932,-608.5 932,-629.5 1072,-629.5 1072,-608.5 932,-608.5"/>
<text text-anchor="middle" x="1002" y="-616.5" font-family="Helvetica,sans-Serif" font-size="10.00">db/MojDbStorageEngine.h</text>
</a>
</g>
<!-- Node32&#45;&gt;Node33 -->
<g id="edge162" class="edge"><title>Node32&#45;&gt;Node33</title>
<path fill="none" stroke="midnightblue" d="M1926.61,-672.735C1744.28,-662.139 1271.77,-634.678 1082.31,-623.668"/>
<polygon fill="midnightblue" stroke="midnightblue" points="1082.33,-620.163 1072.15,-623.077 1081.93,-627.151 1082.33,-620.163"/>
</g>
<!-- Node33&#45;&gt;Node3 -->
<g id="edge164" class="edge"><title>Node33&#45;&gt;Node3</title>
<path fill="none" stroke="midnightblue" d="M981.863,-608.498C907.228,-569.579 650.441,-435.717 646,-434 587.683,-411.447 558.502,-437.46 510,-398 492.564,-383.814 482.421,-359.59 477.067,-342.304"/>
<polygon fill="midnightblue" stroke="midnightblue" points="480.411,-341.265 474.33,-332.589 473.673,-343.163 480.411,-341.265"/>
</g>
<!-- Node33&#45;&gt;Node5 -->
<g id="edge166" class="edge"><title>Node33&#45;&gt;Node5</title>
<path fill="none" stroke="midnightblue" d="M956.184,-608.497C913.688,-598.755 850.343,-584.233 804.891,-573.813"/>
<polygon fill="midnightblue" stroke="midnightblue" points="805.432,-570.346 794.902,-571.523 803.867,-577.169 805.432,-570.346"/>
</g>
<!-- Node33&#45;&gt;Node9 -->
<g id="edge186" class="edge"><title>Node33&#45;&gt;Node9</title>
<path fill="none" stroke="midnightblue" d="M1072.03,-615.858C1255.32,-606.217 1763.04,-570.4 2168,-456 2245.23,-434.183 2292.25,-463.227 2339,-398 2353.86,-377.264 2329.95,-353.839 2308.7,-338.545"/>
<polygon fill="midnightblue" stroke="midnightblue" points="2310.4,-335.471 2300.17,-332.715 2306.45,-341.249 2310.4,-335.471"/>
</g>
<!-- Node33&#45;&gt;Node15 -->
<g id="edge184" class="edge"><title>Node33&#45;&gt;Node15</title>
<path fill="none" stroke="midnightblue" d="M1006.3,-608.157C1018.72,-576.391 1054.99,-480.581 1074,-398 1087.09,-341.158 1087.99,-326.191 1092,-268 1094.58,-230.571 1091.09,-186.86 1088.45,-161.707"/>
<polygon fill="midnightblue" stroke="midnightblue" points="1091.91,-161.099 1087.32,-151.546 1084.95,-161.871 1091.91,-161.099"/>
</g>
<!-- Node33&#45;&gt;Node20 -->
<g id="edge188" class="edge"><title>Node33&#45;&gt;Node20</title>
<path fill="none" stroke="midnightblue" d="M1072.26,-608.673C1073.85,-608.446 1075.44,-608.221 1077,-608 1383.01,-564.686 1460.62,-561.569 1766,-514 1775.22,-512.563 2091,-463.147 2097,-456 2113.2,-436.72 2035.25,-275.58 2006.94,-218.747"/>
<polygon fill="midnightblue" stroke="midnightblue" points="2010.02,-217.069 2002.41,-209.692 2003.76,-220.201 2010.02,-217.069"/>
</g>
<!-- Node33&#45;&gt;Node26 -->
<g id="edge190" class="edge"><title>Node33&#45;&gt;Node26</title>
<path fill="none" stroke="midnightblue" d="M988.813,-608.377C952.587,-579.195 851.305,-497.607 807.093,-461.992"/>
<polygon fill="midnightblue" stroke="midnightblue" points="809.272,-459.252 799.288,-455.705 804.88,-464.704 809.272,-459.252"/>
</g>
<!-- Node34 -->
<g id="node118" class="node"><title>Node34</title>
<a xlink:href="MojDbQuotaEngine_8h.htm" target="_top" xlink:title="db/MojDbQuotaEngine.h">
<polygon fill="white" stroke="black" points="1158.5,-492.5 1158.5,-513.5 1289.5,-513.5 1289.5,-492.5 1158.5,-492.5"/>
<text text-anchor="middle" x="1224" y="-500.5" font-family="Helvetica,sans-Serif" font-size="10.00">db/MojDbQuotaEngine.h</text>
</a>
</g>
<!-- Node33&#45;&gt;Node34 -->
<g id="edge168" class="edge"><title>Node33&#45;&gt;Node34</title>
<path fill="none" stroke="midnightblue" d="M1014.02,-608.432C1031.21,-593.742 1064.25,-567.04 1096,-550 1121.78,-536.164 1152.5,-524.733 1177.39,-516.61"/>
<polygon fill="midnightblue" stroke="midnightblue" points="1178.5,-519.928 1186.96,-513.551 1176.37,-513.26 1178.5,-519.928"/>
</g>
<!-- Node34&#45;&gt;Node3 -->
<g id="edge170" class="edge"><title>Node34&#45;&gt;Node3</title>
<path fill="none" stroke="midnightblue" d="M1189.2,-492.458C1159.69,-483.341 1116.32,-469.531 1079,-456 989.385,-423.507 972.195,-400.221 880,-376 756.821,-343.638 607.376,-330.163 527.959,-324.962"/>
<polygon fill="midnightblue" stroke="midnightblue" points="527.896,-321.451 517.695,-324.311 527.453,-328.437 527.896,-321.451"/>
</g>
<!-- Node34&#45;&gt;Node12 -->
<g id="edge178" class="edge"><title>Node34&#45;&gt;Node12</title>
<path fill="none" stroke="midnightblue" d="M1289.58,-498.143C1370.5,-491.346 1502.81,-477.377 1547,-456 1552.54,-453.322 1702.74,-307.181 1708,-304 1733.67,-288.49 1765.15,-277.23 1791.47,-269.627"/>
<polygon fill="midnightblue" stroke="midnightblue" points="1792.58,-272.95 1801.27,-266.891 1790.7,-266.207 1792.58,-272.95"/>
</g>
<!-- Node34&#45;&gt;Node19 -->
<g id="edge182" class="edge"><title>Node34&#45;&gt;Node19</title>
<path fill="none" stroke="midnightblue" d="M1220.53,-492.483C1210.59,-460.249 1185.6,-361.531 1231,-304 1245.08,-286.16 1299.99,-273.207 1343.64,-265.471"/>
<polygon fill="midnightblue" stroke="midnightblue" points="1344.35,-268.901 1353.61,-263.758 1343.17,-262.002 1344.35,-268.901"/>
</g>
<!-- Node34&#45;&gt;Node26 -->
<g id="edge180" class="edge"><title>Node34&#45;&gt;Node26</title>
<path fill="none" stroke="midnightblue" d="M1158.43,-494.317C1073.06,-483.013 925.197,-463.432 843.827,-452.657"/>
<polygon fill="midnightblue" stroke="midnightblue" points="844.134,-449.168 833.761,-451.325 843.215,-456.107 844.134,-449.168"/>
</g>
<!-- Node35 -->
<g id="node121" class="node"><title>Node35</title>
<a xlink:href="MojDbPutHandler_8h.htm" target="_top" xlink:title="db/MojDbPutHandler.h">
<polygon fill="white" stroke="black" points="1311,-376.5 1311,-397.5 1433,-397.5 1433,-376.5 1311,-376.5"/>
<text text-anchor="middle" x="1372" y="-384.5" font-family="Helvetica,sans-Serif" font-size="10.00">db/MojDbPutHandler.h</text>
</a>
</g>
<!-- Node34&#45;&gt;Node35 -->
<g id="edge172" class="edge"><title>Node34&#45;&gt;Node35</title>
<path fill="none" stroke="midnightblue" d="M1237.66,-492.295C1263.43,-472.096 1319.41,-428.216 1350.36,-403.963"/>
<polygon fill="midnightblue" stroke="midnightblue" points="1352.66,-406.603 1358.37,-397.679 1348.35,-401.093 1352.66,-406.603"/>
</g>
<!-- Node35&#45;&gt;Node3 -->
<g id="edge174" class="edge"><title>Node35&#45;&gt;Node3</title>
<path fill="none" stroke="midnightblue" d="M1310.66,-377.594C1306.04,-377.011 1301.45,-376.471 1297,-376 1008.63,-345.465 661.601,-329.494 528.093,-324.117"/>
<polygon fill="midnightblue" stroke="midnightblue" points="527.854,-320.605 517.722,-323.703 527.575,-327.599 527.854,-320.605"/>
</g>
<!-- Node35&#45;&gt;Node13 -->
<g id="edge176" class="edge"><title>Node35&#45;&gt;Node13</title>
<path fill="none" stroke="midnightblue" d="M1383.67,-376.46C1413.55,-349.389 1495.01,-274.972 1560,-210 1576.73,-193.27 1595.18,-173.567 1608.13,-159.508"/>
<polygon fill="midnightblue" stroke="midnightblue" points="1610.88,-161.682 1615.06,-151.947 1605.72,-156.95 1610.88,-161.682"/>
</g>
<!-- Node36&#45;&gt;Node2 -->
<g id="edge224" class="edge"><title>Node36&#45;&gt;Node2</title>
<path fill="none" stroke="midnightblue" d="M729.745,-848.641C814.97,-842.704 1041.13,-826.026 1229,-804 1230.08,-803.874 1231.17,-803.744 1232.26,-803.611"/>
<polygon fill="midnightblue" stroke="midnightblue" points="1232.76,-807.076 1242.24,-802.348 1231.88,-800.132 1232.76,-807.076"/>
</g>
<!-- Node36&#45;&gt;Node3 -->
<g id="edge194" class="edge"><title>Node36&#45;&gt;Node3</title>
<path fill="none" stroke="midnightblue" d="M660.237,-848.684C574.968,-842.69 360.658,-825.62 337,-804 196.378,-675.491 245.301,-528.096 360,-376 374.371,-356.944 397.22,-344.275 418.544,-336.032"/>
<polygon fill="midnightblue" stroke="midnightblue" points="419.979,-339.235 428.198,-332.548 417.604,-332.65 419.979,-339.235"/>
</g>
<!-- Node36&#45;&gt;Node5 -->
<g id="edge244" class="edge"><title>Node36&#45;&gt;Node5</title>
<path fill="none" stroke="midnightblue" d="M692.031,-840.222C686.688,-819.841 676,-774.182 676,-735 676,-735 676,-735 676,-677 676,-637.158 707.228,-599.811 728.835,-578.738"/>
<polygon fill="midnightblue" stroke="midnightblue" points="731.395,-581.136 736.284,-571.737 726.601,-576.035 731.395,-581.136"/>
</g>
<!-- Node36&#45;&gt;Node19 -->
<g id="edge256" class="edge"><title>Node36&#45;&gt;Node19</title>
<path fill="none" stroke="midnightblue" d="M729.645,-842.937C823.268,-820.42 1077.74,-754.171 1129,-688 1182.65,-618.742 1132.13,-577.768 1150,-492 1167.86,-406.268 1145.13,-363.91 1209,-304 1228.38,-285.825 1294.55,-272.442 1343.82,-264.703"/>
<polygon fill="midnightblue" stroke="midnightblue" points="1344.39,-268.157 1353.75,-263.185 1343.33,-261.238 1344.39,-268.157"/>
</g>
<!-- Node36&#45;&gt;Node23 -->
<g id="edge252" class="edge"><title>Node36&#45;&gt;Node23</title>
<path fill="none" stroke="midnightblue" d="M729.562,-850.302C895.784,-846.496 1605,-824.984 1605,-735 1605,-735 1605,-735 1605,-561 1605,-497.907 1652.86,-435.31 1679.54,-405.315"/>
<polygon fill="midnightblue" stroke="midnightblue" points="1682.29,-407.492 1686.45,-397.746 1677.12,-402.774 1682.29,-407.492"/>
</g>
<!-- Node36&#45;&gt;Node26 -->
<g id="edge254" class="edge"><title>Node36&#45;&gt;Node26</title>
<path fill="none" stroke="midnightblue" d="M660.427,-844.706C583.717,-829.757 406,-789.267 406,-735 406,-735 406,-735 406,-677 406,-582.676 432.886,-546.318 510,-492 544.324,-467.822 658.009,-454.873 728.315,-449.008"/>
<polygon fill="midnightblue" stroke="midnightblue" points="728.674,-452.49 738.358,-448.193 728.108,-445.513 728.674,-452.49"/>
</g>
<!-- Node36&#45;&gt;Node33 -->
<g id="edge242" class="edge"><title>Node36&#45;&gt;Node33</title>
<path fill="none" stroke="midnightblue" d="M695.671,-840.275C697.732,-816.287 705.948,-757.766 738,-724 787.356,-672.005 865.764,-645.204 924.327,-631.75"/>
<polygon fill="midnightblue" stroke="midnightblue" points="925.275,-635.125 934.283,-629.547 923.763,-628.291 925.275,-635.125"/>
</g>
<!-- Node36&#45;&gt;Node34 -->
<g id="edge240" class="edge"><title>Node36&#45;&gt;Node34</title>
<path fill="none" stroke="midnightblue" d="M729.74,-848.984C815.442,-842.142 1038.9,-812.64 1162,-688 1207.3,-642.133 1219.51,-562.22 1222.8,-524.231"/>
<polygon fill="midnightblue" stroke="midnightblue" points="1226.32,-524.1 1223.56,-513.871 1219.33,-523.588 1226.32,-524.1"/>
</g>
<!-- Node37 -->
<g id="node135" class="node"><title>Node37</title>
<a xlink:href="MojDbCursor_8h.htm" target="_top" xlink:title="db/MojDbCursor.h">
<polygon fill="white" stroke="black" points="547.5,-666.5 547.5,-687.5 648.5,-687.5 648.5,-666.5 547.5,-666.5"/>
<text text-anchor="middle" x="598" y="-674.5" font-family="Helvetica,sans-Serif" font-size="10.00">db/MojDbCursor.h</text>
</a>
</g>
<!-- Node36&#45;&gt;Node37 -->
<g id="edge196" class="edge"><title>Node36&#45;&gt;Node37</title>
<path fill="none" stroke="midnightblue" d="M686.941,-840.47C679.959,-831.134 669.785,-817.002 662,-804 640.152,-767.508 618.728,-722.621 607.05,-697.161"/>
<polygon fill="midnightblue" stroke="midnightblue" points="610.127,-695.472 602.802,-687.817 603.754,-698.369 610.127,-695.472"/>
</g>
<!-- Node40 -->
<g id="node149" class="node"><title>Node40</title>
<a xlink:href="MojDbIdGenerator_8h.htm" target="_top" xlink:title="db/MojDbIdGenerator.h">
<polygon fill="white" stroke="black" points="404.5,-434.5 404.5,-455.5 531.5,-455.5 531.5,-434.5 404.5,-434.5"/>
<text text-anchor="middle" x="468" y="-442.5" font-family="Helvetica,sans-Serif" font-size="10.00">db/MojDbIdGenerator.h</text>
</a>
</g>
<!-- Node36&#45;&gt;Node40 -->
<g id="edge218" class="edge"><title>Node36&#45;&gt;Node40</title>
<path fill="none" stroke="midnightblue" d="M660.378,-848.772C577.672,-843.1 373.977,-826.919 354,-804 308.425,-751.712 322.332,-548.189 363,-492 374.115,-476.643 391.424,-466.212 408.804,-459.166"/>
<polygon fill="midnightblue" stroke="midnightblue" points="410.274,-462.354 418.428,-455.59 407.836,-455.792 410.274,-462.354"/>
</g>
<!-- Node41 -->
<g id="node154" class="node"><title>Node41</title>
<a xlink:href="MojDbPermissionEngine_8h.htm" target="_top" xlink:title="db/MojDbPermissionEngine.h">
<polygon fill="white" stroke="black" points="1384,-434.5 1384,-455.5 1538,-455.5 1538,-434.5 1384,-434.5"/>
<text text-anchor="middle" x="1461" y="-442.5" font-family="Helvetica,sans-Serif" font-size="10.00">db/MojDbPermissionEngine.h</text>
</a>
</g>
<!-- Node36&#45;&gt;Node41 -->
<g id="edge226" class="edge"><title>Node36&#45;&gt;Node41</title>
<path fill="none" stroke="midnightblue" d="M729.553,-849.711C864.368,-844.542 1348.82,-824.597 1374,-804 1398.62,-783.861 1393,-766.808 1393,-735 1393,-735 1393,-735 1393,-561 1393,-521.878 1422.14,-484.265 1442.27,-462.951"/>
<polygon fill="midnightblue" stroke="midnightblue" points="1444.96,-465.203 1449.46,-455.612 1439.97,-460.303 1444.96,-465.203"/>
</g>
<!-- Node42 -->
<g id="node165" class="node"><title>Node42</title>
<a xlink:href="MojDbReq_8h.htm" target="_top" xlink:title="db/MojDbReq.h">
<polygon fill="white" stroke="black" points="518.5,-376.5 518.5,-397.5 607.5,-397.5 607.5,-376.5 518.5,-376.5"/>
<text text-anchor="middle" x="563" y="-384.5" font-family="Helvetica,sans-Serif" font-size="10.00">db/MojDbReq.h</text>
</a>
</g>
<!-- Node36&#45;&gt;Node42 -->
<g id="edge246" class="edge"><title>Node36&#45;&gt;Node42</title>
<path fill="none" stroke="midnightblue" d="M660.104,-846.519C601.656,-838.648 486.755,-821.507 450,-804 406.999,-783.518 368,-782.63 368,-735 368,-735 368,-735 368,-677 368,-581.568 402.482,-551.619 477,-492 502.181,-471.853 519.554,-480.94 540,-456 551.228,-442.304 557.056,-422.905 560.032,-408.163"/>
<polygon fill="midnightblue" stroke="midnightblue" points="563.54,-408.418 561.793,-397.968 556.642,-407.226 563.54,-408.418"/>
</g>
<!-- Node43 -->
<g id="node172" class="node"><title>Node43</title>
<a xlink:href="MojFile_8h.htm" target="_top" xlink:title="core/MojFile.h">
<polygon fill="white" stroke="black" points="181.5,-724.5 181.5,-745.5 264.5,-745.5 264.5,-724.5 181.5,-724.5"/>
<text text-anchor="middle" x="223" y="-732.5" font-family="Helvetica,sans-Serif" font-size="10.00">core/MojFile.h</text>
</a>
</g>
<!-- Node36&#45;&gt;Node43 -->
<g id="edge258" class="edge"><title>Node36&#45;&gt;Node43</title>
<path fill="none" stroke="midnightblue" d="M660.369,-850.463C572.554,-848.575 343.512,-840.219 278,-804 257.794,-792.829 242.316,-770.895 233.003,-754.743"/>
<polygon fill="midnightblue" stroke="midnightblue" points="235.87,-752.69 228.014,-745.582 229.723,-756.038 235.87,-752.69"/>
</g>
<!-- Node37&#45;&gt;Node3 -->
<g id="edge198" class="edge"><title>Node37&#45;&gt;Node3</title>
<path fill="none" stroke="midnightblue" d="M594.313,-666.193C585.55,-642.038 561.23,-583.195 522,-550 488.481,-521.638 466.534,-538.354 430,-514 400.185,-494.125 387.422,-489.224 374,-456 367.131,-438.996 370.8,-390.305 380,-376 391.603,-357.96 411.536,-345.191 429.888,-336.616"/>
<polygon fill="midnightblue" stroke="midnightblue" points="431.526,-339.719 439.288,-332.508 428.723,-333.305 431.526,-339.719"/>
</g>
<!-- Node37&#45;&gt;Node17 -->
<g id="edge216" class="edge"><title>Node37&#45;&gt;Node17</title>
<path fill="none" stroke="midnightblue" d="M547.132,-672.244C441.434,-659.305 199.399,-613.089 97,-456 77.5839,-426.214 79.5029,-406.952 97,-376 152.139,-278.46 212.143,-294.808 313,-246 419.851,-194.291 478.38,-235.25 563,-152 578.18,-137.066 585.873,-113.513 589.639,-96.5847"/>
<polygon fill="midnightblue" stroke="midnightblue" points="593.113,-97.0585 591.587,-86.5741 586.242,-95.7216 593.113,-97.0585"/>
</g>
<!-- Node37&#45;&gt;Node33 -->
<g id="edge200" class="edge"><title>Node37&#45;&gt;Node33</title>
<path fill="none" stroke="midnightblue" d="M648.758,-669.713C717.349,-659.866 840.379,-642.203 921.612,-630.541"/>
<polygon fill="midnightblue" stroke="midnightblue" points="922.396,-633.964 931.798,-629.079 921.402,-627.035 922.396,-633.964"/>
</g>
<!-- Node38 -->
<g id="node139" class="node"><title>Node38</title>
<a xlink:href="MojDbQueryFilter_8h.htm" target="_top" xlink:title="db/MojDbQueryFilter.h">
<polygon fill="white" stroke="black" points="518.5,-492.5 518.5,-513.5 639.5,-513.5 639.5,-492.5 518.5,-492.5"/>
<text text-anchor="middle" x="579" y="-500.5" font-family="Helvetica,sans-Serif" font-size="10.00">db/MojDbQueryFilter.h</text>
</a>
</g>
<!-- Node37&#45;&gt;Node38 -->
<g id="edge202" class="edge"><title>Node37&#45;&gt;Node38</title>
<path fill="none" stroke="midnightblue" d="M596.84,-666.377C593.773,-638.293 585.407,-561.673 581.315,-524.203"/>
<polygon fill="midnightblue" stroke="midnightblue" points="584.758,-523.489 580.193,-513.928 577.8,-524.249 584.758,-523.489"/>
</g>
<!-- Node39 -->
<g id="node143" class="node"><title>Node39</title>
<a xlink:href="MojObjectFilter_8h.htm" target="_top" xlink:title="core/MojObjectFilter.h">
<polygon fill="white" stroke="black" points="2102.5,-376.5 2102.5,-397.5 2221.5,-397.5 2221.5,-376.5 2102.5,-376.5"/>
<text text-anchor="middle" x="2162" y="-384.5" font-family="Helvetica,sans-Serif" font-size="10.00">core/MojObjectFilter.h</text>
</a>
</g>
<!-- Node37&#45;&gt;Node39 -->
<g id="edge208" class="edge"><title>Node37&#45;&gt;Node39</title>
<path fill="none" stroke="midnightblue" d="M648.838,-672.752C736.953,-665.234 923.707,-648.61 1081,-630 1451.77,-586.133 1547.08,-588.12 1913,-514 1916.06,-513.381 2127.61,-458.007 2130,-456 2144.78,-443.576 2153.12,-422.828 2157.55,-407.321"/>
<polygon fill="midnightblue" stroke="midnightblue" points="2160.95,-408.144 2160.02,-397.59 2154.17,-406.419 2160.95,-408.144"/>
</g>
<!-- Node38&#45;&gt;Node3 -->
<g id="edge204" class="edge"><title>Node38&#45;&gt;Node3</title>
<path fill="none" stroke="midnightblue" d="M524.012,-492.405C473.082,-482.037 404.016,-466.335 396,-456 366.057,-417.394 417.546,-365.653 449.497,-339.181"/>
<polygon fill="midnightblue" stroke="midnightblue" points="451.931,-341.715 457.523,-332.716 447.54,-336.263 451.931,-341.715"/>
</g>
<!-- Node38&#45;&gt;Node7 -->
<g id="edge206" class="edge"><title>Node38&#45;&gt;Node7</title>
<path fill="none" stroke="midnightblue" d="M639.583,-500.28C857.031,-490.519 1596.66,-457.315 1811.83,-447.656"/>
<polygon fill="midnightblue" stroke="midnightblue" points="1812.14,-451.146 1821.98,-447.201 1811.83,-444.153 1812.14,-451.146"/>
</g>
<!-- Node39&#45;&gt;Node9 -->
<g id="edge210" class="edge"><title>Node39&#45;&gt;Node9</title>
<path fill="none" stroke="midnightblue" d="M2181.55,-376.412C2201.07,-365.836 2231.3,-349.465 2253.49,-337.441"/>
<polygon fill="midnightblue" stroke="midnightblue" points="2255.34,-340.424 2262.46,-332.584 2252,-334.269 2255.34,-340.424"/>
</g>
<!-- Node39&#45;&gt;Node19 -->
<g id="edge214" class="edge"><title>Node39&#45;&gt;Node19</title>
<path fill="none" stroke="midnightblue" d="M2135.45,-376.461C2088.82,-358.429 1988.83,-321.878 1901,-304 1742.68,-271.774 1551.59,-261.576 1458.11,-258.4"/>
<polygon fill="midnightblue" stroke="midnightblue" points="1458.13,-254.899 1448.02,-258.072 1457.9,-261.896 1458.13,-254.899"/>
</g>
<!-- Node39&#45;&gt;Node21 -->
<g id="edge212" class="edge"><title>Node39&#45;&gt;Node21</title>
<path fill="none" stroke="midnightblue" d="M2162.66,-376.267C2163.22,-367.18 2164.04,-353.892 2164.72,-342.74"/>
<polygon fill="midnightblue" stroke="midnightblue" points="2168.23,-342.73 2165.35,-332.534 2161.24,-342.3 2168.23,-342.73"/>
</g>
<!-- Node40&#45;&gt;Node3 -->
<g id="edge220" class="edge"><title>Node40&#45;&gt;Node3</title>
<path fill="none" stroke="midnightblue" d="M458.939,-434.252C451.96,-425.227 442.873,-411.652 439,-398 436.332,-388.593 436.352,-385.412 439,-376 442.554,-363.368 449.975,-350.769 456.881,-340.921"/>
<polygon fill="midnightblue" stroke="midnightblue" points="459.81,-342.847 462.953,-332.729 454.186,-338.679 459.81,-342.847"/>
</g>
<!-- Node40&#45;&gt;Node28 -->
<g id="edge222" class="edge"><title>Node40&#45;&gt;Node28</title>
<path fill="none" stroke="midnightblue" d="M531.55,-438.262C637.806,-426.995 850.121,-404.483 954.386,-393.427"/>
<polygon fill="midnightblue" stroke="midnightblue" points="954.86,-396.897 964.435,-392.362 954.122,-389.936 954.86,-396.897"/>
</g>
<!-- Node41&#45;&gt;Node3 -->
<g id="edge228" class="edge"><title>Node41&#45;&gt;Node3</title>
<path fill="none" stroke="midnightblue" d="M1461.57,-434.339C1461.75,-418.767 1459.5,-390.121 1442,-376 1406.26,-347.163 728.988,-328.302 527.858,-323.32"/>
<polygon fill="midnightblue" stroke="midnightblue" points="527.888,-319.82 517.805,-323.072 527.715,-326.817 527.888,-319.82"/>
</g>
<!-- Node41&#45;&gt;Node12 -->
<g id="edge234" class="edge"><title>Node41&#45;&gt;Node12</title>
<path fill="none" stroke="midnightblue" d="M1467.88,-434.394C1485.85,-407.644 1537.13,-337.199 1599,-304 1631.57,-286.522 1729.4,-271.528 1791.43,-263.428"/>
<polygon fill="midnightblue" stroke="midnightblue" points="1791.97,-266.888 1801.44,-262.14 1791.07,-259.945 1791.97,-266.888"/>
</g>
<!-- Node41&#45;&gt;Node19 -->
<g id="edge236" class="edge"><title>Node41&#45;&gt;Node19</title>
<path fill="none" stroke="midnightblue" d="M1463.09,-434.055C1465.31,-420.287 1467.9,-396.021 1463,-376 1453.7,-338.016 1429.94,-298.677 1414.68,-276.094"/>
<polygon fill="midnightblue" stroke="midnightblue" points="1417.48,-273.995 1408.91,-267.761 1411.72,-277.977 1417.48,-273.995"/>
</g>
<!-- Node41&#45;&gt;Node23 -->
<g id="edge232" class="edge"><title>Node41&#45;&gt;Node23</title>
<path fill="none" stroke="midnightblue" d="M1503.74,-434.497C1543.21,-424.795 1601.97,-410.355 1644.33,-399.945"/>
<polygon fill="midnightblue" stroke="midnightblue" points="1645.31,-403.309 1654.18,-397.523 1643.64,-396.511 1645.31,-403.309"/>
</g>
<!-- Node41&#45;&gt;Node28 -->
<g id="edge238" class="edge"><title>Node41&#45;&gt;Node28</title>
<path fill="none" stroke="midnightblue" d="M1383.82,-434.963C1296.49,-423.607 1156.03,-405.34 1076.01,-394.934"/>
<polygon fill="midnightblue" stroke="midnightblue" points="1075.98,-391.4 1065.61,-393.581 1075.07,-398.342 1075.98,-391.4"/>
</g>
<!-- Node41&#45;&gt;Node35 -->
<g id="edge230" class="edge"><title>Node41&#45;&gt;Node35</title>
<path fill="none" stroke="midnightblue" d="M1444.68,-434.362C1431.25,-425.614 1412.02,-413.079 1396.71,-403.101"/>
<polygon fill="midnightblue" stroke="midnightblue" points="1398.51,-400.098 1388.22,-397.571 1394.69,-405.963 1398.51,-400.098"/>
</g>
<!-- Node42&#45;&gt;Node3 -->
<g id="edge248" class="edge"><title>Node42&#45;&gt;Node3</title>
<path fill="none" stroke="midnightblue" d="M547.973,-376.267C533.662,-366.044 511.906,-350.504 495.338,-338.67"/>
<polygon fill="midnightblue" stroke="midnightblue" points="496.919,-335.498 486.747,-332.534 492.85,-341.194 496.919,-335.498"/>
</g>
<!-- Node42&#45;&gt;Node19 -->
<g id="edge250" class="edge"><title>Node42&#45;&gt;Node19</title>
<path fill="none" stroke="midnightblue" d="M607.758,-380.057C749.223,-358.111 1186.62,-290.257 1343.92,-265.855"/>
<polygon fill="midnightblue" stroke="midnightblue" points="1344.52,-269.303 1353.87,-264.312 1343.45,-262.386 1344.52,-269.303"/>
</g>
<!-- Node43&#45;&gt;Node4 -->
<g id="edge260" class="edge"><title>Node43&#45;&gt;Node4</title>
<path fill="none" stroke="midnightblue" d="M212.08,-724.445C171.956,-684.472 35,-537.042 35,-387 35,-387 35,-387 35,-141 35,48.8407 265.497,-80.494 454,-58 659.887,-33.4316 1299.38,-17.1783 1507.1,-12.4375"/>
<polygon fill="midnightblue" stroke="midnightblue" points="1507.33,-15.9333 1517.25,-12.2072 1507.17,-8.93507 1507.33,-15.9333"/>
</g>
<!-- Node44&#45;&gt;Node3 -->
<g id="edge264" class="edge"><title>Node44&#45;&gt;Node3</title>
<path fill="none" stroke="midnightblue" d="M1863.85,-908.444C1589.16,-904.772 154,-881.361 154,-793 154,-793 154,-793 154,-735 154,-555.301 201.357,-490.324 340,-376 362.868,-357.143 393.212,-344.114 419.04,-335.586"/>
<polygon fill="midnightblue" stroke="midnightblue" points="420.213,-338.886 428.693,-332.535 418.103,-332.212 420.213,-338.886"/>
</g>
<!-- Node44&#45;&gt;Node9 -->
<g id="edge306" class="edge"><title>Node44&#45;&gt;Node9</title>
<path fill="none" stroke="midnightblue" d="M1954.18,-906.027C2052.21,-899.29 2281.67,-881.889 2357,-862 2431.09,-842.439 2515,-869.626 2515,-793 2515,-793 2515,-793 2515,-445 2515,-422.92 2382.45,-364.174 2317.3,-336.634"/>
<polygon fill="midnightblue" stroke="midnightblue" points="2318.4,-333.3 2307.83,-332.648 2315.69,-339.752 2318.4,-333.3"/>
</g>
<!-- Node44&#45;&gt;Node19 -->
<g id="edge322" class="edge"><title>Node44&#45;&gt;Node19</title>
<path fill="none" stroke="midnightblue" d="M1893.62,-898.479C1868.89,-880.167 1823,-839.881 1823,-793 1823,-793 1823,-793 1823,-561 1823,-525.99 1809.73,-516.785 1785,-492 1761.68,-468.621 1748.46,-472.745 1720,-456 1608.85,-390.608 1479.26,-307.623 1425.9,-273.148"/>
<polygon fill="midnightblue" stroke="midnightblue" points="1427.72,-270.157 1417.42,-267.665 1423.91,-276.035 1427.72,-270.157"/>
</g>
<!-- Node44&#45;&gt;Node20 -->
<g id="edge326" class="edge"><title>Node44&#45;&gt;Node20</title>
<path fill="none" stroke="midnightblue" d="M1954.12,-907.643C2080.85,-903.524 2438.22,-889.715 2552,-862 2627.64,-843.576 2713,-870.85 2713,-793 2713,-793 2713,-793 2713,-322 2713,-239.238 2623.25,-266.231 2543,-246 2334.89,-193.537 2271.93,-237.327 2055.83,-210.105"/>
<polygon fill="midnightblue" stroke="midnightblue" points="2056.12,-206.614 2045.76,-208.799 2055.22,-213.555 2056.12,-206.614"/>
</g>
<!-- Node44&#45;&gt;Node21 -->
<g id="edge320" class="edge"><title>Node44&#45;&gt;Node21</title>
<path fill="none" stroke="midnightblue" d="M1954.16,-906.966C2023.54,-902.994 2160.09,-891.806 2272,-862 2349.6,-841.332 2439,-873.308 2439,-793 2439,-793 2439,-793 2439,-445 2439,-419.845 2282.93,-362.413 2206.8,-335.893"/>
<polygon fill="midnightblue" stroke="midnightblue" points="2207.65,-332.482 2197.05,-332.514 2205.35,-339.096 2207.65,-332.482"/>
</g>
<!-- Node44&#45;&gt;Node23 -->
<g id="edge304" class="edge"><title>Node44&#45;&gt;Node23</title>
<path fill="none" stroke="midnightblue" d="M1954.31,-905.991C2062.13,-897.591 2325,-869.29 2325,-793 2325,-793 2325,-793 2325,-677 2325,-429.151 2035.28,-565.648 1813,-456 1796.52,-447.872 1793.73,-443.501 1778,-434 1760.32,-423.317 1740.23,-411.661 1724.49,-402.628"/>
<polygon fill="midnightblue" stroke="midnightblue" points="1726.19,-399.569 1715.77,-397.641 1722.71,-405.645 1726.19,-399.569"/>
</g>
<!-- Node44&#45;&gt;Node31 -->
<g id="edge324" class="edge"><title>Node44&#45;&gt;Node31</title>
<path fill="none" stroke="midnightblue" d="M1909,-898.377C1909,-870.293 1909,-793.673 1909,-756.203"/>
<polygon fill="midnightblue" stroke="midnightblue" points="1912.5,-755.928 1909,-745.928 1905.5,-755.928 1912.5,-755.928"/>
</g>
<!-- Node44&#45;&gt;Node41 -->
<g id="edge288" class="edge"><title>Node44&#45;&gt;Node41</title>
<path fill="none" stroke="midnightblue" d="M1866.44,-898.432C1818.44,-883.664 1747,-851.806 1747,-793 1747,-793 1747,-793 1747,-619 1747,-561.927 1803.16,-535.321 1766,-492 1751.86,-475.514 1633.26,-461.055 1548.2,-452.671"/>
<polygon fill="midnightblue" stroke="midnightblue" points="1548.3,-449.163 1538.01,-451.678 1547.62,-456.13 1548.3,-449.163"/>
</g>
<!-- Node45 -->
<g id="node178" class="node"><title>Node45</title>
<a xlink:href="MojDbIndex_8h.htm" target="_top" xlink:title="db/MojDbIndex.h">
<polygon fill="white" stroke="black" points="1025.5,-666.5 1025.5,-687.5 1120.5,-687.5 1120.5,-666.5 1025.5,-666.5"/>
<text text-anchor="middle" x="1073" y="-674.5" font-family="Helvetica,sans-Serif" font-size="10.00">db/MojDbIndex.h</text>
</a>
</g>
<!-- Node44&#45;&gt;Node45 -->
<g id="edge266" class="edge"><title>Node44&#45;&gt;Node45</title>
<path fill="none" stroke="midnightblue" d="M1863.88,-900.539C1819.04,-891.864 1748.42,-877.483 1688,-862 1469.76,-806.071 1212.89,-723.178 1114.34,-690.729"/>
<polygon fill="midnightblue" stroke="midnightblue" points="1115.34,-687.376 1104.75,-687.568 1113.15,-694.024 1115.34,-687.376"/>
</g>
<!-- Node47 -->
<g id="node192" class="node"><title>Node47</title>
<a xlink:href="MojDbRevisionSet_8h.htm" target="_top" xlink:title="db/MojDbRevisionSet.h">
<polygon fill="white" stroke="black" points="1632.5,-492.5 1632.5,-513.5 1757.5,-513.5 1757.5,-492.5 1632.5,-492.5"/>
<text text-anchor="middle" x="1695" y="-500.5" font-family="Helvetica,sans-Serif" font-size="10.00">db/MojDbRevisionSet.h</text>
</a>
</g>
<!-- Node44&#45;&gt;Node47 -->
<g id="edge290" class="edge"><title>Node44&#45;&gt;Node47</title>
<path fill="none" stroke="midnightblue" d="M1863.97,-901.51C1818.62,-893.187 1752.64,-878.698 1733,-862 1707.39,-840.22 1702,-826.62 1702,-793 1702,-793 1702,-793 1702,-619 1702,-585.537 1699.06,-546.743 1696.99,-523.571"/>
<polygon fill="midnightblue" stroke="midnightblue" points="1700.47,-523.178 1696.06,-513.543 1693.5,-523.824 1700.47,-523.178"/>
</g>
<!-- Node48 -->
<g id="node196" class="node"><title>Node48</title>
<a xlink:href="MojDbKindState_8h.htm" target="_top" xlink:title="db/MojDbKindState.h">
<polygon fill="white" stroke="black" points="1937.5,-840.5 1937.5,-861.5 2052.5,-861.5 2052.5,-840.5 1937.5,-840.5"/>
<text text-anchor="middle" x="1995" y="-848.5" font-family="Helvetica,sans-Serif" font-size="10.00">db/MojDbKindState.h</text>
</a>
</g>
<!-- Node44&#45;&gt;Node48 -->
<g id="edge296" class="edge"><title>Node44&#45;&gt;Node48</title>
<path fill="none" stroke="midnightblue" d="M1924.77,-898.362C1937.62,-889.696 1955.98,-877.313 1970.71,-867.382"/>
<polygon fill="midnightblue" stroke="midnightblue" points="1972.99,-870.064 1979.33,-861.571 1969.08,-864.26 1972.99,-870.064"/>
</g>
<!-- Node49 -->
<g id="node203" class="node"><title>Node49</title>
<a xlink:href="MojSchema_8h.htm" target="_top" xlink:title="core/MojSchema.h">
<polygon fill="white" stroke="black" points="2543,-376.5 2543,-397.5 2647,-397.5 2647,-376.5 2543,-376.5"/>
<text text-anchor="middle" x="2595" y="-384.5" font-family="Helvetica,sans-Serif" font-size="10.00">core/MojSchema.h</text>
</a>
</g>
<!-- Node44&#45;&gt;Node49 -->
<g id="edge308" class="edge"><title>Node44&#45;&gt;Node49</title>
<path fill="none" stroke="midnightblue" d="M1954.11,-908.396C2089.16,-906.204 2483.71,-896.849 2529,-862 2554.73,-842.199 2553,-825.469 2553,-793 2553,-793 2553,-793 2553,-503 2553,-467.364 2570.74,-429.052 2583.16,-406.594"/>
<polygon fill="midnightblue" stroke="midnightblue" points="2586.31,-408.141 2588.25,-397.725 2580.24,-404.656 2586.31,-408.141"/>
</g>
<!-- Node45&#45;&gt;Node3 -->
<g id="edge268" class="edge"><title>Node45&#45;&gt;Node3</title>
<path fill="none" stroke="midnightblue" d="M1025.16,-669.434C933.263,-654.054 736.668,-616.772 686,-572 656.503,-545.936 674.626,-520.991 648,-492 619.976,-461.487 511.025,-431.752 487,-398 475.531,-381.887 472.289,-359.206 471.606,-342.821"/>
<polygon fill="midnightblue" stroke="midnightblue" points="475.104,-342.594 471.473,-332.641 468.104,-342.686 475.104,-342.594"/>
</g>
<!-- Node45&#45;&gt;Node5 -->
<g id="edge282" class="edge"><title>Node45&#45;&gt;Node5</title>
<path fill="none" stroke="midnightblue" d="M1036.68,-666.441C1006.15,-657.368 961.455,-643.628 923,-630 873.864,-612.586 817.984,-589.902 783.106,-575.391"/>
<polygon fill="midnightblue" stroke="midnightblue" points="784.425,-572.149 773.849,-571.526 781.728,-578.609 784.425,-572.149"/>
</g>
<!-- Node45&#45;&gt;Node21 -->
<g id="edge284" class="edge"><title>Node45&#45;&gt;Node21</title>
<path fill="none" stroke="midnightblue" d="M1120.53,-670.177C1178.26,-661.692 1278.55,-646.322 1364,-630 1716.29,-562.713 1825.75,-604.978 2152,-456 2191.3,-438.056 2210.6,-436.6 2230,-398 2241.76,-374.597 2217.05,-352.218 2195,-337.883"/>
<polygon fill="midnightblue" stroke="midnightblue" points="2196.8,-334.881 2186.45,-332.615 2193.13,-340.841 2196.8,-334.881"/>
</g>
<!-- Node45&#45;&gt;Node28 -->
<g id="edge286" class="edge"><title>Node45&#45;&gt;Node28</title>
<path fill="none" stroke="midnightblue" d="M1075.99,-666.218C1079.36,-652.617 1084,-628.524 1081,-608 1069.89,-531.945 1038.33,-445.693 1023.24,-407.296"/>
<polygon fill="midnightblue" stroke="midnightblue" points="1026.4,-405.777 1019.45,-397.783 1019.9,-408.368 1026.4,-405.777"/>
</g>
<!-- Node45&#45;&gt;Node33 -->
<g id="edge280" class="edge"><title>Node45&#45;&gt;Node33</title>
<path fill="none" stroke="midnightblue" d="M1059.98,-666.362C1049.57,-657.859 1034.78,-645.779 1022.74,-635.947"/>
<polygon fill="midnightblue" stroke="midnightblue" points="1024.9,-633.187 1014.94,-629.571 1020.47,-638.608 1024.9,-633.187"/>
</g>
<!-- Node46 -->
<g id="node181" class="node"><title>Node46</title>
<a xlink:href="MojDbExtractor_8h.htm" target="_top" xlink:title="db/MojDbExtractor.h">
<polygon fill="white" stroke="red" points="1976,-434.5 1976,-455.5 2088,-455.5 2088,-434.5 1976,-434.5"/>
<text text-anchor="middle" x="2032" y="-442.5" font-family="Helvetica,sans-Serif" font-size="10.00">db/MojDbExtractor.h</text>
</a>
</g>
<!-- Node45&#45;&gt;Node46 -->
<g id="edge270" class="edge"><title>Node45&#45;&gt;Node46</title>
<path fill="none" stroke="midnightblue" d="M1120.83,-667.419C1237.4,-643.819 1545.2,-579.991 1799,-514 1865.95,-496.592 1942.72,-473.177 1989.27,-458.591"/>
<polygon fill="midnightblue" stroke="midnightblue" points="1990.52,-461.867 1999.01,-455.529 1988.42,-455.189 1990.52,-461.867"/>
</g>
<!-- Node46&#45;&gt;Node3 -->
<g id="edge272" class="edge"><title>Node46&#45;&gt;Node3</title>
<path fill="none" stroke="midnightblue" d="M2004.06,-434.454C1960.25,-418.475 1872.4,-388.653 1795,-376 1545.28,-335.175 746.695,-324.631 527.893,-322.479"/>
<polygon fill="midnightblue" stroke="midnightblue" points="527.648,-318.976 517.615,-322.38 527.58,-325.976 527.648,-318.976"/>
</g>
<!-- Node46&#45;&gt;Node8 -->
<g id="edge274" class="edge"><title>Node46&#45;&gt;Node8</title>
<path fill="none" stroke="midnightblue" d="M2019.89,-434.362C2010.31,-425.941 1996.74,-414.011 1985.61,-404.231"/>
<polygon fill="midnightblue" stroke="midnightblue" points="1987.85,-401.543 1978.03,-397.571 1983.23,-406.801 1987.85,-401.543"/>
</g>
<!-- Node46&#45;&gt;Node9 -->
<g id="edge276" class="edge"><title>Node46&#45;&gt;Node9</title>
<path fill="none" stroke="midnightblue" d="M2088.2,-440.392C2148.34,-434.311 2238.42,-421.517 2263,-398 2277.83,-383.809 2281.78,-359.932 2282.52,-342.724"/>
<polygon fill="midnightblue" stroke="midnightblue" points="2286.02,-342.584 2282.63,-332.548 2279.02,-342.511 2286.02,-342.584"/>
</g>
<!-- Node46&#45;&gt;Node21 -->
<g id="edge278" class="edge"><title>Node46&#45;&gt;Node21</title>
<path fill="none" stroke="midnightblue" d="M2040.65,-434.12C2052.11,-419.996 2073.33,-394.919 2094,-376 2108.99,-362.285 2127.32,-348.572 2141.74,-338.397"/>
<polygon fill="midnightblue" stroke="midnightblue" points="2143.93,-341.134 2150.14,-332.551 2139.94,-335.388 2143.93,-341.134"/>
</g>
<!-- Node47&#45;&gt;Node3 -->
<g id="edge292" class="edge"><title>Node47&#45;&gt;Node3</title>
<path fill="none" stroke="midnightblue" d="M1632.38,-495.622C1553.4,-485.999 1422.2,-468.877 1375,-456 1350,-449.179 1345.41,-442.699 1321,-434 1238.23,-404.506 1218.29,-392.568 1132,-376 1016.74,-353.869 665.488,-332.689 528.011,-325.022"/>
<polygon fill="midnightblue" stroke="midnightblue" points="527.889,-321.509 517.71,-324.45 527.501,-328.499 527.889,-321.509"/>
</g>
<!-- Node47&#45;&gt;Node46 -->
<g id="edge294" class="edge"><title>Node47&#45;&gt;Node46</title>
<path fill="none" stroke="midnightblue" d="M1756.03,-492.497C1815.32,-482.292 1905.08,-466.843 1966.01,-456.358"/>
<polygon fill="midnightblue" stroke="midnightblue" points="1966.64,-459.8 1975.9,-454.654 1965.46,-452.901 1966.64,-459.8"/>
</g>
<!-- Node48&#45;&gt;Node2 -->
<g id="edge302" class="edge"><title>Node48&#45;&gt;Node2</title>
<path fill="none" stroke="midnightblue" d="M1937.27,-846.155C1811.49,-835.597 1512.95,-810.539 1375.51,-799.003"/>
<polygon fill="midnightblue" stroke="midnightblue" points="1375.76,-795.511 1365.5,-798.162 1375.18,-802.487 1375.76,-795.511"/>
</g>
<!-- Node48&#45;&gt;Node21 -->
<g id="edge300" class="edge"><title>Node48&#45;&gt;Node21</title>
<path fill="none" stroke="midnightblue" d="M2034.73,-840.402C2129.89,-812.356 2363,-726.736 2363,-561 2363,-561 2363,-561 2363,-503 2363,-417.384 2260.86,-361.219 2203.67,-336.483"/>
<polygon fill="midnightblue" stroke="midnightblue" points="2204.8,-333.161 2194.23,-332.506 2202.08,-339.612 2204.8,-333.161"/>
</g>
<!-- Node48&#45;&gt;Node32 -->
<g id="edge298" class="edge"><title>Node48&#45;&gt;Node32</title>
<path fill="none" stroke="midnightblue" d="M1995.31,-840.377C1996.11,-812.293 1998.31,-735.673 1999.39,-698.203"/>
<polygon fill="midnightblue" stroke="midnightblue" points="2002.9,-698.024 1999.69,-687.928 1995.9,-697.823 2002.9,-698.024"/>
</g>
<!-- Node49&#45;&gt;Node4 -->
<g id="edge310" class="edge"><title>Node49&#45;&gt;Node4</title>
<path fill="none" stroke="midnightblue" d="M2607.5,-376.228C2630,-355.566 2675,-307.881 2675,-257 2675,-257 2675,-257 2675,-141 2675,-36.0629 1876.71,-15.5813 1639.01,-11.8086"/>
<polygon fill="midnightblue" stroke="midnightblue" points="1638.84,-8.30563 1628.78,-11.6512 1638.73,-15.3048 1638.84,-8.30563"/>
</g>
<!-- Node49&#45;&gt;Node9 -->
<g id="edge314" class="edge"><title>Node49&#45;&gt;Node9</title>
<path fill="none" stroke="midnightblue" d="M2542.83,-377.849C2480.77,-366.856 2380.93,-348.796 2344,-340 2338.13,-338.602 2331.99,-336.997 2325.95,-335.333"/>
<polygon fill="midnightblue" stroke="midnightblue" points="2326.53,-331.858 2315.95,-332.504 2324.62,-338.594 2326.53,-331.858"/>
</g>
<!-- Node49&#45;&gt;Node12 -->
<g id="edge312" class="edge"><title>Node49&#45;&gt;Node12</title>
<path fill="none" stroke="midnightblue" d="M2542.55,-378.377C2488.96,-369.045 2409.78,-353.663 2382,-340 2359.63,-329 2362,-313.613 2339,-304 2299.13,-287.333 2018.28,-267.919 1898.7,-260.304"/>
<polygon fill="midnightblue" stroke="midnightblue" points="1898.86,-256.807 1888.66,-259.668 1898.42,-263.793 1898.86,-256.807"/>
</g>
<!-- Node49&#45;&gt;Node20 -->
<g id="edge318" class="edge"><title>Node49&#45;&gt;Node20</title>
<path fill="none" stroke="midnightblue" d="M2576.54,-376.378C2529.66,-349.897 2401.52,-280.6 2286,-246 2189.07,-216.967 2158.64,-227.211 2055.66,-210.213"/>
<polygon fill="midnightblue" stroke="midnightblue" points="2056.24,-206.762 2045.8,-208.539 2055.07,-213.663 2056.24,-206.762"/>
</g>
<!-- Node49&#45;&gt;Node21 -->
<g id="edge316" class="edge"><title>Node49&#45;&gt;Node21</title>
<path fill="none" stroke="midnightblue" d="M2542.75,-383.175C2470.66,-377.262 2336.91,-363.996 2225,-340 2219.1,-338.734 2212.93,-337.153 2206.91,-335.457"/>
<polygon fill="midnightblue" stroke="midnightblue" points="2207.55,-331.998 2196.97,-332.529 2205.58,-338.713 2207.55,-331.998"/>
</g>
<!-- Node50&#45;&gt;Node3 -->
<g id="edge332" class="edge"><title>Node50&#45;&gt;Node3</title>
<path fill="none" stroke="midnightblue" d="M62.0829,-782.248C58.1812,-728.952 48.4292,-491.071 173,-376 181.913,-367.767 332.509,-343.468 416.491,-330.454"/>
<polygon fill="midnightblue" stroke="midnightblue" points="417.041,-333.911 426.389,-328.925 415.972,-326.993 417.041,-333.911"/>
</g>
</g>
</svg>
