<?xml version="1.0" encoding="UTF-8" standalone="no"?>
<!DOCTYPE svg PUBLIC "-//W3C//DTD SVG 1.1//EN"
 "http://www.w3.org/Graphics/SVG/1.1/DTD/svg11.dtd">
<!-- Generated by graphviz version 2.26.3 (20100126.1600)
 -->
<!-- Title: MojDbLevelTxn.h Pages: 1 -->
<svg width="716pt" height="88pt"
 viewBox="0.00 0.00 716.00 88.00" xmlns="http://www.w3.org/2000/svg" xmlns:xlink="http://www.w3.org/1999/xlink">
<g id="graph1" class="graph" transform="scale(1 1) rotate(0) translate(4 84)">
<title>MojDbLevelTxn.h</title>
<polygon fill="white" stroke="white" points="-4,5 -4,-84 713,-84 713,5 -4,5"/>
<!-- Node1 -->
<g id="node1" class="node"><title>Node1</title>
<polygon fill="#bfbfbf" stroke="black" points="307,-58.5 307,-79.5 405,-79.5 405,-58.5 307,-58.5"/>
<text text-anchor="middle" x="356" y="-66.5" font-family="Helvetica,sans-Serif" font-size="10.00">MojDbLevelTxn.h</text>
</g>
<!-- Node2 -->
<g id="node3" class="node"><title>Node2</title>
<a xlink:href="MojDbLevelCursor_8cpp.htm" target="_top" xlink:title="MojDbLevelCursor.cpp">
<polygon fill="white" stroke="black" points="-0.5,-0.5 -0.5,-21.5 122.5,-21.5 122.5,-0.5 -0.5,-0.5"/>
<text text-anchor="middle" x="61" y="-8.5" font-family="Helvetica,sans-Serif" font-size="10.00">MojDbLevelCursor.cpp</text>
</a>
</g>
<!-- Node1&#45;&gt;Node2 -->
<g id="edge2" class="edge"><title>Node1&#45;&gt;Node2</title>
<path fill="none" stroke="midnightblue" d="M296.967,-57.3935C243.659,-46.9125 165.9,-31.6244 114.407,-21.5003"/>
<polygon fill="midnightblue" stroke="midnightblue" points="296.468,-60.8624 306.956,-59.3574 297.819,-53.9939 296.468,-60.8624"/>
</g>
<!-- Node3 -->
<g id="node5" class="node"><title>Node3</title>
<a xlink:href="MojDbLevelDatabase_8cpp.htm" target="_top" xlink:title="MojDbLevelDatabase.cpp">
<polygon fill="white" stroke="black" points="139.5,-0.5 139.5,-21.5 276.5,-21.5 276.5,-0.5 139.5,-0.5"/>
<text text-anchor="middle" x="208" y="-8.5" font-family="Helvetica,sans-Serif" font-size="10.00">MojDbLevelDatabase.cpp</text>
</a>
</g>
<!-- Node1&#45;&gt;Node3 -->
<g id="edge4" class="edge"><title>Node1&#45;&gt;Node3</title>
<path fill="none" stroke="midnightblue" d="M319.64,-54.7509C293.505,-44.5086 258.832,-30.9206 235.102,-21.6212"/>
<polygon fill="midnightblue" stroke="midnightblue" points="318.611,-58.1065 329.198,-58.4966 321.165,-51.5891 318.611,-58.1065"/>
</g>
<!-- Node4 -->
<g id="node7" class="node"><title>Node4</title>
<a xlink:href="MojDbLevelEngine_8cpp.htm" target="_top" xlink:title="MojDbLevelEngine.cpp">
<polygon fill="white" stroke="black" points="293.5,-0.5 293.5,-21.5 418.5,-21.5 418.5,-0.5 293.5,-0.5"/>
<text text-anchor="middle" x="356" y="-8.5" font-family="Helvetica,sans-Serif" font-size="10.00">MojDbLevelEngine.cpp</text>
</a>
</g>
<!-- Node1&#45;&gt;Node4 -->
<g id="edge6" class="edge"><title>Node1&#45;&gt;Node4</title>
<path fill="none" stroke="midnightblue" d="M356,-48.1906C356,-39.1684 356,-28.9941 356,-21.5707"/>
<polygon fill="midnightblue" stroke="midnightblue" points="352.5,-48.3619 356,-58.3619 359.5,-48.3619 352.5,-48.3619"/>
</g>
<!-- Node5 -->
<g id="node9" class="node"><title>Node5</title>
<a xlink:href="MojDbLevelTxn_8cpp.htm" target="_top" xlink:title="MojDbLevelTxn.cpp">
<polygon fill="white" stroke="black" points="436,-0.5 436,-21.5 546,-21.5 546,-0.5 436,-0.5"/>
<text text-anchor="middle" x="491" y="-8.5" font-family="Helvetica,sans-Serif" font-size="10.00">MojDbLevelTxn.cpp</text>
</a>
</g>
<!-- Node1&#45;&gt;Node5 -->
<g id="edge8" class="edge"><title>Node1&#45;&gt;Node5</title>
<path fill="none" stroke="midnightblue" d="M389.798,-54.4794C413.562,-44.2695 444.824,-30.8386 466.278,-21.6212"/>
<polygon fill="midnightblue" stroke="midnightblue" points="388.254,-51.3334 380.447,-58.4966 391.017,-57.7649 388.254,-51.3334"/>
</g>
<!-- Node6 -->
<g id="node11" class="node"><title>Node6</title>
<a xlink:href="MojDbLevelTxnIterator_8cpp.htm" target="_top" xlink:title="MojDbLevelTxnIterator.cpp">
<polygon fill="white" stroke="black" points="564,-0.5 564,-21.5 708,-21.5 708,-0.5 564,-0.5"/>
<text text-anchor="middle" x="636" y="-8.5" font-family="Helvetica,sans-Serif" font-size="10.00">MojDbLevelTxnIterator.cpp</text>
</a>
</g>
<!-- Node1&#45;&gt;Node6 -->
<g id="edge10" class="edge"><title>Node1&#45;&gt;Node6</title>
<path fill="none" stroke="midnightblue" d="M415.19,-56.7393C465.577,-46.3018 537.202,-31.4652 585.07,-21.5499"/>
<polygon fill="midnightblue" stroke="midnightblue" points="414.175,-53.3751 405.093,-58.8308 415.595,-60.2296 414.175,-53.3751"/>
</g>
</g>
</svg>
