<?xml version="1.0" encoding="UTF-8" standalone="no"?>
<!DOCTYPE svg PUBLIC "-//W3C//DTD SVG 1.1//EN"
 "http://www.w3.org/Graphics/SVG/1.1/DTD/svg11.dtd">
<!-- Generated by graphviz version 2.26.3 (20100126.1600)
 -->
<!-- Title: MojDbReq.h Pages: 1 -->
<svg width="3114pt" height="320pt"
 viewBox="0.00 0.00 3113.81 320.00" xmlns="http://www.w3.org/2000/svg" xmlns:xlink="http://www.w3.org/1999/xlink">
<g id="graph1" class="graph" transform="scale(1 1) rotate(0) translate(4 316)">
<title>MojDbReq.h</title>
<polygon fill="white" stroke="white" points="-4,5 -4,-316 3110.81,-316 3110.81,5 -4,5"/>
<!-- Node1 -->
<g id="node1" class="node"><title>Node1</title>
<polygon fill="#bfbfbf" stroke="black" points="1399.81,-290.5 1399.81,-311.5 1473.81,-311.5 1473.81,-290.5 1399.81,-290.5"/>
<text text-anchor="middle" x="1436.81" y="-298.5" font-family="Helvetica,sans-Serif" font-size="10.00">MojDbReq.h</text>
</g>
<!-- Node2 -->
<g id="node3" class="node"><title>Node2</title>
<a xlink:href="MojDb_8h.htm" target="_top" xlink:title="MojDb.h">
<polygon fill="white" stroke="black" points="1409.31,-232.5 1409.31,-253.5 1464.31,-253.5 1464.31,-232.5 1409.31,-232.5"/>
<text text-anchor="middle" x="1436.81" y="-240.5" font-family="Helvetica,sans-Serif" font-size="10.00">MojDb.h</text>
</a>
</g>
<!-- Node1&#45;&gt;Node2 -->
<g id="edge2" class="edge"><title>Node1&#45;&gt;Node2</title>
<path fill="none" stroke="midnightblue" d="M1436.81,-280.191C1436.81,-271.168 1436.81,-260.994 1436.81,-253.571"/>
<polygon fill="midnightblue" stroke="midnightblue" points="1433.31,-280.362 1436.81,-290.362 1440.31,-280.362 1433.31,-280.362"/>
</g>
<!-- Node9 -->
<g id="node17" class="node"><title>Node9</title>
<a xlink:href="MojDbServiceHandler_8cpp.htm" target="_top" xlink:title="MojDbServiceHandler.cpp">
<polygon fill="white" stroke="black" points="899.314,-58.5 899.314,-79.5 1038.31,-79.5 1038.31,-58.5 899.314,-58.5"/>
<text text-anchor="middle" x="968.814" y="-66.5" font-family="Helvetica,sans-Serif" font-size="10.00">MojDbServiceHandler.cpp</text>
</a>
</g>
<!-- Node1&#45;&gt;Node9 -->
<g id="edge88" class="edge"><title>Node1&#45;&gt;Node9</title>
<path fill="none" stroke="midnightblue" d="M1389.72,-300.05C1202.58,-296.125 511.291,-280.13 293.814,-254 163.743,-238.372 87.836,-297.34 4.81357,-196 -1.38292,-188.436 -1.71532,-181.279 4.81357,-174 64.4625,-107.501 687.864,-79.093 899.199,-71.3253"/>
<polygon fill="midnightblue" stroke="midnightblue" points="1389.71,-303.551 1399.78,-300.26 1389.86,-296.553 1389.71,-303.551"/>
</g>
<!-- Node10 -->
<g id="node19" class="node"><title>Node10</title>
<a xlink:href="MojDbServiceHandlerInternal_8cpp.htm" target="_top" xlink:title="MojDbServiceHandlerInternal.cpp">
<polygon fill="white" stroke="black" points="1367.31,-58.5 1367.31,-79.5 1542.31,-79.5 1542.31,-58.5 1367.31,-58.5"/>
<text text-anchor="middle" x="1454.81" y="-66.5" font-family="Helvetica,sans-Serif" font-size="10.00">MojDbServiceHandlerInternal.cpp</text>
</a>
</g>
<!-- Node1&#45;&gt;Node10 -->
<g id="edge90" class="edge"><title>Node1&#45;&gt;Node10</title>
<path fill="none" stroke="midnightblue" d="M1484.13,-299.551C1734.66,-291.648 2896.96,-252.045 2946.81,-196 2974.87,-164.452 2931.09,-130.62 2902.81,-116 2842.3,-84.7143 1846.8,-72.718 1542.49,-69.7713"/>
<polygon fill="midnightblue" stroke="midnightblue" points="1483.79,-296.06 1473.9,-299.872 1484,-303.056 1483.79,-296.06"/>
</g>
<!-- Node16 -->
<g id="node36" class="node"><title>Node16</title>
<a xlink:href="MojDb_8cpp.htm" target="_top" xlink:title="MojDb.cpp">
<polygon fill="white" stroke="black" points="13.8136,-174.5 13.8136,-195.5 79.8136,-195.5 79.8136,-174.5 13.8136,-174.5"/>
<text text-anchor="middle" x="46.8136" y="-182.5" font-family="Helvetica,sans-Serif" font-size="10.00">MojDb.cpp</text>
</a>
</g>
<!-- Node1&#45;&gt;Node16 -->
<g id="edge80" class="edge"><title>Node1&#45;&gt;Node16</title>
<path fill="none" stroke="midnightblue" d="M1389.23,-300.173C1250.86,-297.435 836.748,-286.884 494.814,-254 313.374,-236.551 267.492,-232.038 88.8136,-196 86.0058,-195.434 83.1062,-194.793 80.2039,-194.113"/>
<polygon fill="midnightblue" stroke="midnightblue" points="1389.41,-303.677 1399.48,-300.371 1389.55,-296.678 1389.41,-303.677"/>
</g>
<!-- Node21 -->
<g id="node46" class="node"><title>Node21</title>
<a xlink:href="MojDbKind_8cpp.htm" target="_top" xlink:title="MojDbKind.cpp">
<polygon fill="white" stroke="black" points="97.3136,-174.5 97.3136,-195.5 184.314,-195.5 184.314,-174.5 97.3136,-174.5"/>
<text text-anchor="middle" x="140.814" y="-182.5" font-family="Helvetica,sans-Serif" font-size="10.00">MojDbKind.cpp</text>
</a>
</g>
<!-- Node1&#45;&gt;Node21 -->
<g id="edge82" class="edge"><title>Node1&#45;&gt;Node21</title>
<path fill="none" stroke="midnightblue" d="M1389.41,-299.123C1223.85,-292.117 656.247,-264.305 192.814,-196 190.075,-195.596 187.264,-195.136 184.435,-194.638"/>
<polygon fill="midnightblue" stroke="midnightblue" points="1389.59,-302.634 1399.73,-299.555 1389.89,-295.64 1389.59,-302.634"/>
</g>
<!-- Node29 -->
<g id="node62" class="node"><title>Node29</title>
<a xlink:href="MojDbReq_8cpp.htm" target="_top" xlink:title="MojDbReq.cpp">
<polygon fill="white" stroke="black" points="2851.81,-174.5 2851.81,-195.5 2937.81,-195.5 2937.81,-174.5 2851.81,-174.5"/>
<text text-anchor="middle" x="2894.81" y="-182.5" font-family="Helvetica,sans-Serif" font-size="10.00">MojDbReq.cpp</text>
</a>
</g>
<!-- Node1&#45;&gt;Node29 -->
<g id="edge86" class="edge"><title>Node1&#45;&gt;Node29</title>
<path fill="none" stroke="midnightblue" d="M1484.04,-299.767C1662.57,-294.62 2312.97,-271.479 2842.81,-196 2845.74,-195.584 2848.74,-195.099 2851.76,-194.571"/>
<polygon fill="midnightblue" stroke="midnightblue" points="1483.84,-296.271 1473.94,-300.053 1484.04,-303.268 1483.84,-296.271"/>
</g>
<!-- Node36 -->
<g id="node78" class="node"><title>Node36</title>
<a xlink:href="MojDbKindState_8cpp.htm" target="_top" xlink:title="MojDbKindState.cpp">
<polygon fill="white" stroke="black" points="2993.81,-232.5 2993.81,-253.5 3105.81,-253.5 3105.81,-232.5 2993.81,-232.5"/>
<text text-anchor="middle" x="3049.81" y="-240.5" font-family="Helvetica,sans-Serif" font-size="10.00">MojDbKindState.cpp</text>
</a>
</g>
<!-- Node1&#45;&gt;Node36 -->
<g id="edge84" class="edge"><title>Node1&#45;&gt;Node36</title>
<path fill="none" stroke="midnightblue" d="M1483.98,-300.362C1709.45,-297.188 2678.72,-282.131 2979.81,-254 2984.35,-253.577 2989.03,-253.046 2993.73,-252.447"/>
<polygon fill="midnightblue" stroke="midnightblue" points="1483.77,-296.864 1473.82,-300.504 1483.86,-303.864 1483.77,-296.864"/>
</g>
<!-- Node3 -->
<g id="node5" class="node"><title>Node3</title>
<a xlink:href="MojDbClient_8h.htm" target="_top" xlink:title="MojDbClient.h">
<polygon fill="white" stroke="black" points="2751.81,-174.5 2751.81,-195.5 2833.81,-195.5 2833.81,-174.5 2751.81,-174.5"/>
<text text-anchor="middle" x="2792.81" y="-182.5" font-family="Helvetica,sans-Serif" font-size="10.00">MojDbClient.h</text>
</a>
</g>
<!-- Node2&#45;&gt;Node3 -->
<g id="edge4" class="edge"><title>Node2&#45;&gt;Node3</title>
<path fill="none" stroke="midnightblue" d="M1474.74,-242.56C1661.87,-240.247 2487.94,-228.353 2742.81,-196 2745.72,-195.631 2748.71,-195.174 2751.72,-194.658"/>
<polygon fill="midnightblue" stroke="midnightblue" points="1474.53,-239.062 1464.58,-242.684 1474.62,-246.061 1474.53,-239.062"/>
</g>
<!-- Node7 -->
<g id="node13" class="node"><title>Node7</title>
<a xlink:href="MojDbServiceHandlerBase_8h.htm" target="_top" xlink:title="MojDbServiceHandlerBase.h">
<polygon fill="white" stroke="black" points="1105.81,-174.5 1105.81,-195.5 1257.81,-195.5 1257.81,-174.5 1105.81,-174.5"/>
<text text-anchor="middle" x="1181.81" y="-182.5" font-family="Helvetica,sans-Serif" font-size="10.00">MojDbServiceHandlerBase.h</text>
</a>
</g>
<!-- Node2&#45;&gt;Node7 -->
<g id="edge12" class="edge"><title>Node2&#45;&gt;Node7</title>
<path fill="none" stroke="midnightblue" d="M1399.28,-234.462C1353.79,-224.116 1277.15,-206.684 1228.06,-195.518"/>
<polygon fill="midnightblue" stroke="midnightblue" points="1398.51,-237.877 1409.04,-236.683 1400.06,-231.052 1398.51,-237.877"/>
</g>
<!-- Node14 -->
<g id="node28" class="node"><title>Node14</title>
<a xlink:href="MojDbServiceHandlerInternal_8h.htm" target="_top" xlink:title="MojDbServiceHandlerInternal.h">
<polygon fill="white" stroke="black" points="957.814,-116.5 957.814,-137.5 1121.81,-137.5 1121.81,-116.5 957.814,-116.5"/>
<text text-anchor="middle" x="1039.81" y="-124.5" font-family="Helvetica,sans-Serif" font-size="10.00">MojDbServiceHandlerInternal.h</text>
</a>
</g>
<!-- Node2&#45;&gt;Node14 -->
<g id="edge38" class="edge"><title>Node2&#45;&gt;Node14</title>
<path fill="none" stroke="midnightblue" d="M1398.83,-241.202C1321.33,-236.981 1148.01,-224.558 1096.81,-196 1072.12,-182.223 1053.73,-153.16 1045.16,-137.51"/>
<polygon fill="midnightblue" stroke="midnightblue" points="1398.93,-244.712 1409.1,-241.744 1399.3,-237.722 1398.93,-244.712"/>
</g>
<!-- Node2&#45;&gt;Node16 -->
<g id="edge40" class="edge"><title>Node2&#45;&gt;Node16</title>
<path fill="none" stroke="midnightblue" d="M1399.17,-242.812C1208.9,-241.691 351.883,-234.55 88.8136,-196 85.9795,-195.585 83.0615,-195.05 80.1467,-194.441"/>
<polygon fill="midnightblue" stroke="midnightblue" points="1399.22,-246.312 1409.24,-242.869 1399.26,-239.312 1399.22,-246.312"/>
</g>
<!-- Node17 -->
<g id="node38" class="node"><title>Node17</title>
<a xlink:href="MojDbAdmin_8cpp.htm" target="_top" xlink:title="MojDbAdmin.cpp">
<polygon fill="white" stroke="black" points="1275.31,-174.5 1275.31,-195.5 1370.31,-195.5 1370.31,-174.5 1275.31,-174.5"/>
<text text-anchor="middle" x="1322.81" y="-182.5" font-family="Helvetica,sans-Serif" font-size="10.00">MojDbAdmin.cpp</text>
</a>
</g>
<!-- Node2&#45;&gt;Node17 -->
<g id="edge42" class="edge"><title>Node2&#45;&gt;Node17</title>
<path fill="none" stroke="midnightblue" d="M1407.2,-227.932C1387.27,-217.793 1361.48,-204.675 1343.69,-195.621"/>
<polygon fill="midnightblue" stroke="midnightblue" points="1405.67,-231.081 1416.17,-232.497 1408.84,-224.843 1405.67,-231.081"/>
</g>
<!-- Node18 -->
<g id="node40" class="node"><title>Node18</title>
<a xlink:href="MojDbCursor_8cpp.htm" target="_top" xlink:title="MojDbCursor.cpp">
<polygon fill="white" stroke="black" points="1387.81,-174.5 1387.81,-195.5 1485.81,-195.5 1485.81,-174.5 1387.81,-174.5"/>
<text text-anchor="middle" x="1436.81" y="-182.5" font-family="Helvetica,sans-Serif" font-size="10.00">MojDbCursor.cpp</text>
</a>
</g>
<!-- Node2&#45;&gt;Node18 -->
<g id="edge44" class="edge"><title>Node2&#45;&gt;Node18</title>
<path fill="none" stroke="midnightblue" d="M1436.81,-222.191C1436.81,-213.168 1436.81,-202.994 1436.81,-195.571"/>
<polygon fill="midnightblue" stroke="midnightblue" points="1433.31,-222.362 1436.81,-232.362 1440.31,-222.362 1433.31,-222.362"/>
</g>
<!-- Node19 -->
<g id="node42" class="node"><title>Node19</title>
<a xlink:href="MojDbIndex_8cpp.htm" target="_top" xlink:title="MojDbIndex.cpp">
<polygon fill="white" stroke="black" points="1503.81,-174.5 1503.81,-195.5 1595.81,-195.5 1595.81,-174.5 1503.81,-174.5"/>
<text text-anchor="middle" x="1549.81" y="-182.5" font-family="Helvetica,sans-Serif" font-size="10.00">MojDbIndex.cpp</text>
</a>
</g>
<!-- Node2&#45;&gt;Node19 -->
<g id="edge46" class="edge"><title>Node2&#45;&gt;Node19</title>
<path fill="none" stroke="midnightblue" d="M1466.44,-227.794C1486.15,-217.675 1511.56,-204.634 1529.12,-195.621"/>
<polygon fill="midnightblue" stroke="midnightblue" points="1464.58,-224.816 1457.28,-232.497 1467.77,-231.044 1464.58,-224.816"/>
</g>
<!-- Node20 -->
<g id="node44" class="node"><title>Node20</title>
<a xlink:href="MojDbIsamQuery_8cpp.htm" target="_top" xlink:title="MojDbIsamQuery.cpp">
<polygon fill="white" stroke="black" points="1613.31,-174.5 1613.31,-195.5 1730.31,-195.5 1730.31,-174.5 1613.31,-174.5"/>
<text text-anchor="middle" x="1671.81" y="-182.5" font-family="Helvetica,sans-Serif" font-size="10.00">MojDbIsamQuery.cpp</text>
</a>
</g>
<!-- Node2&#45;&gt;Node20 -->
<g id="edge48" class="edge"><title>Node2&#45;&gt;Node20</title>
<path fill="none" stroke="midnightblue" d="M1474.56,-233.684C1516.68,-223.288 1584.71,-206.498 1628.84,-195.605"/>
<polygon fill="midnightblue" stroke="midnightblue" points="1473.56,-230.325 1464.69,-236.119 1475.24,-237.121 1473.56,-230.325"/>
</g>
<!-- Node2&#45;&gt;Node21 -->
<g id="edge50" class="edge"><title>Node2&#45;&gt;Node21</title>
<path fill="none" stroke="midnightblue" d="M1398.96,-242.441C1217.43,-239.629 434.923,-225.959 192.814,-196 190.066,-195.66 187.249,-195.249 184.415,-194.787"/>
<polygon fill="midnightblue" stroke="midnightblue" points="1399.03,-245.943 1409.08,-242.597 1399.14,-238.944 1399.03,-245.943"/>
</g>
<!-- Node22 -->
<g id="node48" class="node"><title>Node22</title>
<a xlink:href="MojDbKindEngine_8cpp.htm" target="_top" xlink:title="MojDbKindEngine.cpp">
<polygon fill="white" stroke="black" points="1747.81,-174.5 1747.81,-195.5 1867.81,-195.5 1867.81,-174.5 1747.81,-174.5"/>
<text text-anchor="middle" x="1807.81" y="-182.5" font-family="Helvetica,sans-Serif" font-size="10.00">MojDbKindEngine.cpp</text>
</a>
</g>
<!-- Node2&#45;&gt;Node22 -->
<g id="edge52" class="edge"><title>Node2&#45;&gt;Node22</title>
<path fill="none" stroke="midnightblue" d="M1474.75,-237.142C1531.98,-228.294 1643.83,-210.963 1738.81,-196 1741.69,-195.547 1744.63,-195.082 1747.6,-194.612"/>
<polygon fill="midnightblue" stroke="midnightblue" points="1474.06,-233.707 1464.72,-238.693 1475.13,-240.624 1474.06,-233.707"/>
</g>
<!-- Node23 -->
<g id="node50" class="node"><title>Node23</title>
<a xlink:href="MojDbObjectHeader_8cpp.htm" target="_top" xlink:title="MojDbObjectHeader.cpp">
<polygon fill="white" stroke="black" points="1885.31,-174.5 1885.31,-195.5 2016.31,-195.5 2016.31,-174.5 1885.31,-174.5"/>
<text text-anchor="middle" x="1950.81" y="-182.5" font-family="Helvetica,sans-Serif" font-size="10.00">MojDbObjectHeader.cpp</text>
</a>
</g>
<!-- Node2&#45;&gt;Node23 -->
<g id="edge54" class="edge"><title>Node2&#45;&gt;Node23</title>
<path fill="none" stroke="midnightblue" d="M1474.46,-239.506C1550.57,-232.325 1728.16,-214.98 1876.81,-196 1879.52,-195.655 1882.28,-195.292 1885.07,-194.917"/>
<polygon fill="midnightblue" stroke="midnightblue" points="1474.03,-236.03 1464.4,-240.451 1474.69,-243 1474.03,-236.03"/>
</g>
<!-- Node24 -->
<g id="node52" class="node"><title>Node24</title>
<a xlink:href="MojDbObjectItem_8cpp.htm" target="_top" xlink:title="MojDbObjectItem.cpp">
<polygon fill="white" stroke="black" points="2033.81,-174.5 2033.81,-195.5 2149.81,-195.5 2149.81,-174.5 2033.81,-174.5"/>
<text text-anchor="middle" x="2091.81" y="-182.5" font-family="Helvetica,sans-Serif" font-size="10.00">MojDbObjectItem.cpp</text>
</a>
</g>
<!-- Node2&#45;&gt;Node24 -->
<g id="edge56" class="edge"><title>Node2&#45;&gt;Node24</title>
<path fill="none" stroke="midnightblue" d="M1474.55,-241.072C1568.03,-236.06 1817.79,-221.225 2024.81,-196 2027.74,-195.644 2030.73,-195.252 2033.75,-194.835"/>
<polygon fill="midnightblue" stroke="midnightblue" points="1474.25,-237.583 1464.45,-241.608 1474.62,-244.573 1474.25,-237.583"/>
</g>
<!-- Node25 -->
<g id="node54" class="node"><title>Node25</title>
<a xlink:href="MojDbPermissionEngine_8cpp.htm" target="_top" xlink:title="MojDbPermissionEngine.cpp">
<polygon fill="white" stroke="black" points="2167.31,-174.5 2167.31,-195.5 2318.31,-195.5 2318.31,-174.5 2167.31,-174.5"/>
<text text-anchor="middle" x="2242.81" y="-182.5" font-family="Helvetica,sans-Serif" font-size="10.00">MojDbPermissionEngine.cpp</text>
</a>
</g>
<!-- Node2&#45;&gt;Node25 -->
<g id="edge58" class="edge"><title>Node2&#45;&gt;Node25</title>
<path fill="none" stroke="midnightblue" d="M1474.41,-241.419C1581.53,-236.726 1897.48,-221.589 2158.81,-196 2161.59,-195.728 2164.43,-195.435 2167.28,-195.127"/>
<polygon fill="midnightblue" stroke="midnightblue" points="1474.25,-237.922 1464.41,-241.853 1474.55,-244.916 1474.25,-237.922"/>
</g>
<!-- Node26 -->
<g id="node56" class="node"><title>Node26</title>
<a xlink:href="MojDbPutHandler_8cpp.htm" target="_top" xlink:title="MojDbPutHandler.cpp">
<polygon fill="white" stroke="black" points="2335.31,-174.5 2335.31,-195.5 2454.31,-195.5 2454.31,-174.5 2335.31,-174.5"/>
<text text-anchor="middle" x="2394.81" y="-182.5" font-family="Helvetica,sans-Serif" font-size="10.00">MojDbPutHandler.cpp</text>
</a>
</g>
<!-- Node2&#45;&gt;Node26 -->
<g id="edge60" class="edge"><title>Node2&#45;&gt;Node26</title>
<path fill="none" stroke="midnightblue" d="M1474.63,-242.457C1597.72,-240.38 1997.93,-231.182 2326.81,-196 2329.55,-195.707 2332.34,-195.379 2335.16,-195.023"/>
<polygon fill="midnightblue" stroke="midnightblue" points="1474.53,-238.958 1464.58,-242.621 1474.64,-245.957 1474.53,-238.958"/>
</g>
<!-- Node27 -->
<g id="node58" class="node"><title>Node27</title>
<a xlink:href="MojDbQueryPlan_8cpp.htm" target="_top" xlink:title="MojDbQueryPlan.cpp">
<polygon fill="white" stroke="black" points="2471.81,-174.5 2471.81,-195.5 2587.81,-195.5 2587.81,-174.5 2471.81,-174.5"/>
<text text-anchor="middle" x="2529.81" y="-182.5" font-family="Helvetica,sans-Serif" font-size="10.00">MojDbQueryPlan.cpp</text>
</a>
</g>
<!-- Node2&#45;&gt;Node27 -->
<g id="edge62" class="edge"><title>Node2&#45;&gt;Node27</title>
<path fill="none" stroke="midnightblue" d="M1475.03,-241.849C1636.75,-236.887 2265.62,-216.633 2462.81,-196 2465.74,-195.693 2468.74,-195.342 2471.76,-194.957"/>
<polygon fill="midnightblue" stroke="midnightblue" points="1474.52,-238.363 1464.63,-242.167 1474.73,-245.36 1474.52,-238.363"/>
</g>
<!-- Node28 -->
<g id="node60" class="node"><title>Node28</title>
<a xlink:href="MojDbQuotaEngine_8cpp.htm" target="_top" xlink:title="MojDbQuotaEngine.cpp">
<polygon fill="white" stroke="black" points="2605.81,-174.5 2605.81,-195.5 2733.81,-195.5 2733.81,-174.5 2605.81,-174.5"/>
<text text-anchor="middle" x="2669.81" y="-182.5" font-family="Helvetica,sans-Serif" font-size="10.00">MojDbQuotaEngine.cpp</text>
</a>
</g>
<!-- Node2&#45;&gt;Node28 -->
<g id="edge64" class="edge"><title>Node2&#45;&gt;Node28</title>
<path fill="none" stroke="midnightblue" d="M1474.55,-242.026C1648.19,-237.459 2371.42,-217.483 2596.81,-196 2599.75,-195.72 2602.74,-195.402 2605.77,-195.054"/>
<polygon fill="midnightblue" stroke="midnightblue" points="1474.28,-238.532 1464.38,-242.292 1474.47,-245.529 1474.28,-238.532"/>
</g>
<!-- Node2&#45;&gt;Node29 -->
<g id="edge66" class="edge"><title>Node2&#45;&gt;Node29</title>
<path fill="none" stroke="midnightblue" d="M1474.48,-242.633C1669.57,-240.599 2566.8,-229.545 2842.81,-196 2845.74,-195.644 2848.76,-195.205 2851.78,-194.709"/>
<polygon fill="midnightblue" stroke="midnightblue" points="1474.39,-239.134 1464.43,-242.737 1474.47,-246.134 1474.39,-239.134"/>
</g>
<!-- Node30 -->
<g id="node64" class="node"><title>Node30</title>
<a xlink:href="MojDbRevisionSet_8cpp.htm" target="_top" xlink:title="MojDbRevisionSet.cpp">
<polygon fill="white" stroke="black" points="201.814,-174.5 201.814,-195.5 323.814,-195.5 323.814,-174.5 201.814,-174.5"/>
<text text-anchor="middle" x="262.814" y="-182.5" font-family="Helvetica,sans-Serif" font-size="10.00">MojDbRevisionSet.cpp</text>
</a>
</g>
<!-- Node2&#45;&gt;Node30 -->
<g id="edge68" class="edge"><title>Node2&#45;&gt;Node30</title>
<path fill="none" stroke="midnightblue" d="M1398.73,-241.959C1229.7,-237.251 546.334,-217.253 332.814,-196 329.876,-195.708 326.873,-195.373 323.845,-195.008"/>
<polygon fill="midnightblue" stroke="midnightblue" points="1398.79,-245.462 1408.88,-242.241 1398.98,-238.465 1398.79,-245.462"/>
</g>
<!-- Node31 -->
<g id="node66" class="node"><title>Node31</title>
<a xlink:href="MojDbSearchCursor_8cpp.htm" target="_top" xlink:title="MojDbSearchCursor.cpp">
<polygon fill="white" stroke="black" points="341.314,-174.5 341.314,-195.5 472.314,-195.5 472.314,-174.5 341.314,-174.5"/>
<text text-anchor="middle" x="406.814" y="-182.5" font-family="Helvetica,sans-Serif" font-size="10.00">MojDbSearchCursor.cpp</text>
</a>
</g>
<!-- Node2&#45;&gt;Node31 -->
<g id="edge70" class="edge"><title>Node2&#45;&gt;Node31</title>
<path fill="none" stroke="midnightblue" d="M1398.82,-242.475C1269.81,-240.405 836.69,-231.112 480.814,-196 478.099,-195.732 475.332,-195.434 472.539,-195.113"/>
<polygon fill="midnightblue" stroke="midnightblue" points="1398.92,-245.977 1408.98,-242.633 1399.03,-238.977 1398.92,-245.977"/>
</g>
<!-- Node32 -->
<g id="node68" class="node"><title>Node32</title>
<a xlink:href="MojDbWatcher_8cpp.htm" target="_top" xlink:title="MojDbWatcher.cpp">
<polygon fill="white" stroke="black" points="489.814,-174.5 489.814,-195.5 595.814,-195.5 595.814,-174.5 489.814,-174.5"/>
<text text-anchor="middle" x="542.814" y="-182.5" font-family="Helvetica,sans-Serif" font-size="10.00">MojDbWatcher.cpp</text>
</a>
</g>
<!-- Node2&#45;&gt;Node32 -->
<g id="edge72" class="edge"><title>Node2&#45;&gt;Node32</title>
<path fill="none" stroke="midnightblue" d="M1398.74,-242.462C1280.56,-240.447 909.646,-231.523 604.814,-196 601.882,-195.658 598.879,-195.266 595.852,-194.839"/>
<polygon fill="midnightblue" stroke="midnightblue" points="1399,-245.967 1409.06,-242.631 1399.12,-238.968 1399,-245.967"/>
</g>
<!-- Node33 -->
<g id="node70" class="node"><title>Node33</title>
<a xlink:href="MojDbLevelDatabase_8cpp.htm" target="_top" xlink:title="MojDbLevelDatabase.cpp">
<polygon fill="white" stroke="black" points="613.314,-174.5 613.314,-195.5 750.314,-195.5 750.314,-174.5 613.314,-174.5"/>
<text text-anchor="middle" x="681.814" y="-182.5" font-family="Helvetica,sans-Serif" font-size="10.00">MojDbLevelDatabase.cpp</text>
</a>
</g>
<!-- Node2&#45;&gt;Node33 -->
<g id="edge74" class="edge"><title>Node2&#45;&gt;Node33</title>
<path fill="none" stroke="midnightblue" d="M1399.11,-241.35C1296.25,-236.639 1002.18,-221.784 758.814,-196 756.128,-195.715 753.392,-195.408 750.63,-195.084"/>
<polygon fill="midnightblue" stroke="midnightblue" points="1399.15,-244.855 1409.3,-241.812 1399.47,-237.862 1399.15,-244.855"/>
</g>
<!-- Node34 -->
<g id="node72" class="node"><title>Node34</title>
<a xlink:href="MojDbLevelEngine_8cpp.htm" target="_top" xlink:title="MojDbLevelEngine.cpp">
<polygon fill="white" stroke="black" points="767.314,-174.5 767.314,-195.5 892.314,-195.5 892.314,-174.5 767.314,-174.5"/>
<text text-anchor="middle" x="829.814" y="-182.5" font-family="Helvetica,sans-Serif" font-size="10.00">MojDbLevelEngine.cpp</text>
</a>
</g>
<!-- Node2&#45;&gt;Node34 -->
<g id="edge76" class="edge"><title>Node2&#45;&gt;Node34</title>
<path fill="none" stroke="midnightblue" d="M1399.13,-240.558C1311.5,-234.691 1087.28,-218.595 900.814,-196 898.089,-195.67 895.309,-195.315 892.502,-194.943"/>
<polygon fill="midnightblue" stroke="midnightblue" points="1398.92,-244.052 1409.13,-241.223 1399.38,-237.067 1398.92,-244.052"/>
</g>
<!-- Node35 -->
<g id="node74" class="node"><title>Node35</title>
<a xlink:href="MojDbBerkeleyEngine_8cpp.htm" target="_top" xlink:title="MojDbBerkeleyEngine.cpp">
<polygon fill="white" stroke="black" points="909.814,-174.5 909.814,-195.5 1049.81,-195.5 1049.81,-174.5 909.814,-174.5"/>
<text text-anchor="middle" x="979.814" y="-182.5" font-family="Helvetica,sans-Serif" font-size="10.00">MojDbBerkeleyEngine.cpp</text>
</a>
</g>
<!-- Node2&#45;&gt;Node35 -->
<g id="edge78" class="edge"><title>Node2&#45;&gt;Node35</title>
<path fill="none" stroke="midnightblue" d="M1399.08,-238.306C1331.73,-229.917 1186.41,-211.75 1063.81,-196 1059.29,-195.419 1054.63,-194.817 1049.94,-194.209"/>
<polygon fill="midnightblue" stroke="midnightblue" points="1398.84,-241.805 1409.2,-239.567 1399.71,-234.858 1398.84,-241.805"/>
</g>
<!-- Node4 -->
<g id="node7" class="node"><title>Node4</title>
<a xlink:href="MojDbServiceClient_8h.htm" target="_top" xlink:title="MojDbServiceClient.h">
<polygon fill="white" stroke="black" points="2777.31,-116.5 2777.31,-137.5 2894.31,-137.5 2894.31,-116.5 2777.31,-116.5"/>
<text text-anchor="middle" x="2835.81" y="-124.5" font-family="Helvetica,sans-Serif" font-size="10.00">MojDbServiceClient.h</text>
</a>
</g>
<!-- Node3&#45;&gt;Node4 -->
<g id="edge6" class="edge"><title>Node3&#45;&gt;Node4</title>
<path fill="none" stroke="midnightblue" d="M2806.71,-166.25C2813.76,-156.75 2822.05,-145.565 2827.98,-137.571"/>
<polygon fill="midnightblue" stroke="midnightblue" points="2803.84,-164.244 2800.7,-174.362 2809.47,-168.413 2803.84,-164.244"/>
</g>
<!-- Node6 -->
<g id="node11" class="node"><title>Node6</title>
<a xlink:href="MojDbClient_8cpp.htm" target="_top" xlink:title="MojDbClient.cpp">
<polygon fill="white" stroke="black" points="2667.31,-116.5 2667.31,-137.5 2760.31,-137.5 2760.31,-116.5 2667.31,-116.5"/>
<text text-anchor="middle" x="2713.81" y="-124.5" font-family="Helvetica,sans-Serif" font-size="10.00">MojDbClient.cpp</text>
</a>
</g>
<!-- Node3&#45;&gt;Node6 -->
<g id="edge10" class="edge"><title>Node3&#45;&gt;Node6</title>
<path fill="none" stroke="midnightblue" d="M2770.01,-168.259C2756.53,-158.364 2739.88,-146.136 2728.21,-137.571"/>
<polygon fill="midnightblue" stroke="midnightblue" points="2768.19,-171.265 2778.32,-174.362 2772.33,-165.623 2768.19,-171.265"/>
</g>
<!-- Node5 -->
<g id="node9" class="node"><title>Node5</title>
<a xlink:href="MojDbServiceClient_8cpp.htm" target="_top" xlink:title="MojDbServiceClient.cpp">
<polygon fill="white" stroke="black" points="2771.81,-58.5 2771.81,-79.5 2899.81,-79.5 2899.81,-58.5 2771.81,-58.5"/>
<text text-anchor="middle" x="2835.81" y="-66.5" font-family="Helvetica,sans-Serif" font-size="10.00">MojDbServiceClient.cpp</text>
</a>
</g>
<!-- Node4&#45;&gt;Node5 -->
<g id="edge8" class="edge"><title>Node4&#45;&gt;Node5</title>
<path fill="none" stroke="midnightblue" d="M2835.81,-106.191C2835.81,-97.1684 2835.81,-86.9941 2835.81,-79.5707"/>
<polygon fill="midnightblue" stroke="midnightblue" points="2832.31,-106.362 2835.81,-116.362 2839.31,-106.362 2832.31,-106.362"/>
</g>
<!-- Node8 -->
<g id="node15" class="node"><title>Node8</title>
<a xlink:href="MojDbServiceHandler_8h.htm" target="_top" xlink:title="MojDbServiceHandler.h">
<polygon fill="white" stroke="black" points="1319.81,-116.5 1319.81,-137.5 1447.81,-137.5 1447.81,-116.5 1319.81,-116.5"/>
<text text-anchor="middle" x="1383.81" y="-124.5" font-family="Helvetica,sans-Serif" font-size="10.00">MojDbServiceHandler.h</text>
</a>
</g>
<!-- Node7&#45;&gt;Node8 -->
<g id="edge14" class="edge"><title>Node7&#45;&gt;Node8</title>
<path fill="none" stroke="midnightblue" d="M1228.21,-171.68C1264.33,-161.307 1313.78,-147.108 1347.16,-137.523"/>
<polygon fill="midnightblue" stroke="midnightblue" points="1227.04,-168.373 1218.39,-174.497 1228.97,-175.101 1227.04,-168.373"/>
</g>
<!-- Node7&#45;&gt;Node14 -->
<g id="edge28" class="edge"><title>Node7&#45;&gt;Node14</title>
<path fill="none" stroke="midnightblue" d="M1146.6,-170.615C1121.56,-160.389 1088.48,-146.88 1065.82,-137.621"/>
<polygon fill="midnightblue" stroke="midnightblue" points="1145.52,-173.955 1156.1,-174.497 1148.16,-167.475 1145.52,-173.955"/>
</g>
<!-- Node15 -->
<g id="node33" class="node"><title>Node15</title>
<a xlink:href="MojDbServiceHandlerBase_8cpp.htm" target="_top" xlink:title="MojDbServiceHandlerBase.cpp">
<polygon fill="white" stroke="black" points="1139.31,-116.5 1139.31,-137.5 1302.31,-137.5 1302.31,-116.5 1139.31,-116.5"/>
<text text-anchor="middle" x="1220.81" y="-124.5" font-family="Helvetica,sans-Serif" font-size="10.00">MojDbServiceHandlerBase.cpp</text>
</a>
</g>
<!-- Node7&#45;&gt;Node15 -->
<g id="edge36" class="edge"><title>Node7&#45;&gt;Node15</title>
<path fill="none" stroke="midnightblue" d="M1194.62,-165.959C1200.96,-156.522 1208.38,-145.484 1213.71,-137.571"/>
<polygon fill="midnightblue" stroke="midnightblue" points="1191.64,-164.11 1188.97,-174.362 1197.45,-168.016 1191.64,-164.11"/>
</g>
<!-- Node8&#45;&gt;Node9 -->
<g id="edge16" class="edge"><title>Node8&#45;&gt;Node9</title>
<path fill="none" stroke="midnightblue" d="M1309.59,-115.839C1191.92,-99.0081 1160.9,-95.8235 1046.81,-80 1044.1,-79.6243 1041.34,-79.2401 1038.55,-78.8511"/>
<polygon fill="midnightblue" stroke="midnightblue" points="1309.33,-119.337 1319.73,-117.291 1310.32,-112.408 1309.33,-119.337"/>
</g>
<!-- Node8&#45;&gt;Node10 -->
<g id="edge18" class="edge"><title>Node8&#45;&gt;Node10</title>
<path fill="none" stroke="midnightblue" d="M1404.65,-109.975C1416.7,-100.132 1431.49,-88.0545 1441.87,-79.5707"/>
<polygon fill="midnightblue" stroke="midnightblue" points="1402.37,-107.325 1396.84,-116.362 1406.79,-112.746 1402.37,-107.325"/>
</g>
<!-- Node11 -->
<g id="node21" class="node"><title>Node11</title>
<a xlink:href="MojDbServiceSchemas_8cpp.htm" target="_top" xlink:title="MojDbServiceSchemas.cpp">
<polygon fill="white" stroke="black" points="1205.31,-58.5 1205.31,-79.5 1350.31,-79.5 1350.31,-58.5 1205.31,-58.5"/>
<text text-anchor="middle" x="1277.81" y="-66.5" font-family="Helvetica,sans-Serif" font-size="10.00">MojDbServiceSchemas.cpp</text>
</a>
</g>
<!-- Node8&#45;&gt;Node11 -->
<g id="edge20" class="edge"><title>Node8&#45;&gt;Node11</title>
<path fill="none" stroke="midnightblue" d="M1355.52,-111.517C1337.06,-101.419 1313.46,-88.5032 1297.13,-79.5707"/>
<polygon fill="midnightblue" stroke="midnightblue" points="1353.92,-114.632 1364.37,-116.362 1357.28,-108.491 1353.92,-114.632"/>
</g>
<!-- Node12 -->
<g id="node23" class="node"><title>Node12</title>
<a xlink:href="MojDbLunaServiceApp_8h.htm" target="_top" xlink:title="MojDbLunaServiceApp.h">
<polygon fill="white" stroke="black" points="1055.81,-58.5 1055.81,-79.5 1187.81,-79.5 1187.81,-58.5 1055.81,-58.5"/>
<text text-anchor="middle" x="1121.81" y="-66.5" font-family="Helvetica,sans-Serif" font-size="10.00">MojDbLunaServiceApp.h</text>
</a>
</g>
<!-- Node8&#45;&gt;Node12 -->
<g id="edge22" class="edge"><title>Node8&#45;&gt;Node12</title>
<path fill="none" stroke="midnightblue" d="M1326.33,-114.274C1279.26,-103.855 1213.48,-89.2921 1169.35,-79.5231"/>
<polygon fill="midnightblue" stroke="midnightblue" points="1325.85,-117.752 1336.37,-116.497 1327.36,-110.918 1325.85,-117.752"/>
</g>
<!-- Node13 -->
<g id="node25" class="node"><title>Node13</title>
<a xlink:href="MojDbLunaServiceApp_8cpp.htm" target="_top" xlink:title="MojDbLunaServiceApp.cpp">
<polygon fill="white" stroke="black" points="1274.31,-0.5 1274.31,-21.5 1417.31,-21.5 1417.31,-0.5 1274.31,-0.5"/>
<text text-anchor="middle" x="1345.81" y="-8.5" font-family="Helvetica,sans-Serif" font-size="10.00">MojDbLunaServiceApp.cpp</text>
</a>
</g>
<!-- Node8&#45;&gt;Node13 -->
<g id="edge26" class="edge"><title>Node8&#45;&gt;Node13</title>
<path fill="none" stroke="midnightblue" d="M1458.15,-120.646C1515.58,-112.761 1580.64,-95.4388 1550.81,-58 1534.18,-37.1165 1469.64,-24.7546 1417.37,-17.9935"/>
<polygon fill="midnightblue" stroke="midnightblue" points="1457.38,-117.216 1447.91,-121.967 1458.28,-124.159 1457.38,-117.216"/>
</g>
<!-- Node12&#45;&gt;Node13 -->
<g id="edge24" class="edge"><title>Node12&#45;&gt;Node13</title>
<path fill="none" stroke="midnightblue" d="M1172.23,-55.9447C1212.38,-45.5501 1267.84,-31.1897 1305.17,-21.5231"/>
<polygon fill="midnightblue" stroke="midnightblue" points="1171.18,-52.6017 1162.38,-58.4966 1172.94,-59.3782 1171.18,-52.6017"/>
</g>
<!-- Node14&#45;&gt;Node9 -->
<g id="edge30" class="edge"><title>Node14&#45;&gt;Node9</title>
<path fill="none" stroke="midnightblue" d="M1018.97,-109.975C1006.92,-100.132 992.139,-88.0545 981.754,-79.5707"/>
<polygon fill="midnightblue" stroke="midnightblue" points="1016.83,-112.746 1026.79,-116.362 1021.26,-107.325 1016.83,-112.746"/>
</g>
<!-- Node14&#45;&gt;Node10 -->
<g id="edge32" class="edge"><title>Node14&#45;&gt;Node10</title>
<path fill="none" stroke="midnightblue" d="M1125.3,-115.052C1200.16,-104.591 1307.86,-89.5378 1379.52,-79.5231"/>
<polygon fill="midnightblue" stroke="midnightblue" points="1124.39,-111.646 1114.97,-116.497 1125.36,-118.579 1124.39,-111.646"/>
</g>
<!-- Node14&#45;&gt;Node12 -->
<g id="edge34" class="edge"><title>Node14&#45;&gt;Node12</title>
<path fill="none" stroke="midnightblue" d="M1063.08,-110.541C1077.14,-100.597 1094.64,-88.2177 1106.87,-79.5707"/>
<polygon fill="midnightblue" stroke="midnightblue" points="1061,-107.73 1054.85,-116.362 1065.04,-113.445 1061,-107.73"/>
</g>
</g>
</svg>
