<?xml version="1.0" encoding="UTF-8" standalone="no"?>
<!DOCTYPE svg PUBLIC "-//W3C//DTD SVG 1.1//EN"
 "http://www.w3.org/Graphics/SVG/1.1/DTD/svg11.dtd">
<!-- Generated by graphviz version 2.26.3 (20100126.1600)
 -->
<!-- Title: MojDbKind.h Pages: 1 -->
<svg width="1000pt" height="88pt"
 viewBox="0.00 0.00 1000.00 88.00" xmlns="http://www.w3.org/2000/svg" xmlns:xlink="http://www.w3.org/1999/xlink">
<g id="graph1" class="graph" transform="scale(1 1) rotate(0) translate(4 84)">
<title>MojDbKind.h</title>
<polygon fill="white" stroke="white" points="-4,5 -4,-84 997,-84 997,5 -4,5"/>
<!-- Node1 -->
<g id="node1" class="node"><title>Node1</title>
<polygon fill="#bfbfbf" stroke="black" points="371,-58.5 371,-79.5 447,-79.5 447,-58.5 371,-58.5"/>
<text text-anchor="middle" x="409" y="-66.5" font-family="Helvetica,sans-Serif" font-size="10.00">MojDbKind.h</text>
</g>
<!-- Node2 -->
<g id="node3" class="node"><title>Node2</title>
<a xlink:href="MojDb_8cpp.htm" target="_top" xlink:title="MojDb.cpp">
<polygon fill="white" stroke="black" points="0,-0.5 0,-21.5 66,-21.5 66,-0.5 0,-0.5"/>
<text text-anchor="middle" x="33" y="-8.5" font-family="Helvetica,sans-Serif" font-size="10.00">MojDb.cpp</text>
</a>
</g>
<!-- Node1&#45;&gt;Node2 -->
<g id="edge2" class="edge"><title>Node1&#45;&gt;Node2</title>
<path fill="none" stroke="midnightblue" d="M360.963,-64.0186C295.808,-56.8578 175.958,-42.2525 75,-22 72.1917,-21.4366 69.2916,-20.7982 66.389,-20.1193"/>
<polygon fill="midnightblue" stroke="midnightblue" points="360.62,-67.5018 370.94,-65.1036 361.377,-60.5428 360.62,-67.5018"/>
</g>
<!-- Node3 -->
<g id="node5" class="node"><title>Node3</title>
<a xlink:href="MojDbAdmin_8cpp.htm" target="_top" xlink:title="MojDbAdmin.cpp">
<polygon fill="white" stroke="black" points="83.5,-0.5 83.5,-21.5 178.5,-21.5 178.5,-0.5 83.5,-0.5"/>
<text text-anchor="middle" x="131" y="-8.5" font-family="Helvetica,sans-Serif" font-size="10.00">MojDbAdmin.cpp</text>
</a>
</g>
<!-- Node1&#45;&gt;Node3 -->
<g id="edge4" class="edge"><title>Node1&#45;&gt;Node3</title>
<path fill="none" stroke="midnightblue" d="M361.135,-59.0137C310.129,-48.3722 229.849,-31.6231 178.849,-20.9829"/>
<polygon fill="midnightblue" stroke="midnightblue" points="360.424,-62.4408 370.928,-61.057 361.854,-55.5883 360.424,-62.4408"/>
</g>
<!-- Node4 -->
<g id="node7" class="node"><title>Node4</title>
<a xlink:href="MojDbIndex_8cpp.htm" target="_top" xlink:title="MojDbIndex.cpp">
<polygon fill="white" stroke="black" points="196,-0.5 196,-21.5 288,-21.5 288,-0.5 196,-0.5"/>
<text text-anchor="middle" x="242" y="-8.5" font-family="Helvetica,sans-Serif" font-size="10.00">MojDbIndex.cpp</text>
</a>
</g>
<!-- Node1&#45;&gt;Node4 -->
<g id="edge6" class="edge"><title>Node1&#45;&gt;Node4</title>
<path fill="none" stroke="midnightblue" d="M369.105,-55.1443C339.387,-44.8229 299.425,-30.9439 272.299,-21.5231"/>
<polygon fill="midnightblue" stroke="midnightblue" points="368.163,-58.522 378.758,-58.4966 370.459,-51.9095 368.163,-58.522"/>
</g>
<!-- Node5 -->
<g id="node9" class="node"><title>Node5</title>
<a xlink:href="MojDbKind_8cpp.htm" target="_top" xlink:title="MojDbKind.cpp">
<polygon fill="white" stroke="black" points="305.5,-0.5 305.5,-21.5 392.5,-21.5 392.5,-0.5 305.5,-0.5"/>
<text text-anchor="middle" x="349" y="-8.5" font-family="Helvetica,sans-Serif" font-size="10.00">MojDbKind.cpp</text>
</a>
</g>
<!-- Node1&#45;&gt;Node5 -->
<g id="edge8" class="edge"><title>Node1&#45;&gt;Node5</title>
<path fill="none" stroke="midnightblue" d="M390.798,-51.405C380.726,-41.6683 368.543,-29.8914 359.935,-21.5707"/>
<polygon fill="midnightblue" stroke="midnightblue" points="388.373,-53.9281 397.995,-58.3619 393.238,-48.8952 388.373,-53.9281"/>
</g>
<!-- Node6 -->
<g id="node11" class="node"><title>Node6</title>
<a xlink:href="MojDbKindEngine_8cpp.htm" target="_top" xlink:title="MojDbKindEngine.cpp">
<polygon fill="white" stroke="black" points="410,-0.5 410,-21.5 530,-21.5 530,-0.5 410,-0.5"/>
<text text-anchor="middle" x="470" y="-8.5" font-family="Helvetica,sans-Serif" font-size="10.00">MojDbKindEngine.cpp</text>
</a>
</g>
<!-- Node1&#45;&gt;Node6 -->
<g id="edge10" class="edge"><title>Node1&#45;&gt;Node6</title>
<path fill="none" stroke="midnightblue" d="M427.505,-51.405C437.745,-41.6683 450.131,-29.8914 458.883,-21.5707"/>
<polygon fill="midnightblue" stroke="midnightblue" points="425.024,-48.9348 420.188,-58.3619 429.847,-54.0077 425.024,-48.9348"/>
</g>
<!-- Node7 -->
<g id="node13" class="node"><title>Node7</title>
<a xlink:href="MojDbPermissionEngine_8cpp.htm" target="_top" xlink:title="MojDbPermissionEngine.cpp">
<polygon fill="white" stroke="black" points="547.5,-0.5 547.5,-21.5 698.5,-21.5 698.5,-0.5 547.5,-0.5"/>
<text text-anchor="middle" x="623" y="-8.5" font-family="Helvetica,sans-Serif" font-size="10.00">MojDbPermissionEngine.cpp</text>
</a>
</g>
<!-- Node1&#45;&gt;Node7 -->
<g id="edge12" class="edge"><title>Node1&#45;&gt;Node7</title>
<path fill="none" stroke="midnightblue" d="M457.151,-55.9497C495.439,-45.5727 548.318,-31.2409 583.988,-21.5733"/>
<polygon fill="midnightblue" stroke="midnightblue" points="455.995,-52.6367 447.259,-58.6308 457.826,-59.3929 455.995,-52.6367"/>
</g>
<!-- Node8 -->
<g id="node15" class="node"><title>Node8</title>
<a xlink:href="MojDbQuotaEngine_8cpp.htm" target="_top" xlink:title="MojDbQuotaEngine.cpp">
<polygon fill="white" stroke="black" points="716,-0.5 716,-21.5 844,-21.5 844,-0.5 716,-0.5"/>
<text text-anchor="middle" x="780" y="-8.5" font-family="Helvetica,sans-Serif" font-size="10.00">MojDbQuotaEngine.cpp</text>
</a>
</g>
<!-- Node1&#45;&gt;Node8 -->
<g id="edge14" class="edge"><title>Node1&#45;&gt;Node8</title>
<path fill="none" stroke="midnightblue" d="M457.462,-61.4237C523.651,-51.0761 642.469,-32.5007 715.942,-21.0144"/>
<polygon fill="midnightblue" stroke="midnightblue" points="456.646,-58.0088 447.306,-63.0114 457.727,-64.9248 456.646,-58.0088"/>
</g>
<!-- Node9 -->
<g id="node17" class="node"><title>Node9</title>
<a xlink:href="MojDbSearchCursor_8cpp.htm" target="_top" xlink:title="MojDbSearchCursor.cpp">
<polygon fill="white" stroke="black" points="861.5,-0.5 861.5,-21.5 992.5,-21.5 992.5,-0.5 861.5,-0.5"/>
<text text-anchor="middle" x="927" y="-8.5" font-family="Helvetica,sans-Serif" font-size="10.00">MojDbSearchCursor.cpp</text>
</a>
</g>
<!-- Node1&#45;&gt;Node9 -->
<g id="edge16" class="edge"><title>Node1&#45;&gt;Node9</title>
<path fill="none" stroke="midnightblue" d="M457.037,-64.5837C538.572,-56.9381 709.206,-40.2899 853,-22 855.706,-21.6558 858.466,-21.2941 861.252,-20.92"/>
<polygon fill="midnightblue" stroke="midnightblue" points="456.705,-61.0994 447.074,-65.5147 457.356,-68.069 456.705,-61.0994"/>
</g>
</g>
</svg>
