<?xml version="1.0" encoding="UTF-8" standalone="no"?>
<!DOCTYPE svg PUBLIC "-//W3C//DTD SVG 1.1//EN"
 "http://www.w3.org/Graphics/SVG/1.1/DTD/svg11.dtd">
<!-- Generated by graphviz version 2.26.3 (20100126.1600)
 -->
<!-- Title: MojDbLevelItem.h Pages: 1 -->
<svg width="817pt" height="146pt"
 viewBox="0.00 0.00 817.00 146.00" xmlns="http://www.w3.org/2000/svg" xmlns:xlink="http://www.w3.org/1999/xlink">
<g id="graph1" class="graph" transform="scale(1 1) rotate(0) translate(4 142)">
<title>MojDbLevelItem.h</title>
<polygon fill="white" stroke="white" points="-4,5 -4,-142 814,-142 814,5 -4,5"/>
<!-- Node1 -->
<g id="node1" class="node"><title>Node1</title>
<polygon fill="#bfbfbf" stroke="black" points="503.5,-116.5 503.5,-137.5 604.5,-137.5 604.5,-116.5 503.5,-116.5"/>
<text text-anchor="middle" x="554" y="-124.5" font-family="Helvetica,sans-Serif" font-size="10.00">MojDbLevelItem.h</text>
</g>
<!-- Node2 -->
<g id="node3" class="node"><title>Node2</title>
<a xlink:href="MojDbLevelQuery_8h.htm" target="_top" xlink:title="MojDbLevelQuery.h">
<polygon fill="white" stroke="black" points="295.5,-58.5 295.5,-79.5 404.5,-79.5 404.5,-58.5 295.5,-58.5"/>
<text text-anchor="middle" x="350" y="-66.5" font-family="Helvetica,sans-Serif" font-size="10.00">MojDbLevelQuery.h</text>
</a>
</g>
<!-- Node1&#45;&gt;Node2 -->
<g id="edge2" class="edge"><title>Node1&#45;&gt;Node2</title>
<path fill="none" stroke="midnightblue" d="M507.149,-113.68C470.666,-103.307 420.724,-89.1078 387.012,-79.5231"/>
<polygon fill="midnightblue" stroke="midnightblue" points="506.481,-117.128 517.057,-116.497 508.396,-110.395 506.481,-117.128"/>
</g>
<!-- Node7 -->
<g id="node13" class="node"><title>Node7</title>
<a xlink:href="MojDbLevelSeq_8h.htm" target="_top" xlink:title="MojDbLevelSeq.h">
<polygon fill="white" stroke="black" points="440.5,-58.5 440.5,-79.5 539.5,-79.5 539.5,-58.5 440.5,-58.5"/>
<text text-anchor="middle" x="490" y="-66.5" font-family="Helvetica,sans-Serif" font-size="10.00">MojDbLevelSeq.h</text>
</a>
</g>
<!-- Node1&#45;&gt;Node7 -->
<g id="edge12" class="edge"><title>Node1&#45;&gt;Node7</title>
<path fill="none" stroke="midnightblue" d="M534.585,-109.405C523.841,-99.6683 510.846,-87.8914 501.664,-79.5707"/>
<polygon fill="midnightblue" stroke="midnightblue" points="532.501,-112.24 542.261,-116.362 537.202,-107.053 532.501,-112.24"/>
</g>
<!-- Node9 -->
<g id="node18" class="node"><title>Node9</title>
<a xlink:href="MojDbLevelCursor_8cpp.htm" target="_top" xlink:title="MojDbLevelCursor.cpp">
<polygon fill="white" stroke="black" points="556.5,-58.5 556.5,-79.5 679.5,-79.5 679.5,-58.5 556.5,-58.5"/>
<text text-anchor="middle" x="618" y="-66.5" font-family="Helvetica,sans-Serif" font-size="10.00">MojDbLevelCursor.cpp</text>
</a>
</g>
<!-- Node1&#45;&gt;Node9 -->
<g id="edge18" class="edge"><title>Node1&#45;&gt;Node9</title>
<path fill="none" stroke="midnightblue" d="M573.415,-109.405C584.159,-99.6683 597.154,-87.8914 606.336,-79.5707"/>
<polygon fill="midnightblue" stroke="midnightblue" points="570.798,-107.053 565.739,-116.362 575.499,-112.24 570.798,-107.053"/>
</g>
<!-- Node10 -->
<g id="node20" class="node"><title>Node10</title>
<a xlink:href="MojDbLevelItem_8cpp.htm" target="_top" xlink:title="MojDbLevelItem.cpp">
<polygon fill="white" stroke="black" points="697,-58.5 697,-79.5 809,-79.5 809,-58.5 697,-58.5"/>
<text text-anchor="middle" x="753" y="-66.5" font-family="Helvetica,sans-Serif" font-size="10.00">MojDbLevelItem.cpp</text>
</a>
</g>
<!-- Node1&#45;&gt;Node10 -->
<g id="edge20" class="edge"><title>Node1&#45;&gt;Node10</title>
<path fill="none" stroke="midnightblue" d="M599.703,-113.68C635.291,-103.307 684.01,-89.1078 716.895,-79.5231"/>
<polygon fill="midnightblue" stroke="midnightblue" points="598.659,-110.338 590.037,-116.497 600.617,-117.059 598.659,-110.338"/>
</g>
<!-- Node3 -->
<g id="node5" class="node"><title>Node3</title>
<a xlink:href="MojDbLevelDatabase_8cpp.htm" target="_top" xlink:title="MojDbLevelDatabase.cpp">
<polygon fill="white" stroke="black" points="-0.5,-0.5 -0.5,-21.5 136.5,-21.5 136.5,-0.5 -0.5,-0.5"/>
<text text-anchor="middle" x="68" y="-8.5" font-family="Helvetica,sans-Serif" font-size="10.00">MojDbLevelDatabase.cpp</text>
</a>
</g>
<!-- Node2&#45;&gt;Node3 -->
<g id="edge4" class="edge"><title>Node2&#45;&gt;Node3</title>
<path fill="none" stroke="midnightblue" d="M289.077,-56.4697C238.358,-46.0382 166.96,-31.3535 119.164,-21.5231"/>
<polygon fill="midnightblue" stroke="midnightblue" points="288.432,-59.9102 298.932,-58.4966 289.842,-53.0537 288.432,-59.9102"/>
</g>
<!-- Node4 -->
<g id="node7" class="node"><title>Node4</title>
<a xlink:href="MojDbLevelEngine_8cpp.htm" target="_top" xlink:title="MojDbLevelEngine.cpp">
<polygon fill="white" stroke="black" points="427.5,-0.5 427.5,-21.5 552.5,-21.5 552.5,-0.5 427.5,-0.5"/>
<text text-anchor="middle" x="490" y="-8.5" font-family="Helvetica,sans-Serif" font-size="10.00">MojDbLevelEngine.cpp</text>
</a>
</g>
<!-- Node2&#45;&gt;Node4 -->
<g id="edge6" class="edge"><title>Node2&#45;&gt;Node4</title>
<path fill="none" stroke="midnightblue" d="M384.722,-54.6153C409.406,-44.3889 442.015,-30.8796 464.363,-21.6212"/>
<polygon fill="midnightblue" stroke="midnightblue" points="383.252,-51.4357 375.353,-58.4966 385.931,-57.9027 383.252,-51.4357"/>
</g>
<!-- Node5 -->
<g id="node9" class="node"><title>Node5</title>
<a xlink:href="MojDbLevelIndex_8cpp.htm" target="_top" xlink:title="MojDbLevelIndex.cpp">
<polygon fill="white" stroke="black" points="154,-0.5 154,-21.5 272,-21.5 272,-0.5 154,-0.5"/>
<text text-anchor="middle" x="213" y="-8.5" font-family="Helvetica,sans-Serif" font-size="10.00">MojDbLevelIndex.cpp</text>
</a>
</g>
<!-- Node2&#45;&gt;Node5 -->
<g id="edge8" class="edge"><title>Node2&#45;&gt;Node5</title>
<path fill="none" stroke="midnightblue" d="M315.701,-54.4794C291.585,-44.2695 259.86,-30.8386 238.088,-21.6212"/>
<polygon fill="midnightblue" stroke="midnightblue" points="314.617,-57.821 325.19,-58.4966 317.346,-51.3749 314.617,-57.821"/>
</g>
<!-- Node6 -->
<g id="node11" class="node"><title>Node6</title>
<a xlink:href="MojDbLevelQuery_8cpp.htm" target="_top" xlink:title="MojDbLevelQuery.cpp">
<polygon fill="white" stroke="black" points="290,-0.5 290,-21.5 410,-21.5 410,-0.5 290,-0.5"/>
<text text-anchor="middle" x="350" y="-8.5" font-family="Helvetica,sans-Serif" font-size="10.00">MojDbLevelQuery.cpp</text>
</a>
</g>
<!-- Node2&#45;&gt;Node6 -->
<g id="edge10" class="edge"><title>Node2&#45;&gt;Node6</title>
<path fill="none" stroke="midnightblue" d="M350,-48.1906C350,-39.1684 350,-28.9941 350,-21.5707"/>
<polygon fill="midnightblue" stroke="midnightblue" points="346.5,-48.3619 350,-58.3619 353.5,-48.3619 346.5,-48.3619"/>
</g>
<!-- Node7&#45;&gt;Node4 -->
<g id="edge14" class="edge"><title>Node7&#45;&gt;Node4</title>
<path fill="none" stroke="midnightblue" d="M490,-48.1906C490,-39.1684 490,-28.9941 490,-21.5707"/>
<polygon fill="midnightblue" stroke="midnightblue" points="486.5,-48.3619 490,-58.3619 493.5,-48.3619 486.5,-48.3619"/>
</g>
<!-- Node8 -->
<g id="node16" class="node"><title>Node8</title>
<a xlink:href="MojDbLevelSeq_8cpp.htm" target="_top" xlink:title="MojDbLevelSeq.cpp">
<polygon fill="white" stroke="black" points="570,-0.5 570,-21.5 680,-21.5 680,-0.5 570,-0.5"/>
<text text-anchor="middle" x="625" y="-8.5" font-family="Helvetica,sans-Serif" font-size="10.00">MojDbLevelSeq.cpp</text>
</a>
</g>
<!-- Node7&#45;&gt;Node8 -->
<g id="edge16" class="edge"><title>Node7&#45;&gt;Node8</title>
<path fill="none" stroke="midnightblue" d="M523.798,-54.4794C547.562,-44.2695 578.824,-30.8386 600.278,-21.6212"/>
<polygon fill="midnightblue" stroke="midnightblue" points="522.254,-51.3334 514.447,-58.4966 525.017,-57.7649 522.254,-51.3334"/>
</g>
</g>
</svg>
