<?xml version="1.0" encoding="UTF-8" standalone="no"?>
<!DOCTYPE svg PUBLIC "-//W3C//DTD SVG 1.1//EN"
 "http://www.w3.org/Graphics/SVG/1.1/DTD/svg11.dtd">
<!-- Generated by graphviz version 2.26.3 (20100126.1600)
 -->
<!-- Title: MojDbKindState.h Pages: 1 -->
<svg width="1000pt" height="146pt"
 viewBox="0.00 0.00 1000.00 146.00" xmlns="http://www.w3.org/2000/svg" xmlns:xlink="http://www.w3.org/1999/xlink">
<g id="graph1" class="graph" transform="scale(1 1) rotate(0) translate(4 142)">
<title>MojDbKindState.h</title>
<polygon fill="white" stroke="white" points="-4,5 -4,-142 997,-142 997,5 -4,5"/>
<!-- Node1 -->
<g id="node1" class="node"><title>Node1</title>
<polygon fill="#bfbfbf" stroke="black" points="414.5,-116.5 414.5,-137.5 515.5,-137.5 515.5,-116.5 414.5,-116.5"/>
<text text-anchor="middle" x="465" y="-124.5" font-family="Helvetica,sans-Serif" font-size="10.00">MojDbKindState.h</text>
</g>
<!-- Node2 -->
<g id="node3" class="node"><title>Node2</title>
<a xlink:href="MojDbKind_8h.htm" target="_top" xlink:title="MojDbKind.h">
<polygon fill="white" stroke="black" points="371,-58.5 371,-79.5 447,-79.5 447,-58.5 371,-58.5"/>
<text text-anchor="middle" x="409" y="-66.5" font-family="Helvetica,sans-Serif" font-size="10.00">MojDbKind.h</text>
</a>
</g>
<!-- Node1&#45;&gt;Node2 -->
<g id="edge2" class="edge"><title>Node1&#45;&gt;Node2</title>
<path fill="none" stroke="midnightblue" d="M447.735,-109.118C438.388,-99.4377 427.161,-87.8098 419.206,-79.5707"/>
<polygon fill="midnightblue" stroke="midnightblue" points="445.265,-111.599 454.729,-116.362 450.301,-106.737 445.265,-111.599"/>
</g>
<!-- Node11 -->
<g id="node21" class="node"><title>Node11</title>
<a xlink:href="MojDbKindState_8cpp.htm" target="_top" xlink:title="MojDbKindState.cpp">
<polygon fill="white" stroke="black" points="465,-58.5 465,-79.5 577,-79.5 577,-58.5 465,-58.5"/>
<text text-anchor="middle" x="521" y="-66.5" font-family="Helvetica,sans-Serif" font-size="10.00">MojDbKindState.cpp</text>
</a>
</g>
<!-- Node1&#45;&gt;Node11 -->
<g id="edge20" class="edge"><title>Node1&#45;&gt;Node11</title>
<path fill="none" stroke="midnightblue" d="M482.265,-109.118C491.612,-99.4377 502.839,-87.8098 510.794,-79.5707"/>
<polygon fill="midnightblue" stroke="midnightblue" points="479.699,-106.737 475.271,-116.362 484.735,-111.599 479.699,-106.737"/>
</g>
<!-- Node3 -->
<g id="node5" class="node"><title>Node3</title>
<a xlink:href="MojDb_8cpp.htm" target="_top" xlink:title="MojDb.cpp">
<polygon fill="white" stroke="black" points="0,-0.5 0,-21.5 66,-21.5 66,-0.5 0,-0.5"/>
<text text-anchor="middle" x="33" y="-8.5" font-family="Helvetica,sans-Serif" font-size="10.00">MojDb.cpp</text>
</a>
</g>
<!-- Node2&#45;&gt;Node3 -->
<g id="edge4" class="edge"><title>Node2&#45;&gt;Node3</title>
<path fill="none" stroke="midnightblue" d="M360.963,-64.0186C295.808,-56.8578 175.958,-42.2525 75,-22 72.1917,-21.4366 69.2916,-20.7982 66.389,-20.1193"/>
<polygon fill="midnightblue" stroke="midnightblue" points="360.62,-67.5018 370.94,-65.1036 361.377,-60.5428 360.62,-67.5018"/>
</g>
<!-- Node4 -->
<g id="node7" class="node"><title>Node4</title>
<a xlink:href="MojDbAdmin_8cpp.htm" target="_top" xlink:title="MojDbAdmin.cpp">
<polygon fill="white" stroke="black" points="83.5,-0.5 83.5,-21.5 178.5,-21.5 178.5,-0.5 83.5,-0.5"/>
<text text-anchor="middle" x="131" y="-8.5" font-family="Helvetica,sans-Serif" font-size="10.00">MojDbAdmin.cpp</text>
</a>
</g>
<!-- Node2&#45;&gt;Node4 -->
<g id="edge6" class="edge"><title>Node2&#45;&gt;Node4</title>
<path fill="none" stroke="midnightblue" d="M361.135,-59.0137C310.129,-48.3722 229.849,-31.6231 178.849,-20.9829"/>
<polygon fill="midnightblue" stroke="midnightblue" points="360.424,-62.4408 370.928,-61.057 361.854,-55.5883 360.424,-62.4408"/>
</g>
<!-- Node5 -->
<g id="node9" class="node"><title>Node5</title>
<a xlink:href="MojDbIndex_8cpp.htm" target="_top" xlink:title="MojDbIndex.cpp">
<polygon fill="white" stroke="black" points="196,-0.5 196,-21.5 288,-21.5 288,-0.5 196,-0.5"/>
<text text-anchor="middle" x="242" y="-8.5" font-family="Helvetica,sans-Serif" font-size="10.00">MojDbIndex.cpp</text>
</a>
</g>
<!-- Node2&#45;&gt;Node5 -->
<g id="edge8" class="edge"><title>Node2&#45;&gt;Node5</title>
<path fill="none" stroke="midnightblue" d="M369.105,-55.1443C339.387,-44.8229 299.425,-30.9439 272.299,-21.5231"/>
<polygon fill="midnightblue" stroke="midnightblue" points="368.163,-58.522 378.758,-58.4966 370.459,-51.9095 368.163,-58.522"/>
</g>
<!-- Node6 -->
<g id="node11" class="node"><title>Node6</title>
<a xlink:href="MojDbKind_8cpp.htm" target="_top" xlink:title="MojDbKind.cpp">
<polygon fill="white" stroke="black" points="305.5,-0.5 305.5,-21.5 392.5,-21.5 392.5,-0.5 305.5,-0.5"/>
<text text-anchor="middle" x="349" y="-8.5" font-family="Helvetica,sans-Serif" font-size="10.00">MojDbKind.cpp</text>
</a>
</g>
<!-- Node2&#45;&gt;Node6 -->
<g id="edge10" class="edge"><title>Node2&#45;&gt;Node6</title>
<path fill="none" stroke="midnightblue" d="M390.798,-51.405C380.726,-41.6683 368.543,-29.8914 359.935,-21.5707"/>
<polygon fill="midnightblue" stroke="midnightblue" points="388.373,-53.9281 397.995,-58.3619 393.238,-48.8952 388.373,-53.9281"/>
</g>
<!-- Node7 -->
<g id="node13" class="node"><title>Node7</title>
<a xlink:href="MojDbKindEngine_8cpp.htm" target="_top" xlink:title="MojDbKindEngine.cpp">
<polygon fill="white" stroke="black" points="410,-0.5 410,-21.5 530,-21.5 530,-0.5 410,-0.5"/>
<text text-anchor="middle" x="470" y="-8.5" font-family="Helvetica,sans-Serif" font-size="10.00">MojDbKindEngine.cpp</text>
</a>
</g>
<!-- Node2&#45;&gt;Node7 -->
<g id="edge12" class="edge"><title>Node2&#45;&gt;Node7</title>
<path fill="none" stroke="midnightblue" d="M427.505,-51.405C437.745,-41.6683 450.131,-29.8914 458.883,-21.5707"/>
<polygon fill="midnightblue" stroke="midnightblue" points="425.024,-48.9348 420.188,-58.3619 429.847,-54.0077 425.024,-48.9348"/>
</g>
<!-- Node8 -->
<g id="node15" class="node"><title>Node8</title>
<a xlink:href="MojDbPermissionEngine_8cpp.htm" target="_top" xlink:title="MojDbPermissionEngine.cpp">
<polygon fill="white" stroke="black" points="547.5,-0.5 547.5,-21.5 698.5,-21.5 698.5,-0.5 547.5,-0.5"/>
<text text-anchor="middle" x="623" y="-8.5" font-family="Helvetica,sans-Serif" font-size="10.00">MojDbPermissionEngine.cpp</text>
</a>
</g>
<!-- Node2&#45;&gt;Node8 -->
<g id="edge14" class="edge"><title>Node2&#45;&gt;Node8</title>
<path fill="none" stroke="midnightblue" d="M457.151,-55.9497C495.439,-45.5727 548.318,-31.2409 583.988,-21.5733"/>
<polygon fill="midnightblue" stroke="midnightblue" points="455.995,-52.6367 447.259,-58.6308 457.826,-59.3929 455.995,-52.6367"/>
</g>
<!-- Node9 -->
<g id="node17" class="node"><title>Node9</title>
<a xlink:href="MojDbQuotaEngine_8cpp.htm" target="_top" xlink:title="MojDbQuotaEngine.cpp">
<polygon fill="white" stroke="black" points="716,-0.5 716,-21.5 844,-21.5 844,-0.5 716,-0.5"/>
<text text-anchor="middle" x="780" y="-8.5" font-family="Helvetica,sans-Serif" font-size="10.00">MojDbQuotaEngine.cpp</text>
</a>
</g>
<!-- Node2&#45;&gt;Node9 -->
<g id="edge16" class="edge"><title>Node2&#45;&gt;Node9</title>
<path fill="none" stroke="midnightblue" d="M457.106,-57.9079C568.444,-37.1961 598.66,-37.9319 707,-22 709.916,-21.5711 712.898,-21.1305 715.91,-20.6838"/>
<polygon fill="midnightblue" stroke="midnightblue" points="456.343,-54.4899 447.16,-59.7745 457.634,-61.3698 456.343,-54.4899"/>
</g>
<!-- Node10 -->
<g id="node19" class="node"><title>Node10</title>
<a xlink:href="MojDbSearchCursor_8cpp.htm" target="_top" xlink:title="MojDbSearchCursor.cpp">
<polygon fill="white" stroke="black" points="861.5,-0.5 861.5,-21.5 992.5,-21.5 992.5,-0.5 861.5,-0.5"/>
<text text-anchor="middle" x="927" y="-8.5" font-family="Helvetica,sans-Serif" font-size="10.00">MojDbSearchCursor.cpp</text>
</a>
</g>
<!-- Node2&#45;&gt;Node10 -->
<g id="edge18" class="edge"><title>Node2&#45;&gt;Node10</title>
<path fill="none" stroke="midnightblue" d="M457.22,-57.9883C632.659,-30.2257 680.349,-42.6431 853,-22 855.708,-21.6762 858.47,-21.3315 861.259,-20.9715"/>
<polygon fill="midnightblue" stroke="midnightblue" points="456.45,-54.5669 447.131,-59.6065 457.559,-61.4786 456.45,-54.5669"/>
</g>
</g>
</svg>
