<?xml version="1.0" encoding="UTF-8" standalone="no"?>
<!DOCTYPE svg PUBLIC "-//W3C//DTD SVG 1.1//EN"
 "http://www.w3.org/Graphics/SVG/1.1/DTD/svg11.dtd">
<!-- Generated by graphviz version 2.26.3 (20100126.1600)
 -->
<!-- Title: MojDbTextUtils.cpp Pages: 1 -->
<svg width="1066pt" height="696pt"
 viewBox="0.00 0.00 1066.00 696.00" xmlns="http://www.w3.org/2000/svg" xmlns:xlink="http://www.w3.org/1999/xlink">
<g id="graph1" class="graph" transform="scale(1 1) rotate(0) translate(4 692)">
<title>MojDbTextUtils.cpp</title>
<polygon fill="white" stroke="white" points="-4,5 -4,-692 1063,-692 1063,5 -4,5"/>
<!-- Node1 -->
<g id="node1" class="node"><title>Node1</title>
<polygon fill="#bfbfbf" stroke="black" points="671.5,-666.5 671.5,-687.5 778.5,-687.5 778.5,-666.5 671.5,-666.5"/>
<text text-anchor="middle" x="725" y="-674.5" font-family="Helvetica,sans-Serif" font-size="10.00">MojDbTextUtils.cpp</text>
</g>
<!-- Node2 -->
<g id="node3" class="node"><title>Node2</title>
<a xlink:href="MojDbTextUtils_8h.htm" target="_top" xlink:title="db/MojDbTextUtils.h">
<polygon fill="white" stroke="black" points="670,-608.5 670,-629.5 780,-629.5 780,-608.5 670,-608.5"/>
<text text-anchor="middle" x="725" y="-616.5" font-family="Helvetica,sans-Serif" font-size="10.00">db/MojDbTextUtils.h</text>
</a>
</g>
<!-- Node1&#45;&gt;Node2 -->
<g id="edge2" class="edge"><title>Node1&#45;&gt;Node2</title>
<path fill="none" stroke="midnightblue" d="M725,-666.362C725,-658.922 725,-648.743 725,-639.728"/>
<polygon fill="midnightblue" stroke="midnightblue" points="728.5,-639.571 725,-629.571 721.5,-639.571 728.5,-639.571"/>
</g>
<!-- Node25 -->
<g id="node59" class="node"><title>Node25</title>
<a xlink:href="MojString_8h.htm" target="_top" xlink:title="core/MojString.h">
<polygon fill="white" stroke="black" points="541,-608.5 541,-629.5 635,-629.5 635,-608.5 541,-608.5"/>
<text text-anchor="middle" x="588" y="-616.5" font-family="Helvetica,sans-Serif" font-size="10.00">core/MojString.h</text>
</a>
</g>
<!-- Node1&#45;&gt;Node25 -->
<g id="edge68" class="edge"><title>Node1&#45;&gt;Node25</title>
<path fill="none" stroke="midnightblue" d="M700.19,-666.497C678.504,-657.315 646.789,-643.889 622.608,-633.652"/>
<polygon fill="midnightblue" stroke="midnightblue" points="623.661,-630.297 613.088,-629.621 620.932,-636.743 623.661,-630.297"/>
</g>
<!-- Node27 -->
<g id="node69" class="node"><title>Node27</title>
<polygon fill="white" stroke="#bfbfbf" points="798,-608.5 798,-629.5 894,-629.5 894,-608.5 798,-608.5"/>
<text text-anchor="middle" x="846" y="-616.5" font-family="Helvetica,sans-Serif" font-size="10.00">unicode/ustring.h</text>
</g>
<!-- Node1&#45;&gt;Node27 -->
<g id="edge84" class="edge"><title>Node1&#45;&gt;Node27</title>
<path fill="none" stroke="midnightblue" d="M746.912,-666.497C765.811,-657.438 793.331,-644.246 814.576,-634.063"/>
<polygon fill="midnightblue" stroke="midnightblue" points="816.337,-637.1 823.842,-629.621 813.311,-630.788 816.337,-637.1"/>
</g>
<!-- Node3 -->
<g id="node5" class="node"><title>Node3</title>
<a xlink:href="MojDbDefs_8h.htm" target="_top" xlink:title="db/MojDbDefs.h">
<polygon fill="white" stroke="black" points="967.5,-290.5 967.5,-311.5 1058.5,-311.5 1058.5,-290.5 967.5,-290.5"/>
<text text-anchor="middle" x="1013" y="-298.5" font-family="Helvetica,sans-Serif" font-size="10.00">db/MojDbDefs.h</text>
</a>
</g>
<!-- Node2&#45;&gt;Node3 -->
<g id="edge4" class="edge"><title>Node2&#45;&gt;Node3</title>
<path fill="none" stroke="midnightblue" d="M774.39,-608.473C852.556,-590.371 996,-550.659 996,-503 996,-503 996,-503 996,-438 996,-396.477 1003.79,-348.41 1008.82,-321.674"/>
<polygon fill="midnightblue" stroke="midnightblue" points="1012.3,-322.087 1010.78,-311.603 1005.43,-320.751 1012.3,-322.087"/>
</g>
<!-- Node14 -->
<g id="node27" class="node"><title>Node14</title>
<a xlink:href="MojVector_8h.htm" target="_top" xlink:title="core/MojVector.h">
<polygon fill="white" stroke="black" points="665.5,-550.5 665.5,-571.5 762.5,-571.5 762.5,-550.5 665.5,-550.5"/>
<text text-anchor="middle" x="714" y="-558.5" font-family="Helvetica,sans-Serif" font-size="10.00">core/MojVector.h</text>
</a>
</g>
<!-- Node2&#45;&gt;Node14 -->
<g id="edge26" class="edge"><title>Node2&#45;&gt;Node14</title>
<path fill="none" stroke="midnightblue" d="M722.982,-608.362C721.556,-600.84 719.598,-590.519 717.875,-581.431"/>
<polygon fill="midnightblue" stroke="midnightblue" points="721.307,-580.743 716.005,-571.571 714.429,-582.048 721.307,-580.743"/>
</g>
<!-- Node24 -->
<g id="node57" class="node"><title>Node24</title>
<polygon fill="white" stroke="#bfbfbf" points="779.5,-550.5 779.5,-571.5 874.5,-571.5 874.5,-550.5 779.5,-550.5"/>
<text text-anchor="middle" x="827" y="-558.5" font-family="Helvetica,sans-Serif" font-size="10.00">unicode/utypes.h</text>
</g>
<!-- Node2&#45;&gt;Node24 -->
<g id="edge66" class="edge"><title>Node2&#45;&gt;Node24</title>
<path fill="none" stroke="midnightblue" d="M743.708,-608.362C759.381,-599.45 781.964,-586.609 799.663,-576.545"/>
<polygon fill="midnightblue" stroke="midnightblue" points="801.447,-579.556 808.41,-571.571 797.987,-573.471 801.447,-579.556"/>
</g>
<!-- Node4 -->
<g id="node7" class="node"><title>Node4</title>
<a xlink:href="MojCoreDefs_8h.htm" target="_top" xlink:title="core/MojCoreDefs.h">
<polygon fill="white" stroke="black" points="353.5,-232.5 353.5,-253.5 464.5,-253.5 464.5,-232.5 353.5,-232.5"/>
<text text-anchor="middle" x="409" y="-240.5" font-family="Helvetica,sans-Serif" font-size="10.00">core/MojCoreDefs.h</text>
</a>
</g>
<!-- Node3&#45;&gt;Node4 -->
<g id="edge6" class="edge"><title>Node3&#45;&gt;Node4</title>
<path fill="none" stroke="midnightblue" d="M967.334,-292.027C962.838,-291.282 958.336,-290.59 954,-290 781.823,-266.583 577.367,-252.631 474.722,-246.576"/>
<polygon fill="midnightblue" stroke="midnightblue" points="474.699,-243.068 464.512,-245.98 474.291,-250.057 474.699,-243.068"/>
</g>
<!-- Node5 -->
<g id="node9" class="node"><title>Node5</title>
<a xlink:href="MojConfig_8h.htm" target="_top" xlink:title="core/internal/MojConfig.h">
<polygon fill="white" stroke="black" points="466.5,-174.5 466.5,-195.5 601.5,-195.5 601.5,-174.5 466.5,-174.5"/>
<text text-anchor="middle" x="534" y="-182.5" font-family="Helvetica,sans-Serif" font-size="10.00">core/internal/MojConfig.h</text>
</a>
</g>
<!-- Node4&#45;&gt;Node5 -->
<g id="edge8" class="edge"><title>Node4&#45;&gt;Node5</title>
<path fill="none" stroke="midnightblue" d="M431.637,-232.497C451.248,-223.397 479.846,-210.127 501.833,-199.925"/>
<polygon fill="midnightblue" stroke="midnightblue" points="503.512,-203.005 511.109,-195.621 500.565,-196.655 503.512,-203.005"/>
</g>
<!-- Node6 -->
<g id="node11" class="node"><title>Node6</title>
<a xlink:href="MojNew_8h.htm" target="_top" xlink:title="core/internal/MojNew.h">
<polygon fill="white" stroke="black" points="226.5,-174.5 226.5,-195.5 351.5,-195.5 351.5,-174.5 226.5,-174.5"/>
<text text-anchor="middle" x="289" y="-182.5" font-family="Helvetica,sans-Serif" font-size="10.00">core/internal/MojNew.h</text>
</a>
</g>
<!-- Node4&#45;&gt;Node6 -->
<g id="edge10" class="edge"><title>Node4&#45;&gt;Node6</title>
<path fill="none" stroke="midnightblue" d="M387.269,-232.497C368.526,-223.438 341.233,-210.246 320.164,-200.063"/>
<polygon fill="midnightblue" stroke="midnightblue" points="321.502,-196.822 310.975,-195.621 318.455,-203.124 321.502,-196.822"/>
</g>
<!-- Node8 -->
<g id="node15" class="node"><title>Node8</title>
<a xlink:href="MojErr_8h.htm" target="_top" xlink:title="core/MojErr.h">
<polygon fill="white" stroke="black" points="369,-174.5 369,-195.5 449,-195.5 449,-174.5 369,-174.5"/>
<text text-anchor="middle" x="409" y="-182.5" font-family="Helvetica,sans-Serif" font-size="10.00">core/MojErr.h</text>
</a>
</g>
<!-- Node4&#45;&gt;Node8 -->
<g id="edge14" class="edge"><title>Node4&#45;&gt;Node8</title>
<path fill="none" stroke="midnightblue" d="M409,-232.362C409,-224.922 409,-214.743 409,-205.728"/>
<polygon fill="midnightblue" stroke="midnightblue" points="412.5,-205.571 409,-195.571 405.5,-205.571 412.5,-205.571"/>
</g>
<!-- Node12 -->
<g id="node23" class="node"><title>Node12</title>
<a xlink:href="MojOs_8h.htm" target="_top" xlink:title="core/MojOs.h">
<polygon fill="white" stroke="black" points="129,-174.5 129,-195.5 209,-195.5 209,-174.5 129,-174.5"/>
<text text-anchor="middle" x="169" y="-182.5" font-family="Helvetica,sans-Serif" font-size="10.00">core/MojOs.h</text>
</a>
</g>
<!-- Node4&#45;&gt;Node12 -->
<g id="edge22" class="edge"><title>Node4&#45;&gt;Node12</title>
<path fill="none" stroke="midnightblue" d="M365.538,-232.497C324.308,-222.533 262.389,-207.569 219.101,-197.108"/>
<polygon fill="midnightblue" stroke="midnightblue" points="219.885,-193.697 209.343,-194.75 218.241,-200.501 219.885,-193.697"/>
</g>
<!-- Node7 -->
<g id="node13" class="node"><title>Node7</title>
<polygon fill="white" stroke="#bfbfbf" points="271,-116.5 271,-137.5 307,-137.5 307,-116.5 271,-116.5"/>
<text text-anchor="middle" x="289" y="-124.5" font-family="Helvetica,sans-Serif" font-size="10.00">new</text>
</g>
<!-- Node6&#45;&gt;Node7 -->
<g id="edge12" class="edge"><title>Node6&#45;&gt;Node7</title>
<path fill="none" stroke="midnightblue" d="M289,-174.362C289,-166.922 289,-156.743 289,-147.728"/>
<polygon fill="midnightblue" stroke="midnightblue" points="292.5,-147.571 289,-137.571 285.5,-147.571 292.5,-147.571"/>
</g>
<!-- Node9 -->
<g id="node17" class="node"><title>Node9</title>
<a xlink:href="MojLog_8h.htm" target="_top" xlink:title="core/MojLog.h">
<polygon fill="white" stroke="black" points="346,-116.5 346,-137.5 430,-137.5 430,-116.5 346,-116.5"/>
<text text-anchor="middle" x="388" y="-124.5" font-family="Helvetica,sans-Serif" font-size="10.00">core/MojLog.h</text>
</a>
</g>
<!-- Node8&#45;&gt;Node9 -->
<g id="edge16" class="edge"><title>Node8&#45;&gt;Node9</title>
<path fill="none" stroke="midnightblue" d="M405.148,-174.362C402.395,-166.758 398.606,-156.294 395.29,-147.135"/>
<polygon fill="midnightblue" stroke="midnightblue" points="398.523,-145.782 391.827,-137.571 391.941,-148.165 398.523,-145.782"/>
</g>
<!-- Node10 -->
<g id="node19" class="node"><title>Node10</title>
<a xlink:href="MojListEntry_8h.htm" target="_top" xlink:title="core/MojListEntry.h">
<polygon fill="white" stroke="black" points="190.5,-58.5 190.5,-79.5 297.5,-79.5 297.5,-58.5 190.5,-58.5"/>
<text text-anchor="middle" x="244" y="-66.5" font-family="Helvetica,sans-Serif" font-size="10.00">core/MojListEntry.h</text>
</a>
</g>
<!-- Node9&#45;&gt;Node10 -->
<g id="edge18" class="edge"><title>Node9&#45;&gt;Node10</title>
<path fill="none" stroke="midnightblue" d="M361.923,-116.497C338.925,-107.234 305.2,-93.6499 279.7,-83.3793"/>
<polygon fill="midnightblue" stroke="midnightblue" points="280.953,-80.1108 270.37,-79.6212 278.338,-86.6039 280.953,-80.1108"/>
</g>
<!-- Node11 -->
<g id="node21" class="node"><title>Node11</title>
<a xlink:href="MojNoCopy_8h.htm" target="_top" xlink:title="core/MojNoCopy.h">
<polygon fill="white" stroke="black" points="89,-0.5 89,-21.5 193,-21.5 193,-0.5 89,-0.5"/>
<text text-anchor="middle" x="141" y="-8.5" font-family="Helvetica,sans-Serif" font-size="10.00">core/MojNoCopy.h</text>
</a>
</g>
<!-- Node10&#45;&gt;Node11 -->
<g id="edge20" class="edge"><title>Node10&#45;&gt;Node11</title>
<path fill="none" stroke="midnightblue" d="M225.108,-58.3619C209.282,-49.4502 186.477,-36.6087 168.605,-26.5447"/>
<polygon fill="midnightblue" stroke="midnightblue" points="170.203,-23.4276 159.772,-21.5707 166.768,-29.5271 170.203,-23.4276"/>
</g>
<!-- Node13 -->
<g id="node25" class="node"><title>Node13</title>
<a xlink:href="MojOsInternal_8h.htm" target="_top" xlink:title="core/internal/MojOsInternal.h">
<polygon fill="white" stroke="black" points="92,-116.5 92,-137.5 246,-137.5 246,-116.5 92,-116.5"/>
<text text-anchor="middle" x="169" y="-124.5" font-family="Helvetica,sans-Serif" font-size="10.00">core/internal/MojOsInternal.h</text>
</a>
</g>
<!-- Node12&#45;&gt;Node13 -->
<g id="edge24" class="edge"><title>Node12&#45;&gt;Node13</title>
<path fill="none" stroke="midnightblue" d="M169,-174.362C169,-166.922 169,-156.743 169,-147.728"/>
<polygon fill="midnightblue" stroke="midnightblue" points="172.5,-147.571 169,-137.571 165.5,-147.571 172.5,-147.571"/>
</g>
<!-- Node14&#45;&gt;Node4 -->
<g id="edge28" class="edge"><title>Node14&#45;&gt;Node4</title>
<path fill="none" stroke="midnightblue" d="M762.602,-551.296C821.97,-539.248 915.279,-519.598 921,-514 945.885,-489.649 940,-472.817 940,-438 940,-438 940,-438 940,-366 940,-271.605 617.498,-249.635 475.162,-244.535"/>
<polygon fill="midnightblue" stroke="midnightblue" points="474.936,-241.026 464.823,-244.183 474.698,-248.022 474.936,-241.026"/>
</g>
<!-- Node15 -->
<g id="node30" class="node"><title>Node15</title>
<a xlink:href="MojComp_8h.htm" target="_top" xlink:title="core/MojComp.h">
<polygon fill="white" stroke="black" points="520,-290.5 520,-311.5 614,-311.5 614,-290.5 520,-290.5"/>
<text text-anchor="middle" x="567" y="-298.5" font-family="Helvetica,sans-Serif" font-size="10.00">core/MojComp.h</text>
</a>
</g>
<!-- Node14&#45;&gt;Node15 -->
<g id="edge30" class="edge"><title>Node14&#45;&gt;Node15</title>
<path fill="none" stroke="midnightblue" d="M713.676,-550.413C712.131,-516.979 703.23,-412.072 652,-348 640.663,-333.821 623.829,-323.256 608.127,-315.772"/>
<polygon fill="midnightblue" stroke="midnightblue" points="609.114,-312.381 598.555,-311.506 606.264,-318.774 609.114,-312.381"/>
</g>
<!-- Node16 -->
<g id="node33" class="node"><title>Node16</title>
<a xlink:href="MojRefCount_8h.htm" target="_top" xlink:title="core/MojRefCount.h">
<polygon fill="white" stroke="black" points="251,-492.5 251,-513.5 361,-513.5 361,-492.5 251,-492.5"/>
<text text-anchor="middle" x="306" y="-500.5" font-family="Helvetica,sans-Serif" font-size="10.00">core/MojRefCount.h</text>
</a>
</g>
<!-- Node14&#45;&gt;Node16 -->
<g id="edge34" class="edge"><title>Node14&#45;&gt;Node16</title>
<path fill="none" stroke="midnightblue" d="M665.191,-554.061C591.789,-543.627 452.879,-523.88 370.982,-512.238"/>
<polygon fill="midnightblue" stroke="midnightblue" points="371.434,-508.767 361.041,-510.824 370.449,-515.697 371.434,-508.767"/>
</g>
<!-- Node22 -->
<g id="node51" class="node"><title>Node22</title>
<a xlink:href="MojUtil_8h.htm" target="_top" xlink:title="core/MojUtil.h">
<polygon fill="white" stroke="black" points="529.5,-427.5 529.5,-448.5 610.5,-448.5 610.5,-427.5 529.5,-427.5"/>
<text text-anchor="middle" x="570" y="-435.5" font-family="Helvetica,sans-Serif" font-size="10.00">core/MojUtil.h</text>
</a>
</g>
<!-- Node14&#45;&gt;Node22 -->
<g id="edge58" class="edge"><title>Node14&#45;&gt;Node22</title>
<path fill="none" stroke="midnightblue" d="M701.473,-550.3C676.58,-529.037 620.685,-481.294 590.413,-455.436"/>
<polygon fill="midnightblue" stroke="midnightblue" points="592.478,-452.597 582.601,-448.763 587.931,-457.919 592.478,-452.597"/>
</g>
<!-- Node23 -->
<g id="node55" class="node"><title>Node23</title>
<a xlink:href="MojVectorInternal_8h.htm" target="_top" xlink:title="core/internal/MojVectorInternal.h">
<polygon fill="white" stroke="black" points="741.5,-492.5 741.5,-513.5 912.5,-513.5 912.5,-492.5 741.5,-492.5"/>
<text text-anchor="middle" x="827" y="-500.5" font-family="Helvetica,sans-Serif" font-size="10.00">core/internal/MojVectorInternal.h</text>
</a>
</g>
<!-- Node14&#45;&gt;Node23 -->
<g id="edge64" class="edge"><title>Node14&#45;&gt;Node23</title>
<path fill="none" stroke="midnightblue" d="M734.463,-550.497C752.033,-541.479 777.582,-528.365 797.385,-518.201"/>
<polygon fill="midnightblue" stroke="midnightblue" points="799.009,-521.301 806.307,-513.621 795.812,-515.074 799.009,-521.301"/>
</g>
<!-- Node15&#45;&gt;Node4 -->
<g id="edge32" class="edge"><title>Node15&#45;&gt;Node4</title>
<path fill="none" stroke="midnightblue" d="M538.387,-290.497C512.852,-281.123 475.263,-267.324 447.171,-257.012"/>
<polygon fill="midnightblue" stroke="midnightblue" points="448.26,-253.684 437.666,-253.523 445.848,-260.255 448.26,-253.684"/>
</g>
<!-- Node16&#45;&gt;Node4 -->
<g id="edge36" class="edge"><title>Node16&#45;&gt;Node4</title>
<path fill="none" stroke="midnightblue" d="M306.203,-492.445C306.981,-475.793 310.416,-442.96 325,-420 338.92,-398.086 356.664,-405.644 371,-384 395.842,-346.494 404.503,-293.239 407.479,-264.087"/>
<polygon fill="midnightblue" stroke="midnightblue" points="410.99,-264.116 408.388,-253.845 404.018,-263.496 410.99,-264.116"/>
</g>
<!-- Node17 -->
<g id="node36" class="node"><title>Node17</title>
<a xlink:href="MojAtomicInt_8h.htm" target="_top" xlink:title="core/MojAtomicInt.h">
<polygon fill="white" stroke="black" points="252,-355.5 252,-376.5 362,-376.5 362,-355.5 252,-355.5"/>
<text text-anchor="middle" x="307" y="-363.5" font-family="Helvetica,sans-Serif" font-size="10.00">core/MojAtomicInt.h</text>
</a>
</g>
<!-- Node16&#45;&gt;Node17 -->
<g id="edge38" class="edge"><title>Node16&#45;&gt;Node17</title>
<path fill="none" stroke="midnightblue" d="M301.87,-492.372C298.452,-482.974 293.867,-468.806 292,-456 289.692,-440.167 289.839,-435.853 292,-420 293.544,-408.672 296.831,-396.367 299.935,-386.368"/>
<polygon fill="midnightblue" stroke="midnightblue" points="303.355,-387.171 303.141,-376.578 296.702,-384.992 303.355,-387.171"/>
</g>
<!-- Node18 -->
<g id="node39" class="node"><title>Node18</title>
<a xlink:href="MojAutoPtr_8h.htm" target="_top" xlink:title="core/MojAutoPtr.h">
<polygon fill="white" stroke="black" points="128.5,-427.5 128.5,-448.5 229.5,-448.5 229.5,-427.5 128.5,-427.5"/>
<text text-anchor="middle" x="179" y="-435.5" font-family="Helvetica,sans-Serif" font-size="10.00">core/MojAutoPtr.h</text>
</a>
</g>
<!-- Node16&#45;&gt;Node18 -->
<g id="edge42" class="edge"><title>Node16&#45;&gt;Node18</title>
<path fill="none" stroke="midnightblue" d="M285.313,-492.412C264.556,-481.788 232.376,-465.318 208.855,-453.28"/>
<polygon fill="midnightblue" stroke="midnightblue" points="210.175,-450.024 199.679,-448.584 206.986,-456.255 210.175,-450.024"/>
</g>
<!-- Node20 -->
<g id="node46" class="node"><title>Node20</title>
<a xlink:href="MojRefCountInternal_8h.htm" target="_top" xlink:title="core/internal/MojRefCount\lInternal.h">
<polygon fill="white" stroke="black" points="334,-421 334,-455 474,-455 474,-421 334,-421"/>
<text text-anchor="start" x="342" y="-442" font-family="Helvetica,sans-Serif" font-size="10.00">core/internal/MojRefCount</text>
<text text-anchor="middle" x="404" y="-429" font-family="Helvetica,sans-Serif" font-size="10.00">Internal.h</text>
</a>
</g>
<!-- Node16&#45;&gt;Node20 -->
<g id="edge52" class="edge"><title>Node16&#45;&gt;Node20</title>
<path fill="none" stroke="midnightblue" d="M322.183,-492.267C335.026,-483.748 353.437,-471.537 369.543,-460.854"/>
<polygon fill="midnightblue" stroke="midnightblue" points="371.805,-463.554 378.204,-455.11 367.935,-457.721 371.805,-463.554"/>
</g>
<!-- Node17&#45;&gt;Node4 -->
<g id="edge40" class="edge"><title>Node17&#45;&gt;Node4</title>
<path fill="none" stroke="midnightblue" d="M316.052,-355.085C333.486,-334.061 371.904,-287.733 393.493,-261.7"/>
<polygon fill="midnightblue" stroke="midnightblue" points="396.425,-263.647 400.114,-253.715 391.037,-259.179 396.425,-263.647"/>
</g>
<!-- Node18&#45;&gt;Node4 -->
<g id="edge44" class="edge"><title>Node18&#45;&gt;Node4</title>
<path fill="none" stroke="midnightblue" d="M148.8,-427.357C129.638,-418.846 106.381,-404.847 95,-384 87.333,-369.957 85.6508,-360.984 95,-348 124.411,-307.153 260.533,-273.054 343.599,-255.586"/>
<polygon fill="midnightblue" stroke="midnightblue" points="344.376,-258.999 353.456,-253.539 342.953,-252.145 344.376,-258.999"/>
</g>
<!-- Node18&#45;&gt;Node11 -->
<g id="edge48" class="edge"><title>Node18&#45;&gt;Node11</title>
<path fill="none" stroke="midnightblue" d="M153.792,-427.417C113.235,-408.507 38,-364.825 38,-301 38,-301 38,-301 38,-127 38,-81.8971 82.0783,-46.163 112.565,-26.8416"/>
<polygon fill="midnightblue" stroke="midnightblue" points="114.429,-29.8043 121.141,-21.6063 110.782,-23.8297 114.429,-29.8043"/>
</g>
<!-- Node18&#45;&gt;Node17 -->
<g id="edge46" class="edge"><title>Node18&#45;&gt;Node17</title>
<path fill="none" stroke="midnightblue" d="M197.887,-427.376C219.346,-415.305 254.573,-395.49 279.177,-381.651"/>
<polygon fill="midnightblue" stroke="midnightblue" points="281.036,-384.621 288.036,-376.667 277.604,-378.52 281.036,-384.621"/>
</g>
<!-- Node19 -->
<g id="node44" class="node"><title>Node19</title>
<a xlink:href="MojAutoPtrInternal_8h.htm" target="_top" xlink:title="core/internal/MojAutoPtr\lInternal.h">
<polygon fill="white" stroke="black" points="103.5,-349 103.5,-383 234.5,-383 234.5,-349 103.5,-349"/>
<text text-anchor="start" x="111.5" y="-370" font-family="Helvetica,sans-Serif" font-size="10.00">core/internal/MojAutoPtr</text>
<text text-anchor="middle" x="169" y="-357" font-family="Helvetica,sans-Serif" font-size="10.00">Internal.h</text>
</a>
</g>
<!-- Node18&#45;&gt;Node19 -->
<g id="edge50" class="edge"><title>Node18&#45;&gt;Node19</title>
<path fill="none" stroke="midnightblue" d="M177.524,-427.376C176.272,-418.36 174.42,-405.024 172.762,-393.084"/>
<polygon fill="midnightblue" stroke="midnightblue" points="176.217,-392.518 171.374,-383.094 169.283,-393.481 176.217,-392.518"/>
</g>
<!-- Node21 -->
<g id="node48" class="node"><title>Node21</title>
<a xlink:href="MojUtilInternal_8h.htm" target="_top" xlink:title="core/internal/MojUtilInternal.h">
<polygon fill="white" stroke="black" points="455.5,-355.5 455.5,-376.5 610.5,-376.5 610.5,-355.5 455.5,-355.5"/>
<text text-anchor="middle" x="533" y="-363.5" font-family="Helvetica,sans-Serif" font-size="10.00">core/internal/MojUtilInternal.h</text>
</a>
</g>
<!-- Node20&#45;&gt;Node21 -->
<g id="edge54" class="edge"><title>Node20&#45;&gt;Node21</title>
<path fill="none" stroke="midnightblue" d="M434.571,-420.937C455.893,-409.037 484.129,-393.277 504.89,-381.689"/>
<polygon fill="midnightblue" stroke="midnightblue" points="506.824,-384.618 513.851,-376.688 503.413,-378.506 506.824,-384.618"/>
</g>
<!-- Node21&#45;&gt;Node15 -->
<g id="edge56" class="edge"><title>Node21&#45;&gt;Node15</title>
<path fill="none" stroke="midnightblue" d="M538.614,-355.267C543.516,-345.896 550.755,-332.057 556.695,-320.7"/>
<polygon fill="midnightblue" stroke="midnightblue" points="559.956,-322.017 561.49,-311.534 553.754,-318.772 559.956,-322.017"/>
</g>
<!-- Node22&#45;&gt;Node4 -->
<g id="edge60" class="edge"><title>Node22&#45;&gt;Node4</title>
<path fill="none" stroke="midnightblue" d="M584.013,-427.294C595.692,-417.46 611.574,-401.752 619,-384 635.137,-345.424 649.206,-322.585 623,-290 604.626,-267.153 530.782,-254.779 474.936,-248.549"/>
<polygon fill="midnightblue" stroke="midnightblue" points="475.051,-245.042 464.735,-247.456 474.305,-252.002 475.051,-245.042"/>
</g>
<!-- Node22&#45;&gt;Node21 -->
<g id="edge62" class="edge"><title>Node22&#45;&gt;Node21</title>
<path fill="none" stroke="midnightblue" d="M564.541,-427.376C558.911,-416.422 550.005,-399.09 543.09,-385.634"/>
<polygon fill="midnightblue" stroke="midnightblue" points="546.166,-383.962 538.482,-376.667 539.94,-387.162 546.166,-383.962"/>
</g>
<!-- Node25&#45;&gt;Node4 -->
<g id="edge70" class="edge"><title>Node25&#45;&gt;Node4</title>
<path fill="none" stroke="midnightblue" d="M540.875,-614.691C401.345,-601.304 0,-558.017 0,-503 0,-503 0,-503 0,-366 0,-295.194 227.638,-261.577 343.261,-249.07"/>
<polygon fill="midnightblue" stroke="midnightblue" points="343.839,-252.528 353.415,-247.994 343.102,-245.567 343.839,-252.528"/>
</g>
<!-- Node25&#45;&gt;Node14 -->
<g id="edge82" class="edge"><title>Node25&#45;&gt;Node14</title>
<path fill="none" stroke="midnightblue" d="M610.818,-608.497C630.586,-599.397 659.413,-586.127 681.576,-575.925"/>
<polygon fill="midnightblue" stroke="midnightblue" points="683.306,-578.982 690.926,-571.621 680.379,-572.623 683.306,-578.982"/>
</g>
<!-- Node25&#45;&gt;Node15 -->
<g id="edge74" class="edge"><title>Node25&#45;&gt;Node15</title>
<path fill="none" stroke="midnightblue" d="M596.033,-608.464C610.167,-588.843 638,-544.886 638,-503 638,-503 638,-503 638,-438 638,-397.118 639.383,-383.438 619,-348 612.269,-336.298 601.607,-325.912 591.684,-317.898"/>
<polygon fill="midnightblue" stroke="midnightblue" points="593.699,-315.033 583.626,-311.749 589.452,-320.598 593.699,-315.033"/>
</g>
<!-- Node25&#45;&gt;Node18 -->
<g id="edge72" class="edge"><title>Node25&#45;&gt;Node18</title>
<path fill="none" stroke="midnightblue" d="M540.964,-613.481C470.777,-603.416 336.755,-576.984 242,-514 219.841,-499.271 201.389,-474.456 190.297,-457.205"/>
<polygon fill="midnightblue" stroke="midnightblue" points="193.154,-455.171 184.915,-448.511 187.203,-458.856 193.154,-455.171"/>
</g>
<!-- Node26 -->
<g id="node64" class="node"><title>Node26</title>
<a xlink:href="MojHasher_8h.htm" target="_top" xlink:title="core/MojHasher.h">
<polygon fill="white" stroke="black" points="509.5,-492.5 509.5,-513.5 610.5,-513.5 610.5,-492.5 509.5,-492.5"/>
<text text-anchor="middle" x="560" y="-500.5" font-family="Helvetica,sans-Serif" font-size="10.00">core/MojHasher.h</text>
</a>
</g>
<!-- Node25&#45;&gt;Node26 -->
<g id="edge76" class="edge"><title>Node25&#45;&gt;Node26</title>
<path fill="none" stroke="midnightblue" d="M585.416,-608.295C580.77,-589.045 570.932,-548.289 564.95,-523.509"/>
<polygon fill="midnightblue" stroke="midnightblue" points="568.327,-522.579 562.578,-513.679 561.522,-524.221 568.327,-522.579"/>
</g>
<!-- Node26&#45;&gt;Node4 -->
<g id="edge78" class="edge"><title>Node26&#45;&gt;Node4</title>
<path fill="none" stroke="midnightblue" d="M550.401,-492.4C535.953,-476.505 507.681,-445.624 483,-420 467.303,-403.703 458.328,-403.588 447,-384 424.478,-345.056 414.921,-292.356 411.176,-263.681"/>
<polygon fill="midnightblue" stroke="midnightblue" points="414.636,-263.135 409.976,-253.62 407.685,-263.964 414.636,-263.135"/>
</g>
<!-- Node26&#45;&gt;Node22 -->
<g id="edge80" class="edge"><title>Node26&#45;&gt;Node22</title>
<path fill="none" stroke="midnightblue" d="M561.651,-492.267C563.049,-483.18 565.094,-469.892 566.809,-458.74"/>
<polygon fill="midnightblue" stroke="midnightblue" points="570.318,-458.95 568.379,-448.534 563.399,-457.885 570.318,-458.95"/>
</g>
</g>
</svg>
