<?xml version="1.0" encoding="UTF-8" standalone="no"?>
<!DOCTYPE svg PUBLIC "-//W3C//DTD SVG 1.1//EN"
 "http://www.w3.org/Graphics/SVG/1.1/DTD/svg11.dtd">
<!-- Generated by graphviz version 2.26.3 (20100126.1600)
 -->
<!-- Title: MojDbTextTokenizer.h Pages: 1 -->
<svg width="963pt" height="580pt"
 viewBox="0.00 0.00 962.66 580.00" xmlns="http://www.w3.org/2000/svg" xmlns:xlink="http://www.w3.org/1999/xlink">
<g id="graph1" class="graph" transform="scale(1 1) rotate(0) translate(4 576)">
<title>MojDbTextTokenizer.h</title>
<polygon fill="white" stroke="white" points="-4,5 -4,-576 959.658,-576 959.658,5 -4,5"/>
<!-- Node1 -->
<g id="node1" class="node"><title>Node1</title>
<polygon fill="#bfbfbf" stroke="black" points="743.158,-550.5 743.158,-571.5 866.158,-571.5 866.158,-550.5 743.158,-550.5"/>
<text text-anchor="middle" x="804.658" y="-558.5" font-family="Helvetica,sans-Serif" font-size="10.00">MojDbTextTokenizer.h</text>
</g>
<!-- Node2 -->
<g id="node3" class="node"><title>Node2</title>
<a xlink:href="MojDbDefs_8h.htm" target="_top" xlink:title="db/MojDbDefs.h">
<polygon fill="white" stroke="black" points="832.158,-362.5 832.158,-383.5 923.158,-383.5 923.158,-362.5 832.158,-362.5"/>
<text text-anchor="middle" x="877.658" y="-370.5" font-family="Helvetica,sans-Serif" font-size="10.00">db/MojDbDefs.h</text>
</a>
</g>
<!-- Node1&#45;&gt;Node2 -->
<g id="edge2" class="edge"><title>Node1&#45;&gt;Node2</title>
<path fill="none" stroke="midnightblue" d="M808.792,-550.354C820.587,-519.978 854.538,-432.542 869.92,-392.929"/>
<polygon fill="midnightblue" stroke="midnightblue" points="873.213,-394.118 873.57,-383.53 866.687,-391.585 873.213,-394.118"/>
</g>
<!-- Node13 -->
<g id="node25" class="node"><title>Node13</title>
<a xlink:href="MojRefCount_8h.htm" target="_top" xlink:title="core/MojRefCount.h">
<polygon fill="white" stroke="black" points="159.658,-492.5 159.658,-513.5 269.658,-513.5 269.658,-492.5 159.658,-492.5"/>
<text text-anchor="middle" x="214.658" y="-500.5" font-family="Helvetica,sans-Serif" font-size="10.00">core/MojRefCount.h</text>
</a>
</g>
<!-- Node1&#45;&gt;Node13 -->
<g id="edge24" class="edge"><title>Node1&#45;&gt;Node13</title>
<path fill="none" stroke="midnightblue" d="M742.911,-554.93C630.754,-543.904 394.593,-520.689 279.909,-509.415"/>
<polygon fill="midnightblue" stroke="midnightblue" points="280.159,-505.922 269.864,-508.427 279.474,-512.889 280.159,-505.922"/>
</g>
<!-- Node20 -->
<g id="node45" class="node"><title>Node20</title>
<a xlink:href="MojSet_8h.htm" target="_top" xlink:title="core/MojSet.h">
<polygon fill="white" stroke="black" points="725.658,-492.5 725.658,-513.5 807.658,-513.5 807.658,-492.5 725.658,-492.5"/>
<text text-anchor="middle" x="766.658" y="-500.5" font-family="Helvetica,sans-Serif" font-size="10.00">core/MojSet.h</text>
</a>
</g>
<!-- Node1&#45;&gt;Node20 -->
<g id="edge50" class="edge"><title>Node1&#45;&gt;Node20</title>
<path fill="none" stroke="midnightblue" d="M797.689,-550.362C792.493,-542.431 785.258,-531.389 779.081,-521.961"/>
<polygon fill="midnightblue" stroke="midnightblue" points="781.992,-520.017 773.584,-513.571 776.137,-523.853 781.992,-520.017"/>
</g>
<!-- Node23 -->
<g id="node55" class="node"><title>Node23</title>
<polygon fill="white" stroke="#bfbfbf" points="870.658,-492.5 870.658,-513.5 954.658,-513.5 954.658,-492.5 870.658,-492.5"/>
<text text-anchor="middle" x="912.658" y="-500.5" font-family="Helvetica,sans-Serif" font-size="10.00">unicode/ubrk.h</text>
</g>
<!-- Node1&#45;&gt;Node23 -->
<g id="edge64" class="edge"><title>Node1&#45;&gt;Node23</title>
<path fill="none" stroke="midnightblue" d="M824.216,-550.497C840.857,-541.56 864.986,-528.602 883.839,-518.477"/>
<polygon fill="midnightblue" stroke="midnightblue" points="885.727,-521.436 892.881,-513.621 882.415,-515.269 885.727,-521.436"/>
</g>
<!-- Node3 -->
<g id="node5" class="node"><title>Node3</title>
<a xlink:href="MojCoreDefs_8h.htm" target="_top" xlink:title="core/MojCoreDefs.h">
<polygon fill="white" stroke="black" points="317.158,-232.5 317.158,-253.5 428.158,-253.5 428.158,-232.5 317.158,-232.5"/>
<text text-anchor="middle" x="372.658" y="-240.5" font-family="Helvetica,sans-Serif" font-size="10.00">core/MojCoreDefs.h</text>
</a>
</g>
<!-- Node2&#45;&gt;Node3 -->
<g id="edge4" class="edge"><title>Node2&#45;&gt;Node3</title>
<path fill="none" stroke="midnightblue" d="M873.578,-362.385C865.917,-344.065 847.507,-306.861 818.658,-290 786.604,-271.266 554.715,-254.356 438.577,-246.953"/>
<polygon fill="midnightblue" stroke="midnightblue" points="438.587,-243.447 428.386,-246.309 438.145,-250.433 438.587,-243.447"/>
</g>
<!-- Node4 -->
<g id="node7" class="node"><title>Node4</title>
<a xlink:href="MojConfig_8h.htm" target="_top" xlink:title="core/internal/MojConfig.h">
<polygon fill="white" stroke="black" points="430.158,-174.5 430.158,-195.5 565.158,-195.5 565.158,-174.5 430.158,-174.5"/>
<text text-anchor="middle" x="497.658" y="-182.5" font-family="Helvetica,sans-Serif" font-size="10.00">core/internal/MojConfig.h</text>
</a>
</g>
<!-- Node3&#45;&gt;Node4 -->
<g id="edge6" class="edge"><title>Node3&#45;&gt;Node4</title>
<path fill="none" stroke="midnightblue" d="M395.295,-232.497C414.906,-223.397 443.505,-210.127 465.492,-199.925"/>
<polygon fill="midnightblue" stroke="midnightblue" points="467.17,-203.005 474.768,-195.621 464.224,-196.655 467.17,-203.005"/>
</g>
<!-- Node5 -->
<g id="node9" class="node"><title>Node5</title>
<a xlink:href="MojNew_8h.htm" target="_top" xlink:title="core/internal/MojNew.h">
<polygon fill="white" stroke="black" points="190.158,-174.5 190.158,-195.5 315.158,-195.5 315.158,-174.5 190.158,-174.5"/>
<text text-anchor="middle" x="252.658" y="-182.5" font-family="Helvetica,sans-Serif" font-size="10.00">core/internal/MojNew.h</text>
</a>
</g>
<!-- Node3&#45;&gt;Node5 -->
<g id="edge8" class="edge"><title>Node3&#45;&gt;Node5</title>
<path fill="none" stroke="midnightblue" d="M350.927,-232.497C332.185,-223.438 304.892,-210.246 283.823,-200.063"/>
<polygon fill="midnightblue" stroke="midnightblue" points="285.16,-196.822 274.633,-195.621 282.114,-203.124 285.16,-196.822"/>
</g>
<!-- Node7 -->
<g id="node13" class="node"><title>Node7</title>
<a xlink:href="MojErr_8h.htm" target="_top" xlink:title="core/MojErr.h">
<polygon fill="white" stroke="black" points="332.658,-174.5 332.658,-195.5 412.658,-195.5 412.658,-174.5 332.658,-174.5"/>
<text text-anchor="middle" x="372.658" y="-182.5" font-family="Helvetica,sans-Serif" font-size="10.00">core/MojErr.h</text>
</a>
</g>
<!-- Node3&#45;&gt;Node7 -->
<g id="edge12" class="edge"><title>Node3&#45;&gt;Node7</title>
<path fill="none" stroke="midnightblue" d="M372.658,-232.362C372.658,-224.922 372.658,-214.743 372.658,-205.728"/>
<polygon fill="midnightblue" stroke="midnightblue" points="376.158,-205.571 372.658,-195.571 369.158,-205.571 376.158,-205.571"/>
</g>
<!-- Node11 -->
<g id="node21" class="node"><title>Node11</title>
<a xlink:href="MojOs_8h.htm" target="_top" xlink:title="core/MojOs.h">
<polygon fill="white" stroke="black" points="92.6584,-174.5 92.6584,-195.5 172.658,-195.5 172.658,-174.5 92.6584,-174.5"/>
<text text-anchor="middle" x="132.658" y="-182.5" font-family="Helvetica,sans-Serif" font-size="10.00">core/MojOs.h</text>
</a>
</g>
<!-- Node3&#45;&gt;Node11 -->
<g id="edge20" class="edge"><title>Node3&#45;&gt;Node11</title>
<path fill="none" stroke="midnightblue" d="M329.196,-232.497C287.966,-222.533 226.047,-207.569 182.759,-197.108"/>
<polygon fill="midnightblue" stroke="midnightblue" points="183.544,-193.697 173.001,-194.75 181.899,-200.501 183.544,-193.697"/>
</g>
<!-- Node6 -->
<g id="node11" class="node"><title>Node6</title>
<polygon fill="white" stroke="#bfbfbf" points="234.658,-116.5 234.658,-137.5 270.658,-137.5 270.658,-116.5 234.658,-116.5"/>
<text text-anchor="middle" x="252.658" y="-124.5" font-family="Helvetica,sans-Serif" font-size="10.00">new</text>
</g>
<!-- Node5&#45;&gt;Node6 -->
<g id="edge10" class="edge"><title>Node5&#45;&gt;Node6</title>
<path fill="none" stroke="midnightblue" d="M252.658,-174.362C252.658,-166.922 252.658,-156.743 252.658,-147.728"/>
<polygon fill="midnightblue" stroke="midnightblue" points="256.158,-147.571 252.658,-137.571 249.158,-147.571 256.158,-147.571"/>
</g>
<!-- Node8 -->
<g id="node15" class="node"><title>Node8</title>
<a xlink:href="MojLog_8h.htm" target="_top" xlink:title="core/MojLog.h">
<polygon fill="white" stroke="black" points="309.658,-116.5 309.658,-137.5 393.658,-137.5 393.658,-116.5 309.658,-116.5"/>
<text text-anchor="middle" x="351.658" y="-124.5" font-family="Helvetica,sans-Serif" font-size="10.00">core/MojLog.h</text>
</a>
</g>
<!-- Node7&#45;&gt;Node8 -->
<g id="edge14" class="edge"><title>Node7&#45;&gt;Node8</title>
<path fill="none" stroke="midnightblue" d="M368.807,-174.362C366.054,-166.758 362.265,-156.294 358.949,-147.135"/>
<polygon fill="midnightblue" stroke="midnightblue" points="362.181,-145.782 355.486,-137.571 355.599,-148.165 362.181,-145.782"/>
</g>
<!-- Node9 -->
<g id="node17" class="node"><title>Node9</title>
<a xlink:href="MojListEntry_8h.htm" target="_top" xlink:title="core/MojListEntry.h">
<polygon fill="white" stroke="black" points="154.158,-58.5 154.158,-79.5 261.158,-79.5 261.158,-58.5 154.158,-58.5"/>
<text text-anchor="middle" x="207.658" y="-66.5" font-family="Helvetica,sans-Serif" font-size="10.00">core/MojListEntry.h</text>
</a>
</g>
<!-- Node8&#45;&gt;Node9 -->
<g id="edge16" class="edge"><title>Node8&#45;&gt;Node9</title>
<path fill="none" stroke="midnightblue" d="M325.581,-116.497C302.584,-107.234 268.858,-93.6499 243.359,-83.3793"/>
<polygon fill="midnightblue" stroke="midnightblue" points="244.612,-80.1108 234.028,-79.6212 241.996,-86.6039 244.612,-80.1108"/>
</g>
<!-- Node10 -->
<g id="node19" class="node"><title>Node10</title>
<a xlink:href="MojNoCopy_8h.htm" target="_top" xlink:title="core/MojNoCopy.h">
<polygon fill="white" stroke="black" points="52.6584,-0.5 52.6584,-21.5 156.658,-21.5 156.658,-0.5 52.6584,-0.5"/>
<text text-anchor="middle" x="104.658" y="-8.5" font-family="Helvetica,sans-Serif" font-size="10.00">core/MojNoCopy.h</text>
</a>
</g>
<!-- Node9&#45;&gt;Node10 -->
<g id="edge18" class="edge"><title>Node9&#45;&gt;Node10</title>
<path fill="none" stroke="midnightblue" d="M188.767,-58.3619C172.941,-49.4502 150.136,-36.6087 132.264,-26.5447"/>
<polygon fill="midnightblue" stroke="midnightblue" points="133.861,-23.4276 123.43,-21.5707 130.427,-29.5271 133.861,-23.4276"/>
</g>
<!-- Node12 -->
<g id="node23" class="node"><title>Node12</title>
<a xlink:href="MojOsInternal_8h.htm" target="_top" xlink:title="core/internal/MojOsInternal.h">
<polygon fill="white" stroke="black" points="55.6584,-116.5 55.6584,-137.5 209.658,-137.5 209.658,-116.5 55.6584,-116.5"/>
<text text-anchor="middle" x="132.658" y="-124.5" font-family="Helvetica,sans-Serif" font-size="10.00">core/internal/MojOsInternal.h</text>
</a>
</g>
<!-- Node11&#45;&gt;Node12 -->
<g id="edge22" class="edge"><title>Node11&#45;&gt;Node12</title>
<path fill="none" stroke="midnightblue" d="M132.658,-174.362C132.658,-166.922 132.658,-156.743 132.658,-147.728"/>
<polygon fill="midnightblue" stroke="midnightblue" points="136.158,-147.571 132.658,-137.571 129.158,-147.571 136.158,-147.571"/>
</g>
<!-- Node13&#45;&gt;Node3 -->
<g id="edge26" class="edge"><title>Node13&#45;&gt;Node3</title>
<path fill="none" stroke="midnightblue" d="M215.115,-492.318C216.241,-475.778 220.143,-443.434 233.658,-420 264.296,-366.88 298.763,-375.719 334.658,-326 348.717,-306.527 359.447,-281.023 365.864,-263.452"/>
<polygon fill="midnightblue" stroke="midnightblue" points="369.29,-264.257 369.292,-253.662 362.683,-261.943 369.29,-264.257"/>
</g>
<!-- Node14 -->
<g id="node28" class="node"><title>Node14</title>
<a xlink:href="MojAtomicInt_8h.htm" target="_top" xlink:title="core/MojAtomicInt.h">
<polygon fill="white" stroke="black" points="29.6584,-297.5 29.6584,-318.5 139.658,-318.5 139.658,-297.5 29.6584,-297.5"/>
<text text-anchor="middle" x="84.6584" y="-305.5" font-family="Helvetica,sans-Serif" font-size="10.00">core/MojAtomicInt.h</text>
</a>
</g>
<!-- Node13&#45;&gt;Node14 -->
<g id="edge28" class="edge"><title>Node13&#45;&gt;Node14</title>
<path fill="none" stroke="midnightblue" d="M202.51,-492.406C180.918,-472.97 135.687,-429.42 109.658,-384 99.614,-366.473 92.9134,-344.331 88.9993,-328.475"/>
<polygon fill="midnightblue" stroke="midnightblue" points="92.3876,-327.592 86.7277,-318.636 85.567,-329.167 92.3876,-327.592"/>
</g>
<!-- Node15 -->
<g id="node31" class="node"><title>Node15</title>
<a xlink:href="MojAutoPtr_8h.htm" target="_top" xlink:title="core/MojAutoPtr.h">
<polygon fill="white" stroke="black" points="118.158,-362.5 118.158,-383.5 219.158,-383.5 219.158,-362.5 118.158,-362.5"/>
<text text-anchor="middle" x="168.658" y="-370.5" font-family="Helvetica,sans-Serif" font-size="10.00">core/MojAutoPtr.h</text>
</a>
</g>
<!-- Node13&#45;&gt;Node15 -->
<g id="edge32" class="edge"><title>Node13&#45;&gt;Node15</title>
<path fill="none" stroke="midnightblue" d="M210.894,-492.362C203.245,-470.746 185.775,-421.372 175.866,-393.369"/>
<polygon fill="midnightblue" stroke="midnightblue" points="179.11,-392.045 172.475,-383.785 172.511,-394.38 179.11,-392.045"/>
</g>
<!-- Node17 -->
<g id="node38" class="node"><title>Node17</title>
<a xlink:href="MojRefCountInternal_8h.htm" target="_top" xlink:title="core/internal/MojRefCount\lInternal.h">
<polygon fill="white" stroke="black" points="424.658,-421 424.658,-455 564.658,-455 564.658,-421 424.658,-421"/>
<text text-anchor="start" x="432.658" y="-442" font-family="Helvetica,sans-Serif" font-size="10.00">core/internal/MojRefCount</text>
<text text-anchor="middle" x="494.658" y="-429" font-family="Helvetica,sans-Serif" font-size="10.00">Internal.h</text>
</a>
</g>
<!-- Node13&#45;&gt;Node17 -->
<g id="edge42" class="edge"><title>Node13&#45;&gt;Node17</title>
<path fill="none" stroke="midnightblue" d="M259.956,-492.484C301.674,-482.8 364.511,-468.213 414.671,-456.569"/>
<polygon fill="midnightblue" stroke="midnightblue" points="415.574,-459.952 424.524,-454.281 413.991,-453.133 415.574,-459.952"/>
</g>
<!-- Node14&#45;&gt;Node3 -->
<g id="edge30" class="edge"><title>Node14&#45;&gt;Node3</title>
<path fill="none" stroke="midnightblue" d="M123.992,-297.421C133.671,-294.906 144.023,-292.29 153.658,-290 206.307,-277.49 266.43,-264.692 310.344,-255.616"/>
<polygon fill="midnightblue" stroke="midnightblue" points="311.212,-259.011 320.3,-253.565 309.799,-252.155 311.212,-259.011"/>
</g>
<!-- Node15&#45;&gt;Node3 -->
<g id="edge34" class="edge"><title>Node15&#45;&gt;Node3</title>
<path fill="none" stroke="midnightblue" d="M167.7,-362.482C166.724,-344.974 167.495,-309.825 186.658,-290 203.372,-272.709 260.412,-259.97 306.967,-252.15"/>
<polygon fill="midnightblue" stroke="midnightblue" points="307.72,-255.574 317.025,-250.508 306.592,-248.665 307.72,-255.574"/>
</g>
<!-- Node15&#45;&gt;Node10 -->
<g id="edge38" class="edge"><title>Node15&#45;&gt;Node10</title>
<path fill="none" stroke="midnightblue" d="M117.931,-362.533C80.5695,-353.82 34.0345,-340.527 20.6584,-326 -4.97508,-298.161 1.65836,-280.843 1.65836,-243 1.65836,-243 1.65836,-243 1.65836,-127 1.65836,-81.8971 45.7367,-46.163 76.2234,-26.8416"/>
<polygon fill="midnightblue" stroke="midnightblue" points="78.0875,-29.8043 84.7989,-21.6063 74.44,-23.8297 78.0875,-29.8043"/>
</g>
<!-- Node15&#45;&gt;Node14 -->
<g id="edge36" class="edge"><title>Node15&#45;&gt;Node14</title>
<path fill="none" stroke="midnightblue" d="M154.787,-362.267C141.577,-352.044 121.495,-336.504 106.201,-324.67"/>
<polygon fill="midnightblue" stroke="midnightblue" points="108.322,-321.886 98.2711,-318.534 104.038,-327.422 108.322,-321.886"/>
</g>
<!-- Node16 -->
<g id="node36" class="node"><title>Node16</title>
<a xlink:href="MojAutoPtrInternal_8h.htm" target="_top" xlink:title="core/internal/MojAutoPtr\lInternal.h">
<polygon fill="white" stroke="black" points="195.158,-291 195.158,-325 326.158,-325 326.158,-291 195.158,-291"/>
<text text-anchor="start" x="203.158" y="-312" font-family="Helvetica,sans-Serif" font-size="10.00">core/internal/MojAutoPtr</text>
<text text-anchor="middle" x="260.658" y="-299" font-family="Helvetica,sans-Serif" font-size="10.00">Internal.h</text>
</a>
</g>
<!-- Node15&#45;&gt;Node16 -->
<g id="edge40" class="edge"><title>Node15&#45;&gt;Node16</title>
<path fill="none" stroke="midnightblue" d="M183.85,-362.267C195.796,-353.827 212.872,-341.762 227.891,-331.151"/>
<polygon fill="midnightblue" stroke="midnightblue" points="230.294,-333.739 236.441,-325.11 226.254,-328.022 230.294,-333.739"/>
</g>
<!-- Node18 -->
<g id="node40" class="node"><title>Node18</title>
<a xlink:href="MojUtilInternal_8h.htm" target="_top" xlink:title="core/internal/MojUtilInternal.h">
<polygon fill="white" stroke="black" points="419.158,-362.5 419.158,-383.5 574.158,-383.5 574.158,-362.5 419.158,-362.5"/>
<text text-anchor="middle" x="496.658" y="-370.5" font-family="Helvetica,sans-Serif" font-size="10.00">core/internal/MojUtilInternal.h</text>
</a>
</g>
<!-- Node17&#45;&gt;Node18 -->
<g id="edge44" class="edge"><title>Node17&#45;&gt;Node18</title>
<path fill="none" stroke="midnightblue" d="M495.184,-420.922C495.438,-412.67 495.745,-402.692 496.013,-393.982"/>
<polygon fill="midnightblue" stroke="midnightblue" points="499.515,-393.955 496.324,-383.852 492.518,-393.74 499.515,-393.955"/>
</g>
<!-- Node19 -->
<g id="node42" class="node"><title>Node19</title>
<a xlink:href="MojComp_8h.htm" target="_top" xlink:title="core/MojComp.h">
<polygon fill="white" stroke="black" points="449.658,-297.5 449.658,-318.5 543.658,-318.5 543.658,-297.5 449.658,-297.5"/>
<text text-anchor="middle" x="496.658" y="-305.5" font-family="Helvetica,sans-Serif" font-size="10.00">core/MojComp.h</text>
</a>
</g>
<!-- Node18&#45;&gt;Node19 -->
<g id="edge46" class="edge"><title>Node18&#45;&gt;Node19</title>
<path fill="none" stroke="midnightblue" d="M496.658,-362.267C496.658,-353.18 496.658,-339.892 496.658,-328.74"/>
<polygon fill="midnightblue" stroke="midnightblue" points="500.158,-328.534 496.658,-318.534 493.158,-328.534 500.158,-328.534"/>
</g>
<!-- Node19&#45;&gt;Node3 -->
<g id="edge48" class="edge"><title>Node19&#45;&gt;Node3</title>
<path fill="none" stroke="midnightblue" d="M476.46,-297.412C456.193,-286.788 424.773,-270.318 401.808,-258.28"/>
<polygon fill="midnightblue" stroke="midnightblue" points="403.33,-255.126 392.848,-253.584 400.08,-261.326 403.33,-255.126"/>
</g>
<!-- Node20&#45;&gt;Node3 -->
<g id="edge52" class="edge"><title>Node20&#45;&gt;Node3</title>
<path fill="none" stroke="midnightblue" d="M769.661,-492.484C773.733,-476.166 779.348,-444.114 768.658,-420 753.101,-384.906 736.57,-383.335 704.658,-362 620.12,-305.481 505.537,-272.211 435.474,-255.812"/>
<polygon fill="midnightblue" stroke="midnightblue" points="435.998,-252.341 425.469,-253.514 434.432,-259.163 435.998,-252.341"/>
</g>
<!-- Node20&#45;&gt;Node19 -->
<g id="edge54" class="edge"><title>Node20&#45;&gt;Node19</title>
<path fill="none" stroke="midnightblue" d="M767.092,-492.263C767.214,-475.063 765.025,-441.125 747.658,-420 698.632,-360.364 611.325,-331.373 553.703,-318.111"/>
<polygon fill="midnightblue" stroke="midnightblue" points="554.179,-314.632 543.659,-315.89 552.667,-321.467 554.179,-314.632"/>
</g>
<!-- Node21 -->
<g id="node49" class="node"><title>Node21</title>
<a xlink:href="MojRbTreeBase_8h.htm" target="_top" xlink:title="core/internal/MojRbTreeBase.h">
<polygon fill="white" stroke="black" points="242.658,-427.5 242.658,-448.5 406.658,-448.5 406.658,-427.5 242.658,-427.5"/>
<text text-anchor="middle" x="324.658" y="-435.5" font-family="Helvetica,sans-Serif" font-size="10.00">core/internal/MojRbTreeBase.h</text>
</a>
</g>
<!-- Node20&#45;&gt;Node21 -->
<g id="edge56" class="edge"><title>Node20&#45;&gt;Node21</title>
<path fill="none" stroke="midnightblue" d="M725.466,-498.326C659.763,-490.682 527.263,-474.491 415.658,-456 405.768,-454.361 395.307,-452.455 385.137,-450.509"/>
<polygon fill="midnightblue" stroke="midnightblue" points="385.581,-447.03 375.097,-448.557 384.246,-453.901 385.581,-447.03"/>
</g>
<!-- Node22 -->
<g id="node53" class="node"><title>Node22</title>
<a xlink:href="MojSetInternal_8h.htm" target="_top" xlink:title="core/internal/MojSetInternal.h">
<polygon fill="white" stroke="black" points="582.658,-427.5 582.658,-448.5 738.658,-448.5 738.658,-427.5 582.658,-427.5"/>
<text text-anchor="middle" x="660.658" y="-435.5" font-family="Helvetica,sans-Serif" font-size="10.00">core/internal/MojSetInternal.h</text>
</a>
</g>
<!-- Node20&#45;&gt;Node22 -->
<g id="edge62" class="edge"><title>Node20&#45;&gt;Node22</title>
<path fill="none" stroke="midnightblue" d="M749.155,-492.267C732.098,-481.807 705.964,-465.782 686.513,-453.854"/>
<polygon fill="midnightblue" stroke="midnightblue" points="688.191,-450.778 677.836,-448.534 684.532,-456.745 688.191,-450.778"/>
</g>
<!-- Node21&#45;&gt;Node3 -->
<g id="edge58" class="edge"><title>Node21&#45;&gt;Node3</title>
<path fill="none" stroke="midnightblue" d="M330.088,-427.218C339.651,-407.637 359.278,-364.676 367.658,-326 372.154,-305.252 373.134,-280.951 373.155,-264.026"/>
<polygon fill="midnightblue" stroke="midnightblue" points="376.651,-263.585 373.047,-253.622 369.651,-263.658 376.651,-263.585"/>
</g>
<!-- Node21&#45;&gt;Node15 -->
<g id="edge60" class="edge"><title>Node21&#45;&gt;Node15</title>
<path fill="none" stroke="midnightblue" d="M299.247,-427.412C273.184,-416.552 232.458,-399.583 203.42,-387.484"/>
<polygon fill="midnightblue" stroke="midnightblue" points="204.636,-384.199 194.059,-383.584 201.943,-390.66 204.636,-384.199"/>
</g>
</g>
</svg>
