<?xml version="1.0" encoding="UTF-8" standalone="no"?>
<!DOCTYPE svg PUBLIC "-//W3C//DTD SVG 1.1//EN"
 "http://www.w3.org/Graphics/SVG/1.1/DTD/svg11.dtd">
<!-- Generated by graphviz version 2.26.3 (20100126.1600)
 -->
<!-- Title: MojDbTextCollator.h Pages: 1 -->
<svg width="1117pt" height="710pt"
 viewBox="0.00 0.00 1117.00 710.00" xmlns="http://www.w3.org/2000/svg" xmlns:xlink="http://www.w3.org/1999/xlink">
<g id="graph1" class="graph" transform="scale(1 1) rotate(0) translate(4 706)">
<title>MojDbTextCollator.h</title>
<polygon fill="white" stroke="white" points="-4,5 -4,-706 1114,-706 1114,5 -4,5"/>
<!-- Node1 -->
<g id="node1" class="node"><title>Node1</title>
<polygon fill="#bfbfbf" stroke="black" points="333.5,-680.5 333.5,-701.5 446.5,-701.5 446.5,-680.5 333.5,-680.5"/>
<text text-anchor="middle" x="390" y="-688.5" font-family="Helvetica,sans-Serif" font-size="10.00">MojDbTextCollator.h</text>
</g>
<!-- Node2 -->
<g id="node3" class="node"><title>Node2</title>
<a xlink:href="MojDbDefs_8h.htm" target="_top" xlink:title="db/MojDbDefs.h">
<polygon fill="white" stroke="black" points="-0.5,-557.5 -0.5,-578.5 90.5,-578.5 90.5,-557.5 -0.5,-557.5"/>
<text text-anchor="middle" x="45" y="-565.5" font-family="Helvetica,sans-Serif" font-size="10.00">db/MojDbDefs.h</text>
</a>
</g>
<!-- Node1&#45;&gt;Node2 -->
<g id="edge2" class="edge"><title>Node1&#45;&gt;Node2</title>
<path fill="none" stroke="midnightblue" d="M333.05,-684.318C287.476,-677.697 222.555,-665.372 169,-644 130.738,-628.731 90.8796,-602.054 67.0013,-584.713"/>
<polygon fill="midnightblue" stroke="midnightblue" points="68.794,-581.686 58.6687,-578.567 64.6389,-587.32 68.794,-581.686"/>
</g>
<!-- Node13 -->
<g id="node25" class="node"><title>Node13</title>
<a xlink:href="MojDbTextUtils_8h.htm" target="_top" xlink:title="db/MojDbTextUtils.h">
<polygon fill="white" stroke="black" points="178,-622.5 178,-643.5 288,-643.5 288,-622.5 178,-622.5"/>
<text text-anchor="middle" x="233" y="-630.5" font-family="Helvetica,sans-Serif" font-size="10.00">db/MojDbTextUtils.h</text>
</a>
</g>
<!-- Node1&#45;&gt;Node13 -->
<g id="edge24" class="edge"><title>Node1&#45;&gt;Node13</title>
<path fill="none" stroke="midnightblue" d="M361.568,-680.497C336.195,-671.123 298.843,-657.324 270.93,-647.012"/>
<polygon fill="midnightblue" stroke="midnightblue" points="272.078,-643.705 261.485,-643.523 269.652,-650.272 272.078,-643.705"/>
</g>
<!-- Node16 -->
<g id="node34" class="node"><title>Node16</title>
<a xlink:href="MojRefCount_8h.htm" target="_top" xlink:title="core/MojRefCount.h">
<polygon fill="white" stroke="black" points="335,-492.5 335,-513.5 445,-513.5 445,-492.5 335,-492.5"/>
<text text-anchor="middle" x="390" y="-500.5" font-family="Helvetica,sans-Serif" font-size="10.00">core/MojRefCount.h</text>
</a>
</g>
<!-- Node1&#45;&gt;Node16 -->
<g id="edge90" class="edge"><title>Node1&#45;&gt;Node16</title>
<path fill="none" stroke="midnightblue" d="M390,-680.354C390,-650.172 390,-563.656 390,-523.693"/>
<polygon fill="midnightblue" stroke="midnightblue" points="393.5,-523.53 390,-513.53 386.5,-523.53 393.5,-523.53"/>
</g>
<!-- Node25 -->
<g id="node60" class="node"><title>Node25</title>
<a xlink:href="MojHashMap_8h.htm" target="_top" xlink:title="core/MojHashMap.h">
<polygon fill="white" stroke="black" points="521,-622.5 521,-643.5 633,-643.5 633,-622.5 521,-622.5"/>
<text text-anchor="middle" x="577" y="-630.5" font-family="Helvetica,sans-Serif" font-size="10.00">core/MojHashMap.h</text>
</a>
</g>
<!-- Node1&#45;&gt;Node25 -->
<g id="edge70" class="edge"><title>Node1&#45;&gt;Node25</title>
<path fill="none" stroke="midnightblue" d="M423.864,-680.497C454.482,-671 499.743,-656.962 533.124,-646.609"/>
<polygon fill="midnightblue" stroke="midnightblue" points="534.558,-649.828 543.072,-643.523 532.484,-643.143 534.558,-649.828"/>
</g>
<!-- Node29 -->
<g id="node75" class="node"><title>Node29</title>
<a xlink:href="MojThread_8h.htm" target="_top" xlink:title="core/MojThread.h">
<polygon fill="white" stroke="black" points="962.5,-557.5 962.5,-578.5 1063.5,-578.5 1063.5,-557.5 962.5,-557.5"/>
<text text-anchor="middle" x="1013" y="-565.5" font-family="Helvetica,sans-Serif" font-size="10.00">core/MojThread.h</text>
</a>
</g>
<!-- Node1&#45;&gt;Node29 -->
<g id="edge92" class="edge"><title>Node1&#45;&gt;Node29</title>
<path fill="none" stroke="midnightblue" d="M446.602,-680.738C497.711,-671.403 574.957,-657.118 642,-644 751.847,-622.507 879.666,-595.99 952.975,-580.636"/>
<polygon fill="midnightblue" stroke="midnightblue" points="953.881,-584.022 962.95,-578.545 952.445,-577.171 953.881,-584.022"/>
</g>
<!-- Node3 -->
<g id="node5" class="node"><title>Node3</title>
<a xlink:href="MojCoreDefs_8h.htm" target="_top" xlink:title="core/MojCoreDefs.h">
<polygon fill="white" stroke="black" points="396.5,-232.5 396.5,-253.5 507.5,-253.5 507.5,-232.5 396.5,-232.5"/>
<text text-anchor="middle" x="452" y="-240.5" font-family="Helvetica,sans-Serif" font-size="10.00">core/MojCoreDefs.h</text>
</a>
</g>
<!-- Node2&#45;&gt;Node3 -->
<g id="edge4" class="edge"><title>Node2&#45;&gt;Node3</title>
<path fill="none" stroke="midnightblue" d="M39.269,-557.217C28.2086,-535.372 5,-484.047 5,-438 5,-438 5,-438 5,-366 5,-312.276 49.6458,-311.225 99,-290 149.262,-268.385 298.759,-254.192 386.247,-247.49"/>
<polygon fill="midnightblue" stroke="midnightblue" points="386.629,-250.972 396.338,-246.73 386.103,-243.991 386.629,-250.972"/>
</g>
<!-- Node4 -->
<g id="node7" class="node"><title>Node4</title>
<a xlink:href="MojConfig_8h.htm" target="_top" xlink:title="core/internal/MojConfig.h">
<polygon fill="white" stroke="black" points="607.5,-174.5 607.5,-195.5 742.5,-195.5 742.5,-174.5 607.5,-174.5"/>
<text text-anchor="middle" x="675" y="-182.5" font-family="Helvetica,sans-Serif" font-size="10.00">core/internal/MojConfig.h</text>
</a>
</g>
<!-- Node3&#45;&gt;Node4 -->
<g id="edge6" class="edge"><title>Node3&#45;&gt;Node4</title>
<path fill="none" stroke="midnightblue" d="M492.384,-232.497C529.526,-222.836 584.737,-208.477 624.723,-198.077"/>
<polygon fill="midnightblue" stroke="midnightblue" points="625.744,-201.428 634.541,-195.523 623.982,-194.653 625.744,-201.428"/>
</g>
<!-- Node5 -->
<g id="node9" class="node"><title>Node5</title>
<a xlink:href="MojNew_8h.htm" target="_top" xlink:title="core/internal/MojNew.h">
<polygon fill="white" stroke="black" points="269.5,-174.5 269.5,-195.5 394.5,-195.5 394.5,-174.5 269.5,-174.5"/>
<text text-anchor="middle" x="332" y="-182.5" font-family="Helvetica,sans-Serif" font-size="10.00">core/internal/MojNew.h</text>
</a>
</g>
<!-- Node3&#45;&gt;Node5 -->
<g id="edge8" class="edge"><title>Node3&#45;&gt;Node5</title>
<path fill="none" stroke="midnightblue" d="M430.269,-232.497C411.526,-223.438 384.233,-210.246 363.164,-200.063"/>
<polygon fill="midnightblue" stroke="midnightblue" points="364.502,-196.822 353.975,-195.621 361.455,-203.124 364.502,-196.822"/>
</g>
<!-- Node7 -->
<g id="node13" class="node"><title>Node7</title>
<a xlink:href="MojErr_8h.htm" target="_top" xlink:title="core/MojErr.h">
<polygon fill="white" stroke="black" points="412,-174.5 412,-195.5 492,-195.5 492,-174.5 412,-174.5"/>
<text text-anchor="middle" x="452" y="-182.5" font-family="Helvetica,sans-Serif" font-size="10.00">core/MojErr.h</text>
</a>
</g>
<!-- Node3&#45;&gt;Node7 -->
<g id="edge12" class="edge"><title>Node3&#45;&gt;Node7</title>
<path fill="none" stroke="midnightblue" d="M452,-232.362C452,-224.922 452,-214.743 452,-205.728"/>
<polygon fill="midnightblue" stroke="midnightblue" points="455.5,-205.571 452,-195.571 448.5,-205.571 455.5,-205.571"/>
</g>
<!-- Node11 -->
<g id="node21" class="node"><title>Node11</title>
<a xlink:href="MojOs_8h.htm" target="_top" xlink:title="core/MojOs.h">
<polygon fill="white" stroke="black" points="510,-174.5 510,-195.5 590,-195.5 590,-174.5 510,-174.5"/>
<text text-anchor="middle" x="550" y="-182.5" font-family="Helvetica,sans-Serif" font-size="10.00">core/MojOs.h</text>
</a>
</g>
<!-- Node3&#45;&gt;Node11 -->
<g id="edge20" class="edge"><title>Node3&#45;&gt;Node11</title>
<path fill="none" stroke="midnightblue" d="M469.975,-232.362C484.894,-223.532 506.333,-210.844 523.266,-200.822"/>
<polygon fill="midnightblue" stroke="midnightblue" points="525.316,-203.676 532.139,-195.571 521.751,-197.652 525.316,-203.676"/>
</g>
<!-- Node6 -->
<g id="node11" class="node"><title>Node6</title>
<polygon fill="white" stroke="#bfbfbf" points="314,-116.5 314,-137.5 350,-137.5 350,-116.5 314,-116.5"/>
<text text-anchor="middle" x="332" y="-124.5" font-family="Helvetica,sans-Serif" font-size="10.00">new</text>
</g>
<!-- Node5&#45;&gt;Node6 -->
<g id="edge10" class="edge"><title>Node5&#45;&gt;Node6</title>
<path fill="none" stroke="midnightblue" d="M332,-174.362C332,-166.922 332,-156.743 332,-147.728"/>
<polygon fill="midnightblue" stroke="midnightblue" points="335.5,-147.571 332,-137.571 328.5,-147.571 335.5,-147.571"/>
</g>
<!-- Node8 -->
<g id="node15" class="node"><title>Node8</title>
<a xlink:href="MojLog_8h.htm" target="_top" xlink:title="core/MojLog.h">
<polygon fill="white" stroke="black" points="410,-116.5 410,-137.5 494,-137.5 494,-116.5 410,-116.5"/>
<text text-anchor="middle" x="452" y="-124.5" font-family="Helvetica,sans-Serif" font-size="10.00">core/MojLog.h</text>
</a>
</g>
<!-- Node7&#45;&gt;Node8 -->
<g id="edge14" class="edge"><title>Node7&#45;&gt;Node8</title>
<path fill="none" stroke="midnightblue" d="M452,-174.362C452,-166.922 452,-156.743 452,-147.728"/>
<polygon fill="midnightblue" stroke="midnightblue" points="455.5,-147.571 452,-137.571 448.5,-147.571 455.5,-147.571"/>
</g>
<!-- Node9 -->
<g id="node17" class="node"><title>Node9</title>
<a xlink:href="MojListEntry_8h.htm" target="_top" xlink:title="core/MojListEntry.h">
<polygon fill="white" stroke="black" points="525.5,-58.5 525.5,-79.5 632.5,-79.5 632.5,-58.5 525.5,-58.5"/>
<text text-anchor="middle" x="579" y="-66.5" font-family="Helvetica,sans-Serif" font-size="10.00">core/MojListEntry.h</text>
</a>
</g>
<!-- Node8&#45;&gt;Node9 -->
<g id="edge16" class="edge"><title>Node8&#45;&gt;Node9</title>
<path fill="none" stroke="midnightblue" d="M474.999,-116.497C495.013,-107.356 524.241,-94.0082 546.619,-83.7883"/>
<polygon fill="midnightblue" stroke="midnightblue" points="548.101,-86.9592 555.743,-79.6212 545.193,-80.5918 548.101,-86.9592"/>
</g>
<!-- Node10 -->
<g id="node19" class="node"><title>Node10</title>
<a xlink:href="MojNoCopy_8h.htm" target="_top" xlink:title="core/MojNoCopy.h">
<polygon fill="white" stroke="black" points="631,-0.5 631,-21.5 735,-21.5 735,-0.5 631,-0.5"/>
<text text-anchor="middle" x="683" y="-8.5" font-family="Helvetica,sans-Serif" font-size="10.00">core/MojNoCopy.h</text>
</a>
</g>
<!-- Node9&#45;&gt;Node10 -->
<g id="edge18" class="edge"><title>Node9&#45;&gt;Node10</title>
<path fill="none" stroke="midnightblue" d="M598.075,-58.3619C614.055,-49.4502 637.081,-36.6087 655.127,-26.5447"/>
<polygon fill="midnightblue" stroke="midnightblue" points="657.017,-29.4982 664.046,-21.5707 653.607,-23.3846 657.017,-29.4982"/>
</g>
<!-- Node12 -->
<g id="node23" class="node"><title>Node12</title>
<a xlink:href="MojOsInternal_8h.htm" target="_top" xlink:title="core/internal/MojOsInternal.h">
<polygon fill="white" stroke="black" points="512,-116.5 512,-137.5 666,-137.5 666,-116.5 512,-116.5"/>
<text text-anchor="middle" x="589" y="-124.5" font-family="Helvetica,sans-Serif" font-size="10.00">core/internal/MojOsInternal.h</text>
</a>
</g>
<!-- Node11&#45;&gt;Node12 -->
<g id="edge22" class="edge"><title>Node11&#45;&gt;Node12</title>
<path fill="none" stroke="midnightblue" d="M557.153,-174.362C562.486,-166.431 569.911,-155.389 576.251,-145.961"/>
<polygon fill="midnightblue" stroke="midnightblue" points="579.217,-147.822 581.892,-137.571 573.408,-143.916 579.217,-147.822"/>
</g>
<!-- Node13&#45;&gt;Node2 -->
<g id="edge26" class="edge"><title>Node13&#45;&gt;Node2</title>
<path fill="none" stroke="midnightblue" d="M202.376,-622.412C170.421,-611.364 120.175,-593.991 85.0798,-581.857"/>
<polygon fill="midnightblue" stroke="midnightblue" points="86.2055,-578.543 75.6108,-578.584 83.9181,-585.159 86.2055,-578.543"/>
</g>
<!-- Node14 -->
<g id="node28" class="node"><title>Node14</title>
<a xlink:href="MojVector_8h.htm" target="_top" xlink:title="core/MojVector.h">
<polygon fill="white" stroke="black" points="219.5,-557.5 219.5,-578.5 316.5,-578.5 316.5,-557.5 219.5,-557.5"/>
<text text-anchor="middle" x="268" y="-565.5" font-family="Helvetica,sans-Serif" font-size="10.00">core/MojVector.h</text>
</a>
</g>
<!-- Node13&#45;&gt;Node14 -->
<g id="edge28" class="edge"><title>Node13&#45;&gt;Node14</title>
<path fill="none" stroke="midnightblue" d="M238.78,-622.267C243.876,-612.801 251.428,-598.777 257.577,-587.357"/>
<polygon fill="midnightblue" stroke="midnightblue" points="260.669,-588.998 262.328,-578.534 254.505,-585.679 260.669,-588.998"/>
</g>
<!-- Node24 -->
<g id="node58" class="node"><title>Node24</title>
<polygon fill="white" stroke="#bfbfbf" points="107.5,-557.5 107.5,-578.5 202.5,-578.5 202.5,-557.5 107.5,-557.5"/>
<text text-anchor="middle" x="155" y="-565.5" font-family="Helvetica,sans-Serif" font-size="10.00">unicode/utypes.h</text>
</g>
<!-- Node13&#45;&gt;Node24 -->
<g id="edge68" class="edge"><title>Node13&#45;&gt;Node24</title>
<path fill="none" stroke="midnightblue" d="M220.12,-622.267C207.966,-612.139 189.55,-596.792 175.399,-585"/>
<polygon fill="midnightblue" stroke="midnightblue" points="177.563,-582.247 167.64,-578.534 173.082,-587.624 177.563,-582.247"/>
</g>
<!-- Node14&#45;&gt;Node3 -->
<g id="edge30" class="edge"><title>Node14&#45;&gt;Node3</title>
<path fill="none" stroke="midnightblue" d="M234.866,-557.462C227.046,-554.996 218.733,-552.391 211,-550 158.209,-533.68 136.124,-547.262 92,-514 59.9074,-489.808 43,-478.19 43,-438 43,-438 43,-438 43,-366 43,-295.194 270.638,-261.577 386.261,-249.07"/>
<polygon fill="midnightblue" stroke="midnightblue" points="386.839,-252.528 396.415,-247.994 386.102,-245.567 386.839,-252.528"/>
</g>
<!-- Node15 -->
<g id="node31" class="node"><title>Node15</title>
<a xlink:href="MojComp_8h.htm" target="_top" xlink:title="core/MojComp.h">
<polygon fill="white" stroke="black" points="222,-290.5 222,-311.5 316,-311.5 316,-290.5 222,-290.5"/>
<text text-anchor="middle" x="269" y="-298.5" font-family="Helvetica,sans-Serif" font-size="10.00">core/MojComp.h</text>
</a>
</g>
<!-- Node14&#45;&gt;Node15 -->
<g id="edge32" class="edge"><title>Node14&#45;&gt;Node15</title>
<path fill="none" stroke="midnightblue" d="M275.984,-557.321C286.74,-541.526 302.912,-511.684 288,-492 252.315,-444.894 195.685,-503.106 160,-456 147.762,-439.846 155.808,-364.972 168,-348 178.996,-332.693 196.257,-322.229 213.419,-315.139"/>
<polygon fill="midnightblue" stroke="midnightblue" points="214.797,-318.36 222.903,-311.538 212.312,-311.815 214.797,-318.36"/>
</g>
<!-- Node14&#45;&gt;Node16 -->
<g id="edge36" class="edge"><title>Node14&#45;&gt;Node16</title>
<path fill="none" stroke="midnightblue" d="M287.873,-557.412C307.724,-546.836 338.451,-530.465 361.019,-518.441"/>
<polygon fill="midnightblue" stroke="midnightblue" points="362.956,-521.375 370.136,-513.584 359.664,-515.197 362.956,-521.375"/>
</g>
<!-- Node22 -->
<g id="node52" class="node"><title>Node22</title>
<a xlink:href="MojUtil_8h.htm" target="_top" xlink:title="core/MojUtil.h">
<polygon fill="white" stroke="black" points="326.5,-427.5 326.5,-448.5 407.5,-448.5 407.5,-427.5 326.5,-427.5"/>
<text text-anchor="middle" x="367" y="-435.5" font-family="Helvetica,sans-Serif" font-size="10.00">core/MojUtil.h</text>
</a>
</g>
<!-- Node14&#45;&gt;Node22 -->
<g id="edge60" class="edge"><title>Node14&#45;&gt;Node22</title>
<path fill="none" stroke="midnightblue" d="M234.534,-557.377C185.675,-541.849 100.515,-514.706 100,-514 94.2403,-506.099 93.6743,-499.456 100,-492 131.765,-454.559 270.523,-468.521 318,-456 322.408,-454.838 326.975,-453.437 331.469,-451.937"/>
<polygon fill="midnightblue" stroke="midnightblue" points="332.828,-455.169 341.099,-448.548 330.504,-448.566 332.828,-455.169"/>
</g>
<!-- Node23 -->
<g id="node56" class="node"><title>Node23</title>
<a xlink:href="MojVectorInternal_8h.htm" target="_top" xlink:title="core/internal/MojVectorInternal.h">
<polygon fill="white" stroke="black" points="108.5,-492.5 108.5,-513.5 279.5,-513.5 279.5,-492.5 108.5,-492.5"/>
<text text-anchor="middle" x="194" y="-500.5" font-family="Helvetica,sans-Serif" font-size="10.00">core/internal/MojVectorInternal.h</text>
</a>
</g>
<!-- Node14&#45;&gt;Node23 -->
<g id="edge66" class="edge"><title>Node14&#45;&gt;Node23</title>
<path fill="none" stroke="midnightblue" d="M255.78,-557.267C244.358,-547.233 227.104,-532.078 213.731,-520.331"/>
<polygon fill="midnightblue" stroke="midnightblue" points="215.815,-517.504 205.992,-513.534 211.196,-522.763 215.815,-517.504"/>
</g>
<!-- Node15&#45;&gt;Node3 -->
<g id="edge34" class="edge"><title>Node15&#45;&gt;Node3</title>
<path fill="none" stroke="midnightblue" d="M302.14,-290.497C332.103,-281 376.396,-266.962 409.062,-256.609"/>
<polygon fill="midnightblue" stroke="midnightblue" points="410.323,-259.881 418.798,-253.523 408.208,-253.208 410.323,-259.881"/>
</g>
<!-- Node16&#45;&gt;Node3 -->
<g id="edge38" class="edge"><title>Node16&#45;&gt;Node3</title>
<path fill="none" stroke="midnightblue" d="M334.978,-495.443C270.518,-486.03 171.05,-469.537 160,-456 149.21,-442.782 158.721,-370.881 168,-348 180.261,-317.765 185.229,-307.125 213,-290 241.412,-272.48 325.669,-258.695 386.091,-250.701"/>
<polygon fill="midnightblue" stroke="midnightblue" points="386.857,-254.131 396.323,-249.372 385.956,-247.189 386.857,-254.131"/>
</g>
<!-- Node17 -->
<g id="node37" class="node"><title>Node17</title>
<a xlink:href="MojAtomicInt_8h.htm" target="_top" xlink:title="core/MojAtomicInt.h">
<polygon fill="white" stroke="black" points="611,-355.5 611,-376.5 721,-376.5 721,-355.5 611,-355.5"/>
<text text-anchor="middle" x="666" y="-363.5" font-family="Helvetica,sans-Serif" font-size="10.00">core/MojAtomicInt.h</text>
</a>
</g>
<!-- Node16&#45;&gt;Node17 -->
<g id="edge40" class="edge"><title>Node16&#45;&gt;Node17</title>
<path fill="none" stroke="midnightblue" d="M411.199,-492.477C459.764,-468.371 579.221,-409.075 635.603,-381.088"/>
<polygon fill="midnightblue" stroke="midnightblue" points="637.328,-384.14 644.729,-376.559 634.215,-377.87 637.328,-384.14"/>
</g>
<!-- Node18 -->
<g id="node40" class="node"><title>Node18</title>
<a xlink:href="MojAutoPtr_8h.htm" target="_top" xlink:title="core/MojAutoPtr.h">
<polygon fill="white" stroke="black" points="615.5,-427.5 615.5,-448.5 716.5,-448.5 716.5,-427.5 615.5,-427.5"/>
<text text-anchor="middle" x="666" y="-435.5" font-family="Helvetica,sans-Serif" font-size="10.00">core/MojAutoPtr.h</text>
</a>
</g>
<!-- Node16&#45;&gt;Node18 -->
<g id="edge44" class="edge"><title>Node16&#45;&gt;Node18</title>
<path fill="none" stroke="midnightblue" d="M434.651,-492.484C482.852,-481.133 559.658,-463.044 611.412,-450.856"/>
<polygon fill="midnightblue" stroke="midnightblue" points="612.482,-454.2 621.413,-448.501 610.877,-447.386 612.482,-454.2"/>
</g>
<!-- Node20 -->
<g id="node47" class="node"><title>Node20</title>
<a xlink:href="MojRefCountInternal_8h.htm" target="_top" xlink:title="core/internal/MojRefCount\lInternal.h">
<polygon fill="white" stroke="black" points="169,-421 169,-455 309,-455 309,-421 169,-421"/>
<text text-anchor="start" x="177" y="-442" font-family="Helvetica,sans-Serif" font-size="10.00">core/internal/MojRefCount</text>
<text text-anchor="middle" x="239" y="-429" font-family="Helvetica,sans-Serif" font-size="10.00">Internal.h</text>
</a>
</g>
<!-- Node16&#45;&gt;Node20 -->
<g id="edge54" class="edge"><title>Node16&#45;&gt;Node20</title>
<path fill="none" stroke="midnightblue" d="M365.403,-492.412C344.489,-483.409 313.819,-470.207 287.928,-459.062"/>
<polygon fill="midnightblue" stroke="midnightblue" points="289.202,-455.8 278.633,-455.06 286.434,-462.229 289.202,-455.8"/>
</g>
<!-- Node17&#45;&gt;Node3 -->
<g id="edge42" class="edge"><title>Node17&#45;&gt;Node3</title>
<path fill="none" stroke="midnightblue" d="M647.383,-355.3C609.504,-333.528 523.321,-283.993 479.172,-258.617"/>
<polygon fill="midnightblue" stroke="midnightblue" points="480.835,-255.537 470.421,-253.588 477.347,-261.606 480.835,-255.537"/>
</g>
<!-- Node18&#45;&gt;Node3 -->
<g id="edge46" class="edge"><title>Node18&#45;&gt;Node3</title>
<path fill="none" stroke="midnightblue" d="M686.34,-427.32C701.497,-418.106 721.056,-403.249 730,-384 736.742,-369.49 739.098,-361.162 730,-348 704.013,-310.406 580.848,-274.557 507.458,-256.044"/>
<polygon fill="midnightblue" stroke="midnightblue" points="507.997,-252.571 497.447,-253.548 506.304,-259.363 507.997,-252.571"/>
</g>
<!-- Node18&#45;&gt;Node10 -->
<g id="edge50" class="edge"><title>Node18&#45;&gt;Node10</title>
<path fill="none" stroke="midnightblue" d="M687.637,-427.44C705.169,-418.013 729.576,-402.805 746,-384 773.066,-353.012 787,-342.144 787,-301 787,-301 787,-301 787,-127 787,-81.7036 742.494,-46.0291 711.711,-26.7721"/>
<polygon fill="midnightblue" stroke="midnightblue" points="713.424,-23.7181 703.052,-21.5558 709.812,-29.7141 713.424,-23.7181"/>
</g>
<!-- Node18&#45;&gt;Node17 -->
<g id="edge48" class="edge"><title>Node18&#45;&gt;Node17</title>
<path fill="none" stroke="midnightblue" d="M666,-427.376C666,-416.741 666,-400.095 666,-386.82"/>
<polygon fill="midnightblue" stroke="midnightblue" points="669.5,-386.667 666,-376.667 662.5,-386.667 669.5,-386.667"/>
</g>
<!-- Node19 -->
<g id="node45" class="node"><title>Node19</title>
<a xlink:href="MojAutoPtrInternal_8h.htm" target="_top" xlink:title="core/internal/MojAutoPtr\lInternal.h">
<polygon fill="white" stroke="black" points="462.5,-349 462.5,-383 593.5,-383 593.5,-349 462.5,-349"/>
<text text-anchor="start" x="470.5" y="-370" font-family="Helvetica,sans-Serif" font-size="10.00">core/internal/MojAutoPtr</text>
<text text-anchor="middle" x="528" y="-357" font-family="Helvetica,sans-Serif" font-size="10.00">Internal.h</text>
</a>
</g>
<!-- Node18&#45;&gt;Node19 -->
<g id="edge52" class="edge"><title>Node18&#45;&gt;Node19</title>
<path fill="none" stroke="midnightblue" d="M645.638,-427.376C625.739,-416.994 594.86,-400.883 569.731,-387.773"/>
<polygon fill="midnightblue" stroke="midnightblue" points="571.249,-384.617 560.764,-383.094 568.011,-390.823 571.249,-384.617"/>
</g>
<!-- Node21 -->
<g id="node49" class="node"><title>Node21</title>
<a xlink:href="MojUtilInternal_8h.htm" target="_top" xlink:title="core/internal/MojUtilInternal.h">
<polygon fill="white" stroke="black" points="176.5,-355.5 176.5,-376.5 331.5,-376.5 331.5,-355.5 176.5,-355.5"/>
<text text-anchor="middle" x="254" y="-363.5" font-family="Helvetica,sans-Serif" font-size="10.00">core/internal/MojUtilInternal.h</text>
</a>
</g>
<!-- Node20&#45;&gt;Node21 -->
<g id="edge56" class="edge"><title>Node20&#45;&gt;Node21</title>
<path fill="none" stroke="midnightblue" d="M242.555,-420.937C244.686,-410.707 247.411,-397.625 249.668,-386.794"/>
<polygon fill="midnightblue" stroke="midnightblue" points="253.116,-387.405 251.729,-376.901 246.263,-385.977 253.116,-387.405"/>
</g>
<!-- Node21&#45;&gt;Node15 -->
<g id="edge58" class="edge"><title>Node21&#45;&gt;Node15</title>
<path fill="none" stroke="midnightblue" d="M256.477,-355.267C258.596,-346.085 261.704,-332.615 264.294,-321.392"/>
<polygon fill="midnightblue" stroke="midnightblue" points="267.731,-322.065 266.569,-311.534 260.91,-320.491 267.731,-322.065"/>
</g>
<!-- Node22&#45;&gt;Node3 -->
<g id="edge62" class="edge"><title>Node22&#45;&gt;Node3</title>
<path fill="none" stroke="midnightblue" d="M369.983,-427.241C377.087,-402.336 396.275,-339.103 421,-290 425.843,-280.383 432.257,-270.34 437.995,-262.018"/>
<polygon fill="midnightblue" stroke="midnightblue" points="440.918,-263.947 443.848,-253.765 435.208,-259.897 440.918,-263.947"/>
</g>
<!-- Node22&#45;&gt;Node21 -->
<g id="edge64" class="edge"><title>Node22&#45;&gt;Node21</title>
<path fill="none" stroke="midnightblue" d="M350.326,-427.376C331.633,-415.465 301.104,-396.013 279.429,-382.202"/>
<polygon fill="midnightblue" stroke="midnightblue" points="281.056,-379.089 270.742,-376.667 277.295,-384.993 281.056,-379.089"/>
</g>
<!-- Node25&#45;&gt;Node3 -->
<g id="edge72" class="edge"><title>Node25&#45;&gt;Node3</title>
<path fill="none" stroke="midnightblue" d="M633.073,-622.694C704.923,-609.424 820.48,-587.839 822,-586 832.192,-573.666 824.193,-565.849 822,-550 804.605,-424.298 817.008,-347.73 704,-290 672.164,-273.737 581.041,-259.376 517.581,-250.934"/>
<polygon fill="midnightblue" stroke="midnightblue" points="518.017,-247.462 507.646,-249.631 517.106,-254.402 518.017,-247.462"/>
</g>
<!-- Node25&#45;&gt;Node15 -->
<g id="edge74" class="edge"><title>Node25&#45;&gt;Node15</title>
<path fill="none" stroke="midnightblue" d="M546.88,-622.329C528.897,-614.637 506.759,-602.662 492,-586 462.12,-552.269 472.985,-532.868 454,-492 438.755,-459.185 437.869,-448.826 416,-420 387.878,-382.932 376.425,-376.951 340,-348 325.855,-336.758 309.033,-325.537 295.313,-316.88"/>
<polygon fill="midnightblue" stroke="midnightblue" points="297.145,-313.897 286.805,-311.586 293.447,-319.841 297.145,-313.897"/>
</g>
<!-- Node26 -->
<g id="node64" class="node"><title>Node26</title>
<a xlink:href="MojHashBase_8h.htm" target="_top" xlink:title="core/internal/MojHashBase.h">
<polygon fill="white" stroke="black" points="500.5,-557.5 500.5,-578.5 653.5,-578.5 653.5,-557.5 500.5,-557.5"/>
<text text-anchor="middle" x="577" y="-565.5" font-family="Helvetica,sans-Serif" font-size="10.00">core/internal/MojHashBase.h</text>
</a>
</g>
<!-- Node25&#45;&gt;Node26 -->
<g id="edge76" class="edge"><title>Node25&#45;&gt;Node26</title>
<path fill="none" stroke="midnightblue" d="M577,-622.267C577,-613.18 577,-599.892 577,-588.74"/>
<polygon fill="midnightblue" stroke="midnightblue" points="580.5,-588.534 577,-578.534 573.5,-588.534 580.5,-588.534"/>
</g>
<!-- Node28 -->
<g id="node72" class="node"><title>Node28</title>
<a xlink:href="MojHashMapInternal_8h.htm" target="_top" xlink:title="core/internal/MojHashMap\lInternal.h">
<polygon fill="white" stroke="black" points="671,-551 671,-585 813,-585 813,-551 671,-551"/>
<text text-anchor="start" x="679" y="-572" font-family="Helvetica,sans-Serif" font-size="10.00">core/internal/MojHashMap</text>
<text text-anchor="middle" x="742" y="-559" font-family="Helvetica,sans-Serif" font-size="10.00">Internal.h</text>
</a>
</g>
<!-- Node25&#45;&gt;Node28 -->
<g id="edge88" class="edge"><title>Node25&#45;&gt;Node28</title>
<path fill="none" stroke="midnightblue" d="M603.877,-622.412C626.931,-613.33 660.833,-599.975 689.279,-588.769"/>
<polygon fill="midnightblue" stroke="midnightblue" points="690.672,-591.982 698.693,-585.06 688.106,-585.469 690.672,-591.982"/>
</g>
<!-- Node26&#45;&gt;Node3 -->
<g id="edge78" class="edge"><title>Node26&#45;&gt;Node3</title>
<path fill="none" stroke="midnightblue" d="M571.349,-557.134C558.079,-532.006 523.299,-468.333 487,-420 473.966,-402.644 462.012,-404.172 454,-384 438.045,-343.827 443.147,-291.997 447.849,-263.7"/>
<polygon fill="midnightblue" stroke="midnightblue" points="451.312,-264.221 449.651,-253.757 444.424,-262.973 451.312,-264.221"/>
</g>
<!-- Node26&#45;&gt;Node18 -->
<g id="edge80" class="edge"><title>Node26&#45;&gt;Node18</title>
<path fill="none" stroke="midnightblue" d="M577.486,-557.299C578.649,-541.737 582.597,-512.486 596,-492 606.299,-476.258 622.781,-463.212 637.166,-453.889"/>
<polygon fill="midnightblue" stroke="midnightblue" points="639.105,-456.804 645.777,-448.574 635.429,-450.848 639.105,-456.804"/>
</g>
<!-- Node27 -->
<g id="node68" class="node"><title>Node27</title>
<a xlink:href="MojHasher_8h.htm" target="_top" xlink:title="core/MojHasher.h">
<polygon fill="white" stroke="black" points="604.5,-492.5 604.5,-513.5 705.5,-513.5 705.5,-492.5 604.5,-492.5"/>
<text text-anchor="middle" x="655" y="-500.5" font-family="Helvetica,sans-Serif" font-size="10.00">core/MojHasher.h</text>
</a>
</g>
<!-- Node26&#45;&gt;Node27 -->
<g id="edge82" class="edge"><title>Node26&#45;&gt;Node27</title>
<path fill="none" stroke="midnightblue" d="M589.88,-557.267C602.034,-547.139 620.45,-531.792 634.601,-520"/>
<polygon fill="midnightblue" stroke="midnightblue" points="636.918,-522.624 642.36,-513.534 632.437,-517.247 636.918,-522.624"/>
</g>
<!-- Node27&#45;&gt;Node3 -->
<g id="edge84" class="edge"><title>Node27&#45;&gt;Node3</title>
<path fill="none" stroke="midnightblue" d="M678.639,-492.466C693.944,-484.507 713.159,-472.185 725,-456 753.874,-416.536 768.222,-391.558 746,-348 726.042,-308.88 706.069,-307.978 666,-290 618.67,-268.764 561.036,-256.816 517.508,-250.286"/>
<polygon fill="midnightblue" stroke="midnightblue" points="518.002,-246.821 507.604,-248.857 517.002,-253.749 518.002,-246.821"/>
</g>
<!-- Node27&#45;&gt;Node22 -->
<g id="edge86" class="edge"><title>Node27&#45;&gt;Node22</title>
<path fill="none" stroke="midnightblue" d="M608.408,-492.484C556.211,-480.704 471.87,-461.669 417.957,-449.501"/>
<polygon fill="midnightblue" stroke="midnightblue" points="418.455,-446.025 407.929,-447.238 416.914,-452.853 418.455,-446.025"/>
</g>
<!-- Node29&#45;&gt;Node3 -->
<g id="edge94" class="edge"><title>Node29&#45;&gt;Node3</title>
<path fill="none" stroke="midnightblue" d="M1028.42,-557.477C1055.56,-537.578 1109,-491.588 1109,-438 1109,-438 1109,-438 1109,-366 1109,-257.497 983.043,-312.974 877,-290 751.636,-262.84 601.882,-250.932 517.777,-246.06"/>
<polygon fill="midnightblue" stroke="midnightblue" points="517.784,-242.555 507.602,-245.487 517.39,-249.544 517.784,-242.555"/>
</g>
<!-- Node29&#45;&gt;Node17 -->
<g id="edge96" class="edge"><title>Node29&#45;&gt;Node17</title>
<path fill="none" stroke="midnightblue" d="M1025.69,-557.341C1042.31,-542.083 1067.59,-513.487 1052,-492 1013.88,-439.456 830.822,-397.3 731.103,-377.781"/>
<polygon fill="midnightblue" stroke="midnightblue" points="731.616,-374.316 721.133,-375.851 730.285,-381.188 731.616,-374.316"/>
</g>
<!-- Node30 -->
<g id="node79" class="node"><title>Node30</title>
<a xlink:href="MojThreadInternal_8h.htm" target="_top" xlink:title="core/internal/MojThreadInternal.h">
<polygon fill="white" stroke="black" points="868.5,-492.5 868.5,-513.5 1043.5,-513.5 1043.5,-492.5 868.5,-492.5"/>
<text text-anchor="middle" x="956" y="-500.5" font-family="Helvetica,sans-Serif" font-size="10.00">core/internal/MojThreadInternal.h</text>
</a>
</g>
<!-- Node29&#45;&gt;Node30 -->
<g id="edge98" class="edge"><title>Node29&#45;&gt;Node30</title>
<path fill="none" stroke="midnightblue" d="M1003.59,-557.267C995.038,-547.517 982.248,-532.932 972.08,-521.336"/>
<polygon fill="midnightblue" stroke="midnightblue" points="974.462,-518.745 965.237,-513.534 969.199,-523.36 974.462,-518.745"/>
</g>
<!-- Node30&#45;&gt;Node18 -->
<g id="edge100" class="edge"><title>Node30&#45;&gt;Node18</title>
<path fill="none" stroke="midnightblue" d="M909.084,-492.484C858.227,-481.085 777.064,-462.894 722.678,-450.704"/>
<polygon fill="midnightblue" stroke="midnightblue" points="723.372,-447.272 712.848,-448.501 721.841,-454.103 723.372,-447.272"/>
</g>
</g>
</svg>
