<?xml version="1.0" encoding="UTF-8" standalone="no"?>
<!DOCTYPE svg PUBLIC "-//W3C//DTD SVG 1.1//EN"
 "http://www.w3.org/Graphics/SVG/1.1/DTD/svg11.dtd">
<!-- Generated by graphviz version 2.26.3 (20100126.1600)
 -->
<!-- Title: MojDbLevelTxnIterator.h Pages: 1 -->
<svg width="698pt" height="160pt"
 viewBox="0.00 0.00 698.00 160.00" xmlns="http://www.w3.org/2000/svg" xmlns:xlink="http://www.w3.org/1999/xlink">
<g id="graph1" class="graph" transform="scale(1 1) rotate(0) translate(4 156)">
<title>MojDbLevelTxnIterator.h</title>
<polygon fill="white" stroke="white" points="-4,5 -4,-156 695,-156 695,5 -4,5"/>
<!-- Node1 -->
<g id="node1" class="node"><title>Node1</title>
<polygon fill="#bfbfbf" stroke="black" points="315.5,-130.5 315.5,-151.5 448.5,-151.5 448.5,-130.5 315.5,-130.5"/>
<text text-anchor="middle" x="382" y="-138.5" font-family="Helvetica,sans-Serif" font-size="10.00">MojDbLevelTxnIterator.h</text>
</g>
<!-- Node2 -->
<g id="node3" class="node"><title>Node2</title>
<polygon fill="white" stroke="#bfbfbf" points="0,-65.5 0,-86.5 72,-86.5 72,-65.5 0,-65.5"/>
<text text-anchor="middle" x="36" y="-73.5" font-family="Helvetica,sans-Serif" font-size="10.00">leveldb/db.h</text>
</g>
<!-- Node1&#45;&gt;Node2 -->
<g id="edge2" class="edge"><title>Node1&#45;&gt;Node2</title>
<path fill="none" stroke="midnightblue" d="M315.331,-134.951C253.727,-128.341 160.06,-115.685 81,-94 77.0948,-92.9289 73.0676,-91.6244 69.1023,-90.212"/>
<polygon fill="midnightblue" stroke="midnightblue" points="70.0686,-86.835 59.4776,-86.5509 67.5798,-93.3776 70.0686,-86.835"/>
</g>
<!-- Node3 -->
<g id="node5" class="node"><title>Node3</title>
<polygon fill="white" stroke="#bfbfbf" points="89.5,-65.5 89.5,-86.5 204.5,-86.5 204.5,-65.5 89.5,-65.5"/>
<text text-anchor="middle" x="147" y="-73.5" font-family="Helvetica,sans-Serif" font-size="10.00">leveldb/write_batch.h</text>
</g>
<!-- Node1&#45;&gt;Node3 -->
<g id="edge4" class="edge"><title>Node1&#45;&gt;Node3</title>
<path fill="none" stroke="midnightblue" d="M343.982,-130.484C303.368,-119.251 238.905,-101.421 194.863,-89.2386"/>
<polygon fill="midnightblue" stroke="midnightblue" points="195.535,-85.7931 184.963,-86.5005 193.668,-92.5398 195.535,-85.7931"/>
</g>
<!-- Node4 -->
<g id="node7" class="node"><title>Node4</title>
<a xlink:href="MojNoCopy_8h.htm" target="_top" xlink:title="core/MojNoCopy.h">
<polygon fill="white" stroke="black" points="369,-0.5 369,-21.5 473,-21.5 473,-0.5 369,-0.5"/>
<text text-anchor="middle" x="421" y="-8.5" font-family="Helvetica,sans-Serif" font-size="10.00">core/MojNoCopy.h</text>
</a>
</g>
<!-- Node1&#45;&gt;Node4 -->
<g id="edge6" class="edge"><title>Node1&#45;&gt;Node4</title>
<path fill="none" stroke="midnightblue" d="M391.324,-130.246C398.573,-121.218 408.181,-107.641 413,-94 420.199,-73.6213 421.722,-48.7827 421.741,-31.6171"/>
<polygon fill="midnightblue" stroke="midnightblue" points="425.24,-31.5119 421.581,-21.5689 418.241,-31.6235 425.24,-31.5119"/>
</g>
<!-- Node5 -->
<g id="node9" class="node"><title>Node5</title>
<a xlink:href="MojDbLevelContainerIterator_8h.htm" target="_top" xlink:title="db&#45;luna/leveldb/MojDbLevel\lContainerIterator.h">
<polygon fill="white" stroke="black" points="259.5,-59 259.5,-93 404.5,-93 404.5,-59 259.5,-59"/>
<text text-anchor="start" x="267.5" y="-80" font-family="Helvetica,sans-Serif" font-size="10.00">db&#45;luna/leveldb/MojDbLevel</text>
<text text-anchor="middle" x="332" y="-67" font-family="Helvetica,sans-Serif" font-size="10.00">ContainerIterator.h</text>
</a>
</g>
<!-- Node1&#45;&gt;Node5 -->
<g id="edge8" class="edge"><title>Node1&#45;&gt;Node5</title>
<path fill="none" stroke="midnightblue" d="M373.744,-130.267C367.676,-122.379 359.173,-111.325 351.424,-101.251"/>
<polygon fill="midnightblue" stroke="midnightblue" points="354.033,-98.9021 345.161,-93.1099 348.484,-103.17 354.033,-98.9021"/>
</g>
<!-- Node6 -->
<g id="node12" class="node"><title>Node6</title>
<polygon fill="white" stroke="#bfbfbf" points="263.5,-0.5 263.5,-21.5 300.5,-21.5 300.5,-0.5 263.5,-0.5"/>
<text text-anchor="middle" x="282" y="-8.5" font-family="Helvetica,sans-Serif" font-size="10.00">map</text>
</g>
<!-- Node1&#45;&gt;Node6 -->
<g id="edge24" class="edge"><title>Node1&#45;&gt;Node6</title>
<path fill="none" stroke="midnightblue" d="M335.847,-130.415C302.331,-121.684 261.15,-108.425 251,-94 237.003,-74.108 252.125,-47.1232 265.733,-29.3969"/>
<polygon fill="midnightblue" stroke="midnightblue" points="268.555,-31.474 272.158,-21.5103 263.128,-27.0528 268.555,-31.474"/>
</g>
<!-- Node7 -->
<g id="node14" class="node"><title>Node7</title>
<polygon fill="white" stroke="#bfbfbf" points="590.5,-0.5 590.5,-21.5 633.5,-21.5 633.5,-0.5 590.5,-0.5"/>
<text text-anchor="middle" x="612" y="-8.5" font-family="Helvetica,sans-Serif" font-size="10.00">string</text>
</g>
<!-- Node1&#45;&gt;Node7 -->
<g id="edge26" class="edge"><title>Node1&#45;&gt;Node7</title>
<path fill="none" stroke="midnightblue" d="M448.645,-136.618C509.346,-131.072 592.544,-119.037 613,-94 627.177,-76.6485 623.764,-49.7566 618.898,-31.314"/>
<polygon fill="midnightblue" stroke="midnightblue" points="622.203,-30.1479 615.987,-21.5676 615.495,-32.151 622.203,-30.1479"/>
</g>
<!-- Node8 -->
<g id="node16" class="node"><title>Node8</title>
<a xlink:href="MojDbLevelIterator_8h.htm" target="_top" xlink:title="db&#45;luna/leveldb/MojDbLevel\lIterator.h">
<polygon fill="white" stroke="black" points="459.5,-59 459.5,-93 604.5,-93 604.5,-59 459.5,-59"/>
<text text-anchor="start" x="467.5" y="-80" font-family="Helvetica,sans-Serif" font-size="10.00">db&#45;luna/leveldb/MojDbLevel</text>
<text text-anchor="middle" x="532" y="-67" font-family="Helvetica,sans-Serif" font-size="10.00">Iterator.h</text>
</a>
</g>
<!-- Node1&#45;&gt;Node8 -->
<g id="edge16" class="edge"><title>Node1&#45;&gt;Node8</title>
<path fill="none" stroke="midnightblue" d="M406.434,-130.412C427.21,-121.409 457.676,-108.207 483.396,-97.0618"/>
<polygon fill="midnightblue" stroke="midnightblue" points="484.846,-100.248 492.63,-93.0604 482.063,-93.8251 484.846,-100.248"/>
</g>
<!-- Node10 -->
<g id="node24" class="node"><title>Node10</title>
<polygon fill="white" stroke="#bfbfbf" points="659.5,-65.5 659.5,-86.5 690.5,-86.5 690.5,-65.5 659.5,-65.5"/>
<text text-anchor="middle" x="675" y="-73.5" font-family="Helvetica,sans-Serif" font-size="10.00">set</text>
</g>
<!-- Node1&#45;&gt;Node10 -->
<g id="edge28" class="edge"><title>Node1&#45;&gt;Node10</title>
<path fill="none" stroke="midnightblue" d="M448.685,-136.152C503.212,-130.545 581.551,-118.689 646,-94 647.826,-93.3005 649.663,-92.4822 651.478,-91.5874"/>
<polygon fill="midnightblue" stroke="midnightblue" points="653.217,-94.6252 660.216,-86.6713 649.784,-88.5246 653.217,-94.6252"/>
</g>
<!-- Node5&#45;&gt;Node4 -->
<g id="edge10" class="edge"><title>Node5&#45;&gt;Node4</title>
<path fill="none" stroke="midnightblue" d="M355.384,-58.922C368.65,-49.2335 385.175,-37.1645 398.322,-27.5623"/>
<polygon fill="midnightblue" stroke="midnightblue" points="400.395,-30.3828 406.406,-21.6584 396.266,-24.7298 400.395,-30.3828"/>
</g>
<!-- Node5&#45;&gt;Node6 -->
<g id="edge12" class="edge"><title>Node5&#45;&gt;Node6</title>
<path fill="none" stroke="midnightblue" d="M318.863,-58.922C312.022,-50.0286 303.638,-39.1296 296.595,-29.9738"/>
<polygon fill="midnightblue" stroke="midnightblue" points="299.219,-27.6443 290.348,-21.8521 293.671,-31.9123 299.219,-27.6443"/>
</g>
<!-- Node5&#45;&gt;Node7 -->
<g id="edge14" class="edge"><title>Node5&#45;&gt;Node7</title>
<path fill="none" stroke="midnightblue" d="M404.595,-63.0819C452.395,-53.9378 516.422,-40.4811 580.605,-22.1541"/>
<polygon fill="midnightblue" stroke="midnightblue" points="581.856,-25.4357 590.489,-19.2931 579.91,-18.7118 581.856,-25.4357"/>
</g>
<!-- Node8&#45;&gt;Node4 -->
<g id="edge18" class="edge"><title>Node8&#45;&gt;Node4</title>
<path fill="none" stroke="midnightblue" d="M502.836,-58.922C485.818,-48.9566 464.5,-36.4729 447.888,-26.7455"/>
<polygon fill="midnightblue" stroke="midnightblue" points="449.599,-23.6914 439.201,-21.6584 446.062,-29.7319 449.599,-23.6914"/>
</g>
<!-- Node8&#45;&gt;Node7 -->
<g id="edge20" class="edge"><title>Node8&#45;&gt;Node7</title>
<path fill="none" stroke="midnightblue" d="M553.019,-58.922C564.642,-49.4785 579.048,-37.7736 590.713,-28.2957"/>
<polygon fill="midnightblue" stroke="midnightblue" points="593.09,-30.8745 598.644,-21.8521 588.675,-25.4416 593.09,-30.8745"/>
</g>
<!-- Node9 -->
<g id="node20" class="node"><title>Node9</title>
<polygon fill="white" stroke="#bfbfbf" points="491,-0.5 491,-21.5 573,-21.5 573,-0.5 491,-0.5"/>
<text text-anchor="middle" x="532" y="-8.5" font-family="Helvetica,sans-Serif" font-size="10.00">leveldb/slice.h</text>
</g>
<!-- Node8&#45;&gt;Node9 -->
<g id="edge22" class="edge"><title>Node8&#45;&gt;Node9</title>
<path fill="none" stroke="midnightblue" d="M532,-58.922C532,-50.6704 532,-40.6922 532,-31.9818"/>
<polygon fill="midnightblue" stroke="midnightblue" points="535.5,-31.8521 532,-21.8521 528.5,-31.8521 535.5,-31.8521"/>
</g>
</g>
</svg>
