<?xml version="1.0" encoding="UTF-8" standalone="no"?>
<!DOCTYPE svg PUBLIC "-//W3C//DTD SVG 1.1//EN"
 "http://www.w3.org/Graphics/SVG/1.1/DTD/svg11.dtd">
<!-- Generated by graphviz version 2.26.3 (20100126.1600)
 -->
<!-- Title: MojDbQueryPlan.cpp Pages: 1 -->
<svg width="2674pt" height="870pt"
 viewBox="0.00 0.00 2673.77 870.00" xmlns="http://www.w3.org/2000/svg" xmlns:xlink="http://www.w3.org/1999/xlink">
<g id="graph1" class="graph" transform="scale(1 1) rotate(0) translate(4 866)">
<title>MojDbQueryPlan.cpp</title>
<polygon fill="white" stroke="white" points="-4,5 -4,-866 2670.77,-866 2670.77,5 -4,5"/>
<!-- Node1 -->
<g id="node1" class="node"><title>Node1</title>
<polygon fill="#bfbfbf" stroke="black" points="1256.77,-840.5 1256.77,-861.5 1372.77,-861.5 1372.77,-840.5 1256.77,-840.5"/>
<text text-anchor="middle" x="1314.77" y="-848.5" font-family="Helvetica,sans-Serif" font-size="10.00">MojDbQueryPlan.cpp</text>
</g>
<!-- Node2 -->
<g id="node3" class="node"><title>Node2</title>
<a xlink:href="MojDbQueryPlan_8h.htm" target="_top" xlink:title="db/MojDbQueryPlan.h">
<polygon fill="white" stroke="black" points="768.273,-550.5 768.273,-571.5 887.273,-571.5 887.273,-550.5 768.273,-550.5"/>
<text text-anchor="middle" x="827.773" y="-558.5" font-family="Helvetica,sans-Serif" font-size="10.00">db/MojDbQueryPlan.h</text>
</a>
</g>
<!-- Node1&#45;&gt;Node2 -->
<g id="edge2" class="edge"><title>Node1&#45;&gt;Node2</title>
<path fill="none" stroke="midnightblue" d="M1256.7,-848.329C1020.42,-837.087 143.773,-791.564 143.773,-735 143.773,-735 143.773,-735 143.773,-677 143.773,-615.149 584.137,-577.872 758.19,-565.554"/>
<polygon fill="midnightblue" stroke="midnightblue" points="758.538,-569.038 768.269,-564.847 758.049,-562.055 758.538,-569.038"/>
</g>
<!-- Node26 -->
<g id="node86" class="node"><title>Node26</title>
<a xlink:href="MojDb_8h.htm" target="_top" xlink:title="db/MojDb.h">
<polygon fill="white" stroke="black" points="1549.27,-782.5 1549.27,-803.5 1618.27,-803.5 1618.27,-782.5 1549.27,-782.5"/>
<text text-anchor="middle" x="1583.77" y="-790.5" font-family="Helvetica,sans-Serif" font-size="10.00">db/MojDb.h</text>
</a>
</g>
<!-- Node1&#45;&gt;Node26 -->
<g id="edge120" class="edge"><title>Node1&#45;&gt;Node26</title>
<path fill="none" stroke="midnightblue" d="M1363.49,-840.497C1413.52,-829.708 1490.75,-813.057 1539.21,-802.608"/>
<polygon fill="midnightblue" stroke="midnightblue" points="1540.06,-806.005 1549.1,-800.476 1538.59,-799.163 1540.06,-806.005"/>
</g>
<!-- Node44 -->
<g id="node175" class="node"><title>Node44</title>
<a xlink:href="MojDbIndex_8h.htm" target="_top" xlink:title="db/MojDbIndex.h">
<polygon fill="white" stroke="black" points="1267.27,-724.5 1267.27,-745.5 1362.27,-745.5 1362.27,-724.5 1267.27,-724.5"/>
<text text-anchor="middle" x="1314.77" y="-732.5" font-family="Helvetica,sans-Serif" font-size="10.00">db/MojDbIndex.h</text>
</a>
</g>
<!-- Node1&#45;&gt;Node44 -->
<g id="edge262" class="edge"><title>Node1&#45;&gt;Node44</title>
<path fill="none" stroke="midnightblue" d="M1314.77,-840.295C1314.77,-821.131 1314.77,-780.654 1314.77,-755.843"/>
<polygon fill="midnightblue" stroke="midnightblue" points="1318.27,-755.679 1314.77,-745.679 1311.27,-755.679 1318.27,-755.679"/>
</g>
<!-- Node47 -->
<g id="node188" class="node"><title>Node47</title>
<a xlink:href="MojDbTextTokenizer_8h.htm" target="_top" xlink:title="db/MojDbTextTokenizer.h">
<polygon fill="white" stroke="black" points="37.2732,-434.5 37.2732,-455.5 174.273,-455.5 174.273,-434.5 37.2732,-434.5"/>
<text text-anchor="middle" x="105.773" y="-442.5" font-family="Helvetica,sans-Serif" font-size="10.00">db/MojDbTextTokenizer.h</text>
</a>
</g>
<!-- Node1&#45;&gt;Node47 -->
<g id="edge304" class="edge"><title>Node1&#45;&gt;Node47</title>
<path fill="none" stroke="midnightblue" d="M1256.63,-850.036C1074.19,-846.722 514.553,-834.291 335.773,-804 230.55,-786.172 105.773,-841.723 105.773,-735 105.773,-735 105.773,-735 105.773,-561 105.773,-527.598 105.773,-488.785 105.773,-465.594"/>
<polygon fill="midnightblue" stroke="midnightblue" points="109.273,-465.556 105.773,-455.556 102.273,-465.556 109.273,-465.556"/>
</g>
<!-- Node49 -->
<g id="node202" class="node"><title>Node49</title>
<a xlink:href="MojObjectSerialization_8h.htm" target="_top" xlink:title="core/MojObjectSerialization.h">
<polygon fill="white" stroke="black" points="2445.77,-434.5 2445.77,-455.5 2599.77,-455.5 2599.77,-434.5 2445.77,-434.5"/>
<text text-anchor="middle" x="2522.77" y="-442.5" font-family="Helvetica,sans-Serif" font-size="10.00">core/MojObjectSerialization.h</text>
</a>
</g>
<!-- Node1&#45;&gt;Node49 -->
<g id="edge306" class="edge"><title>Node1&#45;&gt;Node49</title>
<path fill="none" stroke="midnightblue" d="M1372.82,-849.105C1631.41,-840.291 2665.77,-800.915 2665.77,-735 2665.77,-735 2665.77,-735 2665.77,-561 2665.77,-508.951 2607.93,-476.187 2565.82,-459.231"/>
<polygon fill="midnightblue" stroke="midnightblue" points="2566.89,-455.892 2556.3,-455.554 2564.37,-462.422 2566.89,-455.892"/>
</g>
<!-- Node3 -->
<g id="node5" class="node"><title>Node3</title>
<a xlink:href="MojDbDefs_8h.htm" target="_top" xlink:title="db/MojDbDefs.h">
<polygon fill="white" stroke="black" points="1256.27,-376.5 1256.27,-397.5 1347.27,-397.5 1347.27,-376.5 1256.27,-376.5"/>
<text text-anchor="middle" x="1301.77" y="-384.5" font-family="Helvetica,sans-Serif" font-size="10.00">db/MojDbDefs.h</text>
</a>
</g>
<!-- Node2&#45;&gt;Node3 -->
<g id="edge4" class="edge"><title>Node2&#45;&gt;Node3</title>
<path fill="none" stroke="midnightblue" d="M887.513,-554.514C959.858,-546.107 1077.08,-530.55 1117.77,-514 1175.11,-490.68 1180.74,-469.032 1231.77,-434 1246.78,-423.701 1263.71,-412.322 1277.17,-403.34"/>
<polygon fill="midnightblue" stroke="midnightblue" points="1279.48,-406.005 1285.86,-397.547 1275.6,-400.18 1279.48,-406.005"/>
</g>
<!-- Node5 -->
<g id="node9" class="node"><title>Node5</title>
<a xlink:href="MojDbQuery_8h.htm" target="_top" xlink:title="db/MojDbQuery.h">
<polygon fill="white" stroke="black" points="773.773,-492.5 773.773,-513.5 871.773,-513.5 871.773,-492.5 773.773,-492.5"/>
<text text-anchor="middle" x="822.773" y="-500.5" font-family="Helvetica,sans-Serif" font-size="10.00">db/MojDbQuery.h</text>
</a>
</g>
<!-- Node2&#45;&gt;Node5 -->
<g id="edge8" class="edge"><title>Node2&#45;&gt;Node5</title>
<path fill="none" stroke="midnightblue" d="M826.856,-550.362C826.215,-542.922 825.337,-532.743 824.56,-523.728"/>
<polygon fill="midnightblue" stroke="midnightblue" points="828.031,-523.233 823.684,-513.571 821.056,-523.834 828.031,-523.233"/>
</g>
<!-- Node6 -->
<g id="node12" class="node"><title>Node6</title>
<a xlink:href="MojDbKey_8h.htm" target="_top" xlink:title="db/MojDbKey.h">
<polygon fill="white" stroke="black" points="517.273,-434.5 517.273,-455.5 604.273,-455.5 604.273,-434.5 517.273,-434.5"/>
<text text-anchor="middle" x="560.773" y="-442.5" font-family="Helvetica,sans-Serif" font-size="10.00">db/MojDbKey.h</text>
</a>
</g>
<!-- Node2&#45;&gt;Node6 -->
<g id="edge118" class="edge"><title>Node2&#45;&gt;Node6</title>
<path fill="none" stroke="midnightblue" d="M803.133,-550.295C755.028,-529.395 648.572,-483.145 594.179,-459.513"/>
<polygon fill="midnightblue" stroke="midnightblue" points="595.535,-456.286 584.968,-455.512 592.745,-462.707 595.535,-456.286"/>
</g>
<!-- Node4 -->
<g id="node7" class="node"><title>Node4</title>
<a xlink:href="MojCoreDefs_8h.htm" target="_top" xlink:title="core/MojCoreDefs.h">
<polygon fill="white" stroke="red" points="1417.27,-0.5 1417.27,-21.5 1528.27,-21.5 1528.27,-0.5 1417.27,-0.5"/>
<text text-anchor="middle" x="1472.77" y="-8.5" font-family="Helvetica,sans-Serif" font-size="10.00">core/MojCoreDefs.h</text>
</a>
</g>
<!-- Node3&#45;&gt;Node4 -->
<g id="edge6" class="edge"><title>Node3&#45;&gt;Node4</title>
<path fill="none" stroke="midnightblue" d="M1322.95,-376.441C1355.92,-358.329 1415.77,-318.009 1415.77,-264 1415.77,-264 1415.77,-264 1415.77,-199 1415.77,-135.328 1446.09,-64.5426 1462.5,-30.8794"/>
<polygon fill="midnightblue" stroke="midnightblue" points="1465.76,-32.1831 1467.1,-21.673 1459.5,-29.0548 1465.76,-32.1831"/>
</g>
<!-- Node5&#45;&gt;Node3 -->
<g id="edge10" class="edge"><title>Node5&#45;&gt;Node3</title>
<path fill="none" stroke="midnightblue" d="M848.19,-492.379C884.989,-477.378 955.523,-450.031 1017.77,-434 1095.84,-413.894 1188.29,-400.465 1246,-393.281"/>
<polygon fill="midnightblue" stroke="midnightblue" points="1246.51,-396.745 1256.01,-392.055 1245.66,-389.797 1246.51,-396.745"/>
</g>
<!-- Node5&#45;&gt;Node6 -->
<g id="edge12" class="edge"><title>Node5&#45;&gt;Node6</title>
<path fill="none" stroke="midnightblue" d="M775.327,-492.497C729.991,-482.46 661.74,-467.351 614.44,-456.881"/>
<polygon fill="midnightblue" stroke="midnightblue" points="614.904,-453.399 604.384,-454.654 613.391,-460.233 614.904,-453.399"/>
</g>
<!-- Node16 -->
<g id="node42" class="node"><title>Node16</title>
<a xlink:href="MojObject_8h.htm" target="_top" xlink:title="core/MojObject.h">
<polygon fill="white" stroke="red" points="453.773,-376.5 453.773,-397.5 549.773,-397.5 549.773,-376.5 453.773,-376.5"/>
<text text-anchor="middle" x="501.773" y="-384.5" font-family="Helvetica,sans-Serif" font-size="10.00">core/MojObject.h</text>
</a>
</g>
<!-- Node5&#45;&gt;Node16 -->
<g id="edge112" class="edge"><title>Node5&#45;&gt;Node16</title>
<path fill="none" stroke="midnightblue" d="M792.389,-492.5C765.197,-483.065 724.265,-468.771 688.773,-456 636.914,-437.339 577.203,-415.191 539.482,-401.117"/>
<polygon fill="midnightblue" stroke="midnightblue" points="540.51,-397.765 529.917,-397.546 538.061,-404.323 540.51,-397.765"/>
</g>
<!-- Node19 -->
<g id="node53" class="node"><title>Node19</title>
<a xlink:href="MojString_8h.htm" target="_top" xlink:title="core/MojString.h">
<polygon fill="white" stroke="black" points="1520.77,-318.5 1520.77,-339.5 1614.77,-339.5 1614.77,-318.5 1520.77,-318.5"/>
<text text-anchor="middle" x="1567.77" y="-326.5" font-family="Helvetica,sans-Serif" font-size="10.00">core/MojString.h</text>
</a>
</g>
<!-- Node5&#45;&gt;Node19 -->
<g id="edge116" class="edge"><title>Node5&#45;&gt;Node19</title>
<path fill="none" stroke="midnightblue" d="M849.957,-492.476C887.398,-478.19 957.102,-452.341 1017.77,-434 1118.69,-403.495 1144.38,-396.575 1247.77,-376 1339.12,-357.822 1446.44,-343.468 1510.68,-335.615"/>
<polygon fill="midnightblue" stroke="midnightblue" points="1511.11,-339.089 1520.61,-334.411 1510.27,-332.14 1511.11,-339.089"/>
</g>
<!-- Node21 -->
<g id="node63" class="node"><title>Node21</title>
<a xlink:href="MojSet_8h.htm" target="_top" xlink:title="core/MojSet.h">
<polygon fill="white" stroke="black" points="250.773,-376.5 250.773,-397.5 332.773,-397.5 332.773,-376.5 250.773,-376.5"/>
<text text-anchor="middle" x="291.773" y="-384.5" font-family="Helvetica,sans-Serif" font-size="10.00">core/MojSet.h</text>
</a>
</g>
<!-- Node5&#45;&gt;Node21 -->
<g id="edge114" class="edge"><title>Node5&#45;&gt;Node21</title>
<path fill="none" stroke="midnightblue" d="M773.752,-502.165C649.525,-499.56 329.839,-489.625 296.773,-456 284.576,-443.596 284.58,-423.14 286.884,-407.714"/>
<polygon fill="midnightblue" stroke="midnightblue" points="290.385,-408.037 288.826,-397.557 283.51,-406.722 290.385,-408.037"/>
</g>
<!-- Node23 -->
<g id="node71" class="node"><title>Node23</title>
<a xlink:href="MojHashMap_8h.htm" target="_top" xlink:title="core/MojHashMap.h">
<polygon fill="white" stroke="black" points="2099.77,-318.5 2099.77,-339.5 2211.77,-339.5 2211.77,-318.5 2099.77,-318.5"/>
<text text-anchor="middle" x="2155.77" y="-326.5" font-family="Helvetica,sans-Serif" font-size="10.00">core/MojHashMap.h</text>
</a>
</g>
<!-- Node5&#45;&gt;Node23 -->
<g id="edge96" class="edge"><title>Node5&#45;&gt;Node23</title>
<path fill="none" stroke="midnightblue" d="M872.077,-498.827C900.602,-496.534 937.193,-493.798 969.773,-492 1082.01,-485.805 1874.5,-492.603 1980.77,-456 2046.96,-433.206 2109.57,-376.237 2138.7,-346.973"/>
<polygon fill="midnightblue" stroke="midnightblue" points="2141.52,-349.101 2146.01,-339.504 2136.51,-344.207 2141.52,-349.101"/>
</g>
<!-- Node6&#45;&gt;Node3 -->
<g id="edge14" class="edge"><title>Node6&#45;&gt;Node3</title>
<path fill="none" stroke="midnightblue" d="M604.564,-435.99C609.014,-435.243 613.476,-434.56 617.773,-434 849.785,-403.757 1128.77,-392.247 1245.81,-388.533"/>
<polygon fill="midnightblue" stroke="midnightblue" points="1246.07,-392.027 1255.96,-388.218 1245.85,-385.03 1246.07,-392.027"/>
</g>
<!-- Node7 -->
<g id="node15" class="node"><title>Node7</title>
<a xlink:href="MojBuffer_8h.htm" target="_top" xlink:title="core/MojBuffer.h">
<polygon fill="white" stroke="black" points="1236.77,-318.5 1236.77,-339.5 1330.77,-339.5 1330.77,-318.5 1236.77,-318.5"/>
<text text-anchor="middle" x="1283.77" y="-326.5" font-family="Helvetica,sans-Serif" font-size="10.00">core/MojBuffer.h</text>
</a>
</g>
<!-- Node6&#45;&gt;Node7 -->
<g id="edge16" class="edge"><title>Node6&#45;&gt;Node7</title>
<path fill="none" stroke="midnightblue" d="M578.478,-434.354C605.784,-418.526 660.31,-389.235 710.773,-376 807.029,-350.755 1100.96,-336.323 1226.24,-331.175"/>
<polygon fill="midnightblue" stroke="midnightblue" points="1226.54,-334.665 1236.39,-330.763 1226.26,-327.671 1226.54,-334.665"/>
</g>
<!-- Node12 -->
<g id="node29" class="node"><title>Node12</title>
<a xlink:href="MojVector_8h.htm" target="_top" xlink:title="core/MojVector.h">
<polygon fill="white" stroke="red" points="660.273,-253.5 660.273,-274.5 757.273,-274.5 757.273,-253.5 660.273,-253.5"/>
<text text-anchor="middle" x="708.773" y="-261.5" font-family="Helvetica,sans-Serif" font-size="10.00">core/MojVector.h</text>
</a>
</g>
<!-- Node6&#45;&gt;Node12 -->
<g id="edge94" class="edge"><title>Node6&#45;&gt;Node12</title>
<path fill="none" stroke="midnightblue" d="M517.243,-436.817C476.159,-426.995 423.754,-407.75 444.773,-376 451.467,-365.889 600.891,-306.294 671.91,-278.394"/>
<polygon fill="midnightblue" stroke="midnightblue" points="673.357,-281.586 681.388,-274.676 670.801,-275.069 673.357,-281.586"/>
</g>
<!-- Node6&#45;&gt;Node16 -->
<g id="edge52" class="edge"><title>Node6&#45;&gt;Node16</title>
<path fill="none" stroke="midnightblue" d="M549.952,-434.362C541.552,-426.104 529.719,-414.472 519.883,-404.803"/>
<polygon fill="midnightblue" stroke="midnightblue" points="522.111,-402.085 512.526,-397.571 517.204,-407.077 522.111,-402.085"/>
</g>
<!-- Node6&#45;&gt;Node21 -->
<g id="edge84" class="edge"><title>Node6&#45;&gt;Node21</title>
<path fill="none" stroke="midnightblue" d="M517.255,-435.617C469.678,-425.359 393.509,-408.936 343.063,-398.059"/>
<polygon fill="midnightblue" stroke="midnightblue" points="343.534,-394.58 333.021,-395.894 342.059,-401.423 343.534,-394.58"/>
</g>
<!-- Node7&#45;&gt;Node4 -->
<g id="edge18" class="edge"><title>Node7&#45;&gt;Node4</title>
<path fill="none" stroke="midnightblue" d="M1283.3,-318.322C1281.31,-270.641 1274.37,-78.6265 1290.77,-58 1305.39,-39.6194 1361.11,-27.0498 1407.09,-19.5673"/>
<polygon fill="midnightblue" stroke="midnightblue" points="1407.7,-23.0146 1417.03,-18.0021 1406.61,-16.0997 1407.7,-23.0146"/>
</g>
<!-- Node8 -->
<g id="node18" class="node"><title>Node8</title>
<a xlink:href="MojAutoPtr_8h.htm" target="_top" xlink:title="core/MojAutoPtr.h">
<polygon fill="white" stroke="red" points="1481.27,-123.5 1481.27,-144.5 1582.27,-144.5 1582.27,-123.5 1481.27,-123.5"/>
<text text-anchor="middle" x="1531.77" y="-131.5" font-family="Helvetica,sans-Serif" font-size="10.00">core/MojAutoPtr.h</text>
</a>
</g>
<!-- Node7&#45;&gt;Node8 -->
<g id="edge20" class="edge"><title>Node7&#45;&gt;Node8</title>
<path fill="none" stroke="midnightblue" d="M1297.46,-318.238C1338.45,-286.01 1460.44,-190.087 1510.24,-150.931"/>
<polygon fill="midnightblue" stroke="midnightblue" points="1512.43,-153.661 1518.13,-144.729 1508.1,-148.158 1512.43,-153.661"/>
</g>
<!-- Node11 -->
<g id="node26" class="node"><title>Node11</title>
<a xlink:href="MojList_8h.htm" target="_top" xlink:title="core/MojList.h">
<polygon fill="white" stroke="red" points="979.273,-253.5 979.273,-274.5 1062.27,-274.5 1062.27,-253.5 979.273,-253.5"/>
<text text-anchor="middle" x="1020.77" y="-261.5" font-family="Helvetica,sans-Serif" font-size="10.00">core/MojList.h</text>
</a>
</g>
<!-- Node7&#45;&gt;Node11 -->
<g id="edge30" class="edge"><title>Node7&#45;&gt;Node11</title>
<path fill="none" stroke="midnightblue" d="M1241.23,-318.484C1195.12,-307.089 1121.54,-288.905 1072.22,-276.716"/>
<polygon fill="midnightblue" stroke="midnightblue" points="1072.94,-273.287 1062.39,-274.286 1071.26,-280.083 1072.94,-273.287"/>
</g>
<!-- Node7&#45;&gt;Node12 -->
<g id="edge34" class="edge"><title>Node7&#45;&gt;Node12</title>
<path fill="none" stroke="midnightblue" d="M1236.72,-323.681C1132.31,-311.879 881.51,-283.527 767.254,-270.611"/>
<polygon fill="midnightblue" stroke="midnightblue" points="767.62,-267.13 757.29,-269.485 766.834,-274.086 767.62,-267.13"/>
</g>
<!-- Node8&#45;&gt;Node4 -->
<g id="edge22" class="edge"><title>Node8&#45;&gt;Node4</title>
<path fill="none" stroke="midnightblue" d="M1546.72,-123.33C1565.55,-108.538 1593.75,-81.0178 1578.77,-58 1568.72,-42.5518 1552.31,-32.1419 1535.36,-25.1424"/>
<polygon fill="midnightblue" stroke="midnightblue" points="1536.52,-21.8395 1525.93,-21.5943 1534.06,-28.3912 1536.52,-21.8395"/>
</g>
<!-- Node9 -->
<g id="node21" class="node"><title>Node9</title>
<a xlink:href="MojAtomicInt_8h.htm" target="_top" xlink:title="core/MojAtomicInt.h">
<polygon fill="white" stroke="black" points="1459.77,-58.5 1459.77,-79.5 1569.77,-79.5 1569.77,-58.5 1459.77,-58.5"/>
<text text-anchor="middle" x="1514.77" y="-66.5" font-family="Helvetica,sans-Serif" font-size="10.00">core/MojAtomicInt.h</text>
</a>
</g>
<!-- Node8&#45;&gt;Node9 -->
<g id="edge24" class="edge"><title>Node8&#45;&gt;Node9</title>
<path fill="none" stroke="midnightblue" d="M1528.97,-123.267C1526.56,-114.085 1523.04,-100.615 1520.11,-89.3917"/>
<polygon fill="midnightblue" stroke="midnightblue" points="1523.44,-88.3227 1517.53,-79.5337 1516.67,-90.0939 1523.44,-88.3227"/>
</g>
<!-- Node10 -->
<g id="node24" class="node"><title>Node10</title>
<a xlink:href="MojNoCopy_8h.htm" target="_top" xlink:title="core/MojNoCopy.h">
<polygon fill="white" stroke="black" points="1299.77,-58.5 1299.77,-79.5 1403.77,-79.5 1403.77,-58.5 1299.77,-58.5"/>
<text text-anchor="middle" x="1351.77" y="-66.5" font-family="Helvetica,sans-Serif" font-size="10.00">core/MojNoCopy.h</text>
</a>
</g>
<!-- Node8&#45;&gt;Node10 -->
<g id="edge28" class="edge"><title>Node8&#45;&gt;Node10</title>
<path fill="none" stroke="midnightblue" d="M1502.45,-123.412C1471.99,-112.411 1424.16,-95.1396 1390.58,-83.0132"/>
<polygon fill="midnightblue" stroke="midnightblue" points="1391.68,-79.6881 1381.08,-79.5835 1389.3,-86.272 1391.68,-79.6881"/>
</g>
<!-- Node9&#45;&gt;Node4 -->
<g id="edge26" class="edge"><title>Node9&#45;&gt;Node4</title>
<path fill="none" stroke="midnightblue" d="M1507.07,-58.3619C1501.33,-50.4313 1493.33,-39.3885 1486.5,-29.9606"/>
<polygon fill="midnightblue" stroke="midnightblue" points="1489.13,-27.6173 1480.43,-21.5707 1483.46,-31.7229 1489.13,-27.6173"/>
</g>
<!-- Node11&#45;&gt;Node4 -->
<g id="edge32" class="edge"><title>Node11&#45;&gt;Node4</title>
<path fill="none" stroke="midnightblue" d="M1008.5,-253.26C993.052,-238.385 969.994,-210.77 982.773,-188 1037.05,-91.2841 1091.9,-96.8643 1195.77,-58 1265.16,-32.039 1349.71,-20.3392 1407.02,-15.1165"/>
<polygon fill="midnightblue" stroke="midnightblue" points="1407.38,-18.5986 1417.03,-14.2442 1406.77,-11.625 1407.38,-18.5986"/>
</g>
<!-- Node12&#45;&gt;Node4 -->
<g id="edge36" class="edge"><title>Node12&#45;&gt;Node4</title>
<path fill="none" stroke="midnightblue" d="M708.436,-253.436C708.174,-226.69 711.254,-155.617 748.773,-116 805.406,-56.2009 844.087,-74.5196 924.773,-58 1015.31,-39.4641 1282.21,-22.0893 1407.03,-14.7162"/>
<polygon fill="midnightblue" stroke="midnightblue" points="1407.43,-18.1985 1417.21,-14.1183 1407.02,-11.2106 1407.43,-18.1985"/>
</g>
<!-- Node13 -->
<g id="node32" class="node"><title>Node13</title>
<a xlink:href="MojComp_8h.htm" target="_top" xlink:title="core/MojComp.h">
<polygon fill="white" stroke="black" points="1173.77,-188.5 1173.77,-209.5 1267.77,-209.5 1267.77,-188.5 1173.77,-188.5"/>
<text text-anchor="middle" x="1220.77" y="-196.5" font-family="Helvetica,sans-Serif" font-size="10.00">core/MojComp.h</text>
</a>
</g>
<!-- Node12&#45;&gt;Node13 -->
<g id="edge38" class="edge"><title>Node12&#45;&gt;Node13</title>
<path fill="none" stroke="midnightblue" d="M757.53,-259.456C839.338,-251.563 1009.59,-233.988 1163.64,-210.086"/>
<polygon fill="midnightblue" stroke="midnightblue" points="1164.43,-213.507 1173.77,-208.503 1163.34,-206.591 1164.43,-213.507"/>
</g>
<!-- Node14 -->
<g id="node35" class="node"><title>Node14</title>
<a xlink:href="MojRefCount_8h.htm" target="_top" xlink:title="core/MojRefCount.h">
<polygon fill="white" stroke="black" points="825.773,-188.5 825.773,-209.5 935.773,-209.5 935.773,-188.5 825.773,-188.5"/>
<text text-anchor="middle" x="880.773" y="-196.5" font-family="Helvetica,sans-Serif" font-size="10.00">core/MojRefCount.h</text>
</a>
</g>
<!-- Node12&#45;&gt;Node14 -->
<g id="edge42" class="edge"><title>Node12&#45;&gt;Node14</title>
<path fill="none" stroke="midnightblue" d="M736.791,-253.412C765.777,-242.458 811.212,-225.288 843.278,-213.17"/>
<polygon fill="midnightblue" stroke="midnightblue" points="844.651,-216.393 852.768,-209.584 842.176,-209.845 844.651,-216.393"/>
</g>
<!-- Node13&#45;&gt;Node4 -->
<g id="edge40" class="edge"><title>Node13&#45;&gt;Node4</title>
<path fill="none" stroke="midnightblue" d="M1220.12,-188.335C1219.14,-162.057 1220.52,-93.7431 1257.77,-58 1278.93,-37.7048 1351.97,-24.8532 1407.09,-17.8135"/>
<polygon fill="midnightblue" stroke="midnightblue" points="1407.67,-21.2692 1417.16,-16.5662 1406.81,-14.3223 1407.67,-21.2692"/>
</g>
<!-- Node14&#45;&gt;Node4 -->
<g id="edge44" class="edge"><title>Node14&#45;&gt;Node4</title>
<path fill="none" stroke="midnightblue" d="M886.999,-188.298C892.421,-178.852 900.39,-164.655 906.773,-152 927.463,-110.981 912.268,-84.5324 949.773,-58 986.312,-32.151 1274.57,-18.3022 1406.84,-13.254"/>
<polygon fill="midnightblue" stroke="midnightblue" points="1406.99,-16.7509 1416.85,-12.8773 1406.73,-9.7558 1406.99,-16.7509"/>
</g>
<!-- Node14&#45;&gt;Node8 -->
<g id="edge48" class="edge"><title>Node14&#45;&gt;Node8</title>
<path fill="none" stroke="midnightblue" d="M935.793,-192.727C951.002,-191.085 967.519,-189.388 982.773,-188 1198.03,-168.409 1254.89,-189.448 1467.77,-152 1474.72,-150.777 1482,-149.112 1489.06,-147.285"/>
<polygon fill="midnightblue" stroke="midnightblue" points="1490.45,-150.534 1499.18,-144.526 1488.61,-143.781 1490.45,-150.534"/>
</g>
<!-- Node14&#45;&gt;Node9 -->
<g id="edge46" class="edge"><title>Node14&#45;&gt;Node9</title>
<path fill="none" stroke="midnightblue" d="M932.119,-188.472C1047.82,-164.748 1328.5,-107.196 1453.25,-81.6158"/>
<polygon fill="midnightblue" stroke="midnightblue" points="1454.3,-84.9732 1463.39,-79.5357 1452.89,-78.1158 1454.3,-84.9732"/>
</g>
<!-- Node15 -->
<g id="node40" class="node"><title>Node15</title>
<a xlink:href="MojRefCountInternal_8h.htm" target="_top" xlink:title="core/internal/MojRefCount\lInternal.h">
<polygon fill="white" stroke="red" points="757.773,-117 757.773,-151 897.773,-151 897.773,-117 757.773,-117"/>
<text text-anchor="start" x="765.773" y="-138" font-family="Helvetica,sans-Serif" font-size="10.00">core/internal/MojRefCount</text>
<text text-anchor="middle" x="827.773" y="-125" font-family="Helvetica,sans-Serif" font-size="10.00">Internal.h</text>
</a>
</g>
<!-- Node14&#45;&gt;Node15 -->
<g id="edge50" class="edge"><title>Node14&#45;&gt;Node15</title>
<path fill="none" stroke="midnightblue" d="M872.021,-188.267C865.525,-180.3 856.396,-169.104 848.116,-158.949"/>
<polygon fill="midnightblue" stroke="midnightblue" points="850.756,-156.648 841.724,-151.11 845.331,-161.072 850.756,-156.648"/>
</g>
<!-- Node16&#45;&gt;Node4 -->
<g id="edge54" class="edge"><title>Node16&#45;&gt;Node4</title>
<path fill="none" stroke="midnightblue" d="M489.223,-376.199C467.637,-356.345 425.773,-311.693 425.773,-264 425.773,-264 425.773,-264 425.773,-134 425.773,-98.578 421.691,-79.5893 449.773,-58 487.756,-28.7995 1187.21,-15.4492 1407.15,-11.9613"/>
<polygon fill="midnightblue" stroke="midnightblue" points="1407.32,-15.4592 1417.26,-11.8026 1407.21,-8.46011 1407.32,-15.4592"/>
</g>
<!-- Node16&#45;&gt;Node12 -->
<g id="edge82" class="edge"><title>Node16&#45;&gt;Node12</title>
<path fill="none" stroke="midnightblue" d="M519.781,-376.3C556.345,-354.573 639.436,-305.2 682.222,-279.777"/>
<polygon fill="midnightblue" stroke="midnightblue" points="684.146,-282.705 690.954,-274.588 680.57,-276.687 684.146,-282.705"/>
</g>
<!-- Node17 -->
<g id="node45" class="node"><title>Node17</title>
<a xlink:href="MojMap_8h.htm" target="_top" xlink:title="core/MojMap.h">
<polygon fill="white" stroke="black" points="912.273,-318.5 912.273,-339.5 999.273,-339.5 999.273,-318.5 912.273,-318.5"/>
<text text-anchor="middle" x="955.773" y="-326.5" font-family="Helvetica,sans-Serif" font-size="10.00">core/MojMap.h</text>
</a>
</g>
<!-- Node16&#45;&gt;Node17 -->
<g id="edge56" class="edge"><title>Node16&#45;&gt;Node17</title>
<path fill="none" stroke="midnightblue" d="M549.929,-380.848C635.321,-369.939 812.665,-347.283 901.95,-335.876"/>
<polygon fill="midnightblue" stroke="midnightblue" points="902.654,-339.315 912.13,-334.576 901.767,-332.371 902.654,-339.315"/>
</g>
<!-- Node16&#45;&gt;Node19 -->
<g id="edge68" class="edge"><title>Node16&#45;&gt;Node19</title>
<path fill="none" stroke="midnightblue" d="M549.997,-384.376C724.42,-374.886 1322.1,-342.367 1510.45,-332.119"/>
<polygon fill="midnightblue" stroke="midnightblue" points="1510.89,-335.6 1520.69,-331.562 1510.51,-328.611 1510.89,-335.6"/>
</g>
<!-- Node17&#45;&gt;Node4 -->
<g id="edge58" class="edge"><title>Node17&#45;&gt;Node4</title>
<path fill="none" stroke="midnightblue" d="M912.092,-328.103C837.2,-325.641 688.763,-316.43 651.773,-282 624.073,-256.216 632.773,-236.843 632.773,-199 632.773,-199 632.773,-199 632.773,-134 632.773,-54.8727 717.206,-77.9652 793.773,-58 908.365,-28.1197 1259.77,-16.2172 1406.9,-12.4582"/>
<polygon fill="midnightblue" stroke="midnightblue" points="1407.22,-15.9513 1417.13,-12.2015 1407.05,-8.95346 1407.22,-15.9513"/>
</g>
<!-- Node17&#45;&gt;Node13 -->
<g id="edge60" class="edge"><title>Node17&#45;&gt;Node13</title>
<path fill="none" stroke="midnightblue" d="M993.081,-318.418C1020.48,-310.052 1058.27,-297.26 1089.77,-282 1129.87,-262.578 1172.87,-233.582 1198.26,-215.506"/>
<polygon fill="midnightblue" stroke="midnightblue" points="1200.4,-218.28 1206.48,-209.601 1196.31,-212.597 1200.4,-218.28"/>
</g>
<!-- Node18 -->
<g id="node49" class="node"><title>Node18</title>
<a xlink:href="MojRbTreeBase_8h.htm" target="_top" xlink:title="core/internal/MojRbTreeBase.h">
<polygon fill="white" stroke="black" points="991.773,-188.5 991.773,-209.5 1155.77,-209.5 1155.77,-188.5 991.773,-188.5"/>
<text text-anchor="middle" x="1073.77" y="-196.5" font-family="Helvetica,sans-Serif" font-size="10.00">core/internal/MojRbTreeBase.h</text>
</a>
</g>
<!-- Node17&#45;&gt;Node18 -->
<g id="edge62" class="edge"><title>Node17&#45;&gt;Node18</title>
<path fill="none" stroke="midnightblue" d="M999.396,-322.965C1024.64,-317.021 1054.54,-305.256 1070.77,-282 1083.48,-263.801 1081.99,-237.481 1078.78,-219.384"/>
<polygon fill="midnightblue" stroke="midnightblue" points="1082.2,-218.638 1076.73,-209.564 1075.35,-220.069 1082.2,-218.638"/>
</g>
<!-- Node18&#45;&gt;Node4 -->
<g id="edge64" class="edge"><title>Node18&#45;&gt;Node4</title>
<path fill="none" stroke="midnightblue" d="M1082.4,-188.454C1104.79,-161.844 1167.87,-91.6999 1236.77,-58 1290.38,-31.7826 1357.64,-20.1897 1406.62,-15.0635"/>
<polygon fill="midnightblue" stroke="midnightblue" points="1407.18,-18.526 1416.79,-14.0649 1406.49,-11.5595 1407.18,-18.526"/>
</g>
<!-- Node18&#45;&gt;Node8 -->
<g id="edge66" class="edge"><title>Node18&#45;&gt;Node8</title>
<path fill="none" stroke="midnightblue" d="M1156.11,-189.039C1159.04,-188.688 1161.93,-188.341 1164.77,-188 1299.42,-171.863 1334.76,-178.439 1467.77,-152 1474.47,-150.67 1481.48,-148.994 1488.31,-147.203"/>
<polygon fill="midnightblue" stroke="midnightblue" points="1489.41,-150.532 1498.13,-144.523 1487.56,-143.779 1489.41,-150.532"/>
</g>
<!-- Node19&#45;&gt;Node4 -->
<g id="edge70" class="edge"><title>Node19&#45;&gt;Node4</title>
<path fill="none" stroke="midnightblue" d="M1570.65,-318.219C1582.36,-273.289 1624.47,-101.27 1594.77,-58 1586.2,-45.5163 1553.43,-33.2789 1524.01,-24.4219"/>
<polygon fill="midnightblue" stroke="midnightblue" points="1524.78,-21.0008 1514.2,-21.5523 1522.81,-27.7192 1524.78,-21.0008"/>
</g>
<!-- Node19&#45;&gt;Node8 -->
<g id="edge72" class="edge"><title>Node19&#45;&gt;Node8</title>
<path fill="none" stroke="midnightblue" d="M1564.42,-318.261C1561.56,-308.791 1557.48,-294.58 1554.77,-282 1545.11,-237.117 1537.84,-183.744 1534.25,-154.943"/>
<polygon fill="midnightblue" stroke="midnightblue" points="1537.71,-154.353 1533.02,-144.849 1530.76,-155.199 1537.71,-154.353"/>
</g>
<!-- Node19&#45;&gt;Node12 -->
<g id="edge80" class="edge"><title>Node19&#45;&gt;Node12</title>
<path fill="none" stroke="midnightblue" d="M1520.67,-325.436C1374.48,-314.374 928.66,-280.639 767.602,-268.452"/>
<polygon fill="midnightblue" stroke="midnightblue" points="767.647,-264.945 757.411,-267.68 767.119,-271.925 767.647,-264.945"/>
</g>
<!-- Node19&#45;&gt;Node13 -->
<g id="edge74" class="edge"><title>Node19&#45;&gt;Node13</title>
<path fill="none" stroke="midnightblue" d="M1539.67,-318.472C1477.7,-295.254 1329.23,-239.631 1258.92,-213.293"/>
<polygon fill="midnightblue" stroke="midnightblue" points="1259.73,-209.857 1249.14,-209.627 1257.27,-216.412 1259.73,-209.857"/>
</g>
<!-- Node20 -->
<g id="node58" class="node"><title>Node20</title>
<a xlink:href="MojHasher_8h.htm" target="_top" xlink:title="core/MojHasher.h">
<polygon fill="white" stroke="red" points="1927.27,-123.5 1927.27,-144.5 2028.27,-144.5 2028.27,-123.5 1927.27,-123.5"/>
<text text-anchor="middle" x="1977.77" y="-131.5" font-family="Helvetica,sans-Serif" font-size="10.00">core/MojHasher.h</text>
</a>
</g>
<!-- Node19&#45;&gt;Node20 -->
<g id="edge76" class="edge"><title>Node19&#45;&gt;Node20</title>
<path fill="none" stroke="midnightblue" d="M1615.08,-324.311C1659.29,-318.607 1726.32,-306.518 1779.77,-282 1853.85,-248.022 1926.98,-183.011 1959.81,-151.707"/>
<polygon fill="midnightblue" stroke="midnightblue" points="1962.5,-153.977 1967.26,-144.514 1957.63,-148.94 1962.5,-153.977"/>
</g>
<!-- Node20&#45;&gt;Node4 -->
<g id="edge78" class="edge"><title>Node20&#45;&gt;Node4</title>
<path fill="none" stroke="midnightblue" d="M1972.39,-123.438C1963.05,-106.355 1942.1,-73.0584 1913.77,-58 1850.38,-24.305 1645.33,-14.7602 1538.64,-12.0611"/>
<polygon fill="midnightblue" stroke="midnightblue" points="1538.72,-8.56187 1528.63,-11.8206 1538.55,-15.5598 1538.72,-8.56187"/>
</g>
<!-- Node21&#45;&gt;Node4 -->
<g id="edge86" class="edge"><title>Node21&#45;&gt;Node4</title>
<path fill="none" stroke="midnightblue" d="M269.955,-376.395C236.352,-358.355 175.773,-318.302 175.773,-264 175.773,-264 175.773,-264 175.773,-134 175.773,-17.4428 311.886,-77.6572 426.773,-58 616.537,-25.5317 1208.38,-14.616 1407.01,-11.8153"/>
<polygon fill="midnightblue" stroke="midnightblue" points="1407.06,-15.3151 1417.01,-11.6765 1406.97,-8.31574 1407.06,-15.3151"/>
</g>
<!-- Node21&#45;&gt;Node13 -->
<g id="edge88" class="edge"><title>Node21&#45;&gt;Node13</title>
<path fill="none" stroke="midnightblue" d="M330.06,-376.472C360.845,-367.675 405.032,-354.301 442.773,-340 538.016,-303.91 552.997,-270.839 651.773,-246 870.186,-191.077 936.27,-238.648 1163.25,-210.043"/>
<polygon fill="midnightblue" stroke="midnightblue" points="1164.02,-213.474 1173.48,-208.716 1163.12,-206.532 1164.02,-213.474"/>
</g>
<!-- Node21&#45;&gt;Node18 -->
<g id="edge90" class="edge"><title>Node21&#45;&gt;Node18</title>
<path fill="none" stroke="midnightblue" d="M320.001,-376.382C343.493,-367.328 377.677,-353.644 406.773,-340 456.457,-316.701 469.463,-311.439 515.773,-282 538.278,-267.694 538.889,-255.586 563.773,-246 573.395,-242.293 836.985,-219.27 981.339,-206.878"/>
<polygon fill="midnightblue" stroke="midnightblue" points="981.858,-210.346 991.522,-206.004 981.259,-203.372 981.858,-210.346"/>
</g>
<!-- Node22 -->
<g id="node68" class="node"><title>Node22</title>
<a xlink:href="MojSetInternal_8h.htm" target="_top" xlink:title="core/internal/MojSetInternal.h">
<polygon fill="white" stroke="black" points="241.773,-318.5 241.773,-339.5 397.773,-339.5 397.773,-318.5 241.773,-318.5"/>
<text text-anchor="middle" x="319.773" y="-326.5" font-family="Helvetica,sans-Serif" font-size="10.00">core/internal/MojSetInternal.h</text>
</a>
</g>
<!-- Node21&#45;&gt;Node22 -->
<g id="edge92" class="edge"><title>Node21&#45;&gt;Node22</title>
<path fill="none" stroke="midnightblue" d="M296.909,-376.362C300.619,-368.677 305.74,-358.069 310.195,-348.84"/>
<polygon fill="midnightblue" stroke="midnightblue" points="313.475,-350.098 314.67,-339.571 307.171,-347.055 313.475,-350.098"/>
</g>
<!-- Node23&#45;&gt;Node4 -->
<g id="edge98" class="edge"><title>Node23&#45;&gt;Node4</title>
<path fill="none" stroke="midnightblue" d="M2160.08,-318.418C2168.6,-296.521 2186.77,-244.476 2186.77,-199 2186.77,-199 2186.77,-199 2186.77,-134 2186.77,-38.4941 2078.84,-79.4409 1985.77,-58 1902.36,-38.7831 1656.86,-22.0264 1538.31,-14.7951"/>
<polygon fill="midnightblue" stroke="midnightblue" points="1538.47,-11.2983 1528.28,-14.1872 1538.05,-18.2855 1538.47,-11.2983"/>
</g>
<!-- Node23&#45;&gt;Node13 -->
<g id="edge100" class="edge"><title>Node23&#45;&gt;Node13</title>
<path fill="none" stroke="midnightblue" d="M2116.31,-318.462C2048.18,-300.682 1903.86,-264.827 1779.77,-246 1597.78,-218.388 1379.81,-205.929 1278.19,-201.299"/>
<polygon fill="midnightblue" stroke="midnightblue" points="1278.28,-197.799 1268.14,-200.849 1277.97,-204.792 1278.28,-197.799"/>
</g>
<!-- Node24 -->
<g id="node75" class="node"><title>Node24</title>
<a xlink:href="MojHashBase_8h.htm" target="_top" xlink:title="core/internal/MojHashBase.h">
<polygon fill="white" stroke="black" points="1953.27,-188.5 1953.27,-209.5 2106.27,-209.5 2106.27,-188.5 1953.27,-188.5"/>
<text text-anchor="middle" x="2029.77" y="-196.5" font-family="Helvetica,sans-Serif" font-size="10.00">core/internal/MojHashBase.h</text>
</a>
</g>
<!-- Node23&#45;&gt;Node24 -->
<g id="edge102" class="edge"><title>Node23&#45;&gt;Node24</title>
<path fill="none" stroke="midnightblue" d="M2155.12,-318.245C2153.54,-301.02 2148.14,-267.048 2129.77,-246 2116.79,-231.122 2098.08,-220.61 2080.35,-213.358"/>
<polygon fill="midnightblue" stroke="midnightblue" points="2081.23,-209.949 2070.64,-209.657 2078.74,-216.49 2081.23,-209.949"/>
</g>
<!-- Node25 -->
<g id="node80" class="node"><title>Node25</title>
<a xlink:href="MojHashMapInternal_8h.htm" target="_top" xlink:title="core/internal/MojHashMap\lInternal.h">
<polygon fill="white" stroke="black" points="1978.77,-247 1978.77,-281 2120.77,-281 2120.77,-247 1978.77,-247"/>
<text text-anchor="start" x="1986.77" y="-268" font-family="Helvetica,sans-Serif" font-size="10.00">core/internal/MojHashMap</text>
<text text-anchor="middle" x="2049.77" y="-255" font-family="Helvetica,sans-Serif" font-size="10.00">Internal.h</text>
</a>
</g>
<!-- Node23&#45;&gt;Node25 -->
<g id="edge110" class="edge"><title>Node23&#45;&gt;Node25</title>
<path fill="none" stroke="midnightblue" d="M2138.27,-318.267C2124.25,-309.669 2104.09,-297.31 2086.56,-286.558"/>
<polygon fill="midnightblue" stroke="midnightblue" points="2088.03,-283.354 2077.68,-281.11 2084.37,-289.321 2088.03,-283.354"/>
</g>
<!-- Node24&#45;&gt;Node4 -->
<g id="edge104" class="edge"><title>Node24&#45;&gt;Node4</title>
<path fill="none" stroke="midnightblue" d="M2034.23,-188.496C2040.51,-171.913 2049.85,-139.174 2036.77,-116 2012.28,-72.5838 1988.06,-73.7653 1940.77,-58 1867.9,-33.7077 1649.4,-19.7372 1538.65,-14.0368"/>
<polygon fill="midnightblue" stroke="midnightblue" points="1538.77,-10.5382 1528.61,-13.527 1538.42,-17.5292 1538.77,-10.5382"/>
</g>
<!-- Node24&#45;&gt;Node8 -->
<g id="edge106" class="edge"><title>Node24&#45;&gt;Node8</title>
<path fill="none" stroke="midnightblue" d="M1953.05,-188.986C1853.88,-176.042 1683.19,-153.763 1592.51,-141.928"/>
<polygon fill="midnightblue" stroke="midnightblue" points="1592.76,-138.431 1582.39,-140.607 1591.85,-145.372 1592.76,-138.431"/>
</g>
<!-- Node24&#45;&gt;Node20 -->
<g id="edge108" class="edge"><title>Node24&#45;&gt;Node20</title>
<path fill="none" stroke="midnightblue" d="M2021.19,-188.267C2013.46,-178.612 2001.94,-164.215 1992.71,-152.675"/>
<polygon fill="midnightblue" stroke="midnightblue" points="1995.18,-150.156 1986.2,-144.534 1989.71,-154.529 1995.18,-150.156"/>
</g>
<!-- Node26&#45;&gt;Node3 -->
<g id="edge122" class="edge"><title>Node26&#45;&gt;Node3</title>
<path fill="none" stroke="midnightblue" d="M1579.85,-782.347C1562.32,-735.918 1487.03,-548.454 1373.77,-434 1361.46,-421.553 1345.31,-410.645 1331.43,-402.478"/>
<polygon fill="midnightblue" stroke="midnightblue" points="1333.12,-399.415 1322.7,-397.519 1329.66,-405.501 1333.12,-399.415"/>
</g>
<!-- Node26&#45;&gt;Node19 -->
<g id="edge256" class="edge"><title>Node26&#45;&gt;Node19</title>
<path fill="none" stroke="midnightblue" d="M1618.35,-791.247C1686.91,-787.244 1844.6,-775.4 1973.77,-746 2066.69,-724.852 2176.77,-772.292 2176.77,-677 2176.77,-677 2176.77,-677 2176.77,-619 2176.77,-472.416 2089.18,-432.132 1953.77,-376 1895.69,-351.924 1717.78,-338.001 1625.16,-332.203"/>
<polygon fill="midnightblue" stroke="midnightblue" points="1625.31,-328.706 1615.12,-331.585 1624.88,-335.692 1625.31,-328.706"/>
</g>
<!-- Node26&#45;&gt;Node23 -->
<g id="edge252" class="edge"><title>Node26&#45;&gt;Node23</title>
<path fill="none" stroke="midnightblue" d="M1618.58,-791.639C1734.09,-786.934 2104.07,-770.299 2220.77,-746 2311.6,-727.09 2417.77,-769.771 2417.77,-677 2417.77,-677 2417.77,-677 2417.77,-561 2417.77,-494.526 2386.49,-480.284 2338.77,-434 2315.9,-411.814 2304.04,-414.481 2276.77,-398 2261.05,-388.497 2257.62,-385.299 2241.77,-376 2223.25,-365.13 2202.08,-353.553 2185.39,-344.609"/>
<polygon fill="midnightblue" stroke="midnightblue" points="2186.6,-341.287 2176.12,-339.672 2183.3,-347.464 2186.6,-341.287"/>
</g>
<!-- Node27 -->
<g id="node89" class="node"><title>Node27</title>
<a xlink:href="MojDbCursor_8h.htm" target="_top" xlink:title="db/MojDbCursor.h">
<polygon fill="white" stroke="black" points="1039.27,-724.5 1039.27,-745.5 1140.27,-745.5 1140.27,-724.5 1039.27,-724.5"/>
<text text-anchor="middle" x="1089.77" y="-732.5" font-family="Helvetica,sans-Serif" font-size="10.00">db/MojDbCursor.h</text>
</a>
</g>
<!-- Node26&#45;&gt;Node27 -->
<g id="edge124" class="edge"><title>Node26&#45;&gt;Node27</title>
<path fill="none" stroke="midnightblue" d="M1549.18,-789.133C1478.96,-781.255 1314.65,-762.677 1176.77,-746 1168.21,-744.964 1159.17,-743.848 1150.29,-742.737"/>
<polygon fill="midnightblue" stroke="midnightblue" points="1150.72,-739.264 1140.37,-741.491 1149.85,-746.21 1150.72,-739.264"/>
</g>
<!-- Node28 -->
<g id="node92" class="node"><title>Node28</title>
<a xlink:href="MojDbStorageEngine_8h.htm" target="_top" xlink:title="db/MojDbStorageEngine.h">
<polygon fill="white" stroke="black" points="1095.77,-666.5 1095.77,-687.5 1235.77,-687.5 1235.77,-666.5 1095.77,-666.5"/>
<text text-anchor="middle" x="1165.77" y="-674.5" font-family="Helvetica,sans-Serif" font-size="10.00">db/MojDbStorageEngine.h</text>
</a>
</g>
<!-- Node26&#45;&gt;Node28 -->
<g id="edge242" class="edge"><title>Node26&#45;&gt;Node28</title>
<path fill="none" stroke="midnightblue" d="M1549.05,-790.144C1476.42,-783.82 1310.89,-767.481 1258.77,-746 1229.6,-733.974 1201.24,-710.756 1183.66,-694.591"/>
<polygon fill="midnightblue" stroke="midnightblue" points="1186.06,-692.04 1176.38,-687.726 1181.25,-697.133 1186.06,-692.04"/>
</g>
<!-- Node29 -->
<g id="node95" class="node"><title>Node29</title>
<a xlink:href="MojDbWatcher_8h.htm" target="_top" xlink:title="db/MojDbWatcher.h">
<polygon fill="white" stroke="black" points="1367.27,-608.5 1367.27,-629.5 1476.27,-629.5 1476.27,-608.5 1367.27,-608.5"/>
<text text-anchor="middle" x="1421.77" y="-616.5" font-family="Helvetica,sans-Serif" font-size="10.00">db/MojDbWatcher.h</text>
</a>
</g>
<!-- Node26&#45;&gt;Node29 -->
<g id="edge244" class="edge"><title>Node26&#45;&gt;Node29</title>
<path fill="none" stroke="midnightblue" d="M1551.13,-782.419C1531.49,-774.762 1507.04,-762.791 1489.77,-746 1458.12,-715.214 1437.78,-666.483 1428.21,-639.204"/>
<polygon fill="midnightblue" stroke="midnightblue" points="1431.47,-637.927 1424.96,-629.567 1424.84,-640.161 1431.47,-637.927"/>
</g>
<!-- Node30 -->
<g id="node99" class="node"><title>Node30</title>
<a xlink:href="MojSignal_8h.htm" target="_top" xlink:title="core/MojSignal.h">
<polygon fill="white" stroke="black" points="697.273,-434.5 697.273,-455.5 792.273,-455.5 792.273,-434.5 697.273,-434.5"/>
<text text-anchor="middle" x="744.773" y="-442.5" font-family="Helvetica,sans-Serif" font-size="10.00">core/MojSignal.h</text>
</a>
</g>
<!-- Node26&#45;&gt;Node30 -->
<g id="edge254" class="edge"><title>Node26&#45;&gt;Node30</title>
<path fill="none" stroke="midnightblue" d="M1549.17,-792.565C1432.58,-790.773 1055,-782.243 939.773,-746 843.578,-715.742 798.71,-715.205 744.773,-630 712.235,-578.599 727.845,-501.988 738.168,-465.608"/>
<polygon fill="midnightblue" stroke="midnightblue" points="741.624,-466.266 741.143,-455.682 734.919,-464.257 741.624,-466.266"/>
</g>
<!-- Node34 -->
<g id="node114" class="node"><title>Node34</title>
<a xlink:href="MojDbQuotaEngine_8h.htm" target="_top" xlink:title="db/MojDbQuotaEngine.h">
<polygon fill="white" stroke="black" points="978.273,-492.5 978.273,-513.5 1109.27,-513.5 1109.27,-492.5 978.273,-492.5"/>
<text text-anchor="middle" x="1043.77" y="-500.5" font-family="Helvetica,sans-Serif" font-size="10.00">db/MojDbQuotaEngine.h</text>
</a>
</g>
<!-- Node26&#45;&gt;Node34 -->
<g id="edge240" class="edge"><title>Node26&#45;&gt;Node34</title>
<path fill="none" stroke="midnightblue" d="M1549,-792.079C1443.44,-788.966 1128.02,-777.225 1030.77,-746 973.659,-727.661 914.773,-736.987 914.773,-677 914.773,-677 914.773,-677 914.773,-619 914.773,-569.299 968.373,-535.474 1006.47,-517.708"/>
<polygon fill="midnightblue" stroke="midnightblue" points="1008.09,-520.82 1015.78,-513.538 1005.23,-514.432 1008.09,-520.82"/>
</g>
<!-- Node38 -->
<g id="node138" class="node"><title>Node38</title>
<a xlink:href="MojDbIdGenerator_8h.htm" target="_top" xlink:title="db/MojDbIdGenerator.h">
<polygon fill="white" stroke="black" points="1701.27,-434.5 1701.27,-455.5 1828.27,-455.5 1828.27,-434.5 1701.27,-434.5"/>
<text text-anchor="middle" x="1764.77" y="-442.5" font-family="Helvetica,sans-Serif" font-size="10.00">db/MojDbIdGenerator.h</text>
</a>
</g>
<!-- Node26&#45;&gt;Node38 -->
<g id="edge200" class="edge"><title>Node26&#45;&gt;Node38</title>
<path fill="none" stroke="midnightblue" d="M1618.5,-788.93C1734.42,-774.881 2100.77,-726.559 2100.77,-677 2100.77,-677 2100.77,-677 2100.77,-561 2100.77,-531.534 1913.75,-481.469 1818.77,-457.942"/>
<polygon fill="midnightblue" stroke="midnightblue" points="1819.59,-454.539 1809.04,-455.546 1817.92,-461.336 1819.59,-454.539"/>
</g>
<!-- Node39 -->
<g id="node142" class="node"><title>Node39</title>
<a xlink:href="MojDbKindEngine_8h.htm" target="_top" xlink:title="db/MojDbKindEngine.h">
<polygon fill="white" stroke="black" points="2204.27,-666.5 2204.27,-687.5 2327.27,-687.5 2327.27,-666.5 2204.27,-666.5"/>
<text text-anchor="middle" x="2265.77" y="-674.5" font-family="Helvetica,sans-Serif" font-size="10.00">db/MojDbKindEngine.h</text>
</a>
</g>
<!-- Node26&#45;&gt;Node39 -->
<g id="edge206" class="edge"><title>Node26&#45;&gt;Node39</title>
<path fill="none" stroke="midnightblue" d="M1618.5,-791.636C1739.53,-786.702 2138.26,-768.857 2190.77,-746 2215.92,-735.057 2238.1,-712.074 2251.7,-695.64"/>
<polygon fill="midnightblue" stroke="midnightblue" points="2254.5,-697.743 2258,-687.742 2249.03,-693.379 2254.5,-697.743"/>
</g>
<!-- Node41 -->
<g id="node154" class="node"><title>Node41</title>
<a xlink:href="MojDbPermissionEngine_8h.htm" target="_top" xlink:title="db/MojDbPermissionEngine.h">
<polygon fill="white" stroke="black" points="1519.77,-492.5 1519.77,-513.5 1673.77,-513.5 1673.77,-492.5 1519.77,-492.5"/>
<text text-anchor="middle" x="1596.77" y="-500.5" font-family="Helvetica,sans-Serif" font-size="10.00">db/MojDbPermissionEngine.h</text>
</a>
</g>
<!-- Node26&#45;&gt;Node41 -->
<g id="edge226" class="edge"><title>Node26&#45;&gt;Node41</title>
<path fill="none" stroke="midnightblue" d="M1598.08,-782.232C1621.09,-763.556 1663.77,-722.747 1663.77,-677 1663.77,-677 1663.77,-677 1663.77,-619 1663.77,-580.024 1635.06,-542.366 1615.23,-521.004"/>
<polygon fill="midnightblue" stroke="midnightblue" points="1617.6,-518.419 1608.14,-513.645 1612.56,-523.276 1617.6,-518.419"/>
</g>
<!-- Node42 -->
<g id="node165" class="node"><title>Node42</title>
<a xlink:href="MojDbReq_8h.htm" target="_top" xlink:title="db/MojDbReq.h">
<polygon fill="white" stroke="black" points="1595.27,-434.5 1595.27,-455.5 1684.27,-455.5 1684.27,-434.5 1595.27,-434.5"/>
<text text-anchor="middle" x="1639.77" y="-442.5" font-family="Helvetica,sans-Serif" font-size="10.00">db/MojDbReq.h</text>
</a>
</g>
<!-- Node26&#45;&gt;Node42 -->
<g id="edge246" class="edge"><title>Node26&#45;&gt;Node42</title>
<path fill="none" stroke="midnightblue" d="M1607.94,-782.493C1642.46,-765.656 1701.77,-729.14 1701.77,-677 1701.77,-677 1701.77,-677 1701.77,-561 1701.77,-529.192 1698.16,-519.84 1682.77,-492 1676.85,-481.29 1668.02,-471.059 1659.9,-462.893"/>
<polygon fill="midnightblue" stroke="midnightblue" points="1662.08,-460.141 1652.44,-455.748 1657.24,-465.194 1662.08,-460.141"/>
</g>
<!-- Node43 -->
<g id="node172" class="node"><title>Node43</title>
<a xlink:href="MojFile_8h.htm" target="_top" xlink:title="core/MojFile.h">
<polygon fill="white" stroke="black" points="2500.27,-608.5 2500.27,-629.5 2583.27,-629.5 2583.27,-608.5 2500.27,-608.5"/>
<text text-anchor="middle" x="2541.77" y="-616.5" font-family="Helvetica,sans-Serif" font-size="10.00">core/MojFile.h</text>
</a>
</g>
<!-- Node26&#45;&gt;Node43 -->
<g id="edge258" class="edge"><title>Node26&#45;&gt;Node43</title>
<path fill="none" stroke="midnightblue" d="M1618.48,-792.666C1768.62,-791.01 2357.94,-782.233 2431.77,-746 2479.53,-722.564 2515.07,-668.061 2531.56,-638.652"/>
<polygon fill="midnightblue" stroke="midnightblue" points="2534.72,-640.18 2536.42,-629.722 2528.57,-636.838 2534.72,-640.18"/>
</g>
<!-- Node27&#45;&gt;Node3 -->
<g id="edge126" class="edge"><title>Node27&#45;&gt;Node3</title>
<path fill="none" stroke="midnightblue" d="M1140.64,-725.485C1180.23,-717.04 1230.73,-703.638 1244.77,-688 1317.93,-606.543 1310.29,-461.456 1304.49,-407.744"/>
<polygon fill="midnightblue" stroke="midnightblue" points="1307.96,-407.248 1303.31,-397.726 1301,-408.067 1307.96,-407.248"/>
</g>
<!-- Node27&#45;&gt;Node10 -->
<g id="edge198" class="edge"><title>Node27&#45;&gt;Node10</title>
<path fill="none" stroke="midnightblue" d="M1038.81,-733.499C907.681,-729.278 561.117,-715.762 449.773,-688 325.815,-657.093 302.658,-625.774 186.773,-572 102.465,-532.879 47.1983,-542.333 12.7732,-456 -0.39617,-422.973 -7.016,-405.54 12.7732,-376 64.8105,-298.324 746.157,-116.5 748.773,-116 851.049,-96.4386 1156.78,-78.9768 1289.33,-72.1025"/>
<polygon fill="midnightblue" stroke="midnightblue" points="1289.53,-75.5972 1299.33,-71.5869 1289.17,-68.6065 1289.53,-75.5972"/>
</g>
<!-- Node27&#45;&gt;Node28 -->
<g id="edge128" class="edge"><title>Node27&#45;&gt;Node28</title>
<path fill="none" stroke="midnightblue" d="M1103.71,-724.362C1114.96,-715.777 1130.99,-703.546 1143.94,-693.664"/>
<polygon fill="midnightblue" stroke="midnightblue" points="1146.1,-696.42 1151.92,-687.571 1141.85,-690.855 1146.1,-696.42"/>
</g>
<!-- Node36 -->
<g id="node128" class="node"><title>Node36</title>
<a xlink:href="MojDbQueryFilter_8h.htm" target="_top" xlink:title="db/MojDbQueryFilter.h">
<polygon fill="white" stroke="black" points="1007.27,-550.5 1007.27,-571.5 1128.27,-571.5 1128.27,-550.5 1007.27,-550.5"/>
<text text-anchor="middle" x="1067.77" y="-558.5" font-family="Helvetica,sans-Serif" font-size="10.00">db/MojDbQueryFilter.h</text>
</a>
</g>
<!-- Node27&#45;&gt;Node36 -->
<g id="edge184" class="edge"><title>Node27&#45;&gt;Node36</title>
<path fill="none" stroke="midnightblue" d="M1088.43,-724.377C1084.88,-696.293 1075.19,-619.673 1070.45,-582.203"/>
<polygon fill="midnightblue" stroke="midnightblue" points="1073.88,-581.41 1069.15,-571.928 1066.94,-582.288 1073.88,-581.41"/>
</g>
<!-- Node37 -->
<g id="node132" class="node"><title>Node37</title>
<a xlink:href="MojObjectFilter_8h.htm" target="_top" xlink:title="core/MojObjectFilter.h">
<polygon fill="white" stroke="black" points="305.273,-434.5 305.273,-455.5 424.273,-455.5 424.273,-434.5 305.273,-434.5"/>
<text text-anchor="middle" x="364.773" y="-442.5" font-family="Helvetica,sans-Serif" font-size="10.00">core/MojObjectFilter.h</text>
</a>
</g>
<!-- Node27&#45;&gt;Node37 -->
<g id="edge190" class="edge"><title>Node27&#45;&gt;Node37</title>
<path fill="none" stroke="midnightblue" d="M1039.08,-732.249C874.361,-722.642 364.773,-687.395 364.773,-619 364.773,-619 364.773,-619 364.773,-561 364.773,-527.598 364.773,-488.785 364.773,-465.594"/>
<polygon fill="midnightblue" stroke="midnightblue" points="368.273,-465.556 364.773,-455.556 361.273,-465.556 368.273,-465.556"/>
</g>
<!-- Node28&#45;&gt;Node3 -->
<g id="edge130" class="edge"><title>Node28&#45;&gt;Node3</title>
<path fill="none" stroke="midnightblue" d="M1170.77,-666.335C1190.85,-623.526 1265.77,-463.763 1292.35,-407.093"/>
<polygon fill="midnightblue" stroke="midnightblue" points="1295.65,-408.302 1296.73,-397.762 1289.31,-405.33 1295.65,-408.302"/>
</g>
<!-- Node28&#45;&gt;Node8 -->
<g id="edge176" class="edge"><title>Node28&#45;&gt;Node8</title>
<path fill="none" stroke="midnightblue" d="M1176,-666.39C1200.93,-640.504 1266.72,-571.986 1320.77,-514 1344.58,-488.457 1354.11,-484.854 1373.77,-456 1445.96,-350.097 1504.2,-206.344 1524.26,-154.058"/>
<polygon fill="midnightblue" stroke="midnightblue" points="1527.58,-155.188 1527.86,-144.596 1521.03,-152.702 1527.58,-155.188"/>
</g>
<!-- Node28&#45;&gt;Node12 -->
<g id="edge180" class="edge"><title>Node28&#45;&gt;Node12</title>
<path fill="none" stroke="midnightblue" d="M1095.54,-674.797C868.58,-666.033 161.902,-625.356 28.7732,-456 6.79977,-428.047 7.34344,-404.372 28.7732,-376 85.5849,-300.784 140.299,-336.263 232.773,-318 381.458,-288.636 559.654,-273.715 650.01,-267.553"/>
<polygon fill="midnightblue" stroke="midnightblue" points="650.315,-271.041 660.059,-266.879 649.847,-264.056 650.315,-271.041"/>
</g>
<!-- Node28&#45;&gt;Node16 -->
<g id="edge178" class="edge"><title>Node28&#45;&gt;Node16</title>
<path fill="none" stroke="midnightblue" d="M1095.76,-670.565C1010.09,-662.151 870.302,-646.527 820.773,-630 670.164,-579.744 595.995,-588.67 508.773,-456 499.496,-441.889 498.283,-422.53 499.083,-407.908"/>
<polygon fill="midnightblue" stroke="midnightblue" points="502.58,-408.088 499.986,-397.816 495.608,-407.464 502.58,-408.088"/>
</g>
<!-- Node28&#45;&gt;Node29 -->
<g id="edge132" class="edge"><title>Node28&#45;&gt;Node29</title>
<path fill="none" stroke="midnightblue" d="M1212.13,-666.497C1255.22,-656.734 1319.5,-642.172 1365.51,-631.747"/>
<polygon fill="midnightblue" stroke="midnightblue" points="1366.35,-635.146 1375.33,-629.523 1364.8,-628.319 1366.35,-635.146"/>
</g>
<!-- Node28&#45;&gt;Node30 -->
<g id="edge182" class="edge"><title>Node28&#45;&gt;Node30</title>
<path fill="none" stroke="midnightblue" d="M1095.39,-668.381C991.194,-654.102 803.461,-622.049 759.773,-572 734.109,-542.599 736.617,-493.696 740.709,-465.935"/>
<polygon fill="midnightblue" stroke="midnightblue" points="744.211,-466.213 742.421,-455.771 737.308,-465.05 744.211,-466.213"/>
</g>
<!-- Node28&#45;&gt;Node34 -->
<g id="edge160" class="edge"><title>Node28&#45;&gt;Node34</title>
<path fill="none" stroke="midnightblue" d="M1166.22,-666.188C1166.64,-642.529 1164.5,-585.453 1136.77,-550 1125.22,-535.228 1107.78,-524.713 1091.11,-517.43"/>
<polygon fill="midnightblue" stroke="midnightblue" points="1092.01,-514.021 1081.43,-513.507 1089.38,-520.508 1092.01,-514.021"/>
</g>
<!-- Node29&#45;&gt;Node2 -->
<g id="edge136" class="edge"><title>Node29&#45;&gt;Node2</title>
<path fill="none" stroke="midnightblue" d="M1367.22,-613.673C1258.95,-603.102 1017.09,-579.485 897.483,-567.807"/>
<polygon fill="midnightblue" stroke="midnightblue" points="897.635,-564.305 887.343,-566.817 896.955,-571.272 897.635,-564.305"/>
</g>
<!-- Node29&#45;&gt;Node3 -->
<g id="edge134" class="edge"><title>Node29&#45;&gt;Node3</title>
<path fill="none" stroke="midnightblue" d="M1419.7,-608.148C1413.6,-578.247 1393.61,-492.982 1353.77,-434 1346.11,-422.655 1335.14,-412.205 1325.25,-404.054"/>
<polygon fill="midnightblue" stroke="midnightblue" points="1327.31,-401.222 1317.29,-397.778 1322.98,-406.719 1327.31,-401.222"/>
</g>
<!-- Node29&#45;&gt;Node30 -->
<g id="edge138" class="edge"><title>Node29&#45;&gt;Node30</title>
<path fill="none" stroke="midnightblue" d="M1379.84,-608.497C1324.33,-594.675 1223.37,-569.813 1136.77,-550 1062.76,-533.066 1043.25,-533.148 969.773,-514 904.896,-497.092 830.747,-473.511 785.867,-458.758"/>
<polygon fill="midnightblue" stroke="midnightblue" points="786.796,-455.379 776.203,-455.568 784.603,-462.026 786.796,-455.379"/>
</g>
<!-- Node31 -->
<g id="node103" class="node"><title>Node31</title>
<a xlink:href="MojThread_8h.htm" target="_top" xlink:title="core/MojThread.h">
<polygon fill="white" stroke="black" points="1844.27,-376.5 1844.27,-397.5 1945.27,-397.5 1945.27,-376.5 1844.27,-376.5"/>
<text text-anchor="middle" x="1894.77" y="-384.5" font-family="Helvetica,sans-Serif" font-size="10.00">core/MojThread.h</text>
</a>
</g>
<!-- Node29&#45;&gt;Node31 -->
<g id="edge158" class="edge"><title>Node29&#45;&gt;Node31</title>
<path fill="none" stroke="midnightblue" d="M1476.37,-611.872C1607.32,-593.543 1933.11,-540.22 1996.77,-456 2015.51,-431.213 1980.1,-412.331 1945.98,-400.638"/>
<polygon fill="midnightblue" stroke="midnightblue" points="1947.03,-397.299 1936.44,-397.532 1944.86,-403.956 1947.03,-397.299"/>
</g>
<!-- Node30&#45;&gt;Node4 -->
<g id="edge140" class="edge"><title>Node30&#45;&gt;Node4</title>
<path fill="none" stroke="midnightblue" d="M713.085,-434.462C639.597,-407.802 463.773,-330.297 463.773,-199 463.773,-199 463.773,-199 463.773,-134 463.773,-39.325 570.206,-77.8644 662.773,-58 804.251,-27.6398 1240.34,-15.7389 1407.04,-12.2227"/>
<polygon fill="midnightblue" stroke="midnightblue" points="1407.23,-15.7197 1417.16,-12.0128 1407.08,-8.72121 1407.23,-15.7197"/>
</g>
<!-- Node30&#45;&gt;Node11 -->
<g id="edge142" class="edge"><title>Node30&#45;&gt;Node11</title>
<path fill="none" stroke="midnightblue" d="M732.683,-434.393C718.164,-420.348 697.346,-395.128 710.773,-376 741.16,-332.713 889.285,-293.545 969.28,-275.116"/>
<polygon fill="midnightblue" stroke="midnightblue" points="970.183,-278.5 979.156,-272.866 968.629,-271.674 970.183,-278.5"/>
</g>
<!-- Node30&#45;&gt;Node12 -->
<g id="edge154" class="edge"><title>Node30&#45;&gt;Node12</title>
<path fill="none" stroke="midnightblue" d="M719.273,-434.488C704.235,-426.797 686.492,-414.766 677.773,-398 661.369,-366.455 668.613,-352.355 677.773,-318 681.1,-305.525 688.07,-292.936 694.56,-283.055"/>
<polygon fill="midnightblue" stroke="midnightblue" points="697.446,-285.035 700.267,-274.823 691.693,-281.047 697.446,-285.035"/>
</g>
<!-- Node30&#45;&gt;Node31 -->
<g id="edge144" class="edge"><title>Node30&#45;&gt;Node31</title>
<path fill="none" stroke="midnightblue" d="M792.36,-442.6C974.845,-433.396 1629.88,-400.36 1833.76,-390.077"/>
<polygon fill="midnightblue" stroke="midnightblue" points="1834.17,-393.561 1843.98,-389.562 1833.82,-386.57 1834.17,-393.561"/>
</g>
<!-- Node33 -->
<g id="node111" class="node"><title>Node33</title>
<a xlink:href="MojSignalInternal_8h.htm" target="_top" xlink:title="core/internal/MojSignalInternal.h">
<polygon fill="white" stroke="black" points="719.773,-376.5 719.773,-397.5 889.773,-397.5 889.773,-376.5 719.773,-376.5"/>
<text text-anchor="middle" x="804.773" y="-384.5" font-family="Helvetica,sans-Serif" font-size="10.00">core/internal/MojSignalInternal.h</text>
</a>
</g>
<!-- Node30&#45;&gt;Node33 -->
<g id="edge156" class="edge"><title>Node30&#45;&gt;Node33</title>
<path fill="none" stroke="midnightblue" d="M755.778,-434.362C764.32,-426.104 776.353,-414.472 786.356,-404.803"/>
<polygon fill="midnightblue" stroke="midnightblue" points="789.081,-407.037 793.838,-397.571 784.216,-402.004 789.081,-407.037"/>
</g>
<!-- Node31&#45;&gt;Node4 -->
<g id="edge146" class="edge"><title>Node31&#45;&gt;Node4</title>
<path fill="none" stroke="midnightblue" d="M1889.95,-376.442C1878.54,-352.069 1848.19,-290.56 1812.77,-246 1736.87,-150.494 1717.46,-120.637 1612.77,-58 1587.41,-42.8256 1556.5,-31.7872 1530.19,-24.2368"/>
<polygon fill="midnightblue" stroke="midnightblue" points="1530.92,-20.8076 1520.35,-21.5125 1529.05,-27.5538 1530.92,-20.8076"/>
</g>
<!-- Node31&#45;&gt;Node9 -->
<g id="edge148" class="edge"><title>Node31&#45;&gt;Node9</title>
<path fill="none" stroke="midnightblue" d="M1878.05,-376.355C1850.55,-357.389 1798.77,-314.926 1798.77,-264 1798.77,-264 1798.77,-264 1798.77,-199 1798.77,-148.977 1651.26,-103.534 1568.86,-82.0516"/>
<polygon fill="midnightblue" stroke="midnightblue" points="1569.71,-78.6551 1559.15,-79.5519 1567.96,-85.4341 1569.71,-78.6551"/>
</g>
<!-- Node32 -->
<g id="node107" class="node"><title>Node32</title>
<a xlink:href="MojThreadInternal_8h.htm" target="_top" xlink:title="core/internal/MojThreadInternal.h">
<polygon fill="white" stroke="black" points="1596.27,-253.5 1596.27,-274.5 1771.27,-274.5 1771.27,-253.5 1596.27,-253.5"/>
<text text-anchor="middle" x="1683.77" y="-261.5" font-family="Helvetica,sans-Serif" font-size="10.00">core/internal/MojThreadInternal.h</text>
</a>
</g>
<!-- Node31&#45;&gt;Node32 -->
<g id="edge150" class="edge"><title>Node31&#45;&gt;Node32</title>
<path fill="none" stroke="midnightblue" d="M1864.9,-376.482C1842.23,-367.974 1810.66,-354.974 1784.77,-340 1754.69,-322.597 1723.17,-297.64 1703.51,-281.135"/>
<polygon fill="midnightblue" stroke="midnightblue" points="1705.73,-278.433 1695.85,-274.626 1701.2,-283.768 1705.73,-278.433"/>
</g>
<!-- Node32&#45;&gt;Node8 -->
<g id="edge152" class="edge"><title>Node32&#45;&gt;Node8</title>
<path fill="none" stroke="midnightblue" d="M1671.33,-253.362C1645.17,-230.984 1584.22,-178.858 1552.22,-151.49"/>
<polygon fill="midnightblue" stroke="midnightblue" points="1554.26,-148.625 1544.38,-144.785 1549.71,-153.945 1554.26,-148.625"/>
</g>
<!-- Node34&#45;&gt;Node3 -->
<g id="edge162" class="edge"><title>Node34&#45;&gt;Node3</title>
<path fill="none" stroke="midnightblue" d="M1036.53,-492.334C1027.46,-477.528 1014.71,-450.687 1028.77,-434 1042.61,-417.578 1170.01,-401.194 1245.79,-392.788"/>
<polygon fill="midnightblue" stroke="midnightblue" points="1246.56,-396.224 1256.12,-391.655 1245.8,-389.266 1246.56,-396.224"/>
</g>
<!-- Node34&#45;&gt;Node17 -->
<g id="edge170" class="edge"><title>Node34&#45;&gt;Node17</title>
<path fill="none" stroke="midnightblue" d="M979.547,-492.459C939.702,-484.462 893.865,-472.098 881.773,-456 867.414,-436.883 913.723,-377.709 939.579,-347.361"/>
<polygon fill="midnightblue" stroke="midnightblue" points="942.375,-349.479 946.262,-339.623 937.077,-344.903 942.375,-349.479"/>
</g>
<!-- Node34&#45;&gt;Node19 -->
<g id="edge174" class="edge"><title>Node34&#45;&gt;Node19</title>
<path fill="none" stroke="midnightblue" d="M1033.69,-492.203C1021.41,-477.721 1003.93,-451.773 1017.77,-434 1077.76,-357.006 1382.06,-336.195 1510.48,-330.801"/>
<polygon fill="midnightblue" stroke="midnightblue" points="1510.66,-334.296 1520.51,-330.396 1510.38,-327.302 1510.66,-334.296"/>
</g>
<!-- Node34&#45;&gt;Node30 -->
<g id="edge172" class="edge"><title>Node34&#45;&gt;Node30</title>
<path fill="none" stroke="midnightblue" d="M989.627,-492.497C936.822,-482.254 856.777,-466.726 802.713,-456.239"/>
<polygon fill="midnightblue" stroke="midnightblue" points="803.081,-452.745 792.598,-454.277 801.748,-459.617 803.081,-452.745"/>
</g>
<!-- Node35 -->
<g id="node117" class="node"><title>Node35</title>
<a xlink:href="MojDbPutHandler_8h.htm" target="_top" xlink:title="db/MojDbPutHandler.h">
<polygon fill="white" stroke="black" points="1037.77,-434.5 1037.77,-455.5 1159.77,-455.5 1159.77,-434.5 1037.77,-434.5"/>
<text text-anchor="middle" x="1098.77" y="-442.5" font-family="Helvetica,sans-Serif" font-size="10.00">db/MojDbPutHandler.h</text>
</a>
</g>
<!-- Node34&#45;&gt;Node35 -->
<g id="edge164" class="edge"><title>Node34&#45;&gt;Node35</title>
<path fill="none" stroke="midnightblue" d="M1053.86,-492.362C1061.61,-484.186 1072.5,-472.702 1081.62,-463.091"/>
<polygon fill="midnightblue" stroke="midnightblue" points="1084.41,-465.235 1088.75,-455.571 1079.33,-460.419 1084.41,-465.235"/>
</g>
<!-- Node35&#45;&gt;Node3 -->
<g id="edge166" class="edge"><title>Node35&#45;&gt;Node3</title>
<path fill="none" stroke="midnightblue" d="M1135.53,-434.497C1169.06,-424.918 1218.75,-410.72 1255.08,-400.342"/>
<polygon fill="midnightblue" stroke="midnightblue" points="1256.29,-403.636 1264.94,-397.523 1254.37,-396.905 1256.29,-403.636"/>
</g>
<!-- Node35&#45;&gt;Node13 -->
<g id="edge168" class="edge"><title>Node35&#45;&gt;Node13</title>
<path fill="none" stroke="midnightblue" d="M1104.02,-434.43C1122.75,-396.659 1186.56,-267.995 1211.07,-218.564"/>
<polygon fill="midnightblue" stroke="midnightblue" points="1214.24,-220.045 1215.55,-209.531 1207.97,-216.935 1214.24,-220.045"/>
</g>
<!-- Node36&#45;&gt;Node3 -->
<g id="edge186" class="edge"><title>Node36&#45;&gt;Node3</title>
<path fill="none" stroke="midnightblue" d="M1124.28,-550.416C1150.01,-543.412 1179.61,-532.068 1201.77,-514 1233.91,-487.803 1223.44,-466.028 1249.77,-434 1258.71,-423.132 1270.18,-412.493 1280.08,-404.094"/>
<polygon fill="midnightblue" stroke="midnightblue" points="1282.44,-406.677 1287.92,-397.609 1277.99,-401.28 1282.44,-406.677"/>
</g>
<!-- Node36&#45;&gt;Node5 -->
<g id="edge188" class="edge"><title>Node36&#45;&gt;Node5</title>
<path fill="none" stroke="midnightblue" d="M1023.41,-550.497C982.34,-540.775 921.169,-526.294 877.175,-515.879"/>
<polygon fill="midnightblue" stroke="midnightblue" points="877.761,-512.421 867.224,-513.523 876.149,-519.233 877.761,-512.421"/>
</g>
<!-- Node37&#45;&gt;Node16 -->
<g id="edge192" class="edge"><title>Node37&#45;&gt;Node16</title>
<path fill="none" stroke="midnightblue" d="M389.583,-434.497C411.27,-425.315 442.984,-411.889 467.165,-401.652"/>
<polygon fill="midnightblue" stroke="midnightblue" points="468.841,-404.743 476.685,-397.621 466.112,-398.297 468.841,-404.743"/>
</g>
<!-- Node37&#45;&gt;Node19 -->
<g id="edge196" class="edge"><title>Node37&#45;&gt;Node19</title>
<path fill="none" stroke="midnightblue" d="M372.963,-434.374C386.088,-418.287 413.553,-388.324 444.773,-376 537.347,-339.458 1240.35,-344.398 1339.77,-340 1397.93,-337.428 1464.41,-334.186 1510.52,-331.889"/>
<polygon fill="midnightblue" stroke="midnightblue" points="1510.81,-335.38 1520.62,-331.385 1510.46,-328.388 1510.81,-335.38"/>
</g>
<!-- Node37&#45;&gt;Node21 -->
<g id="edge194" class="edge"><title>Node37&#45;&gt;Node21</title>
<path fill="none" stroke="midnightblue" d="M351.384,-434.362C340.682,-425.859 325.477,-413.779 313.103,-403.947"/>
<polygon fill="midnightblue" stroke="midnightblue" points="315.085,-401.051 305.078,-397.571 310.73,-406.532 315.085,-401.051"/>
</g>
<!-- Node38&#45;&gt;Node3 -->
<g id="edge202" class="edge"><title>Node38&#45;&gt;Node3</title>
<path fill="none" stroke="midnightblue" d="M1701.19,-435.173C1698.34,-434.769 1695.53,-434.376 1692.77,-434 1573.56,-417.733 1433.49,-401.622 1357.56,-393.138"/>
<polygon fill="midnightblue" stroke="midnightblue" points="1357.61,-389.622 1347.29,-391.993 1356.84,-396.579 1357.61,-389.622"/>
</g>
<!-- Node38&#45;&gt;Node31 -->
<g id="edge204" class="edge"><title>Node38&#45;&gt;Node31</title>
<path fill="none" stroke="midnightblue" d="M1788.32,-434.497C1808.8,-425.356 1838.72,-412.008 1861.63,-401.788"/>
<polygon fill="midnightblue" stroke="midnightblue" points="1863.26,-404.892 1870.97,-397.621 1860.41,-398.499 1863.26,-404.892"/>
</g>
<!-- Node39&#45;&gt;Node3 -->
<g id="edge208" class="edge"><title>Node39&#45;&gt;Node3</title>
<path fill="none" stroke="midnightblue" d="M2204.24,-668.254C2046.6,-645.139 1632.18,-579.682 1510.77,-514 1466.27,-489.924 1472.49,-461.114 1429.77,-434 1406.5,-419.227 1377.91,-408.168 1353.66,-400.502"/>
<polygon fill="midnightblue" stroke="midnightblue" points="1354.5,-397.098 1343.91,-397.526 1352.45,-403.793 1354.5,-397.098"/>
</g>
<!-- Node39&#45;&gt;Node8 -->
<g id="edge212" class="edge"><title>Node39&#45;&gt;Node8</title>
<path fill="none" stroke="midnightblue" d="M2271.88,-666.191C2282.62,-646.127 2303.77,-601.477 2303.77,-561 2303.77,-561 2303.77,-561 2303.77,-503 2303.77,-467.553 2290.49,-457.298 2263.77,-434 2207.17,-384.633 1712.83,-200.586 1570.16,-148.071"/>
<polygon fill="midnightblue" stroke="midnightblue" points="1571.1,-144.688 1560.51,-144.521 1568.69,-151.258 1571.1,-144.688"/>
</g>
<!-- Node39&#45;&gt;Node19 -->
<g id="edge216" class="edge"><title>Node39&#45;&gt;Node19</title>
<path fill="none" stroke="midnightblue" d="M2265.77,-666.444C2265.77,-646.062 2265.77,-599.868 2265.77,-561 2265.77,-561 2265.77,-561 2265.77,-503 2265.77,-470.531 2265.56,-456.099 2241.77,-434 2239.49,-431.877 2027.84,-376.564 2024.77,-376 1882.31,-349.806 1711.97,-337.123 1625.01,-331.964"/>
<polygon fill="midnightblue" stroke="midnightblue" points="1625.02,-328.458 1614.83,-331.371 1624.61,-335.446 1625.02,-328.458"/>
</g>
<!-- Node39&#45;&gt;Node23 -->
<g id="edge214" class="edge"><title>Node39&#45;&gt;Node23</title>
<path fill="none" stroke="midnightblue" d="M2281.36,-666.271C2292.85,-657.652 2308.09,-644.606 2317.77,-630 2335.71,-602.936 2341.77,-593.469 2341.77,-561 2341.77,-561 2341.77,-561 2341.77,-503 2341.77,-470.531 2339.34,-458.273 2317.77,-434 2293.48,-406.658 2274.78,-417.393 2243.77,-398 2218.88,-382.43 2192.68,-361.173 2175.41,-346.383"/>
<polygon fill="midnightblue" stroke="midnightblue" points="2177.55,-343.6 2167.7,-339.696 2172.96,-348.89 2177.55,-343.6"/>
</g>
<!-- Node39&#45;&gt;Node29 -->
<g id="edge210" class="edge"><title>Node39&#45;&gt;Node29</title>
<path fill="none" stroke="midnightblue" d="M2204,-673.898C2077.15,-667.347 1778.21,-650.961 1527.77,-630 1514.48,-628.887 1500.26,-627.528 1486.7,-626.15"/>
<polygon fill="midnightblue" stroke="midnightblue" points="1486.78,-622.641 1476.48,-625.097 1486.07,-629.604 1486.78,-622.641"/>
</g>
<!-- Node39&#45;&gt;Node31 -->
<g id="edge218" class="edge"><title>Node39&#45;&gt;Node31</title>
<path fill="none" stroke="midnightblue" d="M2262.1,-666.421C2246.49,-621.719 2185.57,-449.878 2165.77,-434 2149.59,-421.016 2030.44,-403.995 1955.61,-394.406"/>
<polygon fill="midnightblue" stroke="midnightblue" points="1955.73,-390.892 1945.37,-393.103 1954.84,-397.836 1955.73,-390.892"/>
</g>
<!-- Node40 -->
<g id="node150" class="node"><title>Node40</title>
<a xlink:href="MojTokenSet_8h.htm" target="_top" xlink:title="core/MojTokenSet.h">
<polygon fill="white" stroke="red" points="2285.77,-376.5 2285.77,-397.5 2397.77,-397.5 2397.77,-376.5 2285.77,-376.5"/>
<text text-anchor="middle" x="2341.77" y="-384.5" font-family="Helvetica,sans-Serif" font-size="10.00">core/MojTokenSet.h</text>
</a>
</g>
<!-- Node39&#45;&gt;Node40 -->
<g id="edge220" class="edge"><title>Node39&#45;&gt;Node40</title>
<path fill="none" stroke="midnightblue" d="M2306.17,-666.439C2324.69,-659.357 2344.9,-647.94 2355.77,-630 2399.36,-558.065 2366.71,-451.091 2350.02,-407.051"/>
<polygon fill="midnightblue" stroke="midnightblue" points="2353.27,-405.755 2346.36,-397.723 2346.75,-408.311 2353.27,-405.755"/>
</g>
<!-- Node40&#45;&gt;Node4 -->
<g id="edge222" class="edge"><title>Node40&#45;&gt;Node4</title>
<path fill="none" stroke="midnightblue" d="M2334.48,-376.357C2321.06,-355.685 2293.77,-308.241 2293.77,-264 2293.77,-264 2293.77,-264 2293.77,-134 2293.77,-35.9952 2182.54,-78.8262 2086.77,-58 1983.81,-35.6094 1675.39,-19.8346 1538.94,-13.7622"/>
<polygon fill="midnightblue" stroke="midnightblue" points="1538.78,-10.2517 1528.64,-13.3074 1538.47,-17.2449 1538.78,-10.2517"/>
</g>
<!-- Node40&#45;&gt;Node23 -->
<g id="edge224" class="edge"><title>Node40&#45;&gt;Node23</title>
<path fill="none" stroke="midnightblue" d="M2308.09,-376.497C2277.64,-367 2232.62,-352.962 2199.41,-342.609"/>
<polygon fill="midnightblue" stroke="midnightblue" points="2200.11,-339.159 2189.52,-339.523 2198.02,-345.841 2200.11,-339.159"/>
</g>
<!-- Node41&#45;&gt;Node3 -->
<g id="edge228" class="edge"><title>Node41&#45;&gt;Node3</title>
<path fill="none" stroke="midnightblue" d="M1579.82,-492.398C1555.69,-477.668 1509.7,-450.917 1467.77,-434 1431.9,-419.526 1389.98,-407.694 1357.24,-399.523"/>
<polygon fill="midnightblue" stroke="midnightblue" points="1357.94,-396.09 1347.39,-397.105 1356.27,-402.888 1357.94,-396.09"/>
</g>
<!-- Node41&#45;&gt;Node17 -->
<g id="edge234" class="edge"><title>Node41&#45;&gt;Node17</title>
<path fill="none" stroke="midnightblue" d="M1519.53,-500.572C1373.8,-495.418 1069.23,-481.695 1028.77,-456 990.13,-431.458 969.739,-378.639 961.037,-349.443"/>
<polygon fill="midnightblue" stroke="midnightblue" points="964.325,-348.205 958.261,-339.518 957.584,-350.091 964.325,-348.205"/>
</g>
<!-- Node41&#45;&gt;Node19 -->
<g id="edge236" class="edge"><title>Node41&#45;&gt;Node19</title>
<path fill="none" stroke="midnightblue" d="M1594.28,-492.21C1592.13,-482.707 1589.03,-468.478 1586.77,-456 1580.02,-418.713 1573.86,-374.955 1570.48,-349.755"/>
<polygon fill="midnightblue" stroke="midnightblue" points="1573.92,-349.027 1569.13,-339.573 1566.98,-349.946 1573.92,-349.027"/>
</g>
<!-- Node41&#45;&gt;Node23 -->
<g id="edge232" class="edge"><title>Node41&#45;&gt;Node23</title>
<path fill="none" stroke="midnightblue" d="M1673.88,-498.185C1794.94,-490.155 2019.21,-473.206 2051.77,-456 2097.53,-431.822 2130.7,-378.044 2146.12,-348.824"/>
<polygon fill="midnightblue" stroke="midnightblue" points="2149.4,-350.099 2150.82,-339.601 2143.16,-346.918 2149.4,-350.099"/>
</g>
<!-- Node41&#45;&gt;Node31 -->
<g id="edge238" class="edge"><title>Node41&#45;&gt;Node31</title>
<path fill="none" stroke="midnightblue" d="M1673.8,-498.964C1780.04,-492.596 1960.8,-478.57 1980.77,-456 1999.97,-434.306 1966.41,-414.147 1935.77,-401.29"/>
<polygon fill="midnightblue" stroke="midnightblue" points="1937,-398.011 1926.41,-397.541 1934.39,-404.509 1937,-398.011"/>
</g>
<!-- Node41&#45;&gt;Node35 -->
<g id="edge230" class="edge"><title>Node41&#45;&gt;Node35</title>
<path fill="none" stroke="midnightblue" d="M1519.51,-494.001C1424.05,-482.884 1262.94,-464.12 1170.24,-453.323"/>
<polygon fill="midnightblue" stroke="midnightblue" points="1170.45,-449.824 1160.11,-452.143 1169.64,-456.777 1170.45,-449.824"/>
</g>
<!-- Node42&#45;&gt;Node3 -->
<g id="edge248" class="edge"><title>Node42&#45;&gt;Node3</title>
<path fill="none" stroke="midnightblue" d="M1595.24,-437.358C1534.03,-426.854 1423.93,-407.962 1357.38,-396.542"/>
<polygon fill="midnightblue" stroke="midnightblue" points="1357.94,-393.086 1347.49,-394.845 1356.75,-399.986 1357.94,-393.086"/>
</g>
<!-- Node42&#45;&gt;Node19 -->
<g id="edge250" class="edge"><title>Node42&#45;&gt;Node19</title>
<path fill="none" stroke="midnightblue" d="M1633.13,-434.295C1620.97,-414.7 1594.97,-372.82 1579.69,-348.191"/>
<polygon fill="midnightblue" stroke="midnightblue" points="1582.65,-346.33 1574.4,-339.679 1576.7,-350.021 1582.65,-346.33"/>
</g>
<!-- Node43&#45;&gt;Node4 -->
<g id="edge260" class="edge"><title>Node43&#45;&gt;Node4</title>
<path fill="none" stroke="midnightblue" d="M2557.15,-608.479C2581.88,-590.167 2627.77,-549.881 2627.77,-503 2627.77,-503 2627.77,-503 2627.77,-134 2627.77,-91.9195 2726.15,-115.309 2450.77,-58 2275.82,-21.5894 1728.53,-13.2837 1538.53,-11.478"/>
<polygon fill="midnightblue" stroke="midnightblue" points="1538.45,-7.97716 1528.41,-11.3848 1538.38,-14.9769 1538.45,-7.97716"/>
</g>
<!-- Node44&#45;&gt;Node3 -->
<g id="edge264" class="edge"><title>Node44&#45;&gt;Node3</title>
<path fill="none" stroke="midnightblue" d="M1318.68,-724.291C1325.71,-704.027 1339.77,-658.554 1339.77,-619 1339.77,-619 1339.77,-619 1339.77,-503 1339.77,-467.741 1323.72,-429.315 1312.48,-406.732"/>
<polygon fill="midnightblue" stroke="midnightblue" points="1315.58,-405.09 1307.88,-397.809 1309.35,-408.301 1315.58,-405.09"/>
</g>
<!-- Node44&#45;&gt;Node21 -->
<g id="edge300" class="edge"><title>Node44&#45;&gt;Node21</title>
<path fill="none" stroke="midnightblue" d="M1267.19,-731.829C1135.3,-722.959 771.187,-697.893 717.773,-688 628.447,-671.456 604.248,-668.088 521.773,-630 393.182,-570.615 322.259,-580.531 254.773,-456 245.32,-438.556 258.676,-418.571 271.904,-404.615"/>
<polygon fill="midnightblue" stroke="midnightblue" points="274.424,-407.046 279.094,-397.536 269.512,-402.058 274.424,-407.046"/>
</g>
<!-- Node44&#45;&gt;Node28 -->
<g id="edge296" class="edge"><title>Node44&#45;&gt;Node28</title>
<path fill="none" stroke="midnightblue" d="M1287.79,-724.497C1263.92,-715.205 1228.88,-701.565 1202.47,-691.283"/>
<polygon fill="midnightblue" stroke="midnightblue" points="1203.4,-687.889 1192.81,-687.523 1200.86,-694.412 1203.4,-687.889"/>
</g>
<!-- Node44&#45;&gt;Node29 -->
<g id="edge298" class="edge"><title>Node44&#45;&gt;Node29</title>
<path fill="none" stroke="midnightblue" d="M1324.65,-724.295C1342.96,-704.441 1382.38,-661.709 1404.96,-637.224"/>
<polygon fill="midnightblue" stroke="midnightblue" points="1407.72,-639.403 1411.92,-629.679 1402.57,-634.657 1407.72,-639.403"/>
</g>
<!-- Node44&#45;&gt;Node31 -->
<g id="edge302" class="edge"><title>Node44&#45;&gt;Node31</title>
<path fill="none" stroke="midnightblue" d="M1362.45,-724.6C1510.07,-691.201 1953.24,-581.5 2012.77,-456 2026.86,-426.308 1991.18,-408.548 1955.45,-398.501"/>
<polygon fill="midnightblue" stroke="midnightblue" points="1955.97,-395.02 1945.41,-395.867 1954.19,-401.79 1955.97,-395.02"/>
</g>
<!-- Node45 -->
<g id="node178" class="node"><title>Node45</title>
<a xlink:href="MojDbExtractor_8h.htm" target="_top" xlink:title="db/MojDbExtractor.h">
<polygon fill="white" stroke="black" points="392.773,-492.5 392.773,-513.5 504.773,-513.5 504.773,-492.5 392.773,-492.5"/>
<text text-anchor="middle" x="448.773" y="-500.5" font-family="Helvetica,sans-Serif" font-size="10.00">db/MojDbExtractor.h</text>
</a>
</g>
<!-- Node44&#45;&gt;Node45 -->
<g id="edge266" class="edge"><title>Node44&#45;&gt;Node45</title>
<path fill="none" stroke="midnightblue" d="M1267.22,-730.399C1110.9,-715.005 619.34,-664.332 556.773,-630 510.723,-604.731 475.687,-551.463 459.193,-522.594"/>
<polygon fill="midnightblue" stroke="midnightblue" points="462.233,-520.86 454.32,-513.814 456.112,-524.256 462.233,-520.86"/>
</g>
<!-- Node45&#45;&gt;Node3 -->
<g id="edge268" class="edge"><title>Node45&#45;&gt;Node3</title>
<path fill="none" stroke="midnightblue" d="M485.582,-492.481C518.825,-482.975 569.085,-468.583 612.773,-456 646.564,-446.267 654.171,-440.266 688.773,-434 794.866,-414.788 1115.28,-396.628 1245.67,-389.824"/>
<polygon fill="midnightblue" stroke="midnightblue" points="1246.03,-393.31 1255.84,-389.297 1245.67,-386.32 1246.03,-393.31"/>
</g>
<!-- Node45&#45;&gt;Node6 -->
<g id="edge270" class="edge"><title>Node45&#45;&gt;Node6</title>
<path fill="none" stroke="midnightblue" d="M469.056,-492.497C486.391,-483.519 511.564,-470.484 531.154,-460.339"/>
<polygon fill="midnightblue" stroke="midnightblue" points="532.993,-463.328 540.263,-455.621 529.774,-457.112 532.993,-463.328"/>
</g>
<!-- Node45&#45;&gt;Node16 -->
<g id="edge292" class="edge"><title>Node45&#45;&gt;Node16</title>
<path fill="none" stroke="midnightblue" d="M452.548,-492.057C457.412,-478.29 466.366,-454.026 475.773,-434 480.105,-424.779 485.474,-414.869 490.207,-406.536"/>
<polygon fill="midnightblue" stroke="midnightblue" points="493.39,-408.024 495.37,-397.616 487.332,-404.518 493.39,-408.024"/>
</g>
<!-- Node45&#45;&gt;Node21 -->
<g id="edge294" class="edge"><title>Node45&#45;&gt;Node21</title>
<path fill="none" stroke="midnightblue" d="M392.469,-496.292C344.034,-489.226 279.54,-476.273 263.773,-456 252.097,-440.986 263.089,-420.439 274.552,-405.678"/>
<polygon fill="midnightblue" stroke="midnightblue" points="277.458,-407.659 281.187,-397.741 272.088,-403.169 277.458,-407.659"/>
</g>
<!-- Node46 -->
<g id="node182" class="node"><title>Node46</title>
<a xlink:href="MojDbTextCollator_8h.htm" target="_top" xlink:title="db/MojDbTextCollator.h">
<polygon fill="white" stroke="red" points="1845.27,-434.5 1845.27,-455.5 1972.27,-455.5 1972.27,-434.5 1845.27,-434.5"/>
<text text-anchor="middle" x="1908.77" y="-442.5" font-family="Helvetica,sans-Serif" font-size="10.00">db/MojDbTextCollator.h</text>
</a>
</g>
<!-- Node45&#45;&gt;Node46 -->
<g id="edge272" class="edge"><title>Node45&#45;&gt;Node46</title>
<path fill="none" stroke="midnightblue" d="M504.998,-501.022C568.189,-498.804 673.839,-495.11 764.773,-492 1237.83,-475.823 1360.37,-499.732 1835.01,-456.07"/>
<polygon fill="midnightblue" stroke="midnightblue" points="1835.59,-459.532 1845.22,-455.126 1834.94,-452.562 1835.59,-459.532"/>
</g>
<!-- Node45&#45;&gt;Node47 -->
<g id="edge282" class="edge"><title>Node45&#45;&gt;Node47</title>
<path fill="none" stroke="midnightblue" d="M392.518,-493.487C333.977,-483.588 242.092,-468.051 178.171,-457.242"/>
<polygon fill="midnightblue" stroke="midnightblue" points="178.605,-453.766 168.161,-455.55 177.437,-460.668 178.605,-453.766"/>
</g>
<!-- Node46&#45;&gt;Node3 -->
<g id="edge274" class="edge"><title>Node46&#45;&gt;Node3</title>
<path fill="none" stroke="midnightblue" d="M1845.2,-435.062C1842.35,-434.688 1839.54,-434.332 1836.77,-434 1662.38,-413.04 1454.94,-397.476 1357.52,-390.718"/>
<polygon fill="midnightblue" stroke="midnightblue" points="1357.54,-387.21 1347.32,-390.014 1357.06,-394.194 1357.54,-387.21"/>
</g>
<!-- Node46&#45;&gt;Node14 -->
<g id="edge278" class="edge"><title>Node46&#45;&gt;Node14</title>
<path fill="none" stroke="midnightblue" d="M1845.15,-435.249C1678.85,-409.756 1242.98,-342.884 1227.77,-340 1112.73,-318.176 1074.45,-336.431 970.773,-282 939.954,-265.819 911.735,-236.375 895.401,-217.258"/>
<polygon fill="midnightblue" stroke="midnightblue" points="898.051,-214.969 888.961,-209.526 892.672,-219.449 898.051,-214.969"/>
</g>
<!-- Node46&#45;&gt;Node23 -->
<g id="edge276" class="edge"><title>Node46&#45;&gt;Node23</title>
<path fill="none" stroke="midnightblue" d="M1931.57,-434.295C1975.89,-413.482 2073.74,-367.527 2124.24,-343.808"/>
<polygon fill="midnightblue" stroke="midnightblue" points="2125.83,-346.931 2133.39,-339.512 2122.85,-340.595 2125.83,-346.931"/>
</g>
<!-- Node46&#45;&gt;Node31 -->
<g id="edge280" class="edge"><title>Node46&#45;&gt;Node31</title>
<path fill="none" stroke="midnightblue" d="M1906.21,-434.362C1904.39,-426.84 1901.9,-416.519 1899.7,-407.431"/>
<polygon fill="midnightblue" stroke="midnightblue" points="1903.07,-406.47 1897.32,-397.571 1896.27,-408.113 1903.07,-406.47"/>
</g>
<!-- Node47&#45;&gt;Node3 -->
<g id="edge284" class="edge"><title>Node47&#45;&gt;Node3</title>
<path fill="none" stroke="midnightblue" d="M174.275,-440.875C210.66,-438.73 256.141,-436.12 296.773,-434 658.691,-415.116 1094.12,-395.969 1246.16,-389.39"/>
<polygon fill="midnightblue" stroke="midnightblue" points="1246.35,-392.885 1256.19,-388.956 1246.05,-385.892 1246.35,-392.885"/>
</g>
<!-- Node47&#45;&gt;Node14 -->
<g id="edge286" class="edge"><title>Node47&#45;&gt;Node14</title>
<path fill="none" stroke="midnightblue" d="M113.297,-434.224C131.074,-409.609 178.298,-348.993 232.773,-318 332.227,-261.417 672.025,-220.592 815.745,-205.455"/>
<polygon fill="midnightblue" stroke="midnightblue" points="816.166,-208.931 825.748,-204.41 815.439,-201.968 816.166,-208.931"/>
</g>
<!-- Node47&#45;&gt;Node21 -->
<g id="edge288" class="edge"><title>Node47&#45;&gt;Node21</title>
<path fill="none" stroke="midnightblue" d="M139.456,-434.497C169.911,-425 214.93,-410.962 248.131,-400.609"/>
<polygon fill="midnightblue" stroke="midnightblue" points="249.522,-403.841 258.027,-397.523 247.438,-397.159 249.522,-403.841"/>
</g>
<!-- Node48 -->
<g id="node193" class="node"><title>Node48</title>
<polygon fill="white" stroke="#bfbfbf" points="37.7732,-376.5 37.7732,-397.5 121.773,-397.5 121.773,-376.5 37.7732,-376.5"/>
<text text-anchor="middle" x="79.7732" y="-384.5" font-family="Helvetica,sans-Serif" font-size="10.00">unicode/ubrk.h</text>
</g>
<!-- Node47&#45;&gt;Node48 -->
<g id="edge290" class="edge"><title>Node47&#45;&gt;Node48</title>
<path fill="none" stroke="midnightblue" d="M101.004,-434.362C97.5593,-426.677 92.804,-416.069 88.667,-406.84"/>
<polygon fill="midnightblue" stroke="midnightblue" points="91.7962,-405.264 84.5118,-397.571 85.4086,-408.127 91.7962,-405.264"/>
</g>
<!-- Node49&#45;&gt;Node4 -->
<g id="edge308" class="edge"><title>Node49&#45;&gt;Node4</title>
<path fill="none" stroke="midnightblue" d="M2537.4,-434.193C2548.13,-425.533 2562.25,-412.471 2570.77,-398 2586.92,-370.593 2589.77,-360.808 2589.77,-329 2589.77,-329 2589.77,-329 2589.77,-134 2589.77,-1.61821 2432.52,-78.7406 2301.77,-58 2155.1,-34.7327 1707.52,-18.473 1538.41,-13.0129"/>
<polygon fill="midnightblue" stroke="midnightblue" points="1538.51,-9.51432 1528.4,-12.6918 1538.28,-16.5107 1538.51,-9.51432"/>
</g>
<!-- Node49&#45;&gt;Node16 -->
<g id="edge316" class="edge"><title>Node49&#45;&gt;Node16</title>
<path fill="none" stroke="midnightblue" d="M2445.62,-443.273C2145.64,-436.518 1056.57,-411.582 710.773,-398 659.79,-395.997 601.855,-392.882 559.933,-390.477"/>
<polygon fill="midnightblue" stroke="midnightblue" points="560.088,-386.981 549.903,-389.898 559.685,-393.969 560.088,-386.981"/>
</g>
<!-- Node49&#45;&gt;Node40 -->
<g id="edge318" class="edge"><title>Node49&#45;&gt;Node40</title>
<path fill="none" stroke="midnightblue" d="M2490,-434.497C2460.36,-425 2416.55,-410.962 2384.24,-400.609"/>
<polygon fill="midnightblue" stroke="midnightblue" points="2385.2,-397.242 2374.61,-397.523 2383.07,-403.908 2385.2,-397.242"/>
</g>
<!-- Node50 -->
<g id="node205" class="node"><title>Node50</title>
<a xlink:href="MojDataSerialization_8h.htm" target="_top" xlink:title="core/MojDataSerialization.h">
<polygon fill="white" stroke="black" points="2415.77,-376.5 2415.77,-397.5 2561.77,-397.5 2561.77,-376.5 2415.77,-376.5"/>
<text text-anchor="middle" x="2488.77" y="-384.5" font-family="Helvetica,sans-Serif" font-size="10.00">core/MojDataSerialization.h</text>
</a>
</g>
<!-- Node49&#45;&gt;Node50 -->
<g id="edge310" class="edge"><title>Node49&#45;&gt;Node50</title>
<path fill="none" stroke="midnightblue" d="M2516.54,-434.362C2511.94,-426.513 2505.55,-415.616 2500.06,-406.253"/>
<polygon fill="midnightblue" stroke="midnightblue" points="2503.05,-404.428 2494.97,-397.571 2497.01,-407.968 2503.05,-404.428"/>
</g>
<!-- Node50&#45;&gt;Node4 -->
<g id="edge312" class="edge"><title>Node50&#45;&gt;Node4</title>
<path fill="none" stroke="midnightblue" d="M2475.89,-376.269C2453.74,-356.526 2410.77,-312.043 2410.77,-264 2410.77,-264 2410.77,-264 2410.77,-134 2410.77,-30.5523 2292.18,-78.4498 2190.77,-58 2067.1,-33.0606 1691.61,-18.2171 1538.66,-13.0635"/>
<polygon fill="midnightblue" stroke="midnightblue" points="1538.59,-9.55914 1528.48,-12.7236 1538.36,-16.5552 1538.59,-9.55914"/>
</g>
<!-- Node50&#45;&gt;Node7 -->
<g id="edge314" class="edge"><title>Node50&#45;&gt;Node7</title>
<path fill="none" stroke="midnightblue" d="M2415.49,-376.826C2412.55,-376.526 2409.64,-376.249 2406.77,-376 2010.17,-341.498 1909.48,-357.592 1511.77,-340 1453.62,-337.428 1387.13,-334.186 1341.03,-331.889"/>
<polygon fill="midnightblue" stroke="midnightblue" points="1341.09,-328.388 1330.93,-331.385 1340.74,-335.38 1341.09,-328.388"/>
</g>
</g>
</svg>
