<?xml version="1.0" encoding="UTF-8" standalone="no"?>
<!DOCTYPE svg PUBLIC "-//W3C//DTD SVG 1.1//EN"
 "http://www.w3.org/Graphics/SVG/1.1/DTD/svg11.dtd">
<!-- Generated by graphviz version 2.26.3 (20100126.1600)
 -->
<!-- Title: MojDbIdGenerator.h Pages: 1 -->
<svg width="3148pt" height="320pt"
 viewBox="0.00 0.00 3148.00 320.00" xmlns="http://www.w3.org/2000/svg" xmlns:xlink="http://www.w3.org/1999/xlink">
<g id="graph1" class="graph" transform="scale(1 1) rotate(0) translate(4 316)">
<title>MojDbIdGenerator.h</title>
<polygon fill="white" stroke="white" points="-4,5 -4,-316 3145,-316 3145,5 -4,5"/>
<!-- Node1 -->
<g id="node1" class="node"><title>Node1</title>
<polygon fill="#bfbfbf" stroke="black" points="1524.5,-290.5 1524.5,-311.5 1637.5,-311.5 1637.5,-290.5 1524.5,-290.5"/>
<text text-anchor="middle" x="1581" y="-298.5" font-family="Helvetica,sans-Serif" font-size="10.00">MojDbIdGenerator.h</text>
</g>
<!-- Node2 -->
<g id="node3" class="node"><title>Node2</title>
<a xlink:href="MojDb_8h.htm" target="_top" xlink:title="MojDb.h">
<polygon fill="white" stroke="black" points="1500.5,-232.5 1500.5,-253.5 1555.5,-253.5 1555.5,-232.5 1500.5,-232.5"/>
<text text-anchor="middle" x="1528" y="-240.5" font-family="Helvetica,sans-Serif" font-size="10.00">MojDb.h</text>
</a>
</g>
<!-- Node1&#45;&gt;Node2 -->
<g id="edge2" class="edge"><title>Node1&#45;&gt;Node2</title>
<path fill="none" stroke="midnightblue" d="M1564.4,-282.83C1555.6,-273.208 1545.11,-261.728 1537.66,-253.571"/>
<polygon fill="midnightblue" stroke="midnightblue" points="1561.95,-285.341 1571.28,-290.362 1567.12,-280.619 1561.95,-285.341"/>
</g>
<!-- Node36 -->
<g id="node76" class="node"><title>Node36</title>
<a xlink:href="MojDbIdGenerator_8cpp.htm" target="_top" xlink:title="MojDbIdGenerator.cpp">
<polygon fill="white" stroke="black" points="1573,-232.5 1573,-253.5 1697,-253.5 1697,-232.5 1573,-232.5"/>
<text text-anchor="middle" x="1635" y="-240.5" font-family="Helvetica,sans-Serif" font-size="10.00">MojDbIdGenerator.cpp</text>
</a>
</g>
<!-- Node1&#45;&gt;Node36 -->
<g id="edge80" class="edge"><title>Node1&#45;&gt;Node36</title>
<path fill="none" stroke="midnightblue" d="M1597.92,-282.83C1606.88,-273.208 1617.56,-261.728 1625.16,-253.571"/>
<polygon fill="midnightblue" stroke="midnightblue" points="1595.16,-280.658 1590.9,-290.362 1600.28,-285.428 1595.16,-280.658"/>
</g>
<!-- Node3 -->
<g id="node5" class="node"><title>Node3</title>
<a xlink:href="MojDbClient_8h.htm" target="_top" xlink:title="MojDbClient.h">
<polygon fill="white" stroke="black" points="127,-174.5 127,-195.5 209,-195.5 209,-174.5 127,-174.5"/>
<text text-anchor="middle" x="168" y="-182.5" font-family="Helvetica,sans-Serif" font-size="10.00">MojDbClient.h</text>
</a>
</g>
<!-- Node2&#45;&gt;Node3 -->
<g id="edge4" class="edge"><title>Node2&#45;&gt;Node3</title>
<path fill="none" stroke="midnightblue" d="M1490.09,-242.054C1340.4,-238.211 775.963,-222.678 312,-196 277.331,-194.007 238.027,-190.95 209.25,-188.565"/>
<polygon fill="midnightblue" stroke="midnightblue" points="1490.06,-245.555 1500.15,-242.311 1490.24,-238.557 1490.06,-245.555"/>
</g>
<!-- Node7 -->
<g id="node13" class="node"><title>Node7</title>
<a xlink:href="MojDbServiceHandlerBase_8h.htm" target="_top" xlink:title="MojDbServiceHandlerBase.h">
<polygon fill="white" stroke="black" points="354,-174.5 354,-195.5 506,-195.5 506,-174.5 354,-174.5"/>
<text text-anchor="middle" x="430" y="-182.5" font-family="Helvetica,sans-Serif" font-size="10.00">MojDbServiceHandlerBase.h</text>
</a>
</g>
<!-- Node2&#45;&gt;Node7 -->
<g id="edge12" class="edge"><title>Node2&#45;&gt;Node7</title>
<path fill="none" stroke="midnightblue" d="M1490.01,-242.365C1356.22,-239.887 894.512,-229.304 515,-196 512.184,-195.753 509.317,-195.482 506.423,-195.192"/>
<polygon fill="midnightblue" stroke="midnightblue" points="1490.09,-245.866 1500.15,-242.548 1490.21,-238.868 1490.09,-245.866"/>
</g>
<!-- Node14 -->
<g id="node28" class="node"><title>Node14</title>
<a xlink:href="MojDbServiceHandlerInternal_8h.htm" target="_top" xlink:title="MojDbServiceHandlerInternal.h">
<polygon fill="white" stroke="black" points="244,-116.5 244,-137.5 408,-137.5 408,-116.5 244,-116.5"/>
<text text-anchor="middle" x="326" y="-124.5" font-family="Helvetica,sans-Serif" font-size="10.00">MojDbServiceHandlerInternal.h</text>
</a>
</g>
<!-- Node2&#45;&gt;Node14 -->
<g id="edge38" class="edge"><title>Node2&#45;&gt;Node14</title>
<path fill="none" stroke="midnightblue" d="M1490.11,-242.742C1292.86,-241.242 390.87,-232.408 345,-196 327.385,-182.019 325.181,-153.315 325.401,-137.697"/>
<polygon fill="midnightblue" stroke="midnightblue" points="1490.24,-246.243 1500.27,-242.817 1490.3,-239.243 1490.24,-246.243"/>
</g>
<!-- Node16 -->
<g id="node36" class="node"><title>Node16</title>
<a xlink:href="MojDb_8cpp.htm" target="_top" xlink:title="MojDb.cpp">
<polygon fill="white" stroke="black" points="524,-174.5 524,-195.5 590,-195.5 590,-174.5 524,-174.5"/>
<text text-anchor="middle" x="557" y="-182.5" font-family="Helvetica,sans-Serif" font-size="10.00">MojDb.cpp</text>
</a>
</g>
<!-- Node2&#45;&gt;Node16 -->
<g id="edge40" class="edge"><title>Node2&#45;&gt;Node16</title>
<path fill="none" stroke="midnightblue" d="M1489.93,-242.118C1338.05,-238.439 775.117,-223.221 599,-196 596.169,-195.562 593.254,-195.012 590.34,-194.393"/>
<polygon fill="midnightblue" stroke="midnightblue" points="1490.07,-245.622 1500.15,-242.363 1490.23,-238.624 1490.07,-245.622"/>
</g>
<!-- Node17 -->
<g id="node38" class="node"><title>Node17</title>
<a xlink:href="MojDbAdmin_8cpp.htm" target="_top" xlink:title="MojDbAdmin.cpp">
<polygon fill="white" stroke="black" points="607.5,-174.5 607.5,-195.5 702.5,-195.5 702.5,-174.5 607.5,-174.5"/>
<text text-anchor="middle" x="655" y="-182.5" font-family="Helvetica,sans-Serif" font-size="10.00">MojDbAdmin.cpp</text>
</a>
</g>
<!-- Node2&#45;&gt;Node17 -->
<g id="edge42" class="edge"><title>Node2&#45;&gt;Node17</title>
<path fill="none" stroke="midnightblue" d="M1490.18,-242.656C1373.62,-241.206 1009.66,-233.744 711,-196 708.248,-195.652 705.427,-195.249 702.587,-194.806"/>
<polygon fill="midnightblue" stroke="midnightblue" points="1490.33,-246.158 1500.37,-242.775 1490.41,-239.159 1490.33,-246.158"/>
</g>
<!-- Node18 -->
<g id="node40" class="node"><title>Node18</title>
<a xlink:href="MojDbCursor_8cpp.htm" target="_top" xlink:title="MojDbCursor.cpp">
<polygon fill="white" stroke="black" points="720,-174.5 720,-195.5 818,-195.5 818,-174.5 720,-174.5"/>
<text text-anchor="middle" x="769" y="-182.5" font-family="Helvetica,sans-Serif" font-size="10.00">MojDbCursor.cpp</text>
</a>
</g>
<!-- Node2&#45;&gt;Node18 -->
<g id="edge44" class="edge"><title>Node2&#45;&gt;Node18</title>
<path fill="none" stroke="midnightblue" d="M1490.37,-242.071C1385.15,-239.132 1079.07,-228.235 827,-196 824.153,-195.636 821.236,-195.22 818.297,-194.768"/>
<polygon fill="midnightblue" stroke="midnightblue" points="1490.4,-245.573 1500.49,-242.347 1490.59,-238.576 1490.4,-245.573"/>
</g>
<!-- Node19 -->
<g id="node42" class="node"><title>Node19</title>
<a xlink:href="MojDbIndex_8cpp.htm" target="_top" xlink:title="MojDbIndex.cpp">
<polygon fill="white" stroke="black" points="836,-174.5 836,-195.5 928,-195.5 928,-174.5 836,-174.5"/>
<text text-anchor="middle" x="882" y="-182.5" font-family="Helvetica,sans-Serif" font-size="10.00">MojDbIndex.cpp</text>
</a>
</g>
<!-- Node2&#45;&gt;Node19 -->
<g id="edge46" class="edge"><title>Node2&#45;&gt;Node19</title>
<path fill="none" stroke="midnightblue" d="M1490.35,-241.549C1396.51,-237.598 1144.86,-224.948 937,-196 934.107,-195.597 931.136,-195.137 928.146,-194.64"/>
<polygon fill="midnightblue" stroke="midnightblue" points="1490.34,-245.052 1500.48,-241.967 1490.63,-238.058 1490.34,-245.052"/>
</g>
<!-- Node20 -->
<g id="node44" class="node"><title>Node20</title>
<a xlink:href="MojDbIsamQuery_8cpp.htm" target="_top" xlink:title="MojDbIsamQuery.cpp">
<polygon fill="white" stroke="black" points="945.5,-174.5 945.5,-195.5 1062.5,-195.5 1062.5,-174.5 945.5,-174.5"/>
<text text-anchor="middle" x="1004" y="-182.5" font-family="Helvetica,sans-Serif" font-size="10.00">MojDbIsamQuery.cpp</text>
</a>
</g>
<!-- Node2&#45;&gt;Node20 -->
<g id="edge48" class="edge"><title>Node2&#45;&gt;Node20</title>
<path fill="none" stroke="midnightblue" d="M1490.03,-239.874C1411.58,-233.244 1225.98,-216.672 1071,-196 1068.31,-195.642 1065.57,-195.259 1062.8,-194.859"/>
<polygon fill="midnightblue" stroke="midnightblue" points="1490.11,-243.394 1500.37,-240.743 1490.7,-236.418 1490.11,-243.394"/>
</g>
<!-- Node21 -->
<g id="node46" class="node"><title>Node21</title>
<a xlink:href="MojDbKind_8cpp.htm" target="_top" xlink:title="MojDbKind.cpp">
<polygon fill="white" stroke="black" points="1079.5,-174.5 1079.5,-195.5 1166.5,-195.5 1166.5,-174.5 1079.5,-174.5"/>
<text text-anchor="middle" x="1123" y="-182.5" font-family="Helvetica,sans-Serif" font-size="10.00">MojDbKind.cpp</text>
</a>
</g>
<!-- Node2&#45;&gt;Node21 -->
<g id="edge50" class="edge"><title>Node2&#45;&gt;Node21</title>
<path fill="none" stroke="midnightblue" d="M1490.3,-238.935C1425.59,-231.744 1289.28,-215.666 1175,-196 1172.27,-195.531 1169.47,-195.02 1166.65,-194.485"/>
<polygon fill="midnightblue" stroke="midnightblue" points="1490.11,-242.434 1500.43,-240.053 1490.87,-235.477 1490.11,-242.434"/>
</g>
<!-- Node22 -->
<g id="node48" class="node"><title>Node22</title>
<a xlink:href="MojDbKindEngine_8cpp.htm" target="_top" xlink:title="MojDbKindEngine.cpp">
<polygon fill="white" stroke="black" points="1184,-174.5 1184,-195.5 1304,-195.5 1304,-174.5 1184,-174.5"/>
<text text-anchor="middle" x="1244" y="-182.5" font-family="Helvetica,sans-Serif" font-size="10.00">MojDbKindEngine.cpp</text>
</a>
</g>
<!-- Node2&#45;&gt;Node22 -->
<g id="edge52" class="edge"><title>Node2&#45;&gt;Node22</title>
<path fill="none" stroke="midnightblue" d="M1490.18,-235.276C1440.12,-225.052 1351.66,-206.987 1295.53,-195.523"/>
<polygon fill="midnightblue" stroke="midnightblue" points="1489.75,-238.761 1500.25,-237.333 1491.15,-231.903 1489.75,-238.761"/>
</g>
<!-- Node23 -->
<g id="node50" class="node"><title>Node23</title>
<a xlink:href="MojDbObjectHeader_8cpp.htm" target="_top" xlink:title="MojDbObjectHeader.cpp">
<polygon fill="white" stroke="black" points="1321.5,-174.5 1321.5,-195.5 1452.5,-195.5 1452.5,-174.5 1321.5,-174.5"/>
<text text-anchor="middle" x="1387" y="-182.5" font-family="Helvetica,sans-Serif" font-size="10.00">MojDbObjectHeader.cpp</text>
</a>
</g>
<!-- Node2&#45;&gt;Node23 -->
<g id="edge54" class="edge"><title>Node2&#45;&gt;Node23</title>
<path fill="none" stroke="midnightblue" d="M1493.03,-228.615C1468.17,-218.389 1435.33,-204.88 1412.82,-195.621"/>
<polygon fill="midnightblue" stroke="midnightblue" points="1491.89,-231.929 1502.47,-232.497 1494.55,-225.456 1491.89,-231.929"/>
</g>
<!-- Node24 -->
<g id="node52" class="node"><title>Node24</title>
<a xlink:href="MojDbObjectItem_8cpp.htm" target="_top" xlink:title="MojDbObjectItem.cpp">
<polygon fill="white" stroke="black" points="1470,-174.5 1470,-195.5 1586,-195.5 1586,-174.5 1470,-174.5"/>
<text text-anchor="middle" x="1528" y="-182.5" font-family="Helvetica,sans-Serif" font-size="10.00">MojDbObjectItem.cpp</text>
</a>
</g>
<!-- Node2&#45;&gt;Node24 -->
<g id="edge56" class="edge"><title>Node2&#45;&gt;Node24</title>
<path fill="none" stroke="midnightblue" d="M1528,-222.191C1528,-213.168 1528,-202.994 1528,-195.571"/>
<polygon fill="midnightblue" stroke="midnightblue" points="1524.5,-222.362 1528,-232.362 1531.5,-222.362 1524.5,-222.362"/>
</g>
<!-- Node25 -->
<g id="node54" class="node"><title>Node25</title>
<a xlink:href="MojDbPermissionEngine_8cpp.htm" target="_top" xlink:title="MojDbPermissionEngine.cpp">
<polygon fill="white" stroke="black" points="1603.5,-174.5 1603.5,-195.5 1754.5,-195.5 1754.5,-174.5 1603.5,-174.5"/>
<text text-anchor="middle" x="1679" y="-182.5" font-family="Helvetica,sans-Serif" font-size="10.00">MojDbPermissionEngine.cpp</text>
</a>
</g>
<!-- Node2&#45;&gt;Node25 -->
<g id="edge58" class="edge"><title>Node2&#45;&gt;Node25</title>
<path fill="none" stroke="midnightblue" d="M1564.78,-228.874C1591.57,-218.582 1627.29,-204.862 1651.6,-195.523"/>
<polygon fill="midnightblue" stroke="midnightblue" points="1563.43,-225.644 1555.34,-232.497 1565.94,-232.178 1563.43,-225.644"/>
</g>
<!-- Node26 -->
<g id="node56" class="node"><title>Node26</title>
<a xlink:href="MojDbPutHandler_8cpp.htm" target="_top" xlink:title="MojDbPutHandler.cpp">
<polygon fill="white" stroke="black" points="1771.5,-174.5 1771.5,-195.5 1890.5,-195.5 1890.5,-174.5 1771.5,-174.5"/>
<text text-anchor="middle" x="1831" y="-182.5" font-family="Helvetica,sans-Serif" font-size="10.00">MojDbPutHandler.cpp</text>
</a>
</g>
<!-- Node2&#45;&gt;Node26 -->
<g id="edge60" class="edge"><title>Node2&#45;&gt;Node26</title>
<path fill="none" stroke="midnightblue" d="M1565.81,-231.798C1615.87,-220.521 1709.51,-204.751 1771.37,-194.623"/>
<polygon fill="midnightblue" stroke="midnightblue" points="1564.76,-228.45 1555.82,-234.133 1566.35,-235.266 1564.76,-228.45"/>
</g>
<!-- Node27 -->
<g id="node58" class="node"><title>Node27</title>
<a xlink:href="MojDbQueryPlan_8cpp.htm" target="_top" xlink:title="MojDbQueryPlan.cpp">
<polygon fill="white" stroke="black" points="1908,-174.5 1908,-195.5 2024,-195.5 2024,-174.5 1908,-174.5"/>
<text text-anchor="middle" x="1966" y="-182.5" font-family="Helvetica,sans-Serif" font-size="10.00">MojDbQueryPlan.cpp</text>
</a>
</g>
<!-- Node2&#45;&gt;Node27 -->
<g id="edge62" class="edge"><title>Node2&#45;&gt;Node27</title>
<path fill="none" stroke="midnightblue" d="M1565.6,-231.948C1712.47,-202.578 1753.8,-215.705 1899,-196 1901.92,-195.604 1904.91,-195.18 1907.93,-194.738"/>
<polygon fill="midnightblue" stroke="midnightblue" points="1564.88,-228.524 1555.77,-233.944 1566.27,-235.383 1564.88,-228.524"/>
</g>
<!-- Node28 -->
<g id="node60" class="node"><title>Node28</title>
<a xlink:href="MojDbQuotaEngine_8cpp.htm" target="_top" xlink:title="MojDbQuotaEngine.cpp">
<polygon fill="white" stroke="black" points="2042,-174.5 2042,-195.5 2170,-195.5 2170,-174.5 2042,-174.5"/>
<text text-anchor="middle" x="2106" y="-182.5" font-family="Helvetica,sans-Serif" font-size="10.00">MojDbQuotaEngine.cpp</text>
</a>
</g>
<!-- Node2&#45;&gt;Node28 -->
<g id="edge64" class="edge"><title>Node2&#45;&gt;Node28</title>
<path fill="none" stroke="midnightblue" d="M1565.66,-232.002C1771.21,-194.032 1828.52,-219.222 2033,-196 2035.93,-195.667 2038.92,-195.306 2041.94,-194.923"/>
<polygon fill="midnightblue" stroke="midnightblue" points="1564.94,-228.576 1555.76,-233.858 1566.23,-235.456 1564.94,-228.576"/>
</g>
<!-- Node29 -->
<g id="node62" class="node"><title>Node29</title>
<a xlink:href="MojDbReq_8cpp.htm" target="_top" xlink:title="MojDbReq.cpp">
<polygon fill="white" stroke="black" points="2188,-174.5 2188,-195.5 2274,-195.5 2274,-174.5 2188,-174.5"/>
<text text-anchor="middle" x="2231" y="-182.5" font-family="Helvetica,sans-Serif" font-size="10.00">MojDbReq.cpp</text>
</a>
</g>
<!-- Node2&#45;&gt;Node29 -->
<g id="edge66" class="edge"><title>Node2&#45;&gt;Node29</title>
<path fill="none" stroke="midnightblue" d="M1565.83,-232.014C1835.34,-184.831 1910.95,-231.99 2179,-196 2181.93,-195.607 2184.93,-195.14 2187.96,-194.625"/>
<polygon fill="midnightblue" stroke="midnightblue" points="1564.98,-228.61 1555.75,-233.807 1566.21,-235.502 1564.98,-228.61"/>
</g>
<!-- Node30 -->
<g id="node64" class="node"><title>Node30</title>
<a xlink:href="MojDbRevisionSet_8cpp.htm" target="_top" xlink:title="MojDbRevisionSet.cpp">
<polygon fill="white" stroke="black" points="2292,-174.5 2292,-195.5 2414,-195.5 2414,-174.5 2292,-174.5"/>
<text text-anchor="middle" x="2353" y="-182.5" font-family="Helvetica,sans-Serif" font-size="10.00">MojDbRevisionSet.cpp</text>
</a>
</g>
<!-- Node2&#45;&gt;Node30 -->
<g id="edge68" class="edge"><title>Node2&#45;&gt;Node30</title>
<path fill="none" stroke="midnightblue" d="M1565.62,-232.066C1880.94,-177.891 1968,-228.544 2283,-196 2285.94,-195.697 2288.94,-195.353 2291.97,-194.981"/>
<polygon fill="midnightblue" stroke="midnightblue" points="1565,-228.621 1555.74,-233.783 1566.19,-235.518 1565,-228.621"/>
</g>
<!-- Node31 -->
<g id="node66" class="node"><title>Node31</title>
<a xlink:href="MojDbSearchCursor_8cpp.htm" target="_top" xlink:title="MojDbSearchCursor.cpp">
<polygon fill="white" stroke="black" points="2431.5,-174.5 2431.5,-195.5 2562.5,-195.5 2562.5,-174.5 2431.5,-174.5"/>
<text text-anchor="middle" x="2497" y="-182.5" font-family="Helvetica,sans-Serif" font-size="10.00">MojDbSearchCursor.cpp</text>
</a>
</g>
<!-- Node2&#45;&gt;Node31 -->
<g id="edge70" class="edge"><title>Node2&#45;&gt;Node31</title>
<path fill="none" stroke="midnightblue" d="M1565.82,-232.047C1942.47,-168.775 2045.94,-231.824 2423,-196 2425.72,-195.742 2428.48,-195.452 2431.28,-195.138"/>
<polygon fill="midnightblue" stroke="midnightblue" points="1565.01,-228.635 1555.74,-233.76 1566.18,-235.536 1565.01,-228.635"/>
</g>
<!-- Node32 -->
<g id="node68" class="node"><title>Node32</title>
<a xlink:href="MojDbWatcher_8cpp.htm" target="_top" xlink:title="MojDbWatcher.cpp">
<polygon fill="white" stroke="black" points="2580,-174.5 2580,-195.5 2686,-195.5 2686,-174.5 2580,-174.5"/>
<text text-anchor="middle" x="2633" y="-182.5" font-family="Helvetica,sans-Serif" font-size="10.00">MojDbWatcher.cpp</text>
</a>
</g>
<!-- Node2&#45;&gt;Node32 -->
<g id="edge72" class="edge"><title>Node2&#45;&gt;Node32</title>
<path fill="none" stroke="midnightblue" d="M1565.9,-232.049C2007.51,-159.221 2129.03,-242.875 2571,-196 2573.94,-195.689 2576.94,-195.321 2579.97,-194.911"/>
<polygon fill="midnightblue" stroke="midnightblue" points="1565.02,-228.646 1555.74,-233.743 1566.18,-235.551 1565.02,-228.646"/>
</g>
<!-- Node33 -->
<g id="node70" class="node"><title>Node33</title>
<a xlink:href="MojDbLevelDatabase_8cpp.htm" target="_top" xlink:title="MojDbLevelDatabase.cpp">
<polygon fill="white" stroke="black" points="2703.5,-174.5 2703.5,-195.5 2840.5,-195.5 2840.5,-174.5 2703.5,-174.5"/>
<text text-anchor="middle" x="2772" y="-182.5" font-family="Helvetica,sans-Serif" font-size="10.00">MojDbLevelDatabase.cpp</text>
</a>
</g>
<!-- Node2&#45;&gt;Node33 -->
<g id="edge74" class="edge"><title>Node2&#45;&gt;Node33</title>
<path fill="none" stroke="midnightblue" d="M1565.68,-232.134C1828.07,-191.575 2447.67,-217.537 2695,-196 2697.69,-195.766 2700.43,-195.501 2703.2,-195.212"/>
<polygon fill="midnightblue" stroke="midnightblue" points="1565.05,-228.689 1555.73,-233.732 1566.16,-235.601 1565.05,-228.689"/>
</g>
<!-- Node34 -->
<g id="node72" class="node"><title>Node34</title>
<a xlink:href="MojDbLevelEngine_8cpp.htm" target="_top" xlink:title="MojDbLevelEngine.cpp">
<polygon fill="white" stroke="black" points="2857.5,-174.5 2857.5,-195.5 2982.5,-195.5 2982.5,-174.5 2857.5,-174.5"/>
<text text-anchor="middle" x="2920" y="-182.5" font-family="Helvetica,sans-Serif" font-size="10.00">MojDbLevelEngine.cpp</text>
</a>
</g>
<!-- Node2&#45;&gt;Node34 -->
<g id="edge76" class="edge"><title>Node2&#45;&gt;Node34</title>
<path fill="none" stroke="midnightblue" d="M1565.67,-232.139C1862,-186.648 2567.71,-221.628 2849,-196 2851.73,-195.751 2854.52,-195.464 2857.33,-195.146"/>
<polygon fill="midnightblue" stroke="midnightblue" points="1565.06,-228.693 1555.73,-233.721 1566.16,-235.606 1565.06,-228.693"/>
</g>
<!-- Node35 -->
<g id="node74" class="node"><title>Node35</title>
<a xlink:href="MojDbBerkeleyEngine_8cpp.htm" target="_top" xlink:title="MojDbBerkeleyEngine.cpp">
<polygon fill="white" stroke="black" points="3000,-174.5 3000,-195.5 3140,-195.5 3140,-174.5 3000,-174.5"/>
<text text-anchor="middle" x="3070" y="-182.5" font-family="Helvetica,sans-Serif" font-size="10.00">MojDbBerkeleyEngine.cpp</text>
</a>
</g>
<!-- Node2&#45;&gt;Node35 -->
<g id="edge78" class="edge"><title>Node2&#45;&gt;Node35</title>
<path fill="none" stroke="midnightblue" d="M1565.77,-232.126C1893.42,-182.014 2678.09,-221.649 2991,-196 2993.9,-195.762 2996.85,-195.49 2999.83,-195.19"/>
<polygon fill="midnightblue" stroke="midnightblue" points="1565.06,-228.694 1555.73,-233.713 1566.16,-235.608 1565.06,-228.694"/>
</g>
<!-- Node4 -->
<g id="node7" class="node"><title>Node4</title>
<a xlink:href="MojDbServiceClient_8h.htm" target="_top" xlink:title="MojDbServiceClient.h">
<polygon fill="white" stroke="black" points="109.5,-116.5 109.5,-137.5 226.5,-137.5 226.5,-116.5 109.5,-116.5"/>
<text text-anchor="middle" x="168" y="-124.5" font-family="Helvetica,sans-Serif" font-size="10.00">MojDbServiceClient.h</text>
</a>
</g>
<!-- Node3&#45;&gt;Node4 -->
<g id="edge6" class="edge"><title>Node3&#45;&gt;Node4</title>
<path fill="none" stroke="midnightblue" d="M168,-164.191C168,-155.168 168,-144.994 168,-137.571"/>
<polygon fill="midnightblue" stroke="midnightblue" points="164.5,-164.362 168,-174.362 171.5,-164.362 164.5,-164.362"/>
</g>
<!-- Node6 -->
<g id="node11" class="node"><title>Node6</title>
<a xlink:href="MojDbClient_8cpp.htm" target="_top" xlink:title="MojDbClient.cpp">
<polygon fill="white" stroke="black" points="-0.5,-116.5 -0.5,-137.5 92.5,-137.5 92.5,-116.5 -0.5,-116.5"/>
<text text-anchor="middle" x="46" y="-124.5" font-family="Helvetica,sans-Serif" font-size="10.00">MojDbClient.cpp</text>
</a>
</g>
<!-- Node3&#45;&gt;Node6 -->
<g id="edge10" class="edge"><title>Node3&#45;&gt;Node6</title>
<path fill="none" stroke="midnightblue" d="M136.594,-170.069C115.229,-159.912 87.471,-146.716 68.3412,-137.621"/>
<polygon fill="midnightblue" stroke="midnightblue" points="135.373,-173.364 145.907,-174.497 138.378,-167.042 135.373,-173.364"/>
</g>
<!-- Node5 -->
<g id="node9" class="node"><title>Node5</title>
<a xlink:href="MojDbServiceClient_8cpp.htm" target="_top" xlink:title="MojDbServiceClient.cpp">
<polygon fill="white" stroke="black" points="104,-58.5 104,-79.5 232,-79.5 232,-58.5 104,-58.5"/>
<text text-anchor="middle" x="168" y="-66.5" font-family="Helvetica,sans-Serif" font-size="10.00">MojDbServiceClient.cpp</text>
</a>
</g>
<!-- Node4&#45;&gt;Node5 -->
<g id="edge8" class="edge"><title>Node4&#45;&gt;Node5</title>
<path fill="none" stroke="midnightblue" d="M168,-106.191C168,-97.1684 168,-86.9941 168,-79.5707"/>
<polygon fill="midnightblue" stroke="midnightblue" points="164.5,-106.362 168,-116.362 171.5,-106.362 164.5,-106.362"/>
</g>
<!-- Node8 -->
<g id="node15" class="node"><title>Node8</title>
<a xlink:href="MojDbServiceHandler_8h.htm" target="_top" xlink:title="MojDbServiceHandler.h">
<polygon fill="white" stroke="black" points="606,-116.5 606,-137.5 734,-137.5 734,-116.5 606,-116.5"/>
<text text-anchor="middle" x="670" y="-124.5" font-family="Helvetica,sans-Serif" font-size="10.00">MojDbServiceHandler.h</text>
</a>
</g>
<!-- Node7&#45;&gt;Node8 -->
<g id="edge14" class="edge"><title>Node7&#45;&gt;Node8</title>
<path fill="none" stroke="midnightblue" d="M483.204,-172.142C526.278,-161.733 586.202,-147.251 626.456,-137.523"/>
<polygon fill="midnightblue" stroke="midnightblue" points="482.36,-168.745 473.462,-174.497 484.005,-175.55 482.36,-168.745"/>
</g>
<!-- Node7&#45;&gt;Node14 -->
<g id="edge28" class="edge"><title>Node7&#45;&gt;Node14</title>
<path fill="none" stroke="midnightblue" d="M401.99,-169.379C383.919,-159.301 360.898,-146.462 344.954,-137.571"/>
<polygon fill="midnightblue" stroke="midnightblue" points="400.486,-172.548 410.925,-174.362 403.896,-166.434 400.486,-172.548"/>
</g>
<!-- Node15 -->
<g id="node33" class="node"><title>Node15</title>
<a xlink:href="MojDbServiceHandlerBase_8cpp.htm" target="_top" xlink:title="MojDbServiceHandlerBase.cpp">
<polygon fill="white" stroke="black" points="425.5,-116.5 425.5,-137.5 588.5,-137.5 588.5,-116.5 425.5,-116.5"/>
<text text-anchor="middle" x="507" y="-124.5" font-family="Helvetica,sans-Serif" font-size="10.00">MojDbServiceHandlerBase.cpp</text>
</a>
</g>
<!-- Node7&#45;&gt;Node15 -->
<g id="edge36" class="edge"><title>Node7&#45;&gt;Node15</title>
<path fill="none" stroke="midnightblue" d="M452.226,-168.259C465.361,-158.364 481.595,-146.136 492.967,-137.571"/>
<polygon fill="midnightblue" stroke="midnightblue" points="450.005,-165.55 444.123,-174.362 454.216,-171.141 450.005,-165.55"/>
</g>
<!-- Node9 -->
<g id="node17" class="node"><title>Node9</title>
<a xlink:href="MojDbServiceHandler_8cpp.htm" target="_top" xlink:title="MojDbServiceHandler.cpp">
<polygon fill="white" stroke="black" points="252.5,-58.5 252.5,-79.5 391.5,-79.5 391.5,-58.5 252.5,-58.5"/>
<text text-anchor="middle" x="322" y="-66.5" font-family="Helvetica,sans-Serif" font-size="10.00">MojDbServiceHandler.cpp</text>
</a>
</g>
<!-- Node8&#45;&gt;Node9 -->
<g id="edge16" class="edge"><title>Node8&#45;&gt;Node9</title>
<path fill="none" stroke="midnightblue" d="M596.766,-114.794C534.068,-104.345 444.736,-89.4559 385.138,-79.5231"/>
<polygon fill="midnightblue" stroke="midnightblue" points="596.54,-118.305 606.98,-116.497 597.691,-111.4 596.54,-118.305"/>
</g>
<!-- Node10 -->
<g id="node19" class="node"><title>Node10</title>
<a xlink:href="MojDbServiceHandlerInternal_8cpp.htm" target="_top" xlink:title="MojDbServiceHandlerInternal.cpp">
<polygon fill="white" stroke="black" points="408.5,-58.5 408.5,-79.5 583.5,-79.5 583.5,-58.5 408.5,-58.5"/>
<text text-anchor="middle" x="496" y="-66.5" font-family="Helvetica,sans-Serif" font-size="10.00">MojDbServiceHandlerInternal.cpp</text>
</a>
</g>
<!-- Node8&#45;&gt;Node10 -->
<g id="edge18" class="edge"><title>Node8&#45;&gt;Node10</title>
<path fill="none" stroke="midnightblue" d="M628.836,-113.279C597.831,-102.944 555.955,-88.9849 527.569,-79.5231"/>
<polygon fill="midnightblue" stroke="midnightblue" points="627.896,-116.655 638.49,-116.497 630.11,-110.014 627.896,-116.655"/>
</g>
<!-- Node11 -->
<g id="node21" class="node"><title>Node11</title>
<a xlink:href="MojDbServiceSchemas_8cpp.htm" target="_top" xlink:title="MojDbServiceSchemas.cpp">
<polygon fill="white" stroke="black" points="788.5,-58.5 788.5,-79.5 933.5,-79.5 933.5,-58.5 788.5,-58.5"/>
<text text-anchor="middle" x="861" y="-66.5" font-family="Helvetica,sans-Serif" font-size="10.00">MojDbServiceSchemas.cpp</text>
</a>
</g>
<!-- Node8&#45;&gt;Node11 -->
<g id="edge20" class="edge"><title>Node8&#45;&gt;Node11</title>
<path fill="none" stroke="midnightblue" d="M714.304,-113.546C748.423,-103.186 794.918,-89.0668 826.346,-79.5231"/>
<polygon fill="midnightblue" stroke="midnightblue" points="713.14,-110.242 704.589,-116.497 715.174,-116.94 713.14,-110.242"/>
</g>
<!-- Node12 -->
<g id="node23" class="node"><title>Node12</title>
<a xlink:href="MojDbLunaServiceApp_8h.htm" target="_top" xlink:title="MojDbLunaServiceApp.h">
<polygon fill="white" stroke="black" points="601,-58.5 601,-79.5 733,-79.5 733,-58.5 601,-58.5"/>
<text text-anchor="middle" x="667" y="-66.5" font-family="Helvetica,sans-Serif" font-size="10.00">MojDbLunaServiceApp.h</text>
</a>
</g>
<!-- Node8&#45;&gt;Node12 -->
<g id="edge22" class="edge"><title>Node8&#45;&gt;Node12</title>
<path fill="none" stroke="midnightblue" d="M668.924,-106.191C668.457,-97.1684 667.931,-86.9941 667.547,-79.5707"/>
<polygon fill="midnightblue" stroke="midnightblue" points="665.438,-106.556 669.45,-116.362 672.428,-106.194 665.438,-106.556"/>
</g>
<!-- Node13 -->
<g id="node25" class="node"><title>Node13</title>
<a xlink:href="MojDbLunaServiceApp_8cpp.htm" target="_top" xlink:title="MojDbLunaServiceApp.cpp">
<polygon fill="white" stroke="black" points="642.5,-0.5 642.5,-21.5 785.5,-21.5 785.5,-0.5 642.5,-0.5"/>
<text text-anchor="middle" x="714" y="-8.5" font-family="Helvetica,sans-Serif" font-size="10.00">MojDbLunaServiceApp.cpp</text>
</a>
</g>
<!-- Node8&#45;&gt;Node13 -->
<g id="edge26" class="edge"><title>Node8&#45;&gt;Node13</title>
<path fill="none" stroke="midnightblue" d="M707.573,-111.753C720.924,-104.29 734.493,-93.8654 742,-80 752.71,-60.2187 735.926,-35.4513 724.075,-21.6143"/>
<polygon fill="midnightblue" stroke="midnightblue" points="705.731,-108.764 698.442,-116.453 708.935,-114.989 705.731,-108.764"/>
</g>
<!-- Node12&#45;&gt;Node13 -->
<g id="edge24" class="edge"><title>Node12&#45;&gt;Node13</title>
<path fill="none" stroke="midnightblue" d="M681.958,-50.5407C689.707,-40.9786 698.89,-29.6467 705.434,-21.5707"/>
<polygon fill="midnightblue" stroke="midnightblue" points="679.197,-48.389 675.621,-58.3619 684.636,-52.7961 679.197,-48.389"/>
</g>
<!-- Node14&#45;&gt;Node9 -->
<g id="edge30" class="edge"><title>Node14&#45;&gt;Node9</title>
<path fill="none" stroke="midnightblue" d="M324.565,-106.191C323.943,-97.1684 323.241,-86.9941 322.729,-79.5707"/>
<polygon fill="midnightblue" stroke="midnightblue" points="321.087,-106.626 325.266,-116.362 328.07,-106.145 321.087,-106.626"/>
</g>
<!-- Node14&#45;&gt;Node10 -->
<g id="edge32" class="edge"><title>Node14&#45;&gt;Node10</title>
<path fill="none" stroke="midnightblue" d="M366.612,-113.144C396.864,-102.823 437.544,-88.9439 465.157,-79.5231"/>
<polygon fill="midnightblue" stroke="midnightblue" points="365.12,-109.955 356.786,-116.497 367.38,-116.58 365.12,-109.955"/>
</g>
<!-- Node14&#45;&gt;Node12 -->
<g id="edge34" class="edge"><title>Node14&#45;&gt;Node12</title>
<path fill="none" stroke="midnightblue" d="M397.761,-114.794C459.198,-104.345 546.733,-89.4559 605.132,-79.5231"/>
<polygon fill="midnightblue" stroke="midnightblue" points="397.024,-111.369 387.753,-116.497 398.198,-118.27 397.024,-111.369"/>
</g>
</g>
</svg>
