<?xml version="1.0" encoding="UTF-8" standalone="no"?>
<!DOCTYPE svg PUBLIC "-//W3C//DTD SVG 1.1//EN"
 "http://www.w3.org/Graphics/SVG/1.1/DTD/svg11.dtd">
<!-- Generated by graphviz version 2.26.3 (20100126.1600)
 -->
<!-- Title: MojDbQuotaEngine.h Pages: 1 -->
<svg width="1304pt" height="696pt"
 viewBox="0.00 0.00 1304.00 696.00" xmlns="http://www.w3.org/2000/svg" xmlns:xlink="http://www.w3.org/1999/xlink">
<g id="graph1" class="graph" transform="scale(1 1) rotate(0) translate(4 692)">
<title>MojDbQuotaEngine.h</title>
<polygon fill="white" stroke="white" points="-4,5 -4,-692 1301,-692 1301,5 -4,5"/>
<!-- Node1 -->
<g id="node1" class="node"><title>Node1</title>
<polygon fill="#bfbfbf" stroke="black" points="963,-666.5 963,-687.5 1079,-687.5 1079,-666.5 963,-666.5"/>
<text text-anchor="middle" x="1021" y="-674.5" font-family="Helvetica,sans-Serif" font-size="10.00">MojDbQuotaEngine.h</text>
</g>
<!-- Node2 -->
<g id="node3" class="node"><title>Node2</title>
<a xlink:href="MojDbDefs_8h.htm" target="_top" xlink:title="db/MojDbDefs.h">
<polygon fill="white" stroke="black" points="1205.5,-550.5 1205.5,-571.5 1296.5,-571.5 1296.5,-550.5 1205.5,-550.5"/>
<text text-anchor="middle" x="1251" y="-558.5" font-family="Helvetica,sans-Serif" font-size="10.00">db/MojDbDefs.h</text>
</a>
</g>
<!-- Node1&#45;&gt;Node2 -->
<g id="edge2" class="edge"><title>Node1&#45;&gt;Node2</title>
<path fill="none" stroke="midnightblue" d="M1079.1,-670.795C1133.75,-663.8 1210.32,-650.633 1232,-630 1245.04,-617.593 1249.4,-597.137 1250.74,-581.712"/>
<polygon fill="midnightblue" stroke="midnightblue" points="1254.24,-581.721 1251.25,-571.557 1247.25,-581.366 1254.24,-581.721"/>
</g>
<!-- Node13 -->
<g id="node25" class="node"><title>Node13</title>
<a xlink:href="MojDbPutHandler_8h.htm" target="_top" xlink:title="db/MojDbPutHandler.h">
<polygon fill="white" stroke="black" points="1101,-608.5 1101,-629.5 1223,-629.5 1223,-608.5 1101,-608.5"/>
<text text-anchor="middle" x="1162" y="-616.5" font-family="Helvetica,sans-Serif" font-size="10.00">db/MojDbPutHandler.h</text>
</a>
</g>
<!-- Node1&#45;&gt;Node13 -->
<g id="edge24" class="edge"><title>Node1&#45;&gt;Node13</title>
<path fill="none" stroke="midnightblue" d="M1046.53,-666.497C1068.95,-657.275 1101.78,-643.769 1126.71,-633.515"/>
<polygon fill="midnightblue" stroke="midnightblue" points="1128.26,-636.662 1136.18,-629.621 1125.6,-630.189 1128.26,-636.662"/>
</g>
<!-- Node15 -->
<g id="node31" class="node"><title>Node15</title>
<a xlink:href="MojMap_8h.htm" target="_top" xlink:title="core/MojMap.h">
<polygon fill="white" stroke="black" points="438.5,-492.5 438.5,-513.5 525.5,-513.5 525.5,-492.5 438.5,-492.5"/>
<text text-anchor="middle" x="482" y="-500.5" font-family="Helvetica,sans-Serif" font-size="10.00">core/MojMap.h</text>
</a>
</g>
<!-- Node1&#45;&gt;Node15 -->
<g id="edge32" class="edge"><title>Node1&#45;&gt;Node15</title>
<path fill="none" stroke="midnightblue" d="M962.794,-669.177C850.781,-653.341 610.026,-615.295 539,-572 519.113,-559.878 502.974,-538.296 493.011,-522.488"/>
<polygon fill="midnightblue" stroke="midnightblue" points="495.777,-520.297 487.627,-513.528 489.777,-523.902 495.777,-520.297"/>
</g>
<!-- Node20 -->
<g id="node47" class="node"><title>Node20</title>
<a xlink:href="MojSignal_8h.htm" target="_top" xlink:title="core/MojSignal.h">
<polygon fill="white" stroke="black" points="298.5,-608.5 298.5,-629.5 393.5,-629.5 393.5,-608.5 298.5,-608.5"/>
<text text-anchor="middle" x="346" y="-616.5" font-family="Helvetica,sans-Serif" font-size="10.00">core/MojSignal.h</text>
</a>
</g>
<!-- Node1&#45;&gt;Node20 -->
<g id="edge54" class="edge"><title>Node1&#45;&gt;Node20</title>
<path fill="none" stroke="midnightblue" d="M962.866,-672.005C835.183,-661.033 531.501,-634.939 403.97,-623.981"/>
<polygon fill="midnightblue" stroke="midnightblue" points="403.902,-620.463 393.64,-623.093 403.303,-627.437 403.902,-620.463"/>
</g>
<!-- Node32 -->
<g id="node84" class="node"><title>Node32</title>
<a xlink:href="MojString_8h.htm" target="_top" xlink:title="core/MojString.h">
<polygon fill="white" stroke="black" points="974,-608.5 974,-629.5 1068,-629.5 1068,-608.5 974,-608.5"/>
<text text-anchor="middle" x="1021" y="-616.5" font-family="Helvetica,sans-Serif" font-size="10.00">core/MojString.h</text>
</a>
</g>
<!-- Node1&#45;&gt;Node32 -->
<g id="edge104" class="edge"><title>Node1&#45;&gt;Node32</title>
<path fill="none" stroke="midnightblue" d="M1021,-666.362C1021,-658.922 1021,-648.743 1021,-639.728"/>
<polygon fill="midnightblue" stroke="midnightblue" points="1024.5,-639.571 1021,-629.571 1017.5,-639.571 1024.5,-639.571"/>
</g>
<!-- Node3 -->
<g id="node5" class="node"><title>Node3</title>
<a xlink:href="MojCoreDefs_8h.htm" target="_top" xlink:title="core/MojCoreDefs.h">
<polygon fill="white" stroke="black" points="604.5,-232.5 604.5,-253.5 715.5,-253.5 715.5,-232.5 604.5,-232.5"/>
<text text-anchor="middle" x="660" y="-240.5" font-family="Helvetica,sans-Serif" font-size="10.00">core/MojCoreDefs.h</text>
</a>
</g>
<!-- Node2&#45;&gt;Node3 -->
<g id="edge4" class="edge"><title>Node2&#45;&gt;Node3</title>
<path fill="none" stroke="midnightblue" d="M1251.29,-550.471C1251.84,-529.213 1253,-479.646 1253,-438 1253,-438 1253,-438 1253,-373 1253,-334.6 1258.72,-314.32 1229,-290 1190.79,-258.727 867.326,-247.662 725.826,-244.294"/>
<polygon fill="midnightblue" stroke="midnightblue" points="725.631,-240.789 715.553,-244.056 725.469,-247.787 725.631,-240.789"/>
</g>
<!-- Node4 -->
<g id="node7" class="node"><title>Node4</title>
<a xlink:href="MojConfig_8h.htm" target="_top" xlink:title="core/internal/MojConfig.h">
<polygon fill="white" stroke="black" points="782.5,-174.5 782.5,-195.5 917.5,-195.5 917.5,-174.5 782.5,-174.5"/>
<text text-anchor="middle" x="850" y="-182.5" font-family="Helvetica,sans-Serif" font-size="10.00">core/internal/MojConfig.h</text>
</a>
</g>
<!-- Node3&#45;&gt;Node4 -->
<g id="edge6" class="edge"><title>Node3&#45;&gt;Node4</title>
<path fill="none" stroke="midnightblue" d="M694.408,-232.497C725.651,-222.959 771.901,-208.841 805.858,-198.475"/>
<polygon fill="midnightblue" stroke="midnightblue" points="806.985,-201.79 815.528,-195.523 804.942,-195.095 806.985,-201.79"/>
</g>
<!-- Node5 -->
<g id="node9" class="node"><title>Node5</title>
<a xlink:href="MojNew_8h.htm" target="_top" xlink:title="core/internal/MojNew.h">
<polygon fill="white" stroke="black" points="444.5,-174.5 444.5,-195.5 569.5,-195.5 569.5,-174.5 444.5,-174.5"/>
<text text-anchor="middle" x="507" y="-182.5" font-family="Helvetica,sans-Serif" font-size="10.00">core/internal/MojNew.h</text>
</a>
</g>
<!-- Node3&#45;&gt;Node5 -->
<g id="edge8" class="edge"><title>Node3&#45;&gt;Node5</title>
<path fill="none" stroke="midnightblue" d="M632.293,-232.497C607.674,-223.164 571.483,-209.445 544.32,-199.147"/>
<polygon fill="midnightblue" stroke="midnightblue" points="545.35,-195.795 534.759,-195.523 542.869,-202.341 545.35,-195.795"/>
</g>
<!-- Node7 -->
<g id="node13" class="node"><title>Node7</title>
<a xlink:href="MojErr_8h.htm" target="_top" xlink:title="core/MojErr.h">
<polygon fill="white" stroke="black" points="587,-174.5 587,-195.5 667,-195.5 667,-174.5 587,-174.5"/>
<text text-anchor="middle" x="627" y="-182.5" font-family="Helvetica,sans-Serif" font-size="10.00">core/MojErr.h</text>
</a>
</g>
<!-- Node3&#45;&gt;Node7 -->
<g id="edge12" class="edge"><title>Node3&#45;&gt;Node7</title>
<path fill="none" stroke="midnightblue" d="M653.947,-232.362C649.528,-224.595 643.41,-213.843 638.121,-204.546"/>
<polygon fill="midnightblue" stroke="midnightblue" points="641.002,-202.531 633.014,-195.571 634.918,-205.993 641.002,-202.531"/>
</g>
<!-- Node11 -->
<g id="node21" class="node"><title>Node11</title>
<a xlink:href="MojOs_8h.htm" target="_top" xlink:title="core/MojOs.h">
<polygon fill="white" stroke="black" points="685,-174.5 685,-195.5 765,-195.5 765,-174.5 685,-174.5"/>
<text text-anchor="middle" x="725" y="-182.5" font-family="Helvetica,sans-Serif" font-size="10.00">core/MojOs.h</text>
</a>
</g>
<!-- Node3&#45;&gt;Node11 -->
<g id="edge20" class="edge"><title>Node3&#45;&gt;Node11</title>
<path fill="none" stroke="midnightblue" d="M671.922,-232.362C681.359,-223.941 694.73,-212.011 705.69,-202.231"/>
<polygon fill="midnightblue" stroke="midnightblue" points="708.022,-204.84 713.154,-195.571 703.362,-199.617 708.022,-204.84"/>
</g>
<!-- Node6 -->
<g id="node11" class="node"><title>Node6</title>
<polygon fill="white" stroke="#bfbfbf" points="489,-116.5 489,-137.5 525,-137.5 525,-116.5 489,-116.5"/>
<text text-anchor="middle" x="507" y="-124.5" font-family="Helvetica,sans-Serif" font-size="10.00">new</text>
</g>
<!-- Node5&#45;&gt;Node6 -->
<g id="edge10" class="edge"><title>Node5&#45;&gt;Node6</title>
<path fill="none" stroke="midnightblue" d="M507,-174.362C507,-166.922 507,-156.743 507,-147.728"/>
<polygon fill="midnightblue" stroke="midnightblue" points="510.5,-147.571 507,-137.571 503.5,-147.571 510.5,-147.571"/>
</g>
<!-- Node8 -->
<g id="node15" class="node"><title>Node8</title>
<a xlink:href="MojLog_8h.htm" target="_top" xlink:title="core/MojLog.h">
<polygon fill="white" stroke="black" points="544,-116.5 544,-137.5 628,-137.5 628,-116.5 544,-116.5"/>
<text text-anchor="middle" x="586" y="-124.5" font-family="Helvetica,sans-Serif" font-size="10.00">core/MojLog.h</text>
</a>
</g>
<!-- Node7&#45;&gt;Node8 -->
<g id="edge14" class="edge"><title>Node7&#45;&gt;Node8</title>
<path fill="none" stroke="midnightblue" d="M619.48,-174.362C613.874,-166.431 606.068,-155.389 599.403,-145.961"/>
<polygon fill="midnightblue" stroke="midnightblue" points="602.103,-143.716 593.472,-137.571 596.387,-147.757 602.103,-143.716"/>
</g>
<!-- Node9 -->
<g id="node17" class="node"><title>Node9</title>
<a xlink:href="MojListEntry_8h.htm" target="_top" xlink:title="core/MojListEntry.h">
<polygon fill="white" stroke="black" points="488.5,-58.5 488.5,-79.5 595.5,-79.5 595.5,-58.5 488.5,-58.5"/>
<text text-anchor="middle" x="542" y="-66.5" font-family="Helvetica,sans-Serif" font-size="10.00">core/MojListEntry.h</text>
</a>
</g>
<!-- Node8&#45;&gt;Node9 -->
<g id="edge16" class="edge"><title>Node8&#45;&gt;Node9</title>
<path fill="none" stroke="midnightblue" d="M577.93,-116.362C571.851,-108.35 563.363,-97.1605 556.163,-87.6696"/>
<polygon fill="midnightblue" stroke="midnightblue" points="558.851,-85.4222 550.019,-79.5707 553.275,-89.653 558.851,-85.4222"/>
</g>
<!-- Node10 -->
<g id="node19" class="node"><title>Node10</title>
<a xlink:href="MojNoCopy_8h.htm" target="_top" xlink:title="core/MojNoCopy.h">
<polygon fill="white" stroke="black" points="427,-0.5 427,-21.5 531,-21.5 531,-0.5 427,-0.5"/>
<text text-anchor="middle" x="479" y="-8.5" font-family="Helvetica,sans-Serif" font-size="10.00">core/MojNoCopy.h</text>
</a>
</g>
<!-- Node9&#45;&gt;Node10 -->
<g id="edge18" class="edge"><title>Node9&#45;&gt;Node10</title>
<path fill="none" stroke="midnightblue" d="M530.445,-58.3619C521.387,-50.0226 508.59,-38.2418 498.026,-28.5162"/>
<polygon fill="midnightblue" stroke="midnightblue" points="500.21,-25.7688 490.482,-21.5707 495.468,-30.9187 500.21,-25.7688"/>
</g>
<!-- Node12 -->
<g id="node23" class="node"><title>Node12</title>
<a xlink:href="MojOsInternal_8h.htm" target="_top" xlink:title="core/internal/MojOsInternal.h">
<polygon fill="white" stroke="black" points="648,-116.5 648,-137.5 802,-137.5 802,-116.5 648,-116.5"/>
<text text-anchor="middle" x="725" y="-124.5" font-family="Helvetica,sans-Serif" font-size="10.00">core/internal/MojOsInternal.h</text>
</a>
</g>
<!-- Node11&#45;&gt;Node12 -->
<g id="edge22" class="edge"><title>Node11&#45;&gt;Node12</title>
<path fill="none" stroke="midnightblue" d="M725,-174.362C725,-166.922 725,-156.743 725,-147.728"/>
<polygon fill="midnightblue" stroke="midnightblue" points="728.5,-147.571 725,-137.571 721.5,-147.571 728.5,-147.571"/>
</g>
<!-- Node13&#45;&gt;Node2 -->
<g id="edge26" class="edge"><title>Node13&#45;&gt;Node2</title>
<path fill="none" stroke="midnightblue" d="M1178.32,-608.362C1191.75,-599.614 1210.98,-587.079 1226.29,-577.101"/>
<polygon fill="midnightblue" stroke="midnightblue" points="1228.31,-579.963 1234.78,-571.571 1224.49,-574.098 1228.31,-579.963"/>
</g>
<!-- Node14 -->
<g id="node28" class="node"><title>Node14</title>
<a xlink:href="MojComp_8h.htm" target="_top" xlink:title="core/MojComp.h">
<polygon fill="white" stroke="black" points="760,-297.5 760,-318.5 854,-318.5 854,-297.5 760,-297.5"/>
<text text-anchor="middle" x="807" y="-305.5" font-family="Helvetica,sans-Serif" font-size="10.00">core/MojComp.h</text>
</a>
</g>
<!-- Node13&#45;&gt;Node14 -->
<g id="edge28" class="edge"><title>Node13&#45;&gt;Node14</title>
<path fill="none" stroke="midnightblue" d="M1163.61,-608.263C1167.99,-574.515 1176.3,-469.866 1120,-420 1046.54,-354.939 932.596,-326.896 864.344,-315.398"/>
<polygon fill="midnightblue" stroke="midnightblue" points="864.637,-311.9 854.206,-313.755 863.517,-318.81 864.637,-311.9"/>
</g>
<!-- Node14&#45;&gt;Node3 -->
<g id="edge30" class="edge"><title>Node14&#45;&gt;Node3</title>
<path fill="none" stroke="midnightblue" d="M783.055,-297.412C758.602,-286.6 720.453,-269.731 693.114,-257.642"/>
<polygon fill="midnightblue" stroke="midnightblue" points="694.496,-254.427 683.935,-253.584 691.665,-260.829 694.496,-254.427"/>
</g>
<!-- Node15&#45;&gt;Node3 -->
<g id="edge34" class="edge"><title>Node15&#45;&gt;Node3</title>
<path fill="none" stroke="midnightblue" d="M497.192,-492.214C523.068,-473.131 575.905,-430.97 607,-384 632.615,-345.306 648.184,-292.51 655.327,-263.751"/>
<polygon fill="midnightblue" stroke="midnightblue" points="658.819,-264.198 657.73,-253.659 652.009,-262.576 658.819,-264.198"/>
</g>
<!-- Node15&#45;&gt;Node14 -->
<g id="edge36" class="edge"><title>Node15&#45;&gt;Node14</title>
<path fill="none" stroke="midnightblue" d="M505.943,-492.409C525.838,-483.371 554.713,-469.696 579,-456 656.386,-412.359 743.258,-352.865 783.812,-324.436"/>
<polygon fill="midnightblue" stroke="midnightblue" points="786.03,-327.156 792.195,-318.539 782.002,-321.43 786.03,-327.156"/>
</g>
<!-- Node16 -->
<g id="node35" class="node"><title>Node16</title>
<a xlink:href="MojRbTreeBase_8h.htm" target="_top" xlink:title="core/internal/MojRbTreeBase.h">
<polygon fill="white" stroke="black" points="335,-427.5 335,-448.5 499,-448.5 499,-427.5 335,-427.5"/>
<text text-anchor="middle" x="417" y="-435.5" font-family="Helvetica,sans-Serif" font-size="10.00">core/internal/MojRbTreeBase.h</text>
</a>
</g>
<!-- Node15&#45;&gt;Node16 -->
<g id="edge38" class="edge"><title>Node15&#45;&gt;Node16</title>
<path fill="none" stroke="midnightblue" d="M471.267,-492.267C461.328,-482.328 446.363,-467.363 434.664,-455.664"/>
<polygon fill="midnightblue" stroke="midnightblue" points="437.08,-453.13 427.534,-448.534 432.13,-458.08 437.08,-453.13"/>
</g>
<!-- Node16&#45;&gt;Node3 -->
<g id="edge40" class="edge"><title>Node16&#45;&gt;Node3</title>
<path fill="none" stroke="midnightblue" d="M391.675,-427.454C338.115,-403.742 222.066,-344.057 270,-290 291.101,-266.204 488.522,-252.132 594.104,-246.247"/>
<polygon fill="midnightblue" stroke="midnightblue" points="594.542,-249.729 604.336,-245.687 594.159,-242.739 594.542,-249.729"/>
</g>
<!-- Node17 -->
<g id="node38" class="node"><title>Node17</title>
<a xlink:href="MojAutoPtr_8h.htm" target="_top" xlink:title="core/MojAutoPtr.h">
<polygon fill="white" stroke="black" points="497.5,-362.5 497.5,-383.5 598.5,-383.5 598.5,-362.5 497.5,-362.5"/>
<text text-anchor="middle" x="548" y="-370.5" font-family="Helvetica,sans-Serif" font-size="10.00">core/MojAutoPtr.h</text>
</a>
</g>
<!-- Node16&#45;&gt;Node17 -->
<g id="edge42" class="edge"><title>Node16&#45;&gt;Node17</title>
<path fill="none" stroke="midnightblue" d="M438.339,-427.412C459.845,-416.741 493.239,-400.172 517.528,-388.12"/>
<polygon fill="midnightblue" stroke="midnightblue" points="519.268,-391.164 526.67,-383.584 516.157,-384.893 519.268,-391.164"/>
</g>
<!-- Node17&#45;&gt;Node3 -->
<g id="edge44" class="edge"><title>Node17&#45;&gt;Node3</title>
<path fill="none" stroke="midnightblue" d="M518.415,-362.479C502.171,-355.006 483.455,-343.206 474,-326 466.295,-311.978 464.169,-302.624 474,-290 488.902,-270.864 547.048,-258.289 594.412,-251.004"/>
<polygon fill="midnightblue" stroke="midnightblue" points="594.959,-254.461 604.336,-249.529 593.93,-247.537 594.959,-254.461"/>
</g>
<!-- Node17&#45;&gt;Node10 -->
<g id="edge50" class="edge"><title>Node17&#45;&gt;Node10</title>
<path fill="none" stroke="midnightblue" d="M520.943,-362.442C503.146,-354.472 480.23,-342.147 464,-326 433.947,-296.101 417,-285.393 417,-243 417,-243 417,-243 417,-127 417,-88.6979 443.617,-50.7886 461.971,-29.2006"/>
<polygon fill="midnightblue" stroke="midnightblue" points="464.771,-31.318 468.762,-21.5037 459.521,-26.6868 464.771,-31.318"/>
</g>
<!-- Node18 -->
<g id="node41" class="node"><title>Node18</title>
<a xlink:href="MojAtomicInt_8h.htm" target="_top" xlink:title="core/MojAtomicInt.h">
<polygon fill="white" stroke="black" points="279,-297.5 279,-318.5 389,-318.5 389,-297.5 279,-297.5"/>
<text text-anchor="middle" x="334" y="-305.5" font-family="Helvetica,sans-Serif" font-size="10.00">core/MojAtomicInt.h</text>
</a>
</g>
<!-- Node17&#45;&gt;Node18 -->
<g id="edge46" class="edge"><title>Node17&#45;&gt;Node18</title>
<path fill="none" stroke="midnightblue" d="M513.141,-362.412C476.455,-351.269 418.592,-333.694 378.602,-321.547"/>
<polygon fill="midnightblue" stroke="midnightblue" points="379.43,-318.141 368.844,-318.584 377.395,-324.839 379.43,-318.141"/>
</g>
<!-- Node19 -->
<g id="node45" class="node"><title>Node19</title>
<a xlink:href="MojAutoPtrInternal_8h.htm" target="_top" xlink:title="core/internal/MojAutoPtr\lInternal.h">
<polygon fill="white" stroke="black" points="482.5,-291 482.5,-325 613.5,-325 613.5,-291 482.5,-291"/>
<text text-anchor="start" x="490.5" y="-312" font-family="Helvetica,sans-Serif" font-size="10.00">core/internal/MojAutoPtr</text>
<text text-anchor="middle" x="548" y="-299" font-family="Helvetica,sans-Serif" font-size="10.00">Internal.h</text>
</a>
</g>
<!-- Node17&#45;&gt;Node19 -->
<g id="edge52" class="edge"><title>Node17&#45;&gt;Node19</title>
<path fill="none" stroke="midnightblue" d="M548,-362.267C548,-354.931 548,-344.857 548,-335.38"/>
<polygon fill="midnightblue" stroke="midnightblue" points="551.5,-335.11 548,-325.11 544.5,-335.11 551.5,-335.11"/>
</g>
<!-- Node18&#45;&gt;Node3 -->
<g id="edge48" class="edge"><title>Node18&#45;&gt;Node3</title>
<path fill="none" stroke="midnightblue" d="M386.74,-297.484C444.266,-286.014 536.286,-267.667 597.424,-255.477"/>
<polygon fill="midnightblue" stroke="midnightblue" points="598.213,-258.888 607.336,-253.501 596.845,-252.024 598.213,-258.888"/>
</g>
<!-- Node20&#45;&gt;Node3 -->
<g id="edge56" class="edge"><title>Node20&#45;&gt;Node3</title>
<path fill="none" stroke="midnightblue" d="M298.179,-616.432C246.074,-612.21 161.177,-601.101 94,-572 46.4455,-551.399 0,-554.825 0,-503 0,-503 0,-503 0,-373 0,-328.991 16.1562,-312.464 54,-290 99.5535,-262.959 446.502,-249.422 593.991,-244.841"/>
<polygon fill="midnightblue" stroke="midnightblue" points="594.37,-248.331 604.258,-244.527 594.156,-241.335 594.37,-248.331"/>
</g>
<!-- Node21 -->
<g id="node50" class="node"><title>Node21</title>
<a xlink:href="MojList_8h.htm" target="_top" xlink:title="core/MojList.h">
<polygon fill="white" stroke="black" points="102.5,-550.5 102.5,-571.5 185.5,-571.5 185.5,-550.5 102.5,-550.5"/>
<text text-anchor="middle" x="144" y="-558.5" font-family="Helvetica,sans-Serif" font-size="10.00">core/MojList.h</text>
</a>
</g>
<!-- Node20&#45;&gt;Node21 -->
<g id="edge58" class="edge"><title>Node20&#45;&gt;Node21</title>
<path fill="none" stroke="midnightblue" d="M309.419,-608.497C276.06,-598.918 226.61,-584.72 190.466,-574.342"/>
<polygon fill="midnightblue" stroke="midnightblue" points="191.227,-570.919 180.649,-571.523 189.295,-577.647 191.227,-570.919"/>
</g>
<!-- Node23 -->
<g id="node55" class="node"><title>Node23</title>
<a xlink:href="MojThread_8h.htm" target="_top" xlink:title="core/MojThread.h">
<polygon fill="white" stroke="black" points="239.5,-492.5 239.5,-513.5 340.5,-513.5 340.5,-492.5 239.5,-492.5"/>
<text text-anchor="middle" x="290" y="-500.5" font-family="Helvetica,sans-Serif" font-size="10.00">core/MojThread.h</text>
</a>
</g>
<!-- Node20&#45;&gt;Node23 -->
<g id="edge64" class="edge"><title>Node20&#45;&gt;Node23</title>
<path fill="none" stroke="midnightblue" d="M335.154,-608.365C326.606,-599.406 314.999,-585.863 308,-572 300.339,-556.827 295.718,-538.082 293.08,-523.961"/>
<polygon fill="midnightblue" stroke="midnightblue" points="296.479,-523.065 291.369,-513.784 289.575,-524.226 296.479,-523.065"/>
</g>
<!-- Node25 -->
<g id="node62" class="node"><title>Node25</title>
<a xlink:href="MojVector_8h.htm" target="_top" xlink:title="core/MojVector.h">
<polygon fill="white" stroke="black" points="858.5,-550.5 858.5,-571.5 955.5,-571.5 955.5,-550.5 858.5,-550.5"/>
<text text-anchor="middle" x="907" y="-558.5" font-family="Helvetica,sans-Serif" font-size="10.00">core/MojVector.h</text>
</a>
</g>
<!-- Node20&#45;&gt;Node25 -->
<g id="edge74" class="edge"><title>Node20&#45;&gt;Node25</title>
<path fill="none" stroke="midnightblue" d="M393.831,-614.055C496.354,-603.455 736.988,-578.577 848.441,-567.054"/>
<polygon fill="midnightblue" stroke="midnightblue" points="848.907,-570.525 858.494,-566.015 848.187,-563.562 848.907,-570.525"/>
</g>
<!-- Node31 -->
<g id="node82" class="node"><title>Node31</title>
<a xlink:href="MojSignalInternal_8h.htm" target="_top" xlink:title="core/internal/MojSignalInternal.h">
<polygon fill="white" stroke="black" points="317,-550.5 317,-571.5 487,-571.5 487,-550.5 317,-550.5"/>
<text text-anchor="middle" x="402" y="-558.5" font-family="Helvetica,sans-Serif" font-size="10.00">core/internal/MojSignalInternal.h</text>
</a>
</g>
<!-- Node20&#45;&gt;Node31 -->
<g id="edge102" class="edge"><title>Node20&#45;&gt;Node31</title>
<path fill="none" stroke="midnightblue" d="M356.271,-608.362C364.244,-600.104 375.475,-588.472 384.811,-578.803"/>
<polygon fill="midnightblue" stroke="midnightblue" points="387.366,-581.196 391.794,-571.571 382.33,-576.334 387.366,-581.196"/>
</g>
<!-- Node21&#45;&gt;Node3 -->
<g id="edge60" class="edge"><title>Node21&#45;&gt;Node3</title>
<path fill="none" stroke="midnightblue" d="M110.176,-550.343C91.8874,-542.922 70.3715,-531.221 57,-514 35.6465,-486.5 38,-472.817 38,-438 38,-438 38,-438 38,-373 38,-300.665 109.25,-312.492 178,-290 253.553,-265.283 480.478,-251.437 593.927,-245.888"/>
<polygon fill="midnightblue" stroke="midnightblue" points="594.392,-249.37 604.212,-245.392 594.055,-242.378 594.392,-249.37"/>
</g>
<!-- Node22 -->
<g id="node53" class="node"><title>Node22</title>
<a xlink:href="MojListInternal_8h.htm" target="_top" xlink:title="core/internal/MojListInternal.h">
<polygon fill="white" stroke="black" points="65.5,-492.5 65.5,-513.5 222.5,-513.5 222.5,-492.5 65.5,-492.5"/>
<text text-anchor="middle" x="144" y="-500.5" font-family="Helvetica,sans-Serif" font-size="10.00">core/internal/MojListInternal.h</text>
</a>
</g>
<!-- Node21&#45;&gt;Node22 -->
<g id="edge62" class="edge"><title>Node21&#45;&gt;Node22</title>
<path fill="none" stroke="midnightblue" d="M144,-550.362C144,-542.922 144,-532.743 144,-523.728"/>
<polygon fill="midnightblue" stroke="midnightblue" points="147.5,-523.571 144,-513.571 140.5,-523.571 147.5,-523.571"/>
</g>
<!-- Node23&#45;&gt;Node3 -->
<g id="edge66" class="edge"><title>Node23&#45;&gt;Node3</title>
<path fill="none" stroke="midnightblue" d="M241.822,-492.458C195.45,-481.827 131.294,-465.646 124,-456 62.1945,-374.266 124.174,-352.962 255,-290 313.368,-261.909 495.285,-249.961 594.259,-245.432"/>
<polygon fill="midnightblue" stroke="midnightblue" points="594.611,-248.92 604.446,-244.979 594.3,-241.927 594.611,-248.92"/>
</g>
<!-- Node23&#45;&gt;Node18 -->
<g id="edge68" class="edge"><title>Node23&#45;&gt;Node18</title>
<path fill="none" stroke="midnightblue" d="M245.514,-492.462C201.863,-481.675 140.854,-465.223 134,-456 124.457,-443.158 125.909,-433.804 134,-420 165.346,-366.52 232.593,-336.655 280.446,-321.468"/>
<polygon fill="midnightblue" stroke="midnightblue" points="281.502,-324.805 290.042,-318.535 279.456,-318.111 281.502,-324.805"/>
</g>
<!-- Node24 -->
<g id="node59" class="node"><title>Node24</title>
<a xlink:href="MojThreadInternal_8h.htm" target="_top" xlink:title="core/internal/MojThreadInternal.h">
<polygon fill="white" stroke="black" points="142.5,-427.5 142.5,-448.5 317.5,-448.5 317.5,-427.5 142.5,-427.5"/>
<text text-anchor="middle" x="230" y="-435.5" font-family="Helvetica,sans-Serif" font-size="10.00">core/internal/MojThreadInternal.h</text>
</a>
</g>
<!-- Node23&#45;&gt;Node24 -->
<g id="edge70" class="edge"><title>Node23&#45;&gt;Node24</title>
<path fill="none" stroke="midnightblue" d="M280.092,-492.267C271.006,-482.423 257.367,-467.648 246.615,-456"/>
<polygon fill="midnightblue" stroke="midnightblue" points="249.078,-453.508 239.723,-448.534 243.934,-458.256 249.078,-453.508"/>
</g>
<!-- Node24&#45;&gt;Node17 -->
<g id="edge72" class="edge"><title>Node24&#45;&gt;Node17</title>
<path fill="none" stroke="midnightblue" d="M281.446,-427.484C337.694,-415.987 427.75,-397.579 487.385,-385.39"/>
<polygon fill="midnightblue" stroke="midnightblue" points="488.32,-388.771 497.417,-383.339 486.918,-381.913 488.32,-388.771"/>
</g>
<!-- Node25&#45;&gt;Node3 -->
<g id="edge76" class="edge"><title>Node25&#45;&gt;Node3</title>
<path fill="none" stroke="midnightblue" d="M913.55,-550.109C931.223,-519.217 976.548,-428.939 946,-362 925.726,-317.573 906.516,-312.161 863,-290 820.116,-268.161 766.984,-256.327 725.835,-249.998"/>
<polygon fill="midnightblue" stroke="midnightblue" points="726.315,-246.531 715.913,-248.542 725.299,-253.457 726.315,-246.531"/>
</g>
<!-- Node25&#45;&gt;Node14 -->
<g id="edge78" class="edge"><title>Node25&#45;&gt;Node14</title>
<path fill="none" stroke="midnightblue" d="M907.043,-550.397C906.522,-535.417 903.348,-508.096 888,-492 852.502,-454.771 809.336,-496.795 778,-456 752.528,-422.838 762.674,-402.253 774,-362 777.554,-349.368 784.975,-336.769 791.881,-326.921"/>
<polygon fill="midnightblue" stroke="midnightblue" points="794.81,-328.847 797.953,-318.729 789.186,-324.679 794.81,-328.847"/>
</g>
<!-- Node26 -->
<g id="node66" class="node"><title>Node26</title>
<a xlink:href="MojRefCount_8h.htm" target="_top" xlink:title="core/MojRefCount.h">
<polygon fill="white" stroke="black" points="581,-492.5 581,-513.5 691,-513.5 691,-492.5 581,-492.5"/>
<text text-anchor="middle" x="636" y="-500.5" font-family="Helvetica,sans-Serif" font-size="10.00">core/MojRefCount.h</text>
</a>
</g>
<!-- Node25&#45;&gt;Node26 -->
<g id="edge80" class="edge"><title>Node25&#45;&gt;Node26</title>
<path fill="none" stroke="midnightblue" d="M858.238,-550.564C812.474,-540.769 743.938,-526.101 695.088,-515.646"/>
<polygon fill="midnightblue" stroke="midnightblue" points="695.796,-512.219 685.285,-513.548 694.331,-519.064 695.796,-512.219"/>
</g>
<!-- Node29 -->
<g id="node76" class="node"><title>Node29</title>
<a xlink:href="MojUtil_8h.htm" target="_top" xlink:title="core/MojUtil.h">
<polygon fill="white" stroke="black" points="1030.5,-427.5 1030.5,-448.5 1111.5,-448.5 1111.5,-427.5 1030.5,-427.5"/>
<text text-anchor="middle" x="1071" y="-435.5" font-family="Helvetica,sans-Serif" font-size="10.00">core/MojUtil.h</text>
</a>
</g>
<!-- Node25&#45;&gt;Node29 -->
<g id="edge94" class="edge"><title>Node25&#45;&gt;Node29</title>
<path fill="none" stroke="midnightblue" d="M921.267,-550.3C949.86,-528.855 1014.37,-480.476 1048.63,-454.778"/>
<polygon fill="midnightblue" stroke="midnightblue" points="1050.75,-457.563 1056.65,-448.763 1046.55,-451.963 1050.75,-457.563"/>
</g>
<!-- Node30 -->
<g id="node80" class="node"><title>Node30</title>
<a xlink:href="MojVectorInternal_8h.htm" target="_top" xlink:title="core/internal/MojVectorInternal.h">
<polygon fill="white" stroke="black" points="708.5,-492.5 708.5,-513.5 879.5,-513.5 879.5,-492.5 708.5,-492.5"/>
<text text-anchor="middle" x="794" y="-500.5" font-family="Helvetica,sans-Serif" font-size="10.00">core/internal/MojVectorInternal.h</text>
</a>
</g>
<!-- Node25&#45;&gt;Node30 -->
<g id="edge100" class="edge"><title>Node25&#45;&gt;Node30</title>
<path fill="none" stroke="midnightblue" d="M886.537,-550.497C868.967,-541.479 843.418,-528.365 823.615,-518.201"/>
<polygon fill="midnightblue" stroke="midnightblue" points="825.188,-515.074 814.693,-513.621 821.991,-521.301 825.188,-515.074"/>
</g>
<!-- Node26&#45;&gt;Node3 -->
<g id="edge82" class="edge"><title>Node26&#45;&gt;Node3</title>
<path fill="none" stroke="midnightblue" d="M637.332,-492.242C640.71,-464.657 649.713,-389.136 655,-326 656.762,-304.961 658.143,-280.872 659.003,-264.084"/>
<polygon fill="midnightblue" stroke="midnightblue" points="662.515,-263.916 659.513,-253.756 655.524,-263.571 662.515,-263.916"/>
</g>
<!-- Node26&#45;&gt;Node17 -->
<g id="edge86" class="edge"><title>Node26&#45;&gt;Node17</title>
<path fill="none" stroke="midnightblue" d="M635.975,-492.328C635.441,-475.515 632.334,-442.465 617,-420 607.971,-406.772 593.881,-396.206 580.781,-388.47"/>
<polygon fill="midnightblue" stroke="midnightblue" points="582.387,-385.358 571.944,-383.568 578.991,-391.479 582.387,-385.358"/>
</g>
<!-- Node26&#45;&gt;Node18 -->
<g id="edge84" class="edge"><title>Node26&#45;&gt;Node18</title>
<path fill="none" stroke="midnightblue" d="M619.442,-492.238C595.057,-476.394 548.043,-445.87 508,-420 455.318,-385.964 393.566,-346.261 359.617,-324.451"/>
<polygon fill="midnightblue" stroke="midnightblue" points="361.114,-321.253 350.809,-318.793 357.331,-327.143 361.114,-321.253"/>
</g>
<!-- Node27 -->
<g id="node71" class="node"><title>Node27</title>
<a xlink:href="MojRefCountInternal_8h.htm" target="_top" xlink:title="core/internal/MojRefCount\lInternal.h">
<polygon fill="white" stroke="black" points="787,-421 787,-455 927,-455 927,-421 787,-421"/>
<text text-anchor="start" x="795" y="-442" font-family="Helvetica,sans-Serif" font-size="10.00">core/internal/MojRefCount</text>
<text text-anchor="middle" x="857" y="-429" font-family="Helvetica,sans-Serif" font-size="10.00">Internal.h</text>
</a>
</g>
<!-- Node26&#45;&gt;Node27 -->
<g id="edge88" class="edge"><title>Node26&#45;&gt;Node27</title>
<path fill="none" stroke="midnightblue" d="M671.999,-492.412C703.683,-483.093 750.664,-469.275 789.352,-457.897"/>
<polygon fill="midnightblue" stroke="midnightblue" points="790.389,-461.24 798.995,-455.06 788.413,-454.524 790.389,-461.24"/>
</g>
<!-- Node28 -->
<g id="node73" class="node"><title>Node28</title>
<a xlink:href="MojUtilInternal_8h.htm" target="_top" xlink:title="core/internal/MojUtilInternal.h">
<polygon fill="white" stroke="black" points="782.5,-362.5 782.5,-383.5 937.5,-383.5 937.5,-362.5 782.5,-362.5"/>
<text text-anchor="middle" x="860" y="-370.5" font-family="Helvetica,sans-Serif" font-size="10.00">core/internal/MojUtilInternal.h</text>
</a>
</g>
<!-- Node27&#45;&gt;Node28 -->
<g id="edge90" class="edge"><title>Node27&#45;&gt;Node28</title>
<path fill="none" stroke="midnightblue" d="M857.788,-420.922C858.169,-412.67 858.63,-402.692 859.032,-393.982"/>
<polygon fill="midnightblue" stroke="midnightblue" points="862.534,-394.003 859.499,-383.852 855.542,-393.68 862.534,-394.003"/>
</g>
<!-- Node28&#45;&gt;Node14 -->
<g id="edge92" class="edge"><title>Node28&#45;&gt;Node14</title>
<path fill="none" stroke="midnightblue" d="M851.248,-362.267C843.299,-352.517 831.406,-337.932 821.951,-326.336"/>
<polygon fill="midnightblue" stroke="midnightblue" points="824.621,-324.072 815.589,-318.534 819.196,-328.496 824.621,-324.072"/>
</g>
<!-- Node29&#45;&gt;Node3 -->
<g id="edge96" class="edge"><title>Node29&#45;&gt;Node3</title>
<path fill="none" stroke="midnightblue" d="M1067.81,-427.18C1058.93,-399.184 1031.12,-324.179 979,-290 938.43,-263.393 806.551,-251.27 725.613,-246.214"/>
<polygon fill="midnightblue" stroke="midnightblue" points="725.712,-242.714 715.518,-245.604 725.289,-249.701 725.712,-242.714"/>
</g>
<!-- Node29&#45;&gt;Node28 -->
<g id="edge98" class="edge"><title>Node29&#45;&gt;Node28</title>
<path fill="none" stroke="midnightblue" d="M1036.63,-427.412C1000.46,-416.269 943.406,-398.694 903.977,-386.547"/>
<polygon fill="midnightblue" stroke="midnightblue" points="904.943,-383.183 894.356,-383.584 902.882,-389.873 904.943,-383.183"/>
</g>
<!-- Node32&#45;&gt;Node3 -->
<g id="edge106" class="edge"><title>Node32&#45;&gt;Node3</title>
<path fill="none" stroke="midnightblue" d="M1048.8,-608.367C1102.44,-585.825 1215,-527.823 1215,-438 1215,-438 1215,-438 1215,-373 1215,-273.518 872.689,-250.112 725.736,-244.647"/>
<polygon fill="midnightblue" stroke="midnightblue" points="725.618,-241.141 715.5,-244.284 725.37,-248.136 725.618,-241.141"/>
</g>
<!-- Node32&#45;&gt;Node14 -->
<g id="edge110" class="edge"><title>Node32&#45;&gt;Node14</title>
<path fill="none" stroke="midnightblue" d="M1021.06,-608.366C1020.69,-569.923 1014.32,-436.51 946,-362 924.714,-338.786 892.268,-325.441 864.076,-317.827"/>
<polygon fill="midnightblue" stroke="midnightblue" points="864.859,-314.415 854.307,-315.366 863.149,-321.203 864.859,-314.415"/>
</g>
<!-- Node32&#45;&gt;Node17 -->
<g id="edge108" class="edge"><title>Node32&#45;&gt;Node17</title>
<path fill="none" stroke="midnightblue" d="M973.818,-614.496C870.045,-603.598 626.851,-572.31 572,-514 541.224,-481.283 541.958,-424.402 545.038,-393.841"/>
<polygon fill="midnightblue" stroke="midnightblue" points="548.56,-393.867 546.272,-383.522 541.609,-393.036 548.56,-393.867"/>
</g>
<!-- Node32&#45;&gt;Node25 -->
<g id="edge118" class="edge"><title>Node32&#45;&gt;Node25</title>
<path fill="none" stroke="midnightblue" d="M1000.36,-608.497C982.63,-599.479 956.855,-586.365 936.877,-576.201"/>
<polygon fill="midnightblue" stroke="midnightblue" points="938.376,-573.036 927.876,-571.621 935.202,-579.275 938.376,-573.036"/>
</g>
<!-- Node33 -->
<g id="node89" class="node"><title>Node33</title>
<a xlink:href="MojHasher_8h.htm" target="_top" xlink:title="core/MojHasher.h">
<polygon fill="white" stroke="black" points="1048.5,-492.5 1048.5,-513.5 1149.5,-513.5 1149.5,-492.5 1048.5,-492.5"/>
<text text-anchor="middle" x="1099" y="-500.5" font-family="Helvetica,sans-Serif" font-size="10.00">core/MojHasher.h</text>
</a>
</g>
<!-- Node32&#45;&gt;Node33 -->
<g id="edge112" class="edge"><title>Node32&#45;&gt;Node33</title>
<path fill="none" stroke="midnightblue" d="M1028.2,-608.295C1041.37,-588.7 1069.53,-546.82 1086.1,-522.191"/>
<polygon fill="midnightblue" stroke="midnightblue" points="1089.14,-523.931 1091.82,-513.679 1083.33,-520.025 1089.14,-523.931"/>
</g>
<!-- Node33&#45;&gt;Node3 -->
<g id="edge114" class="edge"><title>Node33&#45;&gt;Node3</title>
<path fill="none" stroke="midnightblue" d="M1105.72,-492.312C1114.89,-476.305 1129.2,-445.283 1120,-420 1094.23,-349.142 1077.06,-326.352 1011,-290 963.268,-263.733 813.393,-251.309 725.683,-246.15"/>
<polygon fill="midnightblue" stroke="midnightblue" points="725.751,-242.648 715.567,-245.571 725.351,-249.637 725.751,-242.648"/>
</g>
<!-- Node33&#45;&gt;Node29 -->
<g id="edge116" class="edge"><title>Node33&#45;&gt;Node29</title>
<path fill="none" stroke="midnightblue" d="M1094.38,-492.267C1090.38,-482.991 1084.5,-469.336 1079.63,-458.045"/>
<polygon fill="midnightblue" stroke="midnightblue" points="1082.71,-456.333 1075.54,-448.534 1076.28,-459.103 1082.71,-456.333"/>
</g>
</g>
</svg>
