<?xml version="1.0" encoding="UTF-8" standalone="no"?>
<!DOCTYPE svg PUBLIC "-//W3C//DTD SVG 1.1//EN"
 "http://www.w3.org/Graphics/SVG/1.1/DTD/svg11.dtd">
<!-- Generated by graphviz version 2.26.3 (20100126.1600)
 -->
<!-- Title: MojDbLevelEngine.h Pages: 1 -->
<svg width="1253pt" height="146pt"
 viewBox="0.00 0.00 1253.00 146.00" xmlns="http://www.w3.org/2000/svg" xmlns:xlink="http://www.w3.org/1999/xlink">
<g id="graph1" class="graph" transform="scale(1 1) rotate(0) translate(4 142)">
<title>MojDbLevelEngine.h</title>
<polygon fill="white" stroke="white" points="-4,5 -4,-142 1250,-142 1250,5 -4,5"/>
<!-- Node1 -->
<g id="node1" class="node"><title>Node1</title>
<polygon fill="#bfbfbf" stroke="black" points="437.5,-116.5 437.5,-137.5 550.5,-137.5 550.5,-116.5 437.5,-116.5"/>
<text text-anchor="middle" x="494" y="-124.5" font-family="Helvetica,sans-Serif" font-size="10.00">MojDbLevelEngine.h</text>
</g>
<!-- Node2 -->
<g id="node3" class="node"><title>Node2</title>
<a xlink:href="MojDbLevelQuery_8h.htm" target="_top" xlink:title="MojDbLevelQuery.h">
<polygon fill="white" stroke="black" points="230.5,-58.5 230.5,-79.5 339.5,-79.5 339.5,-58.5 230.5,-58.5"/>
<text text-anchor="middle" x="285" y="-66.5" font-family="Helvetica,sans-Serif" font-size="10.00">MojDbLevelQuery.h</text>
</a>
</g>
<!-- Node1&#45;&gt;Node2 -->
<g id="edge2" class="edge"><title>Node1&#45;&gt;Node2</title>
<path fill="none" stroke="midnightblue" d="M446.479,-113.812C409.061,-103.428 357.605,-89.1487 322.919,-79.5231"/>
<polygon fill="midnightblue" stroke="midnightblue" points="445.58,-117.195 456.152,-116.497 447.452,-110.45 445.58,-117.195"/>
</g>
<!-- Node3 -->
<g id="node5" class="node"><title>Node3</title>
<a xlink:href="MojDbLevelDatabase_8cpp.htm" target="_top" xlink:title="MojDbLevelDatabase.cpp">
<polygon fill="white" stroke="black" points="-0.5,-0.5 -0.5,-21.5 136.5,-21.5 136.5,-0.5 -0.5,-0.5"/>
<text text-anchor="middle" x="68" y="-8.5" font-family="Helvetica,sans-Serif" font-size="10.00">MojDbLevelDatabase.cpp</text>
</a>
</g>
<!-- Node1&#45;&gt;Node3 -->
<g id="edge14" class="edge"><title>Node1&#45;&gt;Node3</title>
<path fill="none" stroke="midnightblue" d="M427.215,-121.64C368.405,-115.607 280.998,-103.415 208,-80 161.556,-65.1022 111.21,-37.0419 85.4104,-21.6941"/>
<polygon fill="midnightblue" stroke="midnightblue" points="427.193,-125.155 437.49,-122.662 427.885,-118.19 427.193,-125.155"/>
</g>
<!-- Node4 -->
<g id="node7" class="node"><title>Node4</title>
<a xlink:href="MojDbLevelEngine_8cpp.htm" target="_top" xlink:title="MojDbLevelEngine.cpp">
<polygon fill="white" stroke="black" points="153.5,-0.5 153.5,-21.5 278.5,-21.5 278.5,-0.5 153.5,-0.5"/>
<text text-anchor="middle" x="216" y="-8.5" font-family="Helvetica,sans-Serif" font-size="10.00">MojDbLevelEngine.cpp</text>
</a>
</g>
<!-- Node1&#45;&gt;Node4 -->
<g id="edge16" class="edge"><title>Node1&#45;&gt;Node4</title>
<path fill="none" stroke="midnightblue" d="M427.176,-124.54C355.703,-120.397 248.966,-109.343 222,-80 207.436,-64.1522 210.305,-36.732 213.349,-21.6708"/>
<polygon fill="midnightblue" stroke="midnightblue" points="427.275,-128.051 437.452,-125.103 427.658,-121.062 427.275,-128.051"/>
</g>
<!-- Node5 -->
<g id="node9" class="node"><title>Node5</title>
<a xlink:href="MojDbLevelIndex_8cpp.htm" target="_top" xlink:title="MojDbLevelIndex.cpp">
<polygon fill="white" stroke="black" points="296,-0.5 296,-21.5 414,-21.5 414,-0.5 296,-0.5"/>
<text text-anchor="middle" x="355" y="-8.5" font-family="Helvetica,sans-Serif" font-size="10.00">MojDbLevelIndex.cpp</text>
</a>
</g>
<!-- Node1&#45;&gt;Node5 -->
<g id="edge22" class="edge"><title>Node1&#45;&gt;Node5</title>
<path fill="none" stroke="midnightblue" d="M463.72,-111.598C448.65,-103.244 430.586,-92.1512 416,-80 394.379,-61.988 373.655,-36.1292 362.814,-21.7265"/>
<polygon fill="midnightblue" stroke="midnightblue" points="462.197,-114.753 472.658,-116.43 465.526,-108.595 462.197,-114.753"/>
</g>
<!-- Node6 -->
<g id="node11" class="node"><title>Node6</title>
<a xlink:href="MojDbLevelQuery_8cpp.htm" target="_top" xlink:title="MojDbLevelQuery.cpp">
<polygon fill="white" stroke="black" points="432,-0.5 432,-21.5 552,-21.5 552,-0.5 432,-0.5"/>
<text text-anchor="middle" x="492" y="-8.5" font-family="Helvetica,sans-Serif" font-size="10.00">MojDbLevelQuery.cpp</text>
</a>
</g>
<!-- Node1&#45;&gt;Node6 -->
<g id="edge24" class="edge"><title>Node1&#45;&gt;Node6</title>
<path fill="none" stroke="midnightblue" d="M457.744,-111.696C444.664,-104.19 431.329,-93.7488 424,-80 410.946,-55.5111 442.968,-33.9259 467.383,-21.6746"/>
<polygon fill="midnightblue" stroke="midnightblue" points="456.207,-114.843 466.682,-116.429 459.483,-108.656 456.207,-114.843"/>
</g>
<!-- Node7 -->
<g id="node13" class="node"><title>Node7</title>
<a xlink:href="MojDbLevelCursor_8cpp.htm" target="_top" xlink:title="MojDbLevelCursor.cpp">
<polygon fill="white" stroke="black" points="432.5,-58.5 432.5,-79.5 555.5,-79.5 555.5,-58.5 432.5,-58.5"/>
<text text-anchor="middle" x="494" y="-66.5" font-family="Helvetica,sans-Serif" font-size="10.00">MojDbLevelCursor.cpp</text>
</a>
</g>
<!-- Node1&#45;&gt;Node7 -->
<g id="edge12" class="edge"><title>Node1&#45;&gt;Node7</title>
<path fill="none" stroke="midnightblue" d="M494,-106.191C494,-97.1684 494,-86.9941 494,-79.5707"/>
<polygon fill="midnightblue" stroke="midnightblue" points="490.5,-106.362 494,-116.362 497.5,-106.362 490.5,-106.362"/>
</g>
<!-- Node8 -->
<g id="node17" class="node"><title>Node8</title>
<a xlink:href="MojDbLevelEnv_8cpp.htm" target="_top" xlink:title="MojDbLevelEnv.cpp">
<polygon fill="white" stroke="black" points="573,-58.5 573,-79.5 683,-79.5 683,-58.5 573,-58.5"/>
<text text-anchor="middle" x="628" y="-66.5" font-family="Helvetica,sans-Serif" font-size="10.00">MojDbLevelEnv.cpp</text>
</a>
</g>
<!-- Node1&#45;&gt;Node8 -->
<g id="edge18" class="edge"><title>Node1&#45;&gt;Node8</title>
<path fill="none" stroke="midnightblue" d="M527.548,-112.479C551.136,-102.269 582.166,-88.8386 603.461,-79.6212"/>
<polygon fill="midnightblue" stroke="midnightblue" points="526.053,-109.312 518.266,-116.497 528.834,-115.736 526.053,-109.312"/>
</g>
<!-- Node9 -->
<g id="node19" class="node"><title>Node9</title>
<a xlink:href="MojDbLevelFactory_8cpp.htm" target="_top" xlink:title="MojDbLevelFactory.cpp">
<polygon fill="white" stroke="black" points="700.5,-58.5 700.5,-79.5 827.5,-79.5 827.5,-58.5 700.5,-58.5"/>
<text text-anchor="middle" x="764" y="-66.5" font-family="Helvetica,sans-Serif" font-size="10.00">MojDbLevelFactory.cpp</text>
</a>
</g>
<!-- Node1&#45;&gt;Node9 -->
<g id="edge20" class="edge"><title>Node1&#45;&gt;Node9</title>
<path fill="none" stroke="midnightblue" d="M552.939,-114.339C601.46,-103.916 669.442,-89.3126 715.013,-79.5231"/>
<polygon fill="midnightblue" stroke="midnightblue" points="551.937,-110.974 542.895,-116.497 553.407,-117.818 551.937,-110.974"/>
</g>
<!-- Node10 -->
<g id="node23" class="node"><title>Node10</title>
<a xlink:href="MojDbLevelSeq_8cpp.htm" target="_top" xlink:title="MojDbLevelSeq.cpp">
<polygon fill="white" stroke="black" points="845,-58.5 845,-79.5 955,-79.5 955,-58.5 845,-58.5"/>
<text text-anchor="middle" x="900" y="-66.5" font-family="Helvetica,sans-Serif" font-size="10.00">MojDbLevelSeq.cpp</text>
</a>
</g>
<!-- Node1&#45;&gt;Node10 -->
<g id="edge26" class="edge"><title>Node1&#45;&gt;Node10</title>
<path fill="none" stroke="midnightblue" d="M560.959,-118.475C629.976,-109.529 740.649,-94.7418 836,-80 838.897,-79.5521 841.865,-79.0818 844.861,-78.5981"/>
<polygon fill="midnightblue" stroke="midnightblue" points="560.135,-115.052 550.667,-119.806 561.033,-121.994 560.135,-115.052"/>
</g>
<!-- Node11 -->
<g id="node25" class="node"><title>Node11</title>
<a xlink:href="MojDbLevelTxn_8cpp.htm" target="_top" xlink:title="MojDbLevelTxn.cpp">
<polygon fill="white" stroke="black" points="973,-58.5 973,-79.5 1083,-79.5 1083,-58.5 973,-58.5"/>
<text text-anchor="middle" x="1028" y="-66.5" font-family="Helvetica,sans-Serif" font-size="10.00">MojDbLevelTxn.cpp</text>
</a>
</g>
<!-- Node1&#45;&gt;Node11 -->
<g id="edge28" class="edge"><title>Node1&#45;&gt;Node11</title>
<path fill="none" stroke="midnightblue" d="M560.785,-121.814C652.067,-114.386 820.815,-99.4396 964,-80 966.905,-79.6057 969.879,-79.1779 972.88,-78.7277"/>
<polygon fill="midnightblue" stroke="midnightblue" points="560.267,-118.344 550.582,-122.639 560.831,-125.322 560.267,-118.344"/>
</g>
<!-- Node12 -->
<g id="node27" class="node"><title>Node12</title>
<a xlink:href="MojDbLevelTxnIterator_8cpp.htm" target="_top" xlink:title="MojDbLevelTxnIterator.cpp">
<polygon fill="white" stroke="black" points="1101,-58.5 1101,-79.5 1245,-79.5 1245,-58.5 1101,-58.5"/>
<text text-anchor="middle" x="1173" y="-66.5" font-family="Helvetica,sans-Serif" font-size="10.00">MojDbLevelTxnIterator.cpp</text>
</a>
</g>
<!-- Node1&#45;&gt;Node12 -->
<g id="edge30" class="edge"><title>Node1&#45;&gt;Node12</title>
<path fill="none" stroke="midnightblue" d="M560.58,-123.001C671.128,-116.084 899.459,-100.624 1092,-80 1094.82,-79.6977 1097.7,-79.3755 1100.6,-79.0384"/>
<polygon fill="midnightblue" stroke="midnightblue" points="560.339,-119.509 550.575,-123.623 560.774,-126.495 560.339,-119.509"/>
</g>
<!-- Node2&#45;&gt;Node3 -->
<g id="edge4" class="edge"><title>Node2&#45;&gt;Node3</title>
<path fill="none" stroke="midnightblue" d="M235.66,-55.8123C196.81,-45.4285 143.384,-31.1487 107.371,-21.5231"/>
<polygon fill="midnightblue" stroke="midnightblue" points="235.138,-59.2957 245.703,-58.4966 236.946,-52.5331 235.138,-59.2957"/>
</g>
<!-- Node2&#45;&gt;Node4 -->
<g id="edge6" class="edge"><title>Node2&#45;&gt;Node4</title>
<path fill="none" stroke="midnightblue" d="M264.408,-51.6908C252.76,-41.8996 238.571,-29.973 228.575,-21.5707"/>
<polygon fill="midnightblue" stroke="midnightblue" points="262.437,-54.6066 272.344,-58.3619 266.942,-49.2481 262.437,-54.6066"/>
</g>
<!-- Node2&#45;&gt;Node5 -->
<g id="edge8" class="edge"><title>Node2&#45;&gt;Node5</title>
<path fill="none" stroke="midnightblue" d="M305.547,-51.9753C317.427,-42.1315 332.003,-30.0545 342.242,-21.5707"/>
<polygon fill="midnightblue" stroke="midnightblue" points="303.306,-49.2866 297.839,-58.3619 307.772,-54.6768 303.306,-49.2866"/>
</g>
<!-- Node2&#45;&gt;Node6 -->
<g id="edge10" class="edge"><title>Node2&#45;&gt;Node6</title>
<path fill="none" stroke="midnightblue" d="M332.54,-55.6795C369.559,-45.307 420.236,-31.1078 454.444,-21.5231"/>
<polygon fill="midnightblue" stroke="midnightblue" points="331.171,-52.4283 322.486,-58.4966 333.06,-59.1687 331.171,-52.4283"/>
</g>
</g>
</svg>
