<?xml version="1.0" encoding="UTF-8" standalone="no"?>
<!DOCTYPE svg PUBLIC "-//W3C//DTD SVG 1.1//EN"
 "http://www.w3.org/Graphics/SVG/1.1/DTD/svg11.dtd">
<!-- Generated by graphviz version 2.26.3 (20100126.1600)
 -->
<!-- Title: MojDbLevelEngine.cpp Pages: 1 -->
<svg width="2694pt" height="812pt"
 viewBox="0.00 0.00 2693.86 812.00" xmlns="http://www.w3.org/2000/svg" xmlns:xlink="http://www.w3.org/1999/xlink">
<g id="graph1" class="graph" transform="scale(1 1) rotate(0) translate(4 808)">
<title>MojDbLevelEngine.cpp</title>
<polygon fill="white" stroke="white" points="-4,5 -4,-808 2690.86,-808 2690.86,5 -4,5"/>
<!-- Node1 -->
<g id="node1" class="node"><title>Node1</title>
<polygon fill="#bfbfbf" stroke="black" points="1172.36,-782.5 1172.36,-803.5 1297.36,-803.5 1297.36,-782.5 1172.36,-782.5"/>
<text text-anchor="middle" x="1234.86" y="-790.5" font-family="Helvetica,sans-Serif" font-size="10.00">MojDbLevelEngine.cpp</text>
</g>
<!-- Node2 -->
<g id="node3" class="node"><title>Node2</title>
<polygon fill="white" stroke="#bfbfbf" points="436.864,-580.5 436.864,-601.5 508.864,-601.5 508.864,-580.5 436.864,-580.5"/>
<text text-anchor="middle" x="472.864" y="-588.5" font-family="Helvetica,sans-Serif" font-size="10.00">leveldb/db.h</text>
</g>
<!-- Node1&#45;&gt;Node2 -->
<g id="edge2" class="edge"><title>Node1&#45;&gt;Node2</title>
<path fill="none" stroke="midnightblue" d="M1172.1,-791.979C932.12,-787.41 82.3646,-764.876 7.86422,-674 -2.2796,-661.627 -2.86555,-649.869 7.86422,-638 35.6046,-607.314 314.204,-595.693 426.407,-592.234"/>
<polygon fill="midnightblue" stroke="midnightblue" points="426.842,-595.723 436.732,-591.925 426.632,-588.726 426.842,-595.723"/>
</g>
<!-- Node3 -->
<g id="node5" class="node"><title>Node3</title>
<polygon fill="white" stroke="#bfbfbf" points="965.364,-580.5 965.364,-601.5 1080.36,-601.5 1080.36,-580.5 965.364,-580.5"/>
<text text-anchor="middle" x="1022.86" y="-588.5" font-family="Helvetica,sans-Serif" font-size="10.00">leveldb/write_batch.h</text>
</g>
<!-- Node1&#45;&gt;Node3 -->
<g id="edge4" class="edge"><title>Node1&#45;&gt;Node3</title>
<path fill="none" stroke="midnightblue" d="M1172.32,-789.383C1073.28,-783.011 889.485,-768.309 869.864,-746 838.164,-709.957 841.338,-676.604 869.864,-638 880.506,-623.598 919.212,-611.785 955.027,-603.604"/>
<polygon fill="midnightblue" stroke="midnightblue" points="956.018,-606.97 965.027,-601.394 954.507,-600.135 956.018,-606.97"/>
</g>
<!-- Node4 -->
<g id="node7" class="node"><title>Node4</title>
<polygon fill="white" stroke="#bfbfbf" points="490.364,-717.5 490.364,-738.5 585.364,-738.5 585.364,-717.5 490.364,-717.5"/>
<text text-anchor="middle" x="537.864" y="-725.5" font-family="Helvetica,sans-Serif" font-size="10.00">leveldb/iterator.h</text>
</g>
<!-- Node1&#45;&gt;Node4 -->
<g id="edge6" class="edge"><title>Node1&#45;&gt;Node4</title>
<path fill="none" stroke="midnightblue" d="M1172.26,-790.075C1034.29,-783.353 707.718,-765.848 598.864,-746 592.223,-744.789 585.274,-743.13 578.544,-741.305"/>
<polygon fill="midnightblue" stroke="midnightblue" points="579.478,-737.932 568.901,-738.547 577.553,-744.662 579.478,-737.932"/>
</g>
<!-- Node5 -->
<g id="node9" class="node"><title>Node5</title>
<a xlink:href="MojDbLevelEngine_8h.htm" target="_top" xlink:title="db&#45;luna/leveldb/MojDbLevel\lEngine.h">
<polygon fill="white" stroke="black" points="178.364,-639 178.364,-673 323.364,-673 323.364,-639 178.364,-639"/>
<text text-anchor="start" x="186.364" y="-660" font-family="Helvetica,sans-Serif" font-size="10.00">db&#45;luna/leveldb/MojDbLevel</text>
<text text-anchor="middle" x="250.864" y="-647" font-family="Helvetica,sans-Serif" font-size="10.00">Engine.h</text>
</a>
</g>
<!-- Node1&#45;&gt;Node5 -->
<g id="edge8" class="edge"><title>Node1&#45;&gt;Node5</title>
<path fill="none" stroke="midnightblue" d="M1172.16,-791.573C1015.98,-787.621 612.816,-774.861 481.864,-746 413.782,-730.995 339.375,-698.947 293.903,-677.431"/>
<polygon fill="midnightblue" stroke="midnightblue" points="295.184,-674.163 284.652,-673.009 292.165,-680.479 295.184,-674.163"/>
</g>
<!-- Node11 -->
<g id="node24" class="node"><title>Node11</title>
<a xlink:href="MojDbQueryPlan_8h.htm" target="_top" xlink:title="db/MojDbQueryPlan.h">
<polygon fill="white" stroke="black" points="1272.36,-464.5 1272.36,-485.5 1391.36,-485.5 1391.36,-464.5 1272.36,-464.5"/>
<text text-anchor="middle" x="1331.86" y="-472.5" font-family="Helvetica,sans-Serif" font-size="10.00">db/MojDbQueryPlan.h</text>
</a>
</g>
<!-- Node1&#45;&gt;Node11 -->
<g id="edge204" class="edge"><title>Node1&#45;&gt;Node11</title>
<path fill="none" stroke="midnightblue" d="M1297.43,-791.35C1419.5,-787.483 1679.89,-775.798 1706.86,-746 1758.41,-689.067 1718.48,-628.417 1658.86,-580 1583.98,-519.182 1473.14,-493.299 1401.7,-482.484"/>
<polygon fill="midnightblue" stroke="midnightblue" points="1401.85,-478.97 1391.45,-480.996 1400.85,-485.897 1401.85,-478.97"/>
</g>
<!-- Node15 -->
<g id="node36" class="node"><title>Node15</title>
<a xlink:href="MojString_8h.htm" target="_top" xlink:title="core/MojString.h">
<polygon fill="white" stroke="black" points="1803.86,-232.5 1803.86,-253.5 1897.86,-253.5 1897.86,-232.5 1803.86,-232.5"/>
<text text-anchor="middle" x="1850.86" y="-240.5" font-family="Helvetica,sans-Serif" font-size="10.00">core/MojString.h</text>
</a>
</g>
<!-- Node1&#45;&gt;Node15 -->
<g id="edge274" class="edge"><title>Node1&#45;&gt;Node15</title>
<path fill="none" stroke="midnightblue" d="M1297.65,-790.808C1513.05,-782.467 2208.86,-748.371 2208.86,-656 2208.86,-656 2208.86,-656 2208.86,-475 2208.86,-413.312 2197.39,-390.699 2152.86,-348 2085.03,-282.948 1974.83,-258.015 1907.97,-248.588"/>
<polygon fill="midnightblue" stroke="midnightblue" points="1908.4,-245.115 1898.03,-247.256 1907.47,-252.053 1908.4,-245.115"/>
</g>
<!-- Node24 -->
<g id="node76" class="node"><title>Node24</title>
<a xlink:href="MojDbLevelFactory_8h.htm" target="_top" xlink:title="db&#45;luna/leveldb/MojDbLevel\lFactory.h">
<polygon fill="white" stroke="black" points="1040.36,-639 1040.36,-673 1185.36,-673 1185.36,-639 1040.36,-639"/>
<text text-anchor="start" x="1048.36" y="-660" font-family="Helvetica,sans-Serif" font-size="10.00">db&#45;luna/leveldb/MojDbLevel</text>
<text text-anchor="middle" x="1112.86" y="-647" font-family="Helvetica,sans-Serif" font-size="10.00">Factory.h</text>
</a>
</g>
<!-- Node1&#45;&gt;Node24 -->
<g id="edge104" class="edge"><title>Node1&#45;&gt;Node24</title>
<path fill="none" stroke="midnightblue" d="M1225.29,-782.25C1206.01,-760.594 1162.03,-711.214 1135.15,-681.028"/>
<polygon fill="midnightblue" stroke="midnightblue" points="1137.65,-678.57 1128.39,-673.429 1132.42,-683.225 1137.65,-678.57"/>
</g>
<!-- Node25 -->
<g id="node80" class="node"><title>Node25</title>
<a xlink:href="MojDbLevelDatabase_8h.htm" target="_top" xlink:title="db&#45;luna/leveldb/MojDbLevel\lDatabase.h">
<polygon fill="white" stroke="black" points="340.364,-639 340.364,-673 485.364,-673 485.364,-639 340.364,-639"/>
<text text-anchor="start" x="348.364" y="-660" font-family="Helvetica,sans-Serif" font-size="10.00">db&#45;luna/leveldb/MojDbLevel</text>
<text text-anchor="middle" x="412.864" y="-647" font-family="Helvetica,sans-Serif" font-size="10.00">Database.h</text>
</a>
</g>
<!-- Node1&#45;&gt;Node25 -->
<g id="edge110" class="edge"><title>Node1&#45;&gt;Node25</title>
<path fill="none" stroke="midnightblue" d="M1172.16,-790.482C1027.75,-784.346 680.324,-767.53 631.864,-746 610.604,-736.554 614.005,-721.643 593.864,-710 576.03,-699.69 532.104,-686.493 491.993,-675.726"/>
<polygon fill="midnightblue" stroke="midnightblue" points="492.729,-672.3 482.165,-673.116 490.931,-679.066 492.729,-672.3"/>
</g>
<!-- Node26 -->
<g id="node85" class="node"><title>Node26</title>
<a xlink:href="MojDbLevelQuery_8h.htm" target="_top" xlink:title="db&#45;luna/leveldb/MojDbLevel\lQuery.h">
<polygon fill="white" stroke="black" points="640.364,-711 640.364,-745 785.364,-745 785.364,-711 640.364,-711"/>
<text text-anchor="start" x="648.364" y="-732" font-family="Helvetica,sans-Serif" font-size="10.00">db&#45;luna/leveldb/MojDbLevel</text>
<text text-anchor="middle" x="712.864" y="-719" font-family="Helvetica,sans-Serif" font-size="10.00">Query.h</text>
</a>
</g>
<!-- Node1&#45;&gt;Node26 -->
<g id="edge118" class="edge"><title>Node1&#45;&gt;Node26</title>
<path fill="none" stroke="midnightblue" d="M1172.15,-788.202C1087.22,-781.256 931.025,-766.902 798.864,-746 797.772,-745.827 796.672,-745.65 795.567,-745.468"/>
<polygon fill="midnightblue" stroke="midnightblue" points="795.947,-741.982 785.497,-743.729 794.756,-748.88 795.947,-741.982"/>
</g>
<!-- Node29 -->
<g id="node97" class="node"><title>Node29</title>
<a xlink:href="MojDbObjectHeader_8h.htm" target="_top" xlink:title="db/MojDbObjectHeader.h">
<polygon fill="white" stroke="black" points="1693.86,-464.5 1693.86,-485.5 1827.86,-485.5 1827.86,-464.5 1693.86,-464.5"/>
<text text-anchor="middle" x="1760.86" y="-472.5" font-family="Helvetica,sans-Serif" font-size="10.00">db/MojDbObjectHeader.h</text>
</a>
</g>
<!-- Node1&#45;&gt;Node29 -->
<g id="edge202" class="edge"><title>Node1&#45;&gt;Node29</title>
<path fill="none" stroke="midnightblue" d="M1297.56,-790.462C1412.37,-785.254 1651.88,-771.633 1730.86,-746 1850.64,-707.129 1912.43,-711.351 1974.86,-602 2010.64,-539.345 1908.67,-504.39 1833.44,-487.658"/>
<polygon fill="midnightblue" stroke="midnightblue" points="1834,-484.198 1823.49,-485.514 1832.53,-491.041 1834,-484.198"/>
</g>
<!-- Node30 -->
<g id="node101" class="node"><title>Node30</title>
<a xlink:href="MojObjectSerialization_8h.htm" target="_top" xlink:title="core/MojObjectSerialization.h">
<polygon fill="white" stroke="black" points="2274.86,-406.5 2274.86,-427.5 2428.86,-427.5 2428.86,-406.5 2274.86,-406.5"/>
<text text-anchor="middle" x="2351.86" y="-414.5" font-family="Helvetica,sans-Serif" font-size="10.00">core/MojObjectSerialization.h</text>
</a>
</g>
<!-- Node1&#45;&gt;Node30 -->
<g id="edge272" class="edge"><title>Node1&#45;&gt;Node30</title>
<path fill="none" stroke="midnightblue" d="M1297.65,-792.524C1501.73,-790.633 2138.06,-781.889 2222.86,-746 2276.72,-723.207 2318.86,-714.485 2318.86,-656 2318.86,-656 2318.86,-656 2318.86,-533 2318.86,-498.138 2332.82,-459.555 2342.58,-436.838"/>
<polygon fill="midnightblue" stroke="midnightblue" points="2345.83,-438.146 2346.71,-427.587 2339.44,-435.296 2345.83,-438.146"/>
</g>
<!-- Node32 -->
<g id="node108" class="node"><title>Node32</title>
<a xlink:href="MojTokenSet_8h.htm" target="_top" xlink:title="core/MojTokenSet.h">
<polygon fill="white" stroke="red" points="2427.86,-348.5 2427.86,-369.5 2539.86,-369.5 2539.86,-348.5 2427.86,-348.5"/>
<text text-anchor="middle" x="2483.86" y="-356.5" font-family="Helvetica,sans-Serif" font-size="10.00">core/MojTokenSet.h</text>
</a>
</g>
<!-- Node1&#45;&gt;Node32 -->
<g id="edge276" class="edge"><title>Node1&#45;&gt;Node32</title>
<path fill="none" stroke="midnightblue" d="M1297.45,-791.402C1507.27,-785.872 2177.92,-766.754 2272.86,-746 2376.87,-723.265 2494.86,-762.466 2494.86,-656 2494.86,-656 2494.86,-656 2494.86,-475 2494.86,-441.448 2490.25,-402.68 2487,-379.538"/>
<polygon fill="midnightblue" stroke="midnightblue" points="2490.44,-378.915 2485.53,-369.524 2483.51,-379.925 2490.44,-378.915"/>
</g>
<!-- Node34 -->
<g id="node116" class="node"><title>Node34</title>
<a xlink:href="MojDbLevelSeq_8h.htm" target="_top" xlink:title="db&#45;luna/leveldb/MojDbLevel\lSeq.h">
<polygon fill="white" stroke="black" points="878.364,-711 878.364,-745 1023.36,-745 1023.36,-711 878.364,-711"/>
<text text-anchor="start" x="886.364" y="-732" font-family="Helvetica,sans-Serif" font-size="10.00">db&#45;luna/leveldb/MojDbLevel</text>
<text text-anchor="middle" x="950.864" y="-719" font-family="Helvetica,sans-Serif" font-size="10.00">Seq.h</text>
</a>
</g>
<!-- Node1&#45;&gt;Node34 -->
<g id="edge164" class="edge"><title>Node1&#45;&gt;Node34</title>
<path fill="none" stroke="midnightblue" d="M1188.92,-782.484C1146.97,-772.884 1083.98,-758.466 1033.32,-746.873"/>
<polygon fill="midnightblue" stroke="midnightblue" points="1033.9,-743.414 1023.37,-744.594 1032.34,-750.237 1033.9,-743.414"/>
</g>
<!-- Node35 -->
<g id="node120" class="node"><title>Node35</title>
<a xlink:href="MojDbLevelTxn_8h.htm" target="_top" xlink:title="db&#45;luna/leveldb/MojDbLevel\lTxn.h">
<polygon fill="white" stroke="black" points="1354.36,-639 1354.36,-673 1499.36,-673 1499.36,-639 1354.36,-639"/>
<text text-anchor="start" x="1362.36" y="-660" font-family="Helvetica,sans-Serif" font-size="10.00">db&#45;luna/leveldb/MojDbLevel</text>
<text text-anchor="middle" x="1426.86" y="-647" font-family="Helvetica,sans-Serif" font-size="10.00">Txn.h</text>
</a>
</g>
<!-- Node1&#45;&gt;Node35 -->
<g id="edge170" class="edge"><title>Node1&#45;&gt;Node35</title>
<path fill="none" stroke="midnightblue" d="M1249.61,-782.477C1280.5,-760.437 1352.61,-708.981 1394.72,-678.933"/>
<polygon fill="midnightblue" stroke="midnightblue" points="1396.87,-681.701 1402.98,-673.044 1392.8,-676.003 1396.87,-681.701"/>
</g>
<!-- Node40 -->
<g id="node135" class="node"><title>Node40</title>
<a xlink:href="MojDbLevelEnv_8h.htm" target="_top" xlink:title="db&#45;luna/leveldb/MojDbLevel\lEnv.h">
<polygon fill="white" stroke="black" points="540.364,-639 540.364,-673 685.364,-673 685.364,-639 540.364,-639"/>
<text text-anchor="start" x="548.364" y="-660" font-family="Helvetica,sans-Serif" font-size="10.00">db&#45;luna/leveldb/MojDbLevel</text>
<text text-anchor="middle" x="612.864" y="-647" font-family="Helvetica,sans-Serif" font-size="10.00">Env.h</text>
</a>
</g>
<!-- Node1&#45;&gt;Node40 -->
<g id="edge190" class="edge"><title>Node1&#45;&gt;Node40</title>
<path fill="none" stroke="midnightblue" d="M1172.07,-789.955C1075.53,-784.543 895.639,-771.356 836.864,-746 813.978,-736.127 815.815,-721.807 793.864,-710 775.455,-700.098 730.492,-686.666 689.989,-675.676"/>
<polygon fill="midnightblue" stroke="midnightblue" points="690.645,-672.228 680.079,-673.011 688.827,-678.988 690.645,-672.228"/>
</g>
<!-- Node42 -->
<g id="node145" class="node"><title>Node42</title>
<a xlink:href="MojDb_8h.htm" target="_top" xlink:title="db/MojDb.h">
<polygon fill="white" stroke="black" points="1629.36,-717.5 1629.36,-738.5 1698.36,-738.5 1698.36,-717.5 1629.36,-717.5"/>
<text text-anchor="middle" x="1663.86" y="-725.5" font-family="Helvetica,sans-Serif" font-size="10.00">db/MojDb.h</text>
</a>
</g>
<!-- Node1&#45;&gt;Node42 -->
<g id="edge206" class="edge"><title>Node1&#45;&gt;Node42</title>
<path fill="none" stroke="midnightblue" d="M1297.7,-783.479C1385.28,-770.21 1541.92,-746.477 1618.79,-734.829"/>
<polygon fill="midnightblue" stroke="midnightblue" points="1619.73,-738.227 1629.09,-733.268 1618.68,-731.306 1619.73,-738.227"/>
</g>
<!-- Node48 -->
<g id="node180" class="node"><title>Node48</title>
<a xlink:href="MojObjectBuilder_8h.htm" target="_top" xlink:title="core/MojObjectBuilder.h">
<polygon fill="white" stroke="black" points="2557.86,-348.5 2557.86,-369.5 2685.86,-369.5 2685.86,-348.5 2557.86,-348.5"/>
<text text-anchor="middle" x="2621.86" y="-356.5" font-family="Helvetica,sans-Serif" font-size="10.00">core/MojObjectBuilder.h</text>
</a>
</g>
<!-- Node1&#45;&gt;Node48 -->
<g id="edge264" class="edge"><title>Node1&#45;&gt;Node48</title>
<path fill="none" stroke="midnightblue" d="M1297.4,-792.258C1522.45,-789.342 2283.38,-777.247 2387.86,-746 2460.53,-724.269 2532.86,-731.849 2532.86,-656 2532.86,-656 2532.86,-656 2532.86,-475 2532.86,-432.397 2571.12,-395.797 2597.47,-375.64"/>
<polygon fill="midnightblue" stroke="midnightblue" points="2599.57,-378.438 2605.54,-369.686 2595.41,-372.804 2599.57,-378.438"/>
</g>
<!-- Node50 -->
<g id="node189" class="node"><title>Node50</title>
<polygon fill="white" stroke="#bfbfbf" points="2560.86,-717.5 2560.86,-738.5 2634.86,-738.5 2634.86,-717.5 2560.86,-717.5"/>
<text text-anchor="middle" x="2597.86" y="-725.5" font-family="Helvetica,sans-Serif" font-size="10.00">sys/statvfs.h</text>
</g>
<!-- Node1&#45;&gt;Node50 -->
<g id="edge278" class="edge"><title>Node1&#45;&gt;Node50</title>
<path fill="none" stroke="midnightblue" d="M1297.68,-791.868C1542.28,-787.305 2423.63,-769.387 2546.86,-746 2552.28,-744.971 2557.9,-743.467 2563.34,-741.759"/>
<polygon fill="midnightblue" stroke="midnightblue" points="2564.52,-745.056 2572.86,-738.525 2562.27,-738.428 2564.52,-745.056"/>
</g>
<!-- Node5&#45;&gt;Node2 -->
<g id="edge10" class="edge"><title>Node5&#45;&gt;Node2</title>
<path fill="none" stroke="midnightblue" d="M309.192,-638.922C346.023,-628.138 392.927,-614.405 427.074,-604.407"/>
<polygon fill="midnightblue" stroke="midnightblue" points="428.177,-607.731 436.791,-601.562 426.21,-601.013 428.177,-607.731"/>
</g>
<!-- Node6 -->
<g id="node12" class="node"><title>Node6</title>
<a xlink:href="MojDbDefs_8h.htm" target="_top" xlink:title="db/MojDbDefs.h">
<polygon fill="white" stroke="black" points="889.364,-290.5 889.364,-311.5 980.364,-311.5 980.364,-290.5 889.364,-290.5"/>
<text text-anchor="middle" x="934.864" y="-298.5" font-family="Helvetica,sans-Serif" font-size="10.00">db/MojDbDefs.h</text>
</a>
</g>
<!-- Node5&#45;&gt;Node6 -->
<g id="edge12" class="edge"><title>Node5&#45;&gt;Node6</title>
<path fill="none" stroke="midnightblue" d="M260.683,-638.809C292.536,-584.872 399.014,-418.402 537.864,-348 596.262,-318.39 784.229,-306.896 879.053,-302.898"/>
<polygon fill="midnightblue" stroke="midnightblue" points="879.464,-306.385 889.313,-302.48 879.178,-299.391 879.464,-306.385"/>
</g>
<!-- Node9 -->
<g id="node18" class="node"><title>Node9</title>
<a xlink:href="MojDbStorageEngine_8h.htm" target="_top" xlink:title="db/MojDbStorageEngine.h">
<polygon fill="white" stroke="black" points="1135.86,-580.5 1135.86,-601.5 1275.86,-601.5 1275.86,-580.5 1135.86,-580.5"/>
<text text-anchor="middle" x="1205.86" y="-588.5" font-family="Helvetica,sans-Serif" font-size="10.00">db/MojDbStorageEngine.h</text>
</a>
</g>
<!-- Node5&#45;&gt;Node9 -->
<g id="edge18" class="edge"><title>Node5&#45;&gt;Node9</title>
<path fill="none" stroke="midnightblue" d="M323.617,-639.217C326.395,-638.772 329.151,-638.363 331.864,-638 665.71,-593.303 752.879,-625.77 1088.86,-602 1100.71,-601.162 1113.22,-600.136 1125.47,-599.052"/>
<polygon fill="midnightblue" stroke="midnightblue" points="1126.04,-602.515 1135.69,-598.13 1125.41,-595.543 1126.04,-602.515"/>
</g>
<!-- Node7 -->
<g id="node14" class="node"><title>Node7</title>
<a xlink:href="MojCoreDefs_8h.htm" target="_top" xlink:title="core/MojCoreDefs.h">
<polygon fill="white" stroke="red" points="1740.36,-58.5 1740.36,-79.5 1851.36,-79.5 1851.36,-58.5 1740.36,-58.5"/>
<text text-anchor="middle" x="1795.86" y="-66.5" font-family="Helvetica,sans-Serif" font-size="10.00">core/MojCoreDefs.h</text>
</a>
</g>
<!-- Node6&#45;&gt;Node7 -->
<g id="edge14" class="edge"><title>Node6&#45;&gt;Node7</title>
<path fill="none" stroke="midnightblue" d="M943.705,-290.487C972.145,-257.535 1065.41,-156.08 1167.86,-116 1219.22,-95.9117 1579.63,-78.2966 1730.11,-71.7319"/>
<polygon fill="midnightblue" stroke="midnightblue" points="1730.3,-75.2269 1740.14,-71.297 1730,-68.2334 1730.3,-75.2269"/>
</g>
<!-- Node8 -->
<g id="node16" class="node"><title>Node8</title>
<a xlink:href="MojErr_8h.htm" target="_top" xlink:title="core/MojErr.h">
<polygon fill="white" stroke="red" points="1087.86,-0.5 1087.86,-21.5 1167.86,-21.5 1167.86,-0.5 1087.86,-0.5"/>
<text text-anchor="middle" x="1127.86" y="-8.5" font-family="Helvetica,sans-Serif" font-size="10.00">core/MojErr.h</text>
</a>
</g>
<!-- Node7&#45;&gt;Node8 -->
<g id="edge16" class="edge"><title>Node7&#45;&gt;Node8</title>
<path fill="none" stroke="midnightblue" d="M1740.35,-64.1795C1612.88,-53.1122 1300.85,-26.0197 1178.38,-15.386"/>
<polygon fill="midnightblue" stroke="midnightblue" points="1178.43,-11.8772 1168.16,-14.4989 1177.82,-18.8509 1178.43,-11.8772"/>
</g>
<!-- Node9&#45;&gt;Node6 -->
<g id="edge20" class="edge"><title>Node9&#45;&gt;Node6</title>
<path fill="none" stroke="midnightblue" d="M1135.73,-580.5C1087.49,-572.132 1028.7,-559.302 1008.86,-544 938.393,-489.637 933.043,-369.962 933.935,-321.741"/>
<polygon fill="midnightblue" stroke="midnightblue" points="937.438,-321.692 934.24,-311.591 930.441,-321.482 937.438,-321.692"/>
</g>
<!-- Node10 -->
<g id="node21" class="node"><title>Node10</title>
<a xlink:href="MojDbWatcher_8h.htm" target="_top" xlink:title="db/MojDbWatcher.h">
<polygon fill="white" stroke="red" points="1274.36,-522.5 1274.36,-543.5 1383.36,-543.5 1383.36,-522.5 1274.36,-522.5"/>
<text text-anchor="middle" x="1328.86" y="-530.5" font-family="Helvetica,sans-Serif" font-size="10.00">db/MojDbWatcher.h</text>
</a>
</g>
<!-- Node9&#45;&gt;Node10 -->
<g id="edge22" class="edge"><title>Node9&#45;&gt;Node10</title>
<path fill="none" stroke="midnightblue" d="M1228.14,-580.497C1247.44,-571.397 1275.58,-558.127 1297.21,-547.925"/>
<polygon fill="midnightblue" stroke="midnightblue" points="1298.79,-551.052 1306.34,-543.621 1295.8,-544.721 1298.79,-551.052"/>
</g>
<!-- Node14 -->
<g id="node33" class="node"><title>Node14</title>
<a xlink:href="MojObject_8h.htm" target="_top" xlink:title="core/MojObject.h">
<polygon fill="white" stroke="red" points="1495.86,-290.5 1495.86,-311.5 1591.86,-311.5 1591.86,-290.5 1495.86,-290.5"/>
<text text-anchor="middle" x="1543.86" y="-298.5" font-family="Helvetica,sans-Serif" font-size="10.00">core/MojObject.h</text>
</a>
</g>
<!-- Node9&#45;&gt;Node14 -->
<g id="edge98" class="edge"><title>Node9&#45;&gt;Node14</title>
<path fill="none" stroke="midnightblue" d="M1269.63,-580.437C1315.57,-571.814 1372.7,-558.686 1391.86,-544 1470.82,-483.509 1441.85,-428.785 1499.86,-348 1507.25,-337.713 1516.72,-327.324 1524.98,-318.939"/>
<polygon fill="midnightblue" stroke="midnightblue" points="1527.48,-321.385 1532.13,-311.863 1522.56,-316.409 1527.48,-321.385"/>
</g>
<!-- Node16 -->
<g id="node39" class="node"><title>Node16</title>
<a xlink:href="MojAutoPtr_8h.htm" target="_top" xlink:title="core/MojAutoPtr.h">
<polygon fill="white" stroke="red" points="1687.36,-174.5 1687.36,-195.5 1788.36,-195.5 1788.36,-174.5 1687.36,-174.5"/>
<text text-anchor="middle" x="1737.86" y="-182.5" font-family="Helvetica,sans-Serif" font-size="10.00">core/MojAutoPtr.h</text>
</a>
</g>
<!-- Node9&#45;&gt;Node16 -->
<g id="edge96" class="edge"><title>Node9&#45;&gt;Node16</title>
<path fill="none" stroke="midnightblue" d="M1262.78,-580.478C1320.78,-569.416 1403.99,-552.466 1416.86,-544 1443.46,-526.515 1441.97,-512.974 1458.86,-486 1495.8,-427.016 1483.52,-397.08 1532.86,-348 1557.11,-323.884 1572.98,-331.792 1600.86,-312 1648.36,-278.294 1696.63,-229.388 1721.22,-203.189"/>
<polygon fill="midnightblue" stroke="midnightblue" points="1724.1,-205.236 1728.34,-195.529 1718.97,-200.47 1724.1,-205.236"/>
</g>
<!-- Node20 -->
<g id="node50" class="node"><title>Node20</title>
<a xlink:href="MojVector_8h.htm" target="_top" xlink:title="core/MojVector.h">
<polygon fill="white" stroke="red" points="1456.36,-174.5 1456.36,-195.5 1553.36,-195.5 1553.36,-174.5 1456.36,-174.5"/>
<text text-anchor="middle" x="1504.86" y="-182.5" font-family="Helvetica,sans-Serif" font-size="10.00">core/MojVector.h</text>
</a>
</g>
<!-- Node9&#45;&gt;Node20 -->
<g id="edge100" class="edge"><title>Node9&#45;&gt;Node20</title>
<path fill="none" stroke="midnightblue" d="M1160.86,-580.41C1141.68,-573.43 1121.16,-562.106 1109.86,-544 1104.69,-535.704 1106.85,-531.302 1109.86,-522 1166.46,-347.363 1382.98,-237.31 1469.17,-199.604"/>
<polygon fill="midnightblue" stroke="midnightblue" points="1470.74,-202.74 1478.54,-195.568 1467.97,-196.311 1470.74,-202.74"/>
</g>
<!-- Node22 -->
<g id="node63" class="node"><title>Node22</title>
<a xlink:href="MojSignal_8h.htm" target="_top" xlink:title="core/MojSignal.h">
<polygon fill="white" stroke="red" points="1160.36,-464.5 1160.36,-485.5 1255.36,-485.5 1255.36,-464.5 1160.36,-464.5"/>
<text text-anchor="middle" x="1207.86" y="-472.5" font-family="Helvetica,sans-Serif" font-size="10.00">core/MojSignal.h</text>
</a>
</g>
<!-- Node9&#45;&gt;Node22 -->
<g id="edge102" class="edge"><title>Node9&#45;&gt;Node22</title>
<path fill="none" stroke="midnightblue" d="M1171.52,-580.483C1140.41,-569.005 1101.72,-548.649 1117.86,-522 1126.87,-507.143 1142.27,-496.76 1157.82,-489.608"/>
<polygon fill="midnightblue" stroke="midnightblue" points="1159.6,-492.658 1167.47,-485.561 1156.89,-486.203 1159.6,-492.658"/>
</g>
<!-- Node23 -->
<g id="node67" class="node"><title>Node23</title>
<a xlink:href="MojDbQuotaEngine_8h.htm" target="_top" xlink:title="db/MojDbQuotaEngine.h">
<polygon fill="white" stroke="red" points="1126.36,-522.5 1126.36,-543.5 1257.36,-543.5 1257.36,-522.5 1126.36,-522.5"/>
<text text-anchor="middle" x="1191.86" y="-530.5" font-family="Helvetica,sans-Serif" font-size="10.00">db/MojDbQuotaEngine.h</text>
</a>
</g>
<!-- Node9&#45;&gt;Node23 -->
<g id="edge88" class="edge"><title>Node9&#45;&gt;Node23</title>
<path fill="none" stroke="midnightblue" d="M1203.3,-580.362C1201.48,-572.84 1198.99,-562.519 1196.8,-553.431"/>
<polygon fill="midnightblue" stroke="midnightblue" points="1200.16,-552.47 1194.42,-543.571 1193.36,-554.113 1200.16,-552.47"/>
</g>
<!-- Node10&#45;&gt;Node6 -->
<g id="edge24" class="edge"><title>Node10&#45;&gt;Node6</title>
<path fill="none" stroke="midnightblue" d="M1279.4,-522.497C1235.1,-512.618 1173.85,-497.647 1151.86,-486 1069.18,-442.196 1064.56,-408.131 992.864,-348 980.836,-337.912 967.206,-326.848 956.182,-317.991"/>
<polygon fill="midnightblue" stroke="midnightblue" points="958.323,-315.221 948.33,-311.7 953.946,-320.684 958.323,-315.221"/>
</g>
<!-- Node10&#45;&gt;Node11 -->
<g id="edge26" class="edge"><title>Node10&#45;&gt;Node11</title>
<path fill="none" stroke="midnightblue" d="M1329.41,-522.362C1329.8,-514.922 1330.33,-504.743 1330.79,-495.728"/>
<polygon fill="midnightblue" stroke="midnightblue" points="1334.3,-495.738 1331.32,-485.571 1327.31,-495.376 1334.3,-495.738"/>
</g>
<!-- Node10&#45;&gt;Node22 -->
<g id="edge82" class="edge"><title>Node10&#45;&gt;Node22</title>
<path fill="none" stroke="midnightblue" d="M1306.95,-522.497C1288.05,-513.438 1260.53,-500.246 1239.29,-490.063"/>
<polygon fill="midnightblue" stroke="midnightblue" points="1240.55,-486.788 1230.02,-485.621 1237.53,-493.1 1240.55,-486.788"/>
</g>
<!-- Node11&#45;&gt;Node6 -->
<g id="edge28" class="edge"><title>Node11&#45;&gt;Node6</title>
<path fill="none" stroke="midnightblue" d="M1307.27,-464.408C1263.74,-445.622 1170.31,-405.135 1091.86,-370 1070.45,-360.408 1065.31,-357.535 1043.86,-348 1019.04,-336.963 990.886,-324.831 969.407,-315.658"/>
<polygon fill="midnightblue" stroke="midnightblue" points="970.616,-312.369 960.045,-311.666 967.871,-318.808 970.616,-312.369"/>
</g>
<!-- Node12 -->
<g id="node27" class="node"><title>Node12</title>
<a xlink:href="MojDbQuery_8h.htm" target="_top" xlink:title="db/MojDbQuery.h">
<polygon fill="white" stroke="red" points="1349.86,-406.5 1349.86,-427.5 1447.86,-427.5 1447.86,-406.5 1349.86,-406.5"/>
<text text-anchor="middle" x="1398.86" y="-414.5" font-family="Helvetica,sans-Serif" font-size="10.00">db/MojDbQuery.h</text>
</a>
</g>
<!-- Node11&#45;&gt;Node12 -->
<g id="edge30" class="edge"><title>Node11&#45;&gt;Node12</title>
<path fill="none" stroke="midnightblue" d="M1344.15,-464.362C1353.88,-455.941 1367.66,-444.011 1378.96,-434.231"/>
<polygon fill="midnightblue" stroke="midnightblue" points="1381.38,-436.762 1386.65,-427.571 1376.8,-431.469 1381.38,-436.762"/>
</g>
<!-- Node13 -->
<g id="node30" class="node"><title>Node13</title>
<a xlink:href="MojDbKey_8h.htm" target="_top" xlink:title="db/MojDbKey.h">
<polygon fill="white" stroke="red" points="1323.36,-348.5 1323.36,-369.5 1410.36,-369.5 1410.36,-348.5 1323.36,-348.5"/>
<text text-anchor="middle" x="1366.86" y="-356.5" font-family="Helvetica,sans-Serif" font-size="10.00">db/MojDbKey.h</text>
</a>
</g>
<!-- Node11&#45;&gt;Node13 -->
<g id="edge80" class="edge"><title>Node11&#45;&gt;Node13</title>
<path fill="none" stroke="midnightblue" d="M1332.02,-464.444C1332.5,-450.669 1334.3,-425.97 1340.86,-406 1344.04,-396.345 1349.22,-386.393 1354.13,-378.146"/>
<polygon fill="midnightblue" stroke="midnightblue" points="1357.1,-380.001 1359.43,-369.666 1351.16,-376.29 1357.1,-380.001"/>
</g>
<!-- Node12&#45;&gt;Node6 -->
<g id="edge32" class="edge"><title>Node12&#45;&gt;Node6</title>
<path fill="none" stroke="midnightblue" d="M1356.46,-406.398C1271.2,-385.083 1079.27,-337.102 986.716,-313.963"/>
<polygon fill="midnightblue" stroke="midnightblue" points="987.555,-310.565 977.005,-311.535 985.857,-317.356 987.555,-310.565"/>
</g>
<!-- Node12&#45;&gt;Node13 -->
<g id="edge34" class="edge"><title>Node12&#45;&gt;Node13</title>
<path fill="none" stroke="midnightblue" d="M1392.99,-406.362C1388.71,-398.595 1382.78,-387.843 1377.65,-378.546"/>
<polygon fill="midnightblue" stroke="midnightblue" points="1380.59,-376.636 1372.7,-369.571 1374.46,-380.017 1380.59,-376.636"/>
</g>
<!-- Node12&#45;&gt;Node14 -->
<g id="edge76" class="edge"><title>Node12&#45;&gt;Node14</title>
<path fill="none" stroke="midnightblue" d="M1406.95,-406.227C1418.16,-391.772 1439.59,-365.855 1461.86,-348 1477.28,-335.647 1496.33,-324.519 1512.18,-316.196"/>
<polygon fill="midnightblue" stroke="midnightblue" points="1513.79,-319.304 1521.1,-311.631 1510.6,-313.073 1513.79,-319.304"/>
</g>
<!-- Node12&#45;&gt;Node15 -->
<g id="edge78" class="edge"><title>Node12&#45;&gt;Node15</title>
<path fill="none" stroke="midnightblue" d="M1448.05,-412.4C1497.55,-406.62 1575.44,-394.347 1638.86,-370 1713.4,-341.386 1791.59,-287.269 1828.74,-259.842"/>
<polygon fill="midnightblue" stroke="midnightblue" points="1830.94,-262.571 1836.86,-253.787 1826.75,-256.959 1830.94,-262.571"/>
</g>
<!-- Node21 -->
<g id="node56" class="node"><title>Node21</title>
<a xlink:href="MojHashMap_8h.htm" target="_top" xlink:title="core/MojHashMap.h">
<polygon fill="white" stroke="red" points="2221.86,-290.5 2221.86,-311.5 2333.86,-311.5 2333.86,-290.5 2221.86,-290.5"/>
<text text-anchor="middle" x="2277.86" y="-298.5" font-family="Helvetica,sans-Serif" font-size="10.00">core/MojHashMap.h</text>
</a>
</g>
<!-- Node12&#45;&gt;Node21 -->
<g id="edge70" class="edge"><title>Node12&#45;&gt;Node21</title>
<path fill="none" stroke="midnightblue" d="M1447.99,-416.741C1593.43,-415.535 2019.93,-408.703 2152.86,-370 2191.48,-358.756 2231.37,-334.043 2255.4,-317.454"/>
<polygon fill="midnightblue" stroke="midnightblue" points="2257.63,-320.159 2263.79,-311.539 2253.6,-314.436 2257.63,-320.159"/>
</g>
<!-- Node13&#45;&gt;Node6 -->
<g id="edge36" class="edge"><title>Node13&#45;&gt;Node6</title>
<path fill="none" stroke="midnightblue" d="M1323.06,-353.119C1243.93,-342.496 1077.31,-320.125 990.347,-308.449"/>
<polygon fill="midnightblue" stroke="midnightblue" points="990.779,-304.976 980.402,-307.114 989.848,-311.914 990.779,-304.976"/>
</g>
<!-- Node13&#45;&gt;Node14 -->
<g id="edge38" class="edge"><title>Node13&#45;&gt;Node14</title>
<path fill="none" stroke="midnightblue" d="M1398.92,-348.497C1427.77,-339.041 1470.37,-325.083 1501.92,-314.743"/>
<polygon fill="midnightblue" stroke="midnightblue" points="1503.34,-317.963 1511.75,-311.523 1501.16,-311.311 1503.34,-317.963"/>
</g>
<!-- Node13&#45;&gt;Node20 -->
<g id="edge68" class="edge"><title>Node13&#45;&gt;Node20</title>
<path fill="none" stroke="midnightblue" d="M1375.29,-348.377C1398.04,-319.688 1460.97,-240.348 1489.93,-203.835"/>
<polygon fill="midnightblue" stroke="midnightblue" points="1492.73,-205.938 1496.2,-195.928 1487.24,-201.588 1492.73,-205.938"/>
</g>
<!-- Node14&#45;&gt;Node7 -->
<g id="edge40" class="edge"><title>Node14&#45;&gt;Node7</title>
<path fill="none" stroke="midnightblue" d="M1545.65,-290.437C1551.86,-254.944 1573.56,-140.808 1599.86,-116 1618.62,-98.3122 1680.72,-85.4151 1730.05,-77.6537"/>
<polygon fill="midnightblue" stroke="midnightblue" points="1730.69,-81.0964 1740.05,-76.1228 1729.63,-74.1771 1730.69,-81.0964"/>
</g>
<!-- Node14&#45;&gt;Node15 -->
<g id="edge42" class="edge"><title>Node14&#45;&gt;Node15</title>
<path fill="none" stroke="midnightblue" d="M1592.17,-291.874C1646.81,-281.551 1735.71,-264.756 1793.74,-253.792"/>
<polygon fill="midnightblue" stroke="midnightblue" points="1794.67,-257.178 1803.85,-251.883 1793.37,-250.3 1794.67,-257.178"/>
</g>
<!-- Node14&#45;&gt;Node20 -->
<g id="edge66" class="edge"><title>Node14&#45;&gt;Node20</title>
<path fill="none" stroke="midnightblue" d="M1540.27,-290.295C1533.76,-270.959 1519.97,-229.923 1511.65,-205.177"/>
<polygon fill="midnightblue" stroke="midnightblue" points="1514.96,-204.042 1508.45,-195.679 1508.32,-206.273 1514.96,-204.042"/>
</g>
<!-- Node15&#45;&gt;Node7 -->
<g id="edge44" class="edge"><title>Node15&#45;&gt;Node7</title>
<path fill="none" stroke="midnightblue" d="M1846.97,-232.339C1840.11,-213.447 1825.61,-172.801 1814.86,-138 1809.89,-121.888 1804.85,-103.466 1801.21,-89.7123"/>
<polygon fill="midnightblue" stroke="midnightblue" points="1804.54,-88.6047 1798.62,-79.8161 1797.77,-90.3764 1804.54,-88.6047"/>
</g>
<!-- Node15&#45;&gt;Node16 -->
<g id="edge46" class="edge"><title>Node15&#45;&gt;Node16</title>
<path fill="none" stroke="midnightblue" d="M1830.4,-232.497C1812.83,-223.479 1787.28,-210.365 1767.48,-200.201"/>
<polygon fill="midnightblue" stroke="midnightblue" points="1769.05,-197.074 1758.56,-195.621 1765.86,-203.301 1769.05,-197.074"/>
</g>
<!-- Node18 -->
<g id="node44" class="node"><title>Node18</title>
<a xlink:href="MojComp_8h.htm" target="_top" xlink:title="core/MojComp.h">
<polygon fill="white" stroke="black" points="1941.86,-116.5 1941.86,-137.5 2035.86,-137.5 2035.86,-116.5 1941.86,-116.5"/>
<text text-anchor="middle" x="1988.86" y="-124.5" font-family="Helvetica,sans-Serif" font-size="10.00">core/MojComp.h</text>
</a>
</g>
<!-- Node15&#45;&gt;Node18 -->
<g id="edge52" class="edge"><title>Node15&#45;&gt;Node18</title>
<path fill="none" stroke="midnightblue" d="M1863.6,-232.295C1887.53,-212.182 1939.39,-168.59 1968.31,-144.275"/>
<polygon fill="midnightblue" stroke="midnightblue" points="1970.76,-146.793 1976.16,-137.679 1966.25,-141.435 1970.76,-146.793"/>
</g>
<!-- Node19 -->
<g id="node47" class="node"><title>Node19</title>
<a xlink:href="MojHasher_8h.htm" target="_top" xlink:title="core/MojHasher.h">
<polygon fill="white" stroke="red" points="1823.36,-116.5 1823.36,-137.5 1924.36,-137.5 1924.36,-116.5 1823.36,-116.5"/>
<text text-anchor="middle" x="1873.86" y="-124.5" font-family="Helvetica,sans-Serif" font-size="10.00">core/MojHasher.h</text>
</a>
</g>
<!-- Node15&#45;&gt;Node19 -->
<g id="edge56" class="edge"><title>Node15&#45;&gt;Node19</title>
<path fill="none" stroke="midnightblue" d="M1852.99,-232.295C1856.8,-213.045 1864.88,-172.289 1869.8,-147.509"/>
<polygon fill="midnightblue" stroke="midnightblue" points="1873.23,-148.169 1871.75,-137.679 1866.37,-146.808 1873.23,-148.169"/>
</g>
<!-- Node15&#45;&gt;Node20 -->
<g id="edge60" class="edge"><title>Node15&#45;&gt;Node20</title>
<path fill="none" stroke="midnightblue" d="M1803.84,-235.118C1741.45,-224.659 1631.31,-206.197 1563.55,-194.837"/>
<polygon fill="midnightblue" stroke="midnightblue" points="1563.9,-191.347 1553.46,-193.146 1562.74,-198.251 1563.9,-191.347"/>
</g>
<!-- Node16&#45;&gt;Node7 -->
<g id="edge48" class="edge"><title>Node16&#45;&gt;Node7</title>
<path fill="none" stroke="midnightblue" d="M1743.22,-174.295C1752.93,-154.872 1773.59,-113.556 1785.94,-88.8462"/>
<polygon fill="midnightblue" stroke="midnightblue" points="1789.18,-90.1888 1790.52,-79.6792 1782.92,-87.0582 1789.18,-90.1888"/>
</g>
<!-- Node17 -->
<g id="node42" class="node"><title>Node17</title>
<a xlink:href="MojNoCopy_8h.htm" target="_top" xlink:title="core/MojNoCopy.h">
<polygon fill="white" stroke="black" points="1608.86,-116.5 1608.86,-137.5 1712.86,-137.5 1712.86,-116.5 1608.86,-116.5"/>
<text text-anchor="middle" x="1660.86" y="-124.5" font-family="Helvetica,sans-Serif" font-size="10.00">core/MojNoCopy.h</text>
</a>
</g>
<!-- Node16&#45;&gt;Node17 -->
<g id="edge50" class="edge"><title>Node16&#45;&gt;Node17</title>
<path fill="none" stroke="midnightblue" d="M1723.74,-174.362C1712.34,-165.777 1696.11,-153.546 1682.99,-143.664"/>
<polygon fill="midnightblue" stroke="midnightblue" points="1684.99,-140.792 1674.9,-137.571 1680.78,-146.383 1684.99,-140.792"/>
</g>
<!-- Node18&#45;&gt;Node7 -->
<g id="edge54" class="edge"><title>Node18&#45;&gt;Node7</title>
<path fill="none" stroke="midnightblue" d="M1953.91,-116.497C1922.18,-106.959 1875.2,-92.8408 1840.7,-82.475"/>
<polygon fill="midnightblue" stroke="midnightblue" points="1841.46,-79.0492 1830.88,-79.5231 1839.45,-85.7531 1841.46,-79.0492"/>
</g>
<!-- Node19&#45;&gt;Node7 -->
<g id="edge58" class="edge"><title>Node19&#45;&gt;Node7</title>
<path fill="none" stroke="midnightblue" d="M1859.56,-116.362C1848.01,-107.777 1831.56,-95.5459 1818.27,-85.6636"/>
<polygon fill="midnightblue" stroke="midnightblue" points="1820.19,-82.7291 1810.08,-79.5707 1816.02,-88.3463 1820.19,-82.7291"/>
</g>
<!-- Node20&#45;&gt;Node7 -->
<g id="edge62" class="edge"><title>Node20&#45;&gt;Node7</title>
<path fill="none" stroke="midnightblue" d="M1511.2,-174.437C1521.05,-158.988 1541.58,-130.499 1566.86,-116 1594.18,-100.336 1672.53,-86.3922 1730,-77.8387"/>
<polygon fill="midnightblue" stroke="midnightblue" points="1730.72,-81.2701 1740.11,-76.3571 1729.71,-74.3441 1730.72,-81.2701"/>
</g>
<!-- Node20&#45;&gt;Node18 -->
<g id="edge64" class="edge"><title>Node20&#45;&gt;Node18</title>
<path fill="none" stroke="midnightblue" d="M1553.5,-181.009C1631.22,-174.336 1788.39,-159.633 1931.58,-138.095"/>
<polygon fill="midnightblue" stroke="midnightblue" points="1932.5,-141.495 1941.86,-136.532 1931.45,-134.574 1932.5,-141.495"/>
</g>
<!-- Node21&#45;&gt;Node7 -->
<g id="edge72" class="edge"><title>Node21&#45;&gt;Node7</title>
<path fill="none" stroke="midnightblue" d="M2255.31,-290.434C2237.63,-281.714 2212.79,-268.46 2192.86,-254 2120.08,-201.177 2125.11,-156.611 2044.86,-116 2013.49,-100.123 1924.21,-85.7485 1861.58,-77.1906"/>
<polygon fill="midnightblue" stroke="midnightblue" points="1861.76,-73.6832 1851.38,-75.8162 1860.82,-80.6205 1861.76,-73.6832"/>
</g>
<!-- Node21&#45;&gt;Node18 -->
<g id="edge74" class="edge"><title>Node21&#45;&gt;Node18</title>
<path fill="none" stroke="midnightblue" d="M2221.49,-292.645C2187.9,-285.873 2145.42,-274.051 2111.86,-254 2064.28,-225.566 2022.63,-174.051 2002.21,-146.168"/>
<polygon fill="midnightblue" stroke="midnightblue" points="2004.8,-143.769 1996.12,-137.685 1999.11,-147.85 2004.8,-143.769"/>
</g>
<!-- Node22&#45;&gt;Node7 -->
<g id="edge84" class="edge"><title>Node22&#45;&gt;Node7</title>
<path fill="none" stroke="midnightblue" d="M1211.96,-464.25C1217.52,-450.267 1228.23,-425.342 1240.86,-406 1259.48,-377.509 1268.35,-373.525 1290.86,-348 1390.27,-235.29 1397.22,-171.54 1536.86,-116 1599.8,-90.971 1676.66,-79.1697 1730.24,-73.6689"/>
<polygon fill="midnightblue" stroke="midnightblue" points="1730.69,-77.1418 1740.3,-72.682 1730.01,-70.1752 1730.69,-77.1418"/>
</g>
<!-- Node22&#45;&gt;Node20 -->
<g id="edge86" class="edge"><title>Node22&#45;&gt;Node20</title>
<path fill="none" stroke="midnightblue" d="M1215.97,-464.35C1233.22,-441.945 1275.2,-388.653 1314.86,-348 1369.17,-292.338 1386.32,-282.022 1445.86,-232 1458.01,-221.797 1471.87,-210.727 1483.1,-201.895"/>
<polygon fill="midnightblue" stroke="midnightblue" points="1485.39,-204.548 1491.11,-195.629 1481.08,-199.036 1485.39,-204.548"/>
</g>
<!-- Node23&#45;&gt;Node6 -->
<g id="edge90" class="edge"><title>Node23&#45;&gt;Node6</title>
<path fill="none" stroke="midnightblue" d="M1160.66,-522.328C1139.91,-514.31 1112.73,-501.972 1091.86,-486 1058.29,-460.306 980.846,-361.171 948.967,-319.558"/>
<polygon fill="midnightblue" stroke="midnightblue" points="951.739,-317.421 942.888,-311.598 946.176,-321.67 951.739,-317.421"/>
</g>
<!-- Node23&#45;&gt;Node15 -->
<g id="edge94" class="edge"><title>Node23&#45;&gt;Node15</title>
<path fill="none" stroke="midnightblue" d="M1251.32,-522.429C1293.33,-514.269 1350.67,-501.726 1399.86,-486 1577.57,-429.193 1632.79,-424.165 1781.86,-312 1801.97,-296.875 1821.97,-276.079 1835.22,-261.281"/>
<polygon fill="midnightblue" stroke="midnightblue" points="1837.86,-263.571 1841.84,-253.752 1832.61,-258.947 1837.86,-263.571"/>
</g>
<!-- Node23&#45;&gt;Node22 -->
<g id="edge92" class="edge"><title>Node23&#45;&gt;Node22</title>
<path fill="none" stroke="midnightblue" d="M1194.8,-522.362C1196.87,-514.84 1199.72,-504.519 1202.23,-495.431"/>
<polygon fill="midnightblue" stroke="midnightblue" points="1205.66,-496.141 1204.95,-485.571 1198.91,-494.28 1205.66,-496.141"/>
</g>
<!-- Node24&#45;&gt;Node6 -->
<g id="edge106" class="edge"><title>Node24&#45;&gt;Node6</title>
<path fill="none" stroke="midnightblue" d="M1040.05,-639.58C1037.29,-639.033 1034.55,-638.504 1031.86,-638 875.167,-608.621 688.864,-692.427 688.864,-533 688.864,-533 688.864,-533 688.864,-417 688.864,-374.383 811.173,-334.192 883.306,-314.194"/>
<polygon fill="midnightblue" stroke="midnightblue" points="884.41,-317.521 893.134,-311.509 882.565,-310.769 884.41,-317.521"/>
</g>
<!-- Node24&#45;&gt;Node9 -->
<g id="edge108" class="edge"><title>Node24&#45;&gt;Node9</title>
<path fill="none" stroke="midnightblue" d="M1137.3,-638.922C1151.16,-629.233 1168.43,-617.165 1182.17,-607.562"/>
<polygon fill="midnightblue" stroke="midnightblue" points="1184.42,-610.256 1190.61,-601.658 1180.41,-604.518 1184.42,-610.256"/>
</g>
<!-- Node25&#45;&gt;Node2 -->
<g id="edge112" class="edge"><title>Node25&#45;&gt;Node2</title>
<path fill="none" stroke="midnightblue" d="M428.629,-638.922C437.007,-629.845 447.314,-618.679 455.871,-609.41"/>
<polygon fill="midnightblue" stroke="midnightblue" points="458.636,-611.574 462.847,-601.852 453.492,-606.826 458.636,-611.574"/>
</g>
<!-- Node25&#45;&gt;Node6 -->
<g id="edge114" class="edge"><title>Node25&#45;&gt;Node6</title>
<path fill="none" stroke="midnightblue" d="M465.74,-638.995C484.573,-630.561 504.422,-618.547 517.864,-602 537.92,-577.312 536.864,-564.808 536.864,-533 536.864,-533 536.864,-533 536.864,-417 536.864,-384.531 535.628,-368.43 560.864,-348 585.12,-328.364 780.872,-311.896 879.086,-304.777"/>
<polygon fill="midnightblue" stroke="midnightblue" points="879.41,-308.262 889.134,-304.056 878.909,-301.28 879.41,-308.262"/>
</g>
<!-- Node25&#45;&gt;Node9 -->
<g id="edge116" class="edge"><title>Node25&#45;&gt;Node9</title>
<path fill="none" stroke="midnightblue" d="M485.422,-644.015C500.728,-641.77 516.803,-639.623 531.864,-638 778.509,-611.425 841.569,-621.612 1088.86,-602 1100.7,-601.061 1113.2,-599.981 1125.46,-598.871"/>
<polygon fill="midnightblue" stroke="midnightblue" points="1126.03,-602.333 1135.67,-597.935 1125.39,-595.363 1126.03,-602.333"/>
</g>
<!-- Node26&#45;&gt;Node5 -->
<g id="edge122" class="edge"><title>Node26&#45;&gt;Node5</title>
<path fill="none" stroke="midnightblue" d="M640.202,-716.849C624.903,-714.546 608.858,-712.164 593.864,-710 480.712,-693.669 449.258,-694.695 333.621,-674.25"/>
<polygon fill="midnightblue" stroke="midnightblue" points="334.124,-670.785 323.665,-672.474 332.895,-677.676 334.124,-670.785"/>
</g>
<!-- Node26&#45;&gt;Node6 -->
<g id="edge120" class="edge"><title>Node26&#45;&gt;Node6</title>
<path fill="none" stroke="midnightblue" d="M641.291,-710.965C593.749,-698.928 538.82,-683.334 531.864,-674 522.304,-661.171 528.774,-653.699 531.864,-638 541.603,-588.521 574.864,-583.428 574.864,-533 574.864,-533 574.864,-533 574.864,-417 574.864,-379.895 590.445,-367.739 621.864,-348 663.666,-321.738 800.985,-309.187 879.144,-304.039"/>
<polygon fill="midnightblue" stroke="midnightblue" points="879.543,-307.52 889.299,-303.389 879.096,-300.535 879.543,-307.52"/>
</g>
<!-- Node27 -->
<g id="node89" class="node"><title>Node27</title>
<a xlink:href="MojDbLevelCursor_8h.htm" target="_top" xlink:title="db&#45;luna/leveldb/MojDbLevel\lCursor.h">
<polygon fill="white" stroke="red" points="16.3642,-639 16.3642,-673 161.364,-673 161.364,-639 16.3642,-639"/>
<text text-anchor="start" x="24.3642" y="-660" font-family="Helvetica,sans-Serif" font-size="10.00">db&#45;luna/leveldb/MojDbLevel</text>
<text text-anchor="middle" x="88.8642" y="-647" font-family="Helvetica,sans-Serif" font-size="10.00">Cursor.h</text>
</a>
</g>
<!-- Node26&#45;&gt;Node27 -->
<g id="edge124" class="edge"><title>Node26&#45;&gt;Node27</title>
<path fill="none" stroke="midnightblue" d="M640.28,-716.249C624.976,-713.988 608.909,-711.775 593.864,-710 409.345,-688.235 358.589,-702.071 171.794,-674.191"/>
<polygon fill="midnightblue" stroke="midnightblue" points="172.046,-670.689 161.635,-672.654 170.999,-677.611 172.046,-670.689"/>
</g>
<!-- Node28 -->
<g id="node93" class="node"><title>Node28</title>
<a xlink:href="MojDbLevelItem_8h.htm" target="_top" xlink:title="db&#45;luna/leveldb/MojDbLevel\lItem.h">
<polygon fill="white" stroke="black" points="878.364,-639 878.364,-673 1023.36,-673 1023.36,-639 878.364,-639"/>
<text text-anchor="start" x="886.364" y="-660" font-family="Helvetica,sans-Serif" font-size="10.00">db&#45;luna/leveldb/MojDbLevel</text>
<text text-anchor="middle" x="950.864" y="-647" font-family="Helvetica,sans-Serif" font-size="10.00">Item.h</text>
</a>
</g>
<!-- Node26&#45;&gt;Node28 -->
<g id="edge130" class="edge"><title>Node26&#45;&gt;Node28</title>
<path fill="none" stroke="midnightblue" d="M769.267,-710.937C803.82,-700.484 848.216,-687.053 884.462,-676.088"/>
<polygon fill="midnightblue" stroke="midnightblue" points="885.896,-679.311 894.454,-673.065 883.869,-672.611 885.896,-679.311"/>
</g>
<!-- Node33 -->
<g id="node112" class="node"><title>Node33</title>
<a xlink:href="MojDbIsamQuery_8h.htm" target="_top" xlink:title="db/MojDbIsamQuery.h">
<polygon fill="white" stroke="red" points="702.864,-645.5 702.864,-666.5 822.864,-666.5 822.864,-645.5 702.864,-645.5"/>
<text text-anchor="middle" x="762.864" y="-653.5" font-family="Helvetica,sans-Serif" font-size="10.00">db/MojDbIsamQuery.h</text>
</a>
</g>
<!-- Node26&#45;&gt;Node33 -->
<g id="edge158" class="edge"><title>Node26&#45;&gt;Node33</title>
<path fill="none" stroke="midnightblue" d="M724.714,-710.937C732.188,-700.174 741.854,-686.255 749.586,-675.12"/>
<polygon fill="midnightblue" stroke="midnightblue" points="752.465,-677.111 755.294,-666.901 746.715,-673.118 752.465,-677.111"/>
</g>
<!-- Node27&#45;&gt;Node2 -->
<g id="edge126" class="edge"><title>Node27&#45;&gt;Node2</title>
<path fill="none" stroke="midnightblue" d="M161.676,-639.586C164.438,-639.038 167.175,-638.507 169.864,-638 260.42,-620.933 367.053,-605.457 426.615,-597.224"/>
<polygon fill="midnightblue" stroke="midnightblue" points="427.391,-600.65 436.821,-595.821 426.437,-593.716 427.391,-600.65"/>
</g>
<!-- Node27&#45;&gt;Node6 -->
<g id="edge128" class="edge"><title>Node27&#45;&gt;Node6</title>
<path fill="none" stroke="midnightblue" d="M133.865,-638.831C175.13,-619.809 229.864,-584.812 229.864,-533 229.864,-533 229.864,-533 229.864,-417 229.864,-351.315 712.504,-314.913 879.109,-304.304"/>
<polygon fill="midnightblue" stroke="midnightblue" points="879.39,-307.793 889.15,-303.671 878.95,-300.807 879.39,-307.793"/>
</g>
<!-- Node28&#45;&gt;Node2 -->
<g id="edge132" class="edge"><title>Node28&#45;&gt;Node2</title>
<path fill="none" stroke="midnightblue" d="M878.212,-644.775C862.913,-642.477 846.864,-640.116 831.864,-638 719.675,-622.173 587.497,-605.333 519.095,-596.753"/>
<polygon fill="midnightblue" stroke="midnightblue" points="519.433,-593.268 509.076,-595.498 518.563,-600.214 519.433,-593.268"/>
</g>
<!-- Node28&#45;&gt;Node9 -->
<g id="edge134" class="edge"><title>Node28&#45;&gt;Node9</title>
<path fill="none" stroke="midnightblue" d="M1017.86,-638.922C1060.62,-628.022 1115.2,-614.11 1154.52,-604.087"/>
<polygon fill="midnightblue" stroke="midnightblue" points="1155.6,-607.424 1164.43,-601.562 1153.87,-600.641 1155.6,-607.424"/>
</g>
<!-- Node28&#45;&gt;Node29 -->
<g id="edge136" class="edge"><title>Node28&#45;&gt;Node29</title>
<path fill="none" stroke="midnightblue" d="M1023.67,-639.543C1026.43,-639.006 1029.17,-638.49 1031.86,-638 1143.61,-617.666 1177.53,-639.134 1284.86,-602 1303.31,-595.62 1304.5,-586.599 1322.86,-580 1414.45,-547.088 1444.18,-566.495 1538.86,-544 1604.03,-528.519 1678,-504.114 1721.97,-488.86"/>
<polygon fill="midnightblue" stroke="midnightblue" points="1723.13,-492.163 1731.42,-485.564 1720.82,-485.554 1723.13,-492.163"/>
</g>
<!-- Node29&#45;&gt;Node14 -->
<g id="edge140" class="edge"><title>Node29&#45;&gt;Node14</title>
<path fill="none" stroke="midnightblue" d="M1752.71,-464.264C1734.44,-440.757 1687.94,-383.965 1638.86,-348 1621.04,-334.94 1599.04,-323.791 1580.7,-315.634"/>
<polygon fill="midnightblue" stroke="midnightblue" points="1582.05,-312.406 1571.48,-311.647 1579.27,-318.83 1582.05,-312.406"/>
</g>
<!-- Node29&#45;&gt;Node17 -->
<g id="edge138" class="edge"><title>Node29&#45;&gt;Node17</title>
<path fill="none" stroke="midnightblue" d="M1760.93,-464.252C1760.8,-442.102 1759.2,-389.935 1747.86,-348 1728.5,-276.381 1703.65,-265.927 1678.86,-196 1673.25,-180.163 1668.53,-161.725 1665.33,-147.895"/>
<polygon fill="midnightblue" stroke="midnightblue" points="1668.7,-146.926 1663.11,-137.929 1661.87,-148.451 1668.7,-146.926"/>
</g>
<!-- Node29&#45;&gt;Node30 -->
<g id="edge142" class="edge"><title>Node29&#45;&gt;Node30</title>
<path fill="none" stroke="midnightblue" d="M1828.08,-468.403C1935.38,-457.873 2145.36,-437.266 2264.28,-425.596"/>
<polygon fill="midnightblue" stroke="midnightblue" points="2264.83,-429.059 2274.44,-424.599 2264.14,-422.092 2264.83,-429.059"/>
</g>
<!-- Node30&#45;&gt;Node7 -->
<g id="edge144" class="edge"><title>Node30&#45;&gt;Node7</title>
<path fill="none" stroke="midnightblue" d="M2359.58,-406.414C2373.14,-386.711 2399.86,-342.628 2399.86,-301 2399.86,-301 2399.86,-301 2399.86,-185 2399.86,-130.669 2018.08,-89.4059 1861.58,-74.7741"/>
<polygon fill="midnightblue" stroke="midnightblue" points="1861.88,-71.2874 1851.6,-73.849 1861.24,-78.2575 1861.88,-71.2874"/>
</g>
<!-- Node30&#45;&gt;Node14 -->
<g id="edge150" class="edge"><title>Node30&#45;&gt;Node14</title>
<path fill="none" stroke="midnightblue" d="M2327.93,-406.439C2291.11,-390.722 2218.02,-361.573 2152.86,-348 2048.75,-326.311 1733.96,-309.757 1602.51,-303.606"/>
<polygon fill="midnightblue" stroke="midnightblue" points="1602.4,-300.097 1592.25,-303.129 1602.07,-307.089 1602.4,-300.097"/>
</g>
<!-- Node31 -->
<g id="node104" class="node"><title>Node31</title>
<a xlink:href="MojDataSerialization_8h.htm" target="_top" xlink:title="core/MojDataSerialization.h">
<polygon fill="white" stroke="red" points="2201.86,-232.5 2201.86,-253.5 2347.86,-253.5 2347.86,-232.5 2201.86,-232.5"/>
<text text-anchor="middle" x="2274.86" y="-240.5" font-family="Helvetica,sans-Serif" font-size="10.00">core/MojDataSerialization.h</text>
</a>
</g>
<!-- Node30&#45;&gt;Node31 -->
<g id="edge146" class="edge"><title>Node30&#45;&gt;Node31</title>
<path fill="none" stroke="midnightblue" d="M2354.03,-406.251C2358.07,-383.198 2364.55,-328.016 2342.86,-290 2335.25,-276.659 2322.12,-266.258 2309.42,-258.671"/>
<polygon fill="midnightblue" stroke="midnightblue" points="2310.77,-255.419 2300.32,-253.642 2307.38,-261.545 2310.77,-255.419"/>
</g>
<!-- Node30&#45;&gt;Node32 -->
<g id="edge152" class="edge"><title>Node30&#45;&gt;Node32</title>
<path fill="none" stroke="midnightblue" d="M2375.77,-406.497C2396.66,-397.315 2427.22,-383.889 2450.52,-373.652"/>
<polygon fill="midnightblue" stroke="midnightblue" points="2451.94,-376.848 2459.69,-369.621 2449.13,-370.44 2451.94,-376.848"/>
</g>
<!-- Node31&#45;&gt;Node7 -->
<g id="edge148" class="edge"><title>Node31&#45;&gt;Node7</title>
<path fill="none" stroke="midnightblue" d="M2267.21,-232.169C2248.67,-206.885 2198.53,-143.999 2139.86,-116 2092.03,-93.1703 1947.6,-79.5276 1861.84,-73.2228"/>
<polygon fill="midnightblue" stroke="midnightblue" points="1861.91,-69.7188 1851.69,-72.4902 1861.41,-76.7007 1861.91,-69.7188"/>
</g>
<!-- Node32&#45;&gt;Node7 -->
<g id="edge154" class="edge"><title>Node32&#45;&gt;Node7</title>
<path fill="none" stroke="midnightblue" d="M2480.27,-348.266C2473.8,-327.96 2460.86,-282.419 2460.86,-243 2460.86,-243 2460.86,-243 2460.86,-185 2460.86,-147.895 2445.98,-134.577 2413.86,-116 2366.96,-88.8732 2011.31,-75.3379 1861.77,-70.7993"/>
<polygon fill="midnightblue" stroke="midnightblue" points="1861.47,-67.2887 1851.37,-70.488 1861.26,-74.2856 1861.47,-67.2887"/>
</g>
<!-- Node32&#45;&gt;Node21 -->
<g id="edge156" class="edge"><title>Node32&#45;&gt;Node21</title>
<path fill="none" stroke="midnightblue" d="M2446.56,-348.497C2412.54,-338.918 2362.11,-324.72 2325.25,-314.342"/>
<polygon fill="midnightblue" stroke="midnightblue" points="2325.81,-310.864 2315.24,-311.523 2323.92,-317.602 2325.81,-310.864"/>
</g>
<!-- Node33&#45;&gt;Node6 -->
<g id="edge160" class="edge"><title>Node33&#45;&gt;Node6</title>
<path fill="none" stroke="midnightblue" d="M735.956,-645.397C716.509,-636.479 690.933,-621.97 674.864,-602 654.509,-576.704 650.864,-565.469 650.864,-533 650.864,-533 650.864,-533 650.864,-417 650.864,-384.531 650.187,-369.101 674.864,-348 704.874,-322.338 812.11,-309.935 879.129,-304.564"/>
<polygon fill="midnightblue" stroke="midnightblue" points="879.416,-308.052 889.116,-303.792 878.876,-301.073 879.416,-308.052"/>
</g>
<!-- Node33&#45;&gt;Node9 -->
<g id="edge162" class="edge"><title>Node33&#45;&gt;Node9</title>
<path fill="none" stroke="midnightblue" d="M823.085,-645.569C838.334,-643.01 854.691,-640.337 869.864,-638 957.076,-624.567 1057.28,-610.761 1125.4,-601.618"/>
<polygon fill="midnightblue" stroke="midnightblue" points="1126.19,-605.044 1135.64,-600.248 1125.26,-598.106 1126.19,-605.044"/>
</g>
<!-- Node34&#45;&gt;Node25 -->
<g id="edge166" class="edge"><title>Node34&#45;&gt;Node25</title>
<path fill="none" stroke="midnightblue" d="M878.133,-719.118C794.513,-708.792 653.166,-690.989 531.864,-674 520.144,-672.359 507.784,-670.562 495.642,-668.76"/>
<polygon fill="midnightblue" stroke="midnightblue" points="495.92,-665.263 485.513,-667.248 494.887,-672.186 495.92,-665.263"/>
</g>
<!-- Node34&#45;&gt;Node28 -->
<g id="edge168" class="edge"><title>Node34&#45;&gt;Node28</title>
<path fill="none" stroke="midnightblue" d="M950.864,-710.937C950.864,-702.807 950.864,-692.876 950.864,-683.705"/>
<polygon fill="midnightblue" stroke="midnightblue" points="954.364,-683.441 950.864,-673.441 947.364,-683.441 954.364,-683.441"/>
</g>
<!-- Node35&#45;&gt;Node2 -->
<g id="edge180" class="edge"><title>Node35&#45;&gt;Node2</title>
<path fill="none" stroke="midnightblue" d="M1354.2,-650.161C1308.25,-646.524 1247.59,-641.826 1193.86,-638 939.062,-619.854 633.4,-600.836 519.03,-593.817"/>
<polygon fill="midnightblue" stroke="midnightblue" points="519.08,-590.313 508.885,-593.195 518.652,-597.3 519.08,-590.313"/>
</g>
<!-- Node35&#45;&gt;Node3 -->
<g id="edge182" class="edge"><title>Node35&#45;&gt;Node3</title>
<path fill="none" stroke="midnightblue" d="M1354.17,-644.304C1279.32,-632.261 1163.59,-613.642 1090.6,-601.899"/>
<polygon fill="midnightblue" stroke="midnightblue" points="1091.03,-598.422 1080.6,-600.289 1089.91,-605.333 1091.03,-598.422"/>
</g>
<!-- Node35&#45;&gt;Node8 -->
<g id="edge186" class="edge"><title>Node35&#45;&gt;Node8</title>
<path fill="none" stroke="midnightblue" d="M1354.26,-645.878C1279.27,-634.899 1167.61,-616.939 1126.86,-602 1108.54,-595.282 1106.92,-587.408 1088.86,-580 1080.53,-576.579 460.864,-426.011 460.864,-417 460.864,-417 460.864,-417 460.864,-127 460.864,-64.4531 922.002,-25.7215 1077.42,-14.4437"/>
<polygon fill="midnightblue" stroke="midnightblue" points="1077.92,-17.9172 1087.64,-13.7098 1077.42,-10.9352 1077.92,-17.9172"/>
</g>
<!-- Node35&#45;&gt;Node9 -->
<g id="edge188" class="edge"><title>Node35&#45;&gt;Node9</title>
<path fill="none" stroke="midnightblue" d="M1368.8,-638.922C1332.13,-628.138 1285.44,-614.405 1251.45,-604.407"/>
<polygon fill="midnightblue" stroke="midnightblue" points="1252.36,-601.026 1241.77,-601.562 1250.38,-607.742 1252.36,-601.026"/>
</g>
<!-- Node35&#45;&gt;Node15 -->
<g id="edge184" class="edge"><title>Node35&#45;&gt;Node15</title>
<path fill="none" stroke="midnightblue" d="M1489.4,-638.888C1593.46,-609.053 1794.92,-545.051 1836.86,-486 1885.58,-417.415 1866.99,-308.542 1856.32,-263.522"/>
<polygon fill="midnightblue" stroke="midnightblue" points="1859.7,-262.603 1853.88,-253.747 1852.91,-264.297 1859.7,-262.603"/>
</g>
<!-- Node36 -->
<g id="node122" class="node"><title>Node36</title>
<polygon fill="white" stroke="#bfbfbf" points="1331.36,-580.5 1331.36,-601.5 1368.36,-601.5 1368.36,-580.5 1331.36,-580.5"/>
<text text-anchor="middle" x="1349.86" y="-588.5" font-family="Helvetica,sans-Serif" font-size="10.00">map</text>
</g>
<!-- Node35&#45;&gt;Node36 -->
<g id="edge172" class="edge"><title>Node35&#45;&gt;Node36</title>
<path fill="none" stroke="midnightblue" d="M1406.63,-638.922C1395.56,-629.57 1381.85,-618.001 1370.68,-608.572"/>
<polygon fill="midnightblue" stroke="midnightblue" points="1372.62,-605.628 1362.72,-601.852 1368.1,-610.977 1372.62,-605.628"/>
</g>
<!-- Node37 -->
<g id="node124" class="node"><title>Node37</title>
<polygon fill="white" stroke="#bfbfbf" points="1385.36,-580.5 1385.36,-601.5 1416.36,-601.5 1416.36,-580.5 1385.36,-580.5"/>
<text text-anchor="middle" x="1400.86" y="-588.5" font-family="Helvetica,sans-Serif" font-size="10.00">set</text>
</g>
<!-- Node35&#45;&gt;Node37 -->
<g id="edge174" class="edge"><title>Node35&#45;&gt;Node37</title>
<path fill="none" stroke="midnightblue" d="M1420.03,-638.922C1416.66,-630.487 1412.56,-620.248 1409.03,-611.403"/>
<polygon fill="midnightblue" stroke="midnightblue" points="1412.17,-609.837 1405.21,-601.852 1405.67,-612.437 1412.17,-609.837"/>
</g>
<!-- Node38 -->
<g id="node126" class="node"><title>Node38</title>
<polygon fill="white" stroke="#bfbfbf" points="1433.36,-580.5 1433.36,-601.5 1462.36,-601.5 1462.36,-580.5 1433.36,-580.5"/>
<text text-anchor="middle" x="1447.86" y="-588.5" font-family="Helvetica,sans-Serif" font-size="10.00">list</text>
</g>
<!-- Node35&#45;&gt;Node38 -->
<g id="edge176" class="edge"><title>Node35&#45;&gt;Node38</title>
<path fill="none" stroke="midnightblue" d="M1432.38,-638.922C1435.11,-630.487 1438.41,-620.248 1441.27,-611.403"/>
<polygon fill="midnightblue" stroke="midnightblue" points="1444.61,-612.444 1444.36,-601.852 1437.95,-610.292 1444.61,-612.444"/>
</g>
<!-- Node39 -->
<g id="node128" class="node"><title>Node39</title>
<polygon fill="white" stroke="#bfbfbf" points="1479.36,-580.5 1479.36,-601.5 1522.36,-601.5 1522.36,-580.5 1479.36,-580.5"/>
<text text-anchor="middle" x="1500.86" y="-588.5" font-family="Helvetica,sans-Serif" font-size="10.00">string</text>
</g>
<!-- Node35&#45;&gt;Node39 -->
<g id="edge178" class="edge"><title>Node35&#45;&gt;Node39</title>
<path fill="none" stroke="midnightblue" d="M1446.31,-638.922C1456.95,-629.57 1470.13,-618.001 1480.86,-608.572"/>
<polygon fill="midnightblue" stroke="midnightblue" points="1483.31,-611.081 1488.51,-601.852 1478.69,-605.822 1483.31,-611.081"/>
</g>
<!-- Node40&#45;&gt;Node2 -->
<g id="edge192" class="edge"><title>Node40&#45;&gt;Node2</title>
<path fill="none" stroke="midnightblue" d="M576.081,-638.922C554.021,-628.68 526.231,-615.777 505.046,-605.941"/>
<polygon fill="midnightblue" stroke="midnightblue" points="506.365,-602.695 495.821,-601.658 503.417,-609.044 506.365,-602.695"/>
</g>
<!-- Node40&#45;&gt;Node6 -->
<g id="edge196" class="edge"><title>Node40&#45;&gt;Node6</title>
<path fill="none" stroke="midnightblue" d="M612.864,-638.888C612.864,-615.127 612.864,-570.797 612.864,-533 612.864,-533 612.864,-533 612.864,-417 612.864,-381.774 623,-368.193 651.864,-348 687.649,-322.965 807.218,-310.173 878.983,-304.6"/>
<polygon fill="midnightblue" stroke="midnightblue" points="879.5,-308.071 889.208,-303.829 878.974,-301.09 879.5,-308.071"/>
</g>
<!-- Node40&#45;&gt;Node9 -->
<g id="edge194" class="edge"><title>Node40&#45;&gt;Node9</title>
<path fill="none" stroke="midnightblue" d="M685.638,-639.368C688.411,-638.88 691.16,-638.422 693.864,-638 868.04,-610.824 913.332,-618.25 1088.86,-602 1100.69,-600.905 1113.18,-599.74 1125.43,-598.592"/>
<polygon fill="midnightblue" stroke="midnightblue" points="1126.02,-602.053 1135.65,-597.635 1125.36,-595.084 1126.02,-602.053"/>
</g>
<!-- Node41 -->
<g id="node140" class="node"><title>Node41</title>
<a xlink:href="MojFile_8h.htm" target="_top" xlink:title="core/MojFile.h">
<polygon fill="white" stroke="black" points="865.364,-580.5 865.364,-601.5 948.364,-601.5 948.364,-580.5 865.364,-580.5"/>
<text text-anchor="middle" x="906.864" y="-588.5" font-family="Helvetica,sans-Serif" font-size="10.00">core/MojFile.h</text>
</a>
</g>
<!-- Node40&#45;&gt;Node41 -->
<g id="edge198" class="edge"><title>Node40&#45;&gt;Node41</title>
<path fill="none" stroke="midnightblue" d="M685.721,-639.804C688.47,-639.195 691.192,-638.592 693.864,-638 748.973,-625.797 812.115,-611.871 855.254,-602.366"/>
<polygon fill="midnightblue" stroke="midnightblue" points="856.217,-605.737 865.23,-600.168 854.711,-598.901 856.217,-605.737"/>
</g>
<!-- Node41&#45;&gt;Node7 -->
<g id="edge200" class="edge"><title>Node41&#45;&gt;Node7</title>
<path fill="none" stroke="midnightblue" d="M930.311,-580.388C996.813,-548.508 1181.86,-446.708 1181.86,-301 1181.86,-301 1181.86,-301 1181.86,-185 1181.86,-129.668 1571.84,-88.8544 1730.2,-74.5615"/>
<polygon fill="midnightblue" stroke="midnightblue" points="1730.64,-78.036 1740.29,-73.6585 1730.02,-71.0639 1730.64,-78.036"/>
</g>
<!-- Node42&#45;&gt;Node6 -->
<g id="edge208" class="edge"><title>Node42&#45;&gt;Node6</title>
<path fill="none" stroke="midnightblue" d="M1629.07,-726.139C1544.19,-721.149 1328.75,-705.651 1264.86,-674 1244.59,-663.955 1249.33,-647.657 1228.86,-638 1153.76,-602.554 912.691,-663.491 856.864,-602 850.292,-594.761 856.217,-589.756 856.864,-580 859.982,-533.024 870.864,-522.08 870.864,-475 870.864,-475 870.864,-475 870.864,-417 870.864,-378.453 898.292,-340.662 917.237,-319.157"/>
<polygon fill="midnightblue" stroke="midnightblue" points="919.847,-321.489 924.007,-311.745 914.679,-316.768 919.847,-321.489"/>
</g>
<!-- Node42&#45;&gt;Node9 -->
<g id="edge246" class="edge"><title>Node42&#45;&gt;Node9</title>
<path fill="none" stroke="midnightblue" d="M1629.23,-724.432C1557.67,-716.686 1396,-697.154 1345.86,-674 1323.24,-663.55 1323.79,-651.536 1302.86,-638 1283.37,-625.394 1260,-613.969 1241.08,-605.541"/>
<polygon fill="midnightblue" stroke="midnightblue" points="1242.47,-602.332 1231.91,-601.535 1239.67,-608.746 1242.47,-602.332"/>
</g>
<!-- Node42&#45;&gt;Node10 -->
<g id="edge248" class="edge"><title>Node42&#45;&gt;Node10</title>
<path fill="none" stroke="midnightblue" d="M1665.59,-717.464C1667.94,-700.07 1670.63,-664.624 1658.86,-638 1644.26,-604.942 1633.88,-596.763 1601.86,-580 1597.23,-577.573 1472.7,-556.72 1393.45,-543.618"/>
<polygon fill="midnightblue" stroke="midnightblue" points="1393.98,-540.158 1383.54,-541.982 1392.84,-547.065 1393.98,-540.158"/>
</g>
<!-- Node42&#45;&gt;Node15 -->
<g id="edge260" class="edge"><title>Node42&#45;&gt;Node15</title>
<path fill="none" stroke="midnightblue" d="M1695.71,-717.419C1771.75,-691.835 1958.8,-626.907 1974.86,-602 2051.26,-483.537 1999.09,-405.205 1917.86,-290 1908.77,-277.105 1894.96,-266.553 1882.24,-258.738"/>
<polygon fill="midnightblue" stroke="midnightblue" points="1883.65,-255.515 1873.24,-253.537 1880.15,-261.574 1883.65,-255.515"/>
</g>
<!-- Node42&#45;&gt;Node21 -->
<g id="edge256" class="edge"><title>Node42&#45;&gt;Node21</title>
<path fill="none" stroke="midnightblue" d="M1698.6,-725.556C1795.49,-718.476 2063.7,-696.993 2095.86,-674 2220.56,-584.864 2263.69,-386.307 2274.71,-321.729"/>
<polygon fill="midnightblue" stroke="midnightblue" points="2278.21,-322.031 2276.36,-311.598 2271.3,-320.907 2278.21,-322.031"/>
</g>
<!-- Node42&#45;&gt;Node22 -->
<g id="edge258" class="edge"><title>Node42&#45;&gt;Node22</title>
<path fill="none" stroke="midnightblue" d="M1668.49,-717.448C1675.32,-700.327 1686.33,-665.631 1676.86,-638 1666.29,-607.133 1659.75,-596.938 1631.86,-580 1555.79,-533.793 1519.16,-572.574 1434.86,-544 1414.53,-537.108 1411.94,-529.592 1391.86,-522 1368.64,-513.219 1309.06,-498.502 1263.93,-487.874"/>
<polygon fill="midnightblue" stroke="midnightblue" points="1264.5,-484.412 1253.97,-485.537 1262.9,-491.227 1264.5,-484.412"/>
</g>
<!-- Node42&#45;&gt;Node23 -->
<g id="edge244" class="edge"><title>Node42&#45;&gt;Node23</title>
<path fill="none" stroke="midnightblue" d="M1660.94,-717.296C1655.79,-699.66 1643.91,-663.873 1625.86,-638 1604.28,-607.053 1598.07,-595.941 1563.86,-580 1445.9,-525.018 1400.31,-560.002 1267.74,-544.157"/>
<polygon fill="midnightblue" stroke="midnightblue" points="1267.98,-540.66 1257.62,-542.87 1267.1,-547.604 1267.98,-540.66"/>
</g>
<!-- Node42&#45;&gt;Node41 -->
<g id="edge262" class="edge"><title>Node42&#45;&gt;Node41</title>
<path fill="none" stroke="midnightblue" d="M1629.26,-725.48C1550.48,-719.32 1360.19,-701.933 1302.86,-674 1281.95,-663.809 1285.94,-647.854 1264.86,-638 1142.94,-580.993 1095.04,-622.773 958.529,-602.096"/>
<polygon fill="midnightblue" stroke="midnightblue" points="958.973,-598.623 948.545,-600.497 957.866,-605.535 958.973,-598.623"/>
</g>
<!-- Node43 -->
<g id="node148" class="node"><title>Node43</title>
<a xlink:href="MojDbCursor_8h.htm" target="_top" xlink:title="db/MojDbCursor.h">
<polygon fill="white" stroke="red" points="1516.36,-645.5 1516.36,-666.5 1617.36,-666.5 1617.36,-645.5 1516.36,-645.5"/>
<text text-anchor="middle" x="1566.86" y="-653.5" font-family="Helvetica,sans-Serif" font-size="10.00">db/MojDbCursor.h</text>
</a>
</g>
<!-- Node42&#45;&gt;Node43 -->
<g id="edge210" class="edge"><title>Node42&#45;&gt;Node43</title>
<path fill="none" stroke="midnightblue" d="M1649.55,-717.376C1633.72,-705.624 1608,-686.533 1589.44,-672.76"/>
<polygon fill="midnightblue" stroke="midnightblue" points="1591.35,-669.817 1581.24,-666.667 1587.18,-675.438 1591.35,-669.817"/>
</g>
<!-- Node44 -->
<g id="node153" class="node"><title>Node44</title>
<a xlink:href="MojDbIdGenerator_8h.htm" target="_top" xlink:title="db/MojDbIdGenerator.h">
<polygon fill="white" stroke="red" points="716.364,-522.5 716.364,-543.5 843.364,-543.5 843.364,-522.5 716.364,-522.5"/>
<text text-anchor="middle" x="779.864" y="-530.5" font-family="Helvetica,sans-Serif" font-size="10.00">db/MojDbIdGenerator.h</text>
</a>
</g>
<!-- Node42&#45;&gt;Node44 -->
<g id="edge218" class="edge"><title>Node42&#45;&gt;Node44</title>
<path fill="none" stroke="midnightblue" d="M1629.11,-726.128C1540.35,-720.949 1307.32,-704.741 1236.86,-674 1214.02,-664.033 1216.85,-647.637 1193.86,-638 1041.49,-574.116 964.714,-688.367 823.864,-602 805.782,-590.912 793.825,-569.289 787,-553.19"/>
<polygon fill="midnightblue" stroke="midnightblue" points="790.142,-551.615 783.243,-543.575 783.622,-554.163 790.142,-551.615"/>
</g>
<!-- Node45 -->
<g id="node156" class="node"><title>Node45</title>
<a xlink:href="MojDbKindEngine_8h.htm" target="_top" xlink:title="db/MojDbKindEngine.h">
<polygon fill="white" stroke="red" points="1843.36,-580.5 1843.36,-601.5 1966.36,-601.5 1966.36,-580.5 1843.36,-580.5"/>
<text text-anchor="middle" x="1904.86" y="-588.5" font-family="Helvetica,sans-Serif" font-size="10.00">db/MojDbKindEngine.h</text>
</a>
</g>
<!-- Node42&#45;&gt;Node45 -->
<g id="edge222" class="edge"><title>Node42&#45;&gt;Node45</title>
<path fill="none" stroke="midnightblue" d="M1686.76,-717.488C1709.06,-707.055 1743.75,-690.308 1772.86,-674 1811.31,-652.46 1854.25,-624.749 1880.41,-607.427"/>
<polygon fill="midnightblue" stroke="midnightblue" points="1882.54,-610.213 1888.93,-601.76 1878.66,-604.384 1882.54,-610.213"/>
</g>
<!-- Node46 -->
<g id="node164" class="node"><title>Node46</title>
<a xlink:href="MojDbPermissionEngine_8h.htm" target="_top" xlink:title="db/MojDbPermissionEngine.h">
<polygon fill="white" stroke="red" points="1989.86,-348.5 1989.86,-369.5 2143.86,-369.5 2143.86,-348.5 1989.86,-348.5"/>
<text text-anchor="middle" x="2066.86" y="-356.5" font-family="Helvetica,sans-Serif" font-size="10.00">db/MojDbPermissionEngine.h</text>
</a>
</g>
<!-- Node42&#45;&gt;Node46 -->
<g id="edge236" class="edge"><title>Node42&#45;&gt;Node46</title>
<path fill="none" stroke="midnightblue" d="M1696.63,-717.471C1706.28,-714.687 1716.92,-711.925 1726.86,-710 1802.32,-695.387 2011.92,-723.327 2070.86,-674 2100.31,-649.356 2094.86,-629.4 2094.86,-591 2094.86,-591 2094.86,-591 2094.86,-475 2094.86,-440.661 2083.13,-402.161 2074.85,-379.282"/>
<polygon fill="midnightblue" stroke="midnightblue" points="2078.03,-377.798 2071.24,-369.667 2071.48,-380.259 2078.03,-377.798"/>
</g>
<!-- Node47 -->
<g id="node172" class="node"><title>Node47</title>
<a xlink:href="MojDbReq_8h.htm" target="_top" xlink:title="db/MojDbReq.h">
<polygon fill="white" stroke="black" points="1541.36,-348.5 1541.36,-369.5 1630.36,-369.5 1630.36,-348.5 1541.36,-348.5"/>
<text text-anchor="middle" x="1585.86" y="-356.5" font-family="Helvetica,sans-Serif" font-size="10.00">db/MojDbReq.h</text>
</a>
</g>
<!-- Node42&#45;&gt;Node47 -->
<g id="edge250" class="edge"><title>Node42&#45;&gt;Node47</title>
<path fill="none" stroke="midnightblue" d="M1678.56,-717.341C1708.64,-694.103 1772.88,-636.426 1753.86,-580 1751.85,-574.023 1640.74,-429.977 1600.35,-377.719"/>
<polygon fill="midnightblue" stroke="midnightblue" points="1602.97,-375.385 1594.08,-369.615 1597.43,-379.667 1602.97,-375.385"/>
</g>
<!-- Node43&#45;&gt;Node6 -->
<g id="edge212" class="edge"><title>Node43&#45;&gt;Node6</title>
<path fill="none" stroke="midnightblue" d="M1565.21,-645.264C1561.96,-628.244 1553.04,-595.422 1530.86,-580 1455.23,-527.399 1200.47,-584.79 1117.86,-544 1021.25,-496.291 962.396,-370.277 942.483,-321.079"/>
<polygon fill="midnightblue" stroke="midnightblue" points="945.651,-319.573 938.728,-311.552 939.138,-322.139 945.651,-319.573"/>
</g>
<!-- Node43&#45;&gt;Node9 -->
<g id="edge214" class="edge"><title>Node43&#45;&gt;Node9</title>
<path fill="none" stroke="midnightblue" d="M1535.24,-645.451C1526.45,-642.763 1516.84,-640.057 1507.86,-638 1433.39,-620.936 1347.16,-608.199 1285.95,-600.32"/>
<polygon fill="midnightblue" stroke="midnightblue" points="1286.33,-596.84 1275.97,-599.049 1285.45,-603.784 1286.33,-596.84"/>
</g>
<!-- Node43&#45;&gt;Node17 -->
<g id="edge216" class="edge"><title>Node43&#45;&gt;Node17</title>
<path fill="none" stroke="midnightblue" d="M1570.15,-645.48C1581.63,-608.275 1620.28,-479.283 1638.86,-370 1652.72,-288.521 1658.24,-190.087 1660.07,-147.873"/>
<polygon fill="midnightblue" stroke="midnightblue" points="1663.58,-147.871 1660.49,-137.736 1656.58,-147.584 1663.58,-147.871"/>
</g>
<!-- Node44&#45;&gt;Node6 -->
<g id="edge220" class="edge"><title>Node44&#45;&gt;Node6</title>
<path fill="none" stroke="midnightblue" d="M781.897,-522.151C788.11,-491.527 809.39,-403.071 856.864,-348 868.49,-334.513 884.984,-323.797 899.811,-316.023"/>
<polygon fill="midnightblue" stroke="midnightblue" points="901.377,-319.153 908.77,-311.565 898.258,-312.887 901.377,-319.153"/>
</g>
<!-- Node45&#45;&gt;Node6 -->
<g id="edge224" class="edge"><title>Node45&#45;&gt;Node6</title>
<path fill="none" stroke="midnightblue" d="M1862.28,-580.427C1719.87,-544.851 1261.39,-428.452 1120.86,-370 1102.49,-362.357 1100.1,-355.961 1081.86,-348 1050.56,-334.338 1013.99,-322.628 985.149,-314.314"/>
<polygon fill="midnightblue" stroke="midnightblue" points="985.869,-310.88 975.293,-311.517 983.958,-317.615 985.869,-310.88"/>
</g>
<!-- Node45&#45;&gt;Node10 -->
<g id="edge226" class="edge"><title>Node45&#45;&gt;Node10</title>
<path fill="none" stroke="midnightblue" d="M1843.22,-584.793C1733.6,-573.755 1505.8,-550.816 1393.83,-539.542"/>
<polygon fill="midnightblue" stroke="midnightblue" points="1393.99,-536.041 1383.69,-538.521 1393.29,-543.005 1393.99,-536.041"/>
</g>
<!-- Node45&#45;&gt;Node15 -->
<g id="edge232" class="edge"><title>Node45&#45;&gt;Node15</title>
<path fill="none" stroke="midnightblue" d="M1907.55,-580.486C1917.2,-540.407 1947.17,-394.225 1899.86,-290 1894.51,-278.211 1884.74,-267.887 1875.31,-259.941"/>
<polygon fill="midnightblue" stroke="midnightblue" points="1877.27,-257.025 1867.25,-253.592 1872.94,-262.527 1877.27,-257.025"/>
</g>
<!-- Node45&#45;&gt;Node16 -->
<g id="edge228" class="edge"><title>Node45&#45;&gt;Node16</title>
<path fill="none" stroke="midnightblue" d="M1900.4,-580.14C1877.8,-525.212 1776.02,-277.758 1746.14,-205.111"/>
<polygon fill="midnightblue" stroke="midnightblue" points="1749.31,-203.621 1742.27,-195.704 1742.83,-206.284 1749.31,-203.621"/>
</g>
<!-- Node45&#45;&gt;Node21 -->
<g id="edge230" class="edge"><title>Node45&#45;&gt;Node21</title>
<path fill="none" stroke="midnightblue" d="M1918.98,-580.291C1960.82,-548.503 2087.79,-451.807 2191.86,-370 2214.24,-352.413 2239.63,-331.981 2256.99,-317.941"/>
<polygon fill="midnightblue" stroke="midnightblue" points="2259.25,-320.616 2264.82,-311.602 2254.84,-315.176 2259.25,-320.616"/>
</g>
<!-- Node45&#45;&gt;Node32 -->
<g id="edge234" class="edge"><title>Node45&#45;&gt;Node32</title>
<path fill="none" stroke="midnightblue" d="M1966.39,-585.645C2072.3,-573.704 2291.73,-536.754 2437.86,-428 2454.92,-415.308 2467.6,-394.302 2475.28,-378.796"/>
<polygon fill="midnightblue" stroke="midnightblue" points="2478.55,-380.084 2479.61,-369.542 2472.2,-377.122 2478.55,-380.084"/>
</g>
<!-- Node46&#45;&gt;Node6 -->
<g id="edge238" class="edge"><title>Node46&#45;&gt;Node6</title>
<path fill="none" stroke="midnightblue" d="M1989.5,-355.036C1775.06,-344.049 1176.63,-313.387 990.703,-303.861"/>
<polygon fill="midnightblue" stroke="midnightblue" points="990.772,-300.36 980.606,-303.344 990.414,-307.351 990.772,-300.36"/>
</g>
<!-- Node46&#45;&gt;Node15 -->
<g id="edge242" class="edge"><title>Node46&#45;&gt;Node15</title>
<path fill="none" stroke="midnightblue" d="M2055.27,-348.435C2038.69,-333.748 2006.76,-307.05 1975.86,-290 1950.89,-276.218 1921.04,-264.826 1896.78,-256.711"/>
<polygon fill="midnightblue" stroke="midnightblue" points="1897.69,-253.326 1887.1,-253.546 1895.51,-259.98 1897.69,-253.326"/>
</g>
<!-- Node46&#45;&gt;Node21 -->
<g id="edge240" class="edge"><title>Node46&#45;&gt;Node21</title>
<path fill="none" stroke="midnightblue" d="M2105.07,-348.497C2140.07,-338.877 2192.02,-324.598 2229.81,-314.209"/>
<polygon fill="midnightblue" stroke="midnightblue" points="2230.87,-317.548 2239.58,-311.523 2229.01,-310.799 2230.87,-317.548"/>
</g>
<!-- Node47&#45;&gt;Node6 -->
<g id="edge252" class="edge"><title>Node47&#45;&gt;Node6</title>
<path fill="none" stroke="midnightblue" d="M1541.12,-355.013C1425.72,-344.732 1118.21,-317.335 991.077,-306.008"/>
<polygon fill="midnightblue" stroke="midnightblue" points="991.062,-302.493 980.791,-305.092 990.441,-309.466 991.062,-302.493"/>
</g>
<!-- Node47&#45;&gt;Node15 -->
<g id="edge254" class="edge"><title>Node47&#45;&gt;Node15</title>
<path fill="none" stroke="midnightblue" d="M1610.32,-348.295C1657.97,-327.438 1763.29,-281.336 1817.37,-257.66"/>
<polygon fill="midnightblue" stroke="midnightblue" points="1819.09,-260.728 1826.85,-253.512 1816.29,-254.315 1819.09,-260.728"/>
</g>
<!-- Node48&#45;&gt;Node7 -->
<g id="edge266" class="edge"><title>Node48&#45;&gt;Node7</title>
<path fill="none" stroke="midnightblue" d="M2606.49,-348.479C2581.75,-330.167 2535.86,-289.881 2535.86,-243 2535.86,-243 2535.86,-243 2535.86,-185 2535.86,-133.533 2491.11,-133.91 2442.86,-116 2389.39,-96.1505 2015.34,-78.2825 1861.61,-71.6913"/>
<polygon fill="midnightblue" stroke="midnightblue" points="1861.5,-68.1839 1851.36,-71.255 1861.21,-75.1776 1861.5,-68.1839"/>
</g>
<!-- Node48&#45;&gt;Node14 -->
<g id="edge268" class="edge"><title>Node48&#45;&gt;Node14</title>
<path fill="none" stroke="midnightblue" d="M2557.82,-348.968C2554.79,-348.615 2551.8,-348.289 2548.86,-348 2190.32,-312.697 1757.13,-303.771 1602.33,-301.635"/>
<polygon fill="midnightblue" stroke="midnightblue" points="1602.15,-298.133 1592.11,-301.499 1602.06,-305.132 1602.15,-298.133"/>
</g>
<!-- Node49 -->
<g id="node184" class="node"><title>Node49</title>
<polygon fill="white" stroke="#bfbfbf" points="2601.36,-290.5 2601.36,-311.5 2642.36,-311.5 2642.36,-290.5 2601.36,-290.5"/>
<text text-anchor="middle" x="2621.86" y="-298.5" font-family="Helvetica,sans-Serif" font-size="10.00">stack</text>
</g>
<!-- Node48&#45;&gt;Node49 -->
<g id="edge270" class="edge"><title>Node48&#45;&gt;Node49</title>
<path fill="none" stroke="midnightblue" d="M2621.86,-348.362C2621.86,-340.922 2621.86,-330.743 2621.86,-321.728"/>
<polygon fill="midnightblue" stroke="midnightblue" points="2625.36,-321.571 2621.86,-311.571 2618.36,-321.571 2625.36,-321.571"/>
</g>
</g>
</svg>
