<?xml version="1.0" encoding="UTF-8" standalone="no"?>
<!DOCTYPE svg PUBLIC "-//W3C//DTD SVG 1.1//EN"
 "http://www.w3.org/Graphics/SVG/1.1/DTD/svg11.dtd">
<!-- Generated by graphviz version 2.26.3 (20100126.1600)
 -->
<!-- Title: MojDbLevelFactory.h Pages: 1 -->
<svg width="276pt" height="88pt"
 viewBox="0.00 0.00 276.00 88.00" xmlns="http://www.w3.org/2000/svg" xmlns:xlink="http://www.w3.org/1999/xlink">
<g id="graph1" class="graph" transform="scale(1 1) rotate(0) translate(4 84)">
<title>MojDbLevelFactory.h</title>
<polygon fill="white" stroke="white" points="-4,5 -4,-84 273,-84 273,5 -4,5"/>
<!-- Node1 -->
<g id="node1" class="node"><title>Node1</title>
<polygon fill="#bfbfbf" stroke="black" points="75,-58.5 75,-79.5 191,-79.5 191,-58.5 75,-58.5"/>
<text text-anchor="middle" x="133" y="-66.5" font-family="Helvetica,sans-Serif" font-size="10.00">MojDbLevelFactory.h</text>
</g>
<!-- Node2 -->
<g id="node3" class="node"><title>Node2</title>
<a xlink:href="MojDbLevelEngine_8cpp.htm" target="_top" xlink:title="MojDbLevelEngine.cpp">
<polygon fill="white" stroke="black" points="-0.5,-0.5 -0.5,-21.5 124.5,-21.5 124.5,-0.5 -0.5,-0.5"/>
<text text-anchor="middle" x="62" y="-8.5" font-family="Helvetica,sans-Serif" font-size="10.00">MojDbLevelEngine.cpp</text>
</a>
</g>
<!-- Node1&#45;&gt;Node2 -->
<g id="edge2" class="edge"><title>Node1&#45;&gt;Node2</title>
<path fill="none" stroke="midnightblue" d="M112.159,-51.9753C100.109,-42.1315 85.3254,-30.0545 74.9399,-21.5707"/>
<polygon fill="midnightblue" stroke="midnightblue" points="110.019,-54.746 119.978,-58.3619 114.447,-49.3249 110.019,-54.746"/>
</g>
<!-- Node3 -->
<g id="node5" class="node"><title>Node3</title>
<a xlink:href="MojDbLevelFactory_8cpp.htm" target="_top" xlink:title="MojDbLevelFactory.cpp">
<polygon fill="white" stroke="black" points="141.5,-0.5 141.5,-21.5 268.5,-21.5 268.5,-0.5 141.5,-0.5"/>
<text text-anchor="middle" x="205" y="-8.5" font-family="Helvetica,sans-Serif" font-size="10.00">MojDbLevelFactory.cpp</text>
</a>
</g>
<!-- Node1&#45;&gt;Node3 -->
<g id="edge4" class="edge"><title>Node1&#45;&gt;Node3</title>
<path fill="none" stroke="midnightblue" d="M154.134,-51.9753C166.354,-42.1315 181.346,-30.0545 191.878,-21.5707"/>
<polygon fill="midnightblue" stroke="midnightblue" points="151.798,-49.3629 146.206,-58.3619 156.189,-54.8142 151.798,-49.3629"/>
</g>
</g>
</svg>
