<?xml version="1.0" encoding="UTF-8" standalone="no"?>
<!DOCTYPE svg PUBLIC "-//W3C//DTD SVG 1.1//EN"
 "http://www.w3.org/Graphics/SVG/1.1/DTD/svg11.dtd">
<!-- Generated by graphviz version 2.26.3 (20100126.1600)
 -->
<!-- Title: MojDbBerkeleyEngine.cpp Pages: 1 -->
<svg width="2828pt" height="972pt"
 viewBox="0.00 0.00 2828.00 972.00" xmlns="http://www.w3.org/2000/svg" xmlns:xlink="http://www.w3.org/1999/xlink">
<g id="graph1" class="graph" transform="scale(1 1) rotate(0) translate(4 968)">
<title>MojDbBerkeleyEngine.cpp</title>
<polygon fill="white" stroke="white" points="-4,5 -4,-968 2825,-968 2825,5 -4,5"/>
<!-- Node1 -->
<g id="node1" class="node"><title>Node1</title>
<polygon fill="#bfbfbf" stroke="black" points="746,-942.5 746,-963.5 886,-963.5 886,-942.5 746,-942.5"/>
<text text-anchor="middle" x="816" y="-950.5" font-family="Helvetica,sans-Serif" font-size="10.00">MojDbBerkeleyEngine.cpp</text>
</g>
<!-- Node2 -->
<g id="node3" class="node"><title>Node2</title>
<a xlink:href="MojDbBerkeleyEngine_8h.htm" target="_top" xlink:title="db&#45;luna/MojDbBerkeleyEngine.h">
<polygon fill="white" stroke="black" points="733,-826.5 733,-847.5 899,-847.5 899,-826.5 733,-826.5"/>
<text text-anchor="middle" x="816" y="-834.5" font-family="Helvetica,sans-Serif" font-size="10.00">db&#45;luna/MojDbBerkeleyEngine.h</text>
</a>
</g>
<!-- Node1&#45;&gt;Node2 -->
<g id="edge2" class="edge"><title>Node1&#45;&gt;Node2</title>
<path fill="none" stroke="midnightblue" d="M816,-942.295C816,-923.131 816,-882.654 816,-857.843"/>
<polygon fill="midnightblue" stroke="midnightblue" points="819.5,-857.679 816,-847.679 812.5,-857.679 819.5,-857.679"/>
</g>
<!-- Node6 -->
<g id="node11" class="node"><title>Node6</title>
<a xlink:href="MojDbObjectHeader_8h.htm" target="_top" xlink:title="db/MojDbObjectHeader.h">
<polygon fill="white" stroke="black" points="394,-768.5 394,-789.5 528,-789.5 528,-768.5 394,-768.5"/>
<text text-anchor="middle" x="461" y="-776.5" font-family="Helvetica,sans-Serif" font-size="10.00">db/MojDbObjectHeader.h</text>
</a>
</g>
<!-- Node1&#45;&gt;Node6 -->
<g id="edge220" class="edge"><title>Node1&#45;&gt;Node6</title>
<path fill="none" stroke="midnightblue" d="M745.796,-947.425C675.948,-940.75 574.612,-927.669 542,-906 502.814,-879.963 478.701,-827.8 467.829,-799.09"/>
<polygon fill="midnightblue" stroke="midnightblue" points="471.112,-797.879 464.419,-789.666 464.53,-800.26 471.112,-797.879"/>
</g>
<!-- Node13 -->
<g id="node30" class="node"><title>Node13</title>
<a xlink:href="MojString_8h.htm" target="_top" xlink:title="core/MojString.h">
<polygon fill="white" stroke="black" points="1193,-174.5 1193,-195.5 1287,-195.5 1287,-174.5 1193,-174.5"/>
<text text-anchor="middle" x="1240" y="-182.5" font-family="Helvetica,sans-Serif" font-size="10.00">core/MojString.h</text>
</a>
</g>
<!-- Node1&#45;&gt;Node13 -->
<g id="edge316" class="edge"><title>Node1&#45;&gt;Node13</title>
<path fill="none" stroke="midnightblue" d="M745.758,-945.65C680.719,-934.496 594,-906.578 594,-837 594,-837 594,-837 594,-779 594,-696.39 578.6,-669.558 612,-594 637.444,-536.44 707,-551.932 707,-489 707,-489 707,-489 707,-373 707,-334.331 730.036,-328.444 760,-304 788.34,-280.881 872.991,-242.586 908,-232 1022.19,-197.469 1056.04,-213.808 1174,-196 1176.85,-195.569 1179.77,-195.118 1182.72,-194.656"/>
<polygon fill="midnightblue" stroke="midnightblue" points="1183.48,-198.08 1192.8,-193.047 1182.37,-191.167 1183.48,-198.08"/>
</g>
<!-- Node16 -->
<g id="node44" class="node"><title>Node16</title>
<a xlink:href="MojObjectSerialization_8h.htm" target="_top" xlink:title="core/MojObjectSerialization.h">
<polygon fill="white" stroke="black" points="98,-710.5 98,-731.5 252,-731.5 252,-710.5 98,-710.5"/>
<text text-anchor="middle" x="175" y="-718.5" font-family="Helvetica,sans-Serif" font-size="10.00">core/MojObjectSerialization.h</text>
</a>
</g>
<!-- Node1&#45;&gt;Node16 -->
<g id="edge314" class="edge"><title>Node1&#45;&gt;Node16</title>
<path fill="none" stroke="midnightblue" d="M745.708,-948.935C683.436,-943.732 590.758,-932.032 514,-906 387.051,-862.946 251.622,-774.301 198.391,-737.539"/>
<polygon fill="midnightblue" stroke="midnightblue" points="200.203,-734.536 189.995,-731.698 196.206,-740.282 200.203,-734.536"/>
</g>
<!-- Node20 -->
<g id="node59" class="node"><title>Node20</title>
<a xlink:href="MojTokenSet_8h.htm" target="_top" xlink:title="core/MojTokenSet.h">
<polygon fill="white" stroke="black" points="400,-652.5 400,-673.5 512,-673.5 512,-652.5 400,-652.5"/>
<text text-anchor="middle" x="456" y="-660.5" font-family="Helvetica,sans-Serif" font-size="10.00">core/MojTokenSet.h</text>
</a>
</g>
<!-- Node1&#45;&gt;Node20 -->
<g id="edge318" class="edge"><title>Node1&#45;&gt;Node20</title>
<path fill="none" stroke="midnightblue" d="M745.893,-946.72C685.522,-939.964 604.38,-927.225 580,-906 555.511,-884.681 556,-869.469 556,-837 556,-837 556,-837 556,-779 556,-734.663 513.572,-698.869 483.989,-679.3"/>
<polygon fill="midnightblue" stroke="midnightblue" points="485.596,-676.174 475.281,-673.756 481.837,-682.079 485.596,-676.174"/>
</g>
<!-- Node28 -->
<g id="node87" class="node"><title>Node28</title>
<a xlink:href="MojDbQueryPlan_8h.htm" target="_top" xlink:title="db/MojDbQueryPlan.h">
<polygon fill="white" stroke="black" points="1045.5,-420.5 1045.5,-441.5 1164.5,-441.5 1164.5,-420.5 1045.5,-420.5"/>
<text text-anchor="middle" x="1105" y="-428.5" font-family="Helvetica,sans-Serif" font-size="10.00">db/MojDbQueryPlan.h</text>
</a>
</g>
<!-- Node1&#45;&gt;Node28 -->
<g id="edge222" class="edge"><title>Node1&#45;&gt;Node28</title>
<path fill="none" stroke="midnightblue" d="M760.295,-942.439C706.139,-928.564 632,-898.364 632,-837 632,-837 632,-837 632,-779 632,-747.192 630.602,-734.407 651,-710 658.744,-700.734 836.609,-622.153 847,-616 939.509,-561.22 1040.83,-482.513 1083.83,-448.146"/>
<polygon fill="midnightblue" stroke="midnightblue" points="1086.25,-450.686 1091.86,-441.696 1081.87,-445.227 1086.25,-450.686"/>
</g>
<!-- Node36 -->
<g id="node134" class="node"><title>Node36</title>
<a xlink:href="MojDbBerkeleyFactory_8h.htm" target="_top" xlink:title="db&#45;luna/MojDbBerkeleyFactory.h">
<polygon fill="white" stroke="black" points="2522,-594.5 2522,-615.5 2690,-615.5 2690,-594.5 2522,-594.5"/>
<text text-anchor="middle" x="2606" y="-602.5" font-family="Helvetica,sans-Serif" font-size="10.00">db&#45;luna/MojDbBerkeleyFactory.h</text>
</a>
</g>
<!-- Node1&#45;&gt;Node36 -->
<g id="edge196" class="edge"><title>Node1&#45;&gt;Node36</title>
<path fill="none" stroke="midnightblue" d="M886.073,-952.094C1212.59,-947.424 2569,-922.854 2569,-837 2569,-837 2569,-837 2569,-721 2569,-685.804 2584.65,-647.322 2595.59,-624.716"/>
<polygon fill="midnightblue" stroke="midnightblue" points="2598.86,-626.022 2600.22,-615.515 2592.6,-622.879 2598.86,-626.022"/>
</g>
<!-- Node37 -->
<g id="node138" class="node"><title>Node37</title>
<a xlink:href="MojDbBerkeleyQuery_8h.htm" target="_top" xlink:title="db&#45;luna/MojDbBerkeleyQuery.h">
<polygon fill="white" stroke="black" points="1900.5,-884.5 1900.5,-905.5 2061.5,-905.5 2061.5,-884.5 1900.5,-884.5"/>
<text text-anchor="middle" x="1981" y="-892.5" font-family="Helvetica,sans-Serif" font-size="10.00">db&#45;luna/MojDbBerkeleyQuery.h</text>
</a>
</g>
<!-- Node1&#45;&gt;Node37 -->
<g id="edge202" class="edge"><title>Node1&#45;&gt;Node37</title>
<path fill="none" stroke="midnightblue" d="M886.252,-949.502C1087.44,-939.486 1665.69,-910.698 1890.28,-899.516"/>
<polygon fill="midnightblue" stroke="midnightblue" points="1890.57,-903.007 1900.38,-899.014 1890.22,-896.015 1890.57,-903.007"/>
</g>
<!-- Node40 -->
<g id="node152" class="node"><title>Node40</title>
<a xlink:href="MojDb_8h.htm" target="_top" xlink:title="db/MojDb.h">
<polygon fill="white" stroke="black" points="1436.5,-768.5 1436.5,-789.5 1505.5,-789.5 1505.5,-768.5 1436.5,-768.5"/>
<text text-anchor="middle" x="1471" y="-776.5" font-family="Helvetica,sans-Serif" font-size="10.00">db/MojDb.h</text>
</a>
</g>
<!-- Node1&#45;&gt;Node40 -->
<g id="edge224" class="edge"><title>Node1&#45;&gt;Node40</title>
<path fill="none" stroke="midnightblue" d="M855.987,-942.377C971.615,-911.661 1305.8,-822.886 1426.69,-790.771"/>
<polygon fill="midnightblue" stroke="midnightblue" points="1427.6,-794.15 1436.37,-788.2 1425.81,-787.384 1427.6,-794.15"/>
</g>
<!-- Node48 -->
<g id="node201" class="node"><title>Node48</title>
<a xlink:href="MojObjectBuilder_8h.htm" target="_top" xlink:title="core/MojObjectBuilder.h">
<polygon fill="white" stroke="black" points="2560,-304.5 2560,-325.5 2688,-325.5 2688,-304.5 2560,-304.5"/>
<text text-anchor="middle" x="2624" y="-312.5" font-family="Helvetica,sans-Serif" font-size="10.00">core/MojObjectBuilder.h</text>
</a>
</g>
<!-- Node1&#45;&gt;Node48 -->
<g id="edge306" class="edge"><title>Node1&#45;&gt;Node48</title>
<path fill="none" stroke="midnightblue" d="M886.233,-952.463C1229.92,-949.382 2718,-930.638 2718,-837 2718,-837 2718,-837 2718,-431 2718,-387.729 2678.03,-351.566 2650.22,-331.64"/>
<polygon fill="midnightblue" stroke="midnightblue" points="2651.9,-328.549 2641.68,-325.753 2647.93,-334.311 2651.9,-328.549"/>
</g>
<!-- Node50 -->
<g id="node210" class="node"><title>Node50</title>
<polygon fill="white" stroke="#bfbfbf" points="2746,-884.5 2746,-905.5 2820,-905.5 2820,-884.5 2746,-884.5"/>
<text text-anchor="middle" x="2783" y="-892.5" font-family="Helvetica,sans-Serif" font-size="10.00">sys/statvfs.h</text>
</g>
<!-- Node1&#45;&gt;Node50 -->
<g id="edge320" class="edge"><title>Node1&#45;&gt;Node50</title>
<path fill="none" stroke="midnightblue" d="M886.113,-952.062C1209.16,-947.632 2546.3,-928.105 2732,-906 2733.26,-905.849 2734.54,-905.682 2735.83,-905.501"/>
<polygon fill="midnightblue" stroke="midnightblue" points="2736.51,-908.937 2745.81,-903.865 2735.38,-902.029 2736.51,-908.937"/>
</g>
<!-- Node3 -->
<g id="node5" class="node"><title>Node3</title>
<polygon fill="white" stroke="#bfbfbf" points="798,-768.5 798,-789.5 834,-789.5 834,-768.5 798,-768.5"/>
<text text-anchor="middle" x="816" y="-776.5" font-family="Helvetica,sans-Serif" font-size="10.00">db.h</text>
</g>
<!-- Node2&#45;&gt;Node3 -->
<g id="edge4" class="edge"><title>Node2&#45;&gt;Node3</title>
<path fill="none" stroke="midnightblue" d="M816,-826.362C816,-818.922 816,-808.743 816,-799.728"/>
<polygon fill="midnightblue" stroke="midnightblue" points="819.5,-799.571 816,-789.571 812.5,-799.571 819.5,-799.571"/>
</g>
<!-- Node4 -->
<g id="node7" class="node"><title>Node4</title>
<a xlink:href="MojDbDefs_8h.htm" target="_top" xlink:title="db/MojDbDefs.h">
<polygon fill="white" stroke="black" points="2120.5,-239.5 2120.5,-260.5 2211.5,-260.5 2211.5,-239.5 2120.5,-239.5"/>
<text text-anchor="middle" x="2166" y="-247.5" font-family="Helvetica,sans-Serif" font-size="10.00">db/MojDbDefs.h</text>
</a>
</g>
<!-- Node2&#45;&gt;Node4 -->
<g id="edge6" class="edge"><title>Node2&#45;&gt;Node4</title>
<path fill="none" stroke="midnightblue" d="M899.209,-834.627C1204.31,-825.387 2244,-788.916 2244,-721 2244,-721 2244,-721 2244,-663 2244,-524.691 2357.5,-495.937 2323,-362 2315.66,-333.49 2312.8,-323.791 2291,-304 2270.22,-285.131 2241.82,-272.149 2217.35,-263.652"/>
<polygon fill="midnightblue" stroke="midnightblue" points="2218.43,-260.323 2207.84,-260.502 2216.23,-266.968 2218.43,-260.323"/>
</g>
<!-- Node2&#45;&gt;Node6 -->
<g id="edge10" class="edge"><title>Node2&#45;&gt;Node6</title>
<path fill="none" stroke="midnightblue" d="M751.712,-826.497C690.831,-816.55 599.453,-801.621 535.439,-791.162"/>
<polygon fill="midnightblue" stroke="midnightblue" points="535.842,-787.681 525.408,-789.523 534.713,-794.59 535.842,-787.681"/>
</g>
<!-- Node18 -->
<g id="node50" class="node"><title>Node18</title>
<a xlink:href="MojBuffer_8h.htm" target="_top" xlink:title="core/MojBuffer.h">
<polygon fill="white" stroke="black" points="485,-174.5 485,-195.5 579,-195.5 579,-174.5 485,-174.5"/>
<text text-anchor="middle" x="532" y="-182.5" font-family="Helvetica,sans-Serif" font-size="10.00">core/MojBuffer.h</text>
</a>
</g>
<!-- Node2&#45;&gt;Node18 -->
<g id="edge190" class="edge"><title>Node2&#45;&gt;Node18</title>
<path fill="none" stroke="midnightblue" d="M809.538,-826.306C803.91,-816.865 795.636,-802.671 789,-790 770.738,-755.13 780.98,-735.507 751,-710 707.292,-672.814 678.707,-698.893 627,-674 498.562,-612.166 365,-631.548 365,-489 365,-489 365,-489 365,-373 365,-336.528 422.928,-257.504 449,-232 462.656,-218.642 480.859,-207.779 496.737,-199.875"/>
<polygon fill="midnightblue" stroke="midnightblue" points="498.248,-203.032 505.766,-195.566 495.233,-196.714 498.248,-203.032"/>
</g>
<!-- Node26 -->
<g id="node81" class="node"><title>Node26</title>
<a xlink:href="MojDbStorageEngine_8h.htm" target="_top" xlink:title="db/MojDbStorageEngine.h">
<polygon fill="white" stroke="black" points="1301,-536.5 1301,-557.5 1441,-557.5 1441,-536.5 1301,-536.5"/>
<text text-anchor="middle" x="1371" y="-544.5" font-family="Helvetica,sans-Serif" font-size="10.00">db/MojDbStorageEngine.h</text>
</a>
</g>
<!-- Node2&#45;&gt;Node26 -->
<g id="edge188" class="edge"><title>Node2&#45;&gt;Node26</title>
<path fill="none" stroke="midnightblue" d="M821.986,-826.148C835.885,-801.902 872.716,-742.885 919,-710 1039.23,-624.575 1208.99,-579.396 1302.52,-559.62"/>
<polygon fill="midnightblue" stroke="midnightblue" points="1303.35,-563.021 1312.43,-557.559 1301.93,-556.168 1303.35,-563.021"/>
</g>
<!-- Node35 -->
<g id="node131" class="node"><title>Node35</title>
<a xlink:href="MojFile_8h.htm" target="_top" xlink:title="core/MojFile.h">
<polygon fill="white" stroke="black" points="659.5,-710.5 659.5,-731.5 742.5,-731.5 742.5,-710.5 659.5,-710.5"/>
<text text-anchor="middle" x="701" y="-718.5" font-family="Helvetica,sans-Serif" font-size="10.00">core/MojFile.h</text>
</a>
</g>
<!-- Node2&#45;&gt;Node35 -->
<g id="edge192" class="edge"><title>Node2&#45;&gt;Node35</title>
<path fill="none" stroke="midnightblue" d="M800.399,-826.325C787.787,-817.343 769.906,-803.789 756,-790 740.325,-774.458 724.871,-754.551 714.355,-740.118"/>
<polygon fill="midnightblue" stroke="midnightblue" points="717.156,-738.018 708.488,-731.926 711.466,-742.094 717.156,-738.018"/>
</g>
<!-- Node5 -->
<g id="node9" class="node"><title>Node5</title>
<a xlink:href="MojCoreDefs_8h.htm" target="_top" xlink:title="core/MojCoreDefs.h">
<polygon fill="white" stroke="red" points="875.5,-0.5 875.5,-21.5 986.5,-21.5 986.5,-0.5 875.5,-0.5"/>
<text text-anchor="middle" x="931" y="-8.5" font-family="Helvetica,sans-Serif" font-size="10.00">core/MojCoreDefs.h</text>
</a>
</g>
<!-- Node4&#45;&gt;Node5 -->
<g id="edge8" class="edge"><title>Node4&#45;&gt;Node5</title>
<path fill="none" stroke="midnightblue" d="M2159.07,-239.467C2136,-205.478 2057.85,-98.5626 1962,-58 1873.57,-20.5773 1210.33,-12.8721 996.926,-11.3556"/>
<polygon fill="midnightblue" stroke="midnightblue" points="996.832,-7.85498 986.808,-11.286 996.784,-14.8548 996.832,-7.85498"/>
</g>
<!-- Node7 -->
<g id="node13" class="node"><title>Node7</title>
<a xlink:href="MojNoCopy_8h.htm" target="_top" xlink:title="core/MojNoCopy.h">
<polygon fill="white" stroke="black" points="249,-58.5 249,-79.5 353,-79.5 353,-58.5 249,-58.5"/>
<text text-anchor="middle" x="301" y="-66.5" font-family="Helvetica,sans-Serif" font-size="10.00">core/MojNoCopy.h</text>
</a>
</g>
<!-- Node6&#45;&gt;Node7 -->
<g id="edge12" class="edge"><title>Node6&#45;&gt;Node7</title>
<path fill="none" stroke="midnightblue" d="M439.317,-768.306C385.663,-740.145 251,-658.372 251,-547 251,-547 251,-547 251,-373 251,-316.847 284.635,-148.303 296.731,-89.506"/>
<polygon fill="midnightblue" stroke="midnightblue" points="300.19,-90.0663 298.787,-79.5647 293.335,-88.6488 300.19,-90.0663"/>
</g>
<!-- Node8 -->
<g id="node15" class="node"><title>Node8</title>
<a xlink:href="MojObject_8h.htm" target="_top" xlink:title="core/MojObject.h">
<polygon fill="white" stroke="black" points="1036,-239.5 1036,-260.5 1132,-260.5 1132,-239.5 1036,-239.5"/>
<text text-anchor="middle" x="1084" y="-247.5" font-family="Helvetica,sans-Serif" font-size="10.00">core/MojObject.h</text>
</a>
</g>
<!-- Node6&#45;&gt;Node8 -->
<g id="edge14" class="edge"><title>Node6&#45;&gt;Node8</title>
<path fill="none" stroke="midnightblue" d="M483.094,-768.382C550.714,-735.773 751.75,-637.954 776,-616 898.642,-504.971 856.219,-414.876 979,-304 997.998,-286.844 1023.45,-273.577 1044.53,-264.486"/>
<polygon fill="midnightblue" stroke="midnightblue" points="1045.98,-267.673 1053.87,-260.604 1043.29,-261.209 1045.98,-267.673"/>
</g>
<!-- Node6&#45;&gt;Node16 -->
<g id="edge56" class="edge"><title>Node6&#45;&gt;Node16</title>
<path fill="none" stroke="midnightblue" d="M409.208,-768.497C360.765,-758.673 288.357,-743.988 236.89,-733.551"/>
<polygon fill="midnightblue" stroke="midnightblue" points="237.386,-730.08 226.89,-731.523 235.994,-736.941 237.386,-730.08"/>
</g>
<!-- Node8&#45;&gt;Node5 -->
<g id="edge16" class="edge"><title>Node8&#45;&gt;Node5</title>
<path fill="none" stroke="midnightblue" d="M1035.74,-240.234C984.652,-226.966 906.934,-197.695 874,-138 853.353,-100.575 888.439,-54.2458 912.106,-29.1776"/>
<polygon fill="midnightblue" stroke="midnightblue" points="914.81,-31.4187 919.304,-21.8239 909.807,-26.5223 914.81,-31.4187"/>
</g>
<!-- Node9 -->
<g id="node18" class="node"><title>Node9</title>
<a xlink:href="MojDecimal_8h.htm" target="_top" xlink:title="core/MojDecimal.h">
<polygon fill="white" stroke="black" points="1033,-174.5 1033,-195.5 1137,-195.5 1137,-174.5 1033,-174.5"/>
<text text-anchor="middle" x="1085" y="-182.5" font-family="Helvetica,sans-Serif" font-size="10.00">core/MojDecimal.h</text>
</a>
</g>
<!-- Node8&#45;&gt;Node9 -->
<g id="edge18" class="edge"><title>Node8&#45;&gt;Node9</title>
<path fill="none" stroke="midnightblue" d="M1084.17,-239.267C1084.3,-230.18 1084.51,-216.892 1084.68,-205.74"/>
<polygon fill="midnightblue" stroke="midnightblue" points="1088.18,-205.586 1084.84,-195.534 1081.18,-205.479 1088.18,-205.586"/>
</g>
<!-- Node11 -->
<g id="node24" class="node"><title>Node11</title>
<a xlink:href="MojMap_8h.htm" target="_top" xlink:title="core/MojMap.h">
<polygon fill="white" stroke="red" points="1380.5,-174.5 1380.5,-195.5 1467.5,-195.5 1467.5,-174.5 1380.5,-174.5"/>
<text text-anchor="middle" x="1424" y="-182.5" font-family="Helvetica,sans-Serif" font-size="10.00">core/MojMap.h</text>
</a>
</g>
<!-- Node8&#45;&gt;Node11 -->
<g id="edge26" class="edge"><title>Node8&#45;&gt;Node11</title>
<path fill="none" stroke="midnightblue" d="M1132.35,-240.756C1195.26,-228.729 1304.85,-207.779 1370.29,-195.269"/>
<polygon fill="midnightblue" stroke="midnightblue" points="1371.23,-198.652 1380.4,-193.336 1369.92,-191.776 1371.23,-198.652"/>
</g>
<!-- Node8&#45;&gt;Node13 -->
<g id="edge34" class="edge"><title>Node8&#45;&gt;Node13</title>
<path fill="none" stroke="midnightblue" d="M1109.41,-239.412C1135.47,-228.552 1176.2,-211.583 1205.24,-199.484"/>
<polygon fill="midnightblue" stroke="midnightblue" points="1206.71,-202.66 1214.6,-195.584 1204.02,-196.199 1206.71,-202.66"/>
</g>
<!-- Node15 -->
<g id="node39" class="node"><title>Node15</title>
<a xlink:href="MojVector_8h.htm" target="_top" xlink:title="core/MojVector.h">
<polygon fill="white" stroke="red" points="882.5,-116.5 882.5,-137.5 979.5,-137.5 979.5,-116.5 882.5,-116.5"/>
<text text-anchor="middle" x="931" y="-124.5" font-family="Helvetica,sans-Serif" font-size="10.00">core/MojVector.h</text>
</a>
</g>
<!-- Node8&#45;&gt;Node15 -->
<g id="edge54" class="edge"><title>Node8&#45;&gt;Node15</title>
<path fill="none" stroke="midnightblue" d="M1061.26,-239.455C1041.56,-229.724 1012.88,-214.076 991,-196 973.164,-181.262 956.188,-160.94 944.875,-146.169"/>
<polygon fill="midnightblue" stroke="midnightblue" points="947.399,-143.7 938.606,-137.79 941.794,-147.893 947.399,-143.7"/>
</g>
<!-- Node9&#45;&gt;Node5 -->
<g id="edge20" class="edge"><title>Node9&#45;&gt;Node5</title>
<path fill="none" stroke="midnightblue" d="M1069.56,-174.391C1057.11,-165.447 1039.49,-151.912 1026,-138 992.192,-103.147 959.883,-56.0487 943.05,-30.1129"/>
<polygon fill="midnightblue" stroke="midnightblue" points="945.92,-28.1042 937.574,-21.5769 940.028,-31.8838 945.92,-28.1042"/>
</g>
<!-- Node10 -->
<g id="node21" class="node"><title>Node10</title>
<a xlink:href="MojHasher_8h.htm" target="_top" xlink:title="core/MojHasher.h">
<polygon fill="white" stroke="red" points="1034.5,-116.5 1034.5,-137.5 1135.5,-137.5 1135.5,-116.5 1034.5,-116.5"/>
<text text-anchor="middle" x="1085" y="-124.5" font-family="Helvetica,sans-Serif" font-size="10.00">core/MojHasher.h</text>
</a>
</g>
<!-- Node9&#45;&gt;Node10 -->
<g id="edge22" class="edge"><title>Node9&#45;&gt;Node10</title>
<path fill="none" stroke="midnightblue" d="M1085,-174.362C1085,-166.922 1085,-156.743 1085,-147.728"/>
<polygon fill="midnightblue" stroke="midnightblue" points="1088.5,-147.571 1085,-137.571 1081.5,-147.571 1088.5,-147.571"/>
</g>
<!-- Node10&#45;&gt;Node5 -->
<g id="edge24" class="edge"><title>Node10&#45;&gt;Node5</title>
<path fill="none" stroke="midnightblue" d="M1076.85,-116.109C1065.53,-101.52 1043.86,-75.4515 1021,-58 1004.21,-45.183 983.427,-34.0683 966.06,-25.8699"/>
<polygon fill="midnightblue" stroke="midnightblue" points="967.36,-22.6152 956.811,-21.6229 964.438,-28.9766 967.36,-22.6152"/>
</g>
<!-- Node11&#45;&gt;Node5 -->
<g id="edge28" class="edge"><title>Node11&#45;&gt;Node5</title>
<path fill="none" stroke="midnightblue" d="M1422.73,-174.261C1419.15,-149.176 1406.5,-86.6882 1367,-58 1337.7,-36.7198 1111.13,-21.1104 996.696,-14.4966"/>
<polygon fill="midnightblue" stroke="midnightblue" points="996.833,-10.9988 986.65,-13.9224 996.434,-17.9874 996.833,-10.9988"/>
</g>
<!-- Node12 -->
<g id="node27" class="node"><title>Node12</title>
<a xlink:href="MojComp_8h.htm" target="_top" xlink:title="core/MojComp.h">
<polygon fill="white" stroke="black" points="1192,-58.5 1192,-79.5 1286,-79.5 1286,-58.5 1192,-58.5"/>
<text text-anchor="middle" x="1239" y="-66.5" font-family="Helvetica,sans-Serif" font-size="10.00">core/MojComp.h</text>
</a>
</g>
<!-- Node11&#45;&gt;Node12 -->
<g id="edge30" class="edge"><title>Node11&#45;&gt;Node12</title>
<path fill="none" stroke="midnightblue" d="M1406.93,-174.295C1374.22,-153.785 1302.57,-108.859 1264.29,-84.8575"/>
<polygon fill="midnightblue" stroke="midnightblue" points="1266.1,-81.8587 1255.76,-79.5117 1262.38,-87.7893 1266.1,-81.8587"/>
</g>
<!-- Node12&#45;&gt;Node5 -->
<g id="edge32" class="edge"><title>Node12&#45;&gt;Node5</title>
<path fill="none" stroke="midnightblue" d="M1191.89,-60.1279C1139.72,-50.3036 1055.25,-34.3978 996.621,-23.3572"/>
<polygon fill="midnightblue" stroke="midnightblue" points="997.191,-19.9031 986.716,-21.492 995.896,-26.7822 997.191,-19.9031"/>
</g>
<!-- Node13&#45;&gt;Node5 -->
<g id="edge36" class="edge"><title>Node13&#45;&gt;Node5</title>
<path fill="none" stroke="midnightblue" d="M1225.95,-174.331C1207.47,-160.435 1173.85,-135.603 1144,-116 1102.01,-88.4286 1091.97,-80.3864 1047,-58 1021.98,-45.5437 992.818,-33.7395 969.993,-25.0767"/>
<polygon fill="midnightblue" stroke="midnightblue" points="971.222,-21.7994 960.629,-21.5636 968.763,-28.3533 971.222,-21.7994"/>
</g>
<!-- Node13&#45;&gt;Node10 -->
<g id="edge46" class="edge"><title>Node13&#45;&gt;Node10</title>
<path fill="none" stroke="midnightblue" d="M1211.93,-174.497C1186.99,-165.164 1150.33,-151.445 1122.81,-141.147"/>
<polygon fill="midnightblue" stroke="midnightblue" points="1123.71,-137.75 1113.12,-137.523 1121.26,-144.306 1123.71,-137.75"/>
</g>
<!-- Node13&#45;&gt;Node12 -->
<g id="edge44" class="edge"><title>Node13&#45;&gt;Node12</title>
<path fill="none" stroke="midnightblue" d="M1239.91,-174.295C1239.74,-155.131 1239.39,-114.654 1239.18,-89.8434"/>
<polygon fill="midnightblue" stroke="midnightblue" points="1242.68,-89.6486 1239.09,-79.6792 1235.68,-89.709 1242.68,-89.6486"/>
</g>
<!-- Node14 -->
<g id="node33" class="node"><title>Node14</title>
<a xlink:href="MojAutoPtr_8h.htm" target="_top" xlink:title="core/MojAutoPtr.h">
<polygon fill="white" stroke="red" points="481.5,-116.5 481.5,-137.5 582.5,-137.5 582.5,-116.5 481.5,-116.5"/>
<text text-anchor="middle" x="532" y="-124.5" font-family="Helvetica,sans-Serif" font-size="10.00">core/MojAutoPtr.h</text>
</a>
</g>
<!-- Node13&#45;&gt;Node14 -->
<g id="edge38" class="edge"><title>Node13&#45;&gt;Node14</title>
<path fill="none" stroke="midnightblue" d="M1192.7,-179.09C1177.77,-177.326 1161.21,-175.471 1146,-174 943.692,-154.428 703.236,-138.004 592.87,-130.848"/>
<polygon fill="midnightblue" stroke="midnightblue" points="592.806,-127.336 582.601,-130.184 592.354,-134.322 592.806,-127.336"/>
</g>
<!-- Node13&#45;&gt;Node15 -->
<g id="edge48" class="edge"><title>Node13&#45;&gt;Node15</title>
<path fill="none" stroke="midnightblue" d="M1192.73,-176.128C1138.16,-165.884 1048.35,-149.027 989.437,-137.969"/>
<polygon fill="midnightblue" stroke="midnightblue" points="990.01,-134.515 979.536,-136.11 988.718,-141.395 990.01,-134.515"/>
</g>
<!-- Node14&#45;&gt;Node5 -->
<g id="edge40" class="edge"><title>Node14&#45;&gt;Node5</title>
<path fill="none" stroke="midnightblue" d="M541.085,-116.266C555.019,-100.599 583.297,-71.8349 614,-58 657.569,-38.3677 785.41,-23.9196 864.803,-16.5384"/>
<polygon fill="midnightblue" stroke="midnightblue" points="865.552,-19.9845 875.192,-15.5871 864.914,-13.0137 865.552,-19.9845"/>
</g>
<!-- Node14&#45;&gt;Node7 -->
<g id="edge42" class="edge"><title>Node14&#45;&gt;Node7</title>
<path fill="none" stroke="midnightblue" d="M490.168,-116.497C451.612,-106.816 394.259,-92.4156 352.818,-82.0105"/>
<polygon fill="midnightblue" stroke="midnightblue" points="353.462,-78.5637 342.911,-79.5231 351.757,-85.353 353.462,-78.5637"/>
</g>
<!-- Node15&#45;&gt;Node5 -->
<g id="edge50" class="edge"><title>Node15&#45;&gt;Node5</title>
<path fill="none" stroke="midnightblue" d="M931,-116.295C931,-97.1314 931,-56.654 931,-31.8434"/>
<polygon fill="midnightblue" stroke="midnightblue" points="934.5,-31.6792 931,-21.6792 927.5,-31.6792 934.5,-31.6792"/>
</g>
<!-- Node15&#45;&gt;Node12 -->
<g id="edge52" class="edge"><title>Node15&#45;&gt;Node12</title>
<path fill="none" stroke="midnightblue" d="M979.804,-117.81C1034.69,-107.474 1123.72,-90.7079 1181.82,-79.767"/>
<polygon fill="midnightblue" stroke="midnightblue" points="1182.76,-83.1522 1191.94,-77.862 1181.46,-76.2731 1182.76,-83.1522"/>
</g>
<!-- Node16&#45;&gt;Node5 -->
<g id="edge58" class="edge"><title>Node16&#45;&gt;Node5</title>
<path fill="none" stroke="midnightblue" d="M124.852,-710.376C73.1399,-696.133 0,-665.326 0,-605 0,-605 0,-605 0,-127 0,-87.2228 21.4827,-75.9094 57,-58 128.445,-21.9743 673.957,-13.4138 865.093,-11.5109"/>
<polygon fill="midnightblue" stroke="midnightblue" points="865.313,-15.009 875.278,-11.4125 865.245,-8.00936 865.313,-15.009"/>
</g>
<!-- Node16&#45;&gt;Node8 -->
<g id="edge76" class="edge"><title>Node16&#45;&gt;Node8</title>
<path fill="none" stroke="midnightblue" d="M199.4,-710.432C258.218,-683.124 403,-604.204 403,-489 403,-489 403,-489 403,-373 403,-326.382 439.129,-322.313 482,-304 578.89,-262.613 894.195,-252.928 1025.64,-250.676"/>
<polygon fill="midnightblue" stroke="midnightblue" points="1025.96,-254.172 1035.91,-250.509 1025.85,-247.173 1025.96,-254.172"/>
</g>
<!-- Node17 -->
<g id="node47" class="node"><title>Node17</title>
<a xlink:href="MojDataSerialization_8h.htm" target="_top" xlink:title="core/MojDataSerialization.h">
<polygon fill="white" stroke="black" points="104,-239.5 104,-260.5 250,-260.5 250,-239.5 104,-239.5"/>
<text text-anchor="middle" x="177" y="-247.5" font-family="Helvetica,sans-Serif" font-size="10.00">core/MojDataSerialization.h</text>
</a>
</g>
<!-- Node16&#45;&gt;Node17 -->
<g id="edge60" class="edge"><title>Node16&#45;&gt;Node17</title>
<path fill="none" stroke="midnightblue" d="M175,-710.444C175,-690.062 175,-643.868 175,-605 175,-605 175,-605 175,-373 175,-337.048 175.865,-295.192 176.457,-270.743"/>
<polygon fill="midnightblue" stroke="midnightblue" points="179.961,-270.614 176.713,-260.529 172.964,-270.438 179.961,-270.614"/>
</g>
<!-- Node16&#45;&gt;Node20 -->
<g id="edge78" class="edge"><title>Node16&#45;&gt;Node20</title>
<path fill="none" stroke="midnightblue" d="M225.887,-710.497C273.482,-700.673 344.625,-685.988 395.192,-675.551"/>
<polygon fill="midnightblue" stroke="midnightblue" points="395.932,-678.972 405.018,-673.523 394.516,-672.117 395.932,-678.972"/>
</g>
<!-- Node17&#45;&gt;Node5 -->
<g id="edge62" class="edge"><title>Node17&#45;&gt;Node5</title>
<path fill="none" stroke="midnightblue" d="M176.742,-239.451C176.568,-206.324 181.006,-103.864 240,-58 264.452,-38.9906 697.241,-20.132 865.164,-13.4977"/>
<polygon fill="midnightblue" stroke="midnightblue" points="865.502,-16.9872 875.357,-13.0972 865.227,-9.9926 865.502,-16.9872"/>
</g>
<!-- Node17&#45;&gt;Node18 -->
<g id="edge64" class="edge"><title>Node17&#45;&gt;Node18</title>
<path fill="none" stroke="midnightblue" d="M234.431,-239.484C300.558,-227.377 408.537,-207.606 474.635,-195.503"/>
<polygon fill="midnightblue" stroke="midnightblue" points="475.665,-198.873 484.871,-193.629 474.404,-191.988 475.665,-198.873"/>
</g>
<!-- Node18&#45;&gt;Node5 -->
<g id="edge66" class="edge"><title>Node18&#45;&gt;Node5</title>
<path fill="none" stroke="midnightblue" d="M549.601,-174.446C589.145,-151.059 688.497,-94.0929 777,-58 810.255,-44.4383 848.918,-32.6511 879.186,-24.273"/>
<polygon fill="midnightblue" stroke="midnightblue" points="880.383,-27.5744 889.109,-21.5649 878.54,-20.8214 880.383,-27.5744"/>
</g>
<!-- Node18&#45;&gt;Node14 -->
<g id="edge68" class="edge"><title>Node18&#45;&gt;Node14</title>
<path fill="none" stroke="midnightblue" d="M532,-174.362C532,-166.922 532,-156.743 532,-147.728"/>
<polygon fill="midnightblue" stroke="midnightblue" points="535.5,-147.571 532,-137.571 528.5,-147.571 535.5,-147.571"/>
</g>
<!-- Node18&#45;&gt;Node15 -->
<g id="edge74" class="edge"><title>Node18&#45;&gt;Node15</title>
<path fill="none" stroke="midnightblue" d="M579.018,-175.56C582.054,-175.013 585.068,-174.488 588,-174 687.393,-157.443 803.701,-142.415 872.147,-134.014"/>
<polygon fill="midnightblue" stroke="midnightblue" points="872.799,-137.461 882.301,-132.774 871.95,-130.513 872.799,-137.461"/>
</g>
<!-- Node19 -->
<g id="node54" class="node"><title>Node19</title>
<a xlink:href="MojList_8h.htm" target="_top" xlink:title="core/MojList.h">
<polygon fill="white" stroke="red" points="744.5,-116.5 744.5,-137.5 827.5,-137.5 827.5,-116.5 744.5,-116.5"/>
<text text-anchor="middle" x="786" y="-124.5" font-family="Helvetica,sans-Serif" font-size="10.00">core/MojList.h</text>
</a>
</g>
<!-- Node18&#45;&gt;Node19 -->
<g id="edge70" class="edge"><title>Node18&#45;&gt;Node19</title>
<path fill="none" stroke="midnightblue" d="M577.997,-174.497C621.99,-164.451 688.239,-149.323 734.099,-138.851"/>
<polygon fill="midnightblue" stroke="midnightblue" points="735.166,-142.198 744.136,-136.559 733.608,-135.374 735.166,-142.198"/>
</g>
<!-- Node19&#45;&gt;Node5 -->
<g id="edge72" class="edge"><title>Node19&#45;&gt;Node5</title>
<path fill="none" stroke="midnightblue" d="M792.662,-116.022C802.003,-101.334 820.198,-75.1527 841,-58 857.065,-44.7532 877.467,-33.7242 894.782,-25.6869"/>
<polygon fill="midnightblue" stroke="midnightblue" points="896.347,-28.8213 904.038,-21.5343 893.481,-22.4346 896.347,-28.8213"/>
</g>
<!-- Node20&#45;&gt;Node5 -->
<g id="edge80" class="edge"><title>Node20&#45;&gt;Node5</title>
<path fill="none" stroke="midnightblue" d="M428.009,-652.462C390.069,-636.145 327,-600.913 327,-547 327,-547 327,-547 327,-489 327,-395.534 300.217,-362.096 227,-304 179.365,-266.203 137.104,-311.876 95,-268 68.798,-240.695 76,-222.843 76,-185 76,-185 76,-185 76,-127 76,-57.6311 148.994,-75.9526 216,-58 337.354,-25.4861 712.314,-15.0206 865.144,-12.0518"/>
<polygon fill="midnightblue" stroke="midnightblue" points="865.39,-15.5479 875.321,-11.8588 865.257,-8.54911 865.39,-15.5479"/>
</g>
<!-- Node21 -->
<g id="node62" class="node"><title>Node21</title>
<a xlink:href="MojHashMap_8h.htm" target="_top" xlink:title="core/MojHashMap.h">
<polygon fill="white" stroke="black" points="491,-304.5 491,-325.5 603,-325.5 603,-304.5 491,-304.5"/>
<text text-anchor="middle" x="547" y="-312.5" font-family="Helvetica,sans-Serif" font-size="10.00">core/MojHashMap.h</text>
</a>
</g>
<!-- Node20&#45;&gt;Node21 -->
<g id="edge82" class="edge"><title>Node20&#45;&gt;Node21</title>
<path fill="none" stroke="midnightblue" d="M455.456,-652.467C453.818,-612.32 451.848,-465.923 503,-362 508.442,-350.944 517.357,-340.693 525.745,-332.605"/>
<polygon fill="midnightblue" stroke="midnightblue" points="528.152,-335.147 533.185,-325.824 523.437,-329.974 528.152,-335.147"/>
</g>
<!-- Node24 -->
<g id="node73" class="node"><title>Node24</title>
<a xlink:href="MojSharedTokenSet_8h.htm" target="_top" xlink:title="core/MojSharedTokenSet.h">
<polygon fill="white" stroke="black" points="621,-594.5 621,-615.5 767,-615.5 767,-594.5 621,-594.5"/>
<text text-anchor="middle" x="694" y="-602.5" font-family="Helvetica,sans-Serif" font-size="10.00">core/MojSharedTokenSet.h</text>
</a>
</g>
<!-- Node20&#45;&gt;Node24 -->
<g id="edge98" class="edge"><title>Node20&#45;&gt;Node24</title>
<path fill="none" stroke="midnightblue" d="M499.1,-652.497C538.908,-642.795 598.165,-628.355 640.883,-617.945"/>
<polygon fill="midnightblue" stroke="midnightblue" points="641.932,-621.291 650.819,-615.523 640.275,-614.49 641.932,-621.291"/>
</g>
<!-- Node21&#45;&gt;Node5 -->
<g id="edge84" class="edge"><title>Node21&#45;&gt;Node5</title>
<path fill="none" stroke="midnightblue" d="M502.526,-304.466C482.89,-297.461 461.474,-286.101 449,-268 410.192,-211.684 425.505,-165.212 473,-116 509.484,-78.1974 526.167,-74.6379 576,-58 628.186,-40.5763 777.902,-24.7792 865.343,-16.6881"/>
<polygon fill="midnightblue" stroke="midnightblue" points="865.788,-20.1621 875.427,-15.7636 865.149,-13.1913 865.788,-20.1621"/>
</g>
<!-- Node21&#45;&gt;Node12 -->
<g id="edge86" class="edge"><title>Node21&#45;&gt;Node12</title>
<path fill="none" stroke="midnightblue" d="M583.664,-304.456C644.69,-287.225 771.161,-252.864 880,-232 997.167,-209.54 1043.47,-256.991 1146,-196 1188.44,-170.755 1217.3,-117.875 1230.61,-88.9492"/>
<polygon fill="midnightblue" stroke="midnightblue" points="1233.81,-90.3618 1234.66,-79.8013 1227.41,-87.5249 1233.81,-90.3618"/>
</g>
<!-- Node22 -->
<g id="node66" class="node"><title>Node22</title>
<a xlink:href="MojHashBase_8h.htm" target="_top" xlink:title="core/internal/MojHashBase.h">
<polygon fill="white" stroke="black" points="596.5,-174.5 596.5,-195.5 749.5,-195.5 749.5,-174.5 596.5,-174.5"/>
<text text-anchor="middle" x="673" y="-182.5" font-family="Helvetica,sans-Serif" font-size="10.00">core/internal/MojHashBase.h</text>
</a>
</g>
<!-- Node21&#45;&gt;Node22 -->
<g id="edge88" class="edge"><title>Node21&#45;&gt;Node22</title>
<path fill="none" stroke="midnightblue" d="M563.215,-304.479C576.302,-295.586 594.807,-282.077 609,-268 629.133,-248.032 648.47,-221.618 660.52,-204.005"/>
<polygon fill="midnightblue" stroke="midnightblue" points="663.445,-205.929 666.123,-195.678 657.637,-202.021 663.445,-205.929"/>
</g>
<!-- Node23 -->
<g id="node71" class="node"><title>Node23</title>
<a xlink:href="MojHashMapInternal_8h.htm" target="_top" xlink:title="core/internal/MojHashMap\lInternal.h">
<polygon fill="white" stroke="black" points="458,-233 458,-267 600,-267 600,-233 458,-233"/>
<text text-anchor="start" x="466" y="-254" font-family="Helvetica,sans-Serif" font-size="10.00">core/internal/MojHashMap</text>
<text text-anchor="middle" x="529" y="-241" font-family="Helvetica,sans-Serif" font-size="10.00">Internal.h</text>
</a>
</g>
<!-- Node21&#45;&gt;Node23 -->
<g id="edge96" class="edge"><title>Node21&#45;&gt;Node23</title>
<path fill="none" stroke="midnightblue" d="M544.028,-304.267C541.953,-296.773 539.086,-286.423 536.413,-276.769"/>
<polygon fill="midnightblue" stroke="midnightblue" points="539.78,-275.813 533.738,-267.11 533.034,-277.681 539.78,-275.813"/>
</g>
<!-- Node22&#45;&gt;Node5 -->
<g id="edge90" class="edge"><title>Node22&#45;&gt;Node5</title>
<path fill="none" stroke="midnightblue" d="M681.754,-174.065C693.375,-159.882 714.895,-134.741 736,-116 769.109,-86.601 778.276,-79.4695 817,-58 840.485,-44.9792 868.326,-33.4343 890.615,-25.0451"/>
<polygon fill="midnightblue" stroke="midnightblue" points="891.947,-28.2841 900.113,-21.5335 889.52,-21.7184 891.947,-28.2841"/>
</g>
<!-- Node22&#45;&gt;Node10 -->
<g id="edge94" class="edge"><title>Node22&#45;&gt;Node10</title>
<path fill="none" stroke="midnightblue" d="M747.61,-174.497C826.897,-163.335 950.752,-145.899 1024.29,-135.547"/>
<polygon fill="midnightblue" stroke="midnightblue" points="1024.91,-138.994 1034.32,-134.134 1023.93,-132.062 1024.91,-138.994"/>
</g>
<!-- Node22&#45;&gt;Node14 -->
<g id="edge92" class="edge"><title>Node22&#45;&gt;Node14</title>
<path fill="none" stroke="midnightblue" d="M647.466,-174.497C625.047,-165.275 592.215,-151.769 567.287,-141.515"/>
<polygon fill="midnightblue" stroke="midnightblue" points="568.4,-138.189 557.821,-137.621 565.737,-144.662 568.4,-138.189"/>
</g>
<!-- Node24&#45;&gt;Node8 -->
<g id="edge102" class="edge"><title>Node24&#45;&gt;Node8</title>
<path fill="none" stroke="midnightblue" d="M700.391,-594.344C731.81,-542.018 868.949,-314.381 883,-304 905.614,-287.293 975.014,-270.943 1025.96,-260.69"/>
<polygon fill="midnightblue" stroke="midnightblue" points="1026.75,-264.1 1035.88,-258.722 1025.39,-257.234 1026.75,-264.1"/>
</g>
<!-- Node24&#45;&gt;Node15 -->
<g id="edge108" class="edge"><title>Node24&#45;&gt;Node15</title>
<path fill="none" stroke="midnightblue" d="M690.094,-594.291C683.062,-574.027 669,-528.554 669,-489 669,-489 669,-489 669,-373 669,-251.186 821.382,-172.095 893.723,-141.411"/>
<polygon fill="midnightblue" stroke="midnightblue" points="895.07,-144.641 902.961,-137.571 892.384,-138.177 895.07,-144.641"/>
</g>
<!-- Node24&#45;&gt;Node21 -->
<g id="edge100" class="edge"><title>Node24&#45;&gt;Node21</title>
<path fill="none" stroke="midnightblue" d="M674.526,-594.294C645.177,-576.563 593,-538.133 593,-489 593,-489 593,-489 593,-431 593,-394.793 573.395,-356.422 559.783,-334.144"/>
<polygon fill="midnightblue" stroke="midnightblue" points="562.7,-332.208 554.391,-325.634 556.787,-335.955 562.7,-332.208"/>
</g>
<!-- Node25 -->
<g id="node77" class="node"><title>Node25</title>
<a xlink:href="MojThread_8h.htm" target="_top" xlink:title="core/MojThread.h">
<polygon fill="white" stroke="red" points="2018.5,-304.5 2018.5,-325.5 2119.5,-325.5 2119.5,-304.5 2018.5,-304.5"/>
<text text-anchor="middle" x="2069" y="-312.5" font-family="Helvetica,sans-Serif" font-size="10.00">core/MojThread.h</text>
</a>
</g>
<!-- Node24&#45;&gt;Node25 -->
<g id="edge104" class="edge"><title>Node24&#45;&gt;Node25</title>
<path fill="none" stroke="midnightblue" d="M767.178,-602.48C930.421,-596.529 1320.17,-580.4 1450,-558 1542.05,-542.119 1563.37,-529.469 1652,-500 1721.01,-477.057 1737.37,-468.724 1805,-442 1868.02,-417.099 1885.01,-413.519 1946,-384 1980.4,-367.354 2018.57,-345.36 2043.13,-330.726"/>
<polygon fill="midnightblue" stroke="midnightblue" points="2045.06,-333.647 2051.84,-325.504 2041.46,-327.644 2045.06,-333.647"/>
</g>
<!-- Node24&#45;&gt;Node26 -->
<g id="edge110" class="edge"><title>Node24&#45;&gt;Node26</title>
<path fill="none" stroke="midnightblue" d="M767.094,-598.738C894.887,-587.79 1157.93,-565.254 1290.65,-553.884"/>
<polygon fill="midnightblue" stroke="midnightblue" points="1291.09,-557.359 1300.75,-553.018 1290.49,-550.385 1291.09,-557.359"/>
</g>
<!-- Node25&#45;&gt;Node5 -->
<g id="edge106" class="edge"><title>Node25&#45;&gt;Node5</title>
<path fill="none" stroke="midnightblue" d="M2047.65,-304.475C2012.91,-285.676 1948,-242.812 1948,-185 1948,-185 1948,-185 1948,-127 1948,-30.9045 1221.97,-14.3838 996.786,-11.5708"/>
<polygon fill="midnightblue" stroke="midnightblue" points="996.805,-8.07088 986.763,-11.4506 996.721,-15.0704 996.805,-8.07088"/>
</g>
<!-- Node26&#45;&gt;Node4 -->
<g id="edge112" class="edge"><title>Node26&#45;&gt;Node4</title>
<path fill="none" stroke="midnightblue" d="M1441.23,-537.202C1498.29,-528.773 1580.72,-515.537 1652,-500 1820.38,-463.298 1862.62,-449.568 2022,-384 2080.13,-360.083 2111.89,-375.211 2151,-326 2163.37,-310.431 2166.46,-287.49 2166.86,-270.888"/>
<polygon fill="midnightblue" stroke="midnightblue" points="2170.35,-270.551 2166.78,-260.576 2163.35,-270.601 2170.35,-270.551"/>
</g>
<!-- Node26&#45;&gt;Node8 -->
<g id="edge182" class="edge"><title>Node26&#45;&gt;Node8</title>
<path fill="none" stroke="midnightblue" d="M1319.33,-536.481C1236.3,-518.663 1078.31,-480.694 1037,-442 989.915,-397.901 959.945,-359.984 992,-304 1002.42,-285.797 1021.63,-273.131 1039.81,-264.666"/>
<polygon fill="midnightblue" stroke="midnightblue" points="1041.38,-267.799 1049.17,-260.615 1038.6,-261.374 1041.38,-267.799"/>
</g>
<!-- Node26&#45;&gt;Node14 -->
<g id="edge180" class="edge"><title>Node26&#45;&gt;Node14</title>
<path fill="none" stroke="midnightblue" d="M1300.99,-540.062C1220.62,-531.523 1094.07,-516.157 1049,-500 941.228,-461.366 714.171,-277.238 609,-232 552.745,-207.803 513.218,-244.631 476,-196 461.889,-177.561 483.724,-156.955 504.117,-143.102"/>
<polygon fill="midnightblue" stroke="midnightblue" points="506.144,-145.96 512.66,-137.605 502.356,-140.073 506.144,-145.96"/>
</g>
<!-- Node26&#45;&gt;Node15 -->
<g id="edge184" class="edge"><title>Node26&#45;&gt;Node15</title>
<path fill="none" stroke="midnightblue" d="M1300.59,-542.261C1183.38,-529.915 954.075,-485.498 883,-326 855.247,-263.72 896.051,-183.02 918.242,-146.49"/>
<polygon fill="midnightblue" stroke="midnightblue" points="921.343,-148.133 923.683,-137.799 915.41,-144.418 921.343,-148.133"/>
</g>
<!-- Node27 -->
<g id="node84" class="node"><title>Node27</title>
<a xlink:href="MojDbWatcher_8h.htm" target="_top" xlink:title="db/MojDbWatcher.h">
<polygon fill="white" stroke="black" points="1534.5,-478.5 1534.5,-499.5 1643.5,-499.5 1643.5,-478.5 1534.5,-478.5"/>
<text text-anchor="middle" x="1589" y="-486.5" font-family="Helvetica,sans-Serif" font-size="10.00">db/MojDbWatcher.h</text>
</a>
</g>
<!-- Node26&#45;&gt;Node27 -->
<g id="edge114" class="edge"><title>Node26&#45;&gt;Node27</title>
<path fill="none" stroke="midnightblue" d="M1410.48,-536.497C1446.63,-526.877 1500.3,-512.598 1539.35,-502.209"/>
<polygon fill="midnightblue" stroke="midnightblue" points="1540.68,-505.477 1549.45,-499.523 1538.88,-498.712 1540.68,-505.477"/>
</g>
<!-- Node32 -->
<g id="node108" class="node"><title>Node32</title>
<a xlink:href="MojSignal_8h.htm" target="_top" xlink:title="core/MojSignal.h">
<polygon fill="white" stroke="red" points="1346.5,-362.5 1346.5,-383.5 1441.5,-383.5 1441.5,-362.5 1346.5,-362.5"/>
<text text-anchor="middle" x="1394" y="-370.5" font-family="Helvetica,sans-Serif" font-size="10.00">core/MojSignal.h</text>
</a>
</g>
<!-- Node26&#45;&gt;Node32 -->
<g id="edge186" class="edge"><title>Node26&#45;&gt;Node32</title>
<path fill="none" stroke="midnightblue" d="M1372.4,-536.377C1376.12,-508.293 1386.24,-431.673 1391.2,-394.203"/>
<polygon fill="midnightblue" stroke="midnightblue" points="1394.71,-394.3 1392.56,-383.928 1387.78,-393.383 1394.71,-394.3"/>
</g>
<!-- Node33 -->
<g id="node115" class="node"><title>Node33</title>
<a xlink:href="MojDbQuotaEngine_8h.htm" target="_top" xlink:title="db/MojDbQuotaEngine.h">
<polygon fill="white" stroke="black" points="1620.5,-420.5 1620.5,-441.5 1751.5,-441.5 1751.5,-420.5 1620.5,-420.5"/>
<text text-anchor="middle" x="1686" y="-428.5" font-family="Helvetica,sans-Serif" font-size="10.00">db/MojDbQuotaEngine.h</text>
</a>
</g>
<!-- Node26&#45;&gt;Node33 -->
<g id="edge164" class="edge"><title>Node26&#45;&gt;Node33</title>
<path fill="none" stroke="midnightblue" d="M1392.19,-536.482C1421.7,-522.087 1477.07,-495.988 1526,-478 1561.68,-464.885 1602.84,-452.861 1634.48,-444.257"/>
<polygon fill="midnightblue" stroke="midnightblue" points="1635.66,-447.566 1644.4,-441.587 1633.84,-440.807 1635.66,-447.566"/>
</g>
<!-- Node27&#45;&gt;Node4 -->
<g id="edge116" class="edge"><title>Node27&#45;&gt;Node4</title>
<path fill="none" stroke="midnightblue" d="M1643.68,-478.512C1765.59,-454.196 2054.71,-391.062 2128,-326 2144.72,-311.159 2154.96,-287.256 2160.53,-270.22"/>
<polygon fill="midnightblue" stroke="midnightblue" points="2163.89,-271.228 2163.42,-260.643 2157.18,-269.21 2163.89,-271.228"/>
</g>
<!-- Node27&#45;&gt;Node25 -->
<g id="edge162" class="edge"><title>Node27&#45;&gt;Node25</title>
<path fill="none" stroke="midnightblue" d="M1632.24,-478.457C1667.04,-469.652 1717.05,-456.274 1760,-442 1827.04,-419.718 1842.97,-411.618 1908,-384 1929.6,-374.826 1934.5,-371.397 1956,-362 1981.78,-350.735 2011.12,-338.55 2033.44,-329.41"/>
<polygon fill="midnightblue" stroke="midnightblue" points="2034.92,-332.586 2042.86,-325.565 2032.28,-326.106 2034.92,-332.586"/>
</g>
<!-- Node27&#45;&gt;Node28 -->
<g id="edge118" class="edge"><title>Node27&#45;&gt;Node28</title>
<path fill="none" stroke="midnightblue" d="M1534.42,-482.459C1446.07,-471.872 1271.86,-450.996 1174.68,-439.35"/>
<polygon fill="midnightblue" stroke="midnightblue" points="1175.01,-435.864 1164.66,-438.15 1174.17,-442.815 1175.01,-435.864"/>
</g>
<!-- Node27&#45;&gt;Node32 -->
<g id="edge152" class="edge"><title>Node27&#45;&gt;Node32</title>
<path fill="none" stroke="midnightblue" d="M1583.48,-478.278C1575.17,-463.155 1558.04,-435.66 1536,-420 1511.02,-402.251 1478.89,-390.879 1451.52,-383.775"/>
<polygon fill="midnightblue" stroke="midnightblue" points="1452.22,-380.343 1441.67,-381.348 1450.55,-387.14 1452.22,-380.343"/>
</g>
<!-- Node28&#45;&gt;Node4 -->
<g id="edge120" class="edge"><title>Node28&#45;&gt;Node4</title>
<path fill="none" stroke="midnightblue" d="M1164.53,-429.313C1304.04,-424.942 1648.81,-411.618 1761,-384 1823.62,-368.585 1836.99,-356.133 1894,-326 1910.24,-317.415 1912.02,-311.029 1929,-304 1988.33,-279.431 2060.87,-264.99 2109.95,-257.318"/>
<polygon fill="midnightblue" stroke="midnightblue" points="2110.69,-260.745 2120.05,-255.782 2109.64,-253.825 2110.69,-260.745"/>
</g>
<!-- Node29 -->
<g id="node90" class="node"><title>Node29</title>
<a xlink:href="MojDbQuery_8h.htm" target="_top" xlink:title="db/MojDbQuery.h">
<polygon fill="white" stroke="black" points="1066,-362.5 1066,-383.5 1164,-383.5 1164,-362.5 1066,-362.5"/>
<text text-anchor="middle" x="1115" y="-370.5" font-family="Helvetica,sans-Serif" font-size="10.00">db/MojDbQuery.h</text>
</a>
</g>
<!-- Node28&#45;&gt;Node29 -->
<g id="edge122" class="edge"><title>Node28&#45;&gt;Node29</title>
<path fill="none" stroke="midnightblue" d="M1106.83,-420.362C1108.13,-412.84 1109.91,-402.519 1111.48,-393.431"/>
<polygon fill="midnightblue" stroke="midnightblue" points="1114.93,-394.02 1113.18,-383.571 1108.03,-392.831 1114.93,-394.02"/>
</g>
<!-- Node30 -->
<g id="node93" class="node"><title>Node30</title>
<a xlink:href="MojDbKey_8h.htm" target="_top" xlink:title="db/MojDbKey.h">
<polygon fill="white" stroke="black" points="1000.5,-304.5 1000.5,-325.5 1087.5,-325.5 1087.5,-304.5 1000.5,-304.5"/>
<text text-anchor="middle" x="1044" y="-312.5" font-family="Helvetica,sans-Serif" font-size="10.00">db/MojDbKey.h</text>
</a>
</g>
<!-- Node28&#45;&gt;Node30 -->
<g id="edge150" class="edge"><title>Node28&#45;&gt;Node30</title>
<path fill="none" stroke="midnightblue" d="M1090.02,-420.388C1079.12,-411.83 1064.92,-398.81 1057,-384 1049.11,-369.241 1045.94,-350.467 1044.7,-336.228"/>
<polygon fill="midnightblue" stroke="midnightblue" points="1048.18,-335.711 1044.07,-325.946 1041.19,-336.142 1048.18,-335.711"/>
</g>
<!-- Node29&#45;&gt;Node4 -->
<g id="edge124" class="edge"><title>Node29&#45;&gt;Node4</title>
<path fill="none" stroke="midnightblue" d="M1164.12,-368.528C1247.07,-360.832 1420.11,-344.152 1566,-326 1633.74,-317.572 1650.33,-312.974 1718,-304 1859.09,-285.289 2025.55,-265.94 2110.31,-256.281"/>
<polygon fill="midnightblue" stroke="midnightblue" points="2110.95,-259.732 2120.49,-255.124 2110.15,-252.777 2110.95,-259.732"/>
</g>
<!-- Node29&#45;&gt;Node8 -->
<g id="edge144" class="edge"><title>Node29&#45;&gt;Node8</title>
<path fill="none" stroke="midnightblue" d="M1112.25,-362.085C1107.07,-341.518 1095.78,-296.735 1089.15,-270.426"/>
<polygon fill="midnightblue" stroke="midnightblue" points="1092.54,-269.557 1086.7,-260.715 1085.75,-271.268 1092.54,-269.557"/>
</g>
<!-- Node29&#45;&gt;Node13 -->
<g id="edge148" class="edge"><title>Node29&#45;&gt;Node13</title>
<path fill="none" stroke="midnightblue" d="M1122.08,-362.354C1142.45,-331.719 1201.4,-243.05 1227.41,-203.928"/>
<polygon fill="midnightblue" stroke="midnightblue" points="1230.38,-205.795 1233,-195.53 1224.55,-201.919 1230.38,-205.795"/>
</g>
<!-- Node29&#45;&gt;Node21 -->
<g id="edge142" class="edge"><title>Node29&#45;&gt;Node21</title>
<path fill="none" stroke="midnightblue" d="M1065.59,-367.954C963.409,-357.521 728.812,-333.565 613.481,-321.789"/>
<polygon fill="midnightblue" stroke="midnightblue" points="613.675,-318.29 603.371,-320.756 612.964,-325.254 613.675,-318.29"/>
</g>
<!-- Node29&#45;&gt;Node30 -->
<g id="edge126" class="edge"><title>Node29&#45;&gt;Node30</title>
<path fill="none" stroke="midnightblue" d="M1101.98,-362.362C1091.57,-353.859 1076.78,-341.779 1064.74,-331.947"/>
<polygon fill="midnightblue" stroke="midnightblue" points="1066.9,-329.187 1056.94,-325.571 1062.47,-334.608 1066.9,-329.187"/>
</g>
<!-- Node31 -->
<g id="node98" class="node"><title>Node31</title>
<a xlink:href="MojSet_8h.htm" target="_top" xlink:title="core/MojSet.h">
<polygon fill="white" stroke="red" points="1274,-239.5 1274,-260.5 1356,-260.5 1356,-239.5 1274,-239.5"/>
<text text-anchor="middle" x="1315" y="-247.5" font-family="Helvetica,sans-Serif" font-size="10.00">core/MojSet.h</text>
</a>
</g>
<!-- Node29&#45;&gt;Node31 -->
<g id="edge146" class="edge"><title>Node29&#45;&gt;Node31</title>
<path fill="none" stroke="midnightblue" d="M1164.24,-367.51C1215.06,-360.759 1289.47,-347.476 1308,-326 1320.99,-310.94 1321.16,-287.409 1319.07,-270.52"/>
<polygon fill="midnightblue" stroke="midnightblue" points="1322.51,-269.864 1317.48,-260.537 1315.59,-270.962 1322.51,-269.864"/>
</g>
<!-- Node30&#45;&gt;Node4 -->
<g id="edge128" class="edge"><title>Node30&#45;&gt;Node4</title>
<path fill="none" stroke="midnightblue" d="M1087.52,-310.918C1112.27,-308.682 1143.85,-305.973 1172,-304 1528.92,-278.975 1958.64,-259.109 2109.98,-252.425"/>
<polygon fill="midnightblue" stroke="midnightblue" points="2110.56,-255.903 2120.39,-251.966 2110.25,-248.91 2110.56,-255.903"/>
</g>
<!-- Node30&#45;&gt;Node8 -->
<g id="edge132" class="edge"><title>Node30&#45;&gt;Node8</title>
<path fill="none" stroke="midnightblue" d="M1050.61,-304.267C1056.43,-294.801 1065.06,-280.777 1072.09,-269.357"/>
<polygon fill="midnightblue" stroke="midnightblue" points="1075.26,-270.885 1077.52,-260.534 1069.3,-267.216 1075.26,-270.885"/>
</g>
<!-- Node30&#45;&gt;Node15 -->
<g id="edge140" class="edge"><title>Node30&#45;&gt;Node15</title>
<path fill="none" stroke="midnightblue" d="M1036.49,-304.423C1022.09,-283.944 989.888,-237.259 966,-196 956.685,-179.911 947.212,-161.05 940.474,-147.118"/>
<polygon fill="midnightblue" stroke="midnightblue" points="943.564,-145.466 936.093,-137.954 937.249,-148.485 943.564,-145.466"/>
</g>
<!-- Node30&#45;&gt;Node18 -->
<g id="edge130" class="edge"><title>Node30&#45;&gt;Node18</title>
<path fill="none" stroke="midnightblue" d="M1002.53,-304.472C909.571,-280.868 684.705,-223.773 583.214,-198.003"/>
<polygon fill="midnightblue" stroke="midnightblue" points="584.048,-194.604 573.495,-195.536 582.326,-201.389 584.048,-194.604"/>
</g>
<!-- Node30&#45;&gt;Node31 -->
<g id="edge134" class="edge"><title>Node30&#45;&gt;Node31</title>
<path fill="none" stroke="midnightblue" d="M1087.54,-304.557C1135.65,-293.017 1213.05,-274.452 1263.97,-262.239"/>
<polygon fill="midnightblue" stroke="midnightblue" points="1264.88,-265.621 1273.79,-259.885 1263.25,-258.814 1264.88,-265.621"/>
</g>
<!-- Node31&#45;&gt;Node5 -->
<g id="edge136" class="edge"><title>Node31&#45;&gt;Node5</title>
<path fill="none" stroke="midnightblue" d="M1317.96,-239.31C1326.28,-206.646 1346.08,-107.379 1295,-58 1273.98,-37.6836 1096.06,-22.3435 996.98,-15.2847"/>
<polygon fill="midnightblue" stroke="midnightblue" points="996.989,-11.7768 986.768,-14.5666 996.498,-18.7595 996.989,-11.7768"/>
</g>
<!-- Node31&#45;&gt;Node12 -->
<g id="edge138" class="edge"><title>Node31&#45;&gt;Node12</title>
<path fill="none" stroke="midnightblue" d="M1313.23,-239.416C1310.54,-224.491 1304.78,-196.56 1296,-174 1283.79,-142.629 1264.15,-108.833 1251.41,-88.2953"/>
<polygon fill="midnightblue" stroke="midnightblue" points="1254.23,-86.1945 1245.93,-79.5976 1248.3,-89.9246 1254.23,-86.1945"/>
</g>
<!-- Node32&#45;&gt;Node5 -->
<g id="edge154" class="edge"><title>Node32&#45;&gt;Node5</title>
<path fill="none" stroke="midnightblue" d="M1400.93,-362.409C1417.89,-335.806 1461.13,-263.469 1476,-196 1491.45,-125.88 1454.21,-93.8531 1392,-58 1358.56,-38.7273 1116.19,-21.9378 996.932,-14.7388"/>
<polygon fill="midnightblue" stroke="midnightblue" points="997.017,-11.2378 986.826,-14.134 996.599,-18.2253 997.017,-11.2378"/>
</g>
<!-- Node32&#45;&gt;Node15 -->
<g id="edge160" class="edge"><title>Node32&#45;&gt;Node15</title>
<path fill="none" stroke="midnightblue" d="M1382.78,-362.333C1367.03,-347.765 1337.03,-321.466 1308,-304 1238.74,-262.333 1216.85,-259.926 1141,-232 1089.94,-213.202 1072.55,-220.562 1024,-196 1009.21,-188.515 974.874,-162.035 952.318,-144.142"/>
<polygon fill="midnightblue" stroke="midnightblue" points="954.317,-141.259 944.316,-137.762 949.953,-146.733 954.317,-141.259"/>
</g>
<!-- Node32&#45;&gt;Node19 -->
<g id="edge156" class="edge"><title>Node32&#45;&gt;Node19</title>
<path fill="none" stroke="midnightblue" d="M1346.24,-371.229C1253.73,-367.182 1053.76,-355.246 992,-326 902.587,-283.66 827.731,-186.938 798.809,-145.934"/>
<polygon fill="midnightblue" stroke="midnightblue" points="801.626,-143.854 793.049,-137.634 795.875,-147.845 801.626,-143.854"/>
</g>
<!-- Node32&#45;&gt;Node25 -->
<g id="edge158" class="edge"><title>Node32&#45;&gt;Node25</title>
<path fill="none" stroke="midnightblue" d="M1441.73,-368.898C1561.72,-358.589 1875.79,-331.602 2008.46,-320.202"/>
<polygon fill="midnightblue" stroke="midnightblue" points="2008.79,-323.687 2018.45,-319.344 2008.19,-316.713 2008.79,-323.687"/>
</g>
<!-- Node33&#45;&gt;Node4 -->
<g id="edge166" class="edge"><title>Node33&#45;&gt;Node4</title>
<path fill="none" stroke="midnightblue" d="M1744.08,-420.437C1780.96,-412.697 1829.25,-400.63 1870,-384 1888.07,-376.627 1891.07,-371.712 1908,-362 1953.23,-336.046 1962.49,-325.509 2010,-304 2045.93,-287.734 2088.31,-273.352 2119.82,-263.529"/>
<polygon fill="midnightblue" stroke="midnightblue" points="2121.12,-266.791 2129.65,-260.503 2119.06,-260.101 2121.12,-266.791"/>
</g>
<!-- Node33&#45;&gt;Node11 -->
<g id="edge174" class="edge"><title>Node33&#45;&gt;Node11</title>
<path fill="none" stroke="midnightblue" d="M1646.66,-420.381C1626.8,-413.145 1603.82,-401.608 1589,-384 1565.17,-355.699 1585.62,-335.365 1566,-304 1537.16,-257.887 1484.46,-220.771 1452.01,-200.886"/>
<polygon fill="midnightblue" stroke="midnightblue" points="1453.8,-197.883 1443.43,-195.742 1450.2,-203.886 1453.8,-197.883"/>
</g>
<!-- Node33&#45;&gt;Node13 -->
<g id="edge178" class="edge"><title>Node33&#45;&gt;Node13</title>
<path fill="none" stroke="midnightblue" d="M1659.06,-420.34C1636.22,-411.15 1602.7,-397.3 1574,-384 1522.42,-360.096 1506.09,-359.278 1460,-326 1411.84,-291.229 1415.01,-264.047 1365,-232 1342.1,-217.323 1313.93,-206.227 1290.13,-198.512"/>
<polygon fill="midnightblue" stroke="midnightblue" points="1291.16,-195.166 1280.57,-195.515 1289.07,-201.846 1291.16,-195.166"/>
</g>
<!-- Node33&#45;&gt;Node32 -->
<g id="edge176" class="edge"><title>Node33&#45;&gt;Node32</title>
<path fill="none" stroke="midnightblue" d="M1633.12,-420.497C1581.86,-410.315 1504.32,-394.912 1451.53,-384.428"/>
<polygon fill="midnightblue" stroke="midnightblue" points="1452.14,-380.98 1441.65,-382.465 1450.78,-387.846 1452.14,-380.98"/>
</g>
<!-- Node34 -->
<g id="node118" class="node"><title>Node34</title>
<a xlink:href="MojDbPutHandler_8h.htm" target="_top" xlink:title="db/MojDbPutHandler.h">
<polygon fill="white" stroke="black" points="1727,-304.5 1727,-325.5 1849,-325.5 1849,-304.5 1727,-304.5"/>
<text text-anchor="middle" x="1788" y="-312.5" font-family="Helvetica,sans-Serif" font-size="10.00">db/MojDbPutHandler.h</text>
</a>
</g>
<!-- Node33&#45;&gt;Node34 -->
<g id="edge168" class="edge"><title>Node33&#45;&gt;Node34</title>
<path fill="none" stroke="midnightblue" d="M1710.84,-420.482C1727.03,-412.53 1747.57,-400.209 1761,-384 1772.51,-370.109 1779.51,-350.728 1783.49,-336.043"/>
<polygon fill="midnightblue" stroke="midnightblue" points="1787,-336.441 1785.97,-325.896 1780.2,-334.781 1787,-336.441"/>
</g>
<!-- Node34&#45;&gt;Node4 -->
<g id="edge170" class="edge"><title>Node34&#45;&gt;Node4</title>
<path fill="none" stroke="midnightblue" d="M1849.15,-304.484C1921.45,-292.053 2040.72,-271.543 2110.47,-259.549"/>
<polygon fill="midnightblue" stroke="midnightblue" points="2111.13,-262.988 2120.39,-257.843 2109.94,-256.089 2111.13,-262.988"/>
</g>
<!-- Node34&#45;&gt;Node12 -->
<g id="edge172" class="edge"><title>Node34&#45;&gt;Node12</title>
<path fill="none" stroke="midnightblue" d="M1778.96,-304.368C1763.69,-287.011 1731.1,-252.472 1697,-232 1564.09,-152.209 1386.14,-103.007 1296.19,-81.5741"/>
<polygon fill="midnightblue" stroke="midnightblue" points="1296.73,-78.1047 1286.19,-79.2196 1295.13,-84.9184 1296.73,-78.1047"/>
</g>
<!-- Node35&#45;&gt;Node5 -->
<g id="edge194" class="edge"><title>Node35&#45;&gt;Node5</title>
<path fill="none" stroke="midnightblue" d="M659.258,-718.001C585.833,-712.183 436.987,-697.8 391,-674 289.665,-621.556 213,-603.101 213,-489 213,-489 213,-489 213,-373 213,-294.866 119.89,-329.737 72,-268 47.5667,-236.502 38,-224.864 38,-185 38,-185 38,-185 38,-127 38,-85.7719 62.8341,-75.8451 100,-58 168.198,-25.2547 680.904,-14.6315 865.239,-11.8496"/>
<polygon fill="midnightblue" stroke="midnightblue" points="865.389,-15.3479 875.336,-11.7002 865.286,-8.34866 865.389,-15.3479"/>
</g>
<!-- Node36&#45;&gt;Node4 -->
<g id="edge198" class="edge"><title>Node36&#45;&gt;Node4</title>
<path fill="none" stroke="midnightblue" d="M2593.11,-594.3C2571.91,-575.417 2532,-533.909 2532,-489 2532,-489 2532,-489 2532,-373 2532,-340.531 2532.91,-324.826 2508,-304 2465.57,-268.525 2307.42,-256.149 2221.85,-251.993"/>
<polygon fill="midnightblue" stroke="midnightblue" points="2221.93,-248.493 2211.78,-251.526 2221.61,-255.486 2221.93,-248.493"/>
</g>
<!-- Node36&#45;&gt;Node26 -->
<g id="edge200" class="edge"><title>Node36&#45;&gt;Node26</title>
<path fill="none" stroke="midnightblue" d="M2521.91,-600.39C2484.31,-598.365 2439.44,-595.999 2399,-594 2045.81,-576.542 1624.24,-557.984 1451.16,-550.463"/>
<polygon fill="midnightblue" stroke="midnightblue" points="1451.26,-546.964 1441.12,-550.027 1450.96,-553.957 1451.26,-546.964"/>
</g>
<!-- Node37&#45;&gt;Node2 -->
<g id="edge206" class="edge"><title>Node37&#45;&gt;Node2</title>
<path fill="none" stroke="midnightblue" d="M1900.47,-890.991C1691.35,-880.58 1131.94,-852.729 909.296,-841.645"/>
<polygon fill="midnightblue" stroke="midnightblue" points="909.433,-838.147 899.271,-841.146 909.085,-845.139 909.433,-838.147"/>
</g>
<!-- Node37&#45;&gt;Node4 -->
<g id="edge204" class="edge"><title>Node37&#45;&gt;Node4</title>
<path fill="none" stroke="midnightblue" d="M2061.72,-885.019C2206.19,-866.052 2494,-822.772 2494,-779 2494,-779 2494,-779 2494,-373 2494,-332.068 2468.46,-324.452 2433,-304 2397.69,-283.631 2288.85,-266.206 2221.53,-256.998"/>
<polygon fill="midnightblue" stroke="midnightblue" points="2221.88,-253.514 2211.5,-255.646 2220.95,-260.452 2221.88,-253.514"/>
</g>
<!-- Node38 -->
<g id="node142" class="node"><title>Node38</title>
<a xlink:href="MojDbIsamQuery_8h.htm" target="_top" xlink:title="db/MojDbIsamQuery.h">
<polygon fill="white" stroke="black" points="2281,-652.5 2281,-673.5 2401,-673.5 2401,-652.5 2281,-652.5"/>
<text text-anchor="middle" x="2341" y="-660.5" font-family="Helvetica,sans-Serif" font-size="10.00">db/MojDbIsamQuery.h</text>
</a>
</g>
<!-- Node37&#45;&gt;Node38 -->
<g id="edge208" class="edge"><title>Node37&#45;&gt;Node38</title>
<path fill="none" stroke="midnightblue" d="M2037.42,-884.478C2097.36,-870.989 2192.36,-842.766 2258,-790 2294.41,-760.732 2320.2,-711.067 2332.62,-683.311"/>
<polygon fill="midnightblue" stroke="midnightblue" points="2335.96,-684.402 2336.72,-673.834 2329.54,-681.624 2335.96,-684.402"/>
</g>
<!-- Node38&#45;&gt;Node4 -->
<g id="edge210" class="edge"><title>Node38&#45;&gt;Node4</title>
<path fill="none" stroke="midnightblue" d="M2359.54,-652.326C2372.42,-643.998 2389,-631.293 2399,-616 2416.41,-589.381 2418,-578.808 2418,-547 2418,-547 2418,-547 2418,-373 2418,-337.553 2406.27,-325.379 2378,-304 2353.59,-285.546 2275.94,-268.932 2221.72,-259.15"/>
<polygon fill="midnightblue" stroke="midnightblue" points="2222.01,-255.647 2211.55,-257.346 2220.79,-262.539 2222.01,-255.647"/>
</g>
<!-- Node38&#45;&gt;Node26 -->
<g id="edge212" class="edge"><title>Node38&#45;&gt;Node26</title>
<path fill="none" stroke="midnightblue" d="M2280.69,-655.788C2112.94,-635.726 1640.74,-579.258 1451.21,-556.592"/>
<polygon fill="midnightblue" stroke="midnightblue" points="1451.38,-553.088 1441.04,-555.376 1450.55,-560.038 1451.38,-553.088"/>
</g>
<!-- Node39 -->
<g id="node146" class="node"><title>Node39</title>
<a xlink:href="MojDbObjectItem_8h.htm" target="_top" xlink:title="db/MojDbObjectItem.h">
<polygon fill="white" stroke="black" points="2271.5,-594.5 2271.5,-615.5 2390.5,-615.5 2390.5,-594.5 2271.5,-594.5"/>
<text text-anchor="middle" x="2331" y="-602.5" font-family="Helvetica,sans-Serif" font-size="10.00">db/MojDbObjectItem.h</text>
</a>
</g>
<!-- Node38&#45;&gt;Node39 -->
<g id="edge214" class="edge"><title>Node38&#45;&gt;Node39</title>
<path fill="none" stroke="midnightblue" d="M2339.17,-652.362C2337.87,-644.84 2336.09,-634.519 2334.52,-625.431"/>
<polygon fill="midnightblue" stroke="midnightblue" points="2337.97,-624.831 2332.82,-615.571 2331.07,-626.02 2337.97,-624.831"/>
</g>
<!-- Node39&#45;&gt;Node4 -->
<g id="edge216" class="edge"><title>Node39&#45;&gt;Node4</title>
<path fill="none" stroke="midnightblue" d="M2338.87,-594.438C2352.72,-574.776 2380,-530.756 2380,-489 2380,-489 2380,-489 2380,-373 2380,-340.531 2379.61,-326.286 2356,-304 2336.58,-285.668 2270.45,-269.652 2221.64,-259.921"/>
<polygon fill="midnightblue" stroke="midnightblue" points="2222.3,-256.485 2211.82,-258.001 2220.96,-263.355 2222.3,-256.485"/>
</g>
<!-- Node39&#45;&gt;Node26 -->
<g id="edge218" class="edge"><title>Node39&#45;&gt;Node26</title>
<path fill="none" stroke="midnightblue" d="M2271.31,-601.394C2105.59,-591.381 1639.66,-563.232 1451.41,-551.858"/>
<polygon fill="midnightblue" stroke="midnightblue" points="1451.5,-548.357 1441.3,-551.247 1451.07,-555.344 1451.5,-548.357"/>
</g>
<!-- Node40&#45;&gt;Node4 -->
<g id="edge226" class="edge"><title>Node40&#45;&gt;Node4</title>
<path fill="none" stroke="midnightblue" d="M1505.59,-777.372C1666.76,-769.493 2339.2,-733.254 2410,-674 2456.04,-635.47 2456,-607.033 2456,-547 2456,-547 2456,-547 2456,-373 2456,-334.6 2436.24,-324.853 2404,-304 2374.32,-284.806 2282.23,-267.693 2221.69,-258.102"/>
<polygon fill="midnightblue" stroke="midnightblue" points="2221.94,-254.599 2211.52,-256.514 2220.86,-261.515 2221.94,-254.599"/>
</g>
<!-- Node40&#45;&gt;Node13 -->
<g id="edge302" class="edge"><title>Node40&#45;&gt;Node13</title>
<path fill="none" stroke="midnightblue" d="M1436.12,-777.721C1321.91,-773.301 963.884,-757.53 919,-732 861.269,-699.163 745,-555.416 745,-489 745,-489 745,-489 745,-373 745,-286.826 839.862,-320.756 908,-268 926.652,-253.559 925.773,-242.289 947,-232 1038.92,-187.444 1073.17,-212.397 1174,-196 1176.85,-195.537 1179.77,-195.06 1182.71,-194.576"/>
<polygon fill="midnightblue" stroke="midnightblue" points="1183.48,-197.997 1192.78,-192.917 1182.34,-191.09 1183.48,-197.997"/>
</g>
<!-- Node40&#45;&gt;Node21 -->
<g id="edge298" class="edge"><title>Node40&#45;&gt;Node21</title>
<path fill="none" stroke="midnightblue" d="M1436.43,-777.247C1327.54,-771.564 992.628,-752.812 886,-732 801.844,-715.574 782.038,-704.757 702,-674 644.077,-651.741 618.877,-659.877 575,-616 531.123,-572.123 517,-551.052 517,-489 517,-489 517,-489 517,-431 517,-396.366 529.69,-357.714 538.563,-334.921"/>
<polygon fill="midnightblue" stroke="midnightblue" points="541.814,-336.22 542.312,-325.636 535.323,-333.599 541.814,-336.22"/>
</g>
<!-- Node40&#45;&gt;Node26 -->
<g id="edge288" class="edge"><title>Node40&#45;&gt;Node26</title>
<path fill="none" stroke="midnightblue" d="M1466.44,-768.429C1450.92,-732.422 1399.96,-614.179 1379.55,-566.847"/>
<polygon fill="midnightblue" stroke="midnightblue" points="1382.76,-565.431 1375.58,-557.634 1376.33,-568.202 1382.76,-565.431"/>
</g>
<!-- Node40&#45;&gt;Node27 -->
<g id="edge290" class="edge"><title>Node40&#45;&gt;Node27</title>
<path fill="none" stroke="midnightblue" d="M1505.67,-770.244C1552.18,-756.175 1629,-723.743 1629,-663 1629,-663 1629,-663 1629,-605 1629,-569.557 1612.1,-531.186 1600.27,-508.665"/>
<polygon fill="midnightblue" stroke="midnightblue" points="1603.28,-506.874 1595.43,-499.768 1597.14,-510.224 1603.28,-506.874"/>
</g>
<!-- Node40&#45;&gt;Node32 -->
<g id="edge300" class="edge"><title>Node40&#45;&gt;Node32</title>
<path fill="none" stroke="midnightblue" d="M1436.47,-776.254C1340.57,-767.685 1078,-737.429 1078,-663 1078,-663 1078,-663 1078,-605 1078,-476.916 1248.77,-411.772 1339.24,-386.248"/>
<polygon fill="midnightblue" stroke="midnightblue" points="1340.35,-389.573 1349.06,-383.544 1338.49,-382.824 1340.35,-389.573"/>
</g>
<!-- Node40&#45;&gt;Node33 -->
<g id="edge286" class="edge"><title>Node40&#45;&gt;Node33</title>
<path fill="none" stroke="midnightblue" d="M1505.6,-776.071C1571.84,-770.018 1713.83,-754.766 1757,-732 1794.54,-712.206 1823,-705.437 1823,-663 1823,-663 1823,-663 1823,-547 1823,-495.931 1766.87,-462.713 1726.46,-445.417"/>
<polygon fill="midnightblue" stroke="midnightblue" points="1727.67,-442.127 1717.09,-441.563 1725.01,-448.601 1727.67,-442.127"/>
</g>
<!-- Node40&#45;&gt;Node35 -->
<g id="edge304" class="edge"><title>Node40&#45;&gt;Node35</title>
<path fill="none" stroke="midnightblue" d="M1436.43,-777.193C1336.67,-771.85 1039.75,-755.05 794,-732 780.585,-730.742 766.109,-729.145 752.665,-727.562"/>
<polygon fill="midnightblue" stroke="midnightblue" points="752.965,-724.073 742.62,-726.359 752.133,-731.023 752.965,-724.073"/>
</g>
<!-- Node41 -->
<g id="node155" class="node"><title>Node41</title>
<a xlink:href="MojDbCursor_8h.htm" target="_top" xlink:title="db/MojDbCursor.h">
<polygon fill="white" stroke="black" points="1413.5,-594.5 1413.5,-615.5 1514.5,-615.5 1514.5,-594.5 1413.5,-594.5"/>
<text text-anchor="middle" x="1464" y="-602.5" font-family="Helvetica,sans-Serif" font-size="10.00">db/MojDbCursor.h</text>
</a>
</g>
<!-- Node40&#45;&gt;Node41 -->
<g id="edge228" class="edge"><title>Node40&#45;&gt;Node41</title>
<path fill="none" stroke="midnightblue" d="M1470.57,-768.377C1469.44,-740.293 1466.36,-663.673 1464.85,-626.203"/>
<polygon fill="midnightblue" stroke="midnightblue" points="1468.34,-625.779 1464.44,-615.928 1461.34,-626.06 1468.34,-625.779"/>
</g>
<!-- Node44 -->
<g id="node169" class="node"><title>Node44</title>
<a xlink:href="MojDbIdGenerator_8h.htm" target="_top" xlink:title="db/MojDbIdGenerator.h">
<polygon fill="white" stroke="black" points="2187.5,-362.5 2187.5,-383.5 2314.5,-383.5 2314.5,-362.5 2187.5,-362.5"/>
<text text-anchor="middle" x="2251" y="-370.5" font-family="Helvetica,sans-Serif" font-size="10.00">db/MojDbIdGenerator.h</text>
</a>
</g>
<!-- Node40&#45;&gt;Node44 -->
<g id="edge250" class="edge"><title>Node40&#45;&gt;Node44</title>
<path fill="none" stroke="midnightblue" d="M1505.77,-777.206C1651.04,-769.255 2202,-734.397 2202,-663 2202,-663 2202,-663 2202,-489 2202,-452.463 2222.88,-414.193 2237.38,-392.025"/>
<polygon fill="midnightblue" stroke="midnightblue" points="2240.41,-393.801 2243.13,-383.562 2234.62,-389.87 2240.41,-393.801"/>
</g>
<!-- Node45 -->
<g id="node173" class="node"><title>Node45</title>
<a xlink:href="MojDbKindEngine_8h.htm" target="_top" xlink:title="db/MojDbKindEngine.h">
<polygon fill="white" stroke="black" points="927.5,-710.5 927.5,-731.5 1050.5,-731.5 1050.5,-710.5 927.5,-710.5"/>
<text text-anchor="middle" x="989" y="-718.5" font-family="Helvetica,sans-Serif" font-size="10.00">db/MojDbKindEngine.h</text>
</a>
</g>
<!-- Node40&#45;&gt;Node45 -->
<g id="edge256" class="edge"><title>Node40&#45;&gt;Node45</title>
<path fill="none" stroke="midnightblue" d="M1436.38,-775.364C1366.11,-767.904 1201.7,-750.045 1064,-732 1062.92,-731.859 1061.84,-731.716 1060.75,-731.57"/>
<polygon fill="midnightblue" stroke="midnightblue" points="1061.16,-728.094 1050.78,-730.214 1060.22,-735.03 1061.16,-728.094"/>
</g>
<!-- Node46 -->
<g id="node182" class="node"><title>Node46</title>
<a xlink:href="MojDbPermissionEngine_8h.htm" target="_top" xlink:title="db/MojDbPermissionEngine.h">
<polygon fill="white" stroke="black" points="1598,-362.5 1598,-383.5 1752,-383.5 1752,-362.5 1598,-362.5"/>
<text text-anchor="middle" x="1675" y="-370.5" font-family="Helvetica,sans-Serif" font-size="10.00">db/MojDbPermissionEngine.h</text>
</a>
</g>
<!-- Node40&#45;&gt;Node46 -->
<g id="edge272" class="edge"><title>Node40&#45;&gt;Node46</title>
<path fill="none" stroke="midnightblue" d="M1505.66,-777.06C1607.55,-770.419 1899,-744.317 1899,-663 1899,-663 1899,-663 1899,-547 1899,-458.709 1789.12,-408.74 1723.28,-386.723"/>
<polygon fill="midnightblue" stroke="midnightblue" points="1724.1,-383.31 1713.51,-383.552 1721.94,-389.968 1724.1,-383.31"/>
</g>
<!-- Node47 -->
<g id="node193" class="node"><title>Node47</title>
<a xlink:href="MojDbReq_8h.htm" target="_top" xlink:title="db/MojDbReq.h">
<polygon fill="white" stroke="black" points="1468.5,-304.5 1468.5,-325.5 1557.5,-325.5 1557.5,-304.5 1468.5,-304.5"/>
<text text-anchor="middle" x="1513" y="-312.5" font-family="Helvetica,sans-Serif" font-size="10.00">db/MojDbReq.h</text>
</a>
</g>
<!-- Node40&#45;&gt;Node47 -->
<g id="edge292" class="edge"><title>Node40&#45;&gt;Node47</title>
<path fill="none" stroke="midnightblue" d="M1505.61,-775.446C1537.39,-770.545 1584.11,-758.997 1615,-732 1636.55,-713.163 1635.9,-701.729 1643,-674 1664.64,-589.524 1687.48,-557.66 1652,-478 1642.27,-456.151 1628.3,-459.499 1612,-442 1578.56,-406.112 1544.46,-359.762 1526.3,-334.148"/>
<polygon fill="midnightblue" stroke="midnightblue" points="1528.98,-331.874 1520.37,-325.707 1523.26,-335.9 1528.98,-331.874"/>
</g>
<!-- Node41&#45;&gt;Node4 -->
<g id="edge230" class="edge"><title>Node41&#45;&gt;Node4</title>
<path fill="none" stroke="midnightblue" d="M1501.29,-594.483C1598.51,-566.441 1866.71,-485.091 2076,-384 2120.55,-362.484 2146.79,-369.142 2171,-326 2180.46,-309.135 2177.48,-286.735 2173.19,-270.629"/>
<polygon fill="midnightblue" stroke="midnightblue" points="2176.4,-269.175 2170.14,-260.629 2169.71,-271.215 2176.4,-269.175"/>
</g>
<!-- Node41&#45;&gt;Node7 -->
<g id="edge248" class="edge"><title>Node41&#45;&gt;Node7</title>
<path fill="none" stroke="midnightblue" d="M1413.31,-601.009C1260.69,-586.936 796.631,-528.946 482,-326 388.645,-265.783 329.311,-138.832 308.921,-89.3512"/>
<polygon fill="midnightblue" stroke="midnightblue" points="312.044,-87.7374 305.063,-79.7675 305.55,-90.3511 312.044,-87.7374"/>
</g>
<!-- Node41&#45;&gt;Node26 -->
<g id="edge232" class="edge"><title>Node41&#45;&gt;Node26</title>
<path fill="none" stroke="midnightblue" d="M1446.94,-594.362C1432.92,-585.614 1412.82,-573.079 1396.82,-563.101"/>
<polygon fill="midnightblue" stroke="midnightblue" points="1398.29,-559.893 1387.95,-557.571 1394.58,-565.832 1398.29,-559.893"/>
</g>
<!-- Node42 -->
<g id="node159" class="node"><title>Node42</title>
<a xlink:href="MojDbQueryFilter_8h.htm" target="_top" xlink:title="db/MojDbQueryFilter.h">
<polygon fill="white" stroke="black" points="1406.5,-420.5 1406.5,-441.5 1527.5,-441.5 1527.5,-420.5 1406.5,-420.5"/>
<text text-anchor="middle" x="1467" y="-428.5" font-family="Helvetica,sans-Serif" font-size="10.00">db/MojDbQueryFilter.h</text>
</a>
</g>
<!-- Node41&#45;&gt;Node42 -->
<g id="edge234" class="edge"><title>Node41&#45;&gt;Node42</title>
<path fill="none" stroke="midnightblue" d="M1464.18,-594.377C1464.67,-566.293 1465.99,-489.673 1466.63,-452.203"/>
<polygon fill="midnightblue" stroke="midnightblue" points="1470.14,-451.987 1466.81,-441.928 1463.14,-451.866 1470.14,-451.987"/>
</g>
<!-- Node43 -->
<g id="node163" class="node"><title>Node43</title>
<a xlink:href="MojObjectFilter_8h.htm" target="_top" xlink:title="core/MojObjectFilter.h">
<polygon fill="white" stroke="black" points="1180.5,-304.5 1180.5,-325.5 1299.5,-325.5 1299.5,-304.5 1180.5,-304.5"/>
<text text-anchor="middle" x="1240" y="-312.5" font-family="Helvetica,sans-Serif" font-size="10.00">core/MojObjectFilter.h</text>
</a>
</g>
<!-- Node41&#45;&gt;Node43 -->
<g id="edge240" class="edge"><title>Node41&#45;&gt;Node43</title>
<path fill="none" stroke="midnightblue" d="M1413.36,-597.119C1368.83,-589.159 1308.59,-575.544 1292,-558 1232.71,-495.302 1234.33,-382.246 1237.87,-335.79"/>
<polygon fill="midnightblue" stroke="midnightblue" points="1241.36,-335.991 1238.75,-325.723 1234.39,-335.379 1241.36,-335.991"/>
</g>
<!-- Node42&#45;&gt;Node4 -->
<g id="edge236" class="edge"><title>Node42&#45;&gt;Node4</title>
<path fill="none" stroke="midnightblue" d="M1527.81,-426.17C1616.62,-418.609 1777.18,-402.871 1832,-384 1836.12,-382.581 1962.99,-305.697 1967,-304 2013.66,-284.275 2069.54,-269.857 2110.19,-260.906"/>
<polygon fill="midnightblue" stroke="midnightblue" points="2111.15,-264.28 2120.18,-258.748 2109.67,-257.438 2111.15,-264.28"/>
</g>
<!-- Node42&#45;&gt;Node29 -->
<g id="edge238" class="edge"><title>Node42&#45;&gt;Node29</title>
<path fill="none" stroke="midnightblue" d="M1406.49,-421.029C1341.46,-410.315 1238.78,-393.396 1174.25,-382.763"/>
<polygon fill="midnightblue" stroke="midnightblue" points="1174.67,-379.285 1164.23,-381.112 1173.53,-386.192 1174.67,-379.285"/>
</g>
<!-- Node43&#45;&gt;Node8 -->
<g id="edge242" class="edge"><title>Node43&#45;&gt;Node8</title>
<path fill="none" stroke="midnightblue" d="M1214.59,-304.412C1188.53,-293.552 1147.8,-276.583 1118.76,-264.484"/>
<polygon fill="midnightblue" stroke="midnightblue" points="1119.98,-261.199 1109.4,-260.584 1117.29,-267.66 1119.98,-261.199"/>
</g>
<!-- Node43&#45;&gt;Node13 -->
<g id="edge246" class="edge"><title>Node43&#45;&gt;Node13</title>
<path fill="none" stroke="midnightblue" d="M1240,-304.362C1240,-282.936 1240,-234.24 1240,-206.114"/>
<polygon fill="midnightblue" stroke="midnightblue" points="1243.5,-205.785 1240,-195.785 1236.5,-205.785 1243.5,-205.785"/>
</g>
<!-- Node43&#45;&gt;Node31 -->
<g id="edge244" class="edge"><title>Node43&#45;&gt;Node31</title>
<path fill="none" stroke="midnightblue" d="M1252.38,-304.267C1263.96,-294.233 1281.45,-279.078 1295,-267.331"/>
<polygon fill="midnightblue" stroke="midnightblue" points="1297.58,-269.728 1302.85,-260.534 1293,-264.438 1297.58,-269.728"/>
</g>
<!-- Node44&#45;&gt;Node4 -->
<g id="edge252" class="edge"><title>Node44&#45;&gt;Node4</title>
<path fill="none" stroke="midnightblue" d="M2260.39,-362.069C2271.37,-347.889 2286.64,-322.751 2275,-304 2263.03,-284.714 2241.9,-272.104 2221.41,-263.963"/>
<polygon fill="midnightblue" stroke="midnightblue" points="2222.35,-260.582 2211.76,-260.423 2219.94,-267.153 2222.35,-260.582"/>
</g>
<!-- Node44&#45;&gt;Node25 -->
<g id="edge254" class="edge"><title>Node44&#45;&gt;Node25</title>
<path fill="none" stroke="midnightblue" d="M2218.04,-362.497C2188.24,-353 2144.19,-338.962 2111.7,-328.609"/>
<polygon fill="midnightblue" stroke="midnightblue" points="2112.61,-325.225 2102.02,-325.523 2110.49,-331.894 2112.61,-325.225"/>
</g>
<!-- Node45&#45;&gt;Node4 -->
<g id="edge258" class="edge"><title>Node45&#45;&gt;Node4</title>
<path fill="none" stroke="midnightblue" d="M1050.57,-716.973C1159.07,-709.515 1379.92,-692.605 1455,-674 1604.08,-637.056 1854.51,-548.141 2119,-384 2153.33,-362.695 2171.81,-362.564 2189,-326 2197.64,-307.61 2188.71,-285.2 2179.57,-269.497"/>
<polygon fill="midnightblue" stroke="midnightblue" points="2182.31,-267.273 2174.01,-260.682 2176.39,-271.008 2182.31,-267.273"/>
</g>
<!-- Node45&#45;&gt;Node13 -->
<g id="edge266" class="edge"><title>Node45&#45;&gt;Node13</title>
<path fill="none" stroke="midnightblue" d="M980.826,-710.426C943.483,-660.748 794.64,-446.97 883,-304 887.702,-296.392 1018.57,-234.986 1027,-232 1055.25,-221.993 1130.01,-206.391 1182.95,-195.939"/>
<polygon fill="midnightblue" stroke="midnightblue" points="1183.76,-199.347 1192.9,-193.986 1182.41,-192.479 1183.76,-199.347"/>
</g>
<!-- Node45&#45;&gt;Node14 -->
<g id="edge262" class="edge"><title>Node45&#45;&gt;Node14</title>
<path fill="none" stroke="midnightblue" d="M927.458,-715.702C868.6,-709.524 777.837,-697.074 702,-674 642.635,-655.937 618.881,-659.874 575,-616 454.749,-495.77 452.16,-434.156 416,-268 412.598,-252.366 410.282,-246.943 416,-232 428.373,-199.665 442.356,-197.259 468,-174 480.243,-162.896 495.057,-151.883 507.347,-143.312"/>
<polygon fill="midnightblue" stroke="midnightblue" points="509.507,-146.076 515.778,-137.537 505.55,-140.301 509.507,-146.076"/>
</g>
<!-- Node45&#45;&gt;Node20 -->
<g id="edge270" class="edge"><title>Node45&#45;&gt;Node20</title>
<path fill="none" stroke="midnightblue" d="M927.337,-714.29C826.298,-703.295 626.338,-681.536 522.337,-670.219"/>
<polygon fill="midnightblue" stroke="midnightblue" points="522.593,-666.726 512.273,-669.124 521.836,-673.685 522.593,-666.726"/>
</g>
<!-- Node45&#45;&gt;Node21 -->
<g id="edge264" class="edge"><title>Node45&#45;&gt;Node21</title>
<path fill="none" stroke="midnightblue" d="M936.47,-710.449C846.148,-691.643 665.918,-651.017 612,-616 578.641,-594.335 555,-586.777 555,-547 555,-547 555,-547 555,-431 555,-397.518 551.642,-358.729 549.277,-335.564"/>
<polygon fill="midnightblue" stroke="midnightblue" points="552.749,-335.115 548.215,-325.539 545.788,-335.852 552.749,-335.115"/>
</g>
<!-- Node45&#45;&gt;Node25 -->
<g id="edge268" class="edge"><title>Node45&#45;&gt;Node25</title>
<path fill="none" stroke="midnightblue" d="M1050.69,-719.477C1133.27,-716.223 1283.78,-706.015 1408,-674 1584.02,-628.636 1929.29,-418.589 1982,-384 2006.38,-368.003 2032.32,-346.823 2049.47,-332.169"/>
<polygon fill="midnightblue" stroke="midnightblue" points="2051.85,-334.734 2057.13,-325.55 2047.28,-329.436 2051.85,-334.734"/>
</g>
<!-- Node45&#45;&gt;Node27 -->
<g id="edge260" class="edge"><title>Node45&#45;&gt;Node27</title>
<path fill="none" stroke="midnightblue" d="M1050.56,-715.593C1174.54,-703.65 1448.79,-671.578 1523,-616 1558.62,-589.319 1576.71,-537.802 1584.36,-509.264"/>
<polygon fill="midnightblue" stroke="midnightblue" points="1587.75,-510.103 1586.79,-499.552 1580.96,-508.4 1587.75,-510.103"/>
</g>
<!-- Node46&#45;&gt;Node4 -->
<g id="edge274" class="edge"><title>Node46&#45;&gt;Node4</title>
<path fill="none" stroke="midnightblue" d="M1728.82,-362.47C1765.8,-354.442 1815.67,-342.037 1858,-326 1878.07,-318.394 1880.74,-311.098 1901,-304 1971.14,-279.427 2055.87,-264.596 2110.32,-256.855"/>
<polygon fill="midnightblue" stroke="midnightblue" points="2111.03,-260.289 2120.46,-255.446 2110.07,-253.356 2111.03,-260.289"/>
</g>
<!-- Node46&#45;&gt;Node11 -->
<g id="edge280" class="edge"><title>Node46&#45;&gt;Node11</title>
<path fill="none" stroke="midnightblue" d="M1679.08,-362.288C1688.14,-336.492 1706.74,-270.235 1675,-232 1650.44,-202.413 1543.91,-191.343 1477.78,-187.28"/>
<polygon fill="midnightblue" stroke="midnightblue" points="1477.72,-183.77 1467.53,-186.686 1477.32,-190.759 1477.72,-183.77"/>
</g>
<!-- Node46&#45;&gt;Node13 -->
<g id="edge282" class="edge"><title>Node46&#45;&gt;Node13</title>
<path fill="none" stroke="midnightblue" d="M1664.63,-362.469C1637.8,-335.894 1562.8,-265.827 1486,-232 1424.95,-205.11 1348.71,-193.57 1297.42,-188.639"/>
<polygon fill="midnightblue" stroke="midnightblue" points="1297.47,-185.129 1287.19,-187.711 1296.84,-192.1 1297.47,-185.129"/>
</g>
<!-- Node46&#45;&gt;Node21 -->
<g id="edge278" class="edge"><title>Node46&#45;&gt;Node21</title>
<path fill="none" stroke="midnightblue" d="M1597.91,-369.036C1388.16,-358.251 809.746,-328.51 613.293,-318.409"/>
<polygon fill="midnightblue" stroke="midnightblue" points="613.285,-314.904 603.119,-317.886 612.926,-321.895 613.285,-314.904"/>
</g>
<!-- Node46&#45;&gt;Node25 -->
<g id="edge284" class="edge"><title>Node46&#45;&gt;Node25</title>
<path fill="none" stroke="midnightblue" d="M1746.35,-362.497C1821.17,-351.482 1937.5,-334.358 2008.13,-323.96"/>
<polygon fill="midnightblue" stroke="midnightblue" points="2008.83,-327.395 2018.21,-322.476 2007.81,-320.47 2008.83,-327.395"/>
</g>
<!-- Node46&#45;&gt;Node34 -->
<g id="edge276" class="edge"><title>Node46&#45;&gt;Node34</title>
<path fill="none" stroke="midnightblue" d="M1695.46,-362.497C1713.03,-353.479 1738.58,-340.365 1758.39,-330.201"/>
<polygon fill="midnightblue" stroke="midnightblue" points="1760.01,-333.301 1767.31,-325.621 1756.81,-327.074 1760.01,-333.301"/>
</g>
<!-- Node47&#45;&gt;Node4 -->
<g id="edge294" class="edge"><title>Node47&#45;&gt;Node4</title>
<path fill="none" stroke="midnightblue" d="M1557.58,-306.095C1562.1,-305.326 1566.64,-304.61 1571,-304 1768.33,-276.399 2004.56,-259.814 2110.18,-253.254"/>
<polygon fill="midnightblue" stroke="midnightblue" points="2110.53,-256.74 2120.29,-252.633 2110.1,-249.753 2110.53,-256.74"/>
</g>
<!-- Node47&#45;&gt;Node13 -->
<g id="edge296" class="edge"><title>Node47&#45;&gt;Node13</title>
<path fill="none" stroke="midnightblue" d="M1508.72,-304.423C1500.89,-286.502 1482.5,-250.334 1455,-232 1429.56,-215.04 1351.9,-200.916 1297.26,-192.712"/>
<polygon fill="midnightblue" stroke="midnightblue" points="1297.74,-189.245 1287.34,-191.249 1296.72,-196.171 1297.74,-189.245"/>
</g>
<!-- Node48&#45;&gt;Node5 -->
<g id="edge308" class="edge"><title>Node48&#45;&gt;Node5</title>
<path fill="none" stroke="midnightblue" d="M2559.84,-305.956C2493.03,-292.493 2398,-260.139 2398,-185 2398,-185 2398,-185 2398,-127 2398,53.8414 2176.8,-77.3547 1997,-58 1801.59,-36.9655 1197.78,-18.5112 996.816,-12.8105"/>
<polygon fill="midnightblue" stroke="midnightblue" points="996.798,-9.3087 986.703,-12.5248 996.601,-16.3059 996.798,-9.3087"/>
</g>
<!-- Node48&#45;&gt;Node8 -->
<g id="edge310" class="edge"><title>Node48&#45;&gt;Node8</title>
<path fill="none" stroke="midnightblue" d="M2559.63,-313.326C2325.79,-307.16 1521.6,-285.179 1265,-268 1223.99,-265.255 1177.9,-260.648 1142.49,-256.783"/>
<polygon fill="midnightblue" stroke="midnightblue" points="1142.65,-253.28 1132.33,-255.662 1141.88,-260.238 1142.65,-253.28"/>
</g>
<!-- Node49 -->
<g id="node205" class="node"><title>Node49</title>
<polygon fill="white" stroke="#bfbfbf" points="2603.5,-239.5 2603.5,-260.5 2644.5,-260.5 2644.5,-239.5 2603.5,-239.5"/>
<text text-anchor="middle" x="2624" y="-247.5" font-family="Helvetica,sans-Serif" font-size="10.00">stack</text>
</g>
<!-- Node48&#45;&gt;Node49 -->
<g id="edge312" class="edge"><title>Node48&#45;&gt;Node49</title>
<path fill="none" stroke="midnightblue" d="M2624,-304.267C2624,-295.18 2624,-281.892 2624,-270.74"/>
<polygon fill="midnightblue" stroke="midnightblue" points="2627.5,-270.534 2624,-260.534 2620.5,-270.534 2627.5,-270.534"/>
</g>
</g>
</svg>
