<?xml version="1.0" encoding="UTF-8" standalone="no"?>
<!DOCTYPE svg PUBLIC "-//W3C//DTD SVG 1.1//EN"
 "http://www.w3.org/Graphics/SVG/1.1/DTD/svg11.dtd">
<!-- Generated by graphviz version 2.26.3 (20100126.1600)
 -->
<!-- Title: MojDbKey.h Pages: 1 -->
<svg width="1462pt" height="754pt"
 viewBox="0.00 0.00 1462.00 754.00" xmlns="http://www.w3.org/2000/svg" xmlns:xlink="http://www.w3.org/1999/xlink">
<g id="graph1" class="graph" transform="scale(1 1) rotate(0) translate(4 750)">
<title>MojDbKey.h</title>
<polygon fill="white" stroke="white" points="-4,5 -4,-750 1459,-750 1459,5 -4,5"/>
<!-- Node1 -->
<g id="node1" class="node"><title>Node1</title>
<polygon fill="#bfbfbf" stroke="black" points="899.5,-724.5 899.5,-745.5 972.5,-745.5 972.5,-724.5 899.5,-724.5"/>
<text text-anchor="middle" x="936" y="-732.5" font-family="Helvetica,sans-Serif" font-size="10.00">MojDbKey.h</text>
</g>
<!-- Node2 -->
<g id="node3" class="node"><title>Node2</title>
<a xlink:href="MojDbDefs_8h.htm" target="_top" xlink:title="db/MojDbDefs.h">
<polygon fill="white" stroke="black" points="1346.5,-666.5 1346.5,-687.5 1437.5,-687.5 1437.5,-666.5 1346.5,-666.5"/>
<text text-anchor="middle" x="1392" y="-674.5" font-family="Helvetica,sans-Serif" font-size="10.00">db/MojDbDefs.h</text>
</a>
</g>
<!-- Node1&#45;&gt;Node2 -->
<g id="edge2" class="edge"><title>Node1&#45;&gt;Node2</title>
<path fill="none" stroke="midnightblue" d="M972.546,-730.352C1052.17,-720.224 1241.75,-696.111 1336.34,-684.08"/>
<polygon fill="midnightblue" stroke="midnightblue" points="1336.81,-687.548 1346.29,-682.814 1335.93,-680.604 1336.81,-687.548"/>
</g>
<!-- Node13 -->
<g id="node25" class="node"><title>Node13</title>
<a xlink:href="MojBuffer_8h.htm" target="_top" xlink:title="core/MojBuffer.h">
<polygon fill="white" stroke="black" points="203,-608.5 203,-629.5 297,-629.5 297,-608.5 203,-608.5"/>
<text text-anchor="middle" x="250" y="-616.5" font-family="Helvetica,sans-Serif" font-size="10.00">core/MojBuffer.h</text>
</a>
</g>
<!-- Node1&#45;&gt;Node13 -->
<g id="edge24" class="edge"><title>Node1&#45;&gt;Node13</title>
<path fill="none" stroke="midnightblue" d="M899.156,-729.107C844.365,-720.316 738.176,-703.175 648,-688 526.552,-667.563 384.434,-642.695 307.158,-629.092"/>
<polygon fill="midnightblue" stroke="midnightblue" points="307.605,-625.617 297.149,-627.33 306.391,-632.511 307.605,-625.617"/>
</g>
<!-- Node19 -->
<g id="node42" class="node"><title>Node19</title>
<a xlink:href="MojVector_8h.htm" target="_top" xlink:title="core/MojVector.h">
<polygon fill="white" stroke="black" points="593.5,-550.5 593.5,-571.5 690.5,-571.5 690.5,-550.5 593.5,-550.5"/>
<text text-anchor="middle" x="642" y="-558.5" font-family="Helvetica,sans-Serif" font-size="10.00">core/MojVector.h</text>
</a>
</g>
<!-- Node1&#45;&gt;Node19 -->
<g id="edge126" class="edge"><title>Node1&#45;&gt;Node19</title>
<path fill="none" stroke="midnightblue" d="M899.233,-727.321C846.473,-714.742 748.551,-685.416 684,-630 668.611,-616.789 657.205,-596.483 650.193,-581.315"/>
<polygon fill="midnightblue" stroke="midnightblue" points="653.246,-579.558 646.046,-571.785 646.827,-582.351 653.246,-579.558"/>
</g>
<!-- Node26 -->
<g id="node64" class="node"><title>Node26</title>
<a xlink:href="MojObject_8h.htm" target="_top" xlink:title="core/MojObject.h">
<polygon fill="white" stroke="black" points="888,-666.5 888,-687.5 984,-687.5 984,-666.5 888,-666.5"/>
<text text-anchor="middle" x="936" y="-674.5" font-family="Helvetica,sans-Serif" font-size="10.00">core/MojObject.h</text>
</a>
</g>
<!-- Node1&#45;&gt;Node26 -->
<g id="edge76" class="edge"><title>Node1&#45;&gt;Node26</title>
<path fill="none" stroke="midnightblue" d="M936,-724.362C936,-716.922 936,-706.743 936,-697.728"/>
<polygon fill="midnightblue" stroke="midnightblue" points="939.5,-697.571 936,-687.571 932.5,-697.571 939.5,-697.571"/>
</g>
<!-- Node32 -->
<g id="node90" class="node"><title>Node32</title>
<a xlink:href="MojSet_8h.htm" target="_top" xlink:title="core/MojSet.h">
<polygon fill="white" stroke="black" points="1232,-492.5 1232,-513.5 1314,-513.5 1314,-492.5 1232,-492.5"/>
<text text-anchor="middle" x="1273" y="-500.5" font-family="Helvetica,sans-Serif" font-size="10.00">core/MojSet.h</text>
</a>
</g>
<!-- Node1&#45;&gt;Node32 -->
<g id="edge116" class="edge"><title>Node1&#45;&gt;Node32</title>
<path fill="none" stroke="midnightblue" d="M972.865,-730.603C1031.85,-721.739 1147.9,-696.532 1218,-630 1248.77,-600.796 1263.26,-551.464 1269.29,-523.661"/>
<polygon fill="midnightblue" stroke="midnightblue" points="1272.73,-524.317 1271.26,-513.824 1265.86,-522.941 1272.73,-524.317"/>
</g>
<!-- Node3 -->
<g id="node5" class="node"><title>Node3</title>
<a xlink:href="MojCoreDefs_8h.htm" target="_top" xlink:title="core/MojCoreDefs.h">
<polygon fill="white" stroke="black" points="663.5,-232.5 663.5,-253.5 774.5,-253.5 774.5,-232.5 663.5,-232.5"/>
<text text-anchor="middle" x="719" y="-240.5" font-family="Helvetica,sans-Serif" font-size="10.00">core/MojCoreDefs.h</text>
</a>
</g>
<!-- Node2&#45;&gt;Node3 -->
<g id="edge4" class="edge"><title>Node2&#45;&gt;Node3</title>
<path fill="none" stroke="midnightblue" d="M1402.24,-666.496C1419.85,-647.269 1454,-604.386 1454,-561 1454,-561 1454,-561 1454,-373 1454,-269.326 1337.01,-313.355 1236,-290 1151.85,-270.543 903.909,-253.875 784.602,-246.727"/>
<polygon fill="midnightblue" stroke="midnightblue" points="784.695,-243.226 774.505,-246.126 784.28,-250.214 784.695,-243.226"/>
</g>
<!-- Node4 -->
<g id="node7" class="node"><title>Node4</title>
<a xlink:href="MojConfig_8h.htm" target="_top" xlink:title="core/internal/MojConfig.h">
<polygon fill="white" stroke="black" points="776.5,-174.5 776.5,-195.5 911.5,-195.5 911.5,-174.5 776.5,-174.5"/>
<text text-anchor="middle" x="844" y="-182.5" font-family="Helvetica,sans-Serif" font-size="10.00">core/internal/MojConfig.h</text>
</a>
</g>
<!-- Node3&#45;&gt;Node4 -->
<g id="edge6" class="edge"><title>Node3&#45;&gt;Node4</title>
<path fill="none" stroke="midnightblue" d="M741.637,-232.497C761.248,-223.397 789.846,-210.127 811.833,-199.925"/>
<polygon fill="midnightblue" stroke="midnightblue" points="813.512,-203.005 821.109,-195.621 810.565,-196.655 813.512,-203.005"/>
</g>
<!-- Node5 -->
<g id="node9" class="node"><title>Node5</title>
<a xlink:href="MojNew_8h.htm" target="_top" xlink:title="core/internal/MojNew.h">
<polygon fill="white" stroke="black" points="438.5,-174.5 438.5,-195.5 563.5,-195.5 563.5,-174.5 438.5,-174.5"/>
<text text-anchor="middle" x="501" y="-182.5" font-family="Helvetica,sans-Serif" font-size="10.00">core/internal/MojNew.h</text>
</a>
</g>
<!-- Node3&#45;&gt;Node5 -->
<g id="edge8" class="edge"><title>Node3&#45;&gt;Node5</title>
<path fill="none" stroke="midnightblue" d="M679.522,-232.497C643.367,-222.877 589.696,-208.598 550.647,-198.209"/>
<polygon fill="midnightblue" stroke="midnightblue" points="551.116,-194.712 540.552,-195.523 549.316,-201.477 551.116,-194.712"/>
</g>
<!-- Node7 -->
<g id="node13" class="node"><title>Node7</title>
<a xlink:href="MojErr_8h.htm" target="_top" xlink:title="core/MojErr.h">
<polygon fill="white" stroke="black" points="581,-174.5 581,-195.5 661,-195.5 661,-174.5 581,-174.5"/>
<text text-anchor="middle" x="621" y="-182.5" font-family="Helvetica,sans-Serif" font-size="10.00">core/MojErr.h</text>
</a>
</g>
<!-- Node3&#45;&gt;Node7 -->
<g id="edge12" class="edge"><title>Node3&#45;&gt;Node7</title>
<path fill="none" stroke="midnightblue" d="M701.025,-232.362C686.106,-223.532 664.667,-210.844 647.734,-200.822"/>
<polygon fill="midnightblue" stroke="midnightblue" points="649.249,-197.652 638.861,-195.571 645.684,-203.676 649.249,-197.652"/>
</g>
<!-- Node11 -->
<g id="node21" class="node"><title>Node11</title>
<a xlink:href="MojOs_8h.htm" target="_top" xlink:title="core/MojOs.h">
<polygon fill="white" stroke="black" points="679,-174.5 679,-195.5 759,-195.5 759,-174.5 679,-174.5"/>
<text text-anchor="middle" x="719" y="-182.5" font-family="Helvetica,sans-Serif" font-size="10.00">core/MojOs.h</text>
</a>
</g>
<!-- Node3&#45;&gt;Node11 -->
<g id="edge20" class="edge"><title>Node3&#45;&gt;Node11</title>
<path fill="none" stroke="midnightblue" d="M719,-232.362C719,-224.922 719,-214.743 719,-205.728"/>
<polygon fill="midnightblue" stroke="midnightblue" points="722.5,-205.571 719,-195.571 715.5,-205.571 722.5,-205.571"/>
</g>
<!-- Node6 -->
<g id="node11" class="node"><title>Node6</title>
<polygon fill="white" stroke="#bfbfbf" points="483,-116.5 483,-137.5 519,-137.5 519,-116.5 483,-116.5"/>
<text text-anchor="middle" x="501" y="-124.5" font-family="Helvetica,sans-Serif" font-size="10.00">new</text>
</g>
<!-- Node5&#45;&gt;Node6 -->
<g id="edge10" class="edge"><title>Node5&#45;&gt;Node6</title>
<path fill="none" stroke="midnightblue" d="M501,-174.362C501,-166.922 501,-156.743 501,-147.728"/>
<polygon fill="midnightblue" stroke="midnightblue" points="504.5,-147.571 501,-137.571 497.5,-147.571 504.5,-147.571"/>
</g>
<!-- Node8 -->
<g id="node15" class="node"><title>Node8</title>
<a xlink:href="MojLog_8h.htm" target="_top" xlink:title="core/MojLog.h">
<polygon fill="white" stroke="black" points="538,-116.5 538,-137.5 622,-137.5 622,-116.5 538,-116.5"/>
<text text-anchor="middle" x="580" y="-124.5" font-family="Helvetica,sans-Serif" font-size="10.00">core/MojLog.h</text>
</a>
</g>
<!-- Node7&#45;&gt;Node8 -->
<g id="edge14" class="edge"><title>Node7&#45;&gt;Node8</title>
<path fill="none" stroke="midnightblue" d="M613.48,-174.362C607.874,-166.431 600.068,-155.389 593.403,-145.961"/>
<polygon fill="midnightblue" stroke="midnightblue" points="596.103,-143.716 587.472,-137.571 590.387,-147.757 596.103,-143.716"/>
</g>
<!-- Node9 -->
<g id="node17" class="node"><title>Node9</title>
<a xlink:href="MojListEntry_8h.htm" target="_top" xlink:title="core/MojListEntry.h">
<polygon fill="white" stroke="black" points="374.5,-58.5 374.5,-79.5 481.5,-79.5 481.5,-58.5 374.5,-58.5"/>
<text text-anchor="middle" x="428" y="-66.5" font-family="Helvetica,sans-Serif" font-size="10.00">core/MojListEntry.h</text>
</a>
</g>
<!-- Node8&#45;&gt;Node9 -->
<g id="edge16" class="edge"><title>Node8&#45;&gt;Node9</title>
<path fill="none" stroke="midnightblue" d="M552.474,-116.497C528.016,-107.164 492.062,-93.4447 465.076,-83.1475"/>
<polygon fill="midnightblue" stroke="midnightblue" points="466.168,-79.8182 455.578,-79.5231 463.673,-86.3582 466.168,-79.8182"/>
</g>
<!-- Node10 -->
<g id="node19" class="node"><title>Node10</title>
<a xlink:href="MojNoCopy_8h.htm" target="_top" xlink:title="core/MojNoCopy.h">
<polygon fill="white" stroke="black" points="260,-0.5 260,-21.5 364,-21.5 364,-0.5 260,-0.5"/>
<text text-anchor="middle" x="312" y="-8.5" font-family="Helvetica,sans-Serif" font-size="10.00">core/MojNoCopy.h</text>
</a>
</g>
<!-- Node9&#45;&gt;Node10 -->
<g id="edge18" class="edge"><title>Node9&#45;&gt;Node10</title>
<path fill="none" stroke="midnightblue" d="M406.993,-58.4966C388.957,-49.4786 362.73,-36.3649 342.401,-26.2006"/>
<polygon fill="midnightblue" stroke="midnightblue" points="343.752,-22.9629 333.242,-21.6212 340.621,-29.2239 343.752,-22.9629"/>
</g>
<!-- Node12 -->
<g id="node23" class="node"><title>Node12</title>
<a xlink:href="MojOsInternal_8h.htm" target="_top" xlink:title="core/internal/MojOsInternal.h">
<polygon fill="white" stroke="black" points="642,-116.5 642,-137.5 796,-137.5 796,-116.5 642,-116.5"/>
<text text-anchor="middle" x="719" y="-124.5" font-family="Helvetica,sans-Serif" font-size="10.00">core/internal/MojOsInternal.h</text>
</a>
</g>
<!-- Node11&#45;&gt;Node12 -->
<g id="edge22" class="edge"><title>Node11&#45;&gt;Node12</title>
<path fill="none" stroke="midnightblue" d="M719,-174.362C719,-166.922 719,-156.743 719,-147.728"/>
<polygon fill="midnightblue" stroke="midnightblue" points="722.5,-147.571 719,-137.571 715.5,-147.571 722.5,-147.571"/>
</g>
<!-- Node13&#45;&gt;Node3 -->
<g id="edge26" class="edge"><title>Node13&#45;&gt;Node3</title>
<path fill="none" stroke="midnightblue" d="M207.023,-608.465C135.545,-589.674 0,-548.096 0,-503 0,-503 0,-503 0,-373 0,-330.162 12.5644,-312.528 49,-290 99.5559,-258.741 494.611,-247.461 653.322,-244.164"/>
<polygon fill="midnightblue" stroke="midnightblue" points="653.501,-247.661 663.428,-243.958 653.358,-240.662 653.501,-247.661"/>
</g>
<!-- Node14 -->
<g id="node28" class="node"><title>Node14</title>
<a xlink:href="MojAutoPtr_8h.htm" target="_top" xlink:title="core/MojAutoPtr.h">
<polygon fill="white" stroke="black" points="377.5,-362.5 377.5,-383.5 478.5,-383.5 478.5,-362.5 377.5,-362.5"/>
<text text-anchor="middle" x="428" y="-370.5" font-family="Helvetica,sans-Serif" font-size="10.00">core/MojAutoPtr.h</text>
</a>
</g>
<!-- Node13&#45;&gt;Node14 -->
<g id="edge28" class="edge"><title>Node13&#45;&gt;Node14</title>
<path fill="none" stroke="midnightblue" d="M253.244,-608.446C260.52,-585.772 279.674,-531.282 307,-492 335.695,-450.751 379.858,-411.648 406.144,-390.139"/>
<polygon fill="midnightblue" stroke="midnightblue" points="408.424,-392.797 414.009,-383.793 404.028,-387.349 408.424,-392.797"/>
</g>
<!-- Node17 -->
<g id="node37" class="node"><title>Node17</title>
<a xlink:href="MojList_8h.htm" target="_top" xlink:title="core/MojList.h">
<polygon fill="white" stroke="black" points="102.5,-550.5 102.5,-571.5 185.5,-571.5 185.5,-550.5 102.5,-550.5"/>
<text text-anchor="middle" x="144" y="-558.5" font-family="Helvetica,sans-Serif" font-size="10.00">core/MojList.h</text>
</a>
</g>
<!-- Node13&#45;&gt;Node17 -->
<g id="edge40" class="edge"><title>Node13&#45;&gt;Node17</title>
<path fill="none" stroke="midnightblue" d="M230.558,-608.362C214.196,-599.409 190.587,-586.491 172.157,-576.406"/>
<polygon fill="midnightblue" stroke="midnightblue" points="173.771,-573.3 163.319,-571.571 170.411,-579.441 173.771,-573.3"/>
</g>
<!-- Node13&#45;&gt;Node19 -->
<g id="edge46" class="edge"><title>Node13&#45;&gt;Node19</title>
<path fill="none" stroke="midnightblue" d="M297.284,-612.004C369.001,-601.393 505.161,-581.247 583.173,-569.704"/>
<polygon fill="midnightblue" stroke="midnightblue" points="583.938,-573.129 593.318,-568.203 582.914,-566.204 583.938,-573.129"/>
</g>
<!-- Node14&#45;&gt;Node3 -->
<g id="edge30" class="edge"><title>Node14&#45;&gt;Node3</title>
<path fill="none" stroke="midnightblue" d="M428.43,-362.484C429.76,-344.654 435.165,-308.62 457,-290 485.848,-265.401 585.343,-253.027 653.076,-247.313"/>
<polygon fill="midnightblue" stroke="midnightblue" points="653.559,-250.785 663.242,-246.485 652.991,-243.808 653.559,-250.785"/>
</g>
<!-- Node14&#45;&gt;Node10 -->
<g id="edge36" class="edge"><title>Node14&#45;&gt;Node10</title>
<path fill="none" stroke="midnightblue" d="M377.373,-367.176C309.11,-356.188 196,-325.529 196,-243 196,-243 196,-243 196,-127 196,-79.7499 244.717,-45.0239 279.009,-26.4334"/>
<polygon fill="midnightblue" stroke="midnightblue" points="280.995,-29.3454 288.246,-21.6207 277.76,-23.1374 280.995,-29.3454"/>
</g>
<!-- Node15 -->
<g id="node31" class="node"><title>Node15</title>
<a xlink:href="MojAtomicInt_8h.htm" target="_top" xlink:title="core/MojAtomicInt.h">
<polygon fill="white" stroke="black" points="300,-297.5 300,-318.5 410,-318.5 410,-297.5 300,-297.5"/>
<text text-anchor="middle" x="355" y="-305.5" font-family="Helvetica,sans-Serif" font-size="10.00">core/MojAtomicInt.h</text>
</a>
</g>
<!-- Node14&#45;&gt;Node15 -->
<g id="edge32" class="edge"><title>Node14&#45;&gt;Node15</title>
<path fill="none" stroke="midnightblue" d="M415.946,-362.267C404.677,-352.233 387.657,-337.078 374.464,-325.331"/>
<polygon fill="midnightblue" stroke="midnightblue" points="376.626,-322.57 366.83,-318.534 371.971,-327.798 376.626,-322.57"/>
</g>
<!-- Node16 -->
<g id="node35" class="node"><title>Node16</title>
<a xlink:href="MojAutoPtrInternal_8h.htm" target="_top" xlink:title="core/internal/MojAutoPtr\lInternal.h">
<polygon fill="white" stroke="black" points="465.5,-291 465.5,-325 596.5,-325 596.5,-291 465.5,-291"/>
<text text-anchor="start" x="473.5" y="-312" font-family="Helvetica,sans-Serif" font-size="10.00">core/internal/MojAutoPtr</text>
<text text-anchor="middle" x="531" y="-299" font-family="Helvetica,sans-Serif" font-size="10.00">Internal.h</text>
</a>
</g>
<!-- Node14&#45;&gt;Node16 -->
<g id="edge38" class="edge"><title>Node14&#45;&gt;Node16</title>
<path fill="none" stroke="midnightblue" d="M445.008,-362.267C458.632,-353.669 478.216,-341.31 495.255,-330.558"/>
<polygon fill="midnightblue" stroke="midnightblue" points="497.299,-333.407 503.887,-325.11 493.563,-327.487 497.299,-333.407"/>
</g>
<!-- Node15&#45;&gt;Node3 -->
<g id="edge34" class="edge"><title>Node15&#45;&gt;Node3</title>
<path fill="none" stroke="midnightblue" d="M392.805,-297.431C402.894,-294.804 413.822,-292.133 424,-290 502.212,-273.609 593.145,-259.922 653.152,-251.622"/>
<polygon fill="midnightblue" stroke="midnightblue" points="653.816,-255.064 663.247,-250.236 652.864,-248.129 653.816,-255.064"/>
</g>
<!-- Node17&#45;&gt;Node3 -->
<g id="edge42" class="edge"><title>Node17&#45;&gt;Node3</title>
<path fill="none" stroke="midnightblue" d="M110.176,-550.343C91.8874,-542.922 70.3715,-531.221 57,-514 35.6465,-486.5 38,-472.817 38,-438 38,-438 38,-438 38,-373 38,-274.704 147.558,-313.514 243,-290 319.039,-271.266 541.416,-254.625 653.222,-247.161"/>
<polygon fill="midnightblue" stroke="midnightblue" points="653.615,-250.643 663.362,-246.489 653.152,-243.658 653.615,-250.643"/>
</g>
<!-- Node18 -->
<g id="node40" class="node"><title>Node18</title>
<a xlink:href="MojListInternal_8h.htm" target="_top" xlink:title="core/internal/MojListInternal.h">
<polygon fill="white" stroke="black" points="65.5,-492.5 65.5,-513.5 222.5,-513.5 222.5,-492.5 65.5,-492.5"/>
<text text-anchor="middle" x="144" y="-500.5" font-family="Helvetica,sans-Serif" font-size="10.00">core/internal/MojListInternal.h</text>
</a>
</g>
<!-- Node17&#45;&gt;Node18 -->
<g id="edge44" class="edge"><title>Node17&#45;&gt;Node18</title>
<path fill="none" stroke="midnightblue" d="M144,-550.362C144,-542.922 144,-532.743 144,-523.728"/>
<polygon fill="midnightblue" stroke="midnightblue" points="147.5,-523.571 144,-513.571 140.5,-523.571 147.5,-523.571"/>
</g>
<!-- Node19&#45;&gt;Node3 -->
<g id="edge48" class="edge"><title>Node19&#45;&gt;Node3</title>
<path fill="none" stroke="midnightblue" d="M593.262,-557.141C505.504,-549.763 328.032,-532.716 307,-514 231.673,-446.969 203.522,-364.927 271,-290 296.077,-262.155 534.722,-249.659 653.088,-245.137"/>
<polygon fill="midnightblue" stroke="midnightblue" points="653.261,-248.633 663.123,-244.762 652.999,-241.638 653.261,-248.633"/>
</g>
<!-- Node20 -->
<g id="node45" class="node"><title>Node20</title>
<a xlink:href="MojComp_8h.htm" target="_top" xlink:title="core/MojComp.h">
<polygon fill="white" stroke="black" points="672,-297.5 672,-318.5 766,-318.5 766,-297.5 672,-297.5"/>
<text text-anchor="middle" x="719" y="-305.5" font-family="Helvetica,sans-Serif" font-size="10.00">core/MojComp.h</text>
</a>
</g>
<!-- Node19&#45;&gt;Node20 -->
<g id="edge50" class="edge"><title>Node19&#45;&gt;Node20</title>
<path fill="none" stroke="midnightblue" d="M649.565,-550.263C662.091,-531.901 686.952,-492.869 699,-456 713.29,-412.268 717.379,-358.054 718.543,-328.901"/>
<polygon fill="midnightblue" stroke="midnightblue" points="722.048,-328.806 718.869,-318.699 715.051,-328.582 722.048,-328.806"/>
</g>
<!-- Node21 -->
<g id="node48" class="node"><title>Node21</title>
<a xlink:href="MojRefCount_8h.htm" target="_top" xlink:title="core/MojRefCount.h">
<polygon fill="white" stroke="black" points="316,-492.5 316,-513.5 426,-513.5 426,-492.5 316,-492.5"/>
<text text-anchor="middle" x="371" y="-500.5" font-family="Helvetica,sans-Serif" font-size="10.00">core/MojRefCount.h</text>
</a>
</g>
<!-- Node19&#45;&gt;Node21 -->
<g id="edge54" class="edge"><title>Node19&#45;&gt;Node21</title>
<path fill="none" stroke="midnightblue" d="M593.238,-550.564C547.474,-540.769 478.938,-526.101 430.088,-515.646"/>
<polygon fill="midnightblue" stroke="midnightblue" points="430.796,-512.219 420.285,-513.548 429.331,-519.064 430.796,-512.219"/>
</g>
<!-- Node24 -->
<g id="node58" class="node"><title>Node24</title>
<a xlink:href="MojUtil_8h.htm" target="_top" xlink:title="core/MojUtil.h">
<polygon fill="white" stroke="black" points="609.5,-427.5 609.5,-448.5 690.5,-448.5 690.5,-427.5 609.5,-427.5"/>
<text text-anchor="middle" x="650" y="-435.5" font-family="Helvetica,sans-Serif" font-size="10.00">core/MojUtil.h</text>
</a>
</g>
<!-- Node19&#45;&gt;Node24 -->
<g id="edge68" class="edge"><title>Node19&#45;&gt;Node24</title>
<path fill="none" stroke="midnightblue" d="M642.71,-550.085C644.042,-529.609 646.934,-485.133 648.649,-458.778"/>
<polygon fill="midnightblue" stroke="midnightblue" points="652.147,-458.921 649.303,-448.715 645.161,-458.467 652.147,-458.921"/>
</g>
<!-- Node25 -->
<g id="node62" class="node"><title>Node25</title>
<a xlink:href="MojVectorInternal_8h.htm" target="_top" xlink:title="core/internal/MojVectorInternal.h">
<polygon fill="white" stroke="black" points="443.5,-492.5 443.5,-513.5 614.5,-513.5 614.5,-492.5 443.5,-492.5"/>
<text text-anchor="middle" x="529" y="-500.5" font-family="Helvetica,sans-Serif" font-size="10.00">core/internal/MojVectorInternal.h</text>
</a>
</g>
<!-- Node19&#45;&gt;Node25 -->
<g id="edge74" class="edge"><title>Node19&#45;&gt;Node25</title>
<path fill="none" stroke="midnightblue" d="M621.537,-550.497C603.967,-541.479 578.418,-528.365 558.615,-518.201"/>
<polygon fill="midnightblue" stroke="midnightblue" points="560.188,-515.074 549.693,-513.621 556.991,-521.301 560.188,-515.074"/>
</g>
<!-- Node20&#45;&gt;Node3 -->
<g id="edge52" class="edge"><title>Node20&#45;&gt;Node3</title>
<path fill="none" stroke="midnightblue" d="M719,-297.267C719,-288.18 719,-274.892 719,-263.74"/>
<polygon fill="midnightblue" stroke="midnightblue" points="722.5,-263.534 719,-253.534 715.5,-263.534 722.5,-263.534"/>
</g>
<!-- Node21&#45;&gt;Node3 -->
<g id="edge56" class="edge"><title>Node21&#45;&gt;Node3</title>
<path fill="none" stroke="midnightblue" d="M360.234,-492.294C327.518,-458.504 234.846,-352.658 291,-290 314.699,-263.556 539.015,-250.474 653.077,-245.487"/>
<polygon fill="midnightblue" stroke="midnightblue" points="653.254,-248.983 663.095,-245.058 652.954,-241.989 653.254,-248.983"/>
</g>
<!-- Node21&#45;&gt;Node14 -->
<g id="edge60" class="edge"><title>Node21&#45;&gt;Node14</title>
<path fill="none" stroke="midnightblue" d="M375.073,-492.423C381.24,-476.557 393.457,-445.713 405,-420 409.064,-410.946 413.849,-401.06 417.998,-392.701"/>
<polygon fill="midnightblue" stroke="midnightblue" points="421.142,-394.239 422.496,-383.731 414.885,-391.101 421.142,-394.239"/>
</g>
<!-- Node21&#45;&gt;Node15 -->
<g id="edge58" class="edge"><title>Node21&#45;&gt;Node15</title>
<path fill="none" stroke="midnightblue" d="M370.117,-492.238C367.561,-461.082 360.12,-370.397 356.725,-329.022"/>
<polygon fill="midnightblue" stroke="midnightblue" points="360.206,-328.649 355.9,-318.969 353.23,-329.222 360.206,-328.649"/>
</g>
<!-- Node22 -->
<g id="node53" class="node"><title>Node22</title>
<a xlink:href="MojRefCountInternal_8h.htm" target="_top" xlink:title="core/internal/MojRefCount\lInternal.h">
<polygon fill="white" stroke="black" points="414,-421 414,-455 554,-455 554,-421 414,-421"/>
<text text-anchor="start" x="422" y="-442" font-family="Helvetica,sans-Serif" font-size="10.00">core/internal/MojRefCount</text>
<text text-anchor="middle" x="484" y="-429" font-family="Helvetica,sans-Serif" font-size="10.00">Internal.h</text>
</a>
</g>
<!-- Node21&#45;&gt;Node22 -->
<g id="edge62" class="edge"><title>Node21&#45;&gt;Node22</title>
<path fill="none" stroke="midnightblue" d="M389.407,-492.412C404.524,-483.716 426.45,-471.104 445.388,-460.211"/>
<polygon fill="midnightblue" stroke="midnightblue" points="447.198,-463.207 454.121,-455.187 443.708,-457.139 447.198,-463.207"/>
</g>
<!-- Node23 -->
<g id="node55" class="node"><title>Node23</title>
<a xlink:href="MojUtilInternal_8h.htm" target="_top" xlink:title="core/internal/MojUtilInternal.h">
<polygon fill="white" stroke="black" points="535.5,-362.5 535.5,-383.5 690.5,-383.5 690.5,-362.5 535.5,-362.5"/>
<text text-anchor="middle" x="613" y="-370.5" font-family="Helvetica,sans-Serif" font-size="10.00">core/internal/MojUtilInternal.h</text>
</a>
</g>
<!-- Node22&#45;&gt;Node23 -->
<g id="edge64" class="edge"><title>Node22&#45;&gt;Node23</title>
<path fill="none" stroke="midnightblue" d="M517.893,-420.922C538.037,-410.772 563.365,-398.01 582.818,-388.208"/>
<polygon fill="midnightblue" stroke="midnightblue" points="584.492,-391.284 591.847,-383.658 581.342,-385.033 584.492,-391.284"/>
</g>
<!-- Node23&#45;&gt;Node20 -->
<g id="edge66" class="edge"><title>Node23&#45;&gt;Node20</title>
<path fill="none" stroke="midnightblue" d="M630.504,-362.267C647.56,-351.807 673.694,-335.782 693.146,-323.854"/>
<polygon fill="midnightblue" stroke="midnightblue" points="695.127,-326.745 701.822,-318.534 691.467,-320.778 695.127,-326.745"/>
</g>
<!-- Node24&#45;&gt;Node3 -->
<g id="edge70" class="edge"><title>Node24&#45;&gt;Node3</title>
<path fill="none" stroke="midnightblue" d="M621.634,-427.429C587.062,-414.262 532.531,-392.469 527,-384 521.653,-375.814 521.73,-370.236 527,-362 547.578,-329.839 572.074,-345.33 605,-326 639.294,-305.867 675.966,-277.866 698.191,-260.088"/>
<polygon fill="midnightblue" stroke="midnightblue" points="700.656,-262.596 706.238,-253.591 696.259,-257.15 700.656,-262.596"/>
</g>
<!-- Node24&#45;&gt;Node23 -->
<g id="edge72" class="edge"><title>Node24&#45;&gt;Node23</title>
<path fill="none" stroke="midnightblue" d="M643.89,-427.267C638.502,-417.801 630.519,-403.777 624.019,-392.357"/>
<polygon fill="midnightblue" stroke="midnightblue" points="626.985,-390.493 618.996,-383.534 620.901,-393.956 626.985,-390.493"/>
</g>
<!-- Node26&#45;&gt;Node3 -->
<g id="edge78" class="edge"><title>Node26&#45;&gt;Node3</title>
<path fill="none" stroke="midnightblue" d="M984.223,-666.52C1061.38,-648.342 1204,-608.34 1204,-561 1204,-561 1204,-561 1204,-373 1204,-313.862 1154.51,-312.929 1100,-290 1044.63,-266.712 878.362,-252.918 784.802,-246.794"/>
<polygon fill="midnightblue" stroke="midnightblue" points="784.801,-243.286 774.596,-246.137 784.351,-250.272 784.801,-243.286"/>
</g>
<!-- Node26&#45;&gt;Node19 -->
<g id="edge114" class="edge"><title>Node26&#45;&gt;Node19</title>
<path fill="none" stroke="midnightblue" d="M887.926,-673.694C842.307,-668.958 772.903,-657.515 719,-630 694.494,-617.491 671.729,-595.224 657.406,-579.37"/>
<polygon fill="midnightblue" stroke="midnightblue" points="659.946,-576.959 650.721,-571.749 654.684,-581.575 659.946,-576.959"/>
</g>
<!-- Node27 -->
<g id="node67" class="node"><title>Node27</title>
<a xlink:href="MojDecimal_8h.htm" target="_top" xlink:title="core/MojDecimal.h">
<polygon fill="white" stroke="black" points="964,-550.5 964,-571.5 1068,-571.5 1068,-550.5 964,-550.5"/>
<text text-anchor="middle" x="1016" y="-558.5" font-family="Helvetica,sans-Serif" font-size="10.00">core/MojDecimal.h</text>
</a>
</g>
<!-- Node26&#45;&gt;Node27 -->
<g id="edge80" class="edge"><title>Node26&#45;&gt;Node27</title>
<path fill="none" stroke="midnightblue" d="M943.383,-666.295C956.897,-646.7 985.779,-604.82 1002.76,-580.191"/>
<polygon fill="midnightblue" stroke="midnightblue" points="1005.84,-581.898 1008.64,-571.679 1000.08,-577.924 1005.84,-581.898"/>
</g>
<!-- Node29 -->
<g id="node74" class="node"><title>Node29</title>
<a xlink:href="MojMap_8h.htm" target="_top" xlink:title="core/MojMap.h">
<polygon fill="white" stroke="black" points="939.5,-492.5 939.5,-513.5 1026.5,-513.5 1026.5,-492.5 939.5,-492.5"/>
<text text-anchor="middle" x="983" y="-500.5" font-family="Helvetica,sans-Serif" font-size="10.00">core/MojMap.h</text>
</a>
</g>
<!-- Node26&#45;&gt;Node29 -->
<g id="edge90" class="edge"><title>Node26&#45;&gt;Node29</title>
<path fill="none" stroke="midnightblue" d="M936.209,-666.463C936.942,-644.272 940.234,-591.362 955,-550 958.48,-540.251 964.072,-530.285 969.347,-522.053"/>
<polygon fill="midnightblue" stroke="midnightblue" points="972.356,-523.85 975.038,-513.6 966.549,-519.94 972.356,-523.85"/>
</g>
<!-- Node31 -->
<g id="node82" class="node"><title>Node31</title>
<a xlink:href="MojString_8h.htm" target="_top" xlink:title="core/MojString.h">
<polygon fill="white" stroke="black" points="728,-608.5 728,-629.5 822,-629.5 822,-608.5 728,-608.5"/>
<text text-anchor="middle" x="775" y="-616.5" font-family="Helvetica,sans-Serif" font-size="10.00">core/MojString.h</text>
</a>
</g>
<!-- Node26&#45;&gt;Node31 -->
<g id="edge102" class="edge"><title>Node26&#45;&gt;Node31</title>
<path fill="none" stroke="midnightblue" d="M906.844,-666.497C880.824,-657.123 842.521,-643.324 813.896,-633.012"/>
<polygon fill="midnightblue" stroke="midnightblue" points="814.805,-629.62 804.211,-629.523 812.432,-636.205 814.805,-629.62"/>
</g>
<!-- Node27&#45;&gt;Node3 -->
<g id="edge82" class="edge"><title>Node27&#45;&gt;Node3</title>
<path fill="none" stroke="midnightblue" d="M1049.29,-550.397C1093.48,-533.995 1166,-497.946 1166,-438 1166,-438 1166,-438 1166,-373 1166,-294.587 909.178,-260.355 784.87,-248.379"/>
<polygon fill="midnightblue" stroke="midnightblue" points="784.993,-244.875 774.709,-247.421 784.336,-251.844 784.993,-244.875"/>
</g>
<!-- Node28 -->
<g id="node70" class="node"><title>Node28</title>
<a xlink:href="MojHasher_8h.htm" target="_top" xlink:title="core/MojHasher.h">
<polygon fill="white" stroke="black" points="821.5,-492.5 821.5,-513.5 922.5,-513.5 922.5,-492.5 821.5,-492.5"/>
<text text-anchor="middle" x="872" y="-500.5" font-family="Helvetica,sans-Serif" font-size="10.00">core/MojHasher.h</text>
</a>
</g>
<!-- Node27&#45;&gt;Node28 -->
<g id="edge84" class="edge"><title>Node27&#45;&gt;Node28</title>
<path fill="none" stroke="midnightblue" d="M989.923,-550.497C966.925,-541.234 933.2,-527.65 907.7,-517.379"/>
<polygon fill="midnightblue" stroke="midnightblue" points="908.953,-514.111 898.37,-513.621 906.338,-520.604 908.953,-514.111"/>
</g>
<!-- Node28&#45;&gt;Node3 -->
<g id="edge86" class="edge"><title>Node28&#45;&gt;Node3</title>
<path fill="none" stroke="midnightblue" d="M871.612,-492.366C869.859,-458.791 860.251,-353.514 808,-290 796.122,-275.561 778.625,-264.982 762.281,-257.558"/>
<polygon fill="midnightblue" stroke="midnightblue" points="763.415,-254.236 752.843,-253.546 760.677,-260.679 763.415,-254.236"/>
</g>
<!-- Node28&#45;&gt;Node24 -->
<g id="edge88" class="edge"><title>Node28&#45;&gt;Node24</title>
<path fill="none" stroke="midnightblue" d="M835.838,-492.412C797.7,-481.246 737.5,-463.619 696.006,-451.47"/>
<polygon fill="midnightblue" stroke="midnightblue" points="696.727,-448.035 686.147,-448.584 694.76,-454.753 696.727,-448.035"/>
</g>
<!-- Node29&#45;&gt;Node3 -->
<g id="edge92" class="edge"><title>Node29&#45;&gt;Node3</title>
<path fill="none" stroke="midnightblue" d="M967.45,-492.3C955.427,-483.507 938.884,-470.219 927,-456 872.487,-390.775 895.762,-346.216 832,-290 814.802,-274.837 792.024,-264.106 771.427,-256.765"/>
<polygon fill="midnightblue" stroke="midnightblue" points="772.43,-253.41 761.836,-253.528 770.192,-260.042 772.43,-253.41"/>
</g>
<!-- Node29&#45;&gt;Node20 -->
<g id="edge94" class="edge"><title>Node29&#45;&gt;Node20</title>
<path fill="none" stroke="midnightblue" d="M959.536,-492.332C941.117,-483.556 915.143,-470.277 894,-456 832.55,-414.505 767.834,-354.999 737.168,-325.691"/>
<polygon fill="midnightblue" stroke="midnightblue" points="739.422,-323.003 729.789,-318.592 734.569,-328.047 739.422,-323.003"/>
</g>
<!-- Node30 -->
<g id="node78" class="node"><title>Node30</title>
<a xlink:href="MojRbTreeBase_8h.htm" target="_top" xlink:title="core/internal/MojRbTreeBase.h">
<polygon fill="white" stroke="black" points="936,-427.5 936,-448.5 1100,-448.5 1100,-427.5 936,-427.5"/>
<text text-anchor="middle" x="1018" y="-435.5" font-family="Helvetica,sans-Serif" font-size="10.00">core/internal/MojRbTreeBase.h</text>
</a>
</g>
<!-- Node29&#45;&gt;Node30 -->
<g id="edge96" class="edge"><title>Node29&#45;&gt;Node30</title>
<path fill="none" stroke="midnightblue" d="M988.78,-492.267C993.876,-482.801 1001.43,-468.777 1007.58,-457.357"/>
<polygon fill="midnightblue" stroke="midnightblue" points="1010.67,-458.998 1012.33,-448.534 1004.51,-455.679 1010.67,-458.998"/>
</g>
<!-- Node30&#45;&gt;Node3 -->
<g id="edge98" class="edge"><title>Node30&#45;&gt;Node3</title>
<path fill="none" stroke="midnightblue" d="M1014.36,-427.413C1004.34,-399.981 973.66,-326.217 922,-290 899.992,-274.571 835.139,-261.218 784.594,-252.73"/>
<polygon fill="midnightblue" stroke="midnightblue" points="785.129,-249.271 774.693,-251.098 783.991,-256.178 785.129,-249.271"/>
</g>
<!-- Node30&#45;&gt;Node14 -->
<g id="edge100" class="edge"><title>Node30&#45;&gt;Node14</title>
<path fill="none" stroke="midnightblue" d="M935.899,-428.999C838.395,-418.303 670.839,-399.901 527,-384 514.59,-382.628 501.305,-381.155 488.627,-379.747"/>
<polygon fill="midnightblue" stroke="midnightblue" points="488.942,-376.261 478.617,-378.635 488.169,-383.218 488.942,-376.261"/>
</g>
<!-- Node31&#45;&gt;Node3 -->
<g id="edge104" class="edge"><title>Node31&#45;&gt;Node3</title>
<path fill="none" stroke="midnightblue" d="M777.969,-608.222C783.312,-587.841 794,-542.182 794,-503 794,-503 794,-503 794,-373 794,-335.157 794.741,-322.286 775,-290 767.581,-277.867 755.929,-267.351 745.17,-259.361"/>
<polygon fill="midnightblue" stroke="midnightblue" points="747.028,-256.389 736.831,-253.512 743.008,-262.12 747.028,-256.389"/>
</g>
<!-- Node31&#45;&gt;Node14 -->
<g id="edge106" class="edge"><title>Node31&#45;&gt;Node14</title>
<path fill="none" stroke="midnightblue" d="M763.579,-608.342C735.736,-582.352 662.162,-513.618 601,-456 584.066,-440.047 582.874,-432.095 563,-420 538.483,-405.079 508.566,-394.048 483.132,-386.436"/>
<polygon fill="midnightblue" stroke="midnightblue" points="483.842,-382.999 473.263,-383.585 481.899,-389.723 483.842,-382.999"/>
</g>
<!-- Node31&#45;&gt;Node19 -->
<g id="edge112" class="edge"><title>Node31&#45;&gt;Node19</title>
<path fill="none" stroke="midnightblue" d="M750.915,-608.497C729.861,-599.315 699.073,-585.889 675.598,-575.652"/>
<polygon fill="midnightblue" stroke="midnightblue" points="676.921,-572.41 666.356,-571.621 674.123,-578.827 676.921,-572.41"/>
</g>
<!-- Node31&#45;&gt;Node20 -->
<g id="edge108" class="edge"><title>Node31&#45;&gt;Node20</title>
<path fill="none" stroke="midnightblue" d="M772.031,-608.222C766.688,-587.841 756,-542.182 756,-503 756,-503 756,-503 756,-438 756,-397.783 739.417,-353.148 728.454,-328.037"/>
<polygon fill="midnightblue" stroke="midnightblue" points="731.604,-326.508 724.301,-318.832 725.223,-329.386 731.604,-326.508"/>
</g>
<!-- Node31&#45;&gt;Node28 -->
<g id="edge110" class="edge"><title>Node31&#45;&gt;Node28</title>
<path fill="none" stroke="midnightblue" d="M783.952,-608.295C800.482,-588.527 835.976,-546.08 856.493,-521.544"/>
<polygon fill="midnightblue" stroke="midnightblue" points="859.34,-523.596 863.07,-513.679 853.97,-519.105 859.34,-523.596"/>
</g>
<!-- Node32&#45;&gt;Node3 -->
<g id="edge118" class="edge"><title>Node32&#45;&gt;Node3</title>
<path fill="none" stroke="midnightblue" d="M1270.3,-492.461C1259.31,-449.574 1218.5,-290.429 1218,-290 1185.68,-262.448 912.492,-249.586 784.576,-245.031"/>
<polygon fill="midnightblue" stroke="midnightblue" points="784.627,-241.531 774.511,-244.679 784.383,-248.527 784.627,-241.531"/>
</g>
<!-- Node32&#45;&gt;Node20 -->
<g id="edge120" class="edge"><title>Node32&#45;&gt;Node20</title>
<path fill="none" stroke="midnightblue" d="M1254.83,-492.366C1225.13,-475.311 1163.95,-441.573 1109,-420 993.843,-374.793 853.15,-338.904 776.148,-320.822"/>
<polygon fill="midnightblue" stroke="midnightblue" points="776.703,-317.358 766.17,-318.495 775.113,-324.175 776.703,-317.358"/>
</g>
<!-- Node32&#45;&gt;Node30 -->
<g id="edge122" class="edge"><title>Node32&#45;&gt;Node30</title>
<path fill="none" stroke="midnightblue" d="M1231.75,-492.484C1187.4,-481.18 1116.84,-463.195 1069.03,-451.008"/>
<polygon fill="midnightblue" stroke="midnightblue" points="1069.75,-447.579 1059.19,-448.501 1068.02,-454.362 1069.75,-447.579"/>
</g>
<!-- Node33 -->
<g id="node95" class="node"><title>Node33</title>
<a xlink:href="MojSetInternal_8h.htm" target="_top" xlink:title="core/internal/MojSetInternal.h">
<polygon fill="white" stroke="black" points="1270,-427.5 1270,-448.5 1426,-448.5 1426,-427.5 1270,-427.5"/>
<text text-anchor="middle" x="1348" y="-435.5" font-family="Helvetica,sans-Serif" font-size="10.00">core/internal/MojSetInternal.h</text>
</a>
</g>
<!-- Node32&#45;&gt;Node33 -->
<g id="edge124" class="edge"><title>Node32&#45;&gt;Node33</title>
<path fill="none" stroke="midnightblue" d="M1285.38,-492.267C1296.96,-482.233 1314.45,-467.078 1328,-455.331"/>
<polygon fill="midnightblue" stroke="midnightblue" points="1330.58,-457.728 1335.85,-448.534 1326,-452.438 1330.58,-457.728"/>
</g>
</g>
</svg>
