<?xml version="1.0" encoding="UTF-8" standalone="no"?>
<!DOCTYPE svg PUBLIC "-//W3C//DTD SVG 1.1//EN"
 "http://www.w3.org/Graphics/SVG/1.1/DTD/svg11.dtd">
<!-- Generated by graphviz version 2.26.3 (20100126.1600)
 -->
<!-- Title: MojDbIdGenerator.h Pages: 1 -->
<svg width="703pt" height="566pt"
 viewBox="0.00 0.00 703.00 566.00" xmlns="http://www.w3.org/2000/svg" xmlns:xlink="http://www.w3.org/1999/xlink">
<g id="graph1" class="graph" transform="scale(1 1) rotate(0) translate(4 562)">
<title>MojDbIdGenerator.h</title>
<polygon fill="white" stroke="white" points="-4,5 -4,-562 700,-562 700,5 -4,5"/>
<!-- Node1 -->
<g id="node1" class="node"><title>Node1</title>
<polygon fill="#bfbfbf" stroke="black" points="266.5,-536.5 266.5,-557.5 379.5,-557.5 379.5,-536.5 266.5,-536.5"/>
<text text-anchor="middle" x="323" y="-544.5" font-family="Helvetica,sans-Serif" font-size="10.00">MojDbIdGenerator.h</text>
</g>
<!-- Node2 -->
<g id="node3" class="node"><title>Node2</title>
<a xlink:href="MojDbDefs_8h.htm" target="_top" xlink:title="db/MojDbDefs.h">
<polygon fill="white" stroke="black" points="214.5,-420.5 214.5,-441.5 305.5,-441.5 305.5,-420.5 214.5,-420.5"/>
<text text-anchor="middle" x="260" y="-428.5" font-family="Helvetica,sans-Serif" font-size="10.00">db/MojDbDefs.h</text>
</a>
</g>
<!-- Node1&#45;&gt;Node2 -->
<g id="edge2" class="edge"><title>Node1&#45;&gt;Node2</title>
<path fill="none" stroke="midnightblue" d="M317.186,-536.295C306.591,-516.786 283.999,-475.188 270.6,-450.518"/>
<polygon fill="midnightblue" stroke="midnightblue" points="273.648,-448.796 265.8,-441.679 267.497,-452.137 273.648,-448.796"/>
</g>
<!-- Node13 -->
<g id="node25" class="node"><title>Node13</title>
<a xlink:href="MojThread_8h.htm" target="_top" xlink:title="core/MojThread.h">
<polygon fill="white" stroke="black" points="316.5,-478.5 316.5,-499.5 417.5,-499.5 417.5,-478.5 316.5,-478.5"/>
<text text-anchor="middle" x="367" y="-486.5" font-family="Helvetica,sans-Serif" font-size="10.00">core/MojThread.h</text>
</a>
</g>
<!-- Node1&#45;&gt;Node13 -->
<g id="edge24" class="edge"><title>Node1&#45;&gt;Node13</title>
<path fill="none" stroke="midnightblue" d="M331.07,-536.362C337.149,-528.35 345.637,-517.161 352.837,-507.67"/>
<polygon fill="midnightblue" stroke="midnightblue" points="355.725,-509.653 358.981,-499.571 350.149,-505.422 355.725,-509.653"/>
</g>
<!-- Node3 -->
<g id="node5" class="node"><title>Node3</title>
<a xlink:href="MojCoreDefs_8h.htm" target="_top" xlink:title="core/MojCoreDefs.h">
<polygon fill="white" stroke="black" points="277.5,-232.5 277.5,-253.5 388.5,-253.5 388.5,-232.5 277.5,-232.5"/>
<text text-anchor="middle" x="333" y="-240.5" font-family="Helvetica,sans-Serif" font-size="10.00">core/MojCoreDefs.h</text>
</a>
</g>
<!-- Node2&#45;&gt;Node3 -->
<g id="edge4" class="edge"><title>Node2&#45;&gt;Node3</title>
<path fill="none" stroke="midnightblue" d="M264.134,-420.354C275.929,-389.978 309.88,-302.542 325.262,-262.929"/>
<polygon fill="midnightblue" stroke="midnightblue" points="328.554,-264.118 328.911,-253.53 322.029,-261.585 328.554,-264.118"/>
</g>
<!-- Node4 -->
<g id="node7" class="node"><title>Node4</title>
<a xlink:href="MojConfig_8h.htm" target="_top" xlink:title="core/internal/MojConfig.h">
<polygon fill="white" stroke="black" points="-0.5,-174.5 -0.5,-195.5 134.5,-195.5 134.5,-174.5 -0.5,-174.5"/>
<text text-anchor="middle" x="67" y="-182.5" font-family="Helvetica,sans-Serif" font-size="10.00">core/internal/MojConfig.h</text>
</a>
</g>
<!-- Node3&#45;&gt;Node4 -->
<g id="edge6" class="edge"><title>Node3&#45;&gt;Node4</title>
<path fill="none" stroke="midnightblue" d="M284.829,-232.497C239.962,-222.714 172.99,-208.111 125.162,-197.682"/>
<polygon fill="midnightblue" stroke="midnightblue" points="125.777,-194.234 115.261,-195.523 124.286,-201.073 125.777,-194.234"/>
</g>
<!-- Node5 -->
<g id="node9" class="node"><title>Node5</title>
<a xlink:href="MojNew_8h.htm" target="_top" xlink:title="core/internal/MojNew.h">
<polygon fill="white" stroke="black" points="151.5,-174.5 151.5,-195.5 276.5,-195.5 276.5,-174.5 151.5,-174.5"/>
<text text-anchor="middle" x="214" y="-182.5" font-family="Helvetica,sans-Serif" font-size="10.00">core/internal/MojNew.h</text>
</a>
</g>
<!-- Node3&#45;&gt;Node5 -->
<g id="edge8" class="edge"><title>Node3&#45;&gt;Node5</title>
<path fill="none" stroke="midnightblue" d="M311.45,-232.497C292.864,-223.438 265.798,-210.246 244.905,-200.063"/>
<polygon fill="midnightblue" stroke="midnightblue" points="246.314,-196.856 235.792,-195.621 243.247,-203.149 246.314,-196.856"/>
</g>
<!-- Node7 -->
<g id="node13" class="node"><title>Node7</title>
<a xlink:href="MojErr_8h.htm" target="_top" xlink:title="core/MojErr.h">
<polygon fill="white" stroke="black" points="294,-174.5 294,-195.5 374,-195.5 374,-174.5 294,-174.5"/>
<text text-anchor="middle" x="334" y="-182.5" font-family="Helvetica,sans-Serif" font-size="10.00">core/MojErr.h</text>
</a>
</g>
<!-- Node3&#45;&gt;Node7 -->
<g id="edge12" class="edge"><title>Node3&#45;&gt;Node7</title>
<path fill="none" stroke="midnightblue" d="M333.183,-232.362C333.312,-224.922 333.487,-214.743 333.643,-205.728"/>
<polygon fill="midnightblue" stroke="midnightblue" points="337.145,-205.63 333.818,-195.571 330.146,-205.509 337.145,-205.63"/>
</g>
<!-- Node11 -->
<g id="node21" class="node"><title>Node11</title>
<a xlink:href="MojOs_8h.htm" target="_top" xlink:title="core/MojOs.h">
<polygon fill="white" stroke="black" points="392,-174.5 392,-195.5 472,-195.5 472,-174.5 392,-174.5"/>
<text text-anchor="middle" x="432" y="-182.5" font-family="Helvetica,sans-Serif" font-size="10.00">core/MojOs.h</text>
</a>
</g>
<!-- Node3&#45;&gt;Node11 -->
<g id="edge20" class="edge"><title>Node3&#45;&gt;Node11</title>
<path fill="none" stroke="midnightblue" d="M351.158,-232.362C366.23,-223.532 387.887,-210.844 404.993,-200.822"/>
<polygon fill="midnightblue" stroke="midnightblue" points="407.098,-203.646 413.957,-195.571 403.559,-197.606 407.098,-203.646"/>
</g>
<!-- Node6 -->
<g id="node11" class="node"><title>Node6</title>
<polygon fill="white" stroke="#bfbfbf" points="196,-116.5 196,-137.5 232,-137.5 232,-116.5 196,-116.5"/>
<text text-anchor="middle" x="214" y="-124.5" font-family="Helvetica,sans-Serif" font-size="10.00">new</text>
</g>
<!-- Node5&#45;&gt;Node6 -->
<g id="edge10" class="edge"><title>Node5&#45;&gt;Node6</title>
<path fill="none" stroke="midnightblue" d="M214,-174.362C214,-166.922 214,-156.743 214,-147.728"/>
<polygon fill="midnightblue" stroke="midnightblue" points="217.5,-147.571 214,-137.571 210.5,-147.571 217.5,-147.571"/>
</g>
<!-- Node8 -->
<g id="node15" class="node"><title>Node8</title>
<a xlink:href="MojLog_8h.htm" target="_top" xlink:title="core/MojLog.h">
<polygon fill="white" stroke="black" points="253,-116.5 253,-137.5 337,-137.5 337,-116.5 253,-116.5"/>
<text text-anchor="middle" x="295" y="-124.5" font-family="Helvetica,sans-Serif" font-size="10.00">core/MojLog.h</text>
</a>
</g>
<!-- Node7&#45;&gt;Node8 -->
<g id="edge14" class="edge"><title>Node7&#45;&gt;Node8</title>
<path fill="none" stroke="midnightblue" d="M326.847,-174.362C321.514,-166.431 314.089,-155.389 307.749,-145.961"/>
<polygon fill="midnightblue" stroke="midnightblue" points="310.592,-143.916 302.108,-137.571 304.783,-147.822 310.592,-143.916"/>
</g>
<!-- Node9 -->
<g id="node17" class="node"><title>Node9</title>
<a xlink:href="MojListEntry_8h.htm" target="_top" xlink:title="core/MojListEntry.h">
<polygon fill="white" stroke="black" points="322.5,-58.5 322.5,-79.5 429.5,-79.5 429.5,-58.5 322.5,-58.5"/>
<text text-anchor="middle" x="376" y="-66.5" font-family="Helvetica,sans-Serif" font-size="10.00">core/MojListEntry.h</text>
</a>
</g>
<!-- Node8&#45;&gt;Node9 -->
<g id="edge16" class="edge"><title>Node8&#45;&gt;Node9</title>
<path fill="none" stroke="midnightblue" d="M309.857,-116.362C321.846,-107.777 338.927,-95.5459 352.728,-85.6636"/>
<polygon fill="midnightblue" stroke="midnightblue" points="355.145,-88.2383 361.238,-79.5707 351.069,-82.5469 355.145,-88.2383"/>
</g>
<!-- Node10 -->
<g id="node19" class="node"><title>Node10</title>
<a xlink:href="MojNoCopy_8h.htm" target="_top" xlink:title="core/MojNoCopy.h">
<polygon fill="white" stroke="black" points="404,-0.5 404,-21.5 508,-21.5 508,-0.5 404,-0.5"/>
<text text-anchor="middle" x="456" y="-8.5" font-family="Helvetica,sans-Serif" font-size="10.00">core/MojNoCopy.h</text>
</a>
</g>
<!-- Node9&#45;&gt;Node10 -->
<g id="edge18" class="edge"><title>Node9&#45;&gt;Node10</title>
<path fill="none" stroke="midnightblue" d="M390.673,-58.3619C402.514,-49.7773 419.385,-37.5459 433.016,-27.6636"/>
<polygon fill="midnightblue" stroke="midnightblue" points="435.378,-30.274 441.42,-21.5707 431.269,-24.6067 435.378,-30.274"/>
</g>
<!-- Node12 -->
<g id="node23" class="node"><title>Node12</title>
<a xlink:href="MojOsInternal_8h.htm" target="_top" xlink:title="core/internal/MojOsInternal.h">
<polygon fill="white" stroke="black" points="355,-116.5 355,-137.5 509,-137.5 509,-116.5 355,-116.5"/>
<text text-anchor="middle" x="432" y="-124.5" font-family="Helvetica,sans-Serif" font-size="10.00">core/internal/MojOsInternal.h</text>
</a>
</g>
<!-- Node11&#45;&gt;Node12 -->
<g id="edge22" class="edge"><title>Node11&#45;&gt;Node12</title>
<path fill="none" stroke="midnightblue" d="M432,-174.362C432,-166.922 432,-156.743 432,-147.728"/>
<polygon fill="midnightblue" stroke="midnightblue" points="435.5,-147.571 432,-137.571 428.5,-147.571 435.5,-147.571"/>
</g>
<!-- Node13&#45;&gt;Node3 -->
<g id="edge26" class="edge"><title>Node13&#45;&gt;Node3</title>
<path fill="none" stroke="midnightblue" d="M365.539,-478.43C360.351,-440.896 342.758,-313.604 335.834,-263.502"/>
<polygon fill="midnightblue" stroke="midnightblue" points="339.292,-262.958 334.455,-253.531 332.358,-263.916 339.292,-262.958"/>
</g>
<!-- Node14 -->
<g id="node28" class="node"><title>Node14</title>
<a xlink:href="MojAtomicInt_8h.htm" target="_top" xlink:title="core/MojAtomicInt.h">
<polygon fill="white" stroke="black" points="361,-297.5 361,-318.5 471,-318.5 471,-297.5 361,-297.5"/>
<text text-anchor="middle" x="416" y="-305.5" font-family="Helvetica,sans-Serif" font-size="10.00">core/MojAtomicInt.h</text>
</a>
</g>
<!-- Node13&#45;&gt;Node14 -->
<g id="edge28" class="edge"><title>Node13&#45;&gt;Node14</title>
<path fill="none" stroke="midnightblue" d="M369.846,-478.486C377.729,-449.37 399.949,-367.292 410.415,-328.63"/>
<polygon fill="midnightblue" stroke="midnightblue" points="413.911,-329.11 413.146,-318.543 407.154,-327.281 413.911,-329.11"/>
</g>
<!-- Node15 -->
<g id="node31" class="node"><title>Node15</title>
<a xlink:href="MojThreadInternal_8h.htm" target="_top" xlink:title="core/internal/MojThreadInternal.h">
<polygon fill="white" stroke="black" points="407.5,-420.5 407.5,-441.5 582.5,-441.5 582.5,-420.5 407.5,-420.5"/>
<text text-anchor="middle" x="495" y="-428.5" font-family="Helvetica,sans-Serif" font-size="10.00">core/internal/MojThreadInternal.h</text>
</a>
</g>
<!-- Node13&#45;&gt;Node15 -->
<g id="edge32" class="edge"><title>Node13&#45;&gt;Node15</title>
<path fill="none" stroke="midnightblue" d="M390.18,-478.497C410.352,-469.356 439.81,-456.008 462.364,-445.788"/>
<polygon fill="midnightblue" stroke="midnightblue" points="463.896,-448.937 471.56,-441.621 461.007,-442.561 463.896,-448.937"/>
</g>
<!-- Node14&#45;&gt;Node3 -->
<g id="edge30" class="edge"><title>Node14&#45;&gt;Node3</title>
<path fill="none" stroke="midnightblue" d="M402.294,-297.267C389.362,-287.139 369.765,-271.792 354.707,-260"/>
<polygon fill="midnightblue" stroke="midnightblue" points="356.482,-256.944 346.451,-253.534 352.166,-262.455 356.482,-256.944"/>
</g>
<!-- Node16 -->
<g id="node33" class="node"><title>Node16</title>
<a xlink:href="MojAutoPtr_8h.htm" target="_top" xlink:title="core/MojAutoPtr.h">
<polygon fill="white" stroke="black" points="448.5,-362.5 448.5,-383.5 549.5,-383.5 549.5,-362.5 448.5,-362.5"/>
<text text-anchor="middle" x="499" y="-370.5" font-family="Helvetica,sans-Serif" font-size="10.00">core/MojAutoPtr.h</text>
</a>
</g>
<!-- Node15&#45;&gt;Node16 -->
<g id="edge34" class="edge"><title>Node15&#45;&gt;Node16</title>
<path fill="none" stroke="midnightblue" d="M495.734,-420.362C496.247,-412.922 496.949,-402.743 497.571,-393.728"/>
<polygon fill="midnightblue" stroke="midnightblue" points="501.075,-393.788 498.271,-383.571 494.091,-393.306 501.075,-393.788"/>
</g>
<!-- Node16&#45;&gt;Node3 -->
<g id="edge36" class="edge"><title>Node16&#45;&gt;Node3</title>
<path fill="none" stroke="midnightblue" d="M499.688,-362.318C500.204,-344.887 498.604,-310.245 480,-290 467.861,-276.791 428.2,-264.541 393.13,-255.86"/>
<polygon fill="midnightblue" stroke="midnightblue" points="393.929,-252.453 383.387,-253.509 392.287,-259.257 393.929,-252.453"/>
</g>
<!-- Node16&#45;&gt;Node10 -->
<g id="edge40" class="edge"><title>Node16&#45;&gt;Node10</title>
<path fill="none" stroke="midnightblue" d="M504.444,-362.184C514.952,-340.279 537,-288.852 537,-243 537,-243 537,-243 537,-127 537,-85.9121 502.416,-48.9919 478.444,-28.336"/>
<polygon fill="midnightblue" stroke="midnightblue" points="480.412,-25.4209 470.481,-21.7279 475.941,-30.8075 480.412,-25.4209"/>
</g>
<!-- Node16&#45;&gt;Node14 -->
<g id="edge38" class="edge"><title>Node16&#45;&gt;Node14</title>
<path fill="none" stroke="midnightblue" d="M485.294,-362.267C472.362,-352.139 452.765,-336.792 437.707,-325"/>
<polygon fill="midnightblue" stroke="midnightblue" points="439.482,-321.944 429.451,-318.534 435.166,-327.455 439.482,-321.944"/>
</g>
<!-- Node17 -->
<g id="node38" class="node"><title>Node17</title>
<a xlink:href="MojAutoPtrInternal_8h.htm" target="_top" xlink:title="core/internal/MojAutoPtr\lInternal.h">
<polygon fill="white" stroke="black" points="564.5,-291 564.5,-325 695.5,-325 695.5,-291 564.5,-291"/>
<text text-anchor="start" x="572.5" y="-312" font-family="Helvetica,sans-Serif" font-size="10.00">core/internal/MojAutoPtr</text>
<text text-anchor="middle" x="630" y="-299" font-family="Helvetica,sans-Serif" font-size="10.00">Internal.h</text>
</a>
</g>
<!-- Node16&#45;&gt;Node17 -->
<g id="edge42" class="edge"><title>Node16&#45;&gt;Node17</title>
<path fill="none" stroke="midnightblue" d="M520.339,-362.412C538.165,-353.567 564.16,-340.669 586.366,-329.65"/>
<polygon fill="midnightblue" stroke="midnightblue" points="588.215,-332.64 595.617,-325.06 585.103,-326.37 588.215,-332.64"/>
</g>
</g>
</svg>
