<?xml version="1.0" encoding="UTF-8" standalone="no"?>
<!DOCTYPE svg PUBLIC "-//W3C//DTD SVG 1.1//EN"
 "http://www.w3.org/Graphics/SVG/1.1/DTD/svg11.dtd">
<!-- Generated by graphviz version 2.26.3 (20100126.1600)
 -->
<!-- Title: MojDbLevelQuery.h Pages: 1 -->
<svg width="560pt" height="88pt"
 viewBox="0.00 0.00 560.00 88.00" xmlns="http://www.w3.org/2000/svg" xmlns:xlink="http://www.w3.org/1999/xlink">
<g id="graph1" class="graph" transform="scale(1 1) rotate(0) translate(4 84)">
<title>MojDbLevelQuery.h</title>
<polygon fill="white" stroke="white" points="-4,5 -4,-84 557,-84 557,5 -4,5"/>
<!-- Node1 -->
<g id="node1" class="node"><title>Node1</title>
<polygon fill="#bfbfbf" stroke="black" points="230.5,-58.5 230.5,-79.5 339.5,-79.5 339.5,-58.5 230.5,-58.5"/>
<text text-anchor="middle" x="285" y="-66.5" font-family="Helvetica,sans-Serif" font-size="10.00">MojDbLevelQuery.h</text>
</g>
<!-- Node2 -->
<g id="node3" class="node"><title>Node2</title>
<a xlink:href="MojDbLevelDatabase_8cpp.htm" target="_top" xlink:title="MojDbLevelDatabase.cpp">
<polygon fill="white" stroke="black" points="-0.5,-0.5 -0.5,-21.5 136.5,-21.5 136.5,-0.5 -0.5,-0.5"/>
<text text-anchor="middle" x="68" y="-8.5" font-family="Helvetica,sans-Serif" font-size="10.00">MojDbLevelDatabase.cpp</text>
</a>
</g>
<!-- Node1&#45;&gt;Node2 -->
<g id="edge2" class="edge"><title>Node1&#45;&gt;Node2</title>
<path fill="none" stroke="midnightblue" d="M235.66,-55.8123C196.81,-45.4285 143.384,-31.1487 107.371,-21.5231"/>
<polygon fill="midnightblue" stroke="midnightblue" points="235.138,-59.2957 245.703,-58.4966 236.946,-52.5331 235.138,-59.2957"/>
</g>
<!-- Node3 -->
<g id="node5" class="node"><title>Node3</title>
<a xlink:href="MojDbLevelEngine_8cpp.htm" target="_top" xlink:title="MojDbLevelEngine.cpp">
<polygon fill="white" stroke="black" points="153.5,-0.5 153.5,-21.5 278.5,-21.5 278.5,-0.5 153.5,-0.5"/>
<text text-anchor="middle" x="216" y="-8.5" font-family="Helvetica,sans-Serif" font-size="10.00">MojDbLevelEngine.cpp</text>
</a>
</g>
<!-- Node1&#45;&gt;Node3 -->
<g id="edge4" class="edge"><title>Node1&#45;&gt;Node3</title>
<path fill="none" stroke="midnightblue" d="M264.408,-51.6908C252.76,-41.8996 238.571,-29.973 228.575,-21.5707"/>
<polygon fill="midnightblue" stroke="midnightblue" points="262.437,-54.6066 272.344,-58.3619 266.942,-49.2481 262.437,-54.6066"/>
</g>
<!-- Node4 -->
<g id="node7" class="node"><title>Node4</title>
<a xlink:href="MojDbLevelIndex_8cpp.htm" target="_top" xlink:title="MojDbLevelIndex.cpp">
<polygon fill="white" stroke="black" points="296,-0.5 296,-21.5 414,-21.5 414,-0.5 296,-0.5"/>
<text text-anchor="middle" x="355" y="-8.5" font-family="Helvetica,sans-Serif" font-size="10.00">MojDbLevelIndex.cpp</text>
</a>
</g>
<!-- Node1&#45;&gt;Node4 -->
<g id="edge6" class="edge"><title>Node1&#45;&gt;Node4</title>
<path fill="none" stroke="midnightblue" d="M305.547,-51.9753C317.427,-42.1315 332.003,-30.0545 342.242,-21.5707"/>
<polygon fill="midnightblue" stroke="midnightblue" points="303.306,-49.2866 297.839,-58.3619 307.772,-54.6768 303.306,-49.2866"/>
</g>
<!-- Node5 -->
<g id="node9" class="node"><title>Node5</title>
<a xlink:href="MojDbLevelQuery_8cpp.htm" target="_top" xlink:title="MojDbLevelQuery.cpp">
<polygon fill="white" stroke="black" points="432,-0.5 432,-21.5 552,-21.5 552,-0.5 432,-0.5"/>
<text text-anchor="middle" x="492" y="-8.5" font-family="Helvetica,sans-Serif" font-size="10.00">MojDbLevelQuery.cpp</text>
</a>
</g>
<!-- Node1&#45;&gt;Node5 -->
<g id="edge8" class="edge"><title>Node1&#45;&gt;Node5</title>
<path fill="none" stroke="midnightblue" d="M332.54,-55.6795C369.559,-45.307 420.236,-31.1078 454.444,-21.5231"/>
<polygon fill="midnightblue" stroke="midnightblue" points="331.171,-52.4283 322.486,-58.4966 333.06,-59.1687 331.171,-52.4283"/>
</g>
</g>
</svg>
