<?xml version="1.0" encoding="UTF-8" standalone="no"?>
<!DOCTYPE svg PUBLIC "-//W3C//DTD SVG 1.1//EN"
 "http://www.w3.org/Graphics/SVG/1.1/DTD/svg11.dtd">
<!-- Generated by graphviz version 2.26.3 (20100126.1600)
 -->
<!-- Title: MojDbObjectHeader.h Pages: 1 -->
<svg width="1065pt" height="204pt"
 viewBox="0.00 0.00 1065.00 204.00" xmlns="http://www.w3.org/2000/svg" xmlns:xlink="http://www.w3.org/1999/xlink">
<g id="graph1" class="graph" transform="scale(1 1) rotate(0) translate(4 200)">
<title>MojDbObjectHeader.h</title>
<polygon fill="white" stroke="white" points="-4,5 -4,-200 1062,-200 1062,5 -4,5"/>
<!-- Node1 -->
<g id="node1" class="node"><title>Node1</title>
<polygon fill="#bfbfbf" stroke="black" points="642,-174.5 642,-195.5 762,-195.5 762,-174.5 642,-174.5"/>
<text text-anchor="middle" x="702" y="-182.5" font-family="Helvetica,sans-Serif" font-size="10.00">MojDbObjectHeader.h</text>
</g>
<!-- Node2 -->
<g id="node3" class="node"><title>Node2</title>
<a xlink:href="MojDbLevelItem_8h.htm" target="_top" xlink:title="MojDbLevelItem.h">
<polygon fill="white" stroke="black" points="306.5,-116.5 306.5,-137.5 407.5,-137.5 407.5,-116.5 306.5,-116.5"/>
<text text-anchor="middle" x="357" y="-124.5" font-family="Helvetica,sans-Serif" font-size="10.00">MojDbLevelItem.h</text>
</a>
</g>
<!-- Node1&#45;&gt;Node2 -->
<g id="edge2" class="edge"><title>Node1&#45;&gt;Node2</title>
<path fill="none" stroke="midnightblue" d="M631.92,-173.218C565.384,-162.033 466.977,-145.489 407.715,-135.526"/>
<polygon fill="midnightblue" stroke="midnightblue" points="631.464,-176.691 641.906,-174.897 632.624,-169.788 631.464,-176.691"/>
</g>
<!-- Node5 -->
<g id="node9" class="node"><title>Node5</title>
<a xlink:href="MojDbLevelEngine_8cpp.htm" target="_top" xlink:title="MojDbLevelEngine.cpp">
<polygon fill="white" stroke="black" points="555.5,-0.5 555.5,-21.5 680.5,-21.5 680.5,-0.5 555.5,-0.5"/>
<text text-anchor="middle" x="618" y="-8.5" font-family="Helvetica,sans-Serif" font-size="10.00">MojDbLevelEngine.cpp</text>
</a>
</g>
<!-- Node1&#45;&gt;Node5 -->
<g id="edge42" class="edge"><title>Node1&#45;&gt;Node5</title>
<path fill="none" stroke="midnightblue" d="M687.171,-166.018C681.077,-157.702 674.237,-147.654 669,-138 646.682,-96.8559 628.512,-43.8285 621.322,-21.5716"/>
<polygon fill="midnightblue" stroke="midnightblue" points="684.567,-168.379 693.38,-174.26 690.159,-164.167 684.567,-168.379"/>
</g>
<!-- Node12 -->
<g id="node24" class="node"><title>Node12</title>
<a xlink:href="MojDbBerkeleyEngine_8h.htm" target="_top" xlink:title="MojDbBerkeleyEngine.h">
<polygon fill="white" stroke="black" points="683.5,-116.5 683.5,-137.5 812.5,-137.5 812.5,-116.5 683.5,-116.5"/>
<text text-anchor="middle" x="748" y="-124.5" font-family="Helvetica,sans-Serif" font-size="10.00">MojDbBerkeleyEngine.h</text>
</a>
</g>
<!-- Node1&#45;&gt;Node12 -->
<g id="edge24" class="edge"><title>Node1&#45;&gt;Node12</title>
<path fill="none" stroke="midnightblue" d="M716.87,-166.25C724.405,-156.75 733.276,-145.565 739.616,-137.571"/>
<polygon fill="midnightblue" stroke="midnightblue" points="713.909,-164.352 710.437,-174.362 719.393,-168.702 713.909,-164.352"/>
</g>
<!-- Node14 -->
<g id="node28" class="node"><title>Node14</title>
<a xlink:href="MojDbBerkeleyEngine_8cpp.htm" target="_top" xlink:title="MojDbBerkeleyEngine.cpp">
<polygon fill="white" stroke="black" points="698,-0.5 698,-21.5 838,-21.5 838,-0.5 698,-0.5"/>
<text text-anchor="middle" x="768" y="-8.5" font-family="Helvetica,sans-Serif" font-size="10.00">MojDbBerkeleyEngine.cpp</text>
</a>
</g>
<!-- Node1&#45;&gt;Node14 -->
<g id="edge44" class="edge"><title>Node1&#45;&gt;Node14</title>
<path fill="none" stroke="midnightblue" d="M687.921,-165.777C682.789,-157.633 677.608,-147.777 675,-138 672.48,-128.553 672.624,-125.485 675,-116 682.102,-87.6471 687.025,-80.2325 706,-58 718.627,-43.2054 736.666,-30.1836 750.033,-21.6214"/>
<polygon fill="midnightblue" stroke="midnightblue" points="685.068,-167.806 693.555,-174.148 690.876,-163.898 685.068,-167.806"/>
</g>
<!-- Node17 -->
<g id="node36" class="node"><title>Node17</title>
<a xlink:href="MojDb_8cpp.htm" target="_top" xlink:title="MojDb.cpp">
<polygon fill="white" stroke="black" points="830,-116.5 830,-137.5 896,-137.5 896,-116.5 830,-116.5"/>
<text text-anchor="middle" x="863" y="-124.5" font-family="Helvetica,sans-Serif" font-size="10.00">MojDb.cpp</text>
</a>
</g>
<!-- Node1&#45;&gt;Node17 -->
<g id="edge38" class="edge"><title>Node1&#45;&gt;Node17</title>
<path fill="none" stroke="midnightblue" d="M740.836,-171.009C769.447,-160.702 807.752,-146.903 833.789,-137.523"/>
<polygon fill="midnightblue" stroke="midnightblue" points="739.378,-167.814 731.156,-174.497 741.75,-174.4 739.378,-167.814"/>
</g>
<!-- Node18 -->
<g id="node38" class="node"><title>Node18</title>
<a xlink:href="MojDbObjectHeader_8cpp.htm" target="_top" xlink:title="MojDbObjectHeader.cpp">
<polygon fill="white" stroke="black" points="913.5,-116.5 913.5,-137.5 1044.5,-137.5 1044.5,-116.5 913.5,-116.5"/>
<text text-anchor="middle" x="979" y="-124.5" font-family="Helvetica,sans-Serif" font-size="10.00">MojDbObjectHeader.cpp</text>
</a>
</g>
<!-- Node1&#45;&gt;Node18 -->
<g id="edge40" class="edge"><title>Node1&#45;&gt;Node18</title>
<path fill="none" stroke="midnightblue" d="M762.154,-172.404C811.954,-161.977 881.892,-147.333 928.743,-137.523"/>
<polygon fill="midnightblue" stroke="midnightblue" points="761.233,-169.021 752.163,-174.497 762.668,-175.873 761.233,-169.021"/>
</g>
<!-- Node3 -->
<g id="node5" class="node"><title>Node3</title>
<a xlink:href="MojDbLevelQuery_8h.htm" target="_top" xlink:title="MojDbLevelQuery.h">
<polygon fill="white" stroke="black" points="302.5,-58.5 302.5,-79.5 411.5,-79.5 411.5,-58.5 302.5,-58.5"/>
<text text-anchor="middle" x="357" y="-66.5" font-family="Helvetica,sans-Serif" font-size="10.00">MojDbLevelQuery.h</text>
</a>
</g>
<!-- Node2&#45;&gt;Node3 -->
<g id="edge4" class="edge"><title>Node2&#45;&gt;Node3</title>
<path fill="none" stroke="midnightblue" d="M357,-106.191C357,-97.1684 357,-86.9941 357,-79.5707"/>
<polygon fill="midnightblue" stroke="midnightblue" points="353.5,-106.362 357,-116.362 360.5,-106.362 353.5,-106.362"/>
</g>
<!-- Node8 -->
<g id="node15" class="node"><title>Node8</title>
<a xlink:href="MojDbLevelSeq_8h.htm" target="_top" xlink:title="MojDbLevelSeq.h">
<polygon fill="white" stroke="black" points="433.5,-58.5 433.5,-79.5 532.5,-79.5 532.5,-58.5 433.5,-58.5"/>
<text text-anchor="middle" x="483" y="-66.5" font-family="Helvetica,sans-Serif" font-size="10.00">MojDbLevelSeq.h</text>
</a>
</g>
<!-- Node2&#45;&gt;Node8 -->
<g id="edge14" class="edge"><title>Node2&#45;&gt;Node8</title>
<path fill="none" stroke="midnightblue" d="M389.138,-112.206C411.243,-102.031 440.08,-88.7567 459.926,-79.6212"/>
<polygon fill="midnightblue" stroke="midnightblue" points="387.438,-109.136 379.818,-116.497 390.365,-115.494 387.438,-109.136"/>
</g>
<!-- Node10 -->
<g id="node20" class="node"><title>Node10</title>
<a xlink:href="MojDbLevelCursor_8cpp.htm" target="_top" xlink:title="MojDbLevelCursor.cpp">
<polygon fill="white" stroke="black" points="32.5,-58.5 32.5,-79.5 155.5,-79.5 155.5,-58.5 32.5,-58.5"/>
<text text-anchor="middle" x="94" y="-66.5" font-family="Helvetica,sans-Serif" font-size="10.00">MojDbLevelCursor.cpp</text>
</a>
</g>
<!-- Node2&#45;&gt;Node10 -->
<g id="edge20" class="edge"><title>Node2&#45;&gt;Node10</title>
<path fill="none" stroke="midnightblue" d="M299.589,-114.339C252.326,-103.916 186.107,-89.3126 141.717,-79.5231"/>
<polygon fill="midnightblue" stroke="midnightblue" points="298.854,-117.761 309.373,-116.497 300.361,-110.925 298.854,-117.761"/>
</g>
<!-- Node11 -->
<g id="node22" class="node"><title>Node11</title>
<a xlink:href="MojDbLevelItem_8cpp.htm" target="_top" xlink:title="MojDbLevelItem.cpp">
<polygon fill="white" stroke="black" points="173,-58.5 173,-79.5 285,-79.5 285,-58.5 173,-58.5"/>
<text text-anchor="middle" x="229" y="-66.5" font-family="Helvetica,sans-Serif" font-size="10.00">MojDbLevelItem.cpp</text>
</a>
</g>
<!-- Node2&#45;&gt;Node11 -->
<g id="edge22" class="edge"><title>Node2&#45;&gt;Node11</title>
<path fill="none" stroke="midnightblue" d="M324.654,-112.343C302.159,-102.15 272.691,-88.7977 252.44,-79.6212"/>
<polygon fill="midnightblue" stroke="midnightblue" points="323.267,-115.557 333.82,-116.497 326.156,-109.181 323.267,-115.557"/>
</g>
<!-- Node4 -->
<g id="node7" class="node"><title>Node4</title>
<a xlink:href="MojDbLevelDatabase_8cpp.htm" target="_top" xlink:title="MojDbLevelDatabase.cpp">
<polygon fill="white" stroke="black" points="137.5,-0.5 137.5,-21.5 274.5,-21.5 274.5,-0.5 137.5,-0.5"/>
<text text-anchor="middle" x="206" y="-8.5" font-family="Helvetica,sans-Serif" font-size="10.00">MojDbLevelDatabase.cpp</text>
</a>
</g>
<!-- Node3&#45;&gt;Node4 -->
<g id="edge6" class="edge"><title>Node3&#45;&gt;Node4</title>
<path fill="none" stroke="midnightblue" d="M320.224,-54.8742C293.429,-44.5819 257.71,-30.862 233.396,-21.5231"/>
<polygon fill="midnightblue" stroke="midnightblue" points="319.065,-58.1782 329.655,-58.4966 321.575,-51.6437 319.065,-58.1782"/>
</g>
<!-- Node3&#45;&gt;Node5 -->
<g id="edge8" class="edge"><title>Node3&#45;&gt;Node5</title>
<path fill="none" stroke="midnightblue" d="M414.269,-56.2737C461.153,-45.8548 526.686,-31.2921 570.646,-21.5231"/>
<polygon fill="midnightblue" stroke="midnightblue" points="413.268,-52.9106 404.265,-58.4966 414.786,-59.7439 413.268,-52.9106"/>
</g>
<!-- Node6 -->
<g id="node11" class="node"><title>Node6</title>
<a xlink:href="MojDbLevelIndex_8cpp.htm" target="_top" xlink:title="MojDbLevelIndex.cpp">
<polygon fill="white" stroke="black" points="292,-0.5 292,-21.5 410,-21.5 410,-0.5 292,-0.5"/>
<text text-anchor="middle" x="351" y="-8.5" font-family="Helvetica,sans-Serif" font-size="10.00">MojDbLevelIndex.cpp</text>
</a>
</g>
<!-- Node3&#45;&gt;Node6 -->
<g id="edge10" class="edge"><title>Node3&#45;&gt;Node6</title>
<path fill="none" stroke="midnightblue" d="M354.847,-48.1906C353.914,-39.1684 352.861,-28.9941 352.094,-21.5707"/>
<polygon fill="midnightblue" stroke="midnightblue" points="351.389,-48.7752 355.9,-58.3619 358.352,-48.0548 351.389,-48.7752"/>
</g>
<!-- Node7 -->
<g id="node13" class="node"><title>Node7</title>
<a xlink:href="MojDbLevelQuery_8cpp.htm" target="_top" xlink:title="MojDbLevelQuery.cpp">
<polygon fill="white" stroke="black" points="0,-0.5 0,-21.5 120,-21.5 120,-0.5 0,-0.5"/>
<text text-anchor="middle" x="60" y="-8.5" font-family="Helvetica,sans-Serif" font-size="10.00">MojDbLevelQuery.cpp</text>
</a>
</g>
<!-- Node3&#45;&gt;Node7 -->
<g id="edge12" class="edge"><title>Node3&#45;&gt;Node7</title>
<path fill="none" stroke="midnightblue" d="M293.17,-56.5349C239.733,-46.0994 164.329,-31.374 113.885,-21.5231"/>
<polygon fill="midnightblue" stroke="midnightblue" points="292.73,-60.015 303.216,-58.4966 294.072,-53.1448 292.73,-60.015"/>
</g>
<!-- Node8&#45;&gt;Node5 -->
<g id="edge16" class="edge"><title>Node8&#45;&gt;Node5</title>
<path fill="none" stroke="midnightblue" d="M516.798,-54.4794C540.562,-44.2695 571.824,-30.8386 593.278,-21.6212"/>
<polygon fill="midnightblue" stroke="midnightblue" points="515.254,-51.3334 507.447,-58.4966 518.017,-57.7649 515.254,-51.3334"/>
</g>
<!-- Node9 -->
<g id="node18" class="node"><title>Node9</title>
<a xlink:href="MojDbLevelSeq_8cpp.htm" target="_top" xlink:title="MojDbLevelSeq.cpp">
<polygon fill="white" stroke="black" points="428,-0.5 428,-21.5 538,-21.5 538,-0.5 428,-0.5"/>
<text text-anchor="middle" x="483" y="-8.5" font-family="Helvetica,sans-Serif" font-size="10.00">MojDbLevelSeq.cpp</text>
</a>
</g>
<!-- Node8&#45;&gt;Node9 -->
<g id="edge18" class="edge"><title>Node8&#45;&gt;Node9</title>
<path fill="none" stroke="midnightblue" d="M483,-48.1906C483,-39.1684 483,-28.9941 483,-21.5707"/>
<polygon fill="midnightblue" stroke="midnightblue" points="479.5,-48.3619 483,-58.3619 486.5,-48.3619 479.5,-48.3619"/>
</g>
<!-- Node13 -->
<g id="node26" class="node"><title>Node13</title>
<a xlink:href="MojDbBerkeleyQuery_8h.htm" target="_top" xlink:title="MojDbBerkeleyQuery.h">
<polygon fill="white" stroke="black" points="881.5,-58.5 881.5,-79.5 1006.5,-79.5 1006.5,-58.5 881.5,-58.5"/>
<text text-anchor="middle" x="944" y="-66.5" font-family="Helvetica,sans-Serif" font-size="10.00">MojDbBerkeleyQuery.h</text>
</a>
</g>
<!-- Node12&#45;&gt;Node13 -->
<g id="edge26" class="edge"><title>Node12&#45;&gt;Node13</title>
<path fill="none" stroke="midnightblue" d="M793.464,-113.546C828.476,-103.186 876.188,-89.0668 908.439,-79.5231"/>
<polygon fill="midnightblue" stroke="midnightblue" points="792.09,-110.303 783.494,-116.497 794.076,-117.015 792.09,-110.303"/>
</g>
<!-- Node12&#45;&gt;Node14 -->
<g id="edge32" class="edge"><title>Node12&#45;&gt;Node14</title>
<path fill="none" stroke="midnightblue" d="M729.06,-108.959C716.954,-95.1432 704.917,-75.54 713,-58 720.307,-42.1441 735.894,-29.6504 748.615,-21.5423"/>
<polygon fill="midnightblue" stroke="midnightblue" points="726.638,-111.492 736.045,-116.366 731.73,-106.689 726.638,-111.492"/>
</g>
<!-- Node15 -->
<g id="node30" class="node"><title>Node15</title>
<a xlink:href="MojDbBerkeleyQuery_8cpp.htm" target="_top" xlink:title="MojDbBerkeleyQuery.cpp">
<polygon fill="white" stroke="black" points="921,-0.5 921,-21.5 1057,-21.5 1057,-0.5 921,-0.5"/>
<text text-anchor="middle" x="989" y="-8.5" font-family="Helvetica,sans-Serif" font-size="10.00">MojDbBerkeleyQuery.cpp</text>
</a>
</g>
<!-- Node12&#45;&gt;Node15 -->
<g id="edge36" class="edge"><title>Node12&#45;&gt;Node15</title>
<path fill="none" stroke="midnightblue" d="M822.907,-115C900.787,-102.348 1011.86,-83.7359 1015,-80 1029.48,-62.7428 1011.76,-36.6009 999.274,-21.9476"/>
<polygon fill="midnightblue" stroke="midnightblue" points="821.941,-111.611 812.63,-116.666 823.062,-118.52 821.941,-111.611"/>
</g>
<!-- Node16 -->
<g id="node33" class="node"><title>Node16</title>
<a xlink:href="MojDbBerkeleyFactory_8cpp.htm" target="_top" xlink:title="MojDbBerkeleyFactory.cpp">
<polygon fill="white" stroke="black" points="721.5,-58.5 721.5,-79.5 864.5,-79.5 864.5,-58.5 721.5,-58.5"/>
<text text-anchor="middle" x="793" y="-66.5" font-family="Helvetica,sans-Serif" font-size="10.00">MojDbBerkeleyFactory.cpp</text>
</a>
</g>
<!-- Node12&#45;&gt;Node16 -->
<g id="edge34" class="edge"><title>Node12&#45;&gt;Node16</title>
<path fill="none" stroke="midnightblue" d="M762.547,-108.25C769.918,-98.75 778.596,-87.5651 784.799,-79.5707"/>
<polygon fill="midnightblue" stroke="midnightblue" points="759.618,-106.316 756.254,-116.362 765.149,-110.607 759.618,-106.316"/>
</g>
<!-- Node13&#45;&gt;Node14 -->
<g id="edge28" class="edge"><title>Node13&#45;&gt;Node14</title>
<path fill="none" stroke="midnightblue" d="M902.363,-55.2787C871.002,-44.9437 828.644,-30.9849 799.932,-21.5231"/>
<polygon fill="midnightblue" stroke="midnightblue" points="901.535,-58.6908 912.128,-58.4966 903.726,-52.0425 901.535,-58.6908"/>
</g>
<!-- Node13&#45;&gt;Node15 -->
<g id="edge30" class="edge"><title>Node13&#45;&gt;Node15</title>
<path fill="none" stroke="midnightblue" d="M958.547,-50.2504C965.918,-40.75 974.596,-29.5651 980.799,-21.5707"/>
<polygon fill="midnightblue" stroke="midnightblue" points="955.618,-48.3155 952.254,-58.3619 961.149,-52.6065 955.618,-48.3155"/>
</g>
</g>
</svg>
