<?xml version="1.0" encoding="UTF-8" standalone="no"?>
<!DOCTYPE svg PUBLIC "-//W3C//DTD SVG 1.1//EN"
 "http://www.w3.org/Graphics/SVG/1.1/DTD/svg11.dtd">
<!-- Generated by graphviz version 2.26.3 (20100126.1600)
 -->
<!-- Title: MojDbLevelIterator.h Pages: 1 -->
<svg width="825pt" height="204pt"
 viewBox="0.00 0.00 825.00 204.00" xmlns="http://www.w3.org/2000/svg" xmlns:xlink="http://www.w3.org/1999/xlink">
<g id="graph1" class="graph" transform="scale(1 1) rotate(0) translate(4 200)">
<title>MojDbLevelIterator.h</title>
<polygon fill="white" stroke="white" points="-4,5 -4,-200 822,-200 822,5 -4,5"/>
<!-- Node1 -->
<g id="node1" class="node"><title>Node1</title>
<polygon fill="#bfbfbf" stroke="black" points="441.5,-174.5 441.5,-195.5 556.5,-195.5 556.5,-174.5 441.5,-174.5"/>
<text text-anchor="middle" x="499" y="-182.5" font-family="Helvetica,sans-Serif" font-size="10.00">MojDbLevelIterator.h</text>
</g>
<!-- Node2 -->
<g id="node3" class="node"><title>Node2</title>
<a xlink:href="MojDbLevelCursor_8h.htm" target="_top" xlink:title="MojDbLevelCursor.h">
<polygon fill="white" stroke="black" points="288,-116.5 288,-137.5 400,-137.5 400,-116.5 288,-116.5"/>
<text text-anchor="middle" x="344" y="-124.5" font-family="Helvetica,sans-Serif" font-size="10.00">MojDbLevelCursor.h</text>
</a>
</g>
<!-- Node1&#45;&gt;Node2 -->
<g id="edge2" class="edge"><title>Node1&#45;&gt;Node2</title>
<path fill="none" stroke="midnightblue" d="M461.25,-170.874C433.745,-160.582 397.079,-146.862 372.122,-137.523"/>
<polygon fill="midnightblue" stroke="midnightblue" points="460.338,-174.27 470.931,-174.497 462.792,-167.714 460.338,-174.27"/>
</g>
<!-- Node9 -->
<g id="node20" class="node"><title>Node9</title>
<a xlink:href="MojDbLevelTxnIterator_8h.htm" target="_top" xlink:title="MojDbLevelTxnIterator.h">
<polygon fill="white" stroke="black" points="432.5,-116.5 432.5,-137.5 565.5,-137.5 565.5,-116.5 432.5,-116.5"/>
<text text-anchor="middle" x="499" y="-124.5" font-family="Helvetica,sans-Serif" font-size="10.00">MojDbLevelTxnIterator.h</text>
</a>
</g>
<!-- Node1&#45;&gt;Node9 -->
<g id="edge22" class="edge"><title>Node1&#45;&gt;Node9</title>
<path fill="none" stroke="midnightblue" d="M499,-164.191C499,-155.168 499,-144.994 499,-137.571"/>
<polygon fill="midnightblue" stroke="midnightblue" points="495.5,-164.362 499,-174.362 502.5,-164.362 495.5,-164.362"/>
</g>
<!-- Node12 -->
<g id="node27" class="node"><title>Node12</title>
<a xlink:href="MojDbLevelIterator_8cpp.htm" target="_top" xlink:title="MojDbLevelIterator.cpp">
<polygon fill="white" stroke="black" points="583,-116.5 583,-137.5 709,-137.5 709,-116.5 583,-116.5"/>
<text text-anchor="middle" x="646" y="-124.5" font-family="Helvetica,sans-Serif" font-size="10.00">MojDbLevelIterator.cpp</text>
</a>
</g>
<!-- Node1&#45;&gt;Node12 -->
<g id="edge30" class="edge"><title>Node1&#45;&gt;Node12</title>
<path fill="none" stroke="midnightblue" d="M535.114,-170.751C561.073,-160.509 595.512,-146.921 619.081,-137.621"/>
<polygon fill="midnightblue" stroke="midnightblue" points="533.638,-167.571 525.621,-174.497 536.207,-174.082 533.638,-167.571"/>
</g>
<!-- Node3 -->
<g id="node5" class="node"><title>Node3</title>
<a xlink:href="MojDbLevelQuery_8h.htm" target="_top" xlink:title="MojDbLevelQuery.h">
<polygon fill="white" stroke="black" points="240.5,-58.5 240.5,-79.5 349.5,-79.5 349.5,-58.5 240.5,-58.5"/>
<text text-anchor="middle" x="295" y="-66.5" font-family="Helvetica,sans-Serif" font-size="10.00">MojDbLevelQuery.h</text>
</a>
</g>
<!-- Node2&#45;&gt;Node3 -->
<g id="edge4" class="edge"><title>Node2&#45;&gt;Node3</title>
<path fill="none" stroke="midnightblue" d="M328.405,-108.541C320.327,-98.9786 310.753,-87.6467 303.93,-79.5707"/>
<polygon fill="midnightblue" stroke="midnightblue" points="325.885,-110.982 335.013,-116.362 331.233,-106.464 325.885,-110.982"/>
</g>
<!-- Node4 -->
<g id="node7" class="node"><title>Node4</title>
<a xlink:href="MojDbLevelDatabase_8cpp.htm" target="_top" xlink:title="MojDbLevelDatabase.cpp">
<polygon fill="white" stroke="black" points="-0.5,-0.5 -0.5,-21.5 136.5,-21.5 136.5,-0.5 -0.5,-0.5"/>
<text text-anchor="middle" x="68" y="-8.5" font-family="Helvetica,sans-Serif" font-size="10.00">MojDbLevelDatabase.cpp</text>
</a>
</g>
<!-- Node2&#45;&gt;Node4 -->
<g id="edge16" class="edge"><title>Node2&#45;&gt;Node4</title>
<path fill="none" stroke="midnightblue" d="M303.296,-113.042C277.973,-104.115 244.849,-91.9963 216,-80 170.191,-60.951 117.851,-35.7018 89.3157,-21.6309"/>
<polygon fill="midnightblue" stroke="midnightblue" points="302.345,-116.418 312.94,-116.421 304.66,-109.811 302.345,-116.418"/>
</g>
<!-- Node6 -->
<g id="node11" class="node"><title>Node6</title>
<a xlink:href="MojDbLevelIndex_8cpp.htm" target="_top" xlink:title="MojDbLevelIndex.cpp">
<polygon fill="white" stroke="black" points="154,-0.5 154,-21.5 272,-21.5 272,-0.5 154,-0.5"/>
<text text-anchor="middle" x="213" y="-8.5" font-family="Helvetica,sans-Serif" font-size="10.00">MojDbLevelIndex.cpp</text>
</a>
</g>
<!-- Node2&#45;&gt;Node6 -->
<g id="edge18" class="edge"><title>Node2&#45;&gt;Node6</title>
<path fill="none" stroke="midnightblue" d="M284.236,-113.116C265.235,-106.037 245.637,-95.5138 232,-80 217.399,-63.3885 213.917,-36.5187 213.15,-21.687"/>
<polygon fill="midnightblue" stroke="midnightblue" points="283.189,-116.458 293.784,-116.417 285.476,-109.842 283.189,-116.458"/>
</g>
<!-- Node7 -->
<g id="node13" class="node"><title>Node7</title>
<a xlink:href="MojDbLevelQuery_8cpp.htm" target="_top" xlink:title="MojDbLevelQuery.cpp">
<polygon fill="white" stroke="black" points="432,-0.5 432,-21.5 552,-21.5 552,-0.5 432,-0.5"/>
<text text-anchor="middle" x="492" y="-8.5" font-family="Helvetica,sans-Serif" font-size="10.00">MojDbLevelQuery.cpp</text>
</a>
</g>
<!-- Node2&#45;&gt;Node7 -->
<g id="edge20" class="edge"><title>Node2&#45;&gt;Node7</title>
<path fill="none" stroke="midnightblue" d="M355.194,-107.457C364.57,-92.4288 379.11,-71.9439 396,-58 415.605,-41.8148 441.72,-29.4924 461.763,-21.5337"/>
<polygon fill="midnightblue" stroke="midnightblue" points="351.958,-106.047 349.806,-116.421 357.958,-109.653 351.958,-106.047"/>
</g>
<!-- Node8 -->
<g id="node15" class="node"><title>Node8</title>
<a xlink:href="MojDbLevelCursor_8cpp.htm" target="_top" xlink:title="MojDbLevelCursor.cpp">
<polygon fill="white" stroke="black" points="404.5,-58.5 404.5,-79.5 527.5,-79.5 527.5,-58.5 404.5,-58.5"/>
<text text-anchor="middle" x="466" y="-66.5" font-family="Helvetica,sans-Serif" font-size="10.00">MojDbLevelCursor.cpp</text>
</a>
</g>
<!-- Node2&#45;&gt;Node8 -->
<g id="edge14" class="edge"><title>Node2&#45;&gt;Node8</title>
<path fill="none" stroke="midnightblue" d="M375.406,-112.069C396.771,-101.912 424.529,-88.7157 443.659,-79.6212"/>
<polygon fill="midnightblue" stroke="midnightblue" points="373.622,-109.042 366.093,-116.497 376.627,-115.364 373.622,-109.042"/>
</g>
<!-- Node3&#45;&gt;Node4 -->
<g id="edge6" class="edge"><title>Node3&#45;&gt;Node4</title>
<path fill="none" stroke="midnightblue" d="M244.162,-56.0107C203.46,-45.6109 147.098,-31.2102 109.185,-21.5231"/>
<polygon fill="midnightblue" stroke="midnightblue" points="243.337,-59.4121 253.892,-58.4966 245.07,-52.63 243.337,-59.4121"/>
</g>
<!-- Node5 -->
<g id="node9" class="node"><title>Node5</title>
<a xlink:href="MojDbLevelEngine_8cpp.htm" target="_top" xlink:title="MojDbLevelEngine.cpp">
<polygon fill="white" stroke="black" points="289.5,-0.5 289.5,-21.5 414.5,-21.5 414.5,-0.5 289.5,-0.5"/>
<text text-anchor="middle" x="352" y="-8.5" font-family="Helvetica,sans-Serif" font-size="10.00">MojDbLevelEngine.cpp</text>
</a>
</g>
<!-- Node3&#45;&gt;Node5 -->
<g id="edge8" class="edge"><title>Node3&#45;&gt;Node5</title>
<path fill="none" stroke="midnightblue" d="M312.574,-51.118C322.087,-41.4377 333.514,-29.8098 341.612,-21.5707"/>
<polygon fill="midnightblue" stroke="midnightblue" points="309.968,-48.7763 305.455,-58.3619 314.96,-53.6829 309.968,-48.7763"/>
</g>
<!-- Node3&#45;&gt;Node6 -->
<g id="edge10" class="edge"><title>Node3&#45;&gt;Node6</title>
<path fill="none" stroke="midnightblue" d="M271.73,-52.5407C257.672,-42.5973 240.17,-30.2177 227.945,-21.5707"/>
<polygon fill="midnightblue" stroke="midnightblue" points="269.775,-55.4447 279.96,-58.3619 273.817,-49.7298 269.775,-55.4447"/>
</g>
<!-- Node3&#45;&gt;Node7 -->
<g id="edge12" class="edge"><title>Node3&#45;&gt;Node7</title>
<path fill="none" stroke="midnightblue" d="M340.696,-55.5464C375.886,-45.1857 423.842,-31.0668 456.258,-21.5231"/>
<polygon fill="midnightblue" stroke="midnightblue" points="339.28,-52.3148 330.675,-58.4966 341.257,-59.0298 339.28,-52.3148"/>
</g>
<!-- Node9&#45;&gt;Node8 -->
<g id="edge24" class="edge"><title>Node9&#45;&gt;Node8</title>
<path fill="none" stroke="midnightblue" d="M488,-107.667C482.668,-98.2948 476.47,-87.4019 472.014,-79.5707"/>
<polygon fill="midnightblue" stroke="midnightblue" points="484.96,-109.401 492.947,-116.362 491.044,-105.939 484.96,-109.401"/>
</g>
<!-- Node10 -->
<g id="node23" class="node"><title>Node10</title>
<a xlink:href="MojDbLevelTxn_8cpp.htm" target="_top" xlink:title="MojDbLevelTxn.cpp">
<polygon fill="white" stroke="black" points="707,-58.5 707,-79.5 817,-79.5 817,-58.5 707,-58.5"/>
<text text-anchor="middle" x="762" y="-66.5" font-family="Helvetica,sans-Serif" font-size="10.00">MojDbLevelTxn.cpp</text>
</a>
</g>
<!-- Node9&#45;&gt;Node10 -->
<g id="edge26" class="edge"><title>Node9&#45;&gt;Node10</title>
<path fill="none" stroke="midnightblue" d="M556.411,-114.339C603.674,-103.916 669.893,-89.3126 714.283,-79.5231"/>
<polygon fill="midnightblue" stroke="midnightblue" points="555.639,-110.925 546.627,-116.497 557.146,-117.761 555.639,-110.925"/>
</g>
<!-- Node11 -->
<g id="node25" class="node"><title>Node11</title>
<a xlink:href="MojDbLevelTxnIterator_8cpp.htm" target="_top" xlink:title="MojDbLevelTxnIterator.cpp">
<polygon fill="white" stroke="black" points="545,-58.5 545,-79.5 689,-79.5 689,-58.5 545,-58.5"/>
<text text-anchor="middle" x="617" y="-66.5" font-family="Helvetica,sans-Serif" font-size="10.00">MojDbLevelTxnIterator.cpp</text>
</a>
</g>
<!-- Node9&#45;&gt;Node11 -->
<g id="edge28" class="edge"><title>Node9&#45;&gt;Node11</title>
<path fill="none" stroke="midnightblue" d="M529.376,-112.069C550.041,-101.912 576.889,-88.7157 595.391,-79.6212"/>
<polygon fill="midnightblue" stroke="midnightblue" points="527.799,-108.944 520.369,-116.497 530.887,-115.226 527.799,-108.944"/>
</g>
</g>
</svg>
