<?xml version="1.0" encoding="UTF-8" standalone="no"?>
<!DOCTYPE svg PUBLIC "-//W3C//DTD SVG 1.1//EN"
 "http://www.w3.org/Graphics/SVG/1.1/DTD/svg11.dtd">
<!-- Generated by graphviz version 2.26.3 (20100126.1600)
 -->
<!-- Title: MojDbQueryPlan.h Pages: 1 -->
<svg width="1855pt" height="884pt"
 viewBox="0.00 0.00 1855.11 884.00" xmlns="http://www.w3.org/2000/svg" xmlns:xlink="http://www.w3.org/1999/xlink">
<g id="graph1" class="graph" transform="scale(1 1) rotate(0) translate(4 880)">
<title>MojDbQueryPlan.h</title>
<polygon fill="white" stroke="white" points="-4,5 -4,-880 1852.11,-880 1852.11,5 -4,5"/>
<!-- Node1 -->
<g id="node1" class="node"><title>Node1</title>
<polygon fill="#bfbfbf" stroke="black" points="725,-854.5 725,-875.5 829,-875.5 829,-854.5 725,-854.5"/>
<text text-anchor="middle" x="777" y="-862.5" font-family="Helvetica,sans-Serif" font-size="10.00">MojDbQueryPlan.h</text>
</g>
<!-- Node2 -->
<g id="node3" class="node"><title>Node2</title>
<a xlink:href="MojDbDefs_8h.htm" target="_top" xlink:title="db/MojDbDefs.h">
<polygon fill="white" stroke="black" points="621.5,-680.5 621.5,-701.5 712.5,-701.5 712.5,-680.5 621.5,-680.5"/>
<text text-anchor="middle" x="667" y="-688.5" font-family="Helvetica,sans-Serif" font-size="10.00">db/MojDbDefs.h</text>
</a>
</g>
<!-- Node1&#45;&gt;Node2 -->
<g id="edge2" class="edge"><title>Node1&#45;&gt;Node2</title>
<path fill="none" stroke="midnightblue" d="M767.424,-854.284C751.377,-835.952 718.687,-796.963 697,-760 687.834,-744.378 679.797,-725.437 674.354,-711.355"/>
<polygon fill="midnightblue" stroke="midnightblue" points="677.51,-709.804 670.722,-701.669 670.956,-712.261 677.51,-709.804"/>
</g>
<!-- Node13 -->
<g id="node25" class="node"><title>Node13</title>
<a xlink:href="MojDbQuery_8h.htm" target="_top" xlink:title="db/MojDbQuery.h">
<polygon fill="white" stroke="black" points="805,-796.5 805,-817.5 903,-817.5 903,-796.5 805,-796.5"/>
<text text-anchor="middle" x="854" y="-804.5" font-family="Helvetica,sans-Serif" font-size="10.00">db/MojDbQuery.h</text>
</a>
</g>
<!-- Node1&#45;&gt;Node13 -->
<g id="edge24" class="edge"><title>Node1&#45;&gt;Node13</title>
<path fill="none" stroke="midnightblue" d="M791.123,-854.362C802.52,-845.777 818.758,-833.546 831.878,-823.664"/>
<polygon fill="midnightblue" stroke="midnightblue" points="834.085,-826.383 839.967,-817.571 829.873,-820.792 834.085,-826.383"/>
</g>
<!-- Node14 -->
<g id="node28" class="node"><title>Node14</title>
<a xlink:href="MojDbKey_8h.htm" target="_top" xlink:title="db/MojDbKey.h">
<polygon fill="white" stroke="black" points="734.5,-738.5 734.5,-759.5 821.5,-759.5 821.5,-738.5 734.5,-738.5"/>
<text text-anchor="middle" x="778" y="-746.5" font-family="Helvetica,sans-Serif" font-size="10.00">db/MojDbKey.h</text>
</a>
</g>
<!-- Node1&#45;&gt;Node14 -->
<g id="edge158" class="edge"><title>Node1&#45;&gt;Node14</title>
<path fill="none" stroke="midnightblue" d="M777.092,-854.295C777.257,-835.131 777.606,-794.654 777.82,-769.843"/>
<polygon fill="midnightblue" stroke="midnightblue" points="781.322,-769.709 777.908,-759.679 774.322,-769.649 781.322,-769.709"/>
</g>
<!-- Node3 -->
<g id="node5" class="node"><title>Node3</title>
<a xlink:href="MojCoreDefs_8h.htm" target="_top" xlink:title="core/MojCoreDefs.h">
<polygon fill="white" stroke="black" points="860.5,-232.5 860.5,-253.5 971.5,-253.5 971.5,-232.5 860.5,-232.5"/>
<text text-anchor="middle" x="916" y="-240.5" font-family="Helvetica,sans-Serif" font-size="10.00">core/MojCoreDefs.h</text>
</a>
</g>
<!-- Node2&#45;&gt;Node3 -->
<g id="edge4" class="edge"><title>Node2&#45;&gt;Node3</title>
<path fill="none" stroke="midnightblue" d="M621.417,-687.438C471.007,-675.08 0,-631.328 0,-568 0,-568 0,-568 0,-366 0,-280.152 640.165,-251.878 850.159,-244.913"/>
<polygon fill="midnightblue" stroke="midnightblue" points="850.541,-248.402 860.421,-244.578 850.313,-241.406 850.541,-248.402"/>
</g>
<!-- Node4 -->
<g id="node7" class="node"><title>Node4</title>
<a xlink:href="MojConfig_8h.htm" target="_top" xlink:title="core/internal/MojConfig.h">
<polygon fill="white" stroke="black" points="973.5,-174.5 973.5,-195.5 1108.5,-195.5 1108.5,-174.5 973.5,-174.5"/>
<text text-anchor="middle" x="1041" y="-182.5" font-family="Helvetica,sans-Serif" font-size="10.00">core/internal/MojConfig.h</text>
</a>
</g>
<!-- Node3&#45;&gt;Node4 -->
<g id="edge6" class="edge"><title>Node3&#45;&gt;Node4</title>
<path fill="none" stroke="midnightblue" d="M938.637,-232.497C958.248,-223.397 986.846,-210.127 1008.83,-199.925"/>
<polygon fill="midnightblue" stroke="midnightblue" points="1010.51,-203.005 1018.11,-195.621 1007.57,-196.655 1010.51,-203.005"/>
</g>
<!-- Node5 -->
<g id="node9" class="node"><title>Node5</title>
<a xlink:href="MojNew_8h.htm" target="_top" xlink:title="core/internal/MojNew.h">
<polygon fill="white" stroke="black" points="635.5,-174.5 635.5,-195.5 760.5,-195.5 760.5,-174.5 635.5,-174.5"/>
<text text-anchor="middle" x="698" y="-182.5" font-family="Helvetica,sans-Serif" font-size="10.00">core/internal/MojNew.h</text>
</a>
</g>
<!-- Node3&#45;&gt;Node5 -->
<g id="edge8" class="edge"><title>Node3&#45;&gt;Node5</title>
<path fill="none" stroke="midnightblue" d="M876.522,-232.497C840.367,-222.877 786.696,-208.598 747.647,-198.209"/>
<polygon fill="midnightblue" stroke="midnightblue" points="748.116,-194.712 737.552,-195.523 746.316,-201.477 748.116,-194.712"/>
</g>
<!-- Node7 -->
<g id="node13" class="node"><title>Node7</title>
<a xlink:href="MojErr_8h.htm" target="_top" xlink:title="core/MojErr.h">
<polygon fill="white" stroke="black" points="778,-174.5 778,-195.5 858,-195.5 858,-174.5 778,-174.5"/>
<text text-anchor="middle" x="818" y="-182.5" font-family="Helvetica,sans-Serif" font-size="10.00">core/MojErr.h</text>
</a>
</g>
<!-- Node3&#45;&gt;Node7 -->
<g id="edge12" class="edge"><title>Node3&#45;&gt;Node7</title>
<path fill="none" stroke="midnightblue" d="M898.025,-232.362C883.106,-223.532 861.667,-210.844 844.734,-200.822"/>
<polygon fill="midnightblue" stroke="midnightblue" points="846.249,-197.652 835.861,-195.571 842.684,-203.676 846.249,-197.652"/>
</g>
<!-- Node11 -->
<g id="node21" class="node"><title>Node11</title>
<a xlink:href="MojOs_8h.htm" target="_top" xlink:title="core/MojOs.h">
<polygon fill="white" stroke="black" points="876,-174.5 876,-195.5 956,-195.5 956,-174.5 876,-174.5"/>
<text text-anchor="middle" x="916" y="-182.5" font-family="Helvetica,sans-Serif" font-size="10.00">core/MojOs.h</text>
</a>
</g>
<!-- Node3&#45;&gt;Node11 -->
<g id="edge20" class="edge"><title>Node3&#45;&gt;Node11</title>
<path fill="none" stroke="midnightblue" d="M916,-232.362C916,-224.922 916,-214.743 916,-205.728"/>
<polygon fill="midnightblue" stroke="midnightblue" points="919.5,-205.571 916,-195.571 912.5,-205.571 919.5,-205.571"/>
</g>
<!-- Node6 -->
<g id="node11" class="node"><title>Node6</title>
<polygon fill="white" stroke="#bfbfbf" points="680,-116.5 680,-137.5 716,-137.5 716,-116.5 680,-116.5"/>
<text text-anchor="middle" x="698" y="-124.5" font-family="Helvetica,sans-Serif" font-size="10.00">new</text>
</g>
<!-- Node5&#45;&gt;Node6 -->
<g id="edge10" class="edge"><title>Node5&#45;&gt;Node6</title>
<path fill="none" stroke="midnightblue" d="M698,-174.362C698,-166.922 698,-156.743 698,-147.728"/>
<polygon fill="midnightblue" stroke="midnightblue" points="701.5,-147.571 698,-137.571 694.5,-147.571 701.5,-147.571"/>
</g>
<!-- Node8 -->
<g id="node15" class="node"><title>Node8</title>
<a xlink:href="MojLog_8h.htm" target="_top" xlink:title="core/MojLog.h">
<polygon fill="white" stroke="black" points="735,-116.5 735,-137.5 819,-137.5 819,-116.5 735,-116.5"/>
<text text-anchor="middle" x="777" y="-124.5" font-family="Helvetica,sans-Serif" font-size="10.00">core/MojLog.h</text>
</a>
</g>
<!-- Node7&#45;&gt;Node8 -->
<g id="edge14" class="edge"><title>Node7&#45;&gt;Node8</title>
<path fill="none" stroke="midnightblue" d="M810.48,-174.362C804.874,-166.431 797.068,-155.389 790.403,-145.961"/>
<polygon fill="midnightblue" stroke="midnightblue" points="793.103,-143.716 784.472,-137.571 787.387,-147.757 793.103,-143.716"/>
</g>
<!-- Node9 -->
<g id="node17" class="node"><title>Node9</title>
<a xlink:href="MojListEntry_8h.htm" target="_top" xlink:title="core/MojListEntry.h">
<polygon fill="white" stroke="black" points="394.5,-58.5 394.5,-79.5 501.5,-79.5 501.5,-58.5 394.5,-58.5"/>
<text text-anchor="middle" x="448" y="-66.5" font-family="Helvetica,sans-Serif" font-size="10.00">core/MojListEntry.h</text>
</a>
</g>
<!-- Node8&#45;&gt;Node9 -->
<g id="edge16" class="edge"><title>Node8&#45;&gt;Node9</title>
<path fill="none" stroke="midnightblue" d="M734.743,-117.912C731.45,-117.249 728.173,-116.604 725,-116 652.15,-102.12 568.13,-88.1493 511.902,-79.091"/>
<polygon fill="midnightblue" stroke="midnightblue" points="512.164,-75.5883 501.735,-77.4579 511.054,-82.4997 512.164,-75.5883"/>
</g>
<!-- Node10 -->
<g id="node19" class="node"><title>Node10</title>
<a xlink:href="MojNoCopy_8h.htm" target="_top" xlink:title="core/MojNoCopy.h">
<polygon fill="white" stroke="black" points="191,-0.5 191,-21.5 295,-21.5 295,-0.5 191,-0.5"/>
<text text-anchor="middle" x="243" y="-8.5" font-family="Helvetica,sans-Serif" font-size="10.00">core/MojNoCopy.h</text>
</a>
</g>
<!-- Node9&#45;&gt;Node10 -->
<g id="edge18" class="edge"><title>Node9&#45;&gt;Node10</title>
<path fill="none" stroke="midnightblue" d="M410.876,-58.4966C377.021,-48.9183 326.836,-34.7196 290.156,-24.3418"/>
<polygon fill="midnightblue" stroke="midnightblue" points="290.769,-20.8777 280.194,-21.5231 288.863,-27.6133 290.769,-20.8777"/>
</g>
<!-- Node12 -->
<g id="node23" class="node"><title>Node12</title>
<a xlink:href="MojOsInternal_8h.htm" target="_top" xlink:title="core/internal/MojOsInternal.h">
<polygon fill="white" stroke="black" points="839,-116.5 839,-137.5 993,-137.5 993,-116.5 839,-116.5"/>
<text text-anchor="middle" x="916" y="-124.5" font-family="Helvetica,sans-Serif" font-size="10.00">core/internal/MojOsInternal.h</text>
</a>
</g>
<!-- Node11&#45;&gt;Node12 -->
<g id="edge22" class="edge"><title>Node11&#45;&gt;Node12</title>
<path fill="none" stroke="midnightblue" d="M916,-174.362C916,-166.922 916,-156.743 916,-147.728"/>
<polygon fill="midnightblue" stroke="midnightblue" points="919.5,-147.571 916,-137.571 912.5,-147.571 919.5,-147.571"/>
</g>
<!-- Node13&#45;&gt;Node2 -->
<g id="edge26" class="edge"><title>Node13&#45;&gt;Node2</title>
<path fill="none" stroke="midnightblue" d="M808.658,-796.475C782.877,-789.05 750.877,-777.3 726,-760 706.818,-746.661 690.069,-725.635 679.366,-710.296"/>
<polygon fill="midnightblue" stroke="midnightblue" points="682.002,-707.944 673.516,-701.6 676.194,-711.851 682.002,-707.944"/>
</g>
<!-- Node13&#45;&gt;Node14 -->
<g id="edge28" class="edge"><title>Node13&#45;&gt;Node14</title>
<path fill="none" stroke="midnightblue" d="M840.06,-796.362C828.812,-787.777 812.784,-775.546 799.835,-765.664"/>
<polygon fill="midnightblue" stroke="midnightblue" points="801.924,-762.855 791.851,-759.571 797.677,-768.42 801.924,-762.855"/>
</g>
<!-- Node28 -->
<g id="node70" class="node"><title>Node28</title>
<a xlink:href="MojObject_8h.htm" target="_top" xlink:title="core/MojObject.h">
<polygon fill="white" stroke="black" points="950,-680.5 950,-701.5 1046,-701.5 1046,-680.5 950,-680.5"/>
<text text-anchor="middle" x="998" y="-688.5" font-family="Helvetica,sans-Serif" font-size="10.00">core/MojObject.h</text>
</a>
</g>
<!-- Node13&#45;&gt;Node28 -->
<g id="edge152" class="edge"><title>Node13&#45;&gt;Node28</title>
<path fill="none" stroke="midnightblue" d="M867.289,-796.295C892.364,-776.096 946.836,-732.216 976.942,-707.963"/>
<polygon fill="midnightblue" stroke="midnightblue" points="979.151,-710.678 984.743,-701.679 974.76,-705.227 979.151,-710.678"/>
</g>
<!-- Node33 -->
<g id="node88" class="node"><title>Node33</title>
<a xlink:href="MojString_8h.htm" target="_top" xlink:title="core/MojString.h">
<polygon fill="white" stroke="black" points="1027,-622.5 1027,-643.5 1121,-643.5 1121,-622.5 1027,-622.5"/>
<text text-anchor="middle" x="1074" y="-630.5" font-family="Helvetica,sans-Serif" font-size="10.00">core/MojString.h</text>
</a>
</g>
<!-- Node13&#45;&gt;Node33 -->
<g id="edge156" class="edge"><title>Node13&#45;&gt;Node33</title>
<path fill="none" stroke="midnightblue" d="M894.607,-796.429C940.315,-782.432 1013.58,-753.317 1055,-702 1066.07,-688.285 1070.7,-668.586 1072.64,-653.744"/>
<polygon fill="midnightblue" stroke="midnightblue" points="1076.15,-653.817 1073.65,-643.52 1069.18,-653.126 1076.15,-653.817"/>
</g>
<!-- Node34 -->
<g id="node96" class="node"><title>Node34</title>
<a xlink:href="MojSet_8h.htm" target="_top" xlink:title="core/MojSet.h">
<polygon fill="white" stroke="black" points="668,-557.5 668,-578.5 750,-578.5 750,-557.5 668,-557.5"/>
<text text-anchor="middle" x="709" y="-565.5" font-family="Helvetica,sans-Serif" font-size="10.00">core/MojSet.h</text>
</a>
</g>
<!-- Node13&#45;&gt;Node34 -->
<g id="edge154" class="edge"><title>Node13&#45;&gt;Node34</title>
<path fill="none" stroke="midnightblue" d="M851.297,-796.338C847.554,-782.449 840.094,-757.625 830,-738 799.538,-678.772 750.422,-616.935 725.156,-586.784"/>
<polygon fill="midnightblue" stroke="midnightblue" points="727.544,-584.187 718.413,-578.815 722.201,-588.709 727.544,-584.187"/>
</g>
<!-- Node36 -->
<g id="node104" class="node"><title>Node36</title>
<a xlink:href="MojHashMap_8h.htm" target="_top" xlink:title="core/MojHashMap.h">
<polygon fill="white" stroke="black" points="1676,-622.5 1676,-643.5 1788,-643.5 1788,-622.5 1676,-622.5"/>
<text text-anchor="middle" x="1732" y="-630.5" font-family="Helvetica,sans-Serif" font-size="10.00">core/MojHashMap.h</text>
</a>
</g>
<!-- Node13&#45;&gt;Node36 -->
<g id="edge136" class="edge"><title>Node13&#45;&gt;Node36</title>
<path fill="none" stroke="midnightblue" d="M903.086,-797.272C1052.54,-767.654 1501.93,-678.595 1668.75,-645.534"/>
<polygon fill="midnightblue" stroke="midnightblue" points="1669.73,-648.909 1678.86,-643.532 1668.37,-642.043 1669.73,-648.909"/>
</g>
<!-- Node14&#45;&gt;Node2 -->
<g id="edge30" class="edge"><title>Node14&#45;&gt;Node2</title>
<path fill="none" stroke="midnightblue" d="M757.899,-738.497C740.718,-729.519 715.77,-716.484 696.355,-706.339"/>
<polygon fill="midnightblue" stroke="midnightblue" points="697.811,-703.15 687.327,-701.621 694.569,-709.354 697.811,-703.15"/>
</g>
<!-- Node15 -->
<g id="node31" class="node"><title>Node15</title>
<a xlink:href="MojBuffer_8h.htm" target="_top" xlink:title="core/MojBuffer.h">
<polygon fill="white" stroke="black" points="279,-622.5 279,-643.5 373,-643.5 373,-622.5 279,-622.5"/>
<text text-anchor="middle" x="326" y="-630.5" font-family="Helvetica,sans-Serif" font-size="10.00">core/MojBuffer.h</text>
</a>
</g>
<!-- Node14&#45;&gt;Node15 -->
<g id="edge32" class="edge"><title>Node14&#45;&gt;Node15</title>
<path fill="none" stroke="midnightblue" d="M772.688,-738.432C764.162,-722.704 745.825,-693.543 721,-680 664.114,-648.968 478.368,-638.176 383.254,-634.626"/>
<polygon fill="midnightblue" stroke="midnightblue" points="383.348,-631.127 373.228,-634.266 383.096,-638.122 383.348,-631.127"/>
</g>
<!-- Node21 -->
<g id="node48" class="node"><title>Node21</title>
<a xlink:href="MojVector_8h.htm" target="_top" xlink:title="core/MojVector.h">
<polygon fill="white" stroke="black" points="767.5,-557.5 767.5,-578.5 864.5,-578.5 864.5,-557.5 767.5,-557.5"/>
<text text-anchor="middle" x="816" y="-565.5" font-family="Helvetica,sans-Serif" font-size="10.00">core/MojVector.h</text>
</a>
</g>
<!-- Node14&#45;&gt;Node21 -->
<g id="edge134" class="edge"><title>Node14&#45;&gt;Node21</title>
<path fill="none" stroke="midnightblue" d="M781.573,-738.266C784.633,-728.799 789.007,-714.591 792,-702 801.469,-662.164 809.113,-614.874 813.066,-588.465"/>
<polygon fill="midnightblue" stroke="midnightblue" points="816.538,-588.91 814.529,-578.507 809.613,-587.893 816.538,-588.91"/>
</g>
<!-- Node14&#45;&gt;Node28 -->
<g id="edge84" class="edge"><title>Node14&#45;&gt;Node28</title>
<path fill="none" stroke="midnightblue" d="M817.84,-738.497C854.483,-728.836 908.951,-714.477 948.399,-704.077"/>
<polygon fill="midnightblue" stroke="midnightblue" points="949.308,-707.457 958.085,-701.523 947.523,-700.688 949.308,-707.457"/>
</g>
<!-- Node14&#45;&gt;Node34 -->
<g id="edge124" class="edge"><title>Node14&#45;&gt;Node34</title>
<path fill="none" stroke="midnightblue" d="M773.992,-738.486C762.845,-709.245 731.334,-626.586 716.676,-588.135"/>
<polygon fill="midnightblue" stroke="midnightblue" points="719.852,-586.64 713.019,-578.543 713.311,-589.134 719.852,-586.64"/>
</g>
<!-- Node15&#45;&gt;Node3 -->
<g id="edge34" class="edge"><title>Node15&#45;&gt;Node3</title>
<path fill="none" stroke="midnightblue" d="M278.686,-628.03C237.953,-622.273 178.557,-610.268 132,-586 82.5782,-560.238 38,-558.733 38,-503 38,-503 38,-503 38,-438 38,-367.361 106.523,-380.961 169,-348 232.218,-314.648 249.305,-305.861 319,-290 418.542,-267.347 716.684,-251.791 850.146,-245.774"/>
<polygon fill="midnightblue" stroke="midnightblue" points="850.401,-249.266 860.235,-245.323 850.089,-242.273 850.401,-249.266"/>
</g>
<!-- Node16 -->
<g id="node34" class="node"><title>Node16</title>
<a xlink:href="MojAutoPtr_8h.htm" target="_top" xlink:title="core/MojAutoPtr.h">
<polygon fill="white" stroke="black" points="679.5,-427.5 679.5,-448.5 780.5,-448.5 780.5,-427.5 679.5,-427.5"/>
<text text-anchor="middle" x="730" y="-435.5" font-family="Helvetica,sans-Serif" font-size="10.00">core/MojAutoPtr.h</text>
</a>
</g>
<!-- Node15&#45;&gt;Node16 -->
<g id="edge36" class="edge"><title>Node15&#45;&gt;Node16</title>
<path fill="none" stroke="midnightblue" d="M323.635,-622.333C318.499,-596.05 309.466,-527.726 345,-492 367.462,-469.417 566.129,-450.777 668.931,-442.544"/>
<polygon fill="midnightblue" stroke="midnightblue" points="669.48,-446.012 679.173,-441.733 668.928,-439.034 669.48,-446.012"/>
</g>
<!-- Node19 -->
<g id="node43" class="node"><title>Node19</title>
<a xlink:href="MojList_8h.htm" target="_top" xlink:title="core/MojList.h">
<polygon fill="white" stroke="black" points="140.5,-557.5 140.5,-578.5 223.5,-578.5 223.5,-557.5 140.5,-557.5"/>
<text text-anchor="middle" x="182" y="-565.5" font-family="Helvetica,sans-Serif" font-size="10.00">core/MojList.h</text>
</a>
</g>
<!-- Node15&#45;&gt;Node19 -->
<g id="edge48" class="edge"><title>Node15&#45;&gt;Node19</title>
<path fill="none" stroke="midnightblue" d="M302.543,-622.412C278.695,-611.647 241.545,-594.878 214.79,-582.801"/>
<polygon fill="midnightblue" stroke="midnightblue" points="216.001,-579.508 205.447,-578.584 213.121,-585.888 216.001,-579.508"/>
</g>
<!-- Node15&#45;&gt;Node21 -->
<g id="edge54" class="edge"><title>Node15&#45;&gt;Node21</title>
<path fill="none" stroke="midnightblue" d="M373.253,-630.931C453.361,-626.744 620.618,-615.061 759,-586 764.791,-584.784 770.829,-583.217 776.718,-581.515"/>
<polygon fill="midnightblue" stroke="midnightblue" points="777.87,-584.823 786.417,-578.563 775.831,-578.126 777.87,-584.823"/>
</g>
<!-- Node16&#45;&gt;Node3 -->
<g id="edge38" class="edge"><title>Node16&#45;&gt;Node3</title>
<path fill="none" stroke="midnightblue" d="M729.675,-427.249C729.656,-409.228 731.922,-372.498 749,-348 780.235,-303.193 837.367,-273.463 876.006,-257.414"/>
<polygon fill="midnightblue" stroke="midnightblue" points="877.436,-260.611 885.404,-253.628 874.821,-254.118 877.436,-260.611"/>
</g>
<!-- Node16&#45;&gt;Node10 -->
<g id="edge44" class="edge"><title>Node16&#45;&gt;Node10</title>
<path fill="none" stroke="midnightblue" d="M679.396,-434.699C519.87,-422.924 38,-376.321 38,-243 38,-243 38,-243 38,-127 38,-60.5667 120.555,-31.7355 180.888,-19.5355"/>
<polygon fill="midnightblue" stroke="midnightblue" points="181.576,-22.9674 190.739,-17.649 180.26,-16.0923 181.576,-22.9674"/>
</g>
<!-- Node17 -->
<g id="node37" class="node"><title>Node17</title>
<a xlink:href="MojAtomicInt_8h.htm" target="_top" xlink:title="core/MojAtomicInt.h">
<polygon fill="white" stroke="black" points="592,-355.5 592,-376.5 702,-376.5 702,-355.5 592,-355.5"/>
<text text-anchor="middle" x="647" y="-363.5" font-family="Helvetica,sans-Serif" font-size="10.00">core/MojAtomicInt.h</text>
</a>
</g>
<!-- Node16&#45;&gt;Node17 -->
<g id="edge40" class="edge"><title>Node16&#45;&gt;Node17</title>
<path fill="none" stroke="midnightblue" d="M717.753,-427.376C704.39,-415.784 682.793,-397.05 666.971,-383.324"/>
<polygon fill="midnightblue" stroke="midnightblue" points="669.145,-380.576 659.297,-376.667 664.558,-385.864 669.145,-380.576"/>
</g>
<!-- Node18 -->
<g id="node41" class="node"><title>Node18</title>
<a xlink:href="MojAutoPtrInternal_8h.htm" target="_top" xlink:title="core/internal/MojAutoPtr\lInternal.h">
<polygon fill="white" stroke="black" points="757.5,-349 757.5,-383 888.5,-383 888.5,-349 757.5,-349"/>
<text text-anchor="start" x="765.5" y="-370" font-family="Helvetica,sans-Serif" font-size="10.00">core/internal/MojAutoPtr</text>
<text text-anchor="middle" x="823" y="-357" font-family="Helvetica,sans-Serif" font-size="10.00">Internal.h</text>
</a>
</g>
<!-- Node16&#45;&gt;Node18 -->
<g id="edge46" class="edge"><title>Node16&#45;&gt;Node18</title>
<path fill="none" stroke="midnightblue" d="M743.722,-427.376C756.544,-417.45 776.131,-402.286 792.627,-389.514"/>
<polygon fill="midnightblue" stroke="midnightblue" points="795.155,-391.984 800.92,-383.094 790.87,-386.449 795.155,-391.984"/>
</g>
<!-- Node17&#45;&gt;Node3 -->
<g id="edge42" class="edge"><title>Node17&#45;&gt;Node3</title>
<path fill="none" stroke="midnightblue" d="M653.599,-355.295C664.461,-338.622 687.745,-306.64 716,-290 756.8,-265.972 809.066,-254.226 849.935,-248.485"/>
<polygon fill="midnightblue" stroke="midnightblue" points="850.609,-251.926 860.066,-247.15 849.695,-244.986 850.609,-251.926"/>
</g>
<!-- Node19&#45;&gt;Node3 -->
<g id="edge50" class="edge"><title>Node19&#45;&gt;Node3</title>
<path fill="none" stroke="midnightblue" d="M151.694,-557.445C121.224,-544.929 80.6622,-521.936 95,-492 166.035,-343.687 245.84,-331.364 405,-290 487.422,-268.58 731.722,-252.941 850.156,-246.394"/>
<polygon fill="midnightblue" stroke="midnightblue" points="850.39,-249.887 860.184,-245.845 850.007,-242.897 850.39,-249.887"/>
</g>
<!-- Node20 -->
<g id="node46" class="node"><title>Node20</title>
<a xlink:href="MojListInternal_8h.htm" target="_top" xlink:title="core/internal/MojListInternal.h">
<polygon fill="white" stroke="black" points="103.5,-492.5 103.5,-513.5 260.5,-513.5 260.5,-492.5 103.5,-492.5"/>
<text text-anchor="middle" x="182" y="-500.5" font-family="Helvetica,sans-Serif" font-size="10.00">core/internal/MojListInternal.h</text>
</a>
</g>
<!-- Node19&#45;&gt;Node20 -->
<g id="edge52" class="edge"><title>Node19&#45;&gt;Node20</title>
<path fill="none" stroke="midnightblue" d="M182,-557.267C182,-548.18 182,-534.892 182,-523.74"/>
<polygon fill="midnightblue" stroke="midnightblue" points="185.5,-523.534 182,-513.534 178.5,-523.534 185.5,-523.534"/>
</g>
<!-- Node21&#45;&gt;Node3 -->
<g id="edge56" class="edge"><title>Node21&#45;&gt;Node3</title>
<path fill="none" stroke="midnightblue" d="M785.145,-557.455C776.727,-554.798 767.566,-552.106 759,-550 714.723,-539.112 586.277,-548.956 557,-514 547.552,-502.72 517.016,-480.549 570,-348 582.212,-317.449 587.577,-306.571 616,-290 654.658,-267.461 773.973,-254.147 849.97,-247.734"/>
<polygon fill="midnightblue" stroke="midnightblue" points="850.714,-251.185 860.393,-246.875 850.139,-244.208 850.714,-251.185"/>
</g>
<!-- Node22 -->
<g id="node51" class="node"><title>Node22</title>
<a xlink:href="MojComp_8h.htm" target="_top" xlink:title="core/MojComp.h">
<polygon fill="white" stroke="black" points="1117,-290.5 1117,-311.5 1211,-311.5 1211,-290.5 1117,-290.5"/>
<text text-anchor="middle" x="1164" y="-298.5" font-family="Helvetica,sans-Serif" font-size="10.00">core/MojComp.h</text>
</a>
</g>
<!-- Node21&#45;&gt;Node22 -->
<g id="edge58" class="edge"><title>Node21&#45;&gt;Node22</title>
<path fill="none" stroke="midnightblue" d="M864.501,-562.621C947.034,-553.023 1107.69,-532.239 1126,-514 1178.28,-461.929 1172.7,-364.348 1167.28,-321.765"/>
<polygon fill="midnightblue" stroke="midnightblue" points="1170.72,-321.153 1165.87,-311.738 1163.79,-322.128 1170.72,-321.153"/>
</g>
<!-- Node23 -->
<g id="node54" class="node"><title>Node23</title>
<a xlink:href="MojRefCount_8h.htm" target="_top" xlink:title="core/MojRefCount.h">
<polygon fill="white" stroke="black" points="566,-492.5 566,-513.5 676,-513.5 676,-492.5 566,-492.5"/>
<text text-anchor="middle" x="621" y="-500.5" font-family="Helvetica,sans-Serif" font-size="10.00">core/MojRefCount.h</text>
</a>
</g>
<!-- Node21&#45;&gt;Node23 -->
<g id="edge62" class="edge"><title>Node21&#45;&gt;Node23</title>
<path fill="none" stroke="midnightblue" d="M784.236,-557.412C751.091,-546.364 698.974,-528.991 662.572,-516.857"/>
<polygon fill="midnightblue" stroke="midnightblue" points="663.344,-513.425 652.751,-513.584 661.131,-520.066 663.344,-513.425"/>
</g>
<!-- Node26 -->
<g id="node64" class="node"><title>Node26</title>
<a xlink:href="MojUtil_8h.htm" target="_top" xlink:title="core/MojUtil.h">
<polygon fill="white" stroke="black" points="1215.5,-427.5 1215.5,-448.5 1296.5,-448.5 1296.5,-427.5 1215.5,-427.5"/>
<text text-anchor="middle" x="1256" y="-435.5" font-family="Helvetica,sans-Serif" font-size="10.00">core/MojUtil.h</text>
</a>
</g>
<!-- Node21&#45;&gt;Node26 -->
<g id="edge76" class="edge"><title>Node21&#45;&gt;Node26</title>
<path fill="none" stroke="midnightblue" d="M864.531,-563.673C947.167,-555.778 1111.37,-537.644 1164,-514 1194.32,-500.381 1222.77,-473.984 1239.78,-456.173"/>
<polygon fill="midnightblue" stroke="midnightblue" points="1242.51,-458.377 1246.76,-448.671 1237.39,-453.609 1242.51,-458.377"/>
</g>
<!-- Node27 -->
<g id="node68" class="node"><title>Node27</title>
<a xlink:href="MojVectorInternal_8h.htm" target="_top" xlink:title="core/internal/MojVectorInternal.h">
<polygon fill="white" stroke="black" points="693.5,-492.5 693.5,-513.5 864.5,-513.5 864.5,-492.5 693.5,-492.5"/>
<text text-anchor="middle" x="779" y="-500.5" font-family="Helvetica,sans-Serif" font-size="10.00">core/internal/MojVectorInternal.h</text>
</a>
</g>
<!-- Node21&#45;&gt;Node27 -->
<g id="edge82" class="edge"><title>Node21&#45;&gt;Node27</title>
<path fill="none" stroke="midnightblue" d="M809.89,-557.267C804.502,-547.801 796.519,-533.777 790.019,-522.357"/>
<polygon fill="midnightblue" stroke="midnightblue" points="792.985,-520.493 784.996,-513.534 786.901,-523.956 792.985,-520.493"/>
</g>
<!-- Node22&#45;&gt;Node3 -->
<g id="edge60" class="edge"><title>Node22&#45;&gt;Node3</title>
<path fill="none" stroke="midnightblue" d="M1119.09,-290.497C1077.43,-280.755 1015.34,-266.233 970.787,-255.813"/>
<polygon fill="midnightblue" stroke="midnightblue" points="971.529,-252.392 960.995,-253.523 969.935,-259.208 971.529,-252.392"/>
</g>
<!-- Node23&#45;&gt;Node3 -->
<g id="edge64" class="edge"><title>Node23&#45;&gt;Node3</title>
<path fill="none" stroke="midnightblue" d="M613.415,-492.46C595.584,-466.274 554.579,-396.856 583,-348 609.223,-302.923 636.173,-308.316 685,-290 738.906,-269.779 803.323,-257.589 850.421,-250.71"/>
<polygon fill="midnightblue" stroke="midnightblue" points="851.088,-254.15 860.497,-249.28 850.105,-247.219 851.088,-254.15"/>
</g>
<!-- Node23&#45;&gt;Node16 -->
<g id="edge68" class="edge"><title>Node23&#45;&gt;Node16</title>
<path fill="none" stroke="midnightblue" d="M638.999,-492.267C656.618,-481.76 683.655,-465.637 703.685,-453.692"/>
<polygon fill="midnightblue" stroke="midnightblue" points="705.54,-456.662 712.336,-448.534 701.954,-450.649 705.54,-456.662"/>
</g>
<!-- Node23&#45;&gt;Node17 -->
<g id="edge66" class="edge"><title>Node23&#45;&gt;Node17</title>
<path fill="none" stroke="midnightblue" d="M623.04,-492.25C627.35,-469.541 637.445,-416.348 643.059,-386.768"/>
<polygon fill="midnightblue" stroke="midnightblue" points="646.543,-387.177 644.969,-376.7 639.666,-385.872 646.543,-387.177"/>
</g>
<!-- Node24 -->
<g id="node59" class="node"><title>Node24</title>
<a xlink:href="MojRefCountInternal_8h.htm" target="_top" xlink:title="core/internal/MojRefCount\lInternal.h">
<polygon fill="white" stroke="black" points="982,-421 982,-455 1122,-455 1122,-421 982,-421"/>
<text text-anchor="start" x="990" y="-442" font-family="Helvetica,sans-Serif" font-size="10.00">core/internal/MojRefCount</text>
<text text-anchor="middle" x="1052" y="-429" font-family="Helvetica,sans-Serif" font-size="10.00">Internal.h</text>
</a>
</g>
<!-- Node23&#45;&gt;Node24 -->
<g id="edge70" class="edge"><title>Node23&#45;&gt;Node24</title>
<path fill="none" stroke="midnightblue" d="M676.144,-493.435C679.138,-492.943 682.105,-492.462 685,-492 783.552,-476.283 897.266,-459.807 971.675,-449.25"/>
<polygon fill="midnightblue" stroke="midnightblue" points="972.498,-452.669 981.909,-447.801 971.516,-445.738 972.498,-452.669"/>
</g>
<!-- Node25 -->
<g id="node61" class="node"><title>Node25</title>
<a xlink:href="MojUtilInternal_8h.htm" target="_top" xlink:title="core/internal/MojUtilInternal.h">
<polygon fill="white" stroke="black" points="981.5,-355.5 981.5,-376.5 1136.5,-376.5 1136.5,-355.5 981.5,-355.5"/>
<text text-anchor="middle" x="1059" y="-363.5" font-family="Helvetica,sans-Serif" font-size="10.00">core/internal/MojUtilInternal.h</text>
</a>
</g>
<!-- Node24&#45;&gt;Node25 -->
<g id="edge72" class="edge"><title>Node24&#45;&gt;Node25</title>
<path fill="none" stroke="midnightblue" d="M1053.66,-420.937C1054.64,-410.814 1055.9,-397.898 1056.95,-387.133"/>
<polygon fill="midnightblue" stroke="midnightblue" points="1060.46,-387.193 1057.94,-376.901 1053.49,-386.515 1060.46,-387.193"/>
</g>
<!-- Node25&#45;&gt;Node22 -->
<g id="edge74" class="edge"><title>Node25&#45;&gt;Node22</title>
<path fill="none" stroke="midnightblue" d="M1076.34,-355.267C1093.23,-344.807 1119.12,-328.782 1138.39,-316.854"/>
<polygon fill="midnightblue" stroke="midnightblue" points="1140.32,-319.773 1146.98,-311.534 1136.64,-313.821 1140.32,-319.773"/>
</g>
<!-- Node26&#45;&gt;Node3 -->
<g id="edge78" class="edge"><title>Node26&#45;&gt;Node3</title>
<path fill="none" stroke="midnightblue" d="M1257.01,-427.484C1258.98,-400.225 1260.12,-326.843 1220,-290 1186.21,-258.975 1060.88,-248.424 982.078,-244.84"/>
<polygon fill="midnightblue" stroke="midnightblue" points="981.898,-241.329 971.758,-244.398 981.599,-248.323 981.898,-241.329"/>
</g>
<!-- Node26&#45;&gt;Node25 -->
<g id="edge80" class="edge"><title>Node26&#45;&gt;Node25</title>
<path fill="none" stroke="midnightblue" d="M1226.93,-427.376C1192.64,-414.844 1135.51,-393.965 1097.55,-380.091"/>
<polygon fill="midnightblue" stroke="midnightblue" points="1098.46,-376.696 1087.87,-376.55 1096.06,-383.27 1098.46,-376.696"/>
</g>
<!-- Node28&#45;&gt;Node3 -->
<g id="edge86" class="edge"><title>Node28&#45;&gt;Node3</title>
<path fill="none" stroke="midnightblue" d="M1046.06,-687.001C1196.43,-673.852 1648,-629.265 1648,-568 1648,-568 1648,-568 1648,-366 1648,-351.574 1648.93,-328.481 1541,-290 1439.51,-253.814 1121,-245.488 981.99,-243.572"/>
<polygon fill="midnightblue" stroke="midnightblue" points="981.942,-240.071 971.897,-243.44 981.85,-247.071 981.942,-240.071"/>
</g>
<!-- Node28&#45;&gt;Node21 -->
<g id="edge122" class="edge"><title>Node28&#45;&gt;Node21</title>
<path fill="none" stroke="midnightblue" d="M982.167,-680.3C950.221,-658.71 877.88,-609.82 840.059,-584.26"/>
<polygon fill="midnightblue" stroke="midnightblue" points="841.912,-581.288 831.667,-578.588 837.992,-587.087 841.912,-581.288"/>
</g>
<!-- Node29 -->
<g id="node73" class="node"><title>Node29</title>
<a xlink:href="MojDecimal_8h.htm" target="_top" xlink:title="core/MojDecimal.h">
<polygon fill="white" stroke="black" points="1440,-557.5 1440,-578.5 1544,-578.5 1544,-557.5 1440,-557.5"/>
<text text-anchor="middle" x="1492" y="-565.5" font-family="Helvetica,sans-Serif" font-size="10.00">core/MojDecimal.h</text>
</a>
</g>
<!-- Node28&#45;&gt;Node29 -->
<g id="edge88" class="edge"><title>Node28&#45;&gt;Node29</title>
<path fill="none" stroke="midnightblue" d="M1044.65,-680.479C1124.21,-662.358 1291.12,-623.575 1431,-586 1436.33,-584.568 1441.91,-583.008 1447.43,-581.426"/>
<polygon fill="midnightblue" stroke="midnightblue" points="1448.62,-584.726 1457.24,-578.576 1446.67,-578.003 1448.62,-584.726"/>
</g>
<!-- Node31 -->
<g id="node80" class="node"><title>Node31</title>
<a xlink:href="MojMap_8h.htm" target="_top" xlink:title="core/MojMap.h">
<polygon fill="white" stroke="black" points="1024.5,-557.5 1024.5,-578.5 1111.5,-578.5 1111.5,-557.5 1024.5,-557.5"/>
<text text-anchor="middle" x="1068" y="-565.5" font-family="Helvetica,sans-Serif" font-size="10.00">core/MojMap.h</text>
</a>
</g>
<!-- Node28&#45;&gt;Node31 -->
<g id="edge98" class="edge"><title>Node28&#45;&gt;Node31</title>
<path fill="none" stroke="midnightblue" d="M999.554,-680.112C1001.92,-665.979 1007.32,-640.892 1018,-622 1025.72,-608.351 1037.52,-595.379 1047.73,-585.571"/>
<polygon fill="midnightblue" stroke="midnightblue" points="1050.16,-588.089 1055.12,-578.729 1045.41,-582.951 1050.16,-588.089"/>
</g>
<!-- Node28&#45;&gt;Node33 -->
<g id="edge110" class="edge"><title>Node28&#45;&gt;Node33</title>
<path fill="none" stroke="midnightblue" d="M1011.94,-680.362C1023.19,-671.777 1039.22,-659.546 1052.16,-649.664"/>
<polygon fill="midnightblue" stroke="midnightblue" points="1054.32,-652.42 1060.15,-643.571 1050.08,-646.855 1054.32,-652.42"/>
</g>
<!-- Node29&#45;&gt;Node3 -->
<g id="edge90" class="edge"><title>Node29&#45;&gt;Node3</title>
<path fill="none" stroke="midnightblue" d="M1504.5,-557.228C1527,-536.566 1572,-488.881 1572,-438 1572,-438 1572,-438 1572,-366 1572,-297.532 1503.35,-310.421 1438,-290 1354.66,-263.96 1102.93,-250.549 982.106,-245.466"/>
<polygon fill="midnightblue" stroke="midnightblue" points="982.018,-241.96 971.882,-245.043 981.728,-248.954 982.018,-241.96"/>
</g>
<!-- Node30 -->
<g id="node76" class="node"><title>Node30</title>
<a xlink:href="MojHasher_8h.htm" target="_top" xlink:title="core/MojHasher.h">
<polygon fill="white" stroke="black" points="1367.5,-492.5 1367.5,-513.5 1468.5,-513.5 1468.5,-492.5 1367.5,-492.5"/>
<text text-anchor="middle" x="1418" y="-500.5" font-family="Helvetica,sans-Serif" font-size="10.00">core/MojHasher.h</text>
</a>
</g>
<!-- Node29&#45;&gt;Node30 -->
<g id="edge92" class="edge"><title>Node29&#45;&gt;Node30</title>
<path fill="none" stroke="midnightblue" d="M1479.78,-557.267C1468.36,-547.233 1451.1,-532.078 1437.73,-520.331"/>
<polygon fill="midnightblue" stroke="midnightblue" points="1439.82,-517.504 1429.99,-513.534 1435.2,-522.763 1439.82,-517.504"/>
</g>
<!-- Node30&#45;&gt;Node3 -->
<g id="edge94" class="edge"><title>Node30&#45;&gt;Node3</title>
<path fill="none" stroke="midnightblue" d="M1419.33,-492.019C1422.96,-456.468 1429.01,-343.716 1368,-290 1339.63,-265.018 1100.38,-251.099 981.918,-245.68"/>
<polygon fill="midnightblue" stroke="midnightblue" points="982.023,-242.181 971.876,-245.228 981.709,-249.174 982.023,-242.181"/>
</g>
<!-- Node30&#45;&gt;Node26 -->
<g id="edge96" class="edge"><title>Node30&#45;&gt;Node26</title>
<path fill="none" stroke="midnightblue" d="M1391.61,-492.412C1364.43,-481.505 1321.89,-464.436 1291.71,-452.327"/>
<polygon fill="midnightblue" stroke="midnightblue" points="1292.96,-449.059 1282.38,-448.584 1290.35,-455.556 1292.96,-449.059"/>
</g>
<!-- Node31&#45;&gt;Node3 -->
<g id="edge100" class="edge"><title>Node31&#45;&gt;Node3</title>
<path fill="none" stroke="midnightblue" d="M1101.25,-557.351C1161,-537.453 1282.42,-493.27 1305,-456 1313.29,-442.315 1308.58,-435.594 1305,-420 1290.64,-357.422 1293.83,-327.896 1242,-290 1201.73,-260.556 1064.93,-249.415 981.878,-245.306"/>
<polygon fill="midnightblue" stroke="midnightblue" points="981.932,-241.804 971.778,-244.827 981.601,-248.797 981.932,-241.804"/>
</g>
<!-- Node31&#45;&gt;Node22 -->
<g id="edge102" class="edge"><title>Node31&#45;&gt;Node22</title>
<path fill="none" stroke="midnightblue" d="M1103.02,-557.473C1124.25,-549.186 1149.9,-535.394 1164,-514 1204.75,-452.184 1188.68,-421.265 1178,-348 1176.69,-338.996 1174.03,-329.318 1171.38,-321.099"/>
<polygon fill="midnightblue" stroke="midnightblue" points="1174.69,-319.95 1168.13,-311.628 1168.07,-322.222 1174.69,-319.95"/>
</g>
<!-- Node32 -->
<g id="node84" class="node"><title>Node32</title>
<a xlink:href="MojRbTreeBase_8h.htm" target="_top" xlink:title="core/internal/MojRbTreeBase.h">
<polygon fill="white" stroke="black" points="920,-492.5 920,-513.5 1084,-513.5 1084,-492.5 920,-492.5"/>
<text text-anchor="middle" x="1002" y="-500.5" font-family="Helvetica,sans-Serif" font-size="10.00">core/internal/MojRbTreeBase.h</text>
</a>
</g>
<!-- Node31&#45;&gt;Node32 -->
<g id="edge104" class="edge"><title>Node31&#45;&gt;Node32</title>
<path fill="none" stroke="midnightblue" d="M1057.1,-557.267C1047.01,-547.328 1031.82,-532.363 1019.94,-520.664"/>
<polygon fill="midnightblue" stroke="midnightblue" points="1022.28,-518.057 1012.7,-513.534 1017.36,-523.044 1022.28,-518.057"/>
</g>
<!-- Node32&#45;&gt;Node3 -->
<g id="edge106" class="edge"><title>Node32&#45;&gt;Node3</title>
<path fill="none" stroke="midnightblue" d="M980.195,-492.401C966.262,-484.414 949.149,-472.085 940,-456 904.422,-393.453 908.898,-303.87 913.218,-263.779"/>
<polygon fill="midnightblue" stroke="midnightblue" points="916.719,-263.98 914.426,-253.636 909.768,-263.152 916.719,-263.98"/>
</g>
<!-- Node32&#45;&gt;Node16 -->
<g id="edge108" class="edge"><title>Node32&#45;&gt;Node16</title>
<path fill="none" stroke="midnightblue" d="M957.996,-492.484C910.493,-481.133 834.801,-463.044 783.797,-450.856"/>
<polygon fill="midnightblue" stroke="midnightblue" points="784.48,-447.421 773.941,-448.501 782.853,-454.229 784.48,-447.421"/>
</g>
<!-- Node33&#45;&gt;Node3 -->
<g id="edge112" class="edge"><title>Node33&#45;&gt;Node3</title>
<path fill="none" stroke="midnightblue" d="M1121.14,-630.63C1234.61,-624.607 1516.35,-607.642 1553,-586 1591.53,-563.246 1610,-547.75 1610,-503 1610,-503 1610,-503 1610,-366 1610,-350.249 1612.45,-329.377 1500,-290 1406.06,-257.106 1114.46,-247.038 982.305,-244.119"/>
<polygon fill="midnightblue" stroke="midnightblue" points="981.998,-240.612 971.926,-243.898 981.849,-247.611 981.998,-240.612"/>
</g>
<!-- Node33&#45;&gt;Node16 -->
<g id="edge114" class="edge"><title>Node33&#45;&gt;Node16</title>
<path fill="none" stroke="midnightblue" d="M1059.87,-622.384C1020.91,-593.238 912.284,-512.772 873,-492 841.522,-475.355 803.756,-461.324 774.942,-451.739"/>
<polygon fill="midnightblue" stroke="midnightblue" points="775.741,-448.318 765.148,-448.537 773.566,-454.971 775.741,-448.318"/>
</g>
<!-- Node33&#45;&gt;Node21 -->
<g id="edge120" class="edge"><title>Node33&#45;&gt;Node21</title>
<path fill="none" stroke="midnightblue" d="M1027.11,-622.412C987.309,-613.267 928.739,-599.441 878,-586 872.583,-584.565 866.916,-583.004 861.305,-581.421"/>
<polygon fill="midnightblue" stroke="midnightblue" points="861.906,-577.952 851.33,-578.569 859.983,-584.683 861.906,-577.952"/>
</g>
<!-- Node33&#45;&gt;Node22 -->
<g id="edge116" class="edge"><title>Node33&#45;&gt;Node22</title>
<path fill="none" stroke="midnightblue" d="M1091.78,-622.299C1141.79,-591.779 1281.58,-503.457 1305,-456 1334.8,-395.628 1247.82,-341.537 1197.34,-316.199"/>
<polygon fill="midnightblue" stroke="midnightblue" points="1198.59,-312.916 1188.07,-311.664 1195.51,-319.204 1198.59,-312.916"/>
</g>
<!-- Node33&#45;&gt;Node30 -->
<g id="edge118" class="edge"><title>Node33&#45;&gt;Node30</title>
<path fill="none" stroke="midnightblue" d="M1121.26,-622.449C1150.3,-614.802 1187.64,-602.833 1218,-586 1239.8,-573.914 1239.05,-561.817 1261,-550 1290.93,-533.881 1327.13,-522.57 1357.22,-515.09"/>
<polygon fill="midnightblue" stroke="midnightblue" points="1358.27,-518.438 1367.17,-512.699 1356.63,-511.632 1358.27,-518.438"/>
</g>
<!-- Node34&#45;&gt;Node3 -->
<g id="edge126" class="edge"><title>Node34&#45;&gt;Node3</title>
<path fill="none" stroke="midnightblue" d="M667.89,-565.811C584.526,-560.749 398.924,-546.125 345,-514 308.727,-492.39 288,-480.222 288,-438 288,-438 288,-438 288,-366 288,-309.198 688.782,-264.653 850.003,-249.032"/>
<polygon fill="midnightblue" stroke="midnightblue" points="850.65,-252.486 860.269,-248.045 849.98,-245.519 850.65,-252.486"/>
</g>
<!-- Node34&#45;&gt;Node22 -->
<g id="edge128" class="edge"><title>Node34&#45;&gt;Node22</title>
<path fill="none" stroke="midnightblue" d="M734.599,-557.462C742.327,-554.643 750.909,-551.864 759,-550 831.746,-533.238 1043.12,-569.543 1093,-514 1099.53,-506.725 1098.84,-499.845 1093,-492 1059.76,-447.327 1006.24,-500.673 973,-456 944.347,-417.49 943.39,-385.779 973,-348 989.407,-327.067 1056.56,-314.207 1106.63,-307.346"/>
<polygon fill="midnightblue" stroke="midnightblue" points="1107.26,-310.793 1116.72,-306.013 1106.35,-303.854 1107.26,-310.793"/>
</g>
<!-- Node34&#45;&gt;Node32 -->
<g id="edge130" class="edge"><title>Node34&#45;&gt;Node32</title>
<path fill="none" stroke="midnightblue" d="M736.002,-557.418C743.386,-554.762 751.439,-552.079 759,-550 812.863,-535.191 874.686,-523.302 922.494,-515.187"/>
<polygon fill="midnightblue" stroke="midnightblue" points="923.192,-518.619 932.475,-513.513 922.034,-511.715 923.192,-518.619"/>
</g>
<!-- Node35 -->
<g id="node101" class="node"><title>Node35</title>
<a xlink:href="MojSetInternal_8h.htm" target="_top" xlink:title="core/internal/MojSetInternal.h">
<polygon fill="white" stroke="black" points="354,-492.5 354,-513.5 510,-513.5 510,-492.5 354,-492.5"/>
<text text-anchor="middle" x="432" y="-500.5" font-family="Helvetica,sans-Serif" font-size="10.00">core/internal/MojSetInternal.h</text>
</a>
</g>
<!-- Node34&#45;&gt;Node35 -->
<g id="edge132" class="edge"><title>Node34&#45;&gt;Node35</title>
<path fill="none" stroke="midnightblue" d="M667.829,-558.339C619.832,-547.076 540.301,-528.414 487.036,-515.914"/>
<polygon fill="midnightblue" stroke="midnightblue" points="487.615,-512.455 477.08,-513.578 486.016,-519.27 487.615,-512.455"/>
</g>
<!-- Node36&#45;&gt;Node3 -->
<g id="edge138" class="edge"><title>Node36&#45;&gt;Node3</title>
<path fill="none" stroke="midnightblue" d="M1771.4,-622.333C1790.86,-615.122 1813.09,-603.621 1827,-586 1850.45,-556.296 1846,-540.843 1846,-503 1846,-503 1846,-503 1846,-366 1846,-277.521 1748.2,-309.939 1662,-290 1533.49,-260.275 1138.67,-248.121 981.518,-244.377"/>
<polygon fill="midnightblue" stroke="midnightblue" points="981.595,-240.878 971.516,-244.142 981.431,-247.876 981.595,-240.878"/>
</g>
<!-- Node36&#45;&gt;Node22 -->
<g id="edge140" class="edge"><title>Node36&#45;&gt;Node22</title>
<path fill="none" stroke="midnightblue" d="M1716.19,-622.326C1647.78,-576.219 1376.54,-394.388 1285,-348 1259.38,-335.017 1229.28,-323.313 1205.51,-314.832"/>
<polygon fill="midnightblue" stroke="midnightblue" points="1206.67,-311.529 1196.08,-311.515 1204.35,-318.133 1206.67,-311.529"/>
</g>
<!-- Node37 -->
<g id="node108" class="node"><title>Node37</title>
<a xlink:href="MojHashBase_8h.htm" target="_top" xlink:title="core/internal/MojHashBase.h">
<polygon fill="white" stroke="black" points="1269.5,-557.5 1269.5,-578.5 1422.5,-578.5 1422.5,-557.5 1269.5,-557.5"/>
<text text-anchor="middle" x="1346" y="-565.5" font-family="Helvetica,sans-Serif" font-size="10.00">core/internal/MojHashBase.h</text>
</a>
</g>
<!-- Node36&#45;&gt;Node37 -->
<g id="edge142" class="edge"><title>Node36&#45;&gt;Node37</title>
<path fill="none" stroke="midnightblue" d="M1675.82,-625.149C1615.24,-616.469 1516.05,-601.634 1431,-586 1422.07,-584.358 1412.63,-582.492 1403.43,-580.599"/>
<polygon fill="midnightblue" stroke="midnightblue" points="1404.07,-577.157 1393.56,-578.544 1402.64,-584.01 1404.07,-577.157"/>
</g>
<!-- Node38 -->
<g id="node113" class="node"><title>Node38</title>
<a xlink:href="MojHashMapInternal_8h.htm" target="_top" xlink:title="core/internal/MojHashMap\lInternal.h">
<polygon fill="white" stroke="black" points="1676,-551 1676,-585 1818,-585 1818,-551 1676,-551"/>
<text text-anchor="start" x="1684" y="-572" font-family="Helvetica,sans-Serif" font-size="10.00">core/internal/MojHashMap</text>
<text text-anchor="middle" x="1747" y="-559" font-family="Helvetica,sans-Serif" font-size="10.00">Internal.h</text>
</a>
</g>
<!-- Node36&#45;&gt;Node38 -->
<g id="edge150" class="edge"><title>Node36&#45;&gt;Node38</title>
<path fill="none" stroke="midnightblue" d="M1734.48,-622.267C1736.19,-614.852 1738.54,-604.64 1740.75,-595.074"/>
<polygon fill="midnightblue" stroke="midnightblue" points="1744.21,-595.641 1743.05,-585.11 1737.39,-594.067 1744.21,-595.641"/>
</g>
<!-- Node37&#45;&gt;Node3 -->
<g id="edge144" class="edge"><title>Node37&#45;&gt;Node3</title>
<path fill="none" stroke="midnightblue" d="M1400.97,-557.484C1427.46,-549.712 1457.62,-536.433 1477,-514 1499.76,-487.65 1496,-472.817 1496,-438 1496,-438 1496,-438 1496,-366 1496,-308.392 1444.86,-310.433 1391,-290 1317.84,-262.246 1094.12,-249.863 981.791,-245.276"/>
<polygon fill="midnightblue" stroke="midnightblue" points="981.737,-241.771 971.605,-244.869 981.457,-248.765 981.737,-241.771"/>
</g>
<!-- Node37&#45;&gt;Node16 -->
<g id="edge146" class="edge"><title>Node37&#45;&gt;Node16</title>
<path fill="none" stroke="midnightblue" d="M1316,-557.448C1269,-541.27 1174.91,-510.295 1093,-492 987.949,-468.536 863.462,-452.524 790.942,-444.347"/>
<polygon fill="midnightblue" stroke="midnightblue" points="790.954,-440.827 780.628,-443.197 790.178,-447.784 790.954,-440.827"/>
</g>
<!-- Node37&#45;&gt;Node30 -->
<g id="edge148" class="edge"><title>Node37&#45;&gt;Node30</title>
<path fill="none" stroke="midnightblue" d="M1357.89,-557.267C1369,-547.233 1385.79,-532.078 1398.8,-520.331"/>
<polygon fill="midnightblue" stroke="midnightblue" points="1401.25,-522.833 1406.33,-513.534 1396.56,-517.637 1401.25,-522.833"/>
</g>
</g>
</svg>
