<?xml version="1.0" encoding="UTF-8" standalone="no"?>
<!DOCTYPE svg PUBLIC "-//W3C//DTD SVG 1.1//EN"
 "http://www.w3.org/Graphics/SVG/1.1/DTD/svg11.dtd">
<!-- Generated by graphviz version 2.26.3 (20100126.1600)
 -->
<!-- Title: MojDbQuery.h Pages: 1 -->
<svg width="1980pt" height="826pt"
 viewBox="0.00 0.00 1980.26 826.00" xmlns="http://www.w3.org/2000/svg" xmlns:xlink="http://www.w3.org/1999/xlink">
<g id="graph1" class="graph" transform="scale(1 1) rotate(0) translate(4 822)">
<title>MojDbQuery.h</title>
<polygon fill="white" stroke="white" points="-4,5 -4,-822 1977.26,-822 1977.26,5 -4,5"/>
<!-- Node1 -->
<g id="node1" class="node"><title>Node1</title>
<polygon fill="#bfbfbf" stroke="black" points="1189.5,-796.5 1189.5,-817.5 1272.5,-817.5 1272.5,-796.5 1189.5,-796.5"/>
<text text-anchor="middle" x="1231" y="-804.5" font-family="Helvetica,sans-Serif" font-size="10.00">MojDbQuery.h</text>
</g>
<!-- Node2 -->
<g id="node3" class="node"><title>Node2</title>
<a xlink:href="MojDbDefs_8h.htm" target="_top" xlink:title="db/MojDbDefs.h">
<polygon fill="white" stroke="black" points="1325.5,-680.5 1325.5,-701.5 1416.5,-701.5 1416.5,-680.5 1325.5,-680.5"/>
<text text-anchor="middle" x="1371" y="-688.5" font-family="Helvetica,sans-Serif" font-size="10.00">db/MojDbDefs.h</text>
</a>
</g>
<!-- Node1&#45;&gt;Node2 -->
<g id="edge2" class="edge"><title>Node1&#45;&gt;Node2</title>
<path fill="none" stroke="midnightblue" d="M1253.62,-796.488C1270.63,-787.983 1294.01,-774.985 1312,-760 1329.65,-745.297 1346.33,-724.97 1357.42,-710.189"/>
<polygon fill="midnightblue" stroke="midnightblue" points="1360.48,-711.938 1363.56,-701.802 1354.83,-707.801 1360.48,-711.938"/>
</g>
<!-- Node13 -->
<g id="node25" class="node"><title>Node13</title>
<a xlink:href="MojDbKey_8h.htm" target="_top" xlink:title="db/MojDbKey.h">
<polygon fill="white" stroke="black" points="1077.5,-738.5 1077.5,-759.5 1164.5,-759.5 1164.5,-738.5 1077.5,-738.5"/>
<text text-anchor="middle" x="1121" y="-746.5" font-family="Helvetica,sans-Serif" font-size="10.00">db/MojDbKey.h</text>
</a>
</g>
<!-- Node1&#45;&gt;Node13 -->
<g id="edge24" class="edge"><title>Node1&#45;&gt;Node13</title>
<path fill="none" stroke="midnightblue" d="M1211.08,-796.497C1194.05,-787.519 1169.33,-774.484 1150.09,-764.339"/>
<polygon fill="midnightblue" stroke="midnightblue" points="1151.62,-761.189 1141.14,-759.621 1148.36,-767.381 1151.62,-761.189"/>
</g>
<!-- Node27 -->
<g id="node67" class="node"><title>Node27</title>
<a xlink:href="MojObject_8h.htm" target="_top" xlink:title="core/MojObject.h">
<polygon fill="white" stroke="black" points="1136,-680.5 1136,-701.5 1232,-701.5 1232,-680.5 1136,-680.5"/>
<text text-anchor="middle" x="1184" y="-688.5" font-family="Helvetica,sans-Serif" font-size="10.00">core/MojObject.h</text>
</a>
</g>
<!-- Node1&#45;&gt;Node27 -->
<g id="edge148" class="edge"><title>Node1&#45;&gt;Node27</title>
<path fill="none" stroke="midnightblue" d="M1226.66,-796.295C1218.83,-776.959 1202.2,-735.923 1192.18,-711.177"/>
<polygon fill="midnightblue" stroke="midnightblue" points="1195.33,-709.633 1188.33,-701.679 1188.84,-712.262 1195.33,-709.633"/>
</g>
<!-- Node32 -->
<g id="node85" class="node"><title>Node32</title>
<a xlink:href="MojString_8h.htm" target="_top" xlink:title="core/MojString.h">
<polygon fill="white" stroke="black" points="1232,-622.5 1232,-643.5 1326,-643.5 1326,-622.5 1232,-622.5"/>
<text text-anchor="middle" x="1279" y="-630.5" font-family="Helvetica,sans-Serif" font-size="10.00">core/MojString.h</text>
</a>
</g>
<!-- Node1&#45;&gt;Node32 -->
<g id="edge152" class="edge"><title>Node1&#45;&gt;Node32</title>
<path fill="none" stroke="midnightblue" d="M1233.93,-796.377C1241.71,-768.172 1263,-691.012 1273.28,-653.72"/>
<polygon fill="midnightblue" stroke="midnightblue" points="1276.7,-654.498 1275.99,-643.928 1269.95,-652.637 1276.7,-654.498"/>
</g>
<!-- Node33 -->
<g id="node93" class="node"><title>Node33</title>
<a xlink:href="MojSet_8h.htm" target="_top" xlink:title="core/MojSet.h">
<polygon fill="white" stroke="black" points="143,-557.5 143,-578.5 225,-578.5 225,-557.5 143,-557.5"/>
<text text-anchor="middle" x="184" y="-565.5" font-family="Helvetica,sans-Serif" font-size="10.00">core/MojSet.h</text>
</a>
</g>
<!-- Node1&#45;&gt;Node33 -->
<g id="edge150" class="edge"><title>Node1&#45;&gt;Node33</title>
<path fill="none" stroke="midnightblue" d="M1189.37,-801.338C1066.02,-784.046 692.228,-727.941 391,-644 328.824,-626.674 258.761,-599.205 218.168,-582.468"/>
<polygon fill="midnightblue" stroke="midnightblue" points="219.326,-579.16 208.748,-578.559 216.643,-585.625 219.326,-579.16"/>
</g>
<!-- Node35 -->
<g id="node101" class="node"><title>Node35</title>
<a xlink:href="MojHashMap_8h.htm" target="_top" xlink:title="core/MojHashMap.h">
<polygon fill="white" stroke="black" points="1658,-622.5 1658,-643.5 1770,-643.5 1770,-622.5 1658,-622.5"/>
<text text-anchor="middle" x="1714" y="-630.5" font-family="Helvetica,sans-Serif" font-size="10.00">core/MojHashMap.h</text>
</a>
</g>
<!-- Node1&#45;&gt;Node35 -->
<g id="edge132" class="edge"><title>Node1&#45;&gt;Node35</title>
<path fill="none" stroke="midnightblue" d="M1237.43,-796.461C1255.32,-767.304 1305.11,-687.233 1317,-680 1371.04,-647.112 1549.43,-637.23 1647.67,-634.266"/>
<polygon fill="midnightblue" stroke="midnightblue" points="1647.89,-637.761 1657.79,-633.977 1647.69,-630.764 1647.89,-637.761"/>
</g>
<!-- Node3 -->
<g id="node5" class="node"><title>Node3</title>
<a xlink:href="MojCoreDefs_8h.htm" target="_top" xlink:title="core/MojCoreDefs.h">
<polygon fill="white" stroke="black" points="984.5,-232.5 984.5,-253.5 1095.5,-253.5 1095.5,-232.5 984.5,-232.5"/>
<text text-anchor="middle" x="1040" y="-240.5" font-family="Helvetica,sans-Serif" font-size="10.00">core/MojCoreDefs.h</text>
</a>
</g>
<!-- Node2&#45;&gt;Node3 -->
<g id="edge4" class="edge"><title>Node2&#45;&gt;Node3</title>
<path fill="none" stroke="midnightblue" d="M1416.76,-689.968C1493.06,-687.312 1650.58,-677.83 1779,-644 1859.42,-622.813 1950,-651.168 1950,-568 1950,-568 1950,-568 1950,-366 1950,-322.073 2064.94,-352.533 1766,-290 1640.92,-263.835 1259.98,-249.669 1105.81,-244.88"/>
<polygon fill="midnightblue" stroke="midnightblue" points="1105.65,-241.374 1095.55,-244.565 1105.44,-248.37 1105.65,-241.374"/>
</g>
<!-- Node4 -->
<g id="node7" class="node"><title>Node4</title>
<a xlink:href="MojConfig_8h.htm" target="_top" xlink:title="core/internal/MojConfig.h">
<polygon fill="white" stroke="black" points="727.5,-174.5 727.5,-195.5 862.5,-195.5 862.5,-174.5 727.5,-174.5"/>
<text text-anchor="middle" x="795" y="-182.5" font-family="Helvetica,sans-Serif" font-size="10.00">core/internal/MojConfig.h</text>
</a>
</g>
<!-- Node3&#45;&gt;Node4 -->
<g id="edge6" class="edge"><title>Node3&#45;&gt;Node4</title>
<path fill="none" stroke="midnightblue" d="M995.632,-232.497C954.567,-222.775 893.396,-208.294 849.401,-197.879"/>
<polygon fill="midnightblue" stroke="midnightblue" points="849.988,-194.421 839.451,-195.523 848.376,-201.233 849.988,-194.421"/>
</g>
<!-- Node5 -->
<g id="node9" class="node"><title>Node5</title>
<a xlink:href="MojNew_8h.htm" target="_top" xlink:title="core/internal/MojNew.h">
<polygon fill="white" stroke="black" points="977.5,-174.5 977.5,-195.5 1102.5,-195.5 1102.5,-174.5 977.5,-174.5"/>
<text text-anchor="middle" x="1040" y="-182.5" font-family="Helvetica,sans-Serif" font-size="10.00">core/internal/MojNew.h</text>
</a>
</g>
<!-- Node3&#45;&gt;Node5 -->
<g id="edge8" class="edge"><title>Node3&#45;&gt;Node5</title>
<path fill="none" stroke="midnightblue" d="M1040,-232.362C1040,-224.922 1040,-214.743 1040,-205.728"/>
<polygon fill="midnightblue" stroke="midnightblue" points="1043.5,-205.571 1040,-195.571 1036.5,-205.571 1043.5,-205.571"/>
</g>
<!-- Node7 -->
<g id="node13" class="node"><title>Node7</title>
<a xlink:href="MojErr_8h.htm" target="_top" xlink:title="core/MojErr.h">
<polygon fill="white" stroke="black" points="1120,-174.5 1120,-195.5 1200,-195.5 1200,-174.5 1120,-174.5"/>
<text text-anchor="middle" x="1160" y="-182.5" font-family="Helvetica,sans-Serif" font-size="10.00">core/MojErr.h</text>
</a>
</g>
<!-- Node3&#45;&gt;Node7 -->
<g id="edge12" class="edge"><title>Node3&#45;&gt;Node7</title>
<path fill="none" stroke="midnightblue" d="M1061.73,-232.497C1080.47,-223.438 1107.77,-210.246 1128.84,-200.063"/>
<polygon fill="midnightblue" stroke="midnightblue" points="1130.54,-203.124 1138.03,-195.621 1127.5,-196.822 1130.54,-203.124"/>
</g>
<!-- Node11 -->
<g id="node21" class="node"><title>Node11</title>
<a xlink:href="MojOs_8h.htm" target="_top" xlink:title="core/MojOs.h">
<polygon fill="white" stroke="black" points="880,-174.5 880,-195.5 960,-195.5 960,-174.5 880,-174.5"/>
<text text-anchor="middle" x="920" y="-182.5" font-family="Helvetica,sans-Serif" font-size="10.00">core/MojOs.h</text>
</a>
</g>
<!-- Node3&#45;&gt;Node11 -->
<g id="edge20" class="edge"><title>Node3&#45;&gt;Node11</title>
<path fill="none" stroke="midnightblue" d="M1018.27,-232.497C999.526,-223.438 972.233,-210.246 951.164,-200.063"/>
<polygon fill="midnightblue" stroke="midnightblue" points="952.502,-196.822 941.975,-195.621 949.455,-203.124 952.502,-196.822"/>
</g>
<!-- Node6 -->
<g id="node11" class="node"><title>Node6</title>
<polygon fill="white" stroke="#bfbfbf" points="1022,-116.5 1022,-137.5 1058,-137.5 1058,-116.5 1022,-116.5"/>
<text text-anchor="middle" x="1040" y="-124.5" font-family="Helvetica,sans-Serif" font-size="10.00">new</text>
</g>
<!-- Node5&#45;&gt;Node6 -->
<g id="edge10" class="edge"><title>Node5&#45;&gt;Node6</title>
<path fill="none" stroke="midnightblue" d="M1040,-174.362C1040,-166.922 1040,-156.743 1040,-147.728"/>
<polygon fill="midnightblue" stroke="midnightblue" points="1043.5,-147.571 1040,-137.571 1036.5,-147.571 1043.5,-147.571"/>
</g>
<!-- Node8 -->
<g id="node15" class="node"><title>Node8</title>
<a xlink:href="MojLog_8h.htm" target="_top" xlink:title="core/MojLog.h">
<polygon fill="white" stroke="black" points="1097,-116.5 1097,-137.5 1181,-137.5 1181,-116.5 1097,-116.5"/>
<text text-anchor="middle" x="1139" y="-124.5" font-family="Helvetica,sans-Serif" font-size="10.00">core/MojLog.h</text>
</a>
</g>
<!-- Node7&#45;&gt;Node8 -->
<g id="edge14" class="edge"><title>Node7&#45;&gt;Node8</title>
<path fill="none" stroke="midnightblue" d="M1156.15,-174.362C1153.4,-166.758 1149.61,-156.294 1146.29,-147.135"/>
<polygon fill="midnightblue" stroke="midnightblue" points="1149.52,-145.782 1142.83,-137.571 1142.94,-148.165 1149.52,-145.782"/>
</g>
<!-- Node9 -->
<g id="node17" class="node"><title>Node9</title>
<a xlink:href="MojListEntry_8h.htm" target="_top" xlink:title="core/MojListEntry.h">
<polygon fill="white" stroke="black" points="705.5,-58.5 705.5,-79.5 812.5,-79.5 812.5,-58.5 705.5,-58.5"/>
<text text-anchor="middle" x="759" y="-66.5" font-family="Helvetica,sans-Serif" font-size="10.00">core/MojListEntry.h</text>
</a>
</g>
<!-- Node8&#45;&gt;Node9 -->
<g id="edge16" class="edge"><title>Node8&#45;&gt;Node9</title>
<path fill="none" stroke="midnightblue" d="M1096.74,-120.542C1086.97,-119.05 1076.63,-117.47 1067,-116 982.538,-103.104 885.046,-88.2285 822.759,-78.7262"/>
<polygon fill="midnightblue" stroke="midnightblue" points="823.106,-75.2386 812.693,-77.1904 822.05,-82.1586 823.106,-75.2386"/>
</g>
<!-- Node10 -->
<g id="node19" class="node"><title>Node10</title>
<a xlink:href="MojNoCopy_8h.htm" target="_top" xlink:title="core/MojNoCopy.h">
<polygon fill="white" stroke="black" points="476,-0.5 476,-21.5 580,-21.5 580,-0.5 476,-0.5"/>
<text text-anchor="middle" x="528" y="-8.5" font-family="Helvetica,sans-Serif" font-size="10.00">core/MojNoCopy.h</text>
</a>
</g>
<!-- Node9&#45;&gt;Node10 -->
<g id="edge18" class="edge"><title>Node9&#45;&gt;Node10</title>
<path fill="none" stroke="midnightblue" d="M717.168,-58.4966C678.612,-48.8159 621.259,-34.4156 579.818,-24.0105"/>
<polygon fill="midnightblue" stroke="midnightblue" points="580.462,-20.5637 569.911,-21.5231 578.757,-27.353 580.462,-20.5637"/>
</g>
<!-- Node12 -->
<g id="node23" class="node"><title>Node12</title>
<a xlink:href="MojOsInternal_8h.htm" target="_top" xlink:title="core/internal/MojOsInternal.h">
<polygon fill="white" stroke="black" points="843,-116.5 843,-137.5 997,-137.5 997,-116.5 843,-116.5"/>
<text text-anchor="middle" x="920" y="-124.5" font-family="Helvetica,sans-Serif" font-size="10.00">core/internal/MojOsInternal.h</text>
</a>
</g>
<!-- Node11&#45;&gt;Node12 -->
<g id="edge22" class="edge"><title>Node11&#45;&gt;Node12</title>
<path fill="none" stroke="midnightblue" d="M920,-174.362C920,-166.922 920,-156.743 920,-147.728"/>
<polygon fill="midnightblue" stroke="midnightblue" points="923.5,-147.571 920,-137.571 916.5,-147.571 923.5,-147.571"/>
</g>
<!-- Node13&#45;&gt;Node2 -->
<g id="edge26" class="edge"><title>Node13&#45;&gt;Node2</title>
<path fill="none" stroke="midnightblue" d="M1164.55,-738.897C1206.43,-729.181 1269.91,-714.453 1315.42,-703.895"/>
<polygon fill="midnightblue" stroke="midnightblue" points="1316.47,-707.244 1325.42,-701.575 1314.89,-700.425 1316.47,-707.244"/>
</g>
<!-- Node14 -->
<g id="node28" class="node"><title>Node14</title>
<a xlink:href="MojBuffer_8h.htm" target="_top" xlink:title="core/MojBuffer.h">
<polygon fill="white" stroke="black" points="607,-622.5 607,-643.5 701,-643.5 701,-622.5 607,-622.5"/>
<text text-anchor="middle" x="654" y="-630.5" font-family="Helvetica,sans-Serif" font-size="10.00">core/MojBuffer.h</text>
</a>
</g>
<!-- Node13&#45;&gt;Node14 -->
<g id="edge28" class="edge"><title>Node13&#45;&gt;Node14</title>
<path fill="none" stroke="midnightblue" d="M1078.32,-738.398C992.506,-717.083 799.34,-669.102 706.187,-645.963"/>
<polygon fill="midnightblue" stroke="midnightblue" points="706.962,-642.549 696.413,-643.535 705.274,-649.343 706.962,-642.549"/>
</g>
<!-- Node20 -->
<g id="node45" class="node"><title>Node20</title>
<a xlink:href="MojVector_8h.htm" target="_top" xlink:title="core/MojVector.h">
<polygon fill="white" stroke="black" points="1041.5,-557.5 1041.5,-578.5 1138.5,-578.5 1138.5,-557.5 1041.5,-557.5"/>
<text text-anchor="middle" x="1090" y="-565.5" font-family="Helvetica,sans-Serif" font-size="10.00">core/MojVector.h</text>
</a>
</g>
<!-- Node13&#45;&gt;Node20 -->
<g id="edge130" class="edge"><title>Node13&#45;&gt;Node20</title>
<path fill="none" stroke="midnightblue" d="M1119.2,-738.486C1114.21,-709.37 1100.15,-627.292 1093.53,-588.63"/>
<polygon fill="midnightblue" stroke="midnightblue" points="1096.94,-587.808 1091.81,-578.543 1090.04,-588.99 1096.94,-587.808"/>
</g>
<!-- Node13&#45;&gt;Node27 -->
<g id="edge80" class="edge"><title>Node13&#45;&gt;Node27</title>
<path fill="none" stroke="midnightblue" d="M1132.56,-738.362C1141.61,-730.023 1154.41,-718.242 1164.97,-708.516"/>
<polygon fill="midnightblue" stroke="midnightblue" points="1167.53,-710.919 1172.52,-701.571 1162.79,-705.769 1167.53,-710.919"/>
</g>
<!-- Node13&#45;&gt;Node33 -->
<g id="edge120" class="edge"><title>Node13&#45;&gt;Node33</title>
<path fill="none" stroke="midnightblue" d="M1077.29,-741.998C1022.15,-733.086 924.436,-717.039 841,-702 572.844,-653.666 502.781,-654.289 239,-586 234.021,-584.711 228.835,-583.218 223.722,-581.654"/>
<polygon fill="midnightblue" stroke="midnightblue" points="224.647,-578.275 214.057,-578.593 222.534,-584.949 224.647,-578.275"/>
</g>
<!-- Node14&#45;&gt;Node3 -->
<g id="edge30" class="edge"><title>Node14&#45;&gt;Node3</title>
<path fill="none" stroke="midnightblue" d="M606.984,-631.28C525.735,-627.529 363.213,-616.366 316,-586 250.461,-543.848 222,-515.924 222,-438 222,-438 222,-438 222,-366 222,-290.078 780.156,-255.657 974.35,-245.979"/>
<polygon fill="midnightblue" stroke="midnightblue" points="974.603,-249.471 984.419,-245.483 974.259,-242.479 974.603,-249.471"/>
</g>
<!-- Node15 -->
<g id="node31" class="node"><title>Node15</title>
<a xlink:href="MojAutoPtr_8h.htm" target="_top" xlink:title="core/MojAutoPtr.h">
<polygon fill="white" stroke="black" points="641.5,-427.5 641.5,-448.5 742.5,-448.5 742.5,-427.5 641.5,-427.5"/>
<text text-anchor="middle" x="692" y="-435.5" font-family="Helvetica,sans-Serif" font-size="10.00">core/MojAutoPtr.h</text>
</a>
</g>
<!-- Node14&#45;&gt;Node15 -->
<g id="edge32" class="edge"><title>Node14&#45;&gt;Node15</title>
<path fill="none" stroke="midnightblue" d="M655.499,-622.328C658.886,-598.717 667.644,-540.317 678,-492 680.385,-480.873 683.53,-468.584 686.235,-458.544"/>
<polygon fill="midnightblue" stroke="midnightblue" points="689.667,-459.264 688.94,-448.694 682.917,-457.41 689.667,-459.264"/>
</g>
<!-- Node18 -->
<g id="node40" class="node"><title>Node18</title>
<a xlink:href="MojList_8h.htm" target="_top" xlink:title="core/MojList.h">
<polygon fill="white" stroke="black" points="324.5,-557.5 324.5,-578.5 407.5,-578.5 407.5,-557.5 324.5,-557.5"/>
<text text-anchor="middle" x="366" y="-565.5" font-family="Helvetica,sans-Serif" font-size="10.00">core/MojList.h</text>
</a>
</g>
<!-- Node14&#45;&gt;Node18 -->
<g id="edge44" class="edge"><title>Node14&#45;&gt;Node18</title>
<path fill="none" stroke="midnightblue" d="M607.408,-622.484C555.51,-610.771 471.836,-591.886 417.887,-579.711"/>
<polygon fill="midnightblue" stroke="midnightblue" points="418.369,-576.231 407.843,-577.444 416.827,-583.06 418.369,-576.231"/>
</g>
<!-- Node14&#45;&gt;Node20 -->
<g id="edge50" class="edge"><title>Node14&#45;&gt;Node20</title>
<path fill="none" stroke="midnightblue" d="M701.074,-625.982C781.244,-614.03 944.063,-589.757 1031.45,-576.729"/>
<polygon fill="midnightblue" stroke="midnightblue" points="1032.09,-580.172 1041.46,-575.236 1031.06,-573.249 1032.09,-580.172"/>
</g>
<!-- Node15&#45;&gt;Node3 -->
<g id="edge34" class="edge"><title>Node15&#45;&gt;Node3</title>
<path fill="none" stroke="midnightblue" d="M675.587,-427.439C650.984,-410.306 609.597,-375.592 631,-348 672.745,-294.184 869.364,-263.173 974.04,-250.214"/>
<polygon fill="midnightblue" stroke="midnightblue" points="974.678,-253.663 984.182,-248.98 973.832,-246.714 974.678,-253.663"/>
</g>
<!-- Node15&#45;&gt;Node10 -->
<g id="edge40" class="edge"><title>Node15&#45;&gt;Node10</title>
<path fill="none" stroke="midnightblue" d="M641.298,-431.249C534.885,-415.657 298,-372.877 298,-301 298,-301 298,-301 298,-127 298,-51.7078 397.475,-25.277 465.586,-16.0044"/>
<polygon fill="midnightblue" stroke="midnightblue" points="466.329,-19.4382 475.809,-14.7077 465.449,-12.4938 466.329,-19.4382"/>
</g>
<!-- Node16 -->
<g id="node34" class="node"><title>Node16</title>
<a xlink:href="MojAtomicInt_8h.htm" target="_top" xlink:title="core/MojAtomicInt.h">
<polygon fill="white" stroke="black" points="788,-355.5 788,-376.5 898,-376.5 898,-355.5 788,-355.5"/>
<text text-anchor="middle" x="843" y="-363.5" font-family="Helvetica,sans-Serif" font-size="10.00">core/MojAtomicInt.h</text>
</a>
</g>
<!-- Node15&#45;&gt;Node16 -->
<g id="edge36" class="edge"><title>Node15&#45;&gt;Node16</title>
<path fill="none" stroke="midnightblue" d="M714.281,-427.376C739.93,-415.146 782.253,-394.965 811.321,-381.105"/>
<polygon fill="midnightblue" stroke="midnightblue" points="813.108,-384.131 820.628,-376.667 810.095,-377.812 813.108,-384.131"/>
</g>
<!-- Node17 -->
<g id="node38" class="node"><title>Node17</title>
<a xlink:href="MojAutoPtrInternal_8h.htm" target="_top" xlink:title="core/internal/MojAutoPtr\lInternal.h">
<polygon fill="white" stroke="black" points="639.5,-349 639.5,-383 770.5,-383 770.5,-349 639.5,-349"/>
<text text-anchor="start" x="647.5" y="-370" font-family="Helvetica,sans-Serif" font-size="10.00">core/internal/MojAutoPtr</text>
<text text-anchor="middle" x="705" y="-357" font-family="Helvetica,sans-Serif" font-size="10.00">Internal.h</text>
</a>
</g>
<!-- Node15&#45;&gt;Node17 -->
<g id="edge42" class="edge"><title>Node15&#45;&gt;Node17</title>
<path fill="none" stroke="midnightblue" d="M693.918,-427.376C695.546,-418.36 697.954,-405.024 700.11,-393.084"/>
<polygon fill="midnightblue" stroke="midnightblue" points="703.581,-393.557 701.914,-383.094 696.692,-392.313 703.581,-393.557"/>
</g>
<!-- Node16&#45;&gt;Node3 -->
<g id="edge38" class="edge"><title>Node16&#45;&gt;Node3</title>
<path fill="none" stroke="midnightblue" d="M850.034,-355.429C861.315,-339.227 884.951,-308.219 912,-290 934.347,-274.947 962.125,-263.989 986.088,-256.46"/>
<polygon fill="midnightblue" stroke="midnightblue" points="987.189,-259.783 995.75,-253.541 985.166,-253.082 987.189,-259.783"/>
</g>
<!-- Node18&#45;&gt;Node3 -->
<g id="edge46" class="edge"><title>Node18&#45;&gt;Node3</title>
<path fill="none" stroke="midnightblue" d="M335.844,-557.386C304.381,-544.504 261.841,-520.88 279,-492 374.898,-330.594 471.161,-347.142 650,-290 708.762,-271.225 879.233,-255.514 974.186,-247.913"/>
<polygon fill="midnightblue" stroke="midnightblue" points="974.563,-251.394 984.255,-247.115 974.01,-244.416 974.563,-251.394"/>
</g>
<!-- Node19 -->
<g id="node43" class="node"><title>Node19</title>
<a xlink:href="MojListInternal_8h.htm" target="_top" xlink:title="core/internal/MojListInternal.h">
<polygon fill="white" stroke="black" points="287.5,-492.5 287.5,-513.5 444.5,-513.5 444.5,-492.5 287.5,-492.5"/>
<text text-anchor="middle" x="366" y="-500.5" font-family="Helvetica,sans-Serif" font-size="10.00">core/internal/MojListInternal.h</text>
</a>
</g>
<!-- Node18&#45;&gt;Node19 -->
<g id="edge48" class="edge"><title>Node18&#45;&gt;Node19</title>
<path fill="none" stroke="midnightblue" d="M366,-557.267C366,-548.18 366,-534.892 366,-523.74"/>
<polygon fill="midnightblue" stroke="midnightblue" points="369.5,-523.534 366,-513.534 362.5,-523.534 369.5,-523.534"/>
</g>
<!-- Node20&#45;&gt;Node3 -->
<g id="edge52" class="edge"><title>Node20&#45;&gt;Node3</title>
<path fill="none" stroke="midnightblue" d="M1091.69,-557.454C1093.61,-541.828 1094.98,-512.201 1082,-492 1064.98,-465.518 1036.61,-483.338 1021,-456 985.174,-393.257 1014.8,-302.816 1031.07,-263.048"/>
<polygon fill="midnightblue" stroke="midnightblue" points="1034.37,-264.229 1035.05,-253.656 1027.92,-261.495 1034.37,-264.229"/>
</g>
<!-- Node21 -->
<g id="node48" class="node"><title>Node21</title>
<a xlink:href="MojComp_8h.htm" target="_top" xlink:title="core/MojComp.h">
<polygon fill="white" stroke="black" points="1241,-290.5 1241,-311.5 1335,-311.5 1335,-290.5 1241,-290.5"/>
<text text-anchor="middle" x="1288" y="-298.5" font-family="Helvetica,sans-Serif" font-size="10.00">core/MojComp.h</text>
</a>
</g>
<!-- Node20&#45;&gt;Node21 -->
<g id="edge54" class="edge"><title>Node20&#45;&gt;Node21</title>
<path fill="none" stroke="midnightblue" d="M1104.79,-557.448C1139.4,-531.922 1225.97,-463.076 1269,-384 1279.61,-364.508 1284.31,-339.336 1286.38,-321.847"/>
<polygon fill="midnightblue" stroke="midnightblue" points="1289.89,-321.899 1287.4,-311.602 1282.93,-321.206 1289.89,-321.899"/>
</g>
<!-- Node22 -->
<g id="node51" class="node"><title>Node22</title>
<a xlink:href="MojRefCount_8h.htm" target="_top" xlink:title="core/MojRefCount.h">
<polygon fill="white" stroke="black" points="946,-492.5 946,-513.5 1056,-513.5 1056,-492.5 946,-492.5"/>
<text text-anchor="middle" x="1001" y="-500.5" font-family="Helvetica,sans-Serif" font-size="10.00">core/MojRefCount.h</text>
</a>
</g>
<!-- Node20&#45;&gt;Node22 -->
<g id="edge58" class="edge"><title>Node20&#45;&gt;Node22</title>
<path fill="none" stroke="midnightblue" d="M1075.3,-557.267C1061.31,-547.044 1040.03,-531.504 1023.82,-519.67"/>
<polygon fill="midnightblue" stroke="midnightblue" points="1025.56,-516.605 1015.42,-513.534 1021.43,-522.258 1025.56,-516.605"/>
</g>
<!-- Node25 -->
<g id="node61" class="node"><title>Node25</title>
<a xlink:href="MojUtil_8h.htm" target="_top" xlink:title="core/MojUtil.h">
<polygon fill="white" stroke="black" points="1339.5,-427.5 1339.5,-448.5 1420.5,-448.5 1420.5,-427.5 1339.5,-427.5"/>
<text text-anchor="middle" x="1380" y="-435.5" font-family="Helvetica,sans-Serif" font-size="10.00">core/MojUtil.h</text>
</a>
</g>
<!-- Node20&#45;&gt;Node25 -->
<g id="edge72" class="edge"><title>Node20&#45;&gt;Node25</title>
<path fill="none" stroke="midnightblue" d="M1113.73,-557.362C1165.37,-534.212 1288.03,-479.228 1347.1,-452.75"/>
<polygon fill="midnightblue" stroke="midnightblue" points="1348.65,-455.888 1356.35,-448.603 1345.79,-449.5 1348.65,-455.888"/>
</g>
<!-- Node26 -->
<g id="node65" class="node"><title>Node26</title>
<a xlink:href="MojVectorInternal_8h.htm" target="_top" xlink:title="core/internal/MojVectorInternal.h">
<polygon fill="white" stroke="black" points="719.5,-492.5 719.5,-513.5 890.5,-513.5 890.5,-492.5 719.5,-492.5"/>
<text text-anchor="middle" x="805" y="-500.5" font-family="Helvetica,sans-Serif" font-size="10.00">core/internal/MojVectorInternal.h</text>
</a>
</g>
<!-- Node20&#45;&gt;Node26 -->
<g id="edge78" class="edge"><title>Node20&#45;&gt;Node26</title>
<path fill="none" stroke="midnightblue" d="M1043.89,-557.484C994.016,-546.109 914.479,-527.969 861.034,-515.78"/>
<polygon fill="midnightblue" stroke="midnightblue" points="861.569,-512.312 851.041,-513.501 860.012,-519.137 861.569,-512.312"/>
</g>
<!-- Node21&#45;&gt;Node3 -->
<g id="edge56" class="edge"><title>Node21&#45;&gt;Node3</title>
<path fill="none" stroke="midnightblue" d="M1243.09,-290.497C1201.43,-280.755 1139.34,-266.233 1094.79,-255.813"/>
<polygon fill="midnightblue" stroke="midnightblue" points="1095.53,-252.392 1085,-253.523 1093.94,-259.208 1095.53,-252.392"/>
</g>
<!-- Node22&#45;&gt;Node3 -->
<g id="edge60" class="edge"><title>Node22&#45;&gt;Node3</title>
<path fill="none" stroke="midnightblue" d="M983.497,-492.481C971.595,-484.228 956.815,-471.549 950,-456 930.731,-412.038 936.274,-393.996 950,-348 961.129,-310.708 994.247,-278.545 1017.05,-259.966"/>
<polygon fill="midnightblue" stroke="midnightblue" points="1019.24,-262.695 1024.92,-253.752 1014.9,-257.201 1019.24,-262.695"/>
</g>
<!-- Node22&#45;&gt;Node15 -->
<g id="edge64" class="edge"><title>Node22&#45;&gt;Node15</title>
<path fill="none" stroke="midnightblue" d="M951.01,-492.484C896.708,-481.062 809.981,-462.818 752.031,-450.628"/>
<polygon fill="midnightblue" stroke="midnightblue" points="752.424,-447.134 741.918,-448.501 750.983,-453.984 752.424,-447.134"/>
</g>
<!-- Node22&#45;&gt;Node16 -->
<g id="edge62" class="edge"><title>Node22&#45;&gt;Node16</title>
<path fill="none" stroke="midnightblue" d="M973.85,-492.342C955.2,-484.18 930.557,-471.671 912,-456 887.697,-435.476 866.588,-405.012 854.32,-385.328"/>
<polygon fill="midnightblue" stroke="midnightblue" points="857.215,-383.352 849.033,-376.622 851.232,-386.986 857.215,-383.352"/>
</g>
<!-- Node23 -->
<g id="node56" class="node"><title>Node23</title>
<a xlink:href="MojRefCountInternal_8h.htm" target="_top" xlink:title="core/internal/MojRefCount\lInternal.h">
<polygon fill="white" stroke="black" points="1030,-421 1030,-455 1170,-455 1170,-421 1030,-421"/>
<text text-anchor="start" x="1038" y="-442" font-family="Helvetica,sans-Serif" font-size="10.00">core/internal/MojRefCount</text>
<text text-anchor="middle" x="1100" y="-429" font-family="Helvetica,sans-Serif" font-size="10.00">Internal.h</text>
</a>
</g>
<!-- Node22&#45;&gt;Node23 -->
<g id="edge66" class="edge"><title>Node22&#45;&gt;Node23</title>
<path fill="none" stroke="midnightblue" d="M1017.35,-492.267C1030.32,-483.748 1048.92,-471.537 1065.19,-460.854"/>
<polygon fill="midnightblue" stroke="midnightblue" points="1067.5,-463.524 1073.94,-455.11 1063.66,-457.673 1067.5,-463.524"/>
</g>
<!-- Node24 -->
<g id="node58" class="node"><title>Node24</title>
<a xlink:href="MojUtilInternal_8h.htm" target="_top" xlink:title="core/internal/MojUtilInternal.h">
<polygon fill="white" stroke="black" points="1105.5,-355.5 1105.5,-376.5 1260.5,-376.5 1260.5,-355.5 1105.5,-355.5"/>
<text text-anchor="middle" x="1183" y="-363.5" font-family="Helvetica,sans-Serif" font-size="10.00">core/internal/MojUtilInternal.h</text>
</a>
</g>
<!-- Node23&#45;&gt;Node24 -->
<g id="edge68" class="edge"><title>Node23&#45;&gt;Node24</title>
<path fill="none" stroke="midnightblue" d="M1119.67,-420.937C1132.69,-409.642 1149.72,-394.869 1162.84,-383.488"/>
<polygon fill="midnightblue" stroke="midnightblue" points="1165.17,-386.098 1170.43,-376.901 1160.59,-380.81 1165.17,-386.098"/>
</g>
<!-- Node24&#45;&gt;Node21 -->
<g id="edge70" class="edge"><title>Node24&#45;&gt;Node21</title>
<path fill="none" stroke="midnightblue" d="M1200.34,-355.267C1217.23,-344.807 1243.12,-328.782 1262.39,-316.854"/>
<polygon fill="midnightblue" stroke="midnightblue" points="1264.32,-319.773 1270.98,-311.534 1260.64,-313.821 1264.32,-319.773"/>
</g>
<!-- Node25&#45;&gt;Node3 -->
<g id="edge74" class="edge"><title>Node25&#45;&gt;Node3</title>
<path fill="none" stroke="midnightblue" d="M1381.01,-427.484C1382.98,-400.225 1384.12,-326.843 1344,-290 1310.21,-258.975 1184.88,-248.424 1106.08,-244.84"/>
<polygon fill="midnightblue" stroke="midnightblue" points="1105.9,-241.329 1095.76,-244.398 1105.6,-248.323 1105.9,-241.329"/>
</g>
<!-- Node25&#45;&gt;Node24 -->
<g id="edge76" class="edge"><title>Node25&#45;&gt;Node24</title>
<path fill="none" stroke="midnightblue" d="M1350.93,-427.376C1316.64,-414.844 1259.51,-393.965 1221.55,-380.091"/>
<polygon fill="midnightblue" stroke="midnightblue" points="1222.46,-376.696 1211.87,-376.55 1220.06,-383.27 1222.46,-376.696"/>
</g>
<!-- Node27&#45;&gt;Node3 -->
<g id="edge82" class="edge"><title>Node27&#45;&gt;Node3</title>
<path fill="none" stroke="midnightblue" d="M1184.14,-680.186C1184.75,-631.041 1186.76,-430.686 1179,-420 1150.26,-380.419 1108.72,-419.431 1075,-384 1043.7,-351.113 1039.11,-294.763 1039.15,-264.205"/>
<polygon fill="midnightblue" stroke="midnightblue" points="1042.65,-263.923 1039.34,-253.859 1035.65,-263.792 1042.65,-263.923"/>
</g>
<!-- Node27&#45;&gt;Node20 -->
<g id="edge118" class="edge"><title>Node27&#45;&gt;Node20</title>
<path fill="none" stroke="midnightblue" d="M1175.66,-680.085C1159.59,-659.061 1124.19,-612.733 1104.29,-586.7"/>
<polygon fill="midnightblue" stroke="midnightblue" points="1107.04,-584.536 1098.19,-578.715 1101.48,-588.786 1107.04,-584.536"/>
</g>
<!-- Node28 -->
<g id="node70" class="node"><title>Node28</title>
<a xlink:href="MojDecimal_8h.htm" target="_top" xlink:title="core/MojDecimal.h">
<polygon fill="white" stroke="black" points="1544,-557.5 1544,-578.5 1648,-578.5 1648,-557.5 1544,-557.5"/>
<text text-anchor="middle" x="1596" y="-565.5" font-family="Helvetica,sans-Serif" font-size="10.00">core/MojDecimal.h</text>
</a>
</g>
<!-- Node27&#45;&gt;Node28 -->
<g id="edge84" class="edge"><title>Node27&#45;&gt;Node28</title>
<path fill="none" stroke="midnightblue" d="M1219.48,-680.407C1294.42,-658.036 1468.65,-606.018 1551.15,-581.388"/>
<polygon fill="midnightblue" stroke="midnightblue" points="1552.17,-584.739 1560.75,-578.524 1550.16,-578.031 1552.17,-584.739"/>
</g>
<!-- Node30 -->
<g id="node77" class="node"><title>Node30</title>
<a xlink:href="MojMap_8h.htm" target="_top" xlink:title="core/MojMap.h">
<polygon fill="white" stroke="black" points="1193.5,-557.5 1193.5,-578.5 1280.5,-578.5 1280.5,-557.5 1193.5,-557.5"/>
<text text-anchor="middle" x="1237" y="-565.5" font-family="Helvetica,sans-Serif" font-size="10.00">core/MojMap.h</text>
</a>
</g>
<!-- Node27&#45;&gt;Node30 -->
<g id="edge94" class="edge"><title>Node27&#45;&gt;Node30</title>
<path fill="none" stroke="midnightblue" d="M1188.7,-680.085C1197.6,-659.427 1217.03,-614.337 1228.35,-588.076"/>
<polygon fill="midnightblue" stroke="midnightblue" points="1231.64,-589.284 1232.38,-578.715 1225.21,-586.514 1231.64,-589.284"/>
</g>
<!-- Node27&#45;&gt;Node32 -->
<g id="edge106" class="edge"><title>Node27&#45;&gt;Node32</title>
<path fill="none" stroke="midnightblue" d="M1201.42,-680.362C1215.89,-671.532 1236.67,-658.844 1253.08,-648.822"/>
<polygon fill="midnightblue" stroke="midnightblue" points="1254.97,-651.769 1261.69,-643.571 1251.33,-645.794 1254.97,-651.769"/>
</g>
<!-- Node28&#45;&gt;Node3 -->
<g id="edge86" class="edge"><title>Node28&#45;&gt;Node3</title>
<path fill="none" stroke="midnightblue" d="M1596.56,-557.217C1597.66,-534.949 1600,-482.257 1600,-438 1600,-438 1600,-438 1600,-366 1600,-295.201 1527.54,-311.219 1460,-290 1395.62,-269.776 1206.94,-254.351 1105.81,-247.269"/>
<polygon fill="midnightblue" stroke="midnightblue" points="1105.93,-243.769 1095.71,-246.569 1105.44,-250.752 1105.93,-243.769"/>
</g>
<!-- Node29 -->
<g id="node73" class="node"><title>Node29</title>
<a xlink:href="MojHasher_8h.htm" target="_top" xlink:title="core/MojHasher.h">
<polygon fill="white" stroke="black" points="1395.5,-492.5 1395.5,-513.5 1496.5,-513.5 1496.5,-492.5 1395.5,-492.5"/>
<text text-anchor="middle" x="1446" y="-500.5" font-family="Helvetica,sans-Serif" font-size="10.00">core/MojHasher.h</text>
</a>
</g>
<!-- Node28&#45;&gt;Node29 -->
<g id="edge88" class="edge"><title>Node28&#45;&gt;Node29</title>
<path fill="none" stroke="midnightblue" d="M1571.57,-557.412C1546.61,-546.6 1507.69,-529.731 1479.79,-517.642"/>
<polygon fill="midnightblue" stroke="midnightblue" points="1480.99,-514.348 1470.42,-513.584 1478.21,-520.771 1480.99,-514.348"/>
</g>
<!-- Node29&#45;&gt;Node3 -->
<g id="edge90" class="edge"><title>Node29&#45;&gt;Node3</title>
<path fill="none" stroke="midnightblue" d="M1451.07,-492.362C1462.86,-465.953 1489.12,-396.066 1462,-348 1437.51,-304.584 1412.94,-306.781 1366,-290 1319.4,-273.34 1186.77,-257.722 1105.76,-249.353"/>
<polygon fill="midnightblue" stroke="midnightblue" points="1105.96,-245.856 1095.66,-248.32 1105.25,-252.819 1105.96,-245.856"/>
</g>
<!-- Node29&#45;&gt;Node25 -->
<g id="edge92" class="edge"><title>Node29&#45;&gt;Node25</title>
<path fill="none" stroke="midnightblue" d="M1435.1,-492.267C1425.01,-482.328 1409.82,-467.363 1397.94,-455.664"/>
<polygon fill="midnightblue" stroke="midnightblue" points="1400.28,-453.057 1390.7,-448.534 1395.36,-458.044 1400.28,-453.057"/>
</g>
<!-- Node30&#45;&gt;Node3 -->
<g id="edge96" class="edge"><title>Node30&#45;&gt;Node3</title>
<path fill="none" stroke="midnightblue" d="M1242.44,-557.267C1255.02,-530.739 1282.67,-461.248 1250,-420 1206.63,-365.238 1150.03,-429.475 1097,-384 1087.38,-375.748 1060.11,-300.529 1047.09,-263.459"/>
<polygon fill="midnightblue" stroke="midnightblue" points="1050.29,-261.985 1043.68,-253.698 1043.68,-264.293 1050.29,-261.985"/>
</g>
<!-- Node30&#45;&gt;Node21 -->
<g id="edge98" class="edge"><title>Node30&#45;&gt;Node21</title>
<path fill="none" stroke="midnightblue" d="M1251.35,-557.318C1263.35,-547.499 1279.79,-531.8 1288,-514 1319,-446.764 1312.68,-421.265 1302,-348 1300.69,-338.996 1298.03,-329.318 1295.38,-321.099"/>
<polygon fill="midnightblue" stroke="midnightblue" points="1298.69,-319.95 1292.13,-311.628 1292.07,-322.222 1298.69,-319.95"/>
</g>
<!-- Node31 -->
<g id="node81" class="node"><title>Node31</title>
<a xlink:href="MojRbTreeBase_8h.htm" target="_top" xlink:title="core/internal/MojRbTreeBase.h">
<polygon fill="white" stroke="black" points="462,-492.5 462,-513.5 626,-513.5 626,-492.5 462,-492.5"/>
<text text-anchor="middle" x="544" y="-500.5" font-family="Helvetica,sans-Serif" font-size="10.00">core/internal/MojRbTreeBase.h</text>
</a>
</g>
<!-- Node30&#45;&gt;Node31 -->
<g id="edge100" class="edge"><title>Node30&#45;&gt;Node31</title>
<path fill="none" stroke="midnightblue" d="M1193.23,-558.154C1178.6,-555.154 1162.15,-552.098 1147,-550 1097.86,-543.196 792.683,-520.826 636.252,-509.579"/>
<polygon fill="midnightblue" stroke="midnightblue" points="636.392,-506.08 626.167,-508.854 635.891,-513.062 636.392,-506.08"/>
</g>
<!-- Node31&#45;&gt;Node3 -->
<g id="edge102" class="edge"><title>Node31&#45;&gt;Node3</title>
<path fill="none" stroke="midnightblue" d="M546.824,-492.259C557.321,-454.903 598.046,-330.71 685,-290 734.895,-266.64 885.855,-253.098 974.028,-246.976"/>
<polygon fill="midnightblue" stroke="midnightblue" points="974.457,-250.455 984.196,-246.284 973.982,-243.471 974.457,-250.455"/>
</g>
<!-- Node31&#45;&gt;Node15 -->
<g id="edge104" class="edge"><title>Node31&#45;&gt;Node15</title>
<path fill="none" stroke="midnightblue" d="M568.108,-492.412C592.727,-481.6 631.136,-464.731 658.661,-452.642"/>
<polygon fill="midnightblue" stroke="midnightblue" points="660.154,-455.809 667.902,-448.584 657.339,-449.4 660.154,-455.809"/>
</g>
<!-- Node32&#45;&gt;Node3 -->
<g id="edge108" class="edge"><title>Node32&#45;&gt;Node3</title>
<path fill="none" stroke="midnightblue" d="M1326.13,-630.141C1422.02,-623.896 1632.83,-607.834 1657,-586 1685.08,-560.63 1676,-540.843 1676,-503 1676,-503 1676,-503 1676,-366 1676,-290.471 1596.58,-310.889 1524,-290 1447.29,-267.924 1219.83,-252.817 1106.18,-246.429"/>
<polygon fill="midnightblue" stroke="midnightblue" points="1106.05,-242.917 1095.87,-245.856 1105.66,-249.906 1106.05,-242.917"/>
</g>
<!-- Node32&#45;&gt;Node15 -->
<g id="edge110" class="edge"><title>Node32&#45;&gt;Node15</title>
<path fill="none" stroke="midnightblue" d="M1231.86,-629.52C1109.38,-619.518 785.471,-586.633 711,-514 696.304,-499.667 692.333,-475.816 691.548,-458.653"/>
<polygon fill="midnightblue" stroke="midnightblue" points="695.046,-458.459 691.412,-448.507 688.047,-458.553 695.046,-458.459"/>
</g>
<!-- Node32&#45;&gt;Node20 -->
<g id="edge116" class="edge"><title>Node32&#45;&gt;Node20</title>
<path fill="none" stroke="midnightblue" d="M1248.21,-622.412C1216.09,-611.364 1165.57,-593.991 1130.29,-581.857"/>
<polygon fill="midnightblue" stroke="midnightblue" points="1131.37,-578.526 1120.77,-578.584 1129.09,-585.146 1131.37,-578.526"/>
</g>
<!-- Node32&#45;&gt;Node21 -->
<g id="edge112" class="edge"><title>Node32&#45;&gt;Node21</title>
<path fill="none" stroke="midnightblue" d="M1283.05,-622.325C1289.64,-605.792 1303.79,-573.459 1322,-550 1345.74,-519.416 1357.86,-517.489 1387,-492 1405.51,-475.815 1418.73,-478.336 1429,-456 1457.13,-394.834 1370.9,-341.097 1320.95,-316.016"/>
<polygon fill="midnightblue" stroke="midnightblue" points="1322.31,-312.783 1311.79,-311.529 1319.23,-319.07 1322.31,-312.783"/>
</g>
<!-- Node32&#45;&gt;Node29 -->
<g id="edge114" class="edge"><title>Node32&#45;&gt;Node29</title>
<path fill="none" stroke="midnightblue" d="M1288.35,-622.456C1303.43,-605.819 1334.53,-573.006 1365,-550 1380.69,-538.155 1399.63,-527.015 1415.24,-518.556"/>
<polygon fill="midnightblue" stroke="midnightblue" points="1417.29,-521.433 1424.48,-513.653 1414.01,-515.25 1417.29,-521.433"/>
</g>
<!-- Node33&#45;&gt;Node3 -->
<g id="edge122" class="edge"><title>Node33&#45;&gt;Node3</title>
<path fill="none" stroke="midnightblue" d="M184,-557.214C184,-534.939 184,-482.236 184,-438 184,-438 184,-438 184,-366 184,-330.578 180.032,-311.737 208,-290 238.093,-266.612 782.495,-249.879 974.02,-244.694"/>
<polygon fill="midnightblue" stroke="midnightblue" points="974.325,-248.187 984.228,-244.42 974.137,-241.19 974.325,-248.187"/>
</g>
<!-- Node33&#45;&gt;Node21 -->
<g id="edge124" class="edge"><title>Node33&#45;&gt;Node21</title>
<path fill="none" stroke="midnightblue" d="M225.214,-561.435C251.195,-557.532 285.483,-552.809 316,-550 357.484,-546.182 1036.26,-544.156 1065,-514 1092.76,-484.87 1026.51,-467.627 1021,-456 1014.15,-441.541 1014.68,-434.698 1021,-420 1039.38,-377.257 1056.16,-370.3 1097,-348 1138.63,-325.265 1191.32,-313.365 1230.81,-307.235"/>
<polygon fill="midnightblue" stroke="midnightblue" points="1231.42,-310.682 1240.8,-305.762 1230.4,-303.757 1231.42,-310.682"/>
</g>
<!-- Node33&#45;&gt;Node31 -->
<g id="edge126" class="edge"><title>Node33&#45;&gt;Node31</title>
<path fill="none" stroke="midnightblue" d="M225.297,-560.544C286.416,-549.508 401.673,-528.698 475.548,-515.359"/>
<polygon fill="midnightblue" stroke="midnightblue" points="476.469,-518.75 485.688,-513.529 475.225,-511.861 476.469,-518.75"/>
</g>
<!-- Node34 -->
<g id="node98" class="node"><title>Node34</title>
<a xlink:href="MojSetInternal_8h.htm" target="_top" xlink:title="core/internal/MojSetInternal.h">
<polygon fill="white" stroke="black" points="0,-492.5 0,-513.5 156,-513.5 156,-492.5 0,-492.5"/>
<text text-anchor="middle" x="78" y="-500.5" font-family="Helvetica,sans-Serif" font-size="10.00">core/internal/MojSetInternal.h</text>
</a>
</g>
<!-- Node33&#45;&gt;Node34 -->
<g id="edge128" class="edge"><title>Node33&#45;&gt;Node34</title>
<path fill="none" stroke="midnightblue" d="M166.496,-557.267C149.44,-546.807 123.306,-530.782 103.854,-518.854"/>
<polygon fill="midnightblue" stroke="midnightblue" points="105.533,-515.778 95.178,-513.534 101.873,-521.745 105.533,-515.778"/>
</g>
<!-- Node35&#45;&gt;Node3 -->
<g id="edge134" class="edge"><title>Node35&#45;&gt;Node3</title>
<path fill="none" stroke="midnightblue" d="M1770.21,-624.715C1816.09,-616.819 1876.01,-603.538 1893,-586 1919.33,-558.82 1912,-540.843 1912,-503 1912,-503 1912,-503 1912,-366 1912,-284.617 1308.77,-253.523 1105.76,-245.363"/>
<polygon fill="midnightblue" stroke="midnightblue" points="1105.67,-241.857 1095.54,-244.958 1105.39,-248.851 1105.67,-241.857"/>
</g>
<!-- Node35&#45;&gt;Node21 -->
<g id="edge136" class="edge"><title>Node35&#45;&gt;Node21</title>
<path fill="none" stroke="midnightblue" d="M1708.03,-622.335C1698.5,-605.818 1678.7,-573.504 1657,-550 1560.33,-445.297 1531.14,-419.724 1408,-348 1384.4,-334.254 1356.02,-322.931 1332.79,-314.846"/>
<polygon fill="midnightblue" stroke="midnightblue" points="1333.77,-311.483 1323.18,-311.581 1331.52,-318.111 1333.77,-311.483"/>
</g>
<!-- Node36 -->
<g id="node105" class="node"><title>Node36</title>
<a xlink:href="MojHashBase_8h.htm" target="_top" xlink:title="core/internal/MojHashBase.h">
<polygon fill="white" stroke="black" points="1373.5,-557.5 1373.5,-578.5 1526.5,-578.5 1526.5,-557.5 1373.5,-557.5"/>
<text text-anchor="middle" x="1450" y="-565.5" font-family="Helvetica,sans-Serif" font-size="10.00">core/internal/MojHashBase.h</text>
</a>
</g>
<!-- Node35&#45;&gt;Node36 -->
<g id="edge138" class="edge"><title>Node35&#45;&gt;Node36</title>
<path fill="none" stroke="midnightblue" d="M1671.29,-622.484C1625.28,-611.156 1552.02,-593.12 1502.52,-580.932"/>
<polygon fill="midnightblue" stroke="midnightblue" points="1503.19,-577.493 1492.65,-578.501 1501.52,-584.29 1503.19,-577.493"/>
</g>
<!-- Node37 -->
<g id="node110" class="node"><title>Node37</title>
<a xlink:href="MojHashMapInternal_8h.htm" target="_top" xlink:title="core/internal/MojHashMap\lInternal.h">
<polygon fill="white" stroke="black" points="1742,-551 1742,-585 1884,-585 1884,-551 1742,-551"/>
<text text-anchor="start" x="1750" y="-572" font-family="Helvetica,sans-Serif" font-size="10.00">core/internal/MojHashMap</text>
<text text-anchor="middle" x="1813" y="-559" font-family="Helvetica,sans-Serif" font-size="10.00">Internal.h</text>
</a>
</g>
<!-- Node35&#45;&gt;Node37 -->
<g id="edge146" class="edge"><title>Node35&#45;&gt;Node37</title>
<path fill="none" stroke="midnightblue" d="M1730.35,-622.267C1743.32,-613.748 1761.92,-601.537 1778.19,-590.854"/>
<polygon fill="midnightblue" stroke="midnightblue" points="1780.5,-593.524 1786.94,-585.11 1776.66,-587.673 1780.5,-593.524"/>
</g>
<!-- Node36&#45;&gt;Node3 -->
<g id="edge140" class="edge"><title>Node36&#45;&gt;Node3</title>
<path fill="none" stroke="midnightblue" d="M1464.85,-557.245C1477.4,-547.381 1494.9,-531.654 1505,-514 1522.29,-483.781 1524,-472.817 1524,-438 1524,-438 1524,-438 1524,-366 1524,-280.658 1237.76,-253.834 1105.53,-245.996"/>
<polygon fill="midnightblue" stroke="midnightblue" points="1105.71,-242.5 1095.52,-245.421 1105.3,-249.488 1105.71,-242.5"/>
</g>
<!-- Node36&#45;&gt;Node15 -->
<g id="edge142" class="edge"><title>Node36&#45;&gt;Node15</title>
<path fill="none" stroke="midnightblue" d="M1373.44,-559.292C1346.73,-556.293 1316.55,-552.948 1289,-550 1132.63,-533.263 1086.6,-562.476 937,-514 918.435,-507.984 917.05,-499.419 899,-492 851.297,-472.392 794.437,-458.167 752.391,-449.255"/>
<polygon fill="midnightblue" stroke="midnightblue" points="753.08,-445.823 742.576,-447.214 751.654,-452.677 753.08,-445.823"/>
</g>
<!-- Node36&#45;&gt;Node29 -->
<g id="edge144" class="edge"><title>Node36&#45;&gt;Node29</title>
<path fill="none" stroke="midnightblue" d="M1449.34,-557.267C1448.78,-548.18 1447.96,-534.892 1447.28,-523.74"/>
<polygon fill="midnightblue" stroke="midnightblue" points="1450.76,-523.3 1446.65,-513.534 1443.77,-523.73 1450.76,-523.3"/>
</g>
</g>
</svg>
