<?xml version="1.0" encoding="UTF-8" standalone="no"?>
<!DOCTYPE svg PUBLIC "-//W3C//DTD SVG 1.1//EN"
 "http://www.w3.org/Graphics/SVG/1.1/DTD/svg11.dtd">
<!-- Generated by graphviz version 2.26.3 (20100126.1600)
 -->
<!-- Title: MojDecimal.cpp Pages: 1 -->
<svg width="546pt" height="610pt"
 viewBox="0.00 0.00 546.00 610.00" xmlns="http://www.w3.org/2000/svg" xmlns:xlink="http://www.w3.org/1999/xlink">
<g id="graph1" class="graph" transform="scale(1 1) rotate(0) translate(4 606)">
<title>MojDecimal.cpp</title>
<polygon fill="white" stroke="white" points="-4,5 -4,-606 543,-606 543,5 -4,5"/>
<!-- Node1 -->
<g id="node1" class="node"><title>Node1</title>
<polygon fill="#bfbfbf" stroke="black" points="275.5,-580.5 275.5,-601.5 366.5,-601.5 366.5,-580.5 275.5,-580.5"/>
<text text-anchor="middle" x="321" y="-588.5" font-family="Helvetica,sans-Serif" font-size="10.00">MojDecimal.cpp</text>
</g>
<!-- Node2 -->
<g id="node3" class="node"><title>Node2</title>
<a xlink:href="MojDecimal_8h.htm" target="_top" xlink:title="core/MojDecimal.h">
<polygon fill="white" stroke="black" points="229,-522.5 229,-543.5 333,-543.5 333,-522.5 229,-522.5"/>
<text text-anchor="middle" x="281" y="-530.5" font-family="Helvetica,sans-Serif" font-size="10.00">core/MojDecimal.h</text>
</a>
</g>
<!-- Node1&#45;&gt;Node2 -->
<g id="edge2" class="edge"><title>Node1&#45;&gt;Node2</title>
<path fill="none" stroke="midnightblue" d="M313.663,-580.362C308.194,-572.431 300.578,-561.389 294.076,-551.961"/>
<polygon fill="midnightblue" stroke="midnightblue" points="296.849,-549.816 288.29,-543.571 291.086,-553.79 296.849,-549.816"/>
</g>
<!-- Node14 -->
<g id="node28" class="node"><title>Node14</title>
<a xlink:href="MojUtil_8h.htm" target="_top" xlink:title="core/MojUtil.h">
<polygon fill="white" stroke="black" points="307.5,-406.5 307.5,-427.5 388.5,-427.5 388.5,-406.5 307.5,-406.5"/>
<text text-anchor="middle" x="348" y="-414.5" font-family="Helvetica,sans-Serif" font-size="10.00">core/MojUtil.h</text>
</a>
</g>
<!-- Node1&#45;&gt;Node14 -->
<g id="edge38" class="edge"><title>Node1&#45;&gt;Node14</title>
<path fill="none" stroke="midnightblue" d="M327.223,-580.207C332.219,-570.936 338.895,-557.041 342,-544 350.688,-507.502 350.485,-463.485 349.366,-438.023"/>
<polygon fill="midnightblue" stroke="midnightblue" points="352.845,-437.522 348.817,-427.723 345.855,-437.895 352.845,-437.522"/>
</g>
<!-- Node3 -->
<g id="node5" class="node"><title>Node3</title>
<a xlink:href="MojCoreDefs_8h.htm" target="_top" xlink:title="core/MojCoreDefs.h">
<polygon fill="white" stroke="black" points="218.5,-232.5 218.5,-253.5 329.5,-253.5 329.5,-232.5 218.5,-232.5"/>
<text text-anchor="middle" x="274" y="-240.5" font-family="Helvetica,sans-Serif" font-size="10.00">core/MojCoreDefs.h</text>
</a>
</g>
<!-- Node2&#45;&gt;Node3 -->
<g id="edge4" class="edge"><title>Node2&#45;&gt;Node3</title>
<path fill="none" stroke="midnightblue" d="M263.049,-522.433C250.359,-514.074 233.905,-501.284 224,-486 206.702,-459.307 205,-448.808 205,-417 205,-417 205,-417 205,-359 205,-319.73 234.571,-282.162 254.996,-260.898"/>
<polygon fill="midnightblue" stroke="midnightblue" points="257.713,-263.13 262.295,-253.577 252.756,-258.188 257.713,-263.13"/>
</g>
<!-- Node13 -->
<g id="node25" class="node"><title>Node13</title>
<a xlink:href="MojHasher_8h.htm" target="_top" xlink:title="core/MojHasher.h">
<polygon fill="white" stroke="black" points="232.5,-464.5 232.5,-485.5 333.5,-485.5 333.5,-464.5 232.5,-464.5"/>
<text text-anchor="middle" x="283" y="-472.5" font-family="Helvetica,sans-Serif" font-size="10.00">core/MojHasher.h</text>
</a>
</g>
<!-- Node2&#45;&gt;Node13 -->
<g id="edge24" class="edge"><title>Node2&#45;&gt;Node13</title>
<path fill="none" stroke="midnightblue" d="M281.367,-522.362C281.623,-514.922 281.974,-504.743 282.285,-495.728"/>
<polygon fill="midnightblue" stroke="midnightblue" points="285.789,-495.685 282.635,-485.571 278.793,-495.444 285.789,-495.685"/>
</g>
<!-- Node4 -->
<g id="node7" class="node"><title>Node4</title>
<a xlink:href="MojConfig_8h.htm" target="_top" xlink:title="core/internal/MojConfig.h">
<polygon fill="white" stroke="black" points="-0.5,-174.5 -0.5,-195.5 134.5,-195.5 134.5,-174.5 -0.5,-174.5"/>
<text text-anchor="middle" x="67" y="-182.5" font-family="Helvetica,sans-Serif" font-size="10.00">core/internal/MojConfig.h</text>
</a>
</g>
<!-- Node3&#45;&gt;Node4 -->
<g id="edge6" class="edge"><title>Node3&#45;&gt;Node4</title>
<path fill="none" stroke="midnightblue" d="M236.514,-232.497C202.329,-222.918 151.654,-208.72 114.616,-198.342"/>
<polygon fill="midnightblue" stroke="midnightblue" points="115.13,-194.851 104.556,-195.523 113.241,-201.591 115.13,-194.851"/>
</g>
<!-- Node5 -->
<g id="node9" class="node"><title>Node5</title>
<a xlink:href="MojNew_8h.htm" target="_top" xlink:title="core/internal/MojNew.h">
<polygon fill="white" stroke="black" points="151.5,-174.5 151.5,-195.5 276.5,-195.5 276.5,-174.5 151.5,-174.5"/>
<text text-anchor="middle" x="214" y="-182.5" font-family="Helvetica,sans-Serif" font-size="10.00">core/internal/MojNew.h</text>
</a>
</g>
<!-- Node3&#45;&gt;Node5 -->
<g id="edge8" class="edge"><title>Node3&#45;&gt;Node5</title>
<path fill="none" stroke="midnightblue" d="M262.995,-232.362C254.453,-224.104 242.42,-212.472 232.417,-202.803"/>
<polygon fill="midnightblue" stroke="midnightblue" points="234.558,-200.004 224.935,-195.571 229.692,-205.037 234.558,-200.004"/>
</g>
<!-- Node7 -->
<g id="node13" class="node"><title>Node7</title>
<a xlink:href="MojErr_8h.htm" target="_top" xlink:title="core/MojErr.h">
<polygon fill="white" stroke="black" points="294,-174.5 294,-195.5 374,-195.5 374,-174.5 294,-174.5"/>
<text text-anchor="middle" x="334" y="-182.5" font-family="Helvetica,sans-Serif" font-size="10.00">core/MojErr.h</text>
</a>
</g>
<!-- Node3&#45;&gt;Node7 -->
<g id="edge12" class="edge"><title>Node3&#45;&gt;Node7</title>
<path fill="none" stroke="midnightblue" d="M285.005,-232.362C293.547,-224.104 305.58,-212.472 315.583,-202.803"/>
<polygon fill="midnightblue" stroke="midnightblue" points="318.308,-205.037 323.065,-195.571 313.442,-200.004 318.308,-205.037"/>
</g>
<!-- Node11 -->
<g id="node21" class="node"><title>Node11</title>
<a xlink:href="MojOs_8h.htm" target="_top" xlink:title="core/MojOs.h">
<polygon fill="white" stroke="black" points="411,-174.5 411,-195.5 491,-195.5 491,-174.5 411,-174.5"/>
<text text-anchor="middle" x="451" y="-182.5" font-family="Helvetica,sans-Serif" font-size="10.00">core/MojOs.h</text>
</a>
</g>
<!-- Node3&#45;&gt;Node11 -->
<g id="edge20" class="edge"><title>Node3&#45;&gt;Node11</title>
<path fill="none" stroke="midnightblue" d="M306.053,-232.497C334.909,-223.041 377.506,-209.083 409.061,-198.743"/>
<polygon fill="midnightblue" stroke="midnightblue" points="410.474,-201.963 418.887,-195.523 408.294,-195.311 410.474,-201.963"/>
</g>
<!-- Node6 -->
<g id="node11" class="node"><title>Node6</title>
<polygon fill="white" stroke="#bfbfbf" points="196,-116.5 196,-137.5 232,-137.5 232,-116.5 196,-116.5"/>
<text text-anchor="middle" x="214" y="-124.5" font-family="Helvetica,sans-Serif" font-size="10.00">new</text>
</g>
<!-- Node5&#45;&gt;Node6 -->
<g id="edge10" class="edge"><title>Node5&#45;&gt;Node6</title>
<path fill="none" stroke="midnightblue" d="M214,-174.362C214,-166.922 214,-156.743 214,-147.728"/>
<polygon fill="midnightblue" stroke="midnightblue" points="217.5,-147.571 214,-137.571 210.5,-147.571 217.5,-147.571"/>
</g>
<!-- Node8 -->
<g id="node15" class="node"><title>Node8</title>
<a xlink:href="MojLog_8h.htm" target="_top" xlink:title="core/MojLog.h">
<polygon fill="white" stroke="black" points="282,-116.5 282,-137.5 366,-137.5 366,-116.5 282,-116.5"/>
<text text-anchor="middle" x="324" y="-124.5" font-family="Helvetica,sans-Serif" font-size="10.00">core/MojLog.h</text>
</a>
</g>
<!-- Node7&#45;&gt;Node8 -->
<g id="edge14" class="edge"><title>Node7&#45;&gt;Node8</title>
<path fill="none" stroke="midnightblue" d="M332.166,-174.362C330.869,-166.84 329.089,-156.519 327.523,-147.431"/>
<polygon fill="midnightblue" stroke="midnightblue" points="330.971,-146.831 325.823,-137.571 324.073,-148.02 330.971,-146.831"/>
</g>
<!-- Node9 -->
<g id="node17" class="node"><title>Node9</title>
<a xlink:href="MojListEntry_8h.htm" target="_top" xlink:title="core/MojListEntry.h">
<polygon fill="white" stroke="black" points="270.5,-58.5 270.5,-79.5 377.5,-79.5 377.5,-58.5 270.5,-58.5"/>
<text text-anchor="middle" x="324" y="-66.5" font-family="Helvetica,sans-Serif" font-size="10.00">core/MojListEntry.h</text>
</a>
</g>
<!-- Node8&#45;&gt;Node9 -->
<g id="edge16" class="edge"><title>Node8&#45;&gt;Node9</title>
<path fill="none" stroke="midnightblue" d="M324,-116.362C324,-108.922 324,-98.7427 324,-89.7276"/>
<polygon fill="midnightblue" stroke="midnightblue" points="327.5,-89.5706 324,-79.5707 320.5,-89.5707 327.5,-89.5706"/>
</g>
<!-- Node10 -->
<g id="node19" class="node"><title>Node10</title>
<a xlink:href="MojNoCopy_8h.htm" target="_top" xlink:title="core/MojNoCopy.h">
<polygon fill="white" stroke="black" points="272,-0.5 272,-21.5 376,-21.5 376,-0.5 272,-0.5"/>
<text text-anchor="middle" x="324" y="-8.5" font-family="Helvetica,sans-Serif" font-size="10.00">core/MojNoCopy.h</text>
</a>
</g>
<!-- Node9&#45;&gt;Node10 -->
<g id="edge18" class="edge"><title>Node9&#45;&gt;Node10</title>
<path fill="none" stroke="midnightblue" d="M324,-58.3619C324,-50.9219 324,-40.7427 324,-31.7276"/>
<polygon fill="midnightblue" stroke="midnightblue" points="327.5,-31.5706 324,-21.5707 320.5,-31.5707 327.5,-31.5706"/>
</g>
<!-- Node12 -->
<g id="node23" class="node"><title>Node12</title>
<a xlink:href="MojOsInternal_8h.htm" target="_top" xlink:title="core/internal/MojOsInternal.h">
<polygon fill="white" stroke="black" points="384,-116.5 384,-137.5 538,-137.5 538,-116.5 384,-116.5"/>
<text text-anchor="middle" x="461" y="-124.5" font-family="Helvetica,sans-Serif" font-size="10.00">core/internal/MojOsInternal.h</text>
</a>
</g>
<!-- Node11&#45;&gt;Node12 -->
<g id="edge22" class="edge"><title>Node11&#45;&gt;Node12</title>
<path fill="none" stroke="midnightblue" d="M452.834,-174.362C454.131,-166.84 455.911,-156.519 457.477,-147.431"/>
<polygon fill="midnightblue" stroke="midnightblue" points="460.927,-148.02 459.177,-137.571 454.029,-146.831 460.927,-148.02"/>
</g>
<!-- Node13&#45;&gt;Node3 -->
<g id="edge26" class="edge"><title>Node13&#45;&gt;Node3</title>
<path fill="none" stroke="midnightblue" d="M282.59,-464.429C281.202,-428.648 276.664,-311.663 274.805,-263.748"/>
<polygon fill="midnightblue" stroke="midnightblue" points="278.298,-263.49 274.413,-253.634 271.303,-263.762 278.298,-263.49"/>
</g>
<!-- Node13&#45;&gt;Node14 -->
<g id="edge28" class="edge"><title>Node13&#45;&gt;Node14</title>
<path fill="none" stroke="midnightblue" d="M294.922,-464.362C304.359,-455.941 317.73,-444.011 328.69,-434.231"/>
<polygon fill="midnightblue" stroke="midnightblue" points="331.022,-436.84 336.154,-427.571 326.362,-431.617 331.022,-436.84"/>
</g>
<!-- Node14&#45;&gt;Node3 -->
<g id="edge30" class="edge"><title>Node14&#45;&gt;Node3</title>
<path fill="none" stroke="midnightblue" d="M337.879,-406.196C329.87,-397.139 318.919,-383.547 312,-370 294.037,-334.828 283.081,-289.743 277.81,-263.839"/>
<polygon fill="midnightblue" stroke="midnightblue" points="281.182,-262.843 275.839,-253.694 274.31,-264.178 281.182,-262.843"/>
</g>
<!-- Node15 -->
<g id="node31" class="node"><title>Node15</title>
<a xlink:href="MojUtilInternal_8h.htm" target="_top" xlink:title="core/internal/MojUtilInternal.h">
<polygon fill="white" stroke="black" points="320.5,-348.5 320.5,-369.5 475.5,-369.5 475.5,-348.5 320.5,-348.5"/>
<text text-anchor="middle" x="398" y="-356.5" font-family="Helvetica,sans-Serif" font-size="10.00">core/internal/MojUtilInternal.h</text>
</a>
</g>
<!-- Node14&#45;&gt;Node15 -->
<g id="edge32" class="edge"><title>Node14&#45;&gt;Node15</title>
<path fill="none" stroke="midnightblue" d="M357.171,-406.362C364.148,-398.268 373.921,-386.932 382.156,-377.38"/>
<polygon fill="midnightblue" stroke="midnightblue" points="385.009,-379.43 388.887,-369.571 379.707,-374.859 385.009,-379.43"/>
</g>
<!-- Node16 -->
<g id="node33" class="node"><title>Node16</title>
<a xlink:href="MojComp_8h.htm" target="_top" xlink:title="core/MojComp.h">
<polygon fill="white" stroke="black" points="336,-290.5 336,-311.5 430,-311.5 430,-290.5 336,-290.5"/>
<text text-anchor="middle" x="383" y="-298.5" font-family="Helvetica,sans-Serif" font-size="10.00">core/MojComp.h</text>
</a>
</g>
<!-- Node15&#45;&gt;Node16 -->
<g id="edge34" class="edge"><title>Node15&#45;&gt;Node16</title>
<path fill="none" stroke="midnightblue" d="M395.249,-348.362C393.303,-340.84 390.634,-330.519 388.284,-321.431"/>
<polygon fill="midnightblue" stroke="midnightblue" points="391.626,-320.376 385.734,-311.571 384.849,-322.128 391.626,-320.376"/>
</g>
<!-- Node16&#45;&gt;Node3 -->
<g id="edge36" class="edge"><title>Node16&#45;&gt;Node3</title>
<path fill="none" stroke="midnightblue" d="M363.261,-290.497C346.39,-281.519 321.891,-268.484 302.826,-258.339"/>
<polygon fill="midnightblue" stroke="midnightblue" points="304.433,-255.229 293.961,-253.621 301.144,-261.409 304.433,-255.229"/>
</g>
</g>
</svg>
