<?xml version="1.0" encoding="UTF-8" standalone="no"?>
<!DOCTYPE svg PUBLIC "-//W3C//DTD SVG 1.1//EN"
 "http://www.w3.org/Graphics/SVG/1.1/DTD/svg11.dtd">
<!-- Generated by graphviz version 2.26.3 (20100126.1600)
 -->
<!-- Title: MojDbLevelIterator.cpp Pages: 1 -->
<svg width="384pt" height="160pt"
 viewBox="0.00 0.00 384.00 160.00" xmlns="http://www.w3.org/2000/svg" xmlns:xlink="http://www.w3.org/1999/xlink">
<g id="graph1" class="graph" transform="scale(1 1) rotate(0) translate(4 156)">
<title>MojDbLevelIterator.cpp</title>
<polygon fill="white" stroke="white" points="-4,5 -4,-156 381,-156 381,5 -4,5"/>
<!-- Node1 -->
<g id="node1" class="node"><title>Node1</title>
<polygon fill="#bfbfbf" stroke="black" points="104,-130.5 104,-151.5 230,-151.5 230,-130.5 104,-130.5"/>
<text text-anchor="middle" x="167" y="-138.5" font-family="Helvetica,sans-Serif" font-size="10.00">MojDbLevelIterator.cpp</text>
</g>
<!-- Node2 -->
<g id="node3" class="node"><title>Node2</title>
<polygon fill="white" stroke="#bfbfbf" points="-0.5,-65.5 -0.5,-86.5 50.5,-86.5 50.5,-65.5 -0.5,-65.5"/>
<text text-anchor="middle" x="25" y="-73.5" font-family="Helvetica,sans-Serif" font-size="10.00">cassert</text>
</g>
<!-- Node1&#45;&gt;Node2 -->
<g id="edge2" class="edge"><title>Node1&#45;&gt;Node2</title>
<path fill="none" stroke="midnightblue" d="M141,-130.342C118.966,-121.155 86.6368,-107.305 59,-94 57.1946,-93.1308 55.3455,-92.2182 53.4876,-91.2842"/>
<polygon fill="midnightblue" stroke="midnightblue" points="54.7796,-88.0125 44.2877,-86.5387 51.5705,-94.2336 54.7796,-88.0125"/>
</g>
<!-- Node3 -->
<g id="node5" class="node"><title>Node3</title>
<polygon fill="white" stroke="#bfbfbf" points="68,-65.5 68,-86.5 140,-86.5 140,-65.5 68,-65.5"/>
<text text-anchor="middle" x="104" y="-73.5" font-family="Helvetica,sans-Serif" font-size="10.00">leveldb/db.h</text>
</g>
<!-- Node1&#45;&gt;Node3 -->
<g id="edge4" class="edge"><title>Node1&#45;&gt;Node3</title>
<path fill="none" stroke="midnightblue" d="M156.597,-130.267C147.056,-120.423 132.736,-105.648 121.446,-93.9996"/>
<polygon fill="midnightblue" stroke="midnightblue" points="123.683,-91.2785 114.21,-86.5337 118.656,-96.1503 123.683,-91.2785"/>
</g>
<!-- Node4 -->
<g id="node7" class="node"><title>Node4</title>
<a xlink:href="MojDbLevelIterator_8h.htm" target="_top" xlink:title="db&#45;luna/leveldb/MojDbLevel\lIterator.h">
<polygon fill="white" stroke="black" points="157.5,-59 157.5,-93 302.5,-93 302.5,-59 157.5,-59"/>
<text text-anchor="start" x="165.5" y="-80" font-family="Helvetica,sans-Serif" font-size="10.00">db&#45;luna/leveldb/MojDbLevel</text>
<text text-anchor="middle" x="230" y="-67" font-family="Helvetica,sans-Serif" font-size="10.00">Iterator.h</text>
</a>
</g>
<!-- Node1&#45;&gt;Node4 -->
<g id="edge6" class="edge"><title>Node1&#45;&gt;Node4</title>
<path fill="none" stroke="midnightblue" d="M177.403,-130.267C185.278,-122.142 196.407,-110.659 206.402,-100.347"/>
<polygon fill="midnightblue" stroke="midnightblue" points="208.97,-102.726 213.417,-93.1099 203.944,-97.8546 208.97,-102.726"/>
</g>
<!-- Node8 -->
<g id="node15" class="node"><title>Node8</title>
<polygon fill="white" stroke="#bfbfbf" points="319.5,-65.5 319.5,-86.5 376.5,-86.5 376.5,-65.5 319.5,-65.5"/>
<text text-anchor="middle" x="348" y="-73.5" font-family="Helvetica,sans-Serif" font-size="10.00">iostream</text>
</g>
<!-- Node1&#45;&gt;Node8 -->
<g id="edge14" class="edge"><title>Node1&#45;&gt;Node8</title>
<path fill="none" stroke="midnightblue" d="M203.894,-130.484C233.285,-121.743 275.281,-108.438 311,-94 313.376,-93.0396 315.813,-91.9949 318.246,-90.9084"/>
<polygon fill="midnightblue" stroke="midnightblue" points="319.9,-93.9992 327.483,-86.6004 316.941,-87.6552 319.9,-93.9992"/>
</g>
<!-- Node5 -->
<g id="node9" class="node"><title>Node5</title>
<a xlink:href="MojNoCopy_8h.htm" target="_top" xlink:title="core/MojNoCopy.h">
<polygon fill="white" stroke="black" points="87,-0.5 87,-21.5 191,-21.5 191,-0.5 87,-0.5"/>
<text text-anchor="middle" x="139" y="-8.5" font-family="Helvetica,sans-Serif" font-size="10.00">core/MojNoCopy.h</text>
</a>
</g>
<!-- Node4&#45;&gt;Node5 -->
<g id="edge8" class="edge"><title>Node4&#45;&gt;Node5</title>
<path fill="none" stroke="midnightblue" d="M206.091,-58.922C192.527,-49.2335 175.63,-37.1645 162.187,-27.5623"/>
<polygon fill="midnightblue" stroke="midnightblue" points="164.093,-24.6227 153.922,-21.6584 160.025,-30.3189 164.093,-24.6227"/>
</g>
<!-- Node6 -->
<g id="node11" class="node"><title>Node6</title>
<polygon fill="white" stroke="#bfbfbf" points="208.5,-0.5 208.5,-21.5 251.5,-21.5 251.5,-0.5 208.5,-0.5"/>
<text text-anchor="middle" x="230" y="-8.5" font-family="Helvetica,sans-Serif" font-size="10.00">string</text>
</g>
<!-- Node4&#45;&gt;Node6 -->
<g id="edge10" class="edge"><title>Node4&#45;&gt;Node6</title>
<path fill="none" stroke="midnightblue" d="M230,-58.922C230,-50.6704 230,-40.6922 230,-31.9818"/>
<polygon fill="midnightblue" stroke="midnightblue" points="233.5,-31.8521 230,-21.8521 226.5,-31.8521 233.5,-31.8521"/>
</g>
<!-- Node7 -->
<g id="node13" class="node"><title>Node7</title>
<polygon fill="white" stroke="#bfbfbf" points="269,-0.5 269,-21.5 351,-21.5 351,-0.5 269,-0.5"/>
<text text-anchor="middle" x="310" y="-8.5" font-family="Helvetica,sans-Serif" font-size="10.00">leveldb/slice.h</text>
</g>
<!-- Node4&#45;&gt;Node7 -->
<g id="edge12" class="edge"><title>Node4&#45;&gt;Node7</title>
<path fill="none" stroke="midnightblue" d="M251.019,-58.922C262.642,-49.4785 277.048,-37.7736 288.713,-28.2957"/>
<polygon fill="midnightblue" stroke="midnightblue" points="291.09,-30.8745 296.644,-21.8521 286.675,-25.4416 291.09,-30.8745"/>
</g>
</g>
</svg>
