<?xml version="1.0" encoding="UTF-8" standalone="no"?>
<!DOCTYPE svg PUBLIC "-//W3C//DTD SVG 1.1//EN"
 "http://www.w3.org/Graphics/SVG/1.1/DTD/svg11.dtd">
<!-- Generated by graphviz version 2.26.3 (20100126.1600)
 -->
<!-- Title: MojDbObjectItem.h Pages: 1 -->
<svg width="1374pt" height="204pt"
 viewBox="0.00 0.00 1374.00 204.00" xmlns="http://www.w3.org/2000/svg" xmlns:xlink="http://www.w3.org/1999/xlink">
<g id="graph1" class="graph" transform="scale(1 1) rotate(0) translate(4 200)">
<title>MojDbObjectItem.h</title>
<polygon fill="white" stroke="white" points="-4,5 -4,-200 1371,-200 1371,5 -4,5"/>
<!-- Node1 -->
<g id="node1" class="node"><title>Node1</title>
<polygon fill="#bfbfbf" stroke="black" points="1092.5,-174.5 1092.5,-195.5 1197.5,-195.5 1197.5,-174.5 1092.5,-174.5"/>
<text text-anchor="middle" x="1145" y="-182.5" font-family="Helvetica,sans-Serif" font-size="10.00">MojDbObjectItem.h</text>
</g>
<!-- Node2 -->
<g id="node3" class="node"><title>Node2</title>
<a xlink:href="MojDbIsamQuery_8h.htm" target="_top" xlink:title="MojDbIsamQuery.h">
<polygon fill="white" stroke="black" points="783,-116.5 783,-137.5 889,-137.5 889,-116.5 783,-116.5"/>
<text text-anchor="middle" x="836" y="-124.5" font-family="Helvetica,sans-Serif" font-size="10.00">MojDbIsamQuery.h</text>
</a>
</g>
<!-- Node1&#45;&gt;Node2 -->
<g id="edge2" class="edge"><title>Node1&#45;&gt;Node2</title>
<path fill="none" stroke="midnightblue" d="M1082.29,-173.229C1025.47,-162.565 942.675,-147.023 889.068,-136.961"/>
<polygon fill="midnightblue" stroke="midnightblue" points="1081.76,-176.69 1092.23,-175.095 1083.05,-169.811 1081.76,-176.69"/>
</g>
<!-- Node14 -->
<g id="node27" class="node"><title>Node14</title>
<a xlink:href="MojDbSearchCursor_8h.htm" target="_top" xlink:title="MojDbSearchCursor.h">
<polygon fill="white" stroke="black" points="1085,-116.5 1085,-137.5 1205,-137.5 1205,-116.5 1085,-116.5"/>
<text text-anchor="middle" x="1145" y="-124.5" font-family="Helvetica,sans-Serif" font-size="10.00">MojDbSearchCursor.h</text>
</a>
</g>
<!-- Node1&#45;&gt;Node14 -->
<g id="edge26" class="edge"><title>Node1&#45;&gt;Node14</title>
<path fill="none" stroke="midnightblue" d="M1145,-164.191C1145,-155.168 1145,-144.994 1145,-137.571"/>
<polygon fill="midnightblue" stroke="midnightblue" points="1141.5,-164.362 1145,-174.362 1148.5,-164.362 1141.5,-164.362"/>
</g>
<!-- Node17 -->
<g id="node33" class="node"><title>Node17</title>
<a xlink:href="MojDbObjectItem_8cpp.htm" target="_top" xlink:title="MojDbObjectItem.cpp">
<polygon fill="white" stroke="black" points="1223,-116.5 1223,-137.5 1339,-137.5 1339,-116.5 1223,-116.5"/>
<text text-anchor="middle" x="1281" y="-124.5" font-family="Helvetica,sans-Serif" font-size="10.00">MojDbObjectItem.cpp</text>
</a>
</g>
<!-- Node1&#45;&gt;Node17 -->
<g id="edge32" class="edge"><title>Node1&#45;&gt;Node17</title>
<path fill="none" stroke="midnightblue" d="M1179.05,-170.479C1202.99,-160.269 1234.48,-146.839 1256.1,-137.621"/>
<polygon fill="midnightblue" stroke="midnightblue" points="1177.45,-167.354 1169.63,-174.497 1180.2,-173.793 1177.45,-167.354"/>
</g>
<!-- Node3 -->
<g id="node5" class="node"><title>Node3</title>
<a xlink:href="MojDbLevelQuery_8h.htm" target="_top" xlink:title="MojDbLevelQuery.h">
<polygon fill="white" stroke="black" points="300.5,-58.5 300.5,-79.5 409.5,-79.5 409.5,-58.5 300.5,-58.5"/>
<text text-anchor="middle" x="355" y="-66.5" font-family="Helvetica,sans-Serif" font-size="10.00">MojDbLevelQuery.h</text>
</a>
</g>
<!-- Node2&#45;&gt;Node3 -->
<g id="edge4" class="edge"><title>Node2&#45;&gt;Node3</title>
<path fill="none" stroke="midnightblue" d="M772.627,-119.358C677.5,-107.888 499.405,-86.4127 409.659,-75.5909"/>
<polygon fill="midnightblue" stroke="midnightblue" points="772.34,-122.849 782.687,-120.571 773.178,-115.899 772.34,-122.849"/>
</g>
<!-- Node8 -->
<g id="node15" class="node"><title>Node8</title>
<a xlink:href="MojDbBerkeleyQuery_8h.htm" target="_top" xlink:title="MojDbBerkeleyQuery.h">
<polygon fill="white" stroke="black" points="577.5,-58.5 577.5,-79.5 702.5,-79.5 702.5,-58.5 577.5,-58.5"/>
<text text-anchor="middle" x="640" y="-66.5" font-family="Helvetica,sans-Serif" font-size="10.00">MojDbBerkeleyQuery.h</text>
</a>
</g>
<!-- Node2&#45;&gt;Node8 -->
<g id="edge14" class="edge"><title>Node2&#45;&gt;Node8</title>
<path fill="none" stroke="midnightblue" d="M790.536,-113.546C755.524,-103.186 707.812,-89.0668 675.561,-79.5231"/>
<polygon fill="midnightblue" stroke="midnightblue" points="789.924,-117.015 800.506,-116.497 791.91,-110.303 789.924,-117.015"/>
</g>
<!-- Node11 -->
<g id="node21" class="node"><title>Node11</title>
<a xlink:href="MojDbInnoQuery_8h.htm" target="_top" xlink:title="MojDbInnoQuery.h">
<polygon fill="white" stroke="black" points="720,-58.5 720,-79.5 824,-79.5 824,-58.5 720,-58.5"/>
<text text-anchor="middle" x="772" y="-66.5" font-family="Helvetica,sans-Serif" font-size="10.00">MojDbInnoQuery.h</text>
</a>
</g>
<!-- Node2&#45;&gt;Node11 -->
<g id="edge20" class="edge"><title>Node2&#45;&gt;Node11</title>
<path fill="none" stroke="midnightblue" d="M816.585,-109.405C805.841,-99.6683 792.846,-87.8914 783.664,-79.5707"/>
<polygon fill="midnightblue" stroke="midnightblue" points="814.501,-112.24 824.261,-116.362 819.202,-107.053 814.501,-112.24"/>
</g>
<!-- Node12 -->
<g id="node23" class="node"><title>Node12</title>
<a xlink:href="MojDbIsamQuery_8cpp.htm" target="_top" xlink:title="MojDbIsamQuery.cpp">
<polygon fill="white" stroke="black" points="841.5,-58.5 841.5,-79.5 958.5,-79.5 958.5,-58.5 841.5,-58.5"/>
<text text-anchor="middle" x="900" y="-66.5" font-family="Helvetica,sans-Serif" font-size="10.00">MojDbIsamQuery.cpp</text>
</a>
</g>
<!-- Node2&#45;&gt;Node12 -->
<g id="edge22" class="edge"><title>Node2&#45;&gt;Node12</title>
<path fill="none" stroke="midnightblue" d="M855.415,-109.405C866.159,-99.6683 879.154,-87.8914 888.336,-79.5707"/>
<polygon fill="midnightblue" stroke="midnightblue" points="852.798,-107.053 847.739,-116.362 857.499,-112.24 852.798,-107.053"/>
</g>
<!-- Node13 -->
<g id="node25" class="node"><title>Node13</title>
<a xlink:href="MojDbKind_8cpp.htm" target="_top" xlink:title="MojDbKind.cpp">
<polygon fill="white" stroke="black" points="975.5,-58.5 975.5,-79.5 1062.5,-79.5 1062.5,-58.5 975.5,-58.5"/>
<text text-anchor="middle" x="1019" y="-66.5" font-family="Helvetica,sans-Serif" font-size="10.00">MojDbKind.cpp</text>
</a>
</g>
<!-- Node2&#45;&gt;Node13 -->
<g id="edge24" class="edge"><title>Node2&#45;&gt;Node13</title>
<path fill="none" stroke="midnightblue" d="M878.87,-113.413C911.52,-103.065 955.815,-89.0258 985.798,-79.5231"/>
<polygon fill="midnightblue" stroke="midnightblue" points="877.615,-110.139 869.14,-116.497 879.73,-116.812 877.615,-110.139"/>
</g>
<!-- Node4 -->
<g id="node7" class="node"><title>Node4</title>
<a xlink:href="MojDbLevelDatabase_8cpp.htm" target="_top" xlink:title="MojDbLevelDatabase.cpp">
<polygon fill="white" stroke="black" points="-0.5,-0.5 -0.5,-21.5 136.5,-21.5 136.5,-0.5 -0.5,-0.5"/>
<text text-anchor="middle" x="68" y="-8.5" font-family="Helvetica,sans-Serif" font-size="10.00">MojDbLevelDatabase.cpp</text>
</a>
</g>
<!-- Node3&#45;&gt;Node4 -->
<g id="edge6" class="edge"><title>Node3&#45;&gt;Node4</title>
<path fill="none" stroke="midnightblue" d="M292.997,-56.4697C241.379,-46.0382 168.715,-31.3535 120.071,-21.5231"/>
<polygon fill="midnightblue" stroke="midnightblue" points="292.531,-59.9463 303.026,-58.4966 293.918,-53.0851 292.531,-59.9463"/>
</g>
<!-- Node5 -->
<g id="node9" class="node"><title>Node5</title>
<a xlink:href="MojDbLevelEngine_8cpp.htm" target="_top" xlink:title="MojDbLevelEngine.cpp">
<polygon fill="white" stroke="black" points="153.5,-0.5 153.5,-21.5 278.5,-21.5 278.5,-0.5 153.5,-0.5"/>
<text text-anchor="middle" x="216" y="-8.5" font-family="Helvetica,sans-Serif" font-size="10.00">MojDbLevelEngine.cpp</text>
</a>
</g>
<!-- Node3&#45;&gt;Node5 -->
<g id="edge8" class="edge"><title>Node3&#45;&gt;Node5</title>
<path fill="none" stroke="midnightblue" d="M320.526,-54.6153C296.018,-44.3889 263.642,-30.8796 241.454,-21.6212"/>
<polygon fill="midnightblue" stroke="midnightblue" points="319.252,-57.8758 329.828,-58.4966 321.947,-51.4156 319.252,-57.8758"/>
</g>
<!-- Node6 -->
<g id="node11" class="node"><title>Node6</title>
<a xlink:href="MojDbLevelIndex_8cpp.htm" target="_top" xlink:title="MojDbLevelIndex.cpp">
<polygon fill="white" stroke="black" points="296,-0.5 296,-21.5 414,-21.5 414,-0.5 296,-0.5"/>
<text text-anchor="middle" x="355" y="-8.5" font-family="Helvetica,sans-Serif" font-size="10.00">MojDbLevelIndex.cpp</text>
</a>
</g>
<!-- Node3&#45;&gt;Node6 -->
<g id="edge10" class="edge"><title>Node3&#45;&gt;Node6</title>
<path fill="none" stroke="midnightblue" d="M355,-48.1906C355,-39.1684 355,-28.9941 355,-21.5707"/>
<polygon fill="midnightblue" stroke="midnightblue" points="351.5,-48.3619 355,-58.3619 358.5,-48.3619 351.5,-48.3619"/>
</g>
<!-- Node7 -->
<g id="node13" class="node"><title>Node7</title>
<a xlink:href="MojDbLevelQuery_8cpp.htm" target="_top" xlink:title="MojDbLevelQuery.cpp">
<polygon fill="white" stroke="black" points="432,-0.5 432,-21.5 552,-21.5 552,-0.5 432,-0.5"/>
<text text-anchor="middle" x="492" y="-8.5" font-family="Helvetica,sans-Serif" font-size="10.00">MojDbLevelQuery.cpp</text>
</a>
</g>
<!-- Node3&#45;&gt;Node7 -->
<g id="edge12" class="edge"><title>Node3&#45;&gt;Node7</title>
<path fill="none" stroke="midnightblue" d="M389.299,-54.4794C413.415,-44.2695 445.14,-30.8386 466.912,-21.6212"/>
<polygon fill="midnightblue" stroke="midnightblue" points="387.654,-51.3749 379.81,-58.4966 390.383,-57.821 387.654,-51.3749"/>
</g>
<!-- Node9 -->
<g id="node17" class="node"><title>Node9</title>
<a xlink:href="MojDbBerkeleyEngine_8cpp.htm" target="_top" xlink:title="MojDbBerkeleyEngine.cpp">
<polygon fill="white" stroke="black" points="570,-0.5 570,-21.5 710,-21.5 710,-0.5 570,-0.5"/>
<text text-anchor="middle" x="640" y="-8.5" font-family="Helvetica,sans-Serif" font-size="10.00">MojDbBerkeleyEngine.cpp</text>
</a>
</g>
<!-- Node8&#45;&gt;Node9 -->
<g id="edge16" class="edge"><title>Node8&#45;&gt;Node9</title>
<path fill="none" stroke="midnightblue" d="M640,-48.1906C640,-39.1684 640,-28.9941 640,-21.5707"/>
<polygon fill="midnightblue" stroke="midnightblue" points="636.5,-48.3619 640,-58.3619 643.5,-48.3619 636.5,-48.3619"/>
</g>
<!-- Node10 -->
<g id="node19" class="node"><title>Node10</title>
<a xlink:href="MojDbBerkeleyQuery_8cpp.htm" target="_top" xlink:title="MojDbBerkeleyQuery.cpp">
<polygon fill="white" stroke="black" points="728,-0.5 728,-21.5 864,-21.5 864,-0.5 728,-0.5"/>
<text text-anchor="middle" x="796" y="-8.5" font-family="Helvetica,sans-Serif" font-size="10.00">MojDbBerkeleyQuery.cpp</text>
</a>
</g>
<!-- Node8&#45;&gt;Node10 -->
<g id="edge18" class="edge"><title>Node8&#45;&gt;Node10</title>
<path fill="none" stroke="midnightblue" d="M677.63,-55.0095C705.352,-44.7023 742.468,-30.903 767.697,-21.5231"/>
<polygon fill="midnightblue" stroke="midnightblue" points="676.404,-51.7311 668.25,-58.4966 678.843,-58.2923 676.404,-51.7311"/>
</g>
<!-- Node15 -->
<g id="node29" class="node"><title>Node15</title>
<a xlink:href="MojDbSearchCursor_8cpp.htm" target="_top" xlink:title="MojDbSearchCursor.cpp">
<polygon fill="white" stroke="black" points="1079.5,-58.5 1079.5,-79.5 1210.5,-79.5 1210.5,-58.5 1079.5,-58.5"/>
<text text-anchor="middle" x="1145" y="-66.5" font-family="Helvetica,sans-Serif" font-size="10.00">MojDbSearchCursor.cpp</text>
</a>
</g>
<!-- Node14&#45;&gt;Node15 -->
<g id="edge28" class="edge"><title>Node14&#45;&gt;Node15</title>
<path fill="none" stroke="midnightblue" d="M1145,-106.191C1145,-97.1684 1145,-86.9941 1145,-79.5707"/>
<polygon fill="midnightblue" stroke="midnightblue" points="1141.5,-106.362 1145,-116.362 1148.5,-106.362 1141.5,-106.362"/>
</g>
<!-- Node16 -->
<g id="node31" class="node"><title>Node16</title>
<a xlink:href="MojDbServiceHandler_8cpp.htm" target="_top" xlink:title="MojDbServiceHandler.cpp">
<polygon fill="white" stroke="black" points="1227.5,-58.5 1227.5,-79.5 1366.5,-79.5 1366.5,-58.5 1227.5,-58.5"/>
<text text-anchor="middle" x="1297" y="-66.5" font-family="Helvetica,sans-Serif" font-size="10.00">MojDbServiceHandler.cpp</text>
</a>
</g>
<!-- Node14&#45;&gt;Node16 -->
<g id="edge30" class="edge"><title>Node14&#45;&gt;Node16</title>
<path fill="none" stroke="midnightblue" d="M1182.02,-112.874C1208.99,-102.582 1244.95,-88.862 1269.42,-79.5231"/>
<polygon fill="midnightblue" stroke="midnightblue" points="1180.62,-109.661 1172.53,-116.497 1183.12,-116.202 1180.62,-109.661"/>
</g>
</g>
</svg>
