<?xml version="1.0" encoding="UTF-8" standalone="no"?>
<!DOCTYPE svg PUBLIC "-//W3C//DTD SVG 1.1//EN"
 "http://www.w3.org/Graphics/SVG/1.1/DTD/svg11.dtd">
<!-- Generated by graphviz version 2.26.3 (20100126.1600)
 -->
<!-- Title: MojDbTextUtils.h Pages: 1 -->
<svg width="1307pt" height="320pt"
 viewBox="0.00 0.00 1307.36 320.00" xmlns="http://www.w3.org/2000/svg" xmlns:xlink="http://www.w3.org/1999/xlink">
<g id="graph1" class="graph" transform="scale(1 1) rotate(0) translate(4 316)">
<title>MojDbTextUtils.h</title>
<polygon fill="white" stroke="white" points="-4,5 -4,-316 1304.36,-316 1304.36,5 -4,5"/>
<!-- Node1 -->
<g id="node1" class="node"><title>Node1</title>
<polygon fill="#bfbfbf" stroke="black" points="1117.36,-290.5 1117.36,-311.5 1213.36,-311.5 1213.36,-290.5 1117.36,-290.5"/>
<text text-anchor="middle" x="1165.36" y="-298.5" font-family="Helvetica,sans-Serif" font-size="10.00">MojDbTextUtils.h</text>
</g>
<!-- Node2 -->
<g id="node3" class="node"><title>Node2</title>
<a xlink:href="MojDbTextCollator_8h.htm" target="_top" xlink:title="MojDbTextCollator.h">
<polygon fill="white" stroke="black" points="993.861,-232.5 993.861,-253.5 1106.86,-253.5 1106.86,-232.5 993.861,-232.5"/>
<text text-anchor="middle" x="1050.36" y="-240.5" font-family="Helvetica,sans-Serif" font-size="10.00">MojDbTextCollator.h</text>
</a>
</g>
<!-- Node1&#45;&gt;Node2 -->
<g id="edge2" class="edge"><title>Node1&#45;&gt;Node2</title>
<path fill="none" stroke="midnightblue" d="M1135.48,-285.932C1115.38,-275.793 1089.37,-262.675 1071.42,-253.621"/>
<polygon fill="midnightblue" stroke="midnightblue" points="1134.03,-289.118 1144.54,-290.497 1137.18,-282.868 1134.03,-289.118"/>
</g>
<!-- Node23 -->
<g id="node50" class="node"><title>Node23</title>
<a xlink:href="MojDbTextTokenizer_8cpp.htm" target="_top" xlink:title="MojDbTextTokenizer.cpp">
<polygon fill="white" stroke="black" points="1130.36,-174.5 1130.36,-195.5 1264.36,-195.5 1264.36,-174.5 1130.36,-174.5"/>
<text text-anchor="middle" x="1197.36" y="-182.5" font-family="Helvetica,sans-Serif" font-size="10.00">MojDbTextTokenizer.cpp</text>
</a>
</g>
<!-- Node1&#45;&gt;Node23 -->
<g id="edge56" class="edge"><title>Node1&#45;&gt;Node23</title>
<path fill="none" stroke="midnightblue" d="M1171.03,-280.382C1174.81,-266.668 1179.87,-248.255 1184.36,-232 1187.78,-219.595 1191.73,-205.352 1194.36,-195.826"/>
<polygon fill="midnightblue" stroke="midnightblue" points="1167.6,-279.672 1168.32,-290.242 1174.35,-281.529 1167.6,-279.672"/>
</g>
<!-- Node24 -->
<g id="node53" class="node"><title>Node24</title>
<a xlink:href="MojDbTextUtils_8cpp.htm" target="_top" xlink:title="MojDbTextUtils.cpp">
<polygon fill="white" stroke="black" points="1192.86,-232.5 1192.86,-253.5 1299.86,-253.5 1299.86,-232.5 1192.86,-232.5"/>
<text text-anchor="middle" x="1246.36" y="-240.5" font-family="Helvetica,sans-Serif" font-size="10.00">MojDbTextUtils.cpp</text>
</a>
</g>
<!-- Node1&#45;&gt;Node24 -->
<g id="edge58" class="edge"><title>Node1&#45;&gt;Node24</title>
<path fill="none" stroke="midnightblue" d="M1188.74,-284.259C1202.56,-274.364 1219.64,-262.136 1231.6,-253.571"/>
<polygon fill="midnightblue" stroke="midnightblue" points="1186.31,-281.694 1180.22,-290.362 1190.39,-287.386 1186.31,-281.694"/>
</g>
<!-- Node3 -->
<g id="node5" class="node"><title>Node3</title>
<a xlink:href="MojDbExtractor_8h.htm" target="_top" xlink:title="MojDbExtractor.h">
<polygon fill="white" stroke="black" points="770.361,-174.5 770.361,-195.5 868.361,-195.5 868.361,-174.5 770.361,-174.5"/>
<text text-anchor="middle" x="819.361" y="-182.5" font-family="Helvetica,sans-Serif" font-size="10.00">MojDbExtractor.h</text>
</a>
</g>
<!-- Node2&#45;&gt;Node3 -->
<g id="edge4" class="edge"><title>Node2&#45;&gt;Node3</title>
<path fill="none" stroke="midnightblue" d="M998.627,-230.011C957.208,-219.611 899.853,-205.21 861.272,-195.523"/>
<polygon fill="midnightblue" stroke="midnightblue" points="997.977,-233.456 1008.53,-232.497 999.682,-226.667 997.977,-233.456"/>
</g>
<!-- Node21 -->
<g id="node46" class="node"><title>Node21</title>
<a xlink:href="MojDbKey_8cpp.htm" target="_top" xlink:title="MojDbKey.cpp">
<polygon fill="white" stroke="black" points="886.361,-174.5 886.361,-195.5 970.361,-195.5 970.361,-174.5 886.361,-174.5"/>
<text text-anchor="middle" x="928.361" y="-182.5" font-family="Helvetica,sans-Serif" font-size="10.00">MojDbKey.cpp</text>
</a>
</g>
<!-- Node2&#45;&gt;Node21 -->
<g id="edge50" class="edge"><title>Node2&#45;&gt;Node21</title>
<path fill="none" stroke="midnightblue" d="M1018.95,-228.069C997.59,-217.912 969.832,-204.716 950.702,-195.621"/>
<polygon fill="midnightblue" stroke="midnightblue" points="1017.73,-231.364 1028.27,-232.497 1020.74,-225.042 1017.73,-231.364"/>
</g>
<!-- Node22 -->
<g id="node48" class="node"><title>Node22</title>
<a xlink:href="MojDbTextCollator_8cpp.htm" target="_top" xlink:title="MojDbTextCollator.cpp">
<polygon fill="white" stroke="black" points="988.361,-174.5 988.361,-195.5 1112.36,-195.5 1112.36,-174.5 988.361,-174.5"/>
<text text-anchor="middle" x="1050.36" y="-182.5" font-family="Helvetica,sans-Serif" font-size="10.00">MojDbTextCollator.cpp</text>
</a>
</g>
<!-- Node2&#45;&gt;Node22 -->
<g id="edge52" class="edge"><title>Node2&#45;&gt;Node22</title>
<path fill="none" stroke="midnightblue" d="M1050.36,-222.191C1050.36,-213.168 1050.36,-202.994 1050.36,-195.571"/>
<polygon fill="midnightblue" stroke="midnightblue" points="1046.86,-222.362 1050.36,-232.362 1053.86,-222.362 1046.86,-222.362"/>
</g>
<!-- Node2&#45;&gt;Node23 -->
<g id="edge54" class="edge"><title>Node2&#45;&gt;Node23</title>
<path fill="none" stroke="midnightblue" d="M1086.47,-228.751C1112.43,-218.509 1146.87,-204.921 1170.44,-195.621"/>
<polygon fill="midnightblue" stroke="midnightblue" points="1085,-225.571 1076.98,-232.497 1087.57,-232.082 1085,-225.571"/>
</g>
<!-- Node4 -->
<g id="node7" class="node"><title>Node4</title>
<a xlink:href="MojDbIndex_8h.htm" target="_top" xlink:title="MojDbIndex.h">
<polygon fill="white" stroke="black" points="389.861,-116.5 389.861,-137.5 470.861,-137.5 470.861,-116.5 389.861,-116.5"/>
<text text-anchor="middle" x="430.361" y="-124.5" font-family="Helvetica,sans-Serif" font-size="10.00">MojDbIndex.h</text>
</a>
</g>
<!-- Node3&#45;&gt;Node4 -->
<g id="edge6" class="edge"><title>Node3&#45;&gt;Node4</title>
<path fill="none" stroke="midnightblue" d="M760.182,-176.176C680.272,-164.262 539.946,-143.339 470.97,-133.055"/>
<polygon fill="midnightblue" stroke="midnightblue" points="759.687,-179.641 770.094,-177.654 760.719,-172.718 759.687,-179.641"/>
</g>
<!-- Node13 -->
<g id="node25" class="node"><title>Node13</title>
<a xlink:href="MojDbSearchCursor_8cpp.htm" target="_top" xlink:title="MojDbSearchCursor.cpp">
<polygon fill="white" stroke="black" points="907.861,-0.5 907.861,-21.5 1038.86,-21.5 1038.86,-0.5 907.861,-0.5"/>
<text text-anchor="middle" x="973.361" y="-8.5" font-family="Helvetica,sans-Serif" font-size="10.00">MojDbSearchCursor.cpp</text>
</a>
</g>
<!-- Node3&#45;&gt;Node13 -->
<g id="edge48" class="edge"><title>Node3&#45;&gt;Node13</title>
<path fill="none" stroke="midnightblue" d="M835.691,-166.549C867.739,-130.339 937.982,-50.9732 963.689,-21.9277"/>
<polygon fill="midnightblue" stroke="midnightblue" points="832.769,-164.569 828.762,-174.377 838.011,-169.209 832.769,-164.569"/>
</g>
<!-- Node18 -->
<g id="node38" class="node"><title>Node18</title>
<a xlink:href="MojDbRevisionSet_8h.htm" target="_top" xlink:title="MojDbRevisionSet.h">
<polygon fill="white" stroke="black" points="719.861,-116.5 719.861,-137.5 830.861,-137.5 830.861,-116.5 719.861,-116.5"/>
<text text-anchor="middle" x="775.361" y="-124.5" font-family="Helvetica,sans-Serif" font-size="10.00">MojDbRevisionSet.h</text>
</a>
</g>
<!-- Node3&#45;&gt;Node18 -->
<g id="edge40" class="edge"><title>Node3&#45;&gt;Node18</title>
<path fill="none" stroke="midnightblue" d="M805.137,-166.25C797.93,-156.75 789.445,-145.565 783.38,-137.571"/>
<polygon fill="midnightblue" stroke="midnightblue" points="802.458,-168.51 811.291,-174.362 808.035,-164.28 802.458,-168.51"/>
</g>
<!-- Node20 -->
<g id="node43" class="node"><title>Node20</title>
<a xlink:href="MojDbExtractor_8cpp.htm" target="_top" xlink:title="MojDbExtractor.cpp">
<polygon fill="white" stroke="black" points="891.861,-116.5 891.861,-137.5 1000.86,-137.5 1000.86,-116.5 891.861,-116.5"/>
<text text-anchor="middle" x="946.361" y="-124.5" font-family="Helvetica,sans-Serif" font-size="10.00">MojDbExtractor.cpp</text>
</a>
</g>
<!-- Node3&#45;&gt;Node20 -->
<g id="edge46" class="edge"><title>Node3&#45;&gt;Node20</title>
<path fill="none" stroke="midnightblue" d="M851.754,-170.206C874.034,-160.031 903.1,-146.757 923.104,-137.621"/>
<polygon fill="midnightblue" stroke="midnightblue" points="850.002,-167.159 842.36,-174.497 852.91,-173.526 850.002,-167.159"/>
</g>
<!-- Node5 -->
<g id="node9" class="node"><title>Node5</title>
<a xlink:href="MojDbKind_8h.htm" target="_top" xlink:title="MojDbKind.h">
<polygon fill="white" stroke="black" points="582.361,-58.5 582.361,-79.5 658.361,-79.5 658.361,-58.5 582.361,-58.5"/>
<text text-anchor="middle" x="620.361" y="-66.5" font-family="Helvetica,sans-Serif" font-size="10.00">MojDbKind.h</text>
</a>
</g>
<!-- Node4&#45;&gt;Node5 -->
<g id="edge8" class="edge"><title>Node4&#45;&gt;Node5</title>
<path fill="none" stroke="midnightblue" d="M474.433,-113.546C508.373,-103.186 554.625,-89.0668 585.889,-79.5231"/>
<polygon fill="midnightblue" stroke="midnightblue" points="473.311,-110.229 464.768,-116.497 475.355,-116.924 473.311,-110.229"/>
</g>
<!-- Node8 -->
<g id="node15" class="node"><title>Node8</title>
<a xlink:href="MojDbIndex_8cpp.htm" target="_top" xlink:title="MojDbIndex.cpp">
<polygon fill="white" stroke="black" points="150.361,-0.5 150.361,-21.5 242.361,-21.5 242.361,-0.5 150.361,-0.5"/>
<text text-anchor="middle" x="196.361" y="-8.5" font-family="Helvetica,sans-Serif" font-size="10.00">MojDbIndex.cpp</text>
</a>
</g>
<!-- Node4&#45;&gt;Node8 -->
<g id="edge28" class="edge"><title>Node4&#45;&gt;Node8</title>
<path fill="none" stroke="midnightblue" d="M430.113,-106.273C428.786,-90.8403 424.422,-70.3809 411.361,-58 408.263,-55.0635 304.67,-33.3133 242.432,-20.4541"/>
<polygon fill="midnightblue" stroke="midnightblue" points="426.626,-106.623 430.623,-116.435 433.617,-106.272 426.626,-106.623"/>
</g>
<!-- Node9 -->
<g id="node17" class="node"><title>Node9</title>
<a xlink:href="MojDbKind_8cpp.htm" target="_top" xlink:title="MojDbKind.cpp">
<polygon fill="white" stroke="black" points="11.8608,-0.5 11.8608,-21.5 98.8608,-21.5 98.8608,-0.5 11.8608,-0.5"/>
<text text-anchor="middle" x="55.3608" y="-8.5" font-family="Helvetica,sans-Serif" font-size="10.00">MojDbKind.cpp</text>
</a>
</g>
<!-- Node4&#45;&gt;Node9 -->
<g id="edge30" class="edge"><title>Node4&#45;&gt;Node9</title>
<path fill="none" stroke="midnightblue" d="M379.216,-125.098C271.664,-120.572 29.9234,-107.429 5.36082,-80 -11.91,-60.7139 17.7966,-35.5518 38.3244,-21.5597"/>
<polygon fill="midnightblue" stroke="midnightblue" points="379.365,-128.607 389.501,-125.522 379.654,-121.613 379.365,-128.607"/>
</g>
<!-- Node4&#45;&gt;Node13 -->
<g id="edge34" class="edge"><title>Node4&#45;&gt;Node13</title>
<path fill="none" stroke="midnightblue" d="M480.904,-121.857C529.811,-115.757 605.427,-103.332 667.361,-80 685.623,-73.1201 687.024,-64.6771 705.361,-58 724.087,-51.1815 834.576,-32.9299 907.715,-21.2809"/>
<polygon fill="midnightblue" stroke="midnightblue" points="480.396,-118.392 470.887,-123.064 481.234,-125.342 480.396,-118.392"/>
</g>
<!-- Node14 -->
<g id="node27" class="node"><title>Node14</title>
<a xlink:href="MojDbCursor_8cpp.htm" target="_top" xlink:title="MojDbCursor.cpp">
<polygon fill="white" stroke="black" points="14.3608,-58.5 14.3608,-79.5 112.361,-79.5 112.361,-58.5 14.3608,-58.5"/>
<text text-anchor="middle" x="63.3608" y="-66.5" font-family="Helvetica,sans-Serif" font-size="10.00">MojDbCursor.cpp</text>
</a>
</g>
<!-- Node4&#45;&gt;Node14 -->
<g id="edge26" class="edge"><title>Node4&#45;&gt;Node14</title>
<path fill="none" stroke="midnightblue" d="M379.618,-119.861C318.321,-111.104 212.121,-95.5038 121.361,-80 118.431,-79.4995 115.421,-78.9713 112.386,-78.428"/>
<polygon fill="midnightblue" stroke="midnightblue" points="379.4,-123.365 389.793,-121.311 380.387,-116.435 379.4,-123.365"/>
</g>
<!-- Node15 -->
<g id="node31" class="node"><title>Node15</title>
<a xlink:href="MojDbQueryPlan_8cpp.htm" target="_top" xlink:title="MojDbQueryPlan.cpp">
<polygon fill="white" stroke="black" points="130.361,-58.5 130.361,-79.5 246.361,-79.5 246.361,-58.5 130.361,-58.5"/>
<text text-anchor="middle" x="188.361" y="-66.5" font-family="Helvetica,sans-Serif" font-size="10.00">MojDbQueryPlan.cpp</text>
</a>
</g>
<!-- Node4&#45;&gt;Node15 -->
<g id="edge32" class="edge"><title>Node4&#45;&gt;Node15</title>
<path fill="none" stroke="midnightblue" d="M380.023,-114.936C336.398,-104.48 273.908,-89.5031 232.277,-79.5254"/>
<polygon fill="midnightblue" stroke="midnightblue" points="379.315,-118.365 389.855,-117.292 380.947,-111.558 379.315,-118.365"/>
</g>
<!-- Node16 -->
<g id="node34" class="node"><title>Node16</title>
<a xlink:href="MojDbServiceHandler_8cpp.htm" target="_top" xlink:title="MojDbServiceHandler.cpp">
<polygon fill="white" stroke="black" points="263.861,-58.5 263.861,-79.5 402.861,-79.5 402.861,-58.5 263.861,-58.5"/>
<text text-anchor="middle" x="333.361" y="-66.5" font-family="Helvetica,sans-Serif" font-size="10.00">MojDbServiceHandler.cpp</text>
</a>
</g>
<!-- Node4&#45;&gt;Node16 -->
<g id="edge36" class="edge"><title>Node4&#45;&gt;Node16</title>
<path fill="none" stroke="midnightblue" d="M403.771,-111.101C386.988,-101.066 365.774,-88.3808 351.039,-79.5707"/>
<polygon fill="midnightblue" stroke="midnightblue" points="402.191,-114.234 412.57,-116.362 405.783,-108.226 402.191,-114.234"/>
</g>
<!-- Node17 -->
<g id="node36" class="node"><title>Node17</title>
<a xlink:href="MojDbWatcher_8cpp.htm" target="_top" xlink:title="MojDbWatcher.cpp">
<polygon fill="white" stroke="black" points="458.361,-58.5 458.361,-79.5 564.361,-79.5 564.361,-58.5 458.361,-58.5"/>
<text text-anchor="middle" x="511.361" y="-66.5" font-family="Helvetica,sans-Serif" font-size="10.00">MojDbWatcher.cpp</text>
</a>
</g>
<!-- Node4&#45;&gt;Node17 -->
<g id="edge38" class="edge"><title>Node4&#45;&gt;Node17</title>
<path fill="none" stroke="midnightblue" d="M453.741,-110.259C467.559,-100.364 484.636,-88.1361 496.598,-79.5707"/>
<polygon fill="midnightblue" stroke="midnightblue" points="451.31,-107.694 445.217,-116.362 455.386,-113.386 451.31,-107.694"/>
</g>
<!-- Node6 -->
<g id="node11" class="node"><title>Node6</title>
<a xlink:href="MojDb_8cpp.htm" target="_top" xlink:title="MojDb.cpp">
<polygon fill="white" stroke="black" points="824.361,-0.5 824.361,-21.5 890.361,-21.5 890.361,-0.5 824.361,-0.5"/>
<text text-anchor="middle" x="857.361" y="-8.5" font-family="Helvetica,sans-Serif" font-size="10.00">MojDb.cpp</text>
</a>
</g>
<!-- Node5&#45;&gt;Node6 -->
<g id="edge10" class="edge"><title>Node5&#45;&gt;Node6</title>
<path fill="none" stroke="midnightblue" d="M668.421,-57.6937C707.93,-48.3327 765.341,-34.5769 815.361,-22 818.139,-21.3015 821.017,-20.5681 823.905,-19.8254"/>
<polygon fill="midnightblue" stroke="midnightblue" points="667.453,-54.3261 658.528,-60.0347 669.065,-61.1381 667.453,-54.3261"/>
</g>
<!-- Node7 -->
<g id="node13" class="node"><title>Node7</title>
<a xlink:href="MojDbAdmin_8cpp.htm" target="_top" xlink:title="MojDbAdmin.cpp">
<polygon fill="white" stroke="black" points="259.861,-0.5 259.861,-21.5 354.861,-21.5 354.861,-0.5 259.861,-0.5"/>
<text text-anchor="middle" x="307.361" y="-8.5" font-family="Helvetica,sans-Serif" font-size="10.00">MojDbAdmin.cpp</text>
</a>
</g>
<!-- Node5&#45;&gt;Node7 -->
<g id="edge12" class="edge"><title>Node5&#45;&gt;Node7</title>
<path fill="none" stroke="midnightblue" d="M572.311,-57.8711C478.877,-39.178 453.402,-38.5586 363.361,-22 360.632,-21.4982 357.831,-20.9746 355.005,-20.44"/>
<polygon fill="midnightblue" stroke="midnightblue" points="571.689,-61.316 582.183,-59.8624 573.073,-54.4542 571.689,-61.316"/>
</g>
<!-- Node5&#45;&gt;Node8 -->
<g id="edge14" class="edge"><title>Node5&#45;&gt;Node8</title>
<path fill="none" stroke="midnightblue" d="M572.228,-57.9685C429.698,-34.0084 390.455,-43.6438 251.361,-22 248.474,-21.5508 245.509,-21.0559 242.523,-20.532"/>
<polygon fill="midnightblue" stroke="midnightblue" points="571.772,-61.4413 582.219,-59.6741 572.95,-54.5411 571.772,-61.4413"/>
</g>
<!-- Node5&#45;&gt;Node9 -->
<g id="edge16" class="edge"><title>Node5&#45;&gt;Node9</title>
<path fill="none" stroke="midnightblue" d="M572.151,-58.0017C381.297,-28.4438 329.687,-41.8813 141.361,-22 127.589,-20.5462 112.609,-18.7166 99.0676,-16.9692"/>
<polygon fill="midnightblue" stroke="midnightblue" points="571.812,-61.4913 582.234,-59.5829 572.897,-54.5758 571.812,-61.4913"/>
</g>
<!-- Node10 -->
<g id="node19" class="node"><title>Node10</title>
<a xlink:href="MojDbKindEngine_8cpp.htm" target="_top" xlink:title="MojDbKindEngine.cpp">
<polygon fill="white" stroke="black" points="372.361,-0.5 372.361,-21.5 492.361,-21.5 492.361,-0.5 372.361,-0.5"/>
<text text-anchor="middle" x="432.361" y="-8.5" font-family="Helvetica,sans-Serif" font-size="10.00">MojDbKindEngine.cpp</text>
</a>
</g>
<!-- Node5&#45;&gt;Node10 -->
<g id="edge18" class="edge"><title>Node5&#45;&gt;Node10</title>
<path fill="none" stroke="midnightblue" d="M576.752,-55.5464C543.17,-45.1857 497.405,-31.0668 466.47,-21.5231"/>
<polygon fill="midnightblue" stroke="midnightblue" points="575.728,-58.893 586.315,-58.4966 577.792,-52.2041 575.728,-58.893"/>
</g>
<!-- Node11 -->
<g id="node21" class="node"><title>Node11</title>
<a xlink:href="MojDbPermissionEngine_8cpp.htm" target="_top" xlink:title="MojDbPermissionEngine.cpp">
<polygon fill="white" stroke="black" points="509.861,-0.5 509.861,-21.5 660.861,-21.5 660.861,-0.5 509.861,-0.5"/>
<text text-anchor="middle" x="585.361" y="-8.5" font-family="Helvetica,sans-Serif" font-size="10.00">MojDbPermissionEngine.cpp</text>
</a>
</g>
<!-- Node5&#45;&gt;Node11 -->
<g id="edge20" class="edge"><title>Node5&#45;&gt;Node11</title>
<path fill="none" stroke="midnightblue" d="M608.694,-49.6667C603.039,-40.2948 596.465,-29.4019 591.74,-21.5707"/>
<polygon fill="midnightblue" stroke="midnightblue" points="605.778,-51.6084 613.941,-58.3619 611.771,-47.9917 605.778,-51.6084"/>
</g>
<!-- Node12 -->
<g id="node23" class="node"><title>Node12</title>
<a xlink:href="MojDbQuotaEngine_8cpp.htm" target="_top" xlink:title="MojDbQuotaEngine.cpp">
<polygon fill="white" stroke="black" points="678.361,-0.5 678.361,-21.5 806.361,-21.5 806.361,-0.5 678.361,-0.5"/>
<text text-anchor="middle" x="742.361" y="-8.5" font-family="Helvetica,sans-Serif" font-size="10.00">MojDbQuotaEngine.cpp</text>
</a>
</g>
<!-- Node5&#45;&gt;Node12 -->
<g id="edge22" class="edge"><title>Node5&#45;&gt;Node12</title>
<path fill="none" stroke="midnightblue" d="M651.767,-54.0693C673.132,-43.9121 700.89,-30.7157 720.02,-21.6212"/>
<polygon fill="midnightblue" stroke="midnightblue" points="649.983,-51.042 642.454,-58.4966 652.988,-57.364 649.983,-51.042"/>
</g>
<!-- Node5&#45;&gt;Node13 -->
<g id="edge24" class="edge"><title>Node5&#45;&gt;Node13</title>
<path fill="none" stroke="midnightblue" d="M668.488,-58.7242C669.792,-58.4764 671.085,-58.2345 672.361,-58 716.252,-49.9369 833.069,-32.0815 907.598,-20.8472"/>
<polygon fill="midnightblue" stroke="midnightblue" points="667.506,-55.3501 658.37,-60.7143 668.857,-62.2184 667.506,-55.3501"/>
</g>
<!-- Node18&#45;&gt;Node5 -->
<g id="edge42" class="edge"><title>Node18&#45;&gt;Node5</title>
<path fill="none" stroke="midnightblue" d="M737.611,-112.874C710.105,-102.582 673.44,-88.862 648.483,-79.5231"/>
<polygon fill="midnightblue" stroke="midnightblue" points="736.699,-116.27 747.291,-116.497 739.152,-109.714 736.699,-116.27"/>
</g>
<!-- Node19 -->
<g id="node41" class="node"><title>Node19</title>
<a xlink:href="MojDbRevisionSet_8cpp.htm" target="_top" xlink:title="MojDbRevisionSet.cpp">
<polygon fill="white" stroke="black" points="714.361,-58.5 714.361,-79.5 836.361,-79.5 836.361,-58.5 714.361,-58.5"/>
<text text-anchor="middle" x="775.361" y="-66.5" font-family="Helvetica,sans-Serif" font-size="10.00">MojDbRevisionSet.cpp</text>
</a>
</g>
<!-- Node18&#45;&gt;Node19 -->
<g id="edge44" class="edge"><title>Node18&#45;&gt;Node19</title>
<path fill="none" stroke="midnightblue" d="M775.361,-106.191C775.361,-97.1684 775.361,-86.9941 775.361,-79.5707"/>
<polygon fill="midnightblue" stroke="midnightblue" points="771.861,-106.362 775.361,-116.362 778.861,-106.362 771.861,-106.362"/>
</g>
</g>
</svg>
