<?xml version="1.0" encoding="UTF-8" standalone="no"?>
<!DOCTYPE svg PUBLIC "-//W3C//DTD SVG 1.1//EN"
 "http://www.w3.org/Graphics/SVG/1.1/DTD/svg11.dtd">
<!-- Generated by graphviz version 2.26.3 (20100126.1600)
 -->
<!-- Title: MojDataSerialization.h Pages: 1 -->
<svg width="951pt" height="696pt"
 viewBox="0.00 0.00 950.64 696.00" xmlns="http://www.w3.org/2000/svg" xmlns:xlink="http://www.w3.org/1999/xlink">
<g id="graph1" class="graph" transform="scale(1 1) rotate(0) translate(4 692)">
<title>MojDataSerialization.h</title>
<polygon fill="white" stroke="white" points="-4,5 -4,-692 947.637,-692 947.637,5 -4,5"/>
<!-- Node1 -->
<g id="node1" class="node"><title>Node1</title>
<polygon fill="#bfbfbf" stroke="black" points="790.517,-666.5 790.517,-687.5 912.517,-687.5 912.517,-666.5 790.517,-666.5"/>
<text text-anchor="middle" x="851.517" y="-674.5" font-family="Helvetica,sans-Serif" font-size="10.00">MojDataSerialization.h</text>
</g>
<!-- Node2 -->
<g id="node3" class="node"><title>Node2</title>
<a xlink:href="MojCoreDefs_8h.htm" target="_top" xlink:title="core/MojCoreDefs.h">
<polygon fill="white" stroke="black" points="486.017,-232.5 486.017,-253.5 597.017,-253.5 597.017,-232.5 486.017,-232.5"/>
<text text-anchor="middle" x="541.517" y="-240.5" font-family="Helvetica,sans-Serif" font-size="10.00">core/MojCoreDefs.h</text>
</a>
</g>
<!-- Node1&#45;&gt;Node2 -->
<g id="edge2" class="edge"><title>Node1&#45;&gt;Node2</title>
<path fill="none" stroke="midnightblue" d="M868.208,-666.403C894.479,-648.272 942.517,-608.609 942.517,-561 942.517,-561 942.517,-561 942.517,-366 942.517,-352.181 944.433,-334.196 833.517,-290 793.484,-274.048 680.412,-258.809 607.293,-250.206"/>
<polygon fill="midnightblue" stroke="midnightblue" points="607.591,-246.717 597.253,-249.036 606.781,-253.67 607.591,-246.717"/>
</g>
<!-- Node12 -->
<g id="node23" class="node"><title>Node12</title>
<a xlink:href="MojBuffer_8h.htm" target="_top" xlink:title="core/MojBuffer.h">
<polygon fill="white" stroke="black" points="714.517,-608.5 714.517,-629.5 808.517,-629.5 808.517,-608.5 714.517,-608.5"/>
<text text-anchor="middle" x="761.517" y="-616.5" font-family="Helvetica,sans-Serif" font-size="10.00">core/MojBuffer.h</text>
</a>
</g>
<!-- Node1&#45;&gt;Node12 -->
<g id="edge22" class="edge"><title>Node1&#45;&gt;Node12</title>
<path fill="none" stroke="midnightblue" d="M835.01,-666.362C821.435,-657.614 801.984,-645.079 786.502,-635.101"/>
<polygon fill="midnightblue" stroke="midnightblue" points="788.222,-632.046 777.92,-629.571 784.43,-637.93 788.222,-632.046"/>
</g>
<!-- Node3 -->
<g id="node5" class="node"><title>Node3</title>
<a xlink:href="MojConfig_8h.htm" target="_top" xlink:title="core/internal/MojConfig.h">
<polygon fill="white" stroke="black" points="599.017,-174.5 599.017,-195.5 734.017,-195.5 734.017,-174.5 599.017,-174.5"/>
<text text-anchor="middle" x="666.517" y="-182.5" font-family="Helvetica,sans-Serif" font-size="10.00">core/internal/MojConfig.h</text>
</a>
</g>
<!-- Node2&#45;&gt;Node3 -->
<g id="edge4" class="edge"><title>Node2&#45;&gt;Node3</title>
<path fill="none" stroke="midnightblue" d="M564.154,-232.497C583.765,-223.397 612.364,-210.127 634.351,-199.925"/>
<polygon fill="midnightblue" stroke="midnightblue" points="636.029,-203.005 643.627,-195.621 633.082,-196.655 636.029,-203.005"/>
</g>
<!-- Node4 -->
<g id="node7" class="node"><title>Node4</title>
<a xlink:href="MojNew_8h.htm" target="_top" xlink:title="core/internal/MojNew.h">
<polygon fill="white" stroke="black" points="261.017,-174.5 261.017,-195.5 386.017,-195.5 386.017,-174.5 261.017,-174.5"/>
<text text-anchor="middle" x="323.517" y="-182.5" font-family="Helvetica,sans-Serif" font-size="10.00">core/internal/MojNew.h</text>
</a>
</g>
<!-- Node2&#45;&gt;Node4 -->
<g id="edge6" class="edge"><title>Node2&#45;&gt;Node4</title>
<path fill="none" stroke="midnightblue" d="M502.039,-232.497C465.884,-222.877 412.214,-208.598 373.165,-198.209"/>
<polygon fill="midnightblue" stroke="midnightblue" points="373.633,-194.712 363.069,-195.523 371.833,-201.477 373.633,-194.712"/>
</g>
<!-- Node6 -->
<g id="node11" class="node"><title>Node6</title>
<a xlink:href="MojErr_8h.htm" target="_top" xlink:title="core/MojErr.h">
<polygon fill="white" stroke="black" points="403.517,-174.5 403.517,-195.5 483.517,-195.5 483.517,-174.5 403.517,-174.5"/>
<text text-anchor="middle" x="443.517" y="-182.5" font-family="Helvetica,sans-Serif" font-size="10.00">core/MojErr.h</text>
</a>
</g>
<!-- Node2&#45;&gt;Node6 -->
<g id="edge10" class="edge"><title>Node2&#45;&gt;Node6</title>
<path fill="none" stroke="midnightblue" d="M523.542,-232.362C508.623,-223.532 487.185,-210.844 470.252,-200.822"/>
<polygon fill="midnightblue" stroke="midnightblue" points="471.766,-197.652 461.378,-195.571 468.201,-203.676 471.766,-197.652"/>
</g>
<!-- Node10 -->
<g id="node19" class="node"><title>Node10</title>
<a xlink:href="MojOs_8h.htm" target="_top" xlink:title="core/MojOs.h">
<polygon fill="white" stroke="black" points="501.517,-174.5 501.517,-195.5 581.517,-195.5 581.517,-174.5 501.517,-174.5"/>
<text text-anchor="middle" x="541.517" y="-182.5" font-family="Helvetica,sans-Serif" font-size="10.00">core/MojOs.h</text>
</a>
</g>
<!-- Node2&#45;&gt;Node10 -->
<g id="edge18" class="edge"><title>Node2&#45;&gt;Node10</title>
<path fill="none" stroke="midnightblue" d="M541.517,-232.362C541.517,-224.922 541.517,-214.743 541.517,-205.728"/>
<polygon fill="midnightblue" stroke="midnightblue" points="545.017,-205.571 541.517,-195.571 538.017,-205.571 545.017,-205.571"/>
</g>
<!-- Node5 -->
<g id="node9" class="node"><title>Node5</title>
<polygon fill="white" stroke="#bfbfbf" points="305.517,-116.5 305.517,-137.5 341.517,-137.5 341.517,-116.5 305.517,-116.5"/>
<text text-anchor="middle" x="323.517" y="-124.5" font-family="Helvetica,sans-Serif" font-size="10.00">new</text>
</g>
<!-- Node4&#45;&gt;Node5 -->
<g id="edge8" class="edge"><title>Node4&#45;&gt;Node5</title>
<path fill="none" stroke="midnightblue" d="M323.517,-174.362C323.517,-166.922 323.517,-156.743 323.517,-147.728"/>
<polygon fill="midnightblue" stroke="midnightblue" points="327.017,-147.571 323.517,-137.571 320.017,-147.571 327.017,-147.571"/>
</g>
<!-- Node7 -->
<g id="node13" class="node"><title>Node7</title>
<a xlink:href="MojLog_8h.htm" target="_top" xlink:title="core/MojLog.h">
<polygon fill="white" stroke="black" points="360.517,-116.5 360.517,-137.5 444.517,-137.5 444.517,-116.5 360.517,-116.5"/>
<text text-anchor="middle" x="402.517" y="-124.5" font-family="Helvetica,sans-Serif" font-size="10.00">core/MojLog.h</text>
</a>
</g>
<!-- Node6&#45;&gt;Node7 -->
<g id="edge12" class="edge"><title>Node6&#45;&gt;Node7</title>
<path fill="none" stroke="midnightblue" d="M435.997,-174.362C430.391,-166.431 422.585,-155.389 415.92,-145.961"/>
<polygon fill="midnightblue" stroke="midnightblue" points="418.62,-143.716 409.99,-137.571 412.904,-147.757 418.62,-143.716"/>
</g>
<!-- Node8 -->
<g id="node15" class="node"><title>Node8</title>
<a xlink:href="MojListEntry_8h.htm" target="_top" xlink:title="core/MojListEntry.h">
<polygon fill="white" stroke="black" points="163.017,-58.5 163.017,-79.5 270.017,-79.5 270.017,-58.5 163.017,-58.5"/>
<text text-anchor="middle" x="216.517" y="-66.5" font-family="Helvetica,sans-Serif" font-size="10.00">core/MojListEntry.h</text>
</a>
</g>
<!-- Node7&#45;&gt;Node8 -->
<g id="edge14" class="edge"><title>Node7&#45;&gt;Node8</title>
<path fill="none" stroke="midnightblue" d="M368.834,-116.497C338.38,-107 293.361,-92.9619 260.159,-82.6087"/>
<polygon fill="midnightblue" stroke="midnightblue" points="260.852,-79.1587 250.264,-79.5231 258.768,-85.8414 260.852,-79.1587"/>
</g>
<!-- Node9 -->
<g id="node17" class="node"><title>Node9</title>
<a xlink:href="MojNoCopy_8h.htm" target="_top" xlink:title="core/MojNoCopy.h">
<polygon fill="white" stroke="black" points="56.5172,-0.5 56.5172,-21.5 160.517,-21.5 160.517,-0.5 56.5172,-0.5"/>
<text text-anchor="middle" x="108.517" y="-8.5" font-family="Helvetica,sans-Serif" font-size="10.00">core/MojNoCopy.h</text>
</a>
</g>
<!-- Node8&#45;&gt;Node9 -->
<g id="edge16" class="edge"><title>Node8&#45;&gt;Node9</title>
<path fill="none" stroke="midnightblue" d="M196.959,-58.4966C180.319,-49.5602 156.19,-36.602 137.337,-26.4772"/>
<polygon fill="midnightblue" stroke="midnightblue" points="138.761,-23.2691 128.295,-21.6212 135.449,-29.436 138.761,-23.2691"/>
</g>
<!-- Node11 -->
<g id="node21" class="node"><title>Node11</title>
<a xlink:href="MojOsInternal_8h.htm" target="_top" xlink:title="core/internal/MojOsInternal.h">
<polygon fill="white" stroke="black" points="464.517,-116.5 464.517,-137.5 618.517,-137.5 618.517,-116.5 464.517,-116.5"/>
<text text-anchor="middle" x="541.517" y="-124.5" font-family="Helvetica,sans-Serif" font-size="10.00">core/internal/MojOsInternal.h</text>
</a>
</g>
<!-- Node10&#45;&gt;Node11 -->
<g id="edge20" class="edge"><title>Node10&#45;&gt;Node11</title>
<path fill="none" stroke="midnightblue" d="M541.517,-174.362C541.517,-166.922 541.517,-156.743 541.517,-147.728"/>
<polygon fill="midnightblue" stroke="midnightblue" points="545.017,-147.571 541.517,-137.571 538.017,-147.571 545.017,-147.571"/>
</g>
<!-- Node12&#45;&gt;Node2 -->
<g id="edge24" class="edge"><title>Node12&#45;&gt;Node2</title>
<path fill="none" stroke="midnightblue" d="M795.044,-608.446C837.311,-592.801 904.517,-559.103 904.517,-503 904.517,-503 904.517,-503 904.517,-366 904.517,-303.938 711.781,-267.014 607.189,-251.545"/>
<polygon fill="midnightblue" stroke="midnightblue" points="607.444,-248.045 597.044,-250.071 606.437,-254.973 607.444,-248.045"/>
</g>
<!-- Node13 -->
<g id="node26" class="node"><title>Node13</title>
<a xlink:href="MojAutoPtr_8h.htm" target="_top" xlink:title="core/MojAutoPtr.h">
<polygon fill="white" stroke="black" points="119.017,-427.5 119.017,-448.5 220.017,-448.5 220.017,-427.5 119.017,-427.5"/>
<text text-anchor="middle" x="169.517" y="-435.5" font-family="Helvetica,sans-Serif" font-size="10.00">core/MojAutoPtr.h</text>
</a>
</g>
<!-- Node12&#45;&gt;Node13 -->
<g id="edge26" class="edge"><title>Node12&#45;&gt;Node13</title>
<path fill="none" stroke="midnightblue" d="M714.294,-616.354C623.638,-609.713 420.719,-587.211 268.517,-514 237.22,-498.945 206.305,-472.95 187.562,-455.616"/>
<polygon fill="midnightblue" stroke="midnightblue" points="189.754,-452.871 180.079,-448.552 184.949,-457.962 189.754,-452.871"/>
</g>
<!-- Node16 -->
<g id="node35" class="node"><title>Node16</title>
<a xlink:href="MojList_8h.htm" target="_top" xlink:title="core/MojList.h">
<polygon fill="white" stroke="black" points="720.017,-550.5 720.017,-571.5 803.017,-571.5 803.017,-550.5 720.017,-550.5"/>
<text text-anchor="middle" x="761.517" y="-558.5" font-family="Helvetica,sans-Serif" font-size="10.00">core/MojList.h</text>
</a>
</g>
<!-- Node12&#45;&gt;Node16 -->
<g id="edge38" class="edge"><title>Node12&#45;&gt;Node16</title>
<path fill="none" stroke="midnightblue" d="M761.517,-608.362C761.517,-600.922 761.517,-590.743 761.517,-581.728"/>
<polygon fill="midnightblue" stroke="midnightblue" points="765.017,-581.571 761.517,-571.571 758.017,-581.571 765.017,-581.571"/>
</g>
<!-- Node18 -->
<g id="node40" class="node"><title>Node18</title>
<a xlink:href="MojVector_8h.htm" target="_top" xlink:title="core/MojVector.h">
<polygon fill="white" stroke="black" points="512.017,-550.5 512.017,-571.5 609.017,-571.5 609.017,-550.5 512.017,-550.5"/>
<text text-anchor="middle" x="560.517" y="-558.5" font-family="Helvetica,sans-Serif" font-size="10.00">core/MojVector.h</text>
</a>
</g>
<!-- Node12&#45;&gt;Node18 -->
<g id="edge44" class="edge"><title>Node12&#45;&gt;Node18</title>
<path fill="none" stroke="midnightblue" d="M725.118,-608.497C691.924,-598.918 642.718,-584.72 606.753,-574.342"/>
<polygon fill="midnightblue" stroke="midnightblue" points="607.563,-570.933 596.985,-571.523 605.623,-577.658 607.563,-570.933"/>
</g>
<!-- Node13&#45;&gt;Node2 -->
<g id="edge28" class="edge"><title>Node13&#45;&gt;Node2</title>
<path fill="none" stroke="midnightblue" d="M174.769,-427.317C189.349,-398.983 233.382,-321.914 295.517,-290 326.293,-274.193 413.87,-259.876 475.735,-251.305"/>
<polygon fill="midnightblue" stroke="midnightblue" points="476.38,-254.749 485.814,-249.927 475.432,-247.814 476.38,-254.749"/>
</g>
<!-- Node13&#45;&gt;Node9 -->
<g id="edge34" class="edge"><title>Node13&#45;&gt;Node9</title>
<path fill="none" stroke="midnightblue" d="M118.691,-432.077C86.106,-425.619 45.3966,-412.135 20.5172,-384 -4.55157,-355.651 1.51719,-338.843 1.51719,-301 1.51719,-301 1.51719,-301 1.51719,-127 1.51719,-81.2414 47.0587,-45.8162 78.7195,-26.7173"/>
<polygon fill="midnightblue" stroke="midnightblue" points="80.7405,-29.5912 87.6325,-21.5444 77.2267,-23.537 80.7405,-29.5912"/>
</g>
<!-- Node14 -->
<g id="node29" class="node"><title>Node14</title>
<a xlink:href="MojAtomicInt_8h.htm" target="_top" xlink:title="core/MojAtomicInt.h">
<polygon fill="white" stroke="black" points="253.517,-355.5 253.517,-376.5 363.517,-376.5 363.517,-355.5 253.517,-355.5"/>
<text text-anchor="middle" x="308.517" y="-363.5" font-family="Helvetica,sans-Serif" font-size="10.00">core/MojAtomicInt.h</text>
</a>
</g>
<!-- Node13&#45;&gt;Node14 -->
<g id="edge30" class="edge"><title>Node13&#45;&gt;Node14</title>
<path fill="none" stroke="midnightblue" d="M190.027,-427.376C213.536,-415.199 252.259,-395.141 279.006,-381.286"/>
<polygon fill="midnightblue" stroke="midnightblue" points="280.653,-384.375 287.923,-376.667 277.434,-378.159 280.653,-384.375"/>
</g>
<!-- Node15 -->
<g id="node33" class="node"><title>Node15</title>
<a xlink:href="MojAutoPtrInternal_8h.htm" target="_top" xlink:title="core/internal/MojAutoPtr\lInternal.h">
<polygon fill="white" stroke="black" points="29.0172,-349 29.0172,-383 160.017,-383 160.017,-349 29.0172,-349"/>
<text text-anchor="start" x="37.0172" y="-370" font-family="Helvetica,sans-Serif" font-size="10.00">core/internal/MojAutoPtr</text>
<text text-anchor="middle" x="94.5172" y="-357" font-family="Helvetica,sans-Serif" font-size="10.00">Internal.h</text>
</a>
</g>
<!-- Node13&#45;&gt;Node15 -->
<g id="edge36" class="edge"><title>Node13&#45;&gt;Node15</title>
<path fill="none" stroke="midnightblue" d="M158.451,-427.376C148.3,-417.632 132.892,-402.84 119.746,-390.22"/>
<polygon fill="midnightblue" stroke="midnightblue" points="121.962,-387.495 112.324,-383.094 117.114,-392.545 121.962,-387.495"/>
</g>
<!-- Node14&#45;&gt;Node2 -->
<g id="edge32" class="edge"><title>Node14&#45;&gt;Node2</title>
<path fill="none" stroke="midnightblue" d="M328.787,-355.3C370.202,-333.437 464.65,-283.578 512.534,-258.3"/>
<polygon fill="midnightblue" stroke="midnightblue" points="514.251,-261.352 521.46,-253.588 510.983,-255.161 514.251,-261.352"/>
</g>
<!-- Node16&#45;&gt;Node2 -->
<g id="edge40" class="edge"><title>Node16&#45;&gt;Node2</title>
<path fill="none" stroke="midnightblue" d="M746.166,-550.38C734.934,-541.818 720.199,-528.796 711.517,-514 693.896,-483.971 692.517,-472.817 692.517,-438 692.517,-438 692.517,-438 692.517,-366 692.517,-328.432 682.893,-315.728 655.517,-290 639.155,-274.622 617.063,-263.956 596.684,-256.721"/>
<polygon fill="midnightblue" stroke="midnightblue" points="597.754,-253.389 587.16,-253.537 595.534,-260.027 597.754,-253.389"/>
</g>
<!-- Node17 -->
<g id="node38" class="node"><title>Node17</title>
<a xlink:href="MojListInternal_8h.htm" target="_top" xlink:title="core/internal/MojListInternal.h">
<polygon fill="white" stroke="black" points="720.017,-492.5 720.017,-513.5 877.017,-513.5 877.017,-492.5 720.017,-492.5"/>
<text text-anchor="middle" x="798.517" y="-500.5" font-family="Helvetica,sans-Serif" font-size="10.00">core/internal/MojListInternal.h</text>
</a>
</g>
<!-- Node16&#45;&gt;Node17 -->
<g id="edge42" class="edge"><title>Node16&#45;&gt;Node17</title>
<path fill="none" stroke="midnightblue" d="M768.304,-550.362C773.311,-542.513 780.262,-531.616 786.235,-522.253"/>
<polygon fill="midnightblue" stroke="midnightblue" points="789.346,-523.884 791.774,-513.571 783.445,-520.119 789.346,-523.884"/>
</g>
<!-- Node18&#45;&gt;Node2 -->
<g id="edge46" class="edge"><title>Node18&#45;&gt;Node2</title>
<path fill="none" stroke="midnightblue" d="M576.891,-550.27C603.822,-531.177 654.517,-488.527 654.517,-438 654.517,-438 654.517,-438 654.517,-366 654.517,-331.183 657.303,-317.159 635.517,-290 623.572,-275.109 605.69,-264.54 588.719,-257.246"/>
<polygon fill="midnightblue" stroke="midnightblue" points="590.012,-253.994 579.428,-253.525 587.41,-260.492 590.012,-253.994"/>
</g>
<!-- Node19 -->
<g id="node43" class="node"><title>Node19</title>
<a xlink:href="MojComp_8h.htm" target="_top" xlink:title="core/MojComp.h">
<polygon fill="white" stroke="black" points="532.517,-290.5 532.517,-311.5 626.517,-311.5 626.517,-290.5 532.517,-290.5"/>
<text text-anchor="middle" x="579.517" y="-298.5" font-family="Helvetica,sans-Serif" font-size="10.00">core/MojComp.h</text>
</a>
</g>
<!-- Node18&#45;&gt;Node19 -->
<g id="edge48" class="edge"><title>Node18&#45;&gt;Node19</title>
<path fill="none" stroke="midnightblue" d="M572.392,-550.36C581.218,-541.599 592.555,-528.327 597.517,-514 620.944,-446.368 598.855,-359.745 586.536,-321.133"/>
<polygon fill="midnightblue" stroke="midnightblue" points="589.835,-319.963 583.366,-311.572 583.191,-322.165 589.835,-319.963"/>
</g>
<!-- Node20 -->
<g id="node46" class="node"><title>Node20</title>
<a xlink:href="MojRefCount_8h.htm" target="_top" xlink:title="core/MojRefCount.h">
<polygon fill="white" stroke="black" points="290.517,-492.5 290.517,-513.5 400.517,-513.5 400.517,-492.5 290.517,-492.5"/>
<text text-anchor="middle" x="345.517" y="-500.5" font-family="Helvetica,sans-Serif" font-size="10.00">core/MojRefCount.h</text>
</a>
</g>
<!-- Node18&#45;&gt;Node20 -->
<g id="edge52" class="edge"><title>Node18&#45;&gt;Node20</title>
<path fill="none" stroke="midnightblue" d="M521.582,-550.497C485.925,-540.877 432.993,-526.598 394.481,-516.209"/>
<polygon fill="midnightblue" stroke="midnightblue" points="395.092,-512.748 384.525,-513.523 393.268,-519.507 395.092,-512.748"/>
</g>
<!-- Node23 -->
<g id="node56" class="node"><title>Node23</title>
<a xlink:href="MojUtil_8h.htm" target="_top" xlink:title="core/MojUtil.h">
<polygon fill="white" stroke="black" points="237.017,-427.5 237.017,-448.5 318.017,-448.5 318.017,-427.5 237.017,-427.5"/>
<text text-anchor="middle" x="277.517" y="-435.5" font-family="Helvetica,sans-Serif" font-size="10.00">core/MojUtil.h</text>
</a>
</g>
<!-- Node18&#45;&gt;Node23 -->
<g id="edge66" class="edge"><title>Node18&#45;&gt;Node23</title>
<path fill="none" stroke="midnightblue" d="M511.81,-559.863C440.085,-557.069 311.308,-547.407 281.517,-514 268.316,-499.197 269.222,-475.621 272.229,-458.652"/>
<polygon fill="midnightblue" stroke="midnightblue" points="275.707,-459.125 274.382,-448.613 268.863,-457.657 275.707,-459.125"/>
</g>
<!-- Node24 -->
<g id="node60" class="node"><title>Node24</title>
<a xlink:href="MojVectorInternal_8h.htm" target="_top" xlink:title="core/internal/MojVectorInternal.h">
<polygon fill="white" stroke="black" points="418.017,-492.5 418.017,-513.5 589.017,-513.5 589.017,-492.5 418.017,-492.5"/>
<text text-anchor="middle" x="503.517" y="-500.5" font-family="Helvetica,sans-Serif" font-size="10.00">core/internal/MojVectorInternal.h</text>
</a>
</g>
<!-- Node18&#45;&gt;Node24 -->
<g id="edge72" class="edge"><title>Node18&#45;&gt;Node24</title>
<path fill="none" stroke="midnightblue" d="M550.063,-550.362C541.947,-542.104 530.516,-530.472 521.013,-520.803"/>
<polygon fill="midnightblue" stroke="midnightblue" points="523.411,-518.25 513.906,-513.571 518.419,-523.156 523.411,-518.25"/>
</g>
<!-- Node19&#45;&gt;Node2 -->
<g id="edge50" class="edge"><title>Node19&#45;&gt;Node2</title>
<path fill="none" stroke="midnightblue" d="M572.547,-290.362C567.352,-282.431 560.117,-271.389 553.94,-261.961"/>
<polygon fill="midnightblue" stroke="midnightblue" points="556.851,-260.017 548.443,-253.571 550.995,-263.853 556.851,-260.017"/>
</g>
<!-- Node20&#45;&gt;Node2 -->
<g id="edge54" class="edge"><title>Node20&#45;&gt;Node2</title>
<path fill="none" stroke="midnightblue" d="M398.464,-492.448C449.496,-481.808 520.317,-465.621 529.517,-456 563.01,-420.976 557.164,-394.781 544.517,-348 539.683,-330.119 528.351,-329.881 523.517,-312 520.965,-302.561 521.739,-299.615 523.517,-290 525.234,-280.715 528.709,-270.894 532.152,-262.644"/>
<polygon fill="midnightblue" stroke="midnightblue" points="535.352,-264.062 536.215,-253.502 528.955,-261.219 535.352,-264.062"/>
</g>
<!-- Node20&#45;&gt;Node13 -->
<g id="edge58" class="edge"><title>Node20&#45;&gt;Node13</title>
<path fill="none" stroke="midnightblue" d="M316.848,-492.412C287.188,-481.458 240.696,-464.288 207.884,-452.17"/>
<polygon fill="midnightblue" stroke="midnightblue" points="208.767,-448.765 198.174,-448.584 206.342,-455.331 208.767,-448.765"/>
</g>
<!-- Node20&#45;&gt;Node14 -->
<g id="edge56" class="edge"><title>Node20&#45;&gt;Node14</title>
<path fill="none" stroke="midnightblue" d="M343.441,-492.436C340.248,-476.586 333.741,-445.763 326.517,-420 323.349,-408.701 319.247,-396.265 315.759,-386.178"/>
<polygon fill="midnightblue" stroke="midnightblue" points="319.032,-384.935 312.411,-376.663 312.429,-387.258 319.032,-384.935"/>
</g>
<!-- Node21 -->
<g id="node51" class="node"><title>Node21</title>
<a xlink:href="MojRefCountInternal_8h.htm" target="_top" xlink:title="core/internal/MojRefCount\lInternal.h">
<polygon fill="white" stroke="black" points="380.517,-421 380.517,-455 520.517,-455 520.517,-421 380.517,-421"/>
<text text-anchor="start" x="388.517" y="-442" font-family="Helvetica,sans-Serif" font-size="10.00">core/internal/MojRefCount</text>
<text text-anchor="middle" x="450.517" y="-429" font-family="Helvetica,sans-Serif" font-size="10.00">Internal.h</text>
</a>
</g>
<!-- Node20&#45;&gt;Node21 -->
<g id="edge60" class="edge"><title>Node20&#45;&gt;Node21</title>
<path fill="none" stroke="midnightblue" d="M362.856,-492.267C376.744,-483.669 396.709,-471.31 414.078,-460.558"/>
<polygon fill="midnightblue" stroke="midnightblue" points="416.218,-463.349 422.878,-455.11 412.533,-457.398 416.218,-463.349"/>
</g>
<!-- Node22 -->
<g id="node53" class="node"><title>Node22</title>
<a xlink:href="MojUtilInternal_8h.htm" target="_top" xlink:title="core/internal/MojUtilInternal.h">
<polygon fill="white" stroke="black" points="381.017,-355.5 381.017,-376.5 536.017,-376.5 536.017,-355.5 381.017,-355.5"/>
<text text-anchor="middle" x="458.517" y="-363.5" font-family="Helvetica,sans-Serif" font-size="10.00">core/internal/MojUtilInternal.h</text>
</a>
</g>
<!-- Node21&#45;&gt;Node22 -->
<g id="edge62" class="edge"><title>Node21&#45;&gt;Node22</title>
<path fill="none" stroke="midnightblue" d="M452.413,-420.937C453.538,-410.814 454.973,-397.898 456.169,-387.133"/>
<polygon fill="midnightblue" stroke="midnightblue" points="459.68,-387.226 457.306,-376.901 452.723,-386.453 459.68,-387.226"/>
</g>
<!-- Node22&#45;&gt;Node19 -->
<g id="edge64" class="edge"><title>Node22&#45;&gt;Node19</title>
<path fill="none" stroke="midnightblue" d="M478.227,-355.412C497.915,-344.836 528.391,-328.465 550.774,-316.441"/>
<polygon fill="midnightblue" stroke="midnightblue" points="552.663,-319.399 559.816,-311.584 549.35,-313.233 552.663,-319.399"/>
</g>
<!-- Node23&#45;&gt;Node2 -->
<g id="edge68" class="edge"><title>Node23&#45;&gt;Node2</title>
<path fill="none" stroke="midnightblue" d="M267.713,-427.455C252.467,-409.739 226.6,-373.446 244.517,-348 272.259,-308.602 402.529,-273.692 481.036,-255.759"/>
<polygon fill="midnightblue" stroke="midnightblue" points="481.829,-259.168 490.813,-253.552 480.288,-252.34 481.829,-259.168"/>
</g>
<!-- Node23&#45;&gt;Node22 -->
<g id="edge70" class="edge"><title>Node23&#45;&gt;Node22</title>
<path fill="none" stroke="midnightblue" d="M304.224,-427.376C335.594,-414.897 387.771,-394.142 422.648,-380.268"/>
<polygon fill="midnightblue" stroke="midnightblue" points="423.997,-383.499 431.995,-376.55 421.41,-376.994 423.997,-383.499"/>
</g>
</g>
</svg>
