<?xml version="1.0" encoding="UTF-8" standalone="no"?>
<!DOCTYPE svg PUBLIC "-//W3C//DTD SVG 1.1//EN"
 "http://www.w3.org/Graphics/SVG/1.1/DTD/svg11.dtd">
<!-- Generated by graphviz version 2.26.3 (20100126.1600)
 -->
<!-- Title: MojDbPermissionEngine.h Pages: 1 -->
<svg width="2932pt" height="320pt"
 viewBox="0.00 0.00 2932.00 320.00" xmlns="http://www.w3.org/2000/svg" xmlns:xlink="http://www.w3.org/1999/xlink">
<g id="graph1" class="graph" transform="scale(1 1) rotate(0) translate(4 316)">
<title>MojDbPermissionEngine.h</title>
<polygon fill="white" stroke="white" points="-4,5 -4,-316 2929,-316 2929,5 -4,5"/>
<!-- Node1 -->
<g id="node1" class="node"><title>Node1</title>
<polygon fill="#bfbfbf" stroke="black" points="393,-290.5 393,-311.5 533,-311.5 533,-290.5 393,-290.5"/>
<text text-anchor="middle" x="463" y="-298.5" font-family="Helvetica,sans-Serif" font-size="10.00">MojDbPermissionEngine.h</text>
</g>
<!-- Node2 -->
<g id="node3" class="node"><title>Node2</title>
<a xlink:href="MojDb_8h.htm" target="_top" xlink:title="MojDb.h">
<polygon fill="white" stroke="black" points="1388.5,-232.5 1388.5,-253.5 1443.5,-253.5 1443.5,-232.5 1388.5,-232.5"/>
<text text-anchor="middle" x="1416" y="-240.5" font-family="Helvetica,sans-Serif" font-size="10.00">MojDb.h</text>
</a>
</g>
<!-- Node1&#45;&gt;Node2 -->
<g id="edge2" class="edge"><title>Node1&#45;&gt;Node2</title>
<path fill="none" stroke="midnightblue" d="M543.278,-296.114C744.444,-283.871 1262.95,-252.315 1388.38,-244.681"/>
<polygon fill="midnightblue" stroke="midnightblue" points="542.845,-292.634 533.076,-296.735 543.271,-299.621 542.845,-292.634"/>
</g>
<!-- Node25 -->
<g id="node54" class="node"><title>Node25</title>
<a xlink:href="MojDbPermissionEngine_8cpp.htm" target="_top" xlink:title="MojDbPermissionEngine.cpp">
<polygon fill="white" stroke="black" points="-0.5,-174.5 -0.5,-195.5 150.5,-195.5 150.5,-174.5 -0.5,-174.5"/>
<text text-anchor="middle" x="75" y="-182.5" font-family="Helvetica,sans-Serif" font-size="10.00">MojDbPermissionEngine.cpp</text>
</a>
</g>
<!-- Node1&#45;&gt;Node25 -->
<g id="edge98" class="edge"><title>Node1&#45;&gt;Node25</title>
<path fill="none" stroke="midnightblue" d="M417.498,-287.396C339.238,-263.999 180.773,-216.623 110.238,-195.535"/>
<polygon fill="midnightblue" stroke="midnightblue" points="416.955,-290.887 427.539,-290.398 418.961,-284.18 416.955,-290.887"/>
</g>
<!-- Node36 -->
<g id="node76" class="node"><title>Node36</title>
<a xlink:href="MojDbKind_8h.htm" target="_top" xlink:title="MojDbKind.h">
<polygon fill="white" stroke="black" points="425,-232.5 425,-253.5 501,-253.5 501,-232.5 425,-232.5"/>
<text text-anchor="middle" x="463" y="-240.5" font-family="Helvetica,sans-Serif" font-size="10.00">MojDbKind.h</text>
</a>
</g>
<!-- Node1&#45;&gt;Node36 -->
<g id="edge80" class="edge"><title>Node1&#45;&gt;Node36</title>
<path fill="none" stroke="midnightblue" d="M463,-280.191C463,-271.168 463,-260.994 463,-253.571"/>
<polygon fill="midnightblue" stroke="midnightblue" points="459.5,-280.362 463,-290.362 466.5,-280.362 459.5,-280.362"/>
</g>
<!-- Node3 -->
<g id="node5" class="node"><title>Node3</title>
<a xlink:href="MojDbClient_8h.htm" target="_top" xlink:title="MojDbClient.h">
<polygon fill="white" stroke="black" points="1936,-174.5 1936,-195.5 2018,-195.5 2018,-174.5 1936,-174.5"/>
<text text-anchor="middle" x="1977" y="-182.5" font-family="Helvetica,sans-Serif" font-size="10.00">MojDbClient.h</text>
</a>
</g>
<!-- Node2&#45;&gt;Node3 -->
<g id="edge4" class="edge"><title>Node2&#45;&gt;Node3</title>
<path fill="none" stroke="midnightblue" d="M1453.75,-241.144C1538.7,-236.616 1751.19,-223.315 1927,-196 1929.9,-195.55 1932.88,-195.033 1935.88,-194.474"/>
<polygon fill="midnightblue" stroke="midnightblue" points="1453.37,-237.659 1443.57,-241.677 1453.74,-244.65 1453.37,-237.659"/>
</g>
<!-- Node7 -->
<g id="node13" class="node"><title>Node7</title>
<a xlink:href="MojDbServiceHandlerBase_8h.htm" target="_top" xlink:title="MojDbServiceHandlerBase.h">
<polygon fill="white" stroke="black" points="1766,-174.5 1766,-195.5 1918,-195.5 1918,-174.5 1766,-174.5"/>
<text text-anchor="middle" x="1842" y="-182.5" font-family="Helvetica,sans-Serif" font-size="10.00">MojDbServiceHandlerBase.h</text>
</a>
</g>
<!-- Node2&#45;&gt;Node7 -->
<g id="edge12" class="edge"><title>Node2&#45;&gt;Node7</title>
<path fill="none" stroke="midnightblue" d="M1453.71,-237.866C1523.48,-228.367 1673.94,-207.881 1765.73,-195.384"/>
<polygon fill="midnightblue" stroke="midnightblue" points="1453.06,-234.422 1443.62,-239.239 1454,-241.358 1453.06,-234.422"/>
</g>
<!-- Node14 -->
<g id="node28" class="node"><title>Node14</title>
<a xlink:href="MojDbServiceHandlerInternal_8h.htm" target="_top" xlink:title="MojDbServiceHandlerInternal.h">
<polygon fill="white" stroke="black" points="1514,-116.5 1514,-137.5 1678,-137.5 1678,-116.5 1514,-116.5"/>
<text text-anchor="middle" x="1596" y="-124.5" font-family="Helvetica,sans-Serif" font-size="10.00">MojDbServiceHandlerInternal.h</text>
</a>
</g>
<!-- Node2&#45;&gt;Node14 -->
<g id="edge38" class="edge"><title>Node2&#45;&gt;Node14</title>
<path fill="none" stroke="midnightblue" d="M1453.88,-239.857C1531.32,-233.048 1701.92,-215.931 1719,-196 1743.45,-167.46 1694.36,-148.338 1651.13,-137.601"/>
<polygon fill="midnightblue" stroke="midnightblue" points="1453.26,-236.398 1443.6,-240.749 1453.86,-243.372 1453.26,-236.398"/>
</g>
<!-- Node16 -->
<g id="node36" class="node"><title>Node16</title>
<a xlink:href="MojDb_8cpp.htm" target="_top" xlink:title="MojDb.cpp">
<polygon fill="white" stroke="black" points="168,-174.5 168,-195.5 234,-195.5 234,-174.5 168,-174.5"/>
<text text-anchor="middle" x="201" y="-182.5" font-family="Helvetica,sans-Serif" font-size="10.00">MojDb.cpp</text>
</a>
</g>
<!-- Node2&#45;&gt;Node16 -->
<g id="edge40" class="edge"><title>Node2&#45;&gt;Node16</title>
<path fill="none" stroke="midnightblue" d="M1378.32,-242.585C1203.42,-240.491 469.68,-229.819 243,-196 240.167,-195.577 237.25,-195.038 234.336,-194.425"/>
<polygon fill="midnightblue" stroke="midnightblue" points="1378.29,-246.085 1388.33,-242.703 1378.37,-239.085 1378.29,-246.085"/>
</g>
<!-- Node17 -->
<g id="node38" class="node"><title>Node17</title>
<a xlink:href="MojDbAdmin_8cpp.htm" target="_top" xlink:title="MojDbAdmin.cpp">
<polygon fill="white" stroke="black" points="251.5,-174.5 251.5,-195.5 346.5,-195.5 346.5,-174.5 251.5,-174.5"/>
<text text-anchor="middle" x="299" y="-182.5" font-family="Helvetica,sans-Serif" font-size="10.00">MojDbAdmin.cpp</text>
</a>
</g>
<!-- Node2&#45;&gt;Node17 -->
<g id="edge42" class="edge"><title>Node2&#45;&gt;Node17</title>
<path fill="none" stroke="midnightblue" d="M1378.06,-242.082C1213.31,-237.978 559.222,-220.441 355,-196 352.245,-195.67 349.423,-195.281 346.582,-194.85"/>
<polygon fill="midnightblue" stroke="midnightblue" points="1378.11,-245.584 1388.19,-242.333 1378.28,-238.586 1378.11,-245.584"/>
</g>
<!-- Node18 -->
<g id="node40" class="node"><title>Node18</title>
<a xlink:href="MojDbCursor_8cpp.htm" target="_top" xlink:title="MojDbCursor.cpp">
<polygon fill="white" stroke="black" points="2036,-174.5 2036,-195.5 2134,-195.5 2134,-174.5 2036,-174.5"/>
<text text-anchor="middle" x="2085" y="-182.5" font-family="Helvetica,sans-Serif" font-size="10.00">MojDbCursor.cpp</text>
</a>
</g>
<!-- Node2&#45;&gt;Node18 -->
<g id="edge44" class="edge"><title>Node2&#45;&gt;Node18</title>
<path fill="none" stroke="midnightblue" d="M1453.59,-241.557C1549.51,-237.562 1810.99,-224.702 2027,-196 2029.84,-195.622 2032.76,-195.195 2035.7,-194.735"/>
<polygon fill="midnightblue" stroke="midnightblue" points="1453.37,-238.064 1443.52,-241.969 1453.65,-245.058 1453.37,-238.064"/>
</g>
<!-- Node19 -->
<g id="node42" class="node"><title>Node19</title>
<a xlink:href="MojDbIndex_8cpp.htm" target="_top" xlink:title="MojDbIndex.cpp">
<polygon fill="white" stroke="black" points="364,-174.5 364,-195.5 456,-195.5 456,-174.5 364,-174.5"/>
<text text-anchor="middle" x="410" y="-182.5" font-family="Helvetica,sans-Serif" font-size="10.00">MojDbIndex.cpp</text>
</a>
</g>
<!-- Node2&#45;&gt;Node19 -->
<g id="edge46" class="edge"><title>Node2&#45;&gt;Node19</title>
<path fill="none" stroke="midnightblue" d="M1378.1,-241.877C1224.3,-237.207 646.431,-218.501 465,-196 462.101,-195.64 459.126,-195.214 456.133,-194.742"/>
<polygon fill="midnightblue" stroke="midnightblue" points="1378.33,-245.386 1388.43,-242.189 1378.54,-238.389 1378.33,-245.386"/>
</g>
<!-- Node20 -->
<g id="node44" class="node"><title>Node20</title>
<a xlink:href="MojDbIsamQuery_8cpp.htm" target="_top" xlink:title="MojDbIsamQuery.cpp">
<polygon fill="white" stroke="black" points="2151.5,-174.5 2151.5,-195.5 2268.5,-195.5 2268.5,-174.5 2151.5,-174.5"/>
<text text-anchor="middle" x="2210" y="-182.5" font-family="Helvetica,sans-Serif" font-size="10.00">MojDbIsamQuery.cpp</text>
</a>
</g>
<!-- Node2&#45;&gt;Node20 -->
<g id="edge48" class="edge"><title>Node2&#45;&gt;Node20</title>
<path fill="none" stroke="midnightblue" d="M1453.9,-241.862C1561.89,-238.338 1880.32,-225.982 2143,-196 2145.69,-195.693 2148.44,-195.352 2151.22,-194.986"/>
<polygon fill="midnightblue" stroke="midnightblue" points="1453.7,-238.367 1443.82,-242.185 1453.93,-245.363 1453.7,-238.367"/>
</g>
<!-- Node21 -->
<g id="node46" class="node"><title>Node21</title>
<a xlink:href="MojDbKind_8cpp.htm" target="_top" xlink:title="MojDbKind.cpp">
<polygon fill="white" stroke="black" points="473.5,-174.5 473.5,-195.5 560.5,-195.5 560.5,-174.5 473.5,-174.5"/>
<text text-anchor="middle" x="517" y="-182.5" font-family="Helvetica,sans-Serif" font-size="10.00">MojDbKind.cpp</text>
</a>
</g>
<!-- Node2&#45;&gt;Node21 -->
<g id="edge50" class="edge"><title>Node2&#45;&gt;Node21</title>
<path fill="none" stroke="midnightblue" d="M1378.09,-241.669C1235.16,-236.532 728.878,-217.219 569,-196 566.256,-195.636 563.441,-195.206 560.609,-194.731"/>
<polygon fill="midnightblue" stroke="midnightblue" points="1378.01,-245.169 1388.13,-242.028 1378.26,-238.173 1378.01,-245.169"/>
</g>
<!-- Node22 -->
<g id="node48" class="node"><title>Node22</title>
<a xlink:href="MojDbKindEngine_8cpp.htm" target="_top" xlink:title="MojDbKindEngine.cpp">
<polygon fill="white" stroke="black" points="578,-174.5 578,-195.5 698,-195.5 698,-174.5 578,-174.5"/>
<text text-anchor="middle" x="638" y="-182.5" font-family="Helvetica,sans-Serif" font-size="10.00">MojDbKindEngine.cpp</text>
</a>
</g>
<!-- Node2&#45;&gt;Node22 -->
<g id="edge52" class="edge"><title>Node2&#45;&gt;Node22</title>
<path fill="none" stroke="midnightblue" d="M1377.99,-241.71C1271.69,-237.838 962.401,-224.762 707,-196 704.107,-195.674 701.15,-195.313 698.166,-194.925"/>
<polygon fill="midnightblue" stroke="midnightblue" points="1378.1,-245.216 1388.21,-242.077 1378.35,-238.221 1378.1,-245.216"/>
</g>
<!-- Node23 -->
<g id="node50" class="node"><title>Node23</title>
<a xlink:href="MojDbObjectHeader_8cpp.htm" target="_top" xlink:title="MojDbObjectHeader.cpp">
<polygon fill="white" stroke="black" points="2285.5,-174.5 2285.5,-195.5 2416.5,-195.5 2416.5,-174.5 2285.5,-174.5"/>
<text text-anchor="middle" x="2351" y="-182.5" font-family="Helvetica,sans-Serif" font-size="10.00">MojDbObjectHeader.cpp</text>
</a>
</g>
<!-- Node2&#45;&gt;Node23 -->
<g id="edge54" class="edge"><title>Node2&#45;&gt;Node23</title>
<path fill="none" stroke="midnightblue" d="M1453.75,-242.193C1574.13,-239.35 1959.66,-228.177 2277,-196 2279.71,-195.725 2282.48,-195.421 2285.27,-195.094"/>
<polygon fill="midnightblue" stroke="midnightblue" points="1453.5,-238.697 1443.58,-242.428 1453.66,-245.696 1453.5,-238.697"/>
</g>
<!-- Node24 -->
<g id="node52" class="node"><title>Node24</title>
<a xlink:href="MojDbObjectItem_8cpp.htm" target="_top" xlink:title="MojDbObjectItem.cpp">
<polygon fill="white" stroke="black" points="2434,-174.5 2434,-195.5 2550,-195.5 2550,-174.5 2434,-174.5"/>
<text text-anchor="middle" x="2492" y="-182.5" font-family="Helvetica,sans-Serif" font-size="10.00">MojDbObjectItem.cpp</text>
</a>
</g>
<!-- Node2&#45;&gt;Node24 -->
<g id="edge56" class="edge"><title>Node2&#45;&gt;Node24</title>
<path fill="none" stroke="midnightblue" d="M1453.89,-242.819C1587.3,-241.846 2047.61,-235.634 2425,-196 2427.93,-195.692 2430.93,-195.34 2433.95,-194.954"/>
<polygon fill="midnightblue" stroke="midnightblue" points="1453.75,-239.32 1443.78,-242.887 1453.8,-246.32 1453.75,-239.32"/>
</g>
<!-- Node2&#45;&gt;Node25 -->
<g id="edge58" class="edge"><title>Node2&#45;&gt;Node25</title>
<path fill="none" stroke="midnightblue" d="M1377.78,-242.864C1224.41,-242.044 638.753,-236.294 159,-196 156.215,-195.766 153.381,-195.506 150.521,-195.226"/>
<polygon fill="midnightblue" stroke="midnightblue" points="1378.06,-246.365 1388.07,-242.915 1378.09,-239.365 1378.06,-246.365"/>
</g>
<!-- Node26 -->
<g id="node56" class="node"><title>Node26</title>
<a xlink:href="MojDbPutHandler_8cpp.htm" target="_top" xlink:title="MojDbPutHandler.cpp">
<polygon fill="white" stroke="black" points="2567.5,-174.5 2567.5,-195.5 2686.5,-195.5 2686.5,-174.5 2567.5,-174.5"/>
<text text-anchor="middle" x="2627" y="-182.5" font-family="Helvetica,sans-Serif" font-size="10.00">MojDbPutHandler.cpp</text>
</a>
</g>
<!-- Node2&#45;&gt;Node26 -->
<g id="edge60" class="edge"><title>Node2&#45;&gt;Node26</title>
<path fill="none" stroke="midnightblue" d="M1454.04,-242.047C1626.64,-237.629 2337.39,-218.4 2559,-196 2561.74,-195.723 2564.53,-195.408 2567.35,-195.062"/>
<polygon fill="midnightblue" stroke="midnightblue" points="1453.82,-238.551 1443.91,-242.305 1454,-245.549 1453.82,-238.551"/>
</g>
<!-- Node27 -->
<g id="node58" class="node"><title>Node27</title>
<a xlink:href="MojDbQueryPlan_8cpp.htm" target="_top" xlink:title="MojDbQueryPlan.cpp">
<polygon fill="white" stroke="black" points="2704,-174.5 2704,-195.5 2820,-195.5 2820,-174.5 2704,-174.5"/>
<text text-anchor="middle" x="2762" y="-182.5" font-family="Helvetica,sans-Serif" font-size="10.00">MojDbQueryPlan.cpp</text>
</a>
</g>
<!-- Node2&#45;&gt;Node27 -->
<g id="edge62" class="edge"><title>Node2&#45;&gt;Node27</title>
<path fill="none" stroke="midnightblue" d="M1453.71,-242.256C1637.98,-238.525 2444.91,-221.025 2695,-196 2697.93,-195.707 2700.93,-195.366 2703.95,-194.989"/>
<polygon fill="midnightblue" stroke="midnightblue" points="1453.62,-238.757 1443.69,-242.458 1453.76,-245.756 1453.62,-238.757"/>
</g>
<!-- Node28 -->
<g id="node60" class="node"><title>Node28</title>
<a xlink:href="MojDbQuotaEngine_8cpp.htm" target="_top" xlink:title="MojDbQuotaEngine.cpp">
<polygon fill="white" stroke="black" points="716,-174.5 716,-195.5 844,-195.5 844,-174.5 716,-174.5"/>
<text text-anchor="middle" x="780" y="-182.5" font-family="Helvetica,sans-Serif" font-size="10.00">MojDbQuotaEngine.cpp</text>
</a>
</g>
<!-- Node2&#45;&gt;Node28 -->
<g id="edge64" class="edge"><title>Node2&#45;&gt;Node28</title>
<path fill="none" stroke="midnightblue" d="M1378.34,-240.721C1287.69,-235.049 1050.26,-219.07 853,-196 850.072,-195.658 847.081,-195.288 844.062,-194.899"/>
<polygon fill="midnightblue" stroke="midnightblue" points="1378.2,-244.22 1388.4,-241.346 1378.64,-237.233 1378.2,-244.22"/>
</g>
<!-- Node29 -->
<g id="node62" class="node"><title>Node29</title>
<a xlink:href="MojDbReq_8cpp.htm" target="_top" xlink:title="MojDbReq.cpp">
<polygon fill="white" stroke="black" points="2838,-174.5 2838,-195.5 2924,-195.5 2924,-174.5 2838,-174.5"/>
<text text-anchor="middle" x="2881" y="-182.5" font-family="Helvetica,sans-Serif" font-size="10.00">MojDbReq.cpp</text>
</a>
</g>
<!-- Node2&#45;&gt;Node29 -->
<g id="edge66" class="edge"><title>Node2&#45;&gt;Node29</title>
<path fill="none" stroke="midnightblue" d="M1453.85,-242.639C1649.92,-240.63 2551.61,-229.689 2829,-196 2831.93,-195.644 2834.94,-195.205 2837.97,-194.71"/>
<polygon fill="midnightblue" stroke="midnightblue" points="1453.72,-239.14 1443.75,-242.741 1453.79,-246.139 1453.72,-239.14"/>
</g>
<!-- Node30 -->
<g id="node64" class="node"><title>Node30</title>
<a xlink:href="MojDbRevisionSet_8cpp.htm" target="_top" xlink:title="MojDbRevisionSet.cpp">
<polygon fill="white" stroke="black" points="1010,-174.5 1010,-195.5 1132,-195.5 1132,-174.5 1010,-174.5"/>
<text text-anchor="middle" x="1071" y="-182.5" font-family="Helvetica,sans-Serif" font-size="10.00">MojDbRevisionSet.cpp</text>
</a>
</g>
<!-- Node2&#45;&gt;Node30 -->
<g id="edge68" class="edge"><title>Node2&#45;&gt;Node30</title>
<path fill="none" stroke="midnightblue" d="M1378.31,-236.664C1319.08,-226.707 1203.63,-207.297 1132.33,-195.31"/>
<polygon fill="midnightblue" stroke="midnightblue" points="1377.91,-240.145 1388.35,-238.352 1379.07,-233.242 1377.91,-240.145"/>
</g>
<!-- Node31 -->
<g id="node66" class="node"><title>Node31</title>
<a xlink:href="MojDbSearchCursor_8cpp.htm" target="_top" xlink:title="MojDbSearchCursor.cpp">
<polygon fill="white" stroke="black" points="861.5,-174.5 861.5,-195.5 992.5,-195.5 992.5,-174.5 861.5,-174.5"/>
<text text-anchor="middle" x="927" y="-182.5" font-family="Helvetica,sans-Serif" font-size="10.00">MojDbSearchCursor.cpp</text>
</a>
</g>
<!-- Node2&#45;&gt;Node31 -->
<g id="edge70" class="edge"><title>Node2&#45;&gt;Node31</title>
<path fill="none" stroke="midnightblue" d="M1378.19,-239.163C1305.18,-231.656 1139.76,-214.166 1001,-196 998.296,-195.646 995.537,-195.276 992.751,-194.895"/>
<polygon fill="midnightblue" stroke="midnightblue" points="1377.97,-242.659 1388.28,-240.197 1378.69,-235.695 1377.97,-242.659"/>
</g>
<!-- Node32 -->
<g id="node68" class="node"><title>Node32</title>
<a xlink:href="MojDbWatcher_8cpp.htm" target="_top" xlink:title="MojDbWatcher.cpp">
<polygon fill="white" stroke="black" points="1150,-174.5 1150,-195.5 1256,-195.5 1256,-174.5 1150,-174.5"/>
<text text-anchor="middle" x="1203" y="-182.5" font-family="Helvetica,sans-Serif" font-size="10.00">MojDbWatcher.cpp</text>
</a>
</g>
<!-- Node2&#45;&gt;Node32 -->
<g id="edge72" class="edge"><title>Node2&#45;&gt;Node32</title>
<path fill="none" stroke="midnightblue" d="M1378.38,-232.756C1339.93,-222.286 1280.51,-206.106 1241.68,-195.533"/>
<polygon fill="midnightblue" stroke="midnightblue" points="1377.59,-236.167 1388.15,-235.418 1379.42,-229.413 1377.59,-236.167"/>
</g>
<!-- Node33 -->
<g id="node70" class="node"><title>Node33</title>
<a xlink:href="MojDbLevelDatabase_8cpp.htm" target="_top" xlink:title="MojDbLevelDatabase.cpp">
<polygon fill="white" stroke="black" points="1273.5,-174.5 1273.5,-195.5 1410.5,-195.5 1410.5,-174.5 1273.5,-174.5"/>
<text text-anchor="middle" x="1342" y="-182.5" font-family="Helvetica,sans-Serif" font-size="10.00">MojDbLevelDatabase.cpp</text>
</a>
</g>
<!-- Node2&#45;&gt;Node33 -->
<g id="edge74" class="edge"><title>Node2&#45;&gt;Node33</title>
<path fill="none" stroke="midnightblue" d="M1394.28,-225.975C1381.72,-216.132 1366.31,-204.055 1355.49,-195.571"/>
<polygon fill="midnightblue" stroke="midnightblue" points="1392.4,-228.948 1402.43,-232.362 1396.72,-223.438 1392.4,-228.948"/>
</g>
<!-- Node34 -->
<g id="node72" class="node"><title>Node34</title>
<a xlink:href="MojDbLevelEngine_8cpp.htm" target="_top" xlink:title="MojDbLevelEngine.cpp">
<polygon fill="white" stroke="black" points="1427.5,-174.5 1427.5,-195.5 1552.5,-195.5 1552.5,-174.5 1427.5,-174.5"/>
<text text-anchor="middle" x="1490" y="-182.5" font-family="Helvetica,sans-Serif" font-size="10.00">MojDbLevelEngine.cpp</text>
</a>
</g>
<!-- Node2&#45;&gt;Node34 -->
<g id="edge76" class="edge"><title>Node2&#45;&gt;Node34</title>
<path fill="none" stroke="midnightblue" d="M1437.72,-225.975C1450.28,-216.132 1465.69,-204.055 1476.51,-195.571"/>
<polygon fill="midnightblue" stroke="midnightblue" points="1435.28,-223.438 1429.57,-232.362 1439.6,-228.948 1435.28,-223.438"/>
</g>
<!-- Node35 -->
<g id="node74" class="node"><title>Node35</title>
<a xlink:href="MojDbBerkeleyEngine_8cpp.htm" target="_top" xlink:title="MojDbBerkeleyEngine.cpp">
<polygon fill="white" stroke="black" points="1570,-174.5 1570,-195.5 1710,-195.5 1710,-174.5 1570,-174.5"/>
<text text-anchor="middle" x="1640" y="-182.5" font-family="Helvetica,sans-Serif" font-size="10.00">MojDbBerkeleyEngine.cpp</text>
</a>
</g>
<!-- Node2&#45;&gt;Node35 -->
<g id="edge78" class="edge"><title>Node2&#45;&gt;Node35</title>
<path fill="none" stroke="midnightblue" d="M1453.63,-233.256C1493.94,-222.82 1557.69,-206.314 1599.18,-195.57"/>
<polygon fill="midnightblue" stroke="midnightblue" points="1452.72,-229.877 1443.92,-235.772 1454.47,-236.653 1452.72,-229.877"/>
</g>
<!-- Node4 -->
<g id="node7" class="node"><title>Node4</title>
<a xlink:href="MojDbServiceClient_8h.htm" target="_top" xlink:title="MojDbServiceClient.h">
<polygon fill="white" stroke="black" points="2131.5,-116.5 2131.5,-137.5 2248.5,-137.5 2248.5,-116.5 2131.5,-116.5"/>
<text text-anchor="middle" x="2190" y="-124.5" font-family="Helvetica,sans-Serif" font-size="10.00">MojDbServiceClient.h</text>
</a>
</g>
<!-- Node3&#45;&gt;Node4 -->
<g id="edge6" class="edge"><title>Node3&#45;&gt;Node4</title>
<path fill="none" stroke="midnightblue" d="M2025.43,-171.812C2063.56,-161.428 2116.01,-147.149 2151.35,-137.523"/>
<polygon fill="midnightblue" stroke="midnightblue" points="2024.3,-168.492 2015.57,-174.497 2026.14,-175.246 2024.3,-168.492"/>
</g>
<!-- Node6 -->
<g id="node11" class="node"><title>Node6</title>
<a xlink:href="MojDbClient_8cpp.htm" target="_top" xlink:title="MojDbClient.cpp">
<polygon fill="white" stroke="black" points="2021.5,-116.5 2021.5,-137.5 2114.5,-137.5 2114.5,-116.5 2021.5,-116.5"/>
<text text-anchor="middle" x="2068" y="-124.5" font-family="Helvetica,sans-Serif" font-size="10.00">MojDbClient.cpp</text>
</a>
</g>
<!-- Node3&#45;&gt;Node6 -->
<g id="edge10" class="edge"><title>Node3&#45;&gt;Node6</title>
<path fill="none" stroke="midnightblue" d="M2002.38,-168.821C2018.06,-158.831 2037.72,-146.299 2051.42,-137.571"/>
<polygon fill="midnightblue" stroke="midnightblue" points="2000.24,-166.036 1993.69,-174.362 2004,-171.939 2000.24,-166.036"/>
</g>
<!-- Node5 -->
<g id="node9" class="node"><title>Node5</title>
<a xlink:href="MojDbServiceClient_8cpp.htm" target="_top" xlink:title="MojDbServiceClient.cpp">
<polygon fill="white" stroke="black" points="2126,-58.5 2126,-79.5 2254,-79.5 2254,-58.5 2126,-58.5"/>
<text text-anchor="middle" x="2190" y="-66.5" font-family="Helvetica,sans-Serif" font-size="10.00">MojDbServiceClient.cpp</text>
</a>
</g>
<!-- Node4&#45;&gt;Node5 -->
<g id="edge8" class="edge"><title>Node4&#45;&gt;Node5</title>
<path fill="none" stroke="midnightblue" d="M2190,-106.191C2190,-97.1684 2190,-86.9941 2190,-79.5707"/>
<polygon fill="midnightblue" stroke="midnightblue" points="2186.5,-106.362 2190,-116.362 2193.5,-106.362 2186.5,-106.362"/>
</g>
<!-- Node8 -->
<g id="node15" class="node"><title>Node8</title>
<a xlink:href="MojDbServiceHandler_8h.htm" target="_top" xlink:title="MojDbServiceHandler.h">
<polygon fill="white" stroke="black" points="1696,-116.5 1696,-137.5 1824,-137.5 1824,-116.5 1696,-116.5"/>
<text text-anchor="middle" x="1760" y="-124.5" font-family="Helvetica,sans-Serif" font-size="10.00">MojDbServiceHandler.h</text>
</a>
</g>
<!-- Node7&#45;&gt;Node8 -->
<g id="edge14" class="edge"><title>Node7&#45;&gt;Node8</title>
<path fill="none" stroke="midnightblue" d="M1818.73,-168.541C1804.67,-158.597 1787.17,-146.218 1774.94,-137.571"/>
<polygon fill="midnightblue" stroke="midnightblue" points="1816.77,-171.445 1826.96,-174.362 1820.82,-165.73 1816.77,-171.445"/>
</g>
<!-- Node7&#45;&gt;Node14 -->
<g id="edge28" class="edge"><title>Node7&#45;&gt;Node14</title>
<path fill="none" stroke="midnightblue" d="M1787.47,-172.142C1743.31,-161.733 1681.89,-147.251 1640.63,-137.523"/>
<polygon fill="midnightblue" stroke="midnightblue" points="1786.91,-175.608 1797.45,-174.497 1788.52,-168.795 1786.91,-175.608"/>
</g>
<!-- Node15 -->
<g id="node33" class="node"><title>Node15</title>
<a xlink:href="MojDbServiceHandlerBase_8cpp.htm" target="_top" xlink:title="MojDbServiceHandlerBase.cpp">
<polygon fill="white" stroke="black" points="1841.5,-116.5 1841.5,-137.5 2004.5,-137.5 2004.5,-116.5 1841.5,-116.5"/>
<text text-anchor="middle" x="1923" y="-124.5" font-family="Helvetica,sans-Serif" font-size="10.00">MojDbServiceHandlerBase.cpp</text>
</a>
</g>
<!-- Node7&#45;&gt;Node15 -->
<g id="edge36" class="edge"><title>Node7&#45;&gt;Node15</title>
<path fill="none" stroke="midnightblue" d="M1865.38,-168.259C1879.2,-158.364 1896.28,-146.136 1908.24,-137.571"/>
<polygon fill="midnightblue" stroke="midnightblue" points="1862.95,-165.694 1856.86,-174.362 1867.02,-171.386 1862.95,-165.694"/>
</g>
<!-- Node9 -->
<g id="node17" class="node"><title>Node9</title>
<a xlink:href="MojDbServiceHandler_8cpp.htm" target="_top" xlink:title="MojDbServiceHandler.cpp">
<polygon fill="white" stroke="black" points="1349.5,-58.5 1349.5,-79.5 1488.5,-79.5 1488.5,-58.5 1349.5,-58.5"/>
<text text-anchor="middle" x="1419" y="-66.5" font-family="Helvetica,sans-Serif" font-size="10.00">MojDbServiceHandler.cpp</text>
</a>
</g>
<!-- Node8&#45;&gt;Node9 -->
<g id="edge16" class="edge"><title>Node8&#45;&gt;Node9</title>
<path fill="none" stroke="midnightblue" d="M1688.24,-114.794C1626.8,-104.345 1539.27,-89.4559 1480.87,-79.5231"/>
<polygon fill="midnightblue" stroke="midnightblue" points="1687.8,-118.27 1698.25,-116.497 1688.98,-111.369 1687.8,-118.27"/>
</g>
<!-- Node10 -->
<g id="node19" class="node"><title>Node10</title>
<a xlink:href="MojDbServiceHandlerInternal_8cpp.htm" target="_top" xlink:title="MojDbServiceHandlerInternal.cpp">
<polygon fill="white" stroke="black" points="1505.5,-58.5 1505.5,-79.5 1680.5,-79.5 1680.5,-58.5 1505.5,-58.5"/>
<text text-anchor="middle" x="1593" y="-66.5" font-family="Helvetica,sans-Serif" font-size="10.00">MojDbServiceHandlerInternal.cpp</text>
</a>
</g>
<!-- Node8&#45;&gt;Node10 -->
<g id="edge18" class="edge"><title>Node8&#45;&gt;Node10</title>
<path fill="none" stroke="midnightblue" d="M1720.11,-113.144C1690.39,-102.823 1650.42,-88.9439 1623.3,-79.5231"/>
<polygon fill="midnightblue" stroke="midnightblue" points="1719.16,-116.522 1729.76,-116.497 1721.46,-109.909 1719.16,-116.522"/>
</g>
<!-- Node11 -->
<g id="node21" class="node"><title>Node11</title>
<a xlink:href="MojDbServiceSchemas_8cpp.htm" target="_top" xlink:title="MojDbServiceSchemas.cpp">
<polygon fill="white" stroke="black" points="1847.5,-58.5 1847.5,-79.5 1992.5,-79.5 1992.5,-58.5 1847.5,-58.5"/>
<text text-anchor="middle" x="1920" y="-66.5" font-family="Helvetica,sans-Serif" font-size="10.00">MojDbServiceSchemas.cpp</text>
</a>
</g>
<!-- Node8&#45;&gt;Node11 -->
<g id="edge20" class="edge"><title>Node8&#45;&gt;Node11</title>
<path fill="none" stroke="midnightblue" d="M1798.59,-113.009C1827.03,-102.702 1865.1,-88.903 1890.97,-79.5231"/>
<polygon fill="midnightblue" stroke="midnightblue" points="1797.18,-109.798 1788.97,-116.497 1799.57,-116.379 1797.18,-109.798"/>
</g>
<!-- Node12 -->
<g id="node23" class="node"><title>Node12</title>
<a xlink:href="MojDbLunaServiceApp_8h.htm" target="_top" xlink:title="MojDbLunaServiceApp.h">
<polygon fill="white" stroke="black" points="1698,-58.5 1698,-79.5 1830,-79.5 1830,-58.5 1698,-58.5"/>
<text text-anchor="middle" x="1764" y="-66.5" font-family="Helvetica,sans-Serif" font-size="10.00">MojDbLunaServiceApp.h</text>
</a>
</g>
<!-- Node8&#45;&gt;Node12 -->
<g id="edge22" class="edge"><title>Node8&#45;&gt;Node12</title>
<path fill="none" stroke="midnightblue" d="M1761.44,-106.191C1762.06,-97.1684 1762.76,-86.9941 1763.27,-79.5707"/>
<polygon fill="midnightblue" stroke="midnightblue" points="1757.93,-106.145 1760.73,-116.362 1764.91,-106.626 1757.93,-106.145"/>
</g>
<!-- Node13 -->
<g id="node25" class="node"><title>Node13</title>
<a xlink:href="MojDbLunaServiceApp_8cpp.htm" target="_top" xlink:title="MojDbLunaServiceApp.cpp">
<polygon fill="white" stroke="black" points="1820.5,-0.5 1820.5,-21.5 1963.5,-21.5 1963.5,-0.5 1820.5,-0.5"/>
<text text-anchor="middle" x="1892" y="-8.5" font-family="Helvetica,sans-Serif" font-size="10.00">MojDbLunaServiceApp.cpp</text>
</a>
</g>
<!-- Node8&#45;&gt;Node13 -->
<g id="edge26" class="edge"><title>Node8&#45;&gt;Node13</title>
<path fill="none" stroke="midnightblue" d="M1834.11,-114.88C1902.92,-103.271 1995.58,-86.5757 2001,-80 2023.5,-52.688 1976.71,-32.8057 1937.58,-21.5858"/>
<polygon fill="midnightblue" stroke="midnightblue" points="1833.43,-111.446 1824.15,-116.554 1834.59,-118.349 1833.43,-111.446"/>
</g>
<!-- Node12&#45;&gt;Node13 -->
<g id="edge24" class="edge"><title>Node12&#45;&gt;Node13</title>
<path fill="none" stroke="midnightblue" d="M1796.35,-54.3431C1818.84,-44.1502 1848.31,-30.7977 1868.56,-21.6212"/>
<polygon fill="midnightblue" stroke="midnightblue" points="1794.84,-51.1813 1787.18,-58.4966 1797.73,-57.5573 1794.84,-51.1813"/>
</g>
<!-- Node14&#45;&gt;Node9 -->
<g id="edge30" class="edge"><title>Node14&#45;&gt;Node9</title>
<path fill="none" stroke="midnightblue" d="M1554.13,-113.279C1522.59,-102.944 1479.99,-88.9849 1451.11,-79.5231"/>
<polygon fill="midnightblue" stroke="midnightblue" points="1553.35,-116.709 1563.95,-116.497 1555.53,-110.057 1553.35,-116.709"/>
</g>
<!-- Node14&#45;&gt;Node10 -->
<g id="edge32" class="edge"><title>Node14&#45;&gt;Node10</title>
<path fill="none" stroke="midnightblue" d="M1594.92,-106.191C1594.46,-97.1684 1593.93,-86.9941 1593.55,-79.5707"/>
<polygon fill="midnightblue" stroke="midnightblue" points="1591.44,-106.556 1595.45,-116.362 1598.43,-106.194 1591.44,-106.556"/>
</g>
<!-- Node14&#45;&gt;Node12 -->
<g id="edge34" class="edge"><title>Node14&#45;&gt;Node12</title>
<path fill="none" stroke="midnightblue" d="M1636.13,-113.144C1666.03,-102.823 1706.23,-88.9439 1733.52,-79.5231"/>
<polygon fill="midnightblue" stroke="midnightblue" points="1634.73,-109.925 1626.42,-116.497 1637.02,-116.542 1634.73,-109.925"/>
</g>
<!-- Node36&#45;&gt;Node16 -->
<g id="edge82" class="edge"><title>Node36&#45;&gt;Node16</title>
<path fill="none" stroke="midnightblue" d="M414.732,-233.349C370.064,-224.261 301.871,-209.99 243,-196 240.213,-195.338 237.329,-194.63 234.436,-193.904"/>
<polygon fill="midnightblue" stroke="midnightblue" points="414.231,-236.818 424.727,-235.376 415.622,-229.958 414.231,-236.818"/>
</g>
<!-- Node36&#45;&gt;Node17 -->
<g id="edge84" class="edge"><title>Node36&#45;&gt;Node17</title>
<path fill="none" stroke="midnightblue" d="M423.822,-229.144C394.637,-218.823 355.393,-204.944 328.755,-195.523"/>
<polygon fill="midnightblue" stroke="midnightblue" points="422.706,-232.462 433.301,-232.497 425.04,-225.863 422.706,-232.462"/>
</g>
<!-- Node36&#45;&gt;Node19 -->
<g id="edge86" class="edge"><title>Node36&#45;&gt;Node19</title>
<path fill="none" stroke="midnightblue" d="M446.396,-224.83C437.604,-215.208 427.114,-203.728 419.659,-195.571"/>
<polygon fill="midnightblue" stroke="midnightblue" points="443.949,-227.341 453.279,-232.362 449.117,-222.619 443.949,-227.341"/>
</g>
<!-- Node36&#45;&gt;Node21 -->
<g id="edge88" class="edge"><title>Node36&#45;&gt;Node21</title>
<path fill="none" stroke="midnightblue" d="M479.917,-224.83C488.875,-215.208 499.563,-203.728 507.158,-195.571"/>
<polygon fill="midnightblue" stroke="midnightblue" points="477.157,-222.658 472.904,-232.362 482.28,-227.428 477.157,-222.658"/>
</g>
<!-- Node36&#45;&gt;Node22 -->
<g id="edge90" class="edge"><title>Node36&#45;&gt;Node22</title>
<path fill="none" stroke="midnightblue" d="M504.4,-229.279C535.584,-218.944 577.701,-204.985 606.249,-195.523"/>
<polygon fill="midnightblue" stroke="midnightblue" points="503.082,-226.028 494.691,-232.497 505.285,-232.673 503.082,-226.028"/>
</g>
<!-- Node36&#45;&gt;Node25 -->
<g id="edge92" class="edge"><title>Node36&#45;&gt;Node25</title>
<path fill="none" stroke="midnightblue" d="M414.757,-235.788C346.999,-225.66 223.223,-207.157 145.243,-195.5"/>
<polygon fill="midnightblue" stroke="midnightblue" points="414.328,-239.263 424.735,-237.28 415.363,-232.34 414.328,-239.263"/>
</g>
<!-- Node36&#45;&gt;Node28 -->
<g id="edge94" class="edge"><title>Node36&#45;&gt;Node28</title>
<path fill="none" stroke="midnightblue" d="M511.387,-234.147C568.154,-223.76 662.173,-206.558 722.58,-195.506"/>
<polygon fill="midnightblue" stroke="midnightblue" points="510.444,-230.761 501.238,-236.004 511.704,-237.647 510.444,-230.761"/>
</g>
<!-- Node36&#45;&gt;Node31 -->
<g id="edge96" class="edge"><title>Node36&#45;&gt;Node31</title>
<path fill="none" stroke="midnightblue" d="M511.61,-237.579C585.451,-229.245 730.278,-212.513 853,-196 855.703,-195.636 858.461,-195.258 861.246,-194.871"/>
<polygon fill="midnightblue" stroke="midnightblue" points="510.787,-234.149 501.241,-238.747 511.57,-241.105 510.787,-234.149"/>
</g>
</g>
</svg>
