<?xml version="1.0" encoding="UTF-8" standalone="no"?>
<!DOCTYPE svg PUBLIC "-//W3C//DTD SVG 1.1//EN"
 "http://www.w3.org/Graphics/SVG/1.1/DTD/svg11.dtd">
<!-- Generated by graphviz version 2.26.3 (20100126.1600)
 -->
<!-- Title: MojDbServiceDefs.h Pages: 1 -->
<svg width="1638pt" height="146pt"
 viewBox="0.00 0.00 1638.00 146.00" xmlns="http://www.w3.org/2000/svg" xmlns:xlink="http://www.w3.org/1999/xlink">
<g id="graph1" class="graph" transform="scale(1 1) rotate(0) translate(4 142)">
<title>MojDbServiceDefs.h</title>
<polygon fill="white" stroke="white" points="-4,5 -4,-142 1635,-142 1635,5 -4,5"/>
<!-- Node1 -->
<g id="node1" class="node"><title>Node1</title>
<polygon fill="#bfbfbf" stroke="black" points="603,-116.5 603,-137.5 715,-137.5 715,-116.5 603,-116.5"/>
<text text-anchor="middle" x="659" y="-124.5" font-family="Helvetica,sans-Serif" font-size="10.00">MojDbServiceDefs.h</text>
</g>
<!-- Node2 -->
<g id="node3" class="node"><title>Node2</title>
<a xlink:href="MojDbServiceClient_8h.htm" target="_top" xlink:title="MojDbServiceClient.h">
<polygon fill="white" stroke="black" points="-0.5,-58.5 -0.5,-79.5 116.5,-79.5 116.5,-58.5 -0.5,-58.5"/>
<text text-anchor="middle" x="58" y="-66.5" font-family="Helvetica,sans-Serif" font-size="10.00">MojDbServiceClient.h</text>
</a>
</g>
<!-- Node1&#45;&gt;Node2 -->
<g id="edge2" class="edge"><title>Node1&#45;&gt;Node2</title>
<path fill="none" stroke="midnightblue" d="M592.911,-122.472C492.641,-115.298 296.156,-100.053 130,-80 125.606,-79.4697 121.068,-78.8788 116.507,-78.2538"/>
<polygon fill="midnightblue" stroke="midnightblue" points="592.673,-125.964 602.896,-123.182 593.17,-118.981 592.673,-125.964"/>
</g>
<!-- Node3 -->
<g id="node5" class="node"><title>Node3</title>
<a xlink:href="MojDbServiceClient_8cpp.htm" target="_top" xlink:title="MojDbServiceClient.cpp">
<polygon fill="white" stroke="black" points="37,-0.5 37,-21.5 165,-21.5 165,-0.5 37,-0.5"/>
<text text-anchor="middle" x="101" y="-8.5" font-family="Helvetica,sans-Serif" font-size="10.00">MojDbServiceClient.cpp</text>
</a>
</g>
<!-- Node1&#45;&gt;Node3 -->
<g id="edge16" class="edge"><title>Node1&#45;&gt;Node3</title>
<path fill="none" stroke="midnightblue" d="M592.494,-123.391C466.113,-116.141 200.475,-98.8772 163,-80 136.823,-66.8138 116.53,-37.5019 106.985,-21.6578"/>
<polygon fill="midnightblue" stroke="midnightblue" points="592.631,-126.904 602.814,-123.979 593.029,-119.916 592.631,-126.904"/>
</g>
<!-- Node4 -->
<g id="node7" class="node"><title>Node4</title>
<a xlink:href="MojDb_8cpp.htm" target="_top" xlink:title="MojDb.cpp">
<polygon fill="white" stroke="black" points="172,-58.5 172,-79.5 238,-79.5 238,-58.5 172,-58.5"/>
<text text-anchor="middle" x="205" y="-66.5" font-family="Helvetica,sans-Serif" font-size="10.00">MojDb.cpp</text>
</a>
</g>
<!-- Node1&#45;&gt;Node4 -->
<g id="edge6" class="edge"><title>Node1&#45;&gt;Node4</title>
<path fill="none" stroke="midnightblue" d="M592.834,-122.374C511.082,-115.988 367.965,-102.621 247,-80 244.185,-79.4735 241.279,-78.8609 238.373,-78.1994"/>
<polygon fill="midnightblue" stroke="midnightblue" points="592.741,-125.877 602.98,-123.155 593.278,-118.897 592.741,-125.877"/>
</g>
<!-- Node5 -->
<g id="node9" class="node"><title>Node5</title>
<a xlink:href="MojDbAdmin_8cpp.htm" target="_top" xlink:title="MojDbAdmin.cpp">
<polygon fill="white" stroke="black" points="255.5,-58.5 255.5,-79.5 350.5,-79.5 350.5,-58.5 255.5,-58.5"/>
<text text-anchor="middle" x="303" y="-66.5" font-family="Helvetica,sans-Serif" font-size="10.00">MojDbAdmin.cpp</text>
</a>
</g>
<!-- Node1&#45;&gt;Node5 -->
<g id="edge8" class="edge"><title>Node1&#45;&gt;Node5</title>
<path fill="none" stroke="midnightblue" d="M592.534,-117.338C531.661,-108.311 439.119,-94.1393 359,-80 356.268,-79.5179 353.464,-79.0096 350.636,-78.4867"/>
<polygon fill="midnightblue" stroke="midnightblue" points="592.367,-120.852 602.772,-118.852 593.391,-113.927 592.367,-120.852"/>
</g>
<!-- Node6 -->
<g id="node11" class="node"><title>Node6</title>
<a xlink:href="MojDbKindEngine_8cpp.htm" target="_top" xlink:title="MojDbKindEngine.cpp">
<polygon fill="white" stroke="black" points="368,-58.5 368,-79.5 488,-79.5 488,-58.5 368,-58.5"/>
<text text-anchor="middle" x="428" y="-66.5" font-family="Helvetica,sans-Serif" font-size="10.00">MojDbKindEngine.cpp</text>
</a>
</g>
<!-- Node1&#45;&gt;Node6 -->
<g id="edge10" class="edge"><title>Node1&#45;&gt;Node6</title>
<path fill="none" stroke="midnightblue" d="M607.267,-114.011C565.847,-103.611 508.492,-89.2102 469.911,-79.5231"/>
<polygon fill="midnightblue" stroke="midnightblue" points="606.616,-117.456 617.168,-116.497 608.321,-110.667 606.616,-117.456"/>
</g>
<!-- Node7 -->
<g id="node13" class="node"><title>Node7</title>
<a xlink:href="MojDbPermissionEngine_8cpp.htm" target="_top" xlink:title="MojDbPermissionEngine.cpp">
<polygon fill="white" stroke="black" points="505.5,-58.5 505.5,-79.5 656.5,-79.5 656.5,-58.5 505.5,-58.5"/>
<text text-anchor="middle" x="581" y="-66.5" font-family="Helvetica,sans-Serif" font-size="10.00">MojDbPermissionEngine.cpp</text>
</a>
</g>
<!-- Node1&#45;&gt;Node7 -->
<g id="edge12" class="edge"><title>Node1&#45;&gt;Node7</title>
<path fill="none" stroke="midnightblue" d="M636.486,-110.259C623.179,-100.364 606.735,-88.1361 595.216,-79.5707"/>
<polygon fill="midnightblue" stroke="midnightblue" points="634.58,-113.203 644.694,-116.362 638.757,-107.586 634.58,-113.203"/>
</g>
<!-- Node8 -->
<g id="node15" class="node"><title>Node8</title>
<a xlink:href="MojDbQuotaEngine_8cpp.htm" target="_top" xlink:title="MojDbQuotaEngine.cpp">
<polygon fill="white" stroke="black" points="674,-58.5 674,-79.5 802,-79.5 802,-58.5 674,-58.5"/>
<text text-anchor="middle" x="738" y="-66.5" font-family="Helvetica,sans-Serif" font-size="10.00">MojDbQuotaEngine.cpp</text>
</a>
</g>
<!-- Node1&#45;&gt;Node8 -->
<g id="edge14" class="edge"><title>Node1&#45;&gt;Node8</title>
<path fill="none" stroke="midnightblue" d="M681.803,-110.259C695.28,-100.364 711.935,-88.1361 723.602,-79.5707"/>
<polygon fill="midnightblue" stroke="midnightblue" points="679.479,-107.623 673.49,-116.362 683.622,-113.265 679.479,-107.623"/>
</g>
<!-- Node9 -->
<g id="node18" class="node"><title>Node9</title>
<a xlink:href="MojDbServiceDefs_8cpp.htm" target="_top" xlink:title="MojDbServiceDefs.cpp">
<polygon fill="white" stroke="black" points="819.5,-58.5 819.5,-79.5 942.5,-79.5 942.5,-58.5 819.5,-58.5"/>
<text text-anchor="middle" x="881" y="-66.5" font-family="Helvetica,sans-Serif" font-size="10.00">MojDbServiceDefs.cpp</text>
</a>
</g>
<!-- Node1&#45;&gt;Node9 -->
<g id="edge18" class="edge"><title>Node1&#45;&gt;Node9</title>
<path fill="none" stroke="midnightblue" d="M708.97,-113.945C748.757,-103.55 803.722,-89.1897 840.722,-79.5231"/>
<polygon fill="midnightblue" stroke="midnightblue" points="707.993,-110.582 699.203,-116.497 709.763,-117.355 707.993,-110.582"/>
</g>
<!-- Node10 -->
<g id="node20" class="node"><title>Node10</title>
<a xlink:href="MojDbServiceHandler_8cpp.htm" target="_top" xlink:title="MojDbServiceHandler.cpp">
<polygon fill="white" stroke="black" points="959.5,-58.5 959.5,-79.5 1098.5,-79.5 1098.5,-58.5 959.5,-58.5"/>
<text text-anchor="middle" x="1029" y="-66.5" font-family="Helvetica,sans-Serif" font-size="10.00">MojDbServiceHandler.cpp</text>
</a>
</g>
<!-- Node1&#45;&gt;Node10 -->
<g id="edge20" class="edge"><title>Node1&#45;&gt;Node10</title>
<path fill="none" stroke="midnightblue" d="M725.196,-116.623C792.042,-106.145 894.752,-90.0443 961.914,-79.5162"/>
<polygon fill="midnightblue" stroke="midnightblue" points="724.532,-113.185 715.195,-118.191 725.616,-120.1 724.532,-113.185"/>
</g>
<!-- Node11 -->
<g id="node22" class="node"><title>Node11</title>
<a xlink:href="MojDbServiceHandlerBase_8cpp.htm" target="_top" xlink:title="MojDbServiceHandlerBase.cpp">
<polygon fill="white" stroke="black" points="1115.5,-58.5 1115.5,-79.5 1278.5,-79.5 1278.5,-58.5 1115.5,-58.5"/>
<text text-anchor="middle" x="1197" y="-66.5" font-family="Helvetica,sans-Serif" font-size="10.00">MojDbServiceHandlerBase.cpp</text>
</a>
</g>
<!-- Node1&#45;&gt;Node11 -->
<g id="edge22" class="edge"><title>Node1&#45;&gt;Node11</title>
<path fill="none" stroke="midnightblue" d="M725.308,-120.401C812.786,-111.613 971.523,-95.3845 1107,-80 1109.66,-79.6981 1112.36,-79.3877 1115.09,-79.0714"/>
<polygon fill="midnightblue" stroke="midnightblue" points="724.859,-116.928 715.259,-121.409 725.558,-123.894 724.859,-116.928"/>
</g>
<!-- Node12 -->
<g id="node24" class="node"><title>Node12</title>
<a xlink:href="MojDbServiceHandlerInternal_8cpp.htm" target="_top" xlink:title="MojDbServiceHandlerInternal.cpp">
<polygon fill="white" stroke="black" points="1295.5,-58.5 1295.5,-79.5 1470.5,-79.5 1470.5,-58.5 1295.5,-58.5"/>
<text text-anchor="middle" x="1383" y="-66.5" font-family="Helvetica,sans-Serif" font-size="10.00">MojDbServiceHandlerInternal.cpp</text>
</a>
</g>
<!-- Node1&#45;&gt;Node12 -->
<g id="edge24" class="edge"><title>Node1&#45;&gt;Node12</title>
<path fill="none" stroke="midnightblue" d="M725.384,-122.894C840.042,-115.61 1082.55,-99.356 1287,-80 1289.76,-79.7391 1292.55,-79.4661 1295.38,-79.1838"/>
<polygon fill="midnightblue" stroke="midnightblue" points="725.116,-119.404 715.357,-123.529 725.558,-126.39 725.116,-119.404"/>
</g>
<!-- Node13 -->
<g id="node26" class="node"><title>Node13</title>
<a xlink:href="MojDbLunaServiceApp_8cpp.htm" target="_top" xlink:title="MojDbLunaServiceApp.cpp">
<polygon fill="white" stroke="black" points="1487.5,-58.5 1487.5,-79.5 1630.5,-79.5 1630.5,-58.5 1487.5,-58.5"/>
<text text-anchor="middle" x="1559" y="-66.5" font-family="Helvetica,sans-Serif" font-size="10.00">MojDbLunaServiceApp.cpp</text>
</a>
</g>
<!-- Node1&#45;&gt;Node13 -->
<g id="edge26" class="edge"><title>Node1&#45;&gt;Node13</title>
<path fill="none" stroke="midnightblue" d="M725.41,-124.982C865.136,-120.342 1199.66,-107.167 1479,-80 1481.65,-79.7422 1484.35,-79.462 1487.07,-79.1643"/>
<polygon fill="midnightblue" stroke="midnightblue" points="725.169,-121.488 715.29,-125.314 725.399,-128.484 725.169,-121.488"/>
</g>
<!-- Node2&#45;&gt;Node3 -->
<g id="edge4" class="edge"><title>Node2&#45;&gt;Node3</title>
<path fill="none" stroke="midnightblue" d="M71.9006,-50.2504C78.944,-40.75 87.2362,-29.5651 93.1631,-21.5707"/>
<polygon fill="midnightblue" stroke="midnightblue" points="69.0309,-48.2443 65.8869,-58.3619 74.6541,-52.4132 69.0309,-48.2443"/>
</g>
</g>
</svg>
