<?xml version="1.0" encoding="UTF-8" standalone="no"?>
<!DOCTYPE svg PUBLIC "-//W3C//DTD SVG 1.1//EN"
 "http://www.w3.org/Graphics/SVG/1.1/DTD/svg11.dtd">
<!-- Generated by graphviz version 2.26.3 (20100126.1600)
 -->
<!-- Title: MojDbLevelContainerIterator.cpp Pages: 1 -->
<svg width="230pt" height="160pt"
 viewBox="0.00 0.00 230.00 160.00" xmlns="http://www.w3.org/2000/svg" xmlns:xlink="http://www.w3.org/1999/xlink">
<g id="graph1" class="graph" transform="scale(1 1) rotate(0) translate(4 156)">
<title>MojDbLevelContainerIterator.cpp</title>
<polygon fill="white" stroke="white" points="-4,5 -4,-156 227,-156 227,5 -4,5"/>
<!-- Node1 -->
<g id="node1" class="node"><title>Node1</title>
<polygon fill="#bfbfbf" stroke="black" points="-0.5,-130.5 -0.5,-151.5 172.5,-151.5 172.5,-130.5 -0.5,-130.5"/>
<text text-anchor="middle" x="86" y="-138.5" font-family="Helvetica,sans-Serif" font-size="10.00">MojDbLevelContainerIterator.cpp</text>
</g>
<!-- Node2 -->
<g id="node3" class="node"><title>Node2</title>
<polygon fill="white" stroke="#bfbfbf" points="3.5,-65.5 3.5,-86.5 54.5,-86.5 54.5,-65.5 3.5,-65.5"/>
<text text-anchor="middle" x="29" y="-73.5" font-family="Helvetica,sans-Serif" font-size="10.00">cassert</text>
</g>
<!-- Node1&#45;&gt;Node2 -->
<g id="edge2" class="edge"><title>Node1&#45;&gt;Node2</title>
<path fill="none" stroke="midnightblue" d="M76.5876,-130.267C68.0383,-120.517 55.2478,-105.932 45.0797,-94.3365"/>
<polygon fill="midnightblue" stroke="midnightblue" points="47.462,-91.7447 38.2372,-86.5337 42.199,-96.36 47.462,-91.7447"/>
</g>
<!-- Node3 -->
<g id="node5" class="node"><title>Node3</title>
<a xlink:href="MojDbLevelContainerIterator_8h.htm" target="_top" xlink:title="db&#45;luna/leveldb/MojDbLevel\lContainerIterator.h">
<polygon fill="white" stroke="black" points="71.5,-59 71.5,-93 216.5,-93 216.5,-59 71.5,-59"/>
<text text-anchor="start" x="79.5" y="-80" font-family="Helvetica,sans-Serif" font-size="10.00">db&#45;luna/leveldb/MojDbLevel</text>
<text text-anchor="middle" x="144" y="-67" font-family="Helvetica,sans-Serif" font-size="10.00">ContainerIterator.h</text>
</a>
</g>
<!-- Node1&#45;&gt;Node3 -->
<g id="edge4" class="edge"><title>Node1&#45;&gt;Node3</title>
<path fill="none" stroke="midnightblue" d="M95.5775,-130.267C102.757,-122.221 112.875,-110.882 122.007,-100.648"/>
<polygon fill="midnightblue" stroke="midnightblue" points="124.686,-102.902 128.733,-93.1099 119.463,-98.241 124.686,-102.902"/>
</g>
<!-- Node4 -->
<g id="node7" class="node"><title>Node4</title>
<a xlink:href="MojNoCopy_8h.htm" target="_top" xlink:title="core/MojNoCopy.h">
<polygon fill="white" stroke="black" points="4,-0.5 4,-21.5 108,-21.5 108,-0.5 4,-0.5"/>
<text text-anchor="middle" x="56" y="-8.5" font-family="Helvetica,sans-Serif" font-size="10.00">core/MojNoCopy.h</text>
</a>
</g>
<!-- Node3&#45;&gt;Node4 -->
<g id="edge6" class="edge"><title>Node3&#45;&gt;Node4</title>
<path fill="none" stroke="midnightblue" d="M120.879,-58.922C107.887,-49.3257 91.7337,-37.3942 78.7952,-27.8374"/>
<polygon fill="midnightblue" stroke="midnightblue" points="80.553,-24.7845 70.4298,-21.6584 76.394,-30.415 80.553,-24.7845"/>
</g>
<!-- Node5 -->
<g id="node9" class="node"><title>Node5</title>
<polygon fill="white" stroke="#bfbfbf" points="125.5,-0.5 125.5,-21.5 162.5,-21.5 162.5,-0.5 125.5,-0.5"/>
<text text-anchor="middle" x="144" y="-8.5" font-family="Helvetica,sans-Serif" font-size="10.00">map</text>
</g>
<!-- Node3&#45;&gt;Node5 -->
<g id="edge8" class="edge"><title>Node3&#45;&gt;Node5</title>
<path fill="none" stroke="midnightblue" d="M144,-58.922C144,-50.6704 144,-40.6922 144,-31.9818"/>
<polygon fill="midnightblue" stroke="midnightblue" points="147.5,-31.8521 144,-21.8521 140.5,-31.8521 147.5,-31.8521"/>
</g>
<!-- Node6 -->
<g id="node11" class="node"><title>Node6</title>
<polygon fill="white" stroke="#bfbfbf" points="179.5,-0.5 179.5,-21.5 222.5,-21.5 222.5,-0.5 179.5,-0.5"/>
<text text-anchor="middle" x="201" y="-8.5" font-family="Helvetica,sans-Serif" font-size="10.00">string</text>
</g>
<!-- Node3&#45;&gt;Node6 -->
<g id="edge10" class="edge"><title>Node3&#45;&gt;Node6</title>
<path fill="none" stroke="midnightblue" d="M158.976,-58.922C166.936,-49.8453 176.727,-38.6793 184.856,-29.4097"/>
<polygon fill="midnightblue" stroke="midnightblue" points="187.522,-31.6784 191.484,-21.8521 182.259,-27.0631 187.522,-31.6784"/>
</g>
</g>
</svg>
