<?xml version="1.0" encoding="UTF-8" standalone="no"?>
<!DOCTYPE svg PUBLIC "-//W3C//DTD SVG 1.1//EN"
 "http://www.w3.org/Graphics/SVG/1.1/DTD/svg11.dtd">
<!-- Generated by graphviz version 2.26.3 (20100126.1600)
 -->
<!-- Title: MojDbBerkeleyEngine.h Pages: 1 -->
<svg width="422pt" height="146pt"
 viewBox="0.00 0.00 422.00 146.00" xmlns="http://www.w3.org/2000/svg" xmlns:xlink="http://www.w3.org/1999/xlink">
<g id="graph1" class="graph" transform="scale(1 1) rotate(0) translate(4 142)">
<title>MojDbBerkeleyEngine.h</title>
<polygon fill="white" stroke="white" points="-4,5 -4,-142 419,-142 419,5 -4,5"/>
<!-- Node1 -->
<g id="node1" class="node"><title>Node1</title>
<polygon fill="#bfbfbf" stroke="black" points="134.5,-116.5 134.5,-137.5 263.5,-137.5 263.5,-116.5 134.5,-116.5"/>
<text text-anchor="middle" x="199" y="-124.5" font-family="Helvetica,sans-Serif" font-size="10.00">MojDbBerkeleyEngine.h</text>
</g>
<!-- Node2 -->
<g id="node3" class="node"><title>Node2</title>
<a xlink:href="MojDbBerkeleyQuery_8h.htm" target="_top" xlink:title="MojDbBerkeleyQuery.h">
<polygon fill="white" stroke="black" points="91.5,-58.5 91.5,-79.5 216.5,-79.5 216.5,-58.5 91.5,-58.5"/>
<text text-anchor="middle" x="154" y="-66.5" font-family="Helvetica,sans-Serif" font-size="10.00">MojDbBerkeleyQuery.h</text>
</a>
</g>
<!-- Node1&#45;&gt;Node2 -->
<g id="edge2" class="edge"><title>Node1&#45;&gt;Node2</title>
<path fill="none" stroke="midnightblue" d="M184.453,-108.25C177.082,-98.75 168.404,-87.5651 162.201,-79.5707"/>
<polygon fill="midnightblue" stroke="midnightblue" points="181.851,-110.607 190.746,-116.362 187.382,-106.316 181.851,-110.607"/>
</g>
<!-- Node3 -->
<g id="node5" class="node"><title>Node3</title>
<a xlink:href="MojDbBerkeleyEngine_8cpp.htm" target="_top" xlink:title="MojDbBerkeleyEngine.cpp">
<polygon fill="white" stroke="black" points="0,-0.5 0,-21.5 140,-21.5 140,-0.5 0,-0.5"/>
<text text-anchor="middle" x="70" y="-8.5" font-family="Helvetica,sans-Serif" font-size="10.00">MojDbBerkeleyEngine.cpp</text>
</a>
</g>
<!-- Node1&#45;&gt;Node3 -->
<g id="edge8" class="edge"><title>Node1&#45;&gt;Node3</title>
<path fill="none" stroke="midnightblue" d="M133.522,-113.175C114.71,-106.17 95.8351,-95.6777 83,-80 69.2549,-63.2108 68.3391,-36.4104 69.0571,-21.6375"/>
<polygon fill="midnightblue" stroke="midnightblue" points="132.427,-116.499 143.022,-116.434 134.699,-109.878 132.427,-116.499"/>
</g>
<!-- Node4 -->
<g id="node7" class="node"><title>Node4</title>
<a xlink:href="MojDbBerkeleyQuery_8cpp.htm" target="_top" xlink:title="MojDbBerkeleyQuery.cpp">
<polygon fill="white" stroke="black" points="170,-0.5 170,-21.5 306,-21.5 306,-0.5 170,-0.5"/>
<text text-anchor="middle" x="238" y="-8.5" font-family="Helvetica,sans-Serif" font-size="10.00">MojDbBerkeleyQuery.cpp</text>
</a>
</g>
<!-- Node1&#45;&gt;Node4 -->
<g id="edge12" class="edge"><title>Node1&#45;&gt;Node4</title>
<path fill="none" stroke="midnightblue" d="M211.625,-107.495C216.444,-99.2863 221.593,-89.4586 225,-80 232.188,-60.0448 235.611,-35.3399 237.066,-21.5608"/>
<polygon fill="midnightblue" stroke="midnightblue" points="208.489,-105.913 206.243,-116.268 214.456,-109.574 208.489,-105.913"/>
</g>
<!-- Node5 -->
<g id="node10" class="node"><title>Node5</title>
<a xlink:href="MojDbBerkeleyFactory_8cpp.htm" target="_top" xlink:title="MojDbBerkeleyFactory.cpp">
<polygon fill="white" stroke="black" points="271.5,-58.5 271.5,-79.5 414.5,-79.5 414.5,-58.5 271.5,-58.5"/>
<text text-anchor="middle" x="343" y="-66.5" font-family="Helvetica,sans-Serif" font-size="10.00">MojDbBerkeleyFactory.cpp</text>
</a>
</g>
<!-- Node1&#45;&gt;Node5 -->
<g id="edge10" class="edge"><title>Node1&#45;&gt;Node5</title>
<path fill="none" stroke="midnightblue" d="M234.377,-112.751C259.806,-102.509 293.542,-88.9206 316.63,-79.6212"/>
<polygon fill="midnightblue" stroke="midnightblue" points="233.046,-109.514 225.077,-116.497 235.661,-116.007 233.046,-109.514"/>
</g>
<!-- Node2&#45;&gt;Node3 -->
<g id="edge4" class="edge"><title>Node2&#45;&gt;Node3</title>
<path fill="none" stroke="midnightblue" d="M130.162,-52.5407C115.762,-42.5973 97.8325,-30.2177 85.3092,-21.5707"/>
<polygon fill="midnightblue" stroke="midnightblue" points="128.375,-55.5601 138.593,-58.3619 132.353,-49.7998 128.375,-55.5601"/>
</g>
<!-- Node2&#45;&gt;Node4 -->
<g id="edge6" class="edge"><title>Node2&#45;&gt;Node4</title>
<path fill="none" stroke="midnightblue" d="M177.838,-52.5407C192.238,-42.5973 210.167,-30.2177 222.691,-21.5707"/>
<polygon fill="midnightblue" stroke="midnightblue" points="175.647,-49.7998 169.407,-58.3619 179.625,-55.5601 175.647,-49.7998"/>
</g>
</g>
</svg>
