<?xml version="1.0" encoding="UTF-8" standalone="no"?>
<!DOCTYPE svg PUBLIC "-//W3C//DTD SVG 1.1//EN"
 "http://www.w3.org/Graphics/SVG/1.1/DTD/svg11.dtd">
<!-- Generated by graphviz version 2.26.3 (20100126.1600)
 -->
<!-- Title: MojDbLevelIndex.h Pages: 1 -->
<svg width="280pt" height="88pt"
 viewBox="0.00 0.00 280.00 88.00" xmlns="http://www.w3.org/2000/svg" xmlns:xlink="http://www.w3.org/1999/xlink">
<g id="graph1" class="graph" transform="scale(1 1) rotate(0) translate(4 84)">
<title>MojDbLevelIndex.h</title>
<polygon fill="white" stroke="white" points="-4,5 -4,-84 277,-84 277,5 -4,5"/>
<!-- Node1 -->
<g id="node1" class="node"><title>Node1</title>
<polygon fill="#bfbfbf" stroke="black" points="86.5,-58.5 86.5,-79.5 193.5,-79.5 193.5,-58.5 86.5,-58.5"/>
<text text-anchor="middle" x="140" y="-66.5" font-family="Helvetica,sans-Serif" font-size="10.00">MojDbLevelIndex.h</text>
</g>
<!-- Node2 -->
<g id="node3" class="node"><title>Node2</title>
<a xlink:href="MojDbLevelDatabase_8cpp.htm" target="_top" xlink:title="MojDbLevelDatabase.cpp">
<polygon fill="white" stroke="black" points="-0.5,-0.5 -0.5,-21.5 136.5,-21.5 136.5,-0.5 -0.5,-0.5"/>
<text text-anchor="middle" x="68" y="-8.5" font-family="Helvetica,sans-Serif" font-size="10.00">MojDbLevelDatabase.cpp</text>
</a>
</g>
<!-- Node1&#45;&gt;Node2 -->
<g id="edge2" class="edge"><title>Node1&#45;&gt;Node2</title>
<path fill="none" stroke="midnightblue" d="M118.866,-51.9753C106.646,-42.1315 91.6539,-30.0545 81.1222,-21.5707"/>
<polygon fill="midnightblue" stroke="midnightblue" points="116.811,-54.8142 126.794,-58.3619 121.202,-49.3629 116.811,-54.8142"/>
</g>
<!-- Node3 -->
<g id="node5" class="node"><title>Node3</title>
<a xlink:href="MojDbLevelIndex_8cpp.htm" target="_top" xlink:title="MojDbLevelIndex.cpp">
<polygon fill="white" stroke="black" points="154,-0.5 154,-21.5 272,-21.5 272,-0.5 154,-0.5"/>
<text text-anchor="middle" x="213" y="-8.5" font-family="Helvetica,sans-Serif" font-size="10.00">MojDbLevelIndex.cpp</text>
</a>
</g>
<!-- Node1&#45;&gt;Node3 -->
<g id="edge4" class="edge"><title>Node1&#45;&gt;Node3</title>
<path fill="none" stroke="midnightblue" d="M161.428,-51.9753C173.817,-42.1315 189.018,-30.0545 199.696,-21.5707"/>
<polygon fill="midnightblue" stroke="midnightblue" points="159.042,-49.4008 153.389,-58.3619 163.396,-54.8815 159.042,-49.4008"/>
</g>
</g>
</svg>
