<?xml version="1.0" encoding="UTF-8" standalone="no"?>
<!DOCTYPE svg PUBLIC "-//W3C//DTD SVG 1.1//EN"
 "http://www.w3.org/Graphics/SVG/1.1/DTD/svg11.dtd">
<!-- Generated by graphviz version 2.26.3 (20100126.1600)
 -->
<!-- Title: MojDbBerkeleyFactory.h Pages: 1 -->
<svg width="308pt" height="88pt"
 viewBox="0.00 0.00 308.00 88.00" xmlns="http://www.w3.org/2000/svg" xmlns:xlink="http://www.w3.org/1999/xlink">
<g id="graph1" class="graph" transform="scale(1 1) rotate(0) translate(4 84)">
<title>MojDbBerkeleyFactory.h</title>
<polygon fill="white" stroke="white" points="-4,5 -4,-84 305,-84 305,5 -4,5"/>
<!-- Node1 -->
<g id="node1" class="node"><title>Node1</title>
<polygon fill="#bfbfbf" stroke="black" points="83.5,-58.5 83.5,-79.5 214.5,-79.5 214.5,-58.5 83.5,-58.5"/>
<text text-anchor="middle" x="149" y="-66.5" font-family="Helvetica,sans-Serif" font-size="10.00">MojDbBerkeleyFactory.h</text>
</g>
<!-- Node2 -->
<g id="node3" class="node"><title>Node2</title>
<a xlink:href="MojDbBerkeleyEngine_8cpp.htm" target="_top" xlink:title="MojDbBerkeleyEngine.cpp">
<polygon fill="white" stroke="black" points="0,-0.5 0,-21.5 140,-21.5 140,-0.5 0,-0.5"/>
<text text-anchor="middle" x="70" y="-8.5" font-family="Helvetica,sans-Serif" font-size="10.00">MojDbBerkeleyEngine.cpp</text>
</a>
</g>
<!-- Node1&#45;&gt;Node2 -->
<g id="edge2" class="edge"><title>Node1&#45;&gt;Node2</title>
<path fill="none" stroke="midnightblue" d="M126.197,-52.2587C112.72,-42.3641 96.0647,-30.1361 84.398,-21.5707"/>
<polygon fill="midnightblue" stroke="midnightblue" points="124.378,-55.2651 134.51,-58.3619 128.521,-49.6225 124.378,-55.2651"/>
</g>
<!-- Node3 -->
<g id="node5" class="node"><title>Node3</title>
<a xlink:href="MojDbBerkeleyFactory_8cpp.htm" target="_top" xlink:title="MojDbBerkeleyFactory.cpp">
<polygon fill="white" stroke="black" points="157.5,-0.5 157.5,-21.5 300.5,-21.5 300.5,-0.5 157.5,-0.5"/>
<text text-anchor="middle" x="229" y="-8.5" font-family="Helvetica,sans-Serif" font-size="10.00">MojDbBerkeleyFactory.cpp</text>
</a>
</g>
<!-- Node1&#45;&gt;Node3 -->
<g id="edge4" class="edge"><title>Node1&#45;&gt;Node3</title>
<path fill="none" stroke="midnightblue" d="M172.092,-52.2587C185.739,-42.3641 202.605,-30.1361 214.42,-21.5707"/>
<polygon fill="midnightblue" stroke="midnightblue" points="169.715,-49.6585 163.673,-58.3619 173.824,-55.3258 169.715,-49.6585"/>
</g>
</g>
</svg>
