<?xml version="1.0" encoding="UTF-8" standalone="no"?>
<!DOCTYPE svg PUBLIC "-//W3C//DTD SVG 1.1//EN"
 "http://www.w3.org/Graphics/SVG/1.1/DTD/svg11.dtd">
<!-- Generated by graphviz version 2.26.3 (20100126.1600)
 -->
<!-- Title: MojDataSerialization.h Pages: 1 -->
<svg width="2784pt" height="320pt"
 viewBox="0.00 0.00 2784.00 320.00" xmlns="http://www.w3.org/2000/svg" xmlns:xlink="http://www.w3.org/1999/xlink">
<g id="graph1" class="graph" transform="scale(1 1) rotate(0) translate(4 316)">
<title>MojDataSerialization.h</title>
<polygon fill="white" stroke="white" points="-4,5 -4,-316 2781,-316 2781,5 -4,5"/>
<!-- Node1 -->
<g id="node1" class="node"><title>Node1</title>
<polygon fill="#bfbfbf" stroke="black" points="2363,-290.5 2363,-311.5 2485,-311.5 2485,-290.5 2363,-290.5"/>
<text text-anchor="middle" x="2424" y="-298.5" font-family="Helvetica,sans-Serif" font-size="10.00">MojDataSerialization.h</text>
</g>
<!-- Node2 -->
<g id="node3" class="node"><title>Node2</title>
<a xlink:href="MojObjectSerialization_8h.htm" target="_top" xlink:title="MojObjectSerialization.h">
<polygon fill="white" stroke="black" points="1413,-232.5 1413,-253.5 1543,-253.5 1543,-232.5 1413,-232.5"/>
<text text-anchor="middle" x="1478" y="-240.5" font-family="Helvetica,sans-Serif" font-size="10.00">MojObjectSerialization.h</text>
</a>
</g>
<!-- Node1&#45;&gt;Node2 -->
<g id="edge2" class="edge"><title>Node1&#45;&gt;Node2</title>
<path fill="none" stroke="midnightblue" d="M2352.63,-296.624C2174.86,-285.725 1714.32,-257.489 1543.25,-247"/>
<polygon fill="midnightblue" stroke="midnightblue" points="2352.46,-300.121 2362.66,-297.239 2352.89,-293.134 2352.46,-300.121"/>
</g>
<!-- Node31 -->
<g id="node71" class="node"><title>Node31</title>
<a xlink:href="MojSocketService_8h.htm" target="_top" xlink:title="MojSocketService.h">
<polygon fill="white" stroke="black" points="2328,-232.5 2328,-253.5 2438,-253.5 2438,-232.5 2328,-232.5"/>
<text text-anchor="middle" x="2383" y="-240.5" font-family="Helvetica,sans-Serif" font-size="10.00">MojSocketService.h</text>
</a>
</g>
<!-- Node1&#45;&gt;Node31 -->
<g id="edge80" class="edge"><title>Node1&#45;&gt;Node31</title>
<path fill="none" stroke="midnightblue" d="M2410.54,-281.959C2403.87,-272.522 2396.07,-261.484 2390.47,-253.571"/>
<polygon fill="midnightblue" stroke="midnightblue" points="2407.85,-284.216 2416.48,-290.362 2413.57,-280.176 2407.85,-284.216"/>
</g>
<!-- Node32 -->
<g id="node73" class="node"><title>Node32</title>
<a xlink:href="MojSocketMessage_8cpp.htm" target="_top" xlink:title="MojSocketMessage.cpp">
<polygon fill="white" stroke="black" points="2259.5,-174.5 2259.5,-195.5 2388.5,-195.5 2388.5,-174.5 2259.5,-174.5"/>
<text text-anchor="middle" x="2324" y="-182.5" font-family="Helvetica,sans-Serif" font-size="10.00">MojSocketMessage.cpp</text>
</a>
</g>
<!-- Node1&#45;&gt;Node32 -->
<g id="edge90" class="edge"><title>Node1&#45;&gt;Node32</title>
<path fill="none" stroke="midnightblue" d="M2362.45,-286.921C2345.5,-279.915 2329.03,-269.485 2319,-254 2307.5,-236.26 2314.18,-210.299 2319.47,-195.806"/>
<polygon fill="midnightblue" stroke="midnightblue" points="2361.29,-290.223 2371.88,-290.472 2363.76,-283.672 2361.29,-290.223"/>
</g>
<!-- Node33 -->
<g id="node75" class="node"><title>Node33</title>
<a xlink:href="MojSocketService_8cpp.htm" target="_top" xlink:title="MojSocketService.cpp">
<polygon fill="white" stroke="black" points="2405.5,-174.5 2405.5,-195.5 2526.5,-195.5 2526.5,-174.5 2405.5,-174.5"/>
<text text-anchor="middle" x="2466" y="-182.5" font-family="Helvetica,sans-Serif" font-size="10.00">MojSocketService.cpp</text>
</a>
</g>
<!-- Node1&#45;&gt;Node33 -->
<g id="edge92" class="edge"><title>Node1&#45;&gt;Node33</title>
<path fill="none" stroke="midnightblue" d="M2434.54,-281.524C2438.78,-273.201 2443.49,-263.282 2447,-254 2454.57,-234.013 2460.54,-209.736 2463.65,-195.956"/>
<polygon fill="midnightblue" stroke="midnightblue" points="2431.42,-279.943 2429.88,-290.426 2437.62,-283.191 2431.42,-279.943"/>
</g>
<!-- Node34 -->
<g id="node77" class="node"><title>Node34</title>
<a xlink:href="MojDataSerialization_8cpp.htm" target="_top" xlink:title="MojDataSerialization.cpp">
<polygon fill="white" stroke="black" points="2494,-232.5 2494,-253.5 2628,-253.5 2628,-232.5 2494,-232.5"/>
<text text-anchor="middle" x="2561" y="-240.5" font-family="Helvetica,sans-Serif" font-size="10.00">MojDataSerialization.cpp</text>
</a>
</g>
<!-- Node1&#45;&gt;Node34 -->
<g id="edge86" class="edge"><title>Node1&#45;&gt;Node34</title>
<path fill="none" stroke="midnightblue" d="M2458.3,-286.479C2482.42,-276.269 2514.14,-262.839 2535.91,-253.621"/>
<polygon fill="midnightblue" stroke="midnightblue" points="2456.65,-283.375 2448.81,-290.497 2459.38,-289.821 2456.65,-283.375"/>
</g>
<!-- Node35 -->
<g id="node79" class="node"><title>Node35</title>
<a xlink:href="MojSocketEncoding_8cpp.htm" target="_top" xlink:title="MojSocketEncoding.cpp">
<polygon fill="white" stroke="black" points="2646,-232.5 2646,-253.5 2776,-253.5 2776,-232.5 2646,-232.5"/>
<text text-anchor="middle" x="2711" y="-240.5" font-family="Helvetica,sans-Serif" font-size="10.00">MojSocketEncoding.cpp</text>
</a>
</g>
<!-- Node1&#45;&gt;Node35 -->
<g id="edge88" class="edge"><title>Node1&#45;&gt;Node35</title>
<path fill="none" stroke="midnightblue" d="M2486,-288.47C2537.62,-278.038 2610.29,-263.354 2658.93,-253.523"/>
<polygon fill="midnightblue" stroke="midnightblue" points="2485.08,-285.085 2475.97,-290.497 2486.47,-291.946 2485.08,-285.085"/>
</g>
<!-- Node3 -->
<g id="node5" class="node"><title>Node3</title>
<a xlink:href="MojDbObjectHeader_8h.htm" target="_top" xlink:title="MojDbObjectHeader.h">
<polygon fill="white" stroke="black" points="778,-174.5 778,-195.5 898,-195.5 898,-174.5 778,-174.5"/>
<text text-anchor="middle" x="838" y="-182.5" font-family="Helvetica,sans-Serif" font-size="10.00">MojDbObjectHeader.h</text>
</a>
</g>
<!-- Node2&#45;&gt;Node3 -->
<g id="edge4" class="edge"><title>Node2&#45;&gt;Node3</title>
<path fill="none" stroke="midnightblue" d="M1402.48,-238.617C1293.01,-231.847 1083.98,-217.36 907,-196 904.11,-195.651 901.155,-195.271 898.173,-194.869"/>
<polygon fill="midnightblue" stroke="midnightblue" points="1402.56,-242.128 1412.76,-239.248 1402.99,-235.141 1402.56,-242.128"/>
</g>
<!-- Node7 -->
<g id="node13" class="node"><title>Node7</title>
<a xlink:href="MojDbLevelEngine_8cpp.htm" target="_top" xlink:title="MojDbLevelEngine.cpp">
<polygon fill="white" stroke="black" points="137.5,-0.5 137.5,-21.5 262.5,-21.5 262.5,-0.5 137.5,-0.5"/>
<text text-anchor="middle" x="200" y="-8.5" font-family="Helvetica,sans-Serif" font-size="10.00">MojDbLevelEngine.cpp</text>
</a>
</g>
<!-- Node2&#45;&gt;Node7 -->
<g id="edge72" class="edge"><title>Node2&#45;&gt;Node7</title>
<path fill="none" stroke="midnightblue" d="M1402.74,-241.94C1173.62,-237.85 487.698,-218.979 282,-138 241.136,-121.913 222.522,-118.827 202,-80 192.144,-61.3524 194.894,-35.732 197.576,-21.5403"/>
<polygon fill="midnightblue" stroke="midnightblue" points="1402.92,-245.444 1412.98,-242.118 1403.04,-238.445 1402.92,-245.444"/>
</g>
<!-- Node9 -->
<g id="node17" class="node"><title>Node9</title>
<a xlink:href="MojDbLevelQuery_8cpp.htm" target="_top" xlink:title="MojDbLevelQuery.cpp">
<polygon fill="white" stroke="black" points="0,-0.5 0,-21.5 120,-21.5 120,-0.5 0,-0.5"/>
<text text-anchor="middle" x="60" y="-8.5" font-family="Helvetica,sans-Serif" font-size="10.00">MojDbLevelQuery.cpp</text>
</a>
</g>
<!-- Node2&#45;&gt;Node9 -->
<g id="edge74" class="edge"><title>Node2&#45;&gt;Node9</title>
<path fill="none" stroke="midnightblue" d="M1402.44,-242.01C1193.89,-238.897 613.238,-227.568 425,-196 335.406,-180.975 310.155,-178.825 229,-138 163.426,-105.014 97.1622,-46.0539 71.3093,-21.8374"/>
<polygon fill="midnightblue" stroke="midnightblue" points="1402.63,-245.513 1412.68,-242.16 1402.73,-238.513 1402.63,-245.513"/>
</g>
<!-- Node16 -->
<g id="node32" class="node"><title>Node16</title>
<a xlink:href="MojDbBerkeleyEngine_8cpp.htm" target="_top" xlink:title="MojDbBerkeleyEngine.cpp">
<polygon fill="white" stroke="black" points="1077,-0.5 1077,-21.5 1217,-21.5 1217,-0.5 1077,-0.5"/>
<text text-anchor="middle" x="1147" y="-8.5" font-family="Helvetica,sans-Serif" font-size="10.00">MojDbBerkeleyEngine.cpp</text>
</a>
</g>
<!-- Node2&#45;&gt;Node16 -->
<g id="edge76" class="edge"><title>Node2&#45;&gt;Node16</title>
<path fill="none" stroke="midnightblue" d="M1553.24,-240.785C1732.28,-235.149 2170.41,-219.058 2192,-196 2198.68,-188.863 2198.36,-181.428 2192,-174 2128.15,-99.4198 1441.6,-35.6855 1217.39,-16.7299"/>
<polygon fill="midnightblue" stroke="midnightblue" points="1553,-237.291 1543.11,-241.101 1553.22,-244.287 1553,-237.291"/>
</g>
<!-- Node17 -->
<g id="node34" class="node"><title>Node17</title>
<a xlink:href="MojDbBerkeleyQuery_8cpp.htm" target="_top" xlink:title="MojDbBerkeleyQuery.cpp">
<polygon fill="white" stroke="black" points="720,-0.5 720,-21.5 856,-21.5 856,-0.5 720,-0.5"/>
<text text-anchor="middle" x="788" y="-8.5" font-family="Helvetica,sans-Serif" font-size="10.00">MojDbBerkeleyQuery.cpp</text>
</a>
</g>
<!-- Node2&#45;&gt;Node17 -->
<g id="edge78" class="edge"><title>Node2&#45;&gt;Node17</title>
<path fill="none" stroke="midnightblue" d="M1402.64,-240.745C1224.45,-235.046 790.409,-218.875 769,-196 722.448,-146.26 765.542,-52.8361 782.13,-21.5286"/>
<polygon fill="midnightblue" stroke="midnightblue" points="1402.62,-244.246 1412.73,-241.065 1402.84,-237.249 1402.62,-244.246"/>
</g>
<!-- Node19 -->
<g id="node40" class="node"><title>Node19</title>
<a xlink:href="MojDb_8cpp.htm" target="_top" xlink:title="MojDb.cpp">
<polygon fill="white" stroke="black" points="1740,-116.5 1740,-137.5 1806,-137.5 1806,-116.5 1740,-116.5"/>
<text text-anchor="middle" x="1773" y="-124.5" font-family="Helvetica,sans-Serif" font-size="10.00">MojDb.cpp</text>
</a>
</g>
<!-- Node2&#45;&gt;Node19 -->
<g id="edge56" class="edge"><title>Node2&#45;&gt;Node19</title>
<path fill="none" stroke="midnightblue" d="M1553.3,-240.657C1729.23,-234.816 2154.01,-218.45 2175,-196 2226.74,-140.65 1911.06,-129.622 1806.09,-127.493"/>
<polygon fill="midnightblue" stroke="midnightblue" points="1552.97,-237.166 1543.09,-240.993 1553.2,-244.162 1552.97,-237.166"/>
</g>
<!-- Node21 -->
<g id="node46" class="node"><title>Node21</title>
<a xlink:href="MojObject_8cpp.htm" target="_top" xlink:title="MojObject.cpp">
<polygon fill="white" stroke="black" points="915.5,-174.5 915.5,-195.5 998.5,-195.5 998.5,-174.5 915.5,-174.5"/>
<text text-anchor="middle" x="957" y="-182.5" font-family="Helvetica,sans-Serif" font-size="10.00">MojObject.cpp</text>
</a>
</g>
<!-- Node2&#45;&gt;Node21 -->
<g id="edge50" class="edge"><title>Node2&#45;&gt;Node21</title>
<path fill="none" stroke="midnightblue" d="M1402.74,-238.219C1309.47,-231.667 1145.84,-218.122 1007,-196 1004.28,-195.566 1001.48,-195.077 998.672,-194.55"/>
<polygon fill="midnightblue" stroke="midnightblue" points="1402.71,-241.725 1412.93,-238.927 1403.2,-234.742 1402.71,-241.725"/>
</g>
<!-- Node22 -->
<g id="node48" class="node"><title>Node22</title>
<a xlink:href="MojObjectSerialization_8cpp.htm" target="_top" xlink:title="MojObjectSerialization.cpp">
<polygon fill="white" stroke="black" points="1015.5,-174.5 1015.5,-195.5 1156.5,-195.5 1156.5,-174.5 1015.5,-174.5"/>
<text text-anchor="middle" x="1086" y="-182.5" font-family="Helvetica,sans-Serif" font-size="10.00">MojObjectSerialization.cpp</text>
</a>
</g>
<!-- Node2&#45;&gt;Node22 -->
<g id="edge52" class="edge"><title>Node2&#45;&gt;Node22</title>
<path fill="none" stroke="midnightblue" d="M1402.61,-231.846C1331.6,-221.339 1226.04,-205.721 1156.63,-195.451"/>
<polygon fill="midnightblue" stroke="midnightblue" points="1402.42,-235.356 1412.83,-233.357 1403.45,-228.431 1402.42,-235.356"/>
</g>
<!-- Node23 -->
<g id="node50" class="node"><title>Node23</title>
<a xlink:href="MojTokenSet_8cpp.htm" target="_top" xlink:title="MojTokenSet.cpp">
<polygon fill="white" stroke="black" points="1173.5,-174.5 1173.5,-195.5 1272.5,-195.5 1272.5,-174.5 1173.5,-174.5"/>
<text text-anchor="middle" x="1223" y="-182.5" font-family="Helvetica,sans-Serif" font-size="10.00">MojTokenSet.cpp</text>
</a>
</g>
<!-- Node2&#45;&gt;Node23 -->
<g id="edge54" class="edge"><title>Node2&#45;&gt;Node23</title>
<path fill="none" stroke="midnightblue" d="M1422.05,-230.274C1376.24,-219.855 1312.22,-205.292 1269.27,-195.523"/>
<polygon fill="midnightblue" stroke="midnightblue" points="1421.29,-233.692 1431.82,-232.497 1422.85,-226.866 1421.29,-233.692"/>
</g>
<!-- Node24 -->
<g id="node53" class="node"><title>Node24</title>
<a xlink:href="MojDbIdGenerator_8cpp.htm" target="_top" xlink:title="MojDbIdGenerator.cpp">
<polygon fill="white" stroke="black" points="1290,-174.5 1290,-195.5 1414,-195.5 1414,-174.5 1290,-174.5"/>
<text text-anchor="middle" x="1352" y="-182.5" font-family="Helvetica,sans-Serif" font-size="10.00">MojDbIdGenerator.cpp</text>
</a>
</g>
<!-- Node2&#45;&gt;Node24 -->
<g id="edge58" class="edge"><title>Node2&#45;&gt;Node24</title>
<path fill="none" stroke="midnightblue" d="M1445.86,-228.206C1423.76,-218.031 1394.92,-204.757 1375.07,-195.621"/>
<polygon fill="midnightblue" stroke="midnightblue" points="1444.64,-231.494 1455.18,-232.497 1447.56,-225.136 1444.64,-231.494"/>
</g>
<!-- Node25 -->
<g id="node55" class="node"><title>Node25</title>
<a xlink:href="MojDbIndex_8cpp.htm" target="_top" xlink:title="MojDbIndex.cpp">
<polygon fill="white" stroke="black" points="1432,-174.5 1432,-195.5 1524,-195.5 1524,-174.5 1432,-174.5"/>
<text text-anchor="middle" x="1478" y="-182.5" font-family="Helvetica,sans-Serif" font-size="10.00">MojDbIndex.cpp</text>
</a>
</g>
<!-- Node2&#45;&gt;Node25 -->
<g id="edge60" class="edge"><title>Node2&#45;&gt;Node25</title>
<path fill="none" stroke="midnightblue" d="M1478,-222.191C1478,-213.168 1478,-202.994 1478,-195.571"/>
<polygon fill="midnightblue" stroke="midnightblue" points="1474.5,-222.362 1478,-232.362 1481.5,-222.362 1474.5,-222.362"/>
</g>
<!-- Node26 -->
<g id="node57" class="node"><title>Node26</title>
<a xlink:href="MojDbIsamQuery_8cpp.htm" target="_top" xlink:title="MojDbIsamQuery.cpp">
<polygon fill="white" stroke="black" points="1541.5,-174.5 1541.5,-195.5 1658.5,-195.5 1658.5,-174.5 1541.5,-174.5"/>
<text text-anchor="middle" x="1600" y="-182.5" font-family="Helvetica,sans-Serif" font-size="10.00">MojDbIsamQuery.cpp</text>
</a>
</g>
<!-- Node2&#45;&gt;Node26 -->
<g id="edge62" class="edge"><title>Node2&#45;&gt;Node26</title>
<path fill="none" stroke="midnightblue" d="M1509.41,-228.069C1530.77,-217.912 1558.53,-204.716 1577.66,-195.621"/>
<polygon fill="midnightblue" stroke="midnightblue" points="1507.62,-225.042 1500.09,-232.497 1510.63,-231.364 1507.62,-225.042"/>
</g>
<!-- Node27 -->
<g id="node59" class="node"><title>Node27</title>
<a xlink:href="MojDbKey_8cpp.htm" target="_top" xlink:title="MojDbKey.cpp">
<polygon fill="white" stroke="black" points="1676,-174.5 1676,-195.5 1760,-195.5 1760,-174.5 1676,-174.5"/>
<text text-anchor="middle" x="1718" y="-182.5" font-family="Helvetica,sans-Serif" font-size="10.00">MojDbKey.cpp</text>
</a>
</g>
<!-- Node2&#45;&gt;Node27 -->
<g id="edge64" class="edge"><title>Node2&#45;&gt;Node27</title>
<path fill="none" stroke="midnightblue" d="M1531.3,-230.12C1574.8,-219.607 1635.44,-204.952 1675.67,-195.231"/>
<polygon fill="midnightblue" stroke="midnightblue" points="1530.36,-226.745 1521.46,-232.497 1532,-233.55 1530.36,-226.745"/>
</g>
<!-- Node28 -->
<g id="node61" class="node"><title>Node28</title>
<a xlink:href="MojDbKindState_8cpp.htm" target="_top" xlink:title="MojDbKindState.cpp">
<polygon fill="white" stroke="black" points="1778,-174.5 1778,-195.5 1890,-195.5 1890,-174.5 1778,-174.5"/>
<text text-anchor="middle" x="1834" y="-182.5" font-family="Helvetica,sans-Serif" font-size="10.00">MojDbKindState.cpp</text>
</a>
</g>
<!-- Node2&#45;&gt;Node28 -->
<g id="edge66" class="edge"><title>Node2&#45;&gt;Node28</title>
<path fill="none" stroke="midnightblue" d="M1552.98,-231.049C1611.76,-221.641 1695.62,-208.135 1769,-196 1771.94,-195.514 1774.95,-195.014 1777.98,-194.507"/>
<polygon fill="midnightblue" stroke="midnightblue" points="1552.36,-227.604 1543.03,-232.64 1553.46,-234.516 1552.36,-227.604"/>
</g>
<!-- Node29 -->
<g id="node63" class="node"><title>Node29</title>
<a xlink:href="MojDbQueryPlan_8cpp.htm" target="_top" xlink:title="MojDbQueryPlan.cpp">
<polygon fill="white" stroke="black" points="1908,-174.5 1908,-195.5 2024,-195.5 2024,-174.5 1908,-174.5"/>
<text text-anchor="middle" x="1966" y="-182.5" font-family="Helvetica,sans-Serif" font-size="10.00">MojDbQueryPlan.cpp</text>
</a>
</g>
<!-- Node2&#45;&gt;Node29 -->
<g id="edge68" class="edge"><title>Node2&#45;&gt;Node29</title>
<path fill="none" stroke="midnightblue" d="M1553.04,-235.801C1637.35,-227.439 1778.23,-212.644 1899,-196 1901.92,-195.598 1904.91,-195.169 1907.92,-194.723"/>
<polygon fill="midnightblue" stroke="midnightblue" points="1552.65,-232.323 1543.04,-236.789 1553.33,-239.289 1552.65,-232.323"/>
</g>
<!-- Node30 -->
<g id="node65" class="node"><title>Node30</title>
<a xlink:href="MojDbTextCollator_8cpp.htm" target="_top" xlink:title="MojDbTextCollator.cpp">
<polygon fill="white" stroke="black" points="2042,-174.5 2042,-195.5 2166,-195.5 2166,-174.5 2042,-174.5"/>
<text text-anchor="middle" x="2104" y="-182.5" font-family="Helvetica,sans-Serif" font-size="10.00">MojDbTextCollator.cpp</text>
</a>
</g>
<!-- Node2&#45;&gt;Node30 -->
<g id="edge70" class="edge"><title>Node2&#45;&gt;Node30</title>
<path fill="none" stroke="midnightblue" d="M1553.12,-238.295C1659.97,-231.226 1861.85,-216.479 2033,-196 2035.85,-195.659 2038.76,-195.291 2041.7,-194.902"/>
<polygon fill="midnightblue" stroke="midnightblue" points="1552.83,-234.806 1543.09,-238.955 1553.29,-241.791 1552.83,-234.806"/>
</g>
<!-- Node4 -->
<g id="node7" class="node"><title>Node4</title>
<a xlink:href="MojDbLevelItem_8h.htm" target="_top" xlink:title="MojDbLevelItem.h">
<polygon fill="white" stroke="black" points="480.5,-116.5 480.5,-137.5 581.5,-137.5 581.5,-116.5 480.5,-116.5"/>
<text text-anchor="middle" x="531" y="-124.5" font-family="Helvetica,sans-Serif" font-size="10.00">MojDbLevelItem.h</text>
</a>
</g>
<!-- Node3&#45;&gt;Node4 -->
<g id="edge6" class="edge"><title>Node3&#45;&gt;Node4</title>
<path fill="none" stroke="midnightblue" d="M772.398,-172.606C715.312,-161.821 633.762,-146.414 581.599,-136.559"/>
<polygon fill="midnightblue" stroke="midnightblue" points="771.929,-176.079 782.405,-174.497 773.228,-169.201 771.929,-176.079"/>
</g>
<!-- Node3&#45;&gt;Node7 -->
<g id="edge46" class="edge"><title>Node3&#45;&gt;Node7</title>
<path fill="none" stroke="midnightblue" d="M767.733,-182.708C622.582,-176.493 296.699,-154.402 219,-80 202.847,-64.532 200.016,-36.7033 199.758,-21.5433"/>
<polygon fill="midnightblue" stroke="midnightblue" points="767.729,-186.211 777.866,-183.129 768.02,-179.217 767.729,-186.211"/>
</g>
<!-- Node14 -->
<g id="node28" class="node"><title>Node14</title>
<a xlink:href="MojDbBerkeleyEngine_8h.htm" target="_top" xlink:title="MojDbBerkeleyEngine.h">
<polygon fill="white" stroke="black" points="813.5,-116.5 813.5,-137.5 942.5,-137.5 942.5,-116.5 813.5,-116.5"/>
<text text-anchor="middle" x="878" y="-124.5" font-family="Helvetica,sans-Serif" font-size="10.00">MojDbBerkeleyEngine.h</text>
</a>
</g>
<!-- Node3&#45;&gt;Node14 -->
<g id="edge28" class="edge"><title>Node3&#45;&gt;Node14</title>
<path fill="none" stroke="midnightblue" d="M851.132,-165.959C857.64,-156.522 865.253,-145.484 870.71,-137.571"/>
<polygon fill="midnightblue" stroke="midnightblue" points="848.133,-164.143 845.337,-174.362 853.895,-168.117 848.133,-164.143"/>
</g>
<!-- Node3&#45;&gt;Node16 -->
<g id="edge48" class="edge"><title>Node3&#45;&gt;Node16</title>
<path fill="none" stroke="midnightblue" d="M894.016,-172.03C970.348,-153.235 1101.21,-116.649 1133,-80 1147.26,-63.5642 1148.46,-36.6257 1147.86,-21.7359"/>
<polygon fill="midnightblue" stroke="midnightblue" points="892.964,-168.684 884.078,-174.453 894.622,-175.485 892.964,-168.684"/>
</g>
<!-- Node3&#45;&gt;Node19 -->
<g id="edge42" class="edge"><title>Node3&#45;&gt;Node19</title>
<path fill="none" stroke="midnightblue" d="M908.401,-173.948C1238.45,-139.341 1625.76,-129.749 1739.87,-127.56"/>
<polygon fill="midnightblue" stroke="midnightblue" points="907.738,-170.499 898.162,-175.032 908.475,-177.46 907.738,-170.499"/>
</g>
<!-- Node20 -->
<g id="node42" class="node"><title>Node20</title>
<a xlink:href="MojDbObjectHeader_8cpp.htm" target="_top" xlink:title="MojDbObjectHeader.cpp">
<polygon fill="white" stroke="black" points="1193.5,-116.5 1193.5,-137.5 1324.5,-137.5 1324.5,-116.5 1193.5,-116.5"/>
<text text-anchor="middle" x="1259" y="-124.5" font-family="Helvetica,sans-Serif" font-size="10.00">MojDbObjectHeader.cpp</text>
</a>
</g>
<!-- Node3&#45;&gt;Node20 -->
<g id="edge44" class="edge"><title>Node3&#45;&gt;Node20</title>
<path fill="none" stroke="midnightblue" d="M908.269,-173.842C1029.78,-156.253 1061.92,-154.006 1180,-138 1184.39,-137.405 1188.92,-136.786 1193.48,-136.16"/>
<polygon fill="midnightblue" stroke="midnightblue" points="907.589,-170.404 898.196,-175.306 908.596,-177.331 907.589,-170.404"/>
</g>
<!-- Node5 -->
<g id="node9" class="node"><title>Node5</title>
<a xlink:href="MojDbLevelQuery_8h.htm" target="_top" xlink:title="MojDbLevelQuery.h">
<polygon fill="white" stroke="black" points="227.5,-58.5 227.5,-79.5 336.5,-79.5 336.5,-58.5 227.5,-58.5"/>
<text text-anchor="middle" x="282" y="-66.5" font-family="Helvetica,sans-Serif" font-size="10.00">MojDbLevelQuery.h</text>
</a>
</g>
<!-- Node4&#45;&gt;Node5 -->
<g id="edge8" class="edge"><title>Node4&#45;&gt;Node5</title>
<path fill="none" stroke="midnightblue" d="M476.083,-114.208C431.373,-103.794 369.028,-89.2716 327.177,-79.5231"/>
<polygon fill="midnightblue" stroke="midnightblue" points="475.375,-117.637 485.908,-116.497 476.963,-110.819 475.375,-117.637"/>
</g>
<!-- Node10 -->
<g id="node19" class="node"><title>Node10</title>
<a xlink:href="MojDbLevelSeq_8h.htm" target="_top" xlink:title="MojDbLevelSeq.h">
<polygon fill="white" stroke="black" points="353.5,-58.5 353.5,-79.5 452.5,-79.5 452.5,-58.5 353.5,-58.5"/>
<text text-anchor="middle" x="403" y="-66.5" font-family="Helvetica,sans-Serif" font-size="10.00">MojDbLevelSeq.h</text>
</a>
</g>
<!-- Node4&#45;&gt;Node10 -->
<g id="edge18" class="edge"><title>Node4&#45;&gt;Node10</title>
<path fill="none" stroke="midnightblue" d="M498.654,-112.343C476.159,-102.15 446.691,-88.7977 426.44,-79.6212"/>
<polygon fill="midnightblue" stroke="midnightblue" points="497.267,-115.557 507.82,-116.497 500.156,-109.181 497.267,-115.557"/>
</g>
<!-- Node12 -->
<g id="node24" class="node"><title>Node12</title>
<a xlink:href="MojDbLevelCursor_8cpp.htm" target="_top" xlink:title="MojDbLevelCursor.cpp">
<polygon fill="white" stroke="black" points="469.5,-58.5 469.5,-79.5 592.5,-79.5 592.5,-58.5 469.5,-58.5"/>
<text text-anchor="middle" x="531" y="-66.5" font-family="Helvetica,sans-Serif" font-size="10.00">MojDbLevelCursor.cpp</text>
</a>
</g>
<!-- Node4&#45;&gt;Node12 -->
<g id="edge24" class="edge"><title>Node4&#45;&gt;Node12</title>
<path fill="none" stroke="midnightblue" d="M531,-106.191C531,-97.1684 531,-86.9941 531,-79.5707"/>
<polygon fill="midnightblue" stroke="midnightblue" points="527.5,-106.362 531,-116.362 534.5,-106.362 527.5,-106.362"/>
</g>
<!-- Node13 -->
<g id="node26" class="node"><title>Node13</title>
<a xlink:href="MojDbLevelItem_8cpp.htm" target="_top" xlink:title="MojDbLevelItem.cpp">
<polygon fill="white" stroke="black" points="610,-58.5 610,-79.5 722,-79.5 722,-58.5 610,-58.5"/>
<text text-anchor="middle" x="666" y="-66.5" font-family="Helvetica,sans-Serif" font-size="10.00">MojDbLevelItem.cpp</text>
</a>
</g>
<!-- Node4&#45;&gt;Node13 -->
<g id="edge26" class="edge"><title>Node4&#45;&gt;Node13</title>
<path fill="none" stroke="midnightblue" d="M564.798,-112.479C588.562,-102.269 619.824,-88.8386 641.278,-79.6212"/>
<polygon fill="midnightblue" stroke="midnightblue" points="563.254,-109.333 555.447,-116.497 566.017,-115.765 563.254,-109.333"/>
</g>
<!-- Node6 -->
<g id="node11" class="node"><title>Node6</title>
<a xlink:href="MojDbLevelDatabase_8cpp.htm" target="_top" xlink:title="MojDbLevelDatabase.cpp">
<polygon fill="white" stroke="black" points="415.5,-0.5 415.5,-21.5 552.5,-21.5 552.5,-0.5 415.5,-0.5"/>
<text text-anchor="middle" x="484" y="-8.5" font-family="Helvetica,sans-Serif" font-size="10.00">MojDbLevelDatabase.cpp</text>
</a>
</g>
<!-- Node5&#45;&gt;Node6 -->
<g id="edge10" class="edge"><title>Node5&#45;&gt;Node6</title>
<path fill="none" stroke="midnightblue" d="M328.392,-55.6795C364.517,-45.307 413.97,-31.1078 447.351,-21.5231"/>
<polygon fill="midnightblue" stroke="midnightblue" points="327.226,-52.3727 318.581,-58.4966 329.158,-59.1009 327.226,-52.3727"/>
</g>
<!-- Node5&#45;&gt;Node7 -->
<g id="edge12" class="edge"><title>Node5&#45;&gt;Node7</title>
<path fill="none" stroke="midnightblue" d="M258.73,-52.5407C244.672,-42.5973 227.17,-30.2177 214.945,-21.5707"/>
<polygon fill="midnightblue" stroke="midnightblue" points="256.775,-55.4447 266.96,-58.3619 260.817,-49.7298 256.775,-55.4447"/>
</g>
<!-- Node8 -->
<g id="node15" class="node"><title>Node8</title>
<a xlink:href="MojDbLevelIndex_8cpp.htm" target="_top" xlink:title="MojDbLevelIndex.cpp">
<polygon fill="white" stroke="black" points="280,-0.5 280,-21.5 398,-21.5 398,-0.5 280,-0.5"/>
<text text-anchor="middle" x="339" y="-8.5" font-family="Helvetica,sans-Serif" font-size="10.00">MojDbLevelIndex.cpp</text>
</a>
</g>
<!-- Node5&#45;&gt;Node8 -->
<g id="edge14" class="edge"><title>Node5&#45;&gt;Node8</title>
<path fill="none" stroke="midnightblue" d="M299.574,-51.118C309.087,-41.4377 320.514,-29.8098 328.612,-21.5707"/>
<polygon fill="midnightblue" stroke="midnightblue" points="296.968,-48.7763 292.455,-58.3619 301.96,-53.6829 296.968,-48.7763"/>
</g>
<!-- Node5&#45;&gt;Node9 -->
<g id="edge16" class="edge"><title>Node5&#45;&gt;Node9</title>
<path fill="none" stroke="midnightblue" d="M232.03,-55.9447C192.243,-45.5501 137.278,-31.1897 100.278,-21.5231"/>
<polygon fill="midnightblue" stroke="midnightblue" points="231.237,-59.3551 241.797,-58.4966 233.007,-52.5825 231.237,-59.3551"/>
</g>
<!-- Node10&#45;&gt;Node7 -->
<g id="edge20" class="edge"><title>Node10&#45;&gt;Node7</title>
<path fill="none" stroke="midnightblue" d="M356.378,-55.6795C320.075,-45.307 270.377,-31.1078 236.831,-21.5231"/>
<polygon fill="midnightblue" stroke="midnightblue" points="355.661,-59.1147 366.238,-58.4966 357.585,-52.384 355.661,-59.1147"/>
</g>
<!-- Node11 -->
<g id="node22" class="node"><title>Node11</title>
<a xlink:href="MojDbLevelSeq_8cpp.htm" target="_top" xlink:title="MojDbLevelSeq.cpp">
<polygon fill="white" stroke="black" points="570,-0.5 570,-21.5 680,-21.5 680,-0.5 570,-0.5"/>
<text text-anchor="middle" x="625" y="-8.5" font-family="Helvetica,sans-Serif" font-size="10.00">MojDbLevelSeq.cpp</text>
</a>
</g>
<!-- Node10&#45;&gt;Node11 -->
<g id="edge22" class="edge"><title>Node10&#45;&gt;Node11</title>
<path fill="none" stroke="midnightblue" d="M452.97,-55.9447C492.757,-45.5501 547.722,-31.1897 584.722,-21.5231"/>
<polygon fill="midnightblue" stroke="midnightblue" points="451.993,-52.5825 443.203,-58.4966 453.763,-59.3551 451.993,-52.5825"/>
</g>
<!-- Node15 -->
<g id="node30" class="node"><title>Node15</title>
<a xlink:href="MojDbBerkeleyQuery_8h.htm" target="_top" xlink:title="MojDbBerkeleyQuery.h">
<polygon fill="white" stroke="black" points="815.5,-58.5 815.5,-79.5 940.5,-79.5 940.5,-58.5 815.5,-58.5"/>
<text text-anchor="middle" x="878" y="-66.5" font-family="Helvetica,sans-Serif" font-size="10.00">MojDbBerkeleyQuery.h</text>
</a>
</g>
<!-- Node14&#45;&gt;Node15 -->
<g id="edge30" class="edge"><title>Node14&#45;&gt;Node15</title>
<path fill="none" stroke="midnightblue" d="M878,-106.191C878,-97.1684 878,-86.9941 878,-79.5707"/>
<polygon fill="midnightblue" stroke="midnightblue" points="874.5,-106.362 878,-116.362 881.5,-106.362 874.5,-106.362"/>
</g>
<!-- Node14&#45;&gt;Node16 -->
<g id="edge36" class="edge"><title>Node14&#45;&gt;Node16</title>
<path fill="none" stroke="midnightblue" d="M952.947,-118.633C1010.63,-110.948 1084.51,-98.0117 1109,-80 1128.94,-65.3358 1139.68,-36.9151 1144.26,-21.5209"/>
<polygon fill="midnightblue" stroke="midnightblue" points="952.211,-115.199 942.746,-119.96 953.114,-122.14 952.211,-115.199"/>
</g>
<!-- Node14&#45;&gt;Node17 -->
<g id="edge40" class="edge"><title>Node14&#45;&gt;Node17</title>
<path fill="none" stroke="midnightblue" d="M844.558,-111.526C831.128,-103.789 816.589,-93.224 807,-80 794.163,-62.2963 789.996,-36.3219 788.646,-21.8168"/>
<polygon fill="midnightblue" stroke="midnightblue" points="843.144,-114.741 853.603,-116.429 846.479,-108.587 843.144,-114.741"/>
</g>
<!-- Node18 -->
<g id="node37" class="node"><title>Node18</title>
<a xlink:href="MojDbBerkeleyFactory_8cpp.htm" target="_top" xlink:title="MojDbBerkeleyFactory.cpp">
<polygon fill="white" stroke="black" points="957.5,-58.5 957.5,-79.5 1100.5,-79.5 1100.5,-58.5 957.5,-58.5"/>
<text text-anchor="middle" x="1029" y="-66.5" font-family="Helvetica,sans-Serif" font-size="10.00">MojDbBerkeleyFactory.cpp</text>
</a>
</g>
<!-- Node14&#45;&gt;Node18 -->
<g id="edge38" class="edge"><title>Node14&#45;&gt;Node18</title>
<path fill="none" stroke="midnightblue" d="M914.776,-112.874C941.571,-102.582 977.29,-88.862 1001.6,-79.5231"/>
<polygon fill="midnightblue" stroke="midnightblue" points="913.425,-109.644 905.345,-116.497 915.935,-116.178 913.425,-109.644"/>
</g>
<!-- Node15&#45;&gt;Node16 -->
<g id="edge32" class="edge"><title>Node15&#45;&gt;Node16</title>
<path fill="none" stroke="midnightblue" d="M936.72,-56.3391C985.062,-45.9159 1052.79,-31.3126 1098.19,-21.5231"/>
<polygon fill="midnightblue" stroke="midnightblue" points="935.752,-52.9675 926.714,-58.4966 937.227,-59.8102 935.752,-52.9675"/>
</g>
<!-- Node15&#45;&gt;Node17 -->
<g id="edge34" class="edge"><title>Node15&#45;&gt;Node17</title>
<path fill="none" stroke="midnightblue" d="M852.895,-52.8215C837.393,-42.8312 817.947,-30.2993 804.403,-21.5707"/>
<polygon fill="midnightblue" stroke="midnightblue" points="851.191,-55.8869 861.493,-58.3619 854.983,-50.0028 851.191,-55.8869"/>
</g>
<!-- Node31&#45;&gt;Node32 -->
<g id="edge82" class="edge"><title>Node31&#45;&gt;Node32</title>
<path fill="none" stroke="midnightblue" d="M2364.81,-225.118C2354.96,-215.438 2343.13,-203.81 2334.75,-195.571"/>
<polygon fill="midnightblue" stroke="midnightblue" points="2362.59,-227.847 2372.18,-232.362 2367.5,-222.856 2362.59,-227.847"/>
</g>
<!-- Node31&#45;&gt;Node33 -->
<g id="edge84" class="edge"><title>Node31&#45;&gt;Node33</title>
<path fill="none" stroke="midnightblue" d="M2406.55,-226.541C2420.78,-216.597 2438.5,-204.218 2450.87,-195.571"/>
<polygon fill="midnightblue" stroke="midnightblue" points="2404.42,-223.765 2398.22,-232.362 2408.43,-229.503 2404.42,-223.765"/>
</g>
</g>
</svg>
