<?xml version="1.0" encoding="UTF-8" standalone="no"?>
<!DOCTYPE svg PUBLIC "-//W3C//DTD SVG 1.1//EN"
 "http://www.w3.org/Graphics/SVG/1.1/DTD/svg11.dtd">
<!-- Generated by graphviz version 2.26.3 (20100126.1600)
 -->
<!-- Title: MojDataSerialization.cpp Pages: 1 -->
<svg width="1033pt" height="754pt"
 viewBox="0.00 0.00 1032.52 754.00" xmlns="http://www.w3.org/2000/svg" xmlns:xlink="http://www.w3.org/1999/xlink">
<g id="graph1" class="graph" transform="scale(1 1) rotate(0) translate(4 750)">
<title>MojDataSerialization.cpp</title>
<polygon fill="white" stroke="white" points="-4,5 -4,-750 1029.52,-750 1029.52,5 -4,5"/>
<!-- Node1 -->
<g id="node1" class="node"><title>Node1</title>
<polygon fill="#bfbfbf" stroke="black" points="840.517,-724.5 840.517,-745.5 974.517,-745.5 974.517,-724.5 840.517,-724.5"/>
<text text-anchor="middle" x="907.517" y="-732.5" font-family="Helvetica,sans-Serif" font-size="10.00">MojDataSerialization.cpp</text>
</g>
<!-- Node2 -->
<g id="node3" class="node"><title>Node2</title>
<a xlink:href="MojDataSerialization_8h.htm" target="_top" xlink:title="core/MojDataSerialization.h">
<polygon fill="white" stroke="black" points="784.517,-666.5 784.517,-687.5 930.517,-687.5 930.517,-666.5 784.517,-666.5"/>
<text text-anchor="middle" x="857.517" y="-674.5" font-family="Helvetica,sans-Serif" font-size="10.00">core/MojDataSerialization.h</text>
</a>
</g>
<!-- Node1&#45;&gt;Node2 -->
<g id="edge2" class="edge"><title>Node1&#45;&gt;Node2</title>
<path fill="none" stroke="midnightblue" d="M898.346,-724.362C891.369,-716.268 881.596,-704.932 873.362,-695.38"/>
<polygon fill="midnightblue" stroke="midnightblue" points="875.81,-692.859 866.63,-687.571 870.508,-697.43 875.81,-692.859"/>
</g>
<!-- Node26 -->
<g id="node64" class="node"><title>Node26</title>
<a xlink:href="MojDecimal_8h.htm" target="_top" xlink:title="core/MojDecimal.h">
<polygon fill="white" stroke="black" points="906.517,-550.5 906.517,-571.5 1010.52,-571.5 1010.52,-550.5 906.517,-550.5"/>
<text text-anchor="middle" x="958.517" y="-558.5" font-family="Helvetica,sans-Serif" font-size="10.00">core/MojDecimal.h</text>
</a>
</g>
<!-- Node1&#45;&gt;Node26 -->
<g id="edge76" class="edge"><title>Node1&#45;&gt;Node26</title>
<path fill="none" stroke="midnightblue" d="M916.954,-724.227C924.328,-715.187 934.191,-701.604 939.517,-688 953.463,-652.375 957.25,-607.444 958.231,-581.691"/>
<polygon fill="midnightblue" stroke="midnightblue" points="961.732,-581.703 958.506,-571.611 954.734,-581.512 961.732,-581.703"/>
</g>
<!-- Node3 -->
<g id="node5" class="node"><title>Node3</title>
<a xlink:href="MojCoreDefs_8h.htm" target="_top" xlink:title="core/MojCoreDefs.h">
<polygon fill="white" stroke="black" points="644.017,-232.5 644.017,-253.5 755.017,-253.5 755.017,-232.5 644.017,-232.5"/>
<text text-anchor="middle" x="699.517" y="-240.5" font-family="Helvetica,sans-Serif" font-size="10.00">core/MojCoreDefs.h</text>
</a>
</g>
<!-- Node2&#45;&gt;Node3 -->
<g id="edge4" class="edge"><title>Node2&#45;&gt;Node3</title>
<path fill="none" stroke="midnightblue" d="M859.188,-666.476C862.265,-646.148 868.517,-600.042 868.517,-561 868.517,-561 868.517,-561 868.517,-366 868.517,-307.145 800.684,-273.495 750.969,-256.736"/>
<polygon fill="midnightblue" stroke="midnightblue" points="751.884,-253.354 741.292,-253.607 749.73,-260.014 751.884,-253.354"/>
</g>
<!-- Node13 -->
<g id="node25" class="node"><title>Node13</title>
<a xlink:href="MojBuffer_8h.htm" target="_top" xlink:title="core/MojBuffer.h">
<polygon fill="white" stroke="black" points="640.517,-608.5 640.517,-629.5 734.517,-629.5 734.517,-608.5 640.517,-608.5"/>
<text text-anchor="middle" x="687.517" y="-616.5" font-family="Helvetica,sans-Serif" font-size="10.00">core/MojBuffer.h</text>
</a>
</g>
<!-- Node2&#45;&gt;Node13 -->
<g id="edge24" class="edge"><title>Node2&#45;&gt;Node13</title>
<path fill="none" stroke="midnightblue" d="M826.731,-666.497C799.137,-657.082 758.459,-643.204 728.192,-632.877"/>
<polygon fill="midnightblue" stroke="midnightblue" points="728.955,-629.44 718.361,-629.523 726.695,-636.065 728.955,-629.44"/>
</g>
<!-- Node4 -->
<g id="node7" class="node"><title>Node4</title>
<a xlink:href="MojConfig_8h.htm" target="_top" xlink:title="core/internal/MojConfig.h">
<polygon fill="white" stroke="black" points="757.017,-174.5 757.017,-195.5 892.017,-195.5 892.017,-174.5 757.017,-174.5"/>
<text text-anchor="middle" x="824.517" y="-182.5" font-family="Helvetica,sans-Serif" font-size="10.00">core/internal/MojConfig.h</text>
</a>
</g>
<!-- Node3&#45;&gt;Node4 -->
<g id="edge6" class="edge"><title>Node3&#45;&gt;Node4</title>
<path fill="none" stroke="midnightblue" d="M722.154,-232.497C741.765,-223.397 770.364,-210.127 792.351,-199.925"/>
<polygon fill="midnightblue" stroke="midnightblue" points="794.029,-203.005 801.627,-195.621 791.082,-196.655 794.029,-203.005"/>
</g>
<!-- Node5 -->
<g id="node9" class="node"><title>Node5</title>
<a xlink:href="MojNew_8h.htm" target="_top" xlink:title="core/internal/MojNew.h">
<polygon fill="white" stroke="black" points="419.017,-174.5 419.017,-195.5 544.017,-195.5 544.017,-174.5 419.017,-174.5"/>
<text text-anchor="middle" x="481.517" y="-182.5" font-family="Helvetica,sans-Serif" font-size="10.00">core/internal/MojNew.h</text>
</a>
</g>
<!-- Node3&#45;&gt;Node5 -->
<g id="edge8" class="edge"><title>Node3&#45;&gt;Node5</title>
<path fill="none" stroke="midnightblue" d="M660.039,-232.497C623.884,-222.877 570.214,-208.598 531.165,-198.209"/>
<polygon fill="midnightblue" stroke="midnightblue" points="531.633,-194.712 521.069,-195.523 529.833,-201.477 531.633,-194.712"/>
</g>
<!-- Node7 -->
<g id="node13" class="node"><title>Node7</title>
<a xlink:href="MojErr_8h.htm" target="_top" xlink:title="core/MojErr.h">
<polygon fill="white" stroke="black" points="561.517,-174.5 561.517,-195.5 641.517,-195.5 641.517,-174.5 561.517,-174.5"/>
<text text-anchor="middle" x="601.517" y="-182.5" font-family="Helvetica,sans-Serif" font-size="10.00">core/MojErr.h</text>
</a>
</g>
<!-- Node3&#45;&gt;Node7 -->
<g id="edge12" class="edge"><title>Node3&#45;&gt;Node7</title>
<path fill="none" stroke="midnightblue" d="M681.542,-232.362C666.623,-223.532 645.185,-210.844 628.252,-200.822"/>
<polygon fill="midnightblue" stroke="midnightblue" points="629.766,-197.652 619.378,-195.571 626.201,-203.676 629.766,-197.652"/>
</g>
<!-- Node11 -->
<g id="node21" class="node"><title>Node11</title>
<a xlink:href="MojOs_8h.htm" target="_top" xlink:title="core/MojOs.h">
<polygon fill="white" stroke="black" points="659.517,-174.5 659.517,-195.5 739.517,-195.5 739.517,-174.5 659.517,-174.5"/>
<text text-anchor="middle" x="699.517" y="-182.5" font-family="Helvetica,sans-Serif" font-size="10.00">core/MojOs.h</text>
</a>
</g>
<!-- Node3&#45;&gt;Node11 -->
<g id="edge20" class="edge"><title>Node3&#45;&gt;Node11</title>
<path fill="none" stroke="midnightblue" d="M699.517,-232.362C699.517,-224.922 699.517,-214.743 699.517,-205.728"/>
<polygon fill="midnightblue" stroke="midnightblue" points="703.017,-205.571 699.517,-195.571 696.017,-205.571 703.017,-205.571"/>
</g>
<!-- Node6 -->
<g id="node11" class="node"><title>Node6</title>
<polygon fill="white" stroke="#bfbfbf" points="463.517,-116.5 463.517,-137.5 499.517,-137.5 499.517,-116.5 463.517,-116.5"/>
<text text-anchor="middle" x="481.517" y="-124.5" font-family="Helvetica,sans-Serif" font-size="10.00">new</text>
</g>
<!-- Node5&#45;&gt;Node6 -->
<g id="edge10" class="edge"><title>Node5&#45;&gt;Node6</title>
<path fill="none" stroke="midnightblue" d="M481.517,-174.362C481.517,-166.922 481.517,-156.743 481.517,-147.728"/>
<polygon fill="midnightblue" stroke="midnightblue" points="485.017,-147.571 481.517,-137.571 478.017,-147.571 485.017,-147.571"/>
</g>
<!-- Node8 -->
<g id="node15" class="node"><title>Node8</title>
<a xlink:href="MojLog_8h.htm" target="_top" xlink:title="core/MojLog.h">
<polygon fill="white" stroke="black" points="518.517,-116.5 518.517,-137.5 602.517,-137.5 602.517,-116.5 518.517,-116.5"/>
<text text-anchor="middle" x="560.517" y="-124.5" font-family="Helvetica,sans-Serif" font-size="10.00">core/MojLog.h</text>
</a>
</g>
<!-- Node7&#45;&gt;Node8 -->
<g id="edge14" class="edge"><title>Node7&#45;&gt;Node8</title>
<path fill="none" stroke="midnightblue" d="M593.997,-174.362C588.391,-166.431 580.585,-155.389 573.92,-145.961"/>
<polygon fill="midnightblue" stroke="midnightblue" points="576.62,-143.716 567.99,-137.571 570.904,-147.757 576.62,-143.716"/>
</g>
<!-- Node9 -->
<g id="node17" class="node"><title>Node9</title>
<a xlink:href="MojListEntry_8h.htm" target="_top" xlink:title="core/MojListEntry.h">
<polygon fill="white" stroke="black" points="242.017,-58.5 242.017,-79.5 349.017,-79.5 349.017,-58.5 242.017,-58.5"/>
<text text-anchor="middle" x="295.517" y="-66.5" font-family="Helvetica,sans-Serif" font-size="10.00">core/MojListEntry.h</text>
</a>
</g>
<!-- Node8&#45;&gt;Node9 -->
<g id="edge16" class="edge"><title>Node8&#45;&gt;Node9</title>
<path fill="none" stroke="midnightblue" d="M518.234,-117.746C473.804,-108.021 403.6,-92.6559 353.903,-81.7788"/>
<polygon fill="midnightblue" stroke="midnightblue" points="354.456,-78.317 343.939,-79.5979 352.959,-85.1551 354.456,-78.317"/>
</g>
<!-- Node10 -->
<g id="node19" class="node"><title>Node10</title>
<a xlink:href="MojNoCopy_8h.htm" target="_top" xlink:title="core/MojNoCopy.h">
<polygon fill="white" stroke="black" points="96.5172,-0.5 96.5172,-21.5 200.517,-21.5 200.517,-0.5 96.5172,-0.5"/>
<text text-anchor="middle" x="148.517" y="-8.5" font-family="Helvetica,sans-Serif" font-size="10.00">core/MojNoCopy.h</text>
</a>
</g>
<!-- Node9&#45;&gt;Node10 -->
<g id="edge18" class="edge"><title>Node9&#45;&gt;Node10</title>
<path fill="none" stroke="midnightblue" d="M268.897,-58.4966C245.42,-49.2337 210.992,-35.6499 184.961,-25.3793"/>
<polygon fill="midnightblue" stroke="midnightblue" points="186.023,-22.0358 175.436,-21.6212 183.454,-28.5473 186.023,-22.0358"/>
</g>
<!-- Node12 -->
<g id="node23" class="node"><title>Node12</title>
<a xlink:href="MojOsInternal_8h.htm" target="_top" xlink:title="core/internal/MojOsInternal.h">
<polygon fill="white" stroke="black" points="622.517,-116.5 622.517,-137.5 776.517,-137.5 776.517,-116.5 622.517,-116.5"/>
<text text-anchor="middle" x="699.517" y="-124.5" font-family="Helvetica,sans-Serif" font-size="10.00">core/internal/MojOsInternal.h</text>
</a>
</g>
<!-- Node11&#45;&gt;Node12 -->
<g id="edge22" class="edge"><title>Node11&#45;&gt;Node12</title>
<path fill="none" stroke="midnightblue" d="M699.517,-174.362C699.517,-166.922 699.517,-156.743 699.517,-147.728"/>
<polygon fill="midnightblue" stroke="midnightblue" points="703.017,-147.571 699.517,-137.571 696.017,-147.571 703.017,-147.571"/>
</g>
<!-- Node13&#45;&gt;Node3 -->
<g id="edge26" class="edge"><title>Node13&#45;&gt;Node3</title>
<path fill="none" stroke="midnightblue" d="M721.044,-608.446C763.311,-592.801 830.517,-559.103 830.517,-503 830.517,-503 830.517,-503 830.517,-366 830.517,-313.514 773.937,-276.89 735.146,-257.949"/>
<polygon fill="midnightblue" stroke="midnightblue" points="736.251,-254.601 725.712,-253.516 733.274,-260.937 736.251,-254.601"/>
</g>
<!-- Node14 -->
<g id="node28" class="node"><title>Node14</title>
<a xlink:href="MojAutoPtr_8h.htm" target="_top" xlink:title="core/MojAutoPtr.h">
<polygon fill="white" stroke="black" points="119.017,-427.5 119.017,-448.5 220.017,-448.5 220.017,-427.5 119.017,-427.5"/>
<text text-anchor="middle" x="169.517" y="-435.5" font-family="Helvetica,sans-Serif" font-size="10.00">core/MojAutoPtr.h</text>
</a>
</g>
<!-- Node13&#45;&gt;Node14 -->
<g id="edge28" class="edge"><title>Node13&#45;&gt;Node14</title>
<path fill="none" stroke="midnightblue" d="M640.502,-616.931C523.241,-610.688 222.92,-587.68 162.517,-514 149.856,-498.556 154.53,-474.954 160.515,-458.153"/>
<polygon fill="midnightblue" stroke="midnightblue" points="163.829,-459.291 164.268,-448.705 157.324,-456.706 163.829,-459.291"/>
</g>
<!-- Node17 -->
<g id="node37" class="node"><title>Node17</title>
<a xlink:href="MojList_8h.htm" target="_top" xlink:title="core/MojList.h">
<polygon fill="white" stroke="black" points="646.017,-550.5 646.017,-571.5 729.017,-571.5 729.017,-550.5 646.017,-550.5"/>
<text text-anchor="middle" x="687.517" y="-558.5" font-family="Helvetica,sans-Serif" font-size="10.00">core/MojList.h</text>
</a>
</g>
<!-- Node13&#45;&gt;Node17 -->
<g id="edge40" class="edge"><title>Node13&#45;&gt;Node17</title>
<path fill="none" stroke="midnightblue" d="M687.517,-608.362C687.517,-600.922 687.517,-590.743 687.517,-581.728"/>
<polygon fill="midnightblue" stroke="midnightblue" points="691.017,-581.571 687.517,-571.571 684.017,-581.571 691.017,-581.571"/>
</g>
<!-- Node19 -->
<g id="node42" class="node"><title>Node19</title>
<a xlink:href="MojVector_8h.htm" target="_top" xlink:title="core/MojVector.h">
<polygon fill="white" stroke="black" points="475.017,-550.5 475.017,-571.5 572.017,-571.5 572.017,-550.5 475.017,-550.5"/>
<text text-anchor="middle" x="523.517" y="-558.5" font-family="Helvetica,sans-Serif" font-size="10.00">core/MojVector.h</text>
</a>
</g>
<!-- Node13&#45;&gt;Node19 -->
<g id="edge46" class="edge"><title>Node13&#45;&gt;Node19</title>
<path fill="none" stroke="midnightblue" d="M657.818,-608.497C631.197,-599.082 591.955,-585.204 562.756,-574.877"/>
<polygon fill="midnightblue" stroke="midnightblue" points="563.867,-571.558 553.272,-571.523 561.533,-578.157 563.867,-571.558"/>
</g>
<!-- Node14&#45;&gt;Node3 -->
<g id="edge30" class="edge"><title>Node14&#45;&gt;Node3</title>
<path fill="none" stroke="midnightblue" d="M171.53,-427.378C175.44,-409.225 185.58,-371.882 206.517,-348 240.641,-309.076 258.386,-306.298 307.517,-290 366.442,-270.453 538.257,-255.036 633.691,-247.691"/>
<polygon fill="midnightblue" stroke="midnightblue" points="634.104,-251.17 643.81,-246.921 633.573,-244.19 634.104,-251.17"/>
</g>
<!-- Node14&#45;&gt;Node10 -->
<g id="edge36" class="edge"><title>Node14&#45;&gt;Node10</title>
<path fill="none" stroke="midnightblue" d="M118.691,-432.077C86.106,-425.619 45.3966,-412.135 20.5172,-384 -4.55157,-355.651 1.51719,-338.843 1.51719,-301 1.51719,-301 1.51719,-301 1.51719,-127 1.51719,-74.2592 60.5512,-41.7788 103.798,-25.0605"/>
<polygon fill="midnightblue" stroke="midnightblue" points="105.147,-28.2933 113.307,-21.5358 102.714,-21.7297 105.147,-28.2933"/>
</g>
<!-- Node15 -->
<g id="node31" class="node"><title>Node15</title>
<a xlink:href="MojAtomicInt_8h.htm" target="_top" xlink:title="core/MojAtomicInt.h">
<polygon fill="white" stroke="black" points="215.517,-355.5 215.517,-376.5 325.517,-376.5 325.517,-355.5 215.517,-355.5"/>
<text text-anchor="middle" x="270.517" y="-363.5" font-family="Helvetica,sans-Serif" font-size="10.00">core/MojAtomicInt.h</text>
</a>
</g>
<!-- Node14&#45;&gt;Node15 -->
<g id="edge32" class="edge"><title>Node14&#45;&gt;Node15</title>
<path fill="none" stroke="midnightblue" d="M184.42,-427.376C200.98,-415.571 227.929,-396.36 247.268,-382.574"/>
<polygon fill="midnightblue" stroke="midnightblue" points="249.442,-385.322 255.553,-376.667 245.379,-379.622 249.442,-385.322"/>
</g>
<!-- Node16 -->
<g id="node35" class="node"><title>Node16</title>
<a xlink:href="MojAutoPtrInternal_8h.htm" target="_top" xlink:title="core/internal/MojAutoPtr\lInternal.h">
<polygon fill="white" stroke="black" points="29.0172,-349 29.0172,-383 160.017,-383 160.017,-349 29.0172,-349"/>
<text text-anchor="start" x="37.0172" y="-370" font-family="Helvetica,sans-Serif" font-size="10.00">core/internal/MojAutoPtr</text>
<text text-anchor="middle" x="94.5172" y="-357" font-family="Helvetica,sans-Serif" font-size="10.00">Internal.h</text>
</a>
</g>
<!-- Node14&#45;&gt;Node16 -->
<g id="edge38" class="edge"><title>Node14&#45;&gt;Node16</title>
<path fill="none" stroke="midnightblue" d="M158.451,-427.376C148.3,-417.632 132.892,-402.84 119.746,-390.22"/>
<polygon fill="midnightblue" stroke="midnightblue" points="121.962,-387.495 112.324,-383.094 117.114,-392.545 121.962,-387.495"/>
</g>
<!-- Node15&#45;&gt;Node3 -->
<g id="edge34" class="edge"><title>Node15&#45;&gt;Node3</title>
<path fill="none" stroke="midnightblue" d="M276.753,-355.23C287.277,-338.162 310.3,-305.275 339.517,-290 389.268,-263.99 544.091,-251.42 633.67,-246.18"/>
<polygon fill="midnightblue" stroke="midnightblue" points="633.942,-249.671 643.727,-245.607 633.544,-242.682 633.942,-249.671"/>
</g>
<!-- Node17&#45;&gt;Node3 -->
<g id="edge42" class="edge"><title>Node17&#45;&gt;Node3</title>
<path fill="none" stroke="midnightblue" d="M670.132,-550.278C650.772,-536.937 623.883,-513.309 637.517,-492 658.095,-459.839 688.25,-482.726 715.517,-456 740.928,-431.094 742.536,-418.674 750.517,-384 759.908,-343.204 762.097,-327.993 744.517,-290 739.287,-278.697 730.216,-268.412 721.581,-260.365"/>
<polygon fill="midnightblue" stroke="midnightblue" points="723.728,-257.592 713.898,-253.639 719.117,-262.859 723.728,-257.592"/>
</g>
<!-- Node18 -->
<g id="node40" class="node"><title>Node18</title>
<a xlink:href="MojListInternal_8h.htm" target="_top" xlink:title="core/internal/MojListInternal.h">
<polygon fill="white" stroke="black" points="646.017,-492.5 646.017,-513.5 803.017,-513.5 803.017,-492.5 646.017,-492.5"/>
<text text-anchor="middle" x="724.517" y="-500.5" font-family="Helvetica,sans-Serif" font-size="10.00">core/internal/MojListInternal.h</text>
</a>
</g>
<!-- Node17&#45;&gt;Node18 -->
<g id="edge44" class="edge"><title>Node17&#45;&gt;Node18</title>
<path fill="none" stroke="midnightblue" d="M694.304,-550.362C699.311,-542.513 706.262,-531.616 712.235,-522.253"/>
<polygon fill="midnightblue" stroke="midnightblue" points="715.346,-523.884 717.774,-513.571 709.445,-520.119 715.346,-523.884"/>
</g>
<!-- Node19&#45;&gt;Node3 -->
<g id="edge48" class="edge"><title>Node19&#45;&gt;Node3</title>
<path fill="none" stroke="midnightblue" d="M520.714,-550.227C515.429,-528.941 504.517,-479.918 504.517,-438 504.517,-438 504.517,-438 504.517,-366 504.517,-303.414 577.264,-271.395 633.892,-255.951"/>
<polygon fill="midnightblue" stroke="midnightblue" points="635.104,-259.253 643.899,-253.346 633.34,-252.479 635.104,-259.253"/>
</g>
<!-- Node20 -->
<g id="node45" class="node"><title>Node20</title>
<a xlink:href="MojComp_8h.htm" target="_top" xlink:title="core/MojComp.h">
<polygon fill="white" stroke="black" points="600.517,-290.5 600.517,-311.5 694.517,-311.5 694.517,-290.5 600.517,-290.5"/>
<text text-anchor="middle" x="647.517" y="-298.5" font-family="Helvetica,sans-Serif" font-size="10.00">core/MojComp.h</text>
</a>
</g>
<!-- Node19&#45;&gt;Node20 -->
<g id="edge50" class="edge"><title>Node19&#45;&gt;Node20</title>
<path fill="none" stroke="midnightblue" d="M522.419,-550.488C519.515,-517.274 514.795,-412.95 561.517,-348 571.885,-333.588 588.088,-323.116 603.648,-315.767"/>
<polygon fill="midnightblue" stroke="midnightblue" points="605.438,-318.804 613.195,-311.587 602.63,-312.391 605.438,-318.804"/>
</g>
<!-- Node21 -->
<g id="node48" class="node"><title>Node21</title>
<a xlink:href="MojRefCount_8h.htm" target="_top" xlink:title="core/MojRefCount.h">
<polygon fill="white" stroke="black" points="359.517,-492.5 359.517,-513.5 469.517,-513.5 469.517,-492.5 359.517,-492.5"/>
<text text-anchor="middle" x="414.517" y="-500.5" font-family="Helvetica,sans-Serif" font-size="10.00">core/MojRefCount.h</text>
</a>
</g>
<!-- Node19&#45;&gt;Node21 -->
<g id="edge54" class="edge"><title>Node19&#45;&gt;Node21</title>
<path fill="none" stroke="midnightblue" d="M503.778,-550.497C486.907,-541.519 462.409,-528.484 443.343,-518.339"/>
<polygon fill="midnightblue" stroke="midnightblue" points="444.95,-515.229 434.478,-513.621 441.662,-521.409 444.95,-515.229"/>
</g>
<!-- Node24 -->
<g id="node58" class="node"><title>Node24</title>
<a xlink:href="MojUtil_8h.htm" target="_top" xlink:title="core/MojUtil.h">
<polygon fill="white" stroke="black" points="626.017,-427.5 626.017,-448.5 707.017,-448.5 707.017,-427.5 626.017,-427.5"/>
<text text-anchor="middle" x="666.517" y="-435.5" font-family="Helvetica,sans-Serif" font-size="10.00">core/MojUtil.h</text>
</a>
</g>
<!-- Node19&#45;&gt;Node24 -->
<g id="edge68" class="edge"><title>Node19&#45;&gt;Node24</title>
<path fill="none" stroke="midnightblue" d="M536.207,-550.085C561.075,-528.695 616.393,-481.114 646.334,-455.36"/>
<polygon fill="midnightblue" stroke="midnightblue" points="648.761,-457.89 654.06,-448.715 644.196,-452.583 648.761,-457.89"/>
</g>
<!-- Node25 -->
<g id="node62" class="node"><title>Node25</title>
<a xlink:href="MojVectorInternal_8h.htm" target="_top" xlink:title="core/internal/MojVectorInternal.h">
<polygon fill="white" stroke="black" points="171.017,-492.5 171.017,-513.5 342.017,-513.5 342.017,-492.5 171.017,-492.5"/>
<text text-anchor="middle" x="256.517" y="-500.5" font-family="Helvetica,sans-Serif" font-size="10.00">core/internal/MojVectorInternal.h</text>
</a>
</g>
<!-- Node19&#45;&gt;Node25 -->
<g id="edge74" class="edge"><title>Node19&#45;&gt;Node25</title>
<path fill="none" stroke="midnightblue" d="M475.166,-550.497C430.13,-540.714 362.906,-526.111 314.897,-515.682"/>
<polygon fill="midnightblue" stroke="midnightblue" points="315.475,-512.226 304.96,-513.523 313.989,-519.066 315.475,-512.226"/>
</g>
<!-- Node20&#45;&gt;Node3 -->
<g id="edge52" class="edge"><title>Node20&#45;&gt;Node3</title>
<path fill="none" stroke="midnightblue" d="M657.055,-290.362C664.385,-282.186 674.68,-270.702 683.298,-261.091"/>
<polygon fill="midnightblue" stroke="midnightblue" points="685.971,-263.353 690.04,-253.571 680.759,-258.68 685.971,-263.353"/>
</g>
<!-- Node21&#45;&gt;Node3 -->
<g id="edge56" class="edge"><title>Node21&#45;&gt;Node3</title>
<path fill="none" stroke="midnightblue" d="M376.329,-492.458C358.175,-485.316 338.157,-473.841 327.517,-456 319.322,-442.258 320.575,-434.416 327.517,-420 383.074,-304.629 542.872,-264.058 633.932,-250.092"/>
<polygon fill="midnightblue" stroke="midnightblue" points="634.49,-253.547 643.874,-248.63 633.472,-246.622 634.49,-253.547"/>
</g>
<!-- Node21&#45;&gt;Node14 -->
<g id="edge60" class="edge"><title>Node21&#45;&gt;Node14</title>
<path fill="none" stroke="midnightblue" d="M374.881,-492.484C332.361,-481.204 264.767,-463.27 218.838,-451.085"/>
<polygon fill="midnightblue" stroke="midnightblue" points="219.659,-447.682 209.096,-448.501 217.864,-454.448 219.659,-447.682"/>
</g>
<!-- Node21&#45;&gt;Node15 -->
<g id="edge58" class="edge"><title>Node21&#45;&gt;Node15</title>
<path fill="none" stroke="midnightblue" d="M359.478,-492.948C336.49,-486.123 311.285,-474.773 294.517,-456 277.418,-436.856 272.296,-406.852 270.873,-386.815"/>
<polygon fill="midnightblue" stroke="midnightblue" points="274.358,-386.413 270.405,-376.583 267.366,-386.733 274.358,-386.413"/>
</g>
<!-- Node22 -->
<g id="node53" class="node"><title>Node22</title>
<a xlink:href="MojRefCountInternal_8h.htm" target="_top" xlink:title="core/internal/MojRefCount\lInternal.h">
<polygon fill="white" stroke="black" points="336.517,-421 336.517,-455 476.517,-455 476.517,-421 336.517,-421"/>
<text text-anchor="start" x="344.517" y="-442" font-family="Helvetica,sans-Serif" font-size="10.00">core/internal/MojRefCount</text>
<text text-anchor="middle" x="406.517" y="-429" font-family="Helvetica,sans-Serif" font-size="10.00">Internal.h</text>
</a>
</g>
<!-- Node21&#45;&gt;Node22 -->
<g id="edge62" class="edge"><title>Node21&#45;&gt;Node22</title>
<path fill="none" stroke="midnightblue" d="M413.196,-492.267C412.284,-484.852 411.027,-474.64 409.849,-465.074"/>
<polygon fill="midnightblue" stroke="midnightblue" points="413.318,-464.607 408.623,-455.11 406.371,-465.463 413.318,-464.607"/>
</g>
<!-- Node23 -->
<g id="node55" class="node"><title>Node23</title>
<a xlink:href="MojUtilInternal_8h.htm" target="_top" xlink:title="core/internal/MojUtilInternal.h">
<polygon fill="white" stroke="black" points="570.017,-355.5 570.017,-376.5 725.017,-376.5 725.017,-355.5 570.017,-355.5"/>
<text text-anchor="middle" x="647.517" y="-363.5" font-family="Helvetica,sans-Serif" font-size="10.00">core/internal/MojUtilInternal.h</text>
</a>
</g>
<!-- Node22&#45;&gt;Node23 -->
<g id="edge64" class="edge"><title>Node22&#45;&gt;Node23</title>
<path fill="none" stroke="midnightblue" d="M463.631,-420.937C506.014,-408.275 563.024,-391.243 602.272,-379.517"/>
<polygon fill="midnightblue" stroke="midnightblue" points="603.517,-382.798 612.096,-376.582 601.513,-376.091 603.517,-382.798"/>
</g>
<!-- Node23&#45;&gt;Node20 -->
<g id="edge66" class="edge"><title>Node23&#45;&gt;Node20</title>
<path fill="none" stroke="midnightblue" d="M647.517,-355.267C647.517,-346.18 647.517,-332.892 647.517,-321.74"/>
<polygon fill="midnightblue" stroke="midnightblue" points="651.017,-321.534 647.517,-311.534 644.017,-321.534 651.017,-321.534"/>
</g>
<!-- Node24&#45;&gt;Node3 -->
<g id="edge70" class="edge"><title>Node24&#45;&gt;Node3</title>
<path fill="none" stroke="midnightblue" d="M688.11,-427.369C703.916,-418.27 724.169,-403.541 733.517,-384 752.959,-343.361 728.621,-290.66 712.2,-262.603"/>
<polygon fill="midnightblue" stroke="midnightblue" points="715.004,-260.479 706.806,-253.768 709.029,-264.127 715.004,-260.479"/>
</g>
<!-- Node24&#45;&gt;Node23 -->
<g id="edge72" class="edge"><title>Node24&#45;&gt;Node23</title>
<path fill="none" stroke="midnightblue" d="M663.714,-427.376C660.879,-416.635 656.426,-399.761 652.906,-386.422"/>
<polygon fill="midnightblue" stroke="midnightblue" points="656.268,-385.443 650.332,-376.667 649.5,-387.23 656.268,-385.443"/>
</g>
<!-- Node26&#45;&gt;Node3 -->
<g id="edge78" class="edge"><title>Node26&#45;&gt;Node3</title>
<path fill="none" stroke="midnightblue" d="M972.933,-550.187C983.482,-541.524 997.33,-528.46 1005.52,-514 1022.67,-483.702 1024.52,-472.817 1024.52,-438 1024.52,-438 1024.52,-438 1024.52,-366 1024.52,-311.066 860.045,-272.044 765.107,-254.095"/>
<polygon fill="midnightblue" stroke="midnightblue" points="765.489,-250.606 755.017,-252.217 764.208,-257.488 765.489,-250.606"/>
</g>
<!-- Node27 -->
<g id="node67" class="node"><title>Node27</title>
<a xlink:href="MojHasher_8h.htm" target="_top" xlink:title="core/MojHasher.h">
<polygon fill="white" stroke="black" points="896.017,-492.5 896.017,-513.5 997.017,-513.5 997.017,-492.5 896.017,-492.5"/>
<text text-anchor="middle" x="946.517" y="-500.5" font-family="Helvetica,sans-Serif" font-size="10.00">core/MojHasher.h</text>
</a>
</g>
<!-- Node26&#45;&gt;Node27 -->
<g id="edge80" class="edge"><title>Node26&#45;&gt;Node27</title>
<path fill="none" stroke="midnightblue" d="M956.316,-550.362C954.76,-542.84 952.625,-532.519 950.744,-523.431"/>
<polygon fill="midnightblue" stroke="midnightblue" points="954.158,-522.654 948.704,-513.571 947.303,-524.072 954.158,-522.654"/>
</g>
<!-- Node27&#45;&gt;Node3 -->
<g id="edge82" class="edge"><title>Node27&#45;&gt;Node3</title>
<path fill="none" stroke="midnightblue" d="M946.727,-492.303C946.796,-457.622 942.117,-347.234 882.517,-290 865.635,-273.788 810.708,-261.046 765.398,-252.942"/>
<polygon fill="midnightblue" stroke="midnightblue" points="765.755,-249.452 755.303,-251.184 764.554,-256.348 765.755,-249.452"/>
</g>
<!-- Node27&#45;&gt;Node24 -->
<g id="edge84" class="edge"><title>Node27&#45;&gt;Node24</title>
<path fill="none" stroke="midnightblue" d="M901.219,-492.484C850.763,-480.771 769.413,-461.886 716.963,-449.711"/>
<polygon fill="midnightblue" stroke="midnightblue" points="717.731,-446.296 707.198,-447.444 716.148,-453.115 717.731,-446.296"/>
</g>
</g>
</svg>
