<?xml version="1.0" encoding="UTF-8" standalone="no"?>
<!DOCTYPE svg PUBLIC "-//W3C//DTD SVG 1.1//EN"
 "http://www.w3.org/Graphics/SVG/1.1/DTD/svg11.dtd">
<!-- Generated by graphviz version 2.26.3 (20100126.1600)
 -->
<!-- Title: MojDbServiceHandlerInternal.h Pages: 1 -->
<svg width="493pt" height="146pt"
 viewBox="0.00 0.00 493.00 146.00" xmlns="http://www.w3.org/2000/svg" xmlns:xlink="http://www.w3.org/1999/xlink">
<g id="graph1" class="graph" transform="scale(1 1) rotate(0) translate(4 142)">
<title>MojDbServiceHandlerInternal.h</title>
<polygon fill="white" stroke="white" points="-4,5 -4,-142 490,-142 490,5 -4,5"/>
<!-- Node1 -->
<g id="node1" class="node"><title>Node1</title>
<polygon fill="#bfbfbf" stroke="black" points="161,-116.5 161,-137.5 325,-137.5 325,-116.5 161,-116.5"/>
<text text-anchor="middle" x="243" y="-124.5" font-family="Helvetica,sans-Serif" font-size="10.00">MojDbServiceHandlerInternal.h</text>
</g>
<!-- Node2 -->
<g id="node3" class="node"><title>Node2</title>
<a xlink:href="MojDbServiceHandler_8cpp.htm" target="_top" xlink:title="MojDbServiceHandler.cpp">
<polygon fill="white" stroke="black" points="-0.5,-58.5 -0.5,-79.5 138.5,-79.5 138.5,-58.5 -0.5,-58.5"/>
<text text-anchor="middle" x="69" y="-66.5" font-family="Helvetica,sans-Serif" font-size="10.00">MojDbServiceHandler.cpp</text>
</a>
</g>
<!-- Node1&#45;&gt;Node2 -->
<g id="edge2" class="edge"><title>Node1&#45;&gt;Node2</title>
<path fill="none" stroke="midnightblue" d="M201.836,-113.279C170.831,-102.944 128.955,-88.9849 100.569,-79.5231"/>
<polygon fill="midnightblue" stroke="midnightblue" points="200.896,-116.655 211.49,-116.497 203.11,-110.014 200.896,-116.655"/>
</g>
<!-- Node3 -->
<g id="node5" class="node"><title>Node3</title>
<a xlink:href="MojDbServiceHandlerInternal_8cpp.htm" target="_top" xlink:title="MojDbServiceHandlerInternal.cpp">
<polygon fill="white" stroke="black" points="155.5,-58.5 155.5,-79.5 330.5,-79.5 330.5,-58.5 155.5,-58.5"/>
<text text-anchor="middle" x="243" y="-66.5" font-family="Helvetica,sans-Serif" font-size="10.00">MojDbServiceHandlerInternal.cpp</text>
</a>
</g>
<!-- Node1&#45;&gt;Node3 -->
<g id="edge4" class="edge"><title>Node1&#45;&gt;Node3</title>
<path fill="none" stroke="midnightblue" d="M243,-106.191C243,-97.1684 243,-86.9941 243,-79.5707"/>
<polygon fill="midnightblue" stroke="midnightblue" points="239.5,-106.362 243,-116.362 246.5,-106.362 239.5,-106.362"/>
</g>
<!-- Node4 -->
<g id="node7" class="node"><title>Node4</title>
<a xlink:href="MojDbLunaServiceApp_8h.htm" target="_top" xlink:title="MojDbLunaServiceApp.h">
<polygon fill="white" stroke="black" points="348,-58.5 348,-79.5 480,-79.5 480,-58.5 348,-58.5"/>
<text text-anchor="middle" x="414" y="-66.5" font-family="Helvetica,sans-Serif" font-size="10.00">MojDbLunaServiceApp.h</text>
</a>
</g>
<!-- Node1&#45;&gt;Node4 -->
<g id="edge6" class="edge"><title>Node1&#45;&gt;Node4</title>
<path fill="none" stroke="midnightblue" d="M283.454,-113.279C313.925,-102.944 355.079,-88.9849 382.975,-79.5231"/>
<polygon fill="midnightblue" stroke="midnightblue" points="282.313,-109.97 273.967,-116.497 284.561,-116.599 282.313,-109.97"/>
</g>
<!-- Node5 -->
<g id="node9" class="node"><title>Node5</title>
<a xlink:href="MojDbLunaServiceApp_8cpp.htm" target="_top" xlink:title="MojDbLunaServiceApp.cpp">
<polygon fill="white" stroke="black" points="342.5,-0.5 342.5,-21.5 485.5,-21.5 485.5,-0.5 342.5,-0.5"/>
<text text-anchor="middle" x="414" y="-8.5" font-family="Helvetica,sans-Serif" font-size="10.00">MojDbLunaServiceApp.cpp</text>
</a>
</g>
<!-- Node4&#45;&gt;Node5 -->
<g id="edge8" class="edge"><title>Node4&#45;&gt;Node5</title>
<path fill="none" stroke="midnightblue" d="M414,-48.1906C414,-39.1684 414,-28.9941 414,-21.5707"/>
<polygon fill="midnightblue" stroke="midnightblue" points="410.5,-48.3619 414,-58.3619 417.5,-48.3619 410.5,-48.3619"/>
</g>
</g>
</svg>
