<?xml version="1.0" encoding="UTF-8" standalone="no"?>
<!DOCTYPE svg PUBLIC "-//W3C//DTD SVG 1.1//EN"
 "http://www.w3.org/Graphics/SVG/1.1/DTD/svg11.dtd">
<!-- Generated by graphviz version 2.26.3 (20100126.1600)
 -->
<!-- Title: MojDbQuery.cpp Pages: 1 -->
<svg width="1930pt" height="884pt"
 viewBox="0.00 0.00 1930.00 884.00" xmlns="http://www.w3.org/2000/svg" xmlns:xlink="http://www.w3.org/1999/xlink">
<g id="graph1" class="graph" transform="scale(1 1) rotate(0) translate(4 880)">
<title>MojDbQuery.cpp</title>
<polygon fill="white" stroke="white" points="-4,5 -4,-880 1927,-880 1927,5 -4,5"/>
<!-- Node1 -->
<g id="node1" class="node"><title>Node1</title>
<polygon fill="#bfbfbf" stroke="black" points="940.5,-854.5 940.5,-875.5 1035.5,-875.5 1035.5,-854.5 940.5,-854.5"/>
<text text-anchor="middle" x="988" y="-862.5" font-family="Helvetica,sans-Serif" font-size="10.00">MojDbQuery.cpp</text>
</g>
<!-- Node2 -->
<g id="node3" class="node"><title>Node2</title>
<a xlink:href="MojDbQuery_8h.htm" target="_top" xlink:title="db/MojDbQuery.h">
<polygon fill="white" stroke="black" points="939,-796.5 939,-817.5 1037,-817.5 1037,-796.5 939,-796.5"/>
<text text-anchor="middle" x="988" y="-804.5" font-family="Helvetica,sans-Serif" font-size="10.00">db/MojDbQuery.h</text>
</a>
</g>
<!-- Node1&#45;&gt;Node2 -->
<g id="edge2" class="edge"><title>Node1&#45;&gt;Node2</title>
<path fill="none" stroke="midnightblue" d="M988,-854.362C988,-846.922 988,-836.743 988,-827.728"/>
<polygon fill="midnightblue" stroke="midnightblue" points="991.5,-827.571 988,-817.571 984.5,-827.571 991.5,-827.571"/>
</g>
<!-- Node39 -->
<g id="node117" class="node"><title>Node39</title>
<a xlink:href="MojDbUtils_8h.htm" target="_top" xlink:title="db/MojDbUtils.h">
<polygon fill="white" stroke="black" points="758.5,-796.5 758.5,-817.5 847.5,-817.5 847.5,-796.5 758.5,-796.5"/>
<text text-anchor="middle" x="803" y="-804.5" font-family="Helvetica,sans-Serif" font-size="10.00">db/MojDbUtils.h</text>
</a>
</g>
<!-- Node1&#45;&gt;Node39 -->
<g id="edge156" class="edge"><title>Node1&#45;&gt;Node39</title>
<path fill="none" stroke="midnightblue" d="M954.498,-854.497C924.207,-845 879.43,-830.962 846.407,-820.609"/>
<polygon fill="midnightblue" stroke="midnightblue" points="847.154,-817.175 836.565,-817.523 845.06,-823.854 847.154,-817.175"/>
</g>
<!-- Node40 -->
<g id="node120" class="node"><title>Node40</title>
<a xlink:href="MojObjectBuilder_8h.htm" target="_top" xlink:title="core/MojObjectBuilder.h">
<polygon fill="white" stroke="black" points="1619,-738.5 1619,-759.5 1747,-759.5 1747,-738.5 1619,-738.5"/>
<text text-anchor="middle" x="1683" y="-746.5" font-family="Helvetica,sans-Serif" font-size="10.00">core/MojObjectBuilder.h</text>
</a>
</g>
<!-- Node1&#45;&gt;Node40 -->
<g id="edge160" class="edge"><title>Node1&#45;&gt;Node40</title>
<path fill="none" stroke="midnightblue" d="M1035.77,-857.027C1155.19,-837.094 1467.35,-784.994 1609.99,-761.186"/>
<polygon fill="midnightblue" stroke="midnightblue" points="1610.67,-764.621 1619.96,-759.522 1609.52,-757.716 1610.67,-764.621"/>
</g>
<!-- Node3 -->
<g id="node5" class="node"><title>Node3</title>
<a xlink:href="MojDbDefs_8h.htm" target="_top" xlink:title="db/MojDbDefs.h">
<polygon fill="white" stroke="black" points="661.5,-680.5 661.5,-701.5 752.5,-701.5 752.5,-680.5 661.5,-680.5"/>
<text text-anchor="middle" x="707" y="-688.5" font-family="Helvetica,sans-Serif" font-size="10.00">db/MojDbDefs.h</text>
</a>
</g>
<!-- Node2&#45;&gt;Node3 -->
<g id="edge4" class="edge"><title>Node2&#45;&gt;Node3</title>
<path fill="none" stroke="midnightblue" d="M938.978,-799.396C901.159,-792.364 848.185,-779.932 805,-760 789.267,-752.738 752.527,-725.721 728.772,-707.727"/>
<polygon fill="midnightblue" stroke="midnightblue" points="730.747,-704.832 720.671,-701.559 726.507,-710.401 730.747,-704.832"/>
</g>
<!-- Node14 -->
<g id="node27" class="node"><title>Node14</title>
<a xlink:href="MojDbKey_8h.htm" target="_top" xlink:title="db/MojDbKey.h">
<polygon fill="white" stroke="black" points="813.5,-738.5 813.5,-759.5 900.5,-759.5 900.5,-738.5 813.5,-738.5"/>
<text text-anchor="middle" x="857" y="-746.5" font-family="Helvetica,sans-Serif" font-size="10.00">db/MojDbKey.h</text>
</a>
</g>
<!-- Node2&#45;&gt;Node14 -->
<g id="edge26" class="edge"><title>Node2&#45;&gt;Node14</title>
<path fill="none" stroke="midnightblue" d="M964.277,-796.497C943.632,-787.356 913.484,-774.008 890.401,-763.788"/>
<polygon fill="midnightblue" stroke="midnightblue" points="891.55,-760.469 880.989,-759.621 888.716,-766.87 891.55,-760.469"/>
</g>
<!-- Node28 -->
<g id="node69" class="node"><title>Node28</title>
<a xlink:href="MojObject_8h.htm" target="_top" xlink:title="core/MojObject.h">
<polygon fill="white" stroke="black" points="1081,-680.5 1081,-701.5 1177,-701.5 1177,-680.5 1081,-680.5"/>
<text text-anchor="middle" x="1129" y="-688.5" font-family="Helvetica,sans-Serif" font-size="10.00">core/MojObject.h</text>
</a>
</g>
<!-- Node2&#45;&gt;Node28 -->
<g id="edge150" class="edge"><title>Node2&#45;&gt;Node28</title>
<path fill="none" stroke="midnightblue" d="M1005.58,-796.43C1020.12,-787.403 1041.06,-773.735 1058,-760 1077.6,-744.109 1098.07,-723.751 1111.97,-709.277"/>
<polygon fill="midnightblue" stroke="midnightblue" points="1114.62,-711.568 1118.96,-701.906 1109.54,-706.749 1114.62,-711.568"/>
</g>
<!-- Node33 -->
<g id="node87" class="node"><title>Node33</title>
<a xlink:href="MojString_8h.htm" target="_top" xlink:title="core/MojString.h">
<polygon fill="white" stroke="black" points="884,-622.5 884,-643.5 978,-643.5 978,-622.5 884,-622.5"/>
<text text-anchor="middle" x="931" y="-630.5" font-family="Helvetica,sans-Serif" font-size="10.00">core/MojString.h</text>
</a>
</g>
<!-- Node2&#45;&gt;Node33 -->
<g id="edge154" class="edge"><title>Node2&#45;&gt;Node33</title>
<path fill="none" stroke="midnightblue" d="M984.52,-796.377C975.28,-768.172 950.004,-691.012 937.788,-653.72"/>
<polygon fill="midnightblue" stroke="midnightblue" points="941.019,-652.341 934.58,-643.928 934.367,-654.52 941.019,-652.341"/>
</g>
<!-- Node34 -->
<g id="node95" class="node"><title>Node34</title>
<a xlink:href="MojSet_8h.htm" target="_top" xlink:title="core/MojSet.h">
<polygon fill="white" stroke="black" points="1003,-557.5 1003,-578.5 1085,-578.5 1085,-557.5 1003,-557.5"/>
<text text-anchor="middle" x="1044" y="-565.5" font-family="Helvetica,sans-Serif" font-size="10.00">core/MojSet.h</text>
</a>
</g>
<!-- Node2&#45;&gt;Node34 -->
<g id="edge152" class="edge"><title>Node2&#45;&gt;Node34</title>
<path fill="none" stroke="midnightblue" d="M990.479,-796.422C999.078,-759.72 1027.73,-637.439 1039.2,-588.503"/>
<polygon fill="midnightblue" stroke="midnightblue" points="1042.61,-589.262 1041.49,-578.727 1035.8,-587.665 1042.61,-589.262"/>
</g>
<!-- Node36 -->
<g id="node103" class="node"><title>Node36</title>
<a xlink:href="MojHashMap_8h.htm" target="_top" xlink:title="core/MojHashMap.h">
<polygon fill="white" stroke="black" points="1600,-622.5 1600,-643.5 1712,-643.5 1712,-622.5 1600,-622.5"/>
<text text-anchor="middle" x="1656" y="-630.5" font-family="Helvetica,sans-Serif" font-size="10.00">core/MojHashMap.h</text>
</a>
</g>
<!-- Node2&#45;&gt;Node36 -->
<g id="edge134" class="edge"><title>Node2&#45;&gt;Node36</title>
<path fill="none" stroke="midnightblue" d="M1028.78,-796.377C1145.03,-766.097 1477.89,-679.395 1605.43,-646.173"/>
<polygon fill="midnightblue" stroke="midnightblue" points="1606.53,-649.502 1615.33,-643.594 1604.77,-642.728 1606.53,-649.502"/>
</g>
<!-- Node4 -->
<g id="node7" class="node"><title>Node4</title>
<a xlink:href="MojCoreDefs_8h.htm" target="_top" xlink:title="core/MojCoreDefs.h">
<polygon fill="white" stroke="black" points="912.5,-232.5 912.5,-253.5 1023.5,-253.5 1023.5,-232.5 912.5,-232.5"/>
<text text-anchor="middle" x="968" y="-240.5" font-family="Helvetica,sans-Serif" font-size="10.00">core/MojCoreDefs.h</text>
</a>
</g>
<!-- Node3&#45;&gt;Node4 -->
<g id="edge6" class="edge"><title>Node3&#45;&gt;Node4</title>
<path fill="none" stroke="midnightblue" d="M661.428,-687.916C505.072,-676.733 0,-635.394 0,-568 0,-568 0,-568 0,-366 0,-309.822 48.2207,-309.243 101,-290 175.486,-262.843 713.072,-248.58 902.309,-244.358"/>
<polygon fill="midnightblue" stroke="midnightblue" points="902.475,-247.856 912.395,-244.136 902.32,-240.857 902.475,-247.856"/>
</g>
<!-- Node5 -->
<g id="node9" class="node"><title>Node5</title>
<a xlink:href="MojConfig_8h.htm" target="_top" xlink:title="core/internal/MojConfig.h">
<polygon fill="white" stroke="black" points="900.5,-174.5 900.5,-195.5 1035.5,-195.5 1035.5,-174.5 900.5,-174.5"/>
<text text-anchor="middle" x="968" y="-182.5" font-family="Helvetica,sans-Serif" font-size="10.00">core/internal/MojConfig.h</text>
</a>
</g>
<!-- Node4&#45;&gt;Node5 -->
<g id="edge8" class="edge"><title>Node4&#45;&gt;Node5</title>
<path fill="none" stroke="midnightblue" d="M968,-232.362C968,-224.922 968,-214.743 968,-205.728"/>
<polygon fill="midnightblue" stroke="midnightblue" points="971.5,-205.571 968,-195.571 964.5,-205.571 971.5,-205.571"/>
</g>
<!-- Node6 -->
<g id="node11" class="node"><title>Node6</title>
<a xlink:href="MojNew_8h.htm" target="_top" xlink:title="core/internal/MojNew.h">
<polygon fill="white" stroke="black" points="1052.5,-174.5 1052.5,-195.5 1177.5,-195.5 1177.5,-174.5 1052.5,-174.5"/>
<text text-anchor="middle" x="1115" y="-182.5" font-family="Helvetica,sans-Serif" font-size="10.00">core/internal/MojNew.h</text>
</a>
</g>
<!-- Node4&#45;&gt;Node6 -->
<g id="edge10" class="edge"><title>Node4&#45;&gt;Node6</title>
<path fill="none" stroke="midnightblue" d="M994.621,-232.497C1018.1,-223.234 1052.53,-209.65 1078.56,-199.379"/>
<polygon fill="midnightblue" stroke="midnightblue" points="1080.06,-202.547 1088.08,-195.621 1077.49,-196.036 1080.06,-202.547"/>
</g>
<!-- Node8 -->
<g id="node15" class="node"><title>Node8</title>
<a xlink:href="MojErr_8h.htm" target="_top" xlink:title="core/MojErr.h">
<polygon fill="white" stroke="black" points="625,-174.5 625,-195.5 705,-195.5 705,-174.5 625,-174.5"/>
<text text-anchor="middle" x="665" y="-182.5" font-family="Helvetica,sans-Serif" font-size="10.00">core/MojErr.h</text>
</a>
</g>
<!-- Node4&#45;&gt;Node8 -->
<g id="edge14" class="edge"><title>Node4&#45;&gt;Node8</title>
<path fill="none" stroke="midnightblue" d="M913.129,-232.497C856.894,-221.732 770.173,-205.132 715.561,-194.678"/>
<polygon fill="midnightblue" stroke="midnightblue" points="715.898,-191.179 705.418,-192.737 714.582,-198.055 715.898,-191.179"/>
</g>
<!-- Node12 -->
<g id="node23" class="node"><title>Node12</title>
<a xlink:href="MojOs_8h.htm" target="_top" xlink:title="core/MojOs.h">
<polygon fill="white" stroke="black" points="803,-174.5 803,-195.5 883,-195.5 883,-174.5 803,-174.5"/>
<text text-anchor="middle" x="843" y="-182.5" font-family="Helvetica,sans-Serif" font-size="10.00">core/MojOs.h</text>
</a>
</g>
<!-- Node4&#45;&gt;Node12 -->
<g id="edge22" class="edge"><title>Node4&#45;&gt;Node12</title>
<path fill="none" stroke="midnightblue" d="M945.363,-232.497C925.752,-223.397 897.154,-210.127 875.167,-199.925"/>
<polygon fill="midnightblue" stroke="midnightblue" points="876.435,-196.655 865.891,-195.621 873.488,-203.005 876.435,-196.655"/>
</g>
<!-- Node7 -->
<g id="node13" class="node"><title>Node7</title>
<polygon fill="white" stroke="#bfbfbf" points="1097,-116.5 1097,-137.5 1133,-137.5 1133,-116.5 1097,-116.5"/>
<text text-anchor="middle" x="1115" y="-124.5" font-family="Helvetica,sans-Serif" font-size="10.00">new</text>
</g>
<!-- Node6&#45;&gt;Node7 -->
<g id="edge12" class="edge"><title>Node6&#45;&gt;Node7</title>
<path fill="none" stroke="midnightblue" d="M1115,-174.362C1115,-166.922 1115,-156.743 1115,-147.728"/>
<polygon fill="midnightblue" stroke="midnightblue" points="1118.5,-147.571 1115,-137.571 1111.5,-147.571 1118.5,-147.571"/>
</g>
<!-- Node9 -->
<g id="node17" class="node"><title>Node9</title>
<a xlink:href="MojLog_8h.htm" target="_top" xlink:title="core/MojLog.h">
<polygon fill="white" stroke="black" points="456,-116.5 456,-137.5 540,-137.5 540,-116.5 456,-116.5"/>
<text text-anchor="middle" x="498" y="-124.5" font-family="Helvetica,sans-Serif" font-size="10.00">core/MojLog.h</text>
</a>
</g>
<!-- Node8&#45;&gt;Node9 -->
<g id="edge16" class="edge"><title>Node8&#45;&gt;Node9</title>
<path fill="none" stroke="midnightblue" d="M634.758,-174.497C607.65,-165.082 567.69,-151.204 537.957,-140.877"/>
<polygon fill="midnightblue" stroke="midnightblue" points="538.894,-137.498 528.299,-137.523 536.597,-144.11 538.894,-137.498"/>
</g>
<!-- Node10 -->
<g id="node19" class="node"><title>Node10</title>
<a xlink:href="MojListEntry_8h.htm" target="_top" xlink:title="core/MojListEntry.h">
<polygon fill="white" stroke="black" points="361.5,-58.5 361.5,-79.5 468.5,-79.5 468.5,-58.5 361.5,-58.5"/>
<text text-anchor="middle" x="415" y="-66.5" font-family="Helvetica,sans-Serif" font-size="10.00">core/MojListEntry.h</text>
</a>
</g>
<!-- Node9&#45;&gt;Node10 -->
<g id="edge18" class="edge"><title>Node9&#45;&gt;Node10</title>
<path fill="none" stroke="midnightblue" d="M482.777,-116.362C470.375,-107.696 452.654,-95.3126 438.443,-85.3819"/>
<polygon fill="midnightblue" stroke="midnightblue" points="440.329,-82.4297 430.127,-79.5707 436.319,-88.1676 440.329,-82.4297"/>
</g>
<!-- Node11 -->
<g id="node21" class="node"><title>Node11</title>
<a xlink:href="MojNoCopy_8h.htm" target="_top" xlink:title="core/MojNoCopy.h">
<polygon fill="white" stroke="black" points="301,-0.5 301,-21.5 405,-21.5 405,-0.5 301,-0.5"/>
<text text-anchor="middle" x="353" y="-8.5" font-family="Helvetica,sans-Serif" font-size="10.00">core/MojNoCopy.h</text>
</a>
</g>
<!-- Node10&#45;&gt;Node11 -->
<g id="edge20" class="edge"><title>Node10&#45;&gt;Node11</title>
<path fill="none" stroke="midnightblue" d="M403.628,-58.3619C394.714,-50.0226 382.121,-38.2418 371.724,-28.5162"/>
<polygon fill="midnightblue" stroke="midnightblue" points="373.993,-25.8463 364.3,-21.5707 369.211,-30.9582 373.993,-25.8463"/>
</g>
<!-- Node13 -->
<g id="node25" class="node"><title>Node13</title>
<a xlink:href="MojOsInternal_8h.htm" target="_top" xlink:title="core/internal/MojOsInternal.h">
<polygon fill="white" stroke="black" points="766,-116.5 766,-137.5 920,-137.5 920,-116.5 766,-116.5"/>
<text text-anchor="middle" x="843" y="-124.5" font-family="Helvetica,sans-Serif" font-size="10.00">core/internal/MojOsInternal.h</text>
</a>
</g>
<!-- Node12&#45;&gt;Node13 -->
<g id="edge24" class="edge"><title>Node12&#45;&gt;Node13</title>
<path fill="none" stroke="midnightblue" d="M843,-174.362C843,-166.922 843,-156.743 843,-147.728"/>
<polygon fill="midnightblue" stroke="midnightblue" points="846.5,-147.571 843,-137.571 839.5,-147.571 846.5,-147.571"/>
</g>
<!-- Node14&#45;&gt;Node3 -->
<g id="edge28" class="edge"><title>Node14&#45;&gt;Node3</title>
<path fill="none" stroke="midnightblue" d="M829.836,-738.497C805.7,-729.164 770.219,-715.445 743.588,-705.147"/>
<polygon fill="midnightblue" stroke="midnightblue" points="744.804,-701.865 734.215,-701.523 742.28,-708.394 744.804,-701.865"/>
</g>
<!-- Node15 -->
<g id="node30" class="node"><title>Node15</title>
<a xlink:href="MojBuffer_8h.htm" target="_top" xlink:title="core/MojBuffer.h">
<polygon fill="white" stroke="black" points="279,-622.5 279,-643.5 373,-643.5 373,-622.5 279,-622.5"/>
<text text-anchor="middle" x="326" y="-630.5" font-family="Helvetica,sans-Serif" font-size="10.00">core/MojBuffer.h</text>
</a>
</g>
<!-- Node14&#45;&gt;Node15 -->
<g id="edge30" class="edge"><title>Node14&#45;&gt;Node15</title>
<path fill="none" stroke="midnightblue" d="M846.319,-738.383C829.692,-722.592 795.889,-693.349 761,-680 693.354,-654.119 485.103,-640.716 383.265,-635.562"/>
<polygon fill="midnightblue" stroke="midnightblue" points="383.321,-632.061 373.159,-635.06 382.973,-639.052 383.321,-632.061"/>
</g>
<!-- Node21 -->
<g id="node47" class="node"><title>Node21</title>
<a xlink:href="MojVector_8h.htm" target="_top" xlink:title="core/MojVector.h">
<polygon fill="white" stroke="black" points="593.5,-557.5 593.5,-578.5 690.5,-578.5 690.5,-557.5 593.5,-557.5"/>
<text text-anchor="middle" x="642" y="-565.5" font-family="Helvetica,sans-Serif" font-size="10.00">core/MojVector.h</text>
</a>
</g>
<!-- Node14&#45;&gt;Node21 -->
<g id="edge132" class="edge"><title>Node14&#45;&gt;Node21</title>
<path fill="none" stroke="midnightblue" d="M848.206,-738.109C836.543,-723.974 814.977,-698.884 794,-680 752.314,-642.475 698.447,-605.077 667.306,-584.4"/>
<polygon fill="midnightblue" stroke="midnightblue" points="669.057,-581.363 658.782,-578.782 665.205,-587.207 669.057,-581.363"/>
</g>
<!-- Node14&#45;&gt;Node28 -->
<g id="edge82" class="edge"><title>Node14&#45;&gt;Node28</title>
<path fill="none" stroke="midnightblue" d="M900.702,-739.681C946.879,-729.835 1019.94,-714.256 1070.93,-703.382"/>
<polygon fill="midnightblue" stroke="midnightblue" points="1071.77,-706.782 1080.82,-701.273 1070.31,-699.936 1071.77,-706.782"/>
</g>
<!-- Node14&#45;&gt;Node34 -->
<g id="edge122" class="edge"><title>Node14&#45;&gt;Node34</title>
<path fill="none" stroke="midnightblue" d="M872.44,-738.452C897.885,-720.667 949.534,-682.836 987,-644 1004.13,-626.239 1020.71,-603.276 1031.53,-587.26"/>
<polygon fill="midnightblue" stroke="midnightblue" points="1034.58,-588.992 1037.2,-578.724 1028.75,-585.121 1034.58,-588.992"/>
</g>
<!-- Node15&#45;&gt;Node4 -->
<g id="edge32" class="edge"><title>Node15&#45;&gt;Node4</title>
<path fill="none" stroke="midnightblue" d="M278.686,-628.03C237.953,-622.273 178.557,-610.268 132,-586 82.5782,-560.238 38,-558.733 38,-503 38,-503 38,-503 38,-366 38,-335.401 -0.164078,-337.432 183,-290 318.149,-255.002 738.343,-245.927 901.906,-243.692"/>
<polygon fill="midnightblue" stroke="midnightblue" points="902.35,-247.186 912.303,-243.554 902.257,-240.187 902.35,-247.186"/>
</g>
<!-- Node16 -->
<g id="node33" class="node"><title>Node16</title>
<a xlink:href="MojAutoPtr_8h.htm" target="_top" xlink:title="core/MojAutoPtr.h">
<polygon fill="white" stroke="black" points="469.5,-427.5 469.5,-448.5 570.5,-448.5 570.5,-427.5 469.5,-427.5"/>
<text text-anchor="middle" x="520" y="-435.5" font-family="Helvetica,sans-Serif" font-size="10.00">core/MojAutoPtr.h</text>
</a>
</g>
<!-- Node15&#45;&gt;Node16 -->
<g id="edge34" class="edge"><title>Node15&#45;&gt;Node16</title>
<path fill="none" stroke="midnightblue" d="M323.939,-622.292C319.635,-596.504 312.594,-530.263 345,-492 360.045,-474.237 415.131,-459.127 459.532,-449.447"/>
<polygon fill="midnightblue" stroke="midnightblue" points="460.349,-452.852 469.401,-447.345 458.891,-446.005 460.349,-452.852"/>
</g>
<!-- Node19 -->
<g id="node42" class="node"><title>Node19</title>
<a xlink:href="MojList_8h.htm" target="_top" xlink:title="core/MojList.h">
<polygon fill="white" stroke="black" points="140.5,-557.5 140.5,-578.5 223.5,-578.5 223.5,-557.5 140.5,-557.5"/>
<text text-anchor="middle" x="182" y="-565.5" font-family="Helvetica,sans-Serif" font-size="10.00">core/MojList.h</text>
</a>
</g>
<!-- Node15&#45;&gt;Node19 -->
<g id="edge46" class="edge"><title>Node15&#45;&gt;Node19</title>
<path fill="none" stroke="midnightblue" d="M302.543,-622.412C278.695,-611.647 241.545,-594.878 214.79,-582.801"/>
<polygon fill="midnightblue" stroke="midnightblue" points="216.001,-579.508 205.447,-578.584 213.121,-585.888 216.001,-579.508"/>
</g>
<!-- Node15&#45;&gt;Node21 -->
<g id="edge52" class="edge"><title>Node15&#45;&gt;Node21</title>
<path fill="none" stroke="midnightblue" d="M373.308,-623.269C429.413,-611.728 522.939,-592.49 583.528,-580.028"/>
<polygon fill="midnightblue" stroke="midnightblue" points="584.239,-583.455 593.328,-578.012 582.828,-576.598 584.239,-583.455"/>
</g>
<!-- Node16&#45;&gt;Node4 -->
<g id="edge36" class="edge"><title>Node16&#45;&gt;Node4</title>
<path fill="none" stroke="midnightblue" d="M521.053,-427.328C523.435,-408.761 530.88,-370.362 553,-348 601.493,-298.975 797.748,-265.852 902.062,-251.337"/>
<polygon fill="midnightblue" stroke="midnightblue" points="902.738,-254.777 912.169,-249.949 901.785,-247.842 902.738,-254.777"/>
</g>
<!-- Node16&#45;&gt;Node11 -->
<g id="edge42" class="edge"><title>Node16&#45;&gt;Node11</title>
<path fill="none" stroke="midnightblue" d="M476.457,-427.422C448.68,-419.059 413.122,-405.201 387,-384 328.329,-336.381 292,-318.563 292,-243 292,-243 292,-243 292,-127 292,-88.8343 318.188,-50.8827 336.246,-29.2493"/>
<polygon fill="midnightblue" stroke="midnightblue" points="339.026,-31.3851 342.927,-21.5345 333.735,-26.8024 339.026,-31.3851"/>
</g>
<!-- Node17 -->
<g id="node36" class="node"><title>Node17</title>
<a xlink:href="MojAtomicInt_8h.htm" target="_top" xlink:title="core/MojAtomicInt.h">
<polygon fill="white" stroke="black" points="396,-355.5 396,-376.5 506,-376.5 506,-355.5 396,-355.5"/>
<text text-anchor="middle" x="451" y="-363.5" font-family="Helvetica,sans-Serif" font-size="10.00">core/MojAtomicInt.h</text>
</a>
</g>
<!-- Node16&#45;&gt;Node17 -->
<g id="edge38" class="edge"><title>Node16&#45;&gt;Node17</title>
<path fill="none" stroke="midnightblue" d="M509.819,-427.376C498.914,-415.997 481.412,-397.735 468.331,-384.085"/>
<polygon fill="midnightblue" stroke="midnightblue" points="470.669,-381.466 461.223,-376.667 465.615,-386.309 470.669,-381.466"/>
</g>
<!-- Node18 -->
<g id="node40" class="node"><title>Node18</title>
<a xlink:href="MojAutoPtrInternal_8h.htm" target="_top" xlink:title="core/internal/MojAutoPtr\lInternal.h">
<polygon fill="white" stroke="black" points="561.5,-349 561.5,-383 692.5,-383 692.5,-349 561.5,-349"/>
<text text-anchor="start" x="569.5" y="-370" font-family="Helvetica,sans-Serif" font-size="10.00">core/internal/MojAutoPtr</text>
<text text-anchor="middle" x="627" y="-357" font-family="Helvetica,sans-Serif" font-size="10.00">Internal.h</text>
</a>
</g>
<!-- Node16&#45;&gt;Node18 -->
<g id="edge44" class="edge"><title>Node16&#45;&gt;Node18</title>
<path fill="none" stroke="midnightblue" d="M535.788,-427.376C550.811,-417.267 573.905,-401.727 593.096,-388.814"/>
<polygon fill="midnightblue" stroke="midnightblue" points="595.253,-391.581 601.596,-383.094 591.345,-385.773 595.253,-391.581"/>
</g>
<!-- Node17&#45;&gt;Node4 -->
<g id="edge40" class="edge"><title>Node17&#45;&gt;Node4</title>
<path fill="none" stroke="midnightblue" d="M457.024,-355.422C467.406,-338.315 490.433,-304.985 520,-290 585.212,-256.95 794.135,-247.106 902.067,-244.2"/>
<polygon fill="midnightblue" stroke="midnightblue" points="902.282,-247.696 912.189,-243.94 902.102,-240.698 902.282,-247.696"/>
</g>
<!-- Node19&#45;&gt;Node4 -->
<g id="edge48" class="edge"><title>Node19&#45;&gt;Node4</title>
<path fill="none" stroke="midnightblue" d="M154.046,-557.359C134.662,-548.576 109.77,-534.252 95,-514 74.4836,-485.87 76,-472.817 76,-438 76,-438 76,-438 76,-366 76,-282.601 695.817,-252.774 902.112,-245.156"/>
<polygon fill="midnightblue" stroke="midnightblue" points="902.335,-248.651 912.201,-244.789 902.081,-241.655 902.335,-248.651"/>
</g>
<!-- Node20 -->
<g id="node45" class="node"><title>Node20</title>
<a xlink:href="MojListInternal_8h.htm" target="_top" xlink:title="core/internal/MojListInternal.h">
<polygon fill="white" stroke="black" points="103.5,-492.5 103.5,-513.5 260.5,-513.5 260.5,-492.5 103.5,-492.5"/>
<text text-anchor="middle" x="182" y="-500.5" font-family="Helvetica,sans-Serif" font-size="10.00">core/internal/MojListInternal.h</text>
</a>
</g>
<!-- Node19&#45;&gt;Node20 -->
<g id="edge50" class="edge"><title>Node19&#45;&gt;Node20</title>
<path fill="none" stroke="midnightblue" d="M182,-557.267C182,-548.18 182,-534.892 182,-523.74"/>
<polygon fill="midnightblue" stroke="midnightblue" points="185.5,-523.534 182,-513.534 178.5,-523.534 185.5,-523.534"/>
</g>
<!-- Node21&#45;&gt;Node4 -->
<g id="edge54" class="edge"><title>Node21&#45;&gt;Node4</title>
<path fill="none" stroke="midnightblue" d="M593.304,-566.432C517.332,-562.845 376.062,-551.218 345,-514 322.293,-486.792 260.785,-595.319 373,-348 386.481,-318.289 389.338,-305.588 418,-290 459.59,-267.382 764.667,-251.678 901.689,-245.69"/>
<polygon fill="midnightblue" stroke="midnightblue" points="902.209,-249.171 912.048,-245.242 901.906,-242.178 902.209,-249.171"/>
</g>
<!-- Node22 -->
<g id="node50" class="node"><title>Node22</title>
<a xlink:href="MojComp_8h.htm" target="_top" xlink:title="core/MojComp.h">
<polygon fill="white" stroke="black" points="959,-290.5 959,-311.5 1053,-311.5 1053,-290.5 959,-290.5"/>
<text text-anchor="middle" x="1006" y="-298.5" font-family="Helvetica,sans-Serif" font-size="10.00">core/MojComp.h</text>
</a>
</g>
<!-- Node21&#45;&gt;Node22 -->
<g id="edge56" class="edge"><title>Node21&#45;&gt;Node22</title>
<path fill="none" stroke="midnightblue" d="M666.784,-557.352C728.259,-530.885 883.494,-463.691 893,-456 941.096,-417.084 978.897,-353.02 996.015,-320.804"/>
<polygon fill="midnightblue" stroke="midnightblue" points="999.141,-322.378 1000.65,-311.891 992.931,-319.147 999.141,-322.378"/>
</g>
<!-- Node23 -->
<g id="node53" class="node"><title>Node23</title>
<a xlink:href="MojRefCount_8h.htm" target="_top" xlink:title="core/MojRefCount.h">
<polygon fill="white" stroke="black" points="354,-492.5 354,-513.5 464,-513.5 464,-492.5 354,-492.5"/>
<text text-anchor="middle" x="409" y="-500.5" font-family="Helvetica,sans-Serif" font-size="10.00">core/MojRefCount.h</text>
</a>
</g>
<!-- Node21&#45;&gt;Node23 -->
<g id="edge60" class="edge"><title>Node21&#45;&gt;Node23</title>
<path fill="none" stroke="midnightblue" d="M604.306,-557.484C564.038,-546.251 500.123,-528.421 456.455,-516.239"/>
<polygon fill="midnightblue" stroke="midnightblue" points="457.213,-512.816 446.64,-513.501 455.332,-519.559 457.213,-512.816"/>
</g>
<!-- Node26 -->
<g id="node63" class="node"><title>Node26</title>
<a xlink:href="MojUtil_8h.htm" target="_top" xlink:title="core/MojUtil.h">
<polygon fill="white" stroke="black" points="803.5,-427.5 803.5,-448.5 884.5,-448.5 884.5,-427.5 803.5,-427.5"/>
<text text-anchor="middle" x="844" y="-435.5" font-family="Helvetica,sans-Serif" font-size="10.00">core/MojUtil.h</text>
</a>
</g>
<!-- Node21&#45;&gt;Node26 -->
<g id="edge74" class="edge"><title>Node21&#45;&gt;Node26</title>
<path fill="none" stroke="midnightblue" d="M658.531,-557.362C693.908,-534.594 777.134,-481.033 819.01,-454.083"/>
<polygon fill="midnightblue" stroke="midnightblue" points="821.009,-456.958 827.524,-448.603 817.221,-451.072 821.009,-456.958"/>
</g>
<!-- Node27 -->
<g id="node67" class="node"><title>Node27</title>
<a xlink:href="MojVectorInternal_8h.htm" target="_top" xlink:title="core/internal/MojVectorInternal.h">
<polygon fill="white" stroke="black" points="481.5,-492.5 481.5,-513.5 652.5,-513.5 652.5,-492.5 481.5,-492.5"/>
<text text-anchor="middle" x="567" y="-500.5" font-family="Helvetica,sans-Serif" font-size="10.00">core/internal/MojVectorInternal.h</text>
</a>
</g>
<!-- Node21&#45;&gt;Node27 -->
<g id="edge80" class="edge"><title>Node21&#45;&gt;Node27</title>
<path fill="none" stroke="midnightblue" d="M629.615,-557.267C618.038,-547.233 600.552,-532.078 586.997,-520.331"/>
<polygon fill="midnightblue" stroke="midnightblue" points="589.003,-517.438 579.154,-513.534 584.419,-522.728 589.003,-517.438"/>
</g>
<!-- Node22&#45;&gt;Node4 -->
<g id="edge58" class="edge"><title>Node22&#45;&gt;Node4</title>
<path fill="none" stroke="midnightblue" d="M999.03,-290.362C993.834,-282.431 986.599,-271.389 980.422,-261.961"/>
<polygon fill="midnightblue" stroke="midnightblue" points="983.334,-260.017 974.926,-253.571 977.478,-263.853 983.334,-260.017"/>
</g>
<!-- Node23&#45;&gt;Node4 -->
<g id="edge62" class="edge"><title>Node23&#45;&gt;Node4</title>
<path fill="none" stroke="midnightblue" d="M403.207,-492.352C389.685,-465.921 359.221,-395.985 387,-348 412.934,-303.201 438.695,-305.763 488,-290 563.407,-265.892 789.31,-251.755 902.235,-246.013"/>
<polygon fill="midnightblue" stroke="midnightblue" points="902.661,-249.496 912.473,-245.499 902.31,-242.505 902.661,-249.496"/>
</g>
<!-- Node23&#45;&gt;Node16 -->
<g id="edge66" class="edge"><title>Node23&#45;&gt;Node16</title>
<path fill="none" stroke="midnightblue" d="M427.329,-492.267C445.271,-481.76 472.805,-465.637 493.202,-453.692"/>
<polygon fill="midnightblue" stroke="midnightblue" points="495.151,-456.607 502.012,-448.534 491.614,-450.567 495.151,-456.607"/>
</g>
<!-- Node23&#45;&gt;Node17 -->
<g id="edge64" class="edge"><title>Node23&#45;&gt;Node17</title>
<path fill="none" stroke="midnightblue" d="M412.296,-492.25C419.288,-469.441 435.709,-415.879 444.753,-386.379"/>
<polygon fill="midnightblue" stroke="midnightblue" points="448.135,-387.287 447.72,-376.7 441.442,-385.235 448.135,-387.287"/>
</g>
<!-- Node24 -->
<g id="node58" class="node"><title>Node24</title>
<a xlink:href="MojRefCountInternal_8h.htm" target="_top" xlink:title="core/internal/MojRefCount\lInternal.h">
<polygon fill="white" stroke="black" points="588,-421 588,-455 728,-455 728,-421 588,-421"/>
<text text-anchor="start" x="596" y="-442" font-family="Helvetica,sans-Serif" font-size="10.00">core/internal/MojRefCount</text>
<text text-anchor="middle" x="658" y="-429" font-family="Helvetica,sans-Serif" font-size="10.00">Internal.h</text>
</a>
</g>
<!-- Node23&#45;&gt;Node24 -->
<g id="edge68" class="edge"><title>Node23&#45;&gt;Node24</title>
<path fill="none" stroke="midnightblue" d="M449.283,-492.484C485.241,-483.098 538.842,-469.105 582.722,-457.651"/>
<polygon fill="midnightblue" stroke="midnightblue" points="583.707,-461.011 592.499,-455.099 581.939,-454.238 583.707,-461.011"/>
</g>
<!-- Node25 -->
<g id="node60" class="node"><title>Node25</title>
<a xlink:href="MojUtilInternal_8h.htm" target="_top" xlink:title="core/internal/MojUtilInternal.h">
<polygon fill="white" stroke="black" points="747.5,-355.5 747.5,-376.5 902.5,-376.5 902.5,-355.5 747.5,-355.5"/>
<text text-anchor="middle" x="825" y="-363.5" font-family="Helvetica,sans-Serif" font-size="10.00">core/internal/MojUtilInternal.h</text>
</a>
</g>
<!-- Node24&#45;&gt;Node25 -->
<g id="edge70" class="edge"><title>Node24&#45;&gt;Node25</title>
<path fill="none" stroke="midnightblue" d="M697.577,-420.937C725.925,-408.715 763.716,-392.422 790.767,-380.759"/>
<polygon fill="midnightblue" stroke="midnightblue" points="792.412,-383.861 800.21,-376.688 789.641,-377.433 792.412,-383.861"/>
</g>
<!-- Node25&#45;&gt;Node22 -->
<g id="edge72" class="edge"><title>Node25&#45;&gt;Node22</title>
<path fill="none" stroke="midnightblue" d="M854.484,-355.412C885.118,-344.411 933.211,-327.14 966.979,-315.013"/>
<polygon fill="midnightblue" stroke="midnightblue" points="968.3,-318.257 976.529,-311.584 965.935,-311.669 968.3,-318.257"/>
</g>
<!-- Node26&#45;&gt;Node4 -->
<g id="edge76" class="edge"><title>Node26&#45;&gt;Node4</title>
<path fill="none" stroke="midnightblue" d="M861.784,-427.343C876.664,-417.649 897.559,-402.117 911,-384 914.811,-378.864 945.513,-300.712 960.211,-263.028"/>
<polygon fill="midnightblue" stroke="midnightblue" points="963.528,-264.154 963.897,-253.566 957.006,-261.614 963.528,-264.154"/>
</g>
<!-- Node26&#45;&gt;Node25 -->
<g id="edge78" class="edge"><title>Node26&#45;&gt;Node25</title>
<path fill="none" stroke="midnightblue" d="M841.196,-427.376C838.362,-416.635 833.909,-399.761 830.389,-386.422"/>
<polygon fill="midnightblue" stroke="midnightblue" points="833.751,-385.443 827.815,-376.667 826.982,-387.23 833.751,-385.443"/>
</g>
<!-- Node28&#45;&gt;Node4 -->
<g id="edge84" class="edge"><title>Node28&#45;&gt;Node4</title>
<path fill="none" stroke="midnightblue" d="M1177.25,-683.651C1275.03,-668.031 1492.43,-629.386 1553,-586 1616.54,-540.486 1648,-516.163 1648,-438 1648,-438 1648,-438 1648,-366 1648,-295.201 1575.8,-310.386 1508,-290 1420.89,-263.809 1157.42,-250.373 1033.61,-245.363"/>
<polygon fill="midnightblue" stroke="midnightblue" points="1033.63,-241.861 1023.5,-244.96 1033.36,-248.856 1033.63,-241.861"/>
</g>
<!-- Node28&#45;&gt;Node21 -->
<g id="edge120" class="edge"><title>Node28&#45;&gt;Node21</title>
<path fill="none" stroke="midnightblue" d="M1080.67,-686.276C1028.77,-680.238 944.415,-667.617 875,-644 854.677,-637.086 851.987,-629.834 832,-622 776.979,-600.435 760.821,-602.238 704,-586 698.746,-584.499 693.245,-582.916 687.781,-581.338"/>
<polygon fill="midnightblue" stroke="midnightblue" points="688.627,-577.939 678.048,-578.521 686.681,-584.663 688.627,-577.939"/>
</g>
<!-- Node29 -->
<g id="node72" class="node"><title>Node29</title>
<a xlink:href="MojDecimal_8h.htm" target="_top" xlink:title="core/MojDecimal.h">
<polygon fill="white" stroke="black" points="1440,-557.5 1440,-578.5 1544,-578.5 1544,-557.5 1440,-557.5"/>
<text text-anchor="middle" x="1492" y="-565.5" font-family="Helvetica,sans-Serif" font-size="10.00">core/MojDecimal.h</text>
</a>
</g>
<!-- Node28&#45;&gt;Node29 -->
<g id="edge86" class="edge"><title>Node28&#45;&gt;Node29</title>
<path fill="none" stroke="midnightblue" d="M1160.26,-680.407C1225.88,-658.173 1377.93,-606.652 1451.15,-581.842"/>
<polygon fill="midnightblue" stroke="midnightblue" points="1452.59,-585.048 1460.94,-578.524 1450.35,-578.419 1452.59,-585.048"/>
</g>
<!-- Node31 -->
<g id="node79" class="node"><title>Node31</title>
<a xlink:href="MojMap_8h.htm" target="_top" xlink:title="core/MojMap.h">
<polygon fill="white" stroke="black" points="1118.5,-557.5 1118.5,-578.5 1205.5,-578.5 1205.5,-557.5 1118.5,-557.5"/>
<text text-anchor="middle" x="1162" y="-565.5" font-family="Helvetica,sans-Serif" font-size="10.00">core/MojMap.h</text>
</a>
</g>
<!-- Node28&#45;&gt;Node31 -->
<g id="edge96" class="edge"><title>Node28&#45;&gt;Node31</title>
<path fill="none" stroke="midnightblue" d="M1131.93,-680.085C1137.45,-659.518 1149.46,-614.735 1156.52,-588.426"/>
<polygon fill="midnightblue" stroke="midnightblue" points="1159.91,-589.281 1159.13,-578.715 1153.15,-587.467 1159.91,-589.281"/>
</g>
<!-- Node28&#45;&gt;Node33 -->
<g id="edge108" class="edge"><title>Node28&#45;&gt;Node33</title>
<path fill="none" stroke="midnightblue" d="M1093.14,-680.497C1060.45,-670.918 1011.97,-656.72 976.546,-646.342"/>
<polygon fill="midnightblue" stroke="midnightblue" points="977.504,-642.975 966.924,-643.523 975.536,-649.693 977.504,-642.975"/>
</g>
<!-- Node29&#45;&gt;Node4 -->
<g id="edge88" class="edge"><title>Node29&#45;&gt;Node4</title>
<path fill="none" stroke="midnightblue" d="M1503.58,-557.123C1513.7,-546.944 1528,-530.819 1536,-514 1567.77,-447.197 1581.42,-413.991 1548,-348 1528.32,-309.141 1509.71,-305.484 1469,-290 1391.12,-260.383 1151.16,-248.808 1033.89,-244.832"/>
<polygon fill="midnightblue" stroke="midnightblue" points="1033.72,-241.324 1023.61,-244.492 1033.49,-248.32 1033.72,-241.324"/>
</g>
<!-- Node30 -->
<g id="node75" class="node"><title>Node30</title>
<a xlink:href="MojHasher_8h.htm" target="_top" xlink:title="core/MojHasher.h">
<polygon fill="white" stroke="black" points="1405.5,-492.5 1405.5,-513.5 1506.5,-513.5 1506.5,-492.5 1405.5,-492.5"/>
<text text-anchor="middle" x="1456" y="-500.5" font-family="Helvetica,sans-Serif" font-size="10.00">core/MojHasher.h</text>
</a>
</g>
<!-- Node29&#45;&gt;Node30 -->
<g id="edge90" class="edge"><title>Node29&#45;&gt;Node30</title>
<path fill="none" stroke="midnightblue" d="M1486.06,-557.267C1480.81,-547.801 1473.05,-533.777 1466.72,-522.357"/>
<polygon fill="midnightblue" stroke="midnightblue" points="1469.74,-520.586 1461.83,-513.534 1463.62,-523.977 1469.74,-520.586"/>
</g>
<!-- Node30&#45;&gt;Node4 -->
<g id="edge92" class="edge"><title>Node30&#45;&gt;Node4</title>
<path fill="none" stroke="midnightblue" d="M1456.51,-492.449C1457.57,-457.258 1455.78,-343.141 1392,-290 1365.07,-267.559 1146.04,-252.603 1033.8,-246.336"/>
<polygon fill="midnightblue" stroke="midnightblue" points="1033.78,-242.83 1023.61,-245.775 1033.4,-249.82 1033.78,-242.83"/>
</g>
<!-- Node30&#45;&gt;Node26 -->
<g id="edge94" class="edge"><title>Node30&#45;&gt;Node26</title>
<path fill="none" stroke="midnightblue" d="M1405.42,-497.525C1389.02,-495.755 1370.74,-493.788 1354,-492 1185.85,-474.031 986.483,-453.001 894.775,-443.343"/>
<polygon fill="midnightblue" stroke="midnightblue" points="894.972,-439.845 884.66,-442.278 894.239,-446.806 894.972,-439.845"/>
</g>
<!-- Node31&#45;&gt;Node4 -->
<g id="edge98" class="edge"><title>Node31&#45;&gt;Node4</title>
<path fill="none" stroke="midnightblue" d="M1191.13,-557.337C1250.09,-534.855 1378,-481.111 1378,-438 1378,-438 1378,-438 1378,-366 1378,-295.035 1149.8,-261.497 1033.9,-249.039"/>
<polygon fill="midnightblue" stroke="midnightblue" points="1034.03,-245.534 1023.72,-247.968 1033.3,-252.495 1034.03,-245.534"/>
</g>
<!-- Node31&#45;&gt;Node22 -->
<g id="edge100" class="edge"><title>Node31&#45;&gt;Node22</title>
<path fill="none" stroke="midnightblue" d="M1190.25,-557.492C1219.51,-544.787 1259.14,-521.405 1245,-492 1202.11,-402.817 1095.06,-342.279 1039.95,-315.929"/>
<polygon fill="midnightblue" stroke="midnightblue" points="1041.15,-312.627 1030.61,-311.553 1038.19,-318.965 1041.15,-312.627"/>
</g>
<!-- Node32 -->
<g id="node83" class="node"><title>Node32</title>
<a xlink:href="MojRbTreeBase_8h.htm" target="_top" xlink:title="core/internal/MojRbTreeBase.h">
<polygon fill="white" stroke="black" points="1072,-492.5 1072,-513.5 1236,-513.5 1236,-492.5 1072,-492.5"/>
<text text-anchor="middle" x="1154" y="-500.5" font-family="Helvetica,sans-Serif" font-size="10.00">core/internal/MojRbTreeBase.h</text>
</a>
</g>
<!-- Node31&#45;&gt;Node32 -->
<g id="edge102" class="edge"><title>Node31&#45;&gt;Node32</title>
<path fill="none" stroke="midnightblue" d="M1160.68,-557.267C1159.56,-548.18 1157.93,-534.892 1156.55,-523.74"/>
<polygon fill="midnightblue" stroke="midnightblue" points="1159.99,-523.031 1155.3,-513.534 1153.04,-523.886 1159.99,-523.031"/>
</g>
<!-- Node32&#45;&gt;Node4 -->
<g id="edge104" class="edge"><title>Node32&#45;&gt;Node4</title>
<path fill="none" stroke="midnightblue" d="M1152.07,-492.267C1145.49,-458.398 1120.95,-352.341 1062,-290 1048.36,-275.57 1029.32,-264.914 1011.95,-257.432"/>
<polygon fill="midnightblue" stroke="midnightblue" points="1013.09,-254.119 1002.51,-253.598 1010.46,-260.605 1013.09,-254.119"/>
</g>
<!-- Node32&#45;&gt;Node16 -->
<g id="edge106" class="edge"><title>Node32&#45;&gt;Node16</title>
<path fill="none" stroke="midnightblue" d="M1071.77,-495.932C1056.24,-494.613 1040.12,-493.255 1025,-492 826.814,-475.552 774.351,-493.231 579,-456 572.718,-454.803 566.156,-453.184 559.787,-451.407"/>
<polygon fill="midnightblue" stroke="midnightblue" points="560.586,-447.994 550.004,-448.52 558.605,-454.707 560.586,-447.994"/>
</g>
<!-- Node33&#45;&gt;Node4 -->
<g id="edge110" class="edge"><title>Node33&#45;&gt;Node4</title>
<path fill="none" stroke="midnightblue" d="M904.162,-622.479C886.531,-614.526 863.877,-602.205 848,-586 807.288,-544.449 707.587,-396.961 739,-348 774.742,-292.292 848.249,-265.755 902.383,-253.367"/>
<polygon fill="midnightblue" stroke="midnightblue" points="903.228,-256.765 912.253,-251.215 901.736,-249.926 903.228,-256.765"/>
</g>
<!-- Node33&#45;&gt;Node16 -->
<g id="edge112" class="edge"><title>Node33&#45;&gt;Node16</title>
<path fill="none" stroke="midnightblue" d="M883.586,-624.616C835.674,-615.547 765.469,-600.442 742,-586 695.032,-557.097 706.119,-523.712 661,-492 644.681,-480.53 597.932,-463.613 562.702,-451.779"/>
<polygon fill="midnightblue" stroke="midnightblue" points="563.699,-448.422 553.105,-448.584 561.488,-455.064 563.699,-448.422"/>
</g>
<!-- Node33&#45;&gt;Node21 -->
<g id="edge118" class="edge"><title>Node33&#45;&gt;Node21</title>
<path fill="none" stroke="midnightblue" d="M883.804,-624.347C837.719,-615.635 765.714,-601.322 704,-586 698.286,-584.581 692.306,-582.987 686.41,-581.349"/>
<polygon fill="midnightblue" stroke="midnightblue" points="687.205,-577.936 676.629,-578.573 685.294,-584.67 687.205,-577.936"/>
</g>
<!-- Node33&#45;&gt;Node22 -->
<g id="edge114" class="edge"><title>Node33&#45;&gt;Node22</title>
<path fill="none" stroke="midnightblue" d="M916.469,-622.216C886.17,-598.381 821.424,-539.562 851,-492 870.103,-461.28 895.767,-478.617 924,-456 956.07,-430.309 963.032,-420.452 982,-384 992.337,-364.134 998.78,-339.21 1002.35,-321.884"/>
<polygon fill="midnightblue" stroke="midnightblue" points="1005.86,-322.206 1004.3,-311.726 998.982,-320.888 1005.86,-322.206"/>
</g>
<!-- Node33&#45;&gt;Node30 -->
<g id="edge116" class="edge"><title>Node33&#45;&gt;Node30</title>
<path fill="none" stroke="midnightblue" d="M978.131,-627.976C1047.27,-620.134 1172.47,-604.004 1214,-586 1238.14,-575.533 1237.25,-561.328 1261,-550 1284.55,-538.768 1347.34,-524.582 1395.36,-514.749"/>
<polygon fill="midnightblue" stroke="midnightblue" points="1396.26,-518.138 1405.37,-512.719 1394.87,-511.277 1396.26,-518.138"/>
</g>
<!-- Node34&#45;&gt;Node4 -->
<g id="edge124" class="edge"><title>Node34&#45;&gt;Node4</title>
<path fill="none" stroke="midnightblue" d="M1082.38,-557.493C1091.43,-555.026 1101.06,-552.412 1110,-550 1169.95,-533.831 1201.44,-558.251 1245,-514 1269.43,-489.189 1264,-472.817 1264,-438 1264,-438 1264,-438 1264,-366 1264,-315.816 1117.08,-275.292 1030.25,-255.726"/>
<polygon fill="midnightblue" stroke="midnightblue" points="1030.76,-252.252 1020.24,-253.501 1029.24,-259.086 1030.76,-252.252"/>
</g>
<!-- Node34&#45;&gt;Node22 -->
<g id="edge126" class="edge"><title>Node34&#45;&gt;Node22</title>
<path fill="none" stroke="midnightblue" d="M1043.52,-557.363C1041.94,-525.392 1036.03,-427.467 1020,-348 1018.22,-339.179 1015.52,-329.631 1012.97,-321.46"/>
<polygon fill="midnightblue" stroke="midnightblue" points="1016.21,-320.111 1009.79,-311.687 1009.56,-322.28 1016.21,-320.111"/>
</g>
<!-- Node34&#45;&gt;Node32 -->
<g id="edge128" class="edge"><title>Node34&#45;&gt;Node32</title>
<path fill="none" stroke="midnightblue" d="M1062.16,-557.267C1079.94,-546.76 1107.23,-530.637 1127.44,-518.692"/>
<polygon fill="midnightblue" stroke="midnightblue" points="1129.35,-521.634 1136.17,-513.534 1125.78,-515.608 1129.35,-521.634"/>
</g>
<!-- Node35 -->
<g id="node100" class="node"><title>Node35</title>
<a xlink:href="MojSetInternal_8h.htm" target="_top" xlink:title="core/internal/MojSetInternal.h">
<polygon fill="white" stroke="black" points="860,-492.5 860,-513.5 1016,-513.5 1016,-492.5 860,-492.5"/>
<text text-anchor="middle" x="938" y="-500.5" font-family="Helvetica,sans-Serif" font-size="10.00">core/internal/MojSetInternal.h</text>
</a>
</g>
<!-- Node34&#45;&gt;Node35 -->
<g id="edge130" class="edge"><title>Node34&#45;&gt;Node35</title>
<path fill="none" stroke="midnightblue" d="M1026.5,-557.267C1009.44,-546.807 983.306,-530.782 963.854,-518.854"/>
<polygon fill="midnightblue" stroke="midnightblue" points="965.533,-515.778 955.178,-513.534 961.873,-521.745 965.533,-515.778"/>
</g>
<!-- Node36&#45;&gt;Node4 -->
<g id="edge136" class="edge"><title>Node36&#45;&gt;Node4</title>
<path fill="none" stroke="midnightblue" d="M1658.88,-622.095C1666.39,-592.638 1686,-508.903 1686,-438 1686,-438 1686,-438 1686,-366 1686,-330.578 1689.85,-311.893 1662,-290 1637.53,-270.764 1202.3,-252.026 1033.83,-245.461"/>
<polygon fill="midnightblue" stroke="midnightblue" points="1033.74,-241.955 1023.61,-245.065 1033.47,-248.95 1033.74,-241.955"/>
</g>
<!-- Node36&#45;&gt;Node22 -->
<g id="edge138" class="edge"><title>Node36&#45;&gt;Node22</title>
<path fill="none" stroke="midnightblue" d="M1647.95,-622.287C1628.08,-596.489 1573.97,-530.226 1515,-492 1366.07,-395.459 1161.3,-337.691 1063.08,-313.823"/>
<polygon fill="midnightblue" stroke="midnightblue" points="1063.88,-310.417 1053.34,-311.484 1062.25,-317.224 1063.88,-310.417"/>
</g>
<!-- Node37 -->
<g id="node107" class="node"><title>Node37</title>
<a xlink:href="MojHashBase_8h.htm" target="_top" xlink:title="core/internal/MojHashBase.h">
<polygon fill="white" stroke="black" points="1269.5,-557.5 1269.5,-578.5 1422.5,-578.5 1422.5,-557.5 1269.5,-557.5"/>
<text text-anchor="middle" x="1346" y="-565.5" font-family="Helvetica,sans-Serif" font-size="10.00">core/internal/MojHashBase.h</text>
</a>
</g>
<!-- Node36&#45;&gt;Node37 -->
<g id="edge140" class="edge"><title>Node36&#45;&gt;Node37</title>
<path fill="none" stroke="midnightblue" d="M1605.5,-622.493C1559.9,-612.994 1490.94,-598.608 1431,-586 1422.83,-584.282 1414.22,-582.465 1405.74,-580.673"/>
<polygon fill="midnightblue" stroke="midnightblue" points="1406.39,-577.233 1395.89,-578.588 1404.94,-584.082 1406.39,-577.233"/>
</g>
<!-- Node38 -->
<g id="node112" class="node"><title>Node38</title>
<a xlink:href="MojHashMapInternal_8h.htm" target="_top" xlink:title="core/internal/MojHashMap\lInternal.h">
<polygon fill="white" stroke="black" points="1684,-551 1684,-585 1826,-585 1826,-551 1684,-551"/>
<text text-anchor="start" x="1692" y="-572" font-family="Helvetica,sans-Serif" font-size="10.00">core/internal/MojHashMap</text>
<text text-anchor="middle" x="1755" y="-559" font-family="Helvetica,sans-Serif" font-size="10.00">Internal.h</text>
</a>
</g>
<!-- Node36&#45;&gt;Node38 -->
<g id="edge148" class="edge"><title>Node36&#45;&gt;Node38</title>
<path fill="none" stroke="midnightblue" d="M1672.35,-622.267C1685.32,-613.748 1703.92,-601.537 1720.19,-590.854"/>
<polygon fill="midnightblue" stroke="midnightblue" points="1722.5,-593.524 1728.94,-585.11 1718.66,-587.673 1722.5,-593.524"/>
</g>
<!-- Node37&#45;&gt;Node4 -->
<g id="edge142" class="edge"><title>Node37&#45;&gt;Node4</title>
<path fill="none" stroke="midnightblue" d="M1396.96,-557.451C1440.54,-547.432 1498.72,-531.357 1515,-514 1538.82,-488.602 1534,-472.817 1534,-438 1534,-438 1534,-438 1534,-366 1534,-303.619 1474.84,-310.707 1416,-290 1347.13,-265.763 1140.38,-251.878 1033.53,-246.138"/>
<polygon fill="midnightblue" stroke="midnightblue" points="1033.68,-242.641 1023.51,-245.608 1033.31,-249.631 1033.68,-242.641"/>
</g>
<!-- Node37&#45;&gt;Node16 -->
<g id="edge144" class="edge"><title>Node37&#45;&gt;Node16</title>
<path fill="none" stroke="midnightblue" d="M1336.35,-557.476C1319.68,-540.128 1283.55,-506.054 1245,-492 1105.75,-441.241 724.951,-481.814 579,-456 572.633,-454.874 565.988,-453.278 559.549,-451.496"/>
<polygon fill="midnightblue" stroke="midnightblue" points="560.254,-448.055 549.672,-448.584 558.274,-454.769 560.254,-448.055"/>
</g>
<!-- Node37&#45;&gt;Node30 -->
<g id="edge146" class="edge"><title>Node37&#45;&gt;Node30</title>
<path fill="none" stroke="midnightblue" d="M1364.16,-557.267C1381.94,-546.76 1409.23,-530.637 1429.44,-518.692"/>
<polygon fill="midnightblue" stroke="midnightblue" points="1431.35,-521.634 1438.17,-513.534 1427.78,-515.608 1431.35,-521.634"/>
</g>
<!-- Node39&#45;&gt;Node3 -->
<g id="edge158" class="edge"><title>Node39&#45;&gt;Node3</title>
<path fill="none" stroke="midnightblue" d="M794.141,-796.295C777.781,-776.527 742.653,-734.08 722.347,-709.544"/>
<polygon fill="midnightblue" stroke="midnightblue" points="724.91,-707.152 715.838,-701.679 719.517,-711.615 724.91,-707.152"/>
</g>
<!-- Node40&#45;&gt;Node4 -->
<g id="edge162" class="edge"><title>Node40&#45;&gt;Node4</title>
<path fill="none" stroke="midnightblue" d="M1730.63,-738.41C1781.23,-724.02 1854,-692.909 1854,-633 1854,-633 1854,-633 1854,-366 1854,-283.643 1764.92,-309.899 1685,-290 1562.67,-259.542 1186.61,-247.882 1033.69,-244.322"/>
<polygon fill="midnightblue" stroke="midnightblue" points="1033.58,-240.819 1023.51,-244.09 1033.42,-247.817 1033.58,-240.819"/>
</g>
<!-- Node40&#45;&gt;Node28 -->
<g id="edge164" class="edge"><title>Node40&#45;&gt;Node28</title>
<path fill="none" stroke="midnightblue" d="M1618.91,-742.29C1510.3,-730.92 1291.75,-708.038 1187.24,-697.097"/>
<polygon fill="midnightblue" stroke="midnightblue" points="1187.5,-693.605 1177.19,-696.045 1186.77,-700.567 1187.5,-693.605"/>
</g>
<!-- Node41 -->
<g id="node124" class="node"><title>Node41</title>
<polygon fill="white" stroke="#bfbfbf" points="1881.5,-680.5 1881.5,-701.5 1922.5,-701.5 1922.5,-680.5 1881.5,-680.5"/>
<text text-anchor="middle" x="1902" y="-688.5" font-family="Helvetica,sans-Serif" font-size="10.00">stack</text>
</g>
<!-- Node40&#45;&gt;Node41 -->
<g id="edge166" class="edge"><title>Node40&#45;&gt;Node41</title>
<path fill="none" stroke="midnightblue" d="M1727.7,-738.495C1765.3,-729.454 1820.4,-715.731 1868,-702 1869.07,-701.69 1870.16,-701.37 1871.26,-701.042"/>
<polygon fill="midnightblue" stroke="midnightblue" points="1872.69,-704.264 1881.21,-697.96 1870.62,-697.577 1872.69,-704.264"/>
</g>
</g>
</svg>
