<?xml version="1.0" encoding="UTF-8" standalone="no"?>
<!DOCTYPE svg PUBLIC "-//W3C//DTD SVG 1.1//EN"
 "http://www.w3.org/Graphics/SVG/1.1/DTD/svg11.dtd">
<!-- Generated by graphviz version 2.26.3 (20100126.1600)
 -->
<!-- Title: MojDb.cpp Pages: 1 -->
<svg width="2994pt" height="740pt"
 viewBox="0.00 0.00 2994.00 740.00" xmlns="http://www.w3.org/2000/svg" xmlns:xlink="http://www.w3.org/1999/xlink">
<g id="graph1" class="graph" transform="scale(1 1) rotate(0) translate(4 736)">
<title>MojDb.cpp</title>
<polygon fill="white" stroke="white" points="-4,5 -4,-736 2991,-736 2991,5 -4,5"/>
<!-- Node1 -->
<g id="node1" class="node"><title>Node1</title>
<polygon fill="#bfbfbf" stroke="black" points="2407,-710.5 2407,-731.5 2473,-731.5 2473,-710.5 2407,-710.5"/>
<text text-anchor="middle" x="2440" y="-718.5" font-family="Helvetica,sans-Serif" font-size="10.00">MojDb.cpp</text>
</g>
<!-- Node2 -->
<g id="node3" class="node"><title>Node2</title>
<polygon fill="white" stroke="#bfbfbf" points="605.5,-652.5 605.5,-673.5 688.5,-673.5 688.5,-652.5 605.5,-652.5"/>
<text text-anchor="middle" x="647" y="-660.5" font-family="Helvetica,sans-Serif" font-size="10.00">unicode/uloc.h</text>
</g>
<!-- Node1&#45;&gt;Node2 -->
<g id="edge2" class="edge"><title>Node1&#45;&gt;Node2</title>
<path fill="none" stroke="midnightblue" d="M2406.77,-720.483C2184.46,-716.979 915.724,-696.192 698.721,-673.909"/>
<polygon fill="midnightblue" stroke="midnightblue" points="698.968,-670.415 688.64,-672.78 698.188,-677.372 698.968,-670.415"/>
</g>
<!-- Node3 -->
<g id="node5" class="node"><title>Node3</title>
<a xlink:href="MojDb_8h.htm" target="_top" xlink:title="db/MojDb.h">
<polygon fill="white" stroke="black" points="705.5,-652.5 705.5,-673.5 774.5,-673.5 774.5,-652.5 705.5,-652.5"/>
<text text-anchor="middle" x="740" y="-660.5" font-family="Helvetica,sans-Serif" font-size="10.00">db/MojDb.h</text>
</a>
</g>
<!-- Node1&#45;&gt;Node3 -->
<g id="edge4" class="edge"><title>Node1&#45;&gt;Node3</title>
<path fill="none" stroke="midnightblue" d="M2406.87,-720.179C2246.89,-716.166 1538.32,-697.841 958,-674 898.059,-671.537 828.887,-667.914 784.822,-665.507"/>
<polygon fill="midnightblue" stroke="midnightblue" points="784.903,-662.006 774.727,-664.953 784.52,-668.996 784.903,-662.006"/>
</g>
<!-- Node10 -->
<g id="node23" class="node"><title>Node10</title>
<a xlink:href="MojDbQuery_8h.htm" target="_top" xlink:title="db/MojDbQuery.h">
<polygon fill="white" stroke="black" points="1418,-362.5 1418,-383.5 1516,-383.5 1516,-362.5 1418,-362.5"/>
<text text-anchor="middle" x="1467" y="-370.5" font-family="Helvetica,sans-Serif" font-size="10.00">db/MojDbQuery.h</text>
</a>
</g>
<!-- Node1&#45;&gt;Node10 -->
<g id="edge218" class="edge"><title>Node1&#45;&gt;Node10</title>
<path fill="none" stroke="midnightblue" d="M2422.83,-710.262C2351.28,-666.059 2068.53,-496.88 1812,-420 1714.51,-390.784 1596.04,-379.668 1526.34,-375.481"/>
<polygon fill="midnightblue" stroke="midnightblue" points="1526.19,-371.967 1516.01,-374.89 1525.79,-378.955 1526.19,-371.967"/>
</g>
<!-- Node12 -->
<g id="node29" class="node"><title>Node12</title>
<a xlink:href="MojObject_8h.htm" target="_top" xlink:title="core/MojObject.h">
<polygon fill="white" stroke="black" points="2284,-246.5 2284,-267.5 2380,-267.5 2380,-246.5 2284,-246.5"/>
<text text-anchor="middle" x="2332" y="-254.5" font-family="Helvetica,sans-Serif" font-size="10.00">core/MojObject.h</text>
</a>
</g>
<!-- Node1&#45;&gt;Node12 -->
<g id="edge302" class="edge"><title>Node1&#45;&gt;Node12</title>
<path fill="none" stroke="midnightblue" d="M2448.53,-710.268C2464.45,-688.974 2496.53,-639.504 2490,-594 2480.46,-527.526 2445.21,-357.787 2405,-304 2395.1,-290.758 2380.28,-280.235 2366.58,-272.532"/>
<polygon fill="midnightblue" stroke="midnightblue" points="2367.82,-269.229 2357.34,-267.651 2364.55,-275.418 2367.82,-269.229"/>
</g>
<!-- Node35 -->
<g id="node136" class="node"><title>Node35</title>
<a xlink:href="MojDbReq_8h.htm" target="_top" xlink:title="db/MojDbReq.h">
<polygon fill="white" stroke="black" points="1402.5,-536.5 1402.5,-557.5 1491.5,-557.5 1491.5,-536.5 1402.5,-536.5"/>
<text text-anchor="middle" x="1447" y="-544.5" font-family="Helvetica,sans-Serif" font-size="10.00">db/MojDbReq.h</text>
</a>
</g>
<!-- Node1&#45;&gt;Node35 -->
<g id="edge272" class="edge"><title>Node1&#45;&gt;Node35</title>
<path fill="none" stroke="midnightblue" d="M2406.91,-719.475C2328.25,-715.482 2124.06,-702.962 1956,-674 1781.86,-643.989 1579.3,-586.518 1491.43,-560.45"/>
<polygon fill="midnightblue" stroke="midnightblue" points="1492.38,-557.079 1481.79,-557.579 1490.38,-563.788 1492.38,-557.079"/>
</g>
<!-- Node36 -->
<g id="node143" class="node"><title>Node36</title>
<a xlink:href="MojFile_8h.htm" target="_top" xlink:title="core/MojFile.h">
<polygon fill="white" stroke="black" points="2398.5,-594.5 2398.5,-615.5 2481.5,-615.5 2481.5,-594.5 2398.5,-594.5"/>
<text text-anchor="middle" x="2440" y="-602.5" font-family="Helvetica,sans-Serif" font-size="10.00">core/MojFile.h</text>
</a>
</g>
<!-- Node1&#45;&gt;Node36 -->
<g id="edge322" class="edge"><title>Node1&#45;&gt;Node36</title>
<path fill="none" stroke="midnightblue" d="M2440,-710.295C2440,-691.131 2440,-650.654 2440,-625.843"/>
<polygon fill="midnightblue" stroke="midnightblue" points="2443.5,-625.679 2440,-615.679 2436.5,-625.679 2443.5,-625.679"/>
</g>
<!-- Node37 -->
<g id="node147" class="node"><title>Node37</title>
<a xlink:href="MojDbKind_8h.htm" target="_top" xlink:title="db/MojDbKind.h">
<polygon fill="white" stroke="black" points="1965,-652.5 1965,-673.5 2055,-673.5 2055,-652.5 1965,-652.5"/>
<text text-anchor="middle" x="2010" y="-660.5" font-family="Helvetica,sans-Serif" font-size="10.00">db/MojDbKind.h</text>
</a>
</g>
<!-- Node1&#45;&gt;Node37 -->
<g id="edge220" class="edge"><title>Node1&#45;&gt;Node37</title>
<path fill="none" stroke="midnightblue" d="M2406.97,-716.545C2333.5,-706.635 2155.88,-682.677 2065.23,-670.45"/>
<polygon fill="midnightblue" stroke="midnightblue" points="2065.53,-666.958 2055.15,-669.09 2064.59,-673.895 2065.53,-666.958"/>
</g>
<!-- Node42 -->
<g id="node179" class="node"><title>Node42</title>
<a xlink:href="MojDbServiceDefs_8h.htm" target="_top" xlink:title="db/MojDbServiceDefs.h">
<polygon fill="white" stroke="black" points="932,-478.5 932,-499.5 1058,-499.5 1058,-478.5 932,-478.5"/>
<text text-anchor="middle" x="995" y="-486.5" font-family="Helvetica,sans-Serif" font-size="10.00">db/MojDbServiceDefs.h</text>
</a>
</g>
<!-- Node1&#45;&gt;Node42 -->
<g id="edge274" class="edge"><title>Node1&#45;&gt;Node42</title>
<path fill="none" stroke="midnightblue" d="M2406.93,-720.316C2208.8,-715.975 1183.62,-690.039 1067,-616 1028.48,-591.546 1008.54,-538.692 1000.09,-509.466"/>
<polygon fill="midnightblue" stroke="midnightblue" points="1003.39,-508.268 997.395,-499.53 996.63,-510.098 1003.39,-508.268"/>
</g>
<!-- Node43 -->
<g id="node182" class="node"><title>Node43</title>
<a xlink:href="MojDbObjectHeader_8h.htm" target="_top" xlink:title="db/MojDbObjectHeader.h">
<polygon fill="white" stroke="black" points="2480,-420.5 2480,-441.5 2614,-441.5 2614,-420.5 2480,-420.5"/>
<text text-anchor="middle" x="2547" y="-428.5" font-family="Helvetica,sans-Serif" font-size="10.00">db/MojDbObjectHeader.h</text>
</a>
</g>
<!-- Node1&#45;&gt;Node43 -->
<g id="edge278" class="edge"><title>Node1&#45;&gt;Node43</title>
<path fill="none" stroke="midnightblue" d="M2469.7,-710.417C2487.37,-702.758 2509,-690.787 2523,-674 2543.8,-649.065 2547,-637.469 2547,-605 2547,-605 2547,-605 2547,-547 2547,-513.598 2547,-474.785 2547,-451.594"/>
<polygon fill="midnightblue" stroke="midnightblue" points="2550.5,-451.556 2547,-441.556 2543.5,-451.556 2550.5,-451.556"/>
</g>
<!-- Node44 -->
<g id="node186" class="node"><title>Node44</title>
<a xlink:href="MojObjectSerialization_8h.htm" target="_top" xlink:title="core/MojObjectSerialization.h">
<polygon fill="white" stroke="black" points="2556,-362.5 2556,-383.5 2710,-383.5 2710,-362.5 2556,-362.5"/>
<text text-anchor="middle" x="2633" y="-370.5" font-family="Helvetica,sans-Serif" font-size="10.00">core/MojObjectSerialization.h</text>
</a>
</g>
<!-- Node1&#45;&gt;Node44 -->
<g id="edge312" class="edge"><title>Node1&#45;&gt;Node44</title>
<path fill="none" stroke="midnightblue" d="M2473.12,-712.414C2538.96,-694.368 2680,-650.411 2680,-605 2680,-605 2680,-605 2680,-489 2680,-452.685 2659.97,-414.347 2646.06,-392.105"/>
<polygon fill="midnightblue" stroke="midnightblue" points="2648.93,-390.096 2640.55,-383.611 2643.06,-393.905 2648.93,-390.096"/>
</g>
<!-- Node46 -->
<g id="node194" class="node"><title>Node46</title>
<a xlink:href="MojJson_8h.htm" target="_top" xlink:title="core/MojJson.h">
<polygon fill="white" stroke="black" points="2707.5,-304.5 2707.5,-325.5 2796.5,-325.5 2796.5,-304.5 2707.5,-304.5"/>
<text text-anchor="middle" x="2752" y="-312.5" font-family="Helvetica,sans-Serif" font-size="10.00">core/MojJson.h</text>
</a>
</g>
<!-- Node1&#45;&gt;Node46 -->
<g id="edge296" class="edge"><title>Node1&#45;&gt;Node46</title>
<path fill="none" stroke="midnightblue" d="M2473.14,-716.77C2557.9,-705.03 2776,-668.64 2776,-605 2776,-605 2776,-605 2776,-431 2776,-396.913 2765.94,-358.338 2758.85,-335.376"/>
<polygon fill="midnightblue" stroke="midnightblue" points="2762.14,-334.175 2755.75,-325.721 2755.47,-336.313 2762.14,-334.175"/>
</g>
<!-- Node47 -->
<g id="node199" class="node"><title>Node47</title>
<a xlink:href="MojObjectBuilder_8h.htm" target="_top" xlink:title="core/MojObjectBuilder.h">
<polygon fill="white" stroke="black" points="2814,-304.5 2814,-325.5 2942,-325.5 2942,-304.5 2814,-304.5"/>
<text text-anchor="middle" x="2878" y="-312.5" font-family="Helvetica,sans-Serif" font-size="10.00">core/MojObjectBuilder.h</text>
</a>
</g>
<!-- Node1&#45;&gt;Node47 -->
<g id="edge304" class="edge"><title>Node1&#45;&gt;Node47</title>
<path fill="none" stroke="midnightblue" d="M2473.22,-718.676C2570.19,-710.992 2846,-682.339 2846,-605 2846,-605 2846,-605 2846,-431 2846,-396.216 2859.54,-357.61 2869,-334.867"/>
<polygon fill="midnightblue" stroke="midnightblue" points="2872.25,-336.172 2873,-325.604 2865.82,-333.398 2872.25,-336.172"/>
</g>
<!-- Node49 -->
<g id="node206" class="node"><title>Node49</title>
<a xlink:href="MojTime_8h.htm" target="_top" xlink:title="core/MojTime.h">
<polygon fill="white" stroke="black" points="2821.5,-116.5 2821.5,-137.5 2910.5,-137.5 2910.5,-116.5 2821.5,-116.5"/>
<text text-anchor="middle" x="2866" y="-124.5" font-family="Helvetica,sans-Serif" font-size="10.00">core/MojTime.h</text>
</a>
</g>
<!-- Node1&#45;&gt;Node49 -->
<g id="edge314" class="edge"><title>Node1&#45;&gt;Node49</title>
<path fill="none" stroke="midnightblue" d="M2473.31,-719.301C2536.8,-715.471 2679.15,-704.026 2795,-674 2875.93,-653.024 2970,-688.605 2970,-605 2970,-605 2970,-605 2970,-257 2970,-207.018 2922.54,-165.242 2891.75,-143.393"/>
<polygon fill="midnightblue" stroke="midnightblue" points="2893.4,-140.284 2883.17,-137.517 2889.44,-146.058 2893.4,-140.284"/>
</g>
<!-- Node4 -->
<g id="node7" class="node"><title>Node4</title>
<a xlink:href="MojDbDefs_8h.htm" target="_top" xlink:title="db/MojDbDefs.h">
<polygon fill="white" stroke="black" points="964.5,-246.5 964.5,-267.5 1055.5,-267.5 1055.5,-246.5 964.5,-246.5"/>
<text text-anchor="middle" x="1010" y="-254.5" font-family="Helvetica,sans-Serif" font-size="10.00">db/MojDbDefs.h</text>
</a>
</g>
<!-- Node3&#45;&gt;Node4 -->
<g id="edge6" class="edge"><title>Node3&#45;&gt;Node4</title>
<path fill="none" stroke="midnightblue" d="M705.361,-653.681C702.543,-653.063 699.73,-652.492 697,-652 580.337,-630.979 174,-665.541 174,-547 174,-547 174,-547 174,-489 174,-445.761 311.908,-322.144 353,-304 407.272,-280.036 805.277,-264.04 954.076,-258.84"/>
<polygon fill="midnightblue" stroke="midnightblue" points="954.478,-262.328 964.351,-258.484 954.236,-255.333 954.478,-262.328"/>
</g>
<!-- Node6 -->
<g id="node11" class="node"><title>Node6</title>
<a xlink:href="MojDbCursor_8h.htm" target="_top" xlink:title="db/MojDbCursor.h">
<polygon fill="white" stroke="black" points="593.5,-594.5 593.5,-615.5 694.5,-615.5 694.5,-594.5 593.5,-594.5"/>
<text text-anchor="middle" x="644" y="-602.5" font-family="Helvetica,sans-Serif" font-size="10.00">db/MojDbCursor.h</text>
</a>
</g>
<!-- Node3&#45;&gt;Node6 -->
<g id="edge10" class="edge"><title>Node3&#45;&gt;Node6</title>
<path fill="none" stroke="midnightblue" d="M722.392,-652.362C707.777,-643.532 686.776,-630.844 670.189,-620.822"/>
<polygon fill="midnightblue" stroke="midnightblue" points="671.865,-617.746 661.496,-615.571 668.246,-623.738 671.865,-617.746"/>
</g>
<!-- Node7 -->
<g id="node14" class="node"><title>Node7</title>
<a xlink:href="MojDbStorageEngine_8h.htm" target="_top" xlink:title="db/MojDbStorageEngine.h">
<polygon fill="white" stroke="black" points="458,-536.5 458,-557.5 598,-557.5 598,-536.5 458,-536.5"/>
<text text-anchor="middle" x="528" y="-544.5" font-family="Helvetica,sans-Serif" font-size="10.00">db/MojDbStorageEngine.h</text>
</a>
</g>
<!-- Node3&#45;&gt;Node7 -->
<g id="edge198" class="edge"><title>Node3&#45;&gt;Node7</title>
<path fill="none" stroke="midnightblue" d="M705.246,-653.608C662.739,-641.945 595.153,-622.759 585,-616 565.721,-603.164 549.568,-581.882 539.437,-566.342"/>
<polygon fill="midnightblue" stroke="midnightblue" points="542.2,-564.16 533.933,-557.535 536.264,-567.87 542.2,-564.16"/>
</g>
<!-- Node8 -->
<g id="node17" class="node"><title>Node8</title>
<a xlink:href="MojDbWatcher_8h.htm" target="_top" xlink:title="db/MojDbWatcher.h">
<polygon fill="white" stroke="black" points="767.5,-478.5 767.5,-499.5 876.5,-499.5 876.5,-478.5 767.5,-478.5"/>
<text text-anchor="middle" x="822" y="-486.5" font-family="Helvetica,sans-Serif" font-size="10.00">db/MojDbWatcher.h</text>
</a>
</g>
<!-- Node3&#45;&gt;Node8 -->
<g id="edge200" class="edge"><title>Node3&#45;&gt;Node8</title>
<path fill="none" stroke="midnightblue" d="M745.006,-652.377C758.355,-624.051 794.974,-546.349 812.46,-509.242"/>
<polygon fill="midnightblue" stroke="midnightblue" points="815.753,-510.466 816.85,-499.928 809.421,-507.481 815.753,-510.466"/>
</g>
<!-- Node16 -->
<g id="node41" class="node"><title>Node16</title>
<a xlink:href="MojString_8h.htm" target="_top" xlink:title="core/MojString.h">
<polygon fill="white" stroke="red" points="1713,-181.5 1713,-202.5 1807,-202.5 1807,-181.5 1713,-181.5"/>
<text text-anchor="middle" x="1760" y="-189.5" font-family="Helvetica,sans-Serif" font-size="10.00">core/MojString.h</text>
</a>
</g>
<!-- Node3&#45;&gt;Node16 -->
<g id="edge212" class="edge"><title>Node3&#45;&gt;Node16</title>
<path fill="none" stroke="midnightblue" d="M773.596,-652.454C849.821,-628.834 1041.99,-571.015 1206,-536 1307.62,-514.306 1343.35,-545.012 1437,-500 1584.19,-429.254 1707.96,-266.226 1747.1,-210.823"/>
<polygon fill="midnightblue" stroke="midnightblue" points="1749.98,-212.808 1752.84,-202.606 1744.24,-208.8 1749.98,-212.808"/>
</g>
<!-- Node22 -->
<g id="node63" class="node"><title>Node22</title>
<a xlink:href="MojHashMap_8h.htm" target="_top" xlink:title="core/MojHashMap.h">
<polygon fill="white" stroke="black" points="1282,-246.5 1282,-267.5 1394,-267.5 1394,-246.5 1282,-246.5"/>
<text text-anchor="middle" x="1338" y="-254.5" font-family="Helvetica,sans-Serif" font-size="10.00">core/MojHashMap.h</text>
</a>
</g>
<!-- Node3&#45;&gt;Node22 -->
<g id="edge208" class="edge"><title>Node3&#45;&gt;Node22</title>
<path fill="none" stroke="midnightblue" d="M705.382,-653.555C702.559,-652.965 699.74,-652.435 697,-652 451.118,-612.981 378.335,-680.96 138,-616 71.8027,-598.108 0,-615.573 0,-547 0,-547 0,-547 0,-431 0,-378.816 46.0749,-380.152 95,-362 277.295,-294.365 337.825,-348.119 531,-326 597.942,-318.335 614.016,-311.298 681,-304 896.4,-280.532 1152.86,-266.056 1271.6,-260.118"/>
<polygon fill="midnightblue" stroke="midnightblue" points="1271.81,-263.611 1281.63,-259.62 1271.47,-256.62 1271.81,-263.611"/>
</g>
<!-- Node25 -->
<g id="node77" class="node"><title>Node25</title>
<a xlink:href="MojSignal_8h.htm" target="_top" xlink:title="core/MojSignal.h">
<polygon fill="white" stroke="red" points="361.5,-362.5 361.5,-383.5 456.5,-383.5 456.5,-362.5 361.5,-362.5"/>
<text text-anchor="middle" x="409" y="-370.5" font-family="Helvetica,sans-Serif" font-size="10.00">core/MojSignal.h</text>
</a>
</g>
<!-- Node3&#45;&gt;Node25 -->
<g id="edge210" class="edge"><title>Node3&#45;&gt;Node25</title>
<path fill="none" stroke="midnightblue" d="M705.328,-654.118C653.517,-640.835 561.541,-617.213 558,-616 484.735,-590.91 398,-624.442 398,-547 398,-547 398,-547 398,-489 398,-455.448 402.617,-416.68 405.869,-393.538"/>
<polygon fill="midnightblue" stroke="midnightblue" points="409.35,-393.925 407.329,-383.524 402.423,-392.915 409.35,-393.925"/>
</g>
<!-- Node27 -->
<g id="node85" class="node"><title>Node27</title>
<a xlink:href="MojDbQuotaEngine_8h.htm" target="_top" xlink:title="db/MojDbQuotaEngine.h">
<polygon fill="white" stroke="black" points="239.5,-420.5 239.5,-441.5 370.5,-441.5 370.5,-420.5 239.5,-420.5"/>
<text text-anchor="middle" x="305" y="-428.5" font-family="Helvetica,sans-Serif" font-size="10.00">db/MojDbQuotaEngine.h</text>
</a>
</g>
<!-- Node3&#45;&gt;Node27 -->
<g id="edge196" class="edge"><title>Node3&#45;&gt;Node27</title>
<path fill="none" stroke="midnightblue" d="M705.356,-653.707C702.539,-653.083 699.728,-652.503 697,-652 628.148,-639.295 440.122,-657.86 384,-616 329.868,-575.624 312.44,-490.693 307.152,-451.552"/>
<polygon fill="midnightblue" stroke="midnightblue" points="310.622,-451.097 305.939,-441.594 303.674,-451.943 310.622,-451.097"/>
</g>
<!-- Node31 -->
<g id="node109" class="node"><title>Node31</title>
<a xlink:href="MojDbIdGenerator_8h.htm" target="_top" xlink:title="db/MojDbIdGenerator.h">
<polygon fill="white" stroke="black" points="103.5,-362.5 103.5,-383.5 230.5,-383.5 230.5,-362.5 103.5,-362.5"/>
<text text-anchor="middle" x="167" y="-370.5" font-family="Helvetica,sans-Serif" font-size="10.00">db/MojDbIdGenerator.h</text>
</a>
</g>
<!-- Node3&#45;&gt;Node31 -->
<g id="edge156" class="edge"><title>Node3&#45;&gt;Node31</title>
<path fill="none" stroke="midnightblue" d="M705.381,-653.563C702.558,-652.971 699.739,-652.438 697,-652 637.951,-642.55 207.552,-652.262 160,-616 134.182,-596.312 136,-579.469 136,-547 136,-547 136,-547 136,-489 136,-454.292 149.113,-415.663 158.282,-392.894"/>
<polygon fill="midnightblue" stroke="midnightblue" points="161.531,-394.197 162.156,-383.621 155.072,-391.499 161.531,-394.197"/>
</g>
<!-- Node32 -->
<g id="node113" class="node"><title>Node32</title>
<a xlink:href="MojDbKindEngine_8h.htm" target="_top" xlink:title="db/MojDbKindEngine.h">
<polygon fill="white" stroke="black" points="1214.5,-536.5 1214.5,-557.5 1337.5,-557.5 1337.5,-536.5 1214.5,-536.5"/>
<text text-anchor="middle" x="1276" y="-544.5" font-family="Helvetica,sans-Serif" font-size="10.00">db/MojDbKindEngine.h</text>
</a>
</g>
<!-- Node3&#45;&gt;Node32 -->
<g id="edge162" class="edge"><title>Node3&#45;&gt;Node32</title>
<path fill="none" stroke="midnightblue" d="M774.592,-661.556C864.739,-657.434 1105,-644.063 1179,-616 1209.5,-604.434 1239.26,-580.903 1257.6,-564.556"/>
<polygon fill="midnightblue" stroke="midnightblue" points="1260.17,-566.951 1265.19,-557.62 1255.44,-561.786 1260.17,-566.951"/>
</g>
<!-- Node34 -->
<g id="node125" class="node"><title>Node34</title>
<a xlink:href="MojDbPermissionEngine_8h.htm" target="_top" xlink:title="db/MojDbPermissionEngine.h">
<polygon fill="white" stroke="black" points="848,-362.5 848,-383.5 1002,-383.5 1002,-362.5 848,-362.5"/>
<text text-anchor="middle" x="925" y="-370.5" font-family="Helvetica,sans-Serif" font-size="10.00">db/MojDbPermissionEngine.h</text>
</a>
</g>
<!-- Node3&#45;&gt;Node34 -->
<g id="edge182" class="edge"><title>Node3&#45;&gt;Node34</title>
<path fill="none" stroke="midnightblue" d="M737.984,-652.314C732.892,-622.119 722.385,-534.682 759,-478 776.29,-451.235 793.934,-458.815 821,-442 849.022,-424.59 880.498,-403.483 901.408,-389.235"/>
<polygon fill="midnightblue" stroke="midnightblue" points="903.402,-392.112 909.682,-383.579 899.451,-386.333 903.402,-392.112"/>
</g>
<!-- Node3&#45;&gt;Node35 -->
<g id="edge202" class="edge"><title>Node3&#45;&gt;Node35</title>
<path fill="none" stroke="midnightblue" d="M774.582,-661.083C869.088,-655.603 1130.15,-638.788 1213,-616 1235.24,-609.883 1238.27,-601.735 1260,-594 1303.71,-578.438 1354.91,-565.949 1392.68,-557.768"/>
<polygon fill="midnightblue" stroke="midnightblue" points="1393.41,-561.189 1402.46,-555.678 1391.95,-554.343 1393.41,-561.189"/>
</g>
<!-- Node3&#45;&gt;Node36 -->
<g id="edge214" class="edge"><title>Node3&#45;&gt;Node36</title>
<path fill="none" stroke="midnightblue" d="M774.728,-661.815C988.944,-654.507 2129.98,-615.577 2388.08,-606.771"/>
<polygon fill="midnightblue" stroke="midnightblue" points="2388.42,-610.262 2398.3,-606.423 2388.18,-603.266 2388.42,-610.262"/>
</g>
<!-- Node5 -->
<g id="node9" class="node"><title>Node5</title>
<a xlink:href="MojCoreDefs_8h.htm" target="_top" xlink:title="core/MojCoreDefs.h">
<polygon fill="white" stroke="red" points="2181.5,-0.5 2181.5,-21.5 2292.5,-21.5 2292.5,-0.5 2181.5,-0.5"/>
<text text-anchor="middle" x="2237" y="-8.5" font-family="Helvetica,sans-Serif" font-size="10.00">core/MojCoreDefs.h</text>
</a>
</g>
<!-- Node4&#45;&gt;Node5 -->
<g id="edge8" class="edge"><title>Node4&#45;&gt;Node5</title>
<path fill="none" stroke="midnightblue" d="M1017.93,-246.284C1037.03,-221.04 1088,-156.889 1142,-116 1186.69,-82.1606 1199.87,-72.5628 1254,-58 1341.97,-34.3339 1965.63,-17.4795 2171.35,-12.5129"/>
<polygon fill="midnightblue" stroke="midnightblue" points="2171.49,-16.0105 2181.4,-12.2715 2171.32,-9.01254 2171.49,-16.0105"/>
</g>
<!-- Node6&#45;&gt;Node4 -->
<g id="edge12" class="edge"><title>Node6&#45;&gt;Node4</title>
<path fill="none" stroke="midnightblue" d="M641.188,-594.212C636.125,-573.815 626,-528.129 626,-489 626,-489 626,-489 626,-373 626,-333.783 646.964,-323.481 681,-304 726.44,-277.991 872.805,-265.238 954.157,-260.017"/>
<polygon fill="midnightblue" stroke="midnightblue" points="954.464,-263.505 964.226,-259.388 954.027,-256.518 954.464,-263.505"/>
</g>
<!-- Node6&#45;&gt;Node7 -->
<g id="edge14" class="edge"><title>Node6&#45;&gt;Node7</title>
<path fill="none" stroke="midnightblue" d="M622.993,-594.497C604.957,-585.479 578.73,-572.365 558.401,-562.201"/>
<polygon fill="midnightblue" stroke="midnightblue" points="559.752,-558.963 549.242,-557.621 556.621,-565.224 559.752,-558.963"/>
</g>
<!-- Node18 -->
<g id="node47" class="node"><title>Node18</title>
<a xlink:href="MojNoCopy_8h.htm" target="_top" xlink:title="core/MojNoCopy.h">
<polygon fill="white" stroke="black" points="1442,-58.5 1442,-79.5 1546,-79.5 1546,-58.5 1442,-58.5"/>
<text text-anchor="middle" x="1494" y="-66.5" font-family="Helvetica,sans-Serif" font-size="10.00">core/MojNoCopy.h</text>
</a>
</g>
<!-- Node6&#45;&gt;Node18 -->
<g id="edge154" class="edge"><title>Node6&#45;&gt;Node18</title>
<path fill="none" stroke="midnightblue" d="M593.21,-595.832C423.394,-563.538 -103.548,-449.146 85,-304 301.373,-137.434 1188.09,-83.541 1431.78,-71.7282"/>
<polygon fill="midnightblue" stroke="midnightblue" points="1432.05,-75.219 1441.87,-71.245 1431.72,-68.227 1432.05,-75.219"/>
</g>
<!-- Node29 -->
<g id="node99" class="node"><title>Node29</title>
<a xlink:href="MojDbQueryFilter_8h.htm" target="_top" xlink:title="db/MojDbQueryFilter.h">
<polygon fill="white" stroke="black" points="691.5,-420.5 691.5,-441.5 812.5,-441.5 812.5,-420.5 691.5,-420.5"/>
<text text-anchor="middle" x="752" y="-428.5" font-family="Helvetica,sans-Serif" font-size="10.00">db/MojDbQueryFilter.h</text>
</a>
</g>
<!-- Node6&#45;&gt;Node29 -->
<g id="edge140" class="edge"><title>Node6&#45;&gt;Node29</title>
<path fill="none" stroke="midnightblue" d="M650.593,-594.377C668.25,-565.93 716.817,-487.684 739.73,-450.769"/>
<polygon fill="midnightblue" stroke="midnightblue" points="742.917,-452.27 745.217,-441.928 736.97,-448.578 742.917,-452.27"/>
</g>
<!-- Node30 -->
<g id="node103" class="node"><title>Node30</title>
<a xlink:href="MojObjectFilter_8h.htm" target="_top" xlink:title="core/MojObjectFilter.h">
<polygon fill="white" stroke="black" points="1787.5,-304.5 1787.5,-325.5 1906.5,-325.5 1906.5,-304.5 1787.5,-304.5"/>
<text text-anchor="middle" x="1847" y="-312.5" font-family="Helvetica,sans-Serif" font-size="10.00">core/MojObjectFilter.h</text>
</a>
</g>
<!-- Node6&#45;&gt;Node30 -->
<g id="edge146" class="edge"><title>Node6&#45;&gt;Node30</title>
<path fill="none" stroke="midnightblue" d="M694.758,-603.24C854.051,-597.553 1342.77,-578.832 1500,-558 1623.4,-541.651 1678.94,-580.359 1774,-500 1824.64,-457.193 1840.38,-374.502 1845.09,-335.856"/>
<polygon fill="midnightblue" stroke="midnightblue" points="1848.58,-336.099 1846.18,-325.779 1841.62,-335.343 1848.58,-336.099"/>
</g>
<!-- Node7&#45;&gt;Node4 -->
<g id="edge16" class="edge"><title>Node7&#45;&gt;Node4</title>
<path fill="none" stroke="midnightblue" d="M527.997,-536.296C528.618,-497.717 536.373,-364.877 612,-304 638.134,-282.963 850.811,-266.946 954.105,-260.326"/>
<polygon fill="midnightblue" stroke="midnightblue" points="954.589,-263.803 964.348,-259.678 954.147,-256.817 954.589,-263.803"/>
</g>
<!-- Node7&#45;&gt;Node8 -->
<g id="edge18" class="edge"><title>Node7&#45;&gt;Node8</title>
<path fill="none" stroke="midnightblue" d="M581.241,-536.497C631.142,-526.652 705.783,-511.927 758.709,-501.486"/>
<polygon fill="midnightblue" stroke="midnightblue" points="759.526,-504.892 768.659,-499.523 758.171,-498.025 759.526,-504.892"/>
</g>
<!-- Node7&#45;&gt;Node12 -->
<g id="edge134" class="edge"><title>Node7&#45;&gt;Node12</title>
<path fill="none" stroke="midnightblue" d="M558.861,-536.37C598.986,-520.354 664,-485.929 664,-431 664,-431 664,-431 664,-373 664,-333.223 685.266,-321.472 721,-304 723.226,-302.912 1984.83,-266.894 2273.6,-258.663"/>
<polygon fill="midnightblue" stroke="midnightblue" points="2273.96,-262.155 2283.86,-258.371 2273.76,-255.158 2273.96,-262.155"/>
</g>
<!-- Node17 -->
<g id="node44" class="node"><title>Node17</title>
<a xlink:href="MojAutoPtr_8h.htm" target="_top" xlink:title="core/MojAutoPtr.h">
<polygon fill="white" stroke="red" points="1363.5,-116.5 1363.5,-137.5 1464.5,-137.5 1464.5,-116.5 1363.5,-116.5"/>
<text text-anchor="middle" x="1414" y="-124.5" font-family="Helvetica,sans-Serif" font-size="10.00">core/MojAutoPtr.h</text>
</a>
</g>
<!-- Node7&#45;&gt;Node17 -->
<g id="edge132" class="edge"><title>Node7&#45;&gt;Node17</title>
<path fill="none" stroke="midnightblue" d="M519.747,-536.374C512.998,-527.205 503.673,-513.366 498,-500 473.36,-441.95 507.545,-408.549 465,-362 431.15,-324.964 387.281,-366.745 358,-326 312.831,-263.146 370.994,-202.391 443,-174 527.307,-140.758 1153.64,-130.212 1353.15,-127.678"/>
<polygon fill="midnightblue" stroke="midnightblue" points="1353.49,-131.174 1363.44,-127.549 1353.4,-124.174 1353.49,-131.174"/>
</g>
<!-- Node19 -->
<g id="node50" class="node"><title>Node19</title>
<a xlink:href="MojVector_8h.htm" target="_top" xlink:title="core/MojVector.h">
<polygon fill="white" stroke="red" points="1908.5,-116.5 1908.5,-137.5 2005.5,-137.5 2005.5,-116.5 1908.5,-116.5"/>
<text text-anchor="middle" x="1957" y="-124.5" font-family="Helvetica,sans-Serif" font-size="10.00">core/MojVector.h</text>
</a>
</g>
<!-- Node7&#45;&gt;Node19 -->
<g id="edge136" class="edge"><title>Node7&#45;&gt;Node19</title>
<path fill="none" stroke="midnightblue" d="M526.966,-536.339C523.346,-501.04 510.187,-388.702 487,-362 454.316,-324.361 359.008,-342.229 391,-304 489.817,-185.917 1625.68,-138.642 1898.4,-128.952"/>
<polygon fill="midnightblue" stroke="midnightblue" points="1898.62,-132.447 1908.49,-128.597 1898.37,-125.451 1898.62,-132.447"/>
</g>
<!-- Node7&#45;&gt;Node25 -->
<g id="edge138" class="edge"><title>Node7&#45;&gt;Node25</title>
<path fill="none" stroke="midnightblue" d="M506.491,-536.465C491.7,-528.283 472.538,-515.699 460,-500 434.066,-467.529 419.763,-420.146 413.304,-393.384"/>
<polygon fill="midnightblue" stroke="midnightblue" points="416.706,-392.562 411.071,-383.59 409.881,-394.118 416.706,-392.562"/>
</g>
<!-- Node7&#45;&gt;Node27 -->
<g id="edge116" class="edge"><title>Node7&#45;&gt;Node27</title>
<path fill="none" stroke="midnightblue" d="M501.905,-536.422C480.205,-527.391 448.673,-513.72 422,-500 389.603,-483.335 353.697,-461.655 330.317,-447.082"/>
<polygon fill="midnightblue" stroke="midnightblue" points="332.037,-444.03 321.706,-441.683 328.319,-449.96 332.037,-444.03"/>
</g>
<!-- Node8&#45;&gt;Node4 -->
<g id="edge20" class="edge"><title>Node8&#45;&gt;Node4</title>
<path fill="none" stroke="midnightblue" d="M866.004,-478.498C911.415,-465.054 979.877,-436.894 1011,-384 1030.46,-350.929 1023,-304.133 1016.23,-277.555"/>
<polygon fill="midnightblue" stroke="midnightblue" points="1019.57,-276.518 1013.54,-267.809 1012.82,-278.379 1019.57,-276.518"/>
</g>
<!-- Node9 -->
<g id="node20" class="node"><title>Node9</title>
<a xlink:href="MojDbQueryPlan_8h.htm" target="_top" xlink:title="db/MojDbQueryPlan.h">
<polygon fill="white" stroke="black" points="1314.5,-420.5 1314.5,-441.5 1433.5,-441.5 1433.5,-420.5 1314.5,-420.5"/>
<text text-anchor="middle" x="1374" y="-428.5" font-family="Helvetica,sans-Serif" font-size="10.00">db/MojDbQueryPlan.h</text>
</a>
</g>
<!-- Node8&#45;&gt;Node9 -->
<g id="edge22" class="edge"><title>Node8&#45;&gt;Node9</title>
<path fill="none" stroke="midnightblue" d="M876.509,-483.017C891.569,-481.376 907.916,-479.607 923,-478 1057.78,-463.637 1215.28,-447.333 1303.96,-438.197"/>
<polygon fill="midnightblue" stroke="midnightblue" points="1304.58,-441.652 1314.17,-437.146 1303.86,-434.689 1304.58,-441.652"/>
</g>
<!-- Node8&#45;&gt;Node25 -->
<g id="edge104" class="edge"><title>Node8&#45;&gt;Node25</title>
<path fill="none" stroke="midnightblue" d="M784.254,-478.398C708.671,-457.169 538.916,-409.49 456.158,-386.245"/>
<polygon fill="midnightblue" stroke="midnightblue" points="457.083,-382.87 446.509,-383.535 455.19,-389.609 457.083,-382.87"/>
</g>
<!-- Node26 -->
<g id="node80" class="node"><title>Node26</title>
<a xlink:href="MojThread_8h.htm" target="_top" xlink:title="core/MojThread.h">
<polygon fill="white" stroke="red" points="729.5,-304.5 729.5,-325.5 830.5,-325.5 830.5,-304.5 729.5,-304.5"/>
<text text-anchor="middle" x="780" y="-312.5" font-family="Helvetica,sans-Serif" font-size="10.00">core/MojThread.h</text>
</a>
</g>
<!-- Node8&#45;&gt;Node26 -->
<g id="edge114" class="edge"><title>Node8&#45;&gt;Node26</title>
<path fill="none" stroke="midnightblue" d="M824.699,-478.435C827.725,-464.214 831.004,-438.561 821,-420 807.49,-394.933 781.328,-409.164 768,-384 760.032,-368.955 764.37,-349.727 769.936,-335.392"/>
<polygon fill="midnightblue" stroke="midnightblue" points="773.264,-336.514 774.047,-325.948 766.846,-333.72 773.264,-336.514"/>
</g>
<!-- Node9&#45;&gt;Node4 -->
<g id="edge24" class="edge"><title>Node9&#45;&gt;Node4</title>
<path fill="none" stroke="midnightblue" d="M1364.3,-420.497C1340.97,-395.923 1278.84,-334.459 1214,-304 1166.59,-281.73 1107.91,-269.639 1065.67,-263.324"/>
<polygon fill="midnightblue" stroke="midnightblue" points="1065.97,-259.831 1055.57,-261.877 1064.98,-266.76 1065.97,-259.831"/>
</g>
<!-- Node9&#45;&gt;Node10 -->
<g id="edge26" class="edge"><title>Node9&#45;&gt;Node10</title>
<path fill="none" stroke="midnightblue" d="M1391.06,-420.362C1405.08,-411.614 1425.18,-399.079 1441.18,-389.101"/>
<polygon fill="midnightblue" stroke="midnightblue" points="1443.42,-391.832 1450.05,-383.571 1439.71,-385.893 1443.42,-391.832"/>
</g>
<!-- Node11 -->
<g id="node26" class="node"><title>Node11</title>
<a xlink:href="MojDbKey_8h.htm" target="_top" xlink:title="db/MojDbKey.h">
<polygon fill="white" stroke="red" points="1531.5,-304.5 1531.5,-325.5 1618.5,-325.5 1618.5,-304.5 1531.5,-304.5"/>
<text text-anchor="middle" x="1575" y="-312.5" font-family="Helvetica,sans-Serif" font-size="10.00">db/MojDbKey.h</text>
</a>
</g>
<!-- Node9&#45;&gt;Node11 -->
<g id="edge102" class="edge"><title>Node9&#45;&gt;Node11</title>
<path fill="none" stroke="midnightblue" d="M1433.54,-421.655C1463.1,-414.841 1498.13,-403.297 1525,-384 1542.74,-371.259 1556.65,-350.261 1565.25,-334.769"/>
<polygon fill="midnightblue" stroke="midnightblue" points="1568.55,-336.005 1570.12,-325.527 1562.36,-332.744 1568.55,-336.005"/>
</g>
<!-- Node10&#45;&gt;Node4 -->
<g id="edge28" class="edge"><title>Node10&#45;&gt;Node4</title>
<path fill="none" stroke="midnightblue" d="M1444.32,-362.413C1411.13,-347.327 1347.07,-319.734 1290,-304 1213.73,-282.973 1123.03,-269.837 1065.97,-262.963"/>
<polygon fill="midnightblue" stroke="midnightblue" points="1066.07,-259.449 1055.72,-261.752 1065.24,-266.401 1066.07,-259.449"/>
</g>
<!-- Node10&#45;&gt;Node11 -->
<g id="edge30" class="edge"><title>Node10&#45;&gt;Node11</title>
<path fill="none" stroke="midnightblue" d="M1486.56,-362.497C1503.2,-353.56 1527.33,-340.602 1546.18,-330.477"/>
<polygon fill="midnightblue" stroke="midnightblue" points="1548.07,-333.436 1555.22,-325.621 1544.76,-327.269 1548.07,-333.436"/>
</g>
<!-- Node10&#45;&gt;Node12 -->
<g id="edge96" class="edge"><title>Node10&#45;&gt;Node12</title>
<path fill="none" stroke="midnightblue" d="M1516.08,-372.708C1657.32,-371.412 2062.73,-364.357 2189,-326 2207.67,-320.328 2209.63,-312.887 2227,-304 2249.87,-292.301 2276.27,-280.492 2296.87,-271.638"/>
<polygon fill="midnightblue" stroke="midnightblue" points="2298.36,-274.808 2306.19,-267.666 2295.62,-268.368 2298.36,-274.808"/>
</g>
<!-- Node10&#45;&gt;Node16 -->
<g id="edge100" class="edge"><title>Node10&#45;&gt;Node16</title>
<path fill="none" stroke="midnightblue" d="M1473.85,-362.054C1483.43,-347.403 1502.04,-321.263 1523,-304 1581.62,-255.717 1664.52,-222.791 1715.14,-205.716"/>
<polygon fill="midnightblue" stroke="midnightblue" points="1716.42,-208.978 1724.82,-202.513 1714.22,-202.333 1716.42,-208.978"/>
</g>
<!-- Node21 -->
<g id="node58" class="node"><title>Node21</title>
<a xlink:href="MojSet_8h.htm" target="_top" xlink:title="core/MojSet.h">
<polygon fill="white" stroke="red" points="1852,-246.5 1852,-267.5 1934,-267.5 1934,-246.5 1852,-246.5"/>
<text text-anchor="middle" x="1893" y="-254.5" font-family="Helvetica,sans-Serif" font-size="10.00">core/MojSet.h</text>
</a>
</g>
<!-- Node10&#45;&gt;Node21 -->
<g id="edge98" class="edge"><title>Node10&#45;&gt;Node21</title>
<path fill="none" stroke="midnightblue" d="M1505.93,-362.398C1583.98,-341.147 1759.35,-293.393 1844.62,-270.174"/>
<polygon fill="midnightblue" stroke="midnightblue" points="1845.58,-273.54 1854.31,-267.535 1843.74,-266.786 1845.58,-273.54"/>
</g>
<!-- Node10&#45;&gt;Node22 -->
<g id="edge82" class="edge"><title>Node10&#45;&gt;Node22</title>
<path fill="none" stroke="midnightblue" d="M1458.25,-362.057C1446.64,-347.864 1425.13,-322.713 1404,-304 1391.46,-292.893 1376.3,-281.948 1363.68,-273.419"/>
<polygon fill="midnightblue" stroke="midnightblue" points="1365.28,-270.278 1355.01,-267.667 1361.41,-276.112 1365.28,-270.278"/>
</g>
<!-- Node11&#45;&gt;Node4 -->
<g id="edge32" class="edge"><title>Node11&#45;&gt;Node4</title>
<path fill="none" stroke="midnightblue" d="M1531.14,-310.497C1429.56,-300.07 1178.31,-274.278 1065.91,-262.74"/>
<polygon fill="midnightblue" stroke="midnightblue" points="1066.1,-259.241 1055.8,-261.701 1065.39,-266.204 1066.1,-259.241"/>
</g>
<!-- Node11&#45;&gt;Node12 -->
<g id="edge34" class="edge"><title>Node11&#45;&gt;Node12</title>
<path fill="none" stroke="midnightblue" d="M1618.69,-311.652C1747.84,-301.758 2127.83,-272.643 2273.89,-261.452"/>
<polygon fill="midnightblue" stroke="midnightblue" points="2274.29,-264.932 2283.99,-260.678 2273.76,-257.952 2274.29,-264.932"/>
</g>
<!-- Node11&#45;&gt;Node19 -->
<g id="edge80" class="edge"><title>Node11&#45;&gt;Node19</title>
<path fill="none" stroke="midnightblue" d="M1581.15,-304.214C1597.3,-277.039 1643.81,-205.682 1704,-174 1736.98,-156.642 1834.41,-141.948 1898.29,-133.817"/>
<polygon fill="midnightblue" stroke="midnightblue" points="1898.76,-137.287 1908.24,-132.569 1897.89,-130.341 1898.76,-137.287"/>
</g>
<!-- Node11&#45;&gt;Node21 -->
<g id="edge74" class="edge"><title>Node11&#45;&gt;Node21</title>
<path fill="none" stroke="midnightblue" d="M1618.55,-307.057C1676.88,-296.418 1780.18,-277.576 1842.06,-266.292"/>
<polygon fill="midnightblue" stroke="midnightblue" points="1842.78,-269.718 1851.99,-264.48 1841.52,-262.831 1842.78,-269.718"/>
</g>
<!-- Node12&#45;&gt;Node5 -->
<g id="edge36" class="edge"><title>Node12&#45;&gt;Node5</title>
<path fill="none" stroke="midnightblue" d="M2329.87,-246.203C2323.58,-215.557 2303.38,-125.866 2270,-58 2265.1,-48.0399 2258.22,-37.8541 2252.01,-29.5225"/>
<polygon fill="midnightblue" stroke="midnightblue" points="2254.78,-27.3743 2245.89,-21.5986 2249.23,-31.6526 2254.78,-27.3743"/>
</g>
<!-- Node13 -->
<g id="node32" class="node"><title>Node13</title>
<a xlink:href="MojDecimal_8h.htm" target="_top" xlink:title="core/MojDecimal.h">
<polygon fill="white" stroke="red" points="2322,-116.5 2322,-137.5 2426,-137.5 2426,-116.5 2322,-116.5"/>
<text text-anchor="middle" x="2374" y="-124.5" font-family="Helvetica,sans-Serif" font-size="10.00">core/MojDecimal.h</text>
</a>
</g>
<!-- Node12&#45;&gt;Node13 -->
<g id="edge38" class="edge"><title>Node12&#45;&gt;Node13</title>
<path fill="none" stroke="midnightblue" d="M2335.44,-246.362C2342.42,-224.746 2358.37,-175.372 2367.42,-147.369"/>
<polygon fill="midnightblue" stroke="midnightblue" points="2370.77,-148.377 2370.52,-137.785 2364.11,-146.225 2370.77,-148.377"/>
</g>
<!-- Node14 -->
<g id="node35" class="node"><title>Node14</title>
<a xlink:href="MojMap_8h.htm" target="_top" xlink:title="core/MojMap.h">
<polygon fill="white" stroke="red" points="2027.5,-181.5 2027.5,-202.5 2114.5,-202.5 2114.5,-181.5 2027.5,-181.5"/>
<text text-anchor="middle" x="2071" y="-189.5" font-family="Helvetica,sans-Serif" font-size="10.00">core/MojMap.h</text>
</a>
</g>
<!-- Node12&#45;&gt;Node14 -->
<g id="edge42" class="edge"><title>Node12&#45;&gt;Node14</title>
<path fill="none" stroke="midnightblue" d="M2283.92,-247.051C2242.41,-238.193 2180.95,-224.435 2128,-210 2123,-208.636 2117.78,-207.119 2112.61,-205.56"/>
<polygon fill="midnightblue" stroke="midnightblue" points="2113.41,-202.144 2102.82,-202.541 2111.35,-208.833 2113.41,-202.144"/>
</g>
<!-- Node12&#45;&gt;Node16 -->
<g id="edge50" class="edge"><title>Node12&#45;&gt;Node16</title>
<path fill="none" stroke="midnightblue" d="M2283.72,-251.514C2178.73,-239.583 1930.01,-211.319 1817.29,-198.51"/>
<polygon fill="midnightblue" stroke="midnightblue" points="1817.47,-195.009 1807.14,-197.357 1816.68,-201.964 1817.47,-195.009"/>
</g>
<!-- Node12&#45;&gt;Node19 -->
<g id="edge72" class="edge"><title>Node12&#45;&gt;Node19</title>
<path fill="none" stroke="midnightblue" d="M2283.84,-248.946C2249.57,-241.91 2203.2,-229.674 2166,-210 2143.97,-198.348 2145.03,-185.652 2123,-174 2089.41,-156.234 2048.34,-144.533 2015.45,-137.25"/>
<polygon fill="midnightblue" stroke="midnightblue" points="2016.04,-133.796 2005.53,-135.13 2014.58,-140.642 2016.04,-133.796"/>
</g>
<!-- Node13&#45;&gt;Node5 -->
<g id="edge40" class="edge"><title>Node13&#45;&gt;Node5</title>
<path fill="none" stroke="midnightblue" d="M2365.25,-116.478C2353.19,-102.307 2330.39,-76.7099 2308,-58 2294.23,-46.4908 2277.55,-35.3274 2263.82,-26.7702"/>
<polygon fill="midnightblue" stroke="midnightblue" points="2265.64,-23.7803 2255.28,-21.5458 2261.99,-29.751 2265.64,-23.7803"/>
</g>
<!-- Node14&#45;&gt;Node5 -->
<g id="edge44" class="edge"><title>Node14&#45;&gt;Node5</title>
<path fill="none" stroke="midnightblue" d="M2080.64,-181.486C2107.92,-151.745 2185.87,-66.7449 2220.31,-29.202"/>
<polygon fill="midnightblue" stroke="midnightblue" points="2223.15,-31.2783 2227.33,-21.5427 2217.99,-26.5469 2223.15,-31.2783"/>
</g>
<!-- Node15 -->
<g id="node38" class="node"><title>Node15</title>
<a xlink:href="MojComp_8h.htm" target="_top" xlink:title="core/MojComp.h">
<polygon fill="white" stroke="black" points="1834,-58.5 1834,-79.5 1928,-79.5 1928,-58.5 1834,-58.5"/>
<text text-anchor="middle" x="1881" y="-66.5" font-family="Helvetica,sans-Serif" font-size="10.00">core/MojComp.h</text>
</a>
</g>
<!-- Node14&#45;&gt;Node15 -->
<g id="edge46" class="edge"><title>Node14&#45;&gt;Node15</title>
<path fill="none" stroke="midnightblue" d="M2065.67,-181.343C2057,-165.026 2038.33,-133.867 2014,-116 1991.61,-99.5545 1962.95,-88.4549 1937.97,-81.1926"/>
<polygon fill="midnightblue" stroke="midnightblue" points="1938.81,-77.794 1928.24,-78.4998 1936.94,-84.5404 1938.81,-77.794"/>
</g>
<!-- Node15&#45;&gt;Node5 -->
<g id="edge48" class="edge"><title>Node15&#45;&gt;Node5</title>
<path fill="none" stroke="midnightblue" d="M1928.27,-61.298C1990.65,-51.1359 2100.75,-33.1976 2171.22,-21.7164"/>
<polygon fill="midnightblue" stroke="midnightblue" points="2172.02,-25.1335 2181.32,-20.071 2170.89,-18.2246 2172.02,-25.1335"/>
</g>
<!-- Node16&#45;&gt;Node5 -->
<g id="edge52" class="edge"><title>Node16&#45;&gt;Node5</title>
<path fill="none" stroke="midnightblue" d="M1807.11,-186.409C1859.06,-179.24 1944.48,-164.454 2014,-138 2091.49,-108.516 2174.15,-54.7933 2213.52,-27.6474"/>
<polygon fill="midnightblue" stroke="midnightblue" points="2215.92,-30.2414 2222.13,-21.6572 2211.93,-24.4952 2215.92,-30.2414"/>
</g>
<!-- Node16&#45;&gt;Node15 -->
<g id="edge60" class="edge"><title>Node16&#45;&gt;Node15</title>
<path fill="none" stroke="midnightblue" d="M1770.74,-181.085C1791.6,-159.878 1837.79,-112.925 1863.27,-87.0255"/>
<polygon fill="midnightblue" stroke="midnightblue" points="1865.94,-89.2987 1870.46,-79.7153 1860.95,-84.3896 1865.94,-89.2987"/>
</g>
<!-- Node16&#45;&gt;Node17 -->
<g id="edge54" class="edge"><title>Node16&#45;&gt;Node17</title>
<path fill="none" stroke="midnightblue" d="M1712.98,-183.166C1651.2,-171.561 1542.62,-151.162 1474.7,-138.403"/>
<polygon fill="midnightblue" stroke="midnightblue" points="1475.05,-134.907 1464.57,-136.501 1473.75,-141.787 1475.05,-134.907"/>
</g>
<!-- Node16&#45;&gt;Node19 -->
<g id="edge62" class="edge"><title>Node16&#45;&gt;Node19</title>
<path fill="none" stroke="midnightblue" d="M1792.09,-181.412C1825.58,-170.364 1878.23,-152.991 1915,-140.857"/>
<polygon fill="midnightblue" stroke="midnightblue" points="1916.52,-144.041 1924.92,-137.584 1914.33,-137.393 1916.52,-144.041"/>
</g>
<!-- Node17&#45;&gt;Node5 -->
<g id="edge56" class="edge"><title>Node17&#45;&gt;Node5</title>
<path fill="none" stroke="midnightblue" d="M1413.43,-116.345C1413.26,-100.781 1415.52,-72.1453 1433,-58 1461.52,-34.9246 1983.81,-18.0917 2170.97,-12.7781"/>
<polygon fill="midnightblue" stroke="midnightblue" points="2171.32,-16.2697 2181.22,-12.4892 2171.12,-9.27247 2171.32,-16.2697"/>
</g>
<!-- Node17&#45;&gt;Node18 -->
<g id="edge58" class="edge"><title>Node17&#45;&gt;Node18</title>
<path fill="none" stroke="midnightblue" d="M1428.67,-116.362C1440.51,-107.777 1457.39,-95.5459 1471.02,-85.6636"/>
<polygon fill="midnightblue" stroke="midnightblue" points="1473.38,-88.274 1479.42,-79.5707 1469.27,-82.6067 1473.38,-88.274"/>
</g>
<!-- Node19&#45;&gt;Node5 -->
<g id="edge64" class="edge"><title>Node19&#45;&gt;Node5</title>
<path fill="none" stroke="midnightblue" d="M1963.35,-116.469C1973.23,-101.062 1993.78,-72.6244 2019,-58 2044.54,-43.1882 2117.02,-29.344 2171.44,-20.5711"/>
<polygon fill="midnightblue" stroke="midnightblue" points="2172.05,-24.0182 2181.38,-18.993 2170.96,-17.1048 2172.05,-24.0182"/>
</g>
<!-- Node19&#45;&gt;Node15 -->
<g id="edge66" class="edge"><title>Node19&#45;&gt;Node15</title>
<path fill="none" stroke="midnightblue" d="M1943.06,-116.362C1931.81,-107.777 1915.78,-95.5459 1902.84,-85.6636"/>
<polygon fill="midnightblue" stroke="midnightblue" points="1904.92,-82.8551 1894.85,-79.5707 1900.68,-88.4198 1904.92,-82.8551"/>
</g>
<!-- Node20 -->
<g id="node54" class="node"><title>Node20</title>
<a xlink:href="MojUtil_8h.htm" target="_top" xlink:title="core/MojUtil.h">
<polygon fill="white" stroke="red" points="2571.5,-58.5 2571.5,-79.5 2652.5,-79.5 2652.5,-58.5 2571.5,-58.5"/>
<text text-anchor="middle" x="2612" y="-66.5" font-family="Helvetica,sans-Serif" font-size="10.00">core/MojUtil.h</text>
</a>
</g>
<!-- Node19&#45;&gt;Node20 -->
<g id="edge68" class="edge"><title>Node19&#45;&gt;Node20</title>
<path fill="none" stroke="midnightblue" d="M2005.7,-122.688C2126.26,-112.012 2437.77,-84.4277 2560.87,-73.5279"/>
<polygon fill="midnightblue" stroke="midnightblue" points="2561.49,-76.9867 2571.14,-72.6182 2560.87,-70.014 2561.49,-76.9867"/>
</g>
<!-- Node20&#45;&gt;Node5 -->
<g id="edge70" class="edge"><title>Node20&#45;&gt;Node5</title>
<path fill="none" stroke="midnightblue" d="M2571.36,-60.4687C2566.86,-59.5993 2562.34,-58.7583 2558,-58 2469.92,-42.593 2367.63,-28.2199 2302.64,-19.5236"/>
<polygon fill="midnightblue" stroke="midnightblue" points="2302.91,-16.0288 2292.53,-18.1773 2301.98,-22.9675 2302.91,-16.0288"/>
</g>
<!-- Node21&#45;&gt;Node5 -->
<g id="edge76" class="edge"><title>Node21&#45;&gt;Node5</title>
<path fill="none" stroke="midnightblue" d="M1934.4,-252.659C1992.21,-245.917 2093.36,-231.434 2123,-210 2186.09,-164.382 2219.31,-72.3598 2231.48,-31.4302"/>
<polygon fill="midnightblue" stroke="midnightblue" points="2234.87,-32.328 2234.25,-21.7512 2228.14,-30.4045 2234.87,-32.328"/>
</g>
<!-- Node21&#45;&gt;Node15 -->
<g id="edge78" class="edge"><title>Node21&#45;&gt;Node15</title>
<path fill="none" stroke="midnightblue" d="M1892.32,-246.354C1890.39,-216.172 1884.87,-129.656 1882.32,-89.6932"/>
<polygon fill="midnightblue" stroke="midnightblue" points="1885.8,-89.2863 1881.67,-79.5296 1878.82,-89.7323 1885.8,-89.2863"/>
</g>
<!-- Node22&#45;&gt;Node5 -->
<g id="edge84" class="edge"><title>Node22&#45;&gt;Node5</title>
<path fill="none" stroke="midnightblue" d="M1281.8,-252.94C1223.29,-247.405 1137.36,-235.151 1117,-210 1106.93,-197.565 1108.33,-187.447 1117,-174 1184.69,-69.0159 1251.66,-87.6798 1373,-58 1524.21,-21.0136 1996.84,-13.1094 2171.38,-11.4403"/>
<polygon fill="midnightblue" stroke="midnightblue" points="2171.48,-14.9396 2181.45,-11.3478 2171.42,-7.93987 2171.48,-14.9396"/>
</g>
<!-- Node22&#45;&gt;Node15 -->
<g id="edge86" class="edge"><title>Node22&#45;&gt;Node15</title>
<path fill="none" stroke="midnightblue" d="M1368.36,-246.489C1460.53,-214.577 1737.17,-118.797 1841.02,-82.8411"/>
<polygon fill="midnightblue" stroke="midnightblue" points="1842.22,-86.1315 1850.52,-79.5524 1839.93,-79.5168 1842.22,-86.1315"/>
</g>
<!-- Node23 -->
<g id="node67" class="node"><title>Node23</title>
<a xlink:href="MojHashBase_8h.htm" target="_top" xlink:title="core/internal/MojHashBase.h">
<polygon fill="white" stroke="red" points="1285.5,-181.5 1285.5,-202.5 1438.5,-202.5 1438.5,-181.5 1285.5,-181.5"/>
<text text-anchor="middle" x="1362" y="-189.5" font-family="Helvetica,sans-Serif" font-size="10.00">core/internal/MojHashBase.h</text>
</a>
</g>
<!-- Node22&#45;&gt;Node23 -->
<g id="edge88" class="edge"><title>Node22&#45;&gt;Node23</title>
<path fill="none" stroke="midnightblue" d="M1341.96,-246.267C1345.39,-236.991 1350.43,-223.336 1354.6,-212.045"/>
<polygon fill="midnightblue" stroke="midnightblue" points="1357.93,-213.127 1358.11,-202.534 1351.36,-210.702 1357.93,-213.127"/>
</g>
<!-- Node24 -->
<g id="node71" class="node"><title>Node24</title>
<a xlink:href="MojHashMapInternal_8h.htm" target="_top" xlink:title="core/internal/MojHashMap\lInternal.h">
<polygon fill="white" stroke="black" points="1126,-175 1126,-209 1268,-209 1268,-175 1126,-175"/>
<text text-anchor="start" x="1134" y="-196" font-family="Helvetica,sans-Serif" font-size="10.00">core/internal/MojHashMap</text>
<text text-anchor="middle" x="1197" y="-183" font-family="Helvetica,sans-Serif" font-size="10.00">Internal.h</text>
</a>
</g>
<!-- Node22&#45;&gt;Node24 -->
<g id="edge94" class="edge"><title>Node22&#45;&gt;Node24</title>
<path fill="none" stroke="midnightblue" d="M1315.03,-246.412C1295.67,-237.488 1267.37,-224.438 1243.33,-213.356"/>
<polygon fill="midnightblue" stroke="midnightblue" points="1244.55,-210.068 1234.01,-209.06 1241.62,-216.425 1244.55,-210.068"/>
</g>
<!-- Node23&#45;&gt;Node5 -->
<g id="edge90" class="edge"><title>Node23&#45;&gt;Node5</title>
<path fill="none" stroke="midnightblue" d="M1357.99,-181.446C1352.91,-166.315 1345.83,-137.874 1355,-116 1369.22,-82.0886 1380.38,-72.8912 1414,-58 1482.43,-27.6925 1988.48,-15.5343 2171.33,-12.1003"/>
<polygon fill="midnightblue" stroke="midnightblue" points="2171.41,-15.5994 2181.34,-11.9149 2171.28,-8.60064 2171.41,-15.5994"/>
</g>
<!-- Node23&#45;&gt;Node17 -->
<g id="edge92" class="edge"><title>Node23&#45;&gt;Node17</title>
<path fill="none" stroke="midnightblue" d="M1370.59,-181.267C1378.31,-171.612 1389.83,-157.215 1399.06,-145.675"/>
<polygon fill="midnightblue" stroke="midnightblue" points="1402.06,-147.529 1405.57,-137.534 1396.59,-143.156 1402.06,-147.529"/>
</g>
<!-- Node25&#45;&gt;Node5 -->
<g id="edge106" class="edge"><title>Node25&#45;&gt;Node5</title>
<path fill="none" stroke="midnightblue" d="M361.323,-364.952C275.994,-349.188 106,-311.004 106,-257 106,-257 106,-257 106,-127 106,-73.9579 1811.99,-22.9686 2171.14,-12.8221"/>
<polygon fill="midnightblue" stroke="midnightblue" points="2171.47,-16.3142 2181.37,-12.5338 2171.27,-9.31697 2171.47,-16.3142"/>
</g>
<!-- Node25&#45;&gt;Node19 -->
<g id="edge112" class="edge"><title>Node25&#45;&gt;Node19</title>
<path fill="none" stroke="midnightblue" d="M391.497,-362.481C379.595,-354.228 364.815,-341.549 358,-326 343.726,-293.435 343.049,-278.259 358,-246 378.819,-201.081 396.786,-191.761 443,-174 477.554,-160.72 1623.22,-134.427 1898.13,-128.298"/>
<polygon fill="midnightblue" stroke="midnightblue" points="1898.38,-131.794 1908.3,-128.072 1898.23,-124.795 1898.38,-131.794"/>
</g>
<!-- Node25&#45;&gt;Node26 -->
<g id="edge108" class="edge"><title>Node25&#45;&gt;Node26</title>
<path fill="none" stroke="midnightblue" d="M456.742,-365.536C523.844,-355.046 646.043,-335.942 719.451,-324.466"/>
<polygon fill="midnightblue" stroke="midnightblue" points="720.136,-327.901 729.475,-322.899 719.054,-320.985 720.136,-327.901"/>
</g>
<!-- Node26&#45;&gt;Node5 -->
<g id="edge110" class="edge"><title>Node26&#45;&gt;Node5</title>
<path fill="none" stroke="midnightblue" d="M791.52,-304.262C837.316,-262.398 1012.62,-109.9 1190,-58 1283.69,-30.5858 1956.11,-16.1046 2171.09,-12.1386"/>
<polygon fill="midnightblue" stroke="midnightblue" points="2171.35,-15.6347 2181.28,-11.9522 2171.22,-8.63582 2171.35,-15.6347"/>
</g>
<!-- Node27&#45;&gt;Node4 -->
<g id="edge118" class="edge"><title>Node27&#45;&gt;Node4</title>
<path fill="none" stroke="midnightblue" d="M307,-420.479C310.049,-406.308 316.828,-380.712 329,-362 349.575,-330.37 356.453,-319.177 391,-304 441.779,-281.692 811.123,-264.871 953.886,-259.136"/>
<polygon fill="midnightblue" stroke="midnightblue" points="954.317,-262.622 964.17,-258.727 954.038,-255.627 954.317,-262.622"/>
</g>
<!-- Node27&#45;&gt;Node14 -->
<g id="edge126" class="edge"><title>Node27&#45;&gt;Node14</title>
<path fill="none" stroke="midnightblue" d="M239.463,-420.532C181.319,-410.578 104.182,-395.464 95,-384 88.8875,-376.368 89.9186,-370.354 95,-362 194.762,-197.992 1624.33,-220.674 1816,-210 1885.44,-206.133 1965.42,-200.256 2017.01,-196.278"/>
<polygon fill="midnightblue" stroke="midnightblue" points="2017.56,-199.746 2027.26,-195.484 2017.02,-192.767 2017.56,-199.746"/>
</g>
<!-- Node27&#45;&gt;Node16 -->
<g id="edge130" class="edge"><title>Node27&#45;&gt;Node16</title>
<path fill="none" stroke="midnightblue" d="M239.695,-420.469C169.683,-408.865 67.7173,-390.929 62,-384 55.7771,-376.458 57.9035,-370.878 62,-362 127.493,-220.057 428.805,-246.584 434,-246 881.683,-195.638 996.98,-230.934 1447,-210 1536.36,-205.843 1639.99,-199.605 1702.73,-195.671"/>
<polygon fill="midnightblue" stroke="midnightblue" points="1703.06,-199.157 1712.82,-195.036 1702.62,-192.171 1703.06,-199.157"/>
</g>
<!-- Node27&#45;&gt;Node25 -->
<g id="edge128" class="edge"><title>Node27&#45;&gt;Node25</title>
<path fill="none" stroke="midnightblue" d="M324.075,-420.362C340.055,-411.45 363.081,-398.609 381.127,-388.545"/>
<polygon fill="midnightblue" stroke="midnightblue" points="383.017,-391.498 390.046,-383.571 379.607,-385.385 383.017,-391.498"/>
</g>
<!-- Node28 -->
<g id="node88" class="node"><title>Node28</title>
<a xlink:href="MojDbPutHandler_8h.htm" target="_top" xlink:title="db/MojDbPutHandler.h">
<polygon fill="white" stroke="black" points="400,-304.5 400,-325.5 522,-325.5 522,-304.5 400,-304.5"/>
<text text-anchor="middle" x="461" y="-312.5" font-family="Helvetica,sans-Serif" font-size="10.00">db/MojDbPutHandler.h</text>
</a>
</g>
<!-- Node27&#45;&gt;Node28 -->
<g id="edge120" class="edge"><title>Node27&#45;&gt;Node28</title>
<path fill="none" stroke="midnightblue" d="M310.058,-420.273C317.553,-405.394 332.913,-378.468 353,-362 370.802,-347.405 393.833,-336.557 414.051,-328.983"/>
<polygon fill="midnightblue" stroke="midnightblue" points="415.478,-332.19 423.715,-325.526 413.12,-325.599 415.478,-332.19"/>
</g>
<!-- Node28&#45;&gt;Node4 -->
<g id="edge122" class="edge"><title>Node28&#45;&gt;Node4</title>
<path fill="none" stroke="midnightblue" d="M522.363,-305.761C526.975,-305.14 531.559,-304.546 536,-304 686.996,-285.451 865.754,-269.29 954.398,-261.664"/>
<polygon fill="midnightblue" stroke="midnightblue" points="954.831,-265.14 964.496,-260.798 954.233,-258.165 954.831,-265.14"/>
</g>
<!-- Node28&#45;&gt;Node15 -->
<g id="edge124" class="edge"><title>Node28&#45;&gt;Node15</title>
<path fill="none" stroke="midnightblue" d="M499.868,-304.442C623.676,-271.223 1020.33,-167.975 1355,-116 1524.36,-89.698 1726.86,-76.747 1823.79,-71.6735"/>
<polygon fill="midnightblue" stroke="midnightblue" points="1824.15,-75.1596 1833.96,-71.15 1823.79,-68.1689 1824.15,-75.1596"/>
</g>
<!-- Node29&#45;&gt;Node4 -->
<g id="edge142" class="edge"><title>Node29&#45;&gt;Node4</title>
<path fill="none" stroke="midnightblue" d="M743.977,-420.391C727.055,-396.642 691.592,-338.577 721,-304 735.912,-286.467 874.382,-270.217 954.112,-262.211"/>
<polygon fill="midnightblue" stroke="midnightblue" points="954.874,-265.653 964.48,-261.183 954.183,-258.687 954.874,-265.653"/>
</g>
<!-- Node29&#45;&gt;Node10 -->
<g id="edge144" class="edge"><title>Node29&#45;&gt;Node10</title>
<path fill="none" stroke="midnightblue" d="M812.652,-426.08C948.048,-415.097 1273.54,-388.694 1407.68,-377.812"/>
<polygon fill="midnightblue" stroke="midnightblue" points="1408.08,-381.291 1417.76,-376.994 1407.51,-374.314 1408.08,-381.291"/>
</g>
<!-- Node30&#45;&gt;Node12 -->
<g id="edge148" class="edge"><title>Node30&#45;&gt;Node12</title>
<path fill="none" stroke="midnightblue" d="M1906.96,-307.83C2000.76,-296.612 2181.06,-275.05 2273.79,-263.962"/>
<polygon fill="midnightblue" stroke="midnightblue" points="2274.32,-267.423 2283.83,-262.76 2273.49,-260.472 2274.32,-267.423"/>
</g>
<!-- Node30&#45;&gt;Node16 -->
<g id="edge152" class="edge"><title>Node30&#45;&gt;Node16</title>
<path fill="none" stroke="midnightblue" d="M1839.28,-304.085C1824.47,-283.152 1791.93,-237.135 1773.47,-211.041"/>
<polygon fill="midnightblue" stroke="midnightblue" points="1776.21,-208.858 1767.58,-202.715 1770.5,-212.901 1776.21,-208.858"/>
</g>
<!-- Node30&#45;&gt;Node21 -->
<g id="edge150" class="edge"><title>Node30&#45;&gt;Node21</title>
<path fill="none" stroke="midnightblue" d="M1855.44,-304.362C1861.79,-296.35 1870.67,-285.161 1878.19,-275.67"/>
<polygon fill="midnightblue" stroke="midnightblue" points="1881.14,-277.581 1884.62,-267.571 1875.66,-273.231 1881.14,-277.581"/>
</g>
<!-- Node31&#45;&gt;Node4 -->
<g id="edge158" class="edge"><title>Node31&#45;&gt;Node4</title>
<path fill="none" stroke="midnightblue" d="M174.82,-362.459C187.368,-346.485 213.693,-316.67 244,-304 308.917,-276.862 788.244,-262.509 953.885,-258.319"/>
<polygon fill="midnightblue" stroke="midnightblue" points="954.424,-261.807 964.334,-258.058 954.249,-254.809 954.424,-261.807"/>
</g>
<!-- Node31&#45;&gt;Node26 -->
<g id="edge160" class="edge"><title>Node31&#45;&gt;Node26</title>
<path fill="none" stroke="midnightblue" d="M230.58,-366.984C349.203,-355.761 602.758,-331.77 719.221,-320.751"/>
<polygon fill="midnightblue" stroke="midnightblue" points="719.758,-324.216 729.384,-319.789 719.099,-317.247 719.758,-324.216"/>
</g>
<!-- Node32&#45;&gt;Node4 -->
<g id="edge164" class="edge"><title>Node32&#45;&gt;Node4</title>
<path fill="none" stroke="midnightblue" d="M1272.88,-536.28C1261.43,-498.755 1218.13,-371.916 1138,-304 1117.45,-286.578 1089.87,-275.357 1065.57,-268.267"/>
<polygon fill="midnightblue" stroke="midnightblue" points="1066.31,-264.842 1055.74,-265.567 1064.46,-271.591 1066.31,-264.842"/>
</g>
<!-- Node32&#45;&gt;Node8 -->
<g id="edge166" class="edge"><title>Node32&#45;&gt;Node8</title>
<path fill="none" stroke="midnightblue" d="M1214.3,-539.118C1128.59,-528.168 974.227,-508.447 886.867,-497.287"/>
<polygon fill="midnightblue" stroke="midnightblue" points="887.177,-493.798 876.814,-496.003 886.29,-500.742 887.177,-493.798"/>
</g>
<!-- Node32&#45;&gt;Node16 -->
<g id="edge172" class="edge"><title>Node32&#45;&gt;Node16</title>
<path fill="none" stroke="midnightblue" d="M1337.69,-539.616C1412.83,-530.241 1535.16,-513.644 1579,-500 1646.38,-479.03 1722,-501.567 1722,-431 1722,-431 1722,-431 1722,-315 1722,-277.061 1738.71,-235.355 1749.97,-211.558"/>
<polygon fill="midnightblue" stroke="midnightblue" points="1753.14,-213.04 1754.39,-202.519 1746.85,-209.961 1753.14,-213.04"/>
</g>
<!-- Node32&#45;&gt;Node17 -->
<g id="edge168" class="edge"><title>Node32&#45;&gt;Node17</title>
<path fill="none" stroke="midnightblue" d="M1337.72,-538.488C1369.49,-531.857 1407.62,-520.226 1437,-500 1490.3,-463.305 1504.37,-445.335 1525,-384 1536.78,-348.975 1502.13,-274.267 1447,-174 1441.71,-164.376 1434.86,-154.332 1428.78,-146.012"/>
<polygon fill="midnightblue" stroke="midnightblue" points="1431.38,-143.657 1422.58,-137.761 1425.79,-147.859 1431.38,-143.657"/>
</g>
<!-- Node32&#45;&gt;Node22 -->
<g id="edge170" class="edge"><title>Node32&#45;&gt;Node22</title>
<path fill="none" stroke="midnightblue" d="M1278.28,-536.335C1287.39,-493.704 1321.31,-335.087 1333.55,-277.803"/>
<polygon fill="midnightblue" stroke="midnightblue" points="1337.03,-278.273 1335.7,-267.762 1330.19,-276.809 1337.03,-278.273"/>
</g>
<!-- Node32&#45;&gt;Node26 -->
<g id="edge174" class="edge"><title>Node32&#45;&gt;Node26</title>
<path fill="none" stroke="midnightblue" d="M1253.18,-536.489C1202.58,-513.429 1076.83,-457.474 968,-420 911.719,-400.62 889.185,-416.009 839,-384 819.005,-371.247 802.132,-349.648 791.619,-334.008"/>
<polygon fill="midnightblue" stroke="midnightblue" points="794.554,-332.101 786.188,-325.599 788.673,-335.899 794.554,-332.101"/>
</g>
<!-- Node33 -->
<g id="node121" class="node"><title>Node33</title>
<a xlink:href="MojTokenSet_8h.htm" target="_top" xlink:title="core/MojTokenSet.h">
<polygon fill="white" stroke="red" points="2236,-304.5 2236,-325.5 2348,-325.5 2348,-304.5 2236,-304.5"/>
<text text-anchor="middle" x="2292" y="-312.5" font-family="Helvetica,sans-Serif" font-size="10.00">core/MojTokenSet.h</text>
</a>
</g>
<!-- Node32&#45;&gt;Node33 -->
<g id="edge176" class="edge"><title>Node32&#45;&gt;Node33</title>
<path fill="none" stroke="midnightblue" d="M1337.72,-541.056C1458.66,-529.357 1716.82,-504.119 1736,-500 1939.04,-456.402 2171.8,-364.704 2257.78,-329.336"/>
<polygon fill="midnightblue" stroke="midnightblue" points="2259.15,-332.557 2267.06,-325.504 2256.48,-326.087 2259.15,-332.557"/>
</g>
<!-- Node33&#45;&gt;Node5 -->
<g id="edge178" class="edge"><title>Node33&#45;&gt;Node5</title>
<path fill="none" stroke="midnightblue" d="M2329.95,-304.369C2349.91,-297.047 2373.4,-285.433 2389,-268 2436.06,-215.397 2470.49,-177.009 2435,-116 2405.77,-65.7615 2343.24,-38.4018 2296.22,-24.3261"/>
<polygon fill="midnightblue" stroke="midnightblue" points="2297.02,-20.9137 2286.44,-21.5207 2295.09,-27.6423 2297.02,-20.9137"/>
</g>
<!-- Node33&#45;&gt;Node22 -->
<g id="edge180" class="edge"><title>Node33&#45;&gt;Node22</title>
<path fill="none" stroke="midnightblue" d="M2235.92,-308.484C2220.71,-306.861 2204.24,-305.234 2189,-304 1897.09,-280.367 1547.88,-265.184 1404.45,-259.51"/>
<polygon fill="midnightblue" stroke="midnightblue" points="1404.21,-255.998 1394.08,-259.102 1403.93,-262.993 1404.21,-255.998"/>
</g>
<!-- Node34&#45;&gt;Node4 -->
<g id="edge184" class="edge"><title>Node34&#45;&gt;Node4</title>
<path fill="none" stroke="midnightblue" d="M928.56,-362.484C933.668,-348.321 944.025,-322.732 958,-304 966.3,-292.875 977.527,-282.333 987.425,-274.063"/>
<polygon fill="midnightblue" stroke="midnightblue" points="989.744,-276.689 995.333,-267.688 985.351,-271.239 989.744,-276.689"/>
</g>
<!-- Node34&#45;&gt;Node14 -->
<g id="edge190" class="edge"><title>Node34&#45;&gt;Node14</title>
<path fill="none" stroke="midnightblue" d="M923.766,-362.24C921.56,-337.11 920.114,-274.532 956,-246 993.431,-216.24 1768.26,-212.684 1816,-210 1885.44,-206.097 1965.41,-200.227 2017.01,-196.262"/>
<polygon fill="midnightblue" stroke="midnightblue" points="2017.55,-199.73 2027.26,-195.47 2017.02,-192.751 2017.55,-199.73"/>
</g>
<!-- Node34&#45;&gt;Node16 -->
<g id="edge192" class="edge"><title>Node34&#45;&gt;Node16</title>
<path fill="none" stroke="midnightblue" d="M910.821,-362.408C900.651,-353.861 887.766,-340.845 882,-326 869.126,-292.857 857.642,-271.902 882,-246 885.531,-242.245 1508.22,-206.38 1702.68,-195.267"/>
<polygon fill="midnightblue" stroke="midnightblue" points="1702.91,-198.759 1712.7,-194.694 1702.51,-191.77 1702.91,-198.759"/>
</g>
<!-- Node34&#45;&gt;Node22 -->
<g id="edge188" class="edge"><title>Node34&#45;&gt;Node22</title>
<path fill="none" stroke="midnightblue" d="M962.746,-362.398C1038.33,-341.169 1208.08,-293.49 1290.84,-270.245"/>
<polygon fill="midnightblue" stroke="midnightblue" points="1291.81,-273.609 1300.49,-267.535 1289.92,-266.87 1291.81,-273.609"/>
</g>
<!-- Node34&#45;&gt;Node26 -->
<g id="edge194" class="edge"><title>Node34&#45;&gt;Node26</title>
<path fill="none" stroke="midnightblue" d="M898.742,-362.497C875.584,-353.234 841.625,-339.65 815.948,-329.379"/>
<polygon fill="midnightblue" stroke="midnightblue" points="817.138,-326.086 806.553,-325.621 814.538,-332.585 817.138,-326.086"/>
</g>
<!-- Node34&#45;&gt;Node28 -->
<g id="edge186" class="edge"><title>Node34&#45;&gt;Node28</title>
<path fill="none" stroke="midnightblue" d="M847.859,-363.357C759.95,-352.369 617.449,-334.556 532.127,-323.891"/>
<polygon fill="midnightblue" stroke="midnightblue" points="532.37,-320.394 522.013,-322.627 531.502,-327.34 532.37,-320.394"/>
</g>
<!-- Node35&#45;&gt;Node4 -->
<g id="edge204" class="edge"><title>Node35&#45;&gt;Node4</title>
<path fill="none" stroke="midnightblue" d="M1449.81,-536.464C1455.33,-513.356 1465.15,-457.31 1442,-420 1424.38,-391.609 1404.88,-400.812 1376,-384 1346.85,-367.028 1278.38,-316.369 1247,-304 1187.61,-280.593 1115.08,-268.407 1066.02,-262.372"/>
<polygon fill="midnightblue" stroke="midnightblue" points="1066.27,-258.876 1055.92,-261.175 1065.44,-265.827 1066.27,-258.876"/>
</g>
<!-- Node35&#45;&gt;Node16 -->
<g id="edge206" class="edge"><title>Node35&#45;&gt;Node16</title>
<path fill="none" stroke="midnightblue" d="M1491.57,-536.851C1493.06,-536.557 1494.54,-536.272 1496,-536 1549.01,-526.087 1694.49,-534.431 1736,-500 1760.99,-479.271 1760,-463.469 1760,-431 1760,-431 1760,-431 1760,-315 1760,-279.052 1760,-237.195 1760,-212.745"/>
<polygon fill="midnightblue" stroke="midnightblue" points="1763.5,-212.53 1760,-202.53 1756.5,-212.53 1763.5,-212.53"/>
</g>
<!-- Node36&#45;&gt;Node5 -->
<g id="edge216" class="edge"><title>Node36&#45;&gt;Node5</title>
<path fill="none" stroke="midnightblue" d="M2465.18,-594.457C2523.07,-568.645 2664.79,-496.092 2719,-384 2723.26,-375.198 2721.45,-371.465 2719,-362 2714.41,-344.282 2705.92,-342.943 2699,-326 2686.97,-296.555 2680,-288.808 2680,-257 2680,-257 2680,-257 2680,-127 2680,-95.1919 2685.2,-78.6429 2661,-58 2634.33,-35.2486 2415.17,-20.4415 2302.85,-14.2729"/>
<polygon fill="midnightblue" stroke="midnightblue" points="2302.83,-10.7665 2292.65,-13.7204 2302.45,-17.7563 2302.83,-10.7665"/>
</g>
<!-- Node37&#45;&gt;Node4 -->
<g id="edge222" class="edge"><title>Node37&#45;&gt;Node4</title>
<path fill="none" stroke="midnightblue" d="M1964.86,-662.397C1814.14,-659.586 1330.78,-643.92 1206,-558 1100.36,-485.259 1151.27,-402.399 1069,-304 1059.29,-292.391 1046.33,-281.687 1035.03,-273.436"/>
<polygon fill="midnightblue" stroke="midnightblue" points="1036.98,-270.529 1026.79,-267.63 1032.95,-276.251 1036.98,-270.529"/>
</g>
<!-- Node37&#45;&gt;Node12 -->
<g id="edge250" class="edge"><title>Node37&#45;&gt;Node12</title>
<path fill="none" stroke="midnightblue" d="M2055.29,-661.146C2128.91,-657.284 2270.23,-646.078 2309,-616 2414.73,-533.965 2380.84,-459.508 2390,-326 2390.67,-316.245 2394.21,-312.826 2390,-304 2383.97,-291.353 2372.69,-281.007 2361.67,-273.272"/>
<polygon fill="midnightblue" stroke="midnightblue" points="2363.29,-270.148 2352.99,-267.636 2359.47,-276.018 2363.29,-270.148"/>
</g>
<!-- Node37&#45;&gt;Node16 -->
<g id="edge266" class="edge"><title>Node37&#45;&gt;Node16</title>
<path fill="none" stroke="midnightblue" d="M2055.16,-657.246C2107.77,-649.767 2190.61,-635.34 2215,-616 2274.69,-568.671 2405.65,-362.621 2357,-304 2322.51,-262.436 1960.87,-215.667 1817.8,-198.644"/>
<polygon fill="midnightblue" stroke="midnightblue" points="1817.82,-195.122 1807.48,-197.422 1816.99,-202.073 1817.82,-195.122"/>
</g>
<!-- Node37&#45;&gt;Node19 -->
<g id="edge270" class="edge"><title>Node37&#45;&gt;Node19</title>
<path fill="none" stroke="midnightblue" d="M2014.13,-652.372C2017.55,-642.974 2022.13,-628.806 2024,-616 2040.28,-504.292 2039.63,-473.802 2024,-362 2018.04,-319.325 1979.35,-196.409 1963.63,-147.464"/>
<polygon fill="midnightblue" stroke="midnightblue" points="1966.88,-146.139 1960.48,-137.695 1960.22,-148.287 1966.88,-146.139"/>
</g>
<!-- Node37&#45;&gt;Node21 -->
<g id="edge264" class="edge"><title>Node37&#45;&gt;Node21</title>
<path fill="none" stroke="midnightblue" d="M2010,-652.444C2010,-632.062 2010,-585.868 2010,-547 2010,-547 2010,-547 2010,-373 2010,-325.546 1960.86,-290.88 1926.28,-272.358"/>
<polygon fill="midnightblue" stroke="midnightblue" points="1927.45,-269.027 1916.96,-267.564 1924.25,-275.251 1927.45,-269.027"/>
</g>
<!-- Node37&#45;&gt;Node22 -->
<g id="edge248" class="edge"><title>Node37&#45;&gt;Node22</title>
<path fill="none" stroke="midnightblue" d="M1969.59,-652.491C1938.79,-643.988 1895.58,-630.99 1859,-616 1806.95,-594.671 1449.44,-423.101 1409,-384 1376.94,-353 1355.33,-304.349 1345,-277.142"/>
<polygon fill="midnightblue" stroke="midnightblue" points="1348.21,-275.723 1341.49,-267.532 1341.64,-278.126 1348.21,-275.723"/>
</g>
<!-- Node37&#45;&gt;Node33 -->
<g id="edge268" class="edge"><title>Node37&#45;&gt;Node33</title>
<path fill="none" stroke="midnightblue" d="M2055.11,-659.052C2119.22,-650.689 2229,-624.983 2229,-547 2229,-547 2229,-547 2229,-431 2229,-392.762 2255.76,-355.092 2274.4,-333.493"/>
<polygon fill="midnightblue" stroke="midnightblue" points="2277.25,-335.561 2281.31,-325.777 2272.03,-330.89 2277.25,-335.561"/>
</g>
<!-- Node37&#45;&gt;Node34 -->
<g id="edge236" class="edge"><title>Node37&#45;&gt;Node34</title>
<path fill="none" stroke="midnightblue" d="M1964.9,-662.386C1788.57,-659.763 1151.35,-648.13 1067,-616 990.201,-586.745 958.475,-574.131 923,-500 906.509,-465.539 913.255,-419.555 919.339,-393.428"/>
<polygon fill="midnightblue" stroke="midnightblue" points="922.781,-394.091 921.836,-383.538 915.994,-392.377 922.781,-394.091"/>
</g>
<!-- Node38 -->
<g id="node150" class="node"><title>Node38</title>
<a xlink:href="MojDbIndex_8h.htm" target="_top" xlink:title="db/MojDbIndex.h">
<polygon fill="white" stroke="red" points="1075.5,-594.5 1075.5,-615.5 1170.5,-615.5 1170.5,-594.5 1075.5,-594.5"/>
<text text-anchor="middle" x="1123" y="-602.5" font-family="Helvetica,sans-Serif" font-size="10.00">db/MojDbIndex.h</text>
</a>
</g>
<!-- Node37&#45;&gt;Node38 -->
<g id="edge224" class="edge"><title>Node37&#45;&gt;Node38</title>
<path fill="none" stroke="midnightblue" d="M1964.79,-660.044C1816.68,-650.359 1346.09,-619.588 1180.95,-608.789"/>
<polygon fill="midnightblue" stroke="midnightblue" points="1180.73,-605.268 1170.52,-608.108 1180.27,-612.253 1180.73,-605.268"/>
</g>
<!-- Node39 -->
<g id="node158" class="node"><title>Node39</title>
<a xlink:href="MojDbRevisionSet_8h.htm" target="_top" xlink:title="db/MojDbRevisionSet.h">
<polygon fill="white" stroke="red" points="1303.5,-478.5 1303.5,-499.5 1428.5,-499.5 1428.5,-478.5 1303.5,-478.5"/>
<text text-anchor="middle" x="1366" y="-486.5" font-family="Helvetica,sans-Serif" font-size="10.00">db/MojDbRevisionSet.h</text>
</a>
</g>
<!-- Node37&#45;&gt;Node39 -->
<g id="edge238" class="edge"><title>Node37&#45;&gt;Node39</title>
<path fill="none" stroke="midnightblue" d="M1967.32,-652.428C1929.78,-643.065 1873.69,-628.918 1825,-616 1673.91,-575.909 1495.64,-525.765 1412.74,-502.284"/>
<polygon fill="midnightblue" stroke="midnightblue" points="1413.69,-498.915 1403.11,-499.555 1411.78,-505.65 1413.69,-498.915"/>
</g>
<!-- Node40 -->
<g id="node161" class="node"><title>Node40</title>
<a xlink:href="MojDbKindState_8h.htm" target="_top" xlink:title="db/MojDbKindState.h">
<polygon fill="white" stroke="red" points="1867.5,-594.5 1867.5,-615.5 1982.5,-615.5 1982.5,-594.5 1867.5,-594.5"/>
<text text-anchor="middle" x="1925" y="-602.5" font-family="Helvetica,sans-Serif" font-size="10.00">db/MojDbKindState.h</text>
</a>
</g>
<!-- Node37&#45;&gt;Node40 -->
<g id="edge242" class="edge"><title>Node37&#45;&gt;Node40</title>
<path fill="none" stroke="midnightblue" d="M1994.41,-652.362C1981.71,-643.696 1963.56,-631.313 1949.01,-621.382"/>
<polygon fill="midnightblue" stroke="midnightblue" points="1950.72,-618.316 1940.49,-615.571 1946.78,-624.098 1950.72,-618.316"/>
</g>
<!-- Node41 -->
<g id="node167" class="node"><title>Node41</title>
<a xlink:href="MojSchema_8h.htm" target="_top" xlink:title="core/MojSchema.h">
<polygon fill="white" stroke="black" points="2076,-304.5 2076,-325.5 2180,-325.5 2180,-304.5 2076,-304.5"/>
<text text-anchor="middle" x="2128" y="-312.5" font-family="Helvetica,sans-Serif" font-size="10.00">core/MojSchema.h</text>
</a>
</g>
<!-- Node37&#45;&gt;Node41 -->
<g id="edge252" class="edge"><title>Node37&#45;&gt;Node41</title>
<path fill="none" stroke="midnightblue" d="M2043.5,-652.484C2062.4,-645.013 2085.14,-633.213 2100,-616 2121.22,-591.422 2124,-579.469 2124,-547 2124,-547 2124,-547 2124,-431 2124,-397.578 2125.68,-358.771 2126.86,-335.587"/>
<polygon fill="midnightblue" stroke="midnightblue" points="2130.36,-335.723 2127.39,-325.552 2123.37,-335.353 2130.36,-335.723"/>
</g>
<!-- Node38&#45;&gt;Node4 -->
<g id="edge226" class="edge"><title>Node38&#45;&gt;Node4</title>
<path fill="none" stroke="midnightblue" d="M1122.35,-594.485C1119.49,-554.4 1105.67,-408.201 1051,-304 1045.43,-293.391 1037.02,-283.173 1029.26,-274.99"/>
<polygon fill="midnightblue" stroke="midnightblue" points="1031.67,-272.447 1022.14,-267.822 1026.7,-277.381 1031.67,-272.447"/>
</g>
<!-- Node38&#45;&gt;Node7 -->
<g id="edge228" class="edge"><title>Node38&#45;&gt;Node7</title>
<path fill="none" stroke="midnightblue" d="M1075.31,-600.352C973.556,-590.432 734.183,-567.098 608.414,-554.839"/>
<polygon fill="midnightblue" stroke="midnightblue" points="608.743,-551.354 598.451,-553.867 608.064,-558.321 608.743,-551.354"/>
</g>
<!-- Node38&#45;&gt;Node8 -->
<g id="edge230" class="edge"><title>Node38&#45;&gt;Node8</title>
<path fill="none" stroke="midnightblue" d="M1095.49,-594.398C1041.19,-573.471 920.191,-526.841 858.982,-503.252"/>
<polygon fill="midnightblue" stroke="midnightblue" points="859.927,-499.865 849.337,-499.535 857.409,-506.397 859.927,-499.865"/>
</g>
<!-- Node38&#45;&gt;Node21 -->
<g id="edge232" class="edge"><title>Node38&#45;&gt;Node21</title>
<path fill="none" stroke="midnightblue" d="M1170.7,-603.239C1344.55,-596.199 1934,-566.605 1934,-489 1934,-489 1934,-489 1934,-373 1934,-337.462 1916.68,-299.12 1904.56,-276.63"/>
<polygon fill="midnightblue" stroke="midnightblue" points="1907.52,-274.766 1899.59,-267.747 1901.41,-278.183 1907.52,-274.766"/>
</g>
<!-- Node38&#45;&gt;Node26 -->
<g id="edge234" class="edge"><title>Node38&#45;&gt;Node26</title>
<path fill="none" stroke="midnightblue" d="M1119.5,-594.299C1110.34,-566.859 1085.12,-494.957 1067,-478 1032.81,-446.013 1011.98,-458.067 968,-442 897.739,-416.329 864.414,-435.33 810,-384 796.314,-371.089 788.531,-350.863 784.342,-335.641"/>
<polygon fill="midnightblue" stroke="midnightblue" points="787.666,-334.501 781.893,-325.617 780.866,-336.162 787.666,-334.501"/>
</g>
<!-- Node39&#45;&gt;Node4 -->
<g id="edge240" class="edge"><title>Node39&#45;&gt;Node4</title>
<path fill="none" stroke="midnightblue" d="M1351.2,-478.382C1338.74,-469.218 1320.66,-455.381 1306,-442 1243.77,-385.192 1248.03,-347.724 1176,-304 1142.35,-283.576 1099.51,-271.736 1065.78,-265.049"/>
<polygon fill="midnightblue" stroke="midnightblue" points="1066.1,-261.547 1055.62,-263.135 1064.8,-268.426 1066.1,-261.547"/>
</g>
<!-- Node40&#45;&gt;Node21 -->
<g id="edge244" class="edge"><title>Node40&#45;&gt;Node21</title>
<path fill="none" stroke="midnightblue" d="M1932.55,-594.389C1945.84,-574.648 1972,-530.503 1972,-489 1972,-489 1972,-489 1972,-373 1972,-340.531 1966.31,-330.812 1948,-304 1939.95,-292.215 1928.21,-281.632 1917.64,-273.506"/>
<polygon fill="midnightblue" stroke="midnightblue" points="1919.65,-270.634 1909.51,-267.54 1915.51,-276.278 1919.65,-270.634"/>
</g>
<!-- Node40&#45;&gt;Node32 -->
<g id="edge246" class="edge"><title>Node40&#45;&gt;Node32</title>
<path fill="none" stroke="midnightblue" d="M1867.24,-599.976C1769.7,-591.473 1566.12,-573.64 1394,-558 1379.1,-556.646 1363.14,-555.174 1347.93,-553.76"/>
<polygon fill="midnightblue" stroke="midnightblue" points="1347.83,-550.234 1337.54,-552.792 1347.18,-557.204 1347.83,-550.234"/>
</g>
<!-- Node41&#45;&gt;Node5 -->
<g id="edge254" class="edge"><title>Node41&#45;&gt;Node5</title>
<path fill="none" stroke="midnightblue" d="M2153.29,-304.457C2190.59,-287.018 2256,-248.399 2256,-192 2256,-192 2256,-192 2256,-127 2256,-93.175 2248.04,-54.5229 2242.42,-31.474"/>
<polygon fill="midnightblue" stroke="midnightblue" points="2245.81,-30.6159 2239.97,-21.7784 2239.03,-32.3312 2245.81,-30.6159"/>
</g>
<!-- Node41&#45;&gt;Node12 -->
<g id="edge258" class="edge"><title>Node41&#45;&gt;Node12</title>
<path fill="none" stroke="midnightblue" d="M2164.94,-304.497C2198.63,-294.918 2248.57,-280.72 2285.07,-270.342"/>
<polygon fill="midnightblue" stroke="midnightblue" points="2286.33,-273.624 2294.99,-267.523 2284.41,-266.891 2286.33,-273.624"/>
</g>
<!-- Node41&#45;&gt;Node14 -->
<g id="edge256" class="edge"><title>Node41&#45;&gt;Node14</title>
<path fill="none" stroke="midnightblue" d="M2122.94,-304.085C2113.37,-283.427 2092.47,-238.337 2080.3,-212.076"/>
<polygon fill="midnightblue" stroke="midnightblue" points="2083.35,-210.317 2075.97,-202.715 2076.99,-213.26 2083.35,-210.317"/>
</g>
<!-- Node41&#45;&gt;Node19 -->
<g id="edge262" class="edge"><title>Node41&#45;&gt;Node19</title>
<path fill="none" stroke="midnightblue" d="M2115.6,-304.259C2094.68,-285.89 2051.5,-246.848 2019,-210 2000.73,-189.287 1982.07,-163.558 1970.06,-146.284"/>
<polygon fill="midnightblue" stroke="midnightblue" points="1972.67,-143.899 1964.12,-137.643 1966.9,-147.866 1972.67,-143.899"/>
</g>
<!-- Node41&#45;&gt;Node21 -->
<g id="edge260" class="edge"><title>Node41&#45;&gt;Node21</title>
<path fill="none" stroke="midnightblue" d="M2085.44,-304.497C2045.65,-294.675 1986.17,-279.994 1943.88,-269.557"/>
<polygon fill="midnightblue" stroke="midnightblue" points="1944.61,-266.132 1934.06,-267.134 1942.93,-272.928 1944.61,-266.132"/>
</g>
<!-- Node42&#45;&gt;Node4 -->
<g id="edge276" class="edge"><title>Node42&#45;&gt;Node4</title>
<path fill="none" stroke="midnightblue" d="M1011.59,-478.5C1023.08,-470.174 1037.43,-457.397 1044,-442 1068.14,-385.407 1038.33,-311.914 1020.91,-277.047"/>
<polygon fill="midnightblue" stroke="midnightblue" points="1023.88,-275.176 1016.17,-267.904 1017.66,-278.394 1023.88,-275.176"/>
</g>
<!-- Node43&#45;&gt;Node12 -->
<g id="edge282" class="edge"><title>Node43&#45;&gt;Node12</title>
<path fill="none" stroke="midnightblue" d="M2539.17,-420.323C2532.34,-410.894 2522.26,-396.707 2514,-384 2491.41,-349.232 2498.14,-330.197 2466,-304 2444.24,-286.262 2415.32,-275.004 2389.92,-267.972"/>
<polygon fill="midnightblue" stroke="midnightblue" points="2390.57,-264.526 2380.01,-265.39 2388.81,-271.3 2390.57,-264.526"/>
</g>
<!-- Node43&#45;&gt;Node18 -->
<g id="edge280" class="edge"><title>Node43&#45;&gt;Node18</title>
<path fill="none" stroke="midnightblue" d="M2544.47,-420.229C2538.48,-396.65 2521.41,-339.724 2489,-304 2454.48,-265.948 2435.71,-267.402 2389,-246 2228.63,-172.522 2186.45,-153.103 2014,-116 1928.21,-97.5432 1674.77,-80.1214 1556.32,-72.7256"/>
<polygon fill="midnightblue" stroke="midnightblue" points="1556.51,-69.2309 1546.32,-72.1047 1556.08,-76.2174 1556.51,-69.2309"/>
</g>
<!-- Node43&#45;&gt;Node44 -->
<g id="edge284" class="edge"><title>Node43&#45;&gt;Node44</title>
<path fill="none" stroke="midnightblue" d="M2562.77,-420.362C2575.62,-411.696 2593.98,-399.313 2608.71,-389.382"/>
<polygon fill="midnightblue" stroke="midnightblue" points="2610.99,-392.064 2617.33,-383.571 2607.08,-386.26 2610.99,-392.064"/>
</g>
<!-- Node44&#45;&gt;Node5 -->
<g id="edge286" class="edge"><title>Node44&#45;&gt;Node5</title>
<path fill="none" stroke="midnightblue" d="M2635.2,-362.375C2641.04,-331.438 2654.48,-239.471 2623,-174 2589.3,-103.911 2561.91,-92.0715 2492,-58 2459.4,-42.1105 2366.82,-27.6035 2302.67,-19.0335"/>
<polygon fill="midnightblue" stroke="midnightblue" points="2303.01,-15.5475 2292.64,-17.7098 2302.09,-22.4874 2303.01,-15.5475"/>
</g>
<!-- Node44&#45;&gt;Node12 -->
<g id="edge292" class="edge"><title>Node44&#45;&gt;Node12</title>
<path fill="none" stroke="midnightblue" d="M2616.07,-362.345C2591.96,-347.551 2546,-320.725 2504,-304 2466.96,-289.251 2423.66,-277.447 2389.77,-269.357"/>
<polygon fill="midnightblue" stroke="midnightblue" points="2390.56,-265.947 2380.02,-267.071 2388.96,-272.762 2390.56,-265.947"/>
</g>
<!-- Node44&#45;&gt;Node33 -->
<g id="edge294" class="edge"><title>Node44&#45;&gt;Node33</title>
<path fill="none" stroke="midnightblue" d="M2571.25,-362.497C2511.07,-352.261 2419.87,-336.749 2358.22,-326.262"/>
<polygon fill="midnightblue" stroke="midnightblue" points="2358.65,-322.786 2348.2,-324.559 2357.47,-329.687 2358.65,-322.786"/>
</g>
<!-- Node45 -->
<g id="node189" class="node"><title>Node45</title>
<a xlink:href="MojDataSerialization_8h.htm" target="_top" xlink:title="core/MojDataSerialization.h">
<polygon fill="white" stroke="red" points="2468,-181.5 2468,-202.5 2614,-202.5 2614,-181.5 2468,-181.5"/>
<text text-anchor="middle" x="2541" y="-189.5" font-family="Helvetica,sans-Serif" font-size="10.00">core/MojDataSerialization.h</text>
</a>
</g>
<!-- Node44&#45;&gt;Node45 -->
<g id="edge288" class="edge"><title>Node44&#45;&gt;Node45</title>
<path fill="none" stroke="midnightblue" d="M2627.66,-362.486C2612.73,-333.12 2570.42,-249.879 2550.98,-211.644"/>
<polygon fill="midnightblue" stroke="midnightblue" points="2554.01,-209.871 2546.36,-202.543 2547.77,-213.043 2554.01,-209.871"/>
</g>
<!-- Node45&#45;&gt;Node5 -->
<g id="edge290" class="edge"><title>Node45&#45;&gt;Node5</title>
<path fill="none" stroke="midnightblue" d="M2538.47,-181.257C2531.81,-155.492 2511.25,-89.9587 2468,-58 2442.21,-38.9465 2361.46,-25.6099 2302.68,-18.1297"/>
<polygon fill="midnightblue" stroke="midnightblue" points="2303.07,-14.6513 2292.72,-16.8903 2302.21,-21.5978 2303.07,-14.6513"/>
</g>
<!-- Node46&#45;&gt;Node5 -->
<g id="edge298" class="edge"><title>Node46&#45;&gt;Node5</title>
<path fill="none" stroke="midnightblue" d="M2746.98,-304.414C2737.53,-283.455 2718,-234.981 2718,-192 2718,-192 2718,-192 2718,-127 2718,-94.5312 2719.46,-78.1441 2694,-58 2663.99,-34.2594 2422.16,-19.7006 2302.95,-13.8987"/>
<polygon fill="midnightblue" stroke="midnightblue" points="2303,-10.3973 2292.85,-13.4137 2302.67,-17.3893 2303,-10.3973"/>
</g>
<!-- Node46&#45;&gt;Node12 -->
<g id="edge300" class="edge"><title>Node46&#45;&gt;Node12</title>
<path fill="none" stroke="midnightblue" d="M2707.45,-308.848C2631.07,-298.3 2475.16,-276.77 2390.26,-265.046"/>
<polygon fill="midnightblue" stroke="midnightblue" points="2390.65,-261.567 2380.27,-263.666 2389.7,-268.501 2390.65,-261.567"/>
</g>
<!-- Node47&#45;&gt;Node5 -->
<g id="edge306" class="edge"><title>Node47&#45;&gt;Node5</title>
<path fill="none" stroke="midnightblue" d="M2854.48,-304.417C2819.03,-286.672 2756,-247.341 2756,-192 2756,-192 2756,-192 2756,-127 2756,-91.7737 2746.52,-77.2156 2717,-58 2683.04,-35.898 2426.03,-20.3497 2302.68,-14.0797"/>
<polygon fill="midnightblue" stroke="midnightblue" points="2302.76,-10.5797 2292.6,-13.573 2302.41,-17.5708 2302.76,-10.5797"/>
</g>
<!-- Node47&#45;&gt;Node12 -->
<g id="edge308" class="edge"><title>Node47&#45;&gt;Node12</title>
<path fill="none" stroke="midnightblue" d="M2813.93,-305.159C2810.91,-304.754 2807.93,-304.365 2805,-304 2655.93,-285.375 2479.69,-269.472 2390.3,-261.838"/>
<polygon fill="midnightblue" stroke="midnightblue" points="2390.36,-258.331 2380.1,-260.971 2389.76,-265.305 2390.36,-258.331"/>
</g>
<!-- Node48 -->
<g id="node203" class="node"><title>Node48</title>
<polygon fill="white" stroke="#bfbfbf" points="2857.5,-246.5 2857.5,-267.5 2898.5,-267.5 2898.5,-246.5 2857.5,-246.5"/>
<text text-anchor="middle" x="2878" y="-254.5" font-family="Helvetica,sans-Serif" font-size="10.00">stack</text>
</g>
<!-- Node47&#45;&gt;Node48 -->
<g id="edge310" class="edge"><title>Node47&#45;&gt;Node48</title>
<path fill="none" stroke="midnightblue" d="M2878,-304.362C2878,-296.922 2878,-286.743 2878,-277.728"/>
<polygon fill="midnightblue" stroke="midnightblue" points="2881.5,-277.571 2878,-267.571 2874.5,-277.571 2881.5,-277.571"/>
</g>
<!-- Node49&#45;&gt;Node5 -->
<g id="edge316" class="edge"><title>Node49&#45;&gt;Node5</title>
<path fill="none" stroke="midnightblue" d="M2855.35,-116.297C2838.77,-100.393 2805.02,-71.0046 2770,-58 2685.93,-26.781 2425.5,-15.9184 2302.55,-12.4645"/>
<polygon fill="midnightblue" stroke="midnightblue" points="2302.6,-8.96476 2292.51,-12.1904 2302.41,-15.9622 2302.6,-8.96476"/>
</g>
<!-- Node49&#45;&gt;Node20 -->
<g id="edge318" class="edge"><title>Node49&#45;&gt;Node20</title>
<path fill="none" stroke="midnightblue" d="M2821.47,-116.831C2777.06,-106.691 2708.96,-91.1404 2662.55,-80.5431"/>
<polygon fill="midnightblue" stroke="midnightblue" points="2663.23,-77.1085 2652.7,-78.2944 2661.67,-83.9329 2663.23,-77.1085"/>
</g>
<!-- Node50 -->
<g id="node210" class="node"><title>Node50</title>
<a xlink:href="MojTimeInternal_8h.htm" target="_top" xlink:title="core/internal/MojTimeInternal.h">
<polygon fill="white" stroke="black" points="2822,-58.5 2822,-79.5 2986,-79.5 2986,-58.5 2822,-58.5"/>
<text text-anchor="middle" x="2904" y="-66.5" font-family="Helvetica,sans-Serif" font-size="10.00">core/internal/MojTimeInternal.h</text>
</a>
</g>
<!-- Node49&#45;&gt;Node50 -->
<g id="edge320" class="edge"><title>Node49&#45;&gt;Node50</title>
<path fill="none" stroke="midnightblue" d="M2872.97,-116.362C2878.17,-108.431 2885.4,-97.3885 2891.58,-87.9606"/>
<polygon fill="midnightblue" stroke="midnightblue" points="2894.52,-89.8534 2897.07,-79.5707 2888.67,-86.0172 2894.52,-89.8534"/>
</g>
</g>
</svg>
