<?xml version="1.0" encoding="UTF-8" standalone="no"?>
<!DOCTYPE svg PUBLIC "-//W3C//DTD SVG 1.1//EN"
 "http://www.w3.org/Graphics/SVG/1.1/DTD/svg11.dtd">
<!-- Generated by graphviz version 2.26.3 (20100126.1600)
 -->
<!-- Title: MojDbQueryFilter.h Pages: 1 -->
<svg width="1855pt" height="884pt"
 viewBox="0.00 0.00 1855.20 884.00" xmlns="http://www.w3.org/2000/svg" xmlns:xlink="http://www.w3.org/1999/xlink">
<g id="graph1" class="graph" transform="scale(1 1) rotate(0) translate(4 880)">
<title>MojDbQueryFilter.h</title>
<polygon fill="white" stroke="white" points="-4,5 -4,-880 1852.2,-880 1852.2,5 -4,5"/>
<!-- Node1 -->
<g id="node1" class="node"><title>Node1</title>
<polygon fill="#bfbfbf" stroke="black" points="811.588,-854.5 811.588,-875.5 918.588,-875.5 918.588,-854.5 811.588,-854.5"/>
<text text-anchor="middle" x="865.088" y="-862.5" font-family="Helvetica,sans-Serif" font-size="10.00">MojDbQueryFilter.h</text>
</g>
<!-- Node2 -->
<g id="node3" class="node"><title>Node2</title>
<a xlink:href="MojDbDefs_8h.htm" target="_top" xlink:title="db/MojDbDefs.h">
<polygon fill="white" stroke="black" points="704.588,-680.5 704.588,-701.5 795.588,-701.5 795.588,-680.5 704.588,-680.5"/>
<text text-anchor="middle" x="750.088" y="-688.5" font-family="Helvetica,sans-Serif" font-size="10.00">db/MojDbDefs.h</text>
</a>
</g>
<!-- Node1&#45;&gt;Node2 -->
<g id="edge2" class="edge"><title>Node1&#45;&gt;Node2</title>
<path fill="none" stroke="midnightblue" d="M857.573,-854.373C844.301,-835.532 815.953,-794.962 793.088,-760 782.291,-743.491 770.468,-724.445 761.957,-710.55"/>
<polygon fill="midnightblue" stroke="midnightblue" points="764.844,-708.562 756.647,-701.849 758.868,-712.208 764.844,-708.562"/>
</g>
<!-- Node13 -->
<g id="node25" class="node"><title>Node13</title>
<a xlink:href="MojDbQuery_8h.htm" target="_top" xlink:title="db/MojDbQuery.h">
<polygon fill="white" stroke="black" points="926.088,-796.5 926.088,-817.5 1024.09,-817.5 1024.09,-796.5 926.088,-796.5"/>
<text text-anchor="middle" x="975.088" y="-804.5" font-family="Helvetica,sans-Serif" font-size="10.00">db/MojDbQuery.h</text>
</a>
</g>
<!-- Node1&#45;&gt;Node13 -->
<g id="edge24" class="edge"><title>Node1&#45;&gt;Node13</title>
<path fill="none" stroke="midnightblue" d="M885.008,-854.497C902.034,-845.519 926.757,-832.484 945.997,-822.339"/>
<polygon fill="midnightblue" stroke="midnightblue" points="947.731,-825.381 954.944,-817.621 944.466,-819.189 947.731,-825.381"/>
</g>
<!-- Node3 -->
<g id="node5" class="node"><title>Node3</title>
<a xlink:href="MojCoreDefs_8h.htm" target="_top" xlink:title="core/MojCoreDefs.h">
<polygon fill="white" stroke="black" points="846.588,-232.5 846.588,-253.5 957.588,-253.5 957.588,-232.5 846.588,-232.5"/>
<text text-anchor="middle" x="902.088" y="-240.5" font-family="Helvetica,sans-Serif" font-size="10.00">core/MojCoreDefs.h</text>
</a>
</g>
<!-- Node2&#45;&gt;Node3 -->
<g id="edge4" class="edge"><title>Node2&#45;&gt;Node3</title>
<path fill="none" stroke="midnightblue" d="M704.582,-688.376C542.088,-678.41 0.0879979,-639.788 0.0879979,-568 0.0879979,-568 0.0879979,-568 0.0879979,-366 0.0879979,-350.808 -1.31997,-327.685 108.088,-290 176.047,-266.592 658.676,-250.171 836.508,-244.855"/>
<polygon fill="midnightblue" stroke="midnightblue" points="836.623,-248.353 846.515,-244.558 836.416,-241.356 836.623,-248.353"/>
</g>
<!-- Node4 -->
<g id="node7" class="node"><title>Node4</title>
<a xlink:href="MojConfig_8h.htm" target="_top" xlink:title="core/internal/MojConfig.h">
<polygon fill="white" stroke="black" points="959.588,-174.5 959.588,-195.5 1094.59,-195.5 1094.59,-174.5 959.588,-174.5"/>
<text text-anchor="middle" x="1027.09" y="-182.5" font-family="Helvetica,sans-Serif" font-size="10.00">core/internal/MojConfig.h</text>
</a>
</g>
<!-- Node3&#45;&gt;Node4 -->
<g id="edge6" class="edge"><title>Node3&#45;&gt;Node4</title>
<path fill="none" stroke="midnightblue" d="M924.725,-232.497C944.336,-223.397 972.934,-210.127 994.921,-199.925"/>
<polygon fill="midnightblue" stroke="midnightblue" points="996.6,-203.005 1004.2,-195.621 993.653,-196.655 996.6,-203.005"/>
</g>
<!-- Node5 -->
<g id="node9" class="node"><title>Node5</title>
<a xlink:href="MojNew_8h.htm" target="_top" xlink:title="core/internal/MojNew.h">
<polygon fill="white" stroke="black" points="621.588,-174.5 621.588,-195.5 746.588,-195.5 746.588,-174.5 621.588,-174.5"/>
<text text-anchor="middle" x="684.088" y="-182.5" font-family="Helvetica,sans-Serif" font-size="10.00">core/internal/MojNew.h</text>
</a>
</g>
<!-- Node3&#45;&gt;Node5 -->
<g id="edge8" class="edge"><title>Node3&#45;&gt;Node5</title>
<path fill="none" stroke="midnightblue" d="M862.61,-232.497C826.455,-222.877 772.784,-208.598 733.735,-198.209"/>
<polygon fill="midnightblue" stroke="midnightblue" points="734.204,-194.712 723.64,-195.523 732.404,-201.477 734.204,-194.712"/>
</g>
<!-- Node7 -->
<g id="node13" class="node"><title>Node7</title>
<a xlink:href="MojErr_8h.htm" target="_top" xlink:title="core/MojErr.h">
<polygon fill="white" stroke="black" points="764.088,-174.5 764.088,-195.5 844.088,-195.5 844.088,-174.5 764.088,-174.5"/>
<text text-anchor="middle" x="804.088" y="-182.5" font-family="Helvetica,sans-Serif" font-size="10.00">core/MojErr.h</text>
</a>
</g>
<!-- Node3&#45;&gt;Node7 -->
<g id="edge12" class="edge"><title>Node3&#45;&gt;Node7</title>
<path fill="none" stroke="midnightblue" d="M884.113,-232.362C869.194,-223.532 847.755,-210.844 830.822,-200.822"/>
<polygon fill="midnightblue" stroke="midnightblue" points="832.337,-197.652 821.949,-195.571 828.772,-203.676 832.337,-197.652"/>
</g>
<!-- Node11 -->
<g id="node21" class="node"><title>Node11</title>
<a xlink:href="MojOs_8h.htm" target="_top" xlink:title="core/MojOs.h">
<polygon fill="white" stroke="black" points="862.088,-174.5 862.088,-195.5 942.088,-195.5 942.088,-174.5 862.088,-174.5"/>
<text text-anchor="middle" x="902.088" y="-182.5" font-family="Helvetica,sans-Serif" font-size="10.00">core/MojOs.h</text>
</a>
</g>
<!-- Node3&#45;&gt;Node11 -->
<g id="edge20" class="edge"><title>Node3&#45;&gt;Node11</title>
<path fill="none" stroke="midnightblue" d="M902.088,-232.362C902.088,-224.922 902.088,-214.743 902.088,-205.728"/>
<polygon fill="midnightblue" stroke="midnightblue" points="905.588,-205.571 902.088,-195.571 898.588,-205.571 905.588,-205.571"/>
</g>
<!-- Node6 -->
<g id="node11" class="node"><title>Node6</title>
<polygon fill="white" stroke="#bfbfbf" points="666.088,-116.5 666.088,-137.5 702.088,-137.5 702.088,-116.5 666.088,-116.5"/>
<text text-anchor="middle" x="684.088" y="-124.5" font-family="Helvetica,sans-Serif" font-size="10.00">new</text>
</g>
<!-- Node5&#45;&gt;Node6 -->
<g id="edge10" class="edge"><title>Node5&#45;&gt;Node6</title>
<path fill="none" stroke="midnightblue" d="M684.088,-174.362C684.088,-166.922 684.088,-156.743 684.088,-147.728"/>
<polygon fill="midnightblue" stroke="midnightblue" points="687.588,-147.571 684.088,-137.571 680.588,-147.571 687.588,-147.571"/>
</g>
<!-- Node8 -->
<g id="node15" class="node"><title>Node8</title>
<a xlink:href="MojLog_8h.htm" target="_top" xlink:title="core/MojLog.h">
<polygon fill="white" stroke="black" points="721.088,-116.5 721.088,-137.5 805.088,-137.5 805.088,-116.5 721.088,-116.5"/>
<text text-anchor="middle" x="763.088" y="-124.5" font-family="Helvetica,sans-Serif" font-size="10.00">core/MojLog.h</text>
</a>
</g>
<!-- Node7&#45;&gt;Node8 -->
<g id="edge14" class="edge"><title>Node7&#45;&gt;Node8</title>
<path fill="none" stroke="midnightblue" d="M796.568,-174.362C790.962,-166.431 783.156,-155.389 776.491,-145.961"/>
<polygon fill="midnightblue" stroke="midnightblue" points="779.191,-143.716 770.56,-137.571 773.475,-147.757 779.191,-143.716"/>
</g>
<!-- Node9 -->
<g id="node17" class="node"><title>Node9</title>
<a xlink:href="MojListEntry_8h.htm" target="_top" xlink:title="core/MojListEntry.h">
<polygon fill="white" stroke="black" points="531.588,-58.5 531.588,-79.5 638.588,-79.5 638.588,-58.5 531.588,-58.5"/>
<text text-anchor="middle" x="585.088" y="-66.5" font-family="Helvetica,sans-Serif" font-size="10.00">core/MojListEntry.h</text>
</a>
</g>
<!-- Node8&#45;&gt;Node9 -->
<g id="edge16" class="edge"><title>Node8&#45;&gt;Node9</title>
<path fill="none" stroke="midnightblue" d="M730.854,-116.497C701.835,-107.041 658.998,-93.0829 627.264,-82.7428"/>
<polygon fill="midnightblue" stroke="midnightblue" points="627.975,-79.2934 617.383,-79.5231 625.807,-85.949 627.975,-79.2934"/>
</g>
<!-- Node10 -->
<g id="node19" class="node"><title>Node10</title>
<a xlink:href="MojNoCopy_8h.htm" target="_top" xlink:title="core/MojNoCopy.h">
<polygon fill="white" stroke="black" points="403.088,-0.5 403.088,-21.5 507.088,-21.5 507.088,-0.5 403.088,-0.5"/>
<text text-anchor="middle" x="455.088" y="-8.5" font-family="Helvetica,sans-Serif" font-size="10.00">core/MojNoCopy.h</text>
</a>
</g>
<!-- Node9&#45;&gt;Node10 -->
<g id="edge18" class="edge"><title>Node9&#45;&gt;Node10</title>
<path fill="none" stroke="midnightblue" d="M561.546,-58.4966C541.059,-49.3562 511.141,-36.0082 488.234,-25.7883"/>
<polygon fill="midnightblue" stroke="midnightblue" points="489.453,-22.4994 478.894,-21.6212 486.6,-28.892 489.453,-22.4994"/>
</g>
<!-- Node12 -->
<g id="node23" class="node"><title>Node12</title>
<a xlink:href="MojOsInternal_8h.htm" target="_top" xlink:title="core/internal/MojOsInternal.h">
<polygon fill="white" stroke="black" points="825.088,-116.5 825.088,-137.5 979.088,-137.5 979.088,-116.5 825.088,-116.5"/>
<text text-anchor="middle" x="902.088" y="-124.5" font-family="Helvetica,sans-Serif" font-size="10.00">core/internal/MojOsInternal.h</text>
</a>
</g>
<!-- Node11&#45;&gt;Node12 -->
<g id="edge22" class="edge"><title>Node11&#45;&gt;Node12</title>
<path fill="none" stroke="midnightblue" d="M902.088,-174.362C902.088,-166.922 902.088,-156.743 902.088,-147.728"/>
<polygon fill="midnightblue" stroke="midnightblue" points="905.588,-147.571 902.088,-137.571 898.588,-147.571 905.588,-147.571"/>
</g>
<!-- Node13&#45;&gt;Node2 -->
<g id="edge26" class="edge"><title>Node13&#45;&gt;Node2</title>
<path fill="none" stroke="midnightblue" d="M925.997,-796.732C896.38,-789.245 858.603,-777.344 828.088,-760 804.129,-746.382 781.048,-724.518 766.294,-709.056"/>
<polygon fill="midnightblue" stroke="midnightblue" points="768.754,-706.563 759.377,-701.632 763.632,-711.334 768.754,-706.563"/>
</g>
<!-- Node14 -->
<g id="node28" class="node"><title>Node14</title>
<a xlink:href="MojDbKey_8h.htm" target="_top" xlink:title="db/MojDbKey.h">
<polygon fill="white" stroke="black" points="836.588,-738.5 836.588,-759.5 923.588,-759.5 923.588,-738.5 836.588,-738.5"/>
<text text-anchor="middle" x="880.088" y="-746.5" font-family="Helvetica,sans-Serif" font-size="10.00">db/MojDbKey.h</text>
</a>
</g>
<!-- Node13&#45;&gt;Node14 -->
<g id="edge28" class="edge"><title>Node13&#45;&gt;Node14</title>
<path fill="none" stroke="midnightblue" d="M957.664,-796.362C943.201,-787.532 922.419,-774.844 906.004,-764.822"/>
<polygon fill="midnightblue" stroke="midnightblue" points="907.761,-761.794 897.402,-759.571 904.113,-767.769 907.761,-761.794"/>
</g>
<!-- Node28 -->
<g id="node70" class="node"><title>Node28</title>
<a xlink:href="MojObject_8h.htm" target="_top" xlink:title="core/MojObject.h">
<polygon fill="white" stroke="black" points="1030.09,-680.5 1030.09,-701.5 1126.09,-701.5 1126.09,-680.5 1030.09,-680.5"/>
<text text-anchor="middle" x="1078.09" y="-688.5" font-family="Helvetica,sans-Serif" font-size="10.00">core/MojObject.h</text>
</a>
</g>
<!-- Node13&#45;&gt;Node28 -->
<g id="edge152" class="edge"><title>Node13&#45;&gt;Node28</title>
<path fill="none" stroke="midnightblue" d="M984.593,-796.295C1002.22,-776.441 1040.17,-733.709 1061.91,-709.224"/>
<polygon fill="midnightblue" stroke="midnightblue" points="1064.58,-711.481 1068.61,-701.679 1059.35,-706.833 1064.58,-711.481"/>
</g>
<!-- Node33 -->
<g id="node88" class="node"><title>Node33</title>
<a xlink:href="MojString_8h.htm" target="_top" xlink:title="core/MojString.h">
<polygon fill="white" stroke="black" points="1107.09,-622.5 1107.09,-643.5 1201.09,-643.5 1201.09,-622.5 1107.09,-622.5"/>
<text text-anchor="middle" x="1154.09" y="-630.5" font-family="Helvetica,sans-Serif" font-size="10.00">core/MojString.h</text>
</a>
</g>
<!-- Node13&#45;&gt;Node33 -->
<g id="edge156" class="edge"><title>Node13&#45;&gt;Node33</title>
<path fill="none" stroke="midnightblue" d="M1002.11,-796.496C1037.95,-781.174 1100.67,-749.272 1135.09,-702 1145.35,-687.913 1150.07,-668.551 1152.24,-653.923"/>
<polygon fill="midnightblue" stroke="midnightblue" points="1155.73,-654.171 1153.45,-643.824 1148.78,-653.335 1155.73,-654.171"/>
</g>
<!-- Node34 -->
<g id="node96" class="node"><title>Node34</title>
<a xlink:href="MojSet_8h.htm" target="_top" xlink:title="core/MojSet.h">
<polygon fill="white" stroke="black" points="858.088,-557.5 858.088,-578.5 940.088,-578.5 940.088,-557.5 858.088,-557.5"/>
<text text-anchor="middle" x="899.088" y="-565.5" font-family="Helvetica,sans-Serif" font-size="10.00">core/MojSet.h</text>
</a>
</g>
<!-- Node13&#45;&gt;Node34 -->
<g id="edge154" class="edge"><title>Node13&#45;&gt;Node34</title>
<path fill="none" stroke="midnightblue" d="M971.724,-796.422C960.053,-759.72 921.169,-637.439 905.608,-588.503"/>
<polygon fill="midnightblue" stroke="midnightblue" points="908.865,-587.196 902.499,-578.727 902.194,-589.317 908.865,-587.196"/>
</g>
<!-- Node36 -->
<g id="node104" class="node"><title>Node36</title>
<a xlink:href="MojHashMap_8h.htm" target="_top" xlink:title="core/MojHashMap.h">
<polygon fill="white" stroke="black" points="1676.09,-622.5 1676.09,-643.5 1788.09,-643.5 1788.09,-622.5 1676.09,-622.5"/>
<text text-anchor="middle" x="1732.09" y="-630.5" font-family="Helvetica,sans-Serif" font-size="10.00">core/MojHashMap.h</text>
</a>
</g>
<!-- Node13&#45;&gt;Node36 -->
<g id="edge136" class="edge"><title>Node13&#45;&gt;Node36</title>
<path fill="none" stroke="midnightblue" d="M1021.02,-796.442C1152.88,-766.135 1532.31,-678.921 1676.02,-645.888"/>
<polygon fill="midnightblue" stroke="midnightblue" points="1676.99,-649.257 1685.95,-643.605 1675.42,-642.434 1676.99,-649.257"/>
</g>
<!-- Node14&#45;&gt;Node2 -->
<g id="edge30" class="edge"><title>Node14&#45;&gt;Node2</title>
<path fill="none" stroke="midnightblue" d="M856.546,-738.497C836.059,-729.356 806.141,-716.008 783.234,-705.788"/>
<polygon fill="midnightblue" stroke="midnightblue" points="784.453,-702.499 773.894,-701.621 781.6,-708.892 784.453,-702.499"/>
</g>
<!-- Node15 -->
<g id="node31" class="node"><title>Node15</title>
<a xlink:href="MojBuffer_8h.htm" target="_top" xlink:title="core/MojBuffer.h">
<polygon fill="white" stroke="black" points="279.088,-622.5 279.088,-643.5 373.088,-643.5 373.088,-622.5 279.088,-622.5"/>
<text text-anchor="middle" x="326.088" y="-630.5" font-family="Helvetica,sans-Serif" font-size="10.00">core/MojBuffer.h</text>
</a>
</g>
<!-- Node14&#45;&gt;Node15 -->
<g id="edge32" class="edge"><title>Node14&#45;&gt;Node15</title>
<path fill="none" stroke="midnightblue" d="M872.14,-738.334C859.641,-722.479 833.735,-693.154 804.088,-680 730.157,-647.198 493.789,-637.121 383.622,-634.163"/>
<polygon fill="midnightblue" stroke="midnightblue" points="383.451,-630.658 373.364,-633.899 383.271,-637.655 383.451,-630.658"/>
</g>
<!-- Node21 -->
<g id="node48" class="node"><title>Node21</title>
<a xlink:href="MojVector_8h.htm" target="_top" xlink:title="core/MojVector.h">
<polygon fill="white" stroke="black" points="631.588,-557.5 631.588,-578.5 728.588,-578.5 728.588,-557.5 631.588,-557.5"/>
<text text-anchor="middle" x="680.088" y="-565.5" font-family="Helvetica,sans-Serif" font-size="10.00">core/MojVector.h</text>
</a>
</g>
<!-- Node14&#45;&gt;Node21 -->
<g id="edge134" class="edge"><title>Node14&#45;&gt;Node21</title>
<path fill="none" stroke="midnightblue" d="M874.56,-738.352C866.798,-724.038 851.636,-698.279 834.088,-680 795.33,-639.628 740.488,-603.673 707.783,-583.948"/>
<polygon fill="midnightblue" stroke="midnightblue" points="709.166,-580.698 698.782,-578.593 705.587,-586.714 709.166,-580.698"/>
</g>
<!-- Node14&#45;&gt;Node28 -->
<g id="edge84" class="edge"><title>Node14&#45;&gt;Node28</title>
<path fill="none" stroke="midnightblue" d="M915.944,-738.497C948.643,-728.918 997.114,-714.72 1032.54,-704.342"/>
<polygon fill="midnightblue" stroke="midnightblue" points="1033.55,-707.693 1042.16,-701.523 1031.58,-700.975 1033.55,-707.693"/>
</g>
<!-- Node14&#45;&gt;Node34 -->
<g id="edge124" class="edge"><title>Node14&#45;&gt;Node34</title>
<path fill="none" stroke="midnightblue" d="M881.192,-738.486C884.248,-709.37 892.864,-627.292 896.922,-588.63"/>
<polygon fill="midnightblue" stroke="midnightblue" points="900.418,-588.853 897.981,-578.543 893.456,-588.123 900.418,-588.853"/>
</g>
<!-- Node15&#45;&gt;Node3 -->
<g id="edge34" class="edge"><title>Node15&#45;&gt;Node3</title>
<path fill="none" stroke="midnightblue" d="M278.774,-628.03C238.041,-622.273 178.645,-610.268 132.088,-586 82.6662,-560.238 38.088,-558.733 38.088,-503 38.088,-503 38.088,-503 38.088,-366 38.088,-332.265 -14.41,-341.163 192.088,-290 313.039,-260.032 684.281,-248.109 836.221,-244.4"/>
<polygon fill="midnightblue" stroke="midnightblue" points="836.428,-247.897 846.341,-244.158 836.26,-240.899 836.428,-247.897"/>
</g>
<!-- Node16 -->
<g id="node34" class="node"><title>Node16</title>
<a xlink:href="MojAutoPtr_8h.htm" target="_top" xlink:title="core/MojAutoPtr.h">
<polygon fill="white" stroke="black" points="689.588,-427.5 689.588,-448.5 790.588,-448.5 790.588,-427.5 689.588,-427.5"/>
<text text-anchor="middle" x="740.088" y="-435.5" font-family="Helvetica,sans-Serif" font-size="10.00">core/MojAutoPtr.h</text>
</a>
</g>
<!-- Node15&#45;&gt;Node16 -->
<g id="edge36" class="edge"><title>Node15&#45;&gt;Node16</title>
<path fill="none" stroke="midnightblue" d="M323.715,-622.325C318.562,-596.025 309.492,-527.665 345.088,-492 368.304,-468.739 574.484,-450.271 679.37,-442.286"/>
<polygon fill="midnightblue" stroke="midnightblue" points="679.791,-445.765 689.5,-441.524 679.266,-438.784 679.791,-445.765"/>
</g>
<!-- Node19 -->
<g id="node43" class="node"><title>Node19</title>
<a xlink:href="MojList_8h.htm" target="_top" xlink:title="core/MojList.h">
<polygon fill="white" stroke="black" points="140.588,-557.5 140.588,-578.5 223.588,-578.5 223.588,-557.5 140.588,-557.5"/>
<text text-anchor="middle" x="182.088" y="-565.5" font-family="Helvetica,sans-Serif" font-size="10.00">core/MojList.h</text>
</a>
</g>
<!-- Node15&#45;&gt;Node19 -->
<g id="edge48" class="edge"><title>Node15&#45;&gt;Node19</title>
<path fill="none" stroke="midnightblue" d="M302.631,-622.412C278.783,-611.647 241.633,-594.878 214.878,-582.801"/>
<polygon fill="midnightblue" stroke="midnightblue" points="216.089,-579.508 205.535,-578.584 213.209,-585.888 216.089,-579.508"/>
</g>
<!-- Node15&#45;&gt;Node21 -->
<g id="edge54" class="edge"><title>Node15&#45;&gt;Node21</title>
<path fill="none" stroke="midnightblue" d="M373.096,-624.369C437.182,-612.601 551.937,-591.531 621.535,-578.751"/>
<polygon fill="midnightblue" stroke="midnightblue" points="622.261,-582.177 631.464,-576.928 620.996,-575.292 622.261,-582.177"/>
</g>
<!-- Node16&#45;&gt;Node3 -->
<g id="edge38" class="edge"><title>Node16&#45;&gt;Node3</title>
<path fill="none" stroke="midnightblue" d="M736.11,-427.492C730.127,-409.83 720.936,-373.614 735.088,-348 760.946,-301.198 817.378,-272.429 857.474,-257.104"/>
<polygon fill="midnightblue" stroke="midnightblue" points="858.858,-260.324 867.033,-253.585 856.439,-253.755 858.858,-260.324"/>
</g>
<!-- Node16&#45;&gt;Node10 -->
<g id="edge44" class="edge"><title>Node16&#45;&gt;Node10</title>
<path fill="none" stroke="midnightblue" d="M689.323,-432.069C578.774,-417.74 326.088,-376.708 326.088,-301 326.088,-301 326.088,-301 326.088,-127 326.088,-77.2991 379.687,-43.4739 417.787,-25.7084"/>
<polygon fill="midnightblue" stroke="midnightblue" points="419.402,-28.8202 427.097,-21.5379 416.54,-22.4319 419.402,-28.8202"/>
</g>
<!-- Node17 -->
<g id="node37" class="node"><title>Node17</title>
<a xlink:href="MojAtomicInt_8h.htm" target="_top" xlink:title="core/MojAtomicInt.h">
<polygon fill="white" stroke="black" points="524.088,-355.5 524.088,-376.5 634.088,-376.5 634.088,-355.5 524.088,-355.5"/>
<text text-anchor="middle" x="579.088" y="-363.5" font-family="Helvetica,sans-Serif" font-size="10.00">core/MojAtomicInt.h</text>
</a>
</g>
<!-- Node16&#45;&gt;Node17 -->
<g id="edge40" class="edge"><title>Node16&#45;&gt;Node17</title>
<path fill="none" stroke="midnightblue" d="M716.332,-427.376C688.786,-415.057 643.204,-394.673 612.194,-380.805"/>
<polygon fill="midnightblue" stroke="midnightblue" points="613.237,-377.438 602.679,-376.55 610.379,-383.828 613.237,-377.438"/>
</g>
<!-- Node18 -->
<g id="node41" class="node"><title>Node18</title>
<a xlink:href="MojAutoPtrInternal_8h.htm" target="_top" xlink:title="core/internal/MojAutoPtr\lInternal.h">
<polygon fill="white" stroke="black" points="743.588,-349 743.588,-383 874.588,-383 874.588,-349 743.588,-349"/>
<text text-anchor="start" x="751.588" y="-370" font-family="Helvetica,sans-Serif" font-size="10.00">core/internal/MojAutoPtr</text>
<text text-anchor="middle" x="809.088" y="-357" font-family="Helvetica,sans-Serif" font-size="10.00">Internal.h</text>
</a>
</g>
<!-- Node16&#45;&gt;Node18 -->
<g id="edge46" class="edge"><title>Node16&#45;&gt;Node18</title>
<path fill="none" stroke="midnightblue" d="M750.269,-427.376C759.52,-417.723 773.518,-403.116 785.538,-390.574"/>
<polygon fill="midnightblue" stroke="midnightblue" points="788.314,-392.736 792.706,-383.094 783.26,-387.893 788.314,-392.736"/>
</g>
<!-- Node17&#45;&gt;Node3 -->
<g id="edge42" class="edge"><title>Node17&#45;&gt;Node3</title>
<path fill="none" stroke="midnightblue" d="M585.42,-355.408C596.078,-338.59 619.287,-306.046 648.088,-290 679.65,-272.416 772.106,-258.347 836.297,-250.335"/>
<polygon fill="midnightblue" stroke="midnightblue" points="836.844,-253.794 846.343,-249.102 835.991,-246.847 836.844,-253.794"/>
</g>
<!-- Node19&#45;&gt;Node3 -->
<g id="edge50" class="edge"><title>Node19&#45;&gt;Node3</title>
<path fill="none" stroke="midnightblue" d="M154.134,-557.359C134.75,-548.576 109.858,-534.252 95.088,-514 74.5716,-485.87 76.088,-472.817 76.088,-438 76.088,-438 76.088,-438 76.088,-366 76.088,-289.307 640.358,-255.365 836.137,-245.897"/>
<polygon fill="midnightblue" stroke="midnightblue" points="836.465,-249.385 846.287,-245.412 836.131,-242.393 836.465,-249.385"/>
</g>
<!-- Node20 -->
<g id="node46" class="node"><title>Node20</title>
<a xlink:href="MojListInternal_8h.htm" target="_top" xlink:title="core/internal/MojListInternal.h">
<polygon fill="white" stroke="black" points="103.588,-492.5 103.588,-513.5 260.588,-513.5 260.588,-492.5 103.588,-492.5"/>
<text text-anchor="middle" x="182.088" y="-500.5" font-family="Helvetica,sans-Serif" font-size="10.00">core/internal/MojListInternal.h</text>
</a>
</g>
<!-- Node19&#45;&gt;Node20 -->
<g id="edge52" class="edge"><title>Node19&#45;&gt;Node20</title>
<path fill="none" stroke="midnightblue" d="M182.088,-557.267C182.088,-548.18 182.088,-534.892 182.088,-523.74"/>
<polygon fill="midnightblue" stroke="midnightblue" points="185.588,-523.534 182.088,-513.534 178.588,-523.534 185.588,-523.534"/>
</g>
<!-- Node21&#45;&gt;Node3 -->
<g id="edge56" class="edge"><title>Node21&#45;&gt;Node3</title>
<path fill="none" stroke="midnightblue" d="M631.527,-563.632C543.16,-555.19 363.447,-535.555 345.088,-514 338.748,-506.556 341.509,-501.099 345.088,-492 393.077,-369.984 438.278,-338.51 560.088,-290 608.911,-270.556 751.338,-255.696 836.211,-248.264"/>
<polygon fill="midnightblue" stroke="midnightblue" points="836.604,-251.743 846.266,-247.394 836.001,-244.769 836.604,-251.743"/>
</g>
<!-- Node22 -->
<g id="node51" class="node"><title>Node22</title>
<a xlink:href="MojComp_8h.htm" target="_top" xlink:title="core/MojComp.h">
<polygon fill="white" stroke="black" points="1141.09,-290.5 1141.09,-311.5 1235.09,-311.5 1235.09,-290.5 1141.09,-290.5"/>
<text text-anchor="middle" x="1188.09" y="-298.5" font-family="Helvetica,sans-Serif" font-size="10.00">core/MojComp.h</text>
</a>
</g>
<!-- Node21&#45;&gt;Node22 -->
<g id="edge58" class="edge"><title>Node21&#45;&gt;Node22</title>
<path fill="none" stroke="midnightblue" d="M691.76,-557.313C712.776,-538.307 756.52,-499.879 775.088,-492 890.589,-442.989 944.665,-515.575 1055.09,-456 1114.17,-424.127 1158.6,-354.631 1177.74,-320.586"/>
<polygon fill="midnightblue" stroke="midnightblue" points="1180.92,-322.062 1182.66,-311.611 1174.78,-318.698 1180.92,-322.062"/>
</g>
<!-- Node23 -->
<g id="node54" class="node"><title>Node23</title>
<a xlink:href="MojRefCount_8h.htm" target="_top" xlink:title="core/MojRefCount.h">
<polygon fill="white" stroke="black" points="354.088,-492.5 354.088,-513.5 464.088,-513.5 464.088,-492.5 354.088,-492.5"/>
<text text-anchor="middle" x="409.088" y="-500.5" font-family="Helvetica,sans-Serif" font-size="10.00">core/MojRefCount.h</text>
</a>
</g>
<!-- Node21&#45;&gt;Node23 -->
<g id="edge62" class="edge"><title>Node21&#45;&gt;Node23</title>
<path fill="none" stroke="midnightblue" d="M636.246,-557.484C588.918,-546.133 513.504,-528.044 462.687,-515.856"/>
<polygon fill="midnightblue" stroke="midnightblue" points="463.408,-512.429 452.867,-513.501 461.775,-519.236 463.408,-512.429"/>
</g>
<!-- Node26 -->
<g id="node64" class="node"><title>Node26</title>
<a xlink:href="MojUtil_8h.htm" target="_top" xlink:title="core/MojUtil.h">
<polygon fill="white" stroke="black" points="965.588,-427.5 965.588,-448.5 1046.59,-448.5 1046.59,-427.5 965.588,-427.5"/>
<text text-anchor="middle" x="1006.09" y="-435.5" font-family="Helvetica,sans-Serif" font-size="10.00">core/MojUtil.h</text>
</a>
</g>
<!-- Node21&#45;&gt;Node26 -->
<g id="edge76" class="edge"><title>Node21&#45;&gt;Node26</title>
<path fill="none" stroke="midnightblue" d="M685.464,-557.356C694.6,-540.466 714.848,-507.822 742.088,-492 825.867,-443.339 863.433,-480.811 957.088,-456 961.494,-454.833 966.061,-453.429 970.554,-451.927"/>
<polygon fill="midnightblue" stroke="midnightblue" points="971.914,-455.159 980.184,-448.536 969.589,-448.557 971.914,-455.159"/>
</g>
<!-- Node27 -->
<g id="node68" class="node"><title>Node27</title>
<a xlink:href="MojVectorInternal_8h.htm" target="_top" xlink:title="core/internal/MojVectorInternal.h">
<polygon fill="white" stroke="black" points="481.588,-492.5 481.588,-513.5 652.588,-513.5 652.588,-492.5 481.588,-492.5"/>
<text text-anchor="middle" x="567.088" y="-500.5" font-family="Helvetica,sans-Serif" font-size="10.00">core/internal/MojVectorInternal.h</text>
</a>
</g>
<!-- Node21&#45;&gt;Node27 -->
<g id="edge82" class="edge"><title>Node21&#45;&gt;Node27</title>
<path fill="none" stroke="midnightblue" d="M661.681,-557.412C643.377,-546.883 615.088,-530.611 594.212,-518.602"/>
<polygon fill="midnightblue" stroke="midnightblue" points="595.9,-515.536 585.487,-513.584 592.41,-521.604 595.9,-515.536"/>
</g>
<!-- Node22&#45;&gt;Node3 -->
<g id="edge60" class="edge"><title>Node22&#45;&gt;Node3</title>
<path fill="none" stroke="midnightblue" d="M1140.86,-291.422C1092.57,-281.629 1017.31,-266.366 964.21,-255.598"/>
<polygon fill="midnightblue" stroke="midnightblue" points="964.729,-252.132 954.233,-253.575 963.338,-258.993 964.729,-252.132"/>
</g>
<!-- Node23&#45;&gt;Node3 -->
<g id="edge64" class="edge"><title>Node23&#45;&gt;Node3</title>
<path fill="none" stroke="midnightblue" d="M414.148,-492.352C427.422,-465.316 465.66,-392.981 515.088,-348 553.944,-312.64 568.531,-307.442 618.088,-290 690.243,-264.604 777.639,-252.775 836.257,-247.368"/>
<polygon fill="midnightblue" stroke="midnightblue" points="836.842,-250.83 846.495,-246.462 836.225,-243.857 836.842,-250.83"/>
</g>
<!-- Node23&#45;&gt;Node16 -->
<g id="edge68" class="edge"><title>Node23&#45;&gt;Node16</title>
<path fill="none" stroke="midnightblue" d="M462.637,-492.484C521.912,-480.844 617.257,-462.121 679.294,-449.938"/>
<polygon fill="midnightblue" stroke="midnightblue" points="680.195,-453.328 689.333,-447.967 678.846,-446.46 680.195,-453.328"/>
</g>
<!-- Node23&#45;&gt;Node17 -->
<g id="edge66" class="edge"><title>Node23&#45;&gt;Node17</title>
<path fill="none" stroke="midnightblue" d="M422.145,-492.477C451.369,-468.927 522.266,-411.792 557.901,-383.074"/>
<polygon fill="midnightblue" stroke="midnightblue" points="560.162,-385.748 565.752,-376.747 555.769,-380.297 560.162,-385.748"/>
</g>
<!-- Node24 -->
<g id="node59" class="node"><title>Node24</title>
<a xlink:href="MojRefCountInternal_8h.htm" target="_top" xlink:title="core/internal/MojRefCount\lInternal.h">
<polygon fill="white" stroke="black" points="808.088,-421 808.088,-455 948.088,-455 948.088,-421 808.088,-421"/>
<text text-anchor="start" x="816.088" y="-442" font-family="Helvetica,sans-Serif" font-size="10.00">core/internal/MojRefCount</text>
<text text-anchor="middle" x="878.088" y="-429" font-family="Helvetica,sans-Serif" font-size="10.00">Internal.h</text>
</a>
</g>
<!-- Node23&#45;&gt;Node24 -->
<g id="edge70" class="edge"><title>Node23&#45;&gt;Node24</title>
<path fill="none" stroke="midnightblue" d="M464.213,-493.309C467.212,-492.849 470.185,-492.409 473.088,-492 614.187,-472.102 653.589,-479.86 797.847,-456.103"/>
<polygon fill="midnightblue" stroke="midnightblue" points="798.672,-459.514 807.959,-454.415 797.52,-452.61 798.672,-459.514"/>
</g>
<!-- Node25 -->
<g id="node61" class="node"><title>Node25</title>
<a xlink:href="MojUtilInternal_8h.htm" target="_top" xlink:title="core/internal/MojUtilInternal.h">
<polygon fill="white" stroke="black" points="929.588,-355.5 929.588,-376.5 1084.59,-376.5 1084.59,-355.5 929.588,-355.5"/>
<text text-anchor="middle" x="1007.09" y="-363.5" font-family="Helvetica,sans-Serif" font-size="10.00">core/internal/MojUtilInternal.h</text>
</a>
</g>
<!-- Node24&#45;&gt;Node25 -->
<g id="edge72" class="edge"><title>Node24&#45;&gt;Node25</title>
<path fill="none" stroke="midnightblue" d="M908.659,-420.937C929.981,-409.037 958.217,-393.277 978.978,-381.689"/>
<polygon fill="midnightblue" stroke="midnightblue" points="980.912,-384.618 987.939,-376.688 977.501,-378.506 980.912,-384.618"/>
</g>
<!-- Node25&#45;&gt;Node22 -->
<g id="edge74" class="edge"><title>Node25&#45;&gt;Node22</title>
<path fill="none" stroke="midnightblue" d="M1036.57,-355.412C1067.21,-344.411 1115.3,-327.14 1149.07,-315.013"/>
<polygon fill="midnightblue" stroke="midnightblue" points="1150.39,-318.257 1158.62,-311.584 1148.02,-311.669 1150.39,-318.257"/>
</g>
<!-- Node26&#45;&gt;Node3 -->
<g id="edge78" class="edge"><title>Node26&#45;&gt;Node3</title>
<path fill="none" stroke="midnightblue" d="M977.675,-427.484C958.468,-418.832 934.284,-404.615 921.088,-384 897.341,-346.902 897.459,-293.069 899.716,-263.818"/>
<polygon fill="midnightblue" stroke="midnightblue" points="903.228,-263.848 900.677,-253.565 896.259,-263.195 903.228,-263.848"/>
</g>
<!-- Node26&#45;&gt;Node25 -->
<g id="edge80" class="edge"><title>Node26&#45;&gt;Node25</title>
<path fill="none" stroke="midnightblue" d="M1006.24,-427.376C1006.38,-416.741 1006.61,-400.095 1006.8,-386.82"/>
<polygon fill="midnightblue" stroke="midnightblue" points="1010.3,-386.715 1006.94,-376.667 1003.3,-386.618 1010.3,-386.715"/>
</g>
<!-- Node28&#45;&gt;Node3 -->
<g id="edge86" class="edge"><title>Node28&#45;&gt;Node3</title>
<path fill="none" stroke="midnightblue" d="M1126.19,-685.718C1263.61,-669.985 1648.09,-621.212 1648.09,-568 1648.09,-568 1648.09,-568 1648.09,-366 1648.09,-346.533 1655.82,-330.798 1530.09,-290 1426.98,-256.544 1106.83,-246.718 967.727,-243.988"/>
<polygon fill="midnightblue" stroke="midnightblue" points="967.694,-240.487 957.63,-243.796 967.561,-247.486 967.694,-240.487"/>
</g>
<!-- Node28&#45;&gt;Node21 -->
<g id="edge122" class="edge"><title>Node28&#45;&gt;Node21</title>
<path fill="none" stroke="midnightblue" d="M1048.68,-680.409C1009.34,-666.382 937.34,-641.182 875.088,-622 826.345,-606.981 770.165,-591.628 730.664,-581.151"/>
<polygon fill="midnightblue" stroke="midnightblue" points="731.558,-577.767 720.996,-578.595 729.769,-584.534 731.558,-577.767"/>
</g>
<!-- Node29 -->
<g id="node73" class="node"><title>Node29</title>
<a xlink:href="MojDecimal_8h.htm" target="_top" xlink:title="core/MojDecimal.h">
<polygon fill="white" stroke="black" points="1440.09,-557.5 1440.09,-578.5 1544.09,-578.5 1544.09,-557.5 1440.09,-557.5"/>
<text text-anchor="middle" x="1492.09" y="-565.5" font-family="Helvetica,sans-Serif" font-size="10.00">core/MojDecimal.h</text>
</a>
</g>
<!-- Node28&#45;&gt;Node29 -->
<g id="edge88" class="edge"><title>Node28&#45;&gt;Node29</title>
<path fill="none" stroke="midnightblue" d="M1113.74,-680.407C1189.04,-658.036 1364.12,-606.018 1447.03,-581.388"/>
<polygon fill="midnightblue" stroke="midnightblue" points="1448.08,-584.727 1456.67,-578.524 1446.08,-578.017 1448.08,-584.727"/>
</g>
<!-- Node31 -->
<g id="node80" class="node"><title>Node31</title>
<a xlink:href="MojMap_8h.htm" target="_top" xlink:title="core/MojMap.h">
<polygon fill="white" stroke="black" points="1062.59,-557.5 1062.59,-578.5 1149.59,-578.5 1149.59,-557.5 1062.59,-557.5"/>
<text text-anchor="middle" x="1106.09" y="-565.5" font-family="Helvetica,sans-Serif" font-size="10.00">core/MojMap.h</text>
</a>
</g>
<!-- Node28&#45;&gt;Node31 -->
<g id="edge98" class="edge"><title>Node28&#45;&gt;Node31</title>
<path fill="none" stroke="midnightblue" d="M1080.57,-680.085C1085.23,-659.609 1095.36,-615.133 1101.36,-588.778"/>
<polygon fill="midnightblue" stroke="midnightblue" points="1104.84,-589.243 1103.65,-578.715 1098.02,-587.689 1104.84,-589.243"/>
</g>
<!-- Node28&#45;&gt;Node33 -->
<g id="edge110" class="edge"><title>Node28&#45;&gt;Node33</title>
<path fill="none" stroke="midnightblue" d="M1092.03,-680.362C1103.28,-671.777 1119.3,-659.546 1132.25,-649.664"/>
<polygon fill="midnightblue" stroke="midnightblue" points="1134.41,-652.42 1140.24,-643.571 1130.16,-646.855 1134.41,-652.42"/>
</g>
<!-- Node29&#45;&gt;Node3 -->
<g id="edge90" class="edge"><title>Node29&#45;&gt;Node3</title>
<path fill="none" stroke="midnightblue" d="M1496.84,-557.482C1511.1,-524.183 1550.2,-419.092 1510.09,-348 1485.59,-304.584 1461.45,-305.563 1414.09,-290 1332.92,-263.328 1086.87,-250.265 967.9,-245.372"/>
<polygon fill="midnightblue" stroke="midnightblue" points="967.962,-241.871 957.828,-244.965 967.679,-248.866 967.962,-241.871"/>
</g>
<!-- Node30 -->
<g id="node76" class="node"><title>Node30</title>
<a xlink:href="MojHasher_8h.htm" target="_top" xlink:title="core/MojHasher.h">
<polygon fill="white" stroke="black" points="1367.59,-492.5 1367.59,-513.5 1468.59,-513.5 1468.59,-492.5 1367.59,-492.5"/>
<text text-anchor="middle" x="1418.09" y="-500.5" font-family="Helvetica,sans-Serif" font-size="10.00">core/MojHasher.h</text>
</a>
</g>
<!-- Node29&#45;&gt;Node30 -->
<g id="edge92" class="edge"><title>Node29&#45;&gt;Node30</title>
<path fill="none" stroke="midnightblue" d="M1479.87,-557.267C1468.45,-547.233 1451.19,-532.078 1437.82,-520.331"/>
<polygon fill="midnightblue" stroke="midnightblue" points="1439.9,-517.504 1430.08,-513.534 1435.28,-522.763 1439.9,-517.504"/>
</g>
<!-- Node30&#45;&gt;Node3 -->
<g id="edge94" class="edge"><title>Node30&#45;&gt;Node3</title>
<path fill="none" stroke="midnightblue" d="M1416.6,-492.293C1411.04,-456.611 1387.9,-341.12 1316.09,-290 1288.36,-270.265 1077.7,-254.148 968.024,-246.993"/>
<polygon fill="midnightblue" stroke="midnightblue" points="967.94,-243.48 957.735,-246.329 967.489,-250.466 967.94,-243.48"/>
</g>
<!-- Node30&#45;&gt;Node26 -->
<g id="edge96" class="edge"><title>Node30&#45;&gt;Node26</title>
<path fill="none" stroke="midnightblue" d="M1367.45,-494.218C1362.93,-493.458 1358.43,-492.71 1354.09,-492 1248.49,-474.733 1124.63,-455.836 1056.83,-445.609"/>
<polygon fill="midnightblue" stroke="midnightblue" points="1057.25,-442.133 1046.84,-444.104 1056.21,-449.055 1057.25,-442.133"/>
</g>
<!-- Node31&#45;&gt;Node3 -->
<g id="edge100" class="edge"><title>Node31&#45;&gt;Node3</title>
<path fill="none" stroke="midnightblue" d="M1149.68,-557.514C1173.86,-549.499 1202.51,-535.98 1220.09,-514 1282.61,-435.798 1309.89,-365.465 1244.09,-290 1226.23,-269.516 1061.97,-254.463 967.752,-247.43"/>
<polygon fill="midnightblue" stroke="midnightblue" points="967.971,-243.936 957.741,-246.693 967.457,-250.918 967.971,-243.936"/>
</g>
<!-- Node31&#45;&gt;Node22 -->
<g id="edge102" class="edge"><title>Node31&#45;&gt;Node22</title>
<path fill="none" stroke="midnightblue" d="M1143.36,-557.416C1164.6,-549.257 1189.44,-535.624 1202.09,-514 1238.5,-451.745 1211.46,-361.05 1196.4,-321.132"/>
<polygon fill="midnightblue" stroke="midnightblue" points="1199.61,-319.736 1192.7,-311.704 1193.09,-322.291 1199.61,-319.736"/>
</g>
<!-- Node32 -->
<g id="node84" class="node"><title>Node32</title>
<a xlink:href="MojRbTreeBase_8h.htm" target="_top" xlink:title="core/internal/MojRbTreeBase.h">
<polygon fill="white" stroke="black" points="996.088,-492.5 996.088,-513.5 1160.09,-513.5 1160.09,-492.5 996.088,-492.5"/>
<text text-anchor="middle" x="1078.09" y="-500.5" font-family="Helvetica,sans-Serif" font-size="10.00">core/internal/MojRbTreeBase.h</text>
</a>
</g>
<!-- Node31&#45;&gt;Node32 -->
<g id="edge104" class="edge"><title>Node31&#45;&gt;Node32</title>
<path fill="none" stroke="midnightblue" d="M1101.46,-557.267C1097.47,-547.991 1091.59,-534.336 1086.72,-523.045"/>
<polygon fill="midnightblue" stroke="midnightblue" points="1089.8,-521.333 1082.63,-513.534 1083.37,-524.103 1089.8,-521.333"/>
</g>
<!-- Node32&#45;&gt;Node3 -->
<g id="edge106" class="edge"><title>Node32&#45;&gt;Node3</title>
<path fill="none" stroke="midnightblue" d="M1083.17,-492.288C1094.97,-465.712 1121.16,-395.472 1093.09,-348 1063.93,-298.691 1002.46,-270.981 957.093,-256.569"/>
<polygon fill="midnightblue" stroke="midnightblue" points="957.972,-253.178 947.386,-253.608 955.93,-259.873 957.972,-253.178"/>
</g>
<!-- Node32&#45;&gt;Node16 -->
<g id="edge108" class="edge"><title>Node32&#45;&gt;Node16</title>
<path fill="none" stroke="midnightblue" d="M999.075,-492.47C942.912,-484.31 865.902,-471.75 799.088,-456 793.412,-454.662 787.481,-453.079 781.661,-451.415"/>
<polygon fill="midnightblue" stroke="midnightblue" points="782.617,-448.048 772.035,-448.569 780.632,-454.761 782.617,-448.048"/>
</g>
<!-- Node33&#45;&gt;Node3 -->
<g id="edge112" class="edge"><title>Node33&#45;&gt;Node3</title>
<path fill="none" stroke="midnightblue" d="M1201.3,-630.165C1300.92,-623.794 1525.75,-607.228 1553.09,-586 1608.76,-542.771 1610.09,-508.488 1610.09,-438 1610.09,-438 1610.09,-438 1610.09,-366 1610.09,-290.868 1531.39,-310.419 1459.09,-290 1368.48,-264.411 1095.21,-250.611 968.246,-245.43"/>
<polygon fill="midnightblue" stroke="midnightblue" points="968.026,-241.918 957.893,-245.013 967.744,-248.912 968.026,-241.918"/>
</g>
<!-- Node33&#45;&gt;Node16 -->
<g id="edge114" class="edge"><title>Node33&#45;&gt;Node16</title>
<path fill="none" stroke="midnightblue" d="M1126.21,-622.463C1105.48,-614.033 1076.96,-601.143 1054.09,-586 1001.86,-551.425 1004.56,-521.082 949.088,-492 888.367,-460.167 865.24,-474.011 799.088,-456 793.857,-454.576 788.387,-453.011 782.979,-451.417"/>
<polygon fill="midnightblue" stroke="midnightblue" points="783.956,-448.056 773.372,-448.54 781.948,-454.762 783.956,-448.056"/>
</g>
<!-- Node33&#45;&gt;Node21 -->
<g id="edge120" class="edge"><title>Node33&#45;&gt;Node21</title>
<path fill="none" stroke="midnightblue" d="M1106.91,-626.53C1019.81,-614.586 834.006,-589.107 738.874,-576.061"/>
<polygon fill="midnightblue" stroke="midnightblue" points="739.229,-572.577 728.846,-574.686 738.277,-579.512 739.229,-572.577"/>
</g>
<!-- Node33&#45;&gt;Node22 -->
<g id="edge116" class="edge"><title>Node33&#45;&gt;Node22</title>
<path fill="none" stroke="midnightblue" d="M1161.38,-622.356C1174.9,-602.136 1203.96,-556.396 1220.09,-514 1229.48,-489.308 1230.18,-482.257 1233.09,-456 1238.39,-408.126 1242.36,-392.568 1224.09,-348 1219.76,-337.443 1212.42,-327.205 1205.49,-318.994"/>
<polygon fill="midnightblue" stroke="midnightblue" points="1208.09,-316.654 1198.82,-311.522 1202.87,-321.314 1208.09,-316.654"/>
</g>
<!-- Node33&#45;&gt;Node30 -->
<g id="edge118" class="edge"><title>Node33&#45;&gt;Node30</title>
<path fill="none" stroke="midnightblue" d="M1169.03,-622.435C1182.13,-613.078 1201.6,-598.933 1218.09,-586 1237.7,-570.616 1239.14,-561.817 1261.09,-550 1291.02,-533.881 1327.22,-522.57 1357.31,-515.09"/>
<polygon fill="midnightblue" stroke="midnightblue" points="1358.35,-518.438 1367.26,-512.699 1356.72,-511.632 1358.35,-518.438"/>
</g>
<!-- Node34&#45;&gt;Node3 -->
<g id="edge126" class="edge"><title>Node34&#45;&gt;Node3</title>
<path fill="none" stroke="midnightblue" d="M858.02,-560.168C788.787,-544.572 658.464,-503.683 681.088,-420 698.793,-354.51 707.339,-331.395 761.088,-290 782.926,-273.182 811.089,-262.216 836.496,-255.146"/>
<polygon fill="midnightblue" stroke="midnightblue" points="837.665,-258.458 846.447,-252.532 835.886,-251.688 837.665,-258.458"/>
</g>
<!-- Node34&#45;&gt;Node22 -->
<g id="edge128" class="edge"><title>Node34&#45;&gt;Node22</title>
<path fill="none" stroke="midnightblue" d="M940.366,-562.493C1012.17,-552.518 1153.91,-530.925 1169.09,-514 1194.1,-486.112 1191.49,-369.814 1189.26,-321.836"/>
<polygon fill="midnightblue" stroke="midnightblue" points="1192.74,-321.505 1188.74,-311.695 1185.75,-321.859 1192.74,-321.505"/>
</g>
<!-- Node34&#45;&gt;Node32 -->
<g id="edge130" class="edge"><title>Node34&#45;&gt;Node32</title>
<path fill="none" stroke="midnightblue" d="M928.246,-557.412C958.541,-546.411 1006.1,-529.14 1039.5,-517.013"/>
<polygon fill="midnightblue" stroke="midnightblue" points="1040.74,-520.287 1048.94,-513.584 1038.35,-513.707 1040.74,-520.287"/>
</g>
<!-- Node35 -->
<g id="node101" class="node"><title>Node35</title>
<a xlink:href="MojSetInternal_8h.htm" target="_top" xlink:title="core/internal/MojSetInternal.h">
<polygon fill="white" stroke="black" points="784.088,-492.5 784.088,-513.5 940.088,-513.5 940.088,-492.5 784.088,-492.5"/>
<text text-anchor="middle" x="862.088" y="-500.5" font-family="Helvetica,sans-Serif" font-size="10.00">core/internal/MojSetInternal.h</text>
</a>
</g>
<!-- Node34&#45;&gt;Node35 -->
<g id="edge132" class="edge"><title>Node34&#45;&gt;Node35</title>
<path fill="none" stroke="midnightblue" d="M892.978,-557.267C887.59,-547.801 879.607,-533.777 873.107,-522.357"/>
<polygon fill="midnightblue" stroke="midnightblue" points="876.073,-520.493 868.084,-513.534 869.989,-523.956 876.073,-520.493"/>
</g>
<!-- Node36&#45;&gt;Node3 -->
<g id="edge138" class="edge"><title>Node36&#45;&gt;Node3</title>
<path fill="none" stroke="midnightblue" d="M1771.49,-622.333C1790.95,-615.122 1813.18,-603.621 1827.09,-586 1850.53,-556.296 1846.09,-540.843 1846.09,-503 1846.09,-503 1846.09,-503 1846.09,-366 1846.09,-277.521 1748.3,-309.89 1662.09,-290 1530.92,-259.74 1127.48,-247.881 967.97,-244.296"/>
<polygon fill="midnightblue" stroke="midnightblue" points="967.897,-240.794 957.822,-244.072 967.742,-247.792 967.897,-240.794"/>
</g>
<!-- Node36&#45;&gt;Node22 -->
<g id="edge140" class="edge"><title>Node36&#45;&gt;Node22</title>
<path fill="none" stroke="midnightblue" d="M1714.6,-622.33C1635.32,-573.94 1309.28,-374.965 1214.22,-316.947"/>
<polygon fill="midnightblue" stroke="midnightblue" points="1215.87,-313.852 1205.51,-311.631 1212.22,-319.828 1215.87,-313.852"/>
</g>
<!-- Node37 -->
<g id="node108" class="node"><title>Node37</title>
<a xlink:href="MojHashBase_8h.htm" target="_top" xlink:title="core/internal/MojHashBase.h">
<polygon fill="white" stroke="black" points="1269.59,-557.5 1269.59,-578.5 1422.59,-578.5 1422.59,-557.5 1269.59,-557.5"/>
<text text-anchor="middle" x="1346.09" y="-565.5" font-family="Helvetica,sans-Serif" font-size="10.00">core/internal/MojHashBase.h</text>
</a>
</g>
<!-- Node36&#45;&gt;Node37 -->
<g id="edge142" class="edge"><title>Node36&#45;&gt;Node37</title>
<path fill="none" stroke="midnightblue" d="M1675.91,-625.149C1615.33,-616.469 1516.14,-601.634 1431.09,-586 1422.15,-584.358 1412.72,-582.492 1403.52,-580.599"/>
<polygon fill="midnightblue" stroke="midnightblue" points="1404.16,-577.157 1393.65,-578.544 1402.73,-584.01 1404.16,-577.157"/>
</g>
<!-- Node38 -->
<g id="node113" class="node"><title>Node38</title>
<a xlink:href="MojHashMapInternal_8h.htm" target="_top" xlink:title="core/internal/MojHashMap\lInternal.h">
<polygon fill="white" stroke="black" points="1676.09,-551 1676.09,-585 1818.09,-585 1818.09,-551 1676.09,-551"/>
<text text-anchor="start" x="1684.09" y="-572" font-family="Helvetica,sans-Serif" font-size="10.00">core/internal/MojHashMap</text>
<text text-anchor="middle" x="1747.09" y="-559" font-family="Helvetica,sans-Serif" font-size="10.00">Internal.h</text>
</a>
</g>
<!-- Node36&#45;&gt;Node38 -->
<g id="edge150" class="edge"><title>Node36&#45;&gt;Node38</title>
<path fill="none" stroke="midnightblue" d="M1734.56,-622.267C1736.28,-614.852 1738.63,-604.64 1740.84,-595.074"/>
<polygon fill="midnightblue" stroke="midnightblue" points="1744.3,-595.641 1743.14,-585.11 1737.48,-594.067 1744.3,-595.641"/>
</g>
<!-- Node37&#45;&gt;Node3 -->
<g id="edge144" class="edge"><title>Node37&#45;&gt;Node3</title>
<path fill="none" stroke="midnightblue" d="M1401.05,-557.484C1427.55,-549.712 1457.71,-536.433 1477.09,-514 1499.85,-487.65 1496.09,-472.817 1496.09,-438 1496.09,-438 1496.09,-438 1496.09,-366 1496.09,-289.276 1414.8,-311.296 1341.09,-290 1272.76,-270.259 1072.82,-254.441 967.972,-247.232"/>
<polygon fill="midnightblue" stroke="midnightblue" points="968.038,-243.729 957.823,-246.541 967.562,-250.712 968.038,-243.729"/>
</g>
<!-- Node37&#45;&gt;Node16 -->
<g id="edge146" class="edge"><title>Node37&#45;&gt;Node16</title>
<path fill="none" stroke="midnightblue" d="M1326.88,-557.393C1295.12,-540.4 1229.17,-507.425 1169.09,-492 1009.06,-450.918 961.128,-488.266 799.088,-456 792.885,-454.765 786.403,-453.141 780.102,-451.375"/>
<polygon fill="midnightblue" stroke="midnightblue" points="780.997,-447.99 770.415,-448.516 779.015,-454.703 780.997,-447.99"/>
</g>
<!-- Node37&#45;&gt;Node30 -->
<g id="edge148" class="edge"><title>Node37&#45;&gt;Node30</title>
<path fill="none" stroke="midnightblue" d="M1357.98,-557.267C1369.09,-547.233 1385.88,-532.078 1398.89,-520.331"/>
<polygon fill="midnightblue" stroke="midnightblue" points="1401.34,-522.833 1406.42,-513.534 1396.65,-517.637 1401.34,-522.833"/>
</g>
</g>
</svg>
