<?xml version="1.0" encoding="UTF-8" standalone="no"?>
<!DOCTYPE svg PUBLIC "-//W3C//DTD SVG 1.1//EN"
 "http://www.w3.org/Graphics/SVG/1.1/DTD/svg11.dtd">
<!-- Generated by graphviz version 2.26.3 (20100126.1600)
 -->
<!-- Title: MojDbTextUtils.h Pages: 1 -->
<svg width="878pt" height="638pt"
 viewBox="0.00 0.00 877.77 638.00" xmlns="http://www.w3.org/2000/svg" xmlns:xlink="http://www.w3.org/1999/xlink">
<g id="graph1" class="graph" transform="scale(1 1) rotate(0) translate(4 634)">
<title>MojDbTextUtils.h</title>
<polygon fill="white" stroke="white" points="-4,5 -4,-634 874.773,-634 874.773,5 -4,5"/>
<!-- Node1 -->
<g id="node1" class="node"><title>Node1</title>
<polygon fill="#bfbfbf" stroke="black" points="699.773,-608.5 699.773,-629.5 795.773,-629.5 795.773,-608.5 699.773,-608.5"/>
<text text-anchor="middle" x="747.773" y="-616.5" font-family="Helvetica,sans-Serif" font-size="10.00">MojDbTextUtils.h</text>
</g>
<!-- Node2 -->
<g id="node3" class="node"><title>Node2</title>
<a xlink:href="MojDbDefs_8h.htm" target="_top" xlink:title="db/MojDbDefs.h">
<polygon fill="white" stroke="black" points="739.273,-492.5 739.273,-513.5 830.273,-513.5 830.273,-492.5 739.273,-492.5"/>
<text text-anchor="middle" x="784.773" y="-500.5" font-family="Helvetica,sans-Serif" font-size="10.00">db/MojDbDefs.h</text>
</a>
</g>
<!-- Node1&#45;&gt;Node2 -->
<g id="edge2" class="edge"><title>Node1&#45;&gt;Node2</title>
<path fill="none" stroke="midnightblue" d="M750.414,-608.147C753.821,-594.473 760.107,-570.305 766.773,-550 769.686,-541.128 773.304,-531.472 776.53,-523.233"/>
<polygon fill="midnightblue" stroke="midnightblue" points="779.871,-524.305 780.326,-513.72 773.369,-521.711 779.871,-524.305"/>
</g>
<!-- Node13 -->
<g id="node25" class="node"><title>Node13</title>
<a xlink:href="MojVector_8h.htm" target="_top" xlink:title="core/MojVector.h">
<polygon fill="white" stroke="black" points="549.273,-550.5 549.273,-571.5 646.273,-571.5 646.273,-550.5 549.273,-550.5"/>
<text text-anchor="middle" x="597.773" y="-558.5" font-family="Helvetica,sans-Serif" font-size="10.00">core/MojVector.h</text>
</a>
</g>
<!-- Node1&#45;&gt;Node13 -->
<g id="edge24" class="edge"><title>Node1&#45;&gt;Node13</title>
<path fill="none" stroke="midnightblue" d="M720.609,-608.497C696.473,-599.164 660.992,-585.445 634.361,-575.147"/>
<polygon fill="midnightblue" stroke="midnightblue" points="635.577,-571.865 624.988,-571.523 633.052,-578.394 635.577,-571.865"/>
</g>
<!-- Node23 -->
<g id="node55" class="node"><title>Node23</title>
<polygon fill="white" stroke="#bfbfbf" points="775.273,-550.5 775.273,-571.5 870.273,-571.5 870.273,-550.5 775.273,-550.5"/>
<text text-anchor="middle" x="822.773" y="-558.5" font-family="Helvetica,sans-Serif" font-size="10.00">unicode/utypes.h</text>
</g>
<!-- Node1&#45;&gt;Node23 -->
<g id="edge64" class="edge"><title>Node1&#45;&gt;Node23</title>
<path fill="none" stroke="midnightblue" d="M761.529,-608.362C772.524,-599.859 788.145,-587.779 800.859,-577.947"/>
<polygon fill="midnightblue" stroke="midnightblue" points="803.334,-580.457 809.104,-571.571 799.052,-574.919 803.334,-580.457"/>
</g>
<!-- Node3 -->
<g id="node5" class="node"><title>Node3</title>
<a xlink:href="MojCoreDefs_8h.htm" target="_top" xlink:title="core/MojCoreDefs.h">
<polygon fill="white" stroke="black" points="348.273,-232.5 348.273,-253.5 459.273,-253.5 459.273,-232.5 348.273,-232.5"/>
<text text-anchor="middle" x="403.773" y="-240.5" font-family="Helvetica,sans-Serif" font-size="10.00">core/MojCoreDefs.h</text>
</a>
</g>
<!-- Node2&#45;&gt;Node3 -->
<g id="edge4" class="edge"><title>Node2&#45;&gt;Node3</title>
<path fill="none" stroke="midnightblue" d="M785.503,-492.068C787.209,-456.665 787.358,-344.316 725.773,-290 706.878,-273.336 557.983,-257.076 469.424,-248.747"/>
<polygon fill="midnightblue" stroke="midnightblue" points="469.746,-245.262 459.465,-247.82 469.097,-252.232 469.746,-245.262"/>
</g>
<!-- Node4 -->
<g id="node7" class="node"><title>Node4</title>
<a xlink:href="MojConfig_8h.htm" target="_top" xlink:title="core/internal/MojConfig.h">
<polygon fill="white" stroke="black" points="189.273,-174.5 189.273,-195.5 324.273,-195.5 324.273,-174.5 189.273,-174.5"/>
<text text-anchor="middle" x="256.773" y="-182.5" font-family="Helvetica,sans-Serif" font-size="10.00">core/internal/MojConfig.h</text>
</a>
</g>
<!-- Node3&#45;&gt;Node4 -->
<g id="edge6" class="edge"><title>Node3&#45;&gt;Node4</title>
<path fill="none" stroke="midnightblue" d="M377.152,-232.497C353.676,-223.234 319.248,-209.65 293.217,-199.379"/>
<polygon fill="midnightblue" stroke="midnightblue" points="294.279,-196.036 283.692,-195.621 291.71,-202.547 294.279,-196.036"/>
</g>
<!-- Node5 -->
<g id="node9" class="node"><title>Node5</title>
<a xlink:href="MojNew_8h.htm" target="_top" xlink:title="core/internal/MojNew.h">
<polygon fill="white" stroke="black" points="341.273,-174.5 341.273,-195.5 466.273,-195.5 466.273,-174.5 341.273,-174.5"/>
<text text-anchor="middle" x="403.773" y="-182.5" font-family="Helvetica,sans-Serif" font-size="10.00">core/internal/MojNew.h</text>
</a>
</g>
<!-- Node3&#45;&gt;Node5 -->
<g id="edge8" class="edge"><title>Node3&#45;&gt;Node5</title>
<path fill="none" stroke="midnightblue" d="M403.773,-232.362C403.773,-224.922 403.773,-214.743 403.773,-205.728"/>
<polygon fill="midnightblue" stroke="midnightblue" points="407.273,-205.571 403.773,-195.571 400.273,-205.571 407.273,-205.571"/>
</g>
<!-- Node7 -->
<g id="node13" class="node"><title>Node7</title>
<a xlink:href="MojErr_8h.htm" target="_top" xlink:title="core/MojErr.h">
<polygon fill="white" stroke="black" points="483.773,-174.5 483.773,-195.5 563.773,-195.5 563.773,-174.5 483.773,-174.5"/>
<text text-anchor="middle" x="523.773" y="-182.5" font-family="Helvetica,sans-Serif" font-size="10.00">core/MojErr.h</text>
</a>
</g>
<!-- Node3&#45;&gt;Node7 -->
<g id="edge12" class="edge"><title>Node3&#45;&gt;Node7</title>
<path fill="none" stroke="midnightblue" d="M425.504,-232.497C444.246,-223.438 471.539,-210.246 492.609,-200.063"/>
<polygon fill="midnightblue" stroke="midnightblue" points="494.318,-203.124 501.798,-195.621 491.271,-196.822 494.318,-203.124"/>
</g>
<!-- Node11 -->
<g id="node21" class="node"><title>Node11</title>
<a xlink:href="MojOs_8h.htm" target="_top" xlink:title="core/MojOs.h">
<polygon fill="white" stroke="black" points="91.7728,-174.5 91.7728,-195.5 171.773,-195.5 171.773,-174.5 91.7728,-174.5"/>
<text text-anchor="middle" x="131.773" y="-182.5" font-family="Helvetica,sans-Serif" font-size="10.00">core/MojOs.h</text>
</a>
</g>
<!-- Node3&#45;&gt;Node11 -->
<g id="edge20" class="edge"><title>Node3&#45;&gt;Node11</title>
<path fill="none" stroke="midnightblue" d="M352.806,-232.456C309.788,-223.512 246.303,-210.208 181.812,-196.208"/>
<polygon fill="midnightblue" stroke="midnightblue" points="182.39,-192.752 171.875,-194.047 180.903,-199.592 182.39,-192.752"/>
</g>
<!-- Node6 -->
<g id="node11" class="node"><title>Node6</title>
<polygon fill="white" stroke="#bfbfbf" points="385.773,-116.5 385.773,-137.5 421.773,-137.5 421.773,-116.5 385.773,-116.5"/>
<text text-anchor="middle" x="403.773" y="-124.5" font-family="Helvetica,sans-Serif" font-size="10.00">new</text>
</g>
<!-- Node5&#45;&gt;Node6 -->
<g id="edge10" class="edge"><title>Node5&#45;&gt;Node6</title>
<path fill="none" stroke="midnightblue" d="M403.773,-174.362C403.773,-166.922 403.773,-156.743 403.773,-147.728"/>
<polygon fill="midnightblue" stroke="midnightblue" points="407.273,-147.571 403.773,-137.571 400.273,-147.571 407.273,-147.571"/>
</g>
<!-- Node8 -->
<g id="node15" class="node"><title>Node8</title>
<a xlink:href="MojLog_8h.htm" target="_top" xlink:title="core/MojLog.h">
<polygon fill="white" stroke="black" points="460.773,-116.5 460.773,-137.5 544.773,-137.5 544.773,-116.5 460.773,-116.5"/>
<text text-anchor="middle" x="502.773" y="-124.5" font-family="Helvetica,sans-Serif" font-size="10.00">core/MojLog.h</text>
</a>
</g>
<!-- Node7&#45;&gt;Node8 -->
<g id="edge14" class="edge"><title>Node7&#45;&gt;Node8</title>
<path fill="none" stroke="midnightblue" d="M519.921,-174.362C517.168,-166.758 513.379,-156.294 510.063,-147.135"/>
<polygon fill="midnightblue" stroke="midnightblue" points="513.296,-145.782 506.6,-137.571 506.714,-148.165 513.296,-145.782"/>
</g>
<!-- Node9 -->
<g id="node17" class="node"><title>Node9</title>
<a xlink:href="MojListEntry_8h.htm" target="_top" xlink:title="core/MojListEntry.h">
<polygon fill="white" stroke="black" points="239.273,-58.5 239.273,-79.5 346.273,-79.5 346.273,-58.5 239.273,-58.5"/>
<text text-anchor="middle" x="292.773" y="-66.5" font-family="Helvetica,sans-Serif" font-size="10.00">core/MojListEntry.h</text>
</a>
</g>
<!-- Node8&#45;&gt;Node9 -->
<g id="edge16" class="edge"><title>Node8&#45;&gt;Node9</title>
<path fill="none" stroke="midnightblue" d="M464.743,-116.497C429.915,-106.877 378.214,-92.5981 340.598,-82.209"/>
<polygon fill="midnightblue" stroke="midnightblue" points="341.445,-78.8117 330.874,-79.5231 339.581,-85.5591 341.445,-78.8117"/>
</g>
<!-- Node10 -->
<g id="node19" class="node"><title>Node10</title>
<a xlink:href="MojNoCopy_8h.htm" target="_top" xlink:title="core/MojNoCopy.h">
<polygon fill="white" stroke="black" points="94.7728,-0.5 94.7728,-21.5 198.773,-21.5 198.773,-0.5 94.7728,-0.5"/>
<text text-anchor="middle" x="146.773" y="-8.5" font-family="Helvetica,sans-Serif" font-size="10.00">core/MojNoCopy.h</text>
</a>
</g>
<!-- Node9&#45;&gt;Node10 -->
<g id="edge18" class="edge"><title>Node9&#45;&gt;Node10</title>
<path fill="none" stroke="midnightblue" d="M266.333,-58.4966C243.016,-49.2337 208.823,-35.6499 182.969,-25.3793"/>
<polygon fill="midnightblue" stroke="midnightblue" points="184.095,-22.0605 173.509,-21.6212 181.51,-28.566 184.095,-22.0605"/>
</g>
<!-- Node12 -->
<g id="node23" class="node"><title>Node12</title>
<a xlink:href="MojOsInternal_8h.htm" target="_top" xlink:title="core/internal/MojOsInternal.h">
<polygon fill="white" stroke="black" points="54.7728,-116.5 54.7728,-137.5 208.773,-137.5 208.773,-116.5 54.7728,-116.5"/>
<text text-anchor="middle" x="131.773" y="-124.5" font-family="Helvetica,sans-Serif" font-size="10.00">core/internal/MojOsInternal.h</text>
</a>
</g>
<!-- Node11&#45;&gt;Node12 -->
<g id="edge22" class="edge"><title>Node11&#45;&gt;Node12</title>
<path fill="none" stroke="midnightblue" d="M131.773,-174.362C131.773,-166.922 131.773,-156.743 131.773,-147.728"/>
<polygon fill="midnightblue" stroke="midnightblue" points="135.273,-147.571 131.773,-137.571 128.273,-147.571 135.273,-147.571"/>
</g>
<!-- Node13&#45;&gt;Node3 -->
<g id="edge26" class="edge"><title>Node13&#45;&gt;Node3</title>
<path fill="none" stroke="midnightblue" d="M618.948,-550.441C651.916,-532.329 711.773,-492.009 711.773,-438 711.773,-438 711.773,-438 711.773,-373 711.773,-319.924 554.567,-276.333 464.78,-255.765"/>
<polygon fill="midnightblue" stroke="midnightblue" points="465.504,-252.34 454.979,-253.549 463.961,-259.168 465.504,-252.34"/>
</g>
<!-- Node14 -->
<g id="node28" class="node"><title>Node14</title>
<a xlink:href="MojComp_8h.htm" target="_top" xlink:title="core/MojComp.h">
<polygon fill="white" stroke="black" points="381.773,-297.5 381.773,-318.5 475.773,-318.5 475.773,-297.5 381.773,-297.5"/>
<text text-anchor="middle" x="428.773" y="-305.5" font-family="Helvetica,sans-Serif" font-size="10.00">core/MojComp.h</text>
</a>
</g>
<!-- Node13&#45;&gt;Node14 -->
<g id="edge28" class="edge"><title>Node13&#45;&gt;Node14</title>
<path fill="none" stroke="midnightblue" d="M551.62,-550.415C518.104,-541.684 476.923,-528.425 466.773,-514 461.146,-506.003 464.422,-501.491 466.773,-492 471.123,-474.439 479.759,-473.063 485.773,-456 499.812,-416.163 518.535,-399.843 499.773,-362 491.626,-345.569 475.824,-332.785 461.192,-323.789"/>
<polygon fill="midnightblue" stroke="midnightblue" points="462.724,-320.632 452.311,-318.678 459.233,-326.7 462.724,-320.632"/>
</g>
<!-- Node15 -->
<g id="node31" class="node"><title>Node15</title>
<a xlink:href="MojRefCount_8h.htm" target="_top" xlink:title="core/MojRefCount.h">
<polygon fill="white" stroke="black" points="253.773,-492.5 253.773,-513.5 363.773,-513.5 363.773,-492.5 253.773,-492.5"/>
<text text-anchor="middle" x="308.773" y="-500.5" font-family="Helvetica,sans-Serif" font-size="10.00">core/MojRefCount.h</text>
</a>
</g>
<!-- Node13&#45;&gt;Node15 -->
<g id="edge32" class="edge"><title>Node13&#45;&gt;Node15</title>
<path fill="none" stroke="midnightblue" d="M549.075,-551.227C500.11,-541.4 424.435,-526.212 371.113,-515.511"/>
<polygon fill="midnightblue" stroke="midnightblue" points="371.589,-512.037 361.095,-513.501 370.211,-518.9 371.589,-512.037"/>
</g>
<!-- Node21 -->
<g id="node49" class="node"><title>Node21</title>
<a xlink:href="MojUtil_8h.htm" target="_top" xlink:title="core/MojUtil.h">
<polygon fill="white" stroke="black" points="532.273,-427.5 532.273,-448.5 613.273,-448.5 613.273,-427.5 532.273,-427.5"/>
<text text-anchor="middle" x="572.773" y="-435.5" font-family="Helvetica,sans-Serif" font-size="10.00">core/MojUtil.h</text>
</a>
</g>
<!-- Node13&#45;&gt;Node21 -->
<g id="edge56" class="edge"><title>Node13&#45;&gt;Node21</title>
<path fill="none" stroke="midnightblue" d="M617.738,-550.292C638.738,-537.515 667.155,-514.98 654.773,-492 645.358,-474.527 627.544,-461.778 610.919,-453.07"/>
<polygon fill="midnightblue" stroke="midnightblue" points="612.387,-449.891 601.866,-448.643 609.312,-456.18 612.387,-449.891"/>
</g>
<!-- Node22 -->
<g id="node53" class="node"><title>Node22</title>
<a xlink:href="MojVectorInternal_8h.htm" target="_top" xlink:title="core/internal/MojVectorInternal.h">
<polygon fill="white" stroke="black" points="475.273,-492.5 475.273,-513.5 646.273,-513.5 646.273,-492.5 475.273,-492.5"/>
<text text-anchor="middle" x="560.773" y="-500.5" font-family="Helvetica,sans-Serif" font-size="10.00">core/internal/MojVectorInternal.h</text>
</a>
</g>
<!-- Node13&#45;&gt;Node22 -->
<g id="edge62" class="edge"><title>Node13&#45;&gt;Node22</title>
<path fill="none" stroke="midnightblue" d="M590.986,-550.362C585.979,-542.513 579.028,-531.616 573.055,-522.253"/>
<polygon fill="midnightblue" stroke="midnightblue" points="575.845,-520.119 567.516,-513.571 569.944,-523.884 575.845,-520.119"/>
</g>
<!-- Node14&#45;&gt;Node3 -->
<g id="edge30" class="edge"><title>Node14&#45;&gt;Node3</title>
<path fill="none" stroke="midnightblue" d="M424.645,-297.267C421.077,-287.991 415.825,-274.336 411.483,-263.045"/>
<polygon fill="midnightblue" stroke="midnightblue" points="414.681,-261.611 407.824,-253.534 408.147,-264.124 414.681,-261.611"/>
</g>
<!-- Node15&#45;&gt;Node3 -->
<g id="edge34" class="edge"><title>Node15&#45;&gt;Node3</title>
<path fill="none" stroke="midnightblue" d="M308.696,-492.381C308.841,-468.39 311.007,-408.469 327.773,-362 341.801,-323.119 370.321,-283.831 388.157,-261.539"/>
<polygon fill="midnightblue" stroke="midnightblue" points="391.024,-263.562 394.635,-253.601 385.601,-259.135 391.024,-263.562"/>
</g>
<!-- Node16 -->
<g id="node34" class="node"><title>Node16</title>
<a xlink:href="MojAtomicInt_8h.htm" target="_top" xlink:title="core/MojAtomicInt.h">
<polygon fill="white" stroke="black" points="215.773,-297.5 215.773,-318.5 325.773,-318.5 325.773,-297.5 215.773,-297.5"/>
<text text-anchor="middle" x="270.773" y="-305.5" font-family="Helvetica,sans-Serif" font-size="10.00">core/MojAtomicInt.h</text>
</a>
</g>
<!-- Node15&#45;&gt;Node16 -->
<g id="edge36" class="edge"><title>Node15&#45;&gt;Node16</title>
<path fill="none" stroke="midnightblue" d="M305.149,-492.278C302.056,-482.819 297.662,-468.615 294.773,-456 284.513,-411.2 276.989,-357.796 273.308,-328.967"/>
<polygon fill="midnightblue" stroke="midnightblue" points="276.758,-328.353 272.047,-318.863 269.812,-329.219 276.758,-328.353"/>
</g>
<!-- Node17 -->
<g id="node37" class="node"><title>Node17</title>
<a xlink:href="MojAutoPtr_8h.htm" target="_top" xlink:title="core/MojAutoPtr.h">
<polygon fill="white" stroke="black" points="137.273,-362.5 137.273,-383.5 238.273,-383.5 238.273,-362.5 137.273,-362.5"/>
<text text-anchor="middle" x="187.773" y="-370.5" font-family="Helvetica,sans-Serif" font-size="10.00">core/MojAutoPtr.h</text>
</a>
</g>
<!-- Node15&#45;&gt;Node17 -->
<g id="edge40" class="edge"><title>Node15&#45;&gt;Node17</title>
<path fill="none" stroke="midnightblue" d="M295.91,-492.274C285.091,-483.044 269.41,-469.171 256.773,-456 236.666,-435.044 215.615,-409.041 202.133,-391.782"/>
<polygon fill="midnightblue" stroke="midnightblue" points="204.708,-389.391 195.817,-383.627 199.173,-393.677 204.708,-389.391"/>
</g>
<!-- Node19 -->
<g id="node44" class="node"><title>Node19</title>
<a xlink:href="MojRefCountInternal_8h.htm" target="_top" xlink:title="core/internal/MojRefCount\lInternal.h">
<polygon fill="white" stroke="black" points="336.773,-421 336.773,-455 476.773,-455 476.773,-421 336.773,-421"/>
<text text-anchor="start" x="344.773" y="-442" font-family="Helvetica,sans-Serif" font-size="10.00">core/internal/MojRefCount</text>
<text text-anchor="middle" x="406.773" y="-429" font-family="Helvetica,sans-Serif" font-size="10.00">Internal.h</text>
</a>
</g>
<!-- Node15&#45;&gt;Node19 -->
<g id="edge50" class="edge"><title>Node15&#45;&gt;Node19</title>
<path fill="none" stroke="midnightblue" d="M324.956,-492.267C337.799,-483.748 356.21,-471.537 372.316,-460.854"/>
<polygon fill="midnightblue" stroke="midnightblue" points="374.577,-463.554 380.976,-455.11 370.708,-457.721 374.577,-463.554"/>
</g>
<!-- Node16&#45;&gt;Node3 -->
<g id="edge38" class="edge"><title>Node16&#45;&gt;Node3</title>
<path fill="none" stroke="midnightblue" d="M292.438,-297.412C314.271,-286.741 348.175,-270.172 372.835,-258.12"/>
<polygon fill="midnightblue" stroke="midnightblue" points="374.67,-261.119 382.117,-253.584 371.596,-254.83 374.67,-261.119"/>
</g>
<!-- Node17&#45;&gt;Node3 -->
<g id="edge42" class="edge"><title>Node17&#45;&gt;Node3</title>
<path fill="none" stroke="midnightblue" d="M186.929,-362.441C186.146,-344.873 187.316,-309.636 206.773,-290 225.064,-271.54 287.912,-258.728 337.764,-251.197"/>
<polygon fill="midnightblue" stroke="midnightblue" points="338.477,-254.629 347.863,-249.715 337.461,-247.704 338.477,-254.629"/>
</g>
<!-- Node17&#45;&gt;Node10 -->
<g id="edge46" class="edge"><title>Node17&#45;&gt;Node10</title>
<path fill="none" stroke="midnightblue" d="M136.98,-364.562C93.9484,-356.394 36.7628,-342.798 20.7728,-326 -5.31854,-298.589 1.77285,-280.843 1.77285,-243 1.77285,-243 1.77285,-243 1.77285,-127 1.77285,-74.5504 60.3378,-41.9152 103.028,-25.0934"/>
<polygon fill="midnightblue" stroke="midnightblue" points="104.294,-28.3568 112.41,-21.5463 101.818,-21.8092 104.294,-28.3568"/>
</g>
<!-- Node17&#45;&gt;Node16 -->
<g id="edge44" class="edge"><title>Node17&#45;&gt;Node16</title>
<path fill="none" stroke="midnightblue" d="M201.479,-362.267C214.411,-352.139 234.008,-336.792 249.066,-325"/>
<polygon fill="midnightblue" stroke="midnightblue" points="251.607,-327.455 257.322,-318.534 247.291,-321.944 251.607,-327.455"/>
</g>
<!-- Node18 -->
<g id="node42" class="node"><title>Node18</title>
<a xlink:href="MojAutoPtrInternal_8h.htm" target="_top" xlink:title="core/internal/MojAutoPtr\lInternal.h">
<polygon fill="white" stroke="black" points="29.2728,-291 29.2728,-325 160.273,-325 160.273,-291 29.2728,-291"/>
<text text-anchor="start" x="37.2728" y="-312" font-family="Helvetica,sans-Serif" font-size="10.00">core/internal/MojAutoPtr</text>
<text text-anchor="middle" x="94.7728" y="-299" font-family="Helvetica,sans-Serif" font-size="10.00">Internal.h</text>
</a>
</g>
<!-- Node17&#45;&gt;Node18 -->
<g id="edge48" class="edge"><title>Node17&#45;&gt;Node18</title>
<path fill="none" stroke="midnightblue" d="M172.416,-362.267C160.227,-353.748 142.756,-341.537 127.472,-330.854"/>
<polygon fill="midnightblue" stroke="midnightblue" points="129.455,-327.97 119.253,-325.11 125.445,-333.707 129.455,-327.97"/>
</g>
<!-- Node20 -->
<g id="node46" class="node"><title>Node20</title>
<a xlink:href="MojUtilInternal_8h.htm" target="_top" xlink:title="core/internal/MojUtilInternal.h">
<polygon fill="white" stroke="black" points="336.273,-362.5 336.273,-383.5 491.273,-383.5 491.273,-362.5 336.273,-362.5"/>
<text text-anchor="middle" x="413.773" y="-370.5" font-family="Helvetica,sans-Serif" font-size="10.00">core/internal/MojUtilInternal.h</text>
</a>
</g>
<!-- Node19&#45;&gt;Node20 -->
<g id="edge52" class="edge"><title>Node19&#45;&gt;Node20</title>
<path fill="none" stroke="midnightblue" d="M408.612,-420.922C409.501,-412.67 410.575,-402.692 411.513,-393.982"/>
<polygon fill="midnightblue" stroke="midnightblue" points="415.013,-394.169 412.604,-383.852 408.053,-393.42 415.013,-394.169"/>
</g>
<!-- Node20&#45;&gt;Node14 -->
<g id="edge54" class="edge"><title>Node20&#45;&gt;Node14</title>
<path fill="none" stroke="midnightblue" d="M416.25,-362.267C418.369,-353.085 421.477,-339.615 424.067,-328.392"/>
<polygon fill="midnightblue" stroke="midnightblue" points="427.504,-329.065 426.342,-318.534 420.683,-327.491 427.504,-329.065"/>
</g>
<!-- Node21&#45;&gt;Node3 -->
<g id="edge58" class="edge"><title>Node21&#45;&gt;Node3</title>
<path fill="none" stroke="midnightblue" d="M568.856,-427.33C558.708,-400.946 529.215,-331.759 484.773,-290 471.036,-277.092 453.128,-266.236 437.645,-258.221"/>
<polygon fill="midnightblue" stroke="midnightblue" points="438.888,-254.93 428.377,-253.604 435.767,-261.196 438.888,-254.93"/>
</g>
<!-- Node21&#45;&gt;Node20 -->
<g id="edge60" class="edge"><title>Node21&#45;&gt;Node20</title>
<path fill="none" stroke="midnightblue" d="M546.873,-427.412C520.309,-416.552 478.8,-399.583 449.203,-387.484"/>
<polygon fill="midnightblue" stroke="midnightblue" points="450.243,-384.128 439.662,-383.584 447.594,-390.607 450.243,-384.128"/>
</g>
</g>
</svg>
