<?xml version="1.0" encoding="UTF-8" standalone="no"?>
<!DOCTYPE svg PUBLIC "-//W3C//DTD SVG 1.1//EN"
 "http://www.w3.org/Graphics/SVG/1.1/DTD/svg11.dtd">
<!-- Generated by graphviz version 2.26.3 (20100126.1600)
 -->
<!-- Title: MojDbUtils.h Pages: 1 -->
<svg width="332pt" height="88pt"
 viewBox="0.00 0.00 332.00 88.00" xmlns="http://www.w3.org/2000/svg" xmlns:xlink="http://www.w3.org/1999/xlink">
<g id="graph1" class="graph" transform="scale(1 1) rotate(0) translate(4 84)">
<title>MojDbUtils.h</title>
<polygon fill="white" stroke="white" points="-4,5 -4,-84 329,-84 329,5 -4,5"/>
<!-- Node1 -->
<g id="node1" class="node"><title>Node1</title>
<polygon fill="#bfbfbf" stroke="black" points="135.5,-58.5 135.5,-79.5 210.5,-79.5 210.5,-58.5 135.5,-58.5"/>
<text text-anchor="middle" x="173" y="-66.5" font-family="Helvetica,sans-Serif" font-size="10.00">MojDbUtils.h</text>
</g>
<!-- Node2 -->
<g id="node3" class="node"><title>Node2</title>
<a xlink:href="MojDbExtractor_8cpp.htm" target="_top" xlink:title="MojDbExtractor.cpp">
<polygon fill="white" stroke="black" points="-0.5,-0.5 -0.5,-21.5 108.5,-21.5 108.5,-0.5 -0.5,-0.5"/>
<text text-anchor="middle" x="54" y="-8.5" font-family="Helvetica,sans-Serif" font-size="10.00">MojDbExtractor.cpp</text>
</a>
</g>
<!-- Node1&#45;&gt;Node2 -->
<g id="edge2" class="edge"><title>Node1&#45;&gt;Node2</title>
<path fill="none" stroke="midnightblue" d="M142.366,-54.0693C121.526,-43.9121 94.4512,-30.7157 75.7918,-21.6212"/>
<polygon fill="midnightblue" stroke="midnightblue" points="140.927,-57.2615 151.45,-58.4966 143.994,-50.9691 140.927,-57.2615"/>
</g>
<!-- Node3 -->
<g id="node5" class="node"><title>Node3</title>
<a xlink:href="MojDbQuery_8cpp.htm" target="_top" xlink:title="MojDbQuery.cpp">
<polygon fill="white" stroke="black" points="125.5,-0.5 125.5,-21.5 220.5,-21.5 220.5,-0.5 125.5,-0.5"/>
<text text-anchor="middle" x="173" y="-8.5" font-family="Helvetica,sans-Serif" font-size="10.00">MojDbQuery.cpp</text>
</a>
</g>
<!-- Node1&#45;&gt;Node3 -->
<g id="edge4" class="edge"><title>Node1&#45;&gt;Node3</title>
<path fill="none" stroke="midnightblue" d="M173,-48.1906C173,-39.1684 173,-28.9941 173,-21.5707"/>
<polygon fill="midnightblue" stroke="midnightblue" points="169.5,-48.3619 173,-58.3619 176.5,-48.3619 169.5,-48.3619"/>
</g>
<!-- Node4 -->
<g id="node7" class="node"><title>Node4</title>
<a xlink:href="MojDbUtils_8cpp.htm" target="_top" xlink:title="MojDbUtils.cpp">
<polygon fill="white" stroke="black" points="238,-0.5 238,-21.5 324,-21.5 324,-0.5 238,-0.5"/>
<text text-anchor="middle" x="281" y="-8.5" font-family="Helvetica,sans-Serif" font-size="10.00">MojDbUtils.cpp</text>
</a>
</g>
<!-- Node1&#45;&gt;Node4 -->
<g id="edge6" class="edge"><title>Node1&#45;&gt;Node4</title>
<path fill="none" stroke="midnightblue" d="M201.572,-53.6559C220.378,-43.5561 244.517,-30.5928 261.223,-21.6212"/>
<polygon fill="midnightblue" stroke="midnightblue" points="199.712,-50.6818 192.558,-58.4966 203.024,-56.8488 199.712,-50.6818"/>
</g>
</g>
</svg>
