<?xml version="1.0" encoding="UTF-8" standalone="no"?>
<!DOCTYPE svg PUBLIC "-//W3C//DTD SVG 1.1//EN"
 "http://www.w3.org/Graphics/SVG/1.1/DTD/svg11.dtd">
<!-- Generated by graphviz version 2.26.3 (20100126.1600)
 -->
<!-- Title: MojDbIsamQuery.h Pages: 1 -->
<svg width="1070pt" height="146pt"
 viewBox="0.00 0.00 1070.00 146.00" xmlns="http://www.w3.org/2000/svg" xmlns:xlink="http://www.w3.org/1999/xlink">
<g id="graph1" class="graph" transform="scale(1 1) rotate(0) translate(4 142)">
<title>MojDbIsamQuery.h</title>
<polygon fill="white" stroke="white" points="-4,5 -4,-142 1067,-142 1067,5 -4,5"/>
<!-- Node1 -->
<g id="node1" class="node"><title>Node1</title>
<polygon fill="#bfbfbf" stroke="black" points="719,-116.5 719,-137.5 825,-137.5 825,-116.5 719,-116.5"/>
<text text-anchor="middle" x="772" y="-124.5" font-family="Helvetica,sans-Serif" font-size="10.00">MojDbIsamQuery.h</text>
</g>
<!-- Node2 -->
<g id="node3" class="node"><title>Node2</title>
<a xlink:href="MojDbLevelQuery_8h.htm" target="_top" xlink:title="MojDbLevelQuery.h">
<polygon fill="white" stroke="black" points="300.5,-58.5 300.5,-79.5 409.5,-79.5 409.5,-58.5 300.5,-58.5"/>
<text text-anchor="middle" x="355" y="-66.5" font-family="Helvetica,sans-Serif" font-size="10.00">MojDbLevelQuery.h</text>
</a>
</g>
<!-- Node1&#45;&gt;Node2 -->
<g id="edge2" class="edge"><title>Node1&#45;&gt;Node2</title>
<path fill="none" stroke="midnightblue" d="M708.628,-118.186C627.044,-106.838 486.641,-87.3097 409.573,-76.5905"/>
<polygon fill="midnightblue" stroke="midnightblue" points="708.376,-121.684 718.763,-119.595 709.341,-114.751 708.376,-121.684"/>
</g>
<!-- Node7 -->
<g id="node13" class="node"><title>Node7</title>
<a xlink:href="MojDbBerkeleyQuery_8h.htm" target="_top" xlink:title="MojDbBerkeleyQuery.h">
<polygon fill="white" stroke="black" points="577.5,-58.5 577.5,-79.5 702.5,-79.5 702.5,-58.5 577.5,-58.5"/>
<text text-anchor="middle" x="640" y="-66.5" font-family="Helvetica,sans-Serif" font-size="10.00">MojDbBerkeleyQuery.h</text>
</a>
</g>
<!-- Node1&#45;&gt;Node7 -->
<g id="edge12" class="edge"><title>Node1&#45;&gt;Node7</title>
<path fill="none" stroke="midnightblue" d="M738.643,-112.343C715.445,-102.15 685.057,-88.7977 664.172,-79.6212"/>
<polygon fill="midnightblue" stroke="midnightblue" points="737.533,-115.678 748.096,-116.497 740.349,-109.27 737.533,-115.678"/>
</g>
<!-- Node10 -->
<g id="node19" class="node"><title>Node10</title>
<a xlink:href="MojDbInnoQuery_8h.htm" target="_top" xlink:title="MojDbInnoQuery.h">
<polygon fill="white" stroke="black" points="720,-58.5 720,-79.5 824,-79.5 824,-58.5 720,-58.5"/>
<text text-anchor="middle" x="772" y="-66.5" font-family="Helvetica,sans-Serif" font-size="10.00">MojDbInnoQuery.h</text>
</a>
</g>
<!-- Node1&#45;&gt;Node10 -->
<g id="edge18" class="edge"><title>Node1&#45;&gt;Node10</title>
<path fill="none" stroke="midnightblue" d="M772,-106.191C772,-97.1684 772,-86.9941 772,-79.5707"/>
<polygon fill="midnightblue" stroke="midnightblue" points="768.5,-106.362 772,-116.362 775.5,-106.362 768.5,-106.362"/>
</g>
<!-- Node11 -->
<g id="node21" class="node"><title>Node11</title>
<a xlink:href="MojDbIsamQuery_8cpp.htm" target="_top" xlink:title="MojDbIsamQuery.cpp">
<polygon fill="white" stroke="black" points="841.5,-58.5 841.5,-79.5 958.5,-79.5 958.5,-58.5 841.5,-58.5"/>
<text text-anchor="middle" x="900" y="-66.5" font-family="Helvetica,sans-Serif" font-size="10.00">MojDbIsamQuery.cpp</text>
</a>
</g>
<!-- Node1&#45;&gt;Node11 -->
<g id="edge20" class="edge"><title>Node1&#45;&gt;Node11</title>
<path fill="none" stroke="midnightblue" d="M804.346,-112.343C826.841,-102.15 856.309,-88.7977 876.56,-79.6212"/>
<polygon fill="midnightblue" stroke="midnightblue" points="802.844,-109.181 795.18,-116.497 805.733,-115.557 802.844,-109.181"/>
</g>
<!-- Node12 -->
<g id="node23" class="node"><title>Node12</title>
<a xlink:href="MojDbKind_8cpp.htm" target="_top" xlink:title="MojDbKind.cpp">
<polygon fill="white" stroke="black" points="975.5,-58.5 975.5,-79.5 1062.5,-79.5 1062.5,-58.5 975.5,-58.5"/>
<text text-anchor="middle" x="1019" y="-66.5" font-family="Helvetica,sans-Serif" font-size="10.00">MojDbKind.cpp</text>
</a>
</g>
<!-- Node1&#45;&gt;Node12 -->
<g id="edge22" class="edge"><title>Node1&#45;&gt;Node12</title>
<path fill="none" stroke="midnightblue" d="M826.57,-114.186C871.36,-103.669 933.945,-88.9724 975.432,-79.2305"/>
<polygon fill="midnightblue" stroke="midnightblue" points="825.665,-110.803 816.73,-116.497 827.265,-117.618 825.665,-110.803"/>
</g>
<!-- Node3 -->
<g id="node5" class="node"><title>Node3</title>
<a xlink:href="MojDbLevelDatabase_8cpp.htm" target="_top" xlink:title="MojDbLevelDatabase.cpp">
<polygon fill="white" stroke="black" points="-0.5,-0.5 -0.5,-21.5 136.5,-21.5 136.5,-0.5 -0.5,-0.5"/>
<text text-anchor="middle" x="68" y="-8.5" font-family="Helvetica,sans-Serif" font-size="10.00">MojDbLevelDatabase.cpp</text>
</a>
</g>
<!-- Node2&#45;&gt;Node3 -->
<g id="edge4" class="edge"><title>Node2&#45;&gt;Node3</title>
<path fill="none" stroke="midnightblue" d="M292.997,-56.4697C241.379,-46.0382 168.715,-31.3535 120.071,-21.5231"/>
<polygon fill="midnightblue" stroke="midnightblue" points="292.531,-59.9463 303.026,-58.4966 293.918,-53.0851 292.531,-59.9463"/>
</g>
<!-- Node4 -->
<g id="node7" class="node"><title>Node4</title>
<a xlink:href="MojDbLevelEngine_8cpp.htm" target="_top" xlink:title="MojDbLevelEngine.cpp">
<polygon fill="white" stroke="black" points="153.5,-0.5 153.5,-21.5 278.5,-21.5 278.5,-0.5 153.5,-0.5"/>
<text text-anchor="middle" x="216" y="-8.5" font-family="Helvetica,sans-Serif" font-size="10.00">MojDbLevelEngine.cpp</text>
</a>
</g>
<!-- Node2&#45;&gt;Node4 -->
<g id="edge6" class="edge"><title>Node2&#45;&gt;Node4</title>
<path fill="none" stroke="midnightblue" d="M320.526,-54.6153C296.018,-44.3889 263.642,-30.8796 241.454,-21.6212"/>
<polygon fill="midnightblue" stroke="midnightblue" points="319.252,-57.8758 329.828,-58.4966 321.947,-51.4156 319.252,-57.8758"/>
</g>
<!-- Node5 -->
<g id="node9" class="node"><title>Node5</title>
<a xlink:href="MojDbLevelIndex_8cpp.htm" target="_top" xlink:title="MojDbLevelIndex.cpp">
<polygon fill="white" stroke="black" points="296,-0.5 296,-21.5 414,-21.5 414,-0.5 296,-0.5"/>
<text text-anchor="middle" x="355" y="-8.5" font-family="Helvetica,sans-Serif" font-size="10.00">MojDbLevelIndex.cpp</text>
</a>
</g>
<!-- Node2&#45;&gt;Node5 -->
<g id="edge8" class="edge"><title>Node2&#45;&gt;Node5</title>
<path fill="none" stroke="midnightblue" d="M355,-48.1906C355,-39.1684 355,-28.9941 355,-21.5707"/>
<polygon fill="midnightblue" stroke="midnightblue" points="351.5,-48.3619 355,-58.3619 358.5,-48.3619 351.5,-48.3619"/>
</g>
<!-- Node6 -->
<g id="node11" class="node"><title>Node6</title>
<a xlink:href="MojDbLevelQuery_8cpp.htm" target="_top" xlink:title="MojDbLevelQuery.cpp">
<polygon fill="white" stroke="black" points="432,-0.5 432,-21.5 552,-21.5 552,-0.5 432,-0.5"/>
<text text-anchor="middle" x="492" y="-8.5" font-family="Helvetica,sans-Serif" font-size="10.00">MojDbLevelQuery.cpp</text>
</a>
</g>
<!-- Node2&#45;&gt;Node6 -->
<g id="edge10" class="edge"><title>Node2&#45;&gt;Node6</title>
<path fill="none" stroke="midnightblue" d="M389.299,-54.4794C413.415,-44.2695 445.14,-30.8386 466.912,-21.6212"/>
<polygon fill="midnightblue" stroke="midnightblue" points="387.654,-51.3749 379.81,-58.4966 390.383,-57.821 387.654,-51.3749"/>
</g>
<!-- Node8 -->
<g id="node15" class="node"><title>Node8</title>
<a xlink:href="MojDbBerkeleyEngine_8cpp.htm" target="_top" xlink:title="MojDbBerkeleyEngine.cpp">
<polygon fill="white" stroke="black" points="570,-0.5 570,-21.5 710,-21.5 710,-0.5 570,-0.5"/>
<text text-anchor="middle" x="640" y="-8.5" font-family="Helvetica,sans-Serif" font-size="10.00">MojDbBerkeleyEngine.cpp</text>
</a>
</g>
<!-- Node7&#45;&gt;Node8 -->
<g id="edge14" class="edge"><title>Node7&#45;&gt;Node8</title>
<path fill="none" stroke="midnightblue" d="M640,-48.1906C640,-39.1684 640,-28.9941 640,-21.5707"/>
<polygon fill="midnightblue" stroke="midnightblue" points="636.5,-48.3619 640,-58.3619 643.5,-48.3619 636.5,-48.3619"/>
</g>
<!-- Node9 -->
<g id="node17" class="node"><title>Node9</title>
<a xlink:href="MojDbBerkeleyQuery_8cpp.htm" target="_top" xlink:title="MojDbBerkeleyQuery.cpp">
<polygon fill="white" stroke="black" points="728,-0.5 728,-21.5 864,-21.5 864,-0.5 728,-0.5"/>
<text text-anchor="middle" x="796" y="-8.5" font-family="Helvetica,sans-Serif" font-size="10.00">MojDbBerkeleyQuery.cpp</text>
</a>
</g>
<!-- Node7&#45;&gt;Node9 -->
<g id="edge16" class="edge"><title>Node7&#45;&gt;Node9</title>
<path fill="none" stroke="midnightblue" d="M677.63,-55.0095C705.352,-44.7023 742.468,-30.903 767.697,-21.5231"/>
<polygon fill="midnightblue" stroke="midnightblue" points="676.404,-51.7311 668.25,-58.4966 678.843,-58.2923 676.404,-51.7311"/>
</g>
</g>
</svg>
