<?xml version="1.0" encoding="UTF-8" standalone="no"?>
<!DOCTYPE svg PUBLIC "-//W3C//DTD SVG 1.1//EN"
 "http://www.w3.org/Graphics/SVG/1.1/DTD/svg11.dtd">
<!-- Generated by graphviz version 2.26.3 (20100126.1600)
 -->
<!-- Title: MojDbIndex.h Pages: 1 -->
<svg width="1007pt" height="146pt"
 viewBox="0.00 0.00 1007.00 146.00" xmlns="http://www.w3.org/2000/svg" xmlns:xlink="http://www.w3.org/1999/xlink">
<g id="graph1" class="graph" transform="scale(1 1) rotate(0) translate(4 142)">
<title>MojDbIndex.h</title>
<polygon fill="white" stroke="white" points="-4,5 -4,-142 1004,-142 1004,5 -4,5"/>
<!-- Node1 -->
<g id="node1" class="node"><title>Node1</title>
<polygon fill="#bfbfbf" stroke="black" points="456.5,-116.5 456.5,-137.5 537.5,-137.5 537.5,-116.5 456.5,-116.5"/>
<text text-anchor="middle" x="497" y="-124.5" font-family="Helvetica,sans-Serif" font-size="10.00">MojDbIndex.h</text>
</g>
<!-- Node2 -->
<g id="node3" class="node"><title>Node2</title>
<a xlink:href="MojDbKind_8h.htm" target="_top" xlink:title="MojDbKind.h">
<polygon fill="white" stroke="black" points="355,-58.5 355,-79.5 431,-79.5 431,-58.5 355,-58.5"/>
<text text-anchor="middle" x="393" y="-66.5" font-family="Helvetica,sans-Serif" font-size="10.00">MojDbKind.h</text>
</a>
</g>
<!-- Node1&#45;&gt;Node2 -->
<g id="edge2" class="edge"><title>Node1&#45;&gt;Node2</title>
<path fill="none" stroke="midnightblue" d="M468.99,-111.379C450.919,-101.301 427.898,-88.4624 411.954,-79.5707"/>
<polygon fill="midnightblue" stroke="midnightblue" points="467.486,-114.548 477.925,-116.362 470.896,-108.434 467.486,-114.548"/>
</g>
<!-- Node5 -->
<g id="node9" class="node"><title>Node5</title>
<a xlink:href="MojDbIndex_8cpp.htm" target="_top" xlink:title="MojDbIndex.cpp">
<polygon fill="white" stroke="black" points="0,-0.5 0,-21.5 92,-21.5 92,-0.5 0,-0.5"/>
<text text-anchor="middle" x="46" y="-8.5" font-family="Helvetica,sans-Serif" font-size="10.00">MojDbIndex.cpp</text>
</a>
</g>
<!-- Node1&#45;&gt;Node5 -->
<g id="edge22" class="edge"><title>Node1&#45;&gt;Node5</title>
<path fill="none" stroke="midnightblue" d="M446.377,-116.797C403.082,-107.84 339.203,-94.0767 284,-80 210.631,-61.291 125.652,-35.6936 79.7054,-21.5223"/>
<polygon fill="midnightblue" stroke="midnightblue" points="445.877,-120.267 456.378,-118.856 447.289,-113.411 445.877,-120.267"/>
</g>
<!-- Node6 -->
<g id="node11" class="node"><title>Node6</title>
<a xlink:href="MojDbKind_8cpp.htm" target="_top" xlink:title="MojDbKind.cpp">
<polygon fill="white" stroke="black" points="109.5,-0.5 109.5,-21.5 196.5,-21.5 196.5,-0.5 109.5,-0.5"/>
<text text-anchor="middle" x="153" y="-8.5" font-family="Helvetica,sans-Serif" font-size="10.00">MojDbKind.cpp</text>
</a>
</g>
<!-- Node1&#45;&gt;Node6 -->
<g id="edge24" class="edge"><title>Node1&#45;&gt;Node6</title>
<path fill="none" stroke="midnightblue" d="M451.988,-113.525C421.884,-104.382 381.444,-91.8462 346,-80 287.108,-60.3169 218.828,-35.4077 181.322,-21.5424"/>
<polygon fill="midnightblue" stroke="midnightblue" points="451.194,-116.942 461.779,-116.49 453.223,-110.242 451.194,-116.942"/>
</g>
<!-- Node10 -->
<g id="node19" class="node"><title>Node10</title>
<a xlink:href="MojDbSearchCursor_8cpp.htm" target="_top" xlink:title="MojDbSearchCursor.cpp">
<polygon fill="white" stroke="black" points="861.5,-0.5 861.5,-21.5 992.5,-21.5 992.5,-0.5 861.5,-0.5"/>
<text text-anchor="middle" x="927" y="-8.5" font-family="Helvetica,sans-Serif" font-size="10.00">MojDbSearchCursor.cpp</text>
</a>
</g>
<!-- Node1&#45;&gt;Node10 -->
<g id="edge28" class="edge"><title>Node1&#45;&gt;Node10</title>
<path fill="none" stroke="midnightblue" d="M482.995,-107.603C473.85,-92.3775 465.683,-71.5555 478,-58 506.149,-27.0198 811.451,-27.079 853,-22 855.707,-21.669 858.469,-21.3184 861.256,-20.9534"/>
<polygon fill="midnightblue" stroke="midnightblue" points="480.242,-109.788 488.641,-116.245 486.102,-105.959 480.242,-109.788"/>
</g>
<!-- Node11 -->
<g id="node21" class="node"><title>Node11</title>
<a xlink:href="MojDbCursor_8cpp.htm" target="_top" xlink:title="MojDbCursor.cpp">
<polygon fill="white" stroke="black" points="487,-58.5 487,-79.5 585,-79.5 585,-58.5 487,-58.5"/>
<text text-anchor="middle" x="536" y="-66.5" font-family="Helvetica,sans-Serif" font-size="10.00">MojDbCursor.cpp</text>
</a>
</g>
<!-- Node1&#45;&gt;Node11 -->
<g id="edge20" class="edge"><title>Node1&#45;&gt;Node11</title>
<path fill="none" stroke="midnightblue" d="M509.803,-107.959C516.149,-98.522 523.571,-87.4835 528.892,-79.5707"/>
<polygon fill="midnightblue" stroke="midnightblue" points="506.829,-106.11 504.153,-116.362 512.638,-110.016 506.829,-106.11"/>
</g>
<!-- Node12 -->
<g id="node25" class="node"><title>Node12</title>
<a xlink:href="MojDbQueryPlan_8cpp.htm" target="_top" xlink:title="MojDbQueryPlan.cpp">
<polygon fill="white" stroke="black" points="603,-58.5 603,-79.5 719,-79.5 719,-58.5 603,-58.5"/>
<text text-anchor="middle" x="661" y="-66.5" font-family="Helvetica,sans-Serif" font-size="10.00">MojDbQueryPlan.cpp</text>
</a>
</g>
<!-- Node1&#45;&gt;Node12 -->
<g id="edge26" class="edge"><title>Node1&#45;&gt;Node12</title>
<path fill="none" stroke="midnightblue" d="M536.178,-113.144C565.363,-102.823 604.607,-88.9439 631.245,-79.5231"/>
<polygon fill="midnightblue" stroke="midnightblue" points="534.96,-109.863 526.699,-116.497 537.294,-116.462 534.96,-109.863"/>
</g>
<!-- Node13 -->
<g id="node28" class="node"><title>Node13</title>
<a xlink:href="MojDbServiceHandler_8cpp.htm" target="_top" xlink:title="MojDbServiceHandler.cpp">
<polygon fill="white" stroke="black" points="736.5,-58.5 736.5,-79.5 875.5,-79.5 875.5,-58.5 736.5,-58.5"/>
<text text-anchor="middle" x="806" y="-66.5" font-family="Helvetica,sans-Serif" font-size="10.00">MojDbServiceHandler.cpp</text>
</a>
</g>
<!-- Node1&#45;&gt;Node13 -->
<g id="edge30" class="edge"><title>Node1&#45;&gt;Node13</title>
<path fill="none" stroke="midnightblue" d="M547.698,-117.484C603.328,-107.042 692.364,-90.3296 750.012,-79.5091"/>
<polygon fill="midnightblue" stroke="midnightblue" points="546.897,-114.073 537.714,-119.358 548.188,-120.953 546.897,-114.073"/>
</g>
<!-- Node14 -->
<g id="node30" class="node"><title>Node14</title>
<a xlink:href="MojDbWatcher_8cpp.htm" target="_top" xlink:title="MojDbWatcher.cpp">
<polygon fill="white" stroke="black" points="893,-58.5 893,-79.5 999,-79.5 999,-58.5 893,-58.5"/>
<text text-anchor="middle" x="946" y="-66.5" font-family="Helvetica,sans-Serif" font-size="10.00">MojDbWatcher.cpp</text>
</a>
</g>
<!-- Node1&#45;&gt;Node14 -->
<g id="edge32" class="edge"><title>Node1&#45;&gt;Node14</title>
<path fill="none" stroke="midnightblue" d="M547.764,-121.731C621.836,-113.84 763.808,-97.947 884,-80 886.919,-79.5641 889.912,-79.0978 892.931,-78.6123"/>
<polygon fill="midnightblue" stroke="midnightblue" points="547.348,-118.255 537.773,-122.791 548.086,-125.216 547.348,-118.255"/>
</g>
<!-- Node3 -->
<g id="node5" class="node"><title>Node3</title>
<a xlink:href="MojDb_8cpp.htm" target="_top" xlink:title="MojDb.cpp">
<polygon fill="white" stroke="black" points="360,-0.5 360,-21.5 426,-21.5 426,-0.5 360,-0.5"/>
<text text-anchor="middle" x="393" y="-8.5" font-family="Helvetica,sans-Serif" font-size="10.00">MojDb.cpp</text>
</a>
</g>
<!-- Node2&#45;&gt;Node3 -->
<g id="edge4" class="edge"><title>Node2&#45;&gt;Node3</title>
<path fill="none" stroke="midnightblue" d="M393,-48.1906C393,-39.1684 393,-28.9941 393,-21.5707"/>
<polygon fill="midnightblue" stroke="midnightblue" points="389.5,-48.3619 393,-58.3619 396.5,-48.3619 389.5,-48.3619"/>
</g>
<!-- Node4 -->
<g id="node7" class="node"><title>Node4</title>
<a xlink:href="MojDbAdmin_8cpp.htm" target="_top" xlink:title="MojDbAdmin.cpp">
<polygon fill="white" stroke="black" points="443.5,-0.5 443.5,-21.5 538.5,-21.5 538.5,-0.5 443.5,-0.5"/>
<text text-anchor="middle" x="491" y="-8.5" font-family="Helvetica,sans-Serif" font-size="10.00">MojDbAdmin.cpp</text>
</a>
</g>
<!-- Node2&#45;&gt;Node4 -->
<g id="edge6" class="edge"><title>Node2&#45;&gt;Node4</title>
<path fill="none" stroke="midnightblue" d="M419.864,-53.1009C436.82,-43.0658 458.253,-30.3808 473.139,-21.5707"/>
<polygon fill="midnightblue" stroke="midnightblue" points="417.798,-50.2566 410.975,-58.3619 421.363,-56.2807 417.798,-50.2566"/>
</g>
<!-- Node2&#45;&gt;Node5 -->
<g id="edge8" class="edge"><title>Node2&#45;&gt;Node5</title>
<path fill="none" stroke="midnightblue" d="M344.681,-61.7949C286.693,-53.016 186.566,-37.4372 101,-22 98.1251,-21.4813 95.1687,-20.9332 92.1894,-20.3695"/>
<polygon fill="midnightblue" stroke="midnightblue" points="344.247,-65.2691 354.658,-63.3012 345.292,-58.3475 344.247,-65.2691"/>
</g>
<!-- Node2&#45;&gt;Node6 -->
<g id="edge10" class="edge"><title>Node2&#45;&gt;Node6</title>
<path fill="none" stroke="midnightblue" d="M345.226,-57.4546C301.881,-46.9795 238.513,-31.6658 196.538,-21.5217"/>
<polygon fill="midnightblue" stroke="midnightblue" points="344.429,-60.8627 354.971,-59.8097 346.073,-54.0585 344.429,-60.8627"/>
</g>
<!-- Node7 -->
<g id="node13" class="node"><title>Node7</title>
<a xlink:href="MojDbKindEngine_8cpp.htm" target="_top" xlink:title="MojDbKindEngine.cpp">
<polygon fill="white" stroke="black" points="556,-0.5 556,-21.5 676,-21.5 676,-0.5 556,-0.5"/>
<text text-anchor="middle" x="616" y="-8.5" font-family="Helvetica,sans-Serif" font-size="10.00">MojDbKindEngine.cpp</text>
</a>
</g>
<!-- Node2&#45;&gt;Node7 -->
<g id="edge12" class="edge"><title>Node2&#45;&gt;Node7</title>
<path fill="none" stroke="midnightblue" d="M440.897,-56.5425C480.984,-46.1163 537.551,-31.4038 575.435,-21.5505"/>
<polygon fill="midnightblue" stroke="midnightblue" points="439.879,-53.1908 431.082,-59.0953 441.641,-59.9654 439.879,-53.1908"/>
</g>
<!-- Node8 -->
<g id="node15" class="node"><title>Node8</title>
<a xlink:href="MojDbPermissionEngine_8cpp.htm" target="_top" xlink:title="MojDbPermissionEngine.cpp">
<polygon fill="white" stroke="black" points="693.5,-0.5 693.5,-21.5 844.5,-21.5 844.5,-0.5 693.5,-0.5"/>
<text text-anchor="middle" x="769" y="-8.5" font-family="Helvetica,sans-Serif" font-size="10.00">MojDbPermissionEngine.cpp</text>
</a>
</g>
<!-- Node2&#45;&gt;Node8 -->
<g id="edge14" class="edge"><title>Node2&#45;&gt;Node8</title>
<path fill="none" stroke="midnightblue" d="M441.123,-58.7056C442.428,-58.4633 443.722,-58.2275 445,-58 491.235,-49.765 612.785,-32.5776 693.151,-21.4268"/>
<polygon fill="midnightblue" stroke="midnightblue" points="440.152,-55.3286 431,-60.6665 441.483,-62.2009 440.152,-55.3286"/>
</g>
<!-- Node9 -->
<g id="node17" class="node"><title>Node9</title>
<a xlink:href="MojDbQuotaEngine_8cpp.htm" target="_top" xlink:title="MojDbQuotaEngine.cpp">
<polygon fill="white" stroke="black" points="214,-0.5 214,-21.5 342,-21.5 342,-0.5 214,-0.5"/>
<text text-anchor="middle" x="278" y="-8.5" font-family="Helvetica,sans-Serif" font-size="10.00">MojDbQuotaEngine.cpp</text>
</a>
</g>
<!-- Node2&#45;&gt;Node9 -->
<g id="edge16" class="edge"><title>Node2&#45;&gt;Node9</title>
<path fill="none" stroke="midnightblue" d="M363.124,-53.9319C343.021,-43.7932 317.01,-30.6748 299.059,-21.6212"/>
<polygon fill="midnightblue" stroke="midnightblue" points="361.67,-57.1185 372.174,-58.4966 364.822,-50.8684 361.67,-57.1185"/>
</g>
<!-- Node2&#45;&gt;Node10 -->
<g id="edge18" class="edge"><title>Node2&#45;&gt;Node10</title>
<path fill="none" stroke="midnightblue" d="M441.186,-58.5966C442.469,-58.3873 443.742,-58.1878 445,-58 625.041,-31.1141 672.223,-43.3923 853,-22 855.709,-21.6795 858.471,-21.3375 861.26,-20.9798"/>
<polygon fill="midnightblue" stroke="midnightblue" points="440.475,-55.168 431.242,-60.3646 441.701,-62.06 440.475,-55.168"/>
</g>
</g>
</svg>
