<?xml version="1.0" encoding="UTF-8" standalone="no"?>
<!DOCTYPE svg PUBLIC "-//W3C//DTD SVG 1.1//EN"
 "http://www.w3.org/Graphics/SVG/1.1/DTD/svg11.dtd">
<!-- Generated by graphviz version 2.26.3 (20100126.1600)
 -->
<!-- Title: MojDbLevelContainerIterator.h Pages: 1 -->
<svg width="228pt" height="88pt"
 viewBox="0.00 0.00 228.00 88.00" xmlns="http://www.w3.org/2000/svg" xmlns:xlink="http://www.w3.org/1999/xlink">
<g id="graph1" class="graph" transform="scale(1 1) rotate(0) translate(4 84)">
<title>MojDbLevelContainerIterator.h</title>
<polygon fill="white" stroke="white" points="-4,5 -4,-84 225,-84 225,5 -4,5"/>
<!-- Node1 -->
<g id="node1" class="node"><title>Node1</title>
<polygon fill="#bfbfbf" stroke="black" points="59.5,-58.5 59.5,-79.5 220.5,-79.5 220.5,-58.5 59.5,-58.5"/>
<text text-anchor="middle" x="140" y="-66.5" font-family="Helvetica,sans-Serif" font-size="10.00">MojDbLevelContainerIterator.h</text>
</g>
<!-- Node2 -->
<g id="node3" class="node"><title>Node2</title>
<a xlink:href="MojNoCopy_8h.htm" target="_top" xlink:title="core/MojNoCopy.h">
<polygon fill="white" stroke="black" points="0,-0.5 0,-21.5 104,-21.5 104,-0.5 0,-0.5"/>
<text text-anchor="middle" x="52" y="-8.5" font-family="Helvetica,sans-Serif" font-size="10.00">core/MojNoCopy.h</text>
</a>
</g>
<!-- Node1&#45;&gt;Node2 -->
<g id="edge2" class="edge"><title>Node1&#45;&gt;Node2</title>
<path fill="none" stroke="midnightblue" d="M123.859,-58.3619C110.586,-49.6138 91.5675,-37.0786 76.4298,-27.1015"/>
<polygon fill="midnightblue" stroke="midnightblue" points="78.3139,-24.1515 68.0382,-21.5707 74.4617,-29.9962 78.3139,-24.1515"/>
</g>
<!-- Node3 -->
<g id="node5" class="node"><title>Node3</title>
<polygon fill="white" stroke="#bfbfbf" points="121.5,-0.5 121.5,-21.5 158.5,-21.5 158.5,-0.5 121.5,-0.5"/>
<text text-anchor="middle" x="140" y="-8.5" font-family="Helvetica,sans-Serif" font-size="10.00">map</text>
</g>
<!-- Node1&#45;&gt;Node3 -->
<g id="edge4" class="edge"><title>Node1&#45;&gt;Node3</title>
<path fill="none" stroke="midnightblue" d="M140,-58.3619C140,-50.9219 140,-40.7427 140,-31.7276"/>
<polygon fill="midnightblue" stroke="midnightblue" points="143.5,-31.5706 140,-21.5707 136.5,-31.5707 143.5,-31.5706"/>
</g>
<!-- Node4 -->
<g id="node7" class="node"><title>Node4</title>
<polygon fill="white" stroke="#bfbfbf" points="175.5,-0.5 175.5,-21.5 218.5,-21.5 218.5,-0.5 175.5,-0.5"/>
<text text-anchor="middle" x="197" y="-8.5" font-family="Helvetica,sans-Serif" font-size="10.00">string</text>
</g>
<!-- Node1&#45;&gt;Node4 -->
<g id="edge6" class="edge"><title>Node1&#45;&gt;Node4</title>
<path fill="none" stroke="midnightblue" d="M150.455,-58.3619C158.57,-50.1043 170.001,-38.4725 179.504,-28.8029"/>
<polygon fill="midnightblue" stroke="midnightblue" points="182.099,-31.1562 186.612,-21.5707 177.106,-26.2497 182.099,-31.1562"/>
</g>
</g>
</svg>
