<?xml version="1.0" encoding="UTF-8" standalone="no"?>
<!DOCTYPE svg PUBLIC "-//W3C//DTD SVG 1.1//EN"
 "http://www.w3.org/Graphics/SVG/1.1/DTD/svg11.dtd">
<!-- Generated by graphviz version 2.26.3 (20100126.1600)
 -->
<!-- Title: MojDbServiceHandlerBase.h Pages: 1 -->
<svg width="664pt" height="204pt"
 viewBox="0.00 0.00 663.66 204.00" xmlns="http://www.w3.org/2000/svg" xmlns:xlink="http://www.w3.org/1999/xlink">
<g id="graph1" class="graph" transform="scale(1 1) rotate(0) translate(4 200)">
<title>MojDbServiceHandlerBase.h</title>
<polygon fill="white" stroke="white" points="-4,5 -4,-200 660.658,-200 660.658,5 -4,5"/>
<!-- Node1 -->
<g id="node1" class="node"><title>Node1</title>
<polygon fill="#bfbfbf" stroke="black" points="315,-174.5 315,-195.5 467,-195.5 467,-174.5 315,-174.5"/>
<text text-anchor="middle" x="391" y="-182.5" font-family="Helvetica,sans-Serif" font-size="10.00">MojDbServiceHandlerBase.h</text>
</g>
<!-- Node2 -->
<g id="node3" class="node"><title>Node2</title>
<a xlink:href="MojDbServiceHandler_8h.htm" target="_top" xlink:title="MojDbServiceHandler.h">
<polygon fill="white" stroke="black" points="327,-116.5 327,-137.5 455,-137.5 455,-116.5 327,-116.5"/>
<text text-anchor="middle" x="391" y="-124.5" font-family="Helvetica,sans-Serif" font-size="10.00">MojDbServiceHandler.h</text>
</a>
</g>
<!-- Node1&#45;&gt;Node2 -->
<g id="edge2" class="edge"><title>Node1&#45;&gt;Node2</title>
<path fill="none" stroke="midnightblue" d="M391,-164.191C391,-155.168 391,-144.994 391,-137.571"/>
<polygon fill="midnightblue" stroke="midnightblue" points="387.5,-164.362 391,-174.362 394.5,-164.362 387.5,-164.362"/>
</g>
<!-- Node8 -->
<g id="node16" class="node"><title>Node8</title>
<a xlink:href="MojDbServiceHandlerInternal_8h.htm" target="_top" xlink:title="MojDbServiceHandlerInternal.h">
<polygon fill="white" stroke="black" points="142,-116.5 142,-137.5 306,-137.5 306,-116.5 142,-116.5"/>
<text text-anchor="middle" x="224" y="-124.5" font-family="Helvetica,sans-Serif" font-size="10.00">MojDbServiceHandlerInternal.h</text>
</a>
</g>
<!-- Node1&#45;&gt;Node8 -->
<g id="edge16" class="edge"><title>Node1&#45;&gt;Node8</title>
<path fill="none" stroke="midnightblue" d="M351.105,-171.144C321.387,-160.823 281.425,-146.944 254.299,-137.523"/>
<polygon fill="midnightblue" stroke="midnightblue" points="350.163,-174.522 360.758,-174.497 352.459,-167.909 350.163,-174.522"/>
</g>
<!-- Node9 -->
<g id="node21" class="node"><title>Node9</title>
<a xlink:href="MojDbServiceHandlerBase_8cpp.htm" target="_top" xlink:title="MojDbServiceHandlerBase.cpp">
<polygon fill="white" stroke="black" points="472.5,-116.5 472.5,-137.5 635.5,-137.5 635.5,-116.5 472.5,-116.5"/>
<text text-anchor="middle" x="554" y="-124.5" font-family="Helvetica,sans-Serif" font-size="10.00">MojDbServiceHandlerBase.cpp</text>
</a>
</g>
<!-- Node1&#45;&gt;Node9 -->
<g id="edge24" class="edge"><title>Node1&#45;&gt;Node9</title>
<path fill="none" stroke="midnightblue" d="M430.318,-171.009C459.285,-160.702 498.066,-146.903 524.427,-137.523"/>
<polygon fill="midnightblue" stroke="midnightblue" points="428.766,-167.847 420.518,-174.497 431.113,-174.442 428.766,-167.847"/>
</g>
<!-- Node3 -->
<g id="node5" class="node"><title>Node3</title>
<a xlink:href="MojDbServiceHandler_8cpp.htm" target="_top" xlink:title="MojDbServiceHandler.cpp">
<polygon fill="white" stroke="black" points="-0.5,-58.5 -0.5,-79.5 138.5,-79.5 138.5,-58.5 -0.5,-58.5"/>
<text text-anchor="middle" x="69" y="-66.5" font-family="Helvetica,sans-Serif" font-size="10.00">MojDbServiceHandler.cpp</text>
</a>
</g>
<!-- Node2&#45;&gt;Node3 -->
<g id="edge4" class="edge"><title>Node2&#45;&gt;Node3</title>
<path fill="none" stroke="midnightblue" d="M322.519,-114.665C264.543,-104.222 182.338,-89.415 127.421,-79.5231"/>
<polygon fill="midnightblue" stroke="midnightblue" points="322.226,-118.168 332.688,-116.497 323.467,-111.279 322.226,-118.168"/>
</g>
<!-- Node4 -->
<g id="node7" class="node"><title>Node4</title>
<a xlink:href="MojDbServiceHandlerInternal_8cpp.htm" target="_top" xlink:title="MojDbServiceHandlerInternal.cpp">
<polygon fill="white" stroke="black" points="305.5,-58.5 305.5,-79.5 480.5,-79.5 480.5,-58.5 305.5,-58.5"/>
<text text-anchor="middle" x="393" y="-66.5" font-family="Helvetica,sans-Serif" font-size="10.00">MojDbServiceHandlerInternal.cpp</text>
</a>
</g>
<!-- Node2&#45;&gt;Node4 -->
<g id="edge6" class="edge"><title>Node2&#45;&gt;Node4</title>
<path fill="none" stroke="midnightblue" d="M391.718,-106.191C392.029,-97.1684 392.38,-86.9941 392.635,-79.5707"/>
<polygon fill="midnightblue" stroke="midnightblue" points="388.214,-106.247 391.367,-116.362 395.209,-106.488 388.214,-106.247"/>
</g>
<!-- Node5 -->
<g id="node9" class="node"><title>Node5</title>
<a xlink:href="MojDbServiceSchemas_8cpp.htm" target="_top" xlink:title="MojDbServiceSchemas.cpp">
<polygon fill="white" stroke="black" points="497.5,-58.5 497.5,-79.5 642.5,-79.5 642.5,-58.5 497.5,-58.5"/>
<text text-anchor="middle" x="570" y="-66.5" font-family="Helvetica,sans-Serif" font-size="10.00">MojDbServiceSchemas.cpp</text>
</a>
</g>
<!-- Node2&#45;&gt;Node5 -->
<g id="edge8" class="edge"><title>Node2&#45;&gt;Node5</title>
<path fill="none" stroke="midnightblue" d="M432.933,-113.413C464.87,-103.065 508.196,-89.0258 537.524,-79.5231"/>
<polygon fill="midnightblue" stroke="midnightblue" points="431.85,-110.085 423.416,-116.497 434.008,-116.744 431.85,-110.085"/>
</g>
<!-- Node6 -->
<g id="node11" class="node"><title>Node6</title>
<a xlink:href="MojDbLunaServiceApp_8h.htm" target="_top" xlink:title="MojDbLunaServiceApp.h">
<polygon fill="white" stroke="black" points="156,-58.5 156,-79.5 288,-79.5 288,-58.5 156,-58.5"/>
<text text-anchor="middle" x="222" y="-66.5" font-family="Helvetica,sans-Serif" font-size="10.00">MojDbLunaServiceApp.h</text>
</a>
</g>
<!-- Node2&#45;&gt;Node6 -->
<g id="edge10" class="edge"><title>Node2&#45;&gt;Node6</title>
<path fill="none" stroke="midnightblue" d="M350.627,-113.144C320.553,-102.823 280.112,-88.9439 252.662,-79.5231"/>
<polygon fill="midnightblue" stroke="midnightblue" points="349.801,-116.561 360.395,-116.497 352.073,-109.94 349.801,-116.561"/>
</g>
<!-- Node7 -->
<g id="node13" class="node"><title>Node7</title>
<a xlink:href="MojDbLunaServiceApp_8cpp.htm" target="_top" xlink:title="MojDbLunaServiceApp.cpp">
<polygon fill="white" stroke="black" points="374.5,-0.5 374.5,-21.5 517.5,-21.5 517.5,-0.5 374.5,-0.5"/>
<text text-anchor="middle" x="446" y="-8.5" font-family="Helvetica,sans-Serif" font-size="10.00">MojDbLunaServiceApp.cpp</text>
</a>
</g>
<!-- Node2&#45;&gt;Node7 -->
<g id="edge14" class="edge"><title>Node2&#45;&gt;Node7</title>
<path fill="none" stroke="midnightblue" d="M464.932,-114.802C540.72,-102.125 647.966,-83.6322 651,-80 657.269,-72.4963 657.093,-65.6475 651,-58 634.363,-37.1165 569.829,-24.7546 517.554,-17.9935"/>
<polygon fill="midnightblue" stroke="midnightblue" points="464.213,-111.373 454.926,-116.472 465.366,-118.278 464.213,-111.373"/>
</g>
<!-- Node6&#45;&gt;Node7 -->
<g id="edge12" class="edge"><title>Node6&#45;&gt;Node7</title>
<path fill="none" stroke="midnightblue" d="M272.421,-55.9447C312.565,-45.5501 368.026,-31.1897 405.359,-21.5231"/>
<polygon fill="midnightblue" stroke="midnightblue" points="271.368,-52.6017 262.565,-58.4966 273.123,-59.3782 271.368,-52.6017"/>
</g>
<!-- Node8&#45;&gt;Node3 -->
<g id="edge18" class="edge"><title>Node8&#45;&gt;Node3</title>
<path fill="none" stroke="midnightblue" d="M186.25,-112.874C158.745,-102.582 122.079,-88.862 97.122,-79.5231"/>
<polygon fill="midnightblue" stroke="midnightblue" points="185.338,-116.27 195.931,-116.497 187.792,-109.714 185.338,-116.27"/>
</g>
<!-- Node8&#45;&gt;Node4 -->
<g id="edge20" class="edge"><title>Node8&#45;&gt;Node4</title>
<path fill="none" stroke="midnightblue" d="M264.373,-113.144C294.447,-102.823 334.888,-88.9439 362.338,-79.5231"/>
<polygon fill="midnightblue" stroke="midnightblue" points="262.927,-109.94 254.605,-116.497 265.199,-116.561 262.927,-109.94"/>
</g>
<!-- Node8&#45;&gt;Node6 -->
<g id="edge22" class="edge"><title>Node8&#45;&gt;Node6</title>
<path fill="none" stroke="midnightblue" d="M223.282,-106.191C222.971,-97.1684 222.62,-86.9941 222.365,-79.5707"/>
<polygon fill="midnightblue" stroke="midnightblue" points="219.791,-106.488 223.633,-116.362 226.786,-106.247 219.791,-106.488"/>
</g>
</g>
</svg>
