<?xml version="1.0" encoding="UTF-8" standalone="no"?>
<!DOCTYPE svg PUBLIC "-//W3C//DTD SVG 1.1//EN"
 "http://www.w3.org/Graphics/SVG/1.1/DTD/svg11.dtd">
<!-- Generated by graphviz version 2.26.3 (20100126.1600)
 -->
<!-- Title: MojDbKindEngine.h Pages: 1 -->
<svg width="3121pt" height="378pt"
 viewBox="0.00 0.00 3121.00 378.00" xmlns="http://www.w3.org/2000/svg" xmlns:xlink="http://www.w3.org/1999/xlink">
<g id="graph1" class="graph" transform="scale(1 1) rotate(0) translate(4 374)">
<title>MojDbKindEngine.h</title>
<polygon fill="white" stroke="white" points="-4,5 -4,-374 3118,-374 3118,5 -4,5"/>
<!-- Node1 -->
<g id="node1" class="node"><title>Node1</title>
<polygon fill="#bfbfbf" stroke="black" points="2663.5,-348.5 2663.5,-369.5 2772.5,-369.5 2772.5,-348.5 2663.5,-348.5"/>
<text text-anchor="middle" x="2718" y="-356.5" font-family="Helvetica,sans-Serif" font-size="10.00">MojDbKindEngine.h</text>
</g>
<!-- Node2 -->
<g id="node3" class="node"><title>Node2</title>
<a xlink:href="MojDb_8h.htm" target="_top" xlink:title="MojDb.h">
<polygon fill="white" stroke="black" points="1681.5,-232.5 1681.5,-253.5 1736.5,-253.5 1736.5,-232.5 1681.5,-232.5"/>
<text text-anchor="middle" x="1709" y="-240.5" font-family="Helvetica,sans-Serif" font-size="10.00">MojDb.h</text>
</a>
</g>
<!-- Node1&#45;&gt;Node2 -->
<g id="edge2" class="edge"><title>Node1&#45;&gt;Node2</title>
<path fill="none" stroke="midnightblue" d="M2653.21,-351.551C2456.44,-328.93 1871.05,-261.63 1736.7,-246.184"/>
<polygon fill="midnightblue" stroke="midnightblue" points="2653.06,-355.057 2663.39,-352.722 2653.86,-348.103 2653.06,-355.057"/>
</g>
<!-- Node22 -->
<g id="node48" class="node"><title>Node22</title>
<a xlink:href="MojDbKindEngine_8cpp.htm" target="_top" xlink:title="MojDbKindEngine.cpp">
<polygon fill="white" stroke="black" points="2993,-174.5 2993,-195.5 3113,-195.5 3113,-174.5 2993,-174.5"/>
<text text-anchor="middle" x="3053" y="-182.5" font-family="Helvetica,sans-Serif" font-size="10.00">MojDbKindEngine.cpp</text>
</a>
</g>
<!-- Node1&#45;&gt;Node22 -->
<g id="edge102" class="edge"><title>Node1&#45;&gt;Node22</title>
<path fill="none" stroke="midnightblue" d="M2730.12,-339.748C2740.62,-324.436 2757.08,-303.423 2776,-290 2847.2,-239.484 2945.77,-209.794 3004.11,-195.522"/>
<polygon fill="midnightblue" stroke="midnightblue" points="2726.98,-338.155 2724.38,-348.427 2732.82,-342.016 2726.98,-338.155"/>
</g>
<!-- Node36 -->
<g id="node76" class="node"><title>Node36</title>
<a xlink:href="MojDbKindState_8h.htm" target="_top" xlink:title="MojDbKindState.h">
<polygon fill="white" stroke="black" points="2628.5,-290.5 2628.5,-311.5 2729.5,-311.5 2729.5,-290.5 2628.5,-290.5"/>
<text text-anchor="middle" x="2679" y="-298.5" font-family="Helvetica,sans-Serif" font-size="10.00">MojDbKindState.h</text>
</a>
</g>
<!-- Node1&#45;&gt;Node36 -->
<g id="edge80" class="edge"><title>Node1&#45;&gt;Node36</title>
<path fill="none" stroke="midnightblue" d="M2705.2,-339.959C2698.85,-330.522 2691.43,-319.484 2686.11,-311.571"/>
<polygon fill="midnightblue" stroke="midnightblue" points="2702.36,-342.016 2710.85,-348.362 2708.17,-338.11 2702.36,-342.016"/>
</g>
<!-- Node39 -->
<g id="node91" class="node"><title>Node39</title>
<a xlink:href="MojDbLevelItem_8cpp.htm" target="_top" xlink:title="MojDbLevelItem.cpp">
<polygon fill="white" stroke="black" points="2785,-290.5 2785,-311.5 2897,-311.5 2897,-290.5 2785,-290.5"/>
<text text-anchor="middle" x="2841" y="-298.5" font-family="Helvetica,sans-Serif" font-size="10.00">MojDbLevelItem.cpp</text>
</a>
</g>
<!-- Node1&#45;&gt;Node39 -->
<g id="edge104" class="edge"><title>Node1&#45;&gt;Node39</title>
<path fill="none" stroke="midnightblue" d="M2749.37,-344.206C2770.95,-334.031 2799.1,-320.757 2818.48,-311.621"/>
<polygon fill="midnightblue" stroke="midnightblue" points="2747.83,-341.066 2740.27,-348.497 2750.81,-347.397 2747.83,-341.066"/>
</g>
<!-- Node3 -->
<g id="node5" class="node"><title>Node3</title>
<a xlink:href="MojDbClient_8h.htm" target="_top" xlink:title="MojDbClient.h">
<polygon fill="white" stroke="black" points="2021,-174.5 2021,-195.5 2103,-195.5 2103,-174.5 2021,-174.5"/>
<text text-anchor="middle" x="2062" y="-182.5" font-family="Helvetica,sans-Serif" font-size="10.00">MojDbClient.h</text>
</a>
</g>
<!-- Node2&#45;&gt;Node3 -->
<g id="edge4" class="edge"><title>Node2&#45;&gt;Node3</title>
<path fill="none" stroke="midnightblue" d="M1746.74,-237.921C1804.18,-230.015 1916.93,-213.812 2012,-196 2014.88,-195.46 2017.85,-194.876 2020.84,-194.269"/>
<polygon fill="midnightblue" stroke="midnightblue" points="1746.1,-234.475 1736.67,-239.299 1747.05,-241.411 1746.1,-234.475"/>
</g>
<!-- Node7 -->
<g id="node13" class="node"><title>Node7</title>
<a xlink:href="MojDbServiceHandlerBase_8h.htm" target="_top" xlink:title="MojDbServiceHandlerBase.h">
<polygon fill="white" stroke="black" points="227,-174.5 227,-195.5 379,-195.5 379,-174.5 227,-174.5"/>
<text text-anchor="middle" x="303" y="-182.5" font-family="Helvetica,sans-Serif" font-size="10.00">MojDbServiceHandlerBase.h</text>
</a>
</g>
<!-- Node2&#45;&gt;Node7 -->
<g id="edge12" class="edge"><title>Node2&#45;&gt;Node7</title>
<path fill="none" stroke="midnightblue" d="M1671.29,-242.134C1483.44,-237.746 647.272,-217.342 388,-196 385.182,-195.768 382.315,-195.51 379.42,-195.231"/>
<polygon fill="midnightblue" stroke="midnightblue" points="1671.41,-245.638 1681.49,-242.371 1671.58,-238.639 1671.41,-245.638"/>
</g>
<!-- Node14 -->
<g id="node28" class="node"><title>Node14</title>
<a xlink:href="MojDbServiceHandlerInternal_8h.htm" target="_top" xlink:title="MojDbServiceHandlerInternal.h">
<polygon fill="white" stroke="black" points="60,-116.5 60,-137.5 224,-137.5 224,-116.5 60,-116.5"/>
<text text-anchor="middle" x="142" y="-124.5" font-family="Helvetica,sans-Serif" font-size="10.00">MojDbServiceHandlerInternal.h</text>
</a>
</g>
<!-- Node2&#45;&gt;Node14 -->
<g id="edge38" class="edge"><title>Node2&#45;&gt;Node14</title>
<path fill="none" stroke="midnightblue" d="M1671.01,-242.544C1445.22,-239.74 287.316,-224.035 218,-196 187.766,-183.772 161.921,-153.767 149.64,-137.649"/>
<polygon fill="midnightblue" stroke="midnightblue" points="1671.3,-246.048 1681.34,-242.671 1671.39,-239.048 1671.3,-246.048"/>
</g>
<!-- Node16 -->
<g id="node36" class="node"><title>Node16</title>
<a xlink:href="MojDb_8cpp.htm" target="_top" xlink:title="MojDb.cpp">
<polygon fill="white" stroke="black" points="2909,-174.5 2909,-195.5 2975,-195.5 2975,-174.5 2909,-174.5"/>
<text text-anchor="middle" x="2942" y="-182.5" font-family="Helvetica,sans-Serif" font-size="10.00">MojDb.cpp</text>
</a>
</g>
<!-- Node2&#45;&gt;Node16 -->
<g id="edge40" class="edge"><title>Node2&#45;&gt;Node16</title>
<path fill="none" stroke="midnightblue" d="M1746.68,-242.611C1923.22,-240.623 2669.59,-230.305 2900,-196 2902.83,-195.578 2905.75,-195.039 2908.66,-194.427"/>
<polygon fill="midnightblue" stroke="midnightblue" points="1746.54,-239.113 1736.58,-242.723 1746.62,-246.112 1746.54,-239.113"/>
</g>
<!-- Node17 -->
<g id="node38" class="node"><title>Node17</title>
<a xlink:href="MojDbAdmin_8cpp.htm" target="_top" xlink:title="MojDbAdmin.cpp">
<polygon fill="white" stroke="black" points="2582.5,-174.5 2582.5,-195.5 2677.5,-195.5 2677.5,-174.5 2582.5,-174.5"/>
<text text-anchor="middle" x="2630" y="-182.5" font-family="Helvetica,sans-Serif" font-size="10.00">MojDbAdmin.cpp</text>
</a>
</g>
<!-- Node2&#45;&gt;Node17 -->
<g id="edge42" class="edge"><title>Node2&#45;&gt;Node17</title>
<path fill="none" stroke="midnightblue" d="M1746.74,-241.653C1891.34,-236.381 2410.21,-216.435 2574,-196 2576.75,-195.657 2579.57,-195.257 2582.41,-194.817"/>
<polygon fill="midnightblue" stroke="midnightblue" points="1746.46,-238.16 1736.59,-242.021 1746.71,-245.156 1746.46,-238.16"/>
</g>
<!-- Node18 -->
<g id="node40" class="node"><title>Node18</title>
<a xlink:href="MojDbCursor_8cpp.htm" target="_top" xlink:title="MojDbCursor.cpp">
<polygon fill="white" stroke="black" points="397,-174.5 397,-195.5 495,-195.5 495,-174.5 397,-174.5"/>
<text text-anchor="middle" x="446" y="-182.5" font-family="Helvetica,sans-Serif" font-size="10.00">MojDbCursor.cpp</text>
</a>
</g>
<!-- Node2&#45;&gt;Node18 -->
<g id="edge44" class="edge"><title>Node2&#45;&gt;Node18</title>
<path fill="none" stroke="midnightblue" d="M1671.21,-242.283C1493.34,-238.789 738.307,-222.639 504,-196 501.149,-195.676 498.227,-195.291 495.285,-194.863"/>
<polygon fill="midnightblue" stroke="midnightblue" points="1671.32,-245.785 1681.38,-242.481 1671.45,-238.786 1671.32,-245.785"/>
</g>
<!-- Node19 -->
<g id="node42" class="node"><title>Node19</title>
<a xlink:href="MojDbIndex_8cpp.htm" target="_top" xlink:title="MojDbIndex.cpp">
<polygon fill="white" stroke="black" points="2695,-174.5 2695,-195.5 2787,-195.5 2787,-174.5 2695,-174.5"/>
<text text-anchor="middle" x="2741" y="-182.5" font-family="Helvetica,sans-Serif" font-size="10.00">MojDbIndex.cpp</text>
</a>
</g>
<!-- Node2&#45;&gt;Node19 -->
<g id="edge46" class="edge"><title>Node2&#45;&gt;Node19</title>
<path fill="none" stroke="midnightblue" d="M1746.95,-241.933C1903.44,-237.417 2499.21,-219.041 2686,-196 2688.9,-195.642 2691.87,-195.217 2694.87,-194.746"/>
<polygon fill="midnightblue" stroke="midnightblue" points="1746.76,-238.437 1736.87,-242.223 1746.96,-245.434 1746.76,-238.437"/>
</g>
<!-- Node20 -->
<g id="node44" class="node"><title>Node20</title>
<a xlink:href="MojDbIsamQuery_8cpp.htm" target="_top" xlink:title="MojDbIsamQuery.cpp">
<polygon fill="white" stroke="black" points="512.5,-174.5 512.5,-195.5 629.5,-195.5 629.5,-174.5 512.5,-174.5"/>
<text text-anchor="middle" x="571" y="-182.5" font-family="Helvetica,sans-Serif" font-size="10.00">MojDbIsamQuery.cpp</text>
</a>
</g>
<!-- Node2&#45;&gt;Node20 -->
<g id="edge48" class="edge"><title>Node2&#45;&gt;Node20</title>
<path fill="none" stroke="midnightblue" d="M1671.26,-241.947C1505.94,-237.242 844.734,-217.43 638,-196 635.303,-195.72 632.55,-195.402 629.773,-195.055"/>
<polygon fill="midnightblue" stroke="midnightblue" points="1671.33,-245.45 1681.42,-242.235 1671.53,-238.453 1671.33,-245.45"/>
</g>
<!-- Node21 -->
<g id="node46" class="node"><title>Node21</title>
<a xlink:href="MojDbKind_8cpp.htm" target="_top" xlink:title="MojDbKind.cpp">
<polygon fill="white" stroke="black" points="2804.5,-174.5 2804.5,-195.5 2891.5,-195.5 2891.5,-174.5 2804.5,-174.5"/>
<text text-anchor="middle" x="2848" y="-182.5" font-family="Helvetica,sans-Serif" font-size="10.00">MojDbKind.cpp</text>
</a>
</g>
<!-- Node2&#45;&gt;Node21 -->
<g id="edge50" class="edge"><title>Node2&#45;&gt;Node21</title>
<path fill="none" stroke="midnightblue" d="M1746.78,-242.205C1913.76,-238.564 2586.5,-222.503 2796,-196 2798.75,-195.653 2801.56,-195.235 2804.4,-194.77"/>
<polygon fill="midnightblue" stroke="midnightblue" points="1746.45,-238.712 1736.52,-242.427 1746.6,-245.71 1746.45,-238.712"/>
</g>
<!-- Node2&#45;&gt;Node22 -->
<g id="edge52" class="edge"><title>Node2&#45;&gt;Node22</title>
<path fill="none" stroke="midnightblue" d="M1746.87,-242.225C1931.08,-238.358 2734.75,-220.371 2984,-196 2986.9,-195.717 2989.86,-195.39 2992.84,-195.03"/>
<polygon fill="midnightblue" stroke="midnightblue" points="1746.53,-238.731 1736.6,-242.439 1746.68,-245.729 1746.53,-238.731"/>
</g>
<!-- Node23 -->
<g id="node50" class="node"><title>Node23</title>
<a xlink:href="MojDbObjectHeader_8cpp.htm" target="_top" xlink:title="MojDbObjectHeader.cpp">
<polygon fill="white" stroke="black" points="646.5,-174.5 646.5,-195.5 777.5,-195.5 777.5,-174.5 646.5,-174.5"/>
<text text-anchor="middle" x="712" y="-182.5" font-family="Helvetica,sans-Serif" font-size="10.00">MojDbObjectHeader.cpp</text>
</a>
</g>
<!-- Node2&#45;&gt;Node23 -->
<g id="edge54" class="edge"><title>Node2&#45;&gt;Node23</title>
<path fill="none" stroke="midnightblue" d="M1671.09,-242.383C1545.03,-240.05 1128.47,-230.093 786,-196 783.286,-195.73 780.519,-195.43 777.726,-195.107"/>
<polygon fill="midnightblue" stroke="midnightblue" points="1671.31,-245.887 1681.37,-242.568 1671.43,-238.888 1671.31,-245.887"/>
</g>
<!-- Node24 -->
<g id="node52" class="node"><title>Node24</title>
<a xlink:href="MojDbObjectItem_8cpp.htm" target="_top" xlink:title="MojDbObjectItem.cpp">
<polygon fill="white" stroke="black" points="795,-174.5 795,-195.5 911,-195.5 911,-174.5 795,-174.5"/>
<text text-anchor="middle" x="853" y="-182.5" font-family="Helvetica,sans-Serif" font-size="10.00">MojDbObjectItem.cpp</text>
</a>
</g>
<!-- Node2&#45;&gt;Node24 -->
<g id="edge56" class="edge"><title>Node2&#45;&gt;Node24</title>
<path fill="none" stroke="midnightblue" d="M1671.02,-242.128C1556.98,-239.21 1207.68,-228.097 920,-196 917.071,-195.673 914.076,-195.305 911.054,-194.908"/>
<polygon fill="midnightblue" stroke="midnightblue" points="1671.23,-245.634 1681.31,-242.385 1671.4,-238.636 1671.23,-245.634"/>
</g>
<!-- Node25 -->
<g id="node54" class="node"><title>Node25</title>
<a xlink:href="MojDbPermissionEngine_8cpp.htm" target="_top" xlink:title="MojDbPermissionEngine.cpp">
<polygon fill="white" stroke="black" points="2120.5,-174.5 2120.5,-195.5 2271.5,-195.5 2271.5,-174.5 2120.5,-174.5"/>
<text text-anchor="middle" x="2196" y="-182.5" font-family="Helvetica,sans-Serif" font-size="10.00">MojDbPermissionEngine.cpp</text>
</a>
</g>
<!-- Node2&#45;&gt;Node25 -->
<g id="edge58" class="edge"><title>Node2&#45;&gt;Node25</title>
<path fill="none" stroke="midnightblue" d="M1747.18,-238.729C1818.77,-230.681 1978.02,-212.585 2112,-196 2114.77,-195.657 2117.6,-195.304 2120.45,-194.945"/>
<polygon fill="midnightblue" stroke="midnightblue" points="1746.41,-235.293 1736.87,-239.887 1747.19,-242.249 1746.41,-235.293"/>
</g>
<!-- Node26 -->
<g id="node56" class="node"><title>Node26</title>
<a xlink:href="MojDbPutHandler_8cpp.htm" target="_top" xlink:title="MojDbPutHandler.cpp">
<polygon fill="white" stroke="black" points="928.5,-174.5 928.5,-195.5 1047.5,-195.5 1047.5,-174.5 928.5,-174.5"/>
<text text-anchor="middle" x="988" y="-182.5" font-family="Helvetica,sans-Serif" font-size="10.00">MojDbPutHandler.cpp</text>
</a>
</g>
<!-- Node2&#45;&gt;Node26 -->
<g id="edge60" class="edge"><title>Node2&#45;&gt;Node26</title>
<path fill="none" stroke="midnightblue" d="M1670.96,-241.441C1570.32,-237.061 1288.83,-223.157 1056,-196 1053.27,-195.681 1050.48,-195.331 1047.66,-194.958"/>
<polygon fill="midnightblue" stroke="midnightblue" points="1671.09,-244.95 1681.23,-241.882 1671.39,-237.956 1671.09,-244.95"/>
</g>
<!-- Node27 -->
<g id="node58" class="node"><title>Node27</title>
<a xlink:href="MojDbQueryPlan_8cpp.htm" target="_top" xlink:title="MojDbQueryPlan.cpp">
<polygon fill="white" stroke="black" points="1065,-174.5 1065,-195.5 1181,-195.5 1181,-174.5 1065,-174.5"/>
<text text-anchor="middle" x="1123" y="-182.5" font-family="Helvetica,sans-Serif" font-size="10.00">MojDbQueryPlan.cpp</text>
</a>
</g>
<!-- Node2&#45;&gt;Node27 -->
<g id="edge62" class="edge"><title>Node2&#45;&gt;Node27</title>
<path fill="none" stroke="midnightblue" d="M1671.32,-240.528C1585.63,-234.7 1369.64,-218.85 1190,-196 1187.08,-195.628 1184.09,-195.224 1181.07,-194.797"/>
<polygon fill="midnightblue" stroke="midnightblue" points="1671.14,-244.023 1681.35,-241.205 1671.61,-237.039 1671.14,-244.023"/>
</g>
<!-- Node28 -->
<g id="node60" class="node"><title>Node28</title>
<a xlink:href="MojDbQuotaEngine_8cpp.htm" target="_top" xlink:title="MojDbQuotaEngine.cpp">
<polygon fill="white" stroke="black" points="2289,-174.5 2289,-195.5 2417,-195.5 2417,-174.5 2289,-174.5"/>
<text text-anchor="middle" x="2353" y="-182.5" font-family="Helvetica,sans-Serif" font-size="10.00">MojDbQuotaEngine.cpp</text>
</a>
</g>
<!-- Node2&#45;&gt;Node28 -->
<g id="edge64" class="edge"><title>Node2&#45;&gt;Node28</title>
<path fill="none" stroke="midnightblue" d="M1746.87,-240.769C1838.57,-235.174 2079.71,-219.307 2280,-196 2282.93,-195.659 2285.92,-195.291 2288.94,-194.903"/>
<polygon fill="midnightblue" stroke="midnightblue" points="1746.47,-237.287 1736.7,-241.385 1746.89,-244.274 1746.47,-237.287"/>
</g>
<!-- Node29 -->
<g id="node62" class="node"><title>Node29</title>
<a xlink:href="MojDbReq_8cpp.htm" target="_top" xlink:title="MojDbReq.cpp">
<polygon fill="white" stroke="black" points="1199,-174.5 1199,-195.5 1285,-195.5 1285,-174.5 1199,-174.5"/>
<text text-anchor="middle" x="1242" y="-182.5" font-family="Helvetica,sans-Serif" font-size="10.00">MojDbReq.cpp</text>
</a>
</g>
<!-- Node2&#45;&gt;Node29 -->
<g id="edge66" class="edge"><title>Node2&#45;&gt;Node29</title>
<path fill="none" stroke="midnightblue" d="M1671.08,-239.929C1597.88,-233.73 1432.15,-218.382 1294,-196 1291.09,-195.528 1288.09,-195.002 1285.07,-194.443"/>
<polygon fill="midnightblue" stroke="midnightblue" points="1670.93,-243.429 1681.19,-240.777 1671.52,-236.453 1670.93,-243.429"/>
</g>
<!-- Node30 -->
<g id="node64" class="node"><title>Node30</title>
<a xlink:href="MojDbRevisionSet_8cpp.htm" target="_top" xlink:title="MojDbRevisionSet.cpp">
<polygon fill="white" stroke="black" points="1303,-174.5 1303,-195.5 1425,-195.5 1425,-174.5 1303,-174.5"/>
<text text-anchor="middle" x="1364" y="-182.5" font-family="Helvetica,sans-Serif" font-size="10.00">MojDbRevisionSet.cpp</text>
</a>
</g>
<!-- Node2&#45;&gt;Node30 -->
<g id="edge68" class="edge"><title>Node2&#45;&gt;Node30</title>
<path fill="none" stroke="midnightblue" d="M1671.31,-236.664C1612.08,-226.707 1496.63,-207.297 1425.33,-195.31"/>
<polygon fill="midnightblue" stroke="midnightblue" points="1670.91,-240.145 1681.35,-238.352 1672.07,-233.242 1670.91,-240.145"/>
</g>
<!-- Node31 -->
<g id="node66" class="node"><title>Node31</title>
<a xlink:href="MojDbSearchCursor_8cpp.htm" target="_top" xlink:title="MojDbSearchCursor.cpp">
<polygon fill="white" stroke="black" points="2434.5,-174.5 2434.5,-195.5 2565.5,-195.5 2565.5,-174.5 2434.5,-174.5"/>
<text text-anchor="middle" x="2500" y="-182.5" font-family="Helvetica,sans-Serif" font-size="10.00">MojDbSearchCursor.cpp</text>
</a>
</g>
<!-- Node2&#45;&gt;Node31 -->
<g id="edge70" class="edge"><title>Node2&#45;&gt;Node31</title>
<path fill="none" stroke="midnightblue" d="M1747.05,-241.607C1854.16,-237.449 2167.27,-223.663 2426,-196 2428.71,-195.71 2431.48,-195.394 2434.27,-195.057"/>
<polygon fill="midnightblue" stroke="midnightblue" points="1746.61,-238.121 1736.75,-242.002 1746.88,-245.116 1746.61,-238.121"/>
</g>
<!-- Node32 -->
<g id="node68" class="node"><title>Node32</title>
<a xlink:href="MojDbWatcher_8cpp.htm" target="_top" xlink:title="MojDbWatcher.cpp">
<polygon fill="white" stroke="black" points="1443,-174.5 1443,-195.5 1549,-195.5 1549,-174.5 1443,-174.5"/>
<text text-anchor="middle" x="1496" y="-182.5" font-family="Helvetica,sans-Serif" font-size="10.00">MojDbWatcher.cpp</text>
</a>
</g>
<!-- Node2&#45;&gt;Node32 -->
<g id="edge72" class="edge"><title>Node2&#45;&gt;Node32</title>
<path fill="none" stroke="midnightblue" d="M1671.38,-232.756C1632.93,-222.286 1573.51,-206.106 1534.68,-195.533"/>
<polygon fill="midnightblue" stroke="midnightblue" points="1670.59,-236.167 1681.15,-235.418 1672.42,-229.413 1670.59,-236.167"/>
</g>
<!-- Node33 -->
<g id="node70" class="node"><title>Node33</title>
<a xlink:href="MojDbLevelDatabase_8cpp.htm" target="_top" xlink:title="MojDbLevelDatabase.cpp">
<polygon fill="white" stroke="black" points="1566.5,-174.5 1566.5,-195.5 1703.5,-195.5 1703.5,-174.5 1566.5,-174.5"/>
<text text-anchor="middle" x="1635" y="-182.5" font-family="Helvetica,sans-Serif" font-size="10.00">MojDbLevelDatabase.cpp</text>
</a>
</g>
<!-- Node2&#45;&gt;Node33 -->
<g id="edge74" class="edge"><title>Node2&#45;&gt;Node33</title>
<path fill="none" stroke="midnightblue" d="M1687.28,-225.975C1674.72,-216.132 1659.31,-204.055 1648.49,-195.571"/>
<polygon fill="midnightblue" stroke="midnightblue" points="1685.4,-228.948 1695.43,-232.362 1689.72,-223.438 1685.4,-228.948"/>
</g>
<!-- Node34 -->
<g id="node72" class="node"><title>Node34</title>
<a xlink:href="MojDbLevelEngine_8cpp.htm" target="_top" xlink:title="MojDbLevelEngine.cpp">
<polygon fill="white" stroke="black" points="1720.5,-174.5 1720.5,-195.5 1845.5,-195.5 1845.5,-174.5 1720.5,-174.5"/>
<text text-anchor="middle" x="1783" y="-182.5" font-family="Helvetica,sans-Serif" font-size="10.00">MojDbLevelEngine.cpp</text>
</a>
</g>
<!-- Node2&#45;&gt;Node34 -->
<g id="edge76" class="edge"><title>Node2&#45;&gt;Node34</title>
<path fill="none" stroke="midnightblue" d="M1730.72,-225.975C1743.28,-216.132 1758.69,-204.055 1769.51,-195.571"/>
<polygon fill="midnightblue" stroke="midnightblue" points="1728.28,-223.438 1722.57,-232.362 1732.6,-228.948 1728.28,-223.438"/>
</g>
<!-- Node35 -->
<g id="node74" class="node"><title>Node35</title>
<a xlink:href="MojDbBerkeleyEngine_8cpp.htm" target="_top" xlink:title="MojDbBerkeleyEngine.cpp">
<polygon fill="white" stroke="black" points="1863,-174.5 1863,-195.5 2003,-195.5 2003,-174.5 1863,-174.5"/>
<text text-anchor="middle" x="1933" y="-182.5" font-family="Helvetica,sans-Serif" font-size="10.00">MojDbBerkeleyEngine.cpp</text>
</a>
</g>
<!-- Node2&#45;&gt;Node35 -->
<g id="edge78" class="edge"><title>Node2&#45;&gt;Node35</title>
<path fill="none" stroke="midnightblue" d="M1746.63,-233.256C1786.94,-222.82 1850.69,-206.314 1892.18,-195.57"/>
<polygon fill="midnightblue" stroke="midnightblue" points="1745.72,-229.877 1736.92,-235.772 1747.47,-236.653 1745.72,-229.877"/>
</g>
<!-- Node4 -->
<g id="node7" class="node"><title>Node4</title>
<a xlink:href="MojDbServiceClient_8h.htm" target="_top" xlink:title="MojDbServiceClient.h">
<polygon fill="white" stroke="black" points="2064.5,-116.5 2064.5,-137.5 2181.5,-137.5 2181.5,-116.5 2064.5,-116.5"/>
<text text-anchor="middle" x="2123" y="-124.5" font-family="Helvetica,sans-Serif" font-size="10.00">MojDbServiceClient.h</text>
</a>
</g>
<!-- Node3&#45;&gt;Node4 -->
<g id="edge6" class="edge"><title>Node3&#45;&gt;Node4</title>
<path fill="none" stroke="midnightblue" d="M2080.51,-167.405C2090.75,-157.668 2103.13,-145.891 2111.88,-137.571"/>
<polygon fill="midnightblue" stroke="midnightblue" points="2078.02,-164.935 2073.19,-174.362 2082.85,-170.008 2078.02,-164.935"/>
</g>
<!-- Node6 -->
<g id="node11" class="node"><title>Node6</title>
<a xlink:href="MojDbClient_8cpp.htm" target="_top" xlink:title="MojDbClient.cpp">
<polygon fill="white" stroke="black" points="1954.5,-116.5 1954.5,-137.5 2047.5,-137.5 2047.5,-116.5 1954.5,-116.5"/>
<text text-anchor="middle" x="2001" y="-124.5" font-family="Helvetica,sans-Serif" font-size="10.00">MojDbClient.cpp</text>
</a>
</g>
<!-- Node3&#45;&gt;Node6 -->
<g id="edge10" class="edge"><title>Node3&#45;&gt;Node6</title>
<path fill="none" stroke="midnightblue" d="M2043.49,-167.405C2033.25,-157.668 2020.87,-145.891 2012.12,-137.571"/>
<polygon fill="midnightblue" stroke="midnightblue" points="2041.15,-170.008 2050.81,-174.362 2045.98,-164.935 2041.15,-170.008"/>
</g>
<!-- Node5 -->
<g id="node9" class="node"><title>Node5</title>
<a xlink:href="MojDbServiceClient_8cpp.htm" target="_top" xlink:title="MojDbServiceClient.cpp">
<polygon fill="white" stroke="black" points="2059,-58.5 2059,-79.5 2187,-79.5 2187,-58.5 2059,-58.5"/>
<text text-anchor="middle" x="2123" y="-66.5" font-family="Helvetica,sans-Serif" font-size="10.00">MojDbServiceClient.cpp</text>
</a>
</g>
<!-- Node4&#45;&gt;Node5 -->
<g id="edge8" class="edge"><title>Node4&#45;&gt;Node5</title>
<path fill="none" stroke="midnightblue" d="M2123,-106.191C2123,-97.1684 2123,-86.9941 2123,-79.5707"/>
<polygon fill="midnightblue" stroke="midnightblue" points="2119.5,-106.362 2123,-116.362 2126.5,-106.362 2119.5,-106.362"/>
</g>
<!-- Node8 -->
<g id="node15" class="node"><title>Node8</title>
<a xlink:href="MojDbServiceHandler_8h.htm" target="_top" xlink:title="MojDbServiceHandler.h">
<polygon fill="white" stroke="black" points="422,-116.5 422,-137.5 550,-137.5 550,-116.5 422,-116.5"/>
<text text-anchor="middle" x="486" y="-124.5" font-family="Helvetica,sans-Serif" font-size="10.00">MojDbServiceHandler.h</text>
</a>
</g>
<!-- Node7&#45;&gt;Node8 -->
<g id="edge14" class="edge"><title>Node7&#45;&gt;Node8</title>
<path fill="none" stroke="midnightblue" d="M345.87,-171.413C378.52,-161.065 422.815,-147.026 452.798,-137.523"/>
<polygon fill="midnightblue" stroke="midnightblue" points="344.615,-168.139 336.14,-174.497 346.73,-174.812 344.615,-168.139"/>
</g>
<!-- Node7&#45;&gt;Node14 -->
<g id="edge28" class="edge"><title>Node7&#45;&gt;Node14</title>
<path fill="none" stroke="midnightblue" d="M264.164,-171.009C235.553,-160.702 197.248,-146.903 171.211,-137.523"/>
<polygon fill="midnightblue" stroke="midnightblue" points="263.25,-174.4 273.844,-174.497 265.622,-167.814 263.25,-174.4"/>
</g>
<!-- Node15 -->
<g id="node33" class="node"><title>Node15</title>
<a xlink:href="MojDbServiceHandlerBase_8cpp.htm" target="_top" xlink:title="MojDbServiceHandlerBase.cpp">
<polygon fill="white" stroke="black" points="241.5,-116.5 241.5,-137.5 404.5,-137.5 404.5,-116.5 241.5,-116.5"/>
<text text-anchor="middle" x="323" y="-124.5" font-family="Helvetica,sans-Serif" font-size="10.00">MojDbServiceHandlerBase.cpp</text>
</a>
</g>
<!-- Node7&#45;&gt;Node15 -->
<g id="edge36" class="edge"><title>Node7&#45;&gt;Node15</title>
<path fill="none" stroke="midnightblue" d="M309.971,-164.784C313.132,-155.617 316.739,-145.157 319.355,-137.571"/>
<polygon fill="midnightblue" stroke="midnightblue" points="306.619,-163.767 306.668,-174.362 313.237,-166.049 306.619,-163.767"/>
</g>
<!-- Node9 -->
<g id="node17" class="node"><title>Node9</title>
<a xlink:href="MojDbServiceHandler_8cpp.htm" target="_top" xlink:title="MojDbServiceHandler.cpp">
<polygon fill="white" stroke="black" points="149.5,-58.5 149.5,-79.5 288.5,-79.5 288.5,-58.5 149.5,-58.5"/>
<text text-anchor="middle" x="219" y="-66.5" font-family="Helvetica,sans-Serif" font-size="10.00">MojDbServiceHandler.cpp</text>
</a>
</g>
<!-- Node8&#45;&gt;Node9 -->
<g id="edge16" class="edge"><title>Node8&#45;&gt;Node9</title>
<path fill="none" stroke="midnightblue" d="M427.716,-114.339C379.734,-103.916 312.508,-89.3126 267.442,-79.5231"/>
<polygon fill="midnightblue" stroke="midnightblue" points="427.133,-117.794 437.648,-116.497 428.619,-110.954 427.133,-117.794"/>
</g>
<!-- Node10 -->
<g id="node19" class="node"><title>Node10</title>
<a xlink:href="MojDbServiceHandlerInternal_8cpp.htm" target="_top" xlink:title="MojDbServiceHandlerInternal.cpp">
<polygon fill="white" stroke="black" points="305.5,-58.5 305.5,-79.5 480.5,-79.5 480.5,-58.5 305.5,-58.5"/>
<text text-anchor="middle" x="393" y="-66.5" font-family="Helvetica,sans-Serif" font-size="10.00">MojDbServiceHandlerInternal.cpp</text>
</a>
</g>
<!-- Node8&#45;&gt;Node10 -->
<g id="edge18" class="edge"><title>Node8&#45;&gt;Node10</title>
<path fill="none" stroke="midnightblue" d="M460.059,-110.821C444.04,-100.831 423.945,-88.2993 409.949,-79.5707"/>
<polygon fill="midnightblue" stroke="midnightblue" points="458.605,-114.04 468.942,-116.362 462.309,-108.1 458.605,-114.04"/>
</g>
<!-- Node11 -->
<g id="node21" class="node"><title>Node11</title>
<a xlink:href="MojDbServiceSchemas_8cpp.htm" target="_top" xlink:title="MojDbServiceSchemas.cpp">
<polygon fill="white" stroke="black" points="497.5,-58.5 497.5,-79.5 642.5,-79.5 642.5,-58.5 497.5,-58.5"/>
<text text-anchor="middle" x="570" y="-66.5" font-family="Helvetica,sans-Serif" font-size="10.00">MojDbServiceSchemas.cpp</text>
</a>
</g>
<!-- Node8&#45;&gt;Node11 -->
<g id="edge20" class="edge"><title>Node8&#45;&gt;Node11</title>
<path fill="none" stroke="midnightblue" d="M509.838,-110.541C524.238,-100.597 542.167,-88.2177 554.691,-79.5707"/>
<polygon fill="midnightblue" stroke="midnightblue" points="507.647,-107.8 501.407,-116.362 511.625,-113.56 507.647,-107.8"/>
</g>
<!-- Node12 -->
<g id="node23" class="node"><title>Node12</title>
<a xlink:href="MojDbLunaServiceApp_8h.htm" target="_top" xlink:title="MojDbLunaServiceApp.h">
<polygon fill="white" stroke="black" points="0,-58.5 0,-79.5 132,-79.5 132,-58.5 0,-58.5"/>
<text text-anchor="middle" x="66" y="-66.5" font-family="Helvetica,sans-Serif" font-size="10.00">MojDbLunaServiceApp.h</text>
</a>
</g>
<!-- Node8&#45;&gt;Node12 -->
<g id="edge22" class="edge"><title>Node8&#45;&gt;Node12</title>
<path fill="none" stroke="midnightblue" d="M411.863,-115.858C290.589,-98.7951 258.589,-96.404 141,-80 138.133,-79.6 135.204,-79.1875 132.246,-78.7676"/>
<polygon fill="midnightblue" stroke="midnightblue" points="411.524,-119.345 421.915,-117.277 412.503,-112.413 411.524,-119.345"/>
</g>
<!-- Node13 -->
<g id="node25" class="node"><title>Node13</title>
<a xlink:href="MojDbLunaServiceApp_8cpp.htm" target="_top" xlink:title="MojDbLunaServiceApp.cpp">
<polygon fill="white" stroke="black" points="296.5,-0.5 296.5,-21.5 439.5,-21.5 439.5,-0.5 296.5,-0.5"/>
<text text-anchor="middle" x="368" y="-8.5" font-family="Helvetica,sans-Serif" font-size="10.00">MojDbLunaServiceApp.cpp</text>
</a>
</g>
<!-- Node8&#45;&gt;Node13 -->
<g id="edge26" class="edge"><title>Node8&#45;&gt;Node13</title>
<path fill="none" stroke="midnightblue" d="M560.282,-119.973C617.329,-111.659 681.587,-94.0859 651,-58 637.434,-41.9955 519.122,-26.6975 439.829,-18.1097"/>
<polygon fill="midnightblue" stroke="midnightblue" points="559.536,-116.542 550.106,-121.372 560.49,-123.477 559.536,-116.542"/>
</g>
<!-- Node12&#45;&gt;Node13 -->
<g id="edge24" class="edge"><title>Node12&#45;&gt;Node13</title>
<path fill="none" stroke="midnightblue" d="M130.566,-56.5999C184.922,-46.1607 261.808,-31.3945 313.208,-21.5231"/>
<polygon fill="midnightblue" stroke="midnightblue" points="129.85,-53.1733 120.69,-58.4966 131.171,-60.0477 129.85,-53.1733"/>
</g>
<!-- Node14&#45;&gt;Node9 -->
<g id="edge30" class="edge"><title>Node14&#45;&gt;Node9</title>
<path fill="none" stroke="midnightblue" d="M164.226,-110.259C177.361,-100.364 193.595,-88.1361 204.967,-79.5707"/>
<polygon fill="midnightblue" stroke="midnightblue" points="162.005,-107.55 156.123,-116.362 166.216,-113.141 162.005,-107.55"/>
</g>
<!-- Node14&#45;&gt;Node10 -->
<g id="edge32" class="edge"><title>Node14&#45;&gt;Node10</title>
<path fill="none" stroke="midnightblue" d="M197.358,-114.208C242.427,-103.794 305.273,-89.2716 347.461,-79.5231"/>
<polygon fill="midnightblue" stroke="midnightblue" points="196.409,-110.835 187.454,-116.497 197.985,-117.655 196.409,-110.835"/>
</g>
<!-- Node14&#45;&gt;Node12 -->
<g id="edge34" class="edge"><title>Node14&#45;&gt;Node12</title>
<path fill="none" stroke="midnightblue" d="M120.063,-110.259C107.098,-100.364 91.0749,-88.1361 79.8512,-79.5707"/>
<polygon fill="midnightblue" stroke="midnightblue" points="117.988,-113.077 128.06,-116.362 122.234,-107.513 117.988,-113.077"/>
</g>
<!-- Node37 -->
<g id="node78" class="node"><title>Node37</title>
<a xlink:href="MojDbKind_8h.htm" target="_top" xlink:title="MojDbKind.h">
<polygon fill="white" stroke="black" points="2647,-232.5 2647,-253.5 2723,-253.5 2723,-232.5 2647,-232.5"/>
<text text-anchor="middle" x="2685" y="-240.5" font-family="Helvetica,sans-Serif" font-size="10.00">MojDbKind.h</text>
</a>
</g>
<!-- Node36&#45;&gt;Node37 -->
<g id="edge82" class="edge"><title>Node36&#45;&gt;Node37</title>
<path fill="none" stroke="midnightblue" d="M2681.15,-280.191C2682.09,-271.168 2683.14,-260.994 2683.91,-253.571"/>
<polygon fill="midnightblue" stroke="midnightblue" points="2677.65,-280.055 2680.1,-290.362 2684.61,-280.775 2677.65,-280.055"/>
</g>
<!-- Node38 -->
<g id="node88" class="node"><title>Node38</title>
<a xlink:href="MojDbKindState_8cpp.htm" target="_top" xlink:title="MojDbKindState.cpp">
<polygon fill="white" stroke="black" points="2517,-232.5 2517,-253.5 2629,-253.5 2629,-232.5 2517,-232.5"/>
<text text-anchor="middle" x="2573" y="-240.5" font-family="Helvetica,sans-Serif" font-size="10.00">MojDbKindState.cpp</text>
</a>
</g>
<!-- Node36&#45;&gt;Node38 -->
<g id="edge100" class="edge"><title>Node36&#45;&gt;Node38</title>
<path fill="none" stroke="midnightblue" d="M2650.7,-285.517C2632.25,-275.419 2608.64,-262.503 2592.32,-253.571"/>
<polygon fill="midnightblue" stroke="midnightblue" points="2649.11,-288.632 2659.56,-290.362 2652.47,-282.491 2649.11,-288.632"/>
</g>
<!-- Node37&#45;&gt;Node16 -->
<g id="edge84" class="edge"><title>Node37&#45;&gt;Node16</title>
<path fill="none" stroke="midnightblue" d="M2733.22,-233.048C2776.88,-223.898 2842.91,-209.711 2900,-196 2902.79,-195.331 2905.67,-194.619 2908.56,-193.89"/>
<polygon fill="midnightblue" stroke="midnightblue" points="2732.24,-229.677 2723.17,-235.149 2733.67,-236.529 2732.24,-229.677"/>
</g>
<!-- Node37&#45;&gt;Node17 -->
<g id="edge86" class="edge"><title>Node37&#45;&gt;Node17</title>
<path fill="none" stroke="midnightblue" d="M2667.77,-224.83C2658.65,-215.208 2647.76,-203.728 2640.02,-195.571"/>
<polygon fill="midnightblue" stroke="midnightblue" points="2665.49,-227.514 2674.91,-232.362 2670.57,-222.697 2665.49,-227.514"/>
</g>
<!-- Node37&#45;&gt;Node19 -->
<g id="edge88" class="edge"><title>Node37&#45;&gt;Node19</title>
<path fill="none" stroke="midnightblue" d="M2702.27,-225.118C2711.61,-215.438 2722.84,-203.81 2730.79,-195.571"/>
<polygon fill="midnightblue" stroke="midnightblue" points="2699.7,-222.737 2695.27,-232.362 2704.74,-227.599 2699.7,-222.737"/>
</g>
<!-- Node37&#45;&gt;Node21 -->
<g id="edge90" class="edge"><title>Node37&#45;&gt;Node21</title>
<path fill="none" stroke="midnightblue" d="M2724.32,-229.009C2753.28,-218.702 2792.07,-204.903 2818.43,-195.523"/>
<polygon fill="midnightblue" stroke="midnightblue" points="2722.77,-225.847 2714.52,-232.497 2725.11,-232.442 2722.77,-225.847"/>
</g>
<!-- Node37&#45;&gt;Node22 -->
<g id="edge92" class="edge"><title>Node37&#45;&gt;Node22</title>
<path fill="none" stroke="midnightblue" d="M2733.08,-233.731C2736.44,-233.131 2739.77,-232.548 2743,-232 2849.78,-213.907 2876.97,-212.525 2984,-196 2986.88,-195.556 2989.82,-195.098 2992.79,-194.634"/>
<polygon fill="midnightblue" stroke="midnightblue" points="2732.23,-230.328 2723.02,-235.568 2733.49,-237.214 2732.23,-230.328"/>
</g>
<!-- Node37&#45;&gt;Node25 -->
<g id="edge94" class="edge"><title>Node37&#45;&gt;Node25</title>
<path fill="none" stroke="midnightblue" d="M2636.77,-231.966C2478.51,-206.068 2435.6,-214.007 2280,-196 2277.22,-195.679 2274.4,-195.345 2271.54,-195.001"/>
<polygon fill="midnightblue" stroke="midnightblue" points="2636.43,-235.457 2646.86,-233.638 2637.57,-228.551 2636.43,-235.457"/>
</g>
<!-- Node37&#45;&gt;Node28 -->
<g id="edge96" class="edge"><title>Node37&#45;&gt;Node28</title>
<path fill="none" stroke="midnightblue" d="M2636.79,-231.876C2583.39,-221.637 2483.42,-205.558 2417.18,-195.075"/>
<polygon fill="midnightblue" stroke="midnightblue" points="2636.34,-235.354 2646.83,-233.842 2637.69,-228.484 2636.34,-235.354"/>
</g>
<!-- Node37&#45;&gt;Node31 -->
<g id="edge98" class="edge"><title>Node37&#45;&gt;Node31</title>
<path fill="none" stroke="midnightblue" d="M2641.66,-229.413C2608.65,-219.065 2563.88,-205.026 2533.56,-195.523"/>
<polygon fill="midnightblue" stroke="midnightblue" points="2640.91,-232.845 2651.5,-232.497 2643,-226.165 2640.91,-232.845"/>
</g>
</g>
</svg>
