<?xml version="1.0" encoding="UTF-8" standalone="no"?>
<!DOCTYPE svg PUBLIC "-//W3C//DTD SVG 1.1//EN"
 "http://www.w3.org/Graphics/SVG/1.1/DTD/svg11.dtd">
<!-- Generated by graphviz version 2.26.3 (20100126.1600)
 -->
<!-- Title: MojDecimal.h Pages: 1 -->
<svg width="546pt" height="552pt"
 viewBox="0.00 0.00 546.00 552.00" xmlns="http://www.w3.org/2000/svg" xmlns:xlink="http://www.w3.org/1999/xlink">
<g id="graph1" class="graph" transform="scale(1 1) rotate(0) translate(4 548)">
<title>MojDecimal.h</title>
<polygon fill="white" stroke="white" points="-4,5 -4,-548 543,-548 543,5 -4,5"/>
<!-- Node1 -->
<g id="node1" class="node"><title>Node1</title>
<polygon fill="#bfbfbf" stroke="black" points="216,-522.5 216,-543.5 296,-543.5 296,-522.5 216,-522.5"/>
<text text-anchor="middle" x="256" y="-530.5" font-family="Helvetica,sans-Serif" font-size="10.00">MojDecimal.h</text>
</g>
<!-- Node2 -->
<g id="node3" class="node"><title>Node2</title>
<a xlink:href="MojCoreDefs_8h.htm" target="_top" xlink:title="core/MojCoreDefs.h">
<polygon fill="white" stroke="black" points="218.5,-232.5 218.5,-253.5 329.5,-253.5 329.5,-232.5 218.5,-232.5"/>
<text text-anchor="middle" x="274" y="-240.5" font-family="Helvetica,sans-Serif" font-size="10.00">core/MojCoreDefs.h</text>
</a>
</g>
<!-- Node1&#45;&gt;Node2 -->
<g id="edge2" class="edge"><title>Node1&#45;&gt;Node2</title>
<path fill="none" stroke="midnightblue" d="M249.734,-522.211C238.71,-502.18 217,-457.581 217,-417 217,-417 217,-417 217,-359 217,-321.529 241.254,-283.584 258.12,-261.728"/>
<polygon fill="midnightblue" stroke="midnightblue" points="261.067,-263.647 264.588,-253.654 255.604,-259.27 261.067,-263.647"/>
</g>
<!-- Node12 -->
<g id="node23" class="node"><title>Node12</title>
<a xlink:href="MojHasher_8h.htm" target="_top" xlink:title="core/MojHasher.h">
<polygon fill="white" stroke="black" points="244.5,-464.5 244.5,-485.5 345.5,-485.5 345.5,-464.5 244.5,-464.5"/>
<text text-anchor="middle" x="295" y="-472.5" font-family="Helvetica,sans-Serif" font-size="10.00">core/MojHasher.h</text>
</a>
</g>
<!-- Node1&#45;&gt;Node12 -->
<g id="edge22" class="edge"><title>Node1&#45;&gt;Node12</title>
<path fill="none" stroke="midnightblue" d="M263.153,-522.362C268.486,-514.431 275.911,-503.389 282.251,-493.961"/>
<polygon fill="midnightblue" stroke="midnightblue" points="285.217,-495.822 287.892,-485.571 279.408,-491.916 285.217,-495.822"/>
</g>
<!-- Node3 -->
<g id="node5" class="node"><title>Node3</title>
<a xlink:href="MojConfig_8h.htm" target="_top" xlink:title="core/internal/MojConfig.h">
<polygon fill="white" stroke="black" points="-0.5,-174.5 -0.5,-195.5 134.5,-195.5 134.5,-174.5 -0.5,-174.5"/>
<text text-anchor="middle" x="67" y="-182.5" font-family="Helvetica,sans-Serif" font-size="10.00">core/internal/MojConfig.h</text>
</a>
</g>
<!-- Node2&#45;&gt;Node3 -->
<g id="edge4" class="edge"><title>Node2&#45;&gt;Node3</title>
<path fill="none" stroke="midnightblue" d="M236.514,-232.497C202.329,-222.918 151.654,-208.72 114.616,-198.342"/>
<polygon fill="midnightblue" stroke="midnightblue" points="115.13,-194.851 104.556,-195.523 113.241,-201.591 115.13,-194.851"/>
</g>
<!-- Node4 -->
<g id="node7" class="node"><title>Node4</title>
<a xlink:href="MojNew_8h.htm" target="_top" xlink:title="core/internal/MojNew.h">
<polygon fill="white" stroke="black" points="151.5,-174.5 151.5,-195.5 276.5,-195.5 276.5,-174.5 151.5,-174.5"/>
<text text-anchor="middle" x="214" y="-182.5" font-family="Helvetica,sans-Serif" font-size="10.00">core/internal/MojNew.h</text>
</a>
</g>
<!-- Node2&#45;&gt;Node4 -->
<g id="edge6" class="edge"><title>Node2&#45;&gt;Node4</title>
<path fill="none" stroke="midnightblue" d="M262.995,-232.362C254.453,-224.104 242.42,-212.472 232.417,-202.803"/>
<polygon fill="midnightblue" stroke="midnightblue" points="234.558,-200.004 224.935,-195.571 229.692,-205.037 234.558,-200.004"/>
</g>
<!-- Node6 -->
<g id="node11" class="node"><title>Node6</title>
<a xlink:href="MojErr_8h.htm" target="_top" xlink:title="core/MojErr.h">
<polygon fill="white" stroke="black" points="294,-174.5 294,-195.5 374,-195.5 374,-174.5 294,-174.5"/>
<text text-anchor="middle" x="334" y="-182.5" font-family="Helvetica,sans-Serif" font-size="10.00">core/MojErr.h</text>
</a>
</g>
<!-- Node2&#45;&gt;Node6 -->
<g id="edge10" class="edge"><title>Node2&#45;&gt;Node6</title>
<path fill="none" stroke="midnightblue" d="M285.005,-232.362C293.547,-224.104 305.58,-212.472 315.583,-202.803"/>
<polygon fill="midnightblue" stroke="midnightblue" points="318.308,-205.037 323.065,-195.571 313.442,-200.004 318.308,-205.037"/>
</g>
<!-- Node10 -->
<g id="node19" class="node"><title>Node10</title>
<a xlink:href="MojOs_8h.htm" target="_top" xlink:title="core/MojOs.h">
<polygon fill="white" stroke="black" points="411,-174.5 411,-195.5 491,-195.5 491,-174.5 411,-174.5"/>
<text text-anchor="middle" x="451" y="-182.5" font-family="Helvetica,sans-Serif" font-size="10.00">core/MojOs.h</text>
</a>
</g>
<!-- Node2&#45;&gt;Node10 -->
<g id="edge18" class="edge"><title>Node2&#45;&gt;Node10</title>
<path fill="none" stroke="midnightblue" d="M306.053,-232.497C334.909,-223.041 377.506,-209.083 409.061,-198.743"/>
<polygon fill="midnightblue" stroke="midnightblue" points="410.474,-201.963 418.887,-195.523 408.294,-195.311 410.474,-201.963"/>
</g>
<!-- Node5 -->
<g id="node9" class="node"><title>Node5</title>
<polygon fill="white" stroke="#bfbfbf" points="196,-116.5 196,-137.5 232,-137.5 232,-116.5 196,-116.5"/>
<text text-anchor="middle" x="214" y="-124.5" font-family="Helvetica,sans-Serif" font-size="10.00">new</text>
</g>
<!-- Node4&#45;&gt;Node5 -->
<g id="edge8" class="edge"><title>Node4&#45;&gt;Node5</title>
<path fill="none" stroke="midnightblue" d="M214,-174.362C214,-166.922 214,-156.743 214,-147.728"/>
<polygon fill="midnightblue" stroke="midnightblue" points="217.5,-147.571 214,-137.571 210.5,-147.571 217.5,-147.571"/>
</g>
<!-- Node7 -->
<g id="node13" class="node"><title>Node7</title>
<a xlink:href="MojLog_8h.htm" target="_top" xlink:title="core/MojLog.h">
<polygon fill="white" stroke="black" points="282,-116.5 282,-137.5 366,-137.5 366,-116.5 282,-116.5"/>
<text text-anchor="middle" x="324" y="-124.5" font-family="Helvetica,sans-Serif" font-size="10.00">core/MojLog.h</text>
</a>
</g>
<!-- Node6&#45;&gt;Node7 -->
<g id="edge12" class="edge"><title>Node6&#45;&gt;Node7</title>
<path fill="none" stroke="midnightblue" d="M332.166,-174.362C330.869,-166.84 329.089,-156.519 327.523,-147.431"/>
<polygon fill="midnightblue" stroke="midnightblue" points="330.971,-146.831 325.823,-137.571 324.073,-148.02 330.971,-146.831"/>
</g>
<!-- Node8 -->
<g id="node15" class="node"><title>Node8</title>
<a xlink:href="MojListEntry_8h.htm" target="_top" xlink:title="core/MojListEntry.h">
<polygon fill="white" stroke="black" points="270.5,-58.5 270.5,-79.5 377.5,-79.5 377.5,-58.5 270.5,-58.5"/>
<text text-anchor="middle" x="324" y="-66.5" font-family="Helvetica,sans-Serif" font-size="10.00">core/MojListEntry.h</text>
</a>
</g>
<!-- Node7&#45;&gt;Node8 -->
<g id="edge14" class="edge"><title>Node7&#45;&gt;Node8</title>
<path fill="none" stroke="midnightblue" d="M324,-116.362C324,-108.922 324,-98.7427 324,-89.7276"/>
<polygon fill="midnightblue" stroke="midnightblue" points="327.5,-89.5706 324,-79.5707 320.5,-89.5707 327.5,-89.5706"/>
</g>
<!-- Node9 -->
<g id="node17" class="node"><title>Node9</title>
<a xlink:href="MojNoCopy_8h.htm" target="_top" xlink:title="core/MojNoCopy.h">
<polygon fill="white" stroke="black" points="272,-0.5 272,-21.5 376,-21.5 376,-0.5 272,-0.5"/>
<text text-anchor="middle" x="324" y="-8.5" font-family="Helvetica,sans-Serif" font-size="10.00">core/MojNoCopy.h</text>
</a>
</g>
<!-- Node8&#45;&gt;Node9 -->
<g id="edge16" class="edge"><title>Node8&#45;&gt;Node9</title>
<path fill="none" stroke="midnightblue" d="M324,-58.3619C324,-50.9219 324,-40.7427 324,-31.7276"/>
<polygon fill="midnightblue" stroke="midnightblue" points="327.5,-31.5706 324,-21.5707 320.5,-31.5707 327.5,-31.5706"/>
</g>
<!-- Node11 -->
<g id="node21" class="node"><title>Node11</title>
<a xlink:href="MojOsInternal_8h.htm" target="_top" xlink:title="core/internal/MojOsInternal.h">
<polygon fill="white" stroke="black" points="384,-116.5 384,-137.5 538,-137.5 538,-116.5 384,-116.5"/>
<text text-anchor="middle" x="461" y="-124.5" font-family="Helvetica,sans-Serif" font-size="10.00">core/internal/MojOsInternal.h</text>
</a>
</g>
<!-- Node10&#45;&gt;Node11 -->
<g id="edge20" class="edge"><title>Node10&#45;&gt;Node11</title>
<path fill="none" stroke="midnightblue" d="M452.834,-174.362C454.131,-166.84 455.911,-156.519 457.477,-147.431"/>
<polygon fill="midnightblue" stroke="midnightblue" points="460.927,-148.02 459.177,-137.571 454.029,-146.831 460.927,-148.02"/>
</g>
<!-- Node12&#45;&gt;Node2 -->
<g id="edge24" class="edge"><title>Node12&#45;&gt;Node2</title>
<path fill="none" stroke="midnightblue" d="M288.618,-464.242C283.525,-454.994 276.796,-441.111 274,-428 261.543,-369.581 267.185,-298.406 271.204,-263.84"/>
<polygon fill="midnightblue" stroke="midnightblue" points="274.717,-263.947 272.476,-253.592 267.771,-263.085 274.717,-263.947"/>
</g>
<!-- Node13 -->
<g id="node26" class="node"><title>Node13</title>
<a xlink:href="MojUtil_8h.htm" target="_top" xlink:title="core/MojUtil.h">
<polygon fill="white" stroke="black" points="282.5,-406.5 282.5,-427.5 363.5,-427.5 363.5,-406.5 282.5,-406.5"/>
<text text-anchor="middle" x="323" y="-414.5" font-family="Helvetica,sans-Serif" font-size="10.00">core/MojUtil.h</text>
</a>
</g>
<!-- Node12&#45;&gt;Node13 -->
<g id="edge26" class="edge"><title>Node12&#45;&gt;Node13</title>
<path fill="none" stroke="midnightblue" d="M300.136,-464.362C303.846,-456.677 308.967,-446.069 313.422,-436.84"/>
<polygon fill="midnightblue" stroke="midnightblue" points="316.701,-438.098 317.897,-427.571 310.397,-435.055 316.701,-438.098"/>
</g>
<!-- Node13&#45;&gt;Node2 -->
<g id="edge28" class="edge"><title>Node13&#45;&gt;Node2</title>
<path fill="none" stroke="midnightblue" d="M320.009,-406.377C312.066,-378.172 290.337,-301.012 279.835,-263.72"/>
<polygon fill="midnightblue" stroke="midnightblue" points="283.157,-262.605 277.077,-253.928 276.419,-264.502 283.157,-262.605"/>
</g>
<!-- Node14 -->
<g id="node29" class="node"><title>Node14</title>
<a xlink:href="MojUtilInternal_8h.htm" target="_top" xlink:title="core/internal/MojUtilInternal.h">
<polygon fill="white" stroke="black" points="320.5,-348.5 320.5,-369.5 475.5,-369.5 475.5,-348.5 320.5,-348.5"/>
<text text-anchor="middle" x="398" y="-356.5" font-family="Helvetica,sans-Serif" font-size="10.00">core/internal/MojUtilInternal.h</text>
</a>
</g>
<!-- Node13&#45;&gt;Node14 -->
<g id="edge30" class="edge"><title>Node13&#45;&gt;Node14</title>
<path fill="none" stroke="midnightblue" d="M336.756,-406.362C347.751,-397.859 363.373,-385.779 376.086,-375.947"/>
<polygon fill="midnightblue" stroke="midnightblue" points="378.562,-378.457 384.331,-369.571 374.279,-372.919 378.562,-378.457"/>
</g>
<!-- Node15 -->
<g id="node31" class="node"><title>Node15</title>
<a xlink:href="MojComp_8h.htm" target="_top" xlink:title="core/MojComp.h">
<polygon fill="white" stroke="black" points="336,-290.5 336,-311.5 430,-311.5 430,-290.5 336,-290.5"/>
<text text-anchor="middle" x="383" y="-298.5" font-family="Helvetica,sans-Serif" font-size="10.00">core/MojComp.h</text>
</a>
</g>
<!-- Node14&#45;&gt;Node15 -->
<g id="edge32" class="edge"><title>Node14&#45;&gt;Node15</title>
<path fill="none" stroke="midnightblue" d="M395.249,-348.362C393.303,-340.84 390.634,-330.519 388.284,-321.431"/>
<polygon fill="midnightblue" stroke="midnightblue" points="391.626,-320.376 385.734,-311.571 384.849,-322.128 391.626,-320.376"/>
</g>
<!-- Node15&#45;&gt;Node2 -->
<g id="edge34" class="edge"><title>Node15&#45;&gt;Node2</title>
<path fill="none" stroke="midnightblue" d="M363.261,-290.497C346.39,-281.519 321.891,-268.484 302.826,-258.339"/>
<polygon fill="midnightblue" stroke="midnightblue" points="304.433,-255.229 293.961,-253.621 301.144,-261.409 304.433,-255.229"/>
</g>
</g>
</svg>
