<?xml version="1.0" encoding="UTF-8" standalone="no"?>
<!DOCTYPE svg PUBLIC "-//W3C//DTD SVG 1.1//EN"
 "http://www.w3.org/Graphics/SVG/1.1/DTD/svg11.dtd">
<!-- Generated by graphviz version 2.26.3 (20100126.1600)
 -->
<!-- Title: MojDbPutHandler.h Pages: 1 -->
<svg width="546pt" height="378pt"
 viewBox="0.00 0.00 546.00 378.00" xmlns="http://www.w3.org/2000/svg" xmlns:xlink="http://www.w3.org/1999/xlink">
<g id="graph1" class="graph" transform="scale(1 1) rotate(0) translate(4 374)">
<title>MojDbPutHandler.h</title>
<polygon fill="white" stroke="white" points="-4,5 -4,-374 543,-374 543,5 -4,5"/>
<!-- Node1 -->
<g id="node1" class="node"><title>Node1</title>
<polygon fill="#bfbfbf" stroke="black" points="220.5,-348.5 220.5,-369.5 327.5,-369.5 327.5,-348.5 220.5,-348.5"/>
<text text-anchor="middle" x="274" y="-356.5" font-family="Helvetica,sans-Serif" font-size="10.00">MojDbPutHandler.h</text>
</g>
<!-- Node2 -->
<g id="node3" class="node"><title>Node2</title>
<a xlink:href="MojDbDefs_8h.htm" target="_top" xlink:title="db/MojDbDefs.h">
<polygon fill="white" stroke="black" points="173.5,-290.5 173.5,-311.5 264.5,-311.5 264.5,-290.5 173.5,-290.5"/>
<text text-anchor="middle" x="219" y="-298.5" font-family="Helvetica,sans-Serif" font-size="10.00">db/MojDbDefs.h</text>
</a>
</g>
<!-- Node1&#45;&gt;Node2 -->
<g id="edge2" class="edge"><title>Node1&#45;&gt;Node2</title>
<path fill="none" stroke="midnightblue" d="M263.912,-348.362C256.159,-340.186 245.27,-328.702 236.155,-319.091"/>
<polygon fill="midnightblue" stroke="midnightblue" points="238.445,-316.419 229.024,-311.571 233.365,-321.235 238.445,-316.419"/>
</g>
<!-- Node13 -->
<g id="node25" class="node"><title>Node13</title>
<a xlink:href="MojComp_8h.htm" target="_top" xlink:title="core/MojComp.h">
<polygon fill="white" stroke="black" points="282,-290.5 282,-311.5 376,-311.5 376,-290.5 282,-290.5"/>
<text text-anchor="middle" x="329" y="-298.5" font-family="Helvetica,sans-Serif" font-size="10.00">core/MojComp.h</text>
</a>
</g>
<!-- Node1&#45;&gt;Node13 -->
<g id="edge24" class="edge"><title>Node1&#45;&gt;Node13</title>
<path fill="none" stroke="midnightblue" d="M284.088,-348.362C291.841,-340.186 302.73,-328.702 311.845,-319.091"/>
<polygon fill="midnightblue" stroke="midnightblue" points="314.635,-321.235 318.976,-311.571 309.555,-316.419 314.635,-321.235"/>
</g>
<!-- Node3 -->
<g id="node5" class="node"><title>Node3</title>
<a xlink:href="MojCoreDefs_8h.htm" target="_top" xlink:title="core/MojCoreDefs.h">
<polygon fill="white" stroke="black" points="218.5,-232.5 218.5,-253.5 329.5,-253.5 329.5,-232.5 218.5,-232.5"/>
<text text-anchor="middle" x="274" y="-240.5" font-family="Helvetica,sans-Serif" font-size="10.00">core/MojCoreDefs.h</text>
</a>
</g>
<!-- Node2&#45;&gt;Node3 -->
<g id="edge4" class="edge"><title>Node2&#45;&gt;Node3</title>
<path fill="none" stroke="midnightblue" d="M229.088,-290.362C236.841,-282.186 247.73,-270.702 256.845,-261.091"/>
<polygon fill="midnightblue" stroke="midnightblue" points="259.635,-263.235 263.976,-253.571 254.555,-258.419 259.635,-263.235"/>
</g>
<!-- Node4 -->
<g id="node7" class="node"><title>Node4</title>
<a xlink:href="MojConfig_8h.htm" target="_top" xlink:title="core/internal/MojConfig.h">
<polygon fill="white" stroke="black" points="-0.5,-174.5 -0.5,-195.5 134.5,-195.5 134.5,-174.5 -0.5,-174.5"/>
<text text-anchor="middle" x="67" y="-182.5" font-family="Helvetica,sans-Serif" font-size="10.00">core/internal/MojConfig.h</text>
</a>
</g>
<!-- Node3&#45;&gt;Node4 -->
<g id="edge6" class="edge"><title>Node3&#45;&gt;Node4</title>
<path fill="none" stroke="midnightblue" d="M236.514,-232.497C202.329,-222.918 151.654,-208.72 114.616,-198.342"/>
<polygon fill="midnightblue" stroke="midnightblue" points="115.13,-194.851 104.556,-195.523 113.241,-201.591 115.13,-194.851"/>
</g>
<!-- Node5 -->
<g id="node9" class="node"><title>Node5</title>
<a xlink:href="MojNew_8h.htm" target="_top" xlink:title="core/internal/MojNew.h">
<polygon fill="white" stroke="black" points="151.5,-174.5 151.5,-195.5 276.5,-195.5 276.5,-174.5 151.5,-174.5"/>
<text text-anchor="middle" x="214" y="-182.5" font-family="Helvetica,sans-Serif" font-size="10.00">core/internal/MojNew.h</text>
</a>
</g>
<!-- Node3&#45;&gt;Node5 -->
<g id="edge8" class="edge"><title>Node3&#45;&gt;Node5</title>
<path fill="none" stroke="midnightblue" d="M262.995,-232.362C254.453,-224.104 242.42,-212.472 232.417,-202.803"/>
<polygon fill="midnightblue" stroke="midnightblue" points="234.558,-200.004 224.935,-195.571 229.692,-205.037 234.558,-200.004"/>
</g>
<!-- Node7 -->
<g id="node13" class="node"><title>Node7</title>
<a xlink:href="MojErr_8h.htm" target="_top" xlink:title="core/MojErr.h">
<polygon fill="white" stroke="black" points="294,-174.5 294,-195.5 374,-195.5 374,-174.5 294,-174.5"/>
<text text-anchor="middle" x="334" y="-182.5" font-family="Helvetica,sans-Serif" font-size="10.00">core/MojErr.h</text>
</a>
</g>
<!-- Node3&#45;&gt;Node7 -->
<g id="edge12" class="edge"><title>Node3&#45;&gt;Node7</title>
<path fill="none" stroke="midnightblue" d="M285.005,-232.362C293.547,-224.104 305.58,-212.472 315.583,-202.803"/>
<polygon fill="midnightblue" stroke="midnightblue" points="318.308,-205.037 323.065,-195.571 313.442,-200.004 318.308,-205.037"/>
</g>
<!-- Node11 -->
<g id="node21" class="node"><title>Node11</title>
<a xlink:href="MojOs_8h.htm" target="_top" xlink:title="core/MojOs.h">
<polygon fill="white" stroke="black" points="411,-174.5 411,-195.5 491,-195.5 491,-174.5 411,-174.5"/>
<text text-anchor="middle" x="451" y="-182.5" font-family="Helvetica,sans-Serif" font-size="10.00">core/MojOs.h</text>
</a>
</g>
<!-- Node3&#45;&gt;Node11 -->
<g id="edge20" class="edge"><title>Node3&#45;&gt;Node11</title>
<path fill="none" stroke="midnightblue" d="M306.053,-232.497C334.909,-223.041 377.506,-209.083 409.061,-198.743"/>
<polygon fill="midnightblue" stroke="midnightblue" points="410.474,-201.963 418.887,-195.523 408.294,-195.311 410.474,-201.963"/>
</g>
<!-- Node6 -->
<g id="node11" class="node"><title>Node6</title>
<polygon fill="white" stroke="#bfbfbf" points="196,-116.5 196,-137.5 232,-137.5 232,-116.5 196,-116.5"/>
<text text-anchor="middle" x="214" y="-124.5" font-family="Helvetica,sans-Serif" font-size="10.00">new</text>
</g>
<!-- Node5&#45;&gt;Node6 -->
<g id="edge10" class="edge"><title>Node5&#45;&gt;Node6</title>
<path fill="none" stroke="midnightblue" d="M214,-174.362C214,-166.922 214,-156.743 214,-147.728"/>
<polygon fill="midnightblue" stroke="midnightblue" points="217.5,-147.571 214,-137.571 210.5,-147.571 217.5,-147.571"/>
</g>
<!-- Node8 -->
<g id="node15" class="node"><title>Node8</title>
<a xlink:href="MojLog_8h.htm" target="_top" xlink:title="core/MojLog.h">
<polygon fill="white" stroke="black" points="282,-116.5 282,-137.5 366,-137.5 366,-116.5 282,-116.5"/>
<text text-anchor="middle" x="324" y="-124.5" font-family="Helvetica,sans-Serif" font-size="10.00">core/MojLog.h</text>
</a>
</g>
<!-- Node7&#45;&gt;Node8 -->
<g id="edge14" class="edge"><title>Node7&#45;&gt;Node8</title>
<path fill="none" stroke="midnightblue" d="M332.166,-174.362C330.869,-166.84 329.089,-156.519 327.523,-147.431"/>
<polygon fill="midnightblue" stroke="midnightblue" points="330.971,-146.831 325.823,-137.571 324.073,-148.02 330.971,-146.831"/>
</g>
<!-- Node9 -->
<g id="node17" class="node"><title>Node9</title>
<a xlink:href="MojListEntry_8h.htm" target="_top" xlink:title="core/MojListEntry.h">
<polygon fill="white" stroke="black" points="270.5,-58.5 270.5,-79.5 377.5,-79.5 377.5,-58.5 270.5,-58.5"/>
<text text-anchor="middle" x="324" y="-66.5" font-family="Helvetica,sans-Serif" font-size="10.00">core/MojListEntry.h</text>
</a>
</g>
<!-- Node8&#45;&gt;Node9 -->
<g id="edge16" class="edge"><title>Node8&#45;&gt;Node9</title>
<path fill="none" stroke="midnightblue" d="M324,-116.362C324,-108.922 324,-98.7427 324,-89.7276"/>
<polygon fill="midnightblue" stroke="midnightblue" points="327.5,-89.5706 324,-79.5707 320.5,-89.5707 327.5,-89.5706"/>
</g>
<!-- Node10 -->
<g id="node19" class="node"><title>Node10</title>
<a xlink:href="MojNoCopy_8h.htm" target="_top" xlink:title="core/MojNoCopy.h">
<polygon fill="white" stroke="black" points="272,-0.5 272,-21.5 376,-21.5 376,-0.5 272,-0.5"/>
<text text-anchor="middle" x="324" y="-8.5" font-family="Helvetica,sans-Serif" font-size="10.00">core/MojNoCopy.h</text>
</a>
</g>
<!-- Node9&#45;&gt;Node10 -->
<g id="edge18" class="edge"><title>Node9&#45;&gt;Node10</title>
<path fill="none" stroke="midnightblue" d="M324,-58.3619C324,-50.9219 324,-40.7427 324,-31.7276"/>
<polygon fill="midnightblue" stroke="midnightblue" points="327.5,-31.5706 324,-21.5707 320.5,-31.5707 327.5,-31.5706"/>
</g>
<!-- Node12 -->
<g id="node23" class="node"><title>Node12</title>
<a xlink:href="MojOsInternal_8h.htm" target="_top" xlink:title="core/internal/MojOsInternal.h">
<polygon fill="white" stroke="black" points="384,-116.5 384,-137.5 538,-137.5 538,-116.5 384,-116.5"/>
<text text-anchor="middle" x="461" y="-124.5" font-family="Helvetica,sans-Serif" font-size="10.00">core/internal/MojOsInternal.h</text>
</a>
</g>
<!-- Node11&#45;&gt;Node12 -->
<g id="edge22" class="edge"><title>Node11&#45;&gt;Node12</title>
<path fill="none" stroke="midnightblue" d="M452.834,-174.362C454.131,-166.84 455.911,-156.519 457.477,-147.431"/>
<polygon fill="midnightblue" stroke="midnightblue" points="460.927,-148.02 459.177,-137.571 454.029,-146.831 460.927,-148.02"/>
</g>
<!-- Node13&#45;&gt;Node3 -->
<g id="edge26" class="edge"><title>Node13&#45;&gt;Node3</title>
<path fill="none" stroke="midnightblue" d="M318.912,-290.362C311.159,-282.186 300.27,-270.702 291.155,-261.091"/>
<polygon fill="midnightblue" stroke="midnightblue" points="293.445,-258.419 284.024,-253.571 288.365,-263.235 293.445,-258.419"/>
</g>
</g>
</svg>
