<?xml version="1.0" encoding="UTF-8" standalone="no"?>
<!DOCTYPE svg PUBLIC "-//W3C//DTD SVG 1.1//EN"
 "http://www.w3.org/Graphics/SVG/1.1/DTD/svg11.dtd">
<!-- Generated by graphviz version 2.26.3 (20100126.1600)
 -->
<!-- Title: MojDbLevelEnv.h Pages: 1 -->
<svg width="404pt" height="88pt"
 viewBox="0.00 0.00 404.00 88.00" xmlns="http://www.w3.org/2000/svg" xmlns:xlink="http://www.w3.org/1999/xlink">
<g id="graph1" class="graph" transform="scale(1 1) rotate(0) translate(4 84)">
<title>MojDbLevelEnv.h</title>
<polygon fill="white" stroke="white" points="-4,5 -4,-84 401,-84 401,5 -4,5"/>
<!-- Node1 -->
<g id="node1" class="node"><title>Node1</title>
<polygon fill="#bfbfbf" stroke="black" points="148,-58.5 148,-79.5 246,-79.5 246,-58.5 148,-58.5"/>
<text text-anchor="middle" x="197" y="-66.5" font-family="Helvetica,sans-Serif" font-size="10.00">MojDbLevelEnv.h</text>
</g>
<!-- Node2 -->
<g id="node3" class="node"><title>Node2</title>
<a xlink:href="MojDbLevelEngine_8cpp.htm" target="_top" xlink:title="MojDbLevelEngine.cpp">
<polygon fill="white" stroke="black" points="-0.5,-0.5 -0.5,-21.5 124.5,-21.5 124.5,-0.5 -0.5,-0.5"/>
<text text-anchor="middle" x="62" y="-8.5" font-family="Helvetica,sans-Serif" font-size="10.00">MojDbLevelEngine.cpp</text>
</a>
</g>
<!-- Node1&#45;&gt;Node2 -->
<g id="edge2" class="edge"><title>Node1&#45;&gt;Node2</title>
<path fill="none" stroke="midnightblue" d="M163.202,-54.4794C139.438,-44.2695 108.176,-30.8386 86.7218,-21.6212"/>
<polygon fill="midnightblue" stroke="midnightblue" points="161.983,-57.7649 172.553,-58.4966 164.746,-51.3334 161.983,-57.7649"/>
</g>
<!-- Node3 -->
<g id="node5" class="node"><title>Node3</title>
<a xlink:href="MojDbLevelEnv_8cpp.htm" target="_top" xlink:title="MojDbLevelEnv.cpp">
<polygon fill="white" stroke="black" points="142,-0.5 142,-21.5 252,-21.5 252,-0.5 142,-0.5"/>
<text text-anchor="middle" x="197" y="-8.5" font-family="Helvetica,sans-Serif" font-size="10.00">MojDbLevelEnv.cpp</text>
</a>
</g>
<!-- Node1&#45;&gt;Node3 -->
<g id="edge4" class="edge"><title>Node1&#45;&gt;Node3</title>
<path fill="none" stroke="midnightblue" d="M197,-48.1906C197,-39.1684 197,-28.9941 197,-21.5707"/>
<polygon fill="midnightblue" stroke="midnightblue" points="193.5,-48.3619 197,-58.3619 200.5,-48.3619 193.5,-48.3619"/>
</g>
<!-- Node4 -->
<g id="node7" class="node"><title>Node4</title>
<a xlink:href="MojDbLevelFactory_8cpp.htm" target="_top" xlink:title="MojDbLevelFactory.cpp">
<polygon fill="white" stroke="black" points="269.5,-0.5 269.5,-21.5 396.5,-21.5 396.5,-0.5 269.5,-0.5"/>
<text text-anchor="middle" x="333" y="-8.5" font-family="Helvetica,sans-Serif" font-size="10.00">MojDbLevelFactory.cpp</text>
</a>
</g>
<!-- Node1&#45;&gt;Node4 -->
<g id="edge6" class="edge"><title>Node1&#45;&gt;Node4</title>
<path fill="none" stroke="midnightblue" d="M231.048,-54.4794C254.989,-44.2695 286.482,-30.8386 308.095,-21.6212"/>
<polygon fill="midnightblue" stroke="midnightblue" points="229.454,-51.3543 221.629,-58.4966 232.2,-57.7932 229.454,-51.3543"/>
</g>
</g>
</svg>
