<?xml version="1.0" encoding="UTF-8" standalone="no"?>
<!DOCTYPE svg PUBLIC "-//W3C//DTD SVG 1.1//EN"
 "http://www.w3.org/Graphics/SVG/1.1/DTD/svg11.dtd">
<!-- Generated by graphviz version 2.26.3 (20100126.1600)
 -->
<!-- Title: MojDbReq.h Pages: 1 -->
<svg width="881pt" height="696pt"
 viewBox="0.00 0.00 881.00 696.00" xmlns="http://www.w3.org/2000/svg" xmlns:xlink="http://www.w3.org/1999/xlink">
<g id="graph1" class="graph" transform="scale(1 1) rotate(0) translate(4 692)">
<title>MojDbReq.h</title>
<polygon fill="white" stroke="white" points="-4,5 -4,-692 878,-692 878,5 -4,5"/>
<!-- Node1 -->
<g id="node1" class="node"><title>Node1</title>
<polygon fill="#bfbfbf" stroke="black" points="668,-666.5 668,-687.5 742,-687.5 742,-666.5 668,-666.5"/>
<text text-anchor="middle" x="705" y="-674.5" font-family="Helvetica,sans-Serif" font-size="10.00">MojDbReq.h</text>
</g>
<!-- Node2 -->
<g id="node3" class="node"><title>Node2</title>
<a xlink:href="MojDbDefs_8h.htm" target="_top" xlink:title="db/MojDbDefs.h">
<polygon fill="white" stroke="black" points="782.5,-550.5 782.5,-571.5 873.5,-571.5 873.5,-550.5 782.5,-550.5"/>
<text text-anchor="middle" x="828" y="-558.5" font-family="Helvetica,sans-Serif" font-size="10.00">db/MojDbDefs.h</text>
</a>
</g>
<!-- Node1&#45;&gt;Node2 -->
<g id="edge2" class="edge"><title>Node1&#45;&gt;Node2</title>
<path fill="none" stroke="midnightblue" d="M716.351,-666.295C737.586,-646.268 783.504,-602.964 809.349,-578.589"/>
<polygon fill="midnightblue" stroke="midnightblue" points="811.803,-581.087 816.676,-571.679 807,-575.994 811.803,-581.087"/>
</g>
<!-- Node13 -->
<g id="node25" class="node"><title>Node13</title>
<a xlink:href="MojString_8h.htm" target="_top" xlink:title="core/MojString.h">
<polygon fill="white" stroke="black" points="579,-608.5 579,-629.5 673,-629.5 673,-608.5 579,-608.5"/>
<text text-anchor="middle" x="626" y="-616.5" font-family="Helvetica,sans-Serif" font-size="10.00">core/MojString.h</text>
</a>
</g>
<!-- Node1&#45;&gt;Node13 -->
<g id="edge24" class="edge"><title>Node1&#45;&gt;Node13</title>
<path fill="none" stroke="midnightblue" d="M690.51,-666.362C678.817,-657.777 662.157,-645.546 648.697,-635.664"/>
<polygon fill="midnightblue" stroke="midnightblue" points="650.53,-632.667 640.398,-629.571 646.387,-638.31 650.53,-632.667"/>
</g>
<!-- Node3 -->
<g id="node5" class="node"><title>Node3</title>
<a xlink:href="MojCoreDefs_8h.htm" target="_top" xlink:title="core/MojCoreDefs.h">
<polygon fill="white" stroke="black" points="353.5,-232.5 353.5,-253.5 464.5,-253.5 464.5,-232.5 353.5,-232.5"/>
<text text-anchor="middle" x="409" y="-240.5" font-family="Helvetica,sans-Serif" font-size="10.00">core/MojCoreDefs.h</text>
</a>
</g>
<!-- Node2&#45;&gt;Node3 -->
<g id="edge4" class="edge"><title>Node2&#45;&gt;Node3</title>
<path fill="none" stroke="midnightblue" d="M825.492,-550.21C820.763,-528.893 811,-479.821 811,-438 811,-438 811,-438 811,-366 811,-327.407 800.898,-311.723 769,-290 722.411,-258.272 565.196,-247.936 474.677,-244.588"/>
<polygon fill="midnightblue" stroke="midnightblue" points="474.635,-241.085 464.519,-244.231 474.389,-248.08 474.635,-241.085"/>
</g>
<!-- Node4 -->
<g id="node7" class="node"><title>Node4</title>
<a xlink:href="MojConfig_8h.htm" target="_top" xlink:title="core/internal/MojConfig.h">
<polygon fill="white" stroke="black" points="466.5,-174.5 466.5,-195.5 601.5,-195.5 601.5,-174.5 466.5,-174.5"/>
<text text-anchor="middle" x="534" y="-182.5" font-family="Helvetica,sans-Serif" font-size="10.00">core/internal/MojConfig.h</text>
</a>
</g>
<!-- Node3&#45;&gt;Node4 -->
<g id="edge6" class="edge"><title>Node3&#45;&gt;Node4</title>
<path fill="none" stroke="midnightblue" d="M431.637,-232.497C451.248,-223.397 479.846,-210.127 501.833,-199.925"/>
<polygon fill="midnightblue" stroke="midnightblue" points="503.512,-203.005 511.109,-195.621 500.565,-196.655 503.512,-203.005"/>
</g>
<!-- Node5 -->
<g id="node9" class="node"><title>Node5</title>
<a xlink:href="MojNew_8h.htm" target="_top" xlink:title="core/internal/MojNew.h">
<polygon fill="white" stroke="black" points="128.5,-174.5 128.5,-195.5 253.5,-195.5 253.5,-174.5 128.5,-174.5"/>
<text text-anchor="middle" x="191" y="-182.5" font-family="Helvetica,sans-Serif" font-size="10.00">core/internal/MojNew.h</text>
</a>
</g>
<!-- Node3&#45;&gt;Node5 -->
<g id="edge8" class="edge"><title>Node3&#45;&gt;Node5</title>
<path fill="none" stroke="midnightblue" d="M369.522,-232.497C333.367,-222.877 279.696,-208.598 240.647,-198.209"/>
<polygon fill="midnightblue" stroke="midnightblue" points="241.116,-194.712 230.552,-195.523 239.316,-201.477 241.116,-194.712"/>
</g>
<!-- Node7 -->
<g id="node13" class="node"><title>Node7</title>
<a xlink:href="MojErr_8h.htm" target="_top" xlink:title="core/MojErr.h">
<polygon fill="white" stroke="black" points="271,-174.5 271,-195.5 351,-195.5 351,-174.5 271,-174.5"/>
<text text-anchor="middle" x="311" y="-182.5" font-family="Helvetica,sans-Serif" font-size="10.00">core/MojErr.h</text>
</a>
</g>
<!-- Node3&#45;&gt;Node7 -->
<g id="edge12" class="edge"><title>Node3&#45;&gt;Node7</title>
<path fill="none" stroke="midnightblue" d="M391.025,-232.362C376.106,-223.532 354.667,-210.844 337.734,-200.822"/>
<polygon fill="midnightblue" stroke="midnightblue" points="339.249,-197.652 328.861,-195.571 335.684,-203.676 339.249,-197.652"/>
</g>
<!-- Node11 -->
<g id="node21" class="node"><title>Node11</title>
<a xlink:href="MojOs_8h.htm" target="_top" xlink:title="core/MojOs.h">
<polygon fill="white" stroke="black" points="369,-174.5 369,-195.5 449,-195.5 449,-174.5 369,-174.5"/>
<text text-anchor="middle" x="409" y="-182.5" font-family="Helvetica,sans-Serif" font-size="10.00">core/MojOs.h</text>
</a>
</g>
<!-- Node3&#45;&gt;Node11 -->
<g id="edge20" class="edge"><title>Node3&#45;&gt;Node11</title>
<path fill="none" stroke="midnightblue" d="M409,-232.362C409,-224.922 409,-214.743 409,-205.728"/>
<polygon fill="midnightblue" stroke="midnightblue" points="412.5,-205.571 409,-195.571 405.5,-205.571 412.5,-205.571"/>
</g>
<!-- Node6 -->
<g id="node11" class="node"><title>Node6</title>
<polygon fill="white" stroke="#bfbfbf" points="173,-116.5 173,-137.5 209,-137.5 209,-116.5 173,-116.5"/>
<text text-anchor="middle" x="191" y="-124.5" font-family="Helvetica,sans-Serif" font-size="10.00">new</text>
</g>
<!-- Node5&#45;&gt;Node6 -->
<g id="edge10" class="edge"><title>Node5&#45;&gt;Node6</title>
<path fill="none" stroke="midnightblue" d="M191,-174.362C191,-166.922 191,-156.743 191,-147.728"/>
<polygon fill="midnightblue" stroke="midnightblue" points="194.5,-147.571 191,-137.571 187.5,-147.571 194.5,-147.571"/>
</g>
<!-- Node8 -->
<g id="node15" class="node"><title>Node8</title>
<a xlink:href="MojLog_8h.htm" target="_top" xlink:title="core/MojLog.h">
<polygon fill="white" stroke="black" points="228,-116.5 228,-137.5 312,-137.5 312,-116.5 228,-116.5"/>
<text text-anchor="middle" x="270" y="-124.5" font-family="Helvetica,sans-Serif" font-size="10.00">core/MojLog.h</text>
</a>
</g>
<!-- Node7&#45;&gt;Node8 -->
<g id="edge14" class="edge"><title>Node7&#45;&gt;Node8</title>
<path fill="none" stroke="midnightblue" d="M303.48,-174.362C297.874,-166.431 290.068,-155.389 283.403,-145.961"/>
<polygon fill="midnightblue" stroke="midnightblue" points="286.103,-143.716 277.472,-137.571 280.387,-147.757 286.103,-143.716"/>
</g>
<!-- Node9 -->
<g id="node17" class="node"><title>Node9</title>
<a xlink:href="MojListEntry_8h.htm" target="_top" xlink:title="core/MojListEntry.h">
<polygon fill="white" stroke="black" points="112.5,-58.5 112.5,-79.5 219.5,-79.5 219.5,-58.5 112.5,-58.5"/>
<text text-anchor="middle" x="166" y="-66.5" font-family="Helvetica,sans-Serif" font-size="10.00">core/MojListEntry.h</text>
</a>
</g>
<!-- Node8&#45;&gt;Node9 -->
<g id="edge16" class="edge"><title>Node8&#45;&gt;Node9</title>
<path fill="none" stroke="midnightblue" d="M250.925,-116.362C234.945,-107.45 211.919,-94.6087 193.873,-84.5447"/>
<polygon fill="midnightblue" stroke="midnightblue" points="195.393,-81.3846 184.954,-79.5707 191.983,-87.4982 195.393,-81.3846"/>
</g>
<!-- Node10 -->
<g id="node19" class="node"><title>Node10</title>
<a xlink:href="MojNoCopy_8h.htm" target="_top" xlink:title="core/MojNoCopy.h">
<polygon fill="white" stroke="black" points="31,-0.5 31,-21.5 135,-21.5 135,-0.5 31,-0.5"/>
<text text-anchor="middle" x="83" y="-8.5" font-family="Helvetica,sans-Serif" font-size="10.00">core/MojNoCopy.h</text>
</a>
</g>
<!-- Node9&#45;&gt;Node10 -->
<g id="edge18" class="edge"><title>Node9&#45;&gt;Node10</title>
<path fill="none" stroke="midnightblue" d="M150.777,-58.3619C138.375,-49.6955 120.654,-37.3126 106.443,-27.3819"/>
<polygon fill="midnightblue" stroke="midnightblue" points="108.329,-24.4297 98.127,-21.5707 104.319,-30.1676 108.329,-24.4297"/>
</g>
<!-- Node12 -->
<g id="node23" class="node"><title>Node12</title>
<a xlink:href="MojOsInternal_8h.htm" target="_top" xlink:title="core/internal/MojOsInternal.h">
<polygon fill="white" stroke="black" points="332,-116.5 332,-137.5 486,-137.5 486,-116.5 332,-116.5"/>
<text text-anchor="middle" x="409" y="-124.5" font-family="Helvetica,sans-Serif" font-size="10.00">core/internal/MojOsInternal.h</text>
</a>
</g>
<!-- Node11&#45;&gt;Node12 -->
<g id="edge22" class="edge"><title>Node11&#45;&gt;Node12</title>
<path fill="none" stroke="midnightblue" d="M409,-174.362C409,-166.922 409,-156.743 409,-147.728"/>
<polygon fill="midnightblue" stroke="midnightblue" points="412.5,-147.571 409,-137.571 405.5,-147.571 412.5,-147.571"/>
</g>
<!-- Node13&#45;&gt;Node3 -->
<g id="edge26" class="edge"><title>Node13&#45;&gt;Node3</title>
<path fill="none" stroke="midnightblue" d="M653.991,-608.462C691.931,-592.145 755,-556.913 755,-503 755,-503 755,-503 755,-366 755,-309.822 705.357,-312.769 654,-290 596.585,-264.545 525.605,-252.848 474.849,-247.489"/>
<polygon fill="midnightblue" stroke="midnightblue" points="474.956,-243.982 464.657,-246.469 474.259,-250.948 474.956,-243.982"/>
</g>
<!-- Node14 -->
<g id="node28" class="node"><title>Node14</title>
<a xlink:href="MojAutoPtr_8h.htm" target="_top" xlink:title="core/MojAutoPtr.h">
<polygon fill="white" stroke="black" points="80.5,-427.5 80.5,-448.5 181.5,-448.5 181.5,-427.5 80.5,-427.5"/>
<text text-anchor="middle" x="131" y="-435.5" font-family="Helvetica,sans-Serif" font-size="10.00">core/MojAutoPtr.h</text>
</a>
</g>
<!-- Node13&#45;&gt;Node14 -->
<g id="edge28" class="edge"><title>Node13&#45;&gt;Node14</title>
<path fill="none" stroke="midnightblue" d="M578.637,-614.972C470.491,-604.801 210.1,-574.476 150,-514 135.608,-499.518 131.562,-475.887 130.676,-458.817"/>
<polygon fill="midnightblue" stroke="midnightblue" points="134.174,-458.637 130.474,-448.709 127.175,-458.777 134.174,-458.637"/>
</g>
<!-- Node17 -->
<g id="node37" class="node"><title>Node17</title>
<a xlink:href="MojComp_8h.htm" target="_top" xlink:title="core/MojComp.h">
<polygon fill="white" stroke="black" points="523,-290.5 523,-311.5 617,-311.5 617,-290.5 523,-290.5"/>
<text text-anchor="middle" x="570" y="-298.5" font-family="Helvetica,sans-Serif" font-size="10.00">core/MojComp.h</text>
</a>
</g>
<!-- Node13&#45;&gt;Node17 -->
<g id="edge40" class="edge"><title>Node13&#45;&gt;Node17</title>
<path fill="none" stroke="midnightblue" d="M642.691,-608.403C668.962,-590.272 717,-550.609 717,-503 717,-503 717,-503 717,-438 717,-377.548 649.647,-336.164 606.122,-315.732"/>
<polygon fill="midnightblue" stroke="midnightblue" points="607.515,-312.52 596.962,-311.573 604.621,-318.894 607.515,-312.52"/>
</g>
<!-- Node18 -->
<g id="node40" class="node"><title>Node18</title>
<a xlink:href="MojHasher_8h.htm" target="_top" xlink:title="core/MojHasher.h">
<polygon fill="white" stroke="black" points="158.5,-492.5 158.5,-513.5 259.5,-513.5 259.5,-492.5 158.5,-492.5"/>
<text text-anchor="middle" x="209" y="-500.5" font-family="Helvetica,sans-Serif" font-size="10.00">core/MojHasher.h</text>
</a>
</g>
<!-- Node13&#45;&gt;Node18 -->
<g id="edge44" class="edge"><title>Node13&#45;&gt;Node18</title>
<path fill="none" stroke="midnightblue" d="M587.889,-608.398C511.573,-587.169 340.174,-539.49 256.615,-516.245"/>
<polygon fill="midnightblue" stroke="midnightblue" points="257.444,-512.843 246.872,-513.535 255.568,-519.587 257.444,-512.843"/>
</g>
<!-- Node21 -->
<g id="node49" class="node"><title>Node21</title>
<a xlink:href="MojVector_8h.htm" target="_top" xlink:title="core/MojVector.h">
<polygon fill="white" stroke="black" points="535.5,-550.5 535.5,-571.5 632.5,-571.5 632.5,-550.5 535.5,-550.5"/>
<text text-anchor="middle" x="584" y="-558.5" font-family="Helvetica,sans-Serif" font-size="10.00">core/MojVector.h</text>
</a>
</g>
<!-- Node13&#45;&gt;Node21 -->
<g id="edge56" class="edge"><title>Node13&#45;&gt;Node21</title>
<path fill="none" stroke="midnightblue" d="M618.297,-608.362C612.554,-600.431 604.557,-589.389 597.73,-579.961"/>
<polygon fill="midnightblue" stroke="midnightblue" points="600.355,-577.617 591.655,-571.571 594.685,-581.723 600.355,-577.617"/>
</g>
<!-- Node14&#45;&gt;Node3 -->
<g id="edge30" class="edge"><title>Node14&#45;&gt;Node3</title>
<path fill="none" stroke="midnightblue" d="M106.133,-427.389C88.881,-418.546 67.2319,-404.133 57,-384 49.751,-369.736 47.91,-361.167 57,-348 89.6514,-300.704 250.819,-267.957 343.346,-252.718"/>
<polygon fill="midnightblue" stroke="midnightblue" points="344.142,-256.134 353.452,-251.078 343.021,-249.225 344.142,-256.134"/>
</g>
<!-- Node14&#45;&gt;Node10 -->
<g id="edge36" class="edge"><title>Node14&#45;&gt;Node10</title>
<path fill="none" stroke="midnightblue" d="M108.48,-427.387C71.0255,-407.991 0,-363.032 0,-301 0,-301 0,-301 0,-127 0,-85.3959 35.7484,-48.4381 60.3233,-27.947"/>
<polygon fill="midnightblue" stroke="midnightblue" points="62.5602,-30.6395 68.1613,-21.6462 58.1744,-25.1838 62.5602,-30.6395"/>
</g>
<!-- Node15 -->
<g id="node31" class="node"><title>Node15</title>
<a xlink:href="MojAtomicInt_8h.htm" target="_top" xlink:title="core/MojAtomicInt.h">
<polygon fill="white" stroke="black" points="252,-355.5 252,-376.5 362,-376.5 362,-355.5 252,-355.5"/>
<text text-anchor="middle" x="307" y="-363.5" font-family="Helvetica,sans-Serif" font-size="10.00">core/MojAtomicInt.h</text>
</a>
</g>
<!-- Node14&#45;&gt;Node15 -->
<g id="edge32" class="edge"><title>Node14&#45;&gt;Node15</title>
<path fill="none" stroke="midnightblue" d="M156.969,-427.376C187.343,-414.951 237.775,-394.319 271.686,-380.446"/>
<polygon fill="midnightblue" stroke="midnightblue" points="273.281,-383.576 281.211,-376.55 270.63,-377.097 273.281,-383.576"/>
</g>
<!-- Node16 -->
<g id="node35" class="node"><title>Node16</title>
<a xlink:href="MojAutoPtrInternal_8h.htm" target="_top" xlink:title="core/internal/MojAutoPtr\lInternal.h">
<polygon fill="white" stroke="black" points="65.5,-349 65.5,-383 196.5,-383 196.5,-349 65.5,-349"/>
<text text-anchor="start" x="73.5" y="-370" font-family="Helvetica,sans-Serif" font-size="10.00">core/internal/MojAutoPtr</text>
<text text-anchor="middle" x="131" y="-357" font-family="Helvetica,sans-Serif" font-size="10.00">Internal.h</text>
</a>
</g>
<!-- Node14&#45;&gt;Node16 -->
<g id="edge38" class="edge"><title>Node14&#45;&gt;Node16</title>
<path fill="none" stroke="midnightblue" d="M131,-427.376C131,-418.451 131,-405.293 131,-393.446"/>
<polygon fill="midnightblue" stroke="midnightblue" points="134.5,-393.094 131,-383.094 127.5,-393.094 134.5,-393.094"/>
</g>
<!-- Node15&#45;&gt;Node3 -->
<g id="edge34" class="edge"><title>Node15&#45;&gt;Node3</title>
<path fill="none" stroke="midnightblue" d="M316.052,-355.085C333.486,-334.061 371.904,-287.733 393.493,-261.7"/>
<polygon fill="midnightblue" stroke="midnightblue" points="396.425,-263.647 400.114,-253.715 391.037,-259.179 396.425,-263.647"/>
</g>
<!-- Node17&#45;&gt;Node3 -->
<g id="edge42" class="edge"><title>Node17&#45;&gt;Node3</title>
<path fill="none" stroke="midnightblue" d="M540.844,-290.497C514.824,-281.123 476.521,-267.324 447.896,-257.012"/>
<polygon fill="midnightblue" stroke="midnightblue" points="448.805,-253.62 438.211,-253.523 446.432,-260.205 448.805,-253.62"/>
</g>
<!-- Node18&#45;&gt;Node3 -->
<g id="edge46" class="edge"><title>Node18&#45;&gt;Node3</title>
<path fill="none" stroke="midnightblue" d="M208.646,-492.109C208.305,-465.123 210.741,-394.021 243,-348 274.307,-303.337 331.293,-273.496 369.649,-257.391"/>
<polygon fill="midnightblue" stroke="midnightblue" points="371.033,-260.606 378.973,-253.591 368.391,-254.124 371.033,-260.606"/>
</g>
<!-- Node19 -->
<g id="node43" class="node"><title>Node19</title>
<a xlink:href="MojUtil_8h.htm" target="_top" xlink:title="core/MojUtil.h">
<polygon fill="white" stroke="black" points="374.5,-427.5 374.5,-448.5 455.5,-448.5 455.5,-427.5 374.5,-427.5"/>
<text text-anchor="middle" x="415" y="-435.5" font-family="Helvetica,sans-Serif" font-size="10.00">core/MojUtil.h</text>
</a>
</g>
<!-- Node18&#45;&gt;Node19 -->
<g id="edge48" class="edge"><title>Node18&#45;&gt;Node19</title>
<path fill="none" stroke="midnightblue" d="M242.556,-492.412C277.721,-481.316 333.099,-463.843 371.575,-451.702"/>
<polygon fill="midnightblue" stroke="midnightblue" points="372.975,-454.93 381.458,-448.584 370.869,-448.255 372.975,-454.93"/>
</g>
<!-- Node19&#45;&gt;Node3 -->
<g id="edge50" class="edge"><title>Node19&#45;&gt;Node3</title>
<path fill="none" stroke="midnightblue" d="M414.669,-427.238C413.71,-396.082 410.92,-305.397 409.647,-264.022"/>
<polygon fill="midnightblue" stroke="midnightblue" points="413.143,-263.857 409.338,-253.969 406.147,-264.072 413.143,-263.857"/>
</g>
<!-- Node20 -->
<g id="node46" class="node"><title>Node20</title>
<a xlink:href="MojUtilInternal_8h.htm" target="_top" xlink:title="core/internal/MojUtilInternal.h">
<polygon fill="white" stroke="black" points="458.5,-355.5 458.5,-376.5 613.5,-376.5 613.5,-355.5 458.5,-355.5"/>
<text text-anchor="middle" x="536" y="-363.5" font-family="Helvetica,sans-Serif" font-size="10.00">core/internal/MojUtilInternal.h</text>
</a>
</g>
<!-- Node19&#45;&gt;Node20 -->
<g id="edge52" class="edge"><title>Node19&#45;&gt;Node20</title>
<path fill="none" stroke="midnightblue" d="M432.854,-427.376C453.05,-415.359 486.147,-395.665 509.39,-381.834"/>
<polygon fill="midnightblue" stroke="midnightblue" points="511.269,-384.789 518.073,-376.667 507.689,-378.773 511.269,-384.789"/>
</g>
<!-- Node20&#45;&gt;Node17 -->
<g id="edge54" class="edge"><title>Node20&#45;&gt;Node17</title>
<path fill="none" stroke="midnightblue" d="M541.614,-355.267C546.516,-345.896 553.755,-332.057 559.695,-320.7"/>
<polygon fill="midnightblue" stroke="midnightblue" points="562.956,-322.017 564.49,-311.534 556.754,-318.772 562.956,-322.017"/>
</g>
<!-- Node21&#45;&gt;Node3 -->
<g id="edge58" class="edge"><title>Node21&#45;&gt;Node3</title>
<path fill="none" stroke="midnightblue" d="M600.548,-550.312C627.766,-531.283 679,-488.726 679,-438 679,-438 679,-438 679,-366 679,-324.82 660.274,-312.828 626,-290 601.498,-273.681 528.984,-260.104 474.473,-251.806"/>
<polygon fill="midnightblue" stroke="midnightblue" points="474.927,-248.335 464.52,-250.319 473.892,-255.258 474.927,-248.335"/>
</g>
<!-- Node21&#45;&gt;Node17 -->
<g id="edge60" class="edge"><title>Node21&#45;&gt;Node17</title>
<path fill="none" stroke="midnightblue" d="M596.189,-550.424C605.25,-541.699 616.892,-528.443 622,-514 646.601,-444.445 651.944,-415.428 622,-348 616.598,-335.836 606.32,-325.487 596.318,-317.622"/>
<polygon fill="midnightblue" stroke="midnightblue" points="598.235,-314.687 588.095,-311.614 594.105,-320.34 598.235,-314.687"/>
</g>
<!-- Node21&#45;&gt;Node19 -->
<g id="edge74" class="edge"><title>Node21&#45;&gt;Node19</title>
<path fill="none" stroke="midnightblue" d="M535.368,-551.158C497.127,-542.468 448.042,-528.891 434,-514 419.993,-499.146 415.88,-475.579 414.874,-458.626"/>
<polygon fill="midnightblue" stroke="midnightblue" points="418.371,-458.494 414.588,-448.598 411.374,-458.693 418.371,-458.494"/>
</g>
<!-- Node22 -->
<g id="node53" class="node"><title>Node22</title>
<a xlink:href="MojRefCount_8h.htm" target="_top" xlink:title="core/MojRefCount.h">
<polygon fill="white" stroke="black" points="277,-492.5 277,-513.5 387,-513.5 387,-492.5 277,-492.5"/>
<text text-anchor="middle" x="332" y="-500.5" font-family="Helvetica,sans-Serif" font-size="10.00">core/MojRefCount.h</text>
</a>
</g>
<!-- Node21&#45;&gt;Node22 -->
<g id="edge62" class="edge"><title>Node21&#45;&gt;Node22</title>
<path fill="none" stroke="midnightblue" d="M538.365,-550.497C496.037,-540.755 432.942,-526.233 387.67,-515.813"/>
<polygon fill="midnightblue" stroke="midnightblue" points="388.251,-512.355 377.721,-513.523 386.681,-519.177 388.251,-512.355"/>
</g>
<!-- Node24 -->
<g id="node62" class="node"><title>Node24</title>
<a xlink:href="MojVectorInternal_8h.htm" target="_top" xlink:title="core/internal/MojVectorInternal.h">
<polygon fill="white" stroke="black" points="442.5,-492.5 442.5,-513.5 613.5,-513.5 613.5,-492.5 442.5,-492.5"/>
<text text-anchor="middle" x="528" y="-500.5" font-family="Helvetica,sans-Serif" font-size="10.00">core/internal/MojVectorInternal.h</text>
</a>
</g>
<!-- Node21&#45;&gt;Node24 -->
<g id="edge76" class="edge"><title>Node21&#45;&gt;Node24</title>
<path fill="none" stroke="midnightblue" d="M573.729,-550.362C565.756,-542.104 554.525,-530.472 545.189,-520.803"/>
<polygon fill="midnightblue" stroke="midnightblue" points="547.67,-518.334 538.206,-513.571 542.634,-523.196 547.67,-518.334"/>
</g>
<!-- Node22&#45;&gt;Node3 -->
<g id="edge64" class="edge"><title>Node22&#45;&gt;Node3</title>
<path fill="none" stroke="midnightblue" d="M335.743,-492.232C342.928,-471.427 359.002,-424.208 371,-384 383.679,-341.509 396.771,-291.263 403.793,-263.692"/>
<polygon fill="midnightblue" stroke="midnightblue" points="407.269,-264.221 406.333,-253.667 400.484,-262.502 407.269,-264.221"/>
</g>
<!-- Node22&#45;&gt;Node14 -->
<g id="edge68" class="edge"><title>Node22&#45;&gt;Node14</title>
<path fill="none" stroke="midnightblue" d="M299.259,-492.412C264.947,-481.316 210.913,-463.843 173.371,-451.702"/>
<polygon fill="midnightblue" stroke="midnightblue" points="174.319,-448.33 163.727,-448.584 172.165,-454.991 174.319,-448.33"/>
</g>
<!-- Node22&#45;&gt;Node15 -->
<g id="edge66" class="edge"><title>Node22&#45;&gt;Node15</title>
<path fill="none" stroke="midnightblue" d="M330.038,-492.25C325.894,-469.541 316.188,-416.348 310.79,-386.768"/>
<polygon fill="midnightblue" stroke="midnightblue" points="314.191,-385.909 308.953,-376.7 307.305,-387.166 314.191,-385.909"/>
</g>
<!-- Node23 -->
<g id="node58" class="node"><title>Node23</title>
<a xlink:href="MojRefCountInternal_8h.htm" target="_top" xlink:title="core/internal/MojRefCount\lInternal.h">
<polygon fill="white" stroke="black" points="473,-421 473,-455 613,-455 613,-421 473,-421"/>
<text text-anchor="start" x="481" y="-442" font-family="Helvetica,sans-Serif" font-size="10.00">core/internal/MojRefCount</text>
<text text-anchor="middle" x="543" y="-429" font-family="Helvetica,sans-Serif" font-size="10.00">Internal.h</text>
</a>
</g>
<!-- Node22&#45;&gt;Node23 -->
<g id="edge70" class="edge"><title>Node22&#45;&gt;Node23</title>
<path fill="none" stroke="midnightblue" d="M366.37,-492.412C396.493,-483.133 441.096,-469.392 477.943,-458.041"/>
<polygon fill="midnightblue" stroke="midnightblue" points="479.093,-461.349 487.619,-455.06 477.032,-454.66 479.093,-461.349"/>
</g>
<!-- Node23&#45;&gt;Node20 -->
<g id="edge72" class="edge"><title>Node23&#45;&gt;Node20</title>
<path fill="none" stroke="midnightblue" d="M541.341,-420.937C540.357,-410.814 539.101,-397.898 538.055,-387.133"/>
<polygon fill="midnightblue" stroke="midnightblue" points="541.511,-386.515 537.06,-376.901 534.544,-387.193 541.511,-386.515"/>
</g>
</g>
</svg>
