<?xml version="1.0" encoding="UTF-8" standalone="no"?>
<!DOCTYPE svg PUBLIC "-//W3C//DTD SVG 1.1//EN"
 "http://www.w3.org/Graphics/SVG/1.1/DTD/svg11.dtd">
<!-- Generated by graphviz version 2.26.3 (20100126.1600)
 -->
<!-- Title: MojDbPermissionEngine.h Pages: 1 -->
<svg width="1446pt" height="710pt"
 viewBox="0.00 0.00 1445.83 710.00" xmlns="http://www.w3.org/2000/svg" xmlns:xlink="http://www.w3.org/1999/xlink">
<g id="graph1" class="graph" transform="scale(1 1) rotate(0) translate(4 706)">
<title>MojDbPermissionEngine.h</title>
<polygon fill="white" stroke="white" points="-4,5 -4,-706 1442.83,-706 1442.83,5 -4,5"/>
<!-- Node1 -->
<g id="node1" class="node"><title>Node1</title>
<polygon fill="#bfbfbf" stroke="black" points="412.833,-680.5 412.833,-701.5 552.833,-701.5 552.833,-680.5 412.833,-680.5"/>
<text text-anchor="middle" x="482.833" y="-688.5" font-family="Helvetica,sans-Serif" font-size="10.00">MojDbPermissionEngine.h</text>
</g>
<!-- Node2 -->
<g id="node3" class="node"><title>Node2</title>
<a xlink:href="MojDbDefs_8h.htm" target="_top" xlink:title="db/MojDbDefs.h">
<polygon fill="white" stroke="black" points="248.333,-557.5 248.333,-578.5 339.333,-578.5 339.333,-557.5 248.333,-557.5"/>
<text text-anchor="middle" x="293.833" y="-565.5" font-family="Helvetica,sans-Serif" font-size="10.00">db/MojDbDefs.h</text>
</a>
</g>
<!-- Node1&#45;&gt;Node2 -->
<g id="edge2" class="edge"><title>Node1&#45;&gt;Node2</title>
<path fill="none" stroke="midnightblue" d="M419.864,-680.423C377.948,-672.141 327.908,-659.453 312.833,-644 298.576,-629.386 294.506,-605.778 293.578,-588.749"/>
<polygon fill="midnightblue" stroke="midnightblue" points="297.076,-588.586 293.347,-578.669 290.077,-588.747 297.076,-588.586"/>
</g>
<!-- Node13 -->
<g id="node25" class="node"><title>Node13</title>
<a xlink:href="MojDbPutHandler_8h.htm" target="_top" xlink:title="db/MojDbPutHandler.h">
<polygon fill="white" stroke="black" points="321.833,-622.5 321.833,-643.5 443.833,-643.5 443.833,-622.5 321.833,-622.5"/>
<text text-anchor="middle" x="382.833" y="-630.5" font-family="Helvetica,sans-Serif" font-size="10.00">db/MojDbPutHandler.h</text>
</a>
</g>
<!-- Node1&#45;&gt;Node13 -->
<g id="edge24" class="edge"><title>Node1&#45;&gt;Node13</title>
<path fill="none" stroke="midnightblue" d="M464.491,-680.362C449.267,-671.532 427.391,-658.844 410.113,-648.822"/>
<polygon fill="midnightblue" stroke="midnightblue" points="411.464,-645.56 401.058,-643.571 407.952,-651.615 411.464,-645.56"/>
</g>
<!-- Node15 -->
<g id="node31" class="node"><title>Node15</title>
<a xlink:href="MojHashMap_8h.htm" target="_top" xlink:title="core/MojHashMap.h">
<polygon fill="white" stroke="black" points="143.833,-622.5 143.833,-643.5 255.833,-643.5 255.833,-622.5 143.833,-622.5"/>
<text text-anchor="middle" x="199.833" y="-630.5" font-family="Helvetica,sans-Serif" font-size="10.00">core/MojHashMap.h</text>
</a>
</g>
<!-- Node1&#45;&gt;Node15 -->
<g id="edge32" class="edge"><title>Node1&#45;&gt;Node15</title>
<path fill="none" stroke="midnightblue" d="M431.584,-680.497C383.649,-670.673 312,-655.988 261.074,-645.551"/>
<polygon fill="midnightblue" stroke="midnightblue" points="261.677,-642.102 251.178,-643.523 260.272,-648.96 261.677,-642.102"/>
</g>
<!-- Node24 -->
<g id="node58" class="node"><title>Node24</title>
<a xlink:href="MojMap_8h.htm" target="_top" xlink:title="core/MojMap.h">
<polygon fill="white" stroke="black" points="332.333,-492.5 332.333,-513.5 419.333,-513.5 419.333,-492.5 332.333,-492.5"/>
<text text-anchor="middle" x="375.833" y="-500.5" font-family="Helvetica,sans-Serif" font-size="10.00">core/MojMap.h</text>
</a>
</g>
<!-- Node1&#45;&gt;Node24 -->
<g id="edge68" class="edge"><title>Node1&#45;&gt;Node24</title>
<path fill="none" stroke="midnightblue" d="M497.278,-680.465C528.904,-656.141 598.754,-594.726 563.833,-550 547.417,-528.975 479.203,-515.963 429.66,-509.105"/>
<polygon fill="midnightblue" stroke="midnightblue" points="430.085,-505.63 419.71,-507.774 429.158,-512.569 430.085,-505.63"/>
</g>
<!-- Node26 -->
<g id="node66" class="node"><title>Node26</title>
<a xlink:href="MojString_8h.htm" target="_top" xlink:title="core/MojString.h">
<polygon fill="white" stroke="black" points="669.833,-622.5 669.833,-643.5 763.833,-643.5 763.833,-622.5 669.833,-622.5"/>
<text text-anchor="middle" x="716.833" y="-630.5" font-family="Helvetica,sans-Serif" font-size="10.00">core/MojString.h</text>
</a>
</g>
<!-- Node1&#45;&gt;Node26 -->
<g id="edge80" class="edge"><title>Node1&#45;&gt;Node26</title>
<path fill="none" stroke="midnightblue" d="M525.208,-680.497C564.348,-670.795 622.609,-656.355 664.608,-645.945"/>
<polygon fill="midnightblue" stroke="midnightblue" points="665.513,-649.326 674.378,-643.523 663.829,-642.532 665.513,-649.326"/>
</g>
<!-- Node31 -->
<g id="node87" class="node"><title>Node31</title>
<a xlink:href="MojThread_8h.htm" target="_top" xlink:title="core/MojThread.h">
<polygon fill="white" stroke="black" points="1237.33,-492.5 1237.33,-513.5 1338.33,-513.5 1338.33,-492.5 1237.33,-492.5"/>
<text text-anchor="middle" x="1287.83" y="-500.5" font-family="Helvetica,sans-Serif" font-size="10.00">core/MojThread.h</text>
</a>
</g>
<!-- Node1&#45;&gt;Node31 -->
<g id="edge112" class="edge"><title>Node1&#45;&gt;Node31</title>
<path fill="none" stroke="midnightblue" d="M552.962,-688.945C677.301,-683.367 942.964,-662.673 1151.83,-586 1195.5,-569.97 1240.49,-539.182 1266.21,-519.944"/>
<polygon fill="midnightblue" stroke="midnightblue" points="1268.63,-522.502 1274.48,-513.664 1264.4,-516.929 1268.63,-522.502"/>
</g>
<!-- Node3 -->
<g id="node5" class="node"><title>Node3</title>
<a xlink:href="MojCoreDefs_8h.htm" target="_top" xlink:title="core/MojCoreDefs.h">
<polygon fill="white" stroke="black" points="802.333,-232.5 802.333,-253.5 913.333,-253.5 913.333,-232.5 802.333,-232.5"/>
<text text-anchor="middle" x="857.833" y="-240.5" font-family="Helvetica,sans-Serif" font-size="10.00">core/MojCoreDefs.h</text>
</a>
</g>
<!-- Node2&#45;&gt;Node3 -->
<g id="edge4" class="edge"><title>Node2&#45;&gt;Node3</title>
<path fill="none" stroke="midnightblue" d="M291.334,-557.344C281.783,-513.601 252.562,-347.439 344.833,-290 381.98,-266.876 662.124,-251.64 792.037,-245.746"/>
<polygon fill="midnightblue" stroke="midnightblue" points="792.421,-249.232 802.254,-245.287 792.107,-242.239 792.421,-249.232"/>
</g>
<!-- Node4 -->
<g id="node7" class="node"><title>Node4</title>
<a xlink:href="MojConfig_8h.htm" target="_top" xlink:title="core/internal/MojConfig.h">
<polygon fill="white" stroke="black" points="915.333,-174.5 915.333,-195.5 1050.33,-195.5 1050.33,-174.5 915.333,-174.5"/>
<text text-anchor="middle" x="982.833" y="-182.5" font-family="Helvetica,sans-Serif" font-size="10.00">core/internal/MojConfig.h</text>
</a>
</g>
<!-- Node3&#45;&gt;Node4 -->
<g id="edge6" class="edge"><title>Node3&#45;&gt;Node4</title>
<path fill="none" stroke="midnightblue" d="M880.469,-232.497C900.081,-223.397 928.679,-210.127 950.666,-199.925"/>
<polygon fill="midnightblue" stroke="midnightblue" points="952.344,-203.005 959.942,-195.621 949.398,-196.655 952.344,-203.005"/>
</g>
<!-- Node5 -->
<g id="node9" class="node"><title>Node5</title>
<a xlink:href="MojNew_8h.htm" target="_top" xlink:title="core/internal/MojNew.h">
<polygon fill="white" stroke="black" points="675.333,-174.5 675.333,-195.5 800.333,-195.5 800.333,-174.5 675.333,-174.5"/>
<text text-anchor="middle" x="737.833" y="-182.5" font-family="Helvetica,sans-Serif" font-size="10.00">core/internal/MojNew.h</text>
</a>
</g>
<!-- Node3&#45;&gt;Node5 -->
<g id="edge8" class="edge"><title>Node3&#45;&gt;Node5</title>
<path fill="none" stroke="midnightblue" d="M836.102,-232.497C817.359,-223.438 790.066,-210.246 768.997,-200.063"/>
<polygon fill="midnightblue" stroke="midnightblue" points="770.334,-196.822 759.808,-195.621 767.288,-203.124 770.334,-196.822"/>
</g>
<!-- Node7 -->
<g id="node13" class="node"><title>Node7</title>
<a xlink:href="MojErr_8h.htm" target="_top" xlink:title="core/MojErr.h">
<polygon fill="white" stroke="black" points="817.833,-174.5 817.833,-195.5 897.833,-195.5 897.833,-174.5 817.833,-174.5"/>
<text text-anchor="middle" x="857.833" y="-182.5" font-family="Helvetica,sans-Serif" font-size="10.00">core/MojErr.h</text>
</a>
</g>
<!-- Node3&#45;&gt;Node7 -->
<g id="edge12" class="edge"><title>Node3&#45;&gt;Node7</title>
<path fill="none" stroke="midnightblue" d="M857.833,-232.362C857.833,-224.922 857.833,-214.743 857.833,-205.728"/>
<polygon fill="midnightblue" stroke="midnightblue" points="861.333,-205.571 857.833,-195.571 854.333,-205.571 861.333,-205.571"/>
</g>
<!-- Node11 -->
<g id="node21" class="node"><title>Node11</title>
<a xlink:href="MojOs_8h.htm" target="_top" xlink:title="core/MojOs.h">
<polygon fill="white" stroke="black" points="1067.83,-174.5 1067.83,-195.5 1147.83,-195.5 1147.83,-174.5 1067.83,-174.5"/>
<text text-anchor="middle" x="1107.83" y="-182.5" font-family="Helvetica,sans-Serif" font-size="10.00">core/MojOs.h</text>
</a>
</g>
<!-- Node3&#45;&gt;Node11 -->
<g id="edge20" class="edge"><title>Node3&#45;&gt;Node11</title>
<path fill="none" stroke="midnightblue" d="M903.106,-232.497C946.668,-222.39 1012.4,-207.14 1057.57,-196.662"/>
<polygon fill="midnightblue" stroke="midnightblue" points="1058.49,-200.04 1067.44,-194.371 1056.91,-193.221 1058.49,-200.04"/>
</g>
<!-- Node6 -->
<g id="node11" class="node"><title>Node6</title>
<polygon fill="white" stroke="#bfbfbf" points="719.833,-116.5 719.833,-137.5 755.833,-137.5 755.833,-116.5 719.833,-116.5"/>
<text text-anchor="middle" x="737.833" y="-124.5" font-family="Helvetica,sans-Serif" font-size="10.00">new</text>
</g>
<!-- Node5&#45;&gt;Node6 -->
<g id="edge10" class="edge"><title>Node5&#45;&gt;Node6</title>
<path fill="none" stroke="midnightblue" d="M737.833,-174.362C737.833,-166.922 737.833,-156.743 737.833,-147.728"/>
<polygon fill="midnightblue" stroke="midnightblue" points="741.333,-147.571 737.833,-137.571 734.333,-147.571 741.333,-147.571"/>
</g>
<!-- Node8 -->
<g id="node15" class="node"><title>Node8</title>
<a xlink:href="MojLog_8h.htm" target="_top" xlink:title="core/MojLog.h">
<polygon fill="white" stroke="black" points="872.833,-116.5 872.833,-137.5 956.833,-137.5 956.833,-116.5 872.833,-116.5"/>
<text text-anchor="middle" x="914.833" y="-124.5" font-family="Helvetica,sans-Serif" font-size="10.00">core/MojLog.h</text>
</a>
</g>
<!-- Node7&#45;&gt;Node8 -->
<g id="edge14" class="edge"><title>Node7&#45;&gt;Node8</title>
<path fill="none" stroke="midnightblue" d="M868.287,-174.362C876.403,-166.104 887.834,-154.472 897.337,-144.803"/>
<polygon fill="midnightblue" stroke="midnightblue" points="899.931,-147.156 904.444,-137.571 894.939,-142.25 899.931,-147.156"/>
</g>
<!-- Node9 -->
<g id="node17" class="node"><title>Node9</title>
<a xlink:href="MojListEntry_8h.htm" target="_top" xlink:title="core/MojListEntry.h">
<polygon fill="white" stroke="black" points="975.333,-58.5 975.333,-79.5 1082.33,-79.5 1082.33,-58.5 975.333,-58.5"/>
<text text-anchor="middle" x="1028.83" y="-66.5" font-family="Helvetica,sans-Serif" font-size="10.00">core/MojListEntry.h</text>
</a>
</g>
<!-- Node8&#45;&gt;Node9 -->
<g id="edge16" class="edge"><title>Node8&#45;&gt;Node9</title>
<path fill="none" stroke="midnightblue" d="M935.477,-116.497C953.202,-107.479 978.978,-94.3649 998.956,-84.2006"/>
<polygon fill="midnightblue" stroke="midnightblue" points="1000.63,-87.2753 1007.96,-79.6212 997.457,-81.0364 1000.63,-87.2753"/>
</g>
<!-- Node10 -->
<g id="node19" class="node"><title>Node10</title>
<a xlink:href="MojNoCopy_8h.htm" target="_top" xlink:title="core/MojNoCopy.h">
<polygon fill="white" stroke="black" points="1073.83,-0.5 1073.83,-21.5 1177.83,-21.5 1177.83,-0.5 1073.83,-0.5"/>
<text text-anchor="middle" x="1125.83" y="-8.5" font-family="Helvetica,sans-Serif" font-size="10.00">core/MojNoCopy.h</text>
</a>
</g>
<!-- Node9&#45;&gt;Node10 -->
<g id="edge18" class="edge"><title>Node9&#45;&gt;Node10</title>
<path fill="none" stroke="midnightblue" d="M1046.62,-58.3619C1061.39,-49.532 1082.61,-36.844 1099.37,-26.8224"/>
<polygon fill="midnightblue" stroke="midnightblue" points="1101.37,-29.7066 1108.15,-21.5707 1097.78,-23.6987 1101.37,-29.7066"/>
</g>
<!-- Node12 -->
<g id="node23" class="node"><title>Node12</title>
<a xlink:href="MojOsInternal_8h.htm" target="_top" xlink:title="core/internal/MojOsInternal.h">
<polygon fill="white" stroke="black" points="1030.83,-116.5 1030.83,-137.5 1184.83,-137.5 1184.83,-116.5 1030.83,-116.5"/>
<text text-anchor="middle" x="1107.83" y="-124.5" font-family="Helvetica,sans-Serif" font-size="10.00">core/internal/MojOsInternal.h</text>
</a>
</g>
<!-- Node11&#45;&gt;Node12 -->
<g id="edge22" class="edge"><title>Node11&#45;&gt;Node12</title>
<path fill="none" stroke="midnightblue" d="M1107.83,-174.362C1107.83,-166.922 1107.83,-156.743 1107.83,-147.728"/>
<polygon fill="midnightblue" stroke="midnightblue" points="1111.33,-147.571 1107.83,-137.571 1104.33,-147.571 1111.33,-147.571"/>
</g>
<!-- Node13&#45;&gt;Node2 -->
<g id="edge26" class="edge"><title>Node13&#45;&gt;Node2</title>
<path fill="none" stroke="midnightblue" d="M368.136,-622.267C354.139,-612.044 332.862,-596.504 316.658,-584.67"/>
<polygon fill="midnightblue" stroke="midnightblue" points="318.396,-581.605 308.256,-578.534 314.267,-587.258 318.396,-581.605"/>
</g>
<!-- Node14 -->
<g id="node28" class="node"><title>Node14</title>
<a xlink:href="MojComp_8h.htm" target="_top" xlink:title="core/MojComp.h">
<polygon fill="white" stroke="black" points="524.833,-297.5 524.833,-318.5 618.833,-318.5 618.833,-297.5 524.833,-297.5"/>
<text text-anchor="middle" x="571.833" y="-305.5" font-family="Helvetica,sans-Serif" font-size="10.00">core/MojComp.h</text>
</a>
</g>
<!-- Node13&#45;&gt;Node14 -->
<g id="edge28" class="edge"><title>Node13&#45;&gt;Node14</title>
<path fill="none" stroke="midnightblue" d="M381.776,-622.23C380.66,-605.571 380.592,-573.07 393.833,-550 410.782,-520.469 494.527,-483.332 514.833,-456 544.521,-416.04 560.705,-358.705 567.652,-328.467"/>
<polygon fill="midnightblue" stroke="midnightblue" points="571.085,-329.152 569.801,-318.635 564.246,-327.657 571.085,-329.152"/>
</g>
<!-- Node14&#45;&gt;Node3 -->
<g id="edge30" class="edge"><title>Node14&#45;&gt;Node3</title>
<path fill="none" stroke="midnightblue" d="M606.466,-297.443C615.35,-294.873 624.916,-292.227 633.833,-290 686.699,-276.8 747.201,-264.255 791.99,-255.452"/>
<polygon fill="midnightblue" stroke="midnightblue" points="792.73,-258.874 801.872,-253.52 791.386,-252.004 792.73,-258.874"/>
</g>
<!-- Node15&#45;&gt;Node3 -->
<g id="edge34" class="edge"><title>Node15&#45;&gt;Node3</title>
<path fill="none" stroke="midnightblue" d="M143.622,-624.715C97.742,-616.819 37.8232,-603.538 20.8328,-586 -5.49836,-558.82 1.83279,-540.843 1.83279,-503 1.83279,-503 1.83279,-503 1.83279,-373 1.83279,-293.125 591.944,-256.269 792.239,-246.06"/>
<polygon fill="midnightblue" stroke="midnightblue" points="792.517,-249.551 802.328,-245.552 792.164,-242.56 792.517,-249.551"/>
</g>
<!-- Node15&#45;&gt;Node14 -->
<g id="edge36" class="edge"><title>Node15&#45;&gt;Node14</title>
<path fill="none" stroke="midnightblue" d="M203.125,-622.247C216.615,-580.235 272.018,-426.336 377.833,-362 419.83,-336.466 474.207,-322.691 514.701,-315.461"/>
<polygon fill="midnightblue" stroke="midnightblue" points="515.411,-318.89 524.681,-313.76 514.236,-311.99 515.411,-318.89"/>
</g>
<!-- Node16 -->
<g id="node35" class="node"><title>Node16</title>
<a xlink:href="MojHashBase_8h.htm" target="_top" xlink:title="core/internal/MojHashBase.h">
<polygon fill="white" stroke="black" points="402.333,-557.5 402.333,-578.5 555.333,-578.5 555.333,-557.5 402.333,-557.5"/>
<text text-anchor="middle" x="478.833" y="-565.5" font-family="Helvetica,sans-Serif" font-size="10.00">core/internal/MojHashBase.h</text>
</a>
</g>
<!-- Node15&#45;&gt;Node16 -->
<g id="edge38" class="edge"><title>Node15&#45;&gt;Node16</title>
<path fill="none" stroke="midnightblue" d="M244.969,-622.484C293.796,-611.109 371.658,-592.969 423.978,-580.78"/>
<polygon fill="midnightblue" stroke="midnightblue" points="424.816,-584.178 433.761,-578.501 423.228,-577.361 424.816,-584.178"/>
</g>
<!-- Node23 -->
<g id="node56" class="node"><title>Node23</title>
<a xlink:href="MojHashMapInternal_8h.htm" target="_top" xlink:title="core/internal/MojHashMap\lInternal.h">
<polygon fill="white" stroke="black" points="29.8328,-551 29.8328,-585 171.833,-585 171.833,-551 29.8328,-551"/>
<text text-anchor="start" x="37.8328" y="-572" font-family="Helvetica,sans-Serif" font-size="10.00">core/internal/MojHashMap</text>
<text text-anchor="middle" x="100.833" y="-559" font-family="Helvetica,sans-Serif" font-size="10.00">Internal.h</text>
</a>
</g>
<!-- Node15&#45;&gt;Node23 -->
<g id="edge66" class="edge"><title>Node15&#45;&gt;Node23</title>
<path fill="none" stroke="midnightblue" d="M183.485,-622.267C170.51,-613.748 151.911,-601.537 135.641,-590.854"/>
<polygon fill="midnightblue" stroke="midnightblue" points="137.173,-587.673 126.892,-585.11 133.331,-593.524 137.173,-587.673"/>
</g>
<!-- Node16&#45;&gt;Node3 -->
<g id="edge40" class="edge"><title>Node16&#45;&gt;Node3</title>
<path fill="none" stroke="midnightblue" d="M432.415,-557.492C392.045,-547.381 337.873,-531.139 323.833,-514 257.392,-432.891 305.683,-340.013 397.833,-290 431.683,-271.628 673.281,-254.389 792.135,-246.908"/>
<polygon fill="midnightblue" stroke="midnightblue" points="792.443,-250.396 802.206,-246.279 792.007,-243.41 792.443,-250.396"/>
</g>
<!-- Node17 -->
<g id="node38" class="node"><title>Node17</title>
<a xlink:href="MojAutoPtr_8h.htm" target="_top" xlink:title="core/MojAutoPtr.h">
<polygon fill="white" stroke="black" points="1043.33,-362.5 1043.33,-383.5 1144.33,-383.5 1144.33,-362.5 1043.33,-362.5"/>
<text text-anchor="middle" x="1093.83" y="-370.5" font-family="Helvetica,sans-Serif" font-size="10.00">core/MojAutoPtr.h</text>
</a>
</g>
<!-- Node16&#45;&gt;Node17 -->
<g id="edge42" class="edge"><title>Node16&#45;&gt;Node17</title>
<path fill="none" stroke="midnightblue" d="M518.377,-557.475C553.637,-547.646 606.395,-531.843 650.833,-514 672.69,-505.224 818.487,-427.444 840.833,-420 904.609,-398.755 980.819,-386.247 1032.81,-379.545"/>
<polygon fill="midnightblue" stroke="midnightblue" points="1033.39,-383 1042.88,-378.281 1032.52,-376.055 1033.39,-383"/>
</g>
<!-- Node20 -->
<g id="node47" class="node"><title>Node20</title>
<a xlink:href="MojHasher_8h.htm" target="_top" xlink:title="core/MojHasher.h">
<polygon fill="white" stroke="black" points="541.333,-492.5 541.333,-513.5 642.333,-513.5 642.333,-492.5 541.333,-492.5"/>
<text text-anchor="middle" x="591.833" y="-500.5" font-family="Helvetica,sans-Serif" font-size="10.00">core/MojHasher.h</text>
</a>
</g>
<!-- Node16&#45;&gt;Node20 -->
<g id="edge54" class="edge"><title>Node16&#45;&gt;Node20</title>
<path fill="none" stroke="midnightblue" d="M497.24,-557.412C515.544,-546.883 543.833,-530.611 564.709,-518.602"/>
<polygon fill="midnightblue" stroke="midnightblue" points="566.511,-521.604 573.434,-513.584 563.02,-515.536 566.511,-521.604"/>
</g>
<!-- Node17&#45;&gt;Node3 -->
<g id="edge44" class="edge"><title>Node17&#45;&gt;Node3</title>
<path fill="none" stroke="midnightblue" d="M1084.55,-362.227C1067.04,-342.141 1029.44,-300.089 1012.83,-290 985.639,-273.477 952.202,-262.378 923.353,-255.136"/>
<polygon fill="midnightblue" stroke="midnightblue" points="923.899,-251.668 913.358,-252.733 922.263,-258.474 923.899,-251.668"/>
</g>
<!-- Node17&#45;&gt;Node10 -->
<g id="edge50" class="edge"><title>Node17&#45;&gt;Node10</title>
<path fill="none" stroke="midnightblue" d="M1143.81,-362.43C1165.18,-355.475 1188.65,-344.168 1203.83,-326 1228.1,-296.959 1222.83,-280.843 1222.83,-243 1222.83,-243 1222.83,-243 1222.83,-127 1222.83,-82.9868 1181.23,-46.8699 1152.51,-27.1841"/>
<polygon fill="midnightblue" stroke="midnightblue" points="1154.35,-24.2023 1144.08,-21.6116 1150.49,-30.0433 1154.35,-24.2023"/>
</g>
<!-- Node18 -->
<g id="node41" class="node"><title>Node18</title>
<a xlink:href="MojAtomicInt_8h.htm" target="_top" xlink:title="core/MojAtomicInt.h">
<polygon fill="white" stroke="black" points="1256.83,-297.5 1256.83,-318.5 1366.83,-318.5 1366.83,-297.5 1256.83,-297.5"/>
<text text-anchor="middle" x="1311.83" y="-305.5" font-family="Helvetica,sans-Serif" font-size="10.00">core/MojAtomicInt.h</text>
</a>
</g>
<!-- Node17&#45;&gt;Node18 -->
<g id="edge46" class="edge"><title>Node17&#45;&gt;Node18</title>
<path fill="none" stroke="midnightblue" d="M1129.34,-362.412C1166.79,-351.246 1225.91,-333.619 1266.66,-321.47"/>
<polygon fill="midnightblue" stroke="midnightblue" points="1267.75,-324.795 1276.34,-318.584 1265.75,-318.087 1267.75,-324.795"/>
</g>
<!-- Node19 -->
<g id="node45" class="node"><title>Node19</title>
<a xlink:href="MojAutoPtrInternal_8h.htm" target="_top" xlink:title="core/internal/MojAutoPtr\lInternal.h">
<polygon fill="white" stroke="black" points="1064.33,-291 1064.33,-325 1195.33,-325 1195.33,-291 1064.33,-291"/>
<text text-anchor="start" x="1072.33" y="-312" font-family="Helvetica,sans-Serif" font-size="10.00">core/internal/MojAutoPtr</text>
<text text-anchor="middle" x="1129.83" y="-299" font-family="Helvetica,sans-Serif" font-size="10.00">Internal.h</text>
</a>
</g>
<!-- Node17&#45;&gt;Node19 -->
<g id="edge52" class="edge"><title>Node17&#45;&gt;Node19</title>
<path fill="none" stroke="midnightblue" d="M1099.78,-362.267C1104.01,-354.615 1109.9,-343.986 1115.34,-334.16"/>
<polygon fill="midnightblue" stroke="midnightblue" points="1118.57,-335.554 1120.36,-325.11 1112.45,-332.162 1118.57,-335.554"/>
</g>
<!-- Node18&#45;&gt;Node3 -->
<g id="edge48" class="edge"><title>Node18&#45;&gt;Node3</title>
<path fill="none" stroke="midnightblue" d="M1256.66,-298.476C1239.73,-295.642 1221.03,-292.601 1203.83,-290 1106.28,-275.249 992.928,-260.258 923.288,-251.294"/>
<polygon fill="midnightblue" stroke="midnightblue" points="923.702,-247.819 913.337,-250.016 922.81,-254.762 923.702,-247.819"/>
</g>
<!-- Node20&#45;&gt;Node3 -->
<g id="edge56" class="edge"><title>Node20&#45;&gt;Node3</title>
<path fill="none" stroke="midnightblue" d="M595.333,-492.289C604.009,-467.058 628.605,-402.933 666.833,-362 712.229,-313.391 781.713,-276.807 823.173,-257.751"/>
<polygon fill="midnightblue" stroke="midnightblue" points="824.652,-260.924 832.326,-253.62 821.772,-254.544 824.652,-260.924"/>
</g>
<!-- Node21 -->
<g id="node50" class="node"><title>Node21</title>
<a xlink:href="MojUtil_8h.htm" target="_top" xlink:title="core/MojUtil.h">
<polygon fill="white" stroke="black" points="675.333,-427.5 675.333,-448.5 756.333,-448.5 756.333,-427.5 675.333,-427.5"/>
<text text-anchor="middle" x="715.833" y="-435.5" font-family="Helvetica,sans-Serif" font-size="10.00">core/MojUtil.h</text>
</a>
</g>
<!-- Node20&#45;&gt;Node21 -->
<g id="edge58" class="edge"><title>Node20&#45;&gt;Node21</title>
<path fill="none" stroke="midnightblue" d="M612.032,-492.412C632.298,-481.788 663.718,-465.318 686.683,-453.28"/>
<polygon fill="midnightblue" stroke="midnightblue" points="688.411,-456.326 695.643,-448.584 685.161,-450.126 688.411,-456.326"/>
</g>
<!-- Node21&#45;&gt;Node3 -->
<g id="edge60" class="edge"><title>Node21&#45;&gt;Node3</title>
<path fill="none" stroke="midnightblue" d="M743.729,-427.422C778.1,-414.138 832.729,-392.104 838.833,-384 865.45,-348.66 864.122,-293.747 860.923,-263.951"/>
<polygon fill="midnightblue" stroke="midnightblue" points="864.374,-263.343 859.66,-253.854 857.429,-264.212 864.374,-263.343"/>
</g>
<!-- Node22 -->
<g id="node53" class="node"><title>Node22</title>
<a xlink:href="MojUtilInternal_8h.htm" target="_top" xlink:title="core/internal/MojUtilInternal.h">
<polygon fill="white" stroke="black" points="675.333,-362.5 675.333,-383.5 830.333,-383.5 830.333,-362.5 675.333,-362.5"/>
<text text-anchor="middle" x="752.833" y="-370.5" font-family="Helvetica,sans-Serif" font-size="10.00">core/internal/MojUtilInternal.h</text>
</a>
</g>
<!-- Node21&#45;&gt;Node22 -->
<g id="edge62" class="edge"><title>Node21&#45;&gt;Node22</title>
<path fill="none" stroke="midnightblue" d="M721.943,-427.267C727.331,-417.801 735.313,-403.777 741.814,-392.357"/>
<polygon fill="midnightblue" stroke="midnightblue" points="744.931,-393.956 746.837,-383.534 738.848,-390.493 744.931,-393.956"/>
</g>
<!-- Node22&#45;&gt;Node14 -->
<g id="edge64" class="edge"><title>Node22&#45;&gt;Node14</title>
<path fill="none" stroke="midnightblue" d="M723.349,-362.412C692.715,-351.411 644.622,-334.14 610.854,-322.013"/>
<polygon fill="midnightblue" stroke="midnightblue" points="611.898,-318.669 601.304,-318.584 609.532,-325.257 611.898,-318.669"/>
</g>
<!-- Node24&#45;&gt;Node3 -->
<g id="edge70" class="edge"><title>Node24&#45;&gt;Node3</title>
<path fill="none" stroke="midnightblue" d="M357.737,-492.386C345.651,-484.167 330.747,-471.57 323.833,-456 317.339,-441.377 317.139,-434.533 323.833,-420 361.021,-339.259 394.484,-325.839 475.833,-290 530.94,-265.721 697.814,-252.332 791.752,-246.533"/>
<polygon fill="midnightblue" stroke="midnightblue" points="792.229,-250.011 801.999,-245.913 791.806,-243.024 792.229,-250.011"/>
</g>
<!-- Node24&#45;&gt;Node14 -->
<g id="edge72" class="edge"><title>Node24&#45;&gt;Node14</title>
<path fill="none" stroke="midnightblue" d="M361.654,-492.408C351.484,-483.861 338.599,-470.845 332.833,-456 327.04,-441.086 324.249,-433.502 332.833,-420 355.235,-384.762 466.871,-342.933 529.333,-321.757"/>
<polygon fill="midnightblue" stroke="midnightblue" points="530.548,-325.04 538.914,-318.539 528.32,-318.405 530.548,-325.04"/>
</g>
<!-- Node25 -->
<g id="node62" class="node"><title>Node25</title>
<a xlink:href="MojRbTreeBase_8h.htm" target="_top" xlink:title="core/internal/MojRbTreeBase.h">
<polygon fill="white" stroke="black" points="341.833,-427.5 341.833,-448.5 505.833,-448.5 505.833,-427.5 341.833,-427.5"/>
<text text-anchor="middle" x="423.833" y="-435.5" font-family="Helvetica,sans-Serif" font-size="10.00">core/internal/MojRbTreeBase.h</text>
</a>
</g>
<!-- Node24&#45;&gt;Node25 -->
<g id="edge74" class="edge"><title>Node24&#45;&gt;Node25</title>
<path fill="none" stroke="midnightblue" d="M383.759,-492.267C390.889,-482.612 401.521,-468.215 410.042,-456.675"/>
<polygon fill="midnightblue" stroke="midnightblue" points="412.929,-458.657 416.054,-448.534 407.298,-454.499 412.929,-458.657"/>
</g>
<!-- Node25&#45;&gt;Node3 -->
<g id="edge76" class="edge"><title>Node25&#45;&gt;Node3</title>
<path fill="none" stroke="midnightblue" d="M427.007,-427.151C435.838,-399.085 463.552,-323.925 515.833,-290 560.159,-261.237 705.681,-249.799 791.961,-245.465"/>
<polygon fill="midnightblue" stroke="midnightblue" points="792.36,-248.95 802.179,-244.972 792.021,-241.959 792.36,-248.95"/>
</g>
<!-- Node25&#45;&gt;Node17 -->
<g id="edge78" class="edge"><title>Node25&#45;&gt;Node17</title>
<path fill="none" stroke="midnightblue" d="M505.988,-430.03C642.312,-416.804 912.189,-390.622 1032.94,-378.907"/>
<polygon fill="midnightblue" stroke="midnightblue" points="1033.5,-382.37 1043.11,-377.921 1032.82,-375.403 1033.5,-382.37"/>
</g>
<!-- Node26&#45;&gt;Node3 -->
<g id="edge82" class="edge"><title>Node26&#45;&gt;Node3</title>
<path fill="none" stroke="midnightblue" d="M763.861,-629.523C923.948,-617.065 1437.83,-571.723 1437.83,-503 1437.83,-503 1437.83,-503 1437.83,-373 1437.83,-332.612 1433.73,-313.431 1400.83,-290 1362.76,-262.882 1059.94,-249.625 923.766,-244.988"/>
<polygon fill="midnightblue" stroke="midnightblue" points="923.582,-241.48 913.47,-244.643 923.348,-248.476 923.582,-241.48"/>
</g>
<!-- Node26&#45;&gt;Node14 -->
<g id="edge86" class="edge"><title>Node26&#45;&gt;Node14</title>
<path fill="none" stroke="midnightblue" d="M697.576,-622.43C680.991,-613.184 656.529,-599.205 635.833,-586 632.89,-584.122 534.446,-517.096 532.833,-514 520.529,-490.387 540.531,-481.605 547.833,-456 560.499,-411.581 567.137,-357.633 570.018,-328.707"/>
<polygon fill="midnightblue" stroke="midnightblue" points="573.518,-328.876 570.972,-318.591 566.548,-328.219 573.518,-328.876"/>
</g>
<!-- Node26&#45;&gt;Node17 -->
<g id="edge84" class="edge"><title>Node26&#45;&gt;Node17</title>
<path fill="none" stroke="midnightblue" d="M763.844,-626.162C860.457,-611.046 1075.88,-571.514 1118.83,-514 1124.68,-506.166 1119.84,-501.725 1118.83,-492 1116.88,-473.195 1105.42,-422.449 1098.71,-393.664"/>
<polygon fill="midnightblue" stroke="midnightblue" points="1102.1,-392.757 1096.41,-383.82 1095.28,-394.355 1102.1,-392.757"/>
</g>
<!-- Node26&#45;&gt;Node20 -->
<g id="edge88" class="edge"><title>Node26&#45;&gt;Node20</title>
<path fill="none" stroke="midnightblue" d="M706.604,-622.362C685.27,-600.174 635.816,-548.743 609.327,-521.194"/>
<polygon fill="midnightblue" stroke="midnightblue" points="611.657,-518.568 602.203,-513.785 606.612,-523.42 611.657,-518.568"/>
</g>
<!-- Node27 -->
<g id="node72" class="node"><title>Node27</title>
<a xlink:href="MojVector_8h.htm" target="_top" xlink:title="core/MojVector.h">
<polygon fill="white" stroke="black" points="716.333,-557.5 716.333,-578.5 813.333,-578.5 813.333,-557.5 716.333,-557.5"/>
<text text-anchor="middle" x="764.833" y="-565.5" font-family="Helvetica,sans-Serif" font-size="10.00">core/MojVector.h</text>
</a>
</g>
<!-- Node26&#45;&gt;Node27 -->
<g id="edge90" class="edge"><title>Node26&#45;&gt;Node27</title>
<path fill="none" stroke="midnightblue" d="M724.759,-622.267C731.889,-612.612 742.521,-598.215 751.042,-586.675"/>
<polygon fill="midnightblue" stroke="midnightblue" points="753.929,-588.657 757.054,-578.534 748.298,-584.499 753.929,-588.657"/>
</g>
<!-- Node27&#45;&gt;Node3 -->
<g id="edge92" class="edge"><title>Node27&#45;&gt;Node3</title>
<path fill="none" stroke="midnightblue" d="M770.17,-557.139C777.456,-542.355 790.967,-515.093 802.833,-492 802.93,-491.811 859.755,-384.197 859.833,-384 869.687,-359.141 872.245,-352.499 875.833,-326 877.98,-310.145 878.742,-305.733 875.833,-290 874.116,-280.715 870.641,-270.894 867.198,-262.644"/>
<polygon fill="midnightblue" stroke="midnightblue" points="870.395,-261.219 863.135,-253.502 863.998,-264.062 870.395,-261.219"/>
</g>
<!-- Node27&#45;&gt;Node14 -->
<g id="edge94" class="edge"><title>Node27&#45;&gt;Node14</title>
<path fill="none" stroke="midnightblue" d="M754.533,-557.329C736.028,-537.925 696.336,-495.236 666.833,-456 633.696,-411.931 600.037,-356.39 583.081,-327.491"/>
<polygon fill="midnightblue" stroke="midnightblue" points="586.056,-325.644 577.996,-318.767 580.008,-329.169 586.056,-325.644"/>
</g>
<!-- Node27&#45;&gt;Node21 -->
<g id="edge108" class="edge"><title>Node27&#45;&gt;Node21</title>
<path fill="none" stroke="midnightblue" d="M760.823,-557.362C752.675,-535.746 734.065,-486.372 723.51,-458.369"/>
<polygon fill="midnightblue" stroke="midnightblue" points="726.7,-456.908 719.898,-448.785 720.15,-459.377 726.7,-456.908"/>
</g>
<!-- Node28 -->
<g id="node76" class="node"><title>Node28</title>
<a xlink:href="MojRefCount_8h.htm" target="_top" xlink:title="core/MojRefCount.h">
<polygon fill="white" stroke="black" points="999.833,-492.5 999.833,-513.5 1109.83,-513.5 1109.83,-492.5 999.833,-492.5"/>
<text text-anchor="middle" x="1054.83" y="-500.5" font-family="Helvetica,sans-Serif" font-size="10.00">core/MojRefCount.h</text>
</a>
</g>
<!-- Node27&#45;&gt;Node28 -->
<g id="edge96" class="edge"><title>Node27&#45;&gt;Node28</title>
<path fill="none" stroke="midnightblue" d="M811.749,-557.484C862.606,-546.085 943.769,-527.894 998.154,-515.704"/>
<polygon fill="midnightblue" stroke="midnightblue" points="998.992,-519.103 1007.98,-513.501 997.461,-512.272 998.992,-519.103"/>
</g>
<!-- Node30 -->
<g id="node85" class="node"><title>Node30</title>
<a xlink:href="MojVectorInternal_8h.htm" target="_top" xlink:title="core/internal/MojVectorInternal.h">
<polygon fill="white" stroke="black" points="811.333,-492.5 811.333,-513.5 982.333,-513.5 982.333,-492.5 811.333,-492.5"/>
<text text-anchor="middle" x="896.833" y="-500.5" font-family="Helvetica,sans-Serif" font-size="10.00">core/internal/MojVectorInternal.h</text>
</a>
</g>
<!-- Node27&#45;&gt;Node30 -->
<g id="edge110" class="edge"><title>Node27&#45;&gt;Node30</title>
<path fill="none" stroke="midnightblue" d="M786.335,-557.412C808.004,-546.741 841.653,-530.172 866.128,-518.12"/>
<polygon fill="midnightblue" stroke="midnightblue" points="867.915,-521.141 875.34,-513.584 864.823,-514.861 867.915,-521.141"/>
</g>
<!-- Node28&#45;&gt;Node3 -->
<g id="edge98" class="edge"><title>Node28&#45;&gt;Node3</title>
<path fill="none" stroke="midnightblue" d="M1048.72,-492.158C1030.17,-459.688 971.936,-361.081 909.833,-290 900.575,-279.404 889.072,-268.792 879.241,-260.34"/>
<polygon fill="midnightblue" stroke="midnightblue" points="881.367,-257.555 871.462,-253.795 876.861,-262.911 881.367,-257.555"/>
</g>
<!-- Node28&#45;&gt;Node17 -->
<g id="edge102" class="edge"><title>Node28&#45;&gt;Node17</title>
<path fill="none" stroke="midnightblue" d="M1058.02,-492.362C1064.51,-470.746 1079.32,-421.372 1087.72,-393.369"/>
<polygon fill="midnightblue" stroke="midnightblue" points="1091.08,-394.369 1090.6,-383.785 1084.37,-392.358 1091.08,-394.369"/>
</g>
<!-- Node28&#45;&gt;Node18 -->
<g id="edge100" class="edge"><title>Node28&#45;&gt;Node18</title>
<path fill="none" stroke="midnightblue" d="M1109.87,-500.394C1175.62,-496.019 1279.9,-484.651 1304.83,-456 1335.8,-420.416 1325.99,-359.87 1317.94,-328.382"/>
<polygon fill="midnightblue" stroke="midnightblue" points="1321.26,-327.258 1315.23,-318.545 1314.51,-329.115 1321.26,-327.258"/>
</g>
<!-- Node29 -->
<g id="node81" class="node"><title>Node29</title>
<a xlink:href="MojRefCountInternal_8h.htm" target="_top" xlink:title="core/internal/MojRefCount\lInternal.h">
<polygon fill="white" stroke="black" points="849.833,-421 849.833,-455 989.833,-455 989.833,-421 849.833,-421"/>
<text text-anchor="start" x="857.833" y="-442" font-family="Helvetica,sans-Serif" font-size="10.00">core/internal/MojRefCount</text>
<text text-anchor="middle" x="919.833" y="-429" font-family="Helvetica,sans-Serif" font-size="10.00">Internal.h</text>
</a>
</g>
<!-- Node28&#45;&gt;Node29 -->
<g id="edge104" class="edge"><title>Node28&#45;&gt;Node29</title>
<path fill="none" stroke="midnightblue" d="M1032.84,-492.412C1014.39,-483.527 987.444,-470.554 964.492,-459.503"/>
<polygon fill="midnightblue" stroke="midnightblue" points="965.794,-456.245 955.266,-455.06 962.758,-462.552 965.794,-456.245"/>
</g>
<!-- Node29&#45;&gt;Node22 -->
<g id="edge106" class="edge"><title>Node29&#45;&gt;Node22</title>
<path fill="none" stroke="midnightblue" d="M875.956,-420.922C849.167,-410.495 815.295,-397.312 789.862,-387.413"/>
<polygon fill="midnightblue" stroke="midnightblue" points="790.805,-384.024 780.217,-383.658 788.266,-390.547 790.805,-384.024"/>
</g>
<!-- Node31&#45;&gt;Node3 -->
<g id="edge114" class="edge"><title>Node31&#45;&gt;Node3</title>
<path fill="none" stroke="midnightblue" d="M1312.16,-492.432C1327.2,-484.594 1345.55,-472.421 1355.83,-456 1395.26,-393.013 1425.95,-344.869 1375.83,-290 1345.9,-257.225 1056.36,-247.07 923.666,-244.123"/>
<polygon fill="midnightblue" stroke="midnightblue" points="923.695,-240.623 913.622,-243.907 923.544,-247.621 923.695,-240.623"/>
</g>
<!-- Node31&#45;&gt;Node18 -->
<g id="edge116" class="edge"><title>Node31&#45;&gt;Node18</title>
<path fill="none" stroke="midnightblue" d="M1305.25,-492.225C1316.88,-483.93 1331.21,-471.309 1337.83,-456 1354.42,-417.654 1347.13,-402.731 1337.83,-362 1335.09,-349.979 1329.31,-337.516 1323.9,-327.597"/>
<polygon fill="midnightblue" stroke="midnightblue" points="1326.76,-325.551 1318.74,-318.635 1320.7,-329.047 1326.76,-325.551"/>
</g>
<!-- Node32 -->
<g id="node91" class="node"><title>Node32</title>
<a xlink:href="MojThreadInternal_8h.htm" target="_top" xlink:title="core/internal/MojThreadInternal.h">
<polygon fill="white" stroke="black" points="1121.33,-427.5 1121.33,-448.5 1296.33,-448.5 1296.33,-427.5 1121.33,-427.5"/>
<text text-anchor="middle" x="1208.83" y="-435.5" font-family="Helvetica,sans-Serif" font-size="10.00">core/internal/MojThreadInternal.h</text>
</a>
</g>
<!-- Node31&#45;&gt;Node32 -->
<g id="edge118" class="edge"><title>Node31&#45;&gt;Node32</title>
<path fill="none" stroke="midnightblue" d="M1274.79,-492.267C1262.48,-482.139 1243.83,-466.792 1229.49,-455"/>
<polygon fill="midnightblue" stroke="midnightblue" points="1231.58,-452.185 1221.64,-448.534 1227.13,-457.59 1231.58,-452.185"/>
</g>
<!-- Node32&#45;&gt;Node17 -->
<g id="edge120" class="edge"><title>Node32&#45;&gt;Node17</title>
<path fill="none" stroke="midnightblue" d="M1190.1,-427.412C1171.47,-416.883 1142.68,-400.611 1121.44,-388.602"/>
<polygon fill="midnightblue" stroke="midnightblue" points="1122.99,-385.457 1112.56,-383.584 1119.54,-391.551 1122.99,-385.457"/>
</g>
</g>
</svg>
