<?xml version="1.0" encoding="UTF-8" standalone="no"?>
<!DOCTYPE svg PUBLIC "-//W3C//DTD SVG 1.1//EN"
 "http://www.w3.org/Graphics/SVG/1.1/DTD/svg11.dtd">
<!-- Generated by graphviz version 2.26.3 (20100126.1600)
 -->
<!-- Title: MojDbPutHandler.cpp Pages: 1 -->
<svg width="2256pt" height="1044pt"
 viewBox="0.00 0.00 2256.02 1044.00" xmlns="http://www.w3.org/2000/svg" xmlns:xlink="http://www.w3.org/1999/xlink">
<g id="graph1" class="graph" transform="scale(1 1) rotate(0) translate(4 1040)">
<title>MojDbPutHandler.cpp</title>
<polygon fill="white" stroke="white" points="-4,5 -4,-1040 2253.02,-1040 2253.02,5 -4,5"/>
<!-- Node1 -->
<g id="node1" class="node"><title>Node1</title>
<polygon fill="#bfbfbf" stroke="black" points="687.523,-1014.5 687.523,-1035.5 806.523,-1035.5 806.523,-1014.5 687.523,-1014.5"/>
<text text-anchor="middle" x="747.023" y="-1022.5" font-family="Helvetica,sans-Serif" font-size="10.00">MojDbPutHandler.cpp</text>
</g>
<!-- Node2 -->
<g id="node3" class="node"><title>Node2</title>
<a xlink:href="MojDbPutHandler_8h.htm" target="_top" xlink:title="db/MojDbPutHandler.h">
<polygon fill="white" stroke="black" points="568.023,-492.5 568.023,-513.5 690.023,-513.5 690.023,-492.5 568.023,-492.5"/>
<text text-anchor="middle" x="629.023" y="-500.5" font-family="Helvetica,sans-Serif" font-size="10.00">db/MojDbPutHandler.h</text>
</a>
</g>
<!-- Node1&#45;&gt;Node2 -->
<g id="edge2" class="edge"><title>Node1&#45;&gt;Node2</title>
<path fill="none" stroke="midnightblue" d="M687.4,-1018.21C548.683,-1001.6 216.023,-956.8 216.023,-909 216.023,-909 216.023,-909 216.023,-735 216.023,-633.735 263.059,-603.524 349.023,-550 353.481,-547.224 476.145,-527.307 557.622,-514.306"/>
<polygon fill="midnightblue" stroke="midnightblue" points="558.513,-517.708 567.837,-512.678 557.411,-510.796 558.513,-517.708"/>
</g>
<!-- Node10 -->
<g id="node20" class="node"><title>Node10</title>
<a xlink:href="MojDb_8h.htm" target="_top" xlink:title="db/MojDb.h">
<polygon fill="white" stroke="black" points="1243.52,-956.5 1243.52,-977.5 1312.52,-977.5 1312.52,-956.5 1243.52,-956.5"/>
<text text-anchor="middle" x="1278.02" y="-964.5" font-family="Helvetica,sans-Serif" font-size="10.00">db/MojDb.h</text>
</a>
</g>
<!-- Node1&#45;&gt;Node10 -->
<g id="edge20" class="edge"><title>Node1&#45;&gt;Node10</title>
<path fill="none" stroke="midnightblue" d="M806.647,-1018.49C913.976,-1006.76 1137.41,-982.359 1233.03,-971.915"/>
<polygon fill="midnightblue" stroke="midnightblue" points="1233.67,-975.366 1243.23,-970.8 1232.91,-968.407 1233.67,-975.366"/>
</g>
<!-- Node3 -->
<g id="node5" class="node"><title>Node3</title>
<a xlink:href="MojDbDefs_8h.htm" target="_top" xlink:title="db/MojDbDefs.h">
<polygon fill="white" stroke="black" points="1102.52,-427.5 1102.52,-448.5 1193.52,-448.5 1193.52,-427.5 1102.52,-427.5"/>
<text text-anchor="middle" x="1148.02" y="-435.5" font-family="Helvetica,sans-Serif" font-size="10.00">db/MojDbDefs.h</text>
</a>
</g>
<!-- Node2&#45;&gt;Node3 -->
<g id="edge4" class="edge"><title>Node2&#45;&gt;Node3</title>
<path fill="none" stroke="midnightblue" d="M690.085,-495.353C791.793,-482.615 994.378,-457.243 1092.37,-444.97"/>
<polygon fill="midnightblue" stroke="midnightblue" points="1092.89,-448.433 1102.38,-443.717 1092.02,-441.487 1092.89,-448.433"/>
</g>
<!-- Node9 -->
<g id="node17" class="node"><title>Node9</title>
<a xlink:href="MojComp_8h.htm" target="_top" xlink:title="core/MojComp.h">
<polygon fill="white" stroke="black" points="724.023,-246.5 724.023,-267.5 818.023,-267.5 818.023,-246.5 724.023,-246.5"/>
<text text-anchor="middle" x="771.023" y="-254.5" font-family="Helvetica,sans-Serif" font-size="10.00">core/MojComp.h</text>
</a>
</g>
<!-- Node2&#45;&gt;Node9 -->
<g id="edge16" class="edge"><title>Node2&#45;&gt;Node9</title>
<path fill="none" stroke="midnightblue" d="M627.562,-492.402C624.686,-467.414 620.745,-403.778 648.023,-362 664.818,-336.279 683.243,-345.445 707.023,-326 725.633,-310.784 743.991,-290.267 756.24,-275.569"/>
<polygon fill="midnightblue" stroke="midnightblue" points="759.078,-277.627 762.702,-267.671 753.66,-273.194 759.078,-277.627"/>
</g>
<!-- Node4 -->
<g id="node7" class="node"><title>Node4</title>
<a xlink:href="MojCoreDefs_8h.htm" target="_top" xlink:title="core/MojCoreDefs.h">
<polygon fill="white" stroke="black" points="1156.52,-58.5 1156.52,-79.5 1267.52,-79.5 1267.52,-58.5 1156.52,-58.5"/>
<text text-anchor="middle" x="1212.02" y="-66.5" font-family="Helvetica,sans-Serif" font-size="10.00">core/MojCoreDefs.h</text>
</a>
</g>
<!-- Node3&#45;&gt;Node4 -->
<g id="edge6" class="edge"><title>Node3&#45;&gt;Node4</title>
<path fill="none" stroke="midnightblue" d="M1145.81,-427.338C1137.62,-385.332 1112.1,-228.096 1163.02,-116 1168.38,-104.213 1178.16,-93.889 1187.58,-85.9422"/>
<polygon fill="midnightblue" stroke="midnightblue" points="1189.95,-88.5284 1195.65,-79.5936 1185.62,-83.0274 1189.95,-88.5284"/>
</g>
<!-- Node5 -->
<g id="node9" class="node"><title>Node5</title>
<a xlink:href="MojConfig_8h.htm" target="_top" xlink:title="core/internal/MojConfig.h">
<polygon fill="white" stroke="black" points="937.523,-0.5 937.523,-21.5 1072.52,-21.5 1072.52,-0.5 937.523,-0.5"/>
<text text-anchor="middle" x="1005.02" y="-8.5" font-family="Helvetica,sans-Serif" font-size="10.00">core/internal/MojConfig.h</text>
</a>
</g>
<!-- Node4&#45;&gt;Node5 -->
<g id="edge8" class="edge"><title>Node4&#45;&gt;Node5</title>
<path fill="none" stroke="midnightblue" d="M1174.54,-58.4966C1140.35,-48.9183 1089.68,-34.7196 1052.64,-24.3418"/>
<polygon fill="midnightblue" stroke="midnightblue" points="1053.15,-20.8509 1042.58,-21.5231 1051.26,-27.5914 1053.15,-20.8509"/>
</g>
<!-- Node6 -->
<g id="node11" class="node"><title>Node6</title>
<a xlink:href="MojNew_8h.htm" target="_top" xlink:title="core/internal/MojNew.h">
<polygon fill="white" stroke="red" points="1089.52,-0.5 1089.52,-21.5 1214.52,-21.5 1214.52,-0.5 1089.52,-0.5"/>
<text text-anchor="middle" x="1152.02" y="-8.5" font-family="Helvetica,sans-Serif" font-size="10.00">core/internal/MojNew.h</text>
</a>
</g>
<!-- Node4&#45;&gt;Node6 -->
<g id="edge10" class="edge"><title>Node4&#45;&gt;Node6</title>
<path fill="none" stroke="midnightblue" d="M1201.02,-58.3619C1192.48,-50.1043 1180.44,-38.4725 1170.44,-28.8029"/>
<polygon fill="midnightblue" stroke="midnightblue" points="1172.58,-26.0044 1162.96,-21.5707 1167.72,-31.0374 1172.58,-26.0044"/>
</g>
<!-- Node7 -->
<g id="node13" class="node"><title>Node7</title>
<a xlink:href="MojErr_8h.htm" target="_top" xlink:title="core/MojErr.h">
<polygon fill="white" stroke="red" points="1232.02,-0.5 1232.02,-21.5 1312.02,-21.5 1312.02,-0.5 1232.02,-0.5"/>
<text text-anchor="middle" x="1272.02" y="-8.5" font-family="Helvetica,sans-Serif" font-size="10.00">core/MojErr.h</text>
</a>
</g>
<!-- Node4&#45;&gt;Node7 -->
<g id="edge12" class="edge"><title>Node4&#45;&gt;Node7</title>
<path fill="none" stroke="midnightblue" d="M1223.03,-58.3619C1231.57,-50.1043 1243.6,-38.4725 1253.61,-28.8029"/>
<polygon fill="midnightblue" stroke="midnightblue" points="1256.33,-31.0374 1261.09,-21.5707 1251.47,-26.0044 1256.33,-31.0374"/>
</g>
<!-- Node8 -->
<g id="node15" class="node"><title>Node8</title>
<a xlink:href="MojOs_8h.htm" target="_top" xlink:title="core/MojOs.h">
<polygon fill="white" stroke="red" points="1330.02,-0.5 1330.02,-21.5 1410.02,-21.5 1410.02,-0.5 1330.02,-0.5"/>
<text text-anchor="middle" x="1370.02" y="-8.5" font-family="Helvetica,sans-Serif" font-size="10.00">core/MojOs.h</text>
</a>
</g>
<!-- Node4&#45;&gt;Node8 -->
<g id="edge14" class="edge"><title>Node4&#45;&gt;Node8</title>
<path fill="none" stroke="midnightblue" d="M1240.64,-58.4966C1266.17,-49.1229 1303.76,-35.3242 1331.85,-25.0122"/>
<polygon fill="midnightblue" stroke="midnightblue" points="1333.18,-28.2548 1341.36,-21.5231 1330.76,-21.6835 1333.18,-28.2548"/>
</g>
<!-- Node9&#45;&gt;Node4 -->
<g id="edge18" class="edge"><title>Node9&#45;&gt;Node4</title>
<path fill="none" stroke="midnightblue" d="M772.111,-246.344C775.469,-219.475 788.258,-148.774 832.023,-116 856.619,-97.5811 1043.92,-81.2505 1146.06,-73.6001"/>
<polygon fill="midnightblue" stroke="midnightblue" points="1146.56,-77.0729 1156.27,-72.8429 1146.04,-70.092 1146.56,-77.0729"/>
</g>
<!-- Node10&#45;&gt;Node3 -->
<g id="edge22" class="edge"><title>Node10&#45;&gt;Node3</title>
<path fill="none" stroke="midnightblue" d="M1271.92,-956.191C1261.18,-936.127 1240.02,-891.477 1240.02,-851 1240.02,-851 1240.02,-851 1240.02,-561 1240.02,-515.522 1199.19,-476.05 1171.93,-454.765"/>
<polygon fill="midnightblue" stroke="midnightblue" points="1173.72,-451.73 1163.63,-448.509 1169.51,-457.321 1173.72,-451.73"/>
</g>
<!-- Node11 -->
<g id="node23" class="node"><title>Node11</title>
<a xlink:href="MojDbCursor_8h.htm" target="_top" xlink:title="db/MojDbCursor.h">
<polygon fill="white" stroke="black" points="977.523,-782.5 977.523,-803.5 1078.52,-803.5 1078.52,-782.5 977.523,-782.5"/>
<text text-anchor="middle" x="1028.02" y="-790.5" font-family="Helvetica,sans-Serif" font-size="10.00">db/MojDbCursor.h</text>
</a>
</g>
<!-- Node10&#45;&gt;Node11 -->
<g id="edge24" class="edge"><title>Node10&#45;&gt;Node11</title>
<path fill="none" stroke="midnightblue" d="M1243.28,-962.151C1211.1,-956.335 1163.07,-944.169 1128.02,-920 1086.48,-891.355 1053.97,-840.299 1038.29,-812.444"/>
<polygon fill="midnightblue" stroke="midnightblue" points="1041.33,-810.719 1033.46,-803.633 1035.2,-814.084 1041.33,-810.719"/>
</g>
<!-- Node12 -->
<g id="node26" class="node"><title>Node12</title>
<a xlink:href="MojDbStorageEngine_8h.htm" target="_top" xlink:title="db/MojDbStorageEngine.h">
<polygon fill="white" stroke="black" points="870.023,-724.5 870.023,-745.5 1010.02,-745.5 1010.02,-724.5 870.023,-724.5"/>
<text text-anchor="middle" x="940.023" y="-732.5" font-family="Helvetica,sans-Serif" font-size="10.00">db/MojDbStorageEngine.h</text>
</a>
</g>
<!-- Node10&#45;&gt;Node12 -->
<g id="edge266" class="edge"><title>Node10&#45;&gt;Node12</title>
<path fill="none" stroke="midnightblue" d="M1243.27,-962.809C1205.85,-957.202 1145.45,-944.922 1099.02,-920 1030.8,-883.375 1014.02,-867.02 969.023,-804 958.434,-789.168 950.743,-769.878 945.953,-755.466"/>
<polygon fill="midnightblue" stroke="midnightblue" points="949.179,-754.052 942.856,-745.551 942.497,-756.139 949.179,-754.052"/>
</g>
<!-- Node13 -->
<g id="node29" class="node"><title>Node13</title>
<a xlink:href="MojDbWatcher_8h.htm" target="_top" xlink:title="db/MojDbWatcher.h">
<polygon fill="white" stroke="black" points="1065.52,-666.5 1065.52,-687.5 1174.52,-687.5 1174.52,-666.5 1065.52,-666.5"/>
<text text-anchor="middle" x="1120.02" y="-674.5" font-family="Helvetica,sans-Serif" font-size="10.00">db/MojDbWatcher.h</text>
</a>
</g>
<!-- Node10&#45;&gt;Node13 -->
<g id="edge268" class="edge"><title>Node10&#45;&gt;Node13</title>
<path fill="none" stroke="midnightblue" d="M1247.16,-956.37C1207.04,-940.354 1142.02,-905.929 1142.02,-851 1142.02,-851 1142.02,-851 1142.02,-793 1142.02,-759.025 1132.8,-720.417 1126.3,-697.418"/>
<polygon fill="midnightblue" stroke="midnightblue" points="1129.63,-696.356 1123.46,-687.746 1122.92,-698.327 1129.63,-696.356"/>
</g>
<!-- Node27 -->
<g id="node70" class="node"><title>Node27</title>
<a xlink:href="MojString_8h.htm" target="_top" xlink:title="core/MojString.h">
<polygon fill="white" stroke="black" points="1184.02,-362.5 1184.02,-383.5 1278.02,-383.5 1278.02,-362.5 1184.02,-362.5"/>
<text text-anchor="middle" x="1231.02" y="-370.5" font-family="Helvetica,sans-Serif" font-size="10.00">core/MojString.h</text>
</a>
</g>
<!-- Node10&#45;&gt;Node27 -->
<g id="edge280" class="edge"><title>Node10&#45;&gt;Node27</title>
<path fill="none" stroke="midnightblue" d="M1312.74,-963.589C1404.6,-953.609 1647.02,-920.672 1647.02,-851 1647.02,-851 1647.02,-851 1647.02,-793 1647.02,-659.078 1742.81,-598.05 1661.02,-492 1622.58,-442.146 1584.76,-472.58 1524.02,-456 1436.7,-432.16 1335.11,-403.081 1277.41,-386.436"/>
<polygon fill="midnightblue" stroke="midnightblue" points="1278.08,-382.987 1267.5,-383.576 1276.14,-389.712 1278.08,-382.987"/>
</g>
<!-- Node32 -->
<g id="node95" class="node"><title>Node32</title>
<a xlink:href="MojHashMap_8h.htm" target="_top" xlink:title="core/MojHashMap.h">
<polygon fill="white" stroke="black" points="1974.02,-492.5 1974.02,-513.5 2086.02,-513.5 2086.02,-492.5 1974.02,-492.5"/>
<text text-anchor="middle" x="2030.02" y="-500.5" font-family="Helvetica,sans-Serif" font-size="10.00">core/MojHashMap.h</text>
</a>
</g>
<!-- Node10&#45;&gt;Node32 -->
<g id="edge276" class="edge"><title>Node10&#45;&gt;Node32</title>
<path fill="none" stroke="midnightblue" d="M1312.81,-965.983C1400.8,-962.995 1639.22,-952.318 1835.02,-920 1940.74,-902.552 1982.79,-925.592 2069.02,-862 2136.24,-812.43 2102.02,-760.52 2102.02,-677 2102.02,-677 2102.02,-677 2102.02,-619 2102.02,-579.313 2071.22,-541.917 2049.91,-520.794"/>
<polygon fill="midnightblue" stroke="midnightblue" points="2052.21,-518.151 2042.56,-513.773 2047.38,-523.212 2052.21,-518.151"/>
</g>
<!-- Node35 -->
<g id="node110" class="node"><title>Node35</title>
<a xlink:href="MojSignal_8h.htm" target="_top" xlink:title="core/MojSignal.h">
<polygon fill="white" stroke="black" points="205.523,-492.5 205.523,-513.5 300.523,-513.5 300.523,-492.5 205.523,-492.5"/>
<text text-anchor="middle" x="253.023" y="-500.5" font-family="Helvetica,sans-Serif" font-size="10.00">core/MojSignal.h</text>
</a>
</g>
<!-- Node10&#45;&gt;Node35 -->
<g id="edge278" class="edge"><title>Node10&#45;&gt;Node35</title>
<path fill="none" stroke="midnightblue" d="M1243.29,-966.27C1087.34,-962.848 455.912,-947.403 372.023,-920 274.063,-888 178.023,-896.055 178.023,-793 178.023,-793 178.023,-793 178.023,-619 178.023,-578.846 210.107,-541.594 232.306,-520.626"/>
<polygon fill="midnightblue" stroke="midnightblue" points="234.918,-522.981 239.959,-513.662 230.207,-517.804 234.918,-522.981"/>
</g>
<!-- Node41 -->
<g id="node129" class="node"><title>Node41</title>
<a xlink:href="MojDbQuotaEngine_8h.htm" target="_top" xlink:title="db/MojDbQuotaEngine.h">
<polygon fill="white" stroke="black" points="357.523,-550.5 357.523,-571.5 488.523,-571.5 488.523,-550.5 357.523,-550.5"/>
<text text-anchor="middle" x="423.023" y="-558.5" font-family="Helvetica,sans-Serif" font-size="10.00">db/MojDbQuotaEngine.h</text>
</a>
</g>
<!-- Node10&#45;&gt;Node41 -->
<g id="edge264" class="edge"><title>Node10&#45;&gt;Node41</title>
<path fill="none" stroke="midnightblue" d="M1243.51,-966.645C1068.99,-964.403 292.023,-948.923 292.023,-851 292.023,-851 292.023,-851 292.023,-735 292.023,-697.913 368.942,-615.496 404.899,-578.996"/>
<polygon fill="midnightblue" stroke="midnightblue" points="407.739,-581.103 412.303,-571.541 402.773,-576.17 407.739,-581.103"/>
</g>
<!-- Node44 -->
<g id="node150" class="node"><title>Node44</title>
<a xlink:href="MojDbIdGenerator_8h.htm" target="_top" xlink:title="db/MojDbIdGenerator.h">
<polygon fill="white" stroke="black" points="1525.52,-492.5 1525.52,-513.5 1652.52,-513.5 1652.52,-492.5 1525.52,-492.5"/>
<text text-anchor="middle" x="1589.02" y="-500.5" font-family="Helvetica,sans-Serif" font-size="10.00">db/MojDbIdGenerator.h</text>
</a>
</g>
<!-- Node10&#45;&gt;Node44 -->
<g id="edge212" class="edge"><title>Node10&#45;&gt;Node44</title>
<path fill="none" stroke="midnightblue" d="M1312.68,-962.02C1395.68,-949.123 1599.02,-911.367 1599.02,-851 1599.02,-851 1599.02,-851 1599.02,-619 1599.02,-585.474 1594.83,-546.698 1591.87,-523.548"/>
<polygon fill="midnightblue" stroke="midnightblue" points="1595.33,-522.983 1590.54,-513.53 1588.39,-523.903 1595.33,-522.983"/>
</g>
<!-- Node45 -->
<g id="node154" class="node"><title>Node45</title>
<a xlink:href="MojDbKindEngine_8h.htm" target="_top" xlink:title="db/MojDbKindEngine.h">
<polygon fill="white" stroke="black" points="1703.52,-898.5 1703.52,-919.5 1826.52,-919.5 1826.52,-898.5 1703.52,-898.5"/>
<text text-anchor="middle" x="1765.02" y="-906.5" font-family="Helvetica,sans-Serif" font-size="10.00">db/MojDbKindEngine.h</text>
</a>
</g>
<!-- Node10&#45;&gt;Node45 -->
<g id="edge218" class="edge"><title>Node10&#45;&gt;Node45</title>
<path fill="none" stroke="midnightblue" d="M1312.66,-962.875C1391.81,-953.448 1587.29,-930.167 1693.53,-917.515"/>
<polygon fill="midnightblue" stroke="midnightblue" points="1694.01,-920.983 1703.52,-916.325 1693.18,-914.032 1694.01,-920.983"/>
</g>
<!-- Node48 -->
<g id="node173" class="node"><title>Node48</title>
<a xlink:href="MojDbPermissionEngine_8h.htm" target="_top" xlink:title="db/MojDbPermissionEngine.h">
<polygon fill="white" stroke="black" points="1379.02,-550.5 1379.02,-571.5 1533.02,-571.5 1533.02,-550.5 1379.02,-550.5"/>
<text text-anchor="middle" x="1456.02" y="-558.5" font-family="Helvetica,sans-Serif" font-size="10.00">db/MojDbPermissionEngine.h</text>
</a>
</g>
<!-- Node10&#45;&gt;Node48 -->
<g id="edge250" class="edge"><title>Node10&#45;&gt;Node48</title>
<path fill="none" stroke="midnightblue" d="M1293.66,-956.302C1305.17,-947.7 1320.43,-934.661 1330.02,-920 1377.52,-847.446 1392.02,-821.717 1392.02,-735 1392.02,-735 1392.02,-735 1392.02,-677 1392.02,-638.453 1419.45,-600.662 1438.4,-579.157"/>
<polygon fill="midnightblue" stroke="midnightblue" points="1441.01,-581.489 1445.17,-571.745 1435.84,-576.768 1441.01,-581.489"/>
</g>
<!-- Node49 -->
<g id="node184" class="node"><title>Node49</title>
<a xlink:href="MojDbReq_8h.htm" target="_top" xlink:title="db/MojDbReq.h">
<polygon fill="white" stroke="black" points="1267.52,-492.5 1267.52,-513.5 1356.52,-513.5 1356.52,-492.5 1267.52,-492.5"/>
<text text-anchor="middle" x="1312.02" y="-500.5" font-family="Helvetica,sans-Serif" font-size="10.00">db/MojDbReq.h</text>
</a>
</g>
<!-- Node10&#45;&gt;Node49 -->
<g id="edge270" class="edge"><title>Node10&#45;&gt;Node49</title>
<path fill="none" stroke="midnightblue" d="M1284.13,-956.191C1294.87,-936.127 1316.02,-891.477 1316.02,-851 1316.02,-851 1316.02,-851 1316.02,-735 1316.02,-657.104 1313.74,-564.519 1312.62,-523.878"/>
<polygon fill="midnightblue" stroke="midnightblue" points="1316.12,-523.534 1312.34,-513.636 1309.12,-523.73 1316.12,-523.534"/>
</g>
<!-- Node50 -->
<g id="node191" class="node"><title>Node50</title>
<a xlink:href="MojFile_8h.htm" target="_top" xlink:title="core/MojFile.h">
<polygon fill="white" stroke="black" points="2165.52,-840.5 2165.52,-861.5 2248.52,-861.5 2248.52,-840.5 2165.52,-840.5"/>
<text text-anchor="middle" x="2207.02" y="-848.5" font-family="Helvetica,sans-Serif" font-size="10.00">core/MojFile.h</text>
</a>
</g>
<!-- Node10&#45;&gt;Node50 -->
<g id="edge282" class="edge"><title>Node10&#45;&gt;Node50</title>
<path fill="none" stroke="midnightblue" d="M1312.54,-966.804C1465.32,-965.713 2076.46,-958.932 2152.02,-920 2172.55,-909.425 2187.97,-887.385 2197.18,-871.046"/>
<polygon fill="midnightblue" stroke="midnightblue" points="2200.51,-872.236 2202.11,-861.762 2194.33,-868.956 2200.51,-872.236"/>
</g>
<!-- Node11&#45;&gt;Node3 -->
<g id="edge26" class="edge"><title>Node11&#45;&gt;Node3</title>
<path fill="none" stroke="midnightblue" d="M1077.42,-782.416C1128.86,-768.15 1202.02,-737.268 1202.02,-677 1202.02,-677 1202.02,-677 1202.02,-561 1202.02,-521.264 1178.1,-479.936 1162.1,-456.737"/>
<polygon fill="midnightblue" stroke="midnightblue" points="1164.88,-454.608 1156.22,-448.503 1159.19,-458.676 1164.88,-454.608"/>
</g>
<!-- Node11&#45;&gt;Node12 -->
<g id="edge28" class="edge"><title>Node11&#45;&gt;Node12</title>
<path fill="none" stroke="midnightblue" d="M1011.88,-782.362C998.61,-773.614 979.591,-761.079 964.453,-751.101"/>
<polygon fill="midnightblue" stroke="midnightblue" points="966.337,-748.151 956.062,-745.571 962.485,-753.996 966.337,-748.151"/>
</g>
<!-- Node25 -->
<g id="node66" class="node"><title>Node25</title>
<a xlink:href="MojNoCopy_8h.htm" target="_top" xlink:title="core/MojNoCopy.h">
<polygon fill="white" stroke="black" points="664.023,-123.5 664.023,-144.5 768.023,-144.5 768.023,-123.5 664.023,-123.5"/>
<text text-anchor="middle" x="716.023" y="-131.5" font-family="Helvetica,sans-Serif" font-size="10.00">core/MojNoCopy.h</text>
</a>
</g>
<!-- Node11&#45;&gt;Node25 -->
<g id="edge210" class="edge"><title>Node11&#45;&gt;Node25</title>
<path fill="none" stroke="midnightblue" d="M977.311,-790.519C863.993,-783.802 582.701,-760.574 360.023,-688 273.405,-659.77 236.802,-650.765 191.023,-572 156.333,-512.313 118.897,-476.177 159.023,-420 187.698,-379.856 218.933,-404.015 264.023,-384 433.111,-308.944 623.205,-192.508 690.646,-150.124"/>
<polygon fill="midnightblue" stroke="midnightblue" points="692.741,-152.941 699.333,-144.647 689.008,-147.02 692.741,-152.941"/>
</g>
<!-- Node42 -->
<g id="node140" class="node"><title>Node42</title>
<a xlink:href="MojDbQueryFilter_8h.htm" target="_top" xlink:title="db/MojDbQueryFilter.h">
<polygon fill="white" stroke="black" points="1015.52,-608.5 1015.52,-629.5 1136.52,-629.5 1136.52,-608.5 1015.52,-608.5"/>
<text text-anchor="middle" x="1076.02" y="-616.5" font-family="Helvetica,sans-Serif" font-size="10.00">db/MojDbQueryFilter.h</text>
</a>
</g>
<!-- Node11&#45;&gt;Node42 -->
<g id="edge196" class="edge"><title>Node11&#45;&gt;Node42</title>
<path fill="none" stroke="midnightblue" d="M1029.87,-782.31C1033.8,-760.269 1043.74,-708.291 1057.02,-666 1059.87,-656.926 1063.7,-647.138 1067.18,-638.856"/>
<polygon fill="midnightblue" stroke="midnightblue" points="1070.4,-640.217 1071.15,-629.649 1063.97,-637.444 1070.4,-640.217"/>
</g>
<!-- Node43 -->
<g id="node144" class="node"><title>Node43</title>
<a xlink:href="MojObjectFilter_8h.htm" target="_top" xlink:title="core/MojObjectFilter.h">
<polygon fill="white" stroke="black" points="431.523,-492.5 431.523,-513.5 550.523,-513.5 550.523,-492.5 431.523,-492.5"/>
<text text-anchor="middle" x="491.023" y="-500.5" font-family="Helvetica,sans-Serif" font-size="10.00">core/MojObjectFilter.h</text>
</a>
</g>
<!-- Node11&#45;&gt;Node43 -->
<g id="edge202" class="edge"><title>Node11&#45;&gt;Node43</title>
<path fill="none" stroke="midnightblue" d="M982.304,-782.485C948.334,-774.11 901.133,-761.277 861.023,-746 712.717,-689.511 562.918,-566.038 510.537,-520.404"/>
<polygon fill="midnightblue" stroke="midnightblue" points="512.535,-517.5 502.712,-513.531 507.916,-522.76 512.535,-517.5"/>
</g>
<!-- Node12&#45;&gt;Node3 -->
<g id="edge30" class="edge"><title>Node12&#45;&gt;Node3</title>
<path fill="none" stroke="midnightblue" d="M944.712,-724.379C954.773,-702.03 979.744,-648.836 1007.02,-608 1012.4,-599.946 1097.15,-498.68 1132.61,-456.377"/>
<polygon fill="midnightblue" stroke="midnightblue" points="1135.45,-458.435 1139.19,-448.524 1130.09,-453.938 1135.45,-458.435"/>
</g>
<!-- Node12&#45;&gt;Node13 -->
<g id="edge32" class="edge"><title>Node12&#45;&gt;Node13</title>
<path fill="none" stroke="midnightblue" d="M972.62,-724.497C1002.09,-715 1045.66,-700.962 1077.79,-690.609"/>
<polygon fill="midnightblue" stroke="midnightblue" points="1078.92,-693.921 1087.37,-687.523 1076.77,-687.259 1078.92,-693.921"/>
</g>
<!-- Node17 -->
<g id="node41" class="node"><title>Node17</title>
<a xlink:href="MojObject_8h.htm" target="_top" xlink:title="core/MojObject.h">
<polygon fill="white" stroke="black" points="432.023,-427.5 432.023,-448.5 528.023,-448.5 528.023,-427.5 432.023,-427.5"/>
<text text-anchor="middle" x="480.023" y="-435.5" font-family="Helvetica,sans-Serif" font-size="10.00">core/MojObject.h</text>
</a>
</g>
<!-- Node12&#45;&gt;Node17 -->
<g id="edge190" class="edge"><title>Node12&#45;&gt;Node17</title>
<path fill="none" stroke="midnightblue" d="M869.94,-729.813C793.079,-723.325 666.373,-710.268 559.023,-688 469.654,-669.462 444.283,-669.545 362.023,-630 281.232,-591.16 238.226,-593.612 197.023,-514 192.529,-505.316 190.791,-499.534 197.023,-492 204.199,-483.326 341.269,-460.142 421.969,-447.149"/>
<polygon fill="midnightblue" stroke="midnightblue" points="422.681,-450.579 432,-445.539 421.572,-443.668 422.681,-450.579"/>
</g>
<!-- Node23 -->
<g id="node60" class="node"><title>Node23</title>
<a xlink:href="MojAutoPtr_8h.htm" target="_top" xlink:title="core/MojAutoPtr.h">
<polygon fill="white" stroke="black" points="1433.52,-188.5 1433.52,-209.5 1534.52,-209.5 1534.52,-188.5 1433.52,-188.5"/>
<text text-anchor="middle" x="1484.02" y="-196.5" font-family="Helvetica,sans-Serif" font-size="10.00">core/MojAutoPtr.h</text>
</a>
</g>
<!-- Node12&#45;&gt;Node23 -->
<g id="edge188" class="edge"><title>Node12&#45;&gt;Node23</title>
<path fill="none" stroke="midnightblue" d="M1010.11,-726.898C1154.96,-708.527 1479.1,-658.452 1542.02,-572 1558.54,-549.304 1526.8,-540.313 1517.02,-514 1478.04,-409.053 1480.19,-271.791 1482.71,-219.998"/>
<polygon fill="midnightblue" stroke="midnightblue" points="1486.21,-219.94 1483.26,-209.764 1479.22,-219.558 1486.21,-219.94"/>
</g>
<!-- Node28 -->
<g id="node76" class="node"><title>Node28</title>
<a xlink:href="MojVector_8h.htm" target="_top" xlink:title="core/MojVector.h">
<polygon fill="white" stroke="black" points="873.523,-304.5 873.523,-325.5 970.523,-325.5 970.523,-304.5 873.523,-304.5"/>
<text text-anchor="middle" x="922.023" y="-312.5" font-family="Helvetica,sans-Serif" font-size="10.00">core/MojVector.h</text>
</a>
</g>
<!-- Node12&#45;&gt;Node28 -->
<g id="edge192" class="edge"><title>Node12&#45;&gt;Node28</title>
<path fill="none" stroke="midnightblue" d="M884.318,-724.439C830.162,-710.564 756.023,-680.364 756.023,-619 756.023,-619 756.023,-619 756.023,-561 756.023,-459.596 854.141,-368.71 899.508,-332.106"/>
<polygon fill="midnightblue" stroke="midnightblue" points="901.912,-334.667 907.582,-325.717 897.569,-329.177 901.912,-334.667"/>
</g>
<!-- Node12&#45;&gt;Node35 -->
<g id="edge194" class="edge"><title>Node12&#45;&gt;Node35</title>
<path fill="none" stroke="midnightblue" d="M869.776,-725.148C815.845,-716.968 739.73,-704.088 674.023,-688 507.455,-647.216 446.527,-670.322 306.023,-572 287.576,-559.091 272.642,-537.821 263.384,-522.303"/>
<polygon fill="midnightblue" stroke="midnightblue" points="266.366,-520.466 258.373,-513.511 260.284,-523.932 266.366,-520.466"/>
</g>
<!-- Node12&#45;&gt;Node41 -->
<g id="edge176" class="edge"><title>Node12&#45;&gt;Node41</title>
<path fill="none" stroke="midnightblue" d="M886.084,-724.419C845.942,-716.01 790.031,-703.165 742.023,-688 634.827,-654.138 512.449,-601.244 455.433,-575.736"/>
<polygon fill="midnightblue" stroke="midnightblue" points="456.765,-572.498 446.209,-571.593 453.897,-578.883 456.765,-572.498"/>
</g>
<!-- Node13&#45;&gt;Node3 -->
<g id="edge34" class="edge"><title>Node13&#45;&gt;Node3</title>
<path fill="none" stroke="midnightblue" d="M1127.55,-666.404C1133.58,-657.253 1141.56,-643.425 1145.02,-630 1160.64,-569.41 1154.97,-494.461 1150.83,-458.775"/>
<polygon fill="midnightblue" stroke="midnightblue" points="1154.28,-458.128 1149.57,-448.637 1147.33,-458.992 1154.28,-458.128"/>
</g>
<!-- Node14 -->
<g id="node32" class="node"><title>Node14</title>
<a xlink:href="MojDbQueryPlan_8h.htm" target="_top" xlink:title="db/MojDbQueryPlan.h">
<polygon fill="white" stroke="black" points="841.523,-608.5 841.523,-629.5 960.523,-629.5 960.523,-608.5 841.523,-608.5"/>
<text text-anchor="middle" x="901.023" y="-616.5" font-family="Helvetica,sans-Serif" font-size="10.00">db/MojDbQueryPlan.h</text>
</a>
</g>
<!-- Node13&#45;&gt;Node14 -->
<g id="edge36" class="edge"><title>Node13&#45;&gt;Node14</title>
<path fill="none" stroke="midnightblue" d="M1080.36,-666.497C1043.97,-656.857 989.897,-642.537 950.648,-632.143"/>
<polygon fill="midnightblue" stroke="midnightblue" points="951.32,-628.7 940.757,-629.523 949.528,-635.467 951.32,-628.7"/>
</g>
<!-- Node13&#45;&gt;Node35 -->
<g id="edge150" class="edge"><title>Node13&#45;&gt;Node35</title>
<path fill="none" stroke="midnightblue" d="M1065.41,-673.009C912.093,-661.265 480.317,-624.33 349.023,-572 319.097,-560.072 289.779,-536.832 271.573,-520.635"/>
<polygon fill="midnightblue" stroke="midnightblue" points="273.776,-517.907 264.029,-513.755 269.059,-523.079 273.776,-517.907"/>
</g>
<!-- Node38 -->
<g id="node118" class="node"><title>Node38</title>
<a xlink:href="MojThread_8h.htm" target="_top" xlink:title="core/MojThread.h">
<polygon fill="white" stroke="black" points="1737.52,-427.5 1737.52,-448.5 1838.52,-448.5 1838.52,-427.5 1737.52,-427.5"/>
<text text-anchor="middle" x="1788.02" y="-435.5" font-family="Helvetica,sans-Serif" font-size="10.00">core/MojThread.h</text>
</a>
</g>
<!-- Node13&#45;&gt;Node38 -->
<g id="edge174" class="edge"><title>Node13&#45;&gt;Node38</title>
<path fill="none" stroke="midnightblue" d="M1174.73,-670.686C1281.37,-656.476 1521.82,-614.979 1696.02,-514 1724.31,-497.602 1752.69,-472.537 1770.29,-455.723"/>
<polygon fill="midnightblue" stroke="midnightblue" points="1772.85,-458.118 1777.58,-448.64 1767.97,-453.098 1772.85,-458.118"/>
</g>
<!-- Node14&#45;&gt;Node3 -->
<g id="edge38" class="edge"><title>Node14&#45;&gt;Node3</title>
<path fill="none" stroke="midnightblue" d="M938.515,-608.461C961.306,-600.819 990.133,-588.849 1012.02,-572 1047.67,-544.562 1041.76,-523.345 1074.02,-492 1088.67,-477.775 1107.23,-464.239 1122.1,-454.277"/>
<polygon fill="midnightblue" stroke="midnightblue" points="1124.37,-456.973 1130.81,-448.562 1120.53,-451.12 1124.37,-456.973"/>
</g>
<!-- Node15 -->
<g id="node35" class="node"><title>Node15</title>
<a xlink:href="MojDbQuery_8h.htm" target="_top" xlink:title="db/MojDbQuery.h">
<polygon fill="white" stroke="black" points="905.023,-550.5 905.023,-571.5 1003.02,-571.5 1003.02,-550.5 905.023,-550.5"/>
<text text-anchor="middle" x="954.023" y="-558.5" font-family="Helvetica,sans-Serif" font-size="10.00">db/MojDbQuery.h</text>
</a>
</g>
<!-- Node14&#45;&gt;Node15 -->
<g id="edge40" class="edge"><title>Node14&#45;&gt;Node15</title>
<path fill="none" stroke="midnightblue" d="M910.744,-608.362C918.215,-600.186 928.709,-588.702 937.492,-579.091"/>
<polygon fill="midnightblue" stroke="midnightblue" points="940.202,-581.314 944.364,-571.571 935.035,-576.592 940.202,-581.314"/>
</g>
<!-- Node16 -->
<g id="node38" class="node"><title>Node16</title>
<a xlink:href="MojDbKey_8h.htm" target="_top" xlink:title="db/MojDbKey.h">
<polygon fill="white" stroke="red" points="783.523,-492.5 783.523,-513.5 870.523,-513.5 870.523,-492.5 783.523,-492.5"/>
<text text-anchor="middle" x="827.023" y="-500.5" font-family="Helvetica,sans-Serif" font-size="10.00">db/MojDbKey.h</text>
</a>
</g>
<!-- Node14&#45;&gt;Node16 -->
<g id="edge148" class="edge"><title>Node14&#45;&gt;Node16</title>
<path fill="none" stroke="midnightblue" d="M894.194,-608.295C881.694,-588.7 854.977,-546.82 839.266,-522.191"/>
<polygon fill="midnightblue" stroke="midnightblue" points="842.165,-520.227 833.836,-513.679 836.263,-523.992 842.165,-520.227"/>
</g>
<!-- Node15&#45;&gt;Node3 -->
<g id="edge42" class="edge"><title>Node15&#45;&gt;Node3</title>
<path fill="none" stroke="midnightblue" d="M964.988,-550.209C980.084,-535.733 1008.53,-509.792 1036.02,-492 1060.13,-476.401 1089.41,-462.435 1112,-452.616"/>
<polygon fill="midnightblue" stroke="midnightblue" points="1113.41,-455.818 1121.23,-448.669 1110.66,-449.382 1113.41,-455.818"/>
</g>
<!-- Node15&#45;&gt;Node16 -->
<g id="edge44" class="edge"><title>Node15&#45;&gt;Node16</title>
<path fill="none" stroke="midnightblue" d="M931.025,-550.497C911.01,-541.356 881.783,-528.008 859.405,-517.788"/>
<polygon fill="midnightblue" stroke="midnightblue" points="860.83,-514.592 850.28,-513.621 857.923,-520.959 860.83,-514.592"/>
</g>
<!-- Node15&#45;&gt;Node17 -->
<g id="edge142" class="edge"><title>Node15&#45;&gt;Node17</title>
<path fill="none" stroke="midnightblue" d="M904.851,-560.345C779.429,-558.167 455.206,-549.157 423.023,-514 405.347,-494.69 431.502,-470.11 453.93,-454.217"/>
<polygon fill="midnightblue" stroke="midnightblue" points="455.932,-457.089 462.245,-448.581 452.004,-451.295 455.932,-457.089"/>
</g>
<!-- Node15&#45;&gt;Node27 -->
<g id="edge146" class="edge"><title>Node15&#45;&gt;Node27</title>
<path fill="none" stroke="midnightblue" d="M960.172,-550.491C968.735,-536.334 985.219,-510.753 1003.02,-492 1038.53,-454.599 1048.76,-444.722 1094.02,-420 1120.54,-405.518 1152.34,-394.276 1178.63,-386.424"/>
<polygon fill="midnightblue" stroke="midnightblue" points="1179.79,-389.733 1188.41,-383.581 1177.83,-383.011 1179.79,-389.733"/>
</g>
<!-- Node31 -->
<g id="node89" class="node"><title>Node31</title>
<a xlink:href="MojSet_8h.htm" target="_top" xlink:title="core/MojSet.h">
<polygon fill="white" stroke="red" points="657.023,-362.5 657.023,-383.5 739.023,-383.5 739.023,-362.5 657.023,-362.5"/>
<text text-anchor="middle" x="698.023" y="-370.5" font-family="Helvetica,sans-Serif" font-size="10.00">core/MojSet.h</text>
</a>
</g>
<!-- Node15&#45;&gt;Node31 -->
<g id="edge144" class="edge"><title>Node15&#45;&gt;Node31</title>
<path fill="none" stroke="midnightblue" d="M943.255,-550.233C929.045,-536.23 903.021,-511.284 879.023,-492 835.485,-457.014 822.859,-450.431 776.023,-420 759.445,-409.229 740.452,-397.766 725.359,-388.858"/>
<polygon fill="midnightblue" stroke="midnightblue" points="726.917,-385.714 716.522,-383.67 723.374,-391.751 726.917,-385.714"/>
</g>
<!-- Node15&#45;&gt;Node32 -->
<g id="edge126" class="edge"><title>Node15&#45;&gt;Node32</title>
<path fill="none" stroke="midnightblue" d="M1003.05,-558.357C1177.02,-548.98 1764.88,-517.292 1963.68,-506.576"/>
<polygon fill="midnightblue" stroke="midnightblue" points="1963.9,-510.069 1973.7,-506.036 1963.52,-503.08 1963.9,-510.069"/>
</g>
<!-- Node16&#45;&gt;Node3 -->
<g id="edge46" class="edge"><title>Node16&#45;&gt;Node3</title>
<path fill="none" stroke="midnightblue" d="M870.649,-494.166C928.132,-482.526 1029.3,-462.041 1092.27,-449.289"/>
<polygon fill="midnightblue" stroke="midnightblue" points="1093.31,-452.65 1102.42,-447.234 1091.92,-445.789 1093.31,-452.65"/>
</g>
<!-- Node16&#45;&gt;Node17 -->
<g id="edge48" class="edge"><title>Node16&#45;&gt;Node17</title>
<path fill="none" stroke="midnightblue" d="M783.427,-494.834C721.316,-483.199 607.237,-461.83 538.043,-448.868"/>
<polygon fill="midnightblue" stroke="midnightblue" points="538.645,-445.42 528.171,-447.019 537.356,-452.3 538.645,-445.42"/>
</g>
<!-- Node16&#45;&gt;Node28 -->
<g id="edge124" class="edge"><title>Node16&#45;&gt;Node28</title>
<path fill="none" stroke="midnightblue" d="M832.403,-492.354C847.785,-461.913 892.124,-374.17 912.08,-334.677"/>
<polygon fill="midnightblue" stroke="midnightblue" points="915.316,-336.033 916.703,-325.53 909.069,-332.876 915.316,-336.033"/>
</g>
<!-- Node16&#45;&gt;Node31 -->
<g id="edge116" class="edge"><title>Node16&#45;&gt;Node31</title>
<path fill="none" stroke="midnightblue" d="M816.467,-492.362C794.45,-470.174 743.414,-418.743 716.078,-391.194"/>
<polygon fill="midnightblue" stroke="midnightblue" points="718.254,-388.418 708.726,-383.785 713.285,-393.349 718.254,-388.418"/>
</g>
<!-- Node17&#45;&gt;Node4 -->
<g id="edge50" class="edge"><title>Node17&#45;&gt;Node4</title>
<path fill="none" stroke="midnightblue" d="M431.731,-428.126C405.303,-420.351 373.97,-406.867 354.023,-384 333.114,-360.03 335.023,-346.808 335.023,-315 335.023,-315 335.023,-315 335.023,-199 335.023,-144.587 374.955,-137.305 425.023,-116 490.51,-88.1345 969.043,-74.5246 1146.26,-70.3993"/>
<polygon fill="midnightblue" stroke="midnightblue" points="1146.57,-73.8932 1156.48,-70.164 1146.4,-66.895 1146.57,-73.8932"/>
</g>
<!-- Node18 -->
<g id="node44" class="node"><title>Node18</title>
<a xlink:href="MojDecimal_8h.htm" target="_top" xlink:title="core/MojDecimal.h">
<polygon fill="white" stroke="black" points="564.023,-246.5 564.023,-267.5 668.023,-267.5 668.023,-246.5 564.023,-246.5"/>
<text text-anchor="middle" x="616.023" y="-254.5" font-family="Helvetica,sans-Serif" font-size="10.00">core/MojDecimal.h</text>
</a>
</g>
<!-- Node17&#45;&gt;Node18 -->
<g id="edge52" class="edge"><title>Node17&#45;&gt;Node18</title>
<path fill="none" stroke="midnightblue" d="M477.622,-427.276C472.772,-402.662 464.545,-341.364 493.023,-304 507.69,-284.758 531.253,-273.392 553.849,-266.68"/>
<polygon fill="midnightblue" stroke="midnightblue" points="555.045,-269.983 563.786,-263.996 553.219,-263.225 555.045,-269.983"/>
</g>
<!-- Node21 -->
<g id="node53" class="node"><title>Node21</title>
<a xlink:href="MojMap_8h.htm" target="_top" xlink:title="core/MojMap.h">
<polygon fill="white" stroke="black" points="362.523,-362.5 362.523,-383.5 449.523,-383.5 449.523,-362.5 362.523,-362.5"/>
<text text-anchor="middle" x="406.023" y="-370.5" font-family="Helvetica,sans-Serif" font-size="10.00">core/MojMap.h</text>
</a>
</g>
<!-- Node17&#45;&gt;Node21 -->
<g id="edge64" class="edge"><title>Node17&#45;&gt;Node21</title>
<path fill="none" stroke="midnightblue" d="M467.804,-427.267C456.381,-417.233 439.128,-402.078 425.754,-390.331"/>
<polygon fill="midnightblue" stroke="midnightblue" points="427.839,-387.504 418.016,-383.534 423.219,-392.763 427.839,-387.504"/>
</g>
<!-- Node17&#45;&gt;Node27 -->
<g id="edge86" class="edge"><title>Node17&#45;&gt;Node27</title>
<path fill="none" stroke="midnightblue" d="M528.144,-433.835C660.637,-422.368 1030.41,-390.363 1173.48,-377.981"/>
<polygon fill="midnightblue" stroke="midnightblue" points="1174.13,-381.438 1183.79,-377.088 1173.52,-374.464 1174.13,-381.438"/>
</g>
<!-- Node17&#45;&gt;Node28 -->
<g id="edge114" class="edge"><title>Node17&#45;&gt;Node28</title>
<path fill="none" stroke="midnightblue" d="M499.051,-427.442C529.556,-410.969 591.706,-379.258 648.023,-362 720.355,-339.835 806.831,-327.192 863.015,-320.721"/>
<polygon fill="midnightblue" stroke="midnightblue" points="863.596,-324.178 873.143,-319.584 862.815,-317.222 863.596,-324.178"/>
</g>
<!-- Node18&#45;&gt;Node4 -->
<g id="edge54" class="edge"><title>Node18&#45;&gt;Node4</title>
<path fill="none" stroke="midnightblue" d="M615.279,-246.4C614.049,-219.662 614.952,-149.245 655.023,-116 692.093,-85.2452 1006.66,-73.9251 1146.02,-70.3926"/>
<polygon fill="midnightblue" stroke="midnightblue" points="1146.24,-73.8884 1156.15,-70.1418 1146.06,-66.8905 1146.24,-73.8884"/>
</g>
<!-- Node19 -->
<g id="node47" class="node"><title>Node19</title>
<a xlink:href="MojHasher_8h.htm" target="_top" xlink:title="core/MojHasher.h">
<polygon fill="white" stroke="black" points="1180.52,-188.5 1180.52,-209.5 1281.52,-209.5 1281.52,-188.5 1180.52,-188.5"/>
<text text-anchor="middle" x="1231.02" y="-196.5" font-family="Helvetica,sans-Serif" font-size="10.00">core/MojHasher.h</text>
</a>
</g>
<!-- Node18&#45;&gt;Node19 -->
<g id="edge56" class="edge"><title>Node18&#45;&gt;Node19</title>
<path fill="none" stroke="midnightblue" d="M668.206,-247.908C672.871,-247.215 677.529,-246.566 682.023,-246 858.662,-223.755 1068.62,-209.014 1170.1,-202.623"/>
<polygon fill="midnightblue" stroke="midnightblue" points="1170.41,-206.111 1180.17,-201.994 1169.97,-199.124 1170.41,-206.111"/>
</g>
<!-- Node19&#45;&gt;Node4 -->
<g id="edge58" class="edge"><title>Node19&#45;&gt;Node4</title>
<path fill="none" stroke="midnightblue" d="M1240.39,-188.306C1247.61,-179.313 1257.01,-165.753 1261.02,-152 1265.51,-136.641 1267.3,-130.718 1261.02,-116 1255.94,-104.092 1246.21,-93.7503 1236.74,-85.8235"/>
<polygon fill="midnightblue" stroke="midnightblue" points="1238.65,-82.8799 1228.61,-79.5002 1234.36,-88.4041 1238.65,-82.8799"/>
</g>
<!-- Node20 -->
<g id="node50" class="node"><title>Node20</title>
<a xlink:href="MojUtil_8h.htm" target="_top" xlink:title="core/MojUtil.h">
<polygon fill="white" stroke="red" points="1171.52,-123.5 1171.52,-144.5 1252.52,-144.5 1252.52,-123.5 1171.52,-123.5"/>
<text text-anchor="middle" x="1212.02" y="-131.5" font-family="Helvetica,sans-Serif" font-size="10.00">core/MojUtil.h</text>
</a>
</g>
<!-- Node19&#45;&gt;Node20 -->
<g id="edge60" class="edge"><title>Node19&#45;&gt;Node20</title>
<path fill="none" stroke="midnightblue" d="M1227.89,-188.267C1225.2,-179.085 1221.26,-165.615 1217.98,-154.392"/>
<polygon fill="midnightblue" stroke="midnightblue" points="1221.27,-153.15 1215.1,-144.534 1214.55,-155.114 1221.27,-153.15"/>
</g>
<!-- Node20&#45;&gt;Node4 -->
<g id="edge62" class="edge"><title>Node20&#45;&gt;Node4</title>
<path fill="none" stroke="midnightblue" d="M1212.02,-123.267C1212.02,-114.18 1212.02,-100.892 1212.02,-89.7395"/>
<polygon fill="midnightblue" stroke="midnightblue" points="1215.52,-89.5337 1212.02,-79.5337 1208.52,-89.5337 1215.52,-89.5337"/>
</g>
<!-- Node21&#45;&gt;Node4 -->
<g id="edge66" class="edge"><title>Node21&#45;&gt;Node4</title>
<path fill="none" stroke="midnightblue" d="M406.783,-362.45C408.182,-342.08 411.023,-295.904 411.023,-257 411.023,-257 411.023,-257 411.023,-199 411.023,-114.92 499.862,-137.962 581.023,-116 686.154,-87.5518 1006.99,-74.9759 1146.3,-70.7516"/>
<polygon fill="midnightblue" stroke="midnightblue" points="1146.53,-74.2466 1156.42,-70.45 1146.32,-67.2497 1146.53,-74.2466"/>
</g>
<!-- Node21&#45;&gt;Node9 -->
<g id="edge68" class="edge"><title>Node21&#45;&gt;Node9</title>
<path fill="none" stroke="midnightblue" d="M449.683,-367.783C515.087,-359.562 635.091,-342.793 675.023,-326 704.721,-313.511 734.09,-290.398 752.37,-274.383"/>
<polygon fill="midnightblue" stroke="midnightblue" points="754.84,-276.87 759.95,-267.589 750.168,-271.657 754.84,-276.87"/>
</g>
<!-- Node22 -->
<g id="node57" class="node"><title>Node22</title>
<a xlink:href="MojRbTreeBase_8h.htm" target="_top" xlink:title="core/internal/MojRbTreeBase.h">
<polygon fill="white" stroke="black" points="502.023,-304.5 502.023,-325.5 666.023,-325.5 666.023,-304.5 502.023,-304.5"/>
<text text-anchor="middle" x="584.023" y="-312.5" font-family="Helvetica,sans-Serif" font-size="10.00">core/internal/MojRbTreeBase.h</text>
</a>
</g>
<!-- Node21&#45;&gt;Node22 -->
<g id="edge70" class="edge"><title>Node21&#45;&gt;Node22</title>
<path fill="none" stroke="midnightblue" d="M438.258,-362.497C467.277,-353.041 510.114,-339.083 541.847,-328.743"/>
<polygon fill="midnightblue" stroke="midnightblue" points="543.305,-331.949 551.728,-325.523 541.136,-325.293 543.305,-331.949"/>
</g>
<!-- Node22&#45;&gt;Node4 -->
<g id="edge72" class="edge"><title>Node22&#45;&gt;Node4</title>
<path fill="none" stroke="midnightblue" d="M574.962,-304.252C567.984,-295.227 558.896,-281.652 555.023,-268 552.355,-258.593 552.633,-255.481 555.023,-246 571.066,-182.37 570.075,-151.873 625.023,-116 667.843,-88.0454 1002.27,-75.0783 1146.35,-70.7468"/>
<polygon fill="midnightblue" stroke="midnightblue" points="1146.49,-74.2441 1156.39,-70.4498 1146.29,-67.2472 1146.49,-74.2441"/>
</g>
<!-- Node22&#45;&gt;Node23 -->
<g id="edge74" class="edge"><title>Node22&#45;&gt;Node23</title>
<path fill="none" stroke="midnightblue" d="M606.002,-304.331C624.963,-295.024 653.003,-281.009 677.023,-268 694.183,-258.706 696.34,-251.635 715.023,-246 723.488,-243.447 1242.95,-213.027 1423.21,-202.533"/>
<polygon fill="midnightblue" stroke="midnightblue" points="1423.54,-206.019 1433.32,-201.944 1423.13,-199.031 1423.54,-206.019"/>
</g>
<!-- Node23&#45;&gt;Node4 -->
<g id="edge76" class="edge"><title>Node23&#45;&gt;Node4</title>
<path fill="none" stroke="midnightblue" d="M1484.97,-188.332C1485.91,-170.604 1484.97,-135.138 1465.02,-116 1438.82,-90.861 1343.89,-78.6972 1278.07,-73.1666"/>
<polygon fill="midnightblue" stroke="midnightblue" points="1278.02,-69.6514 1267.77,-72.335 1277.46,-76.6286 1278.02,-69.6514"/>
</g>
<!-- Node24 -->
<g id="node63" class="node"><title>Node24</title>
<a xlink:href="MojAtomicInt_8h.htm" target="_top" xlink:title="core/MojAtomicInt.h">
<polygon fill="white" stroke="black" points="1346.02,-123.5 1346.02,-144.5 1456.02,-144.5 1456.02,-123.5 1346.02,-123.5"/>
<text text-anchor="middle" x="1401.02" y="-131.5" font-family="Helvetica,sans-Serif" font-size="10.00">core/MojAtomicInt.h</text>
</a>
</g>
<!-- Node23&#45;&gt;Node24 -->
<g id="edge78" class="edge"><title>Node23&#45;&gt;Node24</title>
<path fill="none" stroke="midnightblue" d="M1470.32,-188.267C1457.39,-178.139 1437.79,-162.792 1422.73,-151"/>
<polygon fill="midnightblue" stroke="midnightblue" points="1424.51,-147.944 1414.47,-144.534 1420.19,-153.455 1424.51,-147.944"/>
</g>
<!-- Node23&#45;&gt;Node25 -->
<g id="edge82" class="edge"><title>Node23&#45;&gt;Node25</title>
<path fill="none" stroke="midnightblue" d="M1433.34,-194.71C1297.66,-183.227 926.516,-151.815 778.334,-139.274"/>
<polygon fill="midnightblue" stroke="midnightblue" points="778.316,-135.76 768.057,-138.404 777.726,-142.735 778.316,-135.76"/>
</g>
<!-- Node26 -->
<g id="node68" class="node"><title>Node26</title>
<a xlink:href="MojAutoPtrInternal_8h.htm" target="_top" xlink:title="core/internal/MojAutoPtr\lInternal.h">
<polygon fill="white" stroke="black" points="1511.52,-117 1511.52,-151 1642.52,-151 1642.52,-117 1511.52,-117"/>
<text text-anchor="start" x="1519.52" y="-138" font-family="Helvetica,sans-Serif" font-size="10.00">core/internal/MojAutoPtr</text>
<text text-anchor="middle" x="1577.02" y="-125" font-family="Helvetica,sans-Serif" font-size="10.00">Internal.h</text>
</a>
</g>
<!-- Node23&#45;&gt;Node26 -->
<g id="edge84" class="edge"><title>Node23&#45;&gt;Node26</title>
<path fill="none" stroke="midnightblue" d="M1499.38,-188.267C1511.57,-179.748 1529.04,-167.537 1544.32,-156.854"/>
<polygon fill="midnightblue" stroke="midnightblue" points="1546.35,-159.707 1552.54,-151.11 1542.34,-153.97 1546.35,-159.707"/>
</g>
<!-- Node24&#45;&gt;Node4 -->
<g id="edge80" class="edge"><title>Node24&#45;&gt;Node4</title>
<path fill="none" stroke="midnightblue" d="M1370.24,-123.412C1338.11,-112.364 1287.6,-94.9913 1252.32,-82.8574"/>
<polygon fill="midnightblue" stroke="midnightblue" points="1253.39,-79.526 1242.8,-79.5835 1251.12,-86.1455 1253.39,-79.526"/>
</g>
<!-- Node27&#45;&gt;Node4 -->
<g id="edge88" class="edge"><title>Node27&#45;&gt;Node4</title>
<path fill="none" stroke="midnightblue" d="M1278.27,-372.453C1403.75,-370.513 1738.04,-361.984 1771.02,-326 1813.73,-279.411 1713.45,-141.521 1674.02,-116 1641.51,-94.9558 1397.52,-79.0238 1277.84,-72.3855"/>
<polygon fill="midnightblue" stroke="midnightblue" points="1277.88,-68.8824 1267.7,-71.8289 1277.49,-75.8718 1277.88,-68.8824"/>
</g>
<!-- Node27&#45;&gt;Node9 -->
<g id="edge92" class="edge"><title>Node27&#45;&gt;Node9</title>
<path fill="none" stroke="midnightblue" d="M1183.88,-369.891C1098.53,-363.778 921.978,-348.779 865.023,-326 835.357,-314.135 806.542,-290.674 788.804,-274.424"/>
<polygon fill="midnightblue" stroke="midnightblue" points="791.155,-271.83 781.47,-267.533 786.361,-276.932 791.155,-271.83"/>
</g>
<!-- Node27&#45;&gt;Node19 -->
<g id="edge94" class="edge"><title>Node27&#45;&gt;Node19</title>
<path fill="none" stroke="midnightblue" d="M1231.02,-362.377C1231.02,-334.293 1231.02,-257.673 1231.02,-220.203"/>
<polygon fill="midnightblue" stroke="midnightblue" points="1234.52,-219.928 1231.02,-209.928 1227.52,-219.928 1234.52,-219.928"/>
</g>
<!-- Node27&#45;&gt;Node23 -->
<g id="edge90" class="edge"><title>Node27&#45;&gt;Node23</title>
<path fill="none" stroke="midnightblue" d="M1249.26,-362.47C1280.44,-344.258 1345.71,-305.244 1398.02,-268 1421.47,-251.303 1447.05,-230.411 1464.16,-216.015"/>
<polygon fill="midnightblue" stroke="midnightblue" points="1466.47,-218.65 1471.84,-209.517 1461.95,-213.308 1466.47,-218.65"/>
</g>
<!-- Node27&#45;&gt;Node28 -->
<g id="edge96" class="edge"><title>Node27&#45;&gt;Node28</title>
<path fill="none" stroke="midnightblue" d="M1183.76,-364.128C1129.18,-353.884 1039.37,-337.027 980.461,-325.969"/>
<polygon fill="midnightblue" stroke="midnightblue" points="981.033,-322.515 970.559,-324.11 979.742,-329.395 981.033,-322.515"/>
</g>
<!-- Node28&#45;&gt;Node4 -->
<g id="edge98" class="edge"><title>Node28&#45;&gt;Node4</title>
<path fill="none" stroke="midnightblue" d="M920.044,-304.224C917.972,-290.212 916.02,-265.255 924.023,-246 937.658,-213.196 950.573,-209.274 979.023,-188 1042.15,-140.794 1126.77,-102.903 1174.73,-83.3919"/>
<polygon fill="midnightblue" stroke="midnightblue" points="1176.12,-86.6019 1184.1,-79.6239 1173.51,-80.1073 1176.12,-86.6019"/>
</g>
<!-- Node28&#45;&gt;Node9 -->
<g id="edge100" class="edge"><title>Node28&#45;&gt;Node9</title>
<path fill="none" stroke="midnightblue" d="M894.678,-304.497C870.381,-295.164 834.664,-281.445 807.856,-271.147"/>
<polygon fill="midnightblue" stroke="midnightblue" points="809.01,-267.842 798.42,-267.523 806.5,-274.376 809.01,-267.842"/>
</g>
<!-- Node28&#45;&gt;Node20 -->
<g id="edge110" class="edge"><title>Node28&#45;&gt;Node20</title>
<path fill="none" stroke="midnightblue" d="M922.161,-304.302C922.913,-289.457 926.377,-262.572 941.023,-246 998.548,-180.913 1099.78,-152.834 1160.9,-141.344"/>
<polygon fill="midnightblue" stroke="midnightblue" points="1161.87,-144.727 1171.09,-139.513 1160.63,-137.837 1161.87,-144.727"/>
</g>
<!-- Node29 -->
<g id="node80" class="node"><title>Node29</title>
<a xlink:href="MojRefCount_8h.htm" target="_top" xlink:title="core/MojRefCount.h">
<polygon fill="white" stroke="red" points="1279.02,-246.5 1279.02,-267.5 1389.02,-267.5 1389.02,-246.5 1279.02,-246.5"/>
<text text-anchor="middle" x="1334.02" y="-254.5" font-family="Helvetica,sans-Serif" font-size="10.00">core/MojRefCount.h</text>
</a>
</g>
<!-- Node28&#45;&gt;Node29 -->
<g id="edge102" class="edge"><title>Node28&#45;&gt;Node29</title>
<path fill="none" stroke="midnightblue" d="M970.903,-308.119C1045.08,-297.677 1186.16,-277.815 1268.94,-266.162"/>
<polygon fill="midnightblue" stroke="midnightblue" points="1269.57,-269.608 1278.99,-264.748 1268.6,-262.676 1269.57,-269.608"/>
</g>
<!-- Node30 -->
<g id="node86" class="node"><title>Node30</title>
<a xlink:href="MojVectorInternal_8h.htm" target="_top" xlink:title="core/internal/MojVectorInternal.h">
<polygon fill="white" stroke="black" points="949.523,-246.5 949.523,-267.5 1120.52,-267.5 1120.52,-246.5 949.523,-246.5"/>
<text text-anchor="middle" x="1035.02" y="-254.5" font-family="Helvetica,sans-Serif" font-size="10.00">core/internal/MojVectorInternal.h</text>
</a>
</g>
<!-- Node28&#45;&gt;Node30 -->
<g id="edge112" class="edge"><title>Node28&#45;&gt;Node30</title>
<path fill="none" stroke="midnightblue" d="M942.487,-304.497C960.056,-295.479 985.605,-282.365 1005.41,-272.201"/>
<polygon fill="midnightblue" stroke="midnightblue" points="1007.03,-275.301 1014.33,-267.621 1003.84,-269.074 1007.03,-275.301"/>
</g>
<!-- Node29&#45;&gt;Node4 -->
<g id="edge104" class="edge"><title>Node29&#45;&gt;Node4</title>
<path fill="none" stroke="midnightblue" d="M1331.87,-246.43C1326.39,-221.503 1309.91,-157.988 1277.02,-116 1267.28,-103.561 1253.41,-92.916 1240.98,-84.918"/>
<polygon fill="midnightblue" stroke="midnightblue" points="1242.61,-81.8172 1232.26,-79.5741 1238.96,-87.7849 1242.61,-81.8172"/>
</g>
<!-- Node29&#45;&gt;Node23 -->
<g id="edge108" class="edge"><title>Node29&#45;&gt;Node23</title>
<path fill="none" stroke="midnightblue" d="M1361.19,-246.497C1385.32,-237.164 1420.8,-223.445 1447.44,-213.147"/>
<polygon fill="midnightblue" stroke="midnightblue" points="1448.74,-216.394 1456.81,-209.523 1446.22,-209.865 1448.74,-216.394"/>
</g>
<!-- Node29&#45;&gt;Node24 -->
<g id="edge106" class="edge"><title>Node29&#45;&gt;Node24</title>
<path fill="none" stroke="midnightblue" d="M1339.97,-246.085C1351.27,-225.335 1376,-179.937 1390.28,-153.729"/>
<polygon fill="midnightblue" stroke="midnightblue" points="1393.48,-155.171 1395.19,-144.715 1387.33,-151.823 1393.48,-155.171"/>
</g>
<!-- Node31&#45;&gt;Node4 -->
<g id="edge118" class="edge"><title>Node31&#45;&gt;Node4</title>
<path fill="none" stroke="midnightblue" d="M733.85,-362.404C777.651,-346.98 846.023,-313.805 846.023,-257 846.023,-257 846.023,-257 846.023,-199 846.023,-135.963 1041.25,-95.6607 1146.54,-78.5093"/>
<polygon fill="midnightblue" stroke="midnightblue" points="1147.12,-81.9612 1156.44,-76.9217 1146.01,-75.0495 1147.12,-81.9612"/>
</g>
<!-- Node31&#45;&gt;Node9 -->
<g id="edge120" class="edge"><title>Node31&#45;&gt;Node9</title>
<path fill="none" stroke="midnightblue" d="M711.891,-362.356C722.493,-353.593 736.809,-340.32 746.023,-326 755.583,-311.143 762.121,-292.139 766.106,-277.837"/>
<polygon fill="midnightblue" stroke="midnightblue" points="769.544,-278.523 768.664,-267.964 762.768,-276.767 769.544,-278.523"/>
</g>
<!-- Node31&#45;&gt;Node22 -->
<g id="edge122" class="edge"><title>Node31&#45;&gt;Node22</title>
<path fill="none" stroke="midnightblue" d="M677.379,-362.497C659.654,-353.479 633.879,-340.365 613.9,-330.201"/>
<polygon fill="midnightblue" stroke="midnightblue" points="615.399,-327.036 604.9,-325.621 612.225,-333.275 615.399,-327.036"/>
</g>
<!-- Node32&#45;&gt;Node4 -->
<g id="edge128" class="edge"><title>Node32&#45;&gt;Node4</title>
<path fill="none" stroke="midnightblue" d="M2046.64,-492.454C2058.57,-484.02 2074.05,-471.127 2083.02,-456 2102.32,-423.448 2102.02,-410.843 2102.02,-373 2102.02,-373 2102.02,-373 2102.02,-199 2102.02,-115.693 1483.6,-80.9407 1277.76,-71.6811"/>
<polygon fill="midnightblue" stroke="midnightblue" points="1277.84,-68.1813 1267.7,-71.2338 1277.53,-75.1744 1277.84,-68.1813"/>
</g>
<!-- Node32&#45;&gt;Node9 -->
<g id="edge130" class="edge"><title>Node32&#45;&gt;Node9</title>
<path fill="none" stroke="midnightblue" d="M1973.93,-492.792C1944.38,-485.655 1908.47,-474.081 1880.02,-456 1861.71,-444.356 1865.09,-432.027 1847.02,-420 1783.71,-377.855 1760.08,-379.34 1686.02,-362 1521.06,-323.372 1002.18,-276.743 828.392,-261.831"/>
<polygon fill="midnightblue" stroke="midnightblue" points="828.441,-258.323 818.178,-260.957 827.844,-265.297 828.441,-258.323"/>
</g>
<!-- Node33 -->
<g id="node99" class="node"><title>Node33</title>
<a xlink:href="MojHashBase_8h.htm" target="_top" xlink:title="core/internal/MojHashBase.h">
<polygon fill="white" stroke="black" points="1587.52,-246.5 1587.52,-267.5 1740.52,-267.5 1740.52,-246.5 1587.52,-246.5"/>
<text text-anchor="middle" x="1664.02" y="-254.5" font-family="Helvetica,sans-Serif" font-size="10.00">core/internal/MojHashBase.h</text>
</a>
</g>
<!-- Node32&#45;&gt;Node33 -->
<g id="edge132" class="edge"><title>Node32&#45;&gt;Node33</title>
<path fill="none" stroke="midnightblue" d="M1997.99,-492.495C1975.85,-484.404 1946.31,-471.916 1923.02,-456 1883.59,-429.042 1810.46,-330.958 1771.02,-304 1750.92,-290.26 1726.16,-279.074 1705.52,-271.067"/>
<polygon fill="midnightblue" stroke="midnightblue" points="1706.65,-267.753 1696.05,-267.505 1704.18,-274.304 1706.65,-267.753"/>
</g>
<!-- Node34 -->
<g id="node104" class="node"><title>Node34</title>
<a xlink:href="MojHashMapInternal_8h.htm" target="_top" xlink:title="core/internal/MojHashMap\lInternal.h">
<polygon fill="white" stroke="black" points="1932.02,-421 1932.02,-455 2074.02,-455 2074.02,-421 1932.02,-421"/>
<text text-anchor="start" x="1940.02" y="-442" font-family="Helvetica,sans-Serif" font-size="10.00">core/internal/MojHashMap</text>
<text text-anchor="middle" x="2003.02" y="-429" font-family="Helvetica,sans-Serif" font-size="10.00">Internal.h</text>
</a>
</g>
<!-- Node32&#45;&gt;Node34 -->
<g id="edge140" class="edge"><title>Node32&#45;&gt;Node34</title>
<path fill="none" stroke="midnightblue" d="M2025.56,-492.267C2022.42,-484.694 2018.06,-474.205 2014.02,-464.464"/>
<polygon fill="midnightblue" stroke="midnightblue" points="2017.2,-463.002 2010.13,-455.11 2010.73,-465.687 2017.2,-463.002"/>
</g>
<!-- Node33&#45;&gt;Node4 -->
<g id="edge134" class="edge"><title>Node33&#45;&gt;Node4</title>
<path fill="none" stroke="midnightblue" d="M1666.99,-246.332C1673.58,-220.048 1686.22,-151.721 1651.02,-116 1625.37,-89.9647 1394.23,-76.6342 1278.06,-71.5298"/>
<polygon fill="midnightblue" stroke="midnightblue" points="1278,-68.0243 1267.86,-71.09 1277.7,-75.0178 1278,-68.0243"/>
</g>
<!-- Node33&#45;&gt;Node19 -->
<g id="edge138" class="edge"><title>Node33&#45;&gt;Node19</title>
<path fill="none" stroke="midnightblue" d="M1587.11,-246.698C1502.68,-235.389 1368.89,-217.467 1291.59,-207.113"/>
<polygon fill="midnightblue" stroke="midnightblue" points="1291.91,-203.624 1281.53,-205.765 1290.98,-210.562 1291.91,-203.624"/>
</g>
<!-- Node33&#45;&gt;Node23 -->
<g id="edge136" class="edge"><title>Node33&#45;&gt;Node23</title>
<path fill="none" stroke="midnightblue" d="M1631.43,-246.497C1601.95,-237 1558.39,-222.962 1526.26,-212.609"/>
<polygon fill="midnightblue" stroke="midnightblue" points="1527.27,-209.259 1516.68,-209.523 1525.13,-215.921 1527.27,-209.259"/>
</g>
<!-- Node35&#45;&gt;Node4 -->
<g id="edge152" class="edge"><title>Node35&#45;&gt;Node4</title>
<path fill="none" stroke="midnightblue" d="M205.517,-499.378C145.446,-493.813 46.7313,-481.069 21.0234,-456 -6.07017,-429.58 2.02339,-410.843 2.02339,-373 2.02339,-373 2.02339,-373 2.02339,-199 2.02339,-125.515 74.5015,-136.658 145.023,-116 240.66,-87.9852 928.122,-73.8775 1145.98,-70.0756"/>
<polygon fill="midnightblue" stroke="midnightblue" points="1146.36,-73.5696 1156.3,-69.8971 1146.24,-66.5707 1146.36,-73.5696"/>
</g>
<!-- Node35&#45;&gt;Node28 -->
<g id="edge170" class="edge"><title>Node35&#45;&gt;Node28</title>
<path fill="none" stroke="midnightblue" d="M300.75,-497.543C357.582,-490.486 455.115,-476.603 537.023,-456 633.117,-431.829 656.792,-422.666 748.023,-384 767.789,-375.623 771.324,-370.531 791.023,-362 820.023,-349.441 853.585,-337.447 879.477,-328.719"/>
<polygon fill="midnightblue" stroke="midnightblue" points="880.623,-332.026 889,-325.539 878.406,-325.386 880.623,-332.026"/>
</g>
<!-- Node36 -->
<g id="node113" class="node"><title>Node36</title>
<a xlink:href="MojList_8h.htm" target="_top" xlink:title="core/MojList.h">
<polygon fill="white" stroke="black" points="29.5234,-427.5 29.5234,-448.5 112.523,-448.5 112.523,-427.5 29.5234,-427.5"/>
<text text-anchor="middle" x="71.0234" y="-435.5" font-family="Helvetica,sans-Serif" font-size="10.00">core/MojList.h</text>
</a>
</g>
<!-- Node35&#45;&gt;Node36 -->
<g id="edge154" class="edge"><title>Node35&#45;&gt;Node36</title>
<path fill="none" stroke="midnightblue" d="M223.377,-492.412C192.574,-481.411 144.214,-464.14 110.26,-452.013"/>
<polygon fill="midnightblue" stroke="midnightblue" points="111.252,-448.651 100.657,-448.584 108.897,-455.243 111.252,-448.651"/>
</g>
<!-- Node35&#45;&gt;Node38 -->
<g id="edge160" class="edge"><title>Node35&#45;&gt;Node38</title>
<path fill="none" stroke="midnightblue" d="M300.635,-499.599C334.708,-497.243 381.674,-494.155 423.023,-492 926.815,-465.74 1535.8,-445.837 1727.35,-439.857"/>
<polygon fill="midnightblue" stroke="midnightblue" points="1727.61,-443.351 1737.49,-439.541 1727.39,-436.354 1727.61,-443.351"/>
</g>
<!-- Node40 -->
<g id="node126" class="node"><title>Node40</title>
<a xlink:href="MojSignalInternal_8h.htm" target="_top" xlink:title="core/internal/MojSignalInternal.h">
<polygon fill="white" stroke="black" points="168.023,-427.5 168.023,-448.5 338.023,-448.5 338.023,-427.5 168.023,-427.5"/>
<text text-anchor="middle" x="253.023" y="-435.5" font-family="Helvetica,sans-Serif" font-size="10.00">core/internal/MojSignalInternal.h</text>
</a>
</g>
<!-- Node35&#45;&gt;Node40 -->
<g id="edge172" class="edge"><title>Node35&#45;&gt;Node40</title>
<path fill="none" stroke="midnightblue" d="M253.023,-492.267C253.023,-483.18 253.023,-469.892 253.023,-458.74"/>
<polygon fill="midnightblue" stroke="midnightblue" points="256.523,-458.534 253.023,-448.534 249.523,-458.534 256.523,-458.534"/>
</g>
<!-- Node36&#45;&gt;Node4 -->
<g id="edge156" class="edge"><title>Node36&#45;&gt;Node4</title>
<path fill="none" stroke="midnightblue" d="M71.0234,-427.47C71.0234,-406.211 71.0234,-356.641 71.0234,-315 71.0234,-315 71.0234,-315 71.0234,-199 71.0234,-90.0383 903.066,-72.3723 1146.11,-69.5363"/>
<polygon fill="midnightblue" stroke="midnightblue" points="1146.26,-73.035 1156.22,-69.423 1146.18,-66.0354 1146.26,-73.035"/>
</g>
<!-- Node37 -->
<g id="node116" class="node"><title>Node37</title>
<a xlink:href="MojListInternal_8h.htm" target="_top" xlink:title="core/internal/MojListInternal.h">
<polygon fill="white" stroke="black" points="98.5234,-362.5 98.5234,-383.5 255.523,-383.5 255.523,-362.5 98.5234,-362.5"/>
<text text-anchor="middle" x="177.023" y="-370.5" font-family="Helvetica,sans-Serif" font-size="10.00">core/internal/MojListInternal.h</text>
</a>
</g>
<!-- Node36&#45;&gt;Node37 -->
<g id="edge158" class="edge"><title>Node36&#45;&gt;Node37</title>
<path fill="none" stroke="midnightblue" d="M88.5271,-427.267C105.584,-416.807 131.717,-400.782 151.169,-388.854"/>
<polygon fill="midnightblue" stroke="midnightblue" points="153.15,-391.745 159.845,-383.534 149.491,-385.778 153.15,-391.745"/>
</g>
<!-- Node38&#45;&gt;Node4 -->
<g id="edge162" class="edge"><title>Node38&#45;&gt;Node4</title>
<path fill="none" stroke="midnightblue" d="M1801.33,-427.301C1831.8,-401.5 1904.02,-332.393 1904.02,-257 1904.02,-257 1904.02,-257 1904.02,-199 1904.02,-103.171 1797.99,-139.253 1705.02,-116 1625.78,-96.1788 1392.56,-79.8883 1277.6,-72.8073"/>
<polygon fill="midnightblue" stroke="midnightblue" points="1277.72,-69.308 1267.53,-72.1915 1277.29,-76.295 1277.72,-69.308"/>
</g>
<!-- Node38&#45;&gt;Node24 -->
<g id="edge164" class="edge"><title>Node38&#45;&gt;Node24</title>
<path fill="none" stroke="midnightblue" d="M1789.6,-427.336C1793.74,-394.745 1801.3,-295.668 1749.02,-246 1707.16,-206.221 1548.95,-166.399 1460.97,-146.697"/>
<polygon fill="midnightblue" stroke="midnightblue" points="1461.64,-143.261 1451.12,-144.51 1460.13,-150.095 1461.64,-143.261"/>
</g>
<!-- Node39 -->
<g id="node122" class="node"><title>Node39</title>
<a xlink:href="MojThreadInternal_8h.htm" target="_top" xlink:title="core/internal/MojThreadInternal.h">
<polygon fill="white" stroke="black" points="1587.52,-304.5 1587.52,-325.5 1762.52,-325.5 1762.52,-304.5 1587.52,-304.5"/>
<text text-anchor="middle" x="1675.02" y="-312.5" font-family="Helvetica,sans-Serif" font-size="10.00">core/internal/MojThreadInternal.h</text>
</a>
</g>
<!-- Node38&#45;&gt;Node39 -->
<g id="edge166" class="edge"><title>Node38&#45;&gt;Node39</title>
<path fill="none" stroke="midnightblue" d="M1779.67,-427.372C1767.76,-412.394 1745.02,-384.402 1724.02,-362 1714.67,-352.022 1703.73,-341.435 1694.56,-332.841"/>
<polygon fill="midnightblue" stroke="midnightblue" points="1696.76,-330.103 1687.05,-325.866 1692,-335.234 1696.76,-330.103"/>
</g>
<!-- Node39&#45;&gt;Node23 -->
<g id="edge168" class="edge"><title>Node39&#45;&gt;Node23</title>
<path fill="none" stroke="midnightblue" d="M1650.34,-304.344C1630.58,-295.475 1602.4,-282.065 1579.02,-268 1552.37,-251.958 1523.73,-230.519 1504.95,-215.82"/>
<polygon fill="midnightblue" stroke="midnightblue" points="1507.07,-213.036 1497.05,-209.584 1502.73,-218.529 1507.07,-213.036"/>
</g>
<!-- Node41&#45;&gt;Node2 -->
<g id="edge180" class="edge"><title>Node41&#45;&gt;Node2</title>
<path fill="none" stroke="midnightblue" d="M460.328,-550.497C494.348,-540.918 544.778,-526.72 581.637,-516.342"/>
<polygon fill="midnightblue" stroke="midnightblue" points="582.971,-519.602 591.648,-513.523 581.074,-512.864 582.971,-519.602"/>
</g>
<!-- Node41&#45;&gt;Node3 -->
<g id="edge178" class="edge"><title>Node41&#45;&gt;Node3</title>
<path fill="none" stroke="midnightblue" d="M488.859,-557.788C577.973,-552.63 741.642,-540.283 879.023,-514 961.641,-498.194 1055.7,-468.952 1107.83,-451.713"/>
<polygon fill="midnightblue" stroke="midnightblue" points="1108.99,-455.016 1117.37,-448.537 1106.78,-448.374 1108.99,-455.016"/>
</g>
<!-- Node41&#45;&gt;Node21 -->
<g id="edge182" class="edge"><title>Node41&#45;&gt;Node21</title>
<path fill="none" stroke="midnightblue" d="M417.629,-550.483C406.325,-527.181 381.852,-469.358 390.023,-420 391.528,-410.912 394.565,-401.22 397.593,-393.013"/>
<polygon fill="midnightblue" stroke="midnightblue" points="400.904,-394.155 401.306,-383.568 394.39,-391.594 400.904,-394.155"/>
</g>
<!-- Node41&#45;&gt;Node27 -->
<g id="edge186" class="edge"><title>Node41&#45;&gt;Node27</title>
<path fill="none" stroke="midnightblue" d="M488.681,-551.956C544.862,-543.709 627.718,-530.337 699.023,-514 733.3,-506.147 741.189,-501.581 775.023,-492 890.391,-459.329 918.929,-449.985 1035.02,-420 1082.09,-407.845 1135.78,-395.043 1175.06,-385.874"/>
<polygon fill="midnightblue" stroke="midnightblue" points="1176.03,-389.242 1184.97,-383.566 1174.44,-382.425 1176.03,-389.242"/>
</g>
<!-- Node41&#45;&gt;Node35 -->
<g id="edge184" class="edge"><title>Node41&#45;&gt;Node35</title>
<path fill="none" stroke="midnightblue" d="M392.238,-550.497C364.643,-541.082 323.965,-527.204 293.698,-516.877"/>
<polygon fill="midnightblue" stroke="midnightblue" points="294.461,-513.44 283.867,-513.523 292.201,-520.065 294.461,-513.44"/>
</g>
<!-- Node42&#45;&gt;Node3 -->
<g id="edge198" class="edge"><title>Node42&#45;&gt;Node3</title>
<path fill="none" stroke="midnightblue" d="M1082.56,-608.446C1088.18,-599.094 1096.27,-584.954 1102.02,-572 1119.4,-532.881 1134.41,-485.025 1142.24,-458.388"/>
<polygon fill="midnightblue" stroke="midnightblue" points="1145.63,-459.243 1145.05,-448.664 1138.91,-457.296 1145.63,-459.243"/>
</g>
<!-- Node42&#45;&gt;Node15 -->
<g id="edge200" class="edge"><title>Node42&#45;&gt;Node15</title>
<path fill="none" stroke="midnightblue" d="M1053.93,-608.497C1034.79,-599.397 1006.88,-586.127 985.418,-575.925"/>
<polygon fill="midnightblue" stroke="midnightblue" points="986.899,-572.754 976.365,-571.621 983.893,-579.076 986.899,-572.754"/>
</g>
<!-- Node43&#45;&gt;Node17 -->
<g id="edge204" class="edge"><title>Node43&#45;&gt;Node17</title>
<path fill="none" stroke="midnightblue" d="M489.207,-492.267C487.669,-483.18 485.42,-469.892 483.533,-458.74"/>
<polygon fill="midnightblue" stroke="midnightblue" points="486.926,-457.809 481.806,-448.534 480.024,-458.978 486.926,-457.809"/>
</g>
<!-- Node43&#45;&gt;Node27 -->
<g id="edge208" class="edge"><title>Node43&#45;&gt;Node27</title>
<path fill="none" stroke="midnightblue" d="M544.218,-492.452C626.999,-476.16 791.725,-444.224 932.023,-420 1015.97,-405.506 1113.51,-390.52 1173.75,-381.478"/>
<polygon fill="midnightblue" stroke="midnightblue" points="1174.45,-384.913 1183.83,-379.97 1173.42,-377.99 1174.45,-384.913"/>
</g>
<!-- Node43&#45;&gt;Node31 -->
<g id="edge206" class="edge"><title>Node43&#45;&gt;Node31</title>
<path fill="none" stroke="midnightblue" d="M507.963,-492.362C544.216,-469.594 629.502,-416.033 672.414,-389.083"/>
<polygon fill="midnightblue" stroke="midnightblue" points="674.533,-391.886 681.14,-383.603 670.81,-385.958 674.533,-391.886"/>
</g>
<!-- Node44&#45;&gt;Node3 -->
<g id="edge214" class="edge"><title>Node44&#45;&gt;Node3</title>
<path fill="none" stroke="midnightblue" d="M1525.37,-493.618C1439.02,-480.89 1286.13,-458.356 1203.96,-446.245"/>
<polygon fill="midnightblue" stroke="midnightblue" points="1204.22,-442.746 1193.82,-444.75 1203.2,-449.671 1204.22,-442.746"/>
</g>
<!-- Node44&#45;&gt;Node38 -->
<g id="edge216" class="edge"><title>Node44&#45;&gt;Node38</title>
<path fill="none" stroke="midnightblue" d="M1621.44,-492.412C1655.41,-481.316 1708.91,-463.843 1746.07,-451.702"/>
<polygon fill="midnightblue" stroke="midnightblue" points="1747.2,-455.015 1755.62,-448.584 1745.03,-448.361 1747.2,-455.015"/>
</g>
<!-- Node45&#45;&gt;Node3 -->
<g id="edge220" class="edge"><title>Node45&#45;&gt;Node3</title>
<path fill="none" stroke="midnightblue" d="M1749.72,-898.442C1682.53,-851.744 1415.06,-662.109 1370.02,-572 1354.1,-540.133 1387.83,-519.37 1365.02,-492 1344.63,-467.521 1261.17,-452.233 1203.91,-444.413"/>
<polygon fill="midnightblue" stroke="midnightblue" points="1204.27,-440.93 1193.9,-443.085 1203.35,-447.87 1204.27,-440.93"/>
</g>
<!-- Node45&#45;&gt;Node13 -->
<g id="edge222" class="edge"><title>Node45&#45;&gt;Node13</title>
<path fill="none" stroke="midnightblue" d="M1735.63,-898.429C1631.11,-860.831 1277.3,-733.572 1158.95,-691.003"/>
<polygon fill="midnightblue" stroke="midnightblue" points="1159.81,-687.592 1149.22,-687.501 1157.44,-694.179 1159.81,-687.592"/>
</g>
<!-- Node45&#45;&gt;Node23 -->
<g id="edge224" class="edge"><title>Node45&#45;&gt;Node23</title>
<path fill="none" stroke="midnightblue" d="M1768.51,-898.334C1780.78,-859.448 1820.41,-721.621 1805.02,-608 1801.44,-581.501 1802.1,-573.323 1789.02,-550 1722.27,-430.979 1666.7,-430.576 1579.02,-326 1547.99,-288.978 1514.87,-243.048 1497.1,-217.811"/>
<polygon fill="midnightblue" stroke="midnightblue" points="1499.89,-215.686 1491.28,-209.504 1494.15,-219.703 1499.89,-215.686"/>
</g>
<!-- Node45&#45;&gt;Node27 -->
<g id="edge228" class="edge"><title>Node45&#45;&gt;Node27</title>
<path fill="none" stroke="midnightblue" d="M1764.59,-898.242C1762.01,-839.454 1746.99,-557.311 1694.02,-492 1643.01,-429.098 1400.7,-392.943 1288.41,-379.311"/>
<polygon fill="midnightblue" stroke="midnightblue" points="1288.62,-375.812 1278.28,-378.1 1287.79,-382.763 1288.62,-375.812"/>
</g>
<!-- Node45&#45;&gt;Node32 -->
<g id="edge226" class="edge"><title>Node45&#45;&gt;Node32</title>
<path fill="none" stroke="midnightblue" d="M1788.08,-898.385C1838.51,-874.976 1955.08,-819.746 1967.02,-804 2033.15,-716.813 2033.77,-576.292 2031.39,-523.726"/>
<polygon fill="midnightblue" stroke="midnightblue" points="2034.88,-523.427 2030.85,-513.631 2027.89,-523.806 2034.88,-523.427"/>
</g>
<!-- Node45&#45;&gt;Node38 -->
<g id="edge230" class="edge"><title>Node45&#45;&gt;Node38</title>
<path fill="none" stroke="midnightblue" d="M1826.75,-902.774C1904.37,-894.314 2029.2,-878.356 2043.02,-862 2063.07,-838.284 2199.19,-802.767 1905.02,-492 1893.62,-479.957 1856.19,-463.754 1826.7,-452.247"/>
<polygon fill="midnightblue" stroke="midnightblue" points="1827.64,-448.86 1817.06,-448.538 1825.13,-455.394 1827.64,-448.86"/>
</g>
<!-- Node46 -->
<g id="node162" class="node"><title>Node46</title>
<a xlink:href="MojTokenSet_8h.htm" target="_top" xlink:title="core/MojTokenSet.h">
<polygon fill="white" stroke="black" points="1922.02,-840.5 1922.02,-861.5 2034.02,-861.5 2034.02,-840.5 1922.02,-840.5"/>
<text text-anchor="middle" x="1978.02" y="-848.5" font-family="Helvetica,sans-Serif" font-size="10.00">core/MojTokenSet.h</text>
</a>
</g>
<!-- Node45&#45;&gt;Node46 -->
<g id="edge232" class="edge"><title>Node45&#45;&gt;Node46</title>
<path fill="none" stroke="midnightblue" d="M1803.6,-898.497C1838.92,-888.877 1891.36,-874.598 1929.51,-864.209"/>
<polygon fill="midnightblue" stroke="midnightblue" points="1930.65,-867.528 1939.38,-861.523 1928.81,-860.773 1930.65,-867.528"/>
</g>
<!-- Node46&#45;&gt;Node4 -->
<g id="edge234" class="edge"><title>Node46&#45;&gt;Node4</title>
<path fill="none" stroke="midnightblue" d="M1999.87,-840.49C2044.09,-817.518 2140.02,-758.31 2140.02,-677 2140.02,-677 2140.02,-677 2140.02,-199 2140.02,-190.355 2199.98,-176.075 1946.02,-116 1820.15,-86.2238 1433.81,-74.1408 1278.09,-70.3953"/>
<polygon fill="midnightblue" stroke="midnightblue" points="1277.81,-66.8877 1267.73,-70.1502 1277.64,-73.8858 1277.81,-66.8877"/>
</g>
<!-- Node46&#45;&gt;Node32 -->
<g id="edge236" class="edge"><title>Node46&#45;&gt;Node32</title>
<path fill="none" stroke="midnightblue" d="M1987.33,-840.47C2009.2,-814.607 2062.02,-745.095 2062.02,-677 2062.02,-677 2062.02,-677 2062.02,-619 2062.02,-584.216 2048.49,-545.61 2039.02,-522.867"/>
<polygon fill="midnightblue" stroke="midnightblue" points="2042.2,-521.398 2035.02,-513.604 2035.77,-524.172 2042.2,-521.398"/>
</g>
<!-- Node47 -->
<g id="node166" class="node"><title>Node47</title>
<a xlink:href="MojSharedTokenSet_8h.htm" target="_top" xlink:title="core/MojSharedTokenSet.h">
<polygon fill="white" stroke="black" points="1812.02,-782.5 1812.02,-803.5 1958.02,-803.5 1958.02,-782.5 1812.02,-782.5"/>
<text text-anchor="middle" x="1885.02" y="-790.5" font-family="Helvetica,sans-Serif" font-size="10.00">core/MojSharedTokenSet.h</text>
</a>
</g>
<!-- Node46&#45;&gt;Node47 -->
<g id="edge238" class="edge"><title>Node46&#45;&gt;Node47</title>
<path fill="none" stroke="midnightblue" d="M1960.97,-840.362C1946.94,-831.614 1926.84,-819.079 1910.84,-809.101"/>
<polygon fill="midnightblue" stroke="midnightblue" points="1912.31,-805.893 1901.97,-803.571 1908.61,-811.832 1912.31,-805.893"/>
</g>
<!-- Node47&#45;&gt;Node12 -->
<g id="edge248" class="edge"><title>Node47&#45;&gt;Node12</title>
<path fill="none" stroke="midnightblue" d="M1811.66,-788.497C1637.67,-777.818 1201.13,-751.026 1020.36,-739.931"/>
<polygon fill="midnightblue" stroke="midnightblue" points="1020.32,-736.422 1010.12,-739.302 1019.89,-743.408 1020.32,-736.422"/>
</g>
<!-- Node47&#45;&gt;Node17 -->
<g id="edge242" class="edge"><title>Node47&#45;&gt;Node17</title>
<path fill="none" stroke="midnightblue" d="M1811.91,-792.01C1643.73,-789.215 1216.52,-779.168 861.023,-746 677.345,-728.863 628.109,-736.135 450.023,-688 337.582,-657.608 292.212,-659.227 215.023,-572 190.155,-543.898 164.022,-520.847 188.023,-492 195.492,-483.024 338.668,-459.702 421.707,-446.839"/>
<polygon fill="midnightblue" stroke="midnightblue" points="422.42,-450.27 431.769,-445.286 421.352,-443.352 422.42,-450.27"/>
</g>
<!-- Node47&#45;&gt;Node28 -->
<g id="edge246" class="edge"><title>Node47&#45;&gt;Node28</title>
<path fill="none" stroke="midnightblue" d="M1867.34,-782.247C1840.11,-764.178 1791.02,-724.954 1791.02,-677 1791.02,-677 1791.02,-677 1791.02,-619 1791.02,-547.975 1750.67,-534.849 1694.02,-492 1542.58,-377.439 1473.49,-397.895 1287.02,-362 1179.98,-341.395 1053.5,-327.379 981.034,-320.322"/>
<polygon fill="midnightblue" stroke="midnightblue" points="981.032,-316.805 970.743,-319.331 980.361,-323.773 981.032,-316.805"/>
</g>
<!-- Node47&#45;&gt;Node32 -->
<g id="edge240" class="edge"><title>Node47&#45;&gt;Node32</title>
<path fill="none" stroke="midnightblue" d="M1894.67,-782.361C1902.66,-773.185 1913.98,-759.342 1922.02,-746 1971.21,-664.369 1970.25,-637.064 2009.02,-550 2012.95,-541.178 2017.31,-531.429 2021.03,-523.108"/>
<polygon fill="midnightblue" stroke="midnightblue" points="2024.29,-524.381 2025.18,-513.824 2017.9,-521.524 2024.29,-524.381"/>
</g>
<!-- Node47&#45;&gt;Node38 -->
<g id="edge244" class="edge"><title>Node47&#45;&gt;Node38</title>
<path fill="none" stroke="midnightblue" d="M1888.62,-782.266C1895.09,-761.96 1908.02,-716.419 1908.02,-677 1908.02,-677 1908.02,-677 1908.02,-561 1908.02,-528.531 1904.86,-516.905 1884.02,-492 1869.26,-474.353 1847.17,-461.366 1827.9,-452.557"/>
<polygon fill="midnightblue" stroke="midnightblue" points="1829.28,-449.339 1818.71,-448.565 1826.49,-455.76 1829.28,-449.339"/>
</g>
<!-- Node48&#45;&gt;Node2 -->
<g id="edge254" class="edge"><title>Node48&#45;&gt;Node2</title>
<path fill="none" stroke="midnightblue" d="M1378.91,-555.836C1252.66,-547.347 993.994,-529.805 775.023,-514 750.621,-512.239 723.93,-510.247 700.12,-508.447"/>
<polygon fill="midnightblue" stroke="midnightblue" points="700.344,-504.954 690.108,-507.688 699.815,-511.934 700.344,-504.954"/>
</g>
<!-- Node48&#45;&gt;Node3 -->
<g id="edge252" class="edge"><title>Node48&#45;&gt;Node3</title>
<path fill="none" stroke="midnightblue" d="M1450.25,-550.467C1441.23,-535.058 1422.28,-506.618 1398.02,-492 1365.87,-472.626 1267.13,-455.287 1203.79,-445.747"/>
<polygon fill="midnightblue" stroke="midnightblue" points="1203.96,-442.235 1193.55,-444.227 1202.93,-449.159 1203.96,-442.235"/>
</g>
<!-- Node48&#45;&gt;Node21 -->
<g id="edge258" class="edge"><title>Node48&#45;&gt;Node21</title>
<path fill="none" stroke="midnightblue" d="M1378.61,-558.807C1141.55,-551.922 440.51,-530.23 423.023,-514 390.189,-483.525 395.398,-425.286 401.189,-394.042"/>
<polygon fill="midnightblue" stroke="midnightblue" points="404.698,-394.354 403.279,-383.854 397.841,-392.946 404.698,-394.354"/>
</g>
<!-- Node48&#45;&gt;Node27 -->
<g id="edge260" class="edge"><title>Node48&#45;&gt;Node27</title>
<path fill="none" stroke="midnightblue" d="M1453.12,-550.087C1448.79,-535.473 1439.46,-509.376 1424.02,-492 1379.76,-442.17 1309.63,-406.2 1267.2,-387.553"/>
<polygon fill="midnightblue" stroke="midnightblue" points="1268.39,-384.253 1257.82,-383.513 1265.62,-390.682 1268.39,-384.253"/>
</g>
<!-- Node48&#45;&gt;Node32 -->
<g id="edge256" class="edge"><title>Node48&#45;&gt;Node32</title>
<path fill="none" stroke="midnightblue" d="M1533.14,-553.208C1646.73,-541.73 1857.09,-520.474 1963.98,-509.673"/>
<polygon fill="midnightblue" stroke="midnightblue" points="1964.4,-513.149 1974,-508.661 1963.69,-506.184 1964.4,-513.149"/>
</g>
<!-- Node48&#45;&gt;Node38 -->
<g id="edge262" class="edge"><title>Node48&#45;&gt;Node38</title>
<path fill="none" stroke="midnightblue" d="M1526.48,-550.491C1566.81,-543.095 1617.83,-531.368 1661.02,-514 1699.88,-498.376 1740.74,-471.841 1765.3,-454.621"/>
<polygon fill="midnightblue" stroke="midnightblue" points="1767.45,-457.383 1773.57,-448.736 1763.4,-451.678 1767.45,-457.383"/>
</g>
<!-- Node49&#45;&gt;Node3 -->
<g id="edge272" class="edge"><title>Node49&#45;&gt;Node3</title>
<path fill="none" stroke="midnightblue" d="M1285.31,-492.412C1257.79,-481.505 1214.72,-464.436 1184.17,-452.327"/>
<polygon fill="midnightblue" stroke="midnightblue" points="1185.31,-449.014 1174.73,-448.584 1182.73,-455.522 1185.31,-449.014"/>
</g>
<!-- Node49&#45;&gt;Node27 -->
<g id="edge274" class="edge"><title>Node49&#45;&gt;Node27</title>
<path fill="none" stroke="midnightblue" d="M1305.39,-492.362C1291.81,-470.555 1260.62,-420.5 1243.26,-392.634"/>
<polygon fill="midnightblue" stroke="midnightblue" points="1246,-390.422 1237.74,-383.785 1240.06,-394.124 1246,-390.422"/>
</g>
<!-- Node50&#45;&gt;Node4 -->
<g id="edge284" class="edge"><title>Node50&#45;&gt;Node4</title>
<path fill="none" stroke="midnightblue" d="M2204.68,-840.185C2200.46,-819.744 2192.02,-773.989 2192.02,-735 2192.02,-735 2192.02,-735 2192.02,-199 2192.02,-116.514 2105.72,-137.258 2026.02,-116 1885.44,-78.5023 1445.75,-70.9199 1277.97,-69.3877"/>
<polygon fill="midnightblue" stroke="midnightblue" points="1277.83,-65.8864 1267.8,-69.2992 1277.77,-72.8861 1277.83,-65.8864"/>
</g>
</g>
</svg>
