<?xml version="1.0" encoding="UTF-8" standalone="no"?>
<!DOCTYPE svg PUBLIC "-//W3C//DTD SVG 1.1//EN"
 "http://www.w3.org/Graphics/SVG/1.1/DTD/svg11.dtd">
<!-- Generated by graphviz version 2.26.3 (20100126.1600)
 -->
<!-- Title: MojDbLevelDatabase.h Pages: 1 -->
<svg width="763pt" height="146pt"
 viewBox="0.00 0.00 763.00 146.00" xmlns="http://www.w3.org/2000/svg" xmlns:xlink="http://www.w3.org/1999/xlink">
<g id="graph1" class="graph" transform="scale(1 1) rotate(0) translate(4 142)">
<title>MojDbLevelDatabase.h</title>
<polygon fill="white" stroke="white" points="-4,5 -4,-142 760,-142 760,5 -4,5"/>
<!-- Node1 -->
<g id="node1" class="node"><title>Node1</title>
<polygon fill="#bfbfbf" stroke="black" points="327.5,-116.5 327.5,-137.5 452.5,-137.5 452.5,-116.5 327.5,-116.5"/>
<text text-anchor="middle" x="390" y="-124.5" font-family="Helvetica,sans-Serif" font-size="10.00">MojDbLevelDatabase.h</text>
</g>
<!-- Node2 -->
<g id="node3" class="node"><title>Node2</title>
<a xlink:href="MojDbLevelIndex_8h.htm" target="_top" xlink:title="MojDbLevelIndex.h">
<polygon fill="white" stroke="black" points="159.5,-58.5 159.5,-79.5 266.5,-79.5 266.5,-58.5 159.5,-58.5"/>
<text text-anchor="middle" x="213" y="-66.5" font-family="Helvetica,sans-Serif" font-size="10.00">MojDbLevelIndex.h</text>
</a>
</g>
<!-- Node1&#45;&gt;Node2 -->
<g id="edge2" class="edge"><title>Node1&#45;&gt;Node2</title>
<path fill="none" stroke="midnightblue" d="M348.126,-113.279C316.587,-102.944 273.988,-88.9849 245.113,-79.5231"/>
<polygon fill="midnightblue" stroke="midnightblue" points="347.354,-116.709 357.947,-116.497 349.534,-110.057 347.354,-116.709"/>
</g>
<!-- Node3 -->
<g id="node5" class="node"><title>Node3</title>
<a xlink:href="MojDbLevelDatabase_8cpp.htm" target="_top" xlink:title="MojDbLevelDatabase.cpp">
<polygon fill="white" stroke="black" points="-0.5,-0.5 -0.5,-21.5 136.5,-21.5 136.5,-0.5 -0.5,-0.5"/>
<text text-anchor="middle" x="68" y="-8.5" font-family="Helvetica,sans-Serif" font-size="10.00">MojDbLevelDatabase.cpp</text>
</a>
</g>
<!-- Node1&#45;&gt;Node3 -->
<g id="edge16" class="edge"><title>Node1&#45;&gt;Node3</title>
<path fill="none" stroke="midnightblue" d="M317.254,-122.131C268.315,-116.631 203.411,-104.922 151,-80 120.369,-65.4349 91.5613,-36.9731 77.3105,-21.5464"/>
<polygon fill="midnightblue" stroke="midnightblue" points="317.131,-125.637 327.444,-123.212 317.87,-118.676 317.131,-125.637"/>
</g>
<!-- Node5 -->
<g id="node9" class="node"><title>Node5</title>
<a xlink:href="MojDbLevelSeq_8h.htm" target="_top" xlink:title="MojDbLevelSeq.h">
<polygon fill="white" stroke="black" points="340.5,-58.5 340.5,-79.5 439.5,-79.5 439.5,-58.5 340.5,-58.5"/>
<text text-anchor="middle" x="390" y="-66.5" font-family="Helvetica,sans-Serif" font-size="10.00">MojDbLevelSeq.h</text>
</a>
</g>
<!-- Node1&#45;&gt;Node5 -->
<g id="edge8" class="edge"><title>Node1&#45;&gt;Node5</title>
<path fill="none" stroke="midnightblue" d="M390,-106.191C390,-97.1684 390,-86.9941 390,-79.5707"/>
<polygon fill="midnightblue" stroke="midnightblue" points="386.5,-106.362 390,-116.362 393.5,-106.362 386.5,-106.362"/>
</g>
<!-- Node6 -->
<g id="node11" class="node"><title>Node6</title>
<a xlink:href="MojDbLevelEngine_8cpp.htm" target="_top" xlink:title="MojDbLevelEngine.cpp">
<polygon fill="white" stroke="black" points="289.5,-0.5 289.5,-21.5 414.5,-21.5 414.5,-0.5 289.5,-0.5"/>
<text text-anchor="middle" x="352" y="-8.5" font-family="Helvetica,sans-Serif" font-size="10.00">MojDbLevelEngine.cpp</text>
</a>
</g>
<!-- Node1&#45;&gt;Node6 -->
<g id="edge18" class="edge"><title>Node1&#45;&gt;Node6</title>
<path fill="none" stroke="midnightblue" d="M360.33,-110.728C349.309,-102.993 338.03,-92.6467 332,-80 322.66,-60.4108 335.256,-35.5744 344.284,-21.6734"/>
<polygon fill="midnightblue" stroke="midnightblue" points="358.714,-113.852 369.007,-116.364 362.527,-107.982 358.714,-113.852"/>
</g>
<!-- Node7 -->
<g id="node13" class="node"><title>Node7</title>
<a xlink:href="MojDbLevelSeq_8cpp.htm" target="_top" xlink:title="MojDbLevelSeq.cpp">
<polygon fill="white" stroke="black" points="432,-0.5 432,-21.5 542,-21.5 542,-0.5 432,-0.5"/>
<text text-anchor="middle" x="487" y="-8.5" font-family="Helvetica,sans-Serif" font-size="10.00">MojDbLevelSeq.cpp</text>
</a>
</g>
<!-- Node1&#45;&gt;Node7 -->
<g id="edge22" class="edge"><title>Node1&#45;&gt;Node7</title>
<path fill="none" stroke="midnightblue" d="M414.584,-110.332C425.647,-102.057 438.357,-91.3994 448,-80 463.641,-61.5101 476.209,-35.8305 482.537,-21.5864"/>
<polygon fill="midnightblue" stroke="midnightblue" points="412.208,-107.731 406.154,-116.426 416.309,-113.404 412.208,-107.731"/>
</g>
<!-- Node8 -->
<g id="node15" class="node"><title>Node8</title>
<a xlink:href="MojDbLevelCursor_8cpp.htm" target="_top" xlink:title="MojDbLevelCursor.cpp">
<polygon fill="white" stroke="black" points="494.5,-58.5 494.5,-79.5 617.5,-79.5 617.5,-58.5 494.5,-58.5"/>
<text text-anchor="middle" x="556" y="-66.5" font-family="Helvetica,sans-Serif" font-size="10.00">MojDbLevelCursor.cpp</text>
</a>
</g>
<!-- Node1&#45;&gt;Node8 -->
<g id="edge14" class="edge"><title>Node1&#45;&gt;Node8</title>
<path fill="none" stroke="midnightblue" d="M429.656,-113.144C459.196,-102.823 498.919,-88.9439 525.882,-79.5231"/>
<polygon fill="midnightblue" stroke="midnightblue" points="428.347,-109.894 420.061,-116.497 430.656,-116.502 428.347,-109.894"/>
</g>
<!-- Node9 -->
<g id="node19" class="node"><title>Node9</title>
<a xlink:href="MojDbLevelQuery_8cpp.htm" target="_top" xlink:title="MojDbLevelQuery.cpp">
<polygon fill="white" stroke="black" points="635,-58.5 635,-79.5 755,-79.5 755,-58.5 635,-58.5"/>
<text text-anchor="middle" x="695" y="-66.5" font-family="Helvetica,sans-Serif" font-size="10.00">MojDbLevelQuery.cpp</text>
</a>
</g>
<!-- Node1&#45;&gt;Node9 -->
<g id="edge20" class="edge"><title>Node1&#45;&gt;Node9</title>
<path fill="none" stroke="midnightblue" d="M455.207,-114.6C510.103,-104.161 587.753,-89.3945 639.663,-79.5231"/>
<polygon fill="midnightblue" stroke="midnightblue" points="454.403,-111.19 445.233,-116.497 455.711,-118.067 454.403,-111.19"/>
</g>
<!-- Node2&#45;&gt;Node3 -->
<g id="edge4" class="edge"><title>Node2&#45;&gt;Node3</title>
<path fill="none" stroke="midnightblue" d="M177.377,-54.7509C151.771,-44.5086 117.801,-30.9206 94.553,-21.6212"/>
<polygon fill="midnightblue" stroke="midnightblue" points="176.157,-58.0323 186.742,-58.4966 178.757,-51.533 176.157,-58.0323"/>
</g>
<!-- Node4 -->
<g id="node7" class="node"><title>Node4</title>
<a xlink:href="MojDbLevelIndex_8cpp.htm" target="_top" xlink:title="MojDbLevelIndex.cpp">
<polygon fill="white" stroke="black" points="154,-0.5 154,-21.5 272,-21.5 272,-0.5 154,-0.5"/>
<text text-anchor="middle" x="213" y="-8.5" font-family="Helvetica,sans-Serif" font-size="10.00">MojDbLevelIndex.cpp</text>
</a>
</g>
<!-- Node2&#45;&gt;Node4 -->
<g id="edge6" class="edge"><title>Node2&#45;&gt;Node4</title>
<path fill="none" stroke="midnightblue" d="M213,-48.1906C213,-39.1684 213,-28.9941 213,-21.5707"/>
<polygon fill="midnightblue" stroke="midnightblue" points="209.5,-48.3619 213,-58.3619 216.5,-48.3619 209.5,-48.3619"/>
</g>
<!-- Node5&#45;&gt;Node6 -->
<g id="edge10" class="edge"><title>Node5&#45;&gt;Node6</title>
<path fill="none" stroke="midnightblue" d="M377.525,-49.9591C371.342,-40.522 364.11,-29.4835 358.926,-21.5707"/>
<polygon fill="midnightblue" stroke="midnightblue" points="374.622,-51.9154 383.03,-58.3619 380.478,-48.0792 374.622,-51.9154"/>
</g>
<!-- Node5&#45;&gt;Node7 -->
<g id="edge12" class="edge"><title>Node5&#45;&gt;Node7</title>
<path fill="none" stroke="midnightblue" d="M416.59,-53.1009C433.373,-43.0658 454.587,-30.3808 469.321,-21.5707"/>
<polygon fill="midnightblue" stroke="midnightblue" points="414.578,-50.226 407.791,-58.3619 418.17,-56.2339 414.578,-50.226"/>
</g>
</g>
</svg>
