<?xml version="1.0" encoding="UTF-8" standalone="no"?>
<!DOCTYPE svg PUBLIC "-//W3C//DTD SVG 1.1//EN"
 "http://www.w3.org/Graphics/SVG/1.1/DTD/svg11.dtd">
<!-- Generated by graphviz version 2.26.3 (20100126.1600)
 -->
<!-- Title: MojDbServiceHandler.h Pages: 1 -->
<svg width="702pt" height="146pt"
 viewBox="0.00 0.00 702.00 146.00" xmlns="http://www.w3.org/2000/svg" xmlns:xlink="http://www.w3.org/1999/xlink">
<g id="graph1" class="graph" transform="scale(1 1) rotate(0) translate(4 142)">
<title>MojDbServiceHandler.h</title>
<polygon fill="white" stroke="white" points="-4,5 -4,-142 699,-142 699,5 -4,5"/>
<!-- Node1 -->
<g id="node1" class="node"><title>Node1</title>
<polygon fill="#bfbfbf" stroke="black" points="356,-116.5 356,-137.5 484,-137.5 484,-116.5 356,-116.5"/>
<text text-anchor="middle" x="420" y="-124.5" font-family="Helvetica,sans-Serif" font-size="10.00">MojDbServiceHandler.h</text>
</g>
<!-- Node2 -->
<g id="node3" class="node"><title>Node2</title>
<a xlink:href="MojDbServiceHandler_8cpp.htm" target="_top" xlink:title="MojDbServiceHandler.cpp">
<polygon fill="white" stroke="black" points="-0.5,-58.5 -0.5,-79.5 138.5,-79.5 138.5,-58.5 -0.5,-58.5"/>
<text text-anchor="middle" x="69" y="-66.5" font-family="Helvetica,sans-Serif" font-size="10.00">MojDbServiceHandler.cpp</text>
</a>
</g>
<!-- Node1&#45;&gt;Node2 -->
<g id="edge2" class="edge"><title>Node1&#45;&gt;Node2</title>
<path fill="none" stroke="midnightblue" d="M346.525,-114.859C283.268,-104.406 192.918,-89.4764 132.683,-79.5231"/>
<polygon fill="midnightblue" stroke="midnightblue" points="346,-118.319 356.437,-116.497 347.141,-111.413 346,-118.319"/>
</g>
<!-- Node3 -->
<g id="node5" class="node"><title>Node3</title>
<a xlink:href="MojDbServiceHandlerInternal_8cpp.htm" target="_top" xlink:title="MojDbServiceHandlerInternal.cpp">
<polygon fill="white" stroke="black" points="155.5,-58.5 155.5,-79.5 330.5,-79.5 330.5,-58.5 155.5,-58.5"/>
<text text-anchor="middle" x="243" y="-66.5" font-family="Helvetica,sans-Serif" font-size="10.00">MojDbServiceHandlerInternal.cpp</text>
</a>
</g>
<!-- Node1&#45;&gt;Node3 -->
<g id="edge4" class="edge"><title>Node1&#45;&gt;Node3</title>
<path fill="none" stroke="midnightblue" d="M378.126,-113.279C346.587,-102.944 303.988,-88.9849 275.113,-79.5231"/>
<polygon fill="midnightblue" stroke="midnightblue" points="377.354,-116.709 387.947,-116.497 379.534,-110.057 377.354,-116.709"/>
</g>
<!-- Node4 -->
<g id="node7" class="node"><title>Node4</title>
<a xlink:href="MojDbServiceSchemas_8cpp.htm" target="_top" xlink:title="MojDbServiceSchemas.cpp">
<polygon fill="white" stroke="black" points="347.5,-58.5 347.5,-79.5 492.5,-79.5 492.5,-58.5 347.5,-58.5"/>
<text text-anchor="middle" x="420" y="-66.5" font-family="Helvetica,sans-Serif" font-size="10.00">MojDbServiceSchemas.cpp</text>
</a>
</g>
<!-- Node1&#45;&gt;Node4 -->
<g id="edge6" class="edge"><title>Node1&#45;&gt;Node4</title>
<path fill="none" stroke="midnightblue" d="M420,-106.191C420,-97.1684 420,-86.9941 420,-79.5707"/>
<polygon fill="midnightblue" stroke="midnightblue" points="416.5,-106.362 420,-116.362 423.5,-106.362 416.5,-106.362"/>
</g>
<!-- Node5 -->
<g id="node9" class="node"><title>Node5</title>
<a xlink:href="MojDbLunaServiceApp_8h.htm" target="_top" xlink:title="MojDbLunaServiceApp.h">
<polygon fill="white" stroke="black" points="510,-58.5 510,-79.5 642,-79.5 642,-58.5 510,-58.5"/>
<text text-anchor="middle" x="576" y="-66.5" font-family="Helvetica,sans-Serif" font-size="10.00">MojDbLunaServiceApp.h</text>
</a>
</g>
<!-- Node1&#45;&gt;Node5 -->
<g id="edge8" class="edge"><title>Node1&#45;&gt;Node5</title>
<path fill="none" stroke="midnightblue" d="M457.63,-113.009C485.352,-102.702 522.468,-88.903 547.697,-79.5231"/>
<polygon fill="midnightblue" stroke="midnightblue" points="456.404,-109.731 448.25,-116.497 458.843,-116.292 456.404,-109.731"/>
</g>
<!-- Node6 -->
<g id="node11" class="node"><title>Node6</title>
<a xlink:href="MojDbLunaServiceApp_8cpp.htm" target="_top" xlink:title="MojDbLunaServiceApp.cpp">
<polygon fill="white" stroke="black" points="551.5,-0.5 551.5,-21.5 694.5,-21.5 694.5,-0.5 551.5,-0.5"/>
<text text-anchor="middle" x="623" y="-8.5" font-family="Helvetica,sans-Serif" font-size="10.00">MojDbLunaServiceApp.cpp</text>
</a>
</g>
<!-- Node1&#45;&gt;Node6 -->
<g id="edge12" class="edge"><title>Node1&#45;&gt;Node6</title>
<path fill="none" stroke="midnightblue" d="M494.261,-121.898C554.099,-116.058 631.387,-104.005 651,-80 665.396,-62.3801 646.763,-36.3743 633.712,-21.8413"/>
<polygon fill="midnightblue" stroke="midnightblue" points="493.697,-118.436 484.065,-122.851 494.348,-125.405 493.697,-118.436"/>
</g>
<!-- Node5&#45;&gt;Node6 -->
<g id="edge10" class="edge"><title>Node5&#45;&gt;Node6</title>
<path fill="none" stroke="midnightblue" d="M590.958,-50.5407C598.707,-40.9786 607.89,-29.6467 614.434,-21.5707"/>
<polygon fill="midnightblue" stroke="midnightblue" points="588.197,-48.389 584.621,-58.3619 593.636,-52.7961 588.197,-48.389"/>
</g>
</g>
</svg>
