<?xml version="1.0" encoding="UTF-8" standalone="no"?>
<!DOCTYPE svg PUBLIC "-//W3C//DTD SVG 1.1//EN"
 "http://www.w3.org/Graphics/SVG/1.1/DTD/svg11.dtd">
<!-- Generated by graphviz version 2.26.3 (20100126.1600)
 -->
<!-- Title: MojEpollReactor.cpp Pages: 1 -->
<svg width="1370pt" height="826pt"
 viewBox="0.00 0.00 1370.07 826.00" xmlns="http://www.w3.org/2000/svg" xmlns:xlink="http://www.w3.org/1999/xlink">
<g id="graph1" class="graph" transform="scale(1 1) rotate(0) translate(4 822)">
<title>MojEpollReactor.cpp</title>
<polygon fill="white" stroke="white" points="-4,5 -4,-822 1367.07,-822 1367.07,5 -4,5"/>
<!-- Node1 -->
<g id="node1" class="node"><title>Node1</title>
<polygon fill="#bfbfbf" stroke="black" points="432.07,-796.5 432.07,-817.5 546.07,-817.5 546.07,-796.5 432.07,-796.5"/>
<text text-anchor="middle" x="489.07" y="-804.5" font-family="Helvetica,sans-Serif" font-size="10.00">MojEpollReactor.cpp</text>
</g>
<!-- Node2 -->
<g id="node3" class="node"><title>Node2</title>
<a xlink:href="MojEpollReactor_8h.htm" target="_top" xlink:title="core/MojEpollReactor.h">
<polygon fill="white" stroke="black" points="425.57,-738.5 425.57,-759.5 552.57,-759.5 552.57,-738.5 425.57,-738.5"/>
<text text-anchor="middle" x="489.07" y="-746.5" font-family="Helvetica,sans-Serif" font-size="10.00">core/MojEpollReactor.h</text>
</a>
</g>
<!-- Node1&#45;&gt;Node2 -->
<g id="edge2" class="edge"><title>Node1&#45;&gt;Node2</title>
<path fill="none" stroke="midnightblue" d="M489.07,-796.362C489.07,-788.922 489.07,-778.743 489.07,-769.728"/>
<polygon fill="midnightblue" stroke="midnightblue" points="492.57,-769.571 489.07,-759.571 485.57,-769.571 492.57,-769.571"/>
</g>
<!-- Node3 -->
<g id="node5" class="node"><title>Node3</title>
<a xlink:href="MojReactor_8h.htm" target="_top" xlink:title="core/MojReactor.h">
<polygon fill="white" stroke="black" points="984.07,-680.5 984.07,-701.5 1088.07,-701.5 1088.07,-680.5 984.07,-680.5"/>
<text text-anchor="middle" x="1036.07" y="-688.5" font-family="Helvetica,sans-Serif" font-size="10.00">core/MojReactor.h</text>
</a>
</g>
<!-- Node2&#45;&gt;Node3 -->
<g id="edge4" class="edge"><title>Node2&#45;&gt;Node3</title>
<path fill="none" stroke="midnightblue" d="M552.62,-742.262C658.331,-731.053 869.016,-708.713 973.844,-697.598"/>
<polygon fill="midnightblue" stroke="midnightblue" points="974.381,-701.061 983.956,-696.526 973.642,-694.1 974.381,-701.061"/>
</g>
<!-- Node17 -->
<g id="node35" class="node"><title>Node17</title>
<a xlink:href="MojThread_8h.htm" target="_top" xlink:title="core/MojThread.h">
<polygon fill="white" stroke="black" points="438.57,-557.5 438.57,-578.5 539.57,-578.5 539.57,-557.5 438.57,-557.5"/>
<text text-anchor="middle" x="489.07" y="-565.5" font-family="Helvetica,sans-Serif" font-size="10.00">core/MojThread.h</text>
</a>
</g>
<!-- Node2&#45;&gt;Node17 -->
<g id="edge108" class="edge"><title>Node2&#45;&gt;Node17</title>
<path fill="none" stroke="midnightblue" d="M489.07,-738.486C489.07,-709.37 489.07,-627.292 489.07,-588.63"/>
<polygon fill="midnightblue" stroke="midnightblue" points="492.57,-588.543 489.07,-578.543 485.57,-588.543 492.57,-588.543"/>
</g>
<!-- Node30 -->
<g id="node74" class="node"><title>Node30</title>
<a xlink:href="MojHashMap_8h.htm" target="_top" xlink:title="core/MojHashMap.h">
<polygon fill="white" stroke="black" points="215.07,-622.5 215.07,-643.5 327.07,-643.5 327.07,-622.5 215.07,-622.5"/>
<text text-anchor="middle" x="271.07" y="-630.5" font-family="Helvetica,sans-Serif" font-size="10.00">core/MojHashMap.h</text>
</a>
</g>
<!-- Node2&#45;&gt;Node30 -->
<g id="edge88" class="edge"><title>Node2&#45;&gt;Node30</title>
<path fill="none" stroke="midnightblue" d="M468.951,-738.295C430.081,-717.612 344.55,-672.099 299.737,-648.254"/>
<polygon fill="midnightblue" stroke="midnightblue" points="301.296,-645.119 290.824,-643.512 298.008,-651.299 301.296,-645.119"/>
</g>
<!-- Node4 -->
<g id="node7" class="node"><title>Node4</title>
<a xlink:href="MojCoreDefs_8h.htm" target="_top" xlink:title="core/MojCoreDefs.h">
<polygon fill="white" stroke="black" points="651.57,-232.5 651.57,-253.5 762.57,-253.5 762.57,-232.5 651.57,-232.5"/>
<text text-anchor="middle" x="707.07" y="-240.5" font-family="Helvetica,sans-Serif" font-size="10.00">core/MojCoreDefs.h</text>
</a>
</g>
<!-- Node3&#45;&gt;Node4 -->
<g id="edge6" class="edge"><title>Node3&#45;&gt;Node4</title>
<path fill="none" stroke="midnightblue" d="M1088.09,-682.476C1180.12,-665.91 1362.07,-625.845 1362.07,-568 1362.07,-568 1362.07,-568 1362.07,-366 1362.07,-265.069 1246.49,-312.391 1148.07,-290 1017.13,-260.208 859.911,-249.195 773,-245.201"/>
<polygon fill="midnightblue" stroke="midnightblue" points="772.901,-241.693 762.756,-244.748 772.591,-248.686 772.901,-241.693"/>
</g>
<!-- Node14 -->
<g id="node27" class="node"><title>Node14</title>
<a xlink:href="MojSignal_8h.htm" target="_top" xlink:title="core/MojSignal.h">
<polygon fill="white" stroke="black" points="988.57,-622.5 988.57,-643.5 1083.57,-643.5 1083.57,-622.5 988.57,-622.5"/>
<text text-anchor="middle" x="1036.07" y="-630.5" font-family="Helvetica,sans-Serif" font-size="10.00">core/MojSignal.h</text>
</a>
</g>
<!-- Node3&#45;&gt;Node14 -->
<g id="edge26" class="edge"><title>Node3&#45;&gt;Node14</title>
<path fill="none" stroke="midnightblue" d="M1036.07,-680.362C1036.07,-672.922 1036.07,-662.743 1036.07,-653.728"/>
<polygon fill="midnightblue" stroke="midnightblue" points="1039.57,-653.571 1036.07,-643.571 1032.57,-653.571 1039.57,-653.571"/>
</g>
<!-- Node5 -->
<g id="node9" class="node"><title>Node5</title>
<a xlink:href="MojConfig_8h.htm" target="_top" xlink:title="core/internal/MojConfig.h">
<polygon fill="white" stroke="black" points="639.57,-174.5 639.57,-195.5 774.57,-195.5 774.57,-174.5 639.57,-174.5"/>
<text text-anchor="middle" x="707.07" y="-182.5" font-family="Helvetica,sans-Serif" font-size="10.00">core/internal/MojConfig.h</text>
</a>
</g>
<!-- Node4&#45;&gt;Node5 -->
<g id="edge8" class="edge"><title>Node4&#45;&gt;Node5</title>
<path fill="none" stroke="midnightblue" d="M707.07,-232.362C707.07,-224.922 707.07,-214.743 707.07,-205.728"/>
<polygon fill="midnightblue" stroke="midnightblue" points="710.57,-205.571 707.07,-195.571 703.57,-205.571 710.57,-205.571"/>
</g>
<!-- Node6 -->
<g id="node11" class="node"><title>Node6</title>
<a xlink:href="MojNew_8h.htm" target="_top" xlink:title="core/internal/MojNew.h">
<polygon fill="white" stroke="black" points="889.57,-174.5 889.57,-195.5 1014.57,-195.5 1014.57,-174.5 889.57,-174.5"/>
<text text-anchor="middle" x="952.07" y="-182.5" font-family="Helvetica,sans-Serif" font-size="10.00">core/internal/MojNew.h</text>
</a>
</g>
<!-- Node4&#45;&gt;Node6 -->
<g id="edge10" class="edge"><title>Node4&#45;&gt;Node6</title>
<path fill="none" stroke="midnightblue" d="M751.437,-232.497C792.503,-222.775 853.673,-208.294 897.668,-197.879"/>
<polygon fill="midnightblue" stroke="midnightblue" points="898.694,-201.233 907.619,-195.523 897.081,-194.421 898.694,-201.233"/>
</g>
<!-- Node8 -->
<g id="node15" class="node"><title>Node8</title>
<a xlink:href="MojErr_8h.htm" target="_top" xlink:title="core/MojErr.h">
<polygon fill="white" stroke="black" points="542.07,-174.5 542.07,-195.5 622.07,-195.5 622.07,-174.5 542.07,-174.5"/>
<text text-anchor="middle" x="582.07" y="-182.5" font-family="Helvetica,sans-Serif" font-size="10.00">core/MojErr.h</text>
</a>
</g>
<!-- Node4&#45;&gt;Node8 -->
<g id="edge14" class="edge"><title>Node4&#45;&gt;Node8</title>
<path fill="none" stroke="midnightblue" d="M684.433,-232.497C664.822,-223.397 636.223,-210.127 614.236,-199.925"/>
<polygon fill="midnightblue" stroke="midnightblue" points="615.504,-196.655 604.96,-195.621 612.558,-203.005 615.504,-196.655"/>
</g>
<!-- Node12 -->
<g id="node23" class="node"><title>Node12</title>
<a xlink:href="MojOs_8h.htm" target="_top" xlink:title="core/MojOs.h">
<polygon fill="white" stroke="black" points="792.07,-174.5 792.07,-195.5 872.07,-195.5 872.07,-174.5 792.07,-174.5"/>
<text text-anchor="middle" x="832.07" y="-182.5" font-family="Helvetica,sans-Serif" font-size="10.00">core/MojOs.h</text>
</a>
</g>
<!-- Node4&#45;&gt;Node12 -->
<g id="edge22" class="edge"><title>Node4&#45;&gt;Node12</title>
<path fill="none" stroke="midnightblue" d="M729.706,-232.497C749.318,-223.397 777.916,-210.127 799.903,-199.925"/>
<polygon fill="midnightblue" stroke="midnightblue" points="801.581,-203.005 809.179,-195.621 798.635,-196.655 801.581,-203.005"/>
</g>
<!-- Node7 -->
<g id="node13" class="node"><title>Node7</title>
<polygon fill="white" stroke="#bfbfbf" points="934.07,-116.5 934.07,-137.5 970.07,-137.5 970.07,-116.5 934.07,-116.5"/>
<text text-anchor="middle" x="952.07" y="-124.5" font-family="Helvetica,sans-Serif" font-size="10.00">new</text>
</g>
<!-- Node6&#45;&gt;Node7 -->
<g id="edge12" class="edge"><title>Node6&#45;&gt;Node7</title>
<path fill="none" stroke="midnightblue" d="M952.07,-174.362C952.07,-166.922 952.07,-156.743 952.07,-147.728"/>
<polygon fill="midnightblue" stroke="midnightblue" points="955.57,-147.571 952.07,-137.571 948.57,-147.571 955.57,-147.571"/>
</g>
<!-- Node9 -->
<g id="node17" class="node"><title>Node9</title>
<a xlink:href="MojLog_8h.htm" target="_top" xlink:title="core/MojLog.h">
<polygon fill="white" stroke="black" points="597.07,-116.5 597.07,-137.5 681.07,-137.5 681.07,-116.5 597.07,-116.5"/>
<text text-anchor="middle" x="639.07" y="-124.5" font-family="Helvetica,sans-Serif" font-size="10.00">core/MojLog.h</text>
</a>
</g>
<!-- Node8&#45;&gt;Node9 -->
<g id="edge16" class="edge"><title>Node8&#45;&gt;Node9</title>
<path fill="none" stroke="midnightblue" d="M592.524,-174.362C600.64,-166.104 612.071,-154.472 621.574,-144.803"/>
<polygon fill="midnightblue" stroke="midnightblue" points="624.168,-147.156 628.681,-137.571 619.176,-142.25 624.168,-147.156"/>
</g>
<!-- Node10 -->
<g id="node19" class="node"><title>Node10</title>
<a xlink:href="MojListEntry_8h.htm" target="_top" xlink:title="core/MojListEntry.h">
<polygon fill="white" stroke="black" points="762.57,-58.5 762.57,-79.5 869.57,-79.5 869.57,-58.5 762.57,-58.5"/>
<text text-anchor="middle" x="816.07" y="-66.5" font-family="Helvetica,sans-Serif" font-size="10.00">core/MojListEntry.h</text>
</a>
</g>
<!-- Node9&#45;&gt;Node10 -->
<g id="edge18" class="edge"><title>Node9&#45;&gt;Node10</title>
<path fill="none" stroke="midnightblue" d="M671.123,-116.497C699.979,-107.041 742.575,-93.0829 774.13,-82.7428"/>
<polygon fill="midnightblue" stroke="midnightblue" points="775.543,-85.963 783.956,-79.5231 773.363,-79.3111 775.543,-85.963"/>
</g>
<!-- Node11 -->
<g id="node21" class="node"><title>Node11</title>
<a xlink:href="MojNoCopy_8h.htm" target="_top" xlink:title="core/MojNoCopy.h">
<polygon fill="white" stroke="black" points="893.07,-0.5 893.07,-21.5 997.07,-21.5 997.07,-0.5 893.07,-0.5"/>
<text text-anchor="middle" x="945.07" y="-8.5" font-family="Helvetica,sans-Serif" font-size="10.00">core/MojNoCopy.h</text>
</a>
</g>
<!-- Node10&#45;&gt;Node11 -->
<g id="edge20" class="edge"><title>Node10&#45;&gt;Node11</title>
<path fill="none" stroke="midnightblue" d="M839.431,-58.4966C859.76,-49.3562 889.448,-36.0082 912.178,-25.7883"/>
<polygon fill="midnightblue" stroke="midnightblue" points="913.761,-28.9142 921.447,-21.6212 910.891,-22.5298 913.761,-28.9142"/>
</g>
<!-- Node13 -->
<g id="node25" class="node"><title>Node13</title>
<a xlink:href="MojOsInternal_8h.htm" target="_top" xlink:title="core/internal/MojOsInternal.h">
<polygon fill="white" stroke="black" points="755.07,-116.5 755.07,-137.5 909.07,-137.5 909.07,-116.5 755.07,-116.5"/>
<text text-anchor="middle" x="832.07" y="-124.5" font-family="Helvetica,sans-Serif" font-size="10.00">core/internal/MojOsInternal.h</text>
</a>
</g>
<!-- Node12&#45;&gt;Node13 -->
<g id="edge24" class="edge"><title>Node12&#45;&gt;Node13</title>
<path fill="none" stroke="midnightblue" d="M832.07,-174.362C832.07,-166.922 832.07,-156.743 832.07,-147.728"/>
<polygon fill="midnightblue" stroke="midnightblue" points="835.57,-147.571 832.07,-137.571 828.57,-147.571 835.57,-147.571"/>
</g>
<!-- Node14&#45;&gt;Node4 -->
<g id="edge28" class="edge"><title>Node14&#45;&gt;Node4</title>
<path fill="none" stroke="midnightblue" d="M1036.07,-622.214C1036.07,-599.939 1036.07,-547.236 1036.07,-503 1036.07,-503 1036.07,-503 1036.07,-366 1036.07,-355.432 1035.73,-335.872 932.07,-290 881.18,-267.48 818.967,-255.548 772.868,-249.352"/>
<polygon fill="midnightblue" stroke="midnightblue" points="773.062,-245.848 762.697,-248.042 772.168,-252.791 773.062,-245.848"/>
</g>
<!-- Node15 -->
<g id="node30" class="node"><title>Node15</title>
<a xlink:href="MojList_8h.htm" target="_top" xlink:title="core/MojList.h">
<polygon fill="white" stroke="black" points="1063.57,-557.5 1063.57,-578.5 1146.57,-578.5 1146.57,-557.5 1063.57,-557.5"/>
<text text-anchor="middle" x="1105.07" y="-565.5" font-family="Helvetica,sans-Serif" font-size="10.00">core/MojList.h</text>
</a>
</g>
<!-- Node14&#45;&gt;Node15 -->
<g id="edge30" class="edge"><title>Node14&#45;&gt;Node15</title>
<path fill="none" stroke="midnightblue" d="M1047.46,-622.267C1058.01,-612.328 1073.9,-597.363 1086.32,-585.664"/>
<polygon fill="midnightblue" stroke="midnightblue" points="1089.01,-587.938 1093.89,-578.534 1084.21,-582.843 1089.01,-587.938"/>
</g>
<!-- Node14&#45;&gt;Node17 -->
<g id="edge36" class="edge"><title>Node14&#45;&gt;Node17</title>
<path fill="none" stroke="midnightblue" d="M988.484,-627.345C889.148,-615.541 659.854,-588.294 549.957,-575.235"/>
<polygon fill="midnightblue" stroke="midnightblue" points="550.046,-571.721 539.703,-574.017 549.22,-578.672 550.046,-571.721"/>
</g>
<!-- Node22 -->
<g id="node50" class="node"><title>Node22</title>
<a xlink:href="MojVector_8h.htm" target="_top" xlink:title="core/MojVector.h">
<polygon fill="white" stroke="black" points="757.57,-557.5 757.57,-578.5 854.57,-578.5 854.57,-557.5 757.57,-557.5"/>
<text text-anchor="middle" x="806.07" y="-565.5" font-family="Helvetica,sans-Serif" font-size="10.00">core/MojVector.h</text>
</a>
</g>
<!-- Node14&#45;&gt;Node22 -->
<g id="edge56" class="edge"><title>Node14&#45;&gt;Node22</title>
<path fill="none" stroke="midnightblue" d="M998.861,-622.484C959.111,-611.251 896.019,-593.421 852.914,-581.239"/>
<polygon fill="midnightblue" stroke="midnightblue" points="853.8,-577.852 843.225,-578.501 851.896,-584.588 853.8,-577.852"/>
</g>
<!-- Node29 -->
<g id="node72" class="node"><title>Node29</title>
<a xlink:href="MojSignalInternal_8h.htm" target="_top" xlink:title="core/internal/MojSignalInternal.h">
<polygon fill="white" stroke="black" points="1164.07,-557.5 1164.07,-578.5 1334.07,-578.5 1334.07,-557.5 1164.07,-557.5"/>
<text text-anchor="middle" x="1249.07" y="-565.5" font-family="Helvetica,sans-Serif" font-size="10.00">core/internal/MojSignalInternal.h</text>
</a>
</g>
<!-- Node14&#45;&gt;Node29 -->
<g id="edge86" class="edge"><title>Node14&#45;&gt;Node29</title>
<path fill="none" stroke="midnightblue" d="M1070.77,-622.412C1107.28,-611.269 1164.87,-593.694 1204.68,-581.547"/>
<polygon fill="midnightblue" stroke="midnightblue" points="1205.85,-584.85 1214.39,-578.584 1203.8,-578.155 1205.85,-584.85"/>
</g>
<!-- Node15&#45;&gt;Node4 -->
<g id="edge32" class="edge"><title>Node15&#45;&gt;Node4</title>
<path fill="none" stroke="midnightblue" d="M1132.76,-557.443C1167.24,-544.068 1222.45,-521.818 1229.07,-514 1251.57,-487.427 1248.07,-472.817 1248.07,-438 1248.07,-438 1248.07,-438 1248.07,-366 1248.07,-271.74 1141.37,-313.442 1050.07,-290 955.519,-265.722 842.883,-253.332 773.166,-247.518"/>
<polygon fill="midnightblue" stroke="midnightblue" points="773.027,-243.995 762.776,-246.673 772.46,-250.972 773.027,-243.995"/>
</g>
<!-- Node16 -->
<g id="node33" class="node"><title>Node16</title>
<a xlink:href="MojListInternal_8h.htm" target="_top" xlink:title="core/internal/MojListInternal.h">
<polygon fill="white" stroke="black" points="1063.57,-492.5 1063.57,-513.5 1220.57,-513.5 1220.57,-492.5 1063.57,-492.5"/>
<text text-anchor="middle" x="1142.07" y="-500.5" font-family="Helvetica,sans-Serif" font-size="10.00">core/internal/MojListInternal.h</text>
</a>
</g>
<!-- Node15&#45;&gt;Node16 -->
<g id="edge34" class="edge"><title>Node15&#45;&gt;Node16</title>
<path fill="none" stroke="midnightblue" d="M1111.18,-557.267C1116.57,-547.801 1124.55,-533.777 1131.05,-522.357"/>
<polygon fill="midnightblue" stroke="midnightblue" points="1134.17,-523.956 1136.07,-513.534 1128.08,-520.493 1134.17,-523.956"/>
</g>
<!-- Node17&#45;&gt;Node4 -->
<g id="edge38" class="edge"><title>Node17&#45;&gt;Node4</title>
<path fill="none" stroke="midnightblue" d="M450.28,-557.394C405.42,-542.812 333.695,-511.805 302.07,-456 277.621,-412.859 307.372,-392.087 330.07,-348 344.176,-320.6 342.029,-306.481 368.07,-290 412.214,-262.06 555.671,-250.328 641.171,-245.72"/>
<polygon fill="midnightblue" stroke="midnightblue" points="641.496,-249.208 651.3,-245.193 641.132,-242.218 641.496,-249.208"/>
</g>
<!-- Node18 -->
<g id="node38" class="node"><title>Node18</title>
<a xlink:href="MojAtomicInt_8h.htm" target="_top" xlink:title="core/MojAtomicInt.h">
<polygon fill="white" stroke="black" points="559.07,-355.5 559.07,-376.5 669.07,-376.5 669.07,-355.5 559.07,-355.5"/>
<text text-anchor="middle" x="614.07" y="-363.5" font-family="Helvetica,sans-Serif" font-size="10.00">core/MojAtomicInt.h</text>
</a>
</g>
<!-- Node17&#45;&gt;Node18 -->
<g id="edge40" class="edge"><title>Node17&#45;&gt;Node18</title>
<path fill="none" stroke="midnightblue" d="M471.45,-557.383C450.482,-543.303 419.867,-517.277 433.07,-492 462.733,-435.208 530.958,-398.824 574.654,-380.434"/>
<polygon fill="midnightblue" stroke="midnightblue" points="576.185,-383.59 584.12,-376.57 573.539,-377.109 576.185,-383.59"/>
</g>
<!-- Node19 -->
<g id="node41" class="node"><title>Node19</title>
<a xlink:href="MojThreadInternal_8h.htm" target="_top" xlink:title="core/internal/MojThreadInternal.h">
<polygon fill="white" stroke="black" points="441.57,-492.5 441.57,-513.5 616.57,-513.5 616.57,-492.5 441.57,-492.5"/>
<text text-anchor="middle" x="529.07" y="-500.5" font-family="Helvetica,sans-Serif" font-size="10.00">core/internal/MojThreadInternal.h</text>
</a>
</g>
<!-- Node17&#45;&gt;Node19 -->
<g id="edge44" class="edge"><title>Node17&#45;&gt;Node19</title>
<path fill="none" stroke="midnightblue" d="M495.675,-557.267C501.5,-547.801 510.13,-533.777 517.158,-522.357"/>
<polygon fill="midnightblue" stroke="midnightblue" points="520.327,-523.885 522.587,-513.534 514.366,-520.216 520.327,-523.885"/>
</g>
<!-- Node18&#45;&gt;Node4 -->
<g id="edge42" class="edge"><title>Node18&#45;&gt;Node4</title>
<path fill="none" stroke="midnightblue" d="M622.323,-355.085C638.219,-334.061 673.247,-287.733 692.931,-261.7"/>
<polygon fill="midnightblue" stroke="midnightblue" points="695.728,-263.803 698.968,-253.715 690.145,-259.581 695.728,-263.803"/>
</g>
<!-- Node20 -->
<g id="node43" class="node"><title>Node20</title>
<a xlink:href="MojAutoPtr_8h.htm" target="_top" xlink:title="core/MojAutoPtr.h">
<polygon fill="white" stroke="black" points="754.57,-427.5 754.57,-448.5 855.57,-448.5 855.57,-427.5 754.57,-427.5"/>
<text text-anchor="middle" x="805.07" y="-435.5" font-family="Helvetica,sans-Serif" font-size="10.00">core/MojAutoPtr.h</text>
</a>
</g>
<!-- Node19&#45;&gt;Node20 -->
<g id="edge46" class="edge"><title>Node19&#45;&gt;Node20</title>
<path fill="none" stroke="midnightblue" d="M573.721,-492.484C621.922,-481.133 698.727,-463.044 750.482,-450.856"/>
<polygon fill="midnightblue" stroke="midnightblue" points="751.552,-454.2 760.483,-448.501 749.947,-447.386 751.552,-454.2"/>
</g>
<!-- Node20&#45;&gt;Node4 -->
<g id="edge48" class="edge"><title>Node20&#45;&gt;Node4</title>
<path fill="none" stroke="midnightblue" d="M811.837,-427.315C821.875,-410.008 838.279,-375.055 826.07,-348 807.765,-307.437 765.187,-276.261 736.252,-258.774"/>
<polygon fill="midnightblue" stroke="midnightblue" points="737.783,-255.615 727.385,-253.583 734.247,-261.656 737.783,-255.615"/>
</g>
<!-- Node20&#45;&gt;Node11 -->
<g id="edge52" class="edge"><title>Node20&#45;&gt;Node11</title>
<path fill="none" stroke="midnightblue" d="M855.666,-434.605C933.589,-426.327 1074.07,-397.957 1074.07,-301 1074.07,-301 1074.07,-301 1074.07,-127 1074.07,-77.2991 1020.47,-43.4739 982.371,-25.7084"/>
<polygon fill="midnightblue" stroke="midnightblue" points="983.618,-22.4319 973.061,-21.5379 980.756,-28.8202 983.618,-22.4319"/>
</g>
<!-- Node20&#45;&gt;Node18 -->
<g id="edge50" class="edge"><title>Node20&#45;&gt;Node18</title>
<path fill="none" stroke="midnightblue" d="M776.887,-427.376C743.642,-414.844 688.254,-393.965 651.449,-380.091"/>
<polygon fill="midnightblue" stroke="midnightblue" points="652.649,-376.803 642.057,-376.55 650.179,-383.353 652.649,-376.803"/>
</g>
<!-- Node21 -->
<g id="node48" class="node"><title>Node21</title>
<a xlink:href="MojAutoPtrInternal_8h.htm" target="_top" xlink:title="core/internal/MojAutoPtr\lInternal.h">
<polygon fill="white" stroke="black" points="686.57,-349 686.57,-383 817.57,-383 817.57,-349 686.57,-349"/>
<text text-anchor="start" x="694.57" y="-370" font-family="Helvetica,sans-Serif" font-size="10.00">core/internal/MojAutoPtr</text>
<text text-anchor="middle" x="752.07" y="-357" font-family="Helvetica,sans-Serif" font-size="10.00">Internal.h</text>
</a>
</g>
<!-- Node20&#45;&gt;Node21 -->
<g id="edge54" class="edge"><title>Node20&#45;&gt;Node21</title>
<path fill="none" stroke="midnightblue" d="M797.249,-427.376C790.277,-417.905 779.796,-403.666 770.683,-391.286"/>
<polygon fill="midnightblue" stroke="midnightblue" points="773.4,-389.073 764.653,-383.094 767.763,-393.223 773.4,-389.073"/>
</g>
<!-- Node22&#45;&gt;Node4 -->
<g id="edge58" class="edge"><title>Node22&#45;&gt;Node4</title>
<path fill="none" stroke="midnightblue" d="M854.789,-558.358C899.714,-548.512 961.953,-532.132 979.07,-514 1002.97,-488.682 998.07,-472.817 998.07,-438 998.07,-438 998.07,-438 998.07,-366 998.07,-316.406 852.858,-275.501 767.591,-255.757"/>
<polygon fill="midnightblue" stroke="midnightblue" points="768.286,-252.325 757.758,-253.512 766.728,-259.15 768.286,-252.325"/>
</g>
<!-- Node23 -->
<g id="node53" class="node"><title>Node23</title>
<a xlink:href="MojComp_8h.htm" target="_top" xlink:title="core/MojComp.h">
<polygon fill="white" stroke="black" points="431.07,-290.5 431.07,-311.5 525.07,-311.5 525.07,-290.5 431.07,-290.5"/>
<text text-anchor="middle" x="478.07" y="-298.5" font-family="Helvetica,sans-Serif" font-size="10.00">core/MojComp.h</text>
</a>
</g>
<!-- Node22&#45;&gt;Node23 -->
<g id="edge60" class="edge"><title>Node22&#45;&gt;Node23</title>
<path fill="none" stroke="midnightblue" d="M773.64,-557.455C744.242,-547.499 699.994,-531.516 663.07,-514 645.438,-505.636 642.324,-501.118 625.07,-492 592.379,-474.724 574.749,-483.533 550.07,-456 516.106,-418.109 535.67,-393.08 512.07,-348 506.869,-338.067 499.762,-327.885 493.39,-319.549"/>
<polygon fill="midnightblue" stroke="midnightblue" points="496.071,-317.296 487.126,-311.617 490.577,-321.634 496.071,-317.296"/>
</g>
<!-- Node24 -->
<g id="node56" class="node"><title>Node24</title>
<a xlink:href="MojRefCount_8h.htm" target="_top" xlink:title="core/MojRefCount.h">
<polygon fill="white" stroke="black" points="672.07,-492.5 672.07,-513.5 782.07,-513.5 782.07,-492.5 672.07,-492.5"/>
<text text-anchor="middle" x="727.07" y="-500.5" font-family="Helvetica,sans-Serif" font-size="10.00">core/MojRefCount.h</text>
</a>
</g>
<!-- Node22&#45;&gt;Node24 -->
<g id="edge64" class="edge"><title>Node22&#45;&gt;Node24</title>
<path fill="none" stroke="midnightblue" d="M793.024,-557.267C780.715,-547.139 762.062,-531.792 747.731,-520"/>
<polygon fill="midnightblue" stroke="midnightblue" points="749.818,-517.185 739.872,-513.534 745.37,-522.59 749.818,-517.185"/>
</g>
<!-- Node27 -->
<g id="node66" class="node"><title>Node27</title>
<a xlink:href="MojUtil_8h.htm" target="_top" xlink:title="core/MojUtil.h">
<polygon fill="white" stroke="black" points="310.57,-427.5 310.57,-448.5 391.57,-448.5 391.57,-427.5 310.57,-427.5"/>
<text text-anchor="middle" x="351.07" y="-435.5" font-family="Helvetica,sans-Serif" font-size="10.00">core/MojUtil.h</text>
</a>
</g>
<!-- Node22&#45;&gt;Node27 -->
<g id="edge78" class="edge"><title>Node22&#45;&gt;Node27</title>
<path fill="none" stroke="midnightblue" d="M757.39,-564.559C669.807,-557.78 489.529,-540.968 433.07,-514 405.224,-500.699 380.338,-474.607 365.476,-456.741"/>
<polygon fill="midnightblue" stroke="midnightblue" points="368.016,-454.315 359.016,-448.724 362.565,-458.706 368.016,-454.315"/>
</g>
<!-- Node28 -->
<g id="node70" class="node"><title>Node28</title>
<a xlink:href="MojVectorInternal_8h.htm" target="_top" xlink:title="core/internal/MojVectorInternal.h">
<polygon fill="white" stroke="black" points="799.57,-492.5 799.57,-513.5 970.57,-513.5 970.57,-492.5 799.57,-492.5"/>
<text text-anchor="middle" x="885.07" y="-500.5" font-family="Helvetica,sans-Serif" font-size="10.00">core/internal/MojVectorInternal.h</text>
</a>
</g>
<!-- Node22&#45;&gt;Node28 -->
<g id="edge84" class="edge"><title>Node22&#45;&gt;Node28</title>
<path fill="none" stroke="midnightblue" d="M819.115,-557.267C831.424,-547.139 850.077,-531.792 864.409,-520"/>
<polygon fill="midnightblue" stroke="midnightblue" points="866.769,-522.59 872.267,-513.534 862.321,-517.185 866.769,-522.59"/>
</g>
<!-- Node23&#45;&gt;Node4 -->
<g id="edge62" class="edge"><title>Node23&#45;&gt;Node4</title>
<path fill="none" stroke="midnightblue" d="M519.54,-290.497C557.762,-280.816 614.618,-266.416 655.701,-256.01"/>
<polygon fill="midnightblue" stroke="midnightblue" points="656.687,-259.371 665.522,-253.523 654.968,-252.585 656.687,-259.371"/>
</g>
<!-- Node24&#45;&gt;Node4 -->
<g id="edge66" class="edge"><title>Node24&#45;&gt;Node4</title>
<path fill="none" stroke="midnightblue" d="M776.389,-492.433C811.223,-483.853 853.511,-470.785 864.07,-456 873.368,-442.979 866.433,-435.824 864.07,-420 854.669,-357.063 851.869,-332.007 804.07,-290 788.03,-275.904 767.017,-265.036 748.651,-257.319"/>
<polygon fill="midnightblue" stroke="midnightblue" points="749.913,-254.054 739.329,-253.571 747.301,-260.549 749.913,-254.054"/>
</g>
<!-- Node24&#45;&gt;Node18 -->
<g id="edge68" class="edge"><title>Node24&#45;&gt;Node18</title>
<path fill="none" stroke="midnightblue" d="M727.25,-492.461C727.017,-475.538 724.34,-441.981 708.07,-420 694.851,-402.141 673.834,-389.27 655.022,-380.584"/>
<polygon fill="midnightblue" stroke="midnightblue" points="656.29,-377.319 645.724,-376.536 653.496,-383.737 656.29,-377.319"/>
</g>
<!-- Node24&#45;&gt;Node20 -->
<g id="edge70" class="edge"><title>Node24&#45;&gt;Node20</title>
<path fill="none" stroke="midnightblue" d="M739.95,-492.267C752.103,-482.139 770.52,-466.792 784.67,-455"/>
<polygon fill="midnightblue" stroke="midnightblue" points="786.988,-457.624 792.429,-448.534 782.506,-452.247 786.988,-457.624"/>
</g>
<!-- Node25 -->
<g id="node61" class="node"><title>Node25</title>
<a xlink:href="MojRefCountInternal_8h.htm" target="_top" xlink:title="core/internal/MojRefCount\lInternal.h">
<polygon fill="white" stroke="black" points="559.07,-421 559.07,-455 699.07,-455 699.07,-421 559.07,-421"/>
<text text-anchor="start" x="567.07" y="-442" font-family="Helvetica,sans-Serif" font-size="10.00">core/internal/MojRefCount</text>
<text text-anchor="middle" x="629.07" y="-429" font-family="Helvetica,sans-Serif" font-size="10.00">Internal.h</text>
</a>
</g>
<!-- Node24&#45;&gt;Node25 -->
<g id="edge72" class="edge"><title>Node24&#45;&gt;Node25</title>
<path fill="none" stroke="midnightblue" d="M710.887,-492.267C698.043,-483.748 679.632,-471.537 663.527,-460.854"/>
<polygon fill="midnightblue" stroke="midnightblue" points="665.134,-457.721 654.866,-455.11 661.265,-463.554 665.134,-457.721"/>
</g>
<!-- Node26 -->
<g id="node63" class="node"><title>Node26</title>
<a xlink:href="MojUtilInternal_8h.htm" target="_top" xlink:title="core/internal/MojUtilInternal.h">
<polygon fill="white" stroke="black" points="348.57,-355.5 348.57,-376.5 503.57,-376.5 503.57,-355.5 348.57,-355.5"/>
<text text-anchor="middle" x="426.07" y="-363.5" font-family="Helvetica,sans-Serif" font-size="10.00">core/internal/MojUtilInternal.h</text>
</a>
</g>
<!-- Node25&#45;&gt;Node26 -->
<g id="edge74" class="edge"><title>Node25&#45;&gt;Node26</title>
<path fill="none" stroke="midnightblue" d="M580.961,-420.937C545.791,-408.463 498.665,-391.748 465.665,-380.044"/>
<polygon fill="midnightblue" stroke="midnightblue" points="466.5,-376.626 455.905,-376.582 464.16,-383.224 466.5,-376.626"/>
</g>
<!-- Node26&#45;&gt;Node23 -->
<g id="edge76" class="edge"><title>Node26&#45;&gt;Node23</title>
<path fill="none" stroke="midnightblue" d="M434.656,-355.267C442.38,-345.612 453.898,-331.215 463.13,-319.675"/>
<polygon fill="midnightblue" stroke="midnightblue" points="466.129,-321.529 469.643,-311.534 460.663,-317.156 466.129,-321.529"/>
</g>
<!-- Node27&#45;&gt;Node4 -->
<g id="edge80" class="edge"><title>Node27&#45;&gt;Node4</title>
<path fill="none" stroke="midnightblue" d="M346.033,-427.325C338.517,-409.731 326.612,-374.003 340.07,-348 360.588,-308.355 380.774,-306.952 422.07,-290 460.704,-274.141 569.708,-259.023 641.16,-250.395"/>
<polygon fill="midnightblue" stroke="midnightblue" points="641.902,-253.831 651.416,-249.17 641.072,-246.88 641.902,-253.831"/>
</g>
<!-- Node27&#45;&gt;Node26 -->
<g id="edge82" class="edge"><title>Node27&#45;&gt;Node26</title>
<path fill="none" stroke="midnightblue" d="M362.136,-427.376C374.1,-415.89 393.369,-397.393 407.629,-383.703"/>
<polygon fill="midnightblue" stroke="midnightblue" points="410.168,-386.118 414.958,-376.667 405.32,-381.068 410.168,-386.118"/>
</g>
<!-- Node30&#45;&gt;Node4 -->
<g id="edge90" class="edge"><title>Node30&#45;&gt;Node4</title>
<path fill="none" stroke="midnightblue" d="M214.833,-629.483C149.793,-624.243 48.1685,-612.057 21.0696,-586 -6.20888,-559.771 2.06963,-540.843 2.06963,-503 2.06963,-503 2.06963,-503 2.06963,-366 2.06963,-295.591 73.6329,-310.242 141.07,-290 233.019,-262.401 512.567,-249.595 641.119,-245.045"/>
<polygon fill="midnightblue" stroke="midnightblue" points="641.352,-248.539 651.224,-244.694 641.108,-241.544 641.352,-248.539"/>
</g>
<!-- Node30&#45;&gt;Node23 -->
<g id="edge92" class="edge"><title>Node30&#45;&gt;Node23</title>
<path fill="none" stroke="midnightblue" d="M304.619,-622.403C321.76,-615.091 341.068,-603.476 351.07,-586 376.554,-541.472 304.38,-465.43 302.07,-456 289.961,-406.577 301.372,-381.041 340.07,-348 362.769,-328.618 393.842,-317.119 420.755,-310.354"/>
<polygon fill="midnightblue" stroke="midnightblue" points="421.904,-313.679 430.84,-307.986 420.304,-306.864 421.904,-313.679"/>
</g>
<!-- Node31 -->
<g id="node78" class="node"><title>Node31</title>
<a xlink:href="MojHashBase_8h.htm" target="_top" xlink:title="core/internal/MojHashBase.h">
<polygon fill="white" stroke="black" points="29.5696,-557.5 29.5696,-578.5 182.57,-578.5 182.57,-557.5 29.5696,-557.5"/>
<text text-anchor="middle" x="106.07" y="-565.5" font-family="Helvetica,sans-Serif" font-size="10.00">core/internal/MojHashBase.h</text>
</a>
</g>
<!-- Node30&#45;&gt;Node31 -->
<g id="edge94" class="edge"><title>Node30&#45;&gt;Node31</title>
<path fill="none" stroke="midnightblue" d="M244.192,-622.412C216.506,-611.505 173.176,-594.436 142.437,-582.327"/>
<polygon fill="midnightblue" stroke="midnightblue" points="143.522,-578.992 132.935,-578.584 140.957,-585.505 143.522,-578.992"/>
</g>
<!-- Node33 -->
<g id="node86" class="node"><title>Node33</title>
<a xlink:href="MojHashMapInternal_8h.htm" target="_top" xlink:title="core/internal/MojHashMap\lInternal.h">
<polygon fill="white" stroke="black" points="200.07,-551 200.07,-585 342.07,-585 342.07,-551 200.07,-551"/>
<text text-anchor="start" x="208.07" y="-572" font-family="Helvetica,sans-Serif" font-size="10.00">core/internal/MojHashMap</text>
<text text-anchor="middle" x="271.07" y="-559" font-family="Helvetica,sans-Serif" font-size="10.00">Internal.h</text>
</a>
</g>
<!-- Node30&#45;&gt;Node33 -->
<g id="edge106" class="edge"><title>Node30&#45;&gt;Node33</title>
<path fill="none" stroke="midnightblue" d="M271.07,-622.267C271.07,-614.931 271.07,-604.857 271.07,-595.38"/>
<polygon fill="midnightblue" stroke="midnightblue" points="274.57,-595.11 271.07,-585.11 267.57,-595.11 274.57,-595.11"/>
</g>
<!-- Node31&#45;&gt;Node4 -->
<g id="edge96" class="edge"><title>Node31&#45;&gt;Node4</title>
<path fill="none" stroke="midnightblue" d="M106.07,-557.214C106.07,-534.939 106.07,-482.236 106.07,-438 106.07,-438 106.07,-438 106.07,-366 106.07,-309.109 155.925,-310.301 209.07,-290 286.341,-260.482 524.377,-248.869 641.125,-244.859"/>
<polygon fill="midnightblue" stroke="midnightblue" points="641.48,-248.349 651.357,-244.516 641.245,-241.353 641.48,-248.349"/>
</g>
<!-- Node31&#45;&gt;Node20 -->
<g id="edge98" class="edge"><title>Node31&#45;&gt;Node20</title>
<path fill="none" stroke="midnightblue" d="M145.574,-557.493C206.784,-541.515 328.406,-510.966 433.07,-492 554.359,-470.021 586.317,-475.252 708.07,-456 719.899,-454.13 732.502,-451.938 744.575,-449.74"/>
<polygon fill="midnightblue" stroke="midnightblue" points="745.362,-453.154 754.562,-447.9 744.094,-446.27 745.362,-453.154"/>
</g>
<!-- Node32 -->
<g id="node82" class="node"><title>Node32</title>
<a xlink:href="MojHasher_8h.htm" target="_top" xlink:title="core/MojHasher.h">
<polygon fill="white" stroke="black" points="133.57,-492.5 133.57,-513.5 234.57,-513.5 234.57,-492.5 133.57,-492.5"/>
<text text-anchor="middle" x="184.07" y="-500.5" font-family="Helvetica,sans-Serif" font-size="10.00">core/MojHasher.h</text>
</a>
</g>
<!-- Node31&#45;&gt;Node32 -->
<g id="edge100" class="edge"><title>Node31&#45;&gt;Node32</title>
<path fill="none" stroke="midnightblue" d="M118.95,-557.267C131.103,-547.139 149.52,-531.792 163.67,-520"/>
<polygon fill="midnightblue" stroke="midnightblue" points="165.988,-522.624 171.429,-513.534 161.506,-517.247 165.988,-522.624"/>
</g>
<!-- Node32&#45;&gt;Node4 -->
<g id="edge102" class="edge"><title>Node32&#45;&gt;Node4</title>
<path fill="none" stroke="midnightblue" d="M182.556,-492.026C178.341,-456.496 170.467,-343.802 231.07,-290 261.119,-263.322 517.843,-250.118 641.291,-245.263"/>
<polygon fill="midnightblue" stroke="midnightblue" points="641.521,-248.757 651.379,-244.873 641.251,-241.762 641.521,-248.757"/>
</g>
<!-- Node32&#45;&gt;Node27 -->
<g id="edge104" class="edge"><title>Node32&#45;&gt;Node27</title>
<path fill="none" stroke="midnightblue" d="M211.273,-492.412C239.295,-481.505 283.15,-464.436 314.261,-452.327"/>
<polygon fill="midnightblue" stroke="midnightblue" points="315.829,-455.472 323.878,-448.584 313.29,-448.949 315.829,-455.472"/>
</g>
</g>
</svg>
