<?xml version="1.0" encoding="UTF-8" standalone="no"?>
<!DOCTYPE svg PUBLIC "-//W3C//DTD SVG 1.1//EN"
 "http://www.w3.org/Graphics/SVG/1.1/DTD/svg11.dtd">
<!-- Generated by graphviz version 2.26.3 (20100126.1600)
 -->
<!-- Title: MojErr.cpp Pages: 1 -->
<svg width="1490pt" height="754pt"
 viewBox="0.00 0.00 1490.00 754.00" xmlns="http://www.w3.org/2000/svg" xmlns:xlink="http://www.w3.org/1999/xlink">
<g id="graph1" class="graph" transform="scale(1 1) rotate(0) translate(4 750)">
<title>MojErr.cpp</title>
<polygon fill="white" stroke="white" points="-4,5 -4,-750 1487,-750 1487,5 -4,5"/>
<!-- Node1 -->
<g id="node1" class="node"><title>Node1</title>
<polygon fill="#bfbfbf" stroke="black" points="1150,-724.5 1150,-745.5 1218,-745.5 1218,-724.5 1150,-724.5"/>
<text text-anchor="middle" x="1184" y="-732.5" font-family="Helvetica,sans-Serif" font-size="10.00">MojErr.cpp</text>
</g>
<!-- Node2 -->
<g id="node3" class="node"><title>Node2</title>
<a xlink:href="MojCoreDefs_8h.htm" target="_top" xlink:title="core/MojCoreDefs.h">
<polygon fill="white" stroke="black" points="792.5,-232.5 792.5,-253.5 903.5,-253.5 903.5,-232.5 792.5,-232.5"/>
<text text-anchor="middle" x="848" y="-240.5" font-family="Helvetica,sans-Serif" font-size="10.00">core/MojCoreDefs.h</text>
</a>
</g>
<!-- Node1&#45;&gt;Node2 -->
<g id="edge2" class="edge"><title>Node1&#45;&gt;Node2</title>
<path fill="none" stroke="midnightblue" d="M1218.18,-729.178C1296.46,-714.88 1482,-675.073 1482,-619 1482,-619 1482,-619 1482,-373 1482,-297.972 1406.56,-312.538 1335,-290 1258.22,-265.82 1028.2,-251.682 913.919,-245.97"/>
<polygon fill="midnightblue" stroke="midnightblue" points="914.056,-242.473 903.896,-245.476 913.711,-249.464 914.056,-242.473"/>
</g>
<!-- Node12 -->
<g id="node23" class="node"><title>Node12</title>
<a xlink:href="MojLogEngine_8h.htm" target="_top" xlink:title="core/MojLogEngine.h">
<polygon fill="white" stroke="black" points="459.5,-666.5 459.5,-687.5 576.5,-687.5 576.5,-666.5 459.5,-666.5"/>
<text text-anchor="middle" x="518" y="-674.5" font-family="Helvetica,sans-Serif" font-size="10.00">core/MojLogEngine.h</text>
</a>
</g>
<!-- Node1&#45;&gt;Node12 -->
<g id="edge22" class="edge"><title>Node1&#45;&gt;Node12</title>
<path fill="none" stroke="midnightblue" d="M1149.6,-732.004C1044.74,-722.872 727.77,-695.268 586.833,-682.994"/>
<polygon fill="midnightblue" stroke="midnightblue" points="586.855,-679.483 576.589,-682.102 586.248,-686.457 586.855,-679.483"/>
</g>
<!-- Node23 -->
<g id="node56" class="node"><title>Node23</title>
<a xlink:href="MojString_8h.htm" target="_top" xlink:title="core/MojString.h">
<polygon fill="white" stroke="black" points="1137,-608.5 1137,-629.5 1231,-629.5 1231,-608.5 1137,-608.5"/>
<text text-anchor="middle" x="1184" y="-616.5" font-family="Helvetica,sans-Serif" font-size="10.00">core/MojString.h</text>
</a>
</g>
<!-- Node1&#45;&gt;Node23 -->
<g id="edge118" class="edge"><title>Node1&#45;&gt;Node23</title>
<path fill="none" stroke="midnightblue" d="M1184,-724.295C1184,-705.131 1184,-664.654 1184,-639.843"/>
<polygon fill="midnightblue" stroke="midnightblue" points="1187.5,-639.679 1184,-629.679 1180.5,-639.679 1187.5,-639.679"/>
</g>
<!-- Node3 -->
<g id="node5" class="node"><title>Node3</title>
<a xlink:href="MojConfig_8h.htm" target="_top" xlink:title="core/internal/MojConfig.h">
<polygon fill="white" stroke="black" points="905.5,-174.5 905.5,-195.5 1040.5,-195.5 1040.5,-174.5 905.5,-174.5"/>
<text text-anchor="middle" x="973" y="-182.5" font-family="Helvetica,sans-Serif" font-size="10.00">core/internal/MojConfig.h</text>
</a>
</g>
<!-- Node2&#45;&gt;Node3 -->
<g id="edge4" class="edge"><title>Node2&#45;&gt;Node3</title>
<path fill="none" stroke="midnightblue" d="M870.637,-232.497C890.248,-223.397 918.846,-210.127 940.833,-199.925"/>
<polygon fill="midnightblue" stroke="midnightblue" points="942.512,-203.005 950.109,-195.621 939.565,-196.655 942.512,-203.005"/>
</g>
<!-- Node4 -->
<g id="node7" class="node"><title>Node4</title>
<a xlink:href="MojNew_8h.htm" target="_top" xlink:title="core/internal/MojNew.h">
<polygon fill="white" stroke="black" points="567.5,-174.5 567.5,-195.5 692.5,-195.5 692.5,-174.5 567.5,-174.5"/>
<text text-anchor="middle" x="630" y="-182.5" font-family="Helvetica,sans-Serif" font-size="10.00">core/internal/MojNew.h</text>
</a>
</g>
<!-- Node2&#45;&gt;Node4 -->
<g id="edge6" class="edge"><title>Node2&#45;&gt;Node4</title>
<path fill="none" stroke="midnightblue" d="M808.522,-232.497C772.367,-222.877 718.696,-208.598 679.647,-198.209"/>
<polygon fill="midnightblue" stroke="midnightblue" points="680.116,-194.712 669.552,-195.523 678.316,-201.477 680.116,-194.712"/>
</g>
<!-- Node6 -->
<g id="node11" class="node"><title>Node6</title>
<a xlink:href="MojErr_8h.htm" target="_top" xlink:title="core/MojErr.h">
<polygon fill="white" stroke="black" points="710,-174.5 710,-195.5 790,-195.5 790,-174.5 710,-174.5"/>
<text text-anchor="middle" x="750" y="-182.5" font-family="Helvetica,sans-Serif" font-size="10.00">core/MojErr.h</text>
</a>
</g>
<!-- Node2&#45;&gt;Node6 -->
<g id="edge10" class="edge"><title>Node2&#45;&gt;Node6</title>
<path fill="none" stroke="midnightblue" d="M830.025,-232.362C815.106,-223.532 793.667,-210.844 776.734,-200.822"/>
<polygon fill="midnightblue" stroke="midnightblue" points="778.249,-197.652 767.861,-195.571 774.684,-203.676 778.249,-197.652"/>
</g>
<!-- Node10 -->
<g id="node19" class="node"><title>Node10</title>
<a xlink:href="MojOs_8h.htm" target="_top" xlink:title="core/MojOs.h">
<polygon fill="white" stroke="black" points="808,-174.5 808,-195.5 888,-195.5 888,-174.5 808,-174.5"/>
<text text-anchor="middle" x="848" y="-182.5" font-family="Helvetica,sans-Serif" font-size="10.00">core/MojOs.h</text>
</a>
</g>
<!-- Node2&#45;&gt;Node10 -->
<g id="edge18" class="edge"><title>Node2&#45;&gt;Node10</title>
<path fill="none" stroke="midnightblue" d="M848,-232.362C848,-224.922 848,-214.743 848,-205.728"/>
<polygon fill="midnightblue" stroke="midnightblue" points="851.5,-205.571 848,-195.571 844.5,-205.571 851.5,-205.571"/>
</g>
<!-- Node5 -->
<g id="node9" class="node"><title>Node5</title>
<polygon fill="white" stroke="#bfbfbf" points="612,-116.5 612,-137.5 648,-137.5 648,-116.5 612,-116.5"/>
<text text-anchor="middle" x="630" y="-124.5" font-family="Helvetica,sans-Serif" font-size="10.00">new</text>
</g>
<!-- Node4&#45;&gt;Node5 -->
<g id="edge8" class="edge"><title>Node4&#45;&gt;Node5</title>
<path fill="none" stroke="midnightblue" d="M630,-174.362C630,-166.922 630,-156.743 630,-147.728"/>
<polygon fill="midnightblue" stroke="midnightblue" points="633.5,-147.571 630,-137.571 626.5,-147.571 633.5,-147.571"/>
</g>
<!-- Node7 -->
<g id="node13" class="node"><title>Node7</title>
<a xlink:href="MojLog_8h.htm" target="_top" xlink:title="core/MojLog.h">
<polygon fill="white" stroke="black" points="667,-116.5 667,-137.5 751,-137.5 751,-116.5 667,-116.5"/>
<text text-anchor="middle" x="709" y="-124.5" font-family="Helvetica,sans-Serif" font-size="10.00">core/MojLog.h</text>
</a>
</g>
<!-- Node6&#45;&gt;Node7 -->
<g id="edge12" class="edge"><title>Node6&#45;&gt;Node7</title>
<path fill="none" stroke="midnightblue" d="M742.48,-174.362C736.874,-166.431 729.068,-155.389 722.403,-145.961"/>
<polygon fill="midnightblue" stroke="midnightblue" points="725.103,-143.716 716.472,-137.571 719.387,-147.757 725.103,-143.716"/>
</g>
<!-- Node8 -->
<g id="node15" class="node"><title>Node8</title>
<a xlink:href="MojListEntry_8h.htm" target="_top" xlink:title="core/MojListEntry.h">
<polygon fill="white" stroke="black" points="445.5,-58.5 445.5,-79.5 552.5,-79.5 552.5,-58.5 445.5,-58.5"/>
<text text-anchor="middle" x="499" y="-66.5" font-family="Helvetica,sans-Serif" font-size="10.00">core/MojListEntry.h</text>
</a>
</g>
<!-- Node7&#45;&gt;Node8 -->
<g id="edge14" class="edge"><title>Node7&#45;&gt;Node8</title>
<path fill="none" stroke="midnightblue" d="M670.971,-116.497C636.142,-106.877 584.441,-92.5981 546.826,-82.209"/>
<polygon fill="midnightblue" stroke="midnightblue" points="547.672,-78.8117 537.101,-79.5231 545.808,-85.5591 547.672,-78.8117"/>
</g>
<!-- Node9 -->
<g id="node17" class="node"><title>Node9</title>
<a xlink:href="MojNoCopy_8h.htm" target="_top" xlink:title="core/MojNoCopy.h">
<polygon fill="white" stroke="black" points="322,-0.5 322,-21.5 426,-21.5 426,-0.5 322,-0.5"/>
<text text-anchor="middle" x="374" y="-8.5" font-family="Helvetica,sans-Serif" font-size="10.00">core/MojNoCopy.h</text>
</a>
</g>
<!-- Node8&#45;&gt;Node9 -->
<g id="edge16" class="edge"><title>Node8&#45;&gt;Node9</title>
<path fill="none" stroke="midnightblue" d="M476.363,-58.4966C456.752,-49.397 428.154,-36.1273 406.167,-25.9253"/>
<polygon fill="midnightblue" stroke="midnightblue" points="407.435,-22.6554 396.891,-21.6212 404.488,-29.0051 407.435,-22.6554"/>
</g>
<!-- Node11 -->
<g id="node21" class="node"><title>Node11</title>
<a xlink:href="MojOsInternal_8h.htm" target="_top" xlink:title="core/internal/MojOsInternal.h">
<polygon fill="white" stroke="black" points="771,-116.5 771,-137.5 925,-137.5 925,-116.5 771,-116.5"/>
<text text-anchor="middle" x="848" y="-124.5" font-family="Helvetica,sans-Serif" font-size="10.00">core/internal/MojOsInternal.h</text>
</a>
</g>
<!-- Node10&#45;&gt;Node11 -->
<g id="edge20" class="edge"><title>Node10&#45;&gt;Node11</title>
<path fill="none" stroke="midnightblue" d="M848,-174.362C848,-166.922 848,-156.743 848,-147.728"/>
<polygon fill="midnightblue" stroke="midnightblue" points="851.5,-147.571 848,-137.571 844.5,-147.571 851.5,-147.571"/>
</g>
<!-- Node12&#45;&gt;Node2 -->
<g id="edge24" class="edge"><title>Node12&#45;&gt;Node2</title>
<path fill="none" stroke="midnightblue" d="M459.346,-672.333C392.986,-666.199 282.036,-653.357 189,-630 102.269,-608.226 0,-650.423 0,-561 0,-561 0,-561 0,-373 0,-329.704 13.8501,-312.236 51,-290 112.979,-252.902 602.463,-245.057 782.148,-243.422"/>
<polygon fill="midnightblue" stroke="midnightblue" points="782.288,-246.921 792.257,-243.334 782.227,-239.922 782.288,-246.921"/>
</g>
<!-- Node13 -->
<g id="node26" class="node"><title>Node13</title>
<a xlink:href="MojList_8h.htm" target="_top" xlink:title="core/MojList.h">
<polygon fill="white" stroke="black" points="197.5,-608.5 197.5,-629.5 280.5,-629.5 280.5,-608.5 197.5,-608.5"/>
<text text-anchor="middle" x="239" y="-616.5" font-family="Helvetica,sans-Serif" font-size="10.00">core/MojList.h</text>
</a>
</g>
<!-- Node12&#45;&gt;Node13 -->
<g id="edge26" class="edge"><title>Node12&#45;&gt;Node13</title>
<path fill="none" stroke="midnightblue" d="M467.475,-666.497C417.379,-656.082 341.008,-640.206 290.555,-629.718"/>
<polygon fill="midnightblue" stroke="midnightblue" points="291.017,-626.239 280.514,-627.63 289.592,-633.092 291.017,-626.239"/>
</g>
<!-- Node15 -->
<g id="node31" class="node"><title>Node15</title>
<a xlink:href="MojMap_8h.htm" target="_top" xlink:title="core/MojMap.h">
<polygon fill="white" stroke="black" points="585.5,-492.5 585.5,-513.5 672.5,-513.5 672.5,-492.5 585.5,-492.5"/>
<text text-anchor="middle" x="629" y="-500.5" font-family="Helvetica,sans-Serif" font-size="10.00">core/MojMap.h</text>
</a>
</g>
<!-- Node12&#45;&gt;Node15 -->
<g id="edge32" class="edge"><title>Node12&#45;&gt;Node15</title>
<path fill="none" stroke="midnightblue" d="M524.776,-666.377C542.924,-637.93 592.84,-559.684 616.389,-522.769"/>
<polygon fill="midnightblue" stroke="midnightblue" points="619.601,-524.241 622.029,-513.928 613.7,-520.476 619.601,-524.241"/>
</g>
<!-- Node21 -->
<g id="node49" class="node"><title>Node21</title>
<a xlink:href="MojSet_8h.htm" target="_top" xlink:title="core/MojSet.h">
<polygon fill="white" stroke="black" points="357,-492.5 357,-513.5 439,-513.5 439,-492.5 357,-492.5"/>
<text text-anchor="middle" x="398" y="-500.5" font-family="Helvetica,sans-Serif" font-size="10.00">core/MojSet.h</text>
</a>
</g>
<!-- Node12&#45;&gt;Node21 -->
<g id="edge56" class="edge"><title>Node12&#45;&gt;Node21</title>
<path fill="none" stroke="midnightblue" d="M510.674,-666.377C490.972,-637.809 436.632,-559.017 411.31,-522.3"/>
<polygon fill="midnightblue" stroke="midnightblue" points="414.095,-520.173 405.536,-513.928 408.332,-524.147 414.095,-520.173"/>
</g>
<!-- Node12&#45;&gt;Node23 -->
<g id="edge66" class="edge"><title>Node12&#45;&gt;Node23</title>
<path fill="none" stroke="midnightblue" d="M576.519,-671.904C703.101,-660.88 1001.03,-634.934 1126.6,-623.999"/>
<polygon fill="midnightblue" stroke="midnightblue" points="1127.11,-627.467 1136.77,-623.113 1126.51,-620.494 1127.11,-627.467"/>
</g>
<!-- Node31 -->
<g id="node85" class="node"><title>Node31</title>
<a xlink:href="MojThread_8h.htm" target="_top" xlink:title="core/MojThread.h">
<polygon fill="white" stroke="black" points="467.5,-492.5 467.5,-513.5 568.5,-513.5 568.5,-492.5 467.5,-492.5"/>
<text text-anchor="middle" x="518" y="-500.5" font-family="Helvetica,sans-Serif" font-size="10.00">core/MojThread.h</text>
</a>
</g>
<!-- Node12&#45;&gt;Node31 -->
<g id="edge108" class="edge"><title>Node12&#45;&gt;Node31</title>
<path fill="none" stroke="midnightblue" d="M518,-666.377C518,-638.293 518,-561.673 518,-524.203"/>
<polygon fill="midnightblue" stroke="midnightblue" points="521.5,-523.928 518,-513.928 514.5,-523.928 521.5,-523.928"/>
</g>
<!-- Node13&#45;&gt;Node2 -->
<g id="edge28" class="edge"><title>Node13&#45;&gt;Node2</title>
<path fill="none" stroke="midnightblue" d="M197.353,-613.742C138.479,-603.717 38,-575.925 38,-503 38,-503 38,-503 38,-373 38,-287.319 129.186,-311.979 212,-290 318.227,-261.806 642.198,-249.075 782.298,-244.78"/>
<polygon fill="midnightblue" stroke="midnightblue" points="782.574,-248.273 792.464,-244.473 782.363,-241.276 782.574,-248.273"/>
</g>
<!-- Node14 -->
<g id="node29" class="node"><title>Node14</title>
<a xlink:href="MojListInternal_8h.htm" target="_top" xlink:title="core/internal/MojListInternal.h">
<polygon fill="white" stroke="black" points="160.5,-550.5 160.5,-571.5 317.5,-571.5 317.5,-550.5 160.5,-550.5"/>
<text text-anchor="middle" x="239" y="-558.5" font-family="Helvetica,sans-Serif" font-size="10.00">core/internal/MojListInternal.h</text>
</a>
</g>
<!-- Node13&#45;&gt;Node14 -->
<g id="edge30" class="edge"><title>Node13&#45;&gt;Node14</title>
<path fill="none" stroke="midnightblue" d="M239,-608.362C239,-600.922 239,-590.743 239,-581.728"/>
<polygon fill="midnightblue" stroke="midnightblue" points="242.5,-581.571 239,-571.571 235.5,-581.571 242.5,-581.571"/>
</g>
<!-- Node15&#45;&gt;Node2 -->
<g id="edge34" class="edge"><title>Node15&#45;&gt;Node2</title>
<path fill="none" stroke="midnightblue" d="M658.437,-492.481C713.081,-471.098 828.499,-416.741 871,-326 880.739,-305.206 870.518,-279.493 860.779,-262.245"/>
<polygon fill="midnightblue" stroke="midnightblue" points="863.726,-260.354 855.548,-253.619 857.74,-263.984 863.726,-260.354"/>
</g>
<!-- Node16 -->
<g id="node34" class="node"><title>Node16</title>
<a xlink:href="MojComp_8h.htm" target="_top" xlink:title="core/MojComp.h">
<polygon fill="white" stroke="black" points="995,-297.5 995,-318.5 1089,-318.5 1089,-297.5 995,-297.5"/>
<text text-anchor="middle" x="1042" y="-305.5" font-family="Helvetica,sans-Serif" font-size="10.00">core/MojComp.h</text>
</a>
</g>
<!-- Node15&#45;&gt;Node16 -->
<g id="edge36" class="edge"><title>Node15&#45;&gt;Node16</title>
<path fill="none" stroke="midnightblue" d="M672.717,-498.959C739.876,-492.183 864.784,-477.16 904,-456 961.968,-424.721 1009.05,-359.872 1030.1,-327.404"/>
<polygon fill="midnightblue" stroke="midnightblue" points="1033.15,-329.118 1035.55,-318.799 1027.24,-325.369 1033.15,-329.118"/>
</g>
<!-- Node17 -->
<g id="node37" class="node"><title>Node17</title>
<a xlink:href="MojRbTreeBase_8h.htm" target="_top" xlink:title="core/internal/MojRbTreeBase.h">
<polygon fill="white" stroke="black" points="316,-427.5 316,-448.5 480,-448.5 480,-427.5 316,-427.5"/>
<text text-anchor="middle" x="398" y="-435.5" font-family="Helvetica,sans-Serif" font-size="10.00">core/internal/MojRbTreeBase.h</text>
</a>
</g>
<!-- Node15&#45;&gt;Node17 -->
<g id="edge40" class="edge"><title>Node15&#45;&gt;Node17</title>
<path fill="none" stroke="midnightblue" d="M591.629,-492.484C551.707,-481.251 488.341,-463.421 445.048,-451.239"/>
<polygon fill="midnightblue" stroke="midnightblue" points="445.891,-447.84 435.317,-448.501 443.995,-454.578 445.891,-447.84"/>
</g>
<!-- Node16&#45;&gt;Node2 -->
<g id="edge38" class="edge"><title>Node16&#45;&gt;Node2</title>
<path fill="none" stroke="midnightblue" d="M1010.4,-297.412C977.424,-286.364 925.574,-268.991 889.359,-256.857"/>
<polygon fill="midnightblue" stroke="midnightblue" points="890.182,-253.442 879.588,-253.584 887.958,-260.079 890.182,-253.442"/>
</g>
<!-- Node17&#45;&gt;Node2 -->
<g id="edge42" class="edge"><title>Node17&#45;&gt;Node2</title>
<path fill="none" stroke="midnightblue" d="M405.84,-427.174C426.783,-399.165 487.212,-324.13 557,-290 595.638,-271.104 708.999,-256.759 782.295,-249.135"/>
<polygon fill="midnightblue" stroke="midnightblue" points="782.768,-252.605 792.36,-248.104 782.055,-245.642 782.768,-252.605"/>
</g>
<!-- Node18 -->
<g id="node40" class="node"><title>Node18</title>
<a xlink:href="MojAutoPtr_8h.htm" target="_top" xlink:title="core/MojAutoPtr.h">
<polygon fill="white" stroke="black" points="594.5,-362.5 594.5,-383.5 695.5,-383.5 695.5,-362.5 594.5,-362.5"/>
<text text-anchor="middle" x="645" y="-370.5" font-family="Helvetica,sans-Serif" font-size="10.00">core/MojAutoPtr.h</text>
</a>
</g>
<!-- Node17&#45;&gt;Node18 -->
<g id="edge44" class="edge"><title>Node17&#45;&gt;Node18</title>
<path fill="none" stroke="midnightblue" d="M437.959,-427.484C480.827,-416.204 548.973,-398.27 595.277,-386.085"/>
<polygon fill="midnightblue" stroke="midnightblue" points="596.318,-389.43 605.098,-383.501 594.537,-382.661 596.318,-389.43"/>
</g>
<!-- Node18&#45;&gt;Node2 -->
<g id="edge46" class="edge"><title>Node18&#45;&gt;Node2</title>
<path fill="none" stroke="midnightblue" d="M659.609,-362.164C671.951,-352.868 689.967,-338.959 705,-326 722.621,-310.81 723.664,-302.936 743,-290 762.972,-276.639 787.363,-265.455 807.608,-257.354"/>
<polygon fill="midnightblue" stroke="midnightblue" points="809.128,-260.518 817.176,-253.628 806.588,-253.995 809.128,-260.518"/>
</g>
<!-- Node18&#45;&gt;Node9 -->
<g id="edge52" class="edge"><title>Node18&#45;&gt;Node9</title>
<path fill="none" stroke="midnightblue" d="M594.169,-367.116C487.486,-353.348 250,-314.653 250,-243 250,-243 250,-243 250,-127 250,-78.2903 301.659,-44.1339 338.29,-26.0365"/>
<polygon fill="midnightblue" stroke="midnightblue" points="340.168,-29.0194 347.703,-21.5707 337.168,-22.6951 340.168,-29.0194"/>
</g>
<!-- Node19 -->
<g id="node43" class="node"><title>Node19</title>
<a xlink:href="MojAtomicInt_8h.htm" target="_top" xlink:title="core/MojAtomicInt.h">
<polygon fill="white" stroke="black" points="752,-297.5 752,-318.5 862,-318.5 862,-297.5 752,-297.5"/>
<text text-anchor="middle" x="807" y="-305.5" font-family="Helvetica,sans-Serif" font-size="10.00">core/MojAtomicInt.h</text>
</a>
</g>
<!-- Node18&#45;&gt;Node19 -->
<g id="edge48" class="edge"><title>Node18&#45;&gt;Node19</title>
<path fill="none" stroke="midnightblue" d="M671.389,-362.412C698.572,-351.505 741.114,-334.436 771.294,-322.327"/>
<polygon fill="midnightblue" stroke="midnightblue" points="772.645,-325.556 780.623,-318.584 770.038,-319.059 772.645,-325.556"/>
</g>
<!-- Node20 -->
<g id="node47" class="node"><title>Node20</title>
<a xlink:href="MojAutoPtrInternal_8h.htm" target="_top" xlink:title="core/internal/MojAutoPtr\lInternal.h">
<polygon fill="white" stroke="black" points="565.5,-291 565.5,-325 696.5,-325 696.5,-291 565.5,-291"/>
<text text-anchor="start" x="573.5" y="-312" font-family="Helvetica,sans-Serif" font-size="10.00">core/internal/MojAutoPtr</text>
<text text-anchor="middle" x="631" y="-299" font-family="Helvetica,sans-Serif" font-size="10.00">Internal.h</text>
</a>
</g>
<!-- Node18&#45;&gt;Node20 -->
<g id="edge54" class="edge"><title>Node18&#45;&gt;Node20</title>
<path fill="none" stroke="midnightblue" d="M642.688,-362.267C641.091,-354.852 638.892,-344.64 636.831,-335.074"/>
<polygon fill="midnightblue" stroke="midnightblue" points="640.212,-334.149 634.685,-325.11 633.369,-335.623 640.212,-334.149"/>
</g>
<!-- Node19&#45;&gt;Node2 -->
<g id="edge50" class="edge"><title>Node19&#45;&gt;Node2</title>
<path fill="none" stroke="midnightblue" d="M813.77,-297.267C819.8,-287.707 828.764,-273.496 836.006,-262.015"/>
<polygon fill="midnightblue" stroke="midnightblue" points="838.981,-263.859 841.356,-253.534 833.06,-260.124 838.981,-263.859"/>
</g>
<!-- Node21&#45;&gt;Node2 -->
<g id="edge58" class="edge"><title>Node21&#45;&gt;Node2</title>
<path fill="none" stroke="midnightblue" d="M356.857,-499.569C277.997,-492.575 111.842,-475.656 95,-456 84.5894,-443.85 86.1711,-433.344 95,-420 176.538,-296.769 257.949,-327.022 401,-290 471.276,-271.812 675.508,-255.236 781.865,-247.535"/>
<polygon fill="midnightblue" stroke="midnightblue" points="782.433,-251.004 792.156,-246.796 781.931,-244.022 782.433,-251.004"/>
</g>
<!-- Node21&#45;&gt;Node16 -->
<g id="edge60" class="edge"><title>Node21&#45;&gt;Node16</title>
<path fill="none" stroke="midnightblue" d="M439.327,-495.446C445.904,-494.273 452.636,-493.09 459,-492 557.522,-475.13 584.798,-483.135 681,-456 808.167,-420.131 951.135,-352.996 1011.99,-323.067"/>
<polygon fill="midnightblue" stroke="midnightblue" points="1013.63,-326.164 1021.04,-318.594 1010.52,-319.889 1013.63,-326.164"/>
</g>
<!-- Node21&#45;&gt;Node17 -->
<g id="edge62" class="edge"><title>Node21&#45;&gt;Node17</title>
<path fill="none" stroke="midnightblue" d="M398,-492.267C398,-483.18 398,-469.892 398,-458.74"/>
<polygon fill="midnightblue" stroke="midnightblue" points="401.5,-458.534 398,-448.534 394.5,-458.534 401.5,-458.534"/>
</g>
<!-- Node22 -->
<g id="node54" class="node"><title>Node22</title>
<a xlink:href="MojSetInternal_8h.htm" target="_top" xlink:title="core/internal/MojSetInternal.h">
<polygon fill="white" stroke="black" points="104,-427.5 104,-448.5 260,-448.5 260,-427.5 104,-427.5"/>
<text text-anchor="middle" x="182" y="-435.5" font-family="Helvetica,sans-Serif" font-size="10.00">core/internal/MojSetInternal.h</text>
</a>
</g>
<!-- Node21&#45;&gt;Node22 -->
<g id="edge64" class="edge"><title>Node21&#45;&gt;Node22</title>
<path fill="none" stroke="midnightblue" d="M362.815,-492.412C325.708,-481.246 267.135,-463.619 226.763,-451.47"/>
<polygon fill="midnightblue" stroke="midnightblue" points="227.754,-448.114 217.17,-448.584 225.737,-454.817 227.754,-448.114"/>
</g>
<!-- Node23&#45;&gt;Node2 -->
<g id="edge68" class="edge"><title>Node23&#45;&gt;Node2</title>
<path fill="none" stroke="midnightblue" d="M1229.88,-608.482C1304.53,-590.026 1444,-549.338 1444,-503 1444,-503 1444,-503 1444,-373 1444,-263.907 1319.06,-315.561 1213,-290 1110.08,-265.194 987.466,-252.809 913.779,-247.158"/>
<polygon fill="midnightblue" stroke="midnightblue" points="913.946,-243.661 903.713,-246.405 913.424,-250.642 913.946,-243.661"/>
</g>
<!-- Node23&#45;&gt;Node16 -->
<g id="edge72" class="edge"><title>Node23&#45;&gt;Node16</title>
<path fill="none" stroke="midnightblue" d="M1191.27,-608.35C1216.17,-570.409 1293.33,-439.945 1233,-362 1193.94,-311.534 1155.09,-344.452 1094,-326 1089.66,-324.69 1085.15,-323.249 1080.68,-321.769"/>
<polygon fill="midnightblue" stroke="midnightblue" points="1081.61,-318.391 1071.02,-318.503 1079.37,-325.022 1081.61,-318.391"/>
</g>
<!-- Node23&#45;&gt;Node18 -->
<g id="edge70" class="edge"><title>Node23&#45;&gt;Node18</title>
<path fill="none" stroke="midnightblue" d="M1136.67,-611.448C1048.68,-595.519 857.071,-551.765 727,-456 701.207,-437.01 675.992,-409.813 660.482,-391.792"/>
<polygon fill="midnightblue" stroke="midnightblue" points="662.818,-389.134 653.688,-383.759 657.474,-393.655 662.818,-389.134"/>
</g>
<!-- Node24 -->
<g id="node61" class="node"><title>Node24</title>
<a xlink:href="MojHasher_8h.htm" target="_top" xlink:title="core/MojHasher.h">
<polygon fill="white" stroke="black" points="1315.5,-492.5 1315.5,-513.5 1416.5,-513.5 1416.5,-492.5 1315.5,-492.5"/>
<text text-anchor="middle" x="1366" y="-500.5" font-family="Helvetica,sans-Serif" font-size="10.00">core/MojHasher.h</text>
</a>
</g>
<!-- Node23&#45;&gt;Node24 -->
<g id="edge74" class="edge"><title>Node23&#45;&gt;Node24</title>
<path fill="none" stroke="midnightblue" d="M1222.52,-608.449C1246.67,-600.713 1277.72,-588.647 1302,-572 1322.05,-558.252 1340.42,-537.175 1352.28,-521.933"/>
<polygon fill="midnightblue" stroke="midnightblue" points="1355.24,-523.821 1358.48,-513.733 1349.65,-519.601 1355.24,-523.821"/>
</g>
<!-- Node27 -->
<g id="node70" class="node"><title>Node27</title>
<a xlink:href="MojVector_8h.htm" target="_top" xlink:title="core/MojVector.h">
<polygon fill="white" stroke="black" points="1031.5,-550.5 1031.5,-571.5 1128.5,-571.5 1128.5,-550.5 1031.5,-550.5"/>
<text text-anchor="middle" x="1080" y="-558.5" font-family="Helvetica,sans-Serif" font-size="10.00">core/MojVector.h</text>
</a>
</g>
<!-- Node23&#45;&gt;Node27 -->
<g id="edge86" class="edge"><title>Node23&#45;&gt;Node27</title>
<path fill="none" stroke="midnightblue" d="M1164.92,-608.362C1148.95,-599.45 1125.92,-586.609 1107.87,-576.545"/>
<polygon fill="midnightblue" stroke="midnightblue" points="1109.39,-573.385 1098.95,-571.571 1105.98,-579.498 1109.39,-573.385"/>
</g>
<!-- Node24&#45;&gt;Node2 -->
<g id="edge76" class="edge"><title>Node24&#45;&gt;Node2</title>
<path fill="none" stroke="midnightblue" d="M1369.5,-492.344C1374.27,-475.839 1380.92,-443.541 1369,-420 1352.57,-387.548 1169.68,-290.593 1168,-290 1122.46,-273.916 993.626,-258.225 914.005,-249.662"/>
<polygon fill="midnightblue" stroke="midnightblue" points="913.905,-246.132 903.591,-248.552 913.164,-253.092 913.905,-246.132"/>
</g>
<!-- Node25 -->
<g id="node64" class="node"><title>Node25</title>
<a xlink:href="MojUtil_8h.htm" target="_top" xlink:title="core/MojUtil.h">
<polygon fill="white" stroke="black" points="1279.5,-427.5 1279.5,-448.5 1360.5,-448.5 1360.5,-427.5 1279.5,-427.5"/>
<text text-anchor="middle" x="1320" y="-435.5" font-family="Helvetica,sans-Serif" font-size="10.00">core/MojUtil.h</text>
</a>
</g>
<!-- Node24&#45;&gt;Node25 -->
<g id="edge78" class="edge"><title>Node24&#45;&gt;Node25</title>
<path fill="none" stroke="midnightblue" d="M1358.4,-492.267C1351.64,-482.707 1341.58,-468.496 1333.46,-457.015"/>
<polygon fill="midnightblue" stroke="midnightblue" points="1336.09,-454.675 1327.45,-448.534 1330.37,-458.718 1336.09,-454.675"/>
</g>
<!-- Node25&#45;&gt;Node2 -->
<g id="edge80" class="edge"><title>Node25&#45;&gt;Node2</title>
<path fill="none" stroke="midnightblue" d="M1314.82,-427.258C1306.55,-411.108 1288.93,-380.5 1266,-362 1202.78,-310.985 1175.72,-313.646 1098,-290 1036.8,-271.38 964.824,-258.784 913.856,-251.357"/>
<polygon fill="midnightblue" stroke="midnightblue" points="914.346,-247.891 903.951,-249.94 913.355,-254.821 914.346,-247.891"/>
</g>
<!-- Node26 -->
<g id="node67" class="node"><title>Node26</title>
<a xlink:href="MojUtilInternal_8h.htm" target="_top" xlink:title="core/internal/MojUtilInternal.h">
<polygon fill="white" stroke="black" points="1069.5,-362.5 1069.5,-383.5 1224.5,-383.5 1224.5,-362.5 1069.5,-362.5"/>
<text text-anchor="middle" x="1147" y="-370.5" font-family="Helvetica,sans-Serif" font-size="10.00">core/internal/MojUtilInternal.h</text>
</a>
</g>
<!-- Node25&#45;&gt;Node26 -->
<g id="edge82" class="edge"><title>Node25&#45;&gt;Node26</title>
<path fill="none" stroke="midnightblue" d="M1291.82,-427.412C1262.67,-416.458 1216.97,-399.288 1184.71,-387.17"/>
<polygon fill="midnightblue" stroke="midnightblue" points="1185.76,-383.824 1175.17,-383.584 1183.3,-390.377 1185.76,-383.824"/>
</g>
<!-- Node26&#45;&gt;Node16 -->
<g id="edge84" class="edge"><title>Node26&#45;&gt;Node16</title>
<path fill="none" stroke="midnightblue" d="M1129.66,-362.267C1112.77,-351.807 1086.88,-335.782 1067.61,-323.854"/>
<polygon fill="midnightblue" stroke="midnightblue" points="1069.36,-320.821 1059.02,-318.534 1065.68,-326.773 1069.36,-320.821"/>
</g>
<!-- Node27&#45;&gt;Node2 -->
<g id="edge88" class="edge"><title>Node27&#45;&gt;Node2</title>
<path fill="none" stroke="midnightblue" d="M1066.97,-550.44C1056.56,-541.525 1042.09,-528.004 1032,-514 967.274,-424.174 996.993,-372.36 923,-290 911.29,-276.966 895.133,-266.219 880.813,-258.307"/>
<polygon fill="midnightblue" stroke="midnightblue" points="882.211,-255.088 871.733,-253.522 878.948,-261.281 882.211,-255.088"/>
</g>
<!-- Node27&#45;&gt;Node16 -->
<g id="edge90" class="edge"><title>Node27&#45;&gt;Node16</title>
<path fill="none" stroke="midnightblue" d="M1068.14,-550.353C1059.33,-541.589 1048,-528.315 1043,-514 1020.47,-449.462 1031.02,-366.463 1037.82,-328.545"/>
<polygon fill="midnightblue" stroke="midnightblue" points="1041.26,-329.172 1039.69,-318.695 1034.39,-327.868 1041.26,-329.172"/>
</g>
<!-- Node27&#45;&gt;Node25 -->
<g id="edge104" class="edge"><title>Node27&#45;&gt;Node25</title>
<path fill="none" stroke="midnightblue" d="M1128.59,-551.179C1159.22,-543.73 1198.91,-531.71 1231,-514 1258.98,-498.561 1286.17,-473.41 1302.98,-456.305"/>
<polygon fill="midnightblue" stroke="midnightblue" points="1305.95,-458.267 1310.36,-448.633 1300.9,-453.415 1305.95,-458.267"/>
</g>
<!-- Node28 -->
<g id="node74" class="node"><title>Node28</title>
<a xlink:href="MojRefCount_8h.htm" target="_top" xlink:title="core/MojRefCount.h">
<polygon fill="white" stroke="black" points="848,-492.5 848,-513.5 958,-513.5 958,-492.5 848,-492.5"/>
<text text-anchor="middle" x="903" y="-500.5" font-family="Helvetica,sans-Serif" font-size="10.00">core/MojRefCount.h</text>
</a>
</g>
<!-- Node27&#45;&gt;Node28 -->
<g id="edge92" class="edge"><title>Node27&#45;&gt;Node28</title>
<path fill="none" stroke="midnightblue" d="M1047.95,-550.497C1019.09,-541.041 976.494,-527.083 944.939,-516.743"/>
<polygon fill="midnightblue" stroke="midnightblue" points="945.706,-513.311 935.113,-513.523 943.526,-519.963 945.706,-513.311"/>
</g>
<!-- Node30 -->
<g id="node83" class="node"><title>Node30</title>
<a xlink:href="MojVectorInternal_8h.htm" target="_top" xlink:title="core/internal/MojVectorInternal.h">
<polygon fill="white" stroke="black" points="1051.5,-492.5 1051.5,-513.5 1222.5,-513.5 1222.5,-492.5 1051.5,-492.5"/>
<text text-anchor="middle" x="1137" y="-500.5" font-family="Helvetica,sans-Serif" font-size="10.00">core/internal/MojVectorInternal.h</text>
</a>
</g>
<!-- Node27&#45;&gt;Node30 -->
<g id="edge106" class="edge"><title>Node27&#45;&gt;Node30</title>
<path fill="none" stroke="midnightblue" d="M1090.45,-550.362C1098.57,-542.104 1110,-530.472 1119.5,-520.803"/>
<polygon fill="midnightblue" stroke="midnightblue" points="1122.1,-523.156 1126.61,-513.571 1117.11,-518.25 1122.1,-523.156"/>
</g>
<!-- Node28&#45;&gt;Node2 -->
<g id="edge94" class="edge"><title>Node28&#45;&gt;Node2</title>
<path fill="none" stroke="midnightblue" d="M906.138,-492.125C914.912,-459.561 936.972,-360.718 904,-290 898.16,-277.474 887.156,-267.1 876.438,-259.314"/>
<polygon fill="midnightblue" stroke="midnightblue" points="878.256,-256.319 868.008,-253.633 874.345,-262.124 878.256,-256.319"/>
</g>
<!-- Node28&#45;&gt;Node18 -->
<g id="edge98" class="edge"><title>Node28&#45;&gt;Node18</title>
<path fill="none" stroke="midnightblue" d="M878.654,-492.414C857.653,-483.158 826.597,-469.173 800,-456 754.883,-433.655 703.561,-405.649 672.758,-388.553"/>
<polygon fill="midnightblue" stroke="midnightblue" points="674.327,-385.42 663.887,-383.616 670.923,-391.537 674.327,-385.42"/>
</g>
<!-- Node28&#45;&gt;Node19 -->
<g id="edge96" class="edge"><title>Node28&#45;&gt;Node19</title>
<path fill="none" stroke="midnightblue" d="M897.702,-492.238C882.232,-460.816 836.955,-368.846 816.833,-327.974"/>
<polygon fill="midnightblue" stroke="midnightblue" points="819.957,-326.395 812.4,-318.969 813.677,-329.487 819.957,-326.395"/>
</g>
<!-- Node29 -->
<g id="node79" class="node"><title>Node29</title>
<a xlink:href="MojRefCountInternal_8h.htm" target="_top" xlink:title="core/internal/MojRefCount\lInternal.h">
<polygon fill="white" stroke="black" points="1074,-421 1074,-455 1214,-455 1214,-421 1074,-421"/>
<text text-anchor="start" x="1082" y="-442" font-family="Helvetica,sans-Serif" font-size="10.00">core/internal/MojRefCount</text>
<text text-anchor="middle" x="1144" y="-429" font-family="Helvetica,sans-Serif" font-size="10.00">Internal.h</text>
</a>
</g>
<!-- Node28&#45;&gt;Node29 -->
<g id="edge100" class="edge"><title>Node28&#45;&gt;Node29</title>
<path fill="none" stroke="midnightblue" d="M941.989,-492.484C976.718,-483.118 1028.45,-469.164 1070.87,-457.723"/>
<polygon fill="midnightblue" stroke="midnightblue" points="1071.86,-461.082 1080.6,-455.099 1070.04,-454.324 1071.86,-461.082"/>
</g>
<!-- Node29&#45;&gt;Node26 -->
<g id="edge102" class="edge"><title>Node29&#45;&gt;Node26</title>
<path fill="none" stroke="midnightblue" d="M1144.79,-420.922C1145.17,-412.67 1145.63,-402.692 1146.03,-393.982"/>
<polygon fill="midnightblue" stroke="midnightblue" points="1149.53,-394.003 1146.5,-383.852 1142.54,-393.68 1149.53,-394.003"/>
</g>
<!-- Node31&#45;&gt;Node2 -->
<g id="edge110" class="edge"><title>Node31&#45;&gt;Node2</title>
<path fill="none" stroke="midnightblue" d="M467.5,-495.122C408.341,-485.381 317.065,-468.554 307,-456 296.991,-443.517 299.484,-434.125 307,-420 355.583,-328.699 403.336,-326.772 500,-290 550.17,-270.915 695.976,-255.847 782.112,-248.301"/>
<polygon fill="midnightblue" stroke="midnightblue" points="782.65,-251.767 792.311,-247.418 782.046,-244.793 782.65,-251.767"/>
</g>
<!-- Node31&#45;&gt;Node19 -->
<g id="edge112" class="edge"><title>Node31&#45;&gt;Node19</title>
<path fill="none" stroke="midnightblue" d="M565.935,-492.418C606.83,-482.808 661.946,-468.297 681,-456 733.674,-422.005 776.254,-359.406 795.65,-327.623"/>
<polygon fill="midnightblue" stroke="midnightblue" points="798.788,-329.195 800.911,-318.815 792.778,-325.606 798.788,-329.195"/>
</g>
<!-- Node32 -->
<g id="node89" class="node"><title>Node32</title>
<a xlink:href="MojThreadInternal_8h.htm" target="_top" xlink:title="core/internal/MojThreadInternal.h">
<polygon fill="white" stroke="black" points="497.5,-427.5 497.5,-448.5 672.5,-448.5 672.5,-427.5 497.5,-427.5"/>
<text text-anchor="middle" x="585" y="-435.5" font-family="Helvetica,sans-Serif" font-size="10.00">core/internal/MojThreadInternal.h</text>
</a>
</g>
<!-- Node31&#45;&gt;Node32 -->
<g id="edge114" class="edge"><title>Node31&#45;&gt;Node32</title>
<path fill="none" stroke="midnightblue" d="M529.064,-492.267C539.308,-482.328 554.733,-467.363 566.792,-455.664"/>
<polygon fill="midnightblue" stroke="midnightblue" points="569.402,-458.009 574.142,-448.534 564.528,-452.985 569.402,-458.009"/>
</g>
<!-- Node32&#45;&gt;Node18 -->
<g id="edge116" class="edge"><title>Node32&#45;&gt;Node18</title>
<path fill="none" stroke="midnightblue" d="M594.908,-427.267C603.994,-417.423 617.633,-402.648 628.385,-391"/>
<polygon fill="midnightblue" stroke="midnightblue" points="631.066,-393.256 635.277,-383.534 625.922,-388.508 631.066,-393.256"/>
</g>
</g>
</svg>
