<?xml version="1.0" encoding="UTF-8" standalone="no"?>
<!DOCTYPE svg PUBLIC "-//W3C//DTD SVG 1.1//EN"
 "http://www.w3.org/Graphics/SVG/1.1/DTD/svg11.dtd">
<!-- Generated by graphviz version 2.26.3 (20100126.1600)
 -->
<!-- Title: MojFile.h Pages: 1 -->
<svg width="3475pt" height="320pt"
 viewBox="0.00 0.00 3475.00 320.00" xmlns="http://www.w3.org/2000/svg" xmlns:xlink="http://www.w3.org/1999/xlink">
<g id="graph1" class="graph" transform="scale(1 1) rotate(0) translate(4 316)">
<title>MojFile.h</title>
<polygon fill="white" stroke="white" points="-4,5 -4,-316 3472,-316 3472,5 -4,5"/>
<!-- Node1 -->
<g id="node1" class="node"><title>Node1</title>
<polygon fill="#bfbfbf" stroke="black" points="2986.5,-290.5 2986.5,-311.5 3045.5,-311.5 3045.5,-290.5 2986.5,-290.5"/>
<text text-anchor="middle" x="3016" y="-298.5" font-family="Helvetica,sans-Serif" font-size="10.00">MojFile.h</text>
</g>
<!-- Node2 -->
<g id="node3" class="node"><title>Node2</title>
<a xlink:href="MojDb_8h.htm" target="_top" xlink:title="MojDb.h">
<polygon fill="white" stroke="black" points="1472.5,-232.5 1472.5,-253.5 1527.5,-253.5 1527.5,-232.5 1472.5,-232.5"/>
<text text-anchor="middle" x="1500" y="-240.5" font-family="Helvetica,sans-Serif" font-size="10.00">MojDb.h</text>
</a>
</g>
<!-- Node1&#45;&gt;Node2 -->
<g id="edge2" class="edge"><title>Node1&#45;&gt;Node2</title>
<path fill="none" stroke="midnightblue" d="M2976.38,-299.484C2758.74,-291.157 1711.7,-251.099 1527.65,-244.058"/>
<polygon fill="midnightblue" stroke="midnightblue" points="2976.27,-302.982 2986.4,-299.867 2976.54,-295.988 2976.27,-302.982"/>
</g>
<!-- Node16 -->
<g id="node36" class="node"><title>Node16</title>
<a xlink:href="MojDb_8cpp.htm" target="_top" xlink:title="MojDb.cpp">
<polygon fill="white" stroke="black" points="0,-174.5 0,-195.5 66,-195.5 66,-174.5 0,-174.5"/>
<text text-anchor="middle" x="33" y="-182.5" font-family="Helvetica,sans-Serif" font-size="10.00">MojDb.cpp</text>
</a>
</g>
<!-- Node1&#45;&gt;Node16 -->
<g id="edge106" class="edge"><title>Node1&#45;&gt;Node16</title>
<path fill="none" stroke="midnightblue" d="M2976.17,-300.817C2668.86,-299.222 671.397,-285.491 75,-196 72.1674,-195.575 69.2504,-195.034 66.3363,-194.42"/>
<polygon fill="midnightblue" stroke="midnightblue" points="2976.36,-304.318 2986.38,-300.869 2976.4,-297.318 2976.36,-304.318"/>
</g>
<!-- Node36 -->
<g id="node76" class="node"><title>Node36</title>
<a xlink:href="MojDbLevelEnv_8h.htm" target="_top" xlink:title="MojDbLevelEnv.h">
<polygon fill="white" stroke="black" points="2880,-232.5 2880,-253.5 2978,-253.5 2978,-232.5 2880,-232.5"/>
<text text-anchor="middle" x="2929" y="-240.5" font-family="Helvetica,sans-Serif" font-size="10.00">MojDbLevelEnv.h</text>
</a>
</g>
<!-- Node1&#45;&gt;Node36 -->
<g id="edge80" class="edge"><title>Node1&#45;&gt;Node36</title>
<path fill="none" stroke="midnightblue" d="M2991.31,-284.541C2976.4,-274.597 2957.83,-262.218 2944.86,-253.571"/>
<polygon fill="midnightblue" stroke="midnightblue" points="2989.78,-287.727 3000.04,-290.362 2993.66,-281.903 2989.78,-287.727"/>
</g>
<!-- Node39 -->
<g id="node83" class="node"><title>Node39</title>
<a xlink:href="MojDbBerkeleyEngine_8h.htm" target="_top" xlink:title="MojDbBerkeleyEngine.h">
<polygon fill="white" stroke="black" points="3039.5,-232.5 3039.5,-253.5 3168.5,-253.5 3168.5,-232.5 3039.5,-232.5"/>
<text text-anchor="middle" x="3104" y="-240.5" font-family="Helvetica,sans-Serif" font-size="10.00">MojDbBerkeleyEngine.h</text>
</a>
</g>
<!-- Node1&#45;&gt;Node39 -->
<g id="edge88" class="edge"><title>Node1&#45;&gt;Node39</title>
<path fill="none" stroke="midnightblue" d="M3040.55,-284.821C3055.7,-274.831 3074.72,-262.299 3087.96,-253.571"/>
<polygon fill="midnightblue" stroke="midnightblue" points="3038.56,-281.936 3032.14,-290.362 3042.42,-287.781 3038.56,-281.936"/>
</g>
<!-- Node43 -->
<g id="node94" class="node"><title>Node43</title>
<a xlink:href="MojFile_8cpp.htm" target="_top" xlink:title="MojFile.cpp">
<polygon fill="white" stroke="black" points="3186,-232.5 3186,-253.5 3256,-253.5 3256,-232.5 3186,-232.5"/>
<text text-anchor="middle" x="3221" y="-240.5" font-family="Helvetica,sans-Serif" font-size="10.00">MojFile.cpp</text>
</a>
</g>
<!-- Node1&#45;&gt;Node43 -->
<g id="edge102" class="edge"><title>Node1&#45;&gt;Node43</title>
<path fill="none" stroke="midnightblue" d="M3055.44,-289.842C3093.12,-279.182 3149.39,-263.26 3185.65,-253.002"/>
<polygon fill="midnightblue" stroke="midnightblue" points="3054.48,-286.476 3045.81,-292.566 3056.38,-293.212 3054.48,-286.476"/>
</g>
<!-- Node44 -->
<g id="node96" class="node"><title>Node44</title>
<a xlink:href="MojUtil_8cpp.htm" target="_top" xlink:title="MojUtil.cpp">
<polygon fill="white" stroke="black" points="3274,-232.5 3274,-253.5 3342,-253.5 3342,-232.5 3274,-232.5"/>
<text text-anchor="middle" x="3308" y="-240.5" font-family="Helvetica,sans-Serif" font-size="10.00">MojUtil.cpp</text>
</a>
</g>
<!-- Node1&#45;&gt;Node44 -->
<g id="edge104" class="edge"><title>Node1&#45;&gt;Node44</title>
<path fill="none" stroke="midnightblue" d="M3055.56,-294.336C3104.81,-285.856 3191.43,-270.337 3265,-254 3267.86,-253.365 3270.82,-252.677 3273.78,-251.964"/>
<polygon fill="midnightblue" stroke="midnightblue" points="3054.9,-290.898 3045.64,-296.037 3056.09,-297.798 3054.9,-290.898"/>
</g>
<!-- Node3 -->
<g id="node5" class="node"><title>Node3</title>
<a xlink:href="MojDbClient_8h.htm" target="_top" xlink:title="MojDbClient.h">
<polygon fill="white" stroke="black" points="548,-174.5 548,-195.5 630,-195.5 630,-174.5 548,-174.5"/>
<text text-anchor="middle" x="589" y="-182.5" font-family="Helvetica,sans-Serif" font-size="10.00">MojDbClient.h</text>
</a>
</g>
<!-- Node2&#45;&gt;Node3 -->
<g id="edge4" class="edge"><title>Node2&#45;&gt;Node3</title>
<path fill="none" stroke="midnightblue" d="M1461.94,-241.744C1317.29,-236.844 801.615,-218.177 639,-196 636.094,-195.604 633.106,-195.127 630.106,-194.597"/>
<polygon fill="midnightblue" stroke="midnightblue" points="1461.98,-245.247 1472.09,-242.086 1462.22,-238.251 1461.98,-245.247"/>
</g>
<!-- Node7 -->
<g id="node13" class="node"><title>Node7</title>
<a xlink:href="MojDbServiceHandlerBase_8h.htm" target="_top" xlink:title="MojDbServiceHandlerBase.h">
<polygon fill="white" stroke="black" points="2360,-174.5 2360,-195.5 2512,-195.5 2512,-174.5 2360,-174.5"/>
<text text-anchor="middle" x="2436" y="-182.5" font-family="Helvetica,sans-Serif" font-size="10.00">MojDbServiceHandlerBase.h</text>
</a>
</g>
<!-- Node2&#45;&gt;Node7 -->
<g id="edge12" class="edge"><title>Node2&#45;&gt;Node7</title>
<path fill="none" stroke="midnightblue" d="M1537.87,-241.79C1656.97,-237.791 2034.51,-223.657 2346,-196 2350.55,-195.596 2355.22,-195.143 2359.93,-194.656"/>
<polygon fill="midnightblue" stroke="midnightblue" points="1537.68,-238.294 1527.8,-242.124 1537.91,-245.29 1537.68,-238.294"/>
</g>
<!-- Node14 -->
<g id="node28" class="node"><title>Node14</title>
<a xlink:href="MojDbServiceHandlerInternal_8h.htm" target="_top" xlink:title="MojDbServiceHandlerInternal.h">
<polygon fill="white" stroke="black" points="2211,-116.5 2211,-137.5 2375,-137.5 2375,-116.5 2211,-116.5"/>
<text text-anchor="middle" x="2293" y="-124.5" font-family="Helvetica,sans-Serif" font-size="10.00">MojDbServiceHandlerInternal.h</text>
</a>
</g>
<!-- Node2&#45;&gt;Node14 -->
<g id="edge38" class="edge"><title>Node2&#45;&gt;Node14</title>
<path fill="none" stroke="midnightblue" d="M1538,-242.238C1694.98,-238.911 2286.08,-224.519 2313,-196 2328.32,-179.764 2312.44,-152.499 2301.5,-137.566"/>
<polygon fill="midnightblue" stroke="midnightblue" points="1537.8,-238.742 1527.88,-242.45 1537.95,-245.74 1537.8,-238.742"/>
</g>
<!-- Node2&#45;&gt;Node16 -->
<g id="edge40" class="edge"><title>Node2&#45;&gt;Node16</title>
<path fill="none" stroke="midnightblue" d="M1462.21,-242.258C1250.46,-238.032 215.615,-216.47 75,-196 72.1656,-195.587 69.2472,-195.055 66.3323,-194.447"/>
<polygon fill="midnightblue" stroke="midnightblue" points="1462.16,-245.757 1472.23,-242.457 1462.3,-238.759 1462.16,-245.757"/>
</g>
<!-- Node17 -->
<g id="node38" class="node"><title>Node17</title>
<a xlink:href="MojDbAdmin_8cpp.htm" target="_top" xlink:title="MojDbAdmin.cpp">
<polygon fill="white" stroke="black" points="2529.5,-174.5 2529.5,-195.5 2624.5,-195.5 2624.5,-174.5 2529.5,-174.5"/>
<text text-anchor="middle" x="2577" y="-182.5" font-family="Helvetica,sans-Serif" font-size="10.00">MojDbAdmin.cpp</text>
</a>
</g>
<!-- Node2&#45;&gt;Node17 -->
<g id="edge42" class="edge"><title>Node2&#45;&gt;Node17</title>
<path fill="none" stroke="midnightblue" d="M1538.05,-242.004C1699.06,-237.67 2325.11,-219.616 2521,-196 2523.75,-195.668 2526.58,-195.277 2529.42,-194.844"/>
<polygon fill="midnightblue" stroke="midnightblue" points="1537.6,-238.514 1527.69,-242.28 1537.78,-245.512 1537.6,-238.514"/>
</g>
<!-- Node18 -->
<g id="node40" class="node"><title>Node18</title>
<a xlink:href="MojDbCursor_8cpp.htm" target="_top" xlink:title="MojDbCursor.cpp">
<polygon fill="white" stroke="black" points="84,-174.5 84,-195.5 182,-195.5 182,-174.5 84,-174.5"/>
<text text-anchor="middle" x="133" y="-182.5" font-family="Helvetica,sans-Serif" font-size="10.00">MojDbCursor.cpp</text>
</a>
</g>
<!-- Node2&#45;&gt;Node18 -->
<g id="edge44" class="edge"><title>Node2&#45;&gt;Node18</title>
<path fill="none" stroke="midnightblue" d="M1462.31,-242.419C1275.42,-239.419 447.045,-224.709 191,-196 188.148,-195.68 185.226,-195.299 182.284,-194.873"/>
<polygon fill="midnightblue" stroke="midnightblue" points="1462.4,-245.921 1472.46,-242.58 1462.51,-238.921 1462.4,-245.921"/>
</g>
<!-- Node19 -->
<g id="node42" class="node"><title>Node19</title>
<a xlink:href="MojDbIndex_8cpp.htm" target="_top" xlink:title="MojDbIndex.cpp">
<polygon fill="white" stroke="black" points="200,-174.5 200,-195.5 292,-195.5 292,-174.5 200,-174.5"/>
<text text-anchor="middle" x="246" y="-182.5" font-family="Helvetica,sans-Serif" font-size="10.00">MojDbIndex.cpp</text>
</a>
</g>
<!-- Node2&#45;&gt;Node19 -->
<g id="edge46" class="edge"><title>Node2&#45;&gt;Node19</title>
<path fill="none" stroke="midnightblue" d="M1462.11,-242.323C1284.56,-239.025 533.878,-223.676 301,-196 298.099,-195.655 295.123,-195.24 292.129,-194.776"/>
<polygon fill="midnightblue" stroke="midnightblue" points="1462.2,-245.825 1472.26,-242.51 1462.33,-238.826 1462.2,-245.825"/>
</g>
<!-- Node20 -->
<g id="node44" class="node"><title>Node20</title>
<a xlink:href="MojDbIsamQuery_8cpp.htm" target="_top" xlink:title="MojDbIsamQuery.cpp">
<polygon fill="white" stroke="black" points="309.5,-174.5 309.5,-195.5 426.5,-195.5 426.5,-174.5 309.5,-174.5"/>
<text text-anchor="middle" x="368" y="-182.5" font-family="Helvetica,sans-Serif" font-size="10.00">MojDbIsamQuery.cpp</text>
</a>
</g>
<!-- Node2&#45;&gt;Node20 -->
<g id="edge48" class="edge"><title>Node2&#45;&gt;Node20</title>
<path fill="none" stroke="midnightblue" d="M1461.93,-241.927C1296.64,-237.174 640.351,-217.312 435,-196 432.303,-195.72 429.55,-195.402 426.773,-195.054"/>
<polygon fill="midnightblue" stroke="midnightblue" points="1462,-245.43 1472.1,-242.218 1462.2,-238.433 1462,-245.43"/>
</g>
<!-- Node21 -->
<g id="node46" class="node"><title>Node21</title>
<a xlink:href="MojDbKind_8cpp.htm" target="_top" xlink:title="MojDbKind.cpp">
<polygon fill="white" stroke="black" points="443.5,-174.5 443.5,-195.5 530.5,-195.5 530.5,-174.5 443.5,-174.5"/>
<text text-anchor="middle" x="487" y="-182.5" font-family="Helvetica,sans-Serif" font-size="10.00">MojDbKind.cpp</text>
</a>
</g>
<!-- Node2&#45;&gt;Node21 -->
<g id="edge50" class="edge"><title>Node2&#45;&gt;Node21</title>
<path fill="none" stroke="midnightblue" d="M1461.69,-241.944C1306.25,-237.534 722.212,-219.704 539,-196 536.255,-195.645 533.439,-195.222 530.606,-194.752"/>
<polygon fill="midnightblue" stroke="midnightblue" points="1462.04,-245.455 1472.13,-242.238 1462.23,-238.458 1462.04,-245.455"/>
</g>
<!-- Node22 -->
<g id="node48" class="node"><title>Node22</title>
<a xlink:href="MojDbKindEngine_8cpp.htm" target="_top" xlink:title="MojDbKindEngine.cpp">
<polygon fill="white" stroke="black" points="648,-174.5 648,-195.5 768,-195.5 768,-174.5 648,-174.5"/>
<text text-anchor="middle" x="708" y="-182.5" font-family="Helvetica,sans-Serif" font-size="10.00">MojDbKindEngine.cpp</text>
</a>
</g>
<!-- Node2&#45;&gt;Node22 -->
<g id="edge52" class="edge"><title>Node2&#45;&gt;Node22</title>
<path fill="none" stroke="midnightblue" d="M1462.32,-241.789C1354.94,-238.072 1038.31,-225.258 777,-196 774.107,-195.676 771.15,-195.316 768.166,-194.93"/>
<polygon fill="midnightblue" stroke="midnightblue" points="1462.22,-245.288 1472.34,-242.13 1462.46,-238.292 1462.22,-245.288"/>
</g>
<!-- Node23 -->
<g id="node50" class="node"><title>Node23</title>
<a xlink:href="MojDbObjectHeader_8cpp.htm" target="_top" xlink:title="MojDbObjectHeader.cpp">
<polygon fill="white" stroke="black" points="785.5,-174.5 785.5,-195.5 916.5,-195.5 916.5,-174.5 785.5,-174.5"/>
<text text-anchor="middle" x="851" y="-182.5" font-family="Helvetica,sans-Serif" font-size="10.00">MojDbObjectHeader.cpp</text>
</a>
</g>
<!-- Node2&#45;&gt;Node23 -->
<g id="edge54" class="edge"><title>Node2&#45;&gt;Node23</title>
<path fill="none" stroke="midnightblue" d="M1462.19,-240.776C1370.11,-235.172 1126.95,-219.238 925,-196 922.29,-195.688 919.527,-195.354 916.738,-195.002"/>
<polygon fill="midnightblue" stroke="midnightblue" points="1462.21,-244.284 1472.41,-241.393 1462.64,-237.297 1462.21,-244.284"/>
</g>
<!-- Node24 -->
<g id="node52" class="node"><title>Node24</title>
<a xlink:href="MojDbObjectItem_8cpp.htm" target="_top" xlink:title="MojDbObjectItem.cpp">
<polygon fill="white" stroke="black" points="934,-174.5 934,-195.5 1050,-195.5 1050,-174.5 934,-174.5"/>
<text text-anchor="middle" x="992" y="-182.5" font-family="Helvetica,sans-Serif" font-size="10.00">MojDbObjectItem.cpp</text>
</a>
</g>
<!-- Node2&#45;&gt;Node24 -->
<g id="edge56" class="edge"><title>Node2&#45;&gt;Node24</title>
<path fill="none" stroke="midnightblue" d="M1462.25,-239.702C1385.92,-232.874 1207.84,-216.134 1059,-196 1056.08,-195.605 1053.09,-195.182 1050.07,-194.741"/>
<polygon fill="midnightblue" stroke="midnightblue" points="1462.06,-243.199 1472.33,-240.599 1462.68,-236.226 1462.06,-243.199"/>
</g>
<!-- Node25 -->
<g id="node54" class="node"><title>Node25</title>
<a xlink:href="MojDbPermissionEngine_8cpp.htm" target="_top" xlink:title="MojDbPermissionEngine.cpp">
<polygon fill="white" stroke="black" points="1067.5,-174.5 1067.5,-195.5 1218.5,-195.5 1218.5,-174.5 1067.5,-174.5"/>
<text text-anchor="middle" x="1143" y="-182.5" font-family="Helvetica,sans-Serif" font-size="10.00">MojDbPermissionEngine.cpp</text>
</a>
</g>
<!-- Node2&#45;&gt;Node25 -->
<g id="edge58" class="edge"><title>Node2&#45;&gt;Node25</title>
<path fill="none" stroke="midnightblue" d="M1462.4,-236.892C1401.94,-227.069 1282.35,-207.639 1207.89,-195.542"/>
<polygon fill="midnightblue" stroke="midnightblue" points="1461.85,-240.348 1472.28,-238.497 1462.97,-233.439 1461.85,-240.348"/>
</g>
<!-- Node26 -->
<g id="node56" class="node"><title>Node26</title>
<a xlink:href="MojDbPutHandler_8cpp.htm" target="_top" xlink:title="MojDbPutHandler.cpp">
<polygon fill="white" stroke="black" points="1235.5,-174.5 1235.5,-195.5 1354.5,-195.5 1354.5,-174.5 1235.5,-174.5"/>
<text text-anchor="middle" x="1295" y="-182.5" font-family="Helvetica,sans-Serif" font-size="10.00">MojDbPutHandler.cpp</text>
</a>
</g>
<!-- Node2&#45;&gt;Node26 -->
<g id="edge60" class="edge"><title>Node2&#45;&gt;Node26</title>
<path fill="none" stroke="midnightblue" d="M1462.45,-232.377C1425.43,-221.902 1369.18,-205.988 1332.26,-195.542"/>
<polygon fill="midnightblue" stroke="midnightblue" points="1461.78,-235.823 1472.35,-235.178 1463.68,-229.088 1461.78,-235.823"/>
</g>
<!-- Node27 -->
<g id="node58" class="node"><title>Node27</title>
<a xlink:href="MojDbQueryPlan_8cpp.htm" target="_top" xlink:title="MojDbQueryPlan.cpp">
<polygon fill="white" stroke="black" points="1372,-174.5 1372,-195.5 1488,-195.5 1488,-174.5 1372,-174.5"/>
<text text-anchor="middle" x="1430" y="-182.5" font-family="Helvetica,sans-Serif" font-size="10.00">MojDbQueryPlan.cpp</text>
</a>
</g>
<!-- Node2&#45;&gt;Node27 -->
<g id="edge62" class="edge"><title>Node2&#45;&gt;Node27</title>
<path fill="none" stroke="midnightblue" d="M1479.45,-225.975C1467.57,-216.132 1453,-204.055 1442.76,-195.571"/>
<polygon fill="midnightblue" stroke="midnightblue" points="1477.23,-228.677 1487.16,-232.362 1481.69,-223.287 1477.23,-228.677"/>
</g>
<!-- Node28 -->
<g id="node60" class="node"><title>Node28</title>
<a xlink:href="MojDbQuotaEngine_8cpp.htm" target="_top" xlink:title="MojDbQuotaEngine.cpp">
<polygon fill="white" stroke="black" points="1506,-174.5 1506,-195.5 1634,-195.5 1634,-174.5 1506,-174.5"/>
<text text-anchor="middle" x="1570" y="-182.5" font-family="Helvetica,sans-Serif" font-size="10.00">MojDbQuotaEngine.cpp</text>
</a>
</g>
<!-- Node2&#45;&gt;Node28 -->
<g id="edge64" class="edge"><title>Node2&#45;&gt;Node28</title>
<path fill="none" stroke="midnightblue" d="M1520.55,-225.975C1532.43,-216.132 1547,-204.055 1557.24,-195.571"/>
<polygon fill="midnightblue" stroke="midnightblue" points="1518.31,-223.287 1512.84,-232.362 1522.77,-228.677 1518.31,-223.287"/>
</g>
<!-- Node29 -->
<g id="node62" class="node"><title>Node29</title>
<a xlink:href="MojDbReq_8cpp.htm" target="_top" xlink:title="MojDbReq.cpp">
<polygon fill="white" stroke="black" points="1652,-174.5 1652,-195.5 1738,-195.5 1738,-174.5 1652,-174.5"/>
<text text-anchor="middle" x="1695" y="-182.5" font-family="Helvetica,sans-Serif" font-size="10.00">MojDbReq.cpp</text>
</a>
</g>
<!-- Node2&#45;&gt;Node29 -->
<g id="edge66" class="edge"><title>Node2&#45;&gt;Node29</title>
<path fill="none" stroke="midnightblue" d="M1537.43,-231.866C1572.7,-221.377 1625.14,-205.779 1659.69,-195.502"/>
<polygon fill="midnightblue" stroke="midnightblue" points="1536.11,-228.607 1527.53,-234.813 1538.11,-235.317 1536.11,-228.607"/>
</g>
<!-- Node30 -->
<g id="node64" class="node"><title>Node30</title>
<a xlink:href="MojDbRevisionSet_8cpp.htm" target="_top" xlink:title="MojDbRevisionSet.cpp">
<polygon fill="white" stroke="black" points="1756,-174.5 1756,-195.5 1878,-195.5 1878,-174.5 1756,-174.5"/>
<text text-anchor="middle" x="1817" y="-182.5" font-family="Helvetica,sans-Serif" font-size="10.00">MojDbRevisionSet.cpp</text>
</a>
</g>
<!-- Node2&#45;&gt;Node30 -->
<g id="edge68" class="edge"><title>Node2&#45;&gt;Node30</title>
<path fill="none" stroke="midnightblue" d="M1537.57,-236.125C1592.48,-226.08 1695.08,-207.308 1759.5,-195.52"/>
<polygon fill="midnightblue" stroke="midnightblue" points="1536.78,-232.712 1527.58,-237.954 1538.04,-239.597 1536.78,-232.712"/>
</g>
<!-- Node31 -->
<g id="node66" class="node"><title>Node31</title>
<a xlink:href="MojDbSearchCursor_8cpp.htm" target="_top" xlink:title="MojDbSearchCursor.cpp">
<polygon fill="white" stroke="black" points="1895.5,-174.5 1895.5,-195.5 2026.5,-195.5 2026.5,-174.5 1895.5,-174.5"/>
<text text-anchor="middle" x="1961" y="-182.5" font-family="Helvetica,sans-Serif" font-size="10.00">MojDbSearchCursor.cpp</text>
</a>
</g>
<!-- Node2&#45;&gt;Node31 -->
<g id="edge70" class="edge"><title>Node2&#45;&gt;Node31</title>
<path fill="none" stroke="midnightblue" d="M1537.72,-238.758C1606.98,-230.893 1759.09,-213.271 1887,-196 1889.7,-195.635 1892.46,-195.256 1895.25,-194.867"/>
<polygon fill="midnightblue" stroke="midnightblue" points="1537.26,-235.287 1527.72,-239.891 1538.05,-242.243 1537.26,-235.287"/>
</g>
<!-- Node32 -->
<g id="node68" class="node"><title>Node32</title>
<a xlink:href="MojDbWatcher_8cpp.htm" target="_top" xlink:title="MojDbWatcher.cpp">
<polygon fill="white" stroke="black" points="2044,-174.5 2044,-195.5 2150,-195.5 2150,-174.5 2044,-174.5"/>
<text text-anchor="middle" x="2097" y="-182.5" font-family="Helvetica,sans-Serif" font-size="10.00">MojDbWatcher.cpp</text>
</a>
</g>
<!-- Node2&#45;&gt;Node32 -->
<g id="edge72" class="edge"><title>Node2&#45;&gt;Node32</title>
<path fill="none" stroke="midnightblue" d="M1537.97,-240.102C1643.43,-231.983 1938.49,-208.776 2035,-196 2037.93,-195.613 2040.92,-195.185 2043.95,-194.729"/>
<polygon fill="midnightblue" stroke="midnightblue" points="1537.49,-236.628 1527.79,-240.884 1538.03,-243.608 1537.49,-236.628"/>
</g>
<!-- Node33 -->
<g id="node70" class="node"><title>Node33</title>
<a xlink:href="MojDbLevelDatabase_8cpp.htm" target="_top" xlink:title="MojDbLevelDatabase.cpp">
<polygon fill="white" stroke="black" points="2167.5,-174.5 2167.5,-195.5 2304.5,-195.5 2304.5,-174.5 2167.5,-174.5"/>
<text text-anchor="middle" x="2236" y="-182.5" font-family="Helvetica,sans-Serif" font-size="10.00">MojDbLevelDatabase.cpp</text>
</a>
</g>
<!-- Node2&#45;&gt;Node33 -->
<g id="edge74" class="edge"><title>Node2&#45;&gt;Node33</title>
<path fill="none" stroke="midnightblue" d="M1537.7,-241.246C1638.62,-236.35 1923.28,-221.212 2159,-196 2161.69,-195.713 2164.42,-195.403 2167.18,-195.077"/>
<polygon fill="midnightblue" stroke="midnightblue" points="1537.51,-237.752 1527.69,-241.728 1537.84,-244.743 1537.51,-237.752"/>
</g>
<!-- Node34 -->
<g id="node72" class="node"><title>Node34</title>
<a xlink:href="MojDbLevelEngine_8cpp.htm" target="_top" xlink:title="MojDbLevelEngine.cpp">
<polygon fill="white" stroke="black" points="2679.5,-174.5 2679.5,-195.5 2804.5,-195.5 2804.5,-174.5 2679.5,-174.5"/>
<text text-anchor="middle" x="2742" y="-182.5" font-family="Helvetica,sans-Serif" font-size="10.00">MojDbLevelEngine.cpp</text>
</a>
</g>
<!-- Node2&#45;&gt;Node34 -->
<g id="edge76" class="edge"><title>Node2&#45;&gt;Node34</title>
<path fill="none" stroke="midnightblue" d="M1537.93,-242C1712.46,-237.318 2439.38,-216.911 2666,-196 2670.38,-195.596 2674.9,-195.113 2679.44,-194.579"/>
<polygon fill="midnightblue" stroke="midnightblue" points="1537.61,-238.507 1527.71,-242.273 1537.8,-245.505 1537.61,-238.507"/>
</g>
<!-- Node35 -->
<g id="node74" class="node"><title>Node35</title>
<a xlink:href="MojDbBerkeleyEngine_8cpp.htm" target="_top" xlink:title="MojDbBerkeleyEngine.cpp">
<polygon fill="white" stroke="black" points="3034,-116.5 3034,-137.5 3174,-137.5 3174,-116.5 3034,-116.5"/>
<text text-anchor="middle" x="3104" y="-124.5" font-family="Helvetica,sans-Serif" font-size="10.00">MojDbBerkeleyEngine.cpp</text>
</a>
</g>
<!-- Node2&#45;&gt;Node35 -->
<g id="edge78" class="edge"><title>Node2&#45;&gt;Node35</title>
<path fill="none" stroke="midnightblue" d="M1537.76,-242.507C1722.43,-239.953 2526.03,-227.123 2633,-196 2651.74,-190.548 2652.45,-180.073 2671,-174 2736.57,-152.527 2928.71,-137.784 3033.63,-131.088"/>
<polygon fill="midnightblue" stroke="midnightblue" points="1537.66,-239.008 1527.71,-242.644 1537.76,-246.007 1537.66,-239.008"/>
</g>
<!-- Node4 -->
<g id="node7" class="node"><title>Node4</title>
<a xlink:href="MojDbServiceClient_8h.htm" target="_top" xlink:title="MojDbServiceClient.h">
<polygon fill="white" stroke="black" points="591.5,-116.5 591.5,-137.5 708.5,-137.5 708.5,-116.5 591.5,-116.5"/>
<text text-anchor="middle" x="650" y="-124.5" font-family="Helvetica,sans-Serif" font-size="10.00">MojDbServiceClient.h</text>
</a>
</g>
<!-- Node3&#45;&gt;Node4 -->
<g id="edge6" class="edge"><title>Node3&#45;&gt;Node4</title>
<path fill="none" stroke="midnightblue" d="M607.505,-167.405C617.745,-157.668 630.131,-145.891 638.883,-137.571"/>
<polygon fill="midnightblue" stroke="midnightblue" points="605.024,-164.935 600.188,-174.362 609.847,-170.008 605.024,-164.935"/>
</g>
<!-- Node6 -->
<g id="node11" class="node"><title>Node6</title>
<a xlink:href="MojDbClient_8cpp.htm" target="_top" xlink:title="MojDbClient.cpp">
<polygon fill="white" stroke="black" points="481.5,-116.5 481.5,-137.5 574.5,-137.5 574.5,-116.5 481.5,-116.5"/>
<text text-anchor="middle" x="528" y="-124.5" font-family="Helvetica,sans-Serif" font-size="10.00">MojDbClient.cpp</text>
</a>
</g>
<!-- Node3&#45;&gt;Node6 -->
<g id="edge10" class="edge"><title>Node3&#45;&gt;Node6</title>
<path fill="none" stroke="midnightblue" d="M570.495,-167.405C560.255,-157.668 547.869,-145.891 539.117,-137.571"/>
<polygon fill="midnightblue" stroke="midnightblue" points="568.153,-170.008 577.812,-174.362 572.976,-164.935 568.153,-170.008"/>
</g>
<!-- Node5 -->
<g id="node9" class="node"><title>Node5</title>
<a xlink:href="MojDbServiceClient_8cpp.htm" target="_top" xlink:title="MojDbServiceClient.cpp">
<polygon fill="white" stroke="black" points="586,-58.5 586,-79.5 714,-79.5 714,-58.5 586,-58.5"/>
<text text-anchor="middle" x="650" y="-66.5" font-family="Helvetica,sans-Serif" font-size="10.00">MojDbServiceClient.cpp</text>
</a>
</g>
<!-- Node4&#45;&gt;Node5 -->
<g id="edge8" class="edge"><title>Node4&#45;&gt;Node5</title>
<path fill="none" stroke="midnightblue" d="M650,-106.191C650,-97.1684 650,-86.9941 650,-79.5707"/>
<polygon fill="midnightblue" stroke="midnightblue" points="646.5,-106.362 650,-116.362 653.5,-106.362 646.5,-106.362"/>
</g>
<!-- Node8 -->
<g id="node15" class="node"><title>Node8</title>
<a xlink:href="MojDbServiceHandler_8h.htm" target="_top" xlink:title="MojDbServiceHandler.h">
<polygon fill="white" stroke="black" points="2573,-116.5 2573,-137.5 2701,-137.5 2701,-116.5 2573,-116.5"/>
<text text-anchor="middle" x="2637" y="-124.5" font-family="Helvetica,sans-Serif" font-size="10.00">MojDbServiceHandler.h</text>
</a>
</g>
<!-- Node7&#45;&gt;Node8 -->
<g id="edge14" class="edge"><title>Node7&#45;&gt;Node8</title>
<path fill="none" stroke="midnightblue" d="M2482.16,-171.68C2518.11,-161.307 2567.32,-147.108 2600.53,-137.523"/>
<polygon fill="midnightblue" stroke="midnightblue" points="2481.04,-168.361 2472.4,-174.497 2482.98,-175.087 2481.04,-168.361"/>
</g>
<!-- Node7&#45;&gt;Node14 -->
<g id="edge28" class="edge"><title>Node7&#45;&gt;Node14</title>
<path fill="none" stroke="midnightblue" d="M2400.53,-170.615C2375.32,-160.389 2342.01,-146.88 2319.19,-137.621"/>
<polygon fill="midnightblue" stroke="midnightblue" points="2399.52,-173.981 2410.1,-174.497 2402.15,-167.495 2399.52,-173.981"/>
</g>
<!-- Node15 -->
<g id="node33" class="node"><title>Node15</title>
<a xlink:href="MojDbServiceHandlerBase_8cpp.htm" target="_top" xlink:title="MojDbServiceHandlerBase.cpp">
<polygon fill="white" stroke="black" points="2392.5,-116.5 2392.5,-137.5 2555.5,-137.5 2555.5,-116.5 2392.5,-116.5"/>
<text text-anchor="middle" x="2474" y="-124.5" font-family="Helvetica,sans-Serif" font-size="10.00">MojDbServiceHandlerBase.cpp</text>
</a>
</g>
<!-- Node7&#45;&gt;Node15 -->
<g id="edge36" class="edge"><title>Node7&#45;&gt;Node15</title>
<path fill="none" stroke="midnightblue" d="M2448.48,-165.959C2454.66,-156.522 2461.89,-145.484 2467.07,-137.571"/>
<polygon fill="midnightblue" stroke="midnightblue" points="2445.52,-164.079 2442.97,-174.362 2451.38,-167.915 2445.52,-164.079"/>
</g>
<!-- Node9 -->
<g id="node17" class="node"><title>Node9</title>
<a xlink:href="MojDbServiceHandler_8cpp.htm" target="_top" xlink:title="MojDbServiceHandler.cpp">
<polygon fill="white" stroke="black" points="2175.5,-58.5 2175.5,-79.5 2314.5,-79.5 2314.5,-58.5 2175.5,-58.5"/>
<text text-anchor="middle" x="2245" y="-66.5" font-family="Helvetica,sans-Serif" font-size="10.00">MojDbServiceHandler.cpp</text>
</a>
</g>
<!-- Node8&#45;&gt;Node9 -->
<g id="edge16" class="edge"><title>Node8&#45;&gt;Node9</title>
<path fill="none" stroke="midnightblue" d="M2562.9,-115.84C2471.27,-102.196 2377.07,-88.3463 2314.71,-79.2031"/>
<polygon fill="midnightblue" stroke="midnightblue" points="2562.5,-119.318 2572.91,-117.33 2563.53,-112.395 2562.5,-119.318"/>
</g>
<!-- Node10 -->
<g id="node19" class="node"><title>Node10</title>
<a xlink:href="MojDbServiceHandlerInternal_8cpp.htm" target="_top" xlink:title="MojDbServiceHandlerInternal.cpp">
<polygon fill="white" stroke="black" points="2331.5,-58.5 2331.5,-79.5 2506.5,-79.5 2506.5,-58.5 2331.5,-58.5"/>
<text text-anchor="middle" x="2419" y="-66.5" font-family="Helvetica,sans-Serif" font-size="10.00">MojDbServiceHandlerInternal.cpp</text>
</a>
</g>
<!-- Node8&#45;&gt;Node10 -->
<g id="edge18" class="edge"><title>Node8&#45;&gt;Node10</title>
<path fill="none" stroke="midnightblue" d="M2587.43,-113.812C2548.4,-103.428 2494.73,-89.1487 2458.55,-79.5231"/>
<polygon fill="midnightblue" stroke="midnightblue" points="2586.96,-117.308 2597.52,-116.497 2588.76,-110.543 2586.96,-117.308"/>
</g>
<!-- Node11 -->
<g id="node21" class="node"><title>Node11</title>
<a xlink:href="MojDbServiceSchemas_8cpp.htm" target="_top" xlink:title="MojDbServiceSchemas.cpp">
<polygon fill="white" stroke="black" points="2711.5,-58.5 2711.5,-79.5 2856.5,-79.5 2856.5,-58.5 2711.5,-58.5"/>
<text text-anchor="middle" x="2784" y="-66.5" font-family="Helvetica,sans-Serif" font-size="10.00">MojDbServiceSchemas.cpp</text>
</a>
</g>
<!-- Node8&#45;&gt;Node11 -->
<g id="edge20" class="edge"><title>Node8&#45;&gt;Node11</title>
<path fill="none" stroke="midnightblue" d="M2673.11,-112.751C2699.07,-102.509 2733.51,-88.9206 2757.08,-79.6212"/>
<polygon fill="midnightblue" stroke="midnightblue" points="2671.64,-109.571 2663.62,-116.497 2674.21,-116.082 2671.64,-109.571"/>
</g>
<!-- Node12 -->
<g id="node23" class="node"><title>Node12</title>
<a xlink:href="MojDbLunaServiceApp_8h.htm" target="_top" xlink:title="MojDbLunaServiceApp.h">
<polygon fill="white" stroke="black" points="2524,-58.5 2524,-79.5 2656,-79.5 2656,-58.5 2524,-58.5"/>
<text text-anchor="middle" x="2590" y="-66.5" font-family="Helvetica,sans-Serif" font-size="10.00">MojDbLunaServiceApp.h</text>
</a>
</g>
<!-- Node8&#45;&gt;Node12 -->
<g id="edge22" class="edge"><title>Node8&#45;&gt;Node12</title>
<path fill="none" stroke="midnightblue" d="M2622.04,-108.541C2614.29,-98.9786 2605.11,-87.6467 2598.57,-79.5707"/>
<polygon fill="midnightblue" stroke="midnightblue" points="2619.36,-110.796 2628.38,-116.362 2624.8,-106.389 2619.36,-110.796"/>
</g>
<!-- Node13 -->
<g id="node25" class="node"><title>Node13</title>
<a xlink:href="MojDbLunaServiceApp_8cpp.htm" target="_top" xlink:title="MojDbLunaServiceApp.cpp">
<polygon fill="white" stroke="black" points="2565.5,-0.5 2565.5,-21.5 2708.5,-21.5 2708.5,-0.5 2565.5,-0.5"/>
<text text-anchor="middle" x="2637" y="-8.5" font-family="Helvetica,sans-Serif" font-size="10.00">MojDbLunaServiceApp.cpp</text>
</a>
</g>
<!-- Node8&#45;&gt;Node13 -->
<g id="edge26" class="edge"><title>Node8&#45;&gt;Node13</title>
<path fill="none" stroke="midnightblue" d="M2651.59,-107.847C2656.92,-99.7141 2662.29,-89.847 2665,-80 2667.6,-70.5729 2667.6,-67.4271 2665,-58 2661.27,-44.4472 2652.49,-30.8561 2645.75,-21.8007"/>
<polygon fill="midnightblue" stroke="midnightblue" points="2648.62,-105.999 2645.75,-116.199 2654.35,-110.01 2648.62,-105.999"/>
</g>
<!-- Node12&#45;&gt;Node13 -->
<g id="edge24" class="edge"><title>Node12&#45;&gt;Node13</title>
<path fill="none" stroke="midnightblue" d="M2604.96,-50.5407C2612.71,-40.9786 2621.89,-29.6467 2628.43,-21.5707"/>
<polygon fill="midnightblue" stroke="midnightblue" points="2602.2,-48.389 2598.62,-58.3619 2607.64,-52.7961 2602.2,-48.389"/>
</g>
<!-- Node14&#45;&gt;Node9 -->
<g id="edge30" class="edge"><title>Node14&#45;&gt;Node9</title>
<path fill="none" stroke="midnightblue" d="M2277.72,-108.541C2269.81,-98.9786 2260.43,-87.6467 2253.75,-79.5707"/>
<polygon fill="midnightblue" stroke="midnightblue" points="2275.12,-110.889 2284.2,-116.362 2280.52,-106.426 2275.12,-110.889"/>
</g>
<!-- Node14&#45;&gt;Node10 -->
<g id="edge32" class="edge"><title>Node14&#45;&gt;Node10</title>
<path fill="none" stroke="midnightblue" d="M2325.14,-112.206C2347.24,-102.031 2376.08,-88.7567 2395.93,-79.6212"/>
<polygon fill="midnightblue" stroke="midnightblue" points="2323.44,-109.136 2315.82,-116.497 2326.36,-115.494 2323.44,-109.136"/>
</g>
<!-- Node14&#45;&gt;Node12 -->
<g id="edge34" class="edge"><title>Node14&#45;&gt;Node12</title>
<path fill="none" stroke="midnightblue" d="M2356.83,-114.535C2410.27,-104.099 2485.67,-89.374 2536.11,-79.5231"/>
<polygon fill="midnightblue" stroke="midnightblue" points="2355.93,-111.145 2346.78,-116.497 2357.27,-118.015 2355.93,-111.145"/>
</g>
<!-- Node36&#45;&gt;Node34 -->
<g id="edge82" class="edge"><title>Node36&#45;&gt;Node34</title>
<path fill="none" stroke="midnightblue" d="M2885.19,-229.413C2851.83,-219.065 2806.57,-205.026 2775.93,-195.523"/>
<polygon fill="midnightblue" stroke="midnightblue" points="2884.55,-232.877 2895.14,-232.497 2886.62,-226.191 2884.55,-232.877"/>
</g>
<!-- Node37 -->
<g id="node79" class="node"><title>Node37</title>
<a xlink:href="MojDbLevelEnv_8cpp.htm" target="_top" xlink:title="MojDbLevelEnv.cpp">
<polygon fill="white" stroke="black" points="2966,-174.5 2966,-195.5 3076,-195.5 3076,-174.5 2966,-174.5"/>
<text text-anchor="middle" x="3021" y="-182.5" font-family="Helvetica,sans-Serif" font-size="10.00">MojDbLevelEnv.cpp</text>
</a>
</g>
<!-- Node36&#45;&gt;Node37 -->
<g id="edge84" class="edge"><title>Node36&#45;&gt;Node37</title>
<path fill="none" stroke="midnightblue" d="M2954.66,-226.821C2970.51,-216.831 2990.39,-204.299 3004.23,-195.571"/>
<polygon fill="midnightblue" stroke="midnightblue" points="2952.47,-224.068 2945.87,-232.362 2956.2,-229.99 2952.47,-224.068"/>
</g>
<!-- Node38 -->
<g id="node81" class="node"><title>Node38</title>
<a xlink:href="MojDbLevelFactory_8cpp.htm" target="_top" xlink:title="MojDbLevelFactory.cpp">
<polygon fill="white" stroke="black" points="2821.5,-174.5 2821.5,-195.5 2948.5,-195.5 2948.5,-174.5 2821.5,-174.5"/>
<text text-anchor="middle" x="2885" y="-182.5" font-family="Helvetica,sans-Serif" font-size="10.00">MojDbLevelFactory.cpp</text>
</a>
</g>
<!-- Node36&#45;&gt;Node38 -->
<g id="edge86" class="edge"><title>Node36&#45;&gt;Node38</title>
<path fill="none" stroke="midnightblue" d="M2914.78,-224.25C2907.57,-214.75 2899.08,-203.565 2893.02,-195.571"/>
<polygon fill="midnightblue" stroke="midnightblue" points="2912.1,-226.51 2920.93,-232.362 2917.67,-222.28 2912.1,-226.51"/>
</g>
<!-- Node39&#45;&gt;Node35 -->
<g id="edge96" class="edge"><title>Node39&#45;&gt;Node35</title>
<path fill="none" stroke="midnightblue" d="M3104,-222.123C3104,-197.298 3104,-156.824 3104,-137.679"/>
<polygon fill="midnightblue" stroke="midnightblue" points="3100.5,-222.295 3104,-232.295 3107.5,-222.295 3100.5,-222.295"/>
</g>
<!-- Node40 -->
<g id="node85" class="node"><title>Node40</title>
<a xlink:href="MojDbBerkeleyQuery_8h.htm" target="_top" xlink:title="MojDbBerkeleyQuery.h">
<polygon fill="white" stroke="black" points="3291.5,-174.5 3291.5,-195.5 3416.5,-195.5 3416.5,-174.5 3291.5,-174.5"/>
<text text-anchor="middle" x="3354" y="-182.5" font-family="Helvetica,sans-Serif" font-size="10.00">MojDbBerkeleyQuery.h</text>
</a>
</g>
<!-- Node39&#45;&gt;Node40 -->
<g id="edge90" class="edge"><title>Node39&#45;&gt;Node40</title>
<path fill="none" stroke="midnightblue" d="M3159.14,-230.208C3204.03,-219.794 3266.62,-205.272 3308.64,-195.523"/>
<polygon fill="midnightblue" stroke="midnightblue" points="3158.22,-226.827 3149.27,-232.497 3159.81,-233.646 3158.22,-226.827"/>
</g>
<!-- Node41 -->
<g id="node88" class="node"><title>Node41</title>
<a xlink:href="MojDbBerkeleyQuery_8cpp.htm" target="_top" xlink:title="MojDbBerkeleyQuery.cpp">
<polygon fill="white" stroke="black" points="3331,-116.5 3331,-137.5 3467,-137.5 3467,-116.5 3331,-116.5"/>
<text text-anchor="middle" x="3399" y="-124.5" font-family="Helvetica,sans-Serif" font-size="10.00">MojDbBerkeleyQuery.cpp</text>
</a>
</g>
<!-- Node39&#45;&gt;Node41 -->
<g id="edge100" class="edge"><title>Node39&#45;&gt;Node41</title>
<path fill="none" stroke="midnightblue" d="M3179.2,-231.953C3247.67,-225.154 3390.41,-235.973 3425,-196 3439.91,-178.769 3421.52,-152.141 3408.92,-137.514"/>
<polygon fill="midnightblue" stroke="midnightblue" points="3178.38,-228.526 3168.88,-233.206 3179.22,-235.475 3178.38,-228.526"/>
</g>
<!-- Node42 -->
<g id="node91" class="node"><title>Node42</title>
<a xlink:href="MojDbBerkeleyFactory_8cpp.htm" target="_top" xlink:title="MojDbBerkeleyFactory.cpp">
<polygon fill="white" stroke="black" points="3131.5,-174.5 3131.5,-195.5 3274.5,-195.5 3274.5,-174.5 3131.5,-174.5"/>
<text text-anchor="middle" x="3203" y="-182.5" font-family="Helvetica,sans-Serif" font-size="10.00">MojDbBerkeleyFactory.cpp</text>
</a>
</g>
<!-- Node39&#45;&gt;Node42 -->
<g id="edge98" class="edge"><title>Node39&#45;&gt;Node42</title>
<path fill="none" stroke="midnightblue" d="M3131.14,-227.101C3148.27,-217.066 3169.92,-204.381 3184.96,-195.571"/>
<polygon fill="midnightblue" stroke="midnightblue" points="3129.02,-224.287 3122.16,-232.362 3132.56,-230.327 3129.02,-224.287"/>
</g>
<!-- Node40&#45;&gt;Node35 -->
<g id="edge92" class="edge"><title>Node40&#45;&gt;Node35</title>
<path fill="none" stroke="midnightblue" d="M3298.86,-172.208C3253.97,-161.794 3191.38,-147.272 3149.36,-137.523"/>
<polygon fill="midnightblue" stroke="midnightblue" points="3298.19,-175.646 3308.73,-174.497 3299.78,-168.827 3298.19,-175.646"/>
</g>
<!-- Node40&#45;&gt;Node41 -->
<g id="edge94" class="edge"><title>Node40&#45;&gt;Node41</title>
<path fill="none" stroke="midnightblue" d="M3368.55,-166.25C3375.92,-156.75 3384.6,-145.565 3390.8,-137.571"/>
<polygon fill="midnightblue" stroke="midnightblue" points="3365.62,-164.316 3362.25,-174.362 3371.15,-168.607 3365.62,-164.316"/>
</g>
</g>
</svg>
