<?xml version="1.0" encoding="UTF-8" standalone="no"?>
<!DOCTYPE svg PUBLIC "-//W3C//DTD SVG 1.1//EN"
 "http://www.w3.org/Graphics/SVG/1.1/DTD/svg11.dtd">
<!-- Generated by graphviz version 2.26.3 (20100126.1600)
 -->
<!-- Title: MojGmainReactor.cpp Pages: 1 -->
<svg width="1442pt" height="826pt"
 viewBox="0.00 0.00 1441.83 826.00" xmlns="http://www.w3.org/2000/svg" xmlns:xlink="http://www.w3.org/1999/xlink">
<g id="graph1" class="graph" transform="scale(1 1) rotate(0) translate(4 822)">
<title>MojGmainReactor.cpp</title>
<polygon fill="white" stroke="white" points="-4,5 -4,-822 1438.83,-822 1438.83,5 -4,5"/>
<!-- Node1 -->
<g id="node1" class="node"><title>Node1</title>
<polygon fill="#bfbfbf" stroke="black" points="853.833,-796.5 853.833,-817.5 975.833,-817.5 975.833,-796.5 853.833,-796.5"/>
<text text-anchor="middle" x="914.833" y="-804.5" font-family="Helvetica,sans-Serif" font-size="10.00">MojGmainReactor.cpp</text>
</g>
<!-- Node2 -->
<g id="node3" class="node"><title>Node2</title>
<polygon fill="white" stroke="#bfbfbf" points="847.333,-680.5 847.333,-701.5 888.333,-701.5 888.333,-680.5 847.333,-680.5"/>
<text text-anchor="middle" x="867.833" y="-688.5" font-family="Helvetica,sans-Serif" font-size="10.00">glib.h</text>
</g>
<!-- Node1&#45;&gt;Node2 -->
<g id="edge2" class="edge"><title>Node1&#45;&gt;Node2</title>
<path fill="none" stroke="midnightblue" d="M907.28,-796.24C901.073,-786.989 892.42,-773.106 886.833,-760 880.143,-744.307 875.163,-725.6 871.984,-711.626"/>
<polygon fill="midnightblue" stroke="midnightblue" points="875.348,-710.621 869.822,-701.582 868.505,-712.094 875.348,-710.621"/>
</g>
<!-- Node3 -->
<g id="node5" class="node"><title>Node3</title>
<a xlink:href="MojGmainReactor_8h.htm" target="_top" xlink:title="core/MojGmainReactor.h">
<polygon fill="white" stroke="black" points="895.833,-738.5 895.833,-759.5 1029.83,-759.5 1029.83,-738.5 895.833,-738.5"/>
<text text-anchor="middle" x="962.833" y="-746.5" font-family="Helvetica,sans-Serif" font-size="10.00">core/MojGmainReactor.h</text>
</a>
</g>
<!-- Node1&#45;&gt;Node3 -->
<g id="edge4" class="edge"><title>Node1&#45;&gt;Node3</title>
<path fill="none" stroke="midnightblue" d="M923.637,-796.362C930.335,-788.268 939.717,-776.932 947.622,-767.38"/>
<polygon fill="midnightblue" stroke="midnightblue" points="950.405,-769.506 954.085,-759.571 945.013,-765.043 950.405,-769.506"/>
</g>
<!-- Node3&#45;&gt;Node2 -->
<g id="edge116" class="edge"><title>Node3&#45;&gt;Node2</title>
<path fill="none" stroke="midnightblue" d="M945.408,-738.362C930.946,-729.532 910.163,-716.844 893.749,-706.822"/>
<polygon fill="midnightblue" stroke="midnightblue" points="895.506,-703.794 885.147,-701.571 891.858,-709.769 895.506,-703.794"/>
</g>
<!-- Node4 -->
<g id="node7" class="node"><title>Node4</title>
<a xlink:href="MojCoreDefs_8h.htm" target="_top" xlink:title="core/MojCoreDefs.h">
<polygon fill="white" stroke="black" points="813.333,-232.5 813.333,-253.5 924.333,-253.5 924.333,-232.5 813.333,-232.5"/>
<text text-anchor="middle" x="868.833" y="-240.5" font-family="Helvetica,sans-Serif" font-size="10.00">core/MojCoreDefs.h</text>
</a>
</g>
<!-- Node3&#45;&gt;Node4 -->
<g id="edge6" class="edge"><title>Node3&#45;&gt;Node4</title>
<path fill="none" stroke="midnightblue" d="M1030.32,-746.366C1160.55,-739.435 1433.83,-715.109 1433.83,-633 1433.83,-633 1433.83,-633 1433.83,-366 1433.83,-311.232 1387.65,-310.434 1336.83,-290 1265.48,-261.305 1045.74,-249.391 934.623,-245.099"/>
<polygon fill="midnightblue" stroke="midnightblue" points="934.666,-241.599 924.541,-244.72 934.402,-248.594 934.666,-241.599"/>
</g>
<!-- Node14 -->
<g id="node27" class="node"><title>Node14</title>
<a xlink:href="MojHashMap_8h.htm" target="_top" xlink:title="core/MojHashMap.h">
<polygon fill="white" stroke="black" points="143.833,-622.5 143.833,-643.5 255.833,-643.5 255.833,-622.5 143.833,-622.5"/>
<text text-anchor="middle" x="199.833" y="-630.5" font-family="Helvetica,sans-Serif" font-size="10.00">core/MojHashMap.h</text>
</a>
</g>
<!-- Node3&#45;&gt;Node14 -->
<g id="edge26" class="edge"><title>Node3&#45;&gt;Node14</title>
<path fill="none" stroke="midnightblue" d="M956.327,-738.241C945.991,-722.264 924.161,-692.782 896.833,-680 840.664,-653.73 429.421,-639.438 266.264,-634.751"/>
<polygon fill="midnightblue" stroke="midnightblue" points="265.978,-631.242 255.882,-634.456 265.779,-638.239 265.978,-631.242"/>
</g>
<!-- Node24 -->
<g id="node56" class="node"><title>Node24</title>
<a xlink:href="MojReactor_8h.htm" target="_top" xlink:title="core/MojReactor.h">
<polygon fill="white" stroke="black" points="1019.83,-680.5 1019.83,-701.5 1123.83,-701.5 1123.83,-680.5 1019.83,-680.5"/>
<text text-anchor="middle" x="1071.83" y="-688.5" font-family="Helvetica,sans-Serif" font-size="10.00">core/MojReactor.h</text>
</a>
</g>
<!-- Node3&#45;&gt;Node24 -->
<g id="edge64" class="edge"><title>Node3&#45;&gt;Node24</title>
<path fill="none" stroke="midnightblue" d="M982.572,-738.497C999.443,-729.519 1023.94,-716.484 1043.01,-706.339"/>
<polygon fill="midnightblue" stroke="midnightblue" points="1044.69,-709.409 1051.87,-701.621 1041.4,-703.229 1044.69,-709.409"/>
</g>
<!-- Node28 -->
<g id="node67" class="node"><title>Node28</title>
<a xlink:href="MojThread_8h.htm" target="_top" xlink:title="core/MojThread.h">
<polygon fill="white" stroke="black" points="941.333,-557.5 941.333,-578.5 1042.33,-578.5 1042.33,-557.5 941.333,-557.5"/>
<text text-anchor="middle" x="991.833" y="-565.5" font-family="Helvetica,sans-Serif" font-size="10.00">core/MojThread.h</text>
</a>
</g>
<!-- Node3&#45;&gt;Node28 -->
<g id="edge112" class="edge"><title>Node3&#45;&gt;Node28</title>
<path fill="none" stroke="midnightblue" d="M964.517,-738.486C969.182,-709.37 982.333,-627.292 988.527,-588.63"/>
<polygon fill="midnightblue" stroke="midnightblue" points="992.017,-588.971 990.144,-578.543 985.106,-587.863 992.017,-588.971"/>
</g>
<!-- Node30 -->
<g id="node74" class="node"><title>Node30</title>
<a xlink:href="MojVector_8h.htm" target="_top" xlink:title="core/MojVector.h">
<polygon fill="white" stroke="black" points="827.333,-557.5 827.333,-578.5 924.333,-578.5 924.333,-557.5 827.333,-557.5"/>
<text text-anchor="middle" x="875.833" y="-565.5" font-family="Helvetica,sans-Serif" font-size="10.00">core/MojVector.h</text>
</a>
</g>
<!-- Node3&#45;&gt;Node30 -->
<g id="edge114" class="edge"><title>Node3&#45;&gt;Node30</title>
<path fill="none" stroke="midnightblue" d="M957.779,-738.486C943.664,-709.12 903.653,-625.879 885.275,-587.644"/>
<polygon fill="midnightblue" stroke="midnightblue" points="888.387,-586.039 880.9,-578.543 882.078,-589.072 888.387,-586.039"/>
</g>
<!-- Node5 -->
<g id="node9" class="node"><title>Node5</title>
<a xlink:href="MojConfig_8h.htm" target="_top" xlink:title="core/internal/MojConfig.h">
<polygon fill="white" stroke="black" points="980.333,-174.5 980.333,-195.5 1115.33,-195.5 1115.33,-174.5 980.333,-174.5"/>
<text text-anchor="middle" x="1047.83" y="-182.5" font-family="Helvetica,sans-Serif" font-size="10.00">core/internal/MojConfig.h</text>
</a>
</g>
<!-- Node4&#45;&gt;Node5 -->
<g id="edge8" class="edge"><title>Node4&#45;&gt;Node5</title>
<path fill="none" stroke="midnightblue" d="M901.248,-232.497C930.557,-223 973.881,-208.962 1005.83,-198.609"/>
<polygon fill="midnightblue" stroke="midnightblue" points="1006.92,-201.935 1015.36,-195.523 1004.76,-195.276 1006.92,-201.935"/>
</g>
<!-- Node6 -->
<g id="node11" class="node"><title>Node6</title>
<a xlink:href="MojNew_8h.htm" target="_top" xlink:title="core/internal/MojNew.h">
<polygon fill="white" stroke="black" points="642.333,-174.5 642.333,-195.5 767.333,-195.5 767.333,-174.5 642.333,-174.5"/>
<text text-anchor="middle" x="704.833" y="-182.5" font-family="Helvetica,sans-Serif" font-size="10.00">core/internal/MojNew.h</text>
</a>
</g>
<!-- Node4&#45;&gt;Node6 -->
<g id="edge10" class="edge"><title>Node4&#45;&gt;Node6</title>
<path fill="none" stroke="midnightblue" d="M839.134,-232.497C812.513,-223.082 773.271,-209.204 744.072,-198.877"/>
<polygon fill="midnightblue" stroke="midnightblue" points="745.182,-195.558 734.588,-195.523 742.848,-202.157 745.182,-195.558"/>
</g>
<!-- Node8 -->
<g id="node15" class="node"><title>Node8</title>
<a xlink:href="MojErr_8h.htm" target="_top" xlink:title="core/MojErr.h">
<polygon fill="white" stroke="black" points="784.833,-174.5 784.833,-195.5 864.833,-195.5 864.833,-174.5 784.833,-174.5"/>
<text text-anchor="middle" x="824.833" y="-182.5" font-family="Helvetica,sans-Serif" font-size="10.00">core/MojErr.h</text>
</a>
</g>
<!-- Node4&#45;&gt;Node8 -->
<g id="edge14" class="edge"><title>Node4&#45;&gt;Node8</title>
<path fill="none" stroke="midnightblue" d="M860.763,-232.362C854.684,-224.35 846.196,-213.161 838.996,-203.67"/>
<polygon fill="midnightblue" stroke="midnightblue" points="841.684,-201.422 832.852,-195.571 836.107,-205.653 841.684,-201.422"/>
</g>
<!-- Node12 -->
<g id="node23" class="node"><title>Node12</title>
<a xlink:href="MojOs_8h.htm" target="_top" xlink:title="core/MojOs.h">
<polygon fill="white" stroke="black" points="882.833,-174.5 882.833,-195.5 962.833,-195.5 962.833,-174.5 882.833,-174.5"/>
<text text-anchor="middle" x="922.833" y="-182.5" font-family="Helvetica,sans-Serif" font-size="10.00">core/MojOs.h</text>
</a>
</g>
<!-- Node4&#45;&gt;Node12 -->
<g id="edge22" class="edge"><title>Node4&#45;&gt;Node12</title>
<path fill="none" stroke="midnightblue" d="M878.737,-232.362C886.349,-224.186 897.041,-212.702 905.99,-203.091"/>
<polygon fill="midnightblue" stroke="midnightblue" points="908.739,-205.275 912.991,-195.571 903.615,-200.505 908.739,-205.275"/>
</g>
<!-- Node7 -->
<g id="node13" class="node"><title>Node7</title>
<polygon fill="white" stroke="#bfbfbf" points="686.833,-116.5 686.833,-137.5 722.833,-137.5 722.833,-116.5 686.833,-116.5"/>
<text text-anchor="middle" x="704.833" y="-124.5" font-family="Helvetica,sans-Serif" font-size="10.00">new</text>
</g>
<!-- Node6&#45;&gt;Node7 -->
<g id="edge12" class="edge"><title>Node6&#45;&gt;Node7</title>
<path fill="none" stroke="midnightblue" d="M704.833,-174.362C704.833,-166.922 704.833,-156.743 704.833,-147.728"/>
<polygon fill="midnightblue" stroke="midnightblue" points="708.333,-147.571 704.833,-137.571 701.333,-147.571 708.333,-147.571"/>
</g>
<!-- Node9 -->
<g id="node17" class="node"><title>Node9</title>
<a xlink:href="MojLog_8h.htm" target="_top" xlink:title="core/MojLog.h">
<polygon fill="white" stroke="black" points="741.833,-116.5 741.833,-137.5 825.833,-137.5 825.833,-116.5 741.833,-116.5"/>
<text text-anchor="middle" x="783.833" y="-124.5" font-family="Helvetica,sans-Serif" font-size="10.00">core/MojLog.h</text>
</a>
</g>
<!-- Node8&#45;&gt;Node9 -->
<g id="edge16" class="edge"><title>Node8&#45;&gt;Node9</title>
<path fill="none" stroke="midnightblue" d="M817.313,-174.362C811.707,-166.431 803.901,-155.389 797.236,-145.961"/>
<polygon fill="midnightblue" stroke="midnightblue" points="799.936,-143.716 791.305,-137.571 794.22,-147.757 799.936,-143.716"/>
</g>
<!-- Node10 -->
<g id="node19" class="node"><title>Node10</title>
<a xlink:href="MojListEntry_8h.htm" target="_top" xlink:title="core/MojListEntry.h">
<polygon fill="white" stroke="black" points="686.333,-58.5 686.333,-79.5 793.333,-79.5 793.333,-58.5 686.333,-58.5"/>
<text text-anchor="middle" x="739.833" y="-66.5" font-family="Helvetica,sans-Serif" font-size="10.00">core/MojListEntry.h</text>
</a>
</g>
<!-- Node9&#45;&gt;Node10 -->
<g id="edge18" class="edge"><title>Node9&#45;&gt;Node10</title>
<path fill="none" stroke="midnightblue" d="M775.763,-116.362C769.684,-108.35 761.196,-97.1605 753.996,-87.6696"/>
<polygon fill="midnightblue" stroke="midnightblue" points="756.684,-85.4222 747.852,-79.5707 751.107,-89.653 756.684,-85.4222"/>
</g>
<!-- Node11 -->
<g id="node21" class="node"><title>Node11</title>
<a xlink:href="MojNoCopy_8h.htm" target="_top" xlink:title="core/MojNoCopy.h">
<polygon fill="white" stroke="black" points="624.833,-0.5 624.833,-21.5 728.833,-21.5 728.833,-0.5 624.833,-0.5"/>
<text text-anchor="middle" x="676.833" y="-8.5" font-family="Helvetica,sans-Serif" font-size="10.00">core/MojNoCopy.h</text>
</a>
</g>
<!-- Node10&#45;&gt;Node11 -->
<g id="edge20" class="edge"><title>Node10&#45;&gt;Node11</title>
<path fill="none" stroke="midnightblue" d="M728.278,-58.3619C719.219,-50.0226 706.423,-38.2418 695.859,-28.5162"/>
<polygon fill="midnightblue" stroke="midnightblue" points="698.042,-25.7688 688.315,-21.5707 693.301,-30.9187 698.042,-25.7688"/>
</g>
<!-- Node13 -->
<g id="node25" class="node"><title>Node13</title>
<a xlink:href="MojOsInternal_8h.htm" target="_top" xlink:title="core/internal/MojOsInternal.h">
<polygon fill="white" stroke="black" points="845.833,-116.5 845.833,-137.5 999.833,-137.5 999.833,-116.5 845.833,-116.5"/>
<text text-anchor="middle" x="922.833" y="-124.5" font-family="Helvetica,sans-Serif" font-size="10.00">core/internal/MojOsInternal.h</text>
</a>
</g>
<!-- Node12&#45;&gt;Node13 -->
<g id="edge24" class="edge"><title>Node12&#45;&gt;Node13</title>
<path fill="none" stroke="midnightblue" d="M922.833,-174.362C922.833,-166.922 922.833,-156.743 922.833,-147.728"/>
<polygon fill="midnightblue" stroke="midnightblue" points="926.333,-147.571 922.833,-137.571 919.333,-147.571 926.333,-147.571"/>
</g>
<!-- Node14&#45;&gt;Node4 -->
<g id="edge28" class="edge"><title>Node14&#45;&gt;Node4</title>
<path fill="none" stroke="midnightblue" d="M143.622,-624.715C97.742,-616.819 37.8232,-603.538 20.8328,-586 -5.49836,-558.82 1.83279,-540.843 1.83279,-503 1.83279,-503 1.83279,-503 1.83279,-366 1.83279,-286.471 86.8273,-309.877 163.833,-290 283.568,-259.093 651.99,-247.717 803.115,-244.278"/>
<polygon fill="midnightblue" stroke="midnightblue" points="803.263,-247.775 813.183,-244.053 803.107,-240.777 803.263,-247.775"/>
</g>
<!-- Node15 -->
<g id="node30" class="node"><title>Node15</title>
<a xlink:href="MojComp_8h.htm" target="_top" xlink:title="core/MojComp.h">
<polygon fill="white" stroke="black" points="404.833,-290.5 404.833,-311.5 498.833,-311.5 498.833,-290.5 404.833,-290.5"/>
<text text-anchor="middle" x="451.833" y="-298.5" font-family="Helvetica,sans-Serif" font-size="10.00">core/MojComp.h</text>
</a>
</g>
<!-- Node14&#45;&gt;Node15 -->
<g id="edge30" class="edge"><title>Node14&#45;&gt;Node15</title>
<path fill="none" stroke="midnightblue" d="M198.746,-622.439C195.904,-589.94 190.895,-489.43 228.833,-420 262.31,-358.733 340.306,-327.656 394.557,-312.908"/>
<polygon fill="midnightblue" stroke="midnightblue" points="395.602,-316.253 404.394,-310.341 393.834,-309.48 395.602,-316.253"/>
</g>
<!-- Node16 -->
<g id="node33" class="node"><title>Node16</title>
<a xlink:href="MojHashBase_8h.htm" target="_top" xlink:title="core/internal/MojHashBase.h">
<polygon fill="white" stroke="black" points="227.333,-557.5 227.333,-578.5 380.333,-578.5 380.333,-557.5 227.333,-557.5"/>
<text text-anchor="middle" x="303.833" y="-565.5" font-family="Helvetica,sans-Serif" font-size="10.00">core/internal/MojHashBase.h</text>
</a>
</g>
<!-- Node14&#45;&gt;Node16 -->
<g id="edge34" class="edge"><title>Node14&#45;&gt;Node16</title>
<path fill="none" stroke="midnightblue" d="M217.006,-622.267C233.741,-611.807 259.382,-595.782 278.466,-583.854"/>
<polygon fill="midnightblue" stroke="midnightblue" points="280.354,-586.802 286.979,-578.534 276.644,-580.866 280.354,-586.802"/>
</g>
<!-- Node23 -->
<g id="node54" class="node"><title>Node23</title>
<a xlink:href="MojHashMapInternal_8h.htm" target="_top" xlink:title="core/internal/MojHashMap\lInternal.h">
<polygon fill="white" stroke="black" points="29.8328,-551 29.8328,-585 171.833,-585 171.833,-551 29.8328,-551"/>
<text text-anchor="start" x="37.8328" y="-572" font-family="Helvetica,sans-Serif" font-size="10.00">core/internal/MojHashMap</text>
<text text-anchor="middle" x="100.833" y="-559" font-family="Helvetica,sans-Serif" font-size="10.00">Internal.h</text>
</a>
</g>
<!-- Node14&#45;&gt;Node23 -->
<g id="edge62" class="edge"><title>Node14&#45;&gt;Node23</title>
<path fill="none" stroke="midnightblue" d="M183.485,-622.267C170.51,-613.748 151.911,-601.537 135.641,-590.854"/>
<polygon fill="midnightblue" stroke="midnightblue" points="137.173,-587.673 126.892,-585.11 133.331,-593.524 137.173,-587.673"/>
</g>
<!-- Node15&#45;&gt;Node4 -->
<g id="edge32" class="edge"><title>Node15&#45;&gt;Node4</title>
<path fill="none" stroke="midnightblue" d="M498.857,-294.459C573.259,-284.111 718.342,-263.932 803.036,-252.152"/>
<polygon fill="midnightblue" stroke="midnightblue" points="803.634,-255.602 813.057,-250.758 802.67,-248.669 803.634,-255.602"/>
</g>
<!-- Node16&#45;&gt;Node4 -->
<g id="edge36" class="edge"><title>Node16&#45;&gt;Node4</title>
<path fill="none" stroke="midnightblue" d="M265.681,-557.429C215.56,-540.942 133.833,-503.949 133.833,-438 133.833,-438 133.833,-438 133.833,-366 133.833,-283.643 223.092,-310.593 302.833,-290 395.785,-265.995 674.811,-251.315 803.055,-245.663"/>
<polygon fill="midnightblue" stroke="midnightblue" points="803.297,-249.156 813.135,-245.224 802.992,-242.163 803.297,-249.156"/>
</g>
<!-- Node17 -->
<g id="node36" class="node"><title>Node17</title>
<a xlink:href="MojAutoPtr_8h.htm" target="_top" xlink:title="core/MojAutoPtr.h">
<polygon fill="white" stroke="black" points="684.333,-427.5 684.333,-448.5 785.333,-448.5 785.333,-427.5 684.333,-427.5"/>
<text text-anchor="middle" x="734.833" y="-435.5" font-family="Helvetica,sans-Serif" font-size="10.00">core/MojAutoPtr.h</text>
</a>
</g>
<!-- Node16&#45;&gt;Node17 -->
<g id="edge38" class="edge"><title>Node16&#45;&gt;Node17</title>
<path fill="none" stroke="midnightblue" d="M320.318,-557.441C346.786,-540.968 400.866,-509.256 450.833,-492 525.458,-466.228 615.605,-451.739 674.021,-444.398"/>
<polygon fill="midnightblue" stroke="midnightblue" points="674.69,-447.842 684.19,-443.152 673.838,-440.894 674.69,-447.842"/>
</g>
<!-- Node20 -->
<g id="node45" class="node"><title>Node20</title>
<a xlink:href="MojHasher_8h.htm" target="_top" xlink:title="core/MojHasher.h">
<polygon fill="white" stroke="black" points="227.333,-492.5 227.333,-513.5 328.333,-513.5 328.333,-492.5 227.333,-492.5"/>
<text text-anchor="middle" x="277.833" y="-500.5" font-family="Helvetica,sans-Serif" font-size="10.00">core/MojHasher.h</text>
</a>
</g>
<!-- Node16&#45;&gt;Node20 -->
<g id="edge50" class="edge"><title>Node16&#45;&gt;Node20</title>
<path fill="none" stroke="midnightblue" d="M299.539,-557.267C295.829,-547.991 290.367,-534.336 285.851,-523.045"/>
<polygon fill="midnightblue" stroke="midnightblue" points="289.01,-521.519 282.046,-513.534 282.511,-524.118 289.01,-521.519"/>
</g>
<!-- Node17&#45;&gt;Node4 -->
<g id="edge40" class="edge"><title>Node17&#45;&gt;Node4</title>
<path fill="none" stroke="midnightblue" d="M715.107,-427.431C700.141,-418.188 680.681,-403.239 671.833,-384 665.147,-369.464 663.599,-361.719 671.833,-348 701.811,-298.052 764.499,-270.56 811.152,-256.373"/>
<polygon fill="midnightblue" stroke="midnightblue" points="812.227,-259.705 820.846,-253.544 810.266,-252.985 812.227,-259.705"/>
</g>
<!-- Node17&#45;&gt;Node11 -->
<g id="edge46" class="edge"><title>Node17&#45;&gt;Node11</title>
<path fill="none" stroke="midnightblue" d="M715.017,-427.356C680.934,-407.442 614.833,-361.075 614.833,-301 614.833,-301 614.833,-301 614.833,-127 614.833,-88.6979 641.45,-50.7886 659.804,-29.2006"/>
<polygon fill="midnightblue" stroke="midnightblue" points="662.603,-31.318 666.595,-21.5037 657.354,-26.6868 662.603,-31.318"/>
</g>
<!-- Node18 -->
<g id="node39" class="node"><title>Node18</title>
<a xlink:href="MojAtomicInt_8h.htm" target="_top" xlink:title="core/MojAtomicInt.h">
<polygon fill="white" stroke="black" points="866.833,-355.5 866.833,-376.5 976.833,-376.5 976.833,-355.5 866.833,-355.5"/>
<text text-anchor="middle" x="921.833" y="-363.5" font-family="Helvetica,sans-Serif" font-size="10.00">core/MojAtomicInt.h</text>
</a>
</g>
<!-- Node17&#45;&gt;Node18 -->
<g id="edge42" class="edge"><title>Node17&#45;&gt;Node18</title>
<path fill="none" stroke="midnightblue" d="M762.425,-427.376C794.835,-414.897 848.741,-394.142 884.775,-380.268"/>
<polygon fill="midnightblue" stroke="midnightblue" points="886.357,-383.41 894.432,-376.55 883.842,-376.877 886.357,-383.41"/>
</g>
<!-- Node19 -->
<g id="node43" class="node"><title>Node19</title>
<a xlink:href="MojAutoPtrInternal_8h.htm" target="_top" xlink:title="core/internal/MojAutoPtr\lInternal.h">
<polygon fill="white" stroke="black" points="680.333,-349 680.333,-383 811.333,-383 811.333,-349 680.333,-349"/>
<text text-anchor="start" x="688.333" y="-370" font-family="Helvetica,sans-Serif" font-size="10.00">core/internal/MojAutoPtr</text>
<text text-anchor="middle" x="745.833" y="-357" font-family="Helvetica,sans-Serif" font-size="10.00">Internal.h</text>
</a>
</g>
<!-- Node17&#45;&gt;Node19 -->
<g id="edge48" class="edge"><title>Node17&#45;&gt;Node19</title>
<path fill="none" stroke="midnightblue" d="M736.456,-427.376C737.833,-418.36 739.871,-405.024 741.695,-393.084"/>
<polygon fill="midnightblue" stroke="midnightblue" points="745.171,-393.508 743.221,-383.094 738.251,-392.451 745.171,-393.508"/>
</g>
<!-- Node18&#45;&gt;Node4 -->
<g id="edge44" class="edge"><title>Node18&#45;&gt;Node4</title>
<path fill="none" stroke="midnightblue" d="M917.129,-355.085C908.228,-334.427 888.799,-289.337 877.484,-263.076"/>
<polygon fill="midnightblue" stroke="midnightblue" points="880.622,-261.514 873.45,-253.715 874.193,-264.284 880.622,-261.514"/>
</g>
<!-- Node20&#45;&gt;Node4 -->
<g id="edge52" class="edge"><title>Node20&#45;&gt;Node4</title>
<path fill="none" stroke="midnightblue" d="M261.243,-492.5C249.757,-484.174 235.399,-471.397 228.833,-456 222.556,-441.282 223.325,-435.022 228.833,-420 255.592,-347.019 275.714,-323.55 345.833,-290 386.117,-270.725 671.13,-253.422 802.639,-246.364"/>
<polygon fill="midnightblue" stroke="midnightblue" points="803.178,-249.84 812.977,-245.813 802.805,-242.85 803.178,-249.84"/>
</g>
<!-- Node21 -->
<g id="node48" class="node"><title>Node21</title>
<a xlink:href="MojUtil_8h.htm" target="_top" xlink:title="core/MojUtil.h">
<polygon fill="white" stroke="black" points="237.333,-427.5 237.333,-448.5 318.333,-448.5 318.333,-427.5 237.333,-427.5"/>
<text text-anchor="middle" x="277.833" y="-435.5" font-family="Helvetica,sans-Serif" font-size="10.00">core/MojUtil.h</text>
</a>
</g>
<!-- Node20&#45;&gt;Node21 -->
<g id="edge54" class="edge"><title>Node20&#45;&gt;Node21</title>
<path fill="none" stroke="midnightblue" d="M277.833,-492.267C277.833,-483.18 277.833,-469.892 277.833,-458.74"/>
<polygon fill="midnightblue" stroke="midnightblue" points="281.333,-458.534 277.833,-448.534 274.333,-458.534 281.333,-458.534"/>
</g>
<!-- Node21&#45;&gt;Node4 -->
<g id="edge56" class="edge"><title>Node21&#45;&gt;Node4</title>
<path fill="none" stroke="midnightblue" d="M279.869,-427.283C283.717,-409.312 293.466,-372.653 312.833,-348 340.634,-312.611 353.628,-305.621 395.833,-290 468.818,-262.987 691.012,-250.266 802.934,-245.44"/>
<polygon fill="midnightblue" stroke="midnightblue" points="803.242,-248.931 813.085,-245.011 802.947,-241.937 803.242,-248.931"/>
</g>
<!-- Node22 -->
<g id="node51" class="node"><title>Node22</title>
<a xlink:href="MojUtilInternal_8h.htm" target="_top" xlink:title="core/internal/MojUtilInternal.h">
<polygon fill="white" stroke="black" points="321.333,-355.5 321.333,-376.5 476.333,-376.5 476.333,-355.5 321.333,-355.5"/>
<text text-anchor="middle" x="398.833" y="-363.5" font-family="Helvetica,sans-Serif" font-size="10.00">core/internal/MojUtilInternal.h</text>
</a>
</g>
<!-- Node21&#45;&gt;Node22 -->
<g id="edge58" class="edge"><title>Node21&#45;&gt;Node22</title>
<path fill="none" stroke="midnightblue" d="M295.687,-427.376C315.883,-415.359 348.979,-395.665 372.223,-381.834"/>
<polygon fill="midnightblue" stroke="midnightblue" points="374.102,-384.789 380.906,-376.667 370.522,-378.773 374.102,-384.789"/>
</g>
<!-- Node22&#45;&gt;Node15 -->
<g id="edge60" class="edge"><title>Node22&#45;&gt;Node15</title>
<path fill="none" stroke="midnightblue" d="M407.585,-355.267C415.534,-345.517 427.427,-330.932 436.882,-319.336"/>
<polygon fill="midnightblue" stroke="midnightblue" points="439.637,-321.496 443.244,-311.534 434.212,-317.072 439.637,-321.496"/>
</g>
<!-- Node24&#45;&gt;Node4 -->
<g id="edge66" class="edge"><title>Node24&#45;&gt;Node4</title>
<path fill="none" stroke="midnightblue" d="M1123.89,-682.351C1215.48,-665.647 1395.83,-625.459 1395.83,-568 1395.83,-568 1395.83,-568 1395.83,-366 1395.83,-272.394 1076.54,-249.987 935.015,-244.653"/>
<polygon fill="midnightblue" stroke="midnightblue" points="934.851,-241.145 924.732,-244.284 934.6,-248.141 934.851,-241.145"/>
</g>
<!-- Node25 -->
<g id="node59" class="node"><title>Node25</title>
<a xlink:href="MojSignal_8h.htm" target="_top" xlink:title="core/MojSignal.h">
<polygon fill="white" stroke="black" points="1023.33,-622.5 1023.33,-643.5 1118.33,-643.5 1118.33,-622.5 1023.33,-622.5"/>
<text text-anchor="middle" x="1070.83" y="-630.5" font-family="Helvetica,sans-Serif" font-size="10.00">core/MojSignal.h</text>
</a>
</g>
<!-- Node24&#45;&gt;Node25 -->
<g id="edge68" class="edge"><title>Node24&#45;&gt;Node25</title>
<path fill="none" stroke="midnightblue" d="M1071.65,-680.362C1071.52,-672.922 1071.35,-662.743 1071.19,-653.728"/>
<polygon fill="midnightblue" stroke="midnightblue" points="1074.69,-653.509 1071.02,-643.571 1067.69,-653.63 1074.69,-653.509"/>
</g>
<!-- Node25&#45;&gt;Node4 -->
<g id="edge70" class="edge"><title>Node25&#45;&gt;Node4</title>
<path fill="none" stroke="midnightblue" d="M1072.77,-622.474C1077.97,-593.289 1091.83,-508.824 1091.83,-438 1091.83,-438 1091.83,-438 1091.83,-366 1091.83,-293.455 1000.23,-263.375 934.441,-251.127"/>
<polygon fill="midnightblue" stroke="midnightblue" points="934.986,-247.669 924.53,-249.378 933.77,-254.563 934.986,-247.669"/>
</g>
<!-- Node26 -->
<g id="node62" class="node"><title>Node26</title>
<a xlink:href="MojList_8h.htm" target="_top" xlink:title="core/MojList.h">
<polygon fill="white" stroke="black" points="1285.33,-557.5 1285.33,-578.5 1368.33,-578.5 1368.33,-557.5 1285.33,-557.5"/>
<text text-anchor="middle" x="1326.83" y="-565.5" font-family="Helvetica,sans-Serif" font-size="10.00">core/MojList.h</text>
</a>
</g>
<!-- Node25&#45;&gt;Node26 -->
<g id="edge72" class="edge"><title>Node25&#45;&gt;Node26</title>
<path fill="none" stroke="midnightblue" d="M1118.71,-623.792C1160.73,-615.304 1223.32,-601.673 1276.83,-586 1281.13,-584.741 1285.6,-583.311 1290.02,-581.822"/>
<polygon fill="midnightblue" stroke="midnightblue" points="1291.23,-585.105 1299.52,-578.508 1288.93,-578.495 1291.23,-585.105"/>
</g>
<!-- Node25&#45;&gt;Node28 -->
<g id="edge78" class="edge"><title>Node25&#45;&gt;Node28</title>
<path fill="none" stroke="midnightblue" d="M1057.79,-622.267C1045.48,-612.139 1026.83,-596.792 1012.49,-585"/>
<polygon fill="midnightblue" stroke="midnightblue" points="1014.58,-582.185 1004.64,-578.534 1010.13,-587.59 1014.58,-582.185"/>
</g>
<!-- Node25&#45;&gt;Node30 -->
<g id="edge88" class="edge"><title>Node25&#45;&gt;Node30</title>
<path fill="none" stroke="midnightblue" d="M1039.07,-622.412C1005.92,-611.364 953.807,-593.991 917.405,-581.857"/>
<polygon fill="midnightblue" stroke="midnightblue" points="918.177,-578.425 907.583,-578.584 915.963,-585.066 918.177,-578.425"/>
</g>
<!-- Node34 -->
<g id="node89" class="node"><title>Node34</title>
<a xlink:href="MojSignalInternal_8h.htm" target="_top" xlink:title="core/internal/MojSignalInternal.h">
<polygon fill="white" stroke="black" points="1097.83,-557.5 1097.83,-578.5 1267.83,-578.5 1267.83,-557.5 1097.83,-557.5"/>
<text text-anchor="middle" x="1182.83" y="-565.5" font-family="Helvetica,sans-Serif" font-size="10.00">core/internal/MojSignalInternal.h</text>
</a>
</g>
<!-- Node25&#45;&gt;Node34 -->
<g id="edge110" class="edge"><title>Node25&#45;&gt;Node34</title>
<path fill="none" stroke="midnightblue" d="M1089.33,-622.267C1107.43,-611.76 1135.21,-595.637 1155.79,-583.692"/>
<polygon fill="midnightblue" stroke="midnightblue" points="1157.79,-586.58 1164.68,-578.534 1154.28,-580.526 1157.79,-586.58"/>
</g>
<!-- Node26&#45;&gt;Node4 -->
<g id="edge74" class="edge"><title>Node26&#45;&gt;Node4</title>
<path fill="none" stroke="midnightblue" d="M1299.97,-557.454C1265.79,-543.862 1210.27,-521.129 1202.83,-514 1175.71,-488.004 1165.83,-475.568 1165.83,-438 1165.83,-438 1165.83,-438 1165.83,-366 1165.83,-322.965 1142.54,-312.462 1105.83,-290 1077.68,-272.77 994.554,-258.96 934.698,-250.878"/>
<polygon fill="midnightblue" stroke="midnightblue" points="934.932,-247.379 924.559,-249.534 934.012,-254.318 934.932,-247.379"/>
</g>
<!-- Node27 -->
<g id="node65" class="node"><title>Node27</title>
<a xlink:href="MojListInternal_8h.htm" target="_top" xlink:title="core/internal/MojListInternal.h">
<polygon fill="white" stroke="black" points="1211.33,-492.5 1211.33,-513.5 1368.33,-513.5 1368.33,-492.5 1211.33,-492.5"/>
<text text-anchor="middle" x="1289.83" y="-500.5" font-family="Helvetica,sans-Serif" font-size="10.00">core/internal/MojListInternal.h</text>
</a>
</g>
<!-- Node26&#45;&gt;Node27 -->
<g id="edge76" class="edge"><title>Node26&#45;&gt;Node27</title>
<path fill="none" stroke="midnightblue" d="M1320.72,-557.267C1315.34,-547.801 1307.35,-533.777 1300.85,-522.357"/>
<polygon fill="midnightblue" stroke="midnightblue" points="1303.82,-520.493 1295.83,-513.534 1297.73,-523.956 1303.82,-520.493"/>
</g>
<!-- Node28&#45;&gt;Node4 -->
<g id="edge80" class="edge"><title>Node28&#45;&gt;Node4</title>
<path fill="none" stroke="midnightblue" d="M1000.98,-557.354C1018.23,-536.153 1053.83,-486.509 1053.83,-438 1053.83,-438 1053.83,-438 1053.83,-366 1053.83,-304.819 982.802,-272.232 928.767,-256.294"/>
<polygon fill="midnightblue" stroke="midnightblue" points="929.471,-252.856 918.896,-253.509 927.57,-259.593 929.471,-252.856"/>
</g>
<!-- Node28&#45;&gt;Node18 -->
<g id="edge82" class="edge"><title>Node28&#45;&gt;Node18</title>
<path fill="none" stroke="midnightblue" d="M988.168,-557.424C977.068,-525.394 943.682,-429.05 928.95,-386.538"/>
<polygon fill="midnightblue" stroke="midnightblue" points="932.213,-385.264 925.631,-376.961 925.599,-387.556 932.213,-385.264"/>
</g>
<!-- Node29 -->
<g id="node71" class="node"><title>Node29</title>
<a xlink:href="MojThreadInternal_8h.htm" target="_top" xlink:title="core/internal/MojThreadInternal.h">
<polygon fill="white" stroke="black" points="647.333,-492.5 647.333,-513.5 822.333,-513.5 822.333,-492.5 647.333,-492.5"/>
<text text-anchor="middle" x="734.833" y="-500.5" font-family="Helvetica,sans-Serif" font-size="10.00">core/internal/MojThreadInternal.h</text>
</a>
</g>
<!-- Node28&#45;&gt;Node29 -->
<g id="edge84" class="edge"><title>Node28&#45;&gt;Node29</title>
<path fill="none" stroke="midnightblue" d="M958.552,-557.446C950.186,-554.903 941.205,-552.268 932.833,-550 886.092,-537.336 832.641,-524.759 793.065,-515.807"/>
<polygon fill="midnightblue" stroke="midnightblue" points="793.583,-512.336 783.059,-513.554 792.046,-519.165 793.583,-512.336"/>
</g>
<!-- Node29&#45;&gt;Node17 -->
<g id="edge86" class="edge"><title>Node29&#45;&gt;Node17</title>
<path fill="none" stroke="midnightblue" d="M734.833,-492.267C734.833,-483.18 734.833,-469.892 734.833,-458.74"/>
<polygon fill="midnightblue" stroke="midnightblue" points="738.333,-458.534 734.833,-448.534 731.333,-458.534 738.333,-458.534"/>
</g>
<!-- Node30&#45;&gt;Node4 -->
<g id="edge90" class="edge"><title>Node30&#45;&gt;Node4</title>
<path fill="none" stroke="midnightblue" d="M902.359,-557.403C921.03,-548.566 945.061,-534.156 958.833,-514 1001,-452.283 1016.29,-416.26 985.833,-348 967.869,-307.743 925.998,-276.487 897.539,-258.899"/>
<polygon fill="midnightblue" stroke="midnightblue" points="899.194,-255.811 888.817,-253.675 895.597,-261.816 899.194,-255.811"/>
</g>
<!-- Node30&#45;&gt;Node15 -->
<g id="edge92" class="edge"><title>Node30&#45;&gt;Node15</title>
<path fill="none" stroke="midnightblue" d="M827.249,-565.384C720.987,-559.167 475.416,-541.905 450.833,-514 427.542,-487.563 484.457,-456.945 484.833,-456 502.566,-411.396 499.296,-393.769 484.833,-348 481.533,-337.557 474.989,-327.423 468.593,-319.255"/>
<polygon fill="midnightblue" stroke="midnightblue" points="471.225,-316.947 462.123,-311.525 465.857,-321.44 471.225,-316.947"/>
</g>
<!-- Node30&#45;&gt;Node21 -->
<g id="edge106" class="edge"><title>Node30&#45;&gt;Node21</title>
<path fill="none" stroke="midnightblue" d="M827.206,-564.605C725.457,-557.121 493.287,-537.95 417.833,-514 374.02,-500.093 328.083,-472.208 301.25,-454.357"/>
<polygon fill="midnightblue" stroke="midnightblue" points="303.158,-451.423 292.913,-448.723 299.238,-457.222 303.158,-451.423"/>
</g>
<!-- Node31 -->
<g id="node78" class="node"><title>Node31</title>
<a xlink:href="MojRefCount_8h.htm" target="_top" xlink:title="core/MojRefCount.h">
<polygon fill="white" stroke="black" points="839.833,-492.5 839.833,-513.5 949.833,-513.5 949.833,-492.5 839.833,-492.5"/>
<text text-anchor="middle" x="894.833" y="-500.5" font-family="Helvetica,sans-Serif" font-size="10.00">core/MojRefCount.h</text>
</a>
</g>
<!-- Node30&#45;&gt;Node31 -->
<g id="edge94" class="edge"><title>Node30&#45;&gt;Node31</title>
<path fill="none" stroke="midnightblue" d="M878.97,-557.267C881.654,-548.085 885.592,-534.615 888.872,-523.392"/>
<polygon fill="midnightblue" stroke="midnightblue" points="892.307,-524.114 891.754,-513.534 885.589,-522.15 892.307,-524.114"/>
</g>
<!-- Node33 -->
<g id="node87" class="node"><title>Node33</title>
<a xlink:href="MojVectorInternal_8h.htm" target="_top" xlink:title="core/internal/MojVectorInternal.h">
<polygon fill="white" stroke="black" points="459.333,-492.5 459.333,-513.5 630.333,-513.5 630.333,-492.5 459.333,-492.5"/>
<text text-anchor="middle" x="544.833" y="-500.5" font-family="Helvetica,sans-Serif" font-size="10.00">core/internal/MojVectorInternal.h</text>
</a>
</g>
<!-- Node30&#45;&gt;Node33 -->
<g id="edge108" class="edge"><title>Node30&#45;&gt;Node33</title>
<path fill="none" stroke="midnightblue" d="M826.993,-558.409C769.04,-547.029 672.259,-528.023 608.486,-515.5"/>
<polygon fill="midnightblue" stroke="midnightblue" points="609.033,-512.04 598.546,-513.548 607.684,-518.909 609.033,-512.04"/>
</g>
<!-- Node31&#45;&gt;Node4 -->
<g id="edge96" class="edge"><title>Node31&#45;&gt;Node4</title>
<path fill="none" stroke="midnightblue" d="M890.352,-492.427C881.949,-471.955 864.103,-425.283 857.833,-384 851.384,-341.542 858.882,-291.284 864.279,-263.702"/>
<polygon fill="midnightblue" stroke="midnightblue" points="867.755,-264.174 866.348,-253.673 860.9,-262.76 867.755,-264.174"/>
</g>
<!-- Node31&#45;&gt;Node17 -->
<g id="edge100" class="edge"><title>Node31&#45;&gt;Node17</title>
<path fill="none" stroke="midnightblue" d="M868.77,-492.412C842.039,-481.552 800.269,-464.583 770.486,-452.484"/>
<polygon fill="midnightblue" stroke="midnightblue" points="771.467,-449.105 760.884,-448.584 768.832,-455.59 771.467,-449.105"/>
</g>
<!-- Node31&#45;&gt;Node18 -->
<g id="edge98" class="edge"><title>Node31&#45;&gt;Node18</title>
<path fill="none" stroke="midnightblue" d="M896.951,-492.25C901.427,-469.541 911.91,-416.348 917.74,-386.768"/>
<polygon fill="midnightblue" stroke="midnightblue" points="921.224,-387.188 919.724,-376.7 914.356,-385.835 921.224,-387.188"/>
</g>
<!-- Node32 -->
<g id="node83" class="node"><title>Node32</title>
<a xlink:href="MojRefCountInternal_8h.htm" target="_top" xlink:title="core/internal/MojRefCount\lInternal.h">
<polygon fill="white" stroke="black" points="335.833,-421 335.833,-455 475.833,-455 475.833,-421 335.833,-421"/>
<text text-anchor="start" x="343.833" y="-442" font-family="Helvetica,sans-Serif" font-size="10.00">core/internal/MojRefCount</text>
<text text-anchor="middle" x="405.833" y="-429" font-family="Helvetica,sans-Serif" font-size="10.00">Internal.h</text>
</a>
</g>
<!-- Node31&#45;&gt;Node32 -->
<g id="edge102" class="edge"><title>Node31&#45;&gt;Node32</title>
<path fill="none" stroke="midnightblue" d="M839.699,-493.366C836.702,-492.892 833.732,-492.433 830.833,-492 711.017,-474.1 571.622,-457.118 486.065,-447.132"/>
<polygon fill="midnightblue" stroke="midnightblue" points="486.24,-443.629 475.903,-445.949 485.431,-450.582 486.24,-443.629"/>
</g>
<!-- Node32&#45;&gt;Node22 -->
<g id="edge104" class="edge"><title>Node32&#45;&gt;Node22</title>
<path fill="none" stroke="midnightblue" d="M404.174,-420.937C403.19,-410.814 401.934,-397.898 400.887,-387.133"/>
<polygon fill="midnightblue" stroke="midnightblue" points="404.344,-386.515 399.893,-376.901 397.377,-387.193 404.344,-386.515"/>
</g>
</g>
</svg>
