<?xml version="1.0" encoding="UTF-8" standalone="no"?>
<!DOCTYPE svg PUBLIC "-//W3C//DTD SVG 1.1//EN"
 "http://www.w3.org/Graphics/SVG/1.1/DTD/svg11.dtd">
<!-- Generated by graphviz version 2.26.3 (20100126.1600)
 -->
<!-- Title: MojGmainReactor.h Pages: 1 -->
<svg width="1445pt" height="768pt"
 viewBox="0.00 0.00 1445.06 768.00" xmlns="http://www.w3.org/2000/svg" xmlns:xlink="http://www.w3.org/1999/xlink">
<g id="graph1" class="graph" transform="scale(1 1) rotate(0) translate(4 764)">
<title>MojGmainReactor.h</title>
<polygon fill="white" stroke="white" points="-4,5 -4,-764 1442.06,-764 1442.06,5 -4,5"/>
<!-- Node1 -->
<g id="node1" class="node"><title>Node1</title>
<polygon fill="#bfbfbf" stroke="black" points="912.057,-738.5 912.057,-759.5 1022.06,-759.5 1022.06,-738.5 912.057,-738.5"/>
<text text-anchor="middle" x="967.057" y="-746.5" font-family="Helvetica,sans-Serif" font-size="10.00">MojGmainReactor.h</text>
</g>
<!-- Node2 -->
<g id="node3" class="node"><title>Node2</title>
<a xlink:href="MojCoreDefs_8h.htm" target="_top" xlink:title="core/MojCoreDefs.h">
<polygon fill="white" stroke="black" points="521.557,-232.5 521.557,-253.5 632.557,-253.5 632.557,-232.5 521.557,-232.5"/>
<text text-anchor="middle" x="577.057" y="-240.5" font-family="Helvetica,sans-Serif" font-size="10.00">core/MojCoreDefs.h</text>
</a>
</g>
<!-- Node1&#45;&gt;Node2 -->
<g id="edge2" class="edge"><title>Node1&#45;&gt;Node2</title>
<path fill="none" stroke="midnightblue" d="M1022.11,-744.68C1132.21,-734.519 1369.06,-704.368 1369.06,-633 1369.06,-633 1369.06,-633 1369.06,-366 1369.06,-292.73 832.935,-256.765 642.883,-246.317"/>
<polygon fill="midnightblue" stroke="midnightblue" points="642.925,-242.814 632.749,-245.766 642.545,-249.804 642.925,-242.814"/>
</g>
<!-- Node12 -->
<g id="node23" class="node"><title>Node12</title>
<a xlink:href="MojHashMap_8h.htm" target="_top" xlink:title="core/MojHashMap.h">
<polygon fill="white" stroke="black" points="210.057,-622.5 210.057,-643.5 322.057,-643.5 322.057,-622.5 210.057,-622.5"/>
<text text-anchor="middle" x="266.057" y="-630.5" font-family="Helvetica,sans-Serif" font-size="10.00">core/MojHashMap.h</text>
</a>
</g>
<!-- Node1&#45;&gt;Node12 -->
<g id="edge22" class="edge"><title>Node1&#45;&gt;Node12</title>
<path fill="none" stroke="midnightblue" d="M912.002,-740.892C850.701,-731.782 748.703,-716.385 661.057,-702 545.348,-683.01 410.903,-659.138 332.469,-645.03"/>
<polygon fill="midnightblue" stroke="midnightblue" points="332.712,-641.517 322.25,-643.19 331.472,-648.407 332.712,-641.517"/>
</g>
<!-- Node22 -->
<g id="node52" class="node"><title>Node22</title>
<a xlink:href="MojReactor_8h.htm" target="_top" xlink:title="core/MojReactor.h">
<polygon fill="white" stroke="black" points="955.057,-680.5 955.057,-701.5 1059.06,-701.5 1059.06,-680.5 955.057,-680.5"/>
<text text-anchor="middle" x="1007.06" y="-688.5" font-family="Helvetica,sans-Serif" font-size="10.00">core/MojReactor.h</text>
</a>
</g>
<!-- Node1&#45;&gt;Node22 -->
<g id="edge60" class="edge"><title>Node1&#45;&gt;Node22</title>
<path fill="none" stroke="midnightblue" d="M974.394,-738.362C979.863,-730.431 987.479,-719.389 993.981,-709.961"/>
<polygon fill="midnightblue" stroke="midnightblue" points="996.971,-711.79 999.767,-701.571 991.209,-707.816 996.971,-711.79"/>
</g>
<!-- Node26 -->
<g id="node63" class="node"><title>Node26</title>
<a xlink:href="MojThread_8h.htm" target="_top" xlink:title="core/MojThread.h">
<polygon fill="white" stroke="black" points="408.557,-557.5 408.557,-578.5 509.557,-578.5 509.557,-557.5 408.557,-557.5"/>
<text text-anchor="middle" x="459.057" y="-565.5" font-family="Helvetica,sans-Serif" font-size="10.00">core/MojThread.h</text>
</a>
</g>
<!-- Node1&#45;&gt;Node26 -->
<g id="edge108" class="edge"><title>Node1&#45;&gt;Node26</title>
<path fill="none" stroke="midnightblue" d="M937.549,-738.486C850.746,-707.558 596.221,-616.871 498.181,-581.94"/>
<polygon fill="midnightblue" stroke="midnightblue" points="499.242,-578.602 488.647,-578.543 496.892,-585.196 499.242,-578.602"/>
</g>
<!-- Node28 -->
<g id="node70" class="node"><title>Node28</title>
<a xlink:href="MojVector_8h.htm" target="_top" xlink:title="core/MojVector.h">
<polygon fill="white" stroke="black" points="878.557,-557.5 878.557,-578.5 975.557,-578.5 975.557,-557.5 878.557,-557.5"/>
<text text-anchor="middle" x="927.057" y="-565.5" font-family="Helvetica,sans-Serif" font-size="10.00">core/MojVector.h</text>
</a>
</g>
<!-- Node1&#45;&gt;Node28 -->
<g id="edge110" class="edge"><title>Node1&#45;&gt;Node28</title>
<path fill="none" stroke="midnightblue" d="M961.338,-738.495C956.517,-729.175 949.818,-715.053 946.057,-702 934.787,-662.883 930.069,-615.34 928.197,-588.69"/>
<polygon fill="midnightblue" stroke="midnightblue" points="931.685,-588.392 927.558,-578.634 924.699,-588.836 931.685,-588.392"/>
</g>
<!-- Node33 -->
<g id="node89" class="node"><title>Node33</title>
<polygon fill="white" stroke="#bfbfbf" points="1396.56,-680.5 1396.56,-701.5 1437.56,-701.5 1437.56,-680.5 1396.56,-680.5"/>
<text text-anchor="middle" x="1417.06" y="-688.5" font-family="Helvetica,sans-Serif" font-size="10.00">glib.h</text>
</g>
<!-- Node1&#45;&gt;Node33 -->
<g id="edge112" class="edge"><title>Node1&#45;&gt;Node33</title>
<path fill="none" stroke="midnightblue" d="M1022.14,-746.295C1102.32,-741.567 1255.53,-729.541 1383.06,-702 1384.15,-701.764 1385.26,-701.507 1386.37,-701.233"/>
<polygon fill="midnightblue" stroke="midnightblue" points="1387.7,-704.494 1396.38,-698.418 1385.81,-697.756 1387.7,-704.494"/>
</g>
<!-- Node3 -->
<g id="node5" class="node"><title>Node3</title>
<a xlink:href="MojConfig_8h.htm" target="_top" xlink:title="core/internal/MojConfig.h">
<polygon fill="white" stroke="black" points="634.557,-174.5 634.557,-195.5 769.557,-195.5 769.557,-174.5 634.557,-174.5"/>
<text text-anchor="middle" x="702.057" y="-182.5" font-family="Helvetica,sans-Serif" font-size="10.00">core/internal/MojConfig.h</text>
</a>
</g>
<!-- Node2&#45;&gt;Node3 -->
<g id="edge4" class="edge"><title>Node2&#45;&gt;Node3</title>
<path fill="none" stroke="midnightblue" d="M599.694,-232.497C619.305,-223.397 647.904,-210.127 669.891,-199.925"/>
<polygon fill="midnightblue" stroke="midnightblue" points="671.569,-203.005 679.167,-195.621 668.623,-196.655 671.569,-203.005"/>
</g>
<!-- Node4 -->
<g id="node7" class="node"><title>Node4</title>
<a xlink:href="MojNew_8h.htm" target="_top" xlink:title="core/internal/MojNew.h">
<polygon fill="white" stroke="black" points="296.557,-174.5 296.557,-195.5 421.557,-195.5 421.557,-174.5 296.557,-174.5"/>
<text text-anchor="middle" x="359.057" y="-182.5" font-family="Helvetica,sans-Serif" font-size="10.00">core/internal/MojNew.h</text>
</a>
</g>
<!-- Node2&#45;&gt;Node4 -->
<g id="edge6" class="edge"><title>Node2&#45;&gt;Node4</title>
<path fill="none" stroke="midnightblue" d="M537.579,-232.497C501.424,-222.877 447.754,-208.598 408.705,-198.209"/>
<polygon fill="midnightblue" stroke="midnightblue" points="409.173,-194.712 398.61,-195.523 407.374,-201.477 409.173,-194.712"/>
</g>
<!-- Node6 -->
<g id="node11" class="node"><title>Node6</title>
<a xlink:href="MojErr_8h.htm" target="_top" xlink:title="core/MojErr.h">
<polygon fill="white" stroke="black" points="439.057,-174.5 439.057,-195.5 519.057,-195.5 519.057,-174.5 439.057,-174.5"/>
<text text-anchor="middle" x="479.057" y="-182.5" font-family="Helvetica,sans-Serif" font-size="10.00">core/MojErr.h</text>
</a>
</g>
<!-- Node2&#45;&gt;Node6 -->
<g id="edge10" class="edge"><title>Node2&#45;&gt;Node6</title>
<path fill="none" stroke="midnightblue" d="M559.083,-232.362C544.163,-223.532 522.725,-210.844 505.792,-200.822"/>
<polygon fill="midnightblue" stroke="midnightblue" points="507.307,-197.652 496.918,-195.571 503.741,-203.676 507.307,-197.652"/>
</g>
<!-- Node10 -->
<g id="node19" class="node"><title>Node10</title>
<a xlink:href="MojOs_8h.htm" target="_top" xlink:title="core/MojOs.h">
<polygon fill="white" stroke="black" points="537.057,-174.5 537.057,-195.5 617.057,-195.5 617.057,-174.5 537.057,-174.5"/>
<text text-anchor="middle" x="577.057" y="-182.5" font-family="Helvetica,sans-Serif" font-size="10.00">core/MojOs.h</text>
</a>
</g>
<!-- Node2&#45;&gt;Node10 -->
<g id="edge18" class="edge"><title>Node2&#45;&gt;Node10</title>
<path fill="none" stroke="midnightblue" d="M577.057,-232.362C577.057,-224.922 577.057,-214.743 577.057,-205.728"/>
<polygon fill="midnightblue" stroke="midnightblue" points="580.558,-205.571 577.057,-195.571 573.558,-205.571 580.558,-205.571"/>
</g>
<!-- Node5 -->
<g id="node9" class="node"><title>Node5</title>
<polygon fill="white" stroke="#bfbfbf" points="341.057,-116.5 341.057,-137.5 377.057,-137.5 377.057,-116.5 341.057,-116.5"/>
<text text-anchor="middle" x="359.057" y="-124.5" font-family="Helvetica,sans-Serif" font-size="10.00">new</text>
</g>
<!-- Node4&#45;&gt;Node5 -->
<g id="edge8" class="edge"><title>Node4&#45;&gt;Node5</title>
<path fill="none" stroke="midnightblue" d="M359.057,-174.362C359.057,-166.922 359.057,-156.743 359.057,-147.728"/>
<polygon fill="midnightblue" stroke="midnightblue" points="362.558,-147.571 359.057,-137.571 355.558,-147.571 362.558,-147.571"/>
</g>
<!-- Node7 -->
<g id="node13" class="node"><title>Node7</title>
<a xlink:href="MojLog_8h.htm" target="_top" xlink:title="core/MojLog.h">
<polygon fill="white" stroke="black" points="396.057,-116.5 396.057,-137.5 480.057,-137.5 480.057,-116.5 396.057,-116.5"/>
<text text-anchor="middle" x="438.057" y="-124.5" font-family="Helvetica,sans-Serif" font-size="10.00">core/MojLog.h</text>
</a>
</g>
<!-- Node6&#45;&gt;Node7 -->
<g id="edge12" class="edge"><title>Node6&#45;&gt;Node7</title>
<path fill="none" stroke="midnightblue" d="M471.537,-174.362C465.931,-166.431 458.125,-155.389 451.461,-145.961"/>
<polygon fill="midnightblue" stroke="midnightblue" points="454.16,-143.716 445.53,-137.571 448.444,-147.757 454.16,-143.716"/>
</g>
<!-- Node8 -->
<g id="node15" class="node"><title>Node8</title>
<a xlink:href="MojListEntry_8h.htm" target="_top" xlink:title="core/MojListEntry.h">
<polygon fill="white" stroke="black" points="261.557,-58.5 261.557,-79.5 368.557,-79.5 368.557,-58.5 261.557,-58.5"/>
<text text-anchor="middle" x="315.057" y="-66.5" font-family="Helvetica,sans-Serif" font-size="10.00">core/MojListEntry.h</text>
</a>
</g>
<!-- Node7&#45;&gt;Node8 -->
<g id="edge14" class="edge"><title>Node7&#45;&gt;Node8</title>
<path fill="none" stroke="midnightblue" d="M415.783,-116.497C396.486,-107.397 368.345,-94.1273 346.709,-83.9253"/>
<polygon fill="midnightblue" stroke="midnightblue" points="348.119,-80.7206 337.582,-79.6212 345.134,-87.052 348.119,-80.7206"/>
</g>
<!-- Node9 -->
<g id="node17" class="node"><title>Node9</title>
<a xlink:href="MojNoCopy_8h.htm" target="_top" xlink:title="core/MojNoCopy.h">
<polygon fill="white" stroke="black" points="161.057,-0.5 161.057,-21.5 265.057,-21.5 265.057,-0.5 161.057,-0.5"/>
<text text-anchor="middle" x="213.057" y="-8.5" font-family="Helvetica,sans-Serif" font-size="10.00">core/MojNoCopy.h</text>
</a>
</g>
<!-- Node8&#45;&gt;Node9 -->
<g id="edge16" class="edge"><title>Node8&#45;&gt;Node9</title>
<path fill="none" stroke="midnightblue" d="M296.349,-58.3619C280.677,-49.4502 258.093,-36.6087 240.395,-26.5447"/>
<polygon fill="midnightblue" stroke="midnightblue" points="242.07,-23.4712 231.647,-21.5707 238.61,-29.5562 242.07,-23.4712"/>
</g>
<!-- Node11 -->
<g id="node21" class="node"><title>Node11</title>
<a xlink:href="MojOsInternal_8h.htm" target="_top" xlink:title="core/internal/MojOsInternal.h">
<polygon fill="white" stroke="black" points="500.057,-116.5 500.057,-137.5 654.057,-137.5 654.057,-116.5 500.057,-116.5"/>
<text text-anchor="middle" x="577.057" y="-124.5" font-family="Helvetica,sans-Serif" font-size="10.00">core/internal/MojOsInternal.h</text>
</a>
</g>
<!-- Node10&#45;&gt;Node11 -->
<g id="edge20" class="edge"><title>Node10&#45;&gt;Node11</title>
<path fill="none" stroke="midnightblue" d="M577.057,-174.362C577.057,-166.922 577.057,-156.743 577.057,-147.728"/>
<polygon fill="midnightblue" stroke="midnightblue" points="580.558,-147.571 577.057,-137.571 573.558,-147.571 580.558,-147.571"/>
</g>
<!-- Node12&#45;&gt;Node2 -->
<g id="edge24" class="edge"><title>Node12&#45;&gt;Node2</title>
<path fill="none" stroke="midnightblue" d="M209.809,-629.235C146.02,-623.793 47.4299,-611.452 21.0575,-586 -6.17242,-559.72 2.05747,-540.843 2.05747,-503 2.05747,-503 2.05747,-503 2.05747,-366 2.05747,-264.65 118.489,-313.579 217.057,-290 318.137,-265.821 438.358,-253.29 511.128,-247.434"/>
<polygon fill="midnightblue" stroke="midnightblue" points="511.817,-250.891 521.512,-246.618 511.269,-243.912 511.817,-250.891"/>
</g>
<!-- Node13 -->
<g id="node26" class="node"><title>Node13</title>
<a xlink:href="MojComp_8h.htm" target="_top" xlink:title="core/MojComp.h">
<polygon fill="white" stroke="black" points="687.057,-290.5 687.057,-311.5 781.057,-311.5 781.057,-290.5 687.057,-290.5"/>
<text text-anchor="middle" x="734.057" y="-298.5" font-family="Helvetica,sans-Serif" font-size="10.00">core/MojComp.h</text>
</a>
</g>
<!-- Node12&#45;&gt;Node13 -->
<g id="edge26" class="edge"><title>Node12&#45;&gt;Node13</title>
<path fill="none" stroke="midnightblue" d="M322.067,-628.785C386.957,-622.854 488.731,-609.983 518.057,-586 552.94,-557.473 523.686,-523.348 556.057,-492 589.391,-459.721 614.626,-480.459 654.057,-456 673.827,-443.737 672.861,-433.143 692.057,-420 722.897,-398.885 748.071,-415.583 768.057,-384 781.153,-363.306 765.328,-336.715 751.173,-319.281"/>
<polygon fill="midnightblue" stroke="midnightblue" points="753.67,-316.817 744.492,-311.524 748.366,-321.385 753.67,-316.817"/>
</g>
<!-- Node14 -->
<g id="node29" class="node"><title>Node14</title>
<a xlink:href="MojHashBase_8h.htm" target="_top" xlink:title="core/internal/MojHashBase.h">
<polygon fill="white" stroke="black" points="189.557,-557.5 189.557,-578.5 342.557,-578.5 342.557,-557.5 189.557,-557.5"/>
<text text-anchor="middle" x="266.057" y="-565.5" font-family="Helvetica,sans-Serif" font-size="10.00">core/internal/MojHashBase.h</text>
</a>
</g>
<!-- Node12&#45;&gt;Node14 -->
<g id="edge30" class="edge"><title>Node12&#45;&gt;Node14</title>
<path fill="none" stroke="midnightblue" d="M266.057,-622.267C266.057,-613.18 266.057,-599.892 266.057,-588.74"/>
<polygon fill="midnightblue" stroke="midnightblue" points="269.558,-588.534 266.057,-578.534 262.558,-588.534 269.558,-588.534"/>
</g>
<!-- Node21 -->
<g id="node50" class="node"><title>Node21</title>
<a xlink:href="MojHashMapInternal_8h.htm" target="_top" xlink:title="core/internal/MojHashMap\lInternal.h">
<polygon fill="white" stroke="black" points="30.0575,-551 30.0575,-585 172.057,-585 172.057,-551 30.0575,-551"/>
<text text-anchor="start" x="38.0575" y="-572" font-family="Helvetica,sans-Serif" font-size="10.00">core/internal/MojHashMap</text>
<text text-anchor="middle" x="101.057" y="-559" font-family="Helvetica,sans-Serif" font-size="10.00">Internal.h</text>
</a>
</g>
<!-- Node12&#45;&gt;Node21 -->
<g id="edge58" class="edge"><title>Node12&#45;&gt;Node21</title>
<path fill="none" stroke="midnightblue" d="M239.18,-622.412C216.126,-613.33 182.225,-599.975 153.779,-588.769"/>
<polygon fill="midnightblue" stroke="midnightblue" points="154.952,-585.469 144.365,-585.06 152.386,-591.982 154.952,-585.469"/>
</g>
<!-- Node13&#45;&gt;Node2 -->
<g id="edge28" class="edge"><title>Node13&#45;&gt;Node2</title>
<path fill="none" stroke="midnightblue" d="M705.626,-290.497C680.252,-281.123 642.901,-267.324 614.987,-257.012"/>
<polygon fill="midnightblue" stroke="midnightblue" points="616.136,-253.705 605.542,-253.523 613.71,-260.272 616.136,-253.705"/>
</g>
<!-- Node14&#45;&gt;Node2 -->
<g id="edge32" class="edge"><title>Node14&#45;&gt;Node2</title>
<path fill="none" stroke="midnightblue" d="M223.532,-557.442C175.195,-545.017 101.929,-524.722 94.0575,-514 88.271,-506.118 90.9862,-501.283 94.0575,-492 130.736,-381.14 157.124,-341.227 262.057,-290 304.736,-269.165 431.981,-255.128 511.078,-248.148"/>
<polygon fill="midnightblue" stroke="midnightblue" points="511.769,-251.601 521.429,-247.25 511.164,-244.627 511.769,-251.601"/>
</g>
<!-- Node15 -->
<g id="node32" class="node"><title>Node15</title>
<a xlink:href="MojAutoPtr_8h.htm" target="_top" xlink:title="core/MojAutoPtr.h">
<polygon fill="white" stroke="black" points="267.557,-427.5 267.557,-448.5 368.557,-448.5 368.557,-427.5 267.557,-427.5"/>
<text text-anchor="middle" x="318.057" y="-435.5" font-family="Helvetica,sans-Serif" font-size="10.00">core/MojAutoPtr.h</text>
</a>
</g>
<!-- Node14&#45;&gt;Node15 -->
<g id="edge34" class="edge"><title>Node14&#45;&gt;Node15</title>
<path fill="none" stroke="midnightblue" d="M259.737,-557.408C251.567,-542.232 239.563,-513.735 250.057,-492 257.928,-475.699 273.376,-462.809 287.562,-453.717"/>
<polygon fill="midnightblue" stroke="midnightblue" points="289.386,-456.704 296.152,-448.55 285.778,-450.705 289.386,-456.704"/>
</g>
<!-- Node18 -->
<g id="node41" class="node"><title>Node18</title>
<a xlink:href="MojHasher_8h.htm" target="_top" xlink:title="core/MojHasher.h">
<polygon fill="white" stroke="black" points="102.557,-492.5 102.557,-513.5 203.557,-513.5 203.557,-492.5 102.557,-492.5"/>
<text text-anchor="middle" x="153.057" y="-500.5" font-family="Helvetica,sans-Serif" font-size="10.00">core/MojHasher.h</text>
</a>
</g>
<!-- Node14&#45;&gt;Node18 -->
<g id="edge46" class="edge"><title>Node14&#45;&gt;Node18</title>
<path fill="none" stroke="midnightblue" d="M247.651,-557.412C229.346,-546.883 201.057,-530.611 180.181,-518.602"/>
<polygon fill="midnightblue" stroke="midnightblue" points="181.87,-515.536 171.456,-513.584 178.38,-521.604 181.87,-515.536"/>
</g>
<!-- Node15&#45;&gt;Node2 -->
<g id="edge36" class="edge"><title>Node15&#45;&gt;Node2</title>
<path fill="none" stroke="midnightblue" d="M293.191,-427.389C275.938,-418.546 254.289,-404.133 244.057,-384 236.808,-369.736 234.597,-360.903 244.057,-348 275.896,-304.577 423.911,-270.856 511.526,-254.283"/>
<polygon fill="midnightblue" stroke="midnightblue" points="512.189,-257.719 521.377,-252.443 510.904,-250.838 512.189,-257.719"/>
</g>
<!-- Node15&#45;&gt;Node9 -->
<g id="edge42" class="edge"><title>Node15&#45;&gt;Node9</title>
<path fill="none" stroke="midnightblue" d="M290.569,-427.381C234.261,-403.627 111.057,-340.51 111.057,-243 111.057,-243 111.057,-243 111.057,-127 111.057,-82.2824 154.334,-46.6036 184.509,-27.1611"/>
<polygon fill="midnightblue" stroke="midnightblue" points="186.735,-29.8995 193.391,-21.6565 183.047,-23.9496 186.735,-29.8995"/>
</g>
<!-- Node16 -->
<g id="node35" class="node"><title>Node16</title>
<a xlink:href="MojAtomicInt_8h.htm" target="_top" xlink:title="core/MojAtomicInt.h">
<polygon fill="white" stroke="black" points="401.057,-355.5 401.057,-376.5 511.057,-376.5 511.057,-355.5 401.057,-355.5"/>
<text text-anchor="middle" x="456.057" y="-363.5" font-family="Helvetica,sans-Serif" font-size="10.00">core/MojAtomicInt.h</text>
</a>
</g>
<!-- Node15&#45;&gt;Node16 -->
<g id="edge38" class="edge"><title>Node15&#45;&gt;Node16</title>
<path fill="none" stroke="midnightblue" d="M338.42,-427.376C361.657,-415.252 399.869,-395.316 426.41,-381.468"/>
<polygon fill="midnightblue" stroke="midnightblue" points="428.365,-384.396 435.612,-376.667 425.127,-378.19 428.365,-384.396"/>
</g>
<!-- Node17 -->
<g id="node39" class="node"><title>Node17</title>
<a xlink:href="MojAutoPtrInternal_8h.htm" target="_top" xlink:title="core/internal/MojAutoPtr\lInternal.h">
<polygon fill="white" stroke="black" points="252.557,-349 252.557,-383 383.557,-383 383.557,-349 252.557,-349"/>
<text text-anchor="start" x="260.557" y="-370" font-family="Helvetica,sans-Serif" font-size="10.00">core/internal/MojAutoPtr</text>
<text text-anchor="middle" x="318.057" y="-357" font-family="Helvetica,sans-Serif" font-size="10.00">Internal.h</text>
</a>
</g>
<!-- Node15&#45;&gt;Node17 -->
<g id="edge44" class="edge"><title>Node15&#45;&gt;Node17</title>
<path fill="none" stroke="midnightblue" d="M318.057,-427.376C318.057,-418.451 318.057,-405.293 318.057,-393.446"/>
<polygon fill="midnightblue" stroke="midnightblue" points="321.558,-393.094 318.057,-383.094 314.558,-393.094 321.558,-393.094"/>
</g>
<!-- Node16&#45;&gt;Node2 -->
<g id="edge40" class="edge"><title>Node16&#45;&gt;Node2</title>
<path fill="none" stroke="midnightblue" d="M465.117,-355.373C478.015,-340.396 502.602,-312.406 525.057,-290 535.152,-279.928 546.902,-269.228 556.675,-260.586"/>
<polygon fill="midnightblue" stroke="midnightblue" points="559.126,-263.092 564.341,-253.87 554.513,-257.827 559.126,-263.092"/>
</g>
<!-- Node18&#45;&gt;Node2 -->
<g id="edge48" class="edge"><title>Node18&#45;&gt;Node2</title>
<path fill="none" stroke="midnightblue" d="M156.125,-492.37C167.46,-455.383 210.916,-332.264 298.057,-290 334.706,-272.226 440.961,-257.756 511.257,-249.768"/>
<polygon fill="midnightblue" stroke="midnightblue" points="511.806,-253.229 521.355,-248.637 511.027,-246.272 511.806,-253.229"/>
</g>
<!-- Node19 -->
<g id="node44" class="node"><title>Node19</title>
<a xlink:href="MojUtil_8h.htm" target="_top" xlink:title="core/MojUtil.h">
<polygon fill="white" stroke="black" points="564.557,-427.5 564.557,-448.5 645.557,-448.5 645.557,-427.5 564.557,-427.5"/>
<text text-anchor="middle" x="605.057" y="-435.5" font-family="Helvetica,sans-Serif" font-size="10.00">core/MojUtil.h</text>
</a>
</g>
<!-- Node18&#45;&gt;Node19 -->
<g id="edge50" class="edge"><title>Node18&#45;&gt;Node19</title>
<path fill="none" stroke="midnightblue" d="M203.592,-495.733C290.479,-483.238 467.214,-457.823 554.273,-445.303"/>
<polygon fill="midnightblue" stroke="midnightblue" points="555.034,-448.73 564.434,-443.842 554.037,-441.801 555.034,-448.73"/>
</g>
<!-- Node19&#45;&gt;Node2 -->
<g id="edge52" class="edge"><title>Node19&#45;&gt;Node2</title>
<path fill="none" stroke="midnightblue" d="M603.166,-427.258C601.272,-416.372 598.323,-399.037 596.057,-384 589.621,-341.281 583.111,-291.118 579.632,-263.624"/>
<polygon fill="midnightblue" stroke="midnightblue" points="583.095,-263.114 578.375,-253.629 576.15,-263.987 583.095,-263.114"/>
</g>
<!-- Node20 -->
<g id="node47" class="node"><title>Node20</title>
<a xlink:href="MojUtilInternal_8h.htm" target="_top" xlink:title="core/internal/MojUtilInternal.h">
<polygon fill="white" stroke="black" points="604.557,-355.5 604.557,-376.5 759.557,-376.5 759.557,-355.5 604.557,-355.5"/>
<text text-anchor="middle" x="682.057" y="-363.5" font-family="Helvetica,sans-Serif" font-size="10.00">core/internal/MojUtilInternal.h</text>
</a>
</g>
<!-- Node19&#45;&gt;Node20 -->
<g id="edge54" class="edge"><title>Node19&#45;&gt;Node20</title>
<path fill="none" stroke="midnightblue" d="M616.419,-427.376C628.702,-415.89 648.485,-397.393 663.125,-383.703"/>
<polygon fill="midnightblue" stroke="midnightblue" points="665.735,-386.054 670.649,-376.667 660.954,-380.941 665.735,-386.054"/>
</g>
<!-- Node20&#45;&gt;Node13 -->
<g id="edge56" class="edge"><title>Node20&#45;&gt;Node13</title>
<path fill="none" stroke="midnightblue" d="M690.644,-355.267C698.368,-345.612 709.886,-331.215 719.117,-319.675"/>
<polygon fill="midnightblue" stroke="midnightblue" points="722.117,-321.529 725.631,-311.534 716.65,-317.156 722.117,-321.529"/>
</g>
<!-- Node22&#45;&gt;Node2 -->
<g id="edge62" class="edge"><title>Node22&#45;&gt;Node2</title>
<path fill="none" stroke="midnightblue" d="M1006.77,-680.471C1006.22,-659.213 1005.06,-609.646 1005.06,-568 1005.06,-568 1005.06,-568 1005.06,-366 1005.06,-353.803 1005.11,-332.321 900.057,-290 854.629,-271.699 723.285,-256.684 642.762,-248.861"/>
<polygon fill="midnightblue" stroke="midnightblue" points="643.008,-245.369 632.72,-247.897 642.34,-252.337 643.008,-245.369"/>
</g>
<!-- Node23 -->
<g id="node55" class="node"><title>Node23</title>
<a xlink:href="MojSignal_8h.htm" target="_top" xlink:title="core/MojSignal.h">
<polygon fill="white" stroke="black" points="1032.56,-622.5 1032.56,-643.5 1127.56,-643.5 1127.56,-622.5 1032.56,-622.5"/>
<text text-anchor="middle" x="1080.06" y="-630.5" font-family="Helvetica,sans-Serif" font-size="10.00">core/MojSignal.h</text>
</a>
</g>
<!-- Node22&#45;&gt;Node23 -->
<g id="edge64" class="edge"><title>Node22&#45;&gt;Node23</title>
<path fill="none" stroke="midnightblue" d="M1020.45,-680.362C1031.15,-671.859 1046.35,-659.779 1058.73,-649.947"/>
<polygon fill="midnightblue" stroke="midnightblue" points="1061.1,-652.532 1066.75,-643.571 1056.75,-647.051 1061.1,-652.532"/>
</g>
<!-- Node23&#45;&gt;Node2 -->
<g id="edge66" class="edge"><title>Node23&#45;&gt;Node2</title>
<path fill="none" stroke="midnightblue" d="M1074.76,-622.168C1064.53,-600.235 1043.06,-548.758 1043.06,-503 1043.06,-503 1043.06,-503 1043.06,-366 1043.06,-330.578 1046.48,-312.422 1019.06,-290 990.57,-266.706 759.153,-252.032 643.024,-246.064"/>
<polygon fill="midnightblue" stroke="midnightblue" points="642.997,-242.559 632.833,-245.548 642.643,-249.55 642.997,-242.559"/>
</g>
<!-- Node24 -->
<g id="node58" class="node"><title>Node24</title>
<a xlink:href="MojList_8h.htm" target="_top" xlink:title="core/MojList.h">
<polygon fill="white" stroke="black" points="1258.56,-557.5 1258.56,-578.5 1341.56,-578.5 1341.56,-557.5 1258.56,-557.5"/>
<text text-anchor="middle" x="1300.06" y="-565.5" font-family="Helvetica,sans-Serif" font-size="10.00">core/MojList.h</text>
</a>
</g>
<!-- Node23&#45;&gt;Node24 -->
<g id="edge68" class="edge"><title>Node23&#45;&gt;Node24</title>
<path fill="none" stroke="midnightblue" d="M1121.54,-622.472C1156.12,-613.471 1206.57,-599.816 1250.06,-586 1254.06,-584.727 1258.23,-583.337 1262.37,-581.912"/>
<polygon fill="midnightblue" stroke="midnightblue" points="1263.62,-585.182 1271.89,-578.562 1261.3,-578.578 1263.62,-585.182"/>
</g>
<!-- Node23&#45;&gt;Node26 -->
<g id="edge74" class="edge"><title>Node23&#45;&gt;Node26</title>
<path fill="none" stroke="midnightblue" d="M1032.36,-628.007C920.894,-616.34 643.453,-587.301 519.984,-574.377"/>
<polygon fill="midnightblue" stroke="midnightblue" points="520.254,-570.886 509.943,-573.326 519.525,-577.848 520.254,-570.886"/>
</g>
<!-- Node23&#45;&gt;Node28 -->
<g id="edge84" class="edge"><title>Node23&#45;&gt;Node28</title>
<path fill="none" stroke="midnightblue" d="M1055.13,-622.412C1029.68,-611.6 989.978,-594.731 961.523,-582.642"/>
<polygon fill="midnightblue" stroke="midnightblue" points="962.542,-579.272 951.969,-578.584 959.805,-585.715 962.542,-579.272"/>
</g>
<!-- Node32 -->
<g id="node85" class="node"><title>Node32</title>
<a xlink:href="MojSignalInternal_8h.htm" target="_top" xlink:title="core/internal/MojSignalInternal.h">
<polygon fill="white" stroke="black" points="1071.06,-557.5 1071.06,-578.5 1241.06,-578.5 1241.06,-557.5 1071.06,-557.5"/>
<text text-anchor="middle" x="1156.06" y="-565.5" font-family="Helvetica,sans-Serif" font-size="10.00">core/internal/MojSignalInternal.h</text>
</a>
</g>
<!-- Node23&#45;&gt;Node32 -->
<g id="edge106" class="edge"><title>Node23&#45;&gt;Node32</title>
<path fill="none" stroke="midnightblue" d="M1092.61,-622.267C1104.34,-612.233 1122.06,-597.078 1135.79,-585.331"/>
<polygon fill="midnightblue" stroke="midnightblue" points="1138.42,-587.693 1143.74,-578.534 1133.87,-582.374 1138.42,-587.693"/>
</g>
<!-- Node24&#45;&gt;Node2 -->
<g id="edge70" class="edge"><title>Node24&#45;&gt;Node2</title>
<path fill="none" stroke="midnightblue" d="M1271.38,-557.474C1239.81,-545.55 1191.48,-526.196 1176.06,-514 1142.94,-487.813 1119.06,-480.222 1119.06,-438 1119.06,-438 1119.06,-438 1119.06,-366 1119.06,-322.408 1095.48,-310.594 1057.06,-290 1021.39,-270.882 765.879,-253.837 642.887,-246.635"/>
<polygon fill="midnightblue" stroke="midnightblue" points="643.022,-243.137 632.836,-246.051 642.616,-250.125 643.022,-243.137"/>
</g>
<!-- Node25 -->
<g id="node61" class="node"><title>Node25</title>
<a xlink:href="MojListInternal_8h.htm" target="_top" xlink:title="core/internal/MojListInternal.h">
<polygon fill="white" stroke="black" points="1184.56,-492.5 1184.56,-513.5 1341.56,-513.5 1341.56,-492.5 1184.56,-492.5"/>
<text text-anchor="middle" x="1263.06" y="-500.5" font-family="Helvetica,sans-Serif" font-size="10.00">core/internal/MojListInternal.h</text>
</a>
</g>
<!-- Node24&#45;&gt;Node25 -->
<g id="edge72" class="edge"><title>Node24&#45;&gt;Node25</title>
<path fill="none" stroke="midnightblue" d="M1293.95,-557.267C1288.56,-547.801 1280.58,-533.777 1274.08,-522.357"/>
<polygon fill="midnightblue" stroke="midnightblue" points="1277.04,-520.493 1269.05,-513.534 1270.96,-523.956 1277.04,-520.493"/>
</g>
<!-- Node26&#45;&gt;Node2 -->
<g id="edge76" class="edge"><title>Node26&#45;&gt;Node2</title>
<path fill="none" stroke="midnightblue" d="M462.984,-557.187C479.96,-510.43 547.205,-325.221 569.69,-263.291"/>
<polygon fill="midnightblue" stroke="midnightblue" points="573.113,-264.119 573.236,-253.525 566.533,-261.73 573.113,-264.119"/>
</g>
<!-- Node26&#45;&gt;Node16 -->
<g id="edge78" class="edge"><title>Node26&#45;&gt;Node16</title>
<path fill="none" stroke="midnightblue" d="M458.9,-557.424C458.427,-525.53 457.006,-429.865 456.371,-387.081"/>
<polygon fill="midnightblue" stroke="midnightblue" points="459.868,-386.908 456.22,-376.961 452.869,-387.012 459.868,-386.908"/>
</g>
<!-- Node27 -->
<g id="node67" class="node"><title>Node27</title>
<a xlink:href="MojThreadInternal_8h.htm" target="_top" xlink:title="core/internal/MojThreadInternal.h">
<polygon fill="white" stroke="black" points="258.557,-492.5 258.557,-513.5 433.557,-513.5 433.557,-492.5 258.557,-492.5"/>
<text text-anchor="middle" x="346.057" y="-500.5" font-family="Helvetica,sans-Serif" font-size="10.00">core/internal/MojThreadInternal.h</text>
</a>
</g>
<!-- Node26&#45;&gt;Node27 -->
<g id="edge80" class="edge"><title>Node26&#45;&gt;Node27</title>
<path fill="none" stroke="midnightblue" d="M440.651,-557.412C422.346,-546.883 394.057,-530.611 373.181,-518.602"/>
<polygon fill="midnightblue" stroke="midnightblue" points="374.87,-515.536 364.456,-513.584 371.38,-521.604 374.87,-515.536"/>
</g>
<!-- Node27&#45;&gt;Node15 -->
<g id="edge82" class="edge"><title>Node27&#45;&gt;Node15</title>
<path fill="none" stroke="midnightblue" d="M341.434,-492.267C337.438,-482.991 331.556,-469.336 326.692,-458.045"/>
<polygon fill="midnightblue" stroke="midnightblue" points="329.766,-456.333 322.595,-448.534 323.337,-459.103 329.766,-456.333"/>
</g>
<!-- Node28&#45;&gt;Node2 -->
<g id="edge86" class="edge"><title>Node28&#45;&gt;Node2</title>
<path fill="none" stroke="midnightblue" d="M932.788,-557.217C943.849,-535.372 967.057,-484.047 967.057,-438 967.057,-438 967.057,-438 967.057,-366 967.057,-298.875 754.267,-263.804 643.045,-250.058"/>
<polygon fill="midnightblue" stroke="midnightblue" points="643.283,-246.561 632.935,-248.832 642.441,-253.51 643.283,-246.561"/>
</g>
<!-- Node28&#45;&gt;Node13 -->
<g id="edge88" class="edge"><title>Node28&#45;&gt;Node13</title>
<path fill="none" stroke="midnightblue" d="M923.629,-557.38C918.627,-542.411 908.653,-514.43 897.057,-492 861.733,-423.673 855.06,-402.774 801.057,-348 789.305,-336.08 774.18,-325.177 761.275,-316.88"/>
<polygon fill="midnightblue" stroke="midnightblue" points="763.102,-313.894 752.765,-311.571 759.397,-319.833 763.102,-313.894"/>
</g>
<!-- Node28&#45;&gt;Node19 -->
<g id="edge102" class="edge"><title>Node28&#45;&gt;Node19</title>
<path fill="none" stroke="midnightblue" d="M922.563,-557.462C914.843,-540.721 897.411,-508.282 872.057,-492 803.41,-447.915 772.004,-472.265 692.057,-456 680.249,-453.598 667.546,-450.985 655.593,-448.515"/>
<polygon fill="midnightblue" stroke="midnightblue" points="656.267,-445.08 645.766,-446.48 654.849,-451.935 656.267,-445.08"/>
</g>
<!-- Node29 -->
<g id="node74" class="node"><title>Node29</title>
<a xlink:href="MojRefCount_8h.htm" target="_top" xlink:title="core/MojRefCount.h">
<polygon fill="white" stroke="black" points="565.057,-492.5 565.057,-513.5 675.057,-513.5 675.057,-492.5 565.057,-492.5"/>
<text text-anchor="middle" x="620.057" y="-500.5" font-family="Helvetica,sans-Serif" font-size="10.00">core/MojRefCount.h</text>
</a>
</g>
<!-- Node28&#45;&gt;Node29 -->
<g id="edge90" class="edge"><title>Node28&#45;&gt;Node29</title>
<path fill="none" stroke="midnightblue" d="M878.412,-557.701C824.582,-546.303 737.797,-527.929 679.858,-515.661"/>
<polygon fill="midnightblue" stroke="midnightblue" points="680.255,-512.168 669.747,-513.521 678.805,-519.016 680.255,-512.168"/>
</g>
<!-- Node31 -->
<g id="node83" class="node"><title>Node31</title>
<a xlink:href="MojVectorInternal_8h.htm" target="_top" xlink:title="core/internal/MojVectorInternal.h">
<polygon fill="white" stroke="black" points="692.557,-492.5 692.557,-513.5 863.557,-513.5 863.557,-492.5 692.557,-492.5"/>
<text text-anchor="middle" x="778.057" y="-500.5" font-family="Helvetica,sans-Serif" font-size="10.00">core/internal/MojVectorInternal.h</text>
</a>
</g>
<!-- Node28&#45;&gt;Node31 -->
<g id="edge104" class="edge"><title>Node28&#45;&gt;Node31</title>
<path fill="none" stroke="midnightblue" d="M902.786,-557.412C878.001,-546.6 839.333,-529.731 811.622,-517.642"/>
<polygon fill="midnightblue" stroke="midnightblue" points="812.883,-514.374 802.318,-513.584 810.084,-520.79 812.883,-514.374"/>
</g>
<!-- Node29&#45;&gt;Node2 -->
<g id="edge92" class="edge"><title>Node29&#45;&gt;Node2</title>
<path fill="none" stroke="midnightblue" d="M675.154,-493.535C741.407,-481.891 844.484,-462.827 850.057,-456 860.175,-443.605 853.49,-435.628 850.057,-420 836.406,-357.847 839.627,-329.903 790.057,-290 767.645,-271.958 696.792,-258.775 642.902,-251.039"/>
<polygon fill="midnightblue" stroke="midnightblue" points="643.1,-247.533 632.711,-249.612 642.129,-254.465 643.1,-247.533"/>
</g>
<!-- Node29&#45;&gt;Node15 -->
<g id="edge96" class="edge"><title>Node29&#45;&gt;Node15</title>
<path fill="none" stroke="midnightblue" d="M571.2,-492.484C518.129,-481.062 433.366,-462.818 376.729,-450.628"/>
<polygon fill="midnightblue" stroke="midnightblue" points="377.357,-447.183 366.844,-448.501 375.884,-454.026 377.357,-447.183"/>
</g>
<!-- Node29&#45;&gt;Node16 -->
<g id="edge94" class="edge"><title>Node29&#45;&gt;Node16</title>
<path fill="none" stroke="midnightblue" d="M604.738,-492.397C591.568,-483.13 572.202,-469.139 556.057,-456 526.602,-432.028 494.222,-402.2 474.516,-383.626"/>
<polygon fill="midnightblue" stroke="midnightblue" points="476.8,-380.969 467.133,-376.634 471.987,-386.052 476.8,-380.969"/>
</g>
<!-- Node30 -->
<g id="node79" class="node"><title>Node30</title>
<a xlink:href="MojRefCountInternal_8h.htm" target="_top" xlink:title="core/internal/MojRefCount\lInternal.h">
<polygon fill="white" stroke="black" points="701.057,-421 701.057,-455 841.057,-455 841.057,-421 701.057,-421"/>
<text text-anchor="start" x="709.057" y="-442" font-family="Helvetica,sans-Serif" font-size="10.00">core/internal/MojRefCount</text>
<text text-anchor="middle" x="771.057" y="-429" font-family="Helvetica,sans-Serif" font-size="10.00">Internal.h</text>
</a>
</g>
<!-- Node29&#45;&gt;Node30 -->
<g id="edge98" class="edge"><title>Node29&#45;&gt;Node30</title>
<path fill="none" stroke="midnightblue" d="M644.654,-492.412C665.569,-483.409 696.238,-470.207 722.129,-459.062"/>
<polygon fill="midnightblue" stroke="midnightblue" points="723.624,-462.229 731.425,-455.06 720.856,-455.8 723.624,-462.229"/>
</g>
<!-- Node30&#45;&gt;Node20 -->
<g id="edge100" class="edge"><title>Node30&#45;&gt;Node20</title>
<path fill="none" stroke="midnightblue" d="M749.966,-420.937C735.918,-409.573 717.52,-394.689 703.417,-383.28"/>
<polygon fill="midnightblue" stroke="midnightblue" points="705.245,-380.256 695.269,-376.688 700.842,-385.699 705.245,-380.256"/>
</g>
</g>
</svg>
