<?xml version="1.0" encoding="UTF-8" standalone="no"?>
<!DOCTYPE svg PUBLIC "-//W3C//DTD SVG 1.1//EN"
 "http://www.w3.org/Graphics/SVG/1.1/DTD/svg11.dtd">
<!-- Generated by graphviz version 2.26.3 (20100126.1600)
 -->
<!-- Title: MojGmainReactor.h Pages: 1 -->
<svg width="285pt" height="146pt"
 viewBox="0.00 0.00 285.00 146.00" xmlns="http://www.w3.org/2000/svg" xmlns:xlink="http://www.w3.org/1999/xlink">
<g id="graph1" class="graph" transform="scale(1 1) rotate(0) translate(4 142)">
<title>MojGmainReactor.h</title>
<polygon fill="white" stroke="white" points="-4,5 -4,-142 282,-142 282,5 -4,5"/>
<!-- Node1 -->
<g id="node1" class="node"><title>Node1</title>
<polygon fill="#bfbfbf" stroke="black" points="78,-116.5 78,-137.5 188,-137.5 188,-116.5 78,-116.5"/>
<text text-anchor="middle" x="133" y="-124.5" font-family="Helvetica,sans-Serif" font-size="10.00">MojGmainReactor.h</text>
</g>
<!-- Node2 -->
<g id="node3" class="node"><title>Node2</title>
<a xlink:href="MojGmainReactor_8cpp.htm" target="_top" xlink:title="MojGmainReactor.cpp">
<polygon fill="white" stroke="black" points="0,-58.5 0,-79.5 122,-79.5 122,-58.5 0,-58.5"/>
<text text-anchor="middle" x="61" y="-66.5" font-family="Helvetica,sans-Serif" font-size="10.00">MojGmainReactor.cpp</text>
</a>
</g>
<!-- Node1&#45;&gt;Node2 -->
<g id="edge2" class="edge"><title>Node1&#45;&gt;Node2</title>
<path fill="none" stroke="midnightblue" d="M111.866,-109.975C99.646,-100.132 84.6539,-88.0545 74.1222,-79.5707"/>
<polygon fill="midnightblue" stroke="midnightblue" points="109.811,-112.814 119.794,-116.362 114.202,-107.363 109.811,-112.814"/>
</g>
<!-- Node3 -->
<g id="node5" class="node"><title>Node3</title>
<a xlink:href="MojDbLunaServiceApp_8h.htm" target="_top" xlink:title="MojDbLunaServiceApp.h">
<polygon fill="white" stroke="black" points="140,-58.5 140,-79.5 272,-79.5 272,-58.5 140,-58.5"/>
<text text-anchor="middle" x="206" y="-66.5" font-family="Helvetica,sans-Serif" font-size="10.00">MojDbLunaServiceApp.h</text>
</a>
</g>
<!-- Node1&#45;&gt;Node3 -->
<g id="edge4" class="edge"><title>Node1&#45;&gt;Node3</title>
<path fill="none" stroke="midnightblue" d="M154.428,-109.975C166.817,-100.132 182.018,-88.0545 192.696,-79.5707"/>
<polygon fill="midnightblue" stroke="midnightblue" points="152.042,-107.401 146.389,-116.362 156.396,-112.881 152.042,-107.401"/>
</g>
<!-- Node4 -->
<g id="node7" class="node"><title>Node4</title>
<a xlink:href="MojDbLunaServiceApp_8cpp.htm" target="_top" xlink:title="MojDbLunaServiceApp.cpp">
<polygon fill="white" stroke="black" points="134.5,-0.5 134.5,-21.5 277.5,-21.5 277.5,-0.5 134.5,-0.5"/>
<text text-anchor="middle" x="206" y="-8.5" font-family="Helvetica,sans-Serif" font-size="10.00">MojDbLunaServiceApp.cpp</text>
</a>
</g>
<!-- Node3&#45;&gt;Node4 -->
<g id="edge6" class="edge"><title>Node3&#45;&gt;Node4</title>
<path fill="none" stroke="midnightblue" d="M206,-48.1906C206,-39.1684 206,-28.9941 206,-21.5707"/>
<polygon fill="midnightblue" stroke="midnightblue" points="202.5,-48.3619 206,-58.3619 209.5,-48.3619 202.5,-48.3619"/>
</g>
</g>
</svg>
