<?xml version="1.0" encoding="UTF-8" standalone="no"?>
<!DOCTYPE svg PUBLIC "-//W3C//DTD SVG 1.1//EN"
 "http://www.w3.org/Graphics/SVG/1.1/DTD/svg11.dtd">
<!-- Generated by graphviz version 2.26.3 (20100126.1600)
 -->
<!-- Title: MojHashMap.h Pages: 1 -->
<svg width="856pt" height="638pt"
 viewBox="0.00 0.00 855.93 638.00" xmlns="http://www.w3.org/2000/svg" xmlns:xlink="http://www.w3.org/1999/xlink">
<g id="graph1" class="graph" transform="scale(1 1) rotate(0) translate(4 634)">
<title>MojHashMap.h</title>
<polygon fill="white" stroke="white" points="-4,5 -4,-634 852.928,-634 852.928,5 -4,5"/>
<!-- Node1 -->
<g id="node1" class="node"><title>Node1</title>
<polygon fill="#bfbfbf" stroke="black" points="614.928,-608.5 614.928,-629.5 702.928,-629.5 702.928,-608.5 614.928,-608.5"/>
<text text-anchor="middle" x="658.928" y="-616.5" font-family="Helvetica,sans-Serif" font-size="10.00">MojHashMap.h</text>
</g>
<!-- Node2 -->
<g id="node3" class="node"><title>Node2</title>
<a xlink:href="MojCoreDefs_8h.htm" target="_top" xlink:title="core/MojCoreDefs.h">
<polygon fill="white" stroke="black" points="329.428,-232.5 329.428,-253.5 440.428,-253.5 440.428,-232.5 329.428,-232.5"/>
<text text-anchor="middle" x="384.928" y="-240.5" font-family="Helvetica,sans-Serif" font-size="10.00">core/MojCoreDefs.h</text>
</a>
</g>
<!-- Node1&#45;&gt;Node2 -->
<g id="edge2" class="edge"><title>Node1&#45;&gt;Node2</title>
<path fill="none" stroke="midnightblue" d="M661.57,-608.291C666.79,-586.16 677.928,-533.706 677.928,-489 677.928,-489 677.928,-489 677.928,-373 677.928,-335.157 686.415,-316.011 658.928,-290 629.692,-262.334 522.235,-250.767 450.899,-246.065"/>
<polygon fill="midnightblue" stroke="midnightblue" points="450.849,-242.555 440.649,-245.42 450.41,-249.542 450.849,-242.555"/>
</g>
<!-- Node12 -->
<g id="node23" class="node"><title>Node12</title>
<a xlink:href="MojComp_8h.htm" target="_top" xlink:title="core/MojComp.h">
<polygon fill="white" stroke="black" points="555.928,-297.5 555.928,-318.5 649.928,-318.5 649.928,-297.5 555.928,-297.5"/>
<text text-anchor="middle" x="602.928" y="-305.5" font-family="Helvetica,sans-Serif" font-size="10.00">core/MojComp.h</text>
</a>
</g>
<!-- Node1&#45;&gt;Node12 -->
<g id="edge22" class="edge"><title>Node1&#45;&gt;Node12</title>
<path fill="none" stroke="midnightblue" d="M656.286,-608.291C651.065,-586.16 639.928,-533.706 639.928,-489 639.928,-489 639.928,-489 639.928,-431 639.928,-393.147 623.66,-351.412 612.698,-327.587"/>
<polygon fill="midnightblue" stroke="midnightblue" points="615.847,-326.06 608.387,-318.537 609.527,-329.07 615.847,-326.06"/>
</g>
<!-- Node13 -->
<g id="node26" class="node"><title>Node13</title>
<a xlink:href="MojHashBase_8h.htm" target="_top" xlink:title="core/internal/MojHashBase.h">
<polygon fill="white" stroke="black" points="421.428,-543.5 421.428,-564.5 574.428,-564.5 574.428,-543.5 421.428,-543.5"/>
<text text-anchor="middle" x="497.928" y="-551.5" font-family="Helvetica,sans-Serif" font-size="10.00">core/internal/MojHashBase.h</text>
</a>
</g>
<!-- Node1&#45;&gt;Node13 -->
<g id="edge26" class="edge"><title>Node1&#45;&gt;Node13</title>
<path fill="none" stroke="midnightblue" d="M632.702,-608.412C605.804,-597.552 563.773,-580.583 533.804,-568.484"/>
<polygon fill="midnightblue" stroke="midnightblue" points="534.725,-565.082 524.142,-564.584 532.105,-571.573 534.725,-565.082"/>
</g>
<!-- Node20 -->
<g id="node47" class="node"><title>Node20</title>
<a xlink:href="MojHashMapInternal_8h.htm" target="_top" xlink:title="core/internal/MojHashMap\lInternal.h">
<polygon fill="white" stroke="black" points="705.928,-537 705.928,-571 847.928,-571 847.928,-537 705.928,-537"/>
<text text-anchor="start" x="713.928" y="-558" font-family="Helvetica,sans-Serif" font-size="10.00">core/internal/MojHashMap</text>
<text text-anchor="middle" x="776.928" y="-545" font-family="Helvetica,sans-Serif" font-size="10.00">Internal.h</text>
</a>
</g>
<!-- Node1&#45;&gt;Node20 -->
<g id="edge54" class="edge"><title>Node1&#45;&gt;Node20</title>
<path fill="none" stroke="midnightblue" d="M678.149,-608.412C694.006,-599.677 717.039,-586.99 736.875,-576.063"/>
<polygon fill="midnightblue" stroke="midnightblue" points="738.657,-579.078 745.727,-571.187 735.279,-572.946 738.657,-579.078"/>
</g>
<!-- Node3 -->
<g id="node5" class="node"><title>Node3</title>
<a xlink:href="MojConfig_8h.htm" target="_top" xlink:title="core/internal/MojConfig.h">
<polygon fill="white" stroke="black" points="170.428,-174.5 170.428,-195.5 305.428,-195.5 305.428,-174.5 170.428,-174.5"/>
<text text-anchor="middle" x="237.928" y="-182.5" font-family="Helvetica,sans-Serif" font-size="10.00">core/internal/MojConfig.h</text>
</a>
</g>
<!-- Node2&#45;&gt;Node3 -->
<g id="edge4" class="edge"><title>Node2&#45;&gt;Node3</title>
<path fill="none" stroke="midnightblue" d="M358.307,-232.497C334.831,-223.234 300.402,-209.65 274.372,-199.379"/>
<polygon fill="midnightblue" stroke="midnightblue" points="275.434,-196.036 264.847,-195.621 272.865,-202.547 275.434,-196.036"/>
</g>
<!-- Node4 -->
<g id="node7" class="node"><title>Node4</title>
<a xlink:href="MojNew_8h.htm" target="_top" xlink:title="core/internal/MojNew.h">
<polygon fill="white" stroke="black" points="322.428,-174.5 322.428,-195.5 447.428,-195.5 447.428,-174.5 322.428,-174.5"/>
<text text-anchor="middle" x="384.928" y="-182.5" font-family="Helvetica,sans-Serif" font-size="10.00">core/internal/MojNew.h</text>
</a>
</g>
<!-- Node2&#45;&gt;Node4 -->
<g id="edge6" class="edge"><title>Node2&#45;&gt;Node4</title>
<path fill="none" stroke="midnightblue" d="M384.928,-232.362C384.928,-224.922 384.928,-214.743 384.928,-205.728"/>
<polygon fill="midnightblue" stroke="midnightblue" points="388.428,-205.571 384.928,-195.571 381.428,-205.571 388.428,-205.571"/>
</g>
<!-- Node6 -->
<g id="node11" class="node"><title>Node6</title>
<a xlink:href="MojErr_8h.htm" target="_top" xlink:title="core/MojErr.h">
<polygon fill="white" stroke="black" points="464.928,-174.5 464.928,-195.5 544.928,-195.5 544.928,-174.5 464.928,-174.5"/>
<text text-anchor="middle" x="504.928" y="-182.5" font-family="Helvetica,sans-Serif" font-size="10.00">core/MojErr.h</text>
</a>
</g>
<!-- Node2&#45;&gt;Node6 -->
<g id="edge10" class="edge"><title>Node2&#45;&gt;Node6</title>
<path fill="none" stroke="midnightblue" d="M406.659,-232.497C425.401,-223.438 452.694,-210.246 473.764,-200.063"/>
<polygon fill="midnightblue" stroke="midnightblue" points="475.473,-203.124 482.953,-195.621 472.426,-196.822 475.473,-203.124"/>
</g>
<!-- Node10 -->
<g id="node19" class="node"><title>Node10</title>
<a xlink:href="MojOs_8h.htm" target="_top" xlink:title="core/MojOs.h">
<polygon fill="white" stroke="black" points="72.9278,-174.5 72.9278,-195.5 152.928,-195.5 152.928,-174.5 72.9278,-174.5"/>
<text text-anchor="middle" x="112.928" y="-182.5" font-family="Helvetica,sans-Serif" font-size="10.00">core/MojOs.h</text>
</a>
</g>
<!-- Node2&#45;&gt;Node10 -->
<g id="edge18" class="edge"><title>Node2&#45;&gt;Node10</title>
<path fill="none" stroke="midnightblue" d="M333.961,-232.456C290.943,-223.512 227.458,-210.208 162.967,-196.208"/>
<polygon fill="midnightblue" stroke="midnightblue" points="163.545,-192.752 153.03,-194.047 162.058,-199.592 163.545,-192.752"/>
</g>
<!-- Node5 -->
<g id="node9" class="node"><title>Node5</title>
<polygon fill="white" stroke="#bfbfbf" points="366.928,-116.5 366.928,-137.5 402.928,-137.5 402.928,-116.5 366.928,-116.5"/>
<text text-anchor="middle" x="384.928" y="-124.5" font-family="Helvetica,sans-Serif" font-size="10.00">new</text>
</g>
<!-- Node4&#45;&gt;Node5 -->
<g id="edge8" class="edge"><title>Node4&#45;&gt;Node5</title>
<path fill="none" stroke="midnightblue" d="M384.928,-174.362C384.928,-166.922 384.928,-156.743 384.928,-147.728"/>
<polygon fill="midnightblue" stroke="midnightblue" points="388.428,-147.571 384.928,-137.571 381.428,-147.571 388.428,-147.571"/>
</g>
<!-- Node7 -->
<g id="node13" class="node"><title>Node7</title>
<a xlink:href="MojLog_8h.htm" target="_top" xlink:title="core/MojLog.h">
<polygon fill="white" stroke="black" points="441.928,-116.5 441.928,-137.5 525.928,-137.5 525.928,-116.5 441.928,-116.5"/>
<text text-anchor="middle" x="483.928" y="-124.5" font-family="Helvetica,sans-Serif" font-size="10.00">core/MojLog.h</text>
</a>
</g>
<!-- Node6&#45;&gt;Node7 -->
<g id="edge12" class="edge"><title>Node6&#45;&gt;Node7</title>
<path fill="none" stroke="midnightblue" d="M501.076,-174.362C498.323,-166.758 494.534,-156.294 491.218,-147.135"/>
<polygon fill="midnightblue" stroke="midnightblue" points="494.451,-145.782 487.755,-137.571 487.869,-148.165 494.451,-145.782"/>
</g>
<!-- Node8 -->
<g id="node15" class="node"><title>Node8</title>
<a xlink:href="MojListEntry_8h.htm" target="_top" xlink:title="core/MojListEntry.h">
<polygon fill="white" stroke="black" points="229.428,-58.5 229.428,-79.5 336.428,-79.5 336.428,-58.5 229.428,-58.5"/>
<text text-anchor="middle" x="282.928" y="-66.5" font-family="Helvetica,sans-Serif" font-size="10.00">core/MojListEntry.h</text>
</a>
</g>
<!-- Node7&#45;&gt;Node8 -->
<g id="edge14" class="edge"><title>Node7&#45;&gt;Node8</title>
<path fill="none" stroke="midnightblue" d="M447.528,-116.497C414.334,-106.918 365.128,-92.7196 329.164,-82.3418"/>
<polygon fill="midnightblue" stroke="midnightblue" points="329.974,-78.9328 319.396,-79.5231 328.033,-85.6584 329.974,-78.9328"/>
</g>
<!-- Node9 -->
<g id="node17" class="node"><title>Node9</title>
<a xlink:href="MojNoCopy_8h.htm" target="_top" xlink:title="core/MojNoCopy.h">
<polygon fill="white" stroke="black" points="89.9278,-0.5 89.9278,-21.5 193.928,-21.5 193.928,-0.5 89.9278,-0.5"/>
<text text-anchor="middle" x="141.928" y="-8.5" font-family="Helvetica,sans-Serif" font-size="10.00">core/MojNoCopy.h</text>
</a>
</g>
<!-- Node8&#45;&gt;Node9 -->
<g id="edge16" class="edge"><title>Node8&#45;&gt;Node9</title>
<path fill="none" stroke="midnightblue" d="M257.394,-58.4966C234.975,-49.2746 202.143,-35.7695 177.215,-25.5153"/>
<polygon fill="midnightblue" stroke="midnightblue" points="178.328,-22.1886 167.748,-21.6212 175.665,-28.6623 178.328,-22.1886"/>
</g>
<!-- Node11 -->
<g id="node21" class="node"><title>Node11</title>
<a xlink:href="MojOsInternal_8h.htm" target="_top" xlink:title="core/internal/MojOsInternal.h">
<polygon fill="white" stroke="black" points="35.9278,-116.5 35.9278,-137.5 189.928,-137.5 189.928,-116.5 35.9278,-116.5"/>
<text text-anchor="middle" x="112.928" y="-124.5" font-family="Helvetica,sans-Serif" font-size="10.00">core/internal/MojOsInternal.h</text>
</a>
</g>
<!-- Node10&#45;&gt;Node11 -->
<g id="edge20" class="edge"><title>Node10&#45;&gt;Node11</title>
<path fill="none" stroke="midnightblue" d="M112.928,-174.362C112.928,-166.922 112.928,-156.743 112.928,-147.728"/>
<polygon fill="midnightblue" stroke="midnightblue" points="116.428,-147.571 112.928,-137.571 109.428,-147.571 116.428,-147.571"/>
</g>
<!-- Node12&#45;&gt;Node2 -->
<g id="edge24" class="edge"><title>Node12&#45;&gt;Node2</title>
<path fill="none" stroke="midnightblue" d="M567.417,-297.412C529.967,-286.246 470.851,-268.619 430.105,-256.47"/>
<polygon fill="midnightblue" stroke="midnightblue" points="431.006,-253.087 420.423,-253.584 429.006,-259.795 431.006,-253.087"/>
</g>
<!-- Node13&#45;&gt;Node2 -->
<g id="edge28" class="edge"><title>Node13&#45;&gt;Node2</title>
<path fill="none" stroke="midnightblue" d="M509.71,-543.242C540.815,-513.498 620.262,-427.996 582.928,-362 564.655,-329.698 469.32,-281.907 417.895,-257.904"/>
<polygon fill="midnightblue" stroke="midnightblue" points="419.077,-254.594 408.532,-253.57 416.136,-260.947 419.077,-254.594"/>
</g>
<!-- Node14 -->
<g id="node29" class="node"><title>Node14</title>
<a xlink:href="MojAutoPtr_8h.htm" target="_top" xlink:title="core/MojAutoPtr.h">
<polygon fill="white" stroke="black" points="172.428,-362.5 172.428,-383.5 273.428,-383.5 273.428,-362.5 172.428,-362.5"/>
<text text-anchor="middle" x="222.928" y="-370.5" font-family="Helvetica,sans-Serif" font-size="10.00">core/MojAutoPtr.h</text>
</a>
</g>
<!-- Node13&#45;&gt;Node14 -->
<g id="edge30" class="edge"><title>Node13&#45;&gt;Node14</title>
<path fill="none" stroke="midnightblue" d="M477.482,-543.474C457.583,-533.03 426.667,-516.275 400.928,-500 342.904,-463.31 278.033,-415.082 244.943,-389.926"/>
<polygon fill="midnightblue" stroke="midnightblue" points="246.935,-387.042 236.861,-383.759 242.688,-392.608 246.935,-387.042"/>
</g>
<!-- Node17 -->
<g id="node38" class="node"><title>Node17</title>
<a xlink:href="MojHasher_8h.htm" target="_top" xlink:title="core/MojHasher.h">
<polygon fill="white" stroke="black" points="409.428,-478.5 409.428,-499.5 510.428,-499.5 510.428,-478.5 409.428,-478.5"/>
<text text-anchor="middle" x="459.928" y="-486.5" font-family="Helvetica,sans-Serif" font-size="10.00">core/MojHasher.h</text>
</a>
</g>
<!-- Node13&#45;&gt;Node17 -->
<g id="edge42" class="edge"><title>Node13&#45;&gt;Node17</title>
<path fill="none" stroke="midnightblue" d="M491.653,-543.267C486.119,-533.801 477.921,-519.777 471.244,-508.357"/>
<polygon fill="midnightblue" stroke="midnightblue" points="474.155,-506.4 466.086,-499.534 468.111,-509.933 474.155,-506.4"/>
</g>
<!-- Node14&#45;&gt;Node2 -->
<g id="edge32" class="edge"><title>Node14&#45;&gt;Node2</title>
<path fill="none" stroke="midnightblue" d="M241.833,-362.346C257.193,-353.376 279.147,-339.828 296.928,-326 323.236,-305.539 350.744,-278.551 367.854,-260.99"/>
<polygon fill="midnightblue" stroke="midnightblue" points="370.518,-263.27 374.942,-253.643 365.481,-258.41 370.518,-263.27"/>
</g>
<!-- Node14&#45;&gt;Node9 -->
<g id="edge38" class="edge"><title>Node14&#45;&gt;Node9</title>
<path fill="none" stroke="midnightblue" d="M171.969,-367.319C119.278,-360.403 41.8315,-346.978 20.9278,-326 -5.78349,-299.193 1.92783,-280.843 1.92783,-243 1.92783,-243 1.92783,-243 1.92783,-127 1.92783,-75.4606 58.8814,-42.4766 100.137,-25.3449"/>
<polygon fill="midnightblue" stroke="midnightblue" points="101.464,-28.5834 109.457,-21.6287 98.872,-22.0812 101.464,-28.5834"/>
</g>
<!-- Node15 -->
<g id="node32" class="node"><title>Node15</title>
<a xlink:href="MojAtomicInt_8h.htm" target="_top" xlink:title="core/MojAtomicInt.h">
<polygon fill="white" stroke="black" points="29.9278,-297.5 29.9278,-318.5 139.928,-318.5 139.928,-297.5 29.9278,-297.5"/>
<text text-anchor="middle" x="84.9278" y="-305.5" font-family="Helvetica,sans-Serif" font-size="10.00">core/MojAtomicInt.h</text>
</a>
</g>
<!-- Node14&#45;&gt;Node15 -->
<g id="edge34" class="edge"><title>Node14&#45;&gt;Node15</title>
<path fill="none" stroke="midnightblue" d="M200.449,-362.412C177.694,-351.694 142.304,-335.025 116.689,-322.96"/>
<polygon fill="midnightblue" stroke="midnightblue" points="117.936,-319.678 107.397,-318.584 114.953,-326.011 117.936,-319.678"/>
</g>
<!-- Node16 -->
<g id="node36" class="node"><title>Node16</title>
<a xlink:href="MojAutoPtrInternal_8h.htm" target="_top" xlink:title="core/internal/MojAutoPtr\lInternal.h">
<polygon fill="white" stroke="black" points="157.428,-291 157.428,-325 288.428,-325 288.428,-291 157.428,-291"/>
<text text-anchor="start" x="165.428" y="-312" font-family="Helvetica,sans-Serif" font-size="10.00">core/internal/MojAutoPtr</text>
<text text-anchor="middle" x="222.928" y="-299" font-family="Helvetica,sans-Serif" font-size="10.00">Internal.h</text>
</a>
</g>
<!-- Node14&#45;&gt;Node16 -->
<g id="edge40" class="edge"><title>Node14&#45;&gt;Node16</title>
<path fill="none" stroke="midnightblue" d="M222.928,-362.267C222.928,-354.931 222.928,-344.857 222.928,-335.38"/>
<polygon fill="midnightblue" stroke="midnightblue" points="226.428,-335.11 222.928,-325.11 219.428,-335.11 226.428,-335.11"/>
</g>
<!-- Node15&#45;&gt;Node2 -->
<g id="edge36" class="edge"><title>Node15&#45;&gt;Node2</title>
<path fill="none" stroke="midnightblue" d="M120.68,-297.416C129.85,-294.847 139.724,-292.207 148.928,-290 206.198,-276.266 271.959,-263.405 319.493,-254.621"/>
<polygon fill="midnightblue" stroke="midnightblue" points="320.147,-258.059 329.349,-252.81 318.881,-251.175 320.147,-258.059"/>
</g>
<!-- Node17&#45;&gt;Node2 -->
<g id="edge44" class="edge"><title>Node17&#45;&gt;Node2</title>
<path fill="none" stroke="midnightblue" d="M444.888,-478.315C433.884,-469.719 419.444,-456.683 410.928,-442 377.658,-384.641 379.485,-302.586 382.613,-264.253"/>
<polygon fill="midnightblue" stroke="midnightblue" points="386.141,-264.119 383.589,-253.836 379.172,-263.466 386.141,-264.119"/>
</g>
<!-- Node18 -->
<g id="node41" class="node"><title>Node18</title>
<a xlink:href="MojUtil_8h.htm" target="_top" xlink:title="core/MojUtil.h">
<polygon fill="white" stroke="black" points="419.428,-420.5 419.428,-441.5 500.428,-441.5 500.428,-420.5 419.428,-420.5"/>
<text text-anchor="middle" x="459.928" y="-428.5" font-family="Helvetica,sans-Serif" font-size="10.00">core/MojUtil.h</text>
</a>
</g>
<!-- Node17&#45;&gt;Node18 -->
<g id="edge46" class="edge"><title>Node17&#45;&gt;Node18</title>
<path fill="none" stroke="midnightblue" d="M459.928,-478.362C459.928,-470.922 459.928,-460.743 459.928,-451.728"/>
<polygon fill="midnightblue" stroke="midnightblue" points="463.428,-451.571 459.928,-441.571 456.428,-451.571 463.428,-451.571"/>
</g>
<!-- Node18&#45;&gt;Node2 -->
<g id="edge48" class="edge"><title>Node18&#45;&gt;Node2</title>
<path fill="none" stroke="midnightblue" d="M444.622,-420.464C433.478,-411.946 418.981,-398.943 410.928,-384 389.974,-345.117 385.576,-292.394 384.851,-263.698"/>
<polygon fill="midnightblue" stroke="midnightblue" points="388.35,-263.585 384.726,-253.629 381.35,-263.672 388.35,-263.585"/>
</g>
<!-- Node19 -->
<g id="node44" class="node"><title>Node19</title>
<a xlink:href="MojUtilInternal_8h.htm" target="_top" xlink:title="core/internal/MojUtilInternal.h">
<polygon fill="white" stroke="black" points="419.428,-362.5 419.428,-383.5 574.428,-383.5 574.428,-362.5 419.428,-362.5"/>
<text text-anchor="middle" x="496.928" y="-370.5" font-family="Helvetica,sans-Serif" font-size="10.00">core/internal/MojUtilInternal.h</text>
</a>
</g>
<!-- Node18&#45;&gt;Node19 -->
<g id="edge50" class="edge"><title>Node18&#45;&gt;Node19</title>
<path fill="none" stroke="midnightblue" d="M466.714,-420.362C471.721,-412.513 478.673,-401.616 484.646,-392.253"/>
<polygon fill="midnightblue" stroke="midnightblue" points="487.757,-393.884 490.184,-383.571 481.856,-390.119 487.757,-393.884"/>
</g>
<!-- Node19&#45;&gt;Node12 -->
<g id="edge52" class="edge"><title>Node19&#45;&gt;Node12</title>
<path fill="none" stroke="midnightblue" d="M514.432,-362.267C531.488,-351.807 557.622,-335.782 577.073,-323.854"/>
<polygon fill="midnightblue" stroke="midnightblue" points="579.055,-326.745 585.75,-318.534 575.395,-320.778 579.055,-326.745"/>
</g>
</g>
</svg>
