<?xml version="1.0" encoding="UTF-8" standalone="no"?>
<!DOCTYPE svg PUBLIC "-//W3C//DTD SVG 1.1//EN"
 "http://www.w3.org/Graphics/SVG/1.1/DTD/svg11.dtd">
<!-- Generated by graphviz version 2.26.3 (20100126.1600)
 -->
<!-- Title: MojHashBase.h Pages: 1 -->
<svg width="602pt" height="566pt"
 viewBox="0.00 0.00 601.93 566.00" xmlns="http://www.w3.org/2000/svg" xmlns:xlink="http://www.w3.org/1999/xlink">
<g id="graph1" class="graph" transform="scale(1 1) rotate(0) translate(4 562)">
<title>MojHashBase.h</title>
<polygon fill="white" stroke="white" points="-4,5 -4,-562 598.928,-562 598.928,5 -4,5"/>
<!-- Node1 -->
<g id="node1" class="node"><title>Node1</title>
<polygon fill="#bfbfbf" stroke="black" points="362.428,-536.5 362.428,-557.5 453.428,-557.5 453.428,-536.5 362.428,-536.5"/>
<text text-anchor="middle" x="407.928" y="-544.5" font-family="Helvetica,sans-Serif" font-size="10.00">MojHashBase.h</text>
</g>
<!-- Node2 -->
<g id="node3" class="node"><title>Node2</title>
<a xlink:href="MojCoreDefs_8h.htm" target="_top" xlink:title="core/MojCoreDefs.h">
<polygon fill="white" stroke="black" points="298.428,-232.5 298.428,-253.5 409.428,-253.5 409.428,-232.5 298.428,-232.5"/>
<text text-anchor="middle" x="353.928" y="-240.5" font-family="Helvetica,sans-Serif" font-size="10.00">core/MojCoreDefs.h</text>
</a>
</g>
<!-- Node1&#45;&gt;Node2 -->
<g id="edge2" class="edge"><title>Node1&#45;&gt;Node2</title>
<path fill="none" stroke="midnightblue" d="M453.429,-539.195C508.494,-526.839 593.928,-497.029 593.928,-431 593.928,-431 593.928,-431 593.928,-373 593.928,-293.509 490.876,-262.375 419.826,-250.356"/>
<polygon fill="midnightblue" stroke="midnightblue" points="420.019,-246.842 409.592,-248.718 418.913,-253.754 420.019,-246.842"/>
</g>
<!-- Node12 -->
<g id="node23" class="node"><title>Node12</title>
<a xlink:href="MojAutoPtr_8h.htm" target="_top" xlink:title="core/MojAutoPtr.h">
<polygon fill="white" stroke="black" points="172.428,-362.5 172.428,-383.5 273.428,-383.5 273.428,-362.5 172.428,-362.5"/>
<text text-anchor="middle" x="222.928" y="-370.5" font-family="Helvetica,sans-Serif" font-size="10.00">core/MojAutoPtr.h</text>
</a>
</g>
<!-- Node1&#45;&gt;Node12 -->
<g id="edge22" class="edge"><title>Node1&#45;&gt;Node12</title>
<path fill="none" stroke="midnightblue" d="M393.481,-536.244C381.295,-526.997 363.553,-513.115 348.928,-500 307.823,-463.14 263.05,-416.235 239.523,-391.007"/>
<polygon fill="midnightblue" stroke="midnightblue" points="242.031,-388.565 232.662,-383.619 236.902,-393.328 242.031,-388.565"/>
</g>
<!-- Node15 -->
<g id="node32" class="node"><title>Node15</title>
<a xlink:href="MojHasher_8h.htm" target="_top" xlink:title="core/MojHasher.h">
<polygon fill="white" stroke="black" points="357.428,-478.5 357.428,-499.5 458.428,-499.5 458.428,-478.5 357.428,-478.5"/>
<text text-anchor="middle" x="407.928" y="-486.5" font-family="Helvetica,sans-Serif" font-size="10.00">core/MojHasher.h</text>
</a>
</g>
<!-- Node1&#45;&gt;Node15 -->
<g id="edge34" class="edge"><title>Node1&#45;&gt;Node15</title>
<path fill="none" stroke="midnightblue" d="M407.928,-536.362C407.928,-528.922 407.928,-518.743 407.928,-509.728"/>
<polygon fill="midnightblue" stroke="midnightblue" points="411.428,-509.571 407.928,-499.571 404.428,-509.571 411.428,-509.571"/>
</g>
<!-- Node3 -->
<g id="node5" class="node"><title>Node3</title>
<a xlink:href="MojConfig_8h.htm" target="_top" xlink:title="core/internal/MojConfig.h">
<polygon fill="white" stroke="black" points="411.428,-174.5 411.428,-195.5 546.428,-195.5 546.428,-174.5 411.428,-174.5"/>
<text text-anchor="middle" x="478.928" y="-182.5" font-family="Helvetica,sans-Serif" font-size="10.00">core/internal/MojConfig.h</text>
</a>
</g>
<!-- Node2&#45;&gt;Node3 -->
<g id="edge4" class="edge"><title>Node2&#45;&gt;Node3</title>
<path fill="none" stroke="midnightblue" d="M376.564,-232.497C396.176,-223.397 424.774,-210.127 446.761,-199.925"/>
<polygon fill="midnightblue" stroke="midnightblue" points="448.439,-203.005 456.037,-195.621 445.493,-196.655 448.439,-203.005"/>
</g>
<!-- Node4 -->
<g id="node7" class="node"><title>Node4</title>
<a xlink:href="MojNew_8h.htm" target="_top" xlink:title="core/internal/MojNew.h">
<polygon fill="white" stroke="black" points="73.4278,-174.5 73.4278,-195.5 198.428,-195.5 198.428,-174.5 73.4278,-174.5"/>
<text text-anchor="middle" x="135.928" y="-182.5" font-family="Helvetica,sans-Serif" font-size="10.00">core/internal/MojNew.h</text>
</a>
</g>
<!-- Node2&#45;&gt;Node4 -->
<g id="edge6" class="edge"><title>Node2&#45;&gt;Node4</title>
<path fill="none" stroke="midnightblue" d="M314.45,-232.497C278.294,-222.877 224.624,-208.598 185.575,-198.209"/>
<polygon fill="midnightblue" stroke="midnightblue" points="186.044,-194.712 175.48,-195.523 184.244,-201.477 186.044,-194.712"/>
</g>
<!-- Node6 -->
<g id="node11" class="node"><title>Node6</title>
<a xlink:href="MojErr_8h.htm" target="_top" xlink:title="core/MojErr.h">
<polygon fill="white" stroke="black" points="215.928,-174.5 215.928,-195.5 295.928,-195.5 295.928,-174.5 215.928,-174.5"/>
<text text-anchor="middle" x="255.928" y="-182.5" font-family="Helvetica,sans-Serif" font-size="10.00">core/MojErr.h</text>
</a>
</g>
<!-- Node2&#45;&gt;Node6 -->
<g id="edge10" class="edge"><title>Node2&#45;&gt;Node6</title>
<path fill="none" stroke="midnightblue" d="M335.953,-232.362C321.034,-223.532 299.595,-210.844 282.662,-200.822"/>
<polygon fill="midnightblue" stroke="midnightblue" points="284.177,-197.652 273.789,-195.571 280.612,-203.676 284.177,-197.652"/>
</g>
<!-- Node10 -->
<g id="node19" class="node"><title>Node10</title>
<a xlink:href="MojOs_8h.htm" target="_top" xlink:title="core/MojOs.h">
<polygon fill="white" stroke="black" points="313.928,-174.5 313.928,-195.5 393.928,-195.5 393.928,-174.5 313.928,-174.5"/>
<text text-anchor="middle" x="353.928" y="-182.5" font-family="Helvetica,sans-Serif" font-size="10.00">core/MojOs.h</text>
</a>
</g>
<!-- Node2&#45;&gt;Node10 -->
<g id="edge18" class="edge"><title>Node2&#45;&gt;Node10</title>
<path fill="none" stroke="midnightblue" d="M353.928,-232.362C353.928,-224.922 353.928,-214.743 353.928,-205.728"/>
<polygon fill="midnightblue" stroke="midnightblue" points="357.428,-205.571 353.928,-195.571 350.428,-205.571 357.428,-205.571"/>
</g>
<!-- Node5 -->
<g id="node9" class="node"><title>Node5</title>
<polygon fill="white" stroke="#bfbfbf" points="117.928,-116.5 117.928,-137.5 153.928,-137.5 153.928,-116.5 117.928,-116.5"/>
<text text-anchor="middle" x="135.928" y="-124.5" font-family="Helvetica,sans-Serif" font-size="10.00">new</text>
</g>
<!-- Node4&#45;&gt;Node5 -->
<g id="edge8" class="edge"><title>Node4&#45;&gt;Node5</title>
<path fill="none" stroke="midnightblue" d="M135.928,-174.362C135.928,-166.922 135.928,-156.743 135.928,-147.728"/>
<polygon fill="midnightblue" stroke="midnightblue" points="139.428,-147.571 135.928,-137.571 132.428,-147.571 139.428,-147.571"/>
</g>
<!-- Node7 -->
<g id="node13" class="node"><title>Node7</title>
<a xlink:href="MojLog_8h.htm" target="_top" xlink:title="core/MojLog.h">
<polygon fill="white" stroke="black" points="173.928,-116.5 173.928,-137.5 257.928,-137.5 257.928,-116.5 173.928,-116.5"/>
<text text-anchor="middle" x="215.928" y="-124.5" font-family="Helvetica,sans-Serif" font-size="10.00">core/MojLog.h</text>
</a>
</g>
<!-- Node6&#45;&gt;Node7 -->
<g id="edge12" class="edge"><title>Node6&#45;&gt;Node7</title>
<path fill="none" stroke="midnightblue" d="M248.591,-174.362C243.122,-166.431 235.506,-155.389 229.004,-145.961"/>
<polygon fill="midnightblue" stroke="midnightblue" points="231.777,-143.816 223.218,-137.571 226.014,-147.79 231.777,-143.816"/>
</g>
<!-- Node8 -->
<g id="node15" class="node"><title>Node8</title>
<a xlink:href="MojListEntry_8h.htm" target="_top" xlink:title="core/MojListEntry.h">
<polygon fill="white" stroke="black" points="95.4278,-58.5 95.4278,-79.5 202.428,-79.5 202.428,-58.5 95.4278,-58.5"/>
<text text-anchor="middle" x="148.928" y="-66.5" font-family="Helvetica,sans-Serif" font-size="10.00">core/MojListEntry.h</text>
</a>
</g>
<!-- Node7&#45;&gt;Node8 -->
<g id="edge14" class="edge"><title>Node7&#45;&gt;Node8</title>
<path fill="none" stroke="midnightblue" d="M203.639,-116.362C193.911,-107.941 180.13,-96.0105 168.832,-86.2308"/>
<polygon fill="midnightblue" stroke="midnightblue" points="170.99,-83.4695 161.139,-79.5707 166.409,-88.7619 170.99,-83.4695"/>
</g>
<!-- Node9 -->
<g id="node17" class="node"><title>Node9</title>
<a xlink:href="MojNoCopy_8h.htm" target="_top" xlink:title="core/MojNoCopy.h">
<polygon fill="white" stroke="black" points="22.9278,-0.5 22.9278,-21.5 126.928,-21.5 126.928,-0.5 22.9278,-0.5"/>
<text text-anchor="middle" x="74.9278" y="-8.5" font-family="Helvetica,sans-Serif" font-size="10.00">core/MojNoCopy.h</text>
</a>
</g>
<!-- Node8&#45;&gt;Node9 -->
<g id="edge16" class="edge"><title>Node8&#45;&gt;Node9</title>
<path fill="none" stroke="midnightblue" d="M135.355,-58.3619C124.507,-49.859 109.094,-37.7785 96.5493,-27.9466"/>
<polygon fill="midnightblue" stroke="midnightblue" points="98.4442,-24.9848 88.4145,-21.5707 94.126,-30.4942 98.4442,-24.9848"/>
</g>
<!-- Node11 -->
<g id="node21" class="node"><title>Node11</title>
<a xlink:href="MojOsInternal_8h.htm" target="_top" xlink:title="core/internal/MojOsInternal.h">
<polygon fill="white" stroke="black" points="276.928,-116.5 276.928,-137.5 430.928,-137.5 430.928,-116.5 276.928,-116.5"/>
<text text-anchor="middle" x="353.928" y="-124.5" font-family="Helvetica,sans-Serif" font-size="10.00">core/internal/MojOsInternal.h</text>
</a>
</g>
<!-- Node10&#45;&gt;Node11 -->
<g id="edge20" class="edge"><title>Node10&#45;&gt;Node11</title>
<path fill="none" stroke="midnightblue" d="M353.928,-174.362C353.928,-166.922 353.928,-156.743 353.928,-147.728"/>
<polygon fill="midnightblue" stroke="midnightblue" points="357.428,-147.571 353.928,-137.571 350.428,-147.571 357.428,-147.571"/>
</g>
<!-- Node12&#45;&gt;Node2 -->
<g id="edge24" class="edge"><title>Node12&#45;&gt;Node2</title>
<path fill="none" stroke="midnightblue" d="M244.298,-362.444C260.01,-354.005 281.265,-341.11 296.928,-326 316.459,-307.158 333.264,-280.644 343.467,-262.693"/>
<polygon fill="midnightblue" stroke="midnightblue" points="346.66,-264.15 348.431,-253.704 340.533,-260.766 346.66,-264.15"/>
</g>
<!-- Node12&#45;&gt;Node9 -->
<g id="edge30" class="edge"><title>Node12&#45;&gt;Node9</title>
<path fill="none" stroke="midnightblue" d="M171.969,-367.319C119.278,-360.403 41.8315,-346.978 20.9278,-326 -5.78349,-299.193 1.92783,-280.843 1.92783,-243 1.92783,-243 1.92783,-243 1.92783,-127 1.92783,-87.1585 33.1561,-49.8108 54.7628,-28.7384"/>
<polygon fill="midnightblue" stroke="midnightblue" points="57.3226,-31.1358 62.2122,-21.7367 52.5285,-26.0351 57.3226,-31.1358"/>
</g>
<!-- Node13 -->
<g id="node26" class="node"><title>Node13</title>
<a xlink:href="MojAtomicInt_8h.htm" target="_top" xlink:title="core/MojAtomicInt.h">
<polygon fill="white" stroke="black" points="29.9278,-297.5 29.9278,-318.5 139.928,-318.5 139.928,-297.5 29.9278,-297.5"/>
<text text-anchor="middle" x="84.9278" y="-305.5" font-family="Helvetica,sans-Serif" font-size="10.00">core/MojAtomicInt.h</text>
</a>
</g>
<!-- Node12&#45;&gt;Node13 -->
<g id="edge26" class="edge"><title>Node12&#45;&gt;Node13</title>
<path fill="none" stroke="midnightblue" d="M200.449,-362.412C177.694,-351.694 142.304,-335.025 116.689,-322.96"/>
<polygon fill="midnightblue" stroke="midnightblue" points="117.936,-319.678 107.397,-318.584 114.953,-326.011 117.936,-319.678"/>
</g>
<!-- Node14 -->
<g id="node30" class="node"><title>Node14</title>
<a xlink:href="MojAutoPtrInternal_8h.htm" target="_top" xlink:title="core/internal/MojAutoPtr\lInternal.h">
<polygon fill="white" stroke="black" points="157.428,-291 157.428,-325 288.428,-325 288.428,-291 157.428,-291"/>
<text text-anchor="start" x="165.428" y="-312" font-family="Helvetica,sans-Serif" font-size="10.00">core/internal/MojAutoPtr</text>
<text text-anchor="middle" x="222.928" y="-299" font-family="Helvetica,sans-Serif" font-size="10.00">Internal.h</text>
</a>
</g>
<!-- Node12&#45;&gt;Node14 -->
<g id="edge32" class="edge"><title>Node12&#45;&gt;Node14</title>
<path fill="none" stroke="midnightblue" d="M222.928,-362.267C222.928,-354.931 222.928,-344.857 222.928,-335.38"/>
<polygon fill="midnightblue" stroke="midnightblue" points="226.428,-335.11 222.928,-325.11 219.428,-335.11 226.428,-335.11"/>
</g>
<!-- Node13&#45;&gt;Node2 -->
<g id="edge28" class="edge"><title>Node13&#45;&gt;Node2</title>
<path fill="none" stroke="midnightblue" d="M121.397,-297.411C130.375,-294.896 139.981,-292.282 148.928,-290 197.956,-277.493 253.973,-264.755 295.047,-255.7"/>
<polygon fill="midnightblue" stroke="midnightblue" points="295.874,-259.102 304.89,-253.538 294.372,-252.265 295.874,-259.102"/>
</g>
<!-- Node15&#45;&gt;Node2 -->
<g id="edge36" class="edge"><title>Node15&#45;&gt;Node2</title>
<path fill="none" stroke="midnightblue" d="M402.25,-478.337C392.666,-459.768 373.489,-420.03 364.928,-384 355.001,-342.218 353.504,-291.712 353.551,-263.906"/>
<polygon fill="midnightblue" stroke="midnightblue" points="357.052,-263.818 353.641,-253.788 350.052,-263.756 357.052,-263.818"/>
</g>
<!-- Node16 -->
<g id="node35" class="node"><title>Node16</title>
<a xlink:href="MojUtil_8h.htm" target="_top" xlink:title="core/MojUtil.h">
<polygon fill="white" stroke="black" points="410.428,-420.5 410.428,-441.5 491.428,-441.5 491.428,-420.5 410.428,-420.5"/>
<text text-anchor="middle" x="450.928" y="-428.5" font-family="Helvetica,sans-Serif" font-size="10.00">core/MojUtil.h</text>
</a>
</g>
<!-- Node15&#45;&gt;Node16 -->
<g id="edge38" class="edge"><title>Node15&#45;&gt;Node16</title>
<path fill="none" stroke="midnightblue" d="M415.815,-478.362C421.755,-470.35 430.05,-459.161 437.087,-449.67"/>
<polygon fill="midnightblue" stroke="midnightblue" points="439.947,-451.688 443.091,-441.571 434.324,-447.519 439.947,-451.688"/>
</g>
<!-- Node16&#45;&gt;Node2 -->
<g id="edge40" class="edge"><title>Node16&#45;&gt;Node2</title>
<path fill="none" stroke="midnightblue" d="M488.69,-420.347C506.639,-413.176 526.426,-401.708 536.928,-384 541.916,-375.59 539.227,-371.504 536.928,-362 528.468,-327.031 527.358,-313.281 499.928,-290 477.326,-270.817 446.772,-259.43 419.455,-252.686"/>
<polygon fill="midnightblue" stroke="midnightblue" points="420.089,-249.241 409.558,-250.406 418.517,-256.062 420.089,-249.241"/>
</g>
<!-- Node17 -->
<g id="node38" class="node"><title>Node17</title>
<a xlink:href="MojUtilInternal_8h.htm" target="_top" xlink:title="core/internal/MojUtilInternal.h">
<polygon fill="white" stroke="black" points="373.428,-362.5 373.428,-383.5 528.428,-383.5 528.428,-362.5 373.428,-362.5"/>
<text text-anchor="middle" x="450.928" y="-370.5" font-family="Helvetica,sans-Serif" font-size="10.00">core/internal/MojUtilInternal.h</text>
</a>
</g>
<!-- Node16&#45;&gt;Node17 -->
<g id="edge42" class="edge"><title>Node16&#45;&gt;Node17</title>
<path fill="none" stroke="midnightblue" d="M450.928,-420.362C450.928,-412.922 450.928,-402.743 450.928,-393.728"/>
<polygon fill="midnightblue" stroke="midnightblue" points="454.428,-393.571 450.928,-383.571 447.428,-393.571 454.428,-393.571"/>
</g>
<!-- Node18 -->
<g id="node40" class="node"><title>Node18</title>
<a xlink:href="MojComp_8h.htm" target="_top" xlink:title="core/MojComp.h">
<polygon fill="white" stroke="black" points="396.928,-297.5 396.928,-318.5 490.928,-318.5 490.928,-297.5 396.928,-297.5"/>
<text text-anchor="middle" x="443.928" y="-305.5" font-family="Helvetica,sans-Serif" font-size="10.00">core/MojComp.h</text>
</a>
</g>
<!-- Node17&#45;&gt;Node18 -->
<g id="edge44" class="edge"><title>Node17&#45;&gt;Node18</title>
<path fill="none" stroke="midnightblue" d="M449.772,-362.267C448.793,-353.18 447.362,-339.892 446.161,-328.74"/>
<polygon fill="midnightblue" stroke="midnightblue" points="449.613,-328.101 445.062,-318.534 442.653,-328.851 449.613,-328.101"/>
</g>
<!-- Node18&#45;&gt;Node2 -->
<g id="edge46" class="edge"><title>Node18&#45;&gt;Node2</title>
<path fill="none" stroke="midnightblue" d="M429.066,-297.267C414.912,-287.044 393.395,-271.504 377.009,-259.67"/>
<polygon fill="midnightblue" stroke="midnightblue" points="378.669,-256.551 368.513,-253.534 374.571,-262.226 378.669,-256.551"/>
</g>
</g>
</svg>
