<?xml version="1.0" encoding="UTF-8" standalone="no"?>
<!DOCTYPE svg PUBLIC "-//W3C//DTD SVG 1.1//EN"
 "http://www.w3.org/Graphics/SVG/1.1/DTD/svg11.dtd">
<!-- Generated by graphviz version 2.26.3 (20100126.1600)
 -->
<!-- Title: MojJson.h Pages: 1 -->
<svg width="1502pt" height="146pt"
 viewBox="0.00 0.00 1502.00 146.00" xmlns="http://www.w3.org/2000/svg" xmlns:xlink="http://www.w3.org/1999/xlink">
<g id="graph1" class="graph" transform="scale(1 1) rotate(0) translate(4 142)">
<title>MojJson.h</title>
<polygon fill="white" stroke="white" points="-4,5 -4,-142 1499,-142 1499,5 -4,5"/>
<!-- Node1 -->
<g id="node1" class="node"><title>Node1</title>
<polygon fill="#bfbfbf" stroke="black" points="621.5,-116.5 621.5,-137.5 686.5,-137.5 686.5,-116.5 621.5,-116.5"/>
<text text-anchor="middle" x="654" y="-124.5" font-family="Helvetica,sans-Serif" font-size="10.00">MojJson.h</text>
</g>
<!-- Node2 -->
<g id="node3" class="node"><title>Node2</title>
<a xlink:href="MojLunaMessage_8h.htm" target="_top" xlink:title="MojLunaMessage.h">
<polygon fill="white" stroke="black" points="87.5,-58.5 87.5,-79.5 196.5,-79.5 196.5,-58.5 87.5,-58.5"/>
<text text-anchor="middle" x="142" y="-66.5" font-family="Helvetica,sans-Serif" font-size="10.00">MojLunaMessage.h</text>
</a>
</g>
<!-- Node1&#45;&gt;Node2 -->
<g id="edge2" class="edge"><title>Node1&#45;&gt;Node2</title>
<path fill="none" stroke="midnightblue" d="M611.047,-123.491C530.982,-116.732 353.581,-100.723 205,-80 202.251,-79.6166 199.438,-79.2031 196.6,-78.7692"/>
<polygon fill="midnightblue" stroke="midnightblue" points="610.973,-126.997 621.231,-124.345 611.558,-120.022 610.973,-126.997"/>
</g>
<!-- Node3 -->
<g id="node5" class="node"><title>Node3</title>
<a xlink:href="MojLunaMessage_8cpp.htm" target="_top" xlink:title="MojLunaMessage.cpp">
<polygon fill="white" stroke="black" points="0,-0.5 0,-21.5 120,-21.5 120,-0.5 0,-0.5"/>
<text text-anchor="middle" x="60" y="-8.5" font-family="Helvetica,sans-Serif" font-size="10.00">MojLunaMessage.cpp</text>
</a>
</g>
<!-- Node1&#45;&gt;Node3 -->
<g id="edge32" class="edge"><title>Node1&#45;&gt;Node3</title>
<path fill="none" stroke="midnightblue" d="M611.273,-126.289C484.992,-123.808 119.746,-113.755 79,-80 61.6814,-65.6531 59.3544,-37.101 59.4774,-21.6026"/>
<polygon fill="midnightblue" stroke="midnightblue" points="611.28,-129.79 621.345,-126.481 611.413,-122.791 611.28,-129.79"/>
</g>
<!-- Node5 -->
<g id="node9" class="node"><title>Node5</title>
<a xlink:href="MojLunaRequest_8h.htm" target="_top" xlink:title="MojLunaRequest.h">
<polygon fill="white" stroke="black" points="214,-58.5 214,-79.5 318,-79.5 318,-58.5 214,-58.5"/>
<text text-anchor="middle" x="266" y="-66.5" font-family="Helvetica,sans-Serif" font-size="10.00">MojLunaRequest.h</text>
</a>
</g>
<!-- Node1&#45;&gt;Node5 -->
<g id="edge8" class="edge"><title>Node1&#45;&gt;Node5</title>
<path fill="none" stroke="midnightblue" d="M611.19,-121.342C548.651,-112.965 428.688,-96.4711 327,-80 324.132,-79.5354 321.19,-79.0465 318.222,-78.5435"/>
<polygon fill="midnightblue" stroke="midnightblue" points="611.077,-124.858 621.452,-122.713 612.004,-117.92 611.077,-124.858"/>
</g>
<!-- Node7 -->
<g id="node14" class="node"><title>Node7</title>
<a xlink:href="MojJson_8cpp.htm" target="_top" xlink:title="MojJson.cpp">
<polygon fill="white" stroke="black" points="336,-58.5 336,-79.5 412,-79.5 412,-58.5 336,-58.5"/>
<text text-anchor="middle" x="374" y="-66.5" font-family="Helvetica,sans-Serif" font-size="10.00">MojJson.cpp</text>
</a>
</g>
<!-- Node1&#45;&gt;Node7 -->
<g id="edge14" class="edge"><title>Node1&#45;&gt;Node7</title>
<path fill="none" stroke="midnightblue" d="M611.05,-118.748C564.236,-109.658 487.162,-94.4118 421,-80 418.134,-79.3757 415.173,-78.7166 412.197,-78.0437"/>
<polygon fill="midnightblue" stroke="midnightblue" points="610.652,-122.236 621.135,-120.702 611.983,-115.364 610.652,-122.236"/>
</g>
<!-- Node8 -->
<g id="node16" class="node"><title>Node8</title>
<a xlink:href="MojObject_8cpp.htm" target="_top" xlink:title="MojObject.cpp">
<polygon fill="white" stroke="black" points="429.5,-58.5 429.5,-79.5 512.5,-79.5 512.5,-58.5 429.5,-58.5"/>
<text text-anchor="middle" x="471" y="-66.5" font-family="Helvetica,sans-Serif" font-size="10.00">MojObject.cpp</text>
</a>
</g>
<!-- Node1&#45;&gt;Node8 -->
<g id="edge16" class="edge"><title>Node1&#45;&gt;Node8</title>
<path fill="none" stroke="midnightblue" d="M611.564,-113.55C578.931,-103.208 534.474,-89.1175 504.361,-79.5733"/>
<polygon fill="midnightblue" stroke="midnightblue" points="610.693,-116.946 621.283,-116.631 612.808,-110.273 610.693,-116.946"/>
</g>
<!-- Node9 -->
<g id="node18" class="node"><title>Node9</title>
<a xlink:href="MojServiceMessage_8cpp.htm" target="_top" xlink:title="MojServiceMessage.cpp">
<polygon fill="white" stroke="black" points="530,-58.5 530,-79.5 662,-79.5 662,-58.5 530,-58.5"/>
<text text-anchor="middle" x="596" y="-66.5" font-family="Helvetica,sans-Serif" font-size="10.00">MojServiceMessage.cpp</text>
</a>
</g>
<!-- Node1&#45;&gt;Node9 -->
<g id="edge18" class="edge"><title>Node1&#45;&gt;Node9</title>
<path fill="none" stroke="midnightblue" d="M636.118,-109.118C626.438,-99.4377 614.81,-87.8098 606.571,-79.5707"/>
<polygon fill="midnightblue" stroke="midnightblue" points="633.816,-111.766 643.362,-116.362 638.766,-106.816 633.816,-111.766"/>
</g>
<!-- Node10 -->
<g id="node20" class="node"><title>Node10</title>
<a xlink:href="MojDb_8cpp.htm" target="_top" xlink:title="MojDb.cpp">
<polygon fill="white" stroke="black" points="680,-58.5 680,-79.5 746,-79.5 746,-58.5 680,-58.5"/>
<text text-anchor="middle" x="713" y="-66.5" font-family="Helvetica,sans-Serif" font-size="10.00">MojDb.cpp</text>
</a>
</g>
<!-- Node1&#45;&gt;Node10 -->
<g id="edge20" class="edge"><title>Node1&#45;&gt;Node10</title>
<path fill="none" stroke="midnightblue" d="M672.19,-109.118C682.037,-99.4377 693.866,-87.8098 702.247,-79.5707"/>
<polygon fill="midnightblue" stroke="midnightblue" points="669.499,-106.856 664.822,-116.362 674.406,-111.847 669.499,-106.856"/>
</g>
<!-- Node11 -->
<g id="node22" class="node"><title>Node11</title>
<a xlink:href="MojDbAdmin_8cpp.htm" target="_top" xlink:title="MojDbAdmin.cpp">
<polygon fill="white" stroke="black" points="763.5,-58.5 763.5,-79.5 858.5,-79.5 858.5,-58.5 763.5,-58.5"/>
<text text-anchor="middle" x="811" y="-66.5" font-family="Helvetica,sans-Serif" font-size="10.00">MojDbAdmin.cpp</text>
</a>
</g>
<!-- Node1&#45;&gt;Node11 -->
<g id="edge22" class="edge"><title>Node1&#45;&gt;Node11</title>
<path fill="none" stroke="midnightblue" d="M691.871,-113.009C719.771,-102.702 757.125,-88.903 782.515,-79.5231"/>
<polygon fill="midnightblue" stroke="midnightblue" points="690.599,-109.748 682.432,-116.497 693.025,-116.314 690.599,-109.748"/>
</g>
<!-- Node12 -->
<g id="node24" class="node"><title>Node12</title>
<a xlink:href="MojDbServiceClient_8cpp.htm" target="_top" xlink:title="MojDbServiceClient.cpp">
<polygon fill="white" stroke="black" points="876,-58.5 876,-79.5 1004,-79.5 1004,-58.5 876,-58.5"/>
<text text-anchor="middle" x="940" y="-66.5" font-family="Helvetica,sans-Serif" font-size="10.00">MojDbServiceClient.cpp</text>
</a>
</g>
<!-- Node1&#45;&gt;Node12 -->
<g id="edge24" class="edge"><title>Node1&#45;&gt;Node12</title>
<path fill="none" stroke="midnightblue" d="M696.576,-118.366C747.666,-108.005 833.291,-90.6402 888.176,-79.5097"/>
<polygon fill="midnightblue" stroke="midnightblue" points="695.634,-114.985 686.529,-120.403 697.026,-121.846 695.634,-114.985"/>
</g>
<!-- Node13 -->
<g id="node26" class="node"><title>Node13</title>
<a xlink:href="MojDbServiceHandler_8cpp.htm" target="_top" xlink:title="MojDbServiceHandler.cpp">
<polygon fill="white" stroke="black" points="1021.5,-58.5 1021.5,-79.5 1160.5,-79.5 1160.5,-58.5 1021.5,-58.5"/>
<text text-anchor="middle" x="1091" y="-66.5" font-family="Helvetica,sans-Serif" font-size="10.00">MojDbServiceHandler.cpp</text>
</a>
</g>
<!-- Node1&#45;&gt;Node13 -->
<g id="edge26" class="edge"><title>Node1&#45;&gt;Node13</title>
<path fill="none" stroke="midnightblue" d="M696.902,-121.523C764.252,-112.894 898.894,-95.5149 1013,-80 1015.71,-79.6315 1018.47,-79.2534 1021.26,-78.8696"/>
<polygon fill="midnightblue" stroke="midnightblue" points="696.158,-118.09 686.684,-122.831 697.047,-125.033 696.158,-118.09"/>
</g>
<!-- Node14 -->
<g id="node28" class="node"><title>Node14</title>
<a xlink:href="MojDbServiceHandlerBase_8cpp.htm" target="_top" xlink:title="MojDbServiceHandlerBase.cpp">
<polygon fill="white" stroke="black" points="1177.5,-58.5 1177.5,-79.5 1340.5,-79.5 1340.5,-58.5 1177.5,-58.5"/>
<text text-anchor="middle" x="1259" y="-66.5" font-family="Helvetica,sans-Serif" font-size="10.00">MojDbServiceHandlerBase.cpp</text>
</a>
</g>
<!-- Node1&#45;&gt;Node14 -->
<g id="edge28" class="edge"><title>Node1&#45;&gt;Node14</title>
<path fill="none" stroke="midnightblue" d="M696.731,-123.546C785.029,-116.309 993.994,-98.6761 1169,-80 1171.66,-79.716 1174.37,-79.4213 1177.1,-79.1184"/>
<polygon fill="midnightblue" stroke="midnightblue" points="696.253,-120.073 686.571,-124.376 696.823,-127.05 696.253,-120.073"/>
</g>
<!-- Node15 -->
<g id="node30" class="node"><title>Node15</title>
<a xlink:href="MojDbStorageEngine_8cpp.htm" target="_top" xlink:title="MojDbStorageEngine.cpp">
<polygon fill="white" stroke="black" points="1357.5,-58.5 1357.5,-79.5 1494.5,-79.5 1494.5,-58.5 1357.5,-58.5"/>
<text text-anchor="middle" x="1426" y="-66.5" font-family="Helvetica,sans-Serif" font-size="10.00">MojDbStorageEngine.cpp</text>
</a>
</g>
<!-- Node1&#45;&gt;Node15 -->
<g id="edge30" class="edge"><title>Node1&#45;&gt;Node15</title>
<path fill="none" stroke="midnightblue" d="M696.907,-125.21C806.009,-120.418 1102.82,-105.872 1349,-80 1351.69,-79.7177 1354.42,-79.4124 1357.18,-79.0894"/>
<polygon fill="midnightblue" stroke="midnightblue" points="696.479,-121.725 686.641,-125.657 696.784,-128.719 696.479,-121.725"/>
</g>
<!-- Node2&#45;&gt;Node3 -->
<g id="edge4" class="edge"><title>Node2&#45;&gt;Node3</title>
<path fill="none" stroke="midnightblue" d="M118.73,-52.5407C104.672,-42.5973 87.1698,-30.2177 74.9447,-21.5707"/>
<polygon fill="midnightblue" stroke="midnightblue" points="116.775,-55.4447 126.96,-58.3619 120.817,-49.7298 116.775,-55.4447"/>
</g>
<!-- Node4 -->
<g id="node7" class="node"><title>Node4</title>
<a xlink:href="MojLunaService_8cpp.htm" target="_top" xlink:title="MojLunaService.cpp">
<polygon fill="white" stroke="black" points="138,-0.5 138,-21.5 250,-21.5 250,-0.5 138,-0.5"/>
<text text-anchor="middle" x="194" y="-8.5" font-family="Helvetica,sans-Serif" font-size="10.00">MojLunaService.cpp</text>
</a>
</g>
<!-- Node2&#45;&gt;Node4 -->
<g id="edge6" class="edge"><title>Node2&#45;&gt;Node4</title>
<path fill="none" stroke="midnightblue" d="M158.29,-50.8299C166.917,-41.2078 177.209,-29.7282 184.523,-21.5707"/>
<polygon fill="midnightblue" stroke="midnightblue" points="155.607,-48.5798 151.538,-58.3619 160.819,-53.2526 155.607,-48.5798"/>
</g>
<!-- Node5&#45;&gt;Node4 -->
<g id="edge12" class="edge"><title>Node5&#45;&gt;Node4</title>
<path fill="none" stroke="midnightblue" d="M244.866,-51.9753C232.646,-42.1315 217.654,-30.0545 207.122,-21.5707"/>
<polygon fill="midnightblue" stroke="midnightblue" points="242.811,-54.8142 252.794,-58.3619 247.202,-49.3629 242.811,-54.8142"/>
</g>
<!-- Node6 -->
<g id="node11" class="node"><title>Node6</title>
<a xlink:href="MojLunaRequest_8cpp.htm" target="_top" xlink:title="MojLunaRequest.cpp">
<polygon fill="white" stroke="black" points="268,-0.5 268,-21.5 384,-21.5 384,-0.5 268,-0.5"/>
<text text-anchor="middle" x="326" y="-8.5" font-family="Helvetica,sans-Serif" font-size="10.00">MojLunaRequest.cpp</text>
</a>
</g>
<!-- Node5&#45;&gt;Node6 -->
<g id="edge10" class="edge"><title>Node5&#45;&gt;Node6</title>
<path fill="none" stroke="midnightblue" d="M284.202,-51.405C294.274,-41.6683 306.457,-29.8914 315.065,-21.5707"/>
<polygon fill="midnightblue" stroke="midnightblue" points="281.762,-48.8952 277.005,-58.3619 286.627,-53.9281 281.762,-48.8952"/>
</g>
</g>
</svg>
