<?xml version="1.0" encoding="UTF-8" standalone="no"?>
<!DOCTYPE svg PUBLIC "-//W3C//DTD SVG 1.1//EN"
 "http://www.w3.org/Graphics/SVG/1.1/DTD/svg11.dtd">
<!-- Generated by graphviz version 2.26.3 (20100126.1600)
 -->
<!-- Title: MojJson.cpp Pages: 1 -->
<svg width="969pt" height="812pt"
 viewBox="0.00 0.00 968.97 812.00" xmlns="http://www.w3.org/2000/svg" xmlns:xlink="http://www.w3.org/1999/xlink">
<g id="graph1" class="graph" transform="scale(1 1) rotate(0) translate(4 808)">
<title>MojJson.cpp</title>
<polygon fill="white" stroke="white" points="-4,5 -4,-808 965.975,-808 965.975,5 -4,5"/>
<!-- Node1 -->
<g id="node1" class="node"><title>Node1</title>
<polygon fill="#bfbfbf" stroke="black" points="843.975,-782.5 843.975,-803.5 919.975,-803.5 919.975,-782.5 843.975,-782.5"/>
<text text-anchor="middle" x="881.975" y="-790.5" font-family="Helvetica,sans-Serif" font-size="10.00">MojJson.cpp</text>
</g>
<!-- Node2 -->
<g id="node3" class="node"><title>Node2</title>
<a xlink:href="MojJson_8h.htm" target="_top" xlink:title="core/MojJson.h">
<polygon fill="white" stroke="black" points="837.475,-724.5 837.475,-745.5 926.475,-745.5 926.475,-724.5 837.475,-724.5"/>
<text text-anchor="middle" x="881.975" y="-732.5" font-family="Helvetica,sans-Serif" font-size="10.00">core/MojJson.h</text>
</a>
</g>
<!-- Node1&#45;&gt;Node2 -->
<g id="edge2" class="edge"><title>Node1&#45;&gt;Node2</title>
<path fill="none" stroke="midnightblue" d="M881.975,-782.362C881.975,-774.922 881.975,-764.743 881.975,-755.728"/>
<polygon fill="midnightblue" stroke="midnightblue" points="885.475,-755.571 881.975,-745.571 878.475,-755.571 885.475,-755.571"/>
</g>
<!-- Node3 -->
<g id="node5" class="node"><title>Node3</title>
<a xlink:href="MojCoreDefs_8h.htm" target="_top" xlink:title="core/MojCoreDefs.h">
<polygon fill="white" stroke="black" points="615.475,-232.5 615.475,-253.5 726.475,-253.5 726.475,-232.5 615.475,-232.5"/>
<text text-anchor="middle" x="670.975" y="-240.5" font-family="Helvetica,sans-Serif" font-size="10.00">core/MojCoreDefs.h</text>
</a>
</g>
<!-- Node2&#45;&gt;Node3 -->
<g id="edge4" class="edge"><title>Node2&#45;&gt;Node3</title>
<path fill="none" stroke="midnightblue" d="M895.736,-724.49C918.37,-705.895 960.975,-664.807 960.975,-619 960.975,-619 960.975,-619 960.975,-373 960.975,-330.825 949.116,-314.762 914.975,-290 887.105,-269.786 799.135,-256.508 736.843,-249.374"/>
<polygon fill="midnightblue" stroke="midnightblue" points="737.02,-245.872 726.693,-248.24 736.243,-252.829 737.02,-245.872"/>
</g>
<!-- Node13 -->
<g id="node25" class="node"><title>Node13</title>
<a xlink:href="MojObject_8h.htm" target="_top" xlink:title="core/MojObject.h">
<polygon fill="white" stroke="black" points="690.975,-666.5 690.975,-687.5 786.975,-687.5 786.975,-666.5 690.975,-666.5"/>
<text text-anchor="middle" x="738.975" y="-674.5" font-family="Helvetica,sans-Serif" font-size="10.00">core/MojObject.h</text>
</a>
</g>
<!-- Node2&#45;&gt;Node13 -->
<g id="edge24" class="edge"><title>Node2&#45;&gt;Node13</title>
<path fill="none" stroke="midnightblue" d="M856.079,-724.497C833.342,-715.275 800.045,-701.769 774.763,-691.515"/>
<polygon fill="midnightblue" stroke="midnightblue" points="775.744,-688.136 765.162,-687.621 773.113,-694.623 775.744,-688.136"/>
</g>
<!-- Node4 -->
<g id="node7" class="node"><title>Node4</title>
<a xlink:href="MojConfig_8h.htm" target="_top" xlink:title="core/internal/MojConfig.h">
<polygon fill="white" stroke="black" points="603.475,-174.5 603.475,-195.5 738.475,-195.5 738.475,-174.5 603.475,-174.5"/>
<text text-anchor="middle" x="670.975" y="-182.5" font-family="Helvetica,sans-Serif" font-size="10.00">core/internal/MojConfig.h</text>
</a>
</g>
<!-- Node3&#45;&gt;Node4 -->
<g id="edge6" class="edge"><title>Node3&#45;&gt;Node4</title>
<path fill="none" stroke="midnightblue" d="M670.975,-232.362C670.975,-224.922 670.975,-214.743 670.975,-205.728"/>
<polygon fill="midnightblue" stroke="midnightblue" points="674.475,-205.571 670.975,-195.571 667.475,-205.571 674.475,-205.571"/>
</g>
<!-- Node5 -->
<g id="node9" class="node"><title>Node5</title>
<a xlink:href="MojNew_8h.htm" target="_top" xlink:title="core/internal/MojNew.h">
<polygon fill="white" stroke="black" points="363.475,-174.5 363.475,-195.5 488.475,-195.5 488.475,-174.5 363.475,-174.5"/>
<text text-anchor="middle" x="425.975" y="-182.5" font-family="Helvetica,sans-Serif" font-size="10.00">core/internal/MojNew.h</text>
</a>
</g>
<!-- Node3&#45;&gt;Node5 -->
<g id="edge8" class="edge"><title>Node3&#45;&gt;Node5</title>
<path fill="none" stroke="midnightblue" d="M626.607,-232.497C585.542,-222.775 524.371,-208.294 480.376,-197.879"/>
<polygon fill="midnightblue" stroke="midnightblue" points="480.963,-194.421 470.426,-195.523 479.351,-201.233 480.963,-194.421"/>
</g>
<!-- Node7 -->
<g id="node13" class="node"><title>Node7</title>
<a xlink:href="MojErr_8h.htm" target="_top" xlink:title="core/MojErr.h">
<polygon fill="white" stroke="black" points="505.975,-174.5 505.975,-195.5 585.975,-195.5 585.975,-174.5 505.975,-174.5"/>
<text text-anchor="middle" x="545.975" y="-182.5" font-family="Helvetica,sans-Serif" font-size="10.00">core/MojErr.h</text>
</a>
</g>
<!-- Node3&#45;&gt;Node7 -->
<g id="edge12" class="edge"><title>Node3&#45;&gt;Node7</title>
<path fill="none" stroke="midnightblue" d="M648.338,-232.497C628.727,-223.397 600.129,-210.127 578.142,-199.925"/>
<polygon fill="midnightblue" stroke="midnightblue" points="579.41,-196.655 568.866,-195.621 576.463,-203.005 579.41,-196.655"/>
</g>
<!-- Node11 -->
<g id="node21" class="node"><title>Node11</title>
<a xlink:href="MojOs_8h.htm" target="_top" xlink:title="core/MojOs.h">
<polygon fill="white" stroke="black" points="755.975,-174.5 755.975,-195.5 835.975,-195.5 835.975,-174.5 755.975,-174.5"/>
<text text-anchor="middle" x="795.975" y="-182.5" font-family="Helvetica,sans-Serif" font-size="10.00">core/MojOs.h</text>
</a>
</g>
<!-- Node3&#45;&gt;Node11 -->
<g id="edge20" class="edge"><title>Node3&#45;&gt;Node11</title>
<path fill="none" stroke="midnightblue" d="M693.612,-232.497C713.223,-223.397 741.821,-210.127 763.808,-199.925"/>
<polygon fill="midnightblue" stroke="midnightblue" points="765.486,-203.005 773.084,-195.621 762.54,-196.655 765.486,-203.005"/>
</g>
<!-- Node6 -->
<g id="node11" class="node"><title>Node6</title>
<polygon fill="white" stroke="#bfbfbf" points="407.975,-116.5 407.975,-137.5 443.975,-137.5 443.975,-116.5 407.975,-116.5"/>
<text text-anchor="middle" x="425.975" y="-124.5" font-family="Helvetica,sans-Serif" font-size="10.00">new</text>
</g>
<!-- Node5&#45;&gt;Node6 -->
<g id="edge10" class="edge"><title>Node5&#45;&gt;Node6</title>
<path fill="none" stroke="midnightblue" d="M425.975,-174.362C425.975,-166.922 425.975,-156.743 425.975,-147.728"/>
<polygon fill="midnightblue" stroke="midnightblue" points="429.475,-147.571 425.975,-137.571 422.475,-147.571 429.475,-147.571"/>
</g>
<!-- Node8 -->
<g id="node15" class="node"><title>Node8</title>
<a xlink:href="MojLog_8h.htm" target="_top" xlink:title="core/MojLog.h">
<polygon fill="white" stroke="black" points="482.975,-116.5 482.975,-137.5 566.975,-137.5 566.975,-116.5 482.975,-116.5"/>
<text text-anchor="middle" x="524.975" y="-124.5" font-family="Helvetica,sans-Serif" font-size="10.00">core/MojLog.h</text>
</a>
</g>
<!-- Node7&#45;&gt;Node8 -->
<g id="edge14" class="edge"><title>Node7&#45;&gt;Node8</title>
<path fill="none" stroke="midnightblue" d="M542.123,-174.362C539.37,-166.758 535.581,-156.294 532.265,-147.135"/>
<polygon fill="midnightblue" stroke="midnightblue" points="535.498,-145.782 528.802,-137.571 528.916,-148.165 535.498,-145.782"/>
</g>
<!-- Node9 -->
<g id="node17" class="node"><title>Node9</title>
<a xlink:href="MojListEntry_8h.htm" target="_top" xlink:title="core/MojListEntry.h">
<polygon fill="white" stroke="black" points="353.475,-58.5 353.475,-79.5 460.475,-79.5 460.475,-58.5 353.475,-58.5"/>
<text text-anchor="middle" x="406.975" y="-66.5" font-family="Helvetica,sans-Serif" font-size="10.00">core/MojListEntry.h</text>
</a>
</g>
<!-- Node8&#45;&gt;Node9 -->
<g id="edge16" class="edge"><title>Node8&#45;&gt;Node9</title>
<path fill="none" stroke="midnightblue" d="M503.606,-116.497C485.176,-107.438 458.338,-94.2462 437.62,-84.0628"/>
<polygon fill="midnightblue" stroke="midnightblue" points="439.102,-80.8914 428.584,-79.6212 436.014,-87.1735 439.102,-80.8914"/>
</g>
<!-- Node10 -->
<g id="node19" class="node"><title>Node10</title>
<a xlink:href="MojNoCopy_8h.htm" target="_top" xlink:title="core/MojNoCopy.h">
<polygon fill="white" stroke="black" points="273.975,-0.5 273.975,-21.5 377.975,-21.5 377.975,-0.5 273.975,-0.5"/>
<text text-anchor="middle" x="325.975" y="-8.5" font-family="Helvetica,sans-Serif" font-size="10.00">core/MojNoCopy.h</text>
</a>
</g>
<!-- Node9&#45;&gt;Node10 -->
<g id="edge18" class="edge"><title>Node9&#45;&gt;Node10</title>
<path fill="none" stroke="midnightblue" d="M392.118,-58.3619C380.129,-49.7773 363.048,-37.5459 349.247,-27.6636"/>
<polygon fill="midnightblue" stroke="midnightblue" points="350.906,-24.5469 340.737,-21.5707 346.83,-30.2383 350.906,-24.5469"/>
</g>
<!-- Node12 -->
<g id="node23" class="node"><title>Node12</title>
<a xlink:href="MojOsInternal_8h.htm" target="_top" xlink:title="core/internal/MojOsInternal.h">
<polygon fill="white" stroke="black" points="718.975,-116.5 718.975,-137.5 872.975,-137.5 872.975,-116.5 718.975,-116.5"/>
<text text-anchor="middle" x="795.975" y="-124.5" font-family="Helvetica,sans-Serif" font-size="10.00">core/internal/MojOsInternal.h</text>
</a>
</g>
<!-- Node11&#45;&gt;Node12 -->
<g id="edge22" class="edge"><title>Node11&#45;&gt;Node12</title>
<path fill="none" stroke="midnightblue" d="M795.975,-174.362C795.975,-166.922 795.975,-156.743 795.975,-147.728"/>
<polygon fill="midnightblue" stroke="midnightblue" points="799.475,-147.571 795.975,-137.571 792.475,-147.571 799.475,-147.571"/>
</g>
<!-- Node13&#45;&gt;Node3 -->
<g id="edge26" class="edge"><title>Node13&#45;&gt;Node3</title>
<path fill="none" stroke="midnightblue" d="M787.319,-668.257C841.835,-655.286 922.975,-625.197 922.975,-561 922.975,-561 922.975,-561 922.975,-373 922.975,-332.612 917.295,-315.5 885.975,-290 863.347,-271.576 791.182,-258.406 736.649,-250.779"/>
<polygon fill="midnightblue" stroke="midnightblue" points="737.069,-247.304 726.687,-249.419 736.122,-254.239 737.069,-247.304"/>
</g>
<!-- Node14 -->
<g id="node28" class="node"><title>Node14</title>
<a xlink:href="MojDecimal_8h.htm" target="_top" xlink:title="core/MojDecimal.h">
<polygon fill="white" stroke="black" points="790.975,-550.5 790.975,-571.5 894.975,-571.5 894.975,-550.5 790.975,-550.5"/>
<text text-anchor="middle" x="842.975" y="-558.5" font-family="Helvetica,sans-Serif" font-size="10.00">core/MojDecimal.h</text>
</a>
</g>
<!-- Node13&#45;&gt;Node14 -->
<g id="edge28" class="edge"><title>Node13&#45;&gt;Node14</title>
<path fill="none" stroke="midnightblue" d="M748.573,-666.295C766.373,-646.441 804.684,-603.709 826.636,-579.224"/>
<polygon fill="midnightblue" stroke="midnightblue" points="829.331,-581.461 833.401,-571.679 824.119,-576.789 829.331,-581.461"/>
</g>
<!-- Node19 -->
<g id="node42" class="node"><title>Node19</title>
<a xlink:href="MojMap_8h.htm" target="_top" xlink:title="core/MojMap.h">
<polygon fill="white" stroke="black" points="80.475,-492.5 80.475,-513.5 167.475,-513.5 167.475,-492.5 80.475,-492.5"/>
<text text-anchor="middle" x="123.975" y="-500.5" font-family="Helvetica,sans-Serif" font-size="10.00">core/MojMap.h</text>
</a>
</g>
<!-- Node13&#45;&gt;Node19 -->
<g id="edge46" class="edge"><title>Node13&#45;&gt;Node19</title>
<path fill="none" stroke="midnightblue" d="M695.323,-666.476C621.269,-648.427 466.446,-609.845 336.975,-572 276.401,-554.294 206.99,-531.294 164.313,-516.837"/>
<polygon fill="midnightblue" stroke="midnightblue" points="165.438,-513.522 154.843,-513.62 163.186,-520.15 165.438,-513.522"/>
</g>
<!-- Node24 -->
<g id="node58" class="node"><title>Node24</title>
<a xlink:href="MojString_8h.htm" target="_top" xlink:title="core/MojString.h">
<polygon fill="white" stroke="black" points="627.975,-608.5 627.975,-629.5 721.975,-629.5 721.975,-608.5 627.975,-608.5"/>
<text text-anchor="middle" x="674.975" y="-616.5" font-family="Helvetica,sans-Serif" font-size="10.00">core/MojString.h</text>
</a>
</g>
<!-- Node13&#45;&gt;Node24 -->
<g id="edge68" class="edge"><title>Node13&#45;&gt;Node24</title>
<path fill="none" stroke="midnightblue" d="M727.236,-666.362C718.034,-658.023 705.035,-646.242 694.303,-636.516"/>
<polygon fill="midnightblue" stroke="midnightblue" points="696.399,-633.692 686.639,-629.571 691.699,-638.879 696.399,-633.692"/>
</g>
<!-- Node25 -->
<g id="node64" class="node"><title>Node25</title>
<a xlink:href="MojVector_8h.htm" target="_top" xlink:title="core/MojVector.h">
<polygon fill="white" stroke="black" points="508.475,-550.5 508.475,-571.5 605.475,-571.5 605.475,-550.5 508.475,-550.5"/>
<text text-anchor="middle" x="556.975" y="-558.5" font-family="Helvetica,sans-Serif" font-size="10.00">core/MojVector.h</text>
</a>
</g>
<!-- Node13&#45;&gt;Node25 -->
<g id="edge100" class="edge"><title>Node13&#45;&gt;Node25</title>
<path fill="none" stroke="midnightblue" d="M698.872,-666.442C674.395,-658.793 643.249,-646.823 618.975,-630 599.279,-616.35 581.533,-595.257 570.125,-579.985"/>
<polygon fill="midnightblue" stroke="midnightblue" points="572.873,-577.812 564.173,-571.766 567.203,-581.918 572.873,-577.812"/>
</g>
<!-- Node14&#45;&gt;Node3 -->
<g id="edge30" class="edge"><title>Node14&#45;&gt;Node3</title>
<path fill="none" stroke="midnightblue" d="M849.354,-550.231C861.103,-529.345 884.975,-481.55 884.975,-438 884.975,-438 884.975,-438 884.975,-373 884.975,-334.6 888.652,-316.619 860.975,-290 843.14,-272.847 784.103,-259.999 736.517,-252.11"/>
<polygon fill="midnightblue" stroke="midnightblue" points="736.986,-248.64 726.556,-250.502 735.87,-255.551 736.986,-248.64"/>
</g>
<!-- Node15 -->
<g id="node31" class="node"><title>Node15</title>
<a xlink:href="MojHasher_8h.htm" target="_top" xlink:title="core/MojHasher.h">
<polygon fill="white" stroke="black" points="718.475,-492.5 718.475,-513.5 819.475,-513.5 819.475,-492.5 718.475,-492.5"/>
<text text-anchor="middle" x="768.975" y="-500.5" font-family="Helvetica,sans-Serif" font-size="10.00">core/MojHasher.h</text>
</a>
</g>
<!-- Node14&#45;&gt;Node15 -->
<g id="edge32" class="edge"><title>Node14&#45;&gt;Node15</title>
<path fill="none" stroke="midnightblue" d="M829.402,-550.362C818.554,-541.859 803.141,-529.779 790.596,-519.947"/>
<polygon fill="midnightblue" stroke="midnightblue" points="792.491,-516.985 782.462,-513.571 788.173,-522.494 792.491,-516.985"/>
</g>
<!-- Node15&#45;&gt;Node3 -->
<g id="edge34" class="edge"><title>Node15&#45;&gt;Node3</title>
<path fill="none" stroke="midnightblue" d="M774.106,-492.076C789.035,-458.531 828.706,-355.331 784.975,-290 773.667,-273.107 755.063,-262.28 736.132,-255.342"/>
<polygon fill="midnightblue" stroke="midnightblue" points="737.136,-251.988 726.542,-252.149 734.924,-258.629 737.136,-251.988"/>
</g>
<!-- Node16 -->
<g id="node34" class="node"><title>Node16</title>
<a xlink:href="MojUtil_8h.htm" target="_top" xlink:title="core/MojUtil.h">
<polygon fill="white" stroke="black" points="662.475,-427.5 662.475,-448.5 743.475,-448.5 743.475,-427.5 662.475,-427.5"/>
<text text-anchor="middle" x="702.975" y="-435.5" font-family="Helvetica,sans-Serif" font-size="10.00">core/MojUtil.h</text>
</a>
</g>
<!-- Node15&#45;&gt;Node16 -->
<g id="edge36" class="edge"><title>Node15&#45;&gt;Node16</title>
<path fill="none" stroke="midnightblue" d="M758.076,-492.267C747.985,-482.328 732.79,-467.363 720.911,-455.664"/>
<polygon fill="midnightblue" stroke="midnightblue" points="723.252,-453.057 713.671,-448.534 718.34,-458.044 723.252,-453.057"/>
</g>
<!-- Node16&#45;&gt;Node3 -->
<g id="edge38" class="edge"><title>Node16&#45;&gt;Node3</title>
<path fill="none" stroke="midnightblue" d="M703.11,-427.422C703.195,-402.898 702.092,-340.409 689.975,-290 687.752,-280.753 684.02,-270.937 680.45,-262.682"/>
<polygon fill="midnightblue" stroke="midnightblue" points="683.613,-261.182 676.286,-253.528 677.241,-264.08 683.613,-261.182"/>
</g>
<!-- Node17 -->
<g id="node37" class="node"><title>Node17</title>
<a xlink:href="MojUtilInternal_8h.htm" target="_top" xlink:title="core/internal/MojUtilInternal.h">
<polygon fill="white" stroke="black" points="526.475,-362.5 526.475,-383.5 681.475,-383.5 681.475,-362.5 526.475,-362.5"/>
<text text-anchor="middle" x="603.975" y="-370.5" font-family="Helvetica,sans-Serif" font-size="10.00">core/internal/MojUtilInternal.h</text>
</a>
</g>
<!-- Node16&#45;&gt;Node17 -->
<g id="edge40" class="edge"><title>Node16&#45;&gt;Node17</title>
<path fill="none" stroke="midnightblue" d="M686.627,-427.267C670.913,-416.949 646.95,-401.216 628.865,-389.342"/>
<polygon fill="midnightblue" stroke="midnightblue" points="630.299,-386.096 620.019,-383.534 626.457,-391.948 630.299,-386.096"/>
</g>
<!-- Node18 -->
<g id="node39" class="node"><title>Node18</title>
<a xlink:href="MojComp_8h.htm" target="_top" xlink:title="core/MojComp.h">
<polygon fill="white" stroke="black" points="586.975,-297.5 586.975,-318.5 680.975,-318.5 680.975,-297.5 586.975,-297.5"/>
<text text-anchor="middle" x="633.975" y="-305.5" font-family="Helvetica,sans-Serif" font-size="10.00">core/MojComp.h</text>
</a>
</g>
<!-- Node17&#45;&gt;Node18 -->
<g id="edge42" class="edge"><title>Node17&#45;&gt;Node18</title>
<path fill="none" stroke="midnightblue" d="M608.929,-362.267C613.254,-352.896 619.641,-339.057 624.882,-327.7"/>
<polygon fill="midnightblue" stroke="midnightblue" points="628.1,-329.08 629.113,-318.534 621.745,-326.147 628.1,-329.08"/>
</g>
<!-- Node18&#45;&gt;Node3 -->
<g id="edge44" class="edge"><title>Node18&#45;&gt;Node3</title>
<path fill="none" stroke="midnightblue" d="M640.085,-297.267C645.473,-287.801 653.456,-273.777 659.956,-262.357"/>
<polygon fill="midnightblue" stroke="midnightblue" points="663.074,-263.956 664.979,-253.534 656.99,-260.493 663.074,-263.956"/>
</g>
<!-- Node19&#45;&gt;Node3 -->
<g id="edge48" class="edge"><title>Node19&#45;&gt;Node3</title>
<path fill="none" stroke="midnightblue" d="M80.4195,-497.814C54.1119,-492.187 22.5588,-480.456 5.97498,-456 -3.00476,-442.757 -0.573316,-434.599 5.97498,-420 41.5339,-340.726 72.2538,-324.545 151.975,-290 231.731,-255.44 484.152,-246.282 605.107,-243.863"/>
<polygon fill="midnightblue" stroke="midnightblue" points="605.408,-247.358 615.34,-243.668 605.275,-240.359 605.408,-247.358"/>
</g>
<!-- Node19&#45;&gt;Node18 -->
<g id="edge50" class="edge"><title>Node19&#45;&gt;Node18</title>
<path fill="none" stroke="midnightblue" d="M147.604,-492.489C193.194,-472.124 296.357,-425.626 381.975,-384 401.281,-374.614 404.852,-369.477 424.975,-362 488.432,-338.422 507.603,-343.585 572.975,-326 578.306,-324.566 583.882,-323.005 589.403,-321.422"/>
<polygon fill="midnightblue" stroke="midnightblue" points="590.592,-324.722 599.218,-318.572 588.639,-318 590.592,-324.722"/>
</g>
<!-- Node20 -->
<g id="node46" class="node"><title>Node20</title>
<a xlink:href="MojRbTreeBase_8h.htm" target="_top" xlink:title="core/internal/MojRbTreeBase.h">
<polygon fill="white" stroke="black" points="14.975,-427.5 14.975,-448.5 178.975,-448.5 178.975,-427.5 14.975,-427.5"/>
<text text-anchor="middle" x="96.975" y="-435.5" font-family="Helvetica,sans-Serif" font-size="10.00">core/internal/MojRbTreeBase.h</text>
</a>
</g>
<!-- Node19&#45;&gt;Node20 -->
<g id="edge52" class="edge"><title>Node19&#45;&gt;Node20</title>
<path fill="none" stroke="midnightblue" d="M119.516,-492.267C115.663,-482.991 109.992,-469.336 105.302,-458.045"/>
<polygon fill="midnightblue" stroke="midnightblue" points="108.419,-456.426 101.351,-448.534 101.954,-459.111 108.419,-456.426"/>
</g>
<!-- Node20&#45;&gt;Node3 -->
<g id="edge54" class="edge"><title>Node20&#45;&gt;Node3</title>
<path fill="none" stroke="midnightblue" d="M100.228,-427.431C109.476,-399.383 138.818,-322.958 192.975,-290 227.401,-269.05 482.406,-252.939 605.224,-246.306"/>
<polygon fill="midnightblue" stroke="midnightblue" points="605.462,-249.798 615.261,-245.769 605.088,-242.808 605.462,-249.798"/>
</g>
<!-- Node21 -->
<g id="node49" class="node"><title>Node21</title>
<a xlink:href="MojAutoPtr_8h.htm" target="_top" xlink:title="core/MojAutoPtr.h">
<polygon fill="white" stroke="black" points="272.475,-362.5 272.475,-383.5 373.475,-383.5 373.475,-362.5 272.475,-362.5"/>
<text text-anchor="middle" x="322.975" y="-370.5" font-family="Helvetica,sans-Serif" font-size="10.00">core/MojAutoPtr.h</text>
</a>
</g>
<!-- Node20&#45;&gt;Node21 -->
<g id="edge56" class="edge"><title>Node20&#45;&gt;Node21</title>
<path fill="none" stroke="midnightblue" d="M133.537,-427.484C172.513,-416.274 234.329,-398.496 276.678,-386.316"/>
<polygon fill="midnightblue" stroke="midnightblue" points="277.823,-389.628 286.466,-383.501 275.888,-382.901 277.823,-389.628"/>
</g>
<!-- Node21&#45;&gt;Node3 -->
<g id="edge58" class="edge"><title>Node21&#45;&gt;Node3</title>
<path fill="none" stroke="midnightblue" d="M373.518,-363.541C432.938,-352.188 525.36,-333.717 539.975,-326 560.547,-315.137 558.949,-303.388 577.975,-290 595.951,-277.352 617.812,-266.122 635.822,-257.814"/>
<polygon fill="midnightblue" stroke="midnightblue" points="637.701,-260.806 645.382,-253.509 634.827,-254.424 637.701,-260.806"/>
</g>
<!-- Node21&#45;&gt;Node10 -->
<g id="edge64" class="edge"><title>Node21&#45;&gt;Node10</title>
<path fill="none" stroke="midnightblue" d="M303.625,-362.354C290.468,-354.12 273.738,-341.518 263.975,-326 243.823,-293.969 244.975,-280.843 244.975,-243 244.975,-243 244.975,-243 244.975,-127 244.975,-85.9121 279.559,-48.9919 303.531,-28.336"/>
<polygon fill="midnightblue" stroke="midnightblue" points="306.034,-30.8075 311.494,-21.7279 301.563,-25.4209 306.034,-30.8075"/>
</g>
<!-- Node22 -->
<g id="node52" class="node"><title>Node22</title>
<a xlink:href="MojAtomicInt_8h.htm" target="_top" xlink:title="core/MojAtomicInt.h">
<polygon fill="white" stroke="black" points="272.975,-297.5 272.975,-318.5 382.975,-318.5 382.975,-297.5 272.975,-297.5"/>
<text text-anchor="middle" x="327.975" y="-305.5" font-family="Helvetica,sans-Serif" font-size="10.00">core/MojAtomicInt.h</text>
</a>
</g>
<!-- Node21&#45;&gt;Node22 -->
<g id="edge60" class="edge"><title>Node21&#45;&gt;Node22</title>
<path fill="none" stroke="midnightblue" d="M323.801,-362.267C324.5,-353.18 325.522,-339.892 326.38,-328.74"/>
<polygon fill="midnightblue" stroke="midnightblue" points="329.887,-328.773 327.165,-318.534 322.908,-328.236 329.887,-328.773"/>
</g>
<!-- Node23 -->
<g id="node56" class="node"><title>Node23</title>
<a xlink:href="MojAutoPtrInternal_8h.htm" target="_top" xlink:title="core/internal/MojAutoPtr\lInternal.h">
<polygon fill="white" stroke="black" points="400.475,-291 400.475,-325 531.475,-325 531.475,-291 400.475,-291"/>
<text text-anchor="start" x="408.475" y="-312" font-family="Helvetica,sans-Serif" font-size="10.00">core/internal/MojAutoPtr</text>
<text text-anchor="middle" x="465.975" y="-299" font-family="Helvetica,sans-Serif" font-size="10.00">Internal.h</text>
</a>
</g>
<!-- Node21&#45;&gt;Node23 -->
<g id="edge66" class="edge"><title>Node21&#45;&gt;Node23</title>
<path fill="none" stroke="midnightblue" d="M346.269,-362.412C365.988,-353.448 394.865,-340.323 419.316,-329.209"/>
<polygon fill="midnightblue" stroke="midnightblue" points="420.787,-332.385 428.442,-325.06 417.89,-326.012 420.787,-332.385"/>
</g>
<!-- Node22&#45;&gt;Node3 -->
<g id="edge62" class="edge"><title>Node22&#45;&gt;Node3</title>
<path fill="none" stroke="midnightblue" d="M363.013,-297.414C372.372,-294.788 382.514,-292.121 391.975,-290 464.433,-273.757 548.606,-260.308 605.392,-252.017"/>
<polygon fill="midnightblue" stroke="midnightblue" points="605.92,-255.477 615.316,-250.58 604.917,-248.55 605.92,-255.477"/>
</g>
<!-- Node24&#45;&gt;Node3 -->
<g id="edge70" class="edge"><title>Node24&#45;&gt;Node3</title>
<path fill="none" stroke="midnightblue" d="M691.848,-608.384C729.686,-584.442 818.739,-527.295 827.975,-514 847.84,-485.406 846.975,-472.817 846.975,-438 846.975,-438 846.975,-438 846.975,-373 846.975,-331.856 836.812,-317.238 805.975,-290 786.521,-272.817 760.429,-261.829 736.371,-254.842"/>
<polygon fill="midnightblue" stroke="midnightblue" points="737.133,-251.423 726.565,-252.177 735.297,-258.177 737.133,-251.423"/>
</g>
<!-- Node24&#45;&gt;Node15 -->
<g id="edge76" class="edge"><title>Node24&#45;&gt;Node15</title>
<path fill="none" stroke="midnightblue" d="M683.65,-608.295C699.668,-588.527 734.065,-546.08 753.948,-521.544"/>
<polygon fill="midnightblue" stroke="midnightblue" points="756.745,-523.652 760.321,-513.679 751.306,-519.245 756.745,-523.652"/>
</g>
<!-- Node24&#45;&gt;Node18 -->
<g id="edge74" class="edge"><title>Node24&#45;&gt;Node18</title>
<path fill="none" stroke="midnightblue" d="M669.05,-608.403C655.323,-584.68 619.118,-526.664 574.975,-492 544.628,-468.17 516.849,-488.451 495.975,-456 472.763,-419.914 488.765,-393.429 517.975,-362 535.508,-343.135 560.952,-330.282 583.546,-321.864"/>
<polygon fill="midnightblue" stroke="midnightblue" points="584.755,-325.149 593.023,-318.524 582.428,-318.547 584.755,-325.149"/>
</g>
<!-- Node24&#45;&gt;Node21 -->
<g id="edge72" class="edge"><title>Node24&#45;&gt;Node21</title>
<path fill="none" stroke="midnightblue" d="M627.805,-608.611C551.285,-590.836 405.097,-552.74 369.975,-514 338.778,-479.589 328.216,-423.858 324.694,-393.802"/>
<polygon fill="midnightblue" stroke="midnightblue" points="328.154,-393.233 323.66,-383.638 321.19,-393.941 328.154,-393.233"/>
</g>
<!-- Node24&#45;&gt;Node25 -->
<g id="edge78" class="edge"><title>Node24&#45;&gt;Node25</title>
<path fill="none" stroke="midnightblue" d="M653.606,-608.497C635.176,-599.438 608.338,-586.246 587.62,-576.063"/>
<polygon fill="midnightblue" stroke="midnightblue" points="589.102,-572.891 578.584,-571.621 586.014,-579.174 589.102,-572.891"/>
</g>
<!-- Node25&#45;&gt;Node3 -->
<g id="edge80" class="edge"><title>Node25&#45;&gt;Node3</title>
<path fill="none" stroke="midnightblue" d="M584.278,-550.382C633.345,-530.682 733.096,-487.607 751.975,-456 791.771,-389.372 723.018,-299.788 688.704,-261.55"/>
<polygon fill="midnightblue" stroke="midnightblue" points="690.915,-258.783 681.572,-253.787 685.76,-263.519 690.915,-258.783"/>
</g>
<!-- Node25&#45;&gt;Node16 -->
<g id="edge96" class="edge"><title>Node25&#45;&gt;Node16</title>
<path fill="none" stroke="midnightblue" d="M569.676,-550.3C594.915,-529.037 651.586,-481.294 682.279,-455.436"/>
<polygon fill="midnightblue" stroke="midnightblue" points="684.807,-457.883 690.199,-448.763 680.296,-452.529 684.807,-457.883"/>
</g>
<!-- Node25&#45;&gt;Node18 -->
<g id="edge82" class="edge"><title>Node25&#45;&gt;Node18</title>
<path fill="none" stroke="midnightblue" d="M560.717,-550.08C564.99,-535.458 569.955,-509.351 557.975,-492 532.321,-454.844 488.629,-493.156 462.975,-456 439.238,-421.621 438.279,-395.697 462.975,-362 464.921,-359.344 539.011,-336.605 589.018,-321.493"/>
<polygon fill="midnightblue" stroke="midnightblue" points="590.107,-324.821 598.67,-318.581 588.085,-318.119 590.107,-324.821"/>
</g>
<!-- Node26 -->
<g id="node68" class="node"><title>Node26</title>
<a xlink:href="MojRefCount_8h.htm" target="_top" xlink:title="core/MojRefCount.h">
<polygon fill="white" stroke="black" points="212.975,-492.5 212.975,-513.5 322.975,-513.5 322.975,-492.5 212.975,-492.5"/>
<text text-anchor="middle" x="267.975" y="-500.5" font-family="Helvetica,sans-Serif" font-size="10.00">core/MojRefCount.h</text>
</a>
</g>
<!-- Node25&#45;&gt;Node26 -->
<g id="edge84" class="edge"><title>Node25&#45;&gt;Node26</title>
<path fill="none" stroke="midnightblue" d="M508.277,-551.227C459.312,-541.4 383.637,-526.212 330.316,-515.511"/>
<polygon fill="midnightblue" stroke="midnightblue" points="330.791,-512.037 320.298,-513.501 329.413,-518.9 330.791,-512.037"/>
</g>
<!-- Node28 -->
<g id="node77" class="node"><title>Node28</title>
<a xlink:href="MojVectorInternal_8h.htm" target="_top" xlink:title="core/internal/MojVectorInternal.h">
<polygon fill="white" stroke="black" points="378.475,-492.5 378.475,-513.5 549.475,-513.5 549.475,-492.5 378.475,-492.5"/>
<text text-anchor="middle" x="463.975" y="-500.5" font-family="Helvetica,sans-Serif" font-size="10.00">core/internal/MojVectorInternal.h</text>
</a>
</g>
<!-- Node25&#45;&gt;Node28 -->
<g id="edge98" class="edge"><title>Node25&#45;&gt;Node28</title>
<path fill="none" stroke="midnightblue" d="M539.917,-550.362C525.89,-541.614 505.791,-529.079 489.793,-519.101"/>
<polygon fill="midnightblue" stroke="midnightblue" points="491.262,-515.893 480.924,-513.571 487.557,-521.832 491.262,-515.893"/>
</g>
<!-- Node26&#45;&gt;Node3 -->
<g id="edge86" class="edge"><title>Node26&#45;&gt;Node3</title>
<path fill="none" stroke="midnightblue" d="M263.116,-492.149C248.196,-456.994 207.367,-345.319 263.975,-290 287.877,-266.642 496.036,-252.249 605.033,-246.247"/>
<polygon fill="midnightblue" stroke="midnightblue" points="605.467,-249.729 615.262,-245.692 605.087,-242.739 605.467,-249.729"/>
</g>
<!-- Node26&#45;&gt;Node21 -->
<g id="edge90" class="edge"><title>Node26&#45;&gt;Node21</title>
<path fill="none" stroke="midnightblue" d="M272.476,-492.362C281.661,-470.65 302.694,-420.937 314.513,-393"/>
<polygon fill="midnightblue" stroke="midnightblue" points="317.739,-394.359 318.412,-383.785 311.292,-391.631 317.739,-394.359"/>
</g>
<!-- Node26&#45;&gt;Node22 -->
<g id="edge88" class="edge"><title>Node26&#45;&gt;Node22</title>
<path fill="none" stroke="midnightblue" d="M264.628,-492.453C257.528,-468.103 243.233,-406.639 263.975,-362 271.312,-346.21 285.791,-333.375 299.125,-324.187"/>
<polygon fill="midnightblue" stroke="midnightblue" points="301.14,-327.051 307.634,-318.68 297.337,-321.174 301.14,-327.051"/>
</g>
<!-- Node27 -->
<g id="node73" class="node"><title>Node27</title>
<a xlink:href="MojRefCountInternal_8h.htm" target="_top" xlink:title="core/internal/MojRefCount\lInternal.h">
<polygon fill="white" stroke="black" points="504.975,-421 504.975,-455 644.975,-455 644.975,-421 504.975,-421"/>
<text text-anchor="start" x="512.975" y="-442" font-family="Helvetica,sans-Serif" font-size="10.00">core/internal/MojRefCount</text>
<text text-anchor="middle" x="574.975" y="-429" font-family="Helvetica,sans-Serif" font-size="10.00">Internal.h</text>
</a>
</g>
<!-- Node26&#45;&gt;Node27 -->
<g id="edge92" class="edge"><title>Node26&#45;&gt;Node27</title>
<path fill="none" stroke="midnightblue" d="M317.641,-492.484C365.508,-482.35 438.735,-466.846 494.852,-454.964"/>
<polygon fill="midnightblue" stroke="midnightblue" points="495.708,-458.361 504.766,-452.865 494.258,-451.512 495.708,-458.361"/>
</g>
<!-- Node27&#45;&gt;Node17 -->
<g id="edge94" class="edge"><title>Node27&#45;&gt;Node17</title>
<path fill="none" stroke="midnightblue" d="M582.594,-420.922C586.399,-412.395 591.025,-402.025 595.001,-393.115"/>
<polygon fill="midnightblue" stroke="midnightblue" points="598.255,-394.41 599.133,-383.852 591.862,-391.558 598.255,-394.41"/>
</g>
</g>
</svg>
