<?xml version="1.0" encoding="UTF-8" standalone="no"?>
<!DOCTYPE svg PUBLIC "-//W3C//DTD SVG 1.1//EN"
 "http://www.w3.org/Graphics/SVG/1.1/DTD/svg11.dtd">
<!-- Generated by graphviz version 2.26.3 (20100126.1600)
 -->
<!-- Title: MojLunaMessage.h Pages: 1 -->
<svg width="258pt" height="88pt"
 viewBox="0.00 0.00 258.00 88.00" xmlns="http://www.w3.org/2000/svg" xmlns:xlink="http://www.w3.org/1999/xlink">
<g id="graph1" class="graph" transform="scale(1 1) rotate(0) translate(4 84)">
<title>MojLunaMessage.h</title>
<polygon fill="white" stroke="white" points="-4,5 -4,-84 255,-84 255,5 -4,5"/>
<!-- Node1 -->
<g id="node1" class="node"><title>Node1</title>
<polygon fill="#bfbfbf" stroke="black" points="72.5,-58.5 72.5,-79.5 181.5,-79.5 181.5,-58.5 72.5,-58.5"/>
<text text-anchor="middle" x="127" y="-66.5" font-family="Helvetica,sans-Serif" font-size="10.00">MojLunaMessage.h</text>
</g>
<!-- Node2 -->
<g id="node3" class="node"><title>Node2</title>
<a xlink:href="MojLunaMessage_8cpp.htm" target="_top" xlink:title="MojLunaMessage.cpp">
<polygon fill="white" stroke="black" points="0,-0.5 0,-21.5 120,-21.5 120,-0.5 0,-0.5"/>
<text text-anchor="middle" x="60" y="-8.5" font-family="Helvetica,sans-Serif" font-size="10.00">MojLunaMessage.cpp</text>
</a>
</g>
<!-- Node1&#45;&gt;Node2 -->
<g id="edge2" class="edge"><title>Node1&#45;&gt;Node2</title>
<path fill="none" stroke="midnightblue" d="M107.005,-51.6908C95.6944,-41.8996 81.917,-29.973 72.2109,-21.5707"/>
<polygon fill="midnightblue" stroke="midnightblue" points="104.86,-54.4631 114.711,-58.3619 109.441,-49.1706 104.86,-54.4631"/>
</g>
<!-- Node3 -->
<g id="node5" class="node"><title>Node3</title>
<a xlink:href="MojLunaService_8cpp.htm" target="_top" xlink:title="MojLunaService.cpp">
<polygon fill="white" stroke="black" points="138,-0.5 138,-21.5 250,-21.5 250,-0.5 138,-0.5"/>
<text text-anchor="middle" x="194" y="-8.5" font-family="Helvetica,sans-Serif" font-size="10.00">MojLunaService.cpp</text>
</a>
</g>
<!-- Node1&#45;&gt;Node3 -->
<g id="edge4" class="edge"><title>Node1&#45;&gt;Node3</title>
<path fill="none" stroke="midnightblue" d="M146.995,-51.6908C158.306,-41.8996 172.083,-29.973 181.789,-21.5707"/>
<polygon fill="midnightblue" stroke="midnightblue" points="144.559,-49.1706 139.289,-58.3619 149.14,-54.4631 144.559,-49.1706"/>
</g>
</g>
</svg>
