<?xml version="1.0" encoding="UTF-8" standalone="no"?>
<!DOCTYPE svg PUBLIC "-//W3C//DTD SVG 1.1//EN"
 "http://www.w3.org/Graphics/SVG/1.1/DTD/svg11.dtd">
<!-- Generated by graphviz version 2.26.3 (20100126.1600)
 -->
<!-- Title: MojLunaDefs.h Pages: 1 -->
<svg width="900pt" height="262pt"
 viewBox="0.00 0.00 900.00 262.00" xmlns="http://www.w3.org/2000/svg" xmlns:xlink="http://www.w3.org/1999/xlink">
<g id="graph1" class="graph" transform="scale(1 1) rotate(0) translate(4 258)">
<title>MojLunaDefs.h</title>
<polygon fill="white" stroke="white" points="-4,5 -4,-258 897,-258 897,5 -4,5"/>
<!-- Node1 -->
<g id="node1" class="node"><title>Node1</title>
<polygon fill="#bfbfbf" stroke="black" points="243.5,-232.5 243.5,-253.5 330.5,-253.5 330.5,-232.5 243.5,-232.5"/>
<text text-anchor="middle" x="287" y="-240.5" font-family="Helvetica,sans-Serif" font-size="10.00">MojLunaDefs.h</text>
</g>
<!-- Node2 -->
<g id="node3" class="node"><title>Node2</title>
<a xlink:href="MojLunaErr_8h.htm" target="_top" xlink:title="MojLunaErr.h">
<polygon fill="white" stroke="black" points="5,-116.5 5,-137.5 85,-137.5 85,-116.5 5,-116.5"/>
<text text-anchor="middle" x="45" y="-124.5" font-family="Helvetica,sans-Serif" font-size="10.00">MojLunaErr.h</text>
</a>
</g>
<!-- Node1&#45;&gt;Node2 -->
<g id="edge2" class="edge"><title>Node1&#45;&gt;Node2</title>
<path fill="none" stroke="midnightblue" d="M254.849,-228.233C234.968,-219.054 208.949,-206.954 186,-196 143.45,-175.691 94.0173,-151.32 66.4358,-137.652"/>
<polygon fill="midnightblue" stroke="midnightblue" points="253.529,-231.479 264.076,-232.487 256.46,-225.122 253.529,-231.479"/>
</g>
<!-- Node6 -->
<g id="node11" class="node"><title>Node6</title>
<a xlink:href="MojLunaMessage_8h.htm" target="_top" xlink:title="MojLunaMessage.h">
<polygon fill="white" stroke="black" points="274.5,-116.5 274.5,-137.5 383.5,-137.5 383.5,-116.5 274.5,-116.5"/>
<text text-anchor="middle" x="329" y="-124.5" font-family="Helvetica,sans-Serif" font-size="10.00">MojLunaMessage.h</text>
</a>
</g>
<!-- Node1&#45;&gt;Node6 -->
<g id="edge10" class="edge"><title>Node1&#45;&gt;Node6</title>
<path fill="none" stroke="midnightblue" d="M296.545,-223.116C300.349,-214.83 304.618,-205.046 308,-196 315.543,-175.827 322.43,-151.614 326.137,-137.896"/>
<polygon fill="midnightblue" stroke="midnightblue" points="293.3,-221.792 292.226,-232.332 299.639,-224.762 293.3,-221.792"/>
</g>
<!-- Node7 -->
<g id="node15" class="node"><title>Node7</title>
<a xlink:href="MojLunaRequest_8h.htm" target="_top" xlink:title="MojLunaRequest.h">
<polygon fill="white" stroke="black" points="195,-174.5 195,-195.5 299,-195.5 299,-174.5 195,-174.5"/>
<text text-anchor="middle" x="247" y="-182.5" font-family="Helvetica,sans-Serif" font-size="10.00">MojLunaRequest.h</text>
</a>
</g>
<!-- Node1&#45;&gt;Node7 -->
<g id="edge16" class="edge"><title>Node1&#45;&gt;Node7</title>
<path fill="none" stroke="midnightblue" d="M273.868,-223.959C267.36,-214.522 259.747,-203.484 254.29,-195.571"/>
<polygon fill="midnightblue" stroke="midnightblue" points="271.105,-226.117 279.663,-232.362 276.867,-222.143 271.105,-226.117"/>
</g>
<!-- Node9 -->
<g id="node20" class="node"><title>Node9</title>
<a xlink:href="MojLunaService_8h.htm" target="_top" xlink:title="MojLunaService.h">
<polygon fill="white" stroke="black" points="379.5,-174.5 379.5,-195.5 480.5,-195.5 480.5,-174.5 379.5,-174.5"/>
<text text-anchor="middle" x="430" y="-182.5" font-family="Helvetica,sans-Serif" font-size="10.00">MojLunaService.h</text>
</a>
</g>
<!-- Node1&#45;&gt;Node9 -->
<g id="edge22" class="edge"><title>Node1&#45;&gt;Node9</title>
<path fill="none" stroke="midnightblue" d="M322.466,-228.615C347.679,-218.389 380.987,-204.88 403.813,-195.621"/>
<polygon fill="midnightblue" stroke="midnightblue" points="320.847,-225.495 312.896,-232.497 323.479,-231.981 320.847,-225.495"/>
</g>
<!-- Node3 -->
<g id="node5" class="node"><title>Node3</title>
<a xlink:href="MojLunaErr_8cpp.htm" target="_top" xlink:title="MojLunaErr.cpp">
<polygon fill="white" stroke="black" points="-0.5,-58.5 -0.5,-79.5 90.5,-79.5 90.5,-58.5 -0.5,-58.5"/>
<text text-anchor="middle" x="45" y="-66.5" font-family="Helvetica,sans-Serif" font-size="10.00">MojLunaErr.cpp</text>
</a>
</g>
<!-- Node2&#45;&gt;Node3 -->
<g id="edge4" class="edge"><title>Node2&#45;&gt;Node3</title>
<path fill="none" stroke="midnightblue" d="M45,-106.191C45,-97.1684 45,-86.9941 45,-79.5707"/>
<polygon fill="midnightblue" stroke="midnightblue" points="41.5001,-106.362 45,-116.362 48.5001,-106.362 41.5001,-106.362"/>
</g>
<!-- Node4 -->
<g id="node7" class="node"><title>Node4</title>
<a xlink:href="MojLunaMessage_8cpp.htm" target="_top" xlink:title="MojLunaMessage.cpp">
<polygon fill="white" stroke="black" points="269,-58.5 269,-79.5 389,-79.5 389,-58.5 269,-58.5"/>
<text text-anchor="middle" x="329" y="-66.5" font-family="Helvetica,sans-Serif" font-size="10.00">MojLunaMessage.cpp</text>
</a>
</g>
<!-- Node2&#45;&gt;Node4 -->
<g id="edge6" class="edge"><title>Node2&#45;&gt;Node4</title>
<path fill="none" stroke="midnightblue" d="M95.0183,-115.816C162.264,-101.607 228.878,-88.4208 274.318,-79.5598"/>
<polygon fill="midnightblue" stroke="midnightblue" points="94.1516,-112.421 85.0946,-117.919 95.603,-119.269 94.1516,-112.421"/>
</g>
<!-- Node5 -->
<g id="node9" class="node"><title>Node5</title>
<a xlink:href="MojLunaService_8cpp.htm" target="_top" xlink:title="MojLunaService.cpp">
<polygon fill="white" stroke="black" points="139,-58.5 139,-79.5 251,-79.5 251,-58.5 139,-58.5"/>
<text text-anchor="middle" x="195" y="-66.5" font-family="Helvetica,sans-Serif" font-size="10.00">MojLunaService.cpp</text>
</a>
</g>
<!-- Node2&#45;&gt;Node5 -->
<g id="edge8" class="edge"><title>Node2&#45;&gt;Node5</title>
<path fill="none" stroke="midnightblue" d="M81.5321,-112.874C108.15,-102.582 143.633,-88.862 167.785,-79.5231"/>
<polygon fill="midnightblue" stroke="midnightblue" points="80.2286,-109.626 72.1639,-116.497 82.7532,-116.155 80.2286,-109.626"/>
</g>
<!-- Node6&#45;&gt;Node4 -->
<g id="edge12" class="edge"><title>Node6&#45;&gt;Node4</title>
<path fill="none" stroke="midnightblue" d="M329,-106.191C329,-97.1684 329,-86.9941 329,-79.5707"/>
<polygon fill="midnightblue" stroke="midnightblue" points="325.5,-106.362 329,-116.362 332.5,-106.362 325.5,-106.362"/>
</g>
<!-- Node6&#45;&gt;Node5 -->
<g id="edge14" class="edge"><title>Node6&#45;&gt;Node5</title>
<path fill="none" stroke="midnightblue" d="M295.452,-112.479C271.864,-102.269 240.834,-88.8386 219.539,-79.6212"/>
<polygon fill="midnightblue" stroke="midnightblue" points="294.166,-115.736 304.734,-116.497 296.947,-109.312 294.166,-115.736"/>
</g>
<!-- Node7&#45;&gt;Node5 -->
<g id="edge20" class="edge"><title>Node7&#45;&gt;Node5</title>
<path fill="none" stroke="midnightblue" d="M243.224,-164.205C240.21,-150.157 235.273,-131.431 228,-116 221.624,-102.472 211.39,-88.6609 204.009,-79.543"/>
<polygon fill="midnightblue" stroke="midnightblue" points="239.852,-165.193 245.238,-174.316 246.717,-163.825 239.852,-165.193"/>
</g>
<!-- Node8 -->
<g id="node17" class="node"><title>Node8</title>
<a xlink:href="MojLunaRequest_8cpp.htm" target="_top" xlink:title="MojLunaRequest.cpp">
<polygon fill="white" stroke="black" points="103,-116.5 103,-137.5 219,-137.5 219,-116.5 103,-116.5"/>
<text text-anchor="middle" x="161" y="-124.5" font-family="Helvetica,sans-Serif" font-size="10.00">MojLunaRequest.cpp</text>
</a>
</g>
<!-- Node7&#45;&gt;Node8 -->
<g id="edge18" class="edge"><title>Node7&#45;&gt;Node8</title>
<path fill="none" stroke="midnightblue" d="M222.595,-168.541C207.851,-158.597 189.495,-146.218 176.674,-137.571"/>
<polygon fill="midnightblue" stroke="midnightblue" points="220.979,-171.672 231.226,-174.362 224.893,-165.869 220.979,-171.672"/>
</g>
<!-- Node9&#45;&gt;Node4 -->
<g id="edge38" class="edge"><title>Node9&#45;&gt;Node4</title>
<path fill="none" stroke="midnightblue" d="M433.639,-163.999C435.025,-149.334 434.427,-129.96 425,-116 412.85,-98.0065 391.753,-86.643 372.426,-79.6076"/>
<polygon fill="midnightblue" stroke="midnightblue" points="430.141,-163.758 432.306,-174.129 437.081,-164.671 430.141,-163.758"/>
</g>
<!-- Node9&#45;&gt;Node5 -->
<g id="edge40" class="edge"><title>Node9&#45;&gt;Node5</title>
<path fill="none" stroke="midnightblue" d="M423.81,-164.509C418.046,-148.909 407.913,-128.117 392,-116 380.565,-107.293 303.38,-90.5365 249.095,-79.564"/>
<polygon fill="midnightblue" stroke="midnightblue" points="420.604,-165.955 427.119,-174.31 427.236,-163.716 420.604,-165.955"/>
</g>
<!-- Node9&#45;&gt;Node6 -->
<g id="edge34" class="edge"><title>Node9&#45;&gt;Node6</title>
<path fill="none" stroke="midnightblue" d="M402.798,-169.379C385.248,-159.301 362.891,-146.462 347.408,-137.571"/>
<polygon fill="midnightblue" stroke="midnightblue" points="401.06,-172.417 411.475,-174.362 404.546,-166.347 401.06,-172.417"/>
</g>
<!-- Node10 -->
<g id="node22" class="node"><title>Node10</title>
<a xlink:href="MojDbServiceHandlerInternal_8h.htm" target="_top" xlink:title="MojDbServiceHandlerInternal.h">
<polygon fill="white" stroke="black" points="522,-116.5 522,-137.5 686,-137.5 686,-116.5 522,-116.5"/>
<text text-anchor="middle" x="604" y="-124.5" font-family="Helvetica,sans-Serif" font-size="10.00">MojDbServiceHandlerInternal.h</text>
</a>
</g>
<!-- Node9&#45;&gt;Node10 -->
<g id="edge24" class="edge"><title>Node9&#45;&gt;Node10</title>
<path fill="none" stroke="midnightblue" d="M471.164,-171.279C502.169,-160.944 544.045,-146.985 572.431,-137.523"/>
<polygon fill="midnightblue" stroke="midnightblue" points="469.89,-168.014 461.51,-174.497 472.104,-174.655 469.89,-168.014"/>
</g>
<!-- Node13 -->
<g id="node28" class="node"><title>Node13</title>
<a xlink:href="MojDbLunaServiceApp_8h.htm" target="_top" xlink:title="MojDbLunaServiceApp.h">
<polygon fill="white" stroke="black" points="755,-58.5 755,-79.5 887,-79.5 887,-58.5 755,-58.5"/>
<text text-anchor="middle" x="821" y="-66.5" font-family="Helvetica,sans-Serif" font-size="10.00">MojDbLunaServiceApp.h</text>
</a>
</g>
<!-- Node9&#45;&gt;Node13 -->
<g id="edge36" class="edge"><title>Node9&#45;&gt;Node13</title>
<path fill="none" stroke="midnightblue" d="M490.782,-179.888C545.438,-173.974 627.297,-161.817 695,-138 737.348,-123.102 782.437,-95.0418 805.476,-79.694"/>
<polygon fill="midnightblue" stroke="midnightblue" points="490.147,-176.436 480.565,-180.956 490.874,-183.398 490.147,-176.436"/>
</g>
<!-- Node11 -->
<g id="node24" class="node"><title>Node11</title>
<a xlink:href="MojDbServiceHandler_8cpp.htm" target="_top" xlink:title="MojDbServiceHandler.cpp">
<polygon fill="white" stroke="black" points="406.5,-58.5 406.5,-79.5 545.5,-79.5 545.5,-58.5 406.5,-58.5"/>
<text text-anchor="middle" x="476" y="-66.5" font-family="Helvetica,sans-Serif" font-size="10.00">MojDbServiceHandler.cpp</text>
</a>
</g>
<!-- Node10&#45;&gt;Node11 -->
<g id="edge26" class="edge"><title>Node10&#45;&gt;Node11</title>
<path fill="none" stroke="midnightblue" d="M571.654,-112.343C549.159,-102.15 519.691,-88.7977 499.44,-79.6212"/>
<polygon fill="midnightblue" stroke="midnightblue" points="570.267,-115.557 580.82,-116.497 573.156,-109.181 570.267,-115.557"/>
</g>
<!-- Node12 -->
<g id="node26" class="node"><title>Node12</title>
<a xlink:href="MojDbServiceHandlerInternal_8cpp.htm" target="_top" xlink:title="MojDbServiceHandlerInternal.cpp">
<polygon fill="white" stroke="black" points="562.5,-58.5 562.5,-79.5 737.5,-79.5 737.5,-58.5 562.5,-58.5"/>
<text text-anchor="middle" x="650" y="-66.5" font-family="Helvetica,sans-Serif" font-size="10.00">MojDbServiceHandlerInternal.cpp</text>
</a>
</g>
<!-- Node10&#45;&gt;Node12 -->
<g id="edge28" class="edge"><title>Node10&#45;&gt;Node12</title>
<path fill="none" stroke="midnightblue" d="M618.87,-108.25C626.405,-98.75 635.276,-87.5651 641.616,-79.5707"/>
<polygon fill="midnightblue" stroke="midnightblue" points="615.909,-106.352 612.437,-116.362 621.393,-110.702 615.909,-106.352"/>
</g>
<!-- Node10&#45;&gt;Node13 -->
<g id="edge30" class="edge"><title>Node10&#45;&gt;Node13</title>
<path fill="none" stroke="midnightblue" d="M653.34,-113.812C692.19,-103.428 745.616,-89.1487 781.629,-79.5231"/>
<polygon fill="midnightblue" stroke="midnightblue" points="652.054,-110.533 643.297,-116.497 653.862,-117.296 652.054,-110.533"/>
</g>
<!-- Node14 -->
<g id="node30" class="node"><title>Node14</title>
<a xlink:href="MojDbLunaServiceApp_8cpp.htm" target="_top" xlink:title="MojDbLunaServiceApp.cpp">
<polygon fill="white" stroke="black" points="749.5,-0.5 749.5,-21.5 892.5,-21.5 892.5,-0.5 749.5,-0.5"/>
<text text-anchor="middle" x="821" y="-8.5" font-family="Helvetica,sans-Serif" font-size="10.00">MojDbLunaServiceApp.cpp</text>
</a>
</g>
<!-- Node13&#45;&gt;Node14 -->
<g id="edge32" class="edge"><title>Node13&#45;&gt;Node14</title>
<path fill="none" stroke="midnightblue" d="M821,-48.1906C821,-39.1684 821,-28.9941 821,-21.5707"/>
<polygon fill="midnightblue" stroke="midnightblue" points="817.5,-48.3619 821,-58.3619 824.5,-48.3619 817.5,-48.3619"/>
</g>
</g>
</svg>
