<?xml version="1.0" encoding="UTF-8" standalone="no"?>
<!DOCTYPE svg PUBLIC "-//W3C//DTD SVG 1.1//EN"
 "http://www.w3.org/Graphics/SVG/1.1/DTD/svg11.dtd">
<!-- Generated by graphviz version 2.26.3 (20100126.1600)
 -->
<!-- Title: MojLunaErr.cpp Pages: 1 -->
<svg width="575pt" height="436pt"
 viewBox="0.00 0.00 575.00 436.00" xmlns="http://www.w3.org/2000/svg" xmlns:xlink="http://www.w3.org/1999/xlink">
<g id="graph1" class="graph" transform="scale(1 1) rotate(0) translate(4 432)">
<title>MojLunaErr.cpp</title>
<polygon fill="white" stroke="white" points="-4,5 -4,-432 572,-432 572,5 -4,5"/>
<!-- Node1 -->
<g id="node1" class="node"><title>Node1</title>
<polygon fill="#bfbfbf" stroke="black" points="470.5,-406.5 470.5,-427.5 561.5,-427.5 561.5,-406.5 470.5,-406.5"/>
<text text-anchor="middle" x="516" y="-414.5" font-family="Helvetica,sans-Serif" font-size="10.00">MojLunaErr.cpp</text>
</g>
<!-- Node2 -->
<g id="node3" class="node"><title>Node2</title>
<a xlink:href="MojLunaErr_8h.htm" target="_top" xlink:title="luna/MojLunaErr.h">
<polygon fill="white" stroke="black" points="465,-348.5 465,-369.5 567,-369.5 567,-348.5 465,-348.5"/>
<text text-anchor="middle" x="516" y="-356.5" font-family="Helvetica,sans-Serif" font-size="10.00">luna/MojLunaErr.h</text>
</a>
</g>
<!-- Node1&#45;&gt;Node2 -->
<g id="edge2" class="edge"><title>Node1&#45;&gt;Node2</title>
<path fill="none" stroke="midnightblue" d="M516,-406.362C516,-398.922 516,-388.743 516,-379.728"/>
<polygon fill="midnightblue" stroke="midnightblue" points="519.5,-379.571 516,-369.571 512.5,-379.571 519.5,-379.571"/>
</g>
<!-- Node3 -->
<g id="node5" class="node"><title>Node3</title>
<a xlink:href="MojLunaDefs_8h.htm" target="_top" xlink:title="luna/MojLunaDefs.h">
<polygon fill="white" stroke="black" points="412,-290.5 412,-311.5 522,-311.5 522,-290.5 412,-290.5"/>
<text text-anchor="middle" x="467" y="-298.5" font-family="Helvetica,sans-Serif" font-size="10.00">luna/MojLunaDefs.h</text>
</a>
</g>
<!-- Node2&#45;&gt;Node3 -->
<g id="edge4" class="edge"><title>Node2&#45;&gt;Node3</title>
<path fill="none" stroke="midnightblue" d="M507.013,-348.362C500.175,-340.268 490.598,-328.932 482.528,-319.38"/>
<polygon fill="midnightblue" stroke="midnightblue" points="485.058,-316.951 475.93,-311.571 479.71,-321.468 485.058,-316.951"/>
</g>
<!-- Node11 -->
<g id="node21" class="node"><title>Node11</title>
<a xlink:href="MojNoCopy_8h.htm" target="_top" xlink:title="core/MojNoCopy.h">
<polygon fill="white" stroke="black" points="433,-0.5 433,-21.5 537,-21.5 537,-0.5 433,-0.5"/>
<text text-anchor="middle" x="485" y="-8.5" font-family="Helvetica,sans-Serif" font-size="10.00">core/MojNoCopy.h</text>
</a>
</g>
<!-- Node2&#45;&gt;Node11 -->
<g id="edge28" class="edge"><title>Node2&#45;&gt;Node11</title>
<path fill="none" stroke="midnightblue" d="M524.033,-348.464C538.167,-328.843 566,-284.886 566,-243 566,-243 566,-243 566,-127 566,-85.9121 531.416,-48.9919 507.444,-28.336"/>
<polygon fill="midnightblue" stroke="midnightblue" points="509.412,-25.4209 499.481,-21.7279 504.941,-30.8075 509.412,-25.4209"/>
</g>
<!-- Node4 -->
<g id="node7" class="node"><title>Node4</title>
<a xlink:href="MojCoreDefs_8h.htm" target="_top" xlink:title="core/MojCoreDefs.h">
<polygon fill="white" stroke="black" points="267.5,-232.5 267.5,-253.5 378.5,-253.5 378.5,-232.5 267.5,-232.5"/>
<text text-anchor="middle" x="323" y="-240.5" font-family="Helvetica,sans-Serif" font-size="10.00">core/MojCoreDefs.h</text>
</a>
</g>
<!-- Node3&#45;&gt;Node4 -->
<g id="edge6" class="edge"><title>Node3&#45;&gt;Node4</title>
<path fill="none" stroke="midnightblue" d="M440.923,-290.497C417.925,-281.234 384.2,-267.65 358.7,-257.379"/>
<polygon fill="midnightblue" stroke="midnightblue" points="359.953,-254.111 349.37,-253.621 357.338,-260.604 359.953,-254.111"/>
</g>
<!-- Node14 -->
<g id="node27" class="node"><title>Node14</title>
<polygon fill="white" stroke="#bfbfbf" points="395.5,-232.5 395.5,-253.5 538.5,-253.5 538.5,-232.5 395.5,-232.5"/>
<text text-anchor="middle" x="467" y="-240.5" font-family="Helvetica,sans-Serif" font-size="10.00">luna&#45;service2/lunaservice.h</text>
</g>
<!-- Node3&#45;&gt;Node14 -->
<g id="edge26" class="edge"><title>Node3&#45;&gt;Node14</title>
<path fill="none" stroke="midnightblue" d="M467,-290.362C467,-282.922 467,-272.743 467,-263.728"/>
<polygon fill="midnightblue" stroke="midnightblue" points="470.5,-263.571 467,-253.571 463.5,-263.571 470.5,-263.571"/>
</g>
<!-- Node5 -->
<g id="node9" class="node"><title>Node5</title>
<a xlink:href="MojConfig_8h.htm" target="_top" xlink:title="core/internal/MojConfig.h">
<polygon fill="white" stroke="black" points="-0.5,-174.5 -0.5,-195.5 134.5,-195.5 134.5,-174.5 -0.5,-174.5"/>
<text text-anchor="middle" x="67" y="-182.5" font-family="Helvetica,sans-Serif" font-size="10.00">core/internal/MojConfig.h</text>
</a>
</g>
<!-- Node4&#45;&gt;Node5 -->
<g id="edge8" class="edge"><title>Node4&#45;&gt;Node5</title>
<path fill="none" stroke="midnightblue" d="M276.64,-232.497C233.55,-222.734 169.275,-208.172 123.264,-197.747"/>
<polygon fill="midnightblue" stroke="midnightblue" points="123.973,-194.319 113.447,-195.523 122.426,-201.146 123.973,-194.319"/>
</g>
<!-- Node6 -->
<g id="node11" class="node"><title>Node6</title>
<a xlink:href="MojNew_8h.htm" target="_top" xlink:title="core/internal/MojNew.h">
<polygon fill="white" stroke="black" points="151.5,-174.5 151.5,-195.5 276.5,-195.5 276.5,-174.5 151.5,-174.5"/>
<text text-anchor="middle" x="214" y="-182.5" font-family="Helvetica,sans-Serif" font-size="10.00">core/internal/MojNew.h</text>
</a>
</g>
<!-- Node4&#45;&gt;Node6 -->
<g id="edge10" class="edge"><title>Node4&#45;&gt;Node6</title>
<path fill="none" stroke="midnightblue" d="M303.261,-232.497C286.39,-223.519 261.891,-210.484 242.826,-200.339"/>
<polygon fill="midnightblue" stroke="midnightblue" points="244.433,-197.229 233.961,-195.621 241.144,-203.409 244.433,-197.229"/>
</g>
<!-- Node8 -->
<g id="node15" class="node"><title>Node8</title>
<a xlink:href="MojErr_8h.htm" target="_top" xlink:title="core/MojErr.h">
<polygon fill="white" stroke="black" points="294,-174.5 294,-195.5 374,-195.5 374,-174.5 294,-174.5"/>
<text text-anchor="middle" x="334" y="-182.5" font-family="Helvetica,sans-Serif" font-size="10.00">core/MojErr.h</text>
</a>
</g>
<!-- Node4&#45;&gt;Node8 -->
<g id="edge14" class="edge"><title>Node4&#45;&gt;Node8</title>
<path fill="none" stroke="midnightblue" d="M325.018,-232.362C326.444,-224.84 328.402,-214.519 330.125,-205.431"/>
<polygon fill="midnightblue" stroke="midnightblue" points="333.571,-206.048 331.995,-195.571 326.693,-204.743 333.571,-206.048"/>
</g>
<!-- Node12 -->
<g id="node23" class="node"><title>Node12</title>
<a xlink:href="MojOs_8h.htm" target="_top" xlink:title="core/MojOs.h">
<polygon fill="white" stroke="black" points="402,-174.5 402,-195.5 482,-195.5 482,-174.5 402,-174.5"/>
<text text-anchor="middle" x="442" y="-182.5" font-family="Helvetica,sans-Serif" font-size="10.00">core/MojOs.h</text>
</a>
</g>
<!-- Node4&#45;&gt;Node12 -->
<g id="edge22" class="edge"><title>Node4&#45;&gt;Node12</title>
<path fill="none" stroke="midnightblue" d="M344.55,-232.497C363.136,-223.438 390.202,-210.246 411.095,-200.063"/>
<polygon fill="midnightblue" stroke="midnightblue" points="412.753,-203.149 420.208,-195.621 409.686,-196.856 412.753,-203.149"/>
</g>
<!-- Node7 -->
<g id="node13" class="node"><title>Node7</title>
<polygon fill="white" stroke="#bfbfbf" points="196,-116.5 196,-137.5 232,-137.5 232,-116.5 196,-116.5"/>
<text text-anchor="middle" x="214" y="-124.5" font-family="Helvetica,sans-Serif" font-size="10.00">new</text>
</g>
<!-- Node6&#45;&gt;Node7 -->
<g id="edge12" class="edge"><title>Node6&#45;&gt;Node7</title>
<path fill="none" stroke="midnightblue" d="M214,-174.362C214,-166.922 214,-156.743 214,-147.728"/>
<polygon fill="midnightblue" stroke="midnightblue" points="217.5,-147.571 214,-137.571 210.5,-147.571 217.5,-147.571"/>
</g>
<!-- Node9 -->
<g id="node17" class="node"><title>Node9</title>
<a xlink:href="MojLog_8h.htm" target="_top" xlink:title="core/MojLog.h">
<polygon fill="white" stroke="black" points="282,-116.5 282,-137.5 366,-137.5 366,-116.5 282,-116.5"/>
<text text-anchor="middle" x="324" y="-124.5" font-family="Helvetica,sans-Serif" font-size="10.00">core/MojLog.h</text>
</a>
</g>
<!-- Node8&#45;&gt;Node9 -->
<g id="edge16" class="edge"><title>Node8&#45;&gt;Node9</title>
<path fill="none" stroke="midnightblue" d="M332.166,-174.362C330.869,-166.84 329.089,-156.519 327.523,-147.431"/>
<polygon fill="midnightblue" stroke="midnightblue" points="330.971,-146.831 325.823,-137.571 324.073,-148.02 330.971,-146.831"/>
</g>
<!-- Node10 -->
<g id="node19" class="node"><title>Node10</title>
<a xlink:href="MojListEntry_8h.htm" target="_top" xlink:title="core/MojListEntry.h">
<polygon fill="white" stroke="black" points="351.5,-58.5 351.5,-79.5 458.5,-79.5 458.5,-58.5 351.5,-58.5"/>
<text text-anchor="middle" x="405" y="-66.5" font-family="Helvetica,sans-Serif" font-size="10.00">core/MojListEntry.h</text>
</a>
</g>
<!-- Node9&#45;&gt;Node10 -->
<g id="edge18" class="edge"><title>Node9&#45;&gt;Node10</title>
<path fill="none" stroke="midnightblue" d="M338.857,-116.362C350.846,-107.777 367.927,-95.5459 381.728,-85.6636"/>
<polygon fill="midnightblue" stroke="midnightblue" points="384.145,-88.2383 390.238,-79.5707 380.069,-82.5469 384.145,-88.2383"/>
</g>
<!-- Node10&#45;&gt;Node11 -->
<g id="edge20" class="edge"><title>Node10&#45;&gt;Node11</title>
<path fill="none" stroke="midnightblue" d="M419.673,-58.3619C431.514,-49.7773 448.385,-37.5459 462.016,-27.6636"/>
<polygon fill="midnightblue" stroke="midnightblue" points="464.378,-30.274 470.42,-21.5707 460.269,-24.6067 464.378,-30.274"/>
</g>
<!-- Node13 -->
<g id="node25" class="node"><title>Node13</title>
<a xlink:href="MojOsInternal_8h.htm" target="_top" xlink:title="core/internal/MojOsInternal.h">
<polygon fill="white" stroke="black" points="384,-116.5 384,-137.5 538,-137.5 538,-116.5 384,-116.5"/>
<text text-anchor="middle" x="461" y="-124.5" font-family="Helvetica,sans-Serif" font-size="10.00">core/internal/MojOsInternal.h</text>
</a>
</g>
<!-- Node12&#45;&gt;Node13 -->
<g id="edge24" class="edge"><title>Node12&#45;&gt;Node13</title>
<path fill="none" stroke="midnightblue" d="M445.485,-174.362C447.976,-166.758 451.404,-156.294 454.404,-147.135"/>
<polygon fill="midnightblue" stroke="midnightblue" points="457.75,-148.163 457.537,-137.571 451.098,-145.984 457.75,-148.163"/>
</g>
</g>
</svg>
