<?xml version="1.0" encoding="UTF-8" standalone="no"?>
<!DOCTYPE svg PUBLIC "-//W3C//DTD SVG 1.1//EN"
 "http://www.w3.org/Graphics/SVG/1.1/DTD/svg11.dtd">
<!-- Generated by graphviz version 2.26.3 (20100126.1600)
 -->
<!-- Title: MojLunaRequest.h Pages: 1 -->
<svg width="1704pt" height="812pt"
 viewBox="0.00 0.00 1704.00 812.00" xmlns="http://www.w3.org/2000/svg" xmlns:xlink="http://www.w3.org/1999/xlink">
<g id="graph1" class="graph" transform="scale(1 1) rotate(0) translate(4 808)">
<title>MojLunaRequest.h</title>
<polygon fill="white" stroke="white" points="-4,5 -4,-808 1701,-808 1701,5 -4,5"/>
<!-- Node1 -->
<g id="node1" class="node"><title>Node1</title>
<polygon fill="#bfbfbf" stroke="black" points="1233,-782.5 1233,-803.5 1337,-803.5 1337,-782.5 1233,-782.5"/>
<text text-anchor="middle" x="1285" y="-790.5" font-family="Helvetica,sans-Serif" font-size="10.00">MojLunaRequest.h</text>
</g>
<!-- Node2 -->
<g id="node3" class="node"><title>Node2</title>
<a xlink:href="MojLunaDefs_8h.htm" target="_top" xlink:title="MojLunaDefs.h">
<polygon fill="white" stroke="black" points="1241.5,-724.5 1241.5,-745.5 1328.5,-745.5 1328.5,-724.5 1241.5,-724.5"/>
<text text-anchor="middle" x="1285" y="-732.5" font-family="Helvetica,sans-Serif" font-size="10.00">MojLunaDefs.h</text>
</a>
</g>
<!-- Node1&#45;&gt;Node2 -->
<g id="edge2" class="edge"><title>Node1&#45;&gt;Node2</title>
<path fill="none" stroke="midnightblue" d="M1285,-782.362C1285,-774.922 1285,-764.743 1285,-755.728"/>
<polygon fill="midnightblue" stroke="midnightblue" points="1288.5,-755.571 1285,-745.571 1281.5,-755.571 1288.5,-755.571"/>
</g>
<!-- Node14 -->
<g id="node27" class="node"><title>Node14</title>
<a xlink:href="MojJson_8h.htm" target="_top" xlink:title="core/MojJson.h">
<polygon fill="white" stroke="black" points="1089.5,-724.5 1089.5,-745.5 1178.5,-745.5 1178.5,-724.5 1089.5,-724.5"/>
<text text-anchor="middle" x="1134" y="-732.5" font-family="Helvetica,sans-Serif" font-size="10.00">core/MojJson.h</text>
</a>
</g>
<!-- Node1&#45;&gt;Node14 -->
<g id="edge26" class="edge"><title>Node1&#45;&gt;Node14</title>
<path fill="none" stroke="midnightblue" d="M1257.66,-782.497C1233.36,-773.164 1197.64,-759.445 1170.83,-749.147"/>
<polygon fill="midnightblue" stroke="midnightblue" points="1171.99,-745.842 1161.4,-745.523 1169.48,-752.376 1171.99,-745.842"/>
</g>
<!-- Node31 -->
<g id="node85" class="node"><title>Node31</title>
<a xlink:href="MojServiceRequest_8h.htm" target="_top" xlink:title="core/MojServiceRequest.h">
<polygon fill="white" stroke="black" points="1360,-666.5 1360,-687.5 1500,-687.5 1500,-666.5 1360,-666.5"/>
<text text-anchor="middle" x="1430" y="-674.5" font-family="Helvetica,sans-Serif" font-size="10.00">core/MojServiceRequest.h</text>
</a>
</g>
<!-- Node1&#45;&gt;Node31 -->
<g id="edge108" class="edge"><title>Node1&#45;&gt;Node31</title>
<path fill="none" stroke="midnightblue" d="M1298.38,-782.295C1323.63,-762.096 1378.48,-718.216 1408.8,-693.963"/>
<polygon fill="midnightblue" stroke="midnightblue" points="1411.03,-696.659 1416.65,-687.679 1406.66,-691.193 1411.03,-696.659"/>
</g>
<!-- Node3 -->
<g id="node5" class="node"><title>Node3</title>
<a xlink:href="MojCoreDefs_8h.htm" target="_top" xlink:title="core/MojCoreDefs.h">
<polygon fill="white" stroke="black" points="787.5,-232.5 787.5,-253.5 898.5,-253.5 898.5,-232.5 787.5,-232.5"/>
<text text-anchor="middle" x="843" y="-240.5" font-family="Helvetica,sans-Serif" font-size="10.00">core/MojCoreDefs.h</text>
</a>
</g>
<!-- Node2&#45;&gt;Node3 -->
<g id="edge4" class="edge"><title>Node2&#45;&gt;Node3</title>
<path fill="none" stroke="midnightblue" d="M1292.55,-724.389C1305.84,-704.648 1332,-660.503 1332,-619 1332,-619 1332,-619 1332,-373 1332,-286.423 1042.09,-256.098 908.716,-246.728"/>
<polygon fill="midnightblue" stroke="midnightblue" points="908.834,-243.228 898.618,-246.038 908.356,-250.212 908.834,-243.228"/>
</g>
<!-- Node13 -->
<g id="node25" class="node"><title>Node13</title>
<polygon fill="white" stroke="#bfbfbf" points="1161.5,-666.5 1161.5,-687.5 1304.5,-687.5 1304.5,-666.5 1161.5,-666.5"/>
<text text-anchor="middle" x="1233" y="-674.5" font-family="Helvetica,sans-Serif" font-size="10.00">luna&#45;service2/lunaservice.h</text>
</g>
<!-- Node2&#45;&gt;Node13 -->
<g id="edge24" class="edge"><title>Node2&#45;&gt;Node13</title>
<path fill="none" stroke="midnightblue" d="M1275.46,-724.362C1268.13,-716.186 1257.84,-704.702 1249.22,-695.091"/>
<polygon fill="midnightblue" stroke="midnightblue" points="1251.76,-692.68 1242.48,-687.571 1246.55,-697.353 1251.76,-692.68"/>
</g>
<!-- Node4 -->
<g id="node7" class="node"><title>Node4</title>
<a xlink:href="MojConfig_8h.htm" target="_top" xlink:title="core/internal/MojConfig.h">
<polygon fill="white" stroke="black" points="949.5,-174.5 949.5,-195.5 1084.5,-195.5 1084.5,-174.5 949.5,-174.5"/>
<text text-anchor="middle" x="1017" y="-182.5" font-family="Helvetica,sans-Serif" font-size="10.00">core/internal/MojConfig.h</text>
</a>
</g>
<!-- Node3&#45;&gt;Node4 -->
<g id="edge6" class="edge"><title>Node3&#45;&gt;Node4</title>
<path fill="none" stroke="midnightblue" d="M874.51,-232.497C902.877,-223.041 944.751,-209.083 975.772,-198.743"/>
<polygon fill="midnightblue" stroke="midnightblue" points="977.051,-202.006 985.431,-195.523 974.837,-195.365 977.051,-202.006"/>
</g>
<!-- Node5 -->
<g id="node9" class="node"><title>Node5</title>
<a xlink:href="MojNew_8h.htm" target="_top" xlink:title="core/internal/MojNew.h">
<polygon fill="white" stroke="black" points="611.5,-174.5 611.5,-195.5 736.5,-195.5 736.5,-174.5 611.5,-174.5"/>
<text text-anchor="middle" x="674" y="-182.5" font-family="Helvetica,sans-Serif" font-size="10.00">core/internal/MojNew.h</text>
</a>
</g>
<!-- Node3&#45;&gt;Node5 -->
<g id="edge8" class="edge"><title>Node3&#45;&gt;Node5</title>
<path fill="none" stroke="midnightblue" d="M812.395,-232.497C784.963,-223.082 744.524,-209.204 714.436,-198.877"/>
<polygon fill="midnightblue" stroke="midnightblue" points="715.257,-195.459 704.662,-195.523 712.984,-202.08 715.257,-195.459"/>
</g>
<!-- Node7 -->
<g id="node13" class="node"><title>Node7</title>
<a xlink:href="MojErr_8h.htm" target="_top" xlink:title="core/MojErr.h">
<polygon fill="white" stroke="black" points="754,-174.5 754,-195.5 834,-195.5 834,-174.5 754,-174.5"/>
<text text-anchor="middle" x="794" y="-182.5" font-family="Helvetica,sans-Serif" font-size="10.00">core/MojErr.h</text>
</a>
</g>
<!-- Node3&#45;&gt;Node7 -->
<g id="edge12" class="edge"><title>Node3&#45;&gt;Node7</title>
<path fill="none" stroke="midnightblue" d="M834.013,-232.362C827.175,-224.268 817.598,-212.932 809.528,-203.38"/>
<polygon fill="midnightblue" stroke="midnightblue" points="812.058,-200.951 802.93,-195.571 806.71,-205.468 812.058,-200.951"/>
</g>
<!-- Node11 -->
<g id="node21" class="node"><title>Node11</title>
<a xlink:href="MojOs_8h.htm" target="_top" xlink:title="core/MojOs.h">
<polygon fill="white" stroke="black" points="852,-174.5 852,-195.5 932,-195.5 932,-174.5 852,-174.5"/>
<text text-anchor="middle" x="892" y="-182.5" font-family="Helvetica,sans-Serif" font-size="10.00">core/MojOs.h</text>
</a>
</g>
<!-- Node3&#45;&gt;Node11 -->
<g id="edge20" class="edge"><title>Node3&#45;&gt;Node11</title>
<path fill="none" stroke="midnightblue" d="M851.987,-232.362C858.825,-224.268 868.402,-212.932 876.472,-203.38"/>
<polygon fill="midnightblue" stroke="midnightblue" points="879.29,-205.468 883.07,-195.571 873.942,-200.951 879.29,-205.468"/>
</g>
<!-- Node6 -->
<g id="node11" class="node"><title>Node6</title>
<polygon fill="white" stroke="#bfbfbf" points="656,-116.5 656,-137.5 692,-137.5 692,-116.5 656,-116.5"/>
<text text-anchor="middle" x="674" y="-124.5" font-family="Helvetica,sans-Serif" font-size="10.00">new</text>
</g>
<!-- Node5&#45;&gt;Node6 -->
<g id="edge10" class="edge"><title>Node5&#45;&gt;Node6</title>
<path fill="none" stroke="midnightblue" d="M674,-174.362C674,-166.922 674,-156.743 674,-147.728"/>
<polygon fill="midnightblue" stroke="midnightblue" points="677.5,-147.571 674,-137.571 670.5,-147.571 677.5,-147.571"/>
</g>
<!-- Node8 -->
<g id="node15" class="node"><title>Node8</title>
<a xlink:href="MojLog_8h.htm" target="_top" xlink:title="core/MojLog.h">
<polygon fill="white" stroke="black" points="711,-116.5 711,-137.5 795,-137.5 795,-116.5 711,-116.5"/>
<text text-anchor="middle" x="753" y="-124.5" font-family="Helvetica,sans-Serif" font-size="10.00">core/MojLog.h</text>
</a>
</g>
<!-- Node7&#45;&gt;Node8 -->
<g id="edge14" class="edge"><title>Node7&#45;&gt;Node8</title>
<path fill="none" stroke="midnightblue" d="M786.48,-174.362C780.874,-166.431 773.068,-155.389 766.403,-145.961"/>
<polygon fill="midnightblue" stroke="midnightblue" points="769.103,-143.716 760.472,-137.571 763.387,-147.757 769.103,-143.716"/>
</g>
<!-- Node9 -->
<g id="node17" class="node"><title>Node9</title>
<a xlink:href="MojListEntry_8h.htm" target="_top" xlink:title="core/MojListEntry.h">
<polygon fill="white" stroke="black" points="655.5,-58.5 655.5,-79.5 762.5,-79.5 762.5,-58.5 655.5,-58.5"/>
<text text-anchor="middle" x="709" y="-66.5" font-family="Helvetica,sans-Serif" font-size="10.00">core/MojListEntry.h</text>
</a>
</g>
<!-- Node8&#45;&gt;Node9 -->
<g id="edge16" class="edge"><title>Node8&#45;&gt;Node9</title>
<path fill="none" stroke="midnightblue" d="M744.93,-116.362C738.851,-108.35 730.363,-97.1605 723.163,-87.6696"/>
<polygon fill="midnightblue" stroke="midnightblue" points="725.851,-85.4222 717.019,-79.5707 720.275,-89.653 725.851,-85.4222"/>
</g>
<!-- Node10 -->
<g id="node19" class="node"><title>Node10</title>
<a xlink:href="MojNoCopy_8h.htm" target="_top" xlink:title="core/MojNoCopy.h">
<polygon fill="white" stroke="black" points="594,-0.5 594,-21.5 698,-21.5 698,-0.5 594,-0.5"/>
<text text-anchor="middle" x="646" y="-8.5" font-family="Helvetica,sans-Serif" font-size="10.00">core/MojNoCopy.h</text>
</a>
</g>
<!-- Node9&#45;&gt;Node10 -->
<g id="edge18" class="edge"><title>Node9&#45;&gt;Node10</title>
<path fill="none" stroke="midnightblue" d="M697.445,-58.3619C688.387,-50.0226 675.59,-38.2418 665.026,-28.5162"/>
<polygon fill="midnightblue" stroke="midnightblue" points="667.21,-25.7688 657.482,-21.5707 662.468,-30.9187 667.21,-25.7688"/>
</g>
<!-- Node12 -->
<g id="node23" class="node"><title>Node12</title>
<a xlink:href="MojOsInternal_8h.htm" target="_top" xlink:title="core/internal/MojOsInternal.h">
<polygon fill="white" stroke="black" points="815,-116.5 815,-137.5 969,-137.5 969,-116.5 815,-116.5"/>
<text text-anchor="middle" x="892" y="-124.5" font-family="Helvetica,sans-Serif" font-size="10.00">core/internal/MojOsInternal.h</text>
</a>
</g>
<!-- Node11&#45;&gt;Node12 -->
<g id="edge22" class="edge"><title>Node11&#45;&gt;Node12</title>
<path fill="none" stroke="midnightblue" d="M892,-174.362C892,-166.922 892,-156.743 892,-147.728"/>
<polygon fill="midnightblue" stroke="midnightblue" points="895.5,-147.571 892,-137.571 888.5,-147.571 895.5,-147.571"/>
</g>
<!-- Node14&#45;&gt;Node3 -->
<g id="edge28" class="edge"><title>Node14&#45;&gt;Node3</title>
<path fill="none" stroke="midnightblue" d="M1135.91,-724.384C1138.63,-710.545 1144.26,-685.776 1153,-666 1185.29,-592.914 1226.79,-590.753 1249,-514 1267.37,-450.512 1198.38,-397.743 1176,-362 1155.33,-328.978 1158.92,-310.833 1126,-290 1090.85,-267.757 981.088,-254.531 909.043,-248.025"/>
<polygon fill="midnightblue" stroke="midnightblue" points="908.97,-244.505 898.701,-247.113 908.355,-251.478 908.97,-244.505"/>
</g>
<!-- Node15 -->
<g id="node30" class="node"><title>Node15</title>
<a xlink:href="MojObject_8h.htm" target="_top" xlink:title="core/MojObject.h">
<polygon fill="white" stroke="black" points="582,-666.5 582,-687.5 678,-687.5 678,-666.5 582,-666.5"/>
<text text-anchor="middle" x="630" y="-674.5" font-family="Helvetica,sans-Serif" font-size="10.00">core/MojObject.h</text>
</a>
</g>
<!-- Node14&#45;&gt;Node15 -->
<g id="edge30" class="edge"><title>Node14&#45;&gt;Node15</title>
<path fill="none" stroke="midnightblue" d="M1089.27,-729.853C997.971,-719.346 790.197,-695.435 688.401,-683.721"/>
<polygon fill="midnightblue" stroke="midnightblue" points="688.632,-680.224 678.297,-682.558 687.831,-687.178 688.632,-680.224"/>
</g>
<!-- Node15&#45;&gt;Node3 -->
<g id="edge32" class="edge"><title>Node15&#45;&gt;Node3</title>
<path fill="none" stroke="midnightblue" d="M633.494,-666.384C641.967,-640.485 664.076,-571.94 680,-514 707.253,-414.838 670.433,-367.527 738,-290 751.297,-274.742 770.52,-264.2 788.893,-257.03"/>
<polygon fill="midnightblue" stroke="midnightblue" points="790.184,-260.285 798.388,-253.58 787.794,-253.705 790.184,-260.285"/>
</g>
<!-- Node16 -->
<g id="node33" class="node"><title>Node16</title>
<a xlink:href="MojDecimal_8h.htm" target="_top" xlink:title="core/MojDecimal.h">
<polygon fill="white" stroke="black" points="0,-550.5 0,-571.5 104,-571.5 104,-550.5 0,-550.5"/>
<text text-anchor="middle" x="52" y="-558.5" font-family="Helvetica,sans-Serif" font-size="10.00">core/MojDecimal.h</text>
</a>
</g>
<!-- Node15&#45;&gt;Node16 -->
<g id="edge34" class="edge"><title>Node15&#45;&gt;Node16</title>
<path fill="none" stroke="midnightblue" d="M581.692,-675.453C505.161,-672.097 351.822,-661.682 226,-630 174.086,-616.928 116.932,-592.107 82.78,-576.071"/>
<polygon fill="midnightblue" stroke="midnightblue" points="83.9003,-572.728 73.3659,-571.599 80.8966,-579.051 83.9003,-572.728"/>
</g>
<!-- Node21 -->
<g id="node47" class="node"><title>Node21</title>
<a xlink:href="MojMap_8h.htm" target="_top" xlink:title="core/MojMap.h">
<polygon fill="white" stroke="black" points="895.5,-492.5 895.5,-513.5 982.5,-513.5 982.5,-492.5 895.5,-492.5"/>
<text text-anchor="middle" x="939" y="-500.5" font-family="Helvetica,sans-Serif" font-size="10.00">core/MojMap.h</text>
</a>
</g>
<!-- Node15&#45;&gt;Node21 -->
<g id="edge52" class="edge"><title>Node15&#45;&gt;Node21</title>
<path fill="none" stroke="midnightblue" d="M648.864,-666.377C701.335,-636.831 849.207,-553.563 911.154,-518.68"/>
<polygon fill="midnightblue" stroke="midnightblue" points="912.994,-521.661 919.99,-513.705 909.559,-515.562 912.994,-521.661"/>
</g>
<!-- Node26 -->
<g id="node63" class="node"><title>Node26</title>
<a xlink:href="MojString_8h.htm" target="_top" xlink:title="core/MojString.h">
<polygon fill="white" stroke="black" points="235,-608.5 235,-629.5 329,-629.5 329,-608.5 235,-608.5"/>
<text text-anchor="middle" x="282" y="-616.5" font-family="Helvetica,sans-Serif" font-size="10.00">core/MojString.h</text>
</a>
</g>
<!-- Node15&#45;&gt;Node26 -->
<g id="edge74" class="edge"><title>Node15&#45;&gt;Node26</title>
<path fill="none" stroke="midnightblue" d="M581.977,-668.996C518.574,-658.429 407.071,-639.845 339.326,-628.554"/>
<polygon fill="midnightblue" stroke="midnightblue" points="339.691,-625.067 329.251,-626.875 338.54,-631.972 339.691,-625.067"/>
</g>
<!-- Node27 -->
<g id="node69" class="node"><title>Node27</title>
<a xlink:href="MojVector_8h.htm" target="_top" xlink:title="core/MojVector.h">
<polygon fill="white" stroke="black" points="358.5,-550.5 358.5,-571.5 455.5,-571.5 455.5,-550.5 358.5,-550.5"/>
<text text-anchor="middle" x="407" y="-558.5" font-family="Helvetica,sans-Serif" font-size="10.00">core/MojVector.h</text>
</a>
</g>
<!-- Node15&#45;&gt;Node27 -->
<g id="edge106" class="edge"><title>Node15&#45;&gt;Node27</title>
<path fill="none" stroke="midnightblue" d="M609.42,-666.295C569.658,-645.612 482.165,-600.099 436.325,-576.254"/>
<polygon fill="midnightblue" stroke="midnightblue" points="437.694,-573.021 427.208,-571.512 434.464,-579.232 437.694,-573.021"/>
</g>
<!-- Node16&#45;&gt;Node3 -->
<g id="edge36" class="edge"><title>Node16&#45;&gt;Node3</title>
<path fill="none" stroke="midnightblue" d="M46.393,-550.481C35.8226,-529.638 14,-481.359 14,-438 14,-438 14,-438 14,-373 14,-312.109 65.9698,-311.336 123,-290 183.296,-267.442 611.031,-250.806 777.209,-245.127"/>
<polygon fill="midnightblue" stroke="midnightblue" points="777.422,-248.622 787.297,-244.785 777.184,-241.626 777.422,-248.622"/>
</g>
<!-- Node17 -->
<g id="node36" class="node"><title>Node17</title>
<a xlink:href="MojHasher_8h.htm" target="_top" xlink:title="core/MojHasher.h">
<polygon fill="white" stroke="black" points="41.5,-492.5 41.5,-513.5 142.5,-513.5 142.5,-492.5 41.5,-492.5"/>
<text text-anchor="middle" x="92" y="-500.5" font-family="Helvetica,sans-Serif" font-size="10.00">core/MojHasher.h</text>
</a>
</g>
<!-- Node16&#45;&gt;Node17 -->
<g id="edge38" class="edge"><title>Node16&#45;&gt;Node17</title>
<path fill="none" stroke="midnightblue" d="M59.3366,-550.362C64.806,-542.431 72.4217,-531.389 78.9237,-521.961"/>
<polygon fill="midnightblue" stroke="midnightblue" points="81.9138,-523.79 84.7099,-513.571 76.1513,-519.816 81.9138,-523.79"/>
</g>
<!-- Node17&#45;&gt;Node3 -->
<g id="edge40" class="edge"><title>Node17&#45;&gt;Node3</title>
<path fill="none" stroke="midnightblue" d="M91.4062,-492.345C90.0753,-456.825 91.1162,-341.787 156,-290 180.053,-270.802 609.988,-252.076 777.219,-245.487"/>
<polygon fill="midnightblue" stroke="midnightblue" points="777.516,-248.978 787.372,-245.089 777.242,-241.983 777.516,-248.978"/>
</g>
<!-- Node18 -->
<g id="node39" class="node"><title>Node18</title>
<a xlink:href="MojUtil_8h.htm" target="_top" xlink:title="core/MojUtil.h">
<polygon fill="white" stroke="black" points="235.5,-427.5 235.5,-448.5 316.5,-448.5 316.5,-427.5 235.5,-427.5"/>
<text text-anchor="middle" x="276" y="-435.5" font-family="Helvetica,sans-Serif" font-size="10.00">core/MojUtil.h</text>
</a>
</g>
<!-- Node17&#45;&gt;Node18 -->
<g id="edge42" class="edge"><title>Node17&#45;&gt;Node18</title>
<path fill="none" stroke="midnightblue" d="M121.972,-492.412C153.114,-481.411 202.005,-464.14 236.332,-452.013"/>
<polygon fill="midnightblue" stroke="midnightblue" points="237.777,-455.215 246.041,-448.584 235.446,-448.614 237.777,-455.215"/>
</g>
<!-- Node18&#45;&gt;Node3 -->
<g id="edge44" class="edge"><title>Node18&#45;&gt;Node3</title>
<path fill="none" stroke="midnightblue" d="M280.002,-427.143C291.27,-398.378 326.321,-320.334 385,-290 451.637,-255.552 666.762,-246.352 776.815,-243.895"/>
<polygon fill="midnightblue" stroke="midnightblue" points="777.205,-247.388 787.129,-243.678 777.057,-240.39 777.205,-247.388"/>
</g>
<!-- Node19 -->
<g id="node42" class="node"><title>Node19</title>
<a xlink:href="MojUtilInternal_8h.htm" target="_top" xlink:title="core/internal/MojUtilInternal.h">
<polygon fill="white" stroke="black" points="363.5,-362.5 363.5,-383.5 518.5,-383.5 518.5,-362.5 363.5,-362.5"/>
<text text-anchor="middle" x="441" y="-370.5" font-family="Helvetica,sans-Serif" font-size="10.00">core/internal/MojUtilInternal.h</text>
</a>
</g>
<!-- Node18&#45;&gt;Node19 -->
<g id="edge46" class="edge"><title>Node18&#45;&gt;Node19</title>
<path fill="none" stroke="midnightblue" d="M302.877,-427.412C330.564,-416.505 373.894,-399.436 404.632,-387.327"/>
<polygon fill="midnightblue" stroke="midnightblue" points="406.113,-390.505 414.134,-383.584 403.547,-383.992 406.113,-390.505"/>
</g>
<!-- Node20 -->
<g id="node44" class="node"><title>Node20</title>
<a xlink:href="MojComp_8h.htm" target="_top" xlink:title="core/MojComp.h">
<polygon fill="white" stroke="black" points="394,-297.5 394,-318.5 488,-318.5 488,-297.5 394,-297.5"/>
<text text-anchor="middle" x="441" y="-305.5" font-family="Helvetica,sans-Serif" font-size="10.00">core/MojComp.h</text>
</a>
</g>
<!-- Node19&#45;&gt;Node20 -->
<g id="edge48" class="edge"><title>Node19&#45;&gt;Node20</title>
<path fill="none" stroke="midnightblue" d="M441,-362.267C441,-353.18 441,-339.892 441,-328.74"/>
<polygon fill="midnightblue" stroke="midnightblue" points="444.5,-328.534 441,-318.534 437.5,-328.534 444.5,-328.534"/>
</g>
<!-- Node20&#45;&gt;Node3 -->
<g id="edge50" class="edge"><title>Node20&#45;&gt;Node3</title>
<path fill="none" stroke="midnightblue" d="M488.155,-298.251C502.235,-295.454 517.721,-292.49 532,-290 616.335,-275.294 714.01,-260.974 777.059,-252.082"/>
<polygon fill="midnightblue" stroke="midnightblue" points="777.844,-255.506 787.259,-250.648 776.869,-248.574 777.844,-255.506"/>
</g>
<!-- Node21&#45;&gt;Node3 -->
<g id="edge54" class="edge"><title>Node21&#45;&gt;Node3</title>
<path fill="none" stroke="midnightblue" d="M982.611,-500.115C1040.77,-495.254 1138.99,-483.163 1161,-456 1171.07,-443.57 1166.57,-434.999 1161,-420 1134.45,-348.507 1114.33,-329.339 1049,-290 1025.58,-275.897 959.589,-262.283 908.545,-253.369"/>
<polygon fill="midnightblue" stroke="midnightblue" points="909.002,-249.896 898.553,-251.651 907.815,-256.795 909.002,-249.896"/>
</g>
<!-- Node21&#45;&gt;Node20 -->
<g id="edge56" class="edge"><title>Node21&#45;&gt;Node20</title>
<path fill="none" stroke="midnightblue" d="M895.237,-494.841C856.234,-486.945 797.923,-473.594 749,-456 641.304,-417.27 521.015,-352.865 468.271,-323.476"/>
<polygon fill="midnightblue" stroke="midnightblue" points="469.954,-320.407 459.519,-318.574 466.533,-326.514 469.954,-320.407"/>
</g>
<!-- Node22 -->
<g id="node51" class="node"><title>Node22</title>
<a xlink:href="MojRbTreeBase_8h.htm" target="_top" xlink:title="core/internal/MojRbTreeBase.h">
<polygon fill="white" stroke="black" points="988,-427.5 988,-448.5 1152,-448.5 1152,-427.5 988,-427.5"/>
<text text-anchor="middle" x="1070" y="-435.5" font-family="Helvetica,sans-Serif" font-size="10.00">core/internal/MojRbTreeBase.h</text>
</a>
</g>
<!-- Node21&#45;&gt;Node22 -->
<g id="edge58" class="edge"><title>Node21&#45;&gt;Node22</title>
<path fill="none" stroke="midnightblue" d="M960.339,-492.412C981.845,-481.741 1015.24,-465.172 1039.53,-453.12"/>
<polygon fill="midnightblue" stroke="midnightblue" points="1041.27,-456.164 1048.67,-448.584 1038.16,-449.893 1041.27,-456.164"/>
</g>
<!-- Node22&#45;&gt;Node3 -->
<g id="edge60" class="edge"><title>Node22&#45;&gt;Node3</title>
<path fill="none" stroke="midnightblue" d="M1070,-427.252C1069.4,-400.074 1063.91,-328.07 1024,-290 1007.29,-274.063 953.271,-261.326 908.56,-253.153"/>
<polygon fill="midnightblue" stroke="midnightblue" points="909.054,-249.687 898.595,-251.378 907.826,-256.578 909.054,-249.687"/>
</g>
<!-- Node23 -->
<g id="node54" class="node"><title>Node23</title>
<a xlink:href="MojAutoPtr_8h.htm" target="_top" xlink:title="core/MojAutoPtr.h">
<polygon fill="white" stroke="black" points="725.5,-362.5 725.5,-383.5 826.5,-383.5 826.5,-362.5 725.5,-362.5"/>
<text text-anchor="middle" x="776" y="-370.5" font-family="Helvetica,sans-Serif" font-size="10.00">core/MojAutoPtr.h</text>
</a>
</g>
<!-- Node22&#45;&gt;Node23 -->
<g id="edge62" class="edge"><title>Node22&#45;&gt;Node23</title>
<path fill="none" stroke="midnightblue" d="M1022.44,-427.484C970.878,-416.085 888.595,-397.894 833.46,-385.704"/>
<polygon fill="midnightblue" stroke="midnightblue" points="834.014,-382.242 823.495,-383.501 832.503,-389.077 834.014,-382.242"/>
</g>
<!-- Node23&#45;&gt;Node3 -->
<g id="edge64" class="edge"><title>Node23&#45;&gt;Node3</title>
<path fill="none" stroke="midnightblue" d="M766.887,-362.369C753.935,-345.897 733.319,-313.643 748,-290 757.413,-274.841 773.325,-264.423 789.463,-257.329"/>
<polygon fill="midnightblue" stroke="midnightblue" points="790.965,-260.497 798.943,-253.525 788.359,-254.001 790.965,-260.497"/>
</g>
<!-- Node23&#45;&gt;Node10 -->
<g id="edge70" class="edge"><title>Node23&#45;&gt;Node10</title>
<path fill="none" stroke="midnightblue" d="M727.054,-362.425C670.169,-346.919 584,-312.038 584,-243 584,-243 584,-243 584,-127 584,-88.6979 610.617,-50.7886 628.971,-29.2006"/>
<polygon fill="midnightblue" stroke="midnightblue" points="631.771,-31.318 635.762,-21.5037 626.521,-26.6868 631.771,-31.318"/>
</g>
<!-- Node24 -->
<g id="node57" class="node"><title>Node24</title>
<a xlink:href="MojAtomicInt_8h.htm" target="_top" xlink:title="core/MojAtomicInt.h">
<polygon fill="white" stroke="black" points="905,-297.5 905,-318.5 1015,-318.5 1015,-297.5 905,-297.5"/>
<text text-anchor="middle" x="960" y="-305.5" font-family="Helvetica,sans-Serif" font-size="10.00">core/MojAtomicInt.h</text>
</a>
</g>
<!-- Node23&#45;&gt;Node24 -->
<g id="edge66" class="edge"><title>Node23&#45;&gt;Node24</title>
<path fill="none" stroke="midnightblue" d="M805.972,-362.412C837.114,-351.411 886.005,-334.14 920.332,-322.013"/>
<polygon fill="midnightblue" stroke="midnightblue" points="921.777,-325.215 930.041,-318.584 919.446,-318.614 921.777,-325.215"/>
</g>
<!-- Node25 -->
<g id="node61" class="node"><title>Node25</title>
<a xlink:href="MojAutoPtrInternal_8h.htm" target="_top" xlink:title="core/internal/MojAutoPtr\lInternal.h">
<polygon fill="white" stroke="black" points="756.5,-291 756.5,-325 887.5,-325 887.5,-291 756.5,-291"/>
<text text-anchor="start" x="764.5" y="-312" font-family="Helvetica,sans-Serif" font-size="10.00">core/internal/MojAutoPtr</text>
<text text-anchor="middle" x="822" y="-299" font-family="Helvetica,sans-Serif" font-size="10.00">Internal.h</text>
</a>
</g>
<!-- Node23&#45;&gt;Node25 -->
<g id="edge72" class="edge"><title>Node23&#45;&gt;Node25</title>
<path fill="none" stroke="midnightblue" d="M783.596,-362.267C789.122,-354.458 796.844,-343.546 803.916,-333.554"/>
<polygon fill="midnightblue" stroke="midnightblue" points="806.972,-335.294 809.891,-325.11 801.258,-331.251 806.972,-335.294"/>
</g>
<!-- Node24&#45;&gt;Node3 -->
<g id="edge68" class="edge"><title>Node24&#45;&gt;Node3</title>
<path fill="none" stroke="midnightblue" d="M940.942,-297.412C921.904,-286.836 892.436,-270.465 870.793,-258.441"/>
<polygon fill="midnightblue" stroke="midnightblue" points="872.492,-255.38 862.05,-253.584 869.092,-261.5 872.492,-255.38"/>
</g>
<!-- Node26&#45;&gt;Node3 -->
<g id="edge76" class="edge"><title>Node26&#45;&gt;Node3</title>
<path fill="none" stroke="midnightblue" d="M259.604,-608.439C226.92,-591.289 170,-554.089 170,-503 170,-503 170,-503 170,-373 170,-290.116 257.274,-312.661 337,-290 417.936,-266.995 659.174,-252.179 776.902,-246.12"/>
<polygon fill="midnightblue" stroke="midnightblue" points="777.407,-249.599 787.216,-245.596 777.051,-242.608 777.407,-249.599"/>
</g>
<!-- Node26&#45;&gt;Node17 -->
<g id="edge82" class="edge"><title>Node26&#45;&gt;Node17</title>
<path fill="none" stroke="midnightblue" d="M239.392,-608.497C213.812,-600.925 181.414,-589.016 156,-572 135.685,-558.398 117.253,-537.123 105.444,-521.792"/>
<polygon fill="midnightblue" stroke="midnightblue" points="108.08,-519.473 99.2913,-513.556 102.471,-523.662 108.08,-519.473"/>
</g>
<!-- Node26&#45;&gt;Node20 -->
<g id="edge80" class="edge"><title>Node26&#45;&gt;Node20</title>
<path fill="none" stroke="midnightblue" d="M269.11,-608.3C247.909,-589.417 208,-547.909 208,-503 208,-503 208,-503 208,-438 208,-357.646 314.984,-326.499 383.965,-314.768"/>
<polygon fill="midnightblue" stroke="midnightblue" points="384.534,-318.222 393.849,-313.174 383.419,-311.311 384.534,-318.222"/>
</g>
<!-- Node26&#45;&gt;Node23 -->
<g id="edge78" class="edge"><title>Node26&#45;&gt;Node23</title>
<path fill="none" stroke="midnightblue" d="M329.349,-610.829C422.005,-594.153 623.2,-554.352 680,-514 703.061,-497.617 745.164,-427.165 765.047,-392.465"/>
<polygon fill="midnightblue" stroke="midnightblue" points="768.131,-394.123 770.032,-383.7 762.046,-390.663 768.131,-394.123"/>
</g>
<!-- Node26&#45;&gt;Node27 -->
<g id="edge84" class="edge"><title>Node26&#45;&gt;Node27</title>
<path fill="none" stroke="midnightblue" d="M304.637,-608.497C324.248,-599.397 352.846,-586.127 374.833,-575.925"/>
<polygon fill="midnightblue" stroke="midnightblue" points="376.512,-579.005 384.109,-571.621 373.565,-572.655 376.512,-579.005"/>
</g>
<!-- Node27&#45;&gt;Node3 -->
<g id="edge86" class="edge"><title>Node27&#45;&gt;Node3</title>
<path fill="none" stroke="midnightblue" d="M392.821,-550.408C382.651,-541.861 369.766,-528.845 364,-514 347.744,-472.149 366.293,-448.482 401,-420 446.022,-383.053 477.562,-414.787 527,-384 574.812,-354.226 563.069,-317.898 612,-290 639.67,-274.224 719.091,-260.257 777.102,-251.731"/>
<polygon fill="midnightblue" stroke="midnightblue" points="777.908,-255.151 787.304,-250.255 776.906,-248.223 777.908,-255.151"/>
</g>
<!-- Node27&#45;&gt;Node18 -->
<g id="edge102" class="edge"><title>Node27&#45;&gt;Node18</title>
<path fill="none" stroke="midnightblue" d="M358.386,-551.852C335.413,-545.109 309.479,-533.568 293,-514 280.121,-498.707 276.449,-475.723 275.644,-459.036"/>
<polygon fill="midnightblue" stroke="midnightblue" points="279.137,-458.6 275.467,-448.662 272.138,-458.72 279.137,-458.6"/>
</g>
<!-- Node27&#45;&gt;Node20 -->
<g id="edge88" class="edge"><title>Node27&#45;&gt;Node20</title>
<path fill="none" stroke="midnightblue" d="M375.862,-550.334C359.371,-542.911 340.592,-531.21 331,-514 326.24,-505.459 330.109,-501.737 331,-492 336.356,-433.49 322.003,-410.613 355,-362 366.696,-344.769 385.909,-331.942 403.211,-323.124"/>
<polygon fill="midnightblue" stroke="midnightblue" points="405.066,-326.117 412.567,-318.635 402.037,-319.805 405.066,-326.117"/>
</g>
<!-- Node28 -->
<g id="node73" class="node"><title>Node28</title>
<a xlink:href="MojRefCount_8h.htm" target="_top" xlink:title="core/MojRefCount.h">
<polygon fill="white" stroke="black" points="561,-492.5 561,-513.5 671,-513.5 671,-492.5 561,-492.5"/>
<text text-anchor="middle" x="616" y="-500.5" font-family="Helvetica,sans-Serif" font-size="10.00">core/MojRefCount.h</text>
</a>
</g>
<!-- Node27&#45;&gt;Node28 -->
<g id="edge90" class="edge"><title>Node27&#45;&gt;Node28</title>
<path fill="none" stroke="midnightblue" d="M444.848,-550.497C479.511,-540.877 530.965,-526.598 568.402,-516.209"/>
<polygon fill="midnightblue" stroke="midnightblue" points="569.381,-519.57 578.081,-513.523 567.509,-512.825 569.381,-519.57"/>
</g>
<!-- Node30 -->
<g id="node82" class="node"><title>Node30</title>
<a xlink:href="MojVectorInternal_8h.htm" target="_top" xlink:title="core/internal/MojVectorInternal.h">
<polygon fill="white" stroke="black" points="372.5,-492.5 372.5,-513.5 543.5,-513.5 543.5,-492.5 372.5,-492.5"/>
<text text-anchor="middle" x="458" y="-500.5" font-family="Helvetica,sans-Serif" font-size="10.00">core/internal/MojVectorInternal.h</text>
</a>
</g>
<!-- Node27&#45;&gt;Node30 -->
<g id="edge104" class="edge"><title>Node27&#45;&gt;Node30</title>
<path fill="none" stroke="midnightblue" d="M416.354,-550.362C423.543,-542.186 433.641,-530.702 442.093,-521.091"/>
<polygon fill="midnightblue" stroke="midnightblue" points="444.73,-523.392 448.705,-513.571 439.473,-518.769 444.73,-523.392"/>
</g>
<!-- Node28&#45;&gt;Node3 -->
<g id="edge92" class="edge"><title>Node28&#45;&gt;Node3</title>
<path fill="none" stroke="midnightblue" d="M611.87,-492.372C608.452,-482.974 603.867,-468.806 602,-456 590.99,-380.473 589.601,-341.427 646,-290 665.142,-272.546 727.513,-259.613 777.008,-251.78"/>
<polygon fill="midnightblue" stroke="midnightblue" points="777.686,-255.217 787.036,-250.234 776.619,-248.299 777.686,-255.217"/>
</g>
<!-- Node28&#45;&gt;Node23 -->
<g id="edge96" class="edge"><title>Node28&#45;&gt;Node23</title>
<path fill="none" stroke="midnightblue" d="M628.535,-492.403C647.384,-476.512 684.211,-445.635 716,-420 728.476,-409.939 742.578,-398.877 753.975,-390.014"/>
<polygon fill="midnightblue" stroke="midnightblue" points="756.335,-392.612 762.09,-383.717 752.044,-387.082 756.335,-392.612"/>
</g>
<!-- Node28&#45;&gt;Node24 -->
<g id="edge94" class="edge"><title>Node28&#45;&gt;Node24</title>
<path fill="none" stroke="midnightblue" d="M671.085,-498.648C758.827,-491.187 922.38,-474.92 941,-456 974.322,-422.142 969.655,-360.849 964.325,-328.799"/>
<polygon fill="midnightblue" stroke="midnightblue" points="967.732,-327.973 962.474,-318.775 960.848,-329.244 967.732,-327.973"/>
</g>
<!-- Node29 -->
<g id="node78" class="node"><title>Node29</title>
<a xlink:href="MojRefCountInternal_8h.htm" target="_top" xlink:title="core/internal/MojRefCount\lInternal.h">
<polygon fill="white" stroke="black" points="410,-421 410,-455 550,-455 550,-421 410,-421"/>
<text text-anchor="start" x="418" y="-442" font-family="Helvetica,sans-Serif" font-size="10.00">core/internal/MojRefCount</text>
<text text-anchor="middle" x="480" y="-429" font-family="Helvetica,sans-Serif" font-size="10.00">Internal.h</text>
</a>
</g>
<!-- Node28&#45;&gt;Node29 -->
<g id="edge98" class="edge"><title>Node28&#45;&gt;Node29</title>
<path fill="none" stroke="midnightblue" d="M593.847,-492.412C575.257,-483.527 548.112,-470.554 524.991,-459.503"/>
<polygon fill="midnightblue" stroke="midnightblue" points="526.227,-456.215 515.696,-455.06 523.209,-462.531 526.227,-456.215"/>
</g>
<!-- Node29&#45;&gt;Node19 -->
<g id="edge100" class="edge"><title>Node29&#45;&gt;Node19</title>
<path fill="none" stroke="midnightblue" d="M469.753,-420.922C464.527,-412.212 458.147,-401.578 452.725,-392.542"/>
<polygon fill="midnightblue" stroke="midnightblue" points="455.657,-390.626 447.511,-383.852 449.655,-394.228 455.657,-390.626"/>
</g>
<!-- Node31&#45;&gt;Node3 -->
<g id="edge110" class="edge"><title>Node31&#45;&gt;Node3</title>
<path fill="none" stroke="midnightblue" d="M1477.86,-666.455C1554.45,-648.181 1696,-608.043 1696,-561 1696,-561 1696,-561 1696,-373 1696,-293.444 1108.64,-256.405 908.711,-246.102"/>
<polygon fill="midnightblue" stroke="midnightblue" points="908.804,-242.602 898.639,-245.588 908.448,-249.593 908.804,-242.602"/>
</g>
<!-- Node32 -->
<g id="node88" class="node"><title>Node32</title>
<a xlink:href="MojSignal_8h.htm" target="_top" xlink:title="core/MojSignal.h">
<polygon fill="white" stroke="black" points="1371.5,-608.5 1371.5,-629.5 1466.5,-629.5 1466.5,-608.5 1371.5,-608.5"/>
<text text-anchor="middle" x="1419" y="-616.5" font-family="Helvetica,sans-Serif" font-size="10.00">core/MojSignal.h</text>
</a>
</g>
<!-- Node31&#45;&gt;Node32 -->
<g id="edge112" class="edge"><title>Node31&#45;&gt;Node32</title>
<path fill="none" stroke="midnightblue" d="M1427.98,-666.362C1426.56,-658.84 1424.6,-648.519 1422.87,-639.431"/>
<polygon fill="midnightblue" stroke="midnightblue" points="1426.31,-638.743 1421,-629.571 1419.43,-640.048 1426.31,-638.743"/>
</g>
<!-- Node32&#45;&gt;Node3 -->
<g id="edge114" class="edge"><title>Node32&#45;&gt;Node3</title>
<path fill="none" stroke="midnightblue" d="M1410.86,-608.323C1404.19,-599.124 1394.9,-585.268 1389,-572 1376.08,-542.936 1370,-534.808 1370,-503 1370,-503 1370,-503 1370,-373 1370,-334.6 1375.59,-314.48 1346,-290 1313.02,-262.713 1037.85,-249.712 909.033,-245.076"/>
<polygon fill="midnightblue" stroke="midnightblue" points="909.015,-241.573 898.898,-244.718 908.768,-248.569 909.015,-241.573"/>
</g>
<!-- Node32&#45;&gt;Node27 -->
<g id="edge132" class="edge"><title>Node32&#45;&gt;Node27</title>
<path fill="none" stroke="midnightblue" d="M1371.21,-616.261C1204.51,-606.707 648.973,-574.868 466.002,-564.382"/>
<polygon fill="midnightblue" stroke="midnightblue" points="465.957,-560.873 455.773,-563.795 465.556,-567.862 465.957,-560.873"/>
</g>
<!-- Node33 -->
<g id="node91" class="node"><title>Node33</title>
<a xlink:href="MojList_8h.htm" target="_top" xlink:title="core/MojList.h">
<polygon fill="white" stroke="black" points="1585.5,-550.5 1585.5,-571.5 1668.5,-571.5 1668.5,-550.5 1585.5,-550.5"/>
<text text-anchor="middle" x="1627" y="-558.5" font-family="Helvetica,sans-Serif" font-size="10.00">core/MojList.h</text>
</a>
</g>
<!-- Node32&#45;&gt;Node33 -->
<g id="edge116" class="edge"><title>Node32&#45;&gt;Node33</title>
<path fill="none" stroke="midnightblue" d="M1456.67,-608.497C1491.02,-598.918 1541.94,-584.72 1579.15,-574.342"/>
<polygon fill="midnightblue" stroke="midnightblue" points="1580.57,-577.581 1589.26,-571.523 1578.69,-570.838 1580.57,-577.581"/>
</g>
<!-- Node35 -->
<g id="node96" class="node"><title>Node35</title>
<a xlink:href="MojThread_8h.htm" target="_top" xlink:title="core/MojThread.h">
<polygon fill="white" stroke="black" points="1139.5,-492.5 1139.5,-513.5 1240.5,-513.5 1240.5,-492.5 1139.5,-492.5"/>
<text text-anchor="middle" x="1190" y="-500.5" font-family="Helvetica,sans-Serif" font-size="10.00">core/MojThread.h</text>
</a>
</g>
<!-- Node32&#45;&gt;Node35 -->
<g id="edge122" class="edge"><title>Node32&#45;&gt;Node35</title>
<path fill="none" stroke="midnightblue" d="M1397.87,-608.295C1356.95,-587.568 1266.81,-541.909 1219.82,-518.105"/>
<polygon fill="midnightblue" stroke="midnightblue" points="1221.25,-514.908 1210.75,-513.512 1218.09,-521.153 1221.25,-514.908"/>
</g>
<!-- Node37 -->
<g id="node104" class="node"><title>Node37</title>
<a xlink:href="MojSignalInternal_8h.htm" target="_top" xlink:title="core/internal/MojSignalInternal.h">
<polygon fill="white" stroke="black" points="1398,-550.5 1398,-571.5 1568,-571.5 1568,-550.5 1398,-550.5"/>
<text text-anchor="middle" x="1483" y="-558.5" font-family="Helvetica,sans-Serif" font-size="10.00">core/internal/MojSignalInternal.h</text>
</a>
</g>
<!-- Node32&#45;&gt;Node37 -->
<g id="edge134" class="edge"><title>Node32&#45;&gt;Node37</title>
<path fill="none" stroke="midnightblue" d="M1430.74,-608.362C1439.94,-600.023 1452.94,-588.242 1463.67,-578.516"/>
<polygon fill="midnightblue" stroke="midnightblue" points="1466.28,-580.879 1471.34,-571.571 1461.58,-575.692 1466.28,-580.879"/>
</g>
<!-- Node33&#45;&gt;Node3 -->
<g id="edge118" class="edge"><title>Node33&#45;&gt;Node3</title>
<path fill="none" stroke="midnightblue" d="M1585.47,-552.182C1532.04,-538.116 1446,-505.057 1446,-438 1446,-438 1446,-438 1446,-373 1446,-326.955 1424.23,-312.395 1384,-290 1343.36,-267.375 1043.84,-251.701 908.759,-245.707"/>
<polygon fill="midnightblue" stroke="midnightblue" points="908.688,-242.201 898.544,-245.259 908.381,-249.194 908.688,-242.201"/>
</g>
<!-- Node34 -->
<g id="node94" class="node"><title>Node34</title>
<a xlink:href="MojListInternal_8h.htm" target="_top" xlink:title="core/internal/MojListInternal.h">
<polygon fill="white" stroke="black" points="1511.5,-492.5 1511.5,-513.5 1668.5,-513.5 1668.5,-492.5 1511.5,-492.5"/>
<text text-anchor="middle" x="1590" y="-500.5" font-family="Helvetica,sans-Serif" font-size="10.00">core/internal/MojListInternal.h</text>
</a>
</g>
<!-- Node33&#45;&gt;Node34 -->
<g id="edge120" class="edge"><title>Node33&#45;&gt;Node34</title>
<path fill="none" stroke="midnightblue" d="M1620.21,-550.362C1615.21,-542.513 1608.25,-531.616 1602.28,-522.253"/>
<polygon fill="midnightblue" stroke="midnightblue" points="1605.07,-520.119 1596.74,-513.571 1599.17,-523.884 1605.07,-520.119"/>
</g>
<!-- Node35&#45;&gt;Node3 -->
<g id="edge124" class="edge"><title>Node35&#45;&gt;Node3</title>
<path fill="none" stroke="midnightblue" d="M1189.1,-492.36C1187.57,-476.414 1183.95,-445.468 1177,-420 1158.63,-352.691 1149.8,-324.22 1089,-290 1058.8,-273.006 970.859,-258.955 908.774,-250.769"/>
<polygon fill="midnightblue" stroke="midnightblue" points="909.027,-247.273 898.66,-249.457 908.126,-254.215 909.027,-247.273"/>
</g>
<!-- Node35&#45;&gt;Node24 -->
<g id="edge126" class="edge"><title>Node35&#45;&gt;Node24</title>
<path fill="none" stroke="midnightblue" d="M1188.74,-492.375C1186.23,-475.333 1179.18,-441.611 1161,-420 1119.2,-370.299 1049.43,-338.555 1004.07,-322.005"/>
<polygon fill="midnightblue" stroke="midnightblue" points="1005.1,-318.655 994.502,-318.606 1002.75,-325.251 1005.1,-318.655"/>
</g>
<!-- Node36 -->
<g id="node100" class="node"><title>Node36</title>
<a xlink:href="MojThreadInternal_8h.htm" target="_top" xlink:title="core/internal/MojThreadInternal.h">
<polygon fill="white" stroke="black" points="757.5,-427.5 757.5,-448.5 932.5,-448.5 932.5,-427.5 757.5,-427.5"/>
<text text-anchor="middle" x="845" y="-435.5" font-family="Helvetica,sans-Serif" font-size="10.00">core/internal/MojThreadInternal.h</text>
</a>
</g>
<!-- Node35&#45;&gt;Node36 -->
<g id="edge128" class="edge"><title>Node35&#45;&gt;Node36</title>
<path fill="none" stroke="midnightblue" d="M1139.46,-493.479C1078.94,-482.075 977.391,-462.943 910.792,-450.396"/>
<polygon fill="midnightblue" stroke="midnightblue" points="911.298,-446.929 900.823,-448.517 910.002,-453.808 911.298,-446.929"/>
</g>
<!-- Node36&#45;&gt;Node23 -->
<g id="edge130" class="edge"><title>Node36&#45;&gt;Node23</title>
<path fill="none" stroke="midnightblue" d="M833.606,-427.267C823.056,-417.328 807.17,-402.363 794.751,-390.664"/>
<polygon fill="midnightblue" stroke="midnightblue" points="796.861,-387.843 787.182,-383.534 792.061,-392.938 796.861,-387.843"/>
</g>
</g>
</svg>
