<?xml version="1.0" encoding="UTF-8" standalone="no"?>
<!DOCTYPE svg PUBLIC "-//W3C//DTD SVG 1.1//EN"
 "http://www.w3.org/Graphics/SVG/1.1/DTD/svg11.dtd">
<!-- Generated by graphviz version 2.26.3 (20100126.1600)
 -->
<!-- Title: MojListInternal.h Pages: 1 -->
<svg width="2124pt" height="610pt"
 viewBox="0.00 0.00 2124.00 610.00" xmlns="http://www.w3.org/2000/svg" xmlns:xlink="http://www.w3.org/1999/xlink">
<g id="graph1" class="graph" transform="scale(1 1) rotate(0) translate(4 606)">
<title>MojListInternal.h</title>
<polygon fill="white" stroke="white" points="-4,5 -4,-606 2121,-606 2121,5 -4,5"/>
<!-- Node1 -->
<g id="node1" class="node"><title>Node1</title>
<polygon fill="#bfbfbf" stroke="black" points="1528.5,-580.5 1528.5,-601.5 1623.5,-601.5 1623.5,-580.5 1528.5,-580.5"/>
<text text-anchor="middle" x="1576" y="-588.5" font-family="Helvetica,sans-Serif" font-size="10.00">MojListInternal.h</text>
</g>
<!-- Node2 -->
<g id="node3" class="node"><title>Node2</title>
<a xlink:href="MojList_8h.htm" target="_top" xlink:title="MojList.h">
<polygon fill="white" stroke="black" points="1546.5,-522.5 1546.5,-543.5 1605.5,-543.5 1605.5,-522.5 1546.5,-522.5"/>
<text text-anchor="middle" x="1576" y="-530.5" font-family="Helvetica,sans-Serif" font-size="10.00">MojList.h</text>
</a>
</g>
<!-- Node1&#45;&gt;Node2 -->
<g id="edge2" class="edge"><title>Node1&#45;&gt;Node2</title>
<path fill="none" stroke="midnightblue" d="M1576,-570.191C1576,-561.168 1576,-550.994 1576,-543.571"/>
<polygon fill="midnightblue" stroke="midnightblue" points="1572.5,-570.362 1576,-580.362 1579.5,-570.362 1572.5,-570.362"/>
</g>
<!-- Node3 -->
<g id="node5" class="node"><title>Node3</title>
<a xlink:href="MojBuffer_8h.htm" target="_top" xlink:title="MojBuffer.h">
<polygon fill="white" stroke="black" points="291,-464.5 291,-485.5 361,-485.5 361,-464.5 291,-464.5"/>
<text text-anchor="middle" x="326" y="-472.5" font-family="Helvetica,sans-Serif" font-size="10.00">MojBuffer.h</text>
</a>
</g>
<!-- Node2&#45;&gt;Node3 -->
<g id="edge4" class="edge"><title>Node2&#45;&gt;Node3</title>
<path fill="none" stroke="midnightblue" d="M1536.28,-531.157C1347.18,-522.383 539.924,-484.926 361.15,-476.631"/>
<polygon fill="midnightblue" stroke="midnightblue" points="1536.18,-534.656 1546.33,-531.623 1536.51,-527.664 1536.18,-534.656"/>
</g>
<!-- Node30 -->
<g id="node74" class="node"><title>Node30</title>
<a xlink:href="MojLogEngine_8h.htm" target="_top" xlink:title="MojLogEngine.h">
<polygon fill="white" stroke="black" points="1393.5,-464.5 1393.5,-485.5 1486.5,-485.5 1486.5,-464.5 1393.5,-464.5"/>
<text text-anchor="middle" x="1440" y="-472.5" font-family="Helvetica,sans-Serif" font-size="10.00">MojLogEngine.h</text>
</a>
</g>
<!-- Node2&#45;&gt;Node30 -->
<g id="edge88" class="edge"><title>Node2&#45;&gt;Node30</title>
<path fill="none" stroke="midnightblue" d="M1541.95,-518.479C1518.01,-508.269 1486.52,-494.839 1464.9,-485.621"/>
<polygon fill="midnightblue" stroke="midnightblue" points="1540.8,-521.793 1551.37,-522.497 1543.55,-515.354 1540.8,-521.793"/>
</g>
<!-- Node37 -->
<g id="node88" class="node"><title>Node37</title>
<a xlink:href="MojSignal_8h.htm" target="_top" xlink:title="MojSignal.h">
<polygon fill="white" stroke="black" points="1428.5,-290.5 1428.5,-311.5 1499.5,-311.5 1499.5,-290.5 1428.5,-290.5"/>
<text text-anchor="middle" x="1464" y="-298.5" font-family="Helvetica,sans-Serif" font-size="10.00">MojSignal.h</text>
</a>
</g>
<!-- Node2&#45;&gt;Node37 -->
<g id="edge102" class="edge"><title>Node2&#45;&gt;Node37</title>
<path fill="none" stroke="midnightblue" d="M1609,-517.829C1652.97,-495.429 1722.03,-451.252 1693,-406 1650.02,-339.003 1552.41,-314.197 1499.57,-305.454"/>
<polygon fill="midnightblue" stroke="midnightblue" points="1607.18,-514.824 1599.78,-522.4 1610.29,-521.096 1607.18,-514.824"/>
</g>
<!-- Node50 -->
<g id="node132" class="node"><title>Node50</title>
<a xlink:href="MojList_8cpp.htm" target="_top" xlink:title="MojList.cpp">
<polygon fill="white" stroke="black" points="1740,-464.5 1740,-485.5 1810,-485.5 1810,-464.5 1740,-464.5"/>
<text text-anchor="middle" x="1775" y="-472.5" font-family="Helvetica,sans-Serif" font-size="10.00">MojList.cpp</text>
</a>
</g>
<!-- Node2&#45;&gt;Node50 -->
<g id="edge164" class="edge"><title>Node2&#45;&gt;Node50</title>
<path fill="none" stroke="midnightblue" d="M1615.55,-521.472C1651.87,-510.888 1705.16,-495.356 1739.97,-485.21"/>
<polygon fill="midnightblue" stroke="midnightblue" points="1614.41,-518.158 1605.79,-524.317 1616.37,-524.879 1614.41,-518.158"/>
</g>
<!-- Node4 -->
<g id="node7" class="node"><title>Node4</title>
<a xlink:href="MojDataSerialization_8h.htm" target="_top" xlink:title="MojDataSerialization.h">
<polygon fill="white" stroke="black" points="516,-174.5 516,-195.5 638,-195.5 638,-174.5 516,-174.5"/>
<text text-anchor="middle" x="577" y="-182.5" font-family="Helvetica,sans-Serif" font-size="10.00">MojDataSerialization.h</text>
</a>
</g>
<!-- Node3&#45;&gt;Node4 -->
<g id="edge6" class="edge"><title>Node3&#45;&gt;Node4</title>
<path fill="none" stroke="midnightblue" d="M291.622,-460.149C245.53,-438.045 172.79,-394.121 203,-348 272.761,-241.498 428.943,-204.195 515.793,-191.422"/>
<polygon fill="midnightblue" stroke="midnightblue" points="290.185,-463.34 300.727,-464.4 293.147,-456.998 290.185,-463.34"/>
</g>
<!-- Node15 -->
<g id="node31" class="node"><title>Node15</title>
<a xlink:href="MojDbKey_8h.htm" target="_top" xlink:title="MojDbKey.h">
<polygon fill="white" stroke="black" points="289.5,-406.5 289.5,-427.5 362.5,-427.5 362.5,-406.5 289.5,-406.5"/>
<text text-anchor="middle" x="326" y="-414.5" font-family="Helvetica,sans-Serif" font-size="10.00">MojDbKey.h</text>
</a>
</g>
<!-- Node3&#45;&gt;Node15 -->
<g id="edge32" class="edge"><title>Node3&#45;&gt;Node15</title>
<path fill="none" stroke="midnightblue" d="M326,-454.191C326,-445.168 326,-434.994 326,-427.571"/>
<polygon fill="midnightblue" stroke="midnightblue" points="322.5,-454.362 326,-464.362 329.5,-454.362 322.5,-454.362"/>
</g>
<!-- Node25 -->
<g id="node54" class="node"><title>Node25</title>
<a xlink:href="MojDbBerkeleyEngine_8h.htm" target="_top" xlink:title="MojDbBerkeleyEngine.h">
<polygon fill="white" stroke="black" points="979.5,-116.5 979.5,-137.5 1108.5,-137.5 1108.5,-116.5 979.5,-116.5"/>
<text text-anchor="middle" x="1044" y="-124.5" font-family="Helvetica,sans-Serif" font-size="10.00">MojDbBerkeleyEngine.h</text>
</a>
</g>
<!-- Node3&#45;&gt;Node25 -->
<g id="edge84" class="edge"><title>Node3&#45;&gt;Node25</title>
<path fill="none" stroke="midnightblue" d="M371.589,-472.239C526.342,-462.266 1022,-425.161 1022,-359 1022,-359 1022,-359 1022,-243 1022,-203.644 1034.38,-158.072 1040.56,-137.746"/>
<polygon fill="midnightblue" stroke="midnightblue" points="371.229,-468.755 361.472,-472.883 371.674,-475.74 371.229,-468.755"/>
</g>
<!-- Node29 -->
<g id="node72" class="node"><title>Node29</title>
<a xlink:href="MojBuffer_8cpp.htm" target="_top" xlink:title="MojBuffer.cpp">
<polygon fill="white" stroke="black" points="-0.5,-406.5 -0.5,-427.5 80.5,-427.5 80.5,-406.5 -0.5,-406.5"/>
<text text-anchor="middle" x="40" y="-414.5" font-family="Helvetica,sans-Serif" font-size="10.00">MojBuffer.cpp</text>
</a>
</g>
<!-- Node3&#45;&gt;Node29 -->
<g id="edge86" class="edge"><title>Node3&#45;&gt;Node29</title>
<path fill="none" stroke="midnightblue" d="M280.804,-465.859C234.047,-456.398 158.91,-441.186 94,-428 89.687,-427.124 85.1805,-426.207 80.6892,-425.293"/>
<polygon fill="midnightblue" stroke="midnightblue" points="280.128,-469.293 290.623,-467.845 281.516,-462.432 280.128,-469.293"/>
</g>
<!-- Node5 -->
<g id="node9" class="node"><title>Node5</title>
<a xlink:href="MojObjectSerialization_8h.htm" target="_top" xlink:title="MojObjectSerialization.h">
<polygon fill="white" stroke="red" points="512,-116.5 512,-137.5 642,-137.5 642,-116.5 512,-116.5"/>
<text text-anchor="middle" x="577" y="-124.5" font-family="Helvetica,sans-Serif" font-size="10.00">MojObjectSerialization.h</text>
</a>
</g>
<!-- Node4&#45;&gt;Node5 -->
<g id="edge8" class="edge"><title>Node4&#45;&gt;Node5</title>
<path fill="none" stroke="midnightblue" d="M577,-164.191C577,-155.168 577,-144.994 577,-137.571"/>
<polygon fill="midnightblue" stroke="midnightblue" points="573.5,-164.362 577,-174.362 580.5,-164.362 573.5,-164.362"/>
</g>
<!-- Node10 -->
<g id="node19" class="node"><title>Node10</title>
<a xlink:href="MojSocketService_8h.htm" target="_top" xlink:title="MojSocketService.h">
<polygon fill="white" stroke="black" points="736,-116.5 736,-137.5 846,-137.5 846,-116.5 736,-116.5"/>
<text text-anchor="middle" x="791" y="-124.5" font-family="Helvetica,sans-Serif" font-size="10.00">MojSocketService.h</text>
</a>
</g>
<!-- Node4&#45;&gt;Node10 -->
<g id="edge18" class="edge"><title>Node4&#45;&gt;Node10</title>
<path fill="none" stroke="midnightblue" d="M625.658,-171.812C663.971,-161.428 716.658,-147.149 752.174,-137.523"/>
<polygon fill="midnightblue" stroke="midnightblue" points="624.49,-168.503 615.754,-174.497 626.321,-175.259 624.49,-168.503"/>
</g>
<!-- Node11 -->
<g id="node21" class="node"><title>Node11</title>
<a xlink:href="MojSocketMessage_8cpp.htm" target="_top" xlink:title="MojSocketMessage.cpp">
<polygon fill="white" stroke="black" points="669.5,-58.5 669.5,-79.5 798.5,-79.5 798.5,-58.5 669.5,-58.5"/>
<text text-anchor="middle" x="734" y="-66.5" font-family="Helvetica,sans-Serif" font-size="10.00">MojSocketMessage.cpp</text>
</a>
</g>
<!-- Node4&#45;&gt;Node11 -->
<g id="edge28" class="edge"><title>Node4&#45;&gt;Node11</title>
<path fill="none" stroke="midnightblue" d="M611.571,-170.14C628.979,-161.883 649.949,-150.713 667,-138 690.559,-120.434 713.393,-94.4079 725.363,-79.8571"/>
<polygon fill="midnightblue" stroke="midnightblue" points="609.923,-167.046 602.314,-174.419 612.86,-173.4 609.923,-167.046"/>
</g>
<!-- Node12 -->
<g id="node23" class="node"><title>Node12</title>
<a xlink:href="MojSocketService_8cpp.htm" target="_top" xlink:title="MojSocketService.cpp">
<polygon fill="white" stroke="black" points="531.5,-58.5 531.5,-79.5 652.5,-79.5 652.5,-58.5 531.5,-58.5"/>
<text text-anchor="middle" x="592" y="-66.5" font-family="Helvetica,sans-Serif" font-size="10.00">MojSocketService.cpp</text>
</a>
</g>
<!-- Node4&#45;&gt;Node12 -->
<g id="edge30" class="edge"><title>Node4&#45;&gt;Node12</title>
<path fill="none" stroke="midnightblue" d="M615.906,-169.812C629.522,-162.391 643.318,-151.98 651,-138 663.752,-114.794 634.358,-92.33 612.643,-79.6282"/>
<polygon fill="midnightblue" stroke="midnightblue" points="613.96,-166.872 606.585,-174.479 617.094,-173.131 613.96,-166.872"/>
</g>
<!-- Node13 -->
<g id="node25" class="node"><title>Node13</title>
<a xlink:href="MojDataSerialization_8cpp.htm" target="_top" xlink:title="MojDataSerialization.cpp">
<polygon fill="white" stroke="black" points="212,-116.5 212,-137.5 346,-137.5 346,-116.5 212,-116.5"/>
<text text-anchor="middle" x="279" y="-124.5" font-family="Helvetica,sans-Serif" font-size="10.00">MojDataSerialization.cpp</text>
</a>
</g>
<!-- Node4&#45;&gt;Node13 -->
<g id="edge24" class="edge"><title>Node4&#45;&gt;Node13</title>
<path fill="none" stroke="midnightblue" d="M512.955,-172.535C459.338,-162.099 383.68,-147.374 333.067,-137.523"/>
<polygon fill="midnightblue" stroke="midnightblue" points="512.55,-176.022 523.034,-174.497 513.887,-169.151 512.55,-176.022"/>
</g>
<!-- Node14 -->
<g id="node27" class="node"><title>Node14</title>
<a xlink:href="MojSocketEncoding_8cpp.htm" target="_top" xlink:title="MojSocketEncoding.cpp">
<polygon fill="white" stroke="black" points="364,-116.5 364,-137.5 494,-137.5 494,-116.5 364,-116.5"/>
<text text-anchor="middle" x="429" y="-124.5" font-family="Helvetica,sans-Serif" font-size="10.00">MojSocketEncoding.cpp</text>
</a>
</g>
<!-- Node4&#45;&gt;Node14 -->
<g id="edge26" class="edge"><title>Node4&#45;&gt;Node14</title>
<path fill="none" stroke="midnightblue" d="M540.64,-170.751C514.505,-160.509 479.832,-146.921 456.102,-137.621"/>
<polygon fill="midnightblue" stroke="midnightblue" points="539.611,-174.107 550.198,-174.497 542.165,-167.589 539.611,-174.107"/>
</g>
<!-- Node6 -->
<g id="node11" class="node"><title>Node6</title>
<a xlink:href="MojDbKey_8cpp.htm" target="_top" xlink:title="MojDbKey.cpp">
<polygon fill="white" stroke="black" points="212,-58.5 212,-79.5 296,-79.5 296,-58.5 212,-58.5"/>
<text text-anchor="middle" x="254" y="-66.5" font-family="Helvetica,sans-Serif" font-size="10.00">MojDbKey.cpp</text>
</a>
</g>
<!-- Node5&#45;&gt;Node6 -->
<g id="edge10" class="edge"><title>Node5&#45;&gt;Node6</title>
<path fill="none" stroke="midnightblue" d="M501.776,-114.86C447.082,-105.824 371.32,-92.8763 305,-80 302.155,-79.4476 299.224,-78.8614 296.273,-78.2585"/>
<polygon fill="midnightblue" stroke="midnightblue" points="501.3,-118.328 511.736,-116.5 502.438,-111.421 501.3,-118.328"/>
</g>
<!-- Node7 -->
<g id="node13" class="node"><title>Node7</title>
<a xlink:href="MojDbTextCollator_8cpp.htm" target="_top" xlink:title="MojDbTextCollator.cpp">
<polygon fill="white" stroke="black" points="314,-58.5 314,-79.5 438,-79.5 438,-58.5 314,-58.5"/>
<text text-anchor="middle" x="376" y="-66.5" font-family="Helvetica,sans-Serif" font-size="10.00">MojDbTextCollator.cpp</text>
</a>
</g>
<!-- Node5&#45;&gt;Node7 -->
<g id="edge12" class="edge"><title>Node5&#45;&gt;Node7</title>
<path fill="none" stroke="midnightblue" d="M530.838,-113.68C494.892,-103.307 445.684,-89.1078 412.468,-79.5231"/>
<polygon fill="midnightblue" stroke="midnightblue" points="530.022,-117.087 540.6,-116.497 531.963,-110.361 530.022,-117.087"/>
</g>
<!-- Node8 -->
<g id="node15" class="node"><title>Node8</title>
<a xlink:href="MojDbBerkeleyEngine_8cpp.htm" target="_top" xlink:title="MojDbBerkeleyEngine.cpp">
<polygon fill="white" stroke="black" points="1096,-0.5 1096,-21.5 1236,-21.5 1236,-0.5 1096,-0.5"/>
<text text-anchor="middle" x="1166" y="-8.5" font-family="Helvetica,sans-Serif" font-size="10.00">MojDbBerkeleyEngine.cpp</text>
</a>
</g>
<!-- Node5&#45;&gt;Node8 -->
<g id="edge14" class="edge"><title>Node5&#45;&gt;Node8</title>
<path fill="none" stroke="midnightblue" d="M549.811,-110.545C529.319,-96.1544 507.232,-74.9627 523,-58 542.278,-37.2615 932.909,-19.9398 1095.72,-13.593"/>
<polygon fill="midnightblue" stroke="midnightblue" points="548.121,-113.624 558.381,-116.264 552.006,-107.802 548.121,-113.624"/>
</g>
<!-- Node9 -->
<g id="node17" class="node"><title>Node9</title>
<a xlink:href="MojDbBerkeleyQuery_8cpp.htm" target="_top" xlink:title="MojDbBerkeleyQuery.cpp">
<polygon fill="white" stroke="black" points="578,-0.5 578,-21.5 714,-21.5 714,-0.5 578,-0.5"/>
<text text-anchor="middle" x="646" y="-8.5" font-family="Helvetica,sans-Serif" font-size="10.00">MojDbBerkeleyQuery.cpp</text>
</a>
</g>
<!-- Node5&#45;&gt;Node9 -->
<g id="edge16" class="edge"><title>Node5&#45;&gt;Node9</title>
<path fill="none" stroke="midnightblue" d="M534.244,-112.63C504.519,-100.261 473.036,-80.8282 490,-58 501.768,-42.1643 547.033,-29.6309 585.795,-21.503"/>
<polygon fill="midnightblue" stroke="midnightblue" points="533.183,-115.974 543.769,-116.393 535.755,-109.464 533.183,-115.974"/>
</g>
<!-- Node10&#45;&gt;Node11 -->
<g id="edge20" class="edge"><title>Node10&#45;&gt;Node11</title>
<path fill="none" stroke="midnightblue" d="M773.426,-109.118C763.913,-99.4377 752.486,-87.8098 744.388,-79.5707"/>
<polygon fill="midnightblue" stroke="midnightblue" points="771.04,-111.683 780.545,-116.362 776.032,-106.776 771.04,-111.683"/>
</g>
<!-- Node10&#45;&gt;Node12 -->
<g id="edge22" class="edge"><title>Node10&#45;&gt;Node12</title>
<path fill="none" stroke="midnightblue" d="M745.297,-113.68C709.709,-103.307 660.99,-89.1078 628.105,-79.5231"/>
<polygon fill="midnightblue" stroke="midnightblue" points="744.383,-117.059 754.963,-116.497 746.341,-110.338 744.383,-117.059"/>
</g>
<!-- Node15&#45;&gt;Node6 -->
<g id="edge78" class="edge"><title>Node15&#45;&gt;Node6</title>
<path fill="none" stroke="midnightblue" d="M279.355,-409.749C250.084,-403.294 212.923,-391.416 186,-370 134.16,-328.764 108,-309.24 108,-243 108,-243 108,-243 108,-185 108,-128.508 175.837,-95.1329 219.029,-79.608"/>
<polygon fill="midnightblue" stroke="midnightblue" points="278.848,-413.218 289.35,-411.813 280.264,-406.363 278.848,-413.218"/>
</g>
<!-- Node15&#45;&gt;Node7 -->
<g id="edge80" class="edge"><title>Node15&#45;&gt;Node7</title>
<path fill="none" stroke="midnightblue" d="M279.512,-405.145C248.636,-396.224 212.153,-383.295 203,-370 138.988,-277.014 134.433,-205.68 203,-116 210.609,-106.048 277.073,-90.0244 325.353,-79.5021"/>
<polygon fill="midnightblue" stroke="midnightblue" points="278.723,-408.559 289.297,-407.896 280.618,-401.821 278.723,-408.559"/>
</g>
<!-- Node16 -->
<g id="node33" class="node"><title>Node16</title>
<a xlink:href="MojDbExtractor_8h.htm" target="_top" xlink:title="MojDbExtractor.h">
<polygon fill="white" stroke="red" points="402,-348.5 402,-369.5 500,-369.5 500,-348.5 402,-348.5"/>
<text text-anchor="middle" x="451" y="-356.5" font-family="Helvetica,sans-Serif" font-size="10.00">MojDbExtractor.h</text>
</a>
</g>
<!-- Node15&#45;&gt;Node16 -->
<g id="edge34" class="edge"><title>Node15&#45;&gt;Node16</title>
<path fill="none" stroke="midnightblue" d="M357.883,-402.206C379.812,-392.031 408.421,-378.757 428.109,-369.621"/>
<polygon fill="midnightblue" stroke="midnightblue" points="356.234,-399.113 348.637,-406.497 359.181,-405.462 356.234,-399.113"/>
</g>
<!-- Node17 -->
<g id="node35" class="node"><title>Node17</title>
<a xlink:href="MojDbQuery_8h.htm" target="_top" xlink:title="MojDbQuery.h">
<polygon fill="white" stroke="red" points="517.5,-348.5 517.5,-369.5 600.5,-369.5 600.5,-348.5 517.5,-348.5"/>
<text text-anchor="middle" x="559" y="-356.5" font-family="Helvetica,sans-Serif" font-size="10.00">MojDbQuery.h</text>
</a>
</g>
<!-- Node15&#45;&gt;Node17 -->
<g id="edge36" class="edge"><title>Node15&#45;&gt;Node17</title>
<path fill="none" stroke="midnightblue" d="M372.442,-405.439C414.767,-394.903 476.717,-379.482 517.441,-369.345"/>
<polygon fill="midnightblue" stroke="midnightblue" points="371.521,-402.062 362.663,-407.874 373.212,-408.854 371.521,-402.062"/>
</g>
<!-- Node18 -->
<g id="node37" class="node"><title>Node18</title>
<a xlink:href="MojDbQueryPlan_8h.htm" target="_top" xlink:title="MojDbQueryPlan.h">
<polygon fill="white" stroke="red" points="507,-290.5 507,-311.5 611,-311.5 611,-290.5 507,-290.5"/>
<text text-anchor="middle" x="559" y="-298.5" font-family="Helvetica,sans-Serif" font-size="10.00">MojDbQueryPlan.h</text>
</a>
</g>
<!-- Node15&#45;&gt;Node18 -->
<g id="edge76" class="edge"><title>Node15&#45;&gt;Node18</title>
<path fill="none" stroke="midnightblue" d="M339.771,-398.054C352.066,-382.452 371.425,-360.874 393,-348 427.981,-327.126 472.644,-315.166 506.83,-308.54"/>
<polygon fill="midnightblue" stroke="midnightblue" points="336.659,-396.363 333.385,-406.439 342.228,-400.604 336.659,-396.363"/>
</g>
<!-- Node28 -->
<g id="node69" class="node"><title>Node28</title>
<a xlink:href="MojDbTextTokenizer_8cpp.htm" target="_top" xlink:title="MojDbTextTokenizer.cpp">
<polygon fill="white" stroke="black" points="212,-348.5 212,-369.5 346,-369.5 346,-348.5 212,-348.5"/>
<text text-anchor="middle" x="279" y="-356.5" font-family="Helvetica,sans-Serif" font-size="10.00">MojDbTextTokenizer.cpp</text>
</a>
</g>
<!-- Node15&#45;&gt;Node28 -->
<g id="edge82" class="edge"><title>Node15&#45;&gt;Node28</title>
<path fill="none" stroke="midnightblue" d="M311.042,-398.541C303.293,-388.979 294.11,-377.647 287.566,-369.571"/>
<polygon fill="midnightblue" stroke="midnightblue" points="308.364,-400.796 317.379,-406.362 313.803,-396.389 308.364,-400.796"/>
</g>
<!-- Node17&#45;&gt;Node18 -->
<g id="edge38" class="edge"><title>Node17&#45;&gt;Node18</title>
<path fill="none" stroke="midnightblue" d="M559,-338.191C559,-329.168 559,-318.994 559,-311.571"/>
<polygon fill="midnightblue" stroke="midnightblue" points="555.5,-338.362 559,-348.362 562.5,-338.362 555.5,-338.362"/>
</g>
<!-- Node18&#45;&gt;Node8 -->
<g id="edge72" class="edge"><title>Node18&#45;&gt;Node8</title>
<path fill="none" stroke="midnightblue" d="M621.38,-294.652C729.975,-281.151 957.395,-241.831 1117,-138 1145.29,-119.598 1154.41,-111.691 1166,-80 1173.16,-60.4253 1170.59,-35.5836 1168.2,-21.6779"/>
<polygon fill="midnightblue" stroke="midnightblue" points="620.755,-291.202 611.248,-295.879 621.597,-298.151 620.755,-291.202"/>
</g>
<!-- Node18&#45;&gt;Node9 -->
<g id="edge74" class="edge"><title>Node18&#45;&gt;Node9</title>
<path fill="none" stroke="midnightblue" d="M503.907,-287.931C380.85,-256.351 102.119,-170.151 203,-58 227.569,-30.6869 459.691,-18.0271 577.747,-13.3148"/>
<polygon fill="midnightblue" stroke="midnightblue" points="503.351,-291.4 513.904,-290.464 505.07,-284.615 503.351,-291.4"/>
</g>
<!-- Node19 -->
<g id="node39" class="node"><title>Node19</title>
<a xlink:href="MojDbWatcher_8h.htm" target="_top" xlink:title="MojDbWatcher.h">
<polygon fill="white" stroke="red" points="1050.5,-232.5 1050.5,-253.5 1145.5,-253.5 1145.5,-232.5 1050.5,-232.5"/>
<text text-anchor="middle" x="1098" y="-240.5" font-family="Helvetica,sans-Serif" font-size="10.00">MojDbWatcher.h</text>
</a>
</g>
<!-- Node18&#45;&gt;Node19 -->
<g id="edge40" class="edge"><title>Node18&#45;&gt;Node19</title>
<path fill="none" stroke="midnightblue" d="M621.045,-294.415C706.087,-285.376 863.629,-268.583 998,-254 1015.1,-252.144 1033.85,-250.087 1050.44,-248.26"/>
<polygon fill="midnightblue" stroke="midnightblue" points="620.614,-290.941 611.04,-295.478 621.354,-297.901 620.614,-290.941"/>
</g>
<!-- Node20 -->
<g id="node41" class="node"><title>Node20</title>
<a xlink:href="MojDb_8h.htm" target="_top" xlink:title="MojDb.h">
<polygon fill="white" stroke="red" points="1197.5,-116.5 1197.5,-137.5 1252.5,-137.5 1252.5,-116.5 1197.5,-116.5"/>
<text text-anchor="middle" x="1225" y="-124.5" font-family="Helvetica,sans-Serif" font-size="10.00">MojDb.h</text>
</a>
</g>
<!-- Node19&#45;&gt;Node20 -->
<g id="edge42" class="edge"><title>Node19&#45;&gt;Node20</title>
<path fill="none" stroke="midnightblue" d="M1099.08,-222.017C1100.87,-207.057 1105.45,-187.313 1117,-174 1137.63,-150.212 1172.53,-138.035 1197.05,-132.109"/>
<polygon fill="midnightblue" stroke="midnightblue" points="1095.56,-222.075 1098.18,-232.34 1102.53,-222.679 1095.56,-222.075"/>
</g>
<!-- Node24 -->
<g id="node51" class="node"><title>Node24</title>
<a xlink:href="MojDbStorageEngine_8h.htm" target="_top" xlink:title="MojDbStorageEngine.h">
<polygon fill="white" stroke="red" points="1125.5,-174.5 1125.5,-195.5 1250.5,-195.5 1250.5,-174.5 1125.5,-174.5"/>
<text text-anchor="middle" x="1188" y="-182.5" font-family="Helvetica,sans-Serif" font-size="10.00">MojDbStorageEngine.h</text>
</a>
</g>
<!-- Node19&#45;&gt;Node24 -->
<g id="edge54" class="edge"><title>Node19&#45;&gt;Node24</title>
<path fill="none" stroke="midnightblue" d="M1123.1,-226.821C1138.61,-216.831 1158.05,-204.299 1171.6,-195.571"/>
<polygon fill="midnightblue" stroke="midnightblue" points="1121.02,-224.003 1114.51,-232.362 1124.81,-229.887 1121.02,-224.003"/>
</g>
<!-- Node20&#45;&gt;Node8 -->
<g id="edge52" class="edge"><title>Node20&#45;&gt;Node8</title>
<path fill="none" stroke="midnightblue" d="M1226.7,-105.766C1226.94,-91.5257 1225.46,-72.7503 1218,-58 1210.25,-42.6906 1195.26,-29.9875 1183.36,-21.664"/>
<polygon fill="midnightblue" stroke="midnightblue" points="1223.19,-105.899 1226.22,-116.051 1230.18,-106.224 1223.19,-105.899"/>
</g>
<!-- Node21 -->
<g id="node43" class="node"><title>Node21</title>
<a xlink:href="MojDbServiceHandlerBase_8h.htm" target="_top" xlink:title="MojDbServiceHandlerBase.h">
<polygon fill="white" stroke="red" points="1424,-58.5 1424,-79.5 1576,-79.5 1576,-58.5 1424,-58.5"/>
<text text-anchor="middle" x="1500" y="-66.5" font-family="Helvetica,sans-Serif" font-size="10.00">MojDbServiceHandlerBase.h</text>
</a>
</g>
<!-- Node20&#45;&gt;Node21 -->
<g id="edge44" class="edge"><title>Node20&#45;&gt;Node21</title>
<path fill="none" stroke="midnightblue" d="M1262.43,-119.106C1311.06,-108.85 1396.12,-90.9092 1450.17,-79.509"/>
<polygon fill="midnightblue" stroke="midnightblue" points="1261.69,-115.685 1252.63,-121.173 1263.13,-122.534 1261.69,-115.685"/>
</g>
<!-- Node22 -->
<g id="node45" class="node"><title>Node22</title>
<a xlink:href="MojDbServiceHandlerInternal_8h.htm" target="_top" xlink:title="MojDbServiceHandlerInternal.h">
<polygon fill="white" stroke="red" points="1561,-0.5 1561,-21.5 1725,-21.5 1725,-0.5 1561,-0.5"/>
<text text-anchor="middle" x="1643" y="-8.5" font-family="Helvetica,sans-Serif" font-size="10.00">MojDbServiceHandlerInternal.h</text>
</a>
</g>
<!-- Node20&#45;&gt;Node22 -->
<g id="edge50" class="edge"><title>Node20&#45;&gt;Node22</title>
<path fill="none" stroke="midnightblue" d="M1259.94,-112.577C1297.68,-97.4081 1359.82,-73.6166 1415,-58 1469.83,-42.4806 1533.43,-29.7989 1579.5,-21.5369"/>
<polygon fill="midnightblue" stroke="midnightblue" points="1258.38,-109.429 1250.43,-116.425 1261.01,-115.918 1258.38,-109.429"/>
</g>
<!-- Node21&#45;&gt;Node22 -->
<g id="edge46" class="edge"><title>Node21&#45;&gt;Node22</title>
<path fill="none" stroke="midnightblue" d="M1535.47,-54.6153C1560.68,-44.3889 1593.99,-30.8796 1616.81,-21.6212"/>
<polygon fill="midnightblue" stroke="midnightblue" points="1533.85,-51.4946 1525.9,-58.4966 1536.48,-57.9814 1533.85,-51.4946"/>
</g>
<!-- Node23 -->
<g id="node47" class="node"><title>Node23</title>
<a xlink:href="MojDbServiceHandlerBase_8cpp.htm" target="_top" xlink:title="MojDbServiceHandlerBase.cpp">
<polygon fill="white" stroke="black" points="1336.5,-0.5 1336.5,-21.5 1499.5,-21.5 1499.5,-0.5 1336.5,-0.5"/>
<text text-anchor="middle" x="1418" y="-8.5" font-family="Helvetica,sans-Serif" font-size="10.00">MojDbServiceHandlerBase.cpp</text>
</a>
</g>
<!-- Node21&#45;&gt;Node23 -->
<g id="edge48" class="edge"><title>Node21&#45;&gt;Node23</title>
<path fill="none" stroke="midnightblue" d="M1476.73,-52.5407C1462.67,-42.5973 1445.17,-30.2177 1432.94,-21.5707"/>
<polygon fill="midnightblue" stroke="midnightblue" points="1474.77,-55.4447 1484.96,-58.3619 1478.82,-49.7298 1474.77,-55.4447"/>
</g>
<!-- Node24&#45;&gt;Node20 -->
<g id="edge56" class="edge"><title>Node24&#45;&gt;Node20</title>
<path fill="none" stroke="midnightblue" d="M1200.33,-165.667C1206.31,-156.295 1213.26,-145.402 1218.26,-137.571"/>
<polygon fill="midnightblue" stroke="midnightblue" points="1197.21,-164.049 1194.79,-174.362 1203.12,-167.814 1197.21,-164.049"/>
</g>
<!-- Node24&#45;&gt;Node25 -->
<g id="edge58" class="edge"><title>Node24&#45;&gt;Node25</title>
<path fill="none" stroke="midnightblue" d="M1152.62,-170.751C1127.19,-160.509 1093.46,-146.921 1070.37,-137.621"/>
<polygon fill="midnightblue" stroke="midnightblue" points="1151.34,-174.007 1161.92,-174.497 1153.95,-167.514 1151.34,-174.007"/>
</g>
<!-- Node25&#45;&gt;Node8 -->
<g id="edge66" class="edge"><title>Node25&#45;&gt;Node8</title>
<path fill="none" stroke="midnightblue" d="M1097.48,-112.756C1115.44,-105.578 1134.15,-95.0849 1147,-80 1161.34,-63.1659 1164.93,-36.383 1165.78,-21.625"/>
<polygon fill="midnightblue" stroke="midnightblue" points="1095.79,-109.653 1087.63,-116.411 1098.22,-116.216 1095.79,-109.653"/>
</g>
<!-- Node25&#45;&gt;Node9 -->
<g id="edge70" class="edge"><title>Node25&#45;&gt;Node9</title>
<path fill="none" stroke="midnightblue" d="M969.375,-114.758C931.335,-107.181 884.821,-95.8295 845,-80 826.865,-72.7911 824.941,-65.6788 807,-58 769.925,-42.1315 725.842,-29.6764 693.185,-21.586"/>
<polygon fill="midnightblue" stroke="midnightblue" points="968.876,-118.226 979.36,-116.699 970.212,-111.355 968.876,-118.226"/>
</g>
<!-- Node26 -->
<g id="node56" class="node"><title>Node26</title>
<a xlink:href="MojDbBerkeleyQuery_8h.htm" target="_top" xlink:title="MojDbBerkeleyQuery.h">
<polygon fill="white" stroke="black" points="853.5,-58.5 853.5,-79.5 978.5,-79.5 978.5,-58.5 853.5,-58.5"/>
<text text-anchor="middle" x="916" y="-66.5" font-family="Helvetica,sans-Serif" font-size="10.00">MojDbBerkeleyQuery.h</text>
</a>
</g>
<!-- Node25&#45;&gt;Node26 -->
<g id="edge60" class="edge"><title>Node25&#45;&gt;Node26</title>
<path fill="none" stroke="midnightblue" d="M1011.65,-112.343C989.159,-102.15 959.691,-88.7977 939.44,-79.6212"/>
<polygon fill="midnightblue" stroke="midnightblue" points="1010.27,-115.557 1020.82,-116.497 1013.16,-109.181 1010.27,-115.557"/>
</g>
<!-- Node27 -->
<g id="node61" class="node"><title>Node27</title>
<a xlink:href="MojDbBerkeleyFactory_8cpp.htm" target="_top" xlink:title="MojDbBerkeleyFactory.cpp">
<polygon fill="white" stroke="black" points="995.5,-58.5 995.5,-79.5 1138.5,-79.5 1138.5,-58.5 995.5,-58.5"/>
<text text-anchor="middle" x="1067" y="-66.5" font-family="Helvetica,sans-Serif" font-size="10.00">MojDbBerkeleyFactory.cpp</text>
</a>
</g>
<!-- Node25&#45;&gt;Node27 -->
<g id="edge68" class="edge"><title>Node25&#45;&gt;Node27</title>
<path fill="none" stroke="midnightblue" d="M1052.02,-106.784C1055.65,-97.617 1059.8,-87.1572 1062.81,-79.5707"/>
<polygon fill="midnightblue" stroke="midnightblue" points="1048.65,-105.776 1048.22,-116.362 1055.16,-108.356 1048.65,-105.776"/>
</g>
<!-- Node26&#45;&gt;Node8 -->
<g id="edge62" class="edge"><title>Node26&#45;&gt;Node8</title>
<path fill="none" stroke="midnightblue" d="M971.138,-56.2081C1016.03,-45.7938 1078.62,-31.2716 1120.64,-21.5231"/>
<polygon fill="midnightblue" stroke="midnightblue" points="970.223,-52.8271 961.273,-58.4966 971.805,-59.646 970.223,-52.8271"/>
</g>
<!-- Node26&#45;&gt;Node9 -->
<g id="edge64" class="edge"><title>Node26&#45;&gt;Node9</title>
<path fill="none" stroke="midnightblue" d="M857.061,-56.3391C808.54,-45.9159 740.558,-31.3126 694.987,-21.5231"/>
<polygon fill="midnightblue" stroke="midnightblue" points="856.593,-59.8183 867.105,-58.4966 858.063,-52.9744 856.593,-59.8183"/>
</g>
<!-- Node31 -->
<g id="node76" class="node"><title>Node31</title>
<a xlink:href="MojPmLogAppender_8h.htm" target="_top" xlink:title="MojPmLogAppender.h">
<polygon fill="white" stroke="black" points="1176,-406.5 1176,-427.5 1298,-427.5 1298,-406.5 1176,-406.5"/>
<text text-anchor="middle" x="1237" y="-414.5" font-family="Helvetica,sans-Serif" font-size="10.00">MojPmLogAppender.h</text>
</a>
</g>
<!-- Node30&#45;&gt;Node31 -->
<g id="edge90" class="edge"><title>Node30&#45;&gt;Node31</title>
<path fill="none" stroke="midnightblue" d="M1393.38,-461.68C1357.07,-451.307 1307.38,-437.108 1273.83,-427.523"/>
<polygon fill="midnightblue" stroke="midnightblue" points="1392.66,-465.115 1403.24,-464.497 1394.58,-458.384 1392.66,-465.115"/>
</g>
<!-- Node32 -->
<g id="node78" class="node"><title>Node32</title>
<a xlink:href="MojApp_8cpp.htm" target="_top" xlink:title="MojApp.cpp">
<polygon fill="white" stroke="black" points="1316,-406.5 1316,-427.5 1388,-427.5 1388,-406.5 1316,-406.5"/>
<text text-anchor="middle" x="1352" y="-414.5" font-family="Helvetica,sans-Serif" font-size="10.00">MojApp.cpp</text>
</a>
</g>
<!-- Node30&#45;&gt;Node32 -->
<g id="edge92" class="edge"><title>Node30&#45;&gt;Node32</title>
<path fill="none" stroke="midnightblue" d="M1415.45,-458.821C1400.3,-448.831 1381.28,-436.299 1368.04,-427.571"/>
<polygon fill="midnightblue" stroke="midnightblue" points="1413.58,-461.781 1423.86,-464.362 1417.44,-455.936 1413.58,-461.781"/>
</g>
<!-- Node33 -->
<g id="node80" class="node"><title>Node33</title>
<a xlink:href="MojErr_8cpp.htm" target="_top" xlink:title="MojErr.cpp">
<polygon fill="white" stroke="black" points="1406,-406.5 1406,-427.5 1474,-427.5 1474,-406.5 1406,-406.5"/>
<text text-anchor="middle" x="1440" y="-414.5" font-family="Helvetica,sans-Serif" font-size="10.00">MojErr.cpp</text>
</a>
</g>
<!-- Node30&#45;&gt;Node33 -->
<g id="edge94" class="edge"><title>Node30&#45;&gt;Node33</title>
<path fill="none" stroke="midnightblue" d="M1440,-454.191C1440,-445.168 1440,-434.994 1440,-427.571"/>
<polygon fill="midnightblue" stroke="midnightblue" points="1436.5,-454.362 1440,-464.362 1443.5,-454.362 1436.5,-454.362"/>
</g>
<!-- Node34 -->
<g id="node82" class="node"><title>Node34</title>
<a xlink:href="MojLog_8cpp.htm" target="_top" xlink:title="MojLog.cpp">
<polygon fill="white" stroke="black" points="1491.5,-406.5 1491.5,-427.5 1562.5,-427.5 1562.5,-406.5 1491.5,-406.5"/>
<text text-anchor="middle" x="1527" y="-414.5" font-family="Helvetica,sans-Serif" font-size="10.00">MojLog.cpp</text>
</a>
</g>
<!-- Node30&#45;&gt;Node34 -->
<g id="edge96" class="edge"><title>Node30&#45;&gt;Node34</title>
<path fill="none" stroke="midnightblue" d="M1464.69,-458.541C1479.6,-448.597 1498.17,-436.218 1511.14,-427.571"/>
<polygon fill="midnightblue" stroke="midnightblue" points="1462.34,-455.903 1455.96,-464.362 1466.22,-461.727 1462.34,-455.903"/>
</g>
<!-- Node35 -->
<g id="node84" class="node"><title>Node35</title>
<a xlink:href="MojLogEngine_8cpp.htm" target="_top" xlink:title="MojLogEngine.cpp">
<polygon fill="white" stroke="black" points="1580,-406.5 1580,-427.5 1684,-427.5 1684,-406.5 1580,-406.5"/>
<text text-anchor="middle" x="1632" y="-414.5" font-family="Helvetica,sans-Serif" font-size="10.00">MojLogEngine.cpp</text>
</a>
</g>
<!-- Node30&#45;&gt;Node35 -->
<g id="edge98" class="edge"><title>Node30&#45;&gt;Node35</title>
<path fill="none" stroke="midnightblue" d="M1484.54,-461.546C1518.83,-451.186 1565.57,-437.067 1597.17,-427.523"/>
<polygon fill="midnightblue" stroke="midnightblue" points="1483.33,-458.254 1474.77,-464.497 1485.35,-464.955 1483.33,-458.254"/>
</g>
<!-- Node36 -->
<g id="node86" class="node"><title>Node36</title>
<a xlink:href="MojTestRunner_8cpp.htm" target="_top" xlink:title="MojTestRunner.cpp">
<polygon fill="white" stroke="black" points="1049.5,-406.5 1049.5,-427.5 1158.5,-427.5 1158.5,-406.5 1049.5,-406.5"/>
<text text-anchor="middle" x="1104" y="-414.5" font-family="Helvetica,sans-Serif" font-size="10.00">MojTestRunner.cpp</text>
</a>
</g>
<!-- Node30&#45;&gt;Node36 -->
<g id="edge100" class="edge"><title>Node30&#45;&gt;Node36</title>
<path fill="none" stroke="midnightblue" d="M1383.2,-465.261C1327.97,-455.783 1241.72,-440.955 1167,-428 1164.27,-427.526 1161.46,-427.039 1158.63,-426.547"/>
<polygon fill="midnightblue" stroke="midnightblue" points="1382.69,-468.725 1393.14,-466.967 1383.87,-461.826 1382.69,-468.725"/>
</g>
<!-- Node37&#45;&gt;Node19 -->
<g id="edge160" class="edge"><title>Node37&#45;&gt;Node19</title>
<path fill="none" stroke="midnightblue" d="M1418.03,-294.29C1358.28,-285.482 1250.72,-269.335 1159,-254 1154.65,-253.272 1150.13,-252.496 1145.6,-251.704"/>
<polygon fill="midnightblue" stroke="midnightblue" points="1417.86,-297.802 1428.27,-295.795 1418.88,-290.877 1417.86,-297.802"/>
</g>
<!-- Node37&#45;&gt;Node20 -->
<g id="edge150" class="edge"><title>Node37&#45;&gt;Node20</title>
<path fill="none" stroke="midnightblue" d="M1456.71,-281.037C1450.43,-266.056 1440.14,-245.831 1426,-232 1374.78,-181.893 1294.8,-149.962 1252.84,-135.688"/>
<polygon fill="midnightblue" stroke="midnightblue" points="1453.49,-282.409 1460.41,-290.427 1460,-279.841 1453.49,-282.409"/>
</g>
<!-- Node37&#45;&gt;Node24 -->
<g id="edge158" class="edge"><title>Node37&#45;&gt;Node24</title>
<path fill="none" stroke="midnightblue" d="M1418.04,-299.722C1348.44,-296.734 1221.29,-286.813 1192,-254 1177.7,-237.977 1181.44,-210.627 1184.99,-195.623"/>
<polygon fill="midnightblue" stroke="midnightblue" points="1418.15,-303.229 1428.28,-300.129 1418.43,-296.235 1418.15,-303.229"/>
</g>
<!-- Node38 -->
<g id="node90" class="node"><title>Node38</title>
<a xlink:href="MojMessage_8h.htm" target="_top" xlink:title="MojMessage.h">
<polygon fill="white" stroke="black" points="1687,-174.5 1687,-195.5 1773,-195.5 1773,-174.5 1687,-174.5"/>
<text text-anchor="middle" x="1730" y="-182.5" font-family="Helvetica,sans-Serif" font-size="10.00">MojMessage.h</text>
</a>
</g>
<!-- Node37&#45;&gt;Node38 -->
<g id="edge104" class="edge"><title>Node37&#45;&gt;Node38</title>
<path fill="none" stroke="midnightblue" d="M1497.79,-286.267C1552.29,-262.496 1658.33,-216.254 1705.9,-195.512"/>
<polygon fill="midnightblue" stroke="midnightblue" points="1496.32,-283.089 1488.55,-290.295 1499.11,-289.506 1496.32,-283.089"/>
</g>
<!-- Node42 -->
<g id="node101" class="node"><title>Node42</title>
<a xlink:href="MojReactor_8h.htm" target="_top" xlink:title="MojReactor.h">
<polygon fill="white" stroke="black" points="1443,-174.5 1443,-195.5 1523,-195.5 1523,-174.5 1443,-174.5"/>
<text text-anchor="middle" x="1483" y="-182.5" font-family="Helvetica,sans-Serif" font-size="10.00">MojReactor.h</text>
</a>
</g>
<!-- Node37&#45;&gt;Node42 -->
<g id="edge118" class="edge"><title>Node37&#45;&gt;Node42</title>
<path fill="none" stroke="midnightblue" d="M1467.42,-280.123C1471.49,-255.298 1478.12,-214.824 1481.25,-195.679"/>
<polygon fill="midnightblue" stroke="midnightblue" points="1463.92,-279.861 1465.75,-290.295 1470.82,-280.992 1463.92,-279.861"/>
</g>
<!-- Node45 -->
<g id="node109" class="node"><title>Node45</title>
<a xlink:href="MojService_8h.htm" target="_top" xlink:title="MojService.h">
<polygon fill="white" stroke="red" points="1565.5,-174.5 1565.5,-195.5 1642.5,-195.5 1642.5,-174.5 1565.5,-174.5"/>
<text text-anchor="middle" x="1604" y="-182.5" font-family="Helvetica,sans-Serif" font-size="10.00">MojService.h</text>
</a>
</g>
<!-- Node37&#45;&gt;Node45 -->
<g id="edge128" class="edge"><title>Node37&#45;&gt;Node45</title>
<path fill="none" stroke="midnightblue" d="M1484.89,-283.693C1514.25,-259.362 1566.86,-215.772 1591.11,-195.679"/>
<polygon fill="midnightblue" stroke="midnightblue" points="1482.39,-281.22 1476.92,-290.295 1486.85,-286.61 1482.39,-281.22"/>
</g>
<!-- Node47 -->
<g id="node119" class="node"><title>Node47</title>
<a xlink:href="MojServiceRequest_8h.htm" target="_top" xlink:title="MojServiceRequest.h">
<polygon fill="white" stroke="red" points="2000,-116.5 2000,-137.5 2116,-137.5 2116,-116.5 2000,-116.5"/>
<text text-anchor="middle" x="2058" y="-124.5" font-family="Helvetica,sans-Serif" font-size="10.00">MojServiceRequest.h</text>
</a>
</g>
<!-- Node37&#45;&gt;Node47 -->
<g id="edge144" class="edge"><title>Node37&#45;&gt;Node47</title>
<path fill="none" stroke="midnightblue" d="M1509.64,-287.631C1623.69,-254.222 1919.33,-167.621 2022.13,-137.506"/>
<polygon fill="midnightblue" stroke="midnightblue" points="1508.43,-284.337 1499.82,-290.507 1510.4,-291.055 1508.43,-284.337"/>
</g>
<!-- Node48 -->
<g id="node124" class="node"><title>Node48</title>
<a xlink:href="MojDbQuotaEngine_8h.htm" target="_top" xlink:title="MojDbQuotaEngine.h">
<polygon fill="white" stroke="red" points="1301,-232.5 1301,-253.5 1417,-253.5 1417,-232.5 1301,-232.5"/>
<text text-anchor="middle" x="1359" y="-240.5" font-family="Helvetica,sans-Serif" font-size="10.00">MojDbQuotaEngine.h</text>
</a>
</g>
<!-- Node37&#45;&gt;Node48 -->
<g id="edge152" class="edge"><title>Node37&#45;&gt;Node48</title>
<path fill="none" stroke="midnightblue" d="M1435.97,-285.517C1417.69,-275.419 1394.31,-262.503 1378.14,-253.571"/>
<polygon fill="midnightblue" stroke="midnightblue" points="1434.3,-288.59 1444.74,-290.362 1437.68,-282.463 1434.3,-288.59"/>
</g>
<!-- Node49 -->
<g id="node130" class="node"><title>Node49</title>
<a xlink:href="MojSignal_8cpp.htm" target="_top" xlink:title="MojSignal.cpp">
<polygon fill="white" stroke="black" points="1200.5,-232.5 1200.5,-253.5 1283.5,-253.5 1283.5,-232.5 1200.5,-232.5"/>
<text text-anchor="middle" x="1242" y="-240.5" font-family="Helvetica,sans-Serif" font-size="10.00">MojSignal.cpp</text>
</a>
</g>
<!-- Node37&#45;&gt;Node49 -->
<g id="edge162" class="edge"><title>Node37&#45;&gt;Node49</title>
<path fill="none" stroke="midnightblue" d="M1418.57,-289.131C1378.58,-278.684 1320.9,-263.613 1282.47,-253.573"/>
<polygon fill="midnightblue" stroke="midnightblue" points="1417.77,-292.54 1428.33,-291.681 1419.54,-285.767 1417.77,-292.54"/>
</g>
<!-- Node39 -->
<g id="node92" class="node"><title>Node39</title>
<a xlink:href="MojMessageDispatcher_8h.htm" target="_top" xlink:title="MojMessageDispatcher.h">
<polygon fill="white" stroke="red" points="1845.5,-116.5 1845.5,-137.5 1982.5,-137.5 1982.5,-116.5 1845.5,-116.5"/>
<text text-anchor="middle" x="1914" y="-124.5" font-family="Helvetica,sans-Serif" font-size="10.00">MojMessageDispatcher.h</text>
</a>
</g>
<!-- Node38&#45;&gt;Node39 -->
<g id="edge106" class="edge"><title>Node38&#45;&gt;Node39</title>
<path fill="none" stroke="midnightblue" d="M1773.1,-171.413C1805.93,-161.065 1850.47,-147.026 1880.62,-137.523"/>
<polygon fill="midnightblue" stroke="midnightblue" points="1771.81,-168.152 1763.32,-174.497 1773.91,-174.828 1771.81,-168.152"/>
</g>
<!-- Node41 -->
<g id="node96" class="node"><title>Node41</title>
<a xlink:href="MojServiceMessage_8h.htm" target="_top" xlink:title="MojServiceMessage.h">
<polygon fill="white" stroke="red" points="1669.5,-116.5 1669.5,-137.5 1790.5,-137.5 1790.5,-116.5 1669.5,-116.5"/>
<text text-anchor="middle" x="1730" y="-124.5" font-family="Helvetica,sans-Serif" font-size="10.00">MojServiceMessage.h</text>
</a>
</g>
<!-- Node38&#45;&gt;Node41 -->
<g id="edge110" class="edge"><title>Node38&#45;&gt;Node41</title>
<path fill="none" stroke="midnightblue" d="M1730,-164.191C1730,-155.168 1730,-144.994 1730,-137.571"/>
<polygon fill="midnightblue" stroke="midnightblue" points="1726.5,-164.362 1730,-174.362 1733.5,-164.362 1726.5,-164.362"/>
</g>
<!-- Node40 -->
<g id="node94" class="node"><title>Node40</title>
<a xlink:href="MojService_8cpp.htm" target="_top" xlink:title="MojService.cpp">
<polygon fill="white" stroke="black" points="1828.5,-58.5 1828.5,-79.5 1917.5,-79.5 1917.5,-58.5 1828.5,-58.5"/>
<text text-anchor="middle" x="1873" y="-66.5" font-family="Helvetica,sans-Serif" font-size="10.00">MojService.cpp</text>
</a>
</g>
<!-- Node39&#45;&gt;Node40 -->
<g id="edge108" class="edge"><title>Node39&#45;&gt;Node40</title>
<path fill="none" stroke="midnightblue" d="M1900.54,-107.959C1893.87,-98.522 1886.07,-87.4835 1880.47,-79.5707"/>
<polygon fill="midnightblue" stroke="midnightblue" points="1897.85,-110.216 1906.48,-116.362 1903.57,-106.176 1897.85,-110.216"/>
</g>
<!-- Node41&#45;&gt;Node21 -->
<g id="edge112" class="edge"><title>Node41&#45;&gt;Node21</title>
<path fill="none" stroke="midnightblue" d="M1678.49,-114.011C1637.25,-103.611 1580.14,-89.2102 1541.73,-79.5231"/>
<polygon fill="midnightblue" stroke="midnightblue" points="1677.8,-117.445 1688.35,-116.497 1679.51,-110.658 1677.8,-117.445"/>
</g>
<!-- Node41&#45;&gt;Node22 -->
<g id="edge114" class="edge"><title>Node41&#45;&gt;Node22</title>
<path fill="none" stroke="midnightblue" d="M1739.94,-107.118C1745.73,-92.4898 1750.24,-72.6803 1741,-58 1729.54,-39.7953 1708.85,-28.4839 1689.43,-21.5365"/>
<polygon fill="midnightblue" stroke="midnightblue" points="1736.73,-105.729 1735.88,-116.29 1743.13,-108.56 1736.73,-105.729"/>
</g>
<!-- Node41&#45;&gt;Node40 -->
<g id="edge116" class="edge"><title>Node41&#45;&gt;Node40</title>
<path fill="none" stroke="midnightblue" d="M1765.47,-112.615C1790.68,-102.389 1823.99,-88.8796 1846.81,-79.6212"/>
<polygon fill="midnightblue" stroke="midnightblue" points="1763.85,-109.495 1755.9,-116.497 1766.48,-115.981 1763.85,-109.495"/>
</g>
<!-- Node42&#45;&gt;Node10 -->
<g id="edge124" class="edge"><title>Node42&#45;&gt;Node10</title>
<path fill="none" stroke="midnightblue" d="M1432.65,-180.78C1306.46,-170.203 977.402,-142.623 846.187,-131.625"/>
<polygon fill="midnightblue" stroke="midnightblue" points="1432.55,-184.283 1442.8,-181.631 1433.13,-177.308 1432.55,-184.283"/>
</g>
<!-- Node42&#45;&gt;Node23 -->
<g id="edge126" class="edge"><title>Node42&#45;&gt;Node23</title>
<path fill="none" stroke="midnightblue" d="M1433.04,-173.825C1380.01,-161.726 1303.22,-143.428 1299,-138 1263.04,-91.7052 1349.92,-42.6424 1394.11,-21.5931"/>
<polygon fill="midnightblue" stroke="midnightblue" points="1432.45,-177.279 1442.97,-176.082 1434,-170.453 1432.45,-177.279"/>
</g>
<!-- Node43 -->
<g id="node103" class="node"><title>Node43</title>
<a xlink:href="MojEpollReactor_8h.htm" target="_top" xlink:title="MojEpollReactor.h">
<polygon fill="white" stroke="red" points="1307.5,-116.5 1307.5,-137.5 1410.5,-137.5 1410.5,-116.5 1307.5,-116.5"/>
<text text-anchor="middle" x="1359" y="-124.5" font-family="Helvetica,sans-Serif" font-size="10.00">MojEpollReactor.h</text>
</a>
</g>
<!-- Node42&#45;&gt;Node43 -->
<g id="edge120" class="edge"><title>Node42&#45;&gt;Node43</title>
<path fill="none" stroke="midnightblue" d="M1451.37,-170.206C1429.62,-160.031 1401.24,-146.757 1381.71,-137.621"/>
<polygon fill="midnightblue" stroke="midnightblue" points="1450,-173.43 1460.54,-174.497 1452.97,-167.089 1450,-173.43"/>
</g>
<!-- Node44 -->
<g id="node105" class="node"><title>Node44</title>
<a xlink:href="MojGmainReactor_8h.htm" target="_top" xlink:title="MojGmainReactor.h">
<polygon fill="white" stroke="red" points="1428,-116.5 1428,-137.5 1538,-137.5 1538,-116.5 1428,-116.5"/>
<text text-anchor="middle" x="1483" y="-124.5" font-family="Helvetica,sans-Serif" font-size="10.00">MojGmainReactor.h</text>
</a>
</g>
<!-- Node42&#45;&gt;Node44 -->
<g id="edge122" class="edge"><title>Node42&#45;&gt;Node44</title>
<path fill="none" stroke="midnightblue" d="M1483,-164.191C1483,-155.168 1483,-144.994 1483,-137.571"/>
<polygon fill="midnightblue" stroke="midnightblue" points="1479.5,-164.362 1483,-174.362 1486.5,-164.362 1479.5,-164.362"/>
</g>
<!-- Node45&#45;&gt;Node10 -->
<g id="edge132" class="edge"><title>Node45&#45;&gt;Node10</title>
<path fill="none" stroke="midnightblue" d="M1555.2,-176.949C1547.45,-175.843 1539.52,-174.811 1532,-174 1498.04,-170.336 1012.15,-140.508 846.135,-130.363"/>
<polygon fill="midnightblue" stroke="midnightblue" points="1554.82,-180.431 1565.22,-178.433 1555.84,-173.506 1554.82,-180.431"/>
</g>
<!-- Node45&#45;&gt;Node21 -->
<g id="edge134" class="edge"><title>Node45&#45;&gt;Node21</title>
<path fill="none" stroke="midnightblue" d="M1589.48,-166.468C1578.23,-152.343 1562.06,-132.565 1547,-116 1535.2,-103.023 1520.84,-88.8865 1511.13,-79.5427"/>
<polygon fill="midnightblue" stroke="midnightblue" points="1586.85,-168.784 1595.8,-174.454 1592.34,-164.44 1586.85,-168.784"/>
</g>
<!-- Node45&#45;&gt;Node22 -->
<g id="edge136" class="edge"><title>Node45&#45;&gt;Node22</title>
<path fill="none" stroke="midnightblue" d="M1605.5,-163.966C1607.7,-138.492 1612.7,-94.4648 1623,-58 1626.67,-45.029 1633.03,-30.8917 1637.59,-21.5459"/>
<polygon fill="midnightblue" stroke="midnightblue" points="1601.99,-164.025 1604.68,-174.271 1608.97,-164.58 1601.99,-164.025"/>
</g>
<!-- Node45&#45;&gt;Node40 -->
<g id="edge142" class="edge"><title>Node45&#45;&gt;Node40</title>
<path fill="none" stroke="midnightblue" d="M1652.69,-176.206C1701.86,-166.806 1774.02,-151.437 1799,-138 1826.85,-123.023 1852.12,-94.9947 1864.67,-79.6731"/>
<polygon fill="midnightblue" stroke="midnightblue" points="1651.75,-172.822 1642.57,-178.119 1653.05,-179.7 1651.75,-172.822"/>
</g>
<!-- Node45&#45;&gt;Node41 -->
<g id="edge130" class="edge"><title>Node45&#45;&gt;Node41</title>
<path fill="none" stroke="midnightblue" d="M1636.14,-170.206C1658.24,-160.031 1687.08,-146.757 1706.93,-137.621"/>
<polygon fill="midnightblue" stroke="midnightblue" points="1634.44,-167.136 1626.82,-174.497 1637.36,-173.494 1634.44,-167.136"/>
</g>
<!-- Node46 -->
<g id="node115" class="node"><title>Node46</title>
<a xlink:href="MojLunaService_8h.htm" target="_top" xlink:title="MojLunaService.h">
<polygon fill="white" stroke="red" points="1631.5,-58.5 1631.5,-79.5 1732.5,-79.5 1732.5,-58.5 1631.5,-58.5"/>
<text text-anchor="middle" x="1682" y="-66.5" font-family="Helvetica,sans-Serif" font-size="10.00">MojLunaService.h</text>
</a>
</g>
<!-- Node45&#45;&gt;Node46 -->
<g id="edge138" class="edge"><title>Node45&#45;&gt;Node46</title>
<path fill="none" stroke="midnightblue" d="M1616.93,-165.776C1633.5,-141.132 1661.66,-99.2547 1674.82,-79.6792"/>
<polygon fill="midnightblue" stroke="midnightblue" points="1613.87,-164.043 1611.2,-174.295 1619.68,-167.949 1613.87,-164.043"/>
</g>
<!-- Node46&#45;&gt;Node22 -->
<g id="edge140" class="edge"><title>Node46&#45;&gt;Node22</title>
<path fill="none" stroke="midnightblue" d="M1669.2,-49.9591C1662.85,-40.522 1655.43,-29.4835 1650.11,-21.5707"/>
<polygon fill="midnightblue" stroke="midnightblue" points="1666.36,-52.0165 1674.85,-58.3619 1672.17,-48.1105 1666.36,-52.0165"/>
</g>
<!-- Node47&#45;&gt;Node22 -->
<g id="edge146" class="edge"><title>Node47&#45;&gt;Node22</title>
<path fill="none" stroke="midnightblue" d="M2032.94,-110.803C2007.15,-94.8986 1965.31,-71.163 1926,-58 1860.35,-36.018 1782.56,-24.0508 1725.17,-17.7035"/>
<polygon fill="midnightblue" stroke="midnightblue" points="2031.34,-113.935 2041.68,-116.275 2035.06,-108.002 2031.34,-113.935"/>
</g>
<!-- Node47&#45;&gt;Node40 -->
<g id="edge148" class="edge"><title>Node47&#45;&gt;Node40</title>
<path fill="none" stroke="midnightblue" d="M2014.66,-113.413C1981.65,-103.065 1936.88,-89.0258 1906.56,-79.5231"/>
<polygon fill="midnightblue" stroke="midnightblue" points="2013.91,-116.845 2024.5,-116.497 2016,-110.165 2013.91,-116.845"/>
</g>
<!-- Node48&#45;&gt;Node20 -->
<g id="edge154" class="edge"><title>Node48&#45;&gt;Node20</title>
<path fill="none" stroke="midnightblue" d="M1339.01,-225.693C1310.9,-201.362 1260.55,-157.772 1237.34,-137.679"/>
<polygon fill="midnightblue" stroke="midnightblue" points="1336.78,-228.396 1346.63,-232.295 1341.36,-223.104 1336.78,-228.396"/>
</g>
<!-- Node48&#45;&gt;Node24 -->
<g id="edge156" class="edge"><title>Node48&#45;&gt;Node24</title>
<path fill="none" stroke="midnightblue" d="M1318.55,-229.279C1288.08,-218.944 1246.92,-204.985 1219.02,-195.523"/>
<polygon fill="midnightblue" stroke="midnightblue" points="1317.44,-232.599 1328.03,-232.497 1319.69,-225.97 1317.44,-232.599"/>
</g>
</g>
</svg>
