<?xml version="1.0" encoding="UTF-8" standalone="no"?>
<!DOCTYPE svg PUBLIC "-//W3C//DTD SVG 1.1//EN"
 "http://www.w3.org/Graphics/SVG/1.1/DTD/svg11.dtd">
<!-- Generated by graphviz version 2.26.3 (20100126.1600)
 -->
<!-- Title: MojLogEngine.h Pages: 1 -->
<svg width="1428pt" height="696pt"
 viewBox="0.00 0.00 1428.36 696.00" xmlns="http://www.w3.org/2000/svg" xmlns:xlink="http://www.w3.org/1999/xlink">
<g id="graph1" class="graph" transform="scale(1 1) rotate(0) translate(4 692)">
<title>MojLogEngine.h</title>
<polygon fill="white" stroke="white" points="-4,5 -4,-692 1425.36,-692 1425.36,5 -4,5"/>
<!-- Node1 -->
<g id="node1" class="node"><title>Node1</title>
<polygon fill="#bfbfbf" stroke="black" points="1040.86,-666.5 1040.86,-687.5 1133.86,-687.5 1133.86,-666.5 1040.86,-666.5"/>
<text text-anchor="middle" x="1087.36" y="-674.5" font-family="Helvetica,sans-Serif" font-size="10.00">MojLogEngine.h</text>
</g>
<!-- Node2 -->
<g id="node3" class="node"><title>Node2</title>
<a xlink:href="MojCoreDefs_8h.htm" target="_top" xlink:title="core/MojCoreDefs.h">
<polygon fill="white" stroke="black" points="823.857,-232.5 823.857,-253.5 934.857,-253.5 934.857,-232.5 823.857,-232.5"/>
<text text-anchor="middle" x="879.357" y="-240.5" font-family="Helvetica,sans-Serif" font-size="10.00">core/MojCoreDefs.h</text>
</a>
</g>
<!-- Node1&#45;&gt;Node2 -->
<g id="edge2" class="edge"><title>Node1&#45;&gt;Node2</title>
<path fill="none" stroke="midnightblue" d="M1134.08,-673.869C1183.61,-669.187 1263.24,-657.709 1326.36,-630 1373.81,-609.167 1420.36,-612.825 1420.36,-561 1420.36,-561 1420.36,-561 1420.36,-373 1420.36,-318.913 1380.59,-312.403 1331.36,-290 1264.14,-259.411 1053.51,-248.426 945.166,-244.731"/>
<polygon fill="midnightblue" stroke="midnightblue" points="945.119,-241.228 935.009,-244.396 944.888,-248.224 945.119,-241.228"/>
</g>
<!-- Node12 -->
<g id="node23" class="node"><title>Node12</title>
<a xlink:href="MojList_8h.htm" target="_top" xlink:title="core/MojList.h">
<polygon fill="white" stroke="black" points="1234.86,-608.5 1234.86,-629.5 1317.86,-629.5 1317.86,-608.5 1234.86,-608.5"/>
<text text-anchor="middle" x="1276.36" y="-616.5" font-family="Helvetica,sans-Serif" font-size="10.00">core/MojList.h</text>
</a>
</g>
<!-- Node1&#45;&gt;Node12 -->
<g id="edge22" class="edge"><title>Node1&#45;&gt;Node12</title>
<path fill="none" stroke="midnightblue" d="M1121.58,-666.497C1152.66,-656.959 1198.67,-642.841 1232.45,-632.475"/>
<polygon fill="midnightblue" stroke="midnightblue" points="1233.53,-635.803 1242.07,-629.523 1231.48,-629.111 1233.53,-635.803"/>
</g>
<!-- Node14 -->
<g id="node28" class="node"><title>Node14</title>
<a xlink:href="MojMap_8h.htm" target="_top" xlink:title="core/MojMap.h">
<polygon fill="white" stroke="black" points="331.857,-492.5 331.857,-513.5 418.857,-513.5 418.857,-492.5 331.857,-492.5"/>
<text text-anchor="middle" x="375.357" y="-500.5" font-family="Helvetica,sans-Serif" font-size="10.00">core/MojMap.h</text>
</a>
</g>
<!-- Node1&#45;&gt;Node14 -->
<g id="edge28" class="edge"><title>Node1&#45;&gt;Node14</title>
<path fill="none" stroke="midnightblue" d="M1040.5,-675.245C936.524,-670.003 680.093,-649.58 482.357,-572 449.769,-559.214 416.55,-535.84 395.953,-519.872"/>
<polygon fill="midnightblue" stroke="midnightblue" points="397.953,-516.991 387.938,-513.534 393.611,-522.482 397.953,-516.991"/>
</g>
<!-- Node20 -->
<g id="node46" class="node"><title>Node20</title>
<a xlink:href="MojSet_8h.htm" target="_top" xlink:title="core/MojSet.h">
<polygon fill="white" stroke="black" points="159.357,-492.5 159.357,-513.5 241.357,-513.5 241.357,-492.5 159.357,-492.5"/>
<text text-anchor="middle" x="200.357" y="-500.5" font-family="Helvetica,sans-Serif" font-size="10.00">core/MojSet.h</text>
</a>
</g>
<!-- Node1&#45;&gt;Node20 -->
<g id="edge52" class="edge"><title>Node1&#45;&gt;Node20</title>
<path fill="none" stroke="midnightblue" d="M1040.79,-675.962C952.461,-673.25 754.874,-663.619 592.357,-630 457.48,-602.099 303.756,-544.332 235.823,-517.403"/>
<polygon fill="midnightblue" stroke="midnightblue" points="237.02,-514.113 226.435,-513.661 234.428,-520.615 237.02,-514.113"/>
</g>
<!-- Node22 -->
<g id="node53" class="node"><title>Node22</title>
<a xlink:href="MojString_8h.htm" target="_top" xlink:title="core/MojString.h">
<polygon fill="white" stroke="black" points="819.357,-608.5 819.357,-629.5 913.357,-629.5 913.357,-608.5 819.357,-608.5"/>
<text text-anchor="middle" x="866.357" y="-616.5" font-family="Helvetica,sans-Serif" font-size="10.00">core/MojString.h</text>
</a>
</g>
<!-- Node1&#45;&gt;Node22 -->
<g id="edge62" class="edge"><title>Node1&#45;&gt;Node22</title>
<path fill="none" stroke="midnightblue" d="M1047.34,-666.497C1010.53,-656.836 955.811,-642.477 916.183,-632.077"/>
<polygon fill="midnightblue" stroke="midnightblue" points="917.015,-628.676 906.454,-629.523 915.238,-635.447 917.015,-628.676"/>
</g>
<!-- Node30 -->
<g id="node82" class="node"><title>Node30</title>
<a xlink:href="MojThread_8h.htm" target="_top" xlink:title="core/MojThread.h">
<polygon fill="white" stroke="black" points="1143.86,-492.5 1143.86,-513.5 1244.86,-513.5 1244.86,-492.5 1143.86,-492.5"/>
<text text-anchor="middle" x="1194.36" y="-500.5" font-family="Helvetica,sans-Serif" font-size="10.00">core/MojThread.h</text>
</a>
</g>
<!-- Node1&#45;&gt;Node30 -->
<g id="edge104" class="edge"><title>Node1&#45;&gt;Node30</title>
<path fill="none" stroke="midnightblue" d="M1093.89,-666.377C1111.38,-637.93 1159.5,-559.684 1182.2,-522.769"/>
<polygon fill="midnightblue" stroke="midnightblue" points="1185.38,-524.279 1187.64,-513.928 1179.42,-520.613 1185.38,-524.279"/>
</g>
<!-- Node3 -->
<g id="node5" class="node"><title>Node3</title>
<a xlink:href="MojConfig_8h.htm" target="_top" xlink:title="core/internal/MojConfig.h">
<polygon fill="white" stroke="black" points="1034.86,-174.5 1034.86,-195.5 1169.86,-195.5 1169.86,-174.5 1034.86,-174.5"/>
<text text-anchor="middle" x="1102.36" y="-182.5" font-family="Helvetica,sans-Serif" font-size="10.00">core/internal/MojConfig.h</text>
</a>
</g>
<!-- Node2&#45;&gt;Node3 -->
<g id="edge4" class="edge"><title>Node2&#45;&gt;Node3</title>
<path fill="none" stroke="midnightblue" d="M919.741,-232.497C956.883,-222.836 1012.09,-208.477 1052.08,-198.077"/>
<polygon fill="midnightblue" stroke="midnightblue" points="1053.1,-201.428 1061.9,-195.523 1051.34,-194.653 1053.1,-201.428"/>
</g>
<!-- Node4 -->
<g id="node7" class="node"><title>Node4</title>
<a xlink:href="MojNew_8h.htm" target="_top" xlink:title="core/internal/MojNew.h">
<polygon fill="white" stroke="black" points="696.857,-174.5 696.857,-195.5 821.857,-195.5 821.857,-174.5 696.857,-174.5"/>
<text text-anchor="middle" x="759.357" y="-182.5" font-family="Helvetica,sans-Serif" font-size="10.00">core/internal/MojNew.h</text>
</a>
</g>
<!-- Node2&#45;&gt;Node4 -->
<g id="edge6" class="edge"><title>Node2&#45;&gt;Node4</title>
<path fill="none" stroke="midnightblue" d="M857.626,-232.497C838.884,-223.438 811.591,-210.246 790.522,-200.063"/>
<polygon fill="midnightblue" stroke="midnightblue" points="791.859,-196.822 781.332,-195.621 788.813,-203.124 791.859,-196.822"/>
</g>
<!-- Node6 -->
<g id="node11" class="node"><title>Node6</title>
<a xlink:href="MojErr_8h.htm" target="_top" xlink:title="core/MojErr.h">
<polygon fill="white" stroke="black" points="839.357,-174.5 839.357,-195.5 919.357,-195.5 919.357,-174.5 839.357,-174.5"/>
<text text-anchor="middle" x="879.357" y="-182.5" font-family="Helvetica,sans-Serif" font-size="10.00">core/MojErr.h</text>
</a>
</g>
<!-- Node2&#45;&gt;Node6 -->
<g id="edge10" class="edge"><title>Node2&#45;&gt;Node6</title>
<path fill="none" stroke="midnightblue" d="M879.357,-232.362C879.357,-224.922 879.357,-214.743 879.357,-205.728"/>
<polygon fill="midnightblue" stroke="midnightblue" points="882.857,-205.571 879.357,-195.571 875.857,-205.571 882.857,-205.571"/>
</g>
<!-- Node10 -->
<g id="node19" class="node"><title>Node10</title>
<a xlink:href="MojOs_8h.htm" target="_top" xlink:title="core/MojOs.h">
<polygon fill="white" stroke="black" points="937.357,-174.5 937.357,-195.5 1017.36,-195.5 1017.36,-174.5 937.357,-174.5"/>
<text text-anchor="middle" x="977.357" y="-182.5" font-family="Helvetica,sans-Serif" font-size="10.00">core/MojOs.h</text>
</a>
</g>
<!-- Node2&#45;&gt;Node10 -->
<g id="edge18" class="edge"><title>Node2&#45;&gt;Node10</title>
<path fill="none" stroke="midnightblue" d="M897.332,-232.362C912.251,-223.532 933.69,-210.844 950.623,-200.822"/>
<polygon fill="midnightblue" stroke="midnightblue" points="952.673,-203.676 959.496,-195.571 949.108,-197.652 952.673,-203.676"/>
</g>
<!-- Node5 -->
<g id="node9" class="node"><title>Node5</title>
<polygon fill="white" stroke="#bfbfbf" points="741.357,-116.5 741.357,-137.5 777.357,-137.5 777.357,-116.5 741.357,-116.5"/>
<text text-anchor="middle" x="759.357" y="-124.5" font-family="Helvetica,sans-Serif" font-size="10.00">new</text>
</g>
<!-- Node4&#45;&gt;Node5 -->
<g id="edge8" class="edge"><title>Node4&#45;&gt;Node5</title>
<path fill="none" stroke="midnightblue" d="M759.357,-174.362C759.357,-166.922 759.357,-156.743 759.357,-147.728"/>
<polygon fill="midnightblue" stroke="midnightblue" points="762.857,-147.571 759.357,-137.571 755.857,-147.571 762.857,-147.571"/>
</g>
<!-- Node7 -->
<g id="node13" class="node"><title>Node7</title>
<a xlink:href="MojLog_8h.htm" target="_top" xlink:title="core/MojLog.h">
<polygon fill="white" stroke="black" points="837.357,-116.5 837.357,-137.5 921.357,-137.5 921.357,-116.5 837.357,-116.5"/>
<text text-anchor="middle" x="879.357" y="-124.5" font-family="Helvetica,sans-Serif" font-size="10.00">core/MojLog.h</text>
</a>
</g>
<!-- Node6&#45;&gt;Node7 -->
<g id="edge12" class="edge"><title>Node6&#45;&gt;Node7</title>
<path fill="none" stroke="midnightblue" d="M879.357,-174.362C879.357,-166.922 879.357,-156.743 879.357,-147.728"/>
<polygon fill="midnightblue" stroke="midnightblue" points="882.857,-147.571 879.357,-137.571 875.857,-147.571 882.857,-147.571"/>
</g>
<!-- Node8 -->
<g id="node15" class="node"><title>Node8</title>
<a xlink:href="MojListEntry_8h.htm" target="_top" xlink:title="core/MojListEntry.h">
<polygon fill="white" stroke="black" points="961.857,-58.5 961.857,-79.5 1068.86,-79.5 1068.86,-58.5 961.857,-58.5"/>
<text text-anchor="middle" x="1015.36" y="-66.5" font-family="Helvetica,sans-Serif" font-size="10.00">core/MojListEntry.h</text>
</a>
</g>
<!-- Node7&#45;&gt;Node8 -->
<g id="edge14" class="edge"><title>Node7&#45;&gt;Node8</title>
<path fill="none" stroke="midnightblue" d="M903.986,-116.497C925.514,-107.315 956.997,-93.8889 981.002,-83.6516"/>
<polygon fill="midnightblue" stroke="midnightblue" points="982.627,-86.7636 990.452,-79.6212 979.881,-80.3247 982.627,-86.7636"/>
</g>
<!-- Node9 -->
<g id="node17" class="node"><title>Node9</title>
<a xlink:href="MojNoCopy_8h.htm" target="_top" xlink:title="core/MojNoCopy.h">
<polygon fill="white" stroke="black" points="1071.36,-0.5 1071.36,-21.5 1175.36,-21.5 1175.36,-0.5 1071.36,-0.5"/>
<text text-anchor="middle" x="1123.36" y="-8.5" font-family="Helvetica,sans-Serif" font-size="10.00">core/MojNoCopy.h</text>
</a>
</g>
<!-- Node8&#45;&gt;Node9 -->
<g id="edge16" class="edge"><title>Node8&#45;&gt;Node9</title>
<path fill="none" stroke="midnightblue" d="M1034.92,-58.4966C1051.56,-49.5602 1075.68,-36.602 1094.54,-26.4772"/>
<polygon fill="midnightblue" stroke="midnightblue" points="1096.43,-29.436 1103.58,-21.6212 1093.11,-23.2691 1096.43,-29.436"/>
</g>
<!-- Node11 -->
<g id="node21" class="node"><title>Node11</title>
<a xlink:href="MojOsInternal_8h.htm" target="_top" xlink:title="core/internal/MojOsInternal.h">
<polygon fill="white" stroke="black" points="939.357,-116.5 939.357,-137.5 1093.36,-137.5 1093.36,-116.5 939.357,-116.5"/>
<text text-anchor="middle" x="1016.36" y="-124.5" font-family="Helvetica,sans-Serif" font-size="10.00">core/internal/MojOsInternal.h</text>
</a>
</g>
<!-- Node10&#45;&gt;Node11 -->
<g id="edge20" class="edge"><title>Node10&#45;&gt;Node11</title>
<path fill="none" stroke="midnightblue" d="M984.51,-174.362C989.843,-166.431 997.268,-155.389 1003.61,-145.961"/>
<polygon fill="midnightblue" stroke="midnightblue" points="1006.57,-147.822 1009.25,-137.571 1000.76,-143.916 1006.57,-147.822"/>
</g>
<!-- Node12&#45;&gt;Node2 -->
<g id="edge24" class="edge"><title>Node12&#45;&gt;Node2</title>
<path fill="none" stroke="midnightblue" d="M1309.6,-608.396C1327.93,-600.945 1349.68,-589.195 1363.36,-572 1383.16,-547.11 1382.36,-534.808 1382.36,-503 1382.36,-503 1382.36,-503 1382.36,-373 1382.36,-312.109 1329.8,-312.855 1273.36,-290 1215.37,-266.518 1041.33,-252.698 945.108,-246.65"/>
<polygon fill="midnightblue" stroke="midnightblue" points="945.106,-243.143 934.909,-246.019 944.674,-250.13 945.106,-243.143"/>
</g>
<!-- Node13 -->
<g id="node26" class="node"><title>Node13</title>
<a xlink:href="MojListInternal_8h.htm" target="_top" xlink:title="core/internal/MojListInternal.h">
<polygon fill="white" stroke="black" points="1197.86,-550.5 1197.86,-571.5 1354.86,-571.5 1354.86,-550.5 1197.86,-550.5"/>
<text text-anchor="middle" x="1276.36" y="-558.5" font-family="Helvetica,sans-Serif" font-size="10.00">core/internal/MojListInternal.h</text>
</a>
</g>
<!-- Node12&#45;&gt;Node13 -->
<g id="edge26" class="edge"><title>Node12&#45;&gt;Node13</title>
<path fill="none" stroke="midnightblue" d="M1276.36,-608.362C1276.36,-600.922 1276.36,-590.743 1276.36,-581.728"/>
<polygon fill="midnightblue" stroke="midnightblue" points="1279.86,-581.571 1276.36,-571.571 1272.86,-581.571 1279.86,-581.571"/>
</g>
<!-- Node14&#45;&gt;Node2 -->
<g id="edge30" class="edge"><title>Node14&#45;&gt;Node2</title>
<path fill="none" stroke="midnightblue" d="M331.802,-497.814C305.494,-492.187 273.941,-480.456 257.357,-456 248.378,-442.757 250.884,-434.632 257.357,-420 292.106,-341.45 321.853,-324.852 400.357,-290 472.658,-257.902 700.032,-247.574 813.543,-244.372"/>
<polygon fill="midnightblue" stroke="midnightblue" points="813.931,-247.863 823.833,-244.092 813.741,-240.865 813.931,-247.863"/>
</g>
<!-- Node15 -->
<g id="node31" class="node"><title>Node15</title>
<a xlink:href="MojComp_8h.htm" target="_top" xlink:title="core/MojComp.h">
<polygon fill="white" stroke="black" points="449.357,-297.5 449.357,-318.5 543.357,-318.5 543.357,-297.5 449.357,-297.5"/>
<text text-anchor="middle" x="496.357" y="-305.5" font-family="Helvetica,sans-Serif" font-size="10.00">core/MojComp.h</text>
</a>
</g>
<!-- Node14&#45;&gt;Node15 -->
<g id="edge32" class="edge"><title>Node14&#45;&gt;Node15</title>
<path fill="none" stroke="midnightblue" d="M395.354,-492.418C409.339,-484.134 427.555,-471.444 439.357,-456 455.19,-435.281 478.796,-364.205 490.007,-328.628"/>
<polygon fill="midnightblue" stroke="midnightblue" points="493.429,-329.411 493.065,-318.822 486.746,-327.326 493.429,-329.411"/>
</g>
<!-- Node16 -->
<g id="node34" class="node"><title>Node16</title>
<a xlink:href="MojRbTreeBase_8h.htm" target="_top" xlink:title="core/internal/MojRbTreeBase.h">
<polygon fill="white" stroke="black" points="266.357,-427.5 266.357,-448.5 430.357,-448.5 430.357,-427.5 266.357,-427.5"/>
<text text-anchor="middle" x="348.357" y="-435.5" font-family="Helvetica,sans-Serif" font-size="10.00">core/internal/MojRbTreeBase.h</text>
</a>
</g>
<!-- Node14&#45;&gt;Node16 -->
<g id="edge36" class="edge"><title>Node14&#45;&gt;Node16</title>
<path fill="none" stroke="midnightblue" d="M370.899,-492.267C367.046,-482.991 361.374,-469.336 356.684,-458.045"/>
<polygon fill="midnightblue" stroke="midnightblue" points="359.801,-456.426 352.733,-448.534 353.337,-459.111 359.801,-456.426"/>
</g>
<!-- Node15&#45;&gt;Node2 -->
<g id="edge34" class="edge"><title>Node15&#45;&gt;Node2</title>
<path fill="none" stroke="midnightblue" d="M529.606,-297.437C538.85,-294.75 548.938,-292.047 558.357,-290 645.866,-270.985 748.495,-257.46 813.709,-249.94"/>
<polygon fill="midnightblue" stroke="midnightblue" points="814.307,-253.395 823.846,-248.785 813.514,-246.44 814.307,-253.395"/>
</g>
<!-- Node16&#45;&gt;Node2 -->
<g id="edge38" class="edge"><title>Node16&#45;&gt;Node2</title>
<path fill="none" stroke="midnightblue" d="M351.349,-427.469C359.901,-399.514 387.318,-323.3 440.357,-290 471.234,-270.614 698.693,-254.083 813.481,-246.871"/>
<polygon fill="midnightblue" stroke="midnightblue" points="813.795,-250.359 823.558,-246.244 813.36,-243.372 813.795,-250.359"/>
</g>
<!-- Node17 -->
<g id="node37" class="node"><title>Node17</title>
<a xlink:href="MojAutoPtr_8h.htm" target="_top" xlink:title="core/MojAutoPtr.h">
<polygon fill="white" stroke="black" points="992.857,-362.5 992.857,-383.5 1093.86,-383.5 1093.86,-362.5 992.857,-362.5"/>
<text text-anchor="middle" x="1043.36" y="-370.5" font-family="Helvetica,sans-Serif" font-size="10.00">core/MojAutoPtr.h</text>
</a>
</g>
<!-- Node16&#45;&gt;Node17 -->
<g id="edge40" class="edge"><title>Node16&#45;&gt;Node17</title>
<path fill="none" stroke="midnightblue" d="M430.469,-430.32C571.616,-417.12 857.119,-390.418 982.255,-378.715"/>
<polygon fill="midnightblue" stroke="midnightblue" points="982.791,-382.18 992.422,-377.764 982.139,-375.21 982.791,-382.18"/>
</g>
<!-- Node17&#45;&gt;Node2 -->
<g id="edge42" class="edge"><title>Node17&#45;&gt;Node2</title>
<path fill="none" stroke="midnightblue" d="M1044.34,-362.342C1045.33,-344.947 1044.64,-310.356 1026.36,-290 1014.41,-276.698 974.973,-264.492 939.952,-255.854"/>
<polygon fill="midnightblue" stroke="midnightblue" points="940.758,-252.449 930.217,-253.515 939.122,-259.255 940.758,-252.449"/>
</g>
<!-- Node17&#45;&gt;Node9 -->
<g id="edge48" class="edge"><title>Node17&#45;&gt;Node9</title>
<path fill="none" stroke="midnightblue" d="M1093.91,-364.796C1137.54,-356.699 1196.06,-343.07 1212.36,-326 1238.49,-298.63 1231.36,-280.843 1231.36,-243 1231.36,-243 1231.36,-243 1231.36,-127 1231.36,-81.1695 1185.64,-45.872 1153.69,-26.8018"/>
<polygon fill="midnightblue" stroke="midnightblue" points="1155.11,-23.5782 1144.69,-21.6343 1151.62,-29.6488 1155.11,-23.5782"/>
</g>
<!-- Node18 -->
<g id="node40" class="node"><title>Node18</title>
<a xlink:href="MojAtomicInt_8h.htm" target="_top" xlink:title="core/MojAtomicInt.h">
<polygon fill="white" stroke="black" points="907.357,-297.5 907.357,-318.5 1017.36,-318.5 1017.36,-297.5 907.357,-297.5"/>
<text text-anchor="middle" x="962.357" y="-305.5" font-family="Helvetica,sans-Serif" font-size="10.00">core/MojAtomicInt.h</text>
</a>
</g>
<!-- Node17&#45;&gt;Node18 -->
<g id="edge44" class="edge"><title>Node17&#45;&gt;Node18</title>
<path fill="none" stroke="midnightblue" d="M1029.98,-362.267C1017.36,-352.139 998.236,-336.792 983.541,-325"/>
<polygon fill="midnightblue" stroke="midnightblue" points="985.474,-322.063 975.484,-318.534 981.093,-327.522 985.474,-322.063"/>
</g>
<!-- Node19 -->
<g id="node44" class="node"><title>Node19</title>
<a xlink:href="MojAutoPtrInternal_8h.htm" target="_top" xlink:title="core/internal/MojAutoPtr\lInternal.h">
<polygon fill="white" stroke="black" points="1072.86,-291 1072.86,-325 1203.86,-325 1203.86,-291 1072.86,-291"/>
<text text-anchor="start" x="1080.86" y="-312" font-family="Helvetica,sans-Serif" font-size="10.00">core/internal/MojAutoPtr</text>
<text text-anchor="middle" x="1138.36" y="-299" font-family="Helvetica,sans-Serif" font-size="10.00">Internal.h</text>
</a>
</g>
<!-- Node17&#45;&gt;Node19 -->
<g id="edge50" class="edge"><title>Node17&#45;&gt;Node19</title>
<path fill="none" stroke="midnightblue" d="M1059.04,-362.267C1071.5,-353.748 1089.34,-341.537 1104.96,-330.854"/>
<polygon fill="midnightblue" stroke="midnightblue" points="1107.07,-333.645 1113.35,-325.11 1103.12,-327.868 1107.07,-333.645"/>
</g>
<!-- Node18&#45;&gt;Node2 -->
<g id="edge46" class="edge"><title>Node18&#45;&gt;Node2</title>
<path fill="none" stroke="midnightblue" d="M948.651,-297.267C935.719,-287.139 916.122,-271.792 901.064,-260"/>
<polygon fill="midnightblue" stroke="midnightblue" points="902.839,-256.944 892.808,-253.534 898.523,-262.455 902.839,-256.944"/>
</g>
<!-- Node20&#45;&gt;Node2 -->
<g id="edge54" class="edge"><title>Node20&#45;&gt;Node2</title>
<path fill="none" stroke="midnightblue" d="M159.172,-500.628C91.752,-495.078 -31.0348,-477.036 7.35725,-420 93.0776,-292.652 178.081,-325.805 327.357,-290 417.986,-268.262 687.751,-252.501 813.486,-246.126"/>
<polygon fill="midnightblue" stroke="midnightblue" points="813.93,-249.608 823.742,-245.61 813.579,-242.617 813.93,-249.608"/>
</g>
<!-- Node20&#45;&gt;Node15 -->
<g id="edge56" class="edge"><title>Node20&#45;&gt;Node15</title>
<path fill="none" stroke="midnightblue" d="M205.251,-492.495C213.709,-475.319 232.565,-441.036 257.357,-420 315.293,-370.841 398.445,-338.377 449.841,-321.604"/>
<polygon fill="midnightblue" stroke="midnightblue" points="450.91,-324.937 459.368,-318.556 448.777,-318.27 450.91,-324.937"/>
</g>
<!-- Node20&#45;&gt;Node16 -->
<g id="edge58" class="edge"><title>Node20&#45;&gt;Node16</title>
<path fill="none" stroke="midnightblue" d="M224.465,-492.412C249.084,-481.6 287.493,-464.731 315.018,-452.642"/>
<polygon fill="midnightblue" stroke="midnightblue" points="316.511,-455.809 324.259,-448.584 313.696,-449.4 316.511,-455.809"/>
</g>
<!-- Node21 -->
<g id="node51" class="node"><title>Node21</title>
<a xlink:href="MojSetInternal_8h.htm" target="_top" xlink:title="core/internal/MojSetInternal.h">
<polygon fill="white" stroke="black" points="16.3573,-427.5 16.3573,-448.5 172.357,-448.5 172.357,-427.5 16.3573,-427.5"/>
<text text-anchor="middle" x="94.3573" y="-435.5" font-family="Helvetica,sans-Serif" font-size="10.00">core/internal/MojSetInternal.h</text>
</a>
</g>
<!-- Node20&#45;&gt;Node21 -->
<g id="edge60" class="edge"><title>Node20&#45;&gt;Node21</title>
<path fill="none" stroke="midnightblue" d="M182.854,-492.267C165.797,-481.807 139.663,-465.782 120.212,-453.854"/>
<polygon fill="midnightblue" stroke="midnightblue" points="121.89,-450.778 111.535,-448.534 118.231,-456.745 121.89,-450.778"/>
</g>
<!-- Node22&#45;&gt;Node2 -->
<g id="edge64" class="edge"><title>Node22&#45;&gt;Node2</title>
<path fill="none" stroke="midnightblue" d="M913.51,-611.095C1004.65,-595.044 1200.68,-556.528 1253.36,-514 1275.94,-495.769 1276.5,-484.199 1283.36,-456 1301.35,-382.055 1304.09,-333.08 1241.36,-290 1194.64,-257.917 1036.5,-247.723 945.434,-244.492"/>
<polygon fill="midnightblue" stroke="midnightblue" points="945.326,-240.986 935.214,-244.148 945.091,-247.982 945.326,-240.986"/>
</g>
<!-- Node22&#45;&gt;Node15 -->
<g id="edge68" class="edge"><title>Node22&#45;&gt;Node15</title>
<path fill="none" stroke="midnightblue" d="M819.121,-614.228C719.373,-602.84 496.357,-569.898 496.357,-503 496.357,-503 496.357,-503 496.357,-438 496.357,-399.466 496.357,-354.508 496.357,-328.834"/>
<polygon fill="midnightblue" stroke="midnightblue" points="499.857,-328.786 496.357,-318.786 492.857,-328.786 499.857,-328.786"/>
</g>
<!-- Node22&#45;&gt;Node17 -->
<g id="edge66" class="edge"><title>Node22&#45;&gt;Node17</title>
<path fill="none" stroke="midnightblue" d="M913.466,-608.701C960.741,-595.581 1031.05,-567.833 1063.36,-514 1068.39,-505.616 1064.17,-501.744 1063.36,-492 1063.31,-491.39 1052.67,-428.259 1046.93,-394.21"/>
<polygon fill="midnightblue" stroke="midnightblue" points="1050.31,-393.189 1045.2,-383.91 1043.41,-394.353 1050.31,-393.189"/>
</g>
<!-- Node23 -->
<g id="node58" class="node"><title>Node23</title>
<a xlink:href="MojHasher_8h.htm" target="_top" xlink:title="core/MojHasher.h">
<polygon fill="white" stroke="black" points="561.857,-492.5 561.857,-513.5 662.857,-513.5 662.857,-492.5 561.857,-492.5"/>
<text text-anchor="middle" x="612.357" y="-500.5" font-family="Helvetica,sans-Serif" font-size="10.00">core/MojHasher.h</text>
</a>
</g>
<!-- Node22&#45;&gt;Node23 -->
<g id="edge70" class="edge"><title>Node22&#45;&gt;Node23</title>
<path fill="none" stroke="midnightblue" d="M828.045,-608.463C799.641,-600.076 760.304,-587.24 727.357,-572 694.337,-556.726 658.781,-534.391 636.088,-519.305"/>
<polygon fill="midnightblue" stroke="midnightblue" points="638.019,-516.386 627.767,-513.714 634.115,-522.197 638.019,-516.386"/>
</g>
<!-- Node26 -->
<g id="node67" class="node"><title>Node26</title>
<a xlink:href="MojVector_8h.htm" target="_top" xlink:title="core/MojVector.h">
<polygon fill="white" stroke="black" points="735.857,-550.5 735.857,-571.5 832.857,-571.5 832.857,-550.5 735.857,-550.5"/>
<text text-anchor="middle" x="784.357" y="-558.5" font-family="Helvetica,sans-Serif" font-size="10.00">core/MojVector.h</text>
</a>
</g>
<!-- Node22&#45;&gt;Node26 -->
<g id="edge82" class="edge"><title>Node22&#45;&gt;Node26</title>
<path fill="none" stroke="midnightblue" d="M851.317,-608.362C839.065,-599.696 821.558,-587.313 807.518,-577.382"/>
<polygon fill="midnightblue" stroke="midnightblue" points="809.487,-574.488 799.302,-571.571 805.445,-580.203 809.487,-574.488"/>
</g>
<!-- Node23&#45;&gt;Node2 -->
<g id="edge72" class="edge"><title>Node23&#45;&gt;Node2</title>
<path fill="none" stroke="midnightblue" d="M606.238,-492.373C592.707,-467.321 563.564,-403.556 591.357,-362 640.634,-288.322 744.8,-260.21 813.415,-249.517"/>
<polygon fill="midnightblue" stroke="midnightblue" points="814.305,-252.924 823.688,-248.004 813.285,-245.999 814.305,-252.924"/>
</g>
<!-- Node24 -->
<g id="node61" class="node"><title>Node24</title>
<a xlink:href="MojUtil_8h.htm" target="_top" xlink:title="core/MojUtil.h">
<polygon fill="white" stroke="black" points="619.857,-427.5 619.857,-448.5 700.857,-448.5 700.857,-427.5 619.857,-427.5"/>
<text text-anchor="middle" x="660.357" y="-435.5" font-family="Helvetica,sans-Serif" font-size="10.00">core/MojUtil.h</text>
</a>
</g>
<!-- Node23&#45;&gt;Node24 -->
<g id="edge74" class="edge"><title>Node23&#45;&gt;Node24</title>
<path fill="none" stroke="midnightblue" d="M620.283,-492.267C627.413,-482.612 638.045,-468.215 646.566,-456.675"/>
<polygon fill="midnightblue" stroke="midnightblue" points="649.454,-458.657 652.579,-448.534 643.823,-454.499 649.454,-458.657"/>
</g>
<!-- Node24&#45;&gt;Node2 -->
<g id="edge76" class="edge"><title>Node24&#45;&gt;Node2</title>
<path fill="none" stroke="midnightblue" d="M692.661,-427.424C714.933,-418.745 743.915,-404.518 763.357,-384 794.956,-350.652 776.275,-324.723 806.357,-290 817.611,-277.01 833.322,-266.267 847.287,-258.347"/>
<polygon fill="midnightblue" stroke="midnightblue" points="849.017,-261.391 856.147,-253.555 845.686,-255.234 849.017,-261.391"/>
</g>
<!-- Node25 -->
<g id="node64" class="node"><title>Node25</title>
<a xlink:href="MojUtilInternal_8h.htm" target="_top" xlink:title="core/internal/MojUtilInternal.h">
<polygon fill="white" stroke="black" points="599.857,-362.5 599.857,-383.5 754.857,-383.5 754.857,-362.5 599.857,-362.5"/>
<text text-anchor="middle" x="677.357" y="-370.5" font-family="Helvetica,sans-Serif" font-size="10.00">core/internal/MojUtilInternal.h</text>
</a>
</g>
<!-- Node24&#45;&gt;Node25 -->
<g id="edge78" class="edge"><title>Node24&#45;&gt;Node25</title>
<path fill="none" stroke="midnightblue" d="M663.164,-427.267C665.566,-418.085 669.089,-404.615 672.024,-393.392"/>
<polygon fill="midnightblue" stroke="midnightblue" points="675.458,-394.094 674.602,-383.534 668.686,-392.323 675.458,-394.094"/>
</g>
<!-- Node25&#45;&gt;Node15 -->
<g id="edge80" class="edge"><title>Node25&#45;&gt;Node15</title>
<path fill="none" stroke="midnightblue" d="M647.874,-362.412C617.24,-351.411 569.146,-334.14 535.379,-322.013"/>
<polygon fill="midnightblue" stroke="midnightblue" points="536.423,-318.669 525.828,-318.584 534.057,-325.257 536.423,-318.669"/>
</g>
<!-- Node26&#45;&gt;Node2 -->
<g id="edge84" class="edge"><title>Node26&#45;&gt;Node2</title>
<path fill="none" stroke="midnightblue" d="M772.483,-550.36C763.656,-541.599 752.32,-528.327 747.357,-514 733.683,-474.523 730.85,-458.378 747.357,-420 756.55,-398.629 770.366,-401.79 785.357,-384 819.274,-343.75 851.694,-290.894 868.145,-262.709"/>
<polygon fill="midnightblue" stroke="midnightblue" points="871.303,-264.24 873.274,-253.83 865.241,-260.738 871.303,-264.24"/>
</g>
<!-- Node26&#45;&gt;Node15 -->
<g id="edge86" class="edge"><title>Node26&#45;&gt;Node15</title>
<path fill="none" stroke="midnightblue" d="M735.677,-557.024C675.913,-551.162 579.278,-538.186 553.357,-514 549.874,-510.75 515.277,-380.068 501.744,-328.562"/>
<polygon fill="midnightblue" stroke="midnightblue" points="505.05,-327.368 499.126,-318.584 498.279,-329.145 505.05,-327.368"/>
</g>
<!-- Node26&#45;&gt;Node24 -->
<g id="edge100" class="edge"><title>Node26&#45;&gt;Node24</title>
<path fill="none" stroke="midnightblue" d="M764.557,-550.328C749.719,-541.739 729.458,-528.706 714.357,-514 696.909,-497.008 681.317,-473.735 671.426,-457.435"/>
<polygon fill="midnightblue" stroke="midnightblue" points="674.391,-455.572 666.291,-448.743 668.364,-459.133 674.391,-455.572"/>
</g>
<!-- Node27 -->
<g id="node71" class="node"><title>Node27</title>
<a xlink:href="MojRefCount_8h.htm" target="_top" xlink:title="core/MojRefCount.h">
<polygon fill="white" stroke="black" points="944.357,-492.5 944.357,-513.5 1054.36,-513.5 1054.36,-492.5 944.357,-492.5"/>
<text text-anchor="middle" x="999.357" y="-500.5" font-family="Helvetica,sans-Serif" font-size="10.00">core/MojRefCount.h</text>
</a>
</g>
<!-- Node26&#45;&gt;Node27 -->
<g id="edge88" class="edge"><title>Node26&#45;&gt;Node27</title>
<path fill="none" stroke="midnightblue" d="M823.292,-550.497C858.95,-540.877 911.881,-526.598 950.393,-516.209"/>
<polygon fill="midnightblue" stroke="midnightblue" points="951.606,-519.507 960.349,-513.523 949.783,-512.748 951.606,-519.507"/>
</g>
<!-- Node29 -->
<g id="node80" class="node"><title>Node29</title>
<a xlink:href="MojVectorInternal_8h.htm" target="_top" xlink:title="core/internal/MojVectorInternal.h">
<polygon fill="white" stroke="black" points="755.857,-492.5 755.857,-513.5 926.857,-513.5 926.857,-492.5 755.857,-492.5"/>
<text text-anchor="middle" x="841.357" y="-500.5" font-family="Helvetica,sans-Serif" font-size="10.00">core/internal/MojVectorInternal.h</text>
</a>
</g>
<!-- Node26&#45;&gt;Node29 -->
<g id="edge102" class="edge"><title>Node26&#45;&gt;Node29</title>
<path fill="none" stroke="midnightblue" d="M794.812,-550.362C802.927,-542.104 814.358,-530.472 823.861,-520.803"/>
<polygon fill="midnightblue" stroke="midnightblue" points="826.456,-523.156 830.969,-513.571 821.463,-518.25 826.456,-523.156"/>
</g>
<!-- Node27&#45;&gt;Node2 -->
<g id="edge90" class="edge"><title>Node27&#45;&gt;Node2</title>
<path fill="none" stroke="midnightblue" d="M991.794,-492.381C973.145,-465.715 924.577,-393.244 898.357,-326 890.34,-305.438 885.212,-280.63 882.33,-263.522"/>
<polygon fill="midnightblue" stroke="midnightblue" points="885.766,-262.846 880.752,-253.513 878.852,-263.936 885.766,-262.846"/>
</g>
<!-- Node27&#45;&gt;Node17 -->
<g id="edge94" class="edge"><title>Node27&#45;&gt;Node17</title>
<path fill="none" stroke="midnightblue" d="M1002.21,-492.418C1006.56,-476.547 1015.32,-445.695 1024.36,-420 1027.51,-411.028 1031.39,-401.256 1034.82,-392.958"/>
<polygon fill="midnightblue" stroke="midnightblue" points="1038.05,-394.295 1038.7,-383.72 1031.6,-391.586 1038.05,-394.295"/>
</g>
<!-- Node27&#45;&gt;Node18 -->
<g id="edge92" class="edge"><title>Node27&#45;&gt;Node18</title>
<path fill="none" stroke="midnightblue" d="M997.315,-492.238C991.404,-461.082 974.197,-370.397 966.346,-329.022"/>
<polygon fill="midnightblue" stroke="midnightblue" points="969.741,-328.141 964.439,-318.969 962.864,-329.446 969.741,-328.141"/>
</g>
<!-- Node28 -->
<g id="node76" class="node"><title>Node28</title>
<a xlink:href="MojRefCountInternal_8h.htm" target="_top" xlink:title="core/internal/MojRefCount\lInternal.h">
<polygon fill="white" stroke="black" points="756.357,-421 756.357,-455 896.357,-455 896.357,-421 756.357,-421"/>
<text text-anchor="start" x="764.357" y="-442" font-family="Helvetica,sans-Serif" font-size="10.00">core/internal/MojRefCount</text>
<text text-anchor="middle" x="826.357" y="-429" font-family="Helvetica,sans-Serif" font-size="10.00">Internal.h</text>
</a>
</g>
<!-- Node27&#45;&gt;Node28 -->
<g id="edge96" class="edge"><title>Node27&#45;&gt;Node28</title>
<path fill="none" stroke="midnightblue" d="M971.177,-492.412C946.9,-483.291 911.151,-469.859 881.246,-458.623"/>
<polygon fill="midnightblue" stroke="midnightblue" points="882.356,-455.301 871.764,-455.06 879.894,-461.854 882.356,-455.301"/>
</g>
<!-- Node28&#45;&gt;Node25 -->
<g id="edge98" class="edge"><title>Node28&#45;&gt;Node25</title>
<path fill="none" stroke="midnightblue" d="M787.209,-420.922C763.52,-410.588 733.621,-397.545 711,-387.676"/>
<polygon fill="midnightblue" stroke="midnightblue" points="712.355,-384.449 701.79,-383.658 709.556,-390.865 712.355,-384.449"/>
</g>
<!-- Node30&#45;&gt;Node2 -->
<g id="edge106" class="edge"><title>Node30&#45;&gt;Node2</title>
<path fill="none" stroke="midnightblue" d="M1222.42,-492.353C1238.09,-484.784 1256.26,-472.929 1265.36,-456 1294.7,-401.389 1250.07,-319.389 1212.36,-290 1171.86,-258.446 1029.87,-248.065 944.933,-244.657"/>
<polygon fill="midnightblue" stroke="midnightblue" points="944.993,-241.157 934.868,-244.275 944.728,-248.152 944.993,-241.157"/>
</g>
<!-- Node30&#45;&gt;Node18 -->
<g id="edge108" class="edge"><title>Node30&#45;&gt;Node18</title>
<path fill="none" stroke="midnightblue" d="M1213.74,-492.458C1226.46,-484.35 1242.05,-471.856 1249.36,-456 1256.05,-441.469 1258.36,-433.228 1249.36,-420 1222.22,-380.114 1090.81,-340.825 1015.56,-321.098"/>
<polygon fill="midnightblue" stroke="midnightblue" points="1016.34,-317.684 1005.78,-318.561 1014.58,-324.46 1016.34,-317.684"/>
</g>
<!-- Node31 -->
<g id="node86" class="node"><title>Node31</title>
<a xlink:href="MojThreadInternal_8h.htm" target="_top" xlink:title="core/internal/MojThreadInternal.h">
<polygon fill="white" stroke="black" points="1065.86,-427.5 1065.86,-448.5 1240.86,-448.5 1240.86,-427.5 1065.86,-427.5"/>
<text text-anchor="middle" x="1153.36" y="-435.5" font-family="Helvetica,sans-Serif" font-size="10.00">core/internal/MojThreadInternal.h</text>
</a>
</g>
<!-- Node30&#45;&gt;Node31 -->
<g id="edge110" class="edge"><title>Node30&#45;&gt;Node31</title>
<path fill="none" stroke="midnightblue" d="M1187.59,-492.267C1181.56,-482.707 1172.59,-468.496 1165.35,-457.015"/>
<polygon fill="midnightblue" stroke="midnightblue" points="1168.3,-455.124 1160,-448.534 1162.38,-458.859 1168.3,-455.124"/>
</g>
<!-- Node31&#45;&gt;Node17 -->
<g id="edge112" class="edge"><title>Node31&#45;&gt;Node17</title>
<path fill="none" stroke="midnightblue" d="M1135.19,-427.267C1117.41,-416.76 1090.13,-400.637 1069.91,-388.692"/>
<polygon fill="midnightblue" stroke="midnightblue" points="1071.57,-385.608 1061.18,-383.534 1068.01,-391.634 1071.57,-385.608"/>
</g>
</g>
</svg>
