<?xml version="1.0" encoding="UTF-8" standalone="no"?>
<!DOCTYPE svg PUBLIC "-//W3C//DTD SVG 1.1//EN"
 "http://www.w3.org/Graphics/SVG/1.1/DTD/svg11.dtd">
<!-- Generated by graphviz version 2.26.3 (20100126.1600)
 -->
<!-- Title: MojLogEngine.h Pages: 1 -->
<svg width="642pt" height="88pt"
 viewBox="0.00 0.00 642.00 88.00" xmlns="http://www.w3.org/2000/svg" xmlns:xlink="http://www.w3.org/1999/xlink">
<g id="graph1" class="graph" transform="scale(1 1) rotate(0) translate(4 84)">
<title>MojLogEngine.h</title>
<polygon fill="white" stroke="white" points="-4,5 -4,-84 639,-84 639,5 -4,5"/>
<!-- Node1 -->
<g id="node1" class="node"><title>Node1</title>
<polygon fill="#bfbfbf" stroke="black" points="260.5,-58.5 260.5,-79.5 353.5,-79.5 353.5,-58.5 260.5,-58.5"/>
<text text-anchor="middle" x="307" y="-66.5" font-family="Helvetica,sans-Serif" font-size="10.00">MojLogEngine.h</text>
</g>
<!-- Node2 -->
<g id="node3" class="node"><title>Node2</title>
<a xlink:href="MojPmLogAppender_8h.htm" target="_top" xlink:title="MojPmLogAppender.h">
<polygon fill="white" stroke="black" points="0,-0.5 0,-21.5 122,-21.5 122,-0.5 0,-0.5"/>
<text text-anchor="middle" x="61" y="-8.5" font-family="Helvetica,sans-Serif" font-size="10.00">MojPmLogAppender.h</text>
</a>
</g>
<!-- Node1&#45;&gt;Node2 -->
<g id="edge2" class="edge"><title>Node1&#45;&gt;Node2</title>
<path fill="none" stroke="midnightblue" d="M252.466,-56.1424C208.315,-45.7328 146.893,-31.2511 105.632,-21.5231"/>
<polygon fill="midnightblue" stroke="midnightblue" points="251.915,-59.6084 262.451,-58.4966 253.521,-52.7952 251.915,-59.6084"/>
</g>
<!-- Node3 -->
<g id="node5" class="node"><title>Node3</title>
<a xlink:href="MojApp_8cpp.htm" target="_top" xlink:title="MojApp.cpp">
<polygon fill="white" stroke="black" points="140,-0.5 140,-21.5 212,-21.5 212,-0.5 140,-0.5"/>
<text text-anchor="middle" x="176" y="-8.5" font-family="Helvetica,sans-Serif" font-size="10.00">MojApp.cpp</text>
</a>
</g>
<!-- Node1&#45;&gt;Node3 -->
<g id="edge4" class="edge"><title>Node1&#45;&gt;Node3</title>
<path fill="none" stroke="midnightblue" d="M273.896,-54.3431C250.874,-44.1502 220.715,-30.7977 199.989,-21.6212"/>
<polygon fill="midnightblue" stroke="midnightblue" points="272.716,-57.6485 283.277,-58.4966 275.55,-51.2478 272.716,-57.6485"/>
</g>
<!-- Node4 -->
<g id="node7" class="node"><title>Node4</title>
<a xlink:href="MojErr_8cpp.htm" target="_top" xlink:title="MojErr.cpp">
<polygon fill="white" stroke="black" points="230,-0.5 230,-21.5 298,-21.5 298,-0.5 230,-0.5"/>
<text text-anchor="middle" x="264" y="-8.5" font-family="Helvetica,sans-Serif" font-size="10.00">MojErr.cpp</text>
</a>
</g>
<!-- Node1&#45;&gt;Node4 -->
<g id="edge6" class="edge"><title>Node1&#45;&gt;Node4</title>
<path fill="none" stroke="midnightblue" d="M293.099,-50.2504C286.056,-40.75 277.764,-29.5651 271.837,-21.5707"/>
<polygon fill="midnightblue" stroke="midnightblue" points="290.346,-52.4132 299.113,-58.3619 295.969,-48.2443 290.346,-52.4132"/>
</g>
<!-- Node5 -->
<g id="node9" class="node"><title>Node5</title>
<a xlink:href="MojLog_8cpp.htm" target="_top" xlink:title="MojLog.cpp">
<polygon fill="white" stroke="black" points="315.5,-0.5 315.5,-21.5 386.5,-21.5 386.5,-0.5 315.5,-0.5"/>
<text text-anchor="middle" x="351" y="-8.5" font-family="Helvetica,sans-Serif" font-size="10.00">MojLog.cpp</text>
</a>
</g>
<!-- Node1&#45;&gt;Node5 -->
<g id="edge8" class="edge"><title>Node1&#45;&gt;Node5</title>
<path fill="none" stroke="midnightblue" d="M321.224,-50.2504C328.431,-40.75 336.916,-29.5651 342.981,-21.5707"/>
<polygon fill="midnightblue" stroke="midnightblue" points="318.326,-48.2796 315.07,-58.3619 323.903,-52.5103 318.326,-48.2796"/>
</g>
<!-- Node6 -->
<g id="node11" class="node"><title>Node6</title>
<a xlink:href="MojLogEngine_8cpp.htm" target="_top" xlink:title="MojLogEngine.cpp">
<polygon fill="white" stroke="black" points="404,-0.5 404,-21.5 508,-21.5 508,-0.5 404,-0.5"/>
<text text-anchor="middle" x="456" y="-8.5" font-family="Helvetica,sans-Serif" font-size="10.00">MojLogEngine.cpp</text>
</a>
</g>
<!-- Node1&#45;&gt;Node6 -->
<g id="edge10" class="edge"><title>Node1&#45;&gt;Node6</title>
<path fill="none" stroke="midnightblue" d="M343.637,-54.7386C370.038,-44.4616 405.08,-30.821 428.967,-21.5231"/>
<polygon fill="midnightblue" stroke="midnightblue" points="342.032,-51.6075 333.983,-58.4966 344.571,-58.1307 342.032,-51.6075"/>
</g>
<!-- Node7 -->
<g id="node13" class="node"><title>Node7</title>
<a xlink:href="MojTestRunner_8cpp.htm" target="_top" xlink:title="MojTestRunner.cpp">
<polygon fill="white" stroke="black" points="525.5,-0.5 525.5,-21.5 634.5,-21.5 634.5,-0.5 525.5,-0.5"/>
<text text-anchor="middle" x="580" y="-8.5" font-family="Helvetica,sans-Serif" font-size="10.00">MojTestRunner.cpp</text>
</a>
</g>
<!-- Node1&#45;&gt;Node7 -->
<g id="edge12" class="edge"><title>Node1&#45;&gt;Node7</title>
<path fill="none" stroke="midnightblue" d="M363.466,-57.0035C412.652,-46.5538 483.274,-31.5499 530.34,-21.5505"/>
<polygon fill="midnightblue" stroke="midnightblue" points="362.674,-53.5935 353.62,-59.0953 364.129,-60.4407 362.674,-53.5935"/>
</g>
</g>
</svg>
