<?xml version="1.0" encoding="UTF-8" standalone="no"?>
<!DOCTYPE svg PUBLIC "-//W3C//DTD SVG 1.1//EN"
 "http://www.w3.org/Graphics/SVG/1.1/DTD/svg11.dtd">
<!-- Generated by graphviz version 2.26.3 (20100126.1600)
 -->
<!-- Title: MojLunaService.h Pages: 1 -->
<svg width="756pt" height="204pt"
 viewBox="0.00 0.00 756.00 204.00" xmlns="http://www.w3.org/2000/svg" xmlns:xlink="http://www.w3.org/1999/xlink">
<g id="graph1" class="graph" transform="scale(1 1) rotate(0) translate(4 200)">
<title>MojLunaService.h</title>
<polygon fill="white" stroke="white" points="-4,5 -4,-200 753,-200 753,5 -4,5"/>
<!-- Node1 -->
<g id="node1" class="node"><title>Node1</title>
<polygon fill="#bfbfbf" stroke="black" points="438.5,-174.5 438.5,-195.5 539.5,-195.5 539.5,-174.5 438.5,-174.5"/>
<text text-anchor="middle" x="489" y="-182.5" font-family="Helvetica,sans-Serif" font-size="10.00">MojLunaService.h</text>
</g>
<!-- Node2 -->
<g id="node3" class="node"><title>Node2</title>
<a xlink:href="MojDbServiceHandlerInternal_8h.htm" target="_top" xlink:title="MojDbServiceHandlerInternal.h">
<polygon fill="white" stroke="black" points="211,-116.5 211,-137.5 375,-137.5 375,-116.5 211,-116.5"/>
<text text-anchor="middle" x="293" y="-124.5" font-family="Helvetica,sans-Serif" font-size="10.00">MojDbServiceHandlerInternal.h</text>
</a>
</g>
<!-- Node1&#45;&gt;Node2 -->
<g id="edge2" class="edge"><title>Node1&#45;&gt;Node2</title>
<path fill="none" stroke="midnightblue" d="M443.536,-171.546C408.524,-161.186 360.812,-147.067 328.561,-137.523"/>
<polygon fill="midnightblue" stroke="midnightblue" points="442.924,-175.015 453.506,-174.497 444.91,-168.303 442.924,-175.015"/>
</g>
<!-- Node5 -->
<g id="node9" class="node"><title>Node5</title>
<a xlink:href="MojDbLunaServiceApp_8h.htm" target="_top" xlink:title="MojDbLunaServiceApp.h">
<polygon fill="white" stroke="black" points="348,-58.5 348,-79.5 480,-79.5 480,-58.5 348,-58.5"/>
<text text-anchor="middle" x="414" y="-66.5" font-family="Helvetica,sans-Serif" font-size="10.00">MojDbLunaServiceApp.h</text>
</a>
</g>
<!-- Node1&#45;&gt;Node5 -->
<g id="edge18" class="edge"><title>Node1&#45;&gt;Node5</title>
<path fill="none" stroke="midnightblue" d="M476.571,-165.776C460.637,-141.132 433.561,-99.2547 420.905,-79.6792"/>
<polygon fill="midnightblue" stroke="midnightblue" points="473.71,-167.798 482.079,-174.295 479.588,-163.997 473.71,-167.798"/>
</g>
<!-- Node7 -->
<g id="node13" class="node"><title>Node7</title>
<a xlink:href="MojLunaMessage_8h.htm" target="_top" xlink:title="MojLunaMessage.h">
<polygon fill="white" stroke="black" points="516.5,-116.5 516.5,-137.5 625.5,-137.5 625.5,-116.5 516.5,-116.5"/>
<text text-anchor="middle" x="571" y="-124.5" font-family="Helvetica,sans-Serif" font-size="10.00">MojLunaMessage.h</text>
</a>
</g>
<!-- Node1&#45;&gt;Node7 -->
<g id="edge12" class="edge"><title>Node1&#45;&gt;Node7</title>
<path fill="none" stroke="midnightblue" d="M512.27,-168.541C526.328,-158.597 543.83,-146.218 556.055,-137.571"/>
<polygon fill="midnightblue" stroke="midnightblue" points="510.183,-165.73 504.04,-174.362 514.225,-171.445 510.183,-165.73"/>
</g>
<!-- Node8 -->
<g id="node15" class="node"><title>Node8</title>
<a xlink:href="MojLunaMessage_8cpp.htm" target="_top" xlink:title="MojLunaMessage.cpp">
<polygon fill="white" stroke="black" points="498,-58.5 498,-79.5 618,-79.5 618,-58.5 498,-58.5"/>
<text text-anchor="middle" x="558" y="-66.5" font-family="Helvetica,sans-Serif" font-size="10.00">MojLunaMessage.cpp</text>
</a>
</g>
<!-- Node1&#45;&gt;Node8 -->
<g id="edge20" class="edge"><title>Node1&#45;&gt;Node8</title>
<path fill="none" stroke="midnightblue" d="M491.622,-164.591C494.161,-150.205 499.003,-130.924 508,-116 516.857,-101.308 531.57,-88.2732 542.749,-79.6801"/>
<polygon fill="midnightblue" stroke="midnightblue" points="488.162,-164.067 490.099,-174.483 495.08,-165.133 488.162,-164.067"/>
</g>
<!-- Node9 -->
<g id="node17" class="node"><title>Node9</title>
<a xlink:href="MojLunaService_8cpp.htm" target="_top" xlink:title="MojLunaService.cpp">
<polygon fill="white" stroke="black" points="636,-58.5 636,-79.5 748,-79.5 748,-58.5 636,-58.5"/>
<text text-anchor="middle" x="692" y="-66.5" font-family="Helvetica,sans-Serif" font-size="10.00">MojLunaService.cpp</text>
</a>
</g>
<!-- Node1&#45;&gt;Node9 -->
<g id="edge22" class="edge"><title>Node1&#45;&gt;Node9</title>
<path fill="none" stroke="midnightblue" d="M549.612,-173.381C576.993,-166.187 608.781,-154.982 634,-138 657.235,-122.354 676.334,-94.8535 685.721,-79.7256"/>
<polygon fill="midnightblue" stroke="midnightblue" points="548.594,-170.028 539.744,-175.853 550.295,-176.818 548.594,-170.028"/>
</g>
<!-- Node3 -->
<g id="node5" class="node"><title>Node3</title>
<a xlink:href="MojDbServiceHandler_8cpp.htm" target="_top" xlink:title="MojDbServiceHandler.cpp">
<polygon fill="white" stroke="black" points="-0.5,-58.5 -0.5,-79.5 138.5,-79.5 138.5,-58.5 -0.5,-58.5"/>
<text text-anchor="middle" x="69" y="-66.5" font-family="Helvetica,sans-Serif" font-size="10.00">MojDbServiceHandler.cpp</text>
</a>
</g>
<!-- Node2&#45;&gt;Node3 -->
<g id="edge4" class="edge"><title>Node2&#45;&gt;Node3</title>
<path fill="none" stroke="midnightblue" d="M242.579,-113.945C202.435,-103.55 146.974,-89.1897 109.641,-79.5231"/>
<polygon fill="midnightblue" stroke="midnightblue" points="241.877,-117.378 252.435,-116.497 243.632,-110.602 241.877,-117.378"/>
</g>
<!-- Node4 -->
<g id="node7" class="node"><title>Node4</title>
<a xlink:href="MojDbServiceHandlerInternal_8cpp.htm" target="_top" xlink:title="MojDbServiceHandlerInternal.cpp">
<polygon fill="white" stroke="black" points="155.5,-58.5 155.5,-79.5 330.5,-79.5 330.5,-58.5 155.5,-58.5"/>
<text text-anchor="middle" x="243" y="-66.5" font-family="Helvetica,sans-Serif" font-size="10.00">MojDbServiceHandlerInternal.cpp</text>
</a>
</g>
<!-- Node2&#45;&gt;Node4 -->
<g id="edge6" class="edge"><title>Node2&#45;&gt;Node4</title>
<path fill="none" stroke="midnightblue" d="M277.087,-108.541C268.844,-98.9786 259.075,-87.6467 252.113,-79.5707"/>
<polygon fill="midnightblue" stroke="midnightblue" points="274.649,-111.073 283.829,-116.362 279.951,-106.502 274.649,-111.073"/>
</g>
<!-- Node2&#45;&gt;Node5 -->
<g id="edge8" class="edge"><title>Node2&#45;&gt;Node5</title>
<path fill="none" stroke="midnightblue" d="M324.149,-112.069C345.339,-101.912 372.869,-88.7157 391.842,-79.6212"/>
<polygon fill="midnightblue" stroke="midnightblue" points="322.417,-109.018 314.912,-116.497 325.443,-115.33 322.417,-109.018"/>
</g>
<!-- Node6 -->
<g id="node11" class="node"><title>Node6</title>
<a xlink:href="MojDbLunaServiceApp_8cpp.htm" target="_top" xlink:title="MojDbLunaServiceApp.cpp">
<polygon fill="white" stroke="black" points="342.5,-0.5 342.5,-21.5 485.5,-21.5 485.5,-0.5 342.5,-0.5"/>
<text text-anchor="middle" x="414" y="-8.5" font-family="Helvetica,sans-Serif" font-size="10.00">MojDbLunaServiceApp.cpp</text>
</a>
</g>
<!-- Node5&#45;&gt;Node6 -->
<g id="edge10" class="edge"><title>Node5&#45;&gt;Node6</title>
<path fill="none" stroke="midnightblue" d="M414,-48.1906C414,-39.1684 414,-28.9941 414,-21.5707"/>
<polygon fill="midnightblue" stroke="midnightblue" points="410.5,-48.3619 414,-58.3619 417.5,-48.3619 410.5,-48.3619"/>
</g>
<!-- Node7&#45;&gt;Node8 -->
<g id="edge14" class="edge"><title>Node7&#45;&gt;Node8</title>
<path fill="none" stroke="midnightblue" d="M566.402,-106.488C564.364,-97.3924 562.051,-87.0756 560.369,-79.5707"/>
<polygon fill="midnightblue" stroke="midnightblue" points="563.013,-107.37 568.616,-116.362 569.844,-105.838 563.013,-107.37"/>
</g>
<!-- Node7&#45;&gt;Node9 -->
<g id="edge16" class="edge"><title>Node7&#45;&gt;Node9</title>
<path fill="none" stroke="midnightblue" d="M602.149,-112.069C623.339,-101.912 650.869,-88.7157 669.842,-79.6212"/>
<polygon fill="midnightblue" stroke="midnightblue" points="600.417,-109.018 592.912,-116.497 603.443,-115.33 600.417,-109.018"/>
</g>
</g>
</svg>
