<?xml version="1.0" encoding="UTF-8" standalone="no"?>
<!DOCTYPE svg PUBLIC "-//W3C//DTD SVG 1.1//EN"
 "http://www.w3.org/Graphics/SVG/1.1/DTD/svg11.dtd">
<!-- Generated by graphviz version 2.26.3 (20100126.1600)
 -->
<!-- Title: MojLunaErr.h Pages: 1 -->
<svg width="366pt" height="88pt"
 viewBox="0.00 0.00 366.00 88.00" xmlns="http://www.w3.org/2000/svg" xmlns:xlink="http://www.w3.org/1999/xlink">
<g id="graph1" class="graph" transform="scale(1 1) rotate(0) translate(4 84)">
<title>MojLunaErr.h</title>
<polygon fill="white" stroke="white" points="-4,5 -4,-84 363,-84 363,5 -4,5"/>
<!-- Node1 -->
<g id="node1" class="node"><title>Node1</title>
<polygon fill="#bfbfbf" stroke="black" points="128,-58.5 128,-79.5 208,-79.5 208,-58.5 128,-58.5"/>
<text text-anchor="middle" x="168" y="-66.5" font-family="Helvetica,sans-Serif" font-size="10.00">MojLunaErr.h</text>
</g>
<!-- Node2 -->
<g id="node3" class="node"><title>Node2</title>
<a xlink:href="MojLunaErr_8cpp.htm" target="_top" xlink:title="MojLunaErr.cpp">
<polygon fill="white" stroke="black" points="-0.5,-0.5 -0.5,-21.5 90.5,-21.5 90.5,-0.5 -0.5,-0.5"/>
<text text-anchor="middle" x="45" y="-8.5" font-family="Helvetica,sans-Serif" font-size="10.00">MojLunaErr.cpp</text>
</a>
</g>
<!-- Node1&#45;&gt;Node2 -->
<g id="edge2" class="edge"><title>Node1&#45;&gt;Node2</title>
<path fill="none" stroke="midnightblue" d="M136.627,-54.2064C115.049,-44.031 86.8978,-30.7567 67.5243,-21.6212"/>
<polygon fill="midnightblue" stroke="midnightblue" points="135.188,-57.3972 145.726,-58.4966 138.174,-51.0658 135.188,-57.3972"/>
</g>
<!-- Node3 -->
<g id="node5" class="node"><title>Node3</title>
<a xlink:href="MojLunaMessage_8cpp.htm" target="_top" xlink:title="MojLunaMessage.cpp">
<polygon fill="white" stroke="black" points="108,-0.5 108,-21.5 228,-21.5 228,-0.5 108,-0.5"/>
<text text-anchor="middle" x="168" y="-8.5" font-family="Helvetica,sans-Serif" font-size="10.00">MojLunaMessage.cpp</text>
</a>
</g>
<!-- Node1&#45;&gt;Node3 -->
<g id="edge4" class="edge"><title>Node1&#45;&gt;Node3</title>
<path fill="none" stroke="midnightblue" d="M168,-48.1906C168,-39.1684 168,-28.9941 168,-21.5707"/>
<polygon fill="midnightblue" stroke="midnightblue" points="164.5,-48.3619 168,-58.3619 171.5,-48.3619 164.5,-48.3619"/>
</g>
<!-- Node4 -->
<g id="node7" class="node"><title>Node4</title>
<a xlink:href="MojLunaService_8cpp.htm" target="_top" xlink:title="MojLunaService.cpp">
<polygon fill="white" stroke="black" points="246,-0.5 246,-21.5 358,-21.5 358,-0.5 246,-0.5"/>
<text text-anchor="middle" x="302" y="-8.5" font-family="Helvetica,sans-Serif" font-size="10.00">MojLunaService.cpp</text>
</a>
</g>
<!-- Node1&#45;&gt;Node4 -->
<g id="edge6" class="edge"><title>Node1&#45;&gt;Node4</title>
<path fill="none" stroke="midnightblue" d="M201.548,-54.4794C225.136,-44.2695 256.166,-30.8386 277.461,-21.6212"/>
<polygon fill="midnightblue" stroke="midnightblue" points="200.053,-51.3123 192.266,-58.4966 202.834,-57.7364 200.053,-51.3123"/>
</g>
</g>
</svg>
