<?xml version="1.0" encoding="UTF-8" standalone="no"?>
<!DOCTYPE svg PUBLIC "-//W3C//DTD SVG 1.1//EN"
 "http://www.w3.org/Graphics/SVG/1.1/DTD/svg11.dtd">
<!-- Generated by graphviz version 2.26.3 (20100126.1600)
 -->
<!-- Title: MojLogEngine.cpp Pages: 1 -->
<svg width="1964pt" height="754pt"
 viewBox="0.00 0.00 1964.20 754.00" xmlns="http://www.w3.org/2000/svg" xmlns:xlink="http://www.w3.org/1999/xlink">
<g id="graph1" class="graph" transform="scale(1 1) rotate(0) translate(4 750)">
<title>MojLogEngine.cpp</title>
<polygon fill="white" stroke="white" points="-4,5 -4,-750 1961.2,-750 1961.2,5 -4,5"/>
<!-- Node1 -->
<g id="node1" class="node"><title>Node1</title>
<polygon fill="#bfbfbf" stroke="black" points="1212.2,-724.5 1212.2,-745.5 1316.2,-745.5 1316.2,-724.5 1212.2,-724.5"/>
<text text-anchor="middle" x="1264.2" y="-732.5" font-family="Helvetica,sans-Serif" font-size="10.00">MojLogEngine.cpp</text>
</g>
<!-- Node2 -->
<g id="node3" class="node"><title>Node2</title>
<a xlink:href="MojLogEngine_8h.htm" target="_top" xlink:title="core/MojLogEngine.h">
<polygon fill="white" stroke="black" points="671.701,-666.5 671.701,-687.5 788.701,-687.5 788.701,-666.5 671.701,-666.5"/>
<text text-anchor="middle" x="730.201" y="-674.5" font-family="Helvetica,sans-Serif" font-size="10.00">core/MojLogEngine.h</text>
</a>
</g>
<!-- Node1&#45;&gt;Node2 -->
<g id="edge2" class="edge"><title>Node1&#45;&gt;Node2</title>
<path fill="none" stroke="midnightblue" d="M1212.03,-729.333C1115.16,-718.812 907.561,-696.264 799.218,-684.496"/>
<polygon fill="midnightblue" stroke="midnightblue" points="799.37,-680.992 789.05,-683.392 798.614,-687.951 799.37,-680.992"/>
</g>
<!-- Node33 -->
<g id="node91" class="node"><title>Node33</title>
<a xlink:href="MojObject_8h.htm" target="_top" xlink:title="core/MojObject.h">
<polygon fill="white" stroke="black" points="1216.2,-666.5 1216.2,-687.5 1312.2,-687.5 1312.2,-666.5 1216.2,-666.5"/>
<text text-anchor="middle" x="1264.2" y="-674.5" font-family="Helvetica,sans-Serif" font-size="10.00">core/MojObject.h</text>
</a>
</g>
<!-- Node1&#45;&gt;Node33 -->
<g id="edge116" class="edge"><title>Node1&#45;&gt;Node33</title>
<path fill="none" stroke="midnightblue" d="M1264.2,-724.362C1264.2,-716.922 1264.2,-706.743 1264.2,-697.728"/>
<polygon fill="midnightblue" stroke="midnightblue" points="1267.7,-697.571 1264.2,-687.571 1260.7,-697.571 1267.7,-697.571"/>
</g>
<!-- Node35 -->
<g id="node101" class="node"><title>Node35</title>
<a xlink:href="MojTime_8h.htm" target="_top" xlink:title="core/MojTime.h">
<polygon fill="white" stroke="black" points="1755.7,-492.5 1755.7,-513.5 1844.7,-513.5 1844.7,-492.5 1755.7,-492.5"/>
<text text-anchor="middle" x="1800.2" y="-500.5" font-family="Helvetica,sans-Serif" font-size="10.00">core/MojTime.h</text>
</a>
</g>
<!-- Node1&#45;&gt;Node35 -->
<g id="edge132" class="edge"><title>Node1&#45;&gt;Node35</title>
<path fill="none" stroke="midnightblue" d="M1316.36,-726.973C1397.59,-713.387 1558.25,-682.132 1686.2,-630 1733.43,-610.758 1755.26,-613.282 1785.2,-572 1795.29,-558.082 1798.83,-538.704 1799.97,-524.026"/>
<polygon fill="midnightblue" stroke="midnightblue" points="1803.47,-524.037 1800.43,-513.886 1796.48,-523.714 1803.47,-524.037"/>
</g>
<!-- Node3 -->
<g id="node5" class="node"><title>Node3</title>
<a xlink:href="MojCoreDefs_8h.htm" target="_top" xlink:title="core/MojCoreDefs.h">
<polygon fill="white" stroke="black" points="913.701,-232.5 913.701,-253.5 1024.7,-253.5 1024.7,-232.5 913.701,-232.5"/>
<text text-anchor="middle" x="969.201" y="-240.5" font-family="Helvetica,sans-Serif" font-size="10.00">core/MojCoreDefs.h</text>
</a>
</g>
<!-- Node2&#45;&gt;Node3 -->
<g id="edge4" class="edge"><title>Node2&#45;&gt;Node3</title>
<path fill="none" stroke="midnightblue" d="M671.536,-670C535.917,-653.026 212.201,-607.626 212.201,-561 212.201,-561 212.201,-561 212.201,-373 212.201,-303.146 719.36,-260.55 903.448,-247.389"/>
<polygon fill="midnightblue" stroke="midnightblue" points="903.81,-250.872 913.537,-246.674 903.315,-243.89 903.81,-250.872"/>
</g>
<!-- Node13 -->
<g id="node25" class="node"><title>Node13</title>
<a xlink:href="MojList_8h.htm" target="_top" xlink:title="core/MojList.h">
<polygon fill="white" stroke="black" points="64.7011,-608.5 64.7011,-629.5 147.701,-629.5 147.701,-608.5 64.7011,-608.5"/>
<text text-anchor="middle" x="106.201" y="-616.5" font-family="Helvetica,sans-Serif" font-size="10.00">core/MojList.h</text>
</a>
</g>
<!-- Node2&#45;&gt;Node13 -->
<g id="edge24" class="edge"><title>Node2&#45;&gt;Node13</title>
<path fill="none" stroke="midnightblue" d="M671.496,-672.41C573.396,-664.606 369.969,-647.852 198.201,-630 185.198,-628.649 171.178,-627.046 158.098,-625.489"/>
<polygon fill="midnightblue" stroke="midnightblue" points="158.194,-621.976 147.847,-624.255 157.357,-628.925 158.194,-621.976"/>
</g>
<!-- Node15 -->
<g id="node30" class="node"><title>Node15</title>
<a xlink:href="MojMap_8h.htm" target="_top" xlink:title="core/MojMap.h">
<polygon fill="white" stroke="black" points="797.701,-492.5 797.701,-513.5 884.701,-513.5 884.701,-492.5 797.701,-492.5"/>
<text text-anchor="middle" x="841.201" y="-500.5" font-family="Helvetica,sans-Serif" font-size="10.00">core/MojMap.h</text>
</a>
</g>
<!-- Node2&#45;&gt;Node15 -->
<g id="edge30" class="edge"><title>Node2&#45;&gt;Node15</title>
<path fill="none" stroke="midnightblue" d="M736.978,-666.377C755.125,-637.93 805.041,-559.684 828.59,-522.769"/>
<polygon fill="midnightblue" stroke="midnightblue" points="831.803,-524.241 834.23,-513.928 825.901,-520.476 831.803,-524.241"/>
</g>
<!-- Node21 -->
<g id="node48" class="node"><title>Node21</title>
<a xlink:href="MojSet_8h.htm" target="_top" xlink:title="core/MojSet.h">
<polygon fill="white" stroke="black" points="531.201,-492.5 531.201,-513.5 613.201,-513.5 613.201,-492.5 531.201,-492.5"/>
<text text-anchor="middle" x="572.201" y="-500.5" font-family="Helvetica,sans-Serif" font-size="10.00">core/MojSet.h</text>
</a>
</g>
<!-- Node2&#45;&gt;Node21 -->
<g id="edge54" class="edge"><title>Node2&#45;&gt;Node21</title>
<path fill="none" stroke="midnightblue" d="M720.555,-666.377C694.394,-637.567 621.851,-557.678 588.887,-521.376"/>
<polygon fill="midnightblue" stroke="midnightblue" points="591.438,-518.978 582.124,-513.928 586.255,-523.684 591.438,-518.978"/>
</g>
<!-- Node23 -->
<g id="node55" class="node"><title>Node23</title>
<a xlink:href="MojString_8h.htm" target="_top" xlink:title="core/MojString.h">
<polygon fill="white" stroke="black" points="1055.2,-608.5 1055.2,-629.5 1149.2,-629.5 1149.2,-608.5 1055.2,-608.5"/>
<text text-anchor="middle" x="1102.2" y="-616.5" font-family="Helvetica,sans-Serif" font-size="10.00">core/MojString.h</text>
</a>
</g>
<!-- Node2&#45;&gt;Node23 -->
<g id="edge64" class="edge"><title>Node2&#45;&gt;Node23</title>
<path fill="none" stroke="midnightblue" d="M788.735,-667.874C858.942,-656.927 975.833,-638.703 1045.3,-627.871"/>
<polygon fill="midnightblue" stroke="midnightblue" points="1045.86,-631.327 1055.2,-626.328 1044.78,-624.411 1045.86,-631.327"/>
</g>
<!-- Node31 -->
<g id="node84" class="node"><title>Node31</title>
<a xlink:href="MojThread_8h.htm" target="_top" xlink:title="core/MojThread.h">
<polygon fill="white" stroke="black" points="679.701,-492.5 679.701,-513.5 780.701,-513.5 780.701,-492.5 679.701,-492.5"/>
<text text-anchor="middle" x="730.201" y="-500.5" font-family="Helvetica,sans-Serif" font-size="10.00">core/MojThread.h</text>
</a>
</g>
<!-- Node2&#45;&gt;Node31 -->
<g id="edge106" class="edge"><title>Node2&#45;&gt;Node31</title>
<path fill="none" stroke="midnightblue" d="M730.201,-666.377C730.201,-638.293 730.201,-561.673 730.201,-524.203"/>
<polygon fill="midnightblue" stroke="midnightblue" points="733.701,-523.928 730.201,-513.928 726.701,-523.928 733.701,-523.928"/>
</g>
<!-- Node4 -->
<g id="node7" class="node"><title>Node4</title>
<a xlink:href="MojConfig_8h.htm" target="_top" xlink:title="core/internal/MojConfig.h">
<polygon fill="white" stroke="black" points="754.701,-174.5 754.701,-195.5 889.701,-195.5 889.701,-174.5 754.701,-174.5"/>
<text text-anchor="middle" x="822.201" y="-182.5" font-family="Helvetica,sans-Serif" font-size="10.00">core/internal/MojConfig.h</text>
</a>
</g>
<!-- Node3&#45;&gt;Node4 -->
<g id="edge6" class="edge"><title>Node3&#45;&gt;Node4</title>
<path fill="none" stroke="midnightblue" d="M942.581,-232.497C919.104,-223.234 884.676,-209.65 858.645,-199.379"/>
<polygon fill="midnightblue" stroke="midnightblue" points="859.707,-196.036 849.12,-195.621 857.138,-202.547 859.707,-196.036"/>
</g>
<!-- Node5 -->
<g id="node9" class="node"><title>Node5</title>
<a xlink:href="MojNew_8h.htm" target="_top" xlink:title="core/internal/MojNew.h">
<polygon fill="white" stroke="black" points="906.701,-174.5 906.701,-195.5 1031.7,-195.5 1031.7,-174.5 906.701,-174.5"/>
<text text-anchor="middle" x="969.201" y="-182.5" font-family="Helvetica,sans-Serif" font-size="10.00">core/internal/MojNew.h</text>
</a>
</g>
<!-- Node3&#45;&gt;Node5 -->
<g id="edge8" class="edge"><title>Node3&#45;&gt;Node5</title>
<path fill="none" stroke="midnightblue" d="M969.201,-232.362C969.201,-224.922 969.201,-214.743 969.201,-205.728"/>
<polygon fill="midnightblue" stroke="midnightblue" points="972.701,-205.571 969.201,-195.571 965.701,-205.571 972.701,-205.571"/>
</g>
<!-- Node7 -->
<g id="node13" class="node"><title>Node7</title>
<a xlink:href="MojErr_8h.htm" target="_top" xlink:title="core/MojErr.h">
<polygon fill="white" stroke="black" points="1049.2,-174.5 1049.2,-195.5 1129.2,-195.5 1129.2,-174.5 1049.2,-174.5"/>
<text text-anchor="middle" x="1089.2" y="-182.5" font-family="Helvetica,sans-Serif" font-size="10.00">core/MojErr.h</text>
</a>
</g>
<!-- Node3&#45;&gt;Node7 -->
<g id="edge12" class="edge"><title>Node3&#45;&gt;Node7</title>
<path fill="none" stroke="midnightblue" d="M990.932,-232.497C1009.67,-223.438 1036.97,-210.246 1058.04,-200.063"/>
<polygon fill="midnightblue" stroke="midnightblue" points="1059.75,-203.124 1067.23,-195.621 1056.7,-196.822 1059.75,-203.124"/>
</g>
<!-- Node11 -->
<g id="node21" class="node"><title>Node11</title>
<a xlink:href="MojOs_8h.htm" target="_top" xlink:title="core/MojOs.h">
<polygon fill="white" stroke="black" points="657.201,-174.5 657.201,-195.5 737.201,-195.5 737.201,-174.5 657.201,-174.5"/>
<text text-anchor="middle" x="697.201" y="-182.5" font-family="Helvetica,sans-Serif" font-size="10.00">core/MojOs.h</text>
</a>
</g>
<!-- Node3&#45;&gt;Node11 -->
<g id="edge20" class="edge"><title>Node3&#45;&gt;Node11</title>
<path fill="none" stroke="midnightblue" d="M918.234,-232.456C875.217,-223.512 811.731,-210.208 747.24,-196.208"/>
<polygon fill="midnightblue" stroke="midnightblue" points="747.818,-192.752 737.303,-194.047 746.331,-199.592 747.818,-192.752"/>
</g>
<!-- Node6 -->
<g id="node11" class="node"><title>Node6</title>
<polygon fill="white" stroke="#bfbfbf" points="951.201,-116.5 951.201,-137.5 987.201,-137.5 987.201,-116.5 951.201,-116.5"/>
<text text-anchor="middle" x="969.201" y="-124.5" font-family="Helvetica,sans-Serif" font-size="10.00">new</text>
</g>
<!-- Node5&#45;&gt;Node6 -->
<g id="edge10" class="edge"><title>Node5&#45;&gt;Node6</title>
<path fill="none" stroke="midnightblue" d="M969.201,-174.362C969.201,-166.922 969.201,-156.743 969.201,-147.728"/>
<polygon fill="midnightblue" stroke="midnightblue" points="972.701,-147.571 969.201,-137.571 965.701,-147.571 972.701,-147.571"/>
</g>
<!-- Node8 -->
<g id="node15" class="node"><title>Node8</title>
<a xlink:href="MojLog_8h.htm" target="_top" xlink:title="core/MojLog.h">
<polygon fill="white" stroke="black" points="1026.2,-116.5 1026.2,-137.5 1110.2,-137.5 1110.2,-116.5 1026.2,-116.5"/>
<text text-anchor="middle" x="1068.2" y="-124.5" font-family="Helvetica,sans-Serif" font-size="10.00">core/MojLog.h</text>
</a>
</g>
<!-- Node7&#45;&gt;Node8 -->
<g id="edge14" class="edge"><title>Node7&#45;&gt;Node8</title>
<path fill="none" stroke="midnightblue" d="M1085.35,-174.362C1082.6,-166.758 1078.81,-156.294 1075.49,-147.135"/>
<polygon fill="midnightblue" stroke="midnightblue" points="1078.72,-145.782 1072.03,-137.571 1072.14,-148.165 1078.72,-145.782"/>
</g>
<!-- Node9 -->
<g id="node17" class="node"><title>Node9</title>
<a xlink:href="MojListEntry_8h.htm" target="_top" xlink:title="core/MojListEntry.h">
<polygon fill="white" stroke="black" points="791.701,-58.5 791.701,-79.5 898.701,-79.5 898.701,-58.5 791.701,-58.5"/>
<text text-anchor="middle" x="845.201" y="-66.5" font-family="Helvetica,sans-Serif" font-size="10.00">core/MojListEntry.h</text>
</a>
</g>
<!-- Node8&#45;&gt;Node9 -->
<g id="edge16" class="edge"><title>Node8&#45;&gt;Node9</title>
<path fill="none" stroke="midnightblue" d="M1027.82,-116.497C990.676,-106.836 935.464,-92.4765 895.478,-82.0765"/>
<polygon fill="midnightblue" stroke="midnightblue" points="896.22,-78.653 885.66,-79.5231 894.457,-85.4276 896.22,-78.653"/>
</g>
<!-- Node10 -->
<g id="node19" class="node"><title>Node10</title>
<a xlink:href="MojNoCopy_8h.htm" target="_top" xlink:title="core/MojNoCopy.h">
<polygon fill="white" stroke="black" points="650.201,-0.5 650.201,-21.5 754.201,-21.5 754.201,-0.5 650.201,-0.5"/>
<text text-anchor="middle" x="702.201" y="-8.5" font-family="Helvetica,sans-Serif" font-size="10.00">core/MojNoCopy.h</text>
</a>
</g>
<!-- Node9&#45;&gt;Node10 -->
<g id="edge18" class="edge"><title>Node9&#45;&gt;Node10</title>
<path fill="none" stroke="midnightblue" d="M819.305,-58.4966C796.568,-49.2746 763.271,-35.7695 737.989,-25.5153"/>
<polygon fill="midnightblue" stroke="midnightblue" points="738.97,-22.1365 728.388,-21.6212 736.339,-28.6232 738.97,-22.1365"/>
</g>
<!-- Node12 -->
<g id="node23" class="node"><title>Node12</title>
<a xlink:href="MojOsInternal_8h.htm" target="_top" xlink:title="core/internal/MojOsInternal.h">
<polygon fill="white" stroke="black" points="620.201,-116.5 620.201,-137.5 774.201,-137.5 774.201,-116.5 620.201,-116.5"/>
<text text-anchor="middle" x="697.201" y="-124.5" font-family="Helvetica,sans-Serif" font-size="10.00">core/internal/MojOsInternal.h</text>
</a>
</g>
<!-- Node11&#45;&gt;Node12 -->
<g id="edge22" class="edge"><title>Node11&#45;&gt;Node12</title>
<path fill="none" stroke="midnightblue" d="M697.201,-174.362C697.201,-166.922 697.201,-156.743 697.201,-147.728"/>
<polygon fill="midnightblue" stroke="midnightblue" points="700.701,-147.571 697.201,-137.571 693.701,-147.571 700.701,-147.571"/>
</g>
<!-- Node13&#45;&gt;Node3 -->
<g id="edge26" class="edge"><title>Node13&#45;&gt;Node3</title>
<path fill="none" stroke="midnightblue" d="M72.9624,-608.396C54.6328,-600.945 32.8828,-589.195 19.2011,-572 -0.603397,-547.11 0.201132,-534.808 0.201132,-503 0.201132,-503 0.201132,-503 0.201132,-373 0.201132,-277.581 105.271,-311.652 198.201,-290 331.431,-258.958 741.995,-247.543 903.229,-244.187"/>
<polygon fill="midnightblue" stroke="midnightblue" points="903.556,-247.681 913.483,-243.977 903.413,-240.682 903.556,-247.681"/>
</g>
<!-- Node14 -->
<g id="node28" class="node"><title>Node14</title>
<a xlink:href="MojListInternal_8h.htm" target="_top" xlink:title="core/internal/MojListInternal.h">
<polygon fill="white" stroke="black" points="27.7011,-550.5 27.7011,-571.5 184.701,-571.5 184.701,-550.5 27.7011,-550.5"/>
<text text-anchor="middle" x="106.201" y="-558.5" font-family="Helvetica,sans-Serif" font-size="10.00">core/internal/MojListInternal.h</text>
</a>
</g>
<!-- Node13&#45;&gt;Node14 -->
<g id="edge28" class="edge"><title>Node13&#45;&gt;Node14</title>
<path fill="none" stroke="midnightblue" d="M106.201,-608.362C106.201,-600.922 106.201,-590.743 106.201,-581.728"/>
<polygon fill="midnightblue" stroke="midnightblue" points="109.701,-581.571 106.201,-571.571 102.701,-581.571 109.701,-581.571"/>
</g>
<!-- Node15&#45;&gt;Node3 -->
<g id="edge32" class="edge"><title>Node15&#45;&gt;Node3</title>
<path fill="none" stroke="midnightblue" d="M850.593,-492.338C858.38,-483.148 869.398,-469.297 877.201,-456 916.521,-388.996 948.813,-302.055 962.349,-263.248"/>
<polygon fill="midnightblue" stroke="midnightblue" points="965.713,-264.23 965.66,-253.636 959.094,-261.951 965.713,-264.23"/>
</g>
<!-- Node16 -->
<g id="node33" class="node"><title>Node16</title>
<a xlink:href="MojComp_8h.htm" target="_top" xlink:title="core/MojComp.h">
<polygon fill="white" stroke="black" points="1036.2,-297.5 1036.2,-318.5 1130.2,-318.5 1130.2,-297.5 1036.2,-297.5"/>
<text text-anchor="middle" x="1083.2" y="-305.5" font-family="Helvetica,sans-Serif" font-size="10.00">core/MojComp.h</text>
</a>
</g>
<!-- Node15&#45;&gt;Node16 -->
<g id="edge34" class="edge"><title>Node15&#45;&gt;Node16</title>
<path fill="none" stroke="midnightblue" d="M884.72,-497.873C936.325,-490.937 1018.14,-476.971 1040.2,-456 1075.77,-422.197 1082.44,-360.88 1083.37,-328.812"/>
<polygon fill="midnightblue" stroke="midnightblue" points="1086.87,-328.825 1083.5,-318.782 1079.87,-328.737 1086.87,-328.825"/>
</g>
<!-- Node17 -->
<g id="node36" class="node"><title>Node17</title>
<a xlink:href="MojRbTreeBase_8h.htm" target="_top" xlink:title="core/internal/MojRbTreeBase.h">
<polygon fill="white" stroke="black" points="490.201,-427.5 490.201,-448.5 654.201,-448.5 654.201,-427.5 490.201,-427.5"/>
<text text-anchor="middle" x="572.201" y="-435.5" font-family="Helvetica,sans-Serif" font-size="10.00">core/internal/MojRbTreeBase.h</text>
</a>
</g>
<!-- Node15&#45;&gt;Node17 -->
<g id="edge38" class="edge"><title>Node15&#45;&gt;Node17</title>
<path fill="none" stroke="midnightblue" d="M797.683,-492.484C750.704,-481.133 675.846,-463.044 625.404,-450.856"/>
<polygon fill="midnightblue" stroke="midnightblue" points="626.199,-447.447 615.657,-448.501 624.555,-454.251 626.199,-447.447"/>
</g>
<!-- Node16&#45;&gt;Node3 -->
<g id="edge36" class="edge"><title>Node16&#45;&gt;Node3</title>
<path fill="none" stroke="midnightblue" d="M1064.63,-297.412C1046.17,-286.883 1017.63,-270.611 996.565,-258.602"/>
<polygon fill="midnightblue" stroke="midnightblue" points="998.184,-255.496 987.763,-253.584 994.716,-261.577 998.184,-255.496"/>
</g>
<!-- Node17&#45;&gt;Node3 -->
<g id="edge40" class="edge"><title>Node17&#45;&gt;Node3</title>
<path fill="none" stroke="midnightblue" d="M571.855,-427.367C571.592,-399.824 575.037,-325.817 617.201,-290 638.594,-271.827 807.686,-255.725 903.508,-247.944"/>
<polygon fill="midnightblue" stroke="midnightblue" points="903.993,-251.416 913.68,-247.127 903.432,-244.439 903.993,-251.416"/>
</g>
<!-- Node18 -->
<g id="node39" class="node"><title>Node18</title>
<a xlink:href="MojAutoPtr_8h.htm" target="_top" xlink:title="core/MojAutoPtr.h">
<polygon fill="white" stroke="black" points="720.701,-362.5 720.701,-383.5 821.701,-383.5 821.701,-362.5 720.701,-362.5"/>
<text text-anchor="middle" x="771.201" y="-370.5" font-family="Helvetica,sans-Serif" font-size="10.00">core/MojAutoPtr.h</text>
</a>
</g>
<!-- Node17&#45;&gt;Node18 -->
<g id="edge42" class="edge"><title>Node17&#45;&gt;Node18</title>
<path fill="none" stroke="midnightblue" d="M604.617,-427.412C638.587,-416.316 692.083,-398.843 729.252,-386.702"/>
<polygon fill="midnightblue" stroke="midnightblue" points="730.38,-390.015 738.799,-383.584 728.207,-383.361 730.38,-390.015"/>
</g>
<!-- Node18&#45;&gt;Node3 -->
<g id="edge44" class="edge"><title>Node18&#45;&gt;Node3</title>
<path fill="none" stroke="midnightblue" d="M772.271,-362.402C774.623,-344.777 781.862,-309.46 803.201,-290 818.197,-276.325 863.833,-263.957 903.468,-255.345"/>
<polygon fill="midnightblue" stroke="midnightblue" points="904.338,-258.739 913.393,-253.238 902.884,-251.891 904.338,-258.739"/>
</g>
<!-- Node18&#45;&gt;Node10 -->
<g id="edge50" class="edge"><title>Node18&#45;&gt;Node10</title>
<path fill="none" stroke="midnightblue" d="M720.661,-364.691C658.239,-351.208 560.201,-318.081 560.201,-243 560.201,-243 560.201,-243 560.201,-127 560.201,-75.1705 617.641,-42.3463 659.456,-25.3177"/>
<polygon fill="midnightblue" stroke="midnightblue" points="660.868,-28.5237 668.908,-21.6244 658.32,-22.0037 660.868,-28.5237"/>
</g>
<!-- Node19 -->
<g id="node42" class="node"><title>Node19</title>
<a xlink:href="MojAtomicInt_8h.htm" target="_top" xlink:title="core/MojAtomicInt.h">
<polygon fill="white" stroke="black" points="812.201,-297.5 812.201,-318.5 922.201,-318.5 922.201,-297.5 812.201,-297.5"/>
<text text-anchor="middle" x="867.201" y="-305.5" font-family="Helvetica,sans-Serif" font-size="10.00">core/MojAtomicInt.h</text>
</a>
</g>
<!-- Node18&#45;&gt;Node19 -->
<g id="edge46" class="edge"><title>Node18&#45;&gt;Node19</title>
<path fill="none" stroke="midnightblue" d="M787.054,-362.267C802.291,-351.949 825.528,-336.216 843.065,-324.342"/>
<polygon fill="midnightblue" stroke="midnightblue" points="845.325,-327.038 851.644,-318.534 841.401,-321.242 845.325,-327.038"/>
</g>
<!-- Node20 -->
<g id="node46" class="node"><title>Node20</title>
<a xlink:href="MojAutoPtrInternal_8h.htm" target="_top" xlink:title="core/internal/MojAutoPtr\lInternal.h">
<polygon fill="white" stroke="black" points="625.701,-291 625.701,-325 756.701,-325 756.701,-291 625.701,-291"/>
<text text-anchor="start" x="633.701" y="-312" font-family="Helvetica,sans-Serif" font-size="10.00">core/internal/MojAutoPtr</text>
<text text-anchor="middle" x="691.201" y="-299" font-family="Helvetica,sans-Serif" font-size="10.00">Internal.h</text>
</a>
</g>
<!-- Node18&#45;&gt;Node20 -->
<g id="edge52" class="edge"><title>Node18&#45;&gt;Node20</title>
<path fill="none" stroke="midnightblue" d="M757.991,-362.267C747.7,-353.906 733.032,-341.988 720.062,-331.449"/>
<polygon fill="midnightblue" stroke="midnightblue" points="722.228,-328.699 712.259,-325.11 717.813,-334.132 722.228,-328.699"/>
</g>
<!-- Node19&#45;&gt;Node3 -->
<g id="edge48" class="edge"><title>Node19&#45;&gt;Node3</title>
<path fill="none" stroke="midnightblue" d="M884.044,-297.267C900.383,-286.855 925.377,-270.927 944.068,-259.016"/>
<polygon fill="midnightblue" stroke="midnightblue" points="946.119,-261.859 952.671,-253.534 942.357,-255.956 946.119,-261.859"/>
</g>
<!-- Node21&#45;&gt;Node3 -->
<g id="edge56" class="edge"><title>Node21&#45;&gt;Node3</title>
<path fill="none" stroke="midnightblue" d="M531.169,-495.001C509.367,-488.439 484.407,-476.71 471.201,-456 429.105,-389.98 465.162,-333.596 530.201,-290 560.486,-269.7 788.232,-253.614 903.208,-246.691"/>
<polygon fill="midnightblue" stroke="midnightblue" points="903.527,-250.178 913.301,-246.089 903.111,-243.19 903.527,-250.178"/>
</g>
<!-- Node21&#45;&gt;Node16 -->
<g id="edge58" class="edge"><title>Node21&#45;&gt;Node16</title>
<path fill="none" stroke="midnightblue" d="M613.334,-498.269C680.794,-490.16 811.788,-472.847 855.201,-456 939.459,-423.303 1025.25,-356.697 1063.13,-325.217"/>
<polygon fill="midnightblue" stroke="midnightblue" points="1065.47,-327.819 1070.88,-318.707 1060.97,-322.459 1065.47,-327.819"/>
</g>
<!-- Node21&#45;&gt;Node17 -->
<g id="edge60" class="edge"><title>Node21&#45;&gt;Node17</title>
<path fill="none" stroke="midnightblue" d="M572.201,-492.267C572.201,-483.18 572.201,-469.892 572.201,-458.74"/>
<polygon fill="midnightblue" stroke="midnightblue" points="575.701,-458.534 572.201,-448.534 568.701,-458.534 575.701,-458.534"/>
</g>
<!-- Node22 -->
<g id="node53" class="node"><title>Node22</title>
<a xlink:href="MojSetInternal_8h.htm" target="_top" xlink:title="core/internal/MojSetInternal.h">
<polygon fill="white" stroke="black" points="240.201,-427.5 240.201,-448.5 396.201,-448.5 396.201,-427.5 240.201,-427.5"/>
<text text-anchor="middle" x="318.201" y="-435.5" font-family="Helvetica,sans-Serif" font-size="10.00">core/internal/MojSetInternal.h</text>
</a>
</g>
<!-- Node21&#45;&gt;Node22 -->
<g id="edge62" class="edge"><title>Node21&#45;&gt;Node22</title>
<path fill="none" stroke="midnightblue" d="M531.109,-492.484C486.935,-481.18 416.655,-463.195 369.034,-451.008"/>
<polygon fill="midnightblue" stroke="midnightblue" points="369.789,-447.589 359.234,-448.501 368.054,-454.37 369.789,-447.589"/>
</g>
<!-- Node23&#45;&gt;Node3 -->
<g id="edge66" class="edge"><title>Node23&#45;&gt;Node3</title>
<path fill="none" stroke="midnightblue" d="M1079.13,-608.408C1045.82,-591.34 988.201,-554.39 988.201,-503 988.201,-503 988.201,-503 988.201,-373 988.201,-334.057 979.75,-289.235 974.12,-263.697"/>
<polygon fill="midnightblue" stroke="midnightblue" points="977.478,-262.68 971.843,-253.709 970.654,-264.236 977.478,-262.68"/>
</g>
<!-- Node23&#45;&gt;Node16 -->
<g id="edge70" class="edge"><title>Node23&#45;&gt;Node16</title>
<path fill="none" stroke="midnightblue" d="M1102.2,-608.444C1102.2,-588.062 1102.2,-541.868 1102.2,-503 1102.2,-503 1102.2,-503 1102.2,-438 1102.2,-399.057 1093.75,-354.235 1088.12,-328.697"/>
<polygon fill="midnightblue" stroke="midnightblue" points="1091.48,-327.68 1085.84,-318.709 1084.65,-329.236 1091.48,-327.68"/>
</g>
<!-- Node23&#45;&gt;Node18 -->
<g id="edge68" class="edge"><title>Node23&#45;&gt;Node18</title>
<path fill="none" stroke="midnightblue" d="M1055.05,-608.443C1029.45,-601.122 998.221,-589.485 974.201,-572 904.837,-521.506 920.358,-475.817 855.201,-420 840.243,-407.186 821.252,-396.208 805.113,-388.092"/>
<polygon fill="midnightblue" stroke="midnightblue" points="806.515,-384.882 795.992,-383.652 803.451,-391.176 806.515,-384.882"/>
</g>
<!-- Node24 -->
<g id="node60" class="node"><title>Node24</title>
<a xlink:href="MojHasher_8h.htm" target="_top" xlink:title="core/MojHasher.h">
<polygon fill="white" stroke="black" points="1559.7,-492.5 1559.7,-513.5 1660.7,-513.5 1660.7,-492.5 1559.7,-492.5"/>
<text text-anchor="middle" x="1610.2" y="-500.5" font-family="Helvetica,sans-Serif" font-size="10.00">core/MojHasher.h</text>
</a>
</g>
<!-- Node23&#45;&gt;Node24 -->
<g id="edge72" class="edge"><title>Node23&#45;&gt;Node24</title>
<path fill="none" stroke="midnightblue" d="M1149.26,-609.226C1193.66,-599.929 1262.04,-585.409 1321.2,-572 1403.78,-553.284 1499.28,-530.201 1557.17,-516.046"/>
<polygon fill="midnightblue" stroke="midnightblue" points="1558.3,-519.373 1567.19,-513.596 1556.64,-512.574 1558.3,-519.373"/>
</g>
<!-- Node27 -->
<g id="node69" class="node"><title>Node27</title>
<a xlink:href="MojVector_8h.htm" target="_top" xlink:title="core/MojVector.h">
<polygon fill="white" stroke="black" points="1215.7,-550.5 1215.7,-571.5 1312.7,-571.5 1312.7,-550.5 1215.7,-550.5"/>
<text text-anchor="middle" x="1264.2" y="-558.5" font-family="Helvetica,sans-Serif" font-size="10.00">core/MojVector.h</text>
</a>
</g>
<!-- Node23&#45;&gt;Node27 -->
<g id="edge84" class="edge"><title>Node23&#45;&gt;Node27</title>
<path fill="none" stroke="midnightblue" d="M1131.54,-608.497C1157.72,-599.123 1196.26,-585.324 1225.06,-575.012"/>
<polygon fill="midnightblue" stroke="midnightblue" points="1226.57,-578.189 1234.81,-571.523 1224.21,-571.599 1226.57,-578.189"/>
</g>
<!-- Node24&#45;&gt;Node3 -->
<g id="edge74" class="edge"><title>Node24&#45;&gt;Node3</title>
<path fill="none" stroke="midnightblue" d="M1611.64,-492.467C1615.78,-457.335 1623.79,-343.378 1562.2,-290 1523.07,-256.085 1181.28,-246.463 1035.08,-243.886"/>
<polygon fill="midnightblue" stroke="midnightblue" points="1034.96,-240.384 1024.9,-243.713 1034.84,-247.383 1034.96,-240.384"/>
</g>
<!-- Node25 -->
<g id="node63" class="node"><title>Node25</title>
<a xlink:href="MojUtil_8h.htm" target="_top" xlink:title="core/MojUtil.h">
<polygon fill="white" stroke="black" points="1439.7,-427.5 1439.7,-448.5 1520.7,-448.5 1520.7,-427.5 1439.7,-427.5"/>
<text text-anchor="middle" x="1480.2" y="-435.5" font-family="Helvetica,sans-Serif" font-size="10.00">core/MojUtil.h</text>
</a>
</g>
<!-- Node24&#45;&gt;Node25 -->
<g id="edge76" class="edge"><title>Node24&#45;&gt;Node25</title>
<path fill="none" stroke="midnightblue" d="M1589.03,-492.412C1567.68,-481.741 1534.54,-465.172 1510.44,-453.12"/>
<polygon fill="midnightblue" stroke="midnightblue" points="1511.88,-449.925 1501.37,-448.584 1508.75,-456.186 1511.88,-449.925"/>
</g>
<!-- Node25&#45;&gt;Node3 -->
<g id="edge78" class="edge"><title>Node25&#45;&gt;Node3</title>
<path fill="none" stroke="midnightblue" d="M1479.91,-427.23C1478.53,-399.357 1470.65,-324.621 1426.2,-290 1396.01,-266.487 1154.27,-251.815 1035.12,-245.941"/>
<polygon fill="midnightblue" stroke="midnightblue" points="1035.18,-242.44 1025.02,-245.45 1034.84,-249.432 1035.18,-242.44"/>
</g>
<!-- Node26 -->
<g id="node66" class="node"><title>Node26</title>
<a xlink:href="MojUtilInternal_8h.htm" target="_top" xlink:title="core/internal/MojUtilInternal.h">
<polygon fill="white" stroke="black" points="1229.7,-362.5 1229.7,-383.5 1384.7,-383.5 1384.7,-362.5 1229.7,-362.5"/>
<text text-anchor="middle" x="1307.2" y="-370.5" font-family="Helvetica,sans-Serif" font-size="10.00">core/internal/MojUtilInternal.h</text>
</a>
</g>
<!-- Node25&#45;&gt;Node26 -->
<g id="edge80" class="edge"><title>Node25&#45;&gt;Node26</title>
<path fill="none" stroke="midnightblue" d="M1452.02,-427.412C1422.87,-416.458 1377.17,-399.288 1344.91,-387.17"/>
<polygon fill="midnightblue" stroke="midnightblue" points="1345.96,-383.824 1335.37,-383.584 1343.5,-390.377 1345.96,-383.824"/>
</g>
<!-- Node26&#45;&gt;Node16 -->
<g id="edge82" class="edge"><title>Node26&#45;&gt;Node16</title>
<path fill="none" stroke="midnightblue" d="M1270.71,-362.412C1232.15,-351.222 1171.23,-333.545 1129.36,-321.393"/>
<polygon fill="midnightblue" stroke="midnightblue" points="1130.25,-318.009 1119.67,-318.584 1128.3,-324.732 1130.25,-318.009"/>
</g>
<!-- Node27&#45;&gt;Node3 -->
<g id="edge86" class="edge"><title>Node27&#45;&gt;Node3</title>
<path fill="none" stroke="midnightblue" d="M1312.72,-550.885C1314.23,-550.584 1315.73,-550.289 1317.2,-550 1404.12,-533 1447.89,-573.828 1513.2,-514 1589.11,-444.457 1540.76,-345.734 1454.2,-290 1419.74,-267.811 1159.5,-252.282 1035.08,-246.046"/>
<polygon fill="midnightblue" stroke="midnightblue" points="1035.07,-242.541 1024.91,-245.542 1034.73,-249.533 1035.07,-242.541"/>
</g>
<!-- Node27&#45;&gt;Node16 -->
<g id="edge88" class="edge"><title>Node27&#45;&gt;Node16</title>
<path fill="none" stroke="midnightblue" d="M1219.53,-550.474C1198.52,-543.4 1174.74,-531.98 1159.2,-514 1113.29,-460.887 1144.32,-426.329 1116.2,-362 1110.88,-349.822 1103.22,-337.095 1096.62,-327.058"/>
<polygon fill="midnightblue" stroke="midnightblue" points="1099.45,-325.007 1090.95,-318.689 1093.66,-328.932 1099.45,-325.007"/>
</g>
<!-- Node27&#45;&gt;Node25 -->
<g id="edge102" class="edge"><title>Node27&#45;&gt;Node25</title>
<path fill="none" stroke="midnightblue" d="M1270.99,-550.357C1281.08,-535.328 1301.44,-507.948 1325.2,-492 1330.15,-488.678 1394.86,-466.625 1439.09,-451.748"/>
<polygon fill="midnightblue" stroke="midnightblue" points="1440.37,-455.009 1448.74,-448.507 1438.14,-448.374 1440.37,-455.009"/>
</g>
<!-- Node28 -->
<g id="node73" class="node"><title>Node28</title>
<a xlink:href="MojRefCount_8h.htm" target="_top" xlink:title="core/MojRefCount.h">
<polygon fill="white" stroke="black" points="1168.2,-492.5 1168.2,-513.5 1278.2,-513.5 1278.2,-492.5 1168.2,-492.5"/>
<text text-anchor="middle" x="1223.2" y="-500.5" font-family="Helvetica,sans-Serif" font-size="10.00">core/MojRefCount.h</text>
</a>
</g>
<!-- Node27&#45;&gt;Node28 -->
<g id="edge90" class="edge"><title>Node27&#45;&gt;Node28</title>
<path fill="none" stroke="midnightblue" d="M1256.68,-550.362C1251.08,-542.431 1243.27,-531.389 1236.6,-521.961"/>
<polygon fill="midnightblue" stroke="midnightblue" points="1239.3,-519.716 1230.67,-513.571 1233.59,-523.757 1239.3,-519.716"/>
</g>
<!-- Node30 -->
<g id="node82" class="node"><title>Node30</title>
<a xlink:href="MojVectorInternal_8h.htm" target="_top" xlink:title="core/internal/MojVectorInternal.h">
<polygon fill="white" stroke="black" points="1333.7,-492.5 1333.7,-513.5 1504.7,-513.5 1504.7,-492.5 1333.7,-492.5"/>
<text text-anchor="middle" x="1419.2" y="-500.5" font-family="Helvetica,sans-Serif" font-size="10.00">core/internal/MojVectorInternal.h</text>
</a>
</g>
<!-- Node27&#45;&gt;Node30 -->
<g id="edge104" class="edge"><title>Node27&#45;&gt;Node30</title>
<path fill="none" stroke="midnightblue" d="M1292.27,-550.497C1317.21,-541.164 1353.87,-527.445 1381.39,-517.147"/>
<polygon fill="midnightblue" stroke="midnightblue" points="1382.94,-520.306 1391.08,-513.523 1380.49,-513.75 1382.94,-520.306"/>
</g>
<!-- Node28&#45;&gt;Node3 -->
<g id="edge92" class="edge"><title>Node28&#45;&gt;Node3</title>
<path fill="none" stroke="midnightblue" d="M1278.47,-495.051C1322.57,-487.443 1379.2,-474.397 1393.2,-456 1418.5,-422.755 1418.39,-395.327 1393.2,-362 1349.99,-304.836 1142.72,-267.583 1034.82,-251.731"/>
<polygon fill="midnightblue" stroke="midnightblue" points="1035.1,-248.235 1024.7,-250.264 1034.1,-255.162 1035.1,-248.235"/>
</g>
<!-- Node28&#45;&gt;Node18 -->
<g id="edge96" class="edge"><title>Node28&#45;&gt;Node18</title>
<path fill="none" stroke="midnightblue" d="M1186.59,-492.472C1104.86,-468.963 907.611,-412.233 817.503,-386.317"/>
<polygon fill="midnightblue" stroke="midnightblue" points="818.411,-382.936 807.833,-383.536 816.476,-389.664 818.411,-382.936"/>
</g>
<!-- Node28&#45;&gt;Node19 -->
<g id="edge94" class="edge"><title>Node28&#45;&gt;Node19</title>
<path fill="none" stroke="midnightblue" d="M1203.81,-492.377C1144.5,-459.889 965.332,-361.752 895.499,-323.5"/>
<polygon fill="midnightblue" stroke="midnightblue" points="896.846,-320.248 886.394,-318.513 893.483,-326.387 896.846,-320.248"/>
</g>
<!-- Node29 -->
<g id="node78" class="node"><title>Node29</title>
<a xlink:href="MojRefCountInternal_8h.htm" target="_top" xlink:title="core/internal/MojRefCount\lInternal.h">
<polygon fill="white" stroke="black" points="1244.2,-421 1244.2,-455 1384.2,-455 1384.2,-421 1244.2,-421"/>
<text text-anchor="start" x="1252.2" y="-442" font-family="Helvetica,sans-Serif" font-size="10.00">core/internal/MojRefCount</text>
<text text-anchor="middle" x="1314.2" y="-429" font-family="Helvetica,sans-Serif" font-size="10.00">Internal.h</text>
</a>
</g>
<!-- Node28&#45;&gt;Node29 -->
<g id="edge98" class="edge"><title>Node28&#45;&gt;Node29</title>
<path fill="none" stroke="midnightblue" d="M1238.23,-492.267C1250.04,-483.827 1266.93,-471.762 1281.79,-461.151"/>
<polygon fill="midnightblue" stroke="midnightblue" points="1284.14,-463.77 1290.25,-455.11 1280.08,-458.074 1284.14,-463.77"/>
</g>
<!-- Node29&#45;&gt;Node26 -->
<g id="edge100" class="edge"><title>Node29&#45;&gt;Node26</title>
<path fill="none" stroke="midnightblue" d="M1312.36,-420.922C1311.47,-412.67 1310.4,-402.692 1309.46,-393.982"/>
<polygon fill="midnightblue" stroke="midnightblue" points="1312.92,-393.42 1308.37,-383.852 1305.96,-394.169 1312.92,-393.42"/>
</g>
<!-- Node31&#45;&gt;Node3 -->
<g id="edge108" class="edge"><title>Node31&#45;&gt;Node3</title>
<path fill="none" stroke="midnightblue" d="M679.582,-496.915C610.497,-488.096 493.765,-471.157 481.201,-456 470.99,-443.682 475.87,-435.086 481.201,-420 505.949,-349.974 521.265,-326.046 586.201,-290 639.183,-260.59 808.548,-249.276 903.348,-245.168"/>
<polygon fill="midnightblue" stroke="midnightblue" points="903.56,-248.662 913.405,-244.747 903.267,-241.669 903.56,-248.662"/>
</g>
<!-- Node31&#45;&gt;Node19 -->
<g id="edge110" class="edge"><title>Node31&#45;&gt;Node19</title>
<path fill="none" stroke="midnightblue" d="M772.009,-492.46C804.164,-483.451 844.803,-469.792 855.201,-456 883.398,-418.602 877.616,-359.74 871.883,-328.719"/>
<polygon fill="midnightblue" stroke="midnightblue" points="875.256,-327.744 869.836,-318.641 868.396,-329.138 875.256,-327.744"/>
</g>
<!-- Node32 -->
<g id="node88" class="node"><title>Node32</title>
<a xlink:href="MojThreadInternal_8h.htm" target="_top" xlink:title="core/internal/MojThreadInternal.h">
<polygon fill="white" stroke="black" points="671.701,-427.5 671.701,-448.5 846.701,-448.5 846.701,-427.5 671.701,-427.5"/>
<text text-anchor="middle" x="759.201" y="-435.5" font-family="Helvetica,sans-Serif" font-size="10.00">core/internal/MojThreadInternal.h</text>
</a>
</g>
<!-- Node31&#45;&gt;Node32 -->
<g id="edge112" class="edge"><title>Node31&#45;&gt;Node32</title>
<path fill="none" stroke="midnightblue" d="M734.99,-492.267C739.171,-482.896 745.345,-469.057 750.412,-457.7"/>
<polygon fill="midnightblue" stroke="midnightblue" points="753.623,-459.092 754.501,-448.534 747.231,-456.24 753.623,-459.092"/>
</g>
<!-- Node32&#45;&gt;Node18 -->
<g id="edge114" class="edge"><title>Node32&#45;&gt;Node18</title>
<path fill="none" stroke="midnightblue" d="M761.183,-427.267C762.878,-418.085 765.365,-404.615 767.437,-393.392"/>
<polygon fill="midnightblue" stroke="midnightblue" points="770.883,-394.003 769.256,-383.534 763.999,-392.732 770.883,-394.003"/>
</g>
<!-- Node33&#45;&gt;Node3 -->
<g id="edge118" class="edge"><title>Node33&#45;&gt;Node3</title>
<path fill="none" stroke="midnightblue" d="M1312.22,-671.737C1397.34,-659.779 1574.62,-622.591 1669.2,-514 1692.07,-487.746 1688.2,-472.817 1688.2,-438 1688.2,-438 1688.2,-438 1688.2,-373 1688.2,-315.582 1642.38,-311.653 1589.2,-290 1538.89,-269.514 1184.37,-252.185 1035.15,-245.715"/>
<polygon fill="midnightblue" stroke="midnightblue" points="1034.91,-242.201 1024.76,-245.268 1034.6,-249.195 1034.91,-242.201"/>
</g>
<!-- Node33&#45;&gt;Node15 -->
<g id="edge126" class="edge"><title>Node33&#45;&gt;Node15</title>
<path fill="none" stroke="midnightblue" d="M1216.1,-673.598C1141.5,-666.193 996.302,-643.066 898.201,-572 879.653,-558.563 863.566,-537.723 853.257,-522.461"/>
<polygon fill="midnightblue" stroke="midnightblue" points="856.003,-520.265 847.613,-513.794 850.137,-524.084 856.003,-520.265"/>
</g>
<!-- Node33&#45;&gt;Node23 -->
<g id="edge128" class="edge"><title>Node33&#45;&gt;Node23</title>
<path fill="none" stroke="midnightblue" d="M1234.86,-666.497C1208.68,-657.123 1170.14,-643.324 1141.34,-633.012"/>
<polygon fill="midnightblue" stroke="midnightblue" points="1142.19,-629.599 1131.59,-629.523 1139.83,-636.189 1142.19,-629.599"/>
</g>
<!-- Node33&#45;&gt;Node27 -->
<g id="edge130" class="edge"><title>Node33&#45;&gt;Node27</title>
<path fill="none" stroke="midnightblue" d="M1264.2,-666.295C1264.2,-647.131 1264.2,-606.654 1264.2,-581.843"/>
<polygon fill="midnightblue" stroke="midnightblue" points="1267.7,-581.679 1264.2,-571.679 1260.7,-581.679 1267.7,-581.679"/>
</g>
<!-- Node34 -->
<g id="node94" class="node"><title>Node34</title>
<a xlink:href="MojDecimal_8h.htm" target="_top" xlink:title="core/MojDecimal.h">
<polygon fill="white" stroke="black" points="1672.2,-550.5 1672.2,-571.5 1776.2,-571.5 1776.2,-550.5 1672.2,-550.5"/>
<text text-anchor="middle" x="1724.2" y="-558.5" font-family="Helvetica,sans-Serif" font-size="10.00">core/MojDecimal.h</text>
</a>
</g>
<!-- Node33&#45;&gt;Node34 -->
<g id="edge120" class="edge"><title>Node33&#45;&gt;Node34</title>
<path fill="none" stroke="midnightblue" d="M1312.52,-675.288C1403.99,-671.392 1598.57,-659.778 1658.2,-630 1680.97,-618.627 1700.18,-596.07 1711.89,-579.839"/>
<polygon fill="midnightblue" stroke="midnightblue" points="1714.8,-581.798 1717.61,-571.584 1709.04,-577.813 1714.8,-581.798"/>
</g>
<!-- Node34&#45;&gt;Node3 -->
<g id="edge122" class="edge"><title>Node34&#45;&gt;Node3</title>
<path fill="none" stroke="midnightblue" d="M1724.49,-550.471C1725.04,-529.213 1726.2,-479.646 1726.2,-438 1726.2,-438 1726.2,-438 1726.2,-373 1726.2,-334.6 1732.14,-314.046 1702.2,-290 1676.4,-269.277 1210.35,-251.254 1035.09,-245.181"/>
<polygon fill="midnightblue" stroke="midnightblue" points="1035.09,-241.679 1024.97,-244.833 1034.85,-248.675 1035.09,-241.679"/>
</g>
<!-- Node34&#45;&gt;Node24 -->
<g id="edge124" class="edge"><title>Node34&#45;&gt;Node24</title>
<path fill="none" stroke="midnightblue" d="M1703.56,-550.497C1685.83,-541.479 1660.06,-528.365 1640.08,-518.201"/>
<polygon fill="midnightblue" stroke="midnightblue" points="1641.58,-515.036 1631.08,-513.621 1638.4,-521.275 1641.58,-515.036"/>
</g>
<!-- Node35&#45;&gt;Node3 -->
<g id="edge134" class="edge"><title>Node35&#45;&gt;Node3</title>
<path fill="none" stroke="midnightblue" d="M1796,-492.27C1792.36,-482.806 1787.1,-468.599 1783.2,-456 1760.66,-383.197 1799.02,-338.46 1740.2,-290 1713.17,-267.729 1216.65,-250.503 1035.03,-244.923"/>
<polygon fill="midnightblue" stroke="midnightblue" points="1034.92,-241.418 1024.82,-244.611 1034.71,-248.415 1034.92,-241.418"/>
</g>
<!-- Node35&#45;&gt;Node25 -->
<g id="edge136" class="edge"><title>Node35&#45;&gt;Node25</title>
<path fill="none" stroke="midnightblue" d="M1755.37,-493.894C1696.39,-481.913 1592.98,-460.908 1531.11,-448.342"/>
<polygon fill="midnightblue" stroke="midnightblue" points="1531.68,-444.885 1521.18,-446.324 1530.29,-451.745 1531.68,-444.885"/>
</g>
<!-- Node36 -->
<g id="node105" class="node"><title>Node36</title>
<a xlink:href="MojTimeInternal_8h.htm" target="_top" xlink:title="core/internal/MojTimeInternal.h">
<polygon fill="white" stroke="black" points="1792.2,-427.5 1792.2,-448.5 1956.2,-448.5 1956.2,-427.5 1792.2,-427.5"/>
<text text-anchor="middle" x="1874.2" y="-435.5" font-family="Helvetica,sans-Serif" font-size="10.00">core/internal/MojTimeInternal.h</text>
</a>
</g>
<!-- Node35&#45;&gt;Node36 -->
<g id="edge138" class="edge"><title>Node35&#45;&gt;Node36</title>
<path fill="none" stroke="midnightblue" d="M1812.42,-492.267C1823.84,-482.233 1841.1,-467.078 1854.47,-455.331"/>
<polygon fill="midnightblue" stroke="midnightblue" points="1857.01,-457.763 1862.21,-448.534 1852.39,-452.504 1857.01,-457.763"/>
</g>
</g>
</svg>
