<?xml version="1.0" encoding="UTF-8" standalone="no"?>
<!DOCTYPE svg PUBLIC "-//W3C//DTD SVG 1.1//EN"
 "http://www.w3.org/Graphics/SVG/1.1/DTD/svg11.dtd">
<!-- Generated by graphviz version 2.26.3 (20100126.1600)
 -->
<!-- Title: MojMessageDispatcher.h Pages: 1 -->
<svg width="1226pt" height="754pt"
 viewBox="0.00 0.00 1226.00 754.00" xmlns="http://www.w3.org/2000/svg" xmlns:xlink="http://www.w3.org/1999/xlink">
<g id="graph1" class="graph" transform="scale(1 1) rotate(0) translate(4 750)">
<title>MojMessageDispatcher.h</title>
<polygon fill="white" stroke="white" points="-4,5 -4,-750 1223,-750 1223,5 -4,5"/>
<!-- Node1 -->
<g id="node1" class="node"><title>Node1</title>
<polygon fill="#bfbfbf" stroke="black" points="882.5,-724.5 882.5,-745.5 1019.5,-745.5 1019.5,-724.5 882.5,-724.5"/>
<text text-anchor="middle" x="951" y="-732.5" font-family="Helvetica,sans-Serif" font-size="10.00">MojMessageDispatcher.h</text>
</g>
<!-- Node2 -->
<g id="node3" class="node"><title>Node2</title>
<a xlink:href="MojCoreDefs_8h.htm" target="_top" xlink:title="core/MojCoreDefs.h">
<polygon fill="white" stroke="black" points="664.5,-232.5 664.5,-253.5 775.5,-253.5 775.5,-232.5 664.5,-232.5"/>
<text text-anchor="middle" x="720" y="-240.5" font-family="Helvetica,sans-Serif" font-size="10.00">core/MojCoreDefs.h</text>
</a>
</g>
<!-- Node1&#45;&gt;Node2 -->
<g id="edge2" class="edge"><title>Node1&#45;&gt;Node2</title>
<path fill="none" stroke="midnightblue" d="M999.043,-724.487C1075.91,-706.262 1218,-666.192 1218,-619 1218,-619 1218,-619 1218,-366 1218,-314.658 1177.96,-310.745 1131,-290 1070.74,-263.383 885.79,-250.778 785.8,-245.772"/>
<polygon fill="midnightblue" stroke="midnightblue" points="785.966,-242.276 775.807,-245.282 785.624,-249.267 785.966,-242.276"/>
</g>
<!-- Node12 -->
<g id="node23" class="node"><title>Node12</title>
<a xlink:href="MojMessage_8h.htm" target="_top" xlink:title="core/MojMessage.h">
<polygon fill="white" stroke="black" points="938,-666.5 938,-687.5 1048,-687.5 1048,-666.5 938,-666.5"/>
<text text-anchor="middle" x="993" y="-674.5" font-family="Helvetica,sans-Serif" font-size="10.00">core/MojMessage.h</text>
</a>
</g>
<!-- Node1&#45;&gt;Node12 -->
<g id="edge22" class="edge"><title>Node1&#45;&gt;Node12</title>
<path fill="none" stroke="midnightblue" d="M958.703,-724.362C964.446,-716.431 972.443,-705.389 979.27,-695.961"/>
<polygon fill="midnightblue" stroke="midnightblue" points="982.315,-697.723 985.345,-687.571 976.645,-693.617 982.315,-697.723"/>
</g>
<!-- Node16 -->
<g id="node34" class="node"><title>Node16</title>
<a xlink:href="MojThread_8h.htm" target="_top" xlink:title="core/MojThread.h">
<polygon fill="white" stroke="black" points="352.5,-550.5 352.5,-571.5 453.5,-571.5 453.5,-550.5 352.5,-550.5"/>
<text text-anchor="middle" x="403" y="-558.5" font-family="Helvetica,sans-Serif" font-size="10.00">core/MojThread.h</text>
</a>
</g>
<!-- Node1&#45;&gt;Node16 -->
<g id="edge104" class="edge"><title>Node1&#45;&gt;Node16</title>
<path fill="none" stroke="midnightblue" d="M917.545,-724.377C822.658,-694.249 551.852,-608.263 446.074,-574.677"/>
<polygon fill="midnightblue" stroke="midnightblue" points="446.955,-571.284 436.364,-571.594 444.836,-577.956 446.955,-571.284"/>
</g>
<!-- Node29 -->
<g id="node73" class="node"><title>Node29</title>
<a xlink:href="MojString_8h.htm" target="_top" xlink:title="core/MojString.h">
<polygon fill="white" stroke="black" points="863,-608.5 863,-629.5 957,-629.5 957,-608.5 863,-608.5"/>
<text text-anchor="middle" x="910" y="-616.5" font-family="Helvetica,sans-Serif" font-size="10.00">core/MojString.h</text>
</a>
</g>
<!-- Node1&#45;&gt;Node29 -->
<g id="edge88" class="edge"><title>Node1&#45;&gt;Node29</title>
<path fill="none" stroke="midnightblue" d="M945.403,-724.394C940.605,-715.009 933.737,-700.849 929,-688 923.166,-672.178 918.178,-653.739 914.778,-639.905"/>
<polygon fill="midnightblue" stroke="midnightblue" points="918.126,-638.853 912.407,-629.935 911.316,-640.474 918.126,-638.853"/>
</g>
<!-- Node3 -->
<g id="node5" class="node"><title>Node3</title>
<a xlink:href="MojConfig_8h.htm" target="_top" xlink:title="core/internal/MojConfig.h">
<polygon fill="white" stroke="black" points="527.5,-174.5 527.5,-195.5 662.5,-195.5 662.5,-174.5 527.5,-174.5"/>
<text text-anchor="middle" x="595" y="-182.5" font-family="Helvetica,sans-Serif" font-size="10.00">core/internal/MojConfig.h</text>
</a>
</g>
<!-- Node2&#45;&gt;Node3 -->
<g id="edge4" class="edge"><title>Node2&#45;&gt;Node3</title>
<path fill="none" stroke="midnightblue" d="M697.363,-232.497C677.752,-223.397 649.154,-210.127 627.167,-199.925"/>
<polygon fill="midnightblue" stroke="midnightblue" points="628.435,-196.655 617.891,-195.621 625.488,-203.005 628.435,-196.655"/>
</g>
<!-- Node4 -->
<g id="node7" class="node"><title>Node4</title>
<a xlink:href="MojNew_8h.htm" target="_top" xlink:title="core/internal/MojNew.h">
<polygon fill="white" stroke="black" points="777.5,-174.5 777.5,-195.5 902.5,-195.5 902.5,-174.5 777.5,-174.5"/>
<text text-anchor="middle" x="840" y="-182.5" font-family="Helvetica,sans-Serif" font-size="10.00">core/internal/MojNew.h</text>
</a>
</g>
<!-- Node2&#45;&gt;Node4 -->
<g id="edge6" class="edge"><title>Node2&#45;&gt;Node4</title>
<path fill="none" stroke="midnightblue" d="M741.731,-232.497C760.474,-223.438 787.767,-210.246 808.836,-200.063"/>
<polygon fill="midnightblue" stroke="midnightblue" points="810.545,-203.124 818.025,-195.621 807.498,-196.822 810.545,-203.124"/>
</g>
<!-- Node6 -->
<g id="node11" class="node"><title>Node6</title>
<a xlink:href="MojErr_8h.htm" target="_top" xlink:title="core/MojErr.h">
<polygon fill="white" stroke="black" points="415,-174.5 415,-195.5 495,-195.5 495,-174.5 415,-174.5"/>
<text text-anchor="middle" x="455" y="-182.5" font-family="Helvetica,sans-Serif" font-size="10.00">core/MojErr.h</text>
</a>
</g>
<!-- Node2&#45;&gt;Node6 -->
<g id="edge10" class="edge"><title>Node2&#45;&gt;Node6</title>
<path fill="none" stroke="midnightblue" d="M672.01,-232.497C624.806,-222.165 553.04,-206.458 505.114,-195.968"/>
<polygon fill="midnightblue" stroke="midnightblue" points="505.784,-192.532 495.267,-193.813 504.287,-199.37 505.784,-192.532"/>
</g>
<!-- Node10 -->
<g id="node19" class="node"><title>Node10</title>
<a xlink:href="MojOs_8h.htm" target="_top" xlink:title="core/MojOs.h">
<polygon fill="white" stroke="black" points="680,-174.5 680,-195.5 760,-195.5 760,-174.5 680,-174.5"/>
<text text-anchor="middle" x="720" y="-182.5" font-family="Helvetica,sans-Serif" font-size="10.00">core/MojOs.h</text>
</a>
</g>
<!-- Node2&#45;&gt;Node10 -->
<g id="edge18" class="edge"><title>Node2&#45;&gt;Node10</title>
<path fill="none" stroke="midnightblue" d="M720,-232.362C720,-224.922 720,-214.743 720,-205.728"/>
<polygon fill="midnightblue" stroke="midnightblue" points="723.5,-205.571 720,-195.571 716.5,-205.571 723.5,-205.571"/>
</g>
<!-- Node5 -->
<g id="node9" class="node"><title>Node5</title>
<polygon fill="white" stroke="#bfbfbf" points="822,-116.5 822,-137.5 858,-137.5 858,-116.5 822,-116.5"/>
<text text-anchor="middle" x="840" y="-124.5" font-family="Helvetica,sans-Serif" font-size="10.00">new</text>
</g>
<!-- Node4&#45;&gt;Node5 -->
<g id="edge8" class="edge"><title>Node4&#45;&gt;Node5</title>
<path fill="none" stroke="midnightblue" d="M840,-174.362C840,-166.922 840,-156.743 840,-147.728"/>
<polygon fill="midnightblue" stroke="midnightblue" points="843.5,-147.571 840,-137.571 836.5,-147.571 843.5,-147.571"/>
</g>
<!-- Node7 -->
<g id="node13" class="node"><title>Node7</title>
<a xlink:href="MojLog_8h.htm" target="_top" xlink:title="core/MojLog.h">
<polygon fill="white" stroke="black" points="406,-116.5 406,-137.5 490,-137.5 490,-116.5 406,-116.5"/>
<text text-anchor="middle" x="448" y="-124.5" font-family="Helvetica,sans-Serif" font-size="10.00">core/MojLog.h</text>
</a>
</g>
<!-- Node6&#45;&gt;Node7 -->
<g id="edge12" class="edge"><title>Node6&#45;&gt;Node7</title>
<path fill="none" stroke="midnightblue" d="M453.716,-174.362C452.818,-166.922 451.59,-156.743 450.502,-147.728"/>
<polygon fill="midnightblue" stroke="midnightblue" points="453.949,-147.079 449.276,-137.571 446.999,-147.918 453.949,-147.079"/>
</g>
<!-- Node8 -->
<g id="node15" class="node"><title>Node8</title>
<a xlink:href="MojListEntry_8h.htm" target="_top" xlink:title="core/MojListEntry.h">
<polygon fill="white" stroke="black" points="342.5,-58.5 342.5,-79.5 449.5,-79.5 449.5,-58.5 342.5,-58.5"/>
<text text-anchor="middle" x="396" y="-66.5" font-family="Helvetica,sans-Serif" font-size="10.00">core/MojListEntry.h</text>
</a>
</g>
<!-- Node7&#45;&gt;Node8 -->
<g id="edge14" class="edge"><title>Node7&#45;&gt;Node8</title>
<path fill="none" stroke="midnightblue" d="M438.462,-116.362C431.132,-108.186 420.837,-96.7025 412.219,-87.0907"/>
<polygon fill="midnightblue" stroke="midnightblue" points="414.759,-84.68 405.477,-79.5707 409.547,-89.3528 414.759,-84.68"/>
</g>
<!-- Node9 -->
<g id="node17" class="node"><title>Node9</title>
<a xlink:href="MojNoCopy_8h.htm" target="_top" xlink:title="core/MojNoCopy.h">
<polygon fill="white" stroke="black" points="289,-0.5 289,-21.5 393,-21.5 393,-0.5 289,-0.5"/>
<text text-anchor="middle" x="341" y="-8.5" font-family="Helvetica,sans-Serif" font-size="10.00">core/MojNoCopy.h</text>
</a>
</g>
<!-- Node8&#45;&gt;Node9 -->
<g id="edge16" class="edge"><title>Node8&#45;&gt;Node9</title>
<path fill="none" stroke="midnightblue" d="M385.912,-58.3619C378.159,-50.1861 367.27,-38.7025 358.155,-29.0907"/>
<polygon fill="midnightblue" stroke="midnightblue" points="360.445,-26.4186 351.024,-21.5707 355.365,-31.2352 360.445,-26.4186"/>
</g>
<!-- Node11 -->
<g id="node21" class="node"><title>Node11</title>
<a xlink:href="MojOsInternal_8h.htm" target="_top" xlink:title="core/internal/MojOsInternal.h">
<polygon fill="white" stroke="black" points="643,-116.5 643,-137.5 797,-137.5 797,-116.5 643,-116.5"/>
<text text-anchor="middle" x="720" y="-124.5" font-family="Helvetica,sans-Serif" font-size="10.00">core/internal/MojOsInternal.h</text>
</a>
</g>
<!-- Node10&#45;&gt;Node11 -->
<g id="edge20" class="edge"><title>Node10&#45;&gt;Node11</title>
<path fill="none" stroke="midnightblue" d="M720,-174.362C720,-166.922 720,-156.743 720,-147.728"/>
<polygon fill="midnightblue" stroke="midnightblue" points="723.5,-147.571 720,-137.571 716.5,-147.571 723.5,-147.571"/>
</g>
<!-- Node12&#45;&gt;Node2 -->
<g id="edge24" class="edge"><title>Node12&#45;&gt;Node2</title>
<path fill="none" stroke="midnightblue" d="M1048.09,-667.099C1103.26,-653.64 1180,-623.655 1180,-561 1180,-561 1180,-561 1180,-366 1180,-314.322 1139.21,-311.026 1092,-290 1038.7,-266.258 877.609,-252.719 785.844,-246.737"/>
<polygon fill="midnightblue" stroke="midnightblue" points="786.029,-243.241 775.826,-246.096 785.582,-250.227 786.029,-243.241"/>
</g>
<!-- Node13 -->
<g id="node26" class="node"><title>Node13</title>
<a xlink:href="MojSignal_8h.htm" target="_top" xlink:title="core/MojSignal.h">
<polygon fill="white" stroke="black" points="278.5,-608.5 278.5,-629.5 373.5,-629.5 373.5,-608.5 278.5,-608.5"/>
<text text-anchor="middle" x="326" y="-616.5" font-family="Helvetica,sans-Serif" font-size="10.00">core/MojSignal.h</text>
</a>
</g>
<!-- Node12&#45;&gt;Node13 -->
<g id="edge26" class="edge"><title>Node12&#45;&gt;Node13</title>
<path fill="none" stroke="midnightblue" d="M937.849,-672.204C813.38,-661.381 511.62,-635.141 384.258,-624.066"/>
<polygon fill="midnightblue" stroke="midnightblue" points="384.203,-620.548 373.938,-623.168 383.597,-627.522 384.203,-620.548"/>
</g>
<!-- Node13&#45;&gt;Node2 -->
<g id="edge28" class="edge"><title>Node13&#45;&gt;Node2</title>
<path fill="none" stroke="midnightblue" d="M278.225,-614.735C211.083,-608.064 92.8809,-593.643 56,-572 21.9366,-552.01 0,-542.496 0,-503 0,-503 0,-503 0,-366 0,-299.953 476.825,-259.946 654.403,-247.336"/>
<polygon fill="midnightblue" stroke="midnightblue" points="654.671,-250.826 664.4,-246.633 654.179,-243.843 654.671,-250.826"/>
</g>
<!-- Node14 -->
<g id="node29" class="node"><title>Node14</title>
<a xlink:href="MojList_8h.htm" target="_top" xlink:title="core/MojList.h">
<polygon fill="white" stroke="black" points="64.5,-550.5 64.5,-571.5 147.5,-571.5 147.5,-550.5 64.5,-550.5"/>
<text text-anchor="middle" x="106" y="-558.5" font-family="Helvetica,sans-Serif" font-size="10.00">core/MojList.h</text>
</a>
</g>
<!-- Node13&#45;&gt;Node14 -->
<g id="edge30" class="edge"><title>Node13&#45;&gt;Node14</title>
<path fill="none" stroke="midnightblue" d="M286.16,-608.497C249.517,-598.836 195.049,-584.477 155.601,-574.077"/>
<polygon fill="midnightblue" stroke="midnightblue" points="156.477,-570.688 145.915,-571.523 154.692,-577.457 156.477,-570.688"/>
</g>
<!-- Node13&#45;&gt;Node16 -->
<g id="edge36" class="edge"><title>Node13&#45;&gt;Node16</title>
<path fill="none" stroke="midnightblue" d="M340.123,-608.362C351.52,-599.777 367.758,-587.546 380.878,-577.664"/>
<polygon fill="midnightblue" stroke="midnightblue" points="383.085,-580.383 388.967,-571.571 378.873,-574.792 383.085,-580.383"/>
</g>
<!-- Node21 -->
<g id="node49" class="node"><title>Node21</title>
<a xlink:href="MojVector_8h.htm" target="_top" xlink:title="core/MojVector.h">
<polygon fill="white" stroke="black" points="785.5,-550.5 785.5,-571.5 882.5,-571.5 882.5,-550.5 785.5,-550.5"/>
<text text-anchor="middle" x="834" y="-558.5" font-family="Helvetica,sans-Serif" font-size="10.00">core/MojVector.h</text>
</a>
</g>
<!-- Node13&#45;&gt;Node21 -->
<g id="edge56" class="edge"><title>Node13&#45;&gt;Node21</title>
<path fill="none" stroke="midnightblue" d="M373.791,-613.544C467.158,-602.883 673.521,-579.322 775.131,-567.721"/>
<polygon fill="midnightblue" stroke="midnightblue" points="775.682,-571.181 785.221,-566.569 774.888,-564.226 775.682,-571.181"/>
</g>
<!-- Node28 -->
<g id="node71" class="node"><title>Node28</title>
<a xlink:href="MojSignalInternal_8h.htm" target="_top" xlink:title="core/internal/MojSignalInternal.h">
<polygon fill="white" stroke="black" points="165,-550.5 165,-571.5 335,-571.5 335,-550.5 165,-550.5"/>
<text text-anchor="middle" x="250" y="-558.5" font-family="Helvetica,sans-Serif" font-size="10.00">core/internal/MojSignalInternal.h</text>
</a>
</g>
<!-- Node13&#45;&gt;Node28 -->
<g id="edge86" class="edge"><title>Node13&#45;&gt;Node28</title>
<path fill="none" stroke="midnightblue" d="M312.06,-608.362C300.812,-599.777 284.784,-587.546 271.835,-577.664"/>
<polygon fill="midnightblue" stroke="midnightblue" points="273.924,-574.855 263.851,-571.571 269.677,-580.42 273.924,-574.855"/>
</g>
<!-- Node14&#45;&gt;Node2 -->
<g id="edge32" class="edge"><title>Node14&#45;&gt;Node2</title>
<path fill="none" stroke="midnightblue" d="M89.0226,-550.305C70.1115,-536.991 43.8213,-513.39 57,-492 131.65,-370.836 210.267,-399.335 343,-348 452.313,-305.723 585.49,-272.745 660.734,-255.731"/>
<polygon fill="midnightblue" stroke="midnightblue" points="661.52,-259.141 670.511,-253.536 659.987,-252.311 661.52,-259.141"/>
</g>
<!-- Node15 -->
<g id="node32" class="node"><title>Node15</title>
<a xlink:href="MojListInternal_8h.htm" target="_top" xlink:title="core/internal/MojListInternal.h">
<polygon fill="white" stroke="black" points="65.5,-492.5 65.5,-513.5 222.5,-513.5 222.5,-492.5 65.5,-492.5"/>
<text text-anchor="middle" x="144" y="-500.5" font-family="Helvetica,sans-Serif" font-size="10.00">core/internal/MojListInternal.h</text>
</a>
</g>
<!-- Node14&#45;&gt;Node15 -->
<g id="edge34" class="edge"><title>Node14&#45;&gt;Node15</title>
<path fill="none" stroke="midnightblue" d="M112.97,-550.362C118.166,-542.431 125.401,-531.389 131.578,-521.961"/>
<polygon fill="midnightblue" stroke="midnightblue" points="134.522,-523.853 137.074,-513.571 128.666,-520.017 134.522,-523.853"/>
</g>
<!-- Node16&#45;&gt;Node2 -->
<g id="edge38" class="edge"><title>Node16&#45;&gt;Node2</title>
<path fill="none" stroke="midnightblue" d="M352.387,-550.416C332.541,-543.524 311.745,-532.27 300,-514 282.751,-487.17 158.34,-451.8 310,-290 333.074,-265.383 544.177,-251.546 654.106,-245.953"/>
<polygon fill="midnightblue" stroke="midnightblue" points="654.284,-249.449 664.097,-245.454 653.934,-242.458 654.284,-249.449"/>
</g>
<!-- Node17 -->
<g id="node37" class="node"><title>Node17</title>
<a xlink:href="MojAtomicInt_8h.htm" target="_top" xlink:title="core/MojAtomicInt.h">
<polygon fill="white" stroke="black" points="500,-355.5 500,-376.5 610,-376.5 610,-355.5 500,-355.5"/>
<text text-anchor="middle" x="555" y="-363.5" font-family="Helvetica,sans-Serif" font-size="10.00">core/MojAtomicInt.h</text>
</a>
</g>
<!-- Node16&#45;&gt;Node17 -->
<g id="edge40" class="edge"><title>Node16&#45;&gt;Node17</title>
<path fill="none" stroke="midnightblue" d="M363.791,-550.453C330.327,-539.321 290.093,-519.553 307,-492 330.615,-453.514 452.054,-404.023 515.805,-380.14"/>
<polygon fill="midnightblue" stroke="midnightblue" points="517.362,-383.295 525.518,-376.532 514.925,-376.733 517.362,-383.295"/>
</g>
<!-- Node18 -->
<g id="node40" class="node"><title>Node18</title>
<a xlink:href="MojThreadInternal_8h.htm" target="_top" xlink:title="core/internal/MojThreadInternal.h">
<polygon fill="white" stroke="black" points="315.5,-492.5 315.5,-513.5 490.5,-513.5 490.5,-492.5 315.5,-492.5"/>
<text text-anchor="middle" x="403" y="-500.5" font-family="Helvetica,sans-Serif" font-size="10.00">core/internal/MojThreadInternal.h</text>
</a>
</g>
<!-- Node16&#45;&gt;Node18 -->
<g id="edge44" class="edge"><title>Node16&#45;&gt;Node18</title>
<path fill="none" stroke="midnightblue" d="M403,-550.362C403,-542.922 403,-532.743 403,-523.728"/>
<polygon fill="midnightblue" stroke="midnightblue" points="406.5,-523.571 403,-513.571 399.5,-523.571 406.5,-523.571"/>
</g>
<!-- Node17&#45;&gt;Node2 -->
<g id="edge42" class="edge"><title>Node17&#45;&gt;Node2</title>
<path fill="none" stroke="midnightblue" d="M562.657,-355.243C574.398,-339.346 598.213,-309.378 624,-290 641.686,-276.709 663.719,-265.604 682.215,-257.532"/>
<polygon fill="midnightblue" stroke="midnightblue" points="683.679,-260.713 691.523,-253.591 680.95,-254.267 683.679,-260.713"/>
</g>
<!-- Node19 -->
<g id="node42" class="node"><title>Node19</title>
<a xlink:href="MojAutoPtr_8h.htm" target="_top" xlink:title="core/MojAutoPtr.h">
<polygon fill="white" stroke="black" points="467.5,-427.5 467.5,-448.5 568.5,-448.5 568.5,-427.5 467.5,-427.5"/>
<text text-anchor="middle" x="518" y="-435.5" font-family="Helvetica,sans-Serif" font-size="10.00">core/MojAutoPtr.h</text>
</a>
</g>
<!-- Node18&#45;&gt;Node19 -->
<g id="edge46" class="edge"><title>Node18&#45;&gt;Node19</title>
<path fill="none" stroke="midnightblue" d="M421.733,-492.412C440.361,-481.883 469.151,-465.611 490.396,-453.602"/>
<polygon fill="midnightblue" stroke="midnightblue" points="492.292,-456.551 499.275,-448.584 488.847,-450.457 492.292,-456.551"/>
</g>
<!-- Node19&#45;&gt;Node2 -->
<g id="edge48" class="edge"><title>Node19&#45;&gt;Node2</title>
<path fill="none" stroke="midnightblue" d="M549.209,-427.467C571.11,-418.735 599.799,-404.429 619,-384 650.464,-350.524 633.854,-326.31 662,-290 671.022,-278.361 683.461,-267.795 694.507,-259.642"/>
<polygon fill="midnightblue" stroke="midnightblue" points="696.836,-262.282 702.975,-253.647 692.791,-256.569 696.836,-262.282"/>
</g>
<!-- Node19&#45;&gt;Node9 -->
<g id="edge52" class="edge"><title>Node19&#45;&gt;Node9</title>
<path fill="none" stroke="midnightblue" d="M467.373,-430.945C399.11,-418.255 286,-384.612 286,-301 286,-301 286,-301 286,-127 286,-89.7809 309.403,-51.7594 325.677,-29.8195"/>
<polygon fill="midnightblue" stroke="midnightblue" points="328.592,-31.7704 331.918,-21.711 323.045,-27.5009 328.592,-31.7704"/>
</g>
<!-- Node19&#45;&gt;Node17 -->
<g id="edge50" class="edge"><title>Node19&#45;&gt;Node17</title>
<path fill="none" stroke="midnightblue" d="M523.459,-427.376C529.089,-416.422 537.995,-399.09 544.91,-385.634"/>
<polygon fill="midnightblue" stroke="midnightblue" points="548.06,-387.162 549.518,-376.667 541.834,-383.962 548.06,-387.162"/>
</g>
<!-- Node20 -->
<g id="node47" class="node"><title>Node20</title>
<a xlink:href="MojAutoPtrInternal_8h.htm" target="_top" xlink:title="core/internal/MojAutoPtr\lInternal.h">
<polygon fill="white" stroke="black" points="351.5,-349 351.5,-383 482.5,-383 482.5,-349 351.5,-349"/>
<text text-anchor="start" x="359.5" y="-370" font-family="Helvetica,sans-Serif" font-size="10.00">core/internal/MojAutoPtr</text>
<text text-anchor="middle" x="417" y="-357" font-family="Helvetica,sans-Serif" font-size="10.00">Internal.h</text>
</a>
</g>
<!-- Node19&#45;&gt;Node20 -->
<g id="edge54" class="edge"><title>Node19&#45;&gt;Node20</title>
<path fill="none" stroke="midnightblue" d="M503.097,-427.376C489.045,-417.358 467.51,-402.007 449.493,-389.163"/>
<polygon fill="midnightblue" stroke="midnightblue" points="451.154,-386.049 440.98,-383.094 447.091,-391.749 451.154,-386.049"/>
</g>
<!-- Node21&#45;&gt;Node2 -->
<g id="edge58" class="edge"><title>Node21&#45;&gt;Node2</title>
<path fill="none" stroke="midnightblue" d="M842.784,-550.197C850.506,-540.687 862.034,-526.452 872,-514 918.063,-456.449 950.764,-453.617 975,-384 980.261,-368.89 983.903,-361.294 975,-348 933.132,-285.482 846.567,-260.152 785.963,-249.912"/>
<polygon fill="midnightblue" stroke="midnightblue" points="786.145,-246.397 775.719,-248.282 785.045,-253.31 786.145,-246.397"/>
</g>
<!-- Node22 -->
<g id="node52" class="node"><title>Node22</title>
<a xlink:href="MojComp_8h.htm" target="_top" xlink:title="core/MojComp.h">
<polygon fill="white" stroke="black" points="718,-290.5 718,-311.5 812,-311.5 812,-290.5 718,-290.5"/>
<text text-anchor="middle" x="765" y="-298.5" font-family="Helvetica,sans-Serif" font-size="10.00">core/MojComp.h</text>
</a>
</g>
<!-- Node21&#45;&gt;Node22 -->
<g id="edge60" class="edge"><title>Node21&#45;&gt;Node22</title>
<path fill="none" stroke="midnightblue" d="M839.834,-550.394C852.719,-525.387 880.376,-461.714 853,-420 830.938,-386.383 793.063,-416.938 770,-384 757.315,-365.883 758.022,-339.725 760.635,-321.638"/>
<polygon fill="midnightblue" stroke="midnightblue" points="764.122,-322.018 762.406,-311.563 757.227,-320.807 764.122,-322.018"/>
</g>
<!-- Node23 -->
<g id="node55" class="node"><title>Node23</title>
<a xlink:href="MojRefCount_8h.htm" target="_top" xlink:title="core/MojRefCount.h">
<polygon fill="white" stroke="black" points="734,-492.5 734,-513.5 844,-513.5 844,-492.5 734,-492.5"/>
<text text-anchor="middle" x="789" y="-500.5" font-family="Helvetica,sans-Serif" font-size="10.00">core/MojRefCount.h</text>
</a>
</g>
<!-- Node21&#45;&gt;Node23 -->
<g id="edge64" class="edge"><title>Node21&#45;&gt;Node23</title>
<path fill="none" stroke="midnightblue" d="M825.746,-550.362C819.53,-542.35 810.849,-531.161 803.485,-521.67"/>
<polygon fill="midnightblue" stroke="midnightblue" points="806.097,-519.326 797.201,-513.571 800.566,-523.617 806.097,-519.326"/>
</g>
<!-- Node26 -->
<g id="node65" class="node"><title>Node26</title>
<a xlink:href="MojUtil_8h.htm" target="_top" xlink:title="core/MojUtil.h">
<polygon fill="white" stroke="black" points="975.5,-427.5 975.5,-448.5 1056.5,-448.5 1056.5,-427.5 975.5,-427.5"/>
<text text-anchor="middle" x="1016" y="-435.5" font-family="Helvetica,sans-Serif" font-size="10.00">core/MojUtil.h</text>
</a>
</g>
<!-- Node21&#45;&gt;Node26 -->
<g id="edge78" class="edge"><title>Node21&#45;&gt;Node26</title>
<path fill="none" stroke="midnightblue" d="M882.704,-550.527C908.163,-543.313 938.769,-531.751 962,-514 981.674,-498.966 997.118,-474.762 1006.36,-457.715"/>
<polygon fill="midnightblue" stroke="midnightblue" points="1009.58,-459.117 1011.07,-448.628 1003.36,-455.895 1009.58,-459.117"/>
</g>
<!-- Node27 -->
<g id="node69" class="node"><title>Node27</title>
<a xlink:href="MojVectorInternal_8h.htm" target="_top" xlink:title="core/internal/MojVectorInternal.h">
<polygon fill="white" stroke="black" points="545.5,-492.5 545.5,-513.5 716.5,-513.5 716.5,-492.5 545.5,-492.5"/>
<text text-anchor="middle" x="631" y="-500.5" font-family="Helvetica,sans-Serif" font-size="10.00">core/internal/MojVectorInternal.h</text>
</a>
</g>
<!-- Node21&#45;&gt;Node27 -->
<g id="edge84" class="edge"><title>Node21&#45;&gt;Node27</title>
<path fill="none" stroke="midnightblue" d="M797.238,-550.497C763.714,-540.918 714.018,-526.72 677.696,-516.342"/>
<polygon fill="midnightblue" stroke="midnightblue" points="678.408,-512.905 667.831,-513.523 676.484,-519.636 678.408,-512.905"/>
</g>
<!-- Node22&#45;&gt;Node2 -->
<g id="edge62" class="edge"><title>Node22&#45;&gt;Node2</title>
<path fill="none" stroke="midnightblue" d="M756.746,-290.362C750.53,-282.35 741.849,-271.161 734.485,-261.67"/>
<polygon fill="midnightblue" stroke="midnightblue" points="737.097,-259.326 728.201,-253.571 731.566,-263.617 737.097,-259.326"/>
</g>
<!-- Node23&#45;&gt;Node2 -->
<g id="edge66" class="edge"><title>Node23&#45;&gt;Node2</title>
<path fill="none" stroke="midnightblue" d="M745.393,-492.359C726.471,-485.342 706.127,-474.004 695,-456 656.825,-394.232 691.323,-302.959 709.923,-262.983"/>
<polygon fill="midnightblue" stroke="midnightblue" points="713.178,-264.292 714.361,-253.763 706.87,-261.256 713.178,-264.292"/>
</g>
<!-- Node23&#45;&gt;Node17 -->
<g id="edge68" class="edge"><title>Node23&#45;&gt;Node17</title>
<path fill="none" stroke="midnightblue" d="M750.234,-492.473C724.255,-484.518 689.841,-472.196 662,-456 626.991,-435.634 592.164,-403.584 572.154,-383.732"/>
<polygon fill="midnightblue" stroke="midnightblue" points="574.531,-381.159 565.002,-376.527 569.563,-386.09 574.531,-381.159"/>
</g>
<!-- Node23&#45;&gt;Node19 -->
<g id="edge70" class="edge"><title>Node23&#45;&gt;Node19</title>
<path fill="none" stroke="midnightblue" d="M745.158,-492.484C697.83,-481.133 622.416,-463.044 571.599,-450.856"/>
<polygon fill="midnightblue" stroke="midnightblue" points="572.32,-447.429 561.779,-448.501 570.687,-454.236 572.32,-447.429"/>
</g>
<!-- Node24 -->
<g id="node60" class="node"><title>Node24</title>
<a xlink:href="MojRefCountInternal_8h.htm" target="_top" xlink:title="core/internal/MojRefCount\lInternal.h">
<polygon fill="white" stroke="black" points="704,-421 704,-455 844,-455 844,-421 704,-421"/>
<text text-anchor="start" x="712" y="-442" font-family="Helvetica,sans-Serif" font-size="10.00">core/internal/MojRefCount</text>
<text text-anchor="middle" x="774" y="-429" font-family="Helvetica,sans-Serif" font-size="10.00">Internal.h</text>
</a>
</g>
<!-- Node23&#45;&gt;Node24 -->
<g id="edge72" class="edge"><title>Node23&#45;&gt;Node24</title>
<path fill="none" stroke="midnightblue" d="M786.523,-492.267C784.812,-484.852 782.455,-474.64 780.248,-465.074"/>
<polygon fill="midnightblue" stroke="midnightblue" points="783.607,-464.067 777.948,-455.11 776.787,-465.641 783.607,-464.067"/>
</g>
<!-- Node25 -->
<g id="node62" class="node"><title>Node25</title>
<a xlink:href="MojUtilInternal_8h.htm" target="_top" xlink:title="core/internal/MojUtilInternal.h">
<polygon fill="white" stroke="black" points="811.5,-355.5 811.5,-376.5 966.5,-376.5 966.5,-355.5 811.5,-355.5"/>
<text text-anchor="middle" x="889" y="-363.5" font-family="Helvetica,sans-Serif" font-size="10.00">core/internal/MojUtilInternal.h</text>
</a>
</g>
<!-- Node24&#45;&gt;Node25 -->
<g id="edge74" class="edge"><title>Node24&#45;&gt;Node25</title>
<path fill="none" stroke="midnightblue" d="M801.253,-420.937C820.09,-409.144 844.98,-393.56 863.439,-382.004"/>
<polygon fill="midnightblue" stroke="midnightblue" points="865.31,-384.961 871.929,-376.688 861.596,-379.028 865.31,-384.961"/>
</g>
<!-- Node25&#45;&gt;Node22 -->
<g id="edge76" class="edge"><title>Node25&#45;&gt;Node22</title>
<path fill="none" stroke="midnightblue" d="M868.801,-355.412C848.535,-344.788 817.115,-328.318 794.15,-316.28"/>
<polygon fill="midnightblue" stroke="midnightblue" points="795.672,-313.126 785.19,-311.584 792.422,-319.326 795.672,-313.126"/>
</g>
<!-- Node26&#45;&gt;Node2 -->
<g id="edge80" class="edge"><title>Node26&#45;&gt;Node2</title>
<path fill="none" stroke="midnightblue" d="M1019.37,-427.393C1027.17,-400.546 1043.24,-329.255 1008,-290 993.315,-273.64 866.142,-257.858 785.773,-249.391"/>
<polygon fill="midnightblue" stroke="midnightblue" points="786.039,-245.9 775.731,-248.346 785.314,-252.863 786.039,-245.9"/>
</g>
<!-- Node26&#45;&gt;Node25 -->
<g id="edge82" class="edge"><title>Node26&#45;&gt;Node25</title>
<path fill="none" stroke="midnightblue" d="M997.261,-427.376C975.969,-415.305 941.018,-395.49 916.606,-381.651"/>
<polygon fill="midnightblue" stroke="midnightblue" points="918.242,-378.555 907.816,-376.667 914.789,-384.644 918.242,-378.555"/>
</g>
<!-- Node29&#45;&gt;Node2 -->
<g id="edge90" class="edge"><title>Node29&#45;&gt;Node2</title>
<path fill="none" stroke="midnightblue" d="M957.228,-616.041C1025.06,-608.946 1142,-584.846 1142,-503 1142,-503 1142,-503 1142,-366 1142,-313.306 1099.15,-311.411 1051,-290 1004.8,-269.454 868.163,-255.104 785.593,-248.033"/>
<polygon fill="midnightblue" stroke="midnightblue" points="785.812,-244.54 775.553,-247.187 785.224,-251.515 785.812,-244.54"/>
</g>
<!-- Node29&#45;&gt;Node19 -->
<g id="edge92" class="edge"><title>Node29&#45;&gt;Node19</title>
<path fill="none" stroke="midnightblue" d="M862.962,-611.745C773.226,-596.976 582.459,-560.816 537,-514 522.777,-499.352 518.701,-475.75 517.763,-458.732"/>
<polygon fill="midnightblue" stroke="midnightblue" points="521.26,-458.574 517.524,-448.659 514.262,-458.739 521.26,-458.574"/>
</g>
<!-- Node29&#45;&gt;Node21 -->
<g id="edge102" class="edge"><title>Node29&#45;&gt;Node21</title>
<path fill="none" stroke="midnightblue" d="M896.06,-608.362C884.812,-599.777 868.784,-587.546 855.835,-577.664"/>
<polygon fill="midnightblue" stroke="midnightblue" points="857.924,-574.855 847.851,-571.571 853.677,-580.42 857.924,-574.855"/>
</g>
<!-- Node29&#45;&gt;Node22 -->
<g id="edge94" class="edge"><title>Node29&#45;&gt;Node22</title>
<path fill="none" stroke="midnightblue" d="M910.995,-608.236C913.382,-576.127 916.279,-479.558 872,-420 851.363,-392.241 826.82,-409.081 803,-384 786.122,-366.229 775.768,-339.639 770.216,-321.371"/>
<polygon fill="midnightblue" stroke="midnightblue" points="773.573,-320.379 767.488,-311.706 766.836,-322.281 773.573,-320.379"/>
</g>
<!-- Node30 -->
<g id="node78" class="node"><title>Node30</title>
<a xlink:href="MojHasher_8h.htm" target="_top" xlink:title="core/MojHasher.h">
<polygon fill="white" stroke="black" points="1013.5,-492.5 1013.5,-513.5 1114.5,-513.5 1114.5,-492.5 1013.5,-492.5"/>
<text text-anchor="middle" x="1064" y="-500.5" font-family="Helvetica,sans-Serif" font-size="10.00">core/MojHasher.h</text>
</a>
</g>
<!-- Node29&#45;&gt;Node30 -->
<g id="edge96" class="edge"><title>Node29&#45;&gt;Node30</title>
<path fill="none" stroke="midnightblue" d="M924.212,-608.295C951.028,-588.096 1009.28,-544.216 1041.48,-519.963"/>
<polygon fill="midnightblue" stroke="midnightblue" points="1043.94,-522.491 1049.82,-513.679 1039.73,-516.9 1043.94,-522.491"/>
</g>
<!-- Node30&#45;&gt;Node2 -->
<g id="edge98" class="edge"><title>Node30&#45;&gt;Node2</title>
<path fill="none" stroke="midnightblue" d="M1066.18,-492.462C1072.77,-457.315 1088.49,-343.318 1028,-290 993.049,-259.193 865.67,-248.564 786.081,-244.908"/>
<polygon fill="midnightblue" stroke="midnightblue" points="785.805,-241.393 775.663,-244.456 785.502,-248.386 785.805,-241.393"/>
</g>
<!-- Node30&#45;&gt;Node26 -->
<g id="edge100" class="edge"><title>Node30&#45;&gt;Node26</title>
<path fill="none" stroke="midnightblue" d="M1056.07,-492.267C1048.94,-482.612 1038.31,-468.215 1029.79,-456.675"/>
<polygon fill="midnightblue" stroke="midnightblue" points="1032.53,-454.499 1023.78,-448.534 1026.9,-458.657 1032.53,-454.499"/>
</g>
</g>
</svg>
