<?xml version="1.0" encoding="UTF-8" standalone="no"?>
<!DOCTYPE svg PUBLIC "-//W3C//DTD SVG 1.1//EN"
 "http://www.w3.org/Graphics/SVG/1.1/DTD/svg11.dtd">
<!-- Generated by graphviz version 2.26.3 (20100126.1600)
 -->
<!-- Title: MojMessageDispatcher.h Pages: 1 -->
<svg width="417pt" height="146pt"
 viewBox="0.00 0.00 417.00 146.00" xmlns="http://www.w3.org/2000/svg" xmlns:xlink="http://www.w3.org/1999/xlink">
<g id="graph1" class="graph" transform="scale(1 1) rotate(0) translate(4 142)">
<title>MojMessageDispatcher.h</title>
<polygon fill="white" stroke="white" points="-4,5 -4,-142 414,-142 414,5 -4,5"/>
<!-- Node1 -->
<g id="node1" class="node"><title>Node1</title>
<polygon fill="#bfbfbf" stroke="black" points="141.5,-116.5 141.5,-137.5 278.5,-137.5 278.5,-116.5 141.5,-116.5"/>
<text text-anchor="middle" x="210" y="-124.5" font-family="Helvetica,sans-Serif" font-size="10.00">MojMessageDispatcher.h</text>
</g>
<!-- Node2 -->
<g id="node3" class="node"><title>Node2</title>
<a xlink:href="MojMessageDispatcher_8cpp.htm" target="_top" xlink:title="MojMessageDispatcher.cpp">
<polygon fill="white" stroke="black" points="0,-58.5 0,-79.5 148,-79.5 148,-58.5 0,-58.5"/>
<text text-anchor="middle" x="74" y="-66.5" font-family="Helvetica,sans-Serif" font-size="10.00">MojMessageDispatcher.cpp</text>
</a>
</g>
<!-- Node1&#45;&gt;Node2 -->
<g id="edge2" class="edge"><title>Node1&#45;&gt;Node2</title>
<path fill="none" stroke="midnightblue" d="M175.952,-112.479C152.011,-102.269 120.518,-88.8386 98.9049,-79.6212"/>
<polygon fill="midnightblue" stroke="midnightblue" points="174.8,-115.793 185.371,-116.497 177.546,-109.354 174.8,-115.793"/>
</g>
<!-- Node3 -->
<g id="node5" class="node"><title>Node3</title>
<a xlink:href="MojService_8cpp.htm" target="_top" xlink:title="MojService.cpp">
<polygon fill="white" stroke="black" points="165.5,-58.5 165.5,-79.5 254.5,-79.5 254.5,-58.5 165.5,-58.5"/>
<text text-anchor="middle" x="210" y="-66.5" font-family="Helvetica,sans-Serif" font-size="10.00">MojService.cpp</text>
</a>
</g>
<!-- Node1&#45;&gt;Node3 -->
<g id="edge4" class="edge"><title>Node1&#45;&gt;Node3</title>
<path fill="none" stroke="midnightblue" d="M210,-106.191C210,-97.1684 210,-86.9941 210,-79.5707"/>
<polygon fill="midnightblue" stroke="midnightblue" points="206.5,-106.362 210,-116.362 213.5,-106.362 206.5,-106.362"/>
</g>
<!-- Node4 -->
<g id="node7" class="node"><title>Node4</title>
<a xlink:href="MojDbLunaServiceApp_8h.htm" target="_top" xlink:title="MojDbLunaServiceApp.h">
<polygon fill="white" stroke="black" points="272,-58.5 272,-79.5 404,-79.5 404,-58.5 272,-58.5"/>
<text text-anchor="middle" x="338" y="-66.5" font-family="Helvetica,sans-Serif" font-size="10.00">MojDbLunaServiceApp.h</text>
</a>
</g>
<!-- Node1&#45;&gt;Node4 -->
<g id="edge6" class="edge"><title>Node1&#45;&gt;Node4</title>
<path fill="none" stroke="midnightblue" d="M242.346,-112.343C264.841,-102.15 294.309,-88.7977 314.56,-79.6212"/>
<polygon fill="midnightblue" stroke="midnightblue" points="240.844,-109.181 233.18,-116.497 243.733,-115.557 240.844,-109.181"/>
</g>
<!-- Node5 -->
<g id="node9" class="node"><title>Node5</title>
<a xlink:href="MojDbLunaServiceApp_8cpp.htm" target="_top" xlink:title="MojDbLunaServiceApp.cpp">
<polygon fill="white" stroke="black" points="266.5,-0.5 266.5,-21.5 409.5,-21.5 409.5,-0.5 266.5,-0.5"/>
<text text-anchor="middle" x="338" y="-8.5" font-family="Helvetica,sans-Serif" font-size="10.00">MojDbLunaServiceApp.cpp</text>
</a>
</g>
<!-- Node4&#45;&gt;Node5 -->
<g id="edge8" class="edge"><title>Node4&#45;&gt;Node5</title>
<path fill="none" stroke="midnightblue" d="M338,-48.1906C338,-39.1684 338,-28.9941 338,-21.5707"/>
<polygon fill="midnightblue" stroke="midnightblue" points="334.5,-48.3619 338,-58.3619 341.5,-48.3619 334.5,-48.3619"/>
</g>
</g>
</svg>
