<?xml version="1.0" encoding="UTF-8" standalone="no"?>
<!DOCTYPE svg PUBLIC "-//W3C//DTD SVG 1.1//EN"
 "http://www.w3.org/Graphics/SVG/1.1/DTD/svg11.dtd">
<!-- Generated by graphviz version 2.26.3 (20100126.1600)
 -->
<!-- Title: MojMessage.h Pages: 1 -->
<svg width="1298pt" height="320pt"
 viewBox="0.00 0.00 1298.00 320.00" xmlns="http://www.w3.org/2000/svg" xmlns:xlink="http://www.w3.org/1999/xlink">
<g id="graph1" class="graph" transform="scale(1 1) rotate(0) translate(4 316)">
<title>MojMessage.h</title>
<polygon fill="white" stroke="white" points="-4,5 -4,-316 1295,-316 1295,5 -4,5"/>
<!-- Node1 -->
<g id="node1" class="node"><title>Node1</title>
<polygon fill="#bfbfbf" stroke="black" points="332,-290.5 332,-311.5 418,-311.5 418,-290.5 332,-290.5"/>
<text text-anchor="middle" x="375" y="-298.5" font-family="Helvetica,sans-Serif" font-size="10.00">MojMessage.h</text>
</g>
<!-- Node2 -->
<g id="node3" class="node"><title>Node2</title>
<a xlink:href="MojMessageDispatcher_8h.htm" target="_top" xlink:title="MojMessageDispatcher.h">
<polygon fill="white" stroke="black" points="143.5,-232.5 143.5,-253.5 280.5,-253.5 280.5,-232.5 143.5,-232.5"/>
<text text-anchor="middle" x="212" y="-240.5" font-family="Helvetica,sans-Serif" font-size="10.00">MojMessageDispatcher.h</text>
</a>
</g>
<!-- Node1&#45;&gt;Node2 -->
<g id="edge2" class="edge"><title>Node1&#45;&gt;Node2</title>
<path fill="none" stroke="midnightblue" d="M335.682,-287.009C306.715,-276.702 267.934,-262.903 241.573,-253.523"/>
<polygon fill="midnightblue" stroke="midnightblue" points="334.887,-290.442 345.482,-290.497 337.234,-283.847 334.887,-290.442"/>
</g>
<!-- Node7 -->
<g id="node13" class="node"><title>Node7</title>
<a xlink:href="MojServiceMessage_8h.htm" target="_top" xlink:title="MojServiceMessage.h">
<polygon fill="white" stroke="black" points="441.5,-232.5 441.5,-253.5 562.5,-253.5 562.5,-232.5 441.5,-232.5"/>
<text text-anchor="middle" x="502" y="-240.5" font-family="Helvetica,sans-Serif" font-size="10.00">MojServiceMessage.h</text>
</a>
</g>
<!-- Node1&#45;&gt;Node7 -->
<g id="edge12" class="edge"><title>Node1&#45;&gt;Node7</title>
<path fill="none" stroke="midnightblue" d="M407.393,-286.206C429.673,-276.031 458.74,-262.757 478.743,-253.621"/>
<polygon fill="midnightblue" stroke="midnightblue" points="405.641,-283.159 397.999,-290.497 408.549,-289.526 405.641,-283.159"/>
</g>
<!-- Node3 -->
<g id="node5" class="node"><title>Node3</title>
<a xlink:href="MojMessageDispatcher_8cpp.htm" target="_top" xlink:title="MojMessageDispatcher.cpp">
<polygon fill="white" stroke="black" points="0,-174.5 0,-195.5 148,-195.5 148,-174.5 0,-174.5"/>
<text text-anchor="middle" x="74" y="-182.5" font-family="Helvetica,sans-Serif" font-size="10.00">MojMessageDispatcher.cpp</text>
</a>
</g>
<!-- Node2&#45;&gt;Node3 -->
<g id="edge4" class="edge"><title>Node2&#45;&gt;Node3</title>
<path fill="none" stroke="midnightblue" d="M177.774,-228.615C153.443,-218.389 121.3,-204.88 99.2712,-195.621"/>
<polygon fill="midnightblue" stroke="midnightblue" points="176.434,-231.849 187.009,-232.497 179.146,-225.395 176.434,-231.849"/>
</g>
<!-- Node4 -->
<g id="node7" class="node"><title>Node4</title>
<a xlink:href="MojService_8cpp.htm" target="_top" xlink:title="MojService.cpp">
<polygon fill="white" stroke="black" points="203.5,-174.5 203.5,-195.5 292.5,-195.5 292.5,-174.5 203.5,-174.5"/>
<text text-anchor="middle" x="248" y="-182.5" font-family="Helvetica,sans-Serif" font-size="10.00">MojService.cpp</text>
</a>
</g>
<!-- Node2&#45;&gt;Node4 -->
<g id="edge6" class="edge"><title>Node2&#45;&gt;Node4</title>
<path fill="none" stroke="midnightblue" d="M224,-223.667C229.817,-214.295 236.578,-203.402 241.439,-195.571"/>
<polygon fill="midnightblue" stroke="midnightblue" points="220.903,-222.02 218.603,-232.362 226.85,-225.711 220.903,-222.02"/>
</g>
<!-- Node5 -->
<g id="node9" class="node"><title>Node5</title>
<a xlink:href="MojDbLunaServiceApp_8h.htm" target="_top" xlink:title="MojDbLunaServiceApp.h">
<polygon fill="white" stroke="black" points="294,-58.5 294,-79.5 426,-79.5 426,-58.5 294,-58.5"/>
<text text-anchor="middle" x="360" y="-66.5" font-family="Helvetica,sans-Serif" font-size="10.00">MojDbLunaServiceApp.h</text>
</a>
</g>
<!-- Node2&#45;&gt;Node5 -->
<g id="edge8" class="edge"><title>Node2&#45;&gt;Node5</title>
<path fill="none" stroke="midnightblue" d="M201.246,-222.91C188.38,-195.808 171.349,-147.328 195,-116 207.248,-99.7757 253.345,-87.4907 293.712,-79.5568"/>
<polygon fill="midnightblue" stroke="midnightblue" points="198.275,-224.793 205.88,-232.17 204.535,-221.661 198.275,-224.793"/>
</g>
<!-- Node6 -->
<g id="node11" class="node"><title>Node6</title>
<a xlink:href="MojDbLunaServiceApp_8cpp.htm" target="_top" xlink:title="MojDbLunaServiceApp.cpp">
<polygon fill="white" stroke="black" points="533.5,-0.5 533.5,-21.5 676.5,-21.5 676.5,-0.5 533.5,-0.5"/>
<text text-anchor="middle" x="605" y="-8.5" font-family="Helvetica,sans-Serif" font-size="10.00">MojDbLunaServiceApp.cpp</text>
</a>
</g>
<!-- Node5&#45;&gt;Node6 -->
<g id="edge10" class="edge"><title>Node5&#45;&gt;Node6</title>
<path fill="none" stroke="midnightblue" d="M414.312,-56.1424C458.284,-45.7328 519.456,-31.2511 560.549,-21.5231"/>
<polygon fill="midnightblue" stroke="midnightblue" points="413.292,-52.787 404.368,-58.4966 414.905,-59.5988 413.292,-52.787"/>
</g>
<!-- Node7&#45;&gt;Node4 -->
<g id="edge60" class="edge"><title>Node7&#45;&gt;Node4</title>
<path fill="none" stroke="midnightblue" d="M446.173,-230.252C400.095,-219.73 335.555,-204.993 292.803,-195.231"/>
<polygon fill="midnightblue" stroke="midnightblue" points="445.474,-233.683 456.003,-232.497 447.033,-226.858 445.474,-233.683"/>
</g>
<!-- Node8 -->
<g id="node15" class="node"><title>Node8</title>
<a xlink:href="MojSocketMessage_8h.htm" target="_top" xlink:title="MojSocketMessage.h">
<polygon fill="white" stroke="black" points="943,-174.5 943,-195.5 1061,-195.5 1061,-174.5 943,-174.5"/>
<text text-anchor="middle" x="1002" y="-182.5" font-family="Helvetica,sans-Serif" font-size="10.00">MojSocketMessage.h</text>
</a>
</g>
<!-- Node7&#45;&gt;Node8 -->
<g id="edge14" class="edge"><title>Node7&#45;&gt;Node8</title>
<path fill="none" stroke="midnightblue" d="M573.035,-234.76C672.212,-223.255 850.366,-202.59 942.776,-191.87"/>
<polygon fill="midnightblue" stroke="midnightblue" points="572.34,-231.317 562.81,-235.946 573.147,-238.27 572.34,-231.317"/>
</g>
<!-- Node14 -->
<g id="node28" class="node"><title>Node14</title>
<a xlink:href="MojDbServiceHandlerBase_8h.htm" target="_top" xlink:title="MojDbServiceHandlerBase.h">
<polygon fill="white" stroke="black" points="633,-174.5 633,-195.5 785,-195.5 785,-174.5 633,-174.5"/>
<text text-anchor="middle" x="709" y="-182.5" font-family="Helvetica,sans-Serif" font-size="10.00">MojDbServiceHandlerBase.h</text>
</a>
</g>
<!-- Node7&#45;&gt;Node14 -->
<g id="edge28" class="edge"><title>Node7&#45;&gt;Node14</title>
<path fill="none" stroke="midnightblue" d="M549.54,-229.68C586.559,-219.307 637.236,-205.108 671.444,-195.523"/>
<polygon fill="midnightblue" stroke="midnightblue" points="548.171,-226.428 539.486,-232.497 550.06,-233.169 548.171,-226.428"/>
</g>
<!-- Node19 -->
<g id="node40" class="node"><title>Node19</title>
<a xlink:href="MojDbServiceHandlerInternal_8h.htm" target="_top" xlink:title="MojDbServiceHandlerInternal.h">
<polygon fill="white" stroke="black" points="472,-116.5 472,-137.5 636,-137.5 636,-116.5 472,-116.5"/>
<text text-anchor="middle" x="554" y="-124.5" font-family="Helvetica,sans-Serif" font-size="10.00">MojDbServiceHandlerInternal.h</text>
</a>
</g>
<!-- Node7&#45;&gt;Node19 -->
<g id="edge52" class="edge"><title>Node7&#45;&gt;Node19</title>
<path fill="none" stroke="midnightblue" d="M541.344,-227.968C555.166,-220.56 569.187,-210.117 577,-196 587.639,-176.777 573.19,-151.809 562.842,-137.786"/>
<polygon fill="midnightblue" stroke="midnightblue" points="539.773,-224.841 532.357,-232.407 542.873,-231.117 539.773,-224.841"/>
</g>
<!-- Node21 -->
<g id="node48" class="node"><title>Node21</title>
<a xlink:href="MojLunaMessage_8h.htm" target="_top" xlink:title="MojLunaMessage.h">
<polygon fill="white" stroke="black" points="309.5,-174.5 309.5,-195.5 418.5,-195.5 418.5,-174.5 309.5,-174.5"/>
<text text-anchor="middle" x="364" y="-182.5" font-family="Helvetica,sans-Serif" font-size="10.00">MojLunaMessage.h</text>
</a>
</g>
<!-- Node7&#45;&gt;Node21 -->
<g id="edge54" class="edge"><title>Node7&#45;&gt;Node21</title>
<path fill="none" stroke="midnightblue" d="M467.774,-228.615C443.443,-218.389 411.3,-204.88 389.271,-195.621"/>
<polygon fill="midnightblue" stroke="midnightblue" points="466.434,-231.849 477.009,-232.497 469.146,-225.395 466.434,-231.849"/>
</g>
<!-- Node24 -->
<g id="node55" class="node"><title>Node24</title>
<a xlink:href="MojServiceMessage_8cpp.htm" target="_top" xlink:title="MojServiceMessage.cpp">
<polygon fill="white" stroke="black" points="436,-174.5 436,-195.5 568,-195.5 568,-174.5 436,-174.5"/>
<text text-anchor="middle" x="502" y="-182.5" font-family="Helvetica,sans-Serif" font-size="10.00">MojServiceMessage.cpp</text>
</a>
</g>
<!-- Node7&#45;&gt;Node24 -->
<g id="edge62" class="edge"><title>Node7&#45;&gt;Node24</title>
<path fill="none" stroke="midnightblue" d="M502,-222.191C502,-213.168 502,-202.994 502,-195.571"/>
<polygon fill="midnightblue" stroke="midnightblue" points="498.5,-222.362 502,-232.362 505.5,-222.362 498.5,-222.362"/>
</g>
<!-- Node9 -->
<g id="node17" class="node"><title>Node9</title>
<a xlink:href="MojSocketEncoding_8h.htm" target="_top" xlink:title="MojSocketEncoding.h">
<polygon fill="white" stroke="black" points="1029.5,-116.5 1029.5,-137.5 1148.5,-137.5 1148.5,-116.5 1029.5,-116.5"/>
<text text-anchor="middle" x="1089" y="-124.5" font-family="Helvetica,sans-Serif" font-size="10.00">MojSocketEncoding.h</text>
</a>
</g>
<!-- Node8&#45;&gt;Node9 -->
<g id="edge16" class="edge"><title>Node8&#45;&gt;Node9</title>
<path fill="none" stroke="midnightblue" d="M1026.69,-168.541C1041.6,-158.597 1060.17,-146.218 1073.14,-137.571"/>
<polygon fill="midnightblue" stroke="midnightblue" points="1024.34,-165.903 1017.96,-174.362 1028.22,-171.727 1024.34,-165.903"/>
</g>
<!-- Node11 -->
<g id="node21" class="node"><title>Node11</title>
<a xlink:href="MojSocketMessage_8cpp.htm" target="_top" xlink:title="MojSocketMessage.cpp">
<polygon fill="white" stroke="black" points="937.5,-0.5 937.5,-21.5 1066.5,-21.5 1066.5,-0.5 937.5,-0.5"/>
<text text-anchor="middle" x="1002" y="-8.5" font-family="Helvetica,sans-Serif" font-size="10.00">MojSocketMessage.cpp</text>
</a>
</g>
<!-- Node8&#45;&gt;Node11 -->
<g id="edge26" class="edge"><title>Node8&#45;&gt;Node11</title>
<path fill="none" stroke="midnightblue" d="M1002,-164.2C1002,-127.013 1002,-50.3605 1002,-21.9277"/>
<polygon fill="midnightblue" stroke="midnightblue" points="998.5,-164.377 1002,-174.377 1005.5,-164.377 998.5,-164.377"/>
</g>
<!-- Node10 -->
<g id="node19" class="node"><title>Node10</title>
<a xlink:href="MojSocketService_8h.htm" target="_top" xlink:title="MojSocketService.h">
<polygon fill="white" stroke="black" points="1032,-58.5 1032,-79.5 1142,-79.5 1142,-58.5 1032,-58.5"/>
<text text-anchor="middle" x="1087" y="-66.5" font-family="Helvetica,sans-Serif" font-size="10.00">MojSocketService.h</text>
</a>
</g>
<!-- Node9&#45;&gt;Node10 -->
<g id="edge18" class="edge"><title>Node9&#45;&gt;Node10</title>
<path fill="none" stroke="midnightblue" d="M1088.28,-106.191C1087.97,-97.1684 1087.62,-86.9941 1087.36,-79.5707"/>
<polygon fill="midnightblue" stroke="midnightblue" points="1084.79,-106.488 1088.63,-116.362 1091.79,-106.247 1084.79,-106.488"/>
</g>
<!-- Node13 -->
<g id="node25" class="node"><title>Node13</title>
<a xlink:href="MojSocketEncoding_8cpp.htm" target="_top" xlink:title="MojSocketEncoding.cpp">
<polygon fill="white" stroke="black" points="1160,-58.5 1160,-79.5 1290,-79.5 1290,-58.5 1160,-58.5"/>
<text text-anchor="middle" x="1225" y="-66.5" font-family="Helvetica,sans-Serif" font-size="10.00">MojSocketEncoding.cpp</text>
</a>
</g>
<!-- Node9&#45;&gt;Node13 -->
<g id="edge24" class="edge"><title>Node9&#45;&gt;Node13</title>
<path fill="none" stroke="midnightblue" d="M1123.05,-112.479C1146.99,-102.269 1178.48,-88.8386 1200.1,-79.6212"/>
<polygon fill="midnightblue" stroke="midnightblue" points="1121.45,-109.354 1113.63,-116.497 1124.2,-115.793 1121.45,-109.354"/>
</g>
<!-- Node10&#45;&gt;Node11 -->
<g id="edge20" class="edge"><title>Node10&#45;&gt;Node11</title>
<path fill="none" stroke="midnightblue" d="M1062.88,-52.5407C1048.31,-42.5973 1030.16,-30.2177 1017.49,-21.5707"/>
<polygon fill="midnightblue" stroke="midnightblue" points="1061.18,-55.6166 1071.41,-58.3619 1065.12,-49.8344 1061.18,-55.6166"/>
</g>
<!-- Node12 -->
<g id="node23" class="node"><title>Node12</title>
<a xlink:href="MojSocketService_8cpp.htm" target="_top" xlink:title="MojSocketService.cpp">
<polygon fill="white" stroke="black" points="1083.5,-0.5 1083.5,-21.5 1204.5,-21.5 1204.5,-0.5 1083.5,-0.5"/>
<text text-anchor="middle" x="1144" y="-8.5" font-family="Helvetica,sans-Serif" font-size="10.00">MojSocketService.cpp</text>
</a>
</g>
<!-- Node10&#45;&gt;Node12 -->
<g id="edge22" class="edge"><title>Node10&#45;&gt;Node12</title>
<path fill="none" stroke="midnightblue" d="M1104.57,-51.118C1114.09,-41.4377 1125.51,-29.8098 1133.61,-21.5707"/>
<polygon fill="midnightblue" stroke="midnightblue" points="1101.97,-48.7763 1097.45,-58.3619 1106.96,-53.6829 1101.97,-48.7763"/>
</g>
<!-- Node15 -->
<g id="node30" class="node"><title>Node15</title>
<a xlink:href="MojDbServiceHandler_8h.htm" target="_top" xlink:title="MojDbServiceHandler.h">
<polygon fill="white" stroke="black" points="654,-116.5 654,-137.5 782,-137.5 782,-116.5 654,-116.5"/>
<text text-anchor="middle" x="718" y="-124.5" font-family="Helvetica,sans-Serif" font-size="10.00">MojDbServiceHandler.h</text>
</a>
</g>
<!-- Node14&#45;&gt;Node15 -->
<g id="edge30" class="edge"><title>Node14&#45;&gt;Node15</title>
<path fill="none" stroke="midnightblue" d="M712.229,-164.191C713.629,-155.168 715.208,-144.994 716.36,-137.571"/>
<polygon fill="midnightblue" stroke="midnightblue" points="708.726,-163.943 710.651,-174.362 715.643,-165.017 708.726,-163.943"/>
</g>
<!-- Node14&#45;&gt;Node19 -->
<g id="edge42" class="edge"><title>Node14&#45;&gt;Node19</title>
<path fill="none" stroke="midnightblue" d="M671.25,-170.874C643.745,-160.582 607.079,-146.862 582.122,-137.523"/>
<polygon fill="midnightblue" stroke="midnightblue" points="670.338,-174.27 680.931,-174.497 672.792,-167.714 670.338,-174.27"/>
</g>
<!-- Node20 -->
<g id="node45" class="node"><title>Node20</title>
<a xlink:href="MojDbServiceHandlerBase_8cpp.htm" target="_top" xlink:title="MojDbServiceHandlerBase.cpp">
<polygon fill="white" stroke="black" points="799.5,-116.5 799.5,-137.5 962.5,-137.5 962.5,-116.5 799.5,-116.5"/>
<text text-anchor="middle" x="881" y="-124.5" font-family="Helvetica,sans-Serif" font-size="10.00">MojDbServiceHandlerBase.cpp</text>
</a>
</g>
<!-- Node14&#45;&gt;Node20 -->
<g id="edge50" class="edge"><title>Node14&#45;&gt;Node20</title>
<path fill="none" stroke="midnightblue" d="M749.691,-171.279C780.339,-160.944 821.735,-146.985 849.794,-137.523"/>
<polygon fill="midnightblue" stroke="midnightblue" points="748.505,-167.985 740.148,-174.497 750.742,-174.618 748.505,-167.985"/>
</g>
<!-- Node15&#45;&gt;Node5 -->
<g id="edge38" class="edge"><title>Node15&#45;&gt;Node5</title>
<path fill="none" stroke="midnightblue" d="M643.887,-114.993C579.332,-104.534 486.658,-89.52 424.959,-79.5241"/>
<polygon fill="midnightblue" stroke="midnightblue" points="643.566,-118.486 653.997,-116.631 644.685,-111.576 643.566,-118.486"/>
</g>
<!-- Node15&#45;&gt;Node6 -->
<g id="edge40" class="edge"><title>Node15&#45;&gt;Node6</title>
<path fill="none" stroke="midnightblue" d="M788.327,-114.645C853.096,-102.929 939.935,-86.2212 945,-80 951.173,-72.4175 951.423,-65.3721 945,-58 927.654,-38.0912 771.334,-23.2199 676.802,-15.9545"/>
<polygon fill="midnightblue" stroke="midnightblue" points="787.358,-111.263 778.137,-116.48 788.599,-118.152 787.358,-111.263"/>
</g>
<!-- Node16 -->
<g id="node32" class="node"><title>Node16</title>
<a xlink:href="MojDbServiceHandler_8cpp.htm" target="_top" xlink:title="MojDbServiceHandler.cpp">
<polygon fill="white" stroke="black" points="635.5,-58.5 635.5,-79.5 774.5,-79.5 774.5,-58.5 635.5,-58.5"/>
<text text-anchor="middle" x="705" y="-66.5" font-family="Helvetica,sans-Serif" font-size="10.00">MojDbServiceHandler.cpp</text>
</a>
</g>
<!-- Node15&#45;&gt;Node16 -->
<g id="edge32" class="edge"><title>Node15&#45;&gt;Node16</title>
<path fill="none" stroke="midnightblue" d="M713.402,-106.488C711.364,-97.3924 709.051,-87.0756 707.369,-79.5707"/>
<polygon fill="midnightblue" stroke="midnightblue" points="710.013,-107.37 715.616,-116.362 716.844,-105.838 710.013,-107.37"/>
</g>
<!-- Node17 -->
<g id="node34" class="node"><title>Node17</title>
<a xlink:href="MojDbServiceHandlerInternal_8cpp.htm" target="_top" xlink:title="MojDbServiceHandlerInternal.cpp">
<polygon fill="white" stroke="black" points="443.5,-58.5 443.5,-79.5 618.5,-79.5 618.5,-58.5 443.5,-58.5"/>
<text text-anchor="middle" x="531" y="-66.5" font-family="Helvetica,sans-Serif" font-size="10.00">MojDbServiceHandlerInternal.cpp</text>
</a>
</g>
<!-- Node15&#45;&gt;Node17 -->
<g id="edge34" class="edge"><title>Node15&#45;&gt;Node17</title>
<path fill="none" stroke="midnightblue" d="M674.193,-113.413C640.829,-103.065 595.566,-89.0258 564.928,-79.5231"/>
<polygon fill="midnightblue" stroke="midnightblue" points="673.548,-116.877 684.136,-116.497 675.621,-110.191 673.548,-116.877"/>
</g>
<!-- Node18 -->
<g id="node36" class="node"><title>Node18</title>
<a xlink:href="MojDbServiceSchemas_8cpp.htm" target="_top" xlink:title="MojDbServiceSchemas.cpp">
<polygon fill="white" stroke="black" points="791.5,-58.5 791.5,-79.5 936.5,-79.5 936.5,-58.5 791.5,-58.5"/>
<text text-anchor="middle" x="864" y="-66.5" font-family="Helvetica,sans-Serif" font-size="10.00">MojDbServiceSchemas.cpp</text>
</a>
</g>
<!-- Node15&#45;&gt;Node18 -->
<g id="edge36" class="edge"><title>Node15&#45;&gt;Node18</title>
<path fill="none" stroke="midnightblue" d="M753.868,-112.751C779.651,-102.509 813.855,-88.9206 837.264,-79.6212"/>
<polygon fill="midnightblue" stroke="midnightblue" points="752.441,-109.552 744.439,-116.497 755.025,-116.057 752.441,-109.552"/>
</g>
<!-- Node19&#45;&gt;Node5 -->
<g id="edge48" class="edge"><title>Node19&#45;&gt;Node5</title>
<path fill="none" stroke="midnightblue" d="M509,-113.546C474.345,-103.186 427.12,-89.0668 395.198,-79.5231"/>
<polygon fill="midnightblue" stroke="midnightblue" points="508.285,-116.985 518.868,-116.497 510.29,-110.279 508.285,-116.985"/>
</g>
<!-- Node19&#45;&gt;Node16 -->
<g id="edge44" class="edge"><title>Node19&#45;&gt;Node16</title>
<path fill="none" stroke="midnightblue" d="M590.776,-112.874C617.571,-102.582 653.29,-88.862 677.604,-79.5231"/>
<polygon fill="midnightblue" stroke="midnightblue" points="589.425,-109.644 581.345,-116.497 591.935,-116.178 589.425,-109.644"/>
</g>
<!-- Node19&#45;&gt;Node17 -->
<g id="edge46" class="edge"><title>Node19&#45;&gt;Node17</title>
<path fill="none" stroke="midnightblue" d="M545.983,-106.784C542.348,-97.617 538.2,-87.1572 535.192,-79.5707"/>
<polygon fill="midnightblue" stroke="midnightblue" points="542.842,-108.356 549.781,-116.362 549.349,-105.776 542.842,-108.356"/>
</g>
<!-- Node22 -->
<g id="node50" class="node"><title>Node22</title>
<a xlink:href="MojLunaMessage_8cpp.htm" target="_top" xlink:title="MojLunaMessage.cpp">
<polygon fill="white" stroke="black" points="204,-116.5 204,-137.5 324,-137.5 324,-116.5 204,-116.5"/>
<text text-anchor="middle" x="264" y="-124.5" font-family="Helvetica,sans-Serif" font-size="10.00">MojLunaMessage.cpp</text>
</a>
</g>
<!-- Node21&#45;&gt;Node22 -->
<g id="edge56" class="edge"><title>Node21&#45;&gt;Node22</title>
<path fill="none" stroke="midnightblue" d="M336.588,-169.101C319.286,-159.066 297.415,-146.381 282.225,-137.571"/>
<polygon fill="midnightblue" stroke="midnightblue" points="335.252,-172.372 345.658,-174.362 338.764,-166.317 335.252,-172.372"/>
</g>
<!-- Node23 -->
<g id="node52" class="node"><title>Node23</title>
<a xlink:href="MojLunaService_8cpp.htm" target="_top" xlink:title="MojLunaService.cpp">
<polygon fill="white" stroke="black" points="342,-116.5 342,-137.5 454,-137.5 454,-116.5 342,-116.5"/>
<text text-anchor="middle" x="398" y="-124.5" font-family="Helvetica,sans-Serif" font-size="10.00">MojLunaService.cpp</text>
</a>
</g>
<!-- Node21&#45;&gt;Node23 -->
<g id="edge58" class="edge"><title>Node21&#45;&gt;Node23</title>
<path fill="none" stroke="midnightblue" d="M375.333,-165.667C380.827,-156.295 387.213,-145.402 391.803,-137.571"/>
<polygon fill="midnightblue" stroke="midnightblue" points="372.274,-163.965 370.236,-174.362 378.313,-167.505 372.274,-163.965"/>
</g>
</g>
</svg>
