<?xml version="1.0" encoding="UTF-8" standalone="no"?>
<!DOCTYPE svg PUBLIC "-//W3C//DTD SVG 1.1//EN"
 "http://www.w3.org/Graphics/SVG/1.1/DTD/svg11.dtd">
<!-- Generated by graphviz version 2.26.3 (20100126.1600)
 -->
<!-- Title: MojMap.h Pages: 1 -->
<svg width="703pt" height="508pt"
 viewBox="0.00 0.00 703.00 508.00" xmlns="http://www.w3.org/2000/svg" xmlns:xlink="http://www.w3.org/1999/xlink">
<g id="graph1" class="graph" transform="scale(1 1) rotate(0) translate(4 504)">
<title>MojMap.h</title>
<polygon fill="white" stroke="white" points="-4,5 -4,-504 700,-504 700,5 -4,5"/>
<!-- Node1 -->
<g id="node1" class="node"><title>Node1</title>
<polygon fill="#bfbfbf" stroke="black" points="208.5,-478.5 208.5,-499.5 271.5,-499.5 271.5,-478.5 208.5,-478.5"/>
<text text-anchor="middle" x="240" y="-486.5" font-family="Helvetica,sans-Serif" font-size="10.00">MojMap.h</text>
</g>
<!-- Node2 -->
<g id="node3" class="node"><title>Node2</title>
<a xlink:href="MojCoreDefs_8h.htm" target="_top" xlink:title="core/MojCoreDefs.h">
<polygon fill="white" stroke="black" points="277.5,-232.5 277.5,-253.5 388.5,-253.5 388.5,-232.5 277.5,-232.5"/>
<text text-anchor="middle" x="333" y="-240.5" font-family="Helvetica,sans-Serif" font-size="10.00">core/MojCoreDefs.h</text>
</a>
</g>
<!-- Node1&#45;&gt;Node2 -->
<g id="edge2" class="edge"><title>Node1&#45;&gt;Node2</title>
<path fill="none" stroke="midnightblue" d="M231.951,-478.479C216.045,-456.317 183.65,-403.459 202,-362 222.826,-314.947 272.465,-278.53 304.307,-258.97"/>
<polygon fill="midnightblue" stroke="midnightblue" points="306.381,-261.808 313.172,-253.676 302.792,-255.798 306.381,-261.808"/>
</g>
<!-- Node12 -->
<g id="node23" class="node"><title>Node12</title>
<a xlink:href="MojComp_8h.htm" target="_top" xlink:title="core/MojComp.h">
<polygon fill="white" stroke="black" points="211,-362.5 211,-383.5 305,-383.5 305,-362.5 211,-362.5"/>
<text text-anchor="middle" x="258" y="-370.5" font-family="Helvetica,sans-Serif" font-size="10.00">core/MojComp.h</text>
</a>
</g>
<!-- Node1&#45;&gt;Node12 -->
<g id="edge22" class="edge"><title>Node1&#45;&gt;Node12</title>
<path fill="none" stroke="midnightblue" d="M241.661,-478.295C244.635,-459.131 250.916,-418.654 254.766,-393.843"/>
<polygon fill="midnightblue" stroke="midnightblue" points="258.268,-394.098 256.343,-383.679 251.351,-393.024 258.268,-394.098"/>
</g>
<!-- Node13 -->
<g id="node26" class="node"><title>Node13</title>
<a xlink:href="MojRbTreeBase_8h.htm" target="_top" xlink:title="core/internal/MojRbTreeBase.h">
<polygon fill="white" stroke="black" points="268,-420.5 268,-441.5 432,-441.5 432,-420.5 268,-420.5"/>
<text text-anchor="middle" x="350" y="-428.5" font-family="Helvetica,sans-Serif" font-size="10.00">core/internal/MojRbTreeBase.h</text>
</a>
</g>
<!-- Node1&#45;&gt;Node13 -->
<g id="edge26" class="edge"><title>Node1&#45;&gt;Node13</title>
<path fill="none" stroke="midnightblue" d="M259.92,-478.497C276.946,-469.519 301.669,-456.484 320.909,-446.339"/>
<polygon fill="midnightblue" stroke="midnightblue" points="322.643,-449.381 329.856,-441.621 319.378,-443.189 322.643,-449.381"/>
</g>
<!-- Node3 -->
<g id="node5" class="node"><title>Node3</title>
<a xlink:href="MojConfig_8h.htm" target="_top" xlink:title="core/internal/MojConfig.h">
<polygon fill="white" stroke="black" points="-0.5,-174.5 -0.5,-195.5 134.5,-195.5 134.5,-174.5 -0.5,-174.5"/>
<text text-anchor="middle" x="67" y="-182.5" font-family="Helvetica,sans-Serif" font-size="10.00">core/internal/MojConfig.h</text>
</a>
</g>
<!-- Node2&#45;&gt;Node3 -->
<g id="edge4" class="edge"><title>Node2&#45;&gt;Node3</title>
<path fill="none" stroke="midnightblue" d="M284.829,-232.497C239.962,-222.714 172.99,-208.111 125.162,-197.682"/>
<polygon fill="midnightblue" stroke="midnightblue" points="125.777,-194.234 115.261,-195.523 124.286,-201.073 125.777,-194.234"/>
</g>
<!-- Node4 -->
<g id="node7" class="node"><title>Node4</title>
<a xlink:href="MojNew_8h.htm" target="_top" xlink:title="core/internal/MojNew.h">
<polygon fill="white" stroke="black" points="151.5,-174.5 151.5,-195.5 276.5,-195.5 276.5,-174.5 151.5,-174.5"/>
<text text-anchor="middle" x="214" y="-182.5" font-family="Helvetica,sans-Serif" font-size="10.00">core/internal/MojNew.h</text>
</a>
</g>
<!-- Node2&#45;&gt;Node4 -->
<g id="edge6" class="edge"><title>Node2&#45;&gt;Node4</title>
<path fill="none" stroke="midnightblue" d="M311.45,-232.497C292.864,-223.438 265.798,-210.246 244.905,-200.063"/>
<polygon fill="midnightblue" stroke="midnightblue" points="246.314,-196.856 235.792,-195.621 243.247,-203.149 246.314,-196.856"/>
</g>
<!-- Node6 -->
<g id="node11" class="node"><title>Node6</title>
<a xlink:href="MojErr_8h.htm" target="_top" xlink:title="core/MojErr.h">
<polygon fill="white" stroke="black" points="294,-174.5 294,-195.5 374,-195.5 374,-174.5 294,-174.5"/>
<text text-anchor="middle" x="334" y="-182.5" font-family="Helvetica,sans-Serif" font-size="10.00">core/MojErr.h</text>
</a>
</g>
<!-- Node2&#45;&gt;Node6 -->
<g id="edge10" class="edge"><title>Node2&#45;&gt;Node6</title>
<path fill="none" stroke="midnightblue" d="M333.183,-232.362C333.312,-224.922 333.487,-214.743 333.643,-205.728"/>
<polygon fill="midnightblue" stroke="midnightblue" points="337.145,-205.63 333.818,-195.571 330.146,-205.509 337.145,-205.63"/>
</g>
<!-- Node10 -->
<g id="node19" class="node"><title>Node10</title>
<a xlink:href="MojOs_8h.htm" target="_top" xlink:title="core/MojOs.h">
<polygon fill="white" stroke="black" points="392,-174.5 392,-195.5 472,-195.5 472,-174.5 392,-174.5"/>
<text text-anchor="middle" x="432" y="-182.5" font-family="Helvetica,sans-Serif" font-size="10.00">core/MojOs.h</text>
</a>
</g>
<!-- Node2&#45;&gt;Node10 -->
<g id="edge18" class="edge"><title>Node2&#45;&gt;Node10</title>
<path fill="none" stroke="midnightblue" d="M351.158,-232.362C366.23,-223.532 387.887,-210.844 404.993,-200.822"/>
<polygon fill="midnightblue" stroke="midnightblue" points="407.098,-203.646 413.957,-195.571 403.559,-197.606 407.098,-203.646"/>
</g>
<!-- Node5 -->
<g id="node9" class="node"><title>Node5</title>
<polygon fill="white" stroke="#bfbfbf" points="196,-116.5 196,-137.5 232,-137.5 232,-116.5 196,-116.5"/>
<text text-anchor="middle" x="214" y="-124.5" font-family="Helvetica,sans-Serif" font-size="10.00">new</text>
</g>
<!-- Node4&#45;&gt;Node5 -->
<g id="edge8" class="edge"><title>Node4&#45;&gt;Node5</title>
<path fill="none" stroke="midnightblue" d="M214,-174.362C214,-166.922 214,-156.743 214,-147.728"/>
<polygon fill="midnightblue" stroke="midnightblue" points="217.5,-147.571 214,-137.571 210.5,-147.571 217.5,-147.571"/>
</g>
<!-- Node7 -->
<g id="node13" class="node"><title>Node7</title>
<a xlink:href="MojLog_8h.htm" target="_top" xlink:title="core/MojLog.h">
<polygon fill="white" stroke="black" points="253,-116.5 253,-137.5 337,-137.5 337,-116.5 253,-116.5"/>
<text text-anchor="middle" x="295" y="-124.5" font-family="Helvetica,sans-Serif" font-size="10.00">core/MojLog.h</text>
</a>
</g>
<!-- Node6&#45;&gt;Node7 -->
<g id="edge12" class="edge"><title>Node6&#45;&gt;Node7</title>
<path fill="none" stroke="midnightblue" d="M326.847,-174.362C321.514,-166.431 314.089,-155.389 307.749,-145.961"/>
<polygon fill="midnightblue" stroke="midnightblue" points="310.592,-143.916 302.108,-137.571 304.783,-147.822 310.592,-143.916"/>
</g>
<!-- Node8 -->
<g id="node15" class="node"><title>Node8</title>
<a xlink:href="MojListEntry_8h.htm" target="_top" xlink:title="core/MojListEntry.h">
<polygon fill="white" stroke="black" points="322.5,-58.5 322.5,-79.5 429.5,-79.5 429.5,-58.5 322.5,-58.5"/>
<text text-anchor="middle" x="376" y="-66.5" font-family="Helvetica,sans-Serif" font-size="10.00">core/MojListEntry.h</text>
</a>
</g>
<!-- Node7&#45;&gt;Node8 -->
<g id="edge14" class="edge"><title>Node7&#45;&gt;Node8</title>
<path fill="none" stroke="midnightblue" d="M309.857,-116.362C321.846,-107.777 338.927,-95.5459 352.728,-85.6636"/>
<polygon fill="midnightblue" stroke="midnightblue" points="355.145,-88.2383 361.238,-79.5707 351.069,-82.5469 355.145,-88.2383"/>
</g>
<!-- Node9 -->
<g id="node17" class="node"><title>Node9</title>
<a xlink:href="MojNoCopy_8h.htm" target="_top" xlink:title="core/MojNoCopy.h">
<polygon fill="white" stroke="black" points="404,-0.5 404,-21.5 508,-21.5 508,-0.5 404,-0.5"/>
<text text-anchor="middle" x="456" y="-8.5" font-family="Helvetica,sans-Serif" font-size="10.00">core/MojNoCopy.h</text>
</a>
</g>
<!-- Node8&#45;&gt;Node9 -->
<g id="edge16" class="edge"><title>Node8&#45;&gt;Node9</title>
<path fill="none" stroke="midnightblue" d="M390.673,-58.3619C402.514,-49.7773 419.385,-37.5459 433.016,-27.6636"/>
<polygon fill="midnightblue" stroke="midnightblue" points="435.378,-30.274 441.42,-21.5707 431.269,-24.6067 435.378,-30.274"/>
</g>
<!-- Node11 -->
<g id="node21" class="node"><title>Node11</title>
<a xlink:href="MojOsInternal_8h.htm" target="_top" xlink:title="core/internal/MojOsInternal.h">
<polygon fill="white" stroke="black" points="355,-116.5 355,-137.5 509,-137.5 509,-116.5 355,-116.5"/>
<text text-anchor="middle" x="432" y="-124.5" font-family="Helvetica,sans-Serif" font-size="10.00">core/internal/MojOsInternal.h</text>
</a>
</g>
<!-- Node10&#45;&gt;Node11 -->
<g id="edge20" class="edge"><title>Node10&#45;&gt;Node11</title>
<path fill="none" stroke="midnightblue" d="M432,-174.362C432,-166.922 432,-156.743 432,-147.728"/>
<polygon fill="midnightblue" stroke="midnightblue" points="435.5,-147.571 432,-137.571 428.5,-147.571 435.5,-147.571"/>
</g>
<!-- Node12&#45;&gt;Node2 -->
<g id="edge24" class="edge"><title>Node12&#45;&gt;Node2</title>
<path fill="none" stroke="midnightblue" d="M264.138,-362.362C276.718,-340.555 305.596,-290.5 321.673,-262.634"/>
<polygon fill="midnightblue" stroke="midnightblue" points="324.812,-264.196 326.778,-253.785 318.749,-260.698 324.812,-264.196"/>
</g>
<!-- Node13&#45;&gt;Node2 -->
<g id="edge28" class="edge"><title>Node13&#45;&gt;Node2</title>
<path fill="none" stroke="midnightblue" d="M349.037,-420.354C346.308,-390.172 338.485,-303.656 334.871,-263.693"/>
<polygon fill="midnightblue" stroke="midnightblue" points="338.339,-263.174 333.952,-253.53 331.367,-263.804 338.339,-263.174"/>
</g>
<!-- Node14 -->
<g id="node29" class="node"><title>Node14</title>
<a xlink:href="MojAutoPtr_8h.htm" target="_top" xlink:title="core/MojAutoPtr.h">
<polygon fill="white" stroke="black" points="403.5,-362.5 403.5,-383.5 504.5,-383.5 504.5,-362.5 403.5,-362.5"/>
<text text-anchor="middle" x="454" y="-370.5" font-family="Helvetica,sans-Serif" font-size="10.00">core/MojAutoPtr.h</text>
</a>
</g>
<!-- Node13&#45;&gt;Node14 -->
<g id="edge30" class="edge"><title>Node13&#45;&gt;Node14</title>
<path fill="none" stroke="midnightblue" d="M369.075,-420.362C385.055,-411.45 408.081,-398.609 426.127,-388.545"/>
<polygon fill="midnightblue" stroke="midnightblue" points="428.017,-391.498 435.046,-383.571 424.607,-385.385 428.017,-391.498"/>
</g>
<!-- Node14&#45;&gt;Node2 -->
<g id="edge32" class="edge"><title>Node14&#45;&gt;Node2</title>
<path fill="none" stroke="midnightblue" d="M436.463,-362.431C422.852,-353.709 404.005,-340.455 390,-326 371.116,-306.509 354.173,-280.133 343.762,-262.391"/>
<polygon fill="midnightblue" stroke="midnightblue" points="346.688,-260.458 338.679,-253.521 340.614,-263.938 346.688,-260.458"/>
</g>
<!-- Node14&#45;&gt;Node9 -->
<g id="edge38" class="edge"><title>Node14&#45;&gt;Node9</title>
<path fill="none" stroke="midnightblue" d="M475.6,-362.383C489.774,-354.316 507.555,-341.9 518,-326 538.777,-294.371 537,-280.843 537,-243 537,-243 537,-243 537,-127 537,-85.9121 502.416,-48.9919 478.444,-28.336"/>
<polygon fill="midnightblue" stroke="midnightblue" points="480.412,-25.4209 470.481,-21.7279 475.941,-30.8075 480.412,-25.4209"/>
</g>
<!-- Node15 -->
<g id="node32" class="node"><title>Node15</title>
<a xlink:href="MojAtomicInt_8h.htm" target="_top" xlink:title="core/MojAtomicInt.h">
<polygon fill="white" stroke="black" points="399,-297.5 399,-318.5 509,-318.5 509,-297.5 399,-297.5"/>
<text text-anchor="middle" x="454" y="-305.5" font-family="Helvetica,sans-Serif" font-size="10.00">core/MojAtomicInt.h</text>
</a>
</g>
<!-- Node14&#45;&gt;Node15 -->
<g id="edge34" class="edge"><title>Node14&#45;&gt;Node15</title>
<path fill="none" stroke="midnightblue" d="M454,-362.267C454,-353.18 454,-339.892 454,-328.74"/>
<polygon fill="midnightblue" stroke="midnightblue" points="457.5,-328.534 454,-318.534 450.5,-328.534 457.5,-328.534"/>
</g>
<!-- Node16 -->
<g id="node36" class="node"><title>Node16</title>
<a xlink:href="MojAutoPtrInternal_8h.htm" target="_top" xlink:title="core/internal/MojAutoPtr\lInternal.h">
<polygon fill="white" stroke="black" points="564.5,-291 564.5,-325 695.5,-325 695.5,-291 564.5,-291"/>
<text text-anchor="start" x="572.5" y="-312" font-family="Helvetica,sans-Serif" font-size="10.00">core/internal/MojAutoPtr</text>
<text text-anchor="middle" x="630" y="-299" font-family="Helvetica,sans-Serif" font-size="10.00">Internal.h</text>
</a>
</g>
<!-- Node14&#45;&gt;Node16 -->
<g id="edge40" class="edge"><title>Node14&#45;&gt;Node16</title>
<path fill="none" stroke="midnightblue" d="M482.669,-362.412C507.367,-353.291 543.736,-339.859 574.159,-328.623"/>
<polygon fill="midnightblue" stroke="midnightblue" points="575.638,-331.808 583.806,-325.06 573.212,-325.242 575.638,-331.808"/>
</g>
<!-- Node15&#45;&gt;Node2 -->
<g id="edge36" class="edge"><title>Node15&#45;&gt;Node2</title>
<path fill="none" stroke="midnightblue" d="M434.29,-297.412C414.602,-286.836 384.126,-270.465 361.744,-258.441"/>
<polygon fill="midnightblue" stroke="midnightblue" points="363.167,-255.233 352.702,-253.584 359.855,-261.399 363.167,-255.233"/>
</g>
</g>
</svg>
