<?xml version="1.0" encoding="UTF-8" standalone="no"?>
<!DOCTYPE svg PUBLIC "-//W3C//DTD SVG 1.1//EN"
 "http://www.w3.org/Graphics/SVG/1.1/DTD/svg11.dtd">
<!-- Generated by graphviz version 2.26.3 (20100126.1600)
 -->
<!-- Title: MojObjectBuilder.cpp Pages: 1 -->
<svg width="1037pt" height="812pt"
 viewBox="0.00 0.00 1036.98 812.00" xmlns="http://www.w3.org/2000/svg" xmlns:xlink="http://www.w3.org/1999/xlink">
<g id="graph1" class="graph" transform="scale(1 1) rotate(0) translate(4 808)">
<title>MojObjectBuilder.cpp</title>
<polygon fill="white" stroke="white" points="-4,5 -4,-808 1033.98,-808 1033.98,5 -4,5"/>
<!-- Node1 -->
<g id="node1" class="node"><title>Node1</title>
<polygon fill="#bfbfbf" stroke="black" points="902.983,-782.5 902.983,-803.5 1018.98,-803.5 1018.98,-782.5 902.983,-782.5"/>
<text text-anchor="middle" x="960.983" y="-790.5" font-family="Helvetica,sans-Serif" font-size="10.00">MojObjectBuilder.cpp</text>
</g>
<!-- Node2 -->
<g id="node3" class="node"><title>Node2</title>
<a xlink:href="MojObjectBuilder_8h.htm" target="_top" xlink:title="core/MojObjectBuilder.h">
<polygon fill="white" stroke="black" points="896.983,-724.5 896.983,-745.5 1024.98,-745.5 1024.98,-724.5 896.983,-724.5"/>
<text text-anchor="middle" x="960.983" y="-732.5" font-family="Helvetica,sans-Serif" font-size="10.00">core/MojObjectBuilder.h</text>
</a>
</g>
<!-- Node1&#45;&gt;Node2 -->
<g id="edge2" class="edge"><title>Node1&#45;&gt;Node2</title>
<path fill="none" stroke="midnightblue" d="M960.983,-782.362C960.983,-774.922 960.983,-764.743 960.983,-755.728"/>
<polygon fill="midnightblue" stroke="midnightblue" points="964.483,-755.571 960.983,-745.571 957.483,-755.571 964.483,-755.571"/>
</g>
<!-- Node3 -->
<g id="node5" class="node"><title>Node3</title>
<a xlink:href="MojCoreDefs_8h.htm" target="_top" xlink:title="core/MojCoreDefs.h">
<polygon fill="white" stroke="black" points="615.483,-232.5 615.483,-253.5 726.483,-253.5 726.483,-232.5 615.483,-232.5"/>
<text text-anchor="middle" x="670.983" y="-240.5" font-family="Helvetica,sans-Serif" font-size="10.00">core/MojCoreDefs.h</text>
</a>
</g>
<!-- Node2&#45;&gt;Node3 -->
<g id="edge4" class="edge"><title>Node2&#45;&gt;Node3</title>
<path fill="none" stroke="midnightblue" d="M960.983,-724.444C960.983,-704.062 960.983,-657.868 960.983,-619 960.983,-619 960.983,-619 960.983,-373 960.983,-330.825 949.124,-314.762 914.983,-290 887.114,-269.786 799.144,-256.508 736.852,-249.374"/>
<polygon fill="midnightblue" stroke="midnightblue" points="737.029,-245.872 726.702,-248.24 736.251,-252.829 737.029,-245.872"/>
</g>
<!-- Node13 -->
<g id="node25" class="node"><title>Node13</title>
<a xlink:href="MojObject_8h.htm" target="_top" xlink:title="core/MojObject.h">
<polygon fill="white" stroke="black" points="702.983,-666.5 702.983,-687.5 798.983,-687.5 798.983,-666.5 702.983,-666.5"/>
<text text-anchor="middle" x="750.983" y="-674.5" font-family="Helvetica,sans-Serif" font-size="10.00">core/MojObject.h</text>
</a>
</g>
<!-- Node2&#45;&gt;Node13 -->
<g id="edge24" class="edge"><title>Node2&#45;&gt;Node13</title>
<path fill="none" stroke="midnightblue" d="M922.954,-724.497C888.125,-714.877 836.425,-700.598 798.809,-690.209"/>
<polygon fill="midnightblue" stroke="midnightblue" points="799.655,-686.812 789.084,-687.523 797.791,-693.559 799.655,-686.812"/>
</g>
<!-- Node29 -->
<g id="node80" class="node"><title>Node29</title>
<polygon fill="white" stroke="#bfbfbf" points="988.483,-666.5 988.483,-687.5 1029.48,-687.5 1029.48,-666.5 988.483,-666.5"/>
<text text-anchor="middle" x="1008.98" y="-674.5" font-family="Helvetica,sans-Serif" font-size="10.00">stack</text>
</g>
<!-- Node2&#45;&gt;Node29 -->
<g id="edge102" class="edge"><title>Node2&#45;&gt;Node29</title>
<path fill="none" stroke="midnightblue" d="M969.787,-724.362C976.486,-716.268 985.867,-704.932 993.773,-695.38"/>
<polygon fill="midnightblue" stroke="midnightblue" points="996.556,-697.506 1000.24,-687.571 991.163,-693.043 996.556,-697.506"/>
</g>
<!-- Node4 -->
<g id="node7" class="node"><title>Node4</title>
<a xlink:href="MojConfig_8h.htm" target="_top" xlink:title="core/internal/MojConfig.h">
<polygon fill="white" stroke="black" points="603.483,-174.5 603.483,-195.5 738.483,-195.5 738.483,-174.5 603.483,-174.5"/>
<text text-anchor="middle" x="670.983" y="-182.5" font-family="Helvetica,sans-Serif" font-size="10.00">core/internal/MojConfig.h</text>
</a>
</g>
<!-- Node3&#45;&gt;Node4 -->
<g id="edge6" class="edge"><title>Node3&#45;&gt;Node4</title>
<path fill="none" stroke="midnightblue" d="M670.983,-232.362C670.983,-224.922 670.983,-214.743 670.983,-205.728"/>
<polygon fill="midnightblue" stroke="midnightblue" points="674.483,-205.571 670.983,-195.571 667.483,-205.571 674.483,-205.571"/>
</g>
<!-- Node5 -->
<g id="node9" class="node"><title>Node5</title>
<a xlink:href="MojNew_8h.htm" target="_top" xlink:title="core/internal/MojNew.h">
<polygon fill="white" stroke="black" points="363.483,-174.5 363.483,-195.5 488.483,-195.5 488.483,-174.5 363.483,-174.5"/>
<text text-anchor="middle" x="425.983" y="-182.5" font-family="Helvetica,sans-Serif" font-size="10.00">core/internal/MojNew.h</text>
</a>
</g>
<!-- Node3&#45;&gt;Node5 -->
<g id="edge8" class="edge"><title>Node3&#45;&gt;Node5</title>
<path fill="none" stroke="midnightblue" d="M626.616,-232.497C585.55,-222.775 524.38,-208.294 480.385,-197.879"/>
<polygon fill="midnightblue" stroke="midnightblue" points="480.972,-194.421 470.434,-195.523 479.359,-201.233 480.972,-194.421"/>
</g>
<!-- Node7 -->
<g id="node13" class="node"><title>Node7</title>
<a xlink:href="MojErr_8h.htm" target="_top" xlink:title="core/MojErr.h">
<polygon fill="white" stroke="black" points="505.983,-174.5 505.983,-195.5 585.983,-195.5 585.983,-174.5 505.983,-174.5"/>
<text text-anchor="middle" x="545.983" y="-182.5" font-family="Helvetica,sans-Serif" font-size="10.00">core/MojErr.h</text>
</a>
</g>
<!-- Node3&#45;&gt;Node7 -->
<g id="edge12" class="edge"><title>Node3&#45;&gt;Node7</title>
<path fill="none" stroke="midnightblue" d="M648.347,-232.497C628.735,-223.397 600.137,-210.127 578.15,-199.925"/>
<polygon fill="midnightblue" stroke="midnightblue" points="579.418,-196.655 568.874,-195.621 576.472,-203.005 579.418,-196.655"/>
</g>
<!-- Node11 -->
<g id="node21" class="node"><title>Node11</title>
<a xlink:href="MojOs_8h.htm" target="_top" xlink:title="core/MojOs.h">
<polygon fill="white" stroke="black" points="755.983,-174.5 755.983,-195.5 835.983,-195.5 835.983,-174.5 755.983,-174.5"/>
<text text-anchor="middle" x="795.983" y="-182.5" font-family="Helvetica,sans-Serif" font-size="10.00">core/MojOs.h</text>
</a>
</g>
<!-- Node3&#45;&gt;Node11 -->
<g id="edge20" class="edge"><title>Node3&#45;&gt;Node11</title>
<path fill="none" stroke="midnightblue" d="M693.62,-232.497C713.231,-223.397 741.83,-210.127 763.817,-199.925"/>
<polygon fill="midnightblue" stroke="midnightblue" points="765.495,-203.005 773.093,-195.621 762.549,-196.655 765.495,-203.005"/>
</g>
<!-- Node6 -->
<g id="node11" class="node"><title>Node6</title>
<polygon fill="white" stroke="#bfbfbf" points="407.983,-116.5 407.983,-137.5 443.983,-137.5 443.983,-116.5 407.983,-116.5"/>
<text text-anchor="middle" x="425.983" y="-124.5" font-family="Helvetica,sans-Serif" font-size="10.00">new</text>
</g>
<!-- Node5&#45;&gt;Node6 -->
<g id="edge10" class="edge"><title>Node5&#45;&gt;Node6</title>
<path fill="none" stroke="midnightblue" d="M425.983,-174.362C425.983,-166.922 425.983,-156.743 425.983,-147.728"/>
<polygon fill="midnightblue" stroke="midnightblue" points="429.483,-147.571 425.983,-137.571 422.483,-147.571 429.483,-147.571"/>
</g>
<!-- Node8 -->
<g id="node15" class="node"><title>Node8</title>
<a xlink:href="MojLog_8h.htm" target="_top" xlink:title="core/MojLog.h">
<polygon fill="white" stroke="black" points="482.983,-116.5 482.983,-137.5 566.983,-137.5 566.983,-116.5 482.983,-116.5"/>
<text text-anchor="middle" x="524.983" y="-124.5" font-family="Helvetica,sans-Serif" font-size="10.00">core/MojLog.h</text>
</a>
</g>
<!-- Node7&#45;&gt;Node8 -->
<g id="edge14" class="edge"><title>Node7&#45;&gt;Node8</title>
<path fill="none" stroke="midnightblue" d="M542.132,-174.362C539.379,-166.758 535.59,-156.294 532.274,-147.135"/>
<polygon fill="midnightblue" stroke="midnightblue" points="535.506,-145.782 528.811,-137.571 528.924,-148.165 535.506,-145.782"/>
</g>
<!-- Node9 -->
<g id="node17" class="node"><title>Node9</title>
<a xlink:href="MojListEntry_8h.htm" target="_top" xlink:title="core/MojListEntry.h">
<polygon fill="white" stroke="black" points="353.483,-58.5 353.483,-79.5 460.483,-79.5 460.483,-58.5 353.483,-58.5"/>
<text text-anchor="middle" x="406.983" y="-66.5" font-family="Helvetica,sans-Serif" font-size="10.00">core/MojListEntry.h</text>
</a>
</g>
<!-- Node8&#45;&gt;Node9 -->
<g id="edge16" class="edge"><title>Node8&#45;&gt;Node9</title>
<path fill="none" stroke="midnightblue" d="M503.614,-116.497C485.184,-107.438 458.346,-94.2462 437.628,-84.0628"/>
<polygon fill="midnightblue" stroke="midnightblue" points="439.11,-80.8914 428.592,-79.6212 436.023,-87.1735 439.11,-80.8914"/>
</g>
<!-- Node10 -->
<g id="node19" class="node"><title>Node10</title>
<a xlink:href="MojNoCopy_8h.htm" target="_top" xlink:title="core/MojNoCopy.h">
<polygon fill="white" stroke="black" points="273.983,-0.5 273.983,-21.5 377.983,-21.5 377.983,-0.5 273.983,-0.5"/>
<text text-anchor="middle" x="325.983" y="-8.5" font-family="Helvetica,sans-Serif" font-size="10.00">core/MojNoCopy.h</text>
</a>
</g>
<!-- Node9&#45;&gt;Node10 -->
<g id="edge18" class="edge"><title>Node9&#45;&gt;Node10</title>
<path fill="none" stroke="midnightblue" d="M392.127,-58.3619C380.138,-49.7773 363.056,-37.5459 349.255,-27.6636"/>
<polygon fill="midnightblue" stroke="midnightblue" points="350.914,-24.5469 340.746,-21.5707 346.839,-30.2383 350.914,-24.5469"/>
</g>
<!-- Node12 -->
<g id="node23" class="node"><title>Node12</title>
<a xlink:href="MojOsInternal_8h.htm" target="_top" xlink:title="core/internal/MojOsInternal.h">
<polygon fill="white" stroke="black" points="718.983,-116.5 718.983,-137.5 872.983,-137.5 872.983,-116.5 718.983,-116.5"/>
<text text-anchor="middle" x="795.983" y="-124.5" font-family="Helvetica,sans-Serif" font-size="10.00">core/internal/MojOsInternal.h</text>
</a>
</g>
<!-- Node11&#45;&gt;Node12 -->
<g id="edge22" class="edge"><title>Node11&#45;&gt;Node12</title>
<path fill="none" stroke="midnightblue" d="M795.983,-174.362C795.983,-166.922 795.983,-156.743 795.983,-147.728"/>
<polygon fill="midnightblue" stroke="midnightblue" points="799.483,-147.571 795.983,-137.571 792.483,-147.571 799.483,-147.571"/>
</g>
<!-- Node13&#45;&gt;Node3 -->
<g id="edge26" class="edge"><title>Node13&#45;&gt;Node3</title>
<path fill="none" stroke="midnightblue" d="M798.895,-666.497C849.788,-652.187 922.983,-621.149 922.983,-561 922.983,-561 922.983,-561 922.983,-373 922.983,-332.612 917.303,-315.5 885.983,-290 863.355,-271.576 791.19,-258.406 736.657,-250.779"/>
<polygon fill="midnightblue" stroke="midnightblue" points="737.077,-247.304 726.695,-249.419 736.13,-254.239 737.077,-247.304"/>
</g>
<!-- Node14 -->
<g id="node28" class="node"><title>Node14</title>
<a xlink:href="MojDecimal_8h.htm" target="_top" xlink:title="core/MojDecimal.h">
<polygon fill="white" stroke="black" points="790.983,-550.5 790.983,-571.5 894.983,-571.5 894.983,-550.5 790.983,-550.5"/>
<text text-anchor="middle" x="842.983" y="-558.5" font-family="Helvetica,sans-Serif" font-size="10.00">core/MojDecimal.h</text>
</a>
</g>
<!-- Node13&#45;&gt;Node14 -->
<g id="edge28" class="edge"><title>Node13&#45;&gt;Node14</title>
<path fill="none" stroke="midnightblue" d="M759.474,-666.295C775.151,-646.527 808.816,-604.08 828.276,-579.544"/>
<polygon fill="midnightblue" stroke="midnightblue" points="831.042,-581.689 834.514,-571.679 825.557,-577.339 831.042,-581.689"/>
</g>
<!-- Node19 -->
<g id="node42" class="node"><title>Node19</title>
<a xlink:href="MojMap_8h.htm" target="_top" xlink:title="core/MojMap.h">
<polygon fill="white" stroke="black" points="81.4834,-492.5 81.4834,-513.5 168.483,-513.5 168.483,-492.5 81.4834,-492.5"/>
<text text-anchor="middle" x="124.983" y="-500.5" font-family="Helvetica,sans-Serif" font-size="10.00">core/MojMap.h</text>
</a>
</g>
<!-- Node13&#45;&gt;Node19 -->
<g id="edge46" class="edge"><title>Node13&#45;&gt;Node19</title>
<path fill="none" stroke="midnightblue" d="M705.385,-666.48C628.839,-648.588 469.83,-610.42 336.983,-572 276.572,-554.529 207.449,-531.441 165.006,-516.903"/>
<polygon fill="midnightblue" stroke="midnightblue" points="165.925,-513.519 155.331,-513.579 163.651,-520.139 165.925,-513.519"/>
</g>
<!-- Node24 -->
<g id="node58" class="node"><title>Node24</title>
<a xlink:href="MojString_8h.htm" target="_top" xlink:title="core/MojString.h">
<polygon fill="white" stroke="black" points="641.983,-608.5 641.983,-629.5 735.983,-629.5 735.983,-608.5 641.983,-608.5"/>
<text text-anchor="middle" x="688.983" y="-616.5" font-family="Helvetica,sans-Serif" font-size="10.00">core/MojString.h</text>
</a>
</g>
<!-- Node13&#45;&gt;Node24 -->
<g id="edge68" class="edge"><title>Node13&#45;&gt;Node24</title>
<path fill="none" stroke="midnightblue" d="M739.612,-666.362C730.697,-658.023 718.104,-646.242 707.708,-636.516"/>
<polygon fill="midnightblue" stroke="midnightblue" points="709.977,-633.846 700.283,-629.571 705.195,-638.958 709.977,-633.846"/>
</g>
<!-- Node25 -->
<g id="node64" class="node"><title>Node25</title>
<a xlink:href="MojVector_8h.htm" target="_top" xlink:title="core/MojVector.h">
<polygon fill="white" stroke="black" points="509.483,-550.5 509.483,-571.5 606.483,-571.5 606.483,-550.5 509.483,-550.5"/>
<text text-anchor="middle" x="557.983" y="-558.5" font-family="Helvetica,sans-Serif" font-size="10.00">core/MojVector.h</text>
</a>
</g>
<!-- Node13&#45;&gt;Node25 -->
<g id="edge100" class="edge"><title>Node13&#45;&gt;Node25</title>
<path fill="none" stroke="midnightblue" d="M715.038,-666.487C690.787,-658.503 658.65,-646.142 632.983,-630 610.489,-615.853 588.575,-594.557 574.302,-579.369"/>
<polygon fill="midnightblue" stroke="midnightblue" points="576.547,-576.639 567.203,-571.644 571.392,-581.375 576.547,-576.639"/>
</g>
<!-- Node14&#45;&gt;Node3 -->
<g id="edge30" class="edge"><title>Node14&#45;&gt;Node3</title>
<path fill="none" stroke="midnightblue" d="M849.362,-550.231C861.112,-529.345 884.983,-481.55 884.983,-438 884.983,-438 884.983,-438 884.983,-373 884.983,-334.6 888.66,-316.619 860.983,-290 843.149,-272.847 784.112,-259.999 736.526,-252.11"/>
<polygon fill="midnightblue" stroke="midnightblue" points="736.994,-248.64 726.564,-250.502 735.878,-255.551 736.994,-248.64"/>
</g>
<!-- Node15 -->
<g id="node31" class="node"><title>Node15</title>
<a xlink:href="MojHasher_8h.htm" target="_top" xlink:title="core/MojHasher.h">
<polygon fill="white" stroke="black" points="718.483,-492.5 718.483,-513.5 819.483,-513.5 819.483,-492.5 718.483,-492.5"/>
<text text-anchor="middle" x="768.983" y="-500.5" font-family="Helvetica,sans-Serif" font-size="10.00">core/MojHasher.h</text>
</a>
</g>
<!-- Node14&#45;&gt;Node15 -->
<g id="edge32" class="edge"><title>Node14&#45;&gt;Node15</title>
<path fill="none" stroke="midnightblue" d="M829.411,-550.362C818.562,-541.859 803.149,-529.779 790.605,-519.947"/>
<polygon fill="midnightblue" stroke="midnightblue" points="792.5,-516.985 782.47,-513.571 788.182,-522.494 792.5,-516.985"/>
</g>
<!-- Node15&#45;&gt;Node3 -->
<g id="edge34" class="edge"><title>Node15&#45;&gt;Node3</title>
<path fill="none" stroke="midnightblue" d="M774.114,-492.076C789.043,-458.531 828.714,-355.331 784.983,-290 773.676,-273.107 755.072,-262.28 736.14,-255.342"/>
<polygon fill="midnightblue" stroke="midnightblue" points="737.144,-251.988 726.55,-252.149 734.932,-258.629 737.144,-251.988"/>
</g>
<!-- Node16 -->
<g id="node34" class="node"><title>Node16</title>
<a xlink:href="MojUtil_8h.htm" target="_top" xlink:title="core/MojUtil.h">
<polygon fill="white" stroke="black" points="662.483,-427.5 662.483,-448.5 743.483,-448.5 743.483,-427.5 662.483,-427.5"/>
<text text-anchor="middle" x="702.983" y="-435.5" font-family="Helvetica,sans-Serif" font-size="10.00">core/MojUtil.h</text>
</a>
</g>
<!-- Node15&#45;&gt;Node16 -->
<g id="edge36" class="edge"><title>Node15&#45;&gt;Node16</title>
<path fill="none" stroke="midnightblue" d="M758.085,-492.267C747.993,-482.328 732.799,-467.363 720.92,-455.664"/>
<polygon fill="midnightblue" stroke="midnightblue" points="723.26,-453.057 713.679,-448.534 718.348,-458.044 723.26,-453.057"/>
</g>
<!-- Node16&#45;&gt;Node3 -->
<g id="edge38" class="edge"><title>Node16&#45;&gt;Node3</title>
<path fill="none" stroke="midnightblue" d="M703.119,-427.422C703.204,-402.898 702.1,-340.409 689.983,-290 687.761,-280.753 684.029,-270.937 680.458,-262.682"/>
<polygon fill="midnightblue" stroke="midnightblue" points="683.621,-261.182 676.295,-253.528 677.249,-264.08 683.621,-261.182"/>
</g>
<!-- Node17 -->
<g id="node37" class="node"><title>Node17</title>
<a xlink:href="MojUtilInternal_8h.htm" target="_top" xlink:title="core/internal/MojUtilInternal.h">
<polygon fill="white" stroke="black" points="526.483,-362.5 526.483,-383.5 681.483,-383.5 681.483,-362.5 526.483,-362.5"/>
<text text-anchor="middle" x="603.983" y="-370.5" font-family="Helvetica,sans-Serif" font-size="10.00">core/internal/MojUtilInternal.h</text>
</a>
</g>
<!-- Node16&#45;&gt;Node17 -->
<g id="edge40" class="edge"><title>Node16&#45;&gt;Node17</title>
<path fill="none" stroke="midnightblue" d="M686.636,-427.267C670.922,-416.949 646.959,-401.216 628.874,-389.342"/>
<polygon fill="midnightblue" stroke="midnightblue" points="630.307,-386.096 620.027,-383.534 626.465,-391.948 630.307,-386.096"/>
</g>
<!-- Node18 -->
<g id="node39" class="node"><title>Node18</title>
<a xlink:href="MojComp_8h.htm" target="_top" xlink:title="core/MojComp.h">
<polygon fill="white" stroke="black" points="586.983,-297.5 586.983,-318.5 680.983,-318.5 680.983,-297.5 586.983,-297.5"/>
<text text-anchor="middle" x="633.983" y="-305.5" font-family="Helvetica,sans-Serif" font-size="10.00">core/MojComp.h</text>
</a>
</g>
<!-- Node17&#45;&gt;Node18 -->
<g id="edge42" class="edge"><title>Node17&#45;&gt;Node18</title>
<path fill="none" stroke="midnightblue" d="M608.937,-362.267C613.262,-352.896 619.649,-339.057 624.891,-327.7"/>
<polygon fill="midnightblue" stroke="midnightblue" points="628.109,-329.08 629.122,-318.534 621.753,-326.147 628.109,-329.08"/>
</g>
<!-- Node18&#45;&gt;Node3 -->
<g id="edge44" class="edge"><title>Node18&#45;&gt;Node3</title>
<path fill="none" stroke="midnightblue" d="M640.093,-297.267C645.481,-287.801 653.464,-273.777 659.965,-262.357"/>
<polygon fill="midnightblue" stroke="midnightblue" points="663.082,-263.956 664.987,-253.534 656.998,-260.493 663.082,-263.956"/>
</g>
<!-- Node19&#45;&gt;Node3 -->
<g id="edge48" class="edge"><title>Node19&#45;&gt;Node3</title>
<path fill="none" stroke="midnightblue" d="M85.1822,-492.493C54.3369,-483.452 15.322,-469.729 5.98335,-456 -3.01553,-442.77 -0.564942,-434.599 5.98335,-420 41.5423,-340.726 72.2622,-324.545 151.983,-290 231.739,-255.44 484.161,-246.282 605.115,-243.863"/>
<polygon fill="midnightblue" stroke="midnightblue" points="605.417,-247.358 615.348,-243.668 605.284,-240.359 605.417,-247.358"/>
</g>
<!-- Node19&#45;&gt;Node18 -->
<g id="edge50" class="edge"><title>Node19&#45;&gt;Node18</title>
<path fill="none" stroke="midnightblue" d="M148.516,-492.477C193.921,-472.09 296.67,-425.556 381.983,-384 401.283,-374.599 404.86,-369.477 424.983,-362 488.44,-338.422 507.611,-343.585 572.983,-326 578.315,-324.566 583.89,-323.005 589.412,-321.422"/>
<polygon fill="midnightblue" stroke="midnightblue" points="590.6,-324.722 599.227,-318.572 588.647,-318 590.6,-324.722"/>
</g>
<!-- Node20 -->
<g id="node46" class="node"><title>Node20</title>
<a xlink:href="MojRbTreeBase_8h.htm" target="_top" xlink:title="core/internal/MojRbTreeBase.h">
<polygon fill="white" stroke="black" points="14.9834,-427.5 14.9834,-448.5 178.983,-448.5 178.983,-427.5 14.9834,-427.5"/>
<text text-anchor="middle" x="96.9834" y="-435.5" font-family="Helvetica,sans-Serif" font-size="10.00">core/internal/MojRbTreeBase.h</text>
</a>
</g>
<!-- Node19&#45;&gt;Node20 -->
<g id="edge52" class="edge"><title>Node19&#45;&gt;Node20</title>
<path fill="none" stroke="midnightblue" d="M120.36,-492.267C116.364,-482.991 110.482,-469.336 105.618,-458.045"/>
<polygon fill="midnightblue" stroke="midnightblue" points="108.692,-456.333 101.521,-448.534 102.263,-459.103 108.692,-456.333"/>
</g>
<!-- Node20&#45;&gt;Node3 -->
<g id="edge54" class="edge"><title>Node20&#45;&gt;Node3</title>
<path fill="none" stroke="midnightblue" d="M100.236,-427.431C109.484,-399.383 138.827,-322.958 192.983,-290 227.409,-269.05 482.414,-252.939 605.232,-246.306"/>
<polygon fill="midnightblue" stroke="midnightblue" points="605.47,-249.798 615.269,-245.769 605.096,-242.808 605.47,-249.798"/>
</g>
<!-- Node21 -->
<g id="node49" class="node"><title>Node21</title>
<a xlink:href="MojAutoPtr_8h.htm" target="_top" xlink:title="core/MojAutoPtr.h">
<polygon fill="white" stroke="black" points="272.483,-362.5 272.483,-383.5 373.483,-383.5 373.483,-362.5 272.483,-362.5"/>
<text text-anchor="middle" x="322.983" y="-370.5" font-family="Helvetica,sans-Serif" font-size="10.00">core/MojAutoPtr.h</text>
</a>
</g>
<!-- Node20&#45;&gt;Node21 -->
<g id="edge56" class="edge"><title>Node20&#45;&gt;Node21</title>
<path fill="none" stroke="midnightblue" d="M133.545,-427.484C172.521,-416.274 234.337,-398.496 276.686,-386.316"/>
<polygon fill="midnightblue" stroke="midnightblue" points="277.831,-389.628 286.474,-383.501 275.896,-382.901 277.831,-389.628"/>
</g>
<!-- Node21&#45;&gt;Node3 -->
<g id="edge58" class="edge"><title>Node21&#45;&gt;Node3</title>
<path fill="none" stroke="midnightblue" d="M373.526,-363.541C432.947,-352.188 525.369,-333.717 539.983,-326 560.556,-315.137 558.957,-303.388 577.983,-290 595.959,-277.352 617.821,-266.122 635.83,-257.814"/>
<polygon fill="midnightblue" stroke="midnightblue" points="637.71,-260.806 645.39,-253.509 634.835,-254.424 637.71,-260.806"/>
</g>
<!-- Node21&#45;&gt;Node10 -->
<g id="edge64" class="edge"><title>Node21&#45;&gt;Node10</title>
<path fill="none" stroke="midnightblue" d="M303.634,-362.354C290.477,-354.12 273.747,-341.518 263.983,-326 243.831,-293.969 244.983,-280.843 244.983,-243 244.983,-243 244.983,-243 244.983,-127 244.983,-85.9121 279.568,-48.9919 303.54,-28.336"/>
<polygon fill="midnightblue" stroke="midnightblue" points="306.042,-30.8075 311.502,-21.7279 301.572,-25.4209 306.042,-30.8075"/>
</g>
<!-- Node22 -->
<g id="node52" class="node"><title>Node22</title>
<a xlink:href="MojAtomicInt_8h.htm" target="_top" xlink:title="core/MojAtomicInt.h">
<polygon fill="white" stroke="black" points="272.983,-297.5 272.983,-318.5 382.983,-318.5 382.983,-297.5 272.983,-297.5"/>
<text text-anchor="middle" x="327.983" y="-305.5" font-family="Helvetica,sans-Serif" font-size="10.00">core/MojAtomicInt.h</text>
</a>
</g>
<!-- Node21&#45;&gt;Node22 -->
<g id="edge60" class="edge"><title>Node21&#45;&gt;Node22</title>
<path fill="none" stroke="midnightblue" d="M323.809,-362.267C324.508,-353.18 325.53,-339.892 326.388,-328.74"/>
<polygon fill="midnightblue" stroke="midnightblue" points="329.896,-328.773 327.173,-318.534 322.916,-328.236 329.896,-328.773"/>
</g>
<!-- Node23 -->
<g id="node56" class="node"><title>Node23</title>
<a xlink:href="MojAutoPtrInternal_8h.htm" target="_top" xlink:title="core/internal/MojAutoPtr\lInternal.h">
<polygon fill="white" stroke="black" points="400.483,-291 400.483,-325 531.483,-325 531.483,-291 400.483,-291"/>
<text text-anchor="start" x="408.483" y="-312" font-family="Helvetica,sans-Serif" font-size="10.00">core/internal/MojAutoPtr</text>
<text text-anchor="middle" x="465.983" y="-299" font-family="Helvetica,sans-Serif" font-size="10.00">Internal.h</text>
</a>
</g>
<!-- Node21&#45;&gt;Node23 -->
<g id="edge66" class="edge"><title>Node21&#45;&gt;Node23</title>
<path fill="none" stroke="midnightblue" d="M346.277,-362.412C365.997,-353.448 394.874,-340.323 419.324,-329.209"/>
<polygon fill="midnightblue" stroke="midnightblue" points="420.795,-332.385 428.45,-325.06 417.898,-326.012 420.795,-332.385"/>
</g>
<!-- Node22&#45;&gt;Node3 -->
<g id="edge62" class="edge"><title>Node22&#45;&gt;Node3</title>
<path fill="none" stroke="midnightblue" d="M363.021,-297.414C372.38,-294.788 382.523,-292.121 391.983,-290 464.441,-273.757 548.615,-260.308 605.4,-252.017"/>
<polygon fill="midnightblue" stroke="midnightblue" points="605.929,-255.477 615.324,-250.58 604.926,-248.55 605.929,-255.477"/>
</g>
<!-- Node24&#45;&gt;Node3 -->
<g id="edge70" class="edge"><title>Node24&#45;&gt;Node3</title>
<path fill="none" stroke="midnightblue" d="M703.337,-608.353C738.426,-582.3 825.851,-517.224 827.983,-514 847.192,-484.961 846.983,-472.817 846.983,-438 846.983,-438 846.983,-438 846.983,-373 846.983,-331.856 836.821,-317.238 805.983,-290 786.529,-272.817 760.438,-261.829 736.379,-254.842"/>
<polygon fill="midnightblue" stroke="midnightblue" points="737.141,-251.423 726.573,-252.177 735.305,-258.177 737.141,-251.423"/>
</g>
<!-- Node24&#45;&gt;Node15 -->
<g id="edge76" class="edge"><title>Node24&#45;&gt;Node15</title>
<path fill="none" stroke="midnightblue" d="M696.366,-608.295C709.88,-588.7 738.763,-546.82 755.748,-522.191"/>
<polygon fill="midnightblue" stroke="midnightblue" points="758.822,-523.898 761.618,-513.679 753.06,-519.924 758.822,-523.898"/>
</g>
<!-- Node24&#45;&gt;Node18 -->
<g id="edge74" class="edge"><title>Node24&#45;&gt;Node18</title>
<path fill="none" stroke="midnightblue" d="M681.861,-608.463C665.459,-584.86 622.745,-527.075 574.983,-492 543.884,-469.161 516.857,-488.451 495.983,-456 472.771,-419.914 488.773,-393.429 517.983,-362 535.517,-343.135 560.961,-330.282 583.554,-321.864"/>
<polygon fill="midnightblue" stroke="midnightblue" points="584.763,-325.149 593.031,-318.524 582.436,-318.547 584.763,-325.149"/>
</g>
<!-- Node24&#45;&gt;Node21 -->
<g id="edge72" class="edge"><title>Node24&#45;&gt;Node21</title>
<path fill="none" stroke="midnightblue" d="M641.855,-609.43C562.433,-592.37 406.951,-554.659 369.983,-514 338.738,-479.634 328.195,-423.885 324.689,-393.814"/>
<polygon fill="midnightblue" stroke="midnightblue" points="328.149,-393.242 323.662,-383.645 321.185,-393.946 328.149,-393.242"/>
</g>
<!-- Node24&#45;&gt;Node25 -->
<g id="edge78" class="edge"><title>Node24&#45;&gt;Node25</title>
<path fill="none" stroke="midnightblue" d="M665.26,-608.497C644.615,-599.356 614.467,-586.008 591.384,-575.788"/>
<polygon fill="midnightblue" stroke="midnightblue" points="592.534,-572.469 581.973,-571.621 589.7,-578.87 592.534,-572.469"/>
</g>
<!-- Node25&#45;&gt;Node3 -->
<g id="edge80" class="edge"><title>Node25&#45;&gt;Node3</title>
<path fill="none" stroke="midnightblue" d="M585.149,-550.362C633.968,-530.629 733.213,-487.502 751.983,-456 791.708,-389.33 722.993,-299.768 688.701,-261.543"/>
<polygon fill="midnightblue" stroke="midnightblue" points="690.915,-258.78 681.573,-253.783 685.76,-263.515 690.915,-258.78"/>
</g>
<!-- Node25&#45;&gt;Node16 -->
<g id="edge96" class="edge"><title>Node25&#45;&gt;Node16</title>
<path fill="none" stroke="midnightblue" d="M570.597,-550.3C595.664,-529.037 651.946,-481.294 682.429,-455.436"/>
<polygon fill="midnightblue" stroke="midnightblue" points="684.933,-457.901 690.295,-448.763 680.405,-452.563 684.933,-457.901"/>
</g>
<!-- Node25&#45;&gt;Node18 -->
<g id="edge82" class="edge"><title>Node25&#45;&gt;Node18</title>
<path fill="none" stroke="midnightblue" d="M561.493,-550.079C565.47,-535.457 569.962,-509.35 557.983,-492 532.329,-454.844 488.638,-493.156 462.983,-456 439.246,-421.621 438.287,-395.697 462.983,-362 464.93,-359.344 539.019,-336.605 589.026,-321.493"/>
<polygon fill="midnightblue" stroke="midnightblue" points="590.115,-324.821 598.678,-318.581 588.093,-318.119 590.115,-324.821"/>
</g>
<!-- Node26 -->
<g id="node68" class="node"><title>Node26</title>
<a xlink:href="MojRefCount_8h.htm" target="_top" xlink:title="core/MojRefCount.h">
<polygon fill="white" stroke="black" points="212.983,-492.5 212.983,-513.5 322.983,-513.5 322.983,-492.5 212.983,-492.5"/>
<text text-anchor="middle" x="267.983" y="-500.5" font-family="Helvetica,sans-Serif" font-size="10.00">core/MojRefCount.h</text>
</a>
</g>
<!-- Node25&#45;&gt;Node26 -->
<g id="edge84" class="edge"><title>Node25&#45;&gt;Node26</title>
<path fill="none" stroke="midnightblue" d="M509.444,-551.292C460.365,-541.476 384.302,-526.264 330.684,-515.54"/>
<polygon fill="midnightblue" stroke="midnightblue" points="331.103,-512.055 320.61,-513.525 329.73,-518.919 331.103,-512.055"/>
</g>
<!-- Node28 -->
<g id="node77" class="node"><title>Node28</title>
<a xlink:href="MojVectorInternal_8h.htm" target="_top" xlink:title="core/internal/MojVectorInternal.h">
<polygon fill="white" stroke="black" points="378.483,-492.5 378.483,-513.5 549.483,-513.5 549.483,-492.5 378.483,-492.5"/>
<text text-anchor="middle" x="463.983" y="-500.5" font-family="Helvetica,sans-Serif" font-size="10.00">core/internal/MojVectorInternal.h</text>
</a>
</g>
<!-- Node25&#45;&gt;Node28 -->
<g id="edge98" class="edge"><title>Node25&#45;&gt;Node28</title>
<path fill="none" stroke="midnightblue" d="M540.742,-550.362C526.432,-541.532 505.868,-528.844 489.627,-518.822"/>
<polygon fill="midnightblue" stroke="midnightblue" points="491.463,-515.843 481.115,-513.571 487.788,-521.8 491.463,-515.843"/>
</g>
<!-- Node26&#45;&gt;Node3 -->
<g id="edge86" class="edge"><title>Node26&#45;&gt;Node3</title>
<path fill="none" stroke="midnightblue" d="M263.125,-492.149C248.204,-456.994 207.375,-345.319 263.983,-290 287.885,-266.642 496.045,-252.249 605.042,-246.247"/>
<polygon fill="midnightblue" stroke="midnightblue" points="605.475,-249.729 615.271,-245.692 605.096,-242.739 605.475,-249.729"/>
</g>
<!-- Node26&#45;&gt;Node21 -->
<g id="edge90" class="edge"><title>Node26&#45;&gt;Node21</title>
<path fill="none" stroke="midnightblue" d="M272.484,-492.362C281.67,-470.65 302.702,-420.937 314.522,-393"/>
<polygon fill="midnightblue" stroke="midnightblue" points="317.747,-394.359 318.42,-383.785 311.3,-391.631 317.747,-394.359"/>
</g>
<!-- Node26&#45;&gt;Node22 -->
<g id="edge88" class="edge"><title>Node26&#45;&gt;Node22</title>
<path fill="none" stroke="midnightblue" d="M264.637,-492.453C257.537,-468.103 243.242,-406.639 263.983,-362 271.32,-346.21 285.8,-333.375 299.133,-324.187"/>
<polygon fill="midnightblue" stroke="midnightblue" points="301.148,-327.051 307.643,-318.68 297.346,-321.174 301.148,-327.051"/>
</g>
<!-- Node27 -->
<g id="node73" class="node"><title>Node27</title>
<a xlink:href="MojRefCountInternal_8h.htm" target="_top" xlink:title="core/internal/MojRefCount\lInternal.h">
<polygon fill="white" stroke="black" points="504.983,-421 504.983,-455 644.983,-455 644.983,-421 504.983,-421"/>
<text text-anchor="start" x="512.983" y="-442" font-family="Helvetica,sans-Serif" font-size="10.00">core/internal/MojRefCount</text>
<text text-anchor="middle" x="574.983" y="-429" font-family="Helvetica,sans-Serif" font-size="10.00">Internal.h</text>
</a>
</g>
<!-- Node26&#45;&gt;Node27 -->
<g id="edge92" class="edge"><title>Node26&#45;&gt;Node27</title>
<path fill="none" stroke="midnightblue" d="M317.649,-492.484C365.516,-482.35 438.743,-466.846 494.861,-454.964"/>
<polygon fill="midnightblue" stroke="midnightblue" points="495.717,-458.361 504.775,-452.865 494.267,-451.512 495.717,-458.361"/>
</g>
<!-- Node27&#45;&gt;Node17 -->
<g id="edge94" class="edge"><title>Node27&#45;&gt;Node17</title>
<path fill="none" stroke="midnightblue" d="M582.603,-420.922C586.407,-412.395 591.034,-402.025 595.009,-393.115"/>
<polygon fill="midnightblue" stroke="midnightblue" points="598.263,-394.41 599.142,-383.852 591.871,-391.558 598.263,-394.41"/>
</g>
</g>
</svg>
