<?xml version="1.0" encoding="UTF-8" standalone="no"?>
<!DOCTYPE svg PUBLIC "-//W3C//DTD SVG 1.1//EN"
 "http://www.w3.org/Graphics/SVG/1.1/DTD/svg11.dtd">
<!-- Generated by graphviz version 2.26.3 (20100126.1600)
 -->
<!-- Title: MojObjectBuilder.h Pages: 1 -->
<svg width="1758pt" height="88pt"
 viewBox="0.00 0.00 1758.00 88.00" xmlns="http://www.w3.org/2000/svg" xmlns:xlink="http://www.w3.org/1999/xlink">
<g id="graph1" class="graph" transform="scale(1 1) rotate(0) translate(4 84)">
<title>MojObjectBuilder.h</title>
<polygon fill="white" stroke="white" points="-4,5 -4,-84 1755,-84 1755,5 -4,5"/>
<!-- Node1 -->
<g id="node1" class="node"><title>Node1</title>
<polygon fill="#bfbfbf" stroke="black" points="728,-58.5 728,-79.5 832,-79.5 832,-58.5 728,-58.5"/>
<text text-anchor="middle" x="780" y="-66.5" font-family="Helvetica,sans-Serif" font-size="10.00">MojObjectBuilder.h</text>
</g>
<!-- Node2 -->
<g id="node3" class="node"><title>Node2</title>
<a xlink:href="MojObject_8cpp.htm" target="_top" xlink:title="MojObject.cpp">
<polygon fill="white" stroke="black" points="-0.5,-0.5 -0.5,-21.5 82.5,-21.5 82.5,-0.5 -0.5,-0.5"/>
<text text-anchor="middle" x="41" y="-8.5" font-family="Helvetica,sans-Serif" font-size="10.00">MojObject.cpp</text>
</a>
</g>
<!-- Node1&#45;&gt;Node2 -->
<g id="edge2" class="edge"><title>Node1&#45;&gt;Node2</title>
<path fill="none" stroke="midnightblue" d="M717.66,-67.842C596.39,-64.907 320.492,-54.8859 91,-22 88.2725,-21.6092 85.4724,-21.1517 82.6573,-20.6494"/>
<polygon fill="midnightblue" stroke="midnightblue" points="717.785,-71.3458 727.864,-68.081 717.949,-64.3478 717.785,-71.3458"/>
</g>
<!-- Node3 -->
<g id="node5" class="node"><title>Node3</title>
<a xlink:href="MojObjectBuilder_8cpp.htm" target="_top" xlink:title="MojObjectBuilder.cpp">
<polygon fill="white" stroke="black" points="100,-0.5 100,-21.5 216,-21.5 216,-0.5 100,-0.5"/>
<text text-anchor="middle" x="158" y="-8.5" font-family="Helvetica,sans-Serif" font-size="10.00">MojObjectBuilder.cpp</text>
</a>
</g>
<!-- Node1&#45;&gt;Node3 -->
<g id="edge4" class="edge"><title>Node1&#45;&gt;Node3</title>
<path fill="none" stroke="midnightblue" d="M717.618,-65.3145C614.736,-58.8784 403.128,-44.1304 225,-22 222.076,-21.6367 219.083,-21.2394 216.064,-20.8183"/>
<polygon fill="midnightblue" stroke="midnightblue" points="717.63,-68.8219 727.827,-65.9482 718.063,-61.8354 717.63,-68.8219"/>
</g>
<!-- Node4 -->
<g id="node7" class="node"><title>Node4</title>
<a xlink:href="MojService_8cpp.htm" target="_top" xlink:title="MojService.cpp">
<polygon fill="white" stroke="black" points="233.5,-0.5 233.5,-21.5 322.5,-21.5 322.5,-0.5 233.5,-0.5"/>
<text text-anchor="middle" x="278" y="-8.5" font-family="Helvetica,sans-Serif" font-size="10.00">MojService.cpp</text>
</a>
</g>
<!-- Node1&#45;&gt;Node4 -->
<g id="edge6" class="edge"><title>Node1&#45;&gt;Node4</title>
<path fill="none" stroke="midnightblue" d="M717.708,-64.4664C630.78,-57.6886 468.303,-43.3794 331,-22 328.307,-21.5807 325.544,-21.1152 322.762,-20.6195"/>
<polygon fill="midnightblue" stroke="midnightblue" points="717.688,-67.9752 727.927,-65.2556 718.227,-60.996 717.688,-67.9752"/>
</g>
<!-- Node5 -->
<g id="node9" class="node"><title>Node5</title>
<a xlink:href="MojDb_8cpp.htm" target="_top" xlink:title="MojDb.cpp">
<polygon fill="white" stroke="black" points="340,-0.5 340,-21.5 406,-21.5 406,-0.5 340,-0.5"/>
<text text-anchor="middle" x="373" y="-8.5" font-family="Helvetica,sans-Serif" font-size="10.00">MojDb.cpp</text>
</a>
</g>
<!-- Node1&#45;&gt;Node5 -->
<g id="edge8" class="edge"><title>Node1&#45;&gt;Node5</title>
<path fill="none" stroke="midnightblue" d="M717.597,-63.4204C644.612,-56.3287 520.355,-42.4922 415,-22 412.188,-21.4531 409.286,-20.8262 406.382,-20.1551"/>
<polygon fill="midnightblue" stroke="midnightblue" points="717.696,-66.9459 727.985,-64.4178 718.365,-59.978 717.696,-66.9459"/>
</g>
<!-- Node6 -->
<g id="node11" class="node"><title>Node6</title>
<a xlink:href="MojDbAdmin_8cpp.htm" target="_top" xlink:title="MojDbAdmin.cpp">
<polygon fill="white" stroke="black" points="423.5,-0.5 423.5,-21.5 518.5,-21.5 518.5,-0.5 423.5,-0.5"/>
<text text-anchor="middle" x="471" y="-8.5" font-family="Helvetica,sans-Serif" font-size="10.00">MojDbAdmin.cpp</text>
</a>
</g>
<!-- Node1&#45;&gt;Node6 -->
<g id="edge10" class="edge"><title>Node1&#45;&gt;Node6</title>
<path fill="none" stroke="midnightblue" d="M717.713,-57.6132C666.482,-48.2033 591.999,-34.4209 527,-22 524.275,-21.4793 521.476,-20.9409 518.652,-20.3949"/>
<polygon fill="midnightblue" stroke="midnightblue" points="717.172,-61.0723 727.639,-59.4352 718.435,-54.1873 717.172,-61.0723"/>
</g>
<!-- Node7 -->
<g id="node13" class="node"><title>Node7</title>
<a xlink:href="MojDbCursor_8cpp.htm" target="_top" xlink:title="MojDbCursor.cpp">
<polygon fill="white" stroke="black" points="536,-0.5 536,-21.5 634,-21.5 634,-0.5 536,-0.5"/>
<text text-anchor="middle" x="585" y="-8.5" font-family="Helvetica,sans-Serif" font-size="10.00">MojDbCursor.cpp</text>
</a>
</g>
<!-- Node1&#45;&gt;Node7 -->
<g id="edge12" class="edge"><title>Node1&#45;&gt;Node7</title>
<path fill="none" stroke="midnightblue" d="M734.768,-55.5464C699.935,-45.1857 652.466,-31.0668 620.379,-21.5231"/>
<polygon fill="midnightblue" stroke="midnightblue" points="734.104,-59.0004 744.687,-58.4966 736.1,-52.2909 734.104,-59.0004"/>
</g>
<!-- Node8 -->
<g id="node15" class="node"><title>Node8</title>
<a xlink:href="MojDbIsamQuery_8cpp.htm" target="_top" xlink:title="MojDbIsamQuery.cpp">
<polygon fill="white" stroke="black" points="651.5,-0.5 651.5,-21.5 768.5,-21.5 768.5,-0.5 651.5,-0.5"/>
<text text-anchor="middle" x="710" y="-8.5" font-family="Helvetica,sans-Serif" font-size="10.00">MojDbIsamQuery.cpp</text>
</a>
</g>
<!-- Node1&#45;&gt;Node8 -->
<g id="edge14" class="edge"><title>Node1&#45;&gt;Node8</title>
<path fill="none" stroke="midnightblue" d="M759.453,-51.9753C747.573,-42.1315 732.997,-30.0545 722.758,-21.5707"/>
<polygon fill="midnightblue" stroke="midnightblue" points="757.228,-54.6768 767.161,-58.3619 761.694,-49.2866 757.228,-54.6768"/>
</g>
<!-- Node9 -->
<g id="node17" class="node"><title>Node9</title>
<a xlink:href="MojDbObjectHeader_8cpp.htm" target="_top" xlink:title="MojDbObjectHeader.cpp">
<polygon fill="white" stroke="black" points="785.5,-0.5 785.5,-21.5 916.5,-21.5 916.5,-0.5 785.5,-0.5"/>
<text text-anchor="middle" x="851" y="-8.5" font-family="Helvetica,sans-Serif" font-size="10.00">MojDbObjectHeader.cpp</text>
</a>
</g>
<!-- Node1&#45;&gt;Node9 -->
<g id="edge16" class="edge"><title>Node1&#45;&gt;Node9</title>
<path fill="none" stroke="midnightblue" d="M800.841,-51.9753C812.891,-42.1315 827.675,-30.0545 838.06,-21.5707"/>
<polygon fill="midnightblue" stroke="midnightblue" points="798.553,-49.3249 793.022,-58.3619 802.981,-54.746 798.553,-49.3249"/>
</g>
<!-- Node10 -->
<g id="node19" class="node"><title>Node10</title>
<a xlink:href="MojDbQuery_8cpp.htm" target="_top" xlink:title="MojDbQuery.cpp">
<polygon fill="white" stroke="black" points="933.5,-0.5 933.5,-21.5 1028.5,-21.5 1028.5,-0.5 933.5,-0.5"/>
<text text-anchor="middle" x="981" y="-8.5" font-family="Helvetica,sans-Serif" font-size="10.00">MojDbQuery.cpp</text>
</a>
</g>
<!-- Node1&#45;&gt;Node10 -->
<g id="edge18" class="edge"><title>Node1&#45;&gt;Node10</title>
<path fill="none" stroke="midnightblue" d="M826.162,-55.6795C862.108,-45.307 911.316,-31.1078 944.532,-21.5231"/>
<polygon fill="midnightblue" stroke="midnightblue" points="825.037,-52.3613 816.4,-58.4966 826.978,-59.0869 825.037,-52.3613"/>
</g>
<!-- Node11 -->
<g id="node21" class="node"><title>Node11</title>
<a xlink:href="MojDbStorageEngine_8cpp.htm" target="_top" xlink:title="MojDbStorageEngine.cpp">
<polygon fill="white" stroke="black" points="1045.5,-0.5 1045.5,-21.5 1182.5,-21.5 1182.5,-0.5 1045.5,-0.5"/>
<text text-anchor="middle" x="1114" y="-8.5" font-family="Helvetica,sans-Serif" font-size="10.00">MojDbStorageEngine.cpp</text>
</a>
</g>
<!-- Node1&#45;&gt;Node11 -->
<g id="edge20" class="edge"><title>Node1&#45;&gt;Node11</title>
<path fill="none" stroke="midnightblue" d="M842.346,-58.1734C902.717,-47.6899 993.652,-31.8987 1053.42,-21.5202"/>
<polygon fill="midnightblue" stroke="midnightblue" points="841.441,-54.7781 832.188,-59.9375 842.639,-61.6749 841.441,-54.7781"/>
</g>
<!-- Node12 -->
<g id="node23" class="node"><title>Node12</title>
<a xlink:href="MojDbLevelEngine_8cpp.htm" target="_top" xlink:title="MojDbLevelEngine.cpp">
<polygon fill="white" stroke="black" points="1199.5,-0.5 1199.5,-21.5 1324.5,-21.5 1324.5,-0.5 1199.5,-0.5"/>
<text text-anchor="middle" x="1262" y="-8.5" font-family="Helvetica,sans-Serif" font-size="10.00">MojDbLevelEngine.cpp</text>
</a>
</g>
<!-- Node1&#45;&gt;Node12 -->
<g id="edge22" class="edge"><title>Node1&#45;&gt;Node12</title>
<path fill="none" stroke="midnightblue" d="M842.294,-62.6572C922.896,-54.2712 1067.62,-38.605 1191,-22 1193.72,-21.634 1196.5,-21.2496 1199.3,-20.8528"/>
<polygon fill="midnightblue" stroke="midnightblue" points="841.896,-59.1796 832.31,-63.6928 842.618,-66.1423 841.896,-59.1796"/>
</g>
<!-- Node13 -->
<g id="node25" class="node"><title>Node13</title>
<a xlink:href="MojDbLevelItem_8cpp.htm" target="_top" xlink:title="MojDbLevelItem.cpp">
<polygon fill="white" stroke="black" points="1342,-0.5 1342,-21.5 1454,-21.5 1454,-0.5 1342,-0.5"/>
<text text-anchor="middle" x="1398" y="-8.5" font-family="Helvetica,sans-Serif" font-size="10.00">MojDbLevelItem.cpp</text>
</a>
</g>
<!-- Node1&#45;&gt;Node13 -->
<g id="edge24" class="edge"><title>Node1&#45;&gt;Node13</title>
<path fill="none" stroke="midnightblue" d="M842.571,-65.3769C945.247,-59.0515 1155.8,-44.485 1333,-22 1335.84,-21.6398 1338.74,-21.2451 1341.67,-20.826"/>
<polygon fill="midnightblue" stroke="midnightblue" points="842.147,-61.8961 832.379,-65.9994 842.574,-68.8831 842.147,-61.8961"/>
</g>
<!-- Node14 -->
<g id="node27" class="node"><title>Node14</title>
<a xlink:href="MojDbBerkeleyEngine_8cpp.htm" target="_top" xlink:title="MojDbBerkeleyEngine.cpp">
<polygon fill="white" stroke="black" points="1472,-0.5 1472,-21.5 1612,-21.5 1612,-0.5 1472,-0.5"/>
<text text-anchor="middle" x="1542" y="-8.5" font-family="Helvetica,sans-Serif" font-size="10.00">MojDbBerkeleyEngine.cpp</text>
</a>
</g>
<!-- Node1&#45;&gt;Node14 -->
<g id="edge26" class="edge"><title>Node1&#45;&gt;Node14</title>
<path fill="none" stroke="midnightblue" d="M842.506,-66.1579C962.843,-60.3631 1234.98,-45.6914 1463,-22 1465.89,-21.6995 1468.84,-21.3742 1471.82,-21.0304"/>
<polygon fill="midnightblue" stroke="midnightblue" points="842.197,-62.6685 832.376,-66.6419 842.531,-69.6606 842.197,-62.6685"/>
</g>
<!-- Node15 -->
<g id="node29" class="node"><title>Node15</title>
<a xlink:href="MojLunaMessage_8cpp.htm" target="_top" xlink:title="MojLunaMessage.cpp">
<polygon fill="white" stroke="black" points="1630,-0.5 1630,-21.5 1750,-21.5 1750,-0.5 1630,-0.5"/>
<text text-anchor="middle" x="1690" y="-8.5" font-family="Helvetica,sans-Serif" font-size="10.00">MojLunaMessage.cpp</text>
</a>
</g>
<!-- Node1&#45;&gt;Node15 -->
<g id="edge28" class="edge"><title>Node1&#45;&gt;Node15</title>
<path fill="none" stroke="midnightblue" d="M842.409,-67.694C982.193,-64.2915 1330.92,-53.1457 1621,-22 1623.89,-21.6892 1626.85,-21.34 1629.84,-20.9623"/>
<polygon fill="midnightblue" stroke="midnightblue" points="842.225,-64.1973 832.312,-67.935 842.393,-71.1953 842.225,-64.1973"/>
</g>
</g>
</svg>
