<?xml version="1.0" encoding="UTF-8" standalone="no"?>
<!DOCTYPE svg PUBLIC "-//W3C//DTD SVG 1.1//EN"
 "http://www.w3.org/Graphics/SVG/1.1/DTD/svg11.dtd">
<!-- Generated by graphviz version 2.26.3 (20100126.1600)
 -->
<!-- Title: MojObject.h Pages: 1 -->
<svg width="1054pt" height="696pt"
 viewBox="0.00 0.00 1054.00 696.00" xmlns="http://www.w3.org/2000/svg" xmlns:xlink="http://www.w3.org/1999/xlink">
<g id="graph1" class="graph" transform="scale(1 1) rotate(0) translate(4 692)">
<title>MojObject.h</title>
<polygon fill="white" stroke="white" points="-4,5 -4,-692 1051,-692 1051,5 -4,5"/>
<!-- Node1 -->
<g id="node1" class="node"><title>Node1</title>
<polygon fill="#bfbfbf" stroke="black" points="703,-666.5 703,-687.5 775,-687.5 775,-666.5 703,-666.5"/>
<text text-anchor="middle" x="739" y="-674.5" font-family="Helvetica,sans-Serif" font-size="10.00">MojObject.h</text>
</g>
<!-- Node2 -->
<g id="node3" class="node"><title>Node2</title>
<a xlink:href="MojCoreDefs_8h.htm" target="_top" xlink:title="core/MojCoreDefs.h">
<polygon fill="white" stroke="black" points="580.5,-232.5 580.5,-253.5 691.5,-253.5 691.5,-232.5 580.5,-232.5"/>
<text text-anchor="middle" x="636" y="-240.5" font-family="Helvetica,sans-Serif" font-size="10.00">core/MojCoreDefs.h</text>
</a>
</g>
<!-- Node1&#45;&gt;Node2 -->
<g id="edge2" class="edge"><title>Node1&#45;&gt;Node2</title>
<path fill="none" stroke="midnightblue" d="M775.12,-671.219C856.273,-657.212 1046,-618.333 1046,-561 1046,-561 1046,-561 1046,-373 1046,-313.862 996.166,-313.735 942,-290 900.069,-271.626 778.444,-256.894 701.755,-249.093"/>
<polygon fill="midnightblue" stroke="midnightblue" points="702.009,-245.6 691.709,-248.084 701.309,-252.565 702.009,-245.6"/>
</g>
<!-- Node12 -->
<g id="node23" class="node"><title>Node12</title>
<a xlink:href="MojDecimal_8h.htm" target="_top" xlink:title="core/MojDecimal.h">
<polygon fill="white" stroke="black" points="767,-550.5 767,-571.5 871,-571.5 871,-550.5 767,-550.5"/>
<text text-anchor="middle" x="819" y="-558.5" font-family="Helvetica,sans-Serif" font-size="10.00">core/MojDecimal.h</text>
</a>
</g>
<!-- Node1&#45;&gt;Node12 -->
<g id="edge22" class="edge"><title>Node1&#45;&gt;Node12</title>
<path fill="none" stroke="midnightblue" d="M746.383,-666.295C759.897,-646.7 788.779,-604.82 805.765,-580.191"/>
<polygon fill="midnightblue" stroke="midnightblue" points="808.839,-581.898 811.635,-571.679 803.076,-577.924 808.839,-581.898"/>
</g>
<!-- Node17 -->
<g id="node37" class="node"><title>Node17</title>
<a xlink:href="MojMap_8h.htm" target="_top" xlink:title="core/MojMap.h">
<polygon fill="white" stroke="black" points="819.5,-492.5 819.5,-513.5 906.5,-513.5 906.5,-492.5 819.5,-492.5"/>
<text text-anchor="middle" x="863" y="-500.5" font-family="Helvetica,sans-Serif" font-size="10.00">core/MojMap.h</text>
</a>
</g>
<!-- Node1&#45;&gt;Node17 -->
<g id="edge40" class="edge"><title>Node1&#45;&gt;Node17</title>
<path fill="none" stroke="midnightblue" d="M737.417,-666.171C734.575,-642.479 731.179,-585.339 758,-550 770.705,-533.26 790.705,-522.341 809.856,-515.286"/>
<polygon fill="midnightblue" stroke="midnightblue" points="811.105,-518.558 819.451,-512.031 808.857,-511.929 811.105,-518.558"/>
</g>
<!-- Node22 -->
<g id="node53" class="node"><title>Node22</title>
<a xlink:href="MojString_8h.htm" target="_top" xlink:title="core/MojString.h">
<polygon fill="white" stroke="black" points="401,-608.5 401,-629.5 495,-629.5 495,-608.5 401,-608.5"/>
<text text-anchor="middle" x="448" y="-616.5" font-family="Helvetica,sans-Serif" font-size="10.00">core/MojString.h</text>
</a>
</g>
<!-- Node1&#45;&gt;Node22 -->
<g id="edge62" class="edge"><title>Node1&#45;&gt;Node22</title>
<path fill="none" stroke="midnightblue" d="M702.733,-669.772C653.116,-659.882 563.561,-642.033 504.947,-630.35"/>
<polygon fill="midnightblue" stroke="midnightblue" points="505.59,-626.91 495.098,-628.387 504.221,-633.775 505.59,-626.91"/>
</g>
<!-- Node23 -->
<g id="node59" class="node"><title>Node23</title>
<a xlink:href="MojVector_8h.htm" target="_top" xlink:title="core/MojVector.h">
<polygon fill="white" stroke="black" points="474.5,-550.5 474.5,-571.5 571.5,-571.5 571.5,-550.5 474.5,-550.5"/>
<text text-anchor="middle" x="523" y="-558.5" font-family="Helvetica,sans-Serif" font-size="10.00">core/MojVector.h</text>
</a>
</g>
<!-- Node1&#45;&gt;Node23 -->
<g id="edge94" class="edge"><title>Node1&#45;&gt;Node23</title>
<path fill="none" stroke="midnightblue" d="M719.066,-666.295C680.553,-645.612 595.806,-600.099 551.405,-576.254"/>
<polygon fill="midnightblue" stroke="midnightblue" points="553.039,-573.159 542.573,-571.512 549.727,-579.326 553.039,-573.159"/>
</g>
<!-- Node3 -->
<g id="node5" class="node"><title>Node3</title>
<a xlink:href="MojConfig_8h.htm" target="_top" xlink:title="core/internal/MojConfig.h">
<polygon fill="white" stroke="black" points="443.5,-174.5 443.5,-195.5 578.5,-195.5 578.5,-174.5 443.5,-174.5"/>
<text text-anchor="middle" x="511" y="-182.5" font-family="Helvetica,sans-Serif" font-size="10.00">core/internal/MojConfig.h</text>
</a>
</g>
<!-- Node2&#45;&gt;Node3 -->
<g id="edge4" class="edge"><title>Node2&#45;&gt;Node3</title>
<path fill="none" stroke="midnightblue" d="M613.363,-232.497C593.752,-223.397 565.154,-210.127 543.167,-199.925"/>
<polygon fill="midnightblue" stroke="midnightblue" points="544.435,-196.655 533.891,-195.621 541.488,-203.005 544.435,-196.655"/>
</g>
<!-- Node4 -->
<g id="node7" class="node"><title>Node4</title>
<a xlink:href="MojNew_8h.htm" target="_top" xlink:title="core/internal/MojNew.h">
<polygon fill="white" stroke="black" points="693.5,-174.5 693.5,-195.5 818.5,-195.5 818.5,-174.5 693.5,-174.5"/>
<text text-anchor="middle" x="756" y="-182.5" font-family="Helvetica,sans-Serif" font-size="10.00">core/internal/MojNew.h</text>
</a>
</g>
<!-- Node2&#45;&gt;Node4 -->
<g id="edge6" class="edge"><title>Node2&#45;&gt;Node4</title>
<path fill="none" stroke="midnightblue" d="M657.731,-232.497C676.474,-223.438 703.767,-210.246 724.836,-200.063"/>
<polygon fill="midnightblue" stroke="midnightblue" points="726.545,-203.124 734.025,-195.621 723.498,-196.822 726.545,-203.124"/>
</g>
<!-- Node6 -->
<g id="node11" class="node"><title>Node6</title>
<a xlink:href="MojErr_8h.htm" target="_top" xlink:title="core/MojErr.h">
<polygon fill="white" stroke="black" points="279,-174.5 279,-195.5 359,-195.5 359,-174.5 279,-174.5"/>
<text text-anchor="middle" x="319" y="-182.5" font-family="Helvetica,sans-Serif" font-size="10.00">core/MojErr.h</text>
</a>
</g>
<!-- Node2&#45;&gt;Node6 -->
<g id="edge10" class="edge"><title>Node2&#45;&gt;Node6</title>
<path fill="none" stroke="midnightblue" d="M580.42,-232.831C520.787,-221.92 426.91,-204.744 369.369,-194.216"/>
<polygon fill="midnightblue" stroke="midnightblue" points="369.879,-190.751 359.412,-192.394 368.619,-197.637 369.879,-190.751"/>
</g>
<!-- Node10 -->
<g id="node19" class="node"><title>Node10</title>
<a xlink:href="MojOs_8h.htm" target="_top" xlink:title="core/MojOs.h">
<polygon fill="white" stroke="black" points="596,-174.5 596,-195.5 676,-195.5 676,-174.5 596,-174.5"/>
<text text-anchor="middle" x="636" y="-182.5" font-family="Helvetica,sans-Serif" font-size="10.00">core/MojOs.h</text>
</a>
</g>
<!-- Node2&#45;&gt;Node10 -->
<g id="edge18" class="edge"><title>Node2&#45;&gt;Node10</title>
<path fill="none" stroke="midnightblue" d="M636,-232.362C636,-224.922 636,-214.743 636,-205.728"/>
<polygon fill="midnightblue" stroke="midnightblue" points="639.5,-205.571 636,-195.571 632.5,-205.571 639.5,-205.571"/>
</g>
<!-- Node5 -->
<g id="node9" class="node"><title>Node5</title>
<polygon fill="white" stroke="#bfbfbf" points="738,-116.5 738,-137.5 774,-137.5 774,-116.5 738,-116.5"/>
<text text-anchor="middle" x="756" y="-124.5" font-family="Helvetica,sans-Serif" font-size="10.00">new</text>
</g>
<!-- Node4&#45;&gt;Node5 -->
<g id="edge8" class="edge"><title>Node4&#45;&gt;Node5</title>
<path fill="none" stroke="midnightblue" d="M756,-174.362C756,-166.922 756,-156.743 756,-147.728"/>
<polygon fill="midnightblue" stroke="midnightblue" points="759.5,-147.571 756,-137.571 752.5,-147.571 759.5,-147.571"/>
</g>
<!-- Node7 -->
<g id="node13" class="node"><title>Node7</title>
<a xlink:href="MojLog_8h.htm" target="_top" xlink:title="core/MojLog.h">
<polygon fill="white" stroke="black" points="244,-116.5 244,-137.5 328,-137.5 328,-116.5 244,-116.5"/>
<text text-anchor="middle" x="286" y="-124.5" font-family="Helvetica,sans-Serif" font-size="10.00">core/MojLog.h</text>
</a>
</g>
<!-- Node6&#45;&gt;Node7 -->
<g id="edge12" class="edge"><title>Node6&#45;&gt;Node7</title>
<path fill="none" stroke="midnightblue" d="M312.947,-174.362C308.528,-166.595 302.41,-155.843 297.121,-146.546"/>
<polygon fill="midnightblue" stroke="midnightblue" points="300.002,-144.531 292.014,-137.571 293.918,-147.993 300.002,-144.531"/>
</g>
<!-- Node8 -->
<g id="node15" class="node"><title>Node8</title>
<a xlink:href="MojListEntry_8h.htm" target="_top" xlink:title="core/MojListEntry.h">
<polygon fill="white" stroke="black" points="198.5,-58.5 198.5,-79.5 305.5,-79.5 305.5,-58.5 198.5,-58.5"/>
<text text-anchor="middle" x="252" y="-66.5" font-family="Helvetica,sans-Serif" font-size="10.00">core/MojListEntry.h</text>
</a>
</g>
<!-- Node7&#45;&gt;Node8 -->
<g id="edge14" class="edge"><title>Node7&#45;&gt;Node8</title>
<path fill="none" stroke="midnightblue" d="M279.764,-116.362C275.163,-108.513 268.775,-97.6159 263.286,-88.2527"/>
<polygon fill="midnightblue" stroke="midnightblue" points="266.273,-86.4276 258.197,-79.5707 260.234,-89.9677 266.273,-86.4276"/>
</g>
<!-- Node9 -->
<g id="node17" class="node"><title>Node9</title>
<a xlink:href="MojNoCopy_8h.htm" target="_top" xlink:title="core/MojNoCopy.h">
<polygon fill="white" stroke="black" points="93,-0.5 93,-21.5 197,-21.5 197,-0.5 93,-0.5"/>
<text text-anchor="middle" x="145" y="-8.5" font-family="Helvetica,sans-Serif" font-size="10.00">core/MojNoCopy.h</text>
</a>
</g>
<!-- Node8&#45;&gt;Node9 -->
<g id="edge16" class="edge"><title>Node8&#45;&gt;Node9</title>
<path fill="none" stroke="midnightblue" d="M232.375,-58.3619C215.859,-49.4094 192.026,-36.4908 173.422,-26.4064"/>
<polygon fill="midnightblue" stroke="midnightblue" points="174.96,-23.2592 164.501,-21.5707 171.625,-29.4132 174.96,-23.2592"/>
</g>
<!-- Node11 -->
<g id="node21" class="node"><title>Node11</title>
<a xlink:href="MojOsInternal_8h.htm" target="_top" xlink:title="core/internal/MojOsInternal.h">
<polygon fill="white" stroke="black" points="559,-116.5 559,-137.5 713,-137.5 713,-116.5 559,-116.5"/>
<text text-anchor="middle" x="636" y="-124.5" font-family="Helvetica,sans-Serif" font-size="10.00">core/internal/MojOsInternal.h</text>
</a>
</g>
<!-- Node10&#45;&gt;Node11 -->
<g id="edge20" class="edge"><title>Node10&#45;&gt;Node11</title>
<path fill="none" stroke="midnightblue" d="M636,-174.362C636,-166.922 636,-156.743 636,-147.728"/>
<polygon fill="midnightblue" stroke="midnightblue" points="639.5,-147.571 636,-137.571 632.5,-147.571 639.5,-147.571"/>
</g>
<!-- Node12&#45;&gt;Node2 -->
<g id="edge24" class="edge"><title>Node12&#45;&gt;Node2</title>
<path fill="none" stroke="midnightblue" d="M871.145,-550.575C927.088,-535.996 1008,-503.575 1008,-438 1008,-438 1008,-438 1008,-373 1008,-308.879 808.543,-268.959 701.73,-252.178"/>
<polygon fill="midnightblue" stroke="midnightblue" points="702.11,-248.696 691.692,-250.627 701.04,-255.613 702.11,-248.696"/>
</g>
<!-- Node13 -->
<g id="node26" class="node"><title>Node13</title>
<a xlink:href="MojHasher_8h.htm" target="_top" xlink:title="core/MojHasher.h">
<polygon fill="white" stroke="black" points="701.5,-492.5 701.5,-513.5 802.5,-513.5 802.5,-492.5 701.5,-492.5"/>
<text text-anchor="middle" x="752" y="-500.5" font-family="Helvetica,sans-Serif" font-size="10.00">core/MojHasher.h</text>
</a>
</g>
<!-- Node12&#45;&gt;Node13 -->
<g id="edge26" class="edge"><title>Node12&#45;&gt;Node13</title>
<path fill="none" stroke="midnightblue" d="M806.711,-550.362C796.983,-541.941 783.202,-530.011 771.905,-520.231"/>
<polygon fill="midnightblue" stroke="midnightblue" points="774.062,-517.469 764.211,-513.571 769.481,-522.762 774.062,-517.469"/>
</g>
<!-- Node13&#45;&gt;Node2 -->
<g id="edge28" class="edge"><title>Node13&#45;&gt;Node2</title>
<path fill="none" stroke="midnightblue" d="M750.855,-492.418C746.93,-459.856 731.75,-359.186 688,-290 680.683,-278.429 669.755,-267.952 659.802,-259.841"/>
<polygon fill="midnightblue" stroke="midnightblue" points="661.819,-256.976 651.773,-253.612 657.529,-262.507 661.819,-256.976"/>
</g>
<!-- Node14 -->
<g id="node29" class="node"><title>Node14</title>
<a xlink:href="MojUtil_8h.htm" target="_top" xlink:title="core/MojUtil.h">
<polygon fill="white" stroke="black" points="565.5,-427.5 565.5,-448.5 646.5,-448.5 646.5,-427.5 565.5,-427.5"/>
<text text-anchor="middle" x="606" y="-435.5" font-family="Helvetica,sans-Serif" font-size="10.00">core/MojUtil.h</text>
</a>
</g>
<!-- Node13&#45;&gt;Node14 -->
<g id="edge30" class="edge"><title>Node13&#45;&gt;Node14</title>
<path fill="none" stroke="midnightblue" d="M728.218,-492.412C704.038,-481.647 666.372,-464.878 639.245,-452.801"/>
<polygon fill="midnightblue" stroke="midnightblue" points="640.331,-449.453 629.772,-448.584 637.484,-455.848 640.331,-449.453"/>
</g>
<!-- Node14&#45;&gt;Node2 -->
<g id="edge32" class="edge"><title>Node14&#45;&gt;Node2</title>
<path fill="none" stroke="midnightblue" d="M608.404,-427.282C610.79,-416.414 614.449,-399.094 617,-384 624.2,-341.403 630.431,-291.196 633.656,-263.66"/>
<polygon fill="midnightblue" stroke="midnightblue" points="637.141,-263.985 634.812,-253.649 630.188,-263.182 637.141,-263.985"/>
</g>
<!-- Node15 -->
<g id="node32" class="node"><title>Node15</title>
<a xlink:href="MojUtilInternal_8h.htm" target="_top" xlink:title="core/internal/MojUtilInternal.h">
<polygon fill="white" stroke="black" points="453.5,-362.5 453.5,-383.5 608.5,-383.5 608.5,-362.5 453.5,-362.5"/>
<text text-anchor="middle" x="531" y="-370.5" font-family="Helvetica,sans-Serif" font-size="10.00">core/internal/MojUtilInternal.h</text>
</a>
</g>
<!-- Node14&#45;&gt;Node15 -->
<g id="edge34" class="edge"><title>Node14&#45;&gt;Node15</title>
<path fill="none" stroke="midnightblue" d="M593.615,-427.267C582.038,-417.233 564.552,-402.078 550.997,-390.331"/>
<polygon fill="midnightblue" stroke="midnightblue" points="553.003,-387.438 543.154,-383.534 548.419,-392.728 553.003,-387.438"/>
</g>
<!-- Node16 -->
<g id="node34" class="node"><title>Node16</title>
<a xlink:href="MojComp_8h.htm" target="_top" xlink:title="core/MojComp.h">
<polygon fill="white" stroke="black" points="484,-297.5 484,-318.5 578,-318.5 578,-297.5 484,-297.5"/>
<text text-anchor="middle" x="531" y="-305.5" font-family="Helvetica,sans-Serif" font-size="10.00">core/MojComp.h</text>
</a>
</g>
<!-- Node15&#45;&gt;Node16 -->
<g id="edge36" class="edge"><title>Node15&#45;&gt;Node16</title>
<path fill="none" stroke="midnightblue" d="M531,-362.267C531,-353.18 531,-339.892 531,-328.74"/>
<polygon fill="midnightblue" stroke="midnightblue" points="534.5,-328.534 531,-318.534 527.5,-328.534 534.5,-328.534"/>
</g>
<!-- Node16&#45;&gt;Node2 -->
<g id="edge38" class="edge"><title>Node16&#45;&gt;Node2</title>
<path fill="none" stroke="midnightblue" d="M548.339,-297.267C565.234,-286.807 591.121,-270.782 610.39,-258.854"/>
<polygon fill="midnightblue" stroke="midnightblue" points="612.324,-261.773 618.984,-253.534 608.639,-255.821 612.324,-261.773"/>
</g>
<!-- Node17&#45;&gt;Node2 -->
<g id="edge42" class="edge"><title>Node17&#45;&gt;Node2</title>
<path fill="none" stroke="midnightblue" d="M902.07,-492.392C920.308,-485.267 940.312,-473.826 951,-456 959.228,-442.278 958.499,-434.134 951,-420 899.79,-323.482 772.442,-276.365 696.271,-256.106"/>
<polygon fill="midnightblue" stroke="midnightblue" points="696.889,-252.651 686.332,-253.538 695.138,-259.429 696.889,-252.651"/>
</g>
<!-- Node17&#45;&gt;Node16 -->
<g id="edge44" class="edge"><title>Node17&#45;&gt;Node16</title>
<path fill="none" stroke="midnightblue" d="M840.283,-492.371C821.053,-483.2 792.886,-469.36 769,-456 747.731,-444.103 613.984,-360.182 556.838,-324.256"/>
<polygon fill="midnightblue" stroke="midnightblue" points="558.367,-321.083 548.039,-318.723 554.641,-327.009 558.367,-321.083"/>
</g>
<!-- Node18 -->
<g id="node41" class="node"><title>Node18</title>
<a xlink:href="MojRbTreeBase_8h.htm" target="_top" xlink:title="core/internal/MojRbTreeBase.h">
<polygon fill="white" stroke="black" points="778,-427.5 778,-448.5 942,-448.5 942,-427.5 778,-427.5"/>
<text text-anchor="middle" x="860" y="-435.5" font-family="Helvetica,sans-Serif" font-size="10.00">core/internal/MojRbTreeBase.h</text>
</a>
</g>
<!-- Node17&#45;&gt;Node18 -->
<g id="edge46" class="edge"><title>Node17&#45;&gt;Node18</title>
<path fill="none" stroke="midnightblue" d="M862.505,-492.267C862.085,-483.18 861.472,-469.892 860.957,-458.74"/>
<polygon fill="midnightblue" stroke="midnightblue" points="864.444,-458.362 860.486,-448.534 857.451,-458.684 864.444,-458.362"/>
</g>
<!-- Node18&#45;&gt;Node2 -->
<g id="edge48" class="edge"><title>Node18&#45;&gt;Node2</title>
<path fill="none" stroke="midnightblue" d="M852.306,-427.13C833.308,-400.882 781.666,-333.037 726,-290 709.291,-277.082 688.509,-265.961 671.126,-257.784"/>
<polygon fill="midnightblue" stroke="midnightblue" points="672.416,-254.526 661.866,-253.552 669.506,-260.892 672.416,-254.526"/>
</g>
<!-- Node19 -->
<g id="node44" class="node"><title>Node19</title>
<a xlink:href="MojAutoPtr_8h.htm" target="_top" xlink:title="core/MojAutoPtr.h">
<polygon fill="white" stroke="black" points="27.5,-362.5 27.5,-383.5 128.5,-383.5 128.5,-362.5 27.5,-362.5"/>
<text text-anchor="middle" x="78" y="-370.5" font-family="Helvetica,sans-Serif" font-size="10.00">core/MojAutoPtr.h</text>
</a>
</g>
<!-- Node18&#45;&gt;Node19 -->
<g id="edge50" class="edge"><title>Node18&#45;&gt;Node19</title>
<path fill="none" stroke="midnightblue" d="M777.717,-430.656C740.28,-427.345 695.406,-423.42 655,-420 466.733,-404.067 243.822,-386.19 138.67,-377.815"/>
<polygon fill="midnightblue" stroke="midnightblue" points="138.809,-374.315 128.563,-377.011 138.253,-381.293 138.809,-374.315"/>
</g>
<!-- Node19&#45;&gt;Node2 -->
<g id="edge52" class="edge"><title>Node19&#45;&gt;Node2</title>
<path fill="none" stroke="midnightblue" d="M76.5906,-362.436C74.8625,-344.534 74.3519,-308.394 95,-290 129.776,-259.021 433.196,-247.864 569.816,-244.385"/>
<polygon fill="midnightblue" stroke="midnightblue" points="570.237,-247.876 580.147,-244.129 570.063,-240.878 570.237,-247.876"/>
</g>
<!-- Node19&#45;&gt;Node9 -->
<g id="edge58" class="edge"><title>Node19&#45;&gt;Node9</title>
<path fill="none" stroke="midnightblue" d="M72.269,-362.217C61.2086,-340.372 38,-289.047 38,-243 38,-243 38,-243 38,-127 38,-81.2414 83.5416,-45.8162 115.202,-26.7173"/>
<polygon fill="midnightblue" stroke="midnightblue" points="117.223,-29.5912 124.115,-21.5444 113.71,-23.537 117.223,-29.5912"/>
</g>
<!-- Node20 -->
<g id="node47" class="node"><title>Node20</title>
<a xlink:href="MojAtomicInt_8h.htm" target="_top" xlink:title="core/MojAtomicInt.h">
<polygon fill="white" stroke="black" points="252,-297.5 252,-318.5 362,-318.5 362,-297.5 252,-297.5"/>
<text text-anchor="middle" x="307" y="-305.5" font-family="Helvetica,sans-Serif" font-size="10.00">core/MojAtomicInt.h</text>
</a>
</g>
<!-- Node19&#45;&gt;Node20 -->
<g id="edge54" class="edge"><title>Node19&#45;&gt;Node20</title>
<path fill="none" stroke="midnightblue" d="M115.047,-362.484C154.624,-351.251 217.442,-333.421 260.359,-321.239"/>
<polygon fill="midnightblue" stroke="midnightblue" points="261.342,-324.598 270.006,-318.501 259.43,-317.864 261.342,-324.598"/>
</g>
<!-- Node21 -->
<g id="node51" class="node"><title>Node21</title>
<a xlink:href="MojAutoPtrInternal_8h.htm" target="_top" xlink:title="core/internal/MojAutoPtr\lInternal.h">
<polygon fill="white" stroke="black" points="103.5,-291 103.5,-325 234.5,-325 234.5,-291 103.5,-291"/>
<text text-anchor="start" x="111.5" y="-312" font-family="Helvetica,sans-Serif" font-size="10.00">core/internal/MojAutoPtr</text>
<text text-anchor="middle" x="169" y="-299" font-family="Helvetica,sans-Serif" font-size="10.00">Internal.h</text>
</a>
</g>
<!-- Node19&#45;&gt;Node21 -->
<g id="edge60" class="edge"><title>Node19&#45;&gt;Node21</title>
<path fill="none" stroke="midnightblue" d="M93.0268,-362.267C104.843,-353.827 121.733,-341.762 136.588,-331.151"/>
<polygon fill="midnightblue" stroke="midnightblue" points="138.943,-333.77 145.046,-325.11 134.875,-328.074 138.943,-333.77"/>
</g>
<!-- Node20&#45;&gt;Node2 -->
<g id="edge56" class="edge"><title>Node20&#45;&gt;Node2</title>
<path fill="none" stroke="midnightblue" d="M345.196,-297.481C355.185,-294.882 365.966,-292.212 376,-290 441.859,-275.479 517.828,-262.135 570.572,-253.406"/>
<polygon fill="midnightblue" stroke="midnightblue" points="571.172,-256.854 580.471,-251.776 570.036,-249.947 571.172,-256.854"/>
</g>
<!-- Node22&#45;&gt;Node2 -->
<g id="edge64" class="edge"><title>Node22&#45;&gt;Node2</title>
<path fill="none" stroke="midnightblue" d="M400.903,-616.779C285.881,-610.075 0,-585.15 0,-503 0,-503 0,-503 0,-373 0,-323.579 29.783,-312.075 74,-290 117.478,-268.293 431.52,-251.988 570.325,-245.761"/>
<polygon fill="midnightblue" stroke="midnightblue" points="570.575,-249.253 580.409,-245.312 570.264,-242.26 570.575,-249.253"/>
</g>
<!-- Node22&#45;&gt;Node13 -->
<g id="edge70" class="edge"><title>Node22&#45;&gt;Node13</title>
<path fill="none" stroke="midnightblue" d="M478.798,-608.42C505.63,-599.11 545.532,-585.044 580,-572 627.655,-553.965 682.172,-531.838 716.824,-517.584"/>
<polygon fill="midnightblue" stroke="midnightblue" points="718.568,-520.651 726.48,-513.604 715.901,-514.179 718.568,-520.651"/>
</g>
<!-- Node22&#45;&gt;Node16 -->
<g id="edge68" class="edge"><title>Node22&#45;&gt;Node16</title>
<path fill="none" stroke="midnightblue" d="M442.942,-608.241C426.002,-570.474 375.326,-441.923 430,-362 442.687,-343.454 463.854,-330.759 483.543,-322.363"/>
<polygon fill="midnightblue" stroke="midnightblue" points="485.049,-325.531 493.046,-318.58 482.46,-319.027 485.049,-325.531"/>
</g>
<!-- Node22&#45;&gt;Node19 -->
<g id="edge66" class="edge"><title>Node22&#45;&gt;Node19</title>
<path fill="none" stroke="midnightblue" d="M400.906,-616.256C331.975,-609.753 203.611,-587.839 128,-514 94.3869,-481.175 83.3116,-424.339 79.7062,-393.813"/>
<polygon fill="midnightblue" stroke="midnightblue" points="83.1521,-393.102 78.6587,-383.507 76.1879,-393.81 83.1521,-393.102"/>
</g>
<!-- Node22&#45;&gt;Node23 -->
<g id="edge72" class="edge"><title>Node22&#45;&gt;Node23</title>
<path fill="none" stroke="midnightblue" d="M461.756,-608.362C472.751,-599.859 488.373,-587.779 501.086,-577.947"/>
<polygon fill="midnightblue" stroke="midnightblue" points="503.562,-580.457 509.331,-571.571 499.279,-574.919 503.562,-580.457"/>
</g>
<!-- Node23&#45;&gt;Node2 -->
<g id="edge74" class="edge"><title>Node23&#45;&gt;Node2</title>
<path fill="none" stroke="midnightblue" d="M564.873,-550.424C587.153,-543.119 613.829,-531.503 633,-514 661.344,-488.123 674,-476.38 674,-438 674,-438 674,-438 674,-373 674,-332.7 656.968,-288.094 645.71,-263.01"/>
<polygon fill="midnightblue" stroke="midnightblue" points="648.828,-261.414 641.444,-253.816 642.478,-264.36 648.828,-261.414"/>
</g>
<!-- Node23&#45;&gt;Node14 -->
<g id="edge90" class="edge"><title>Node23&#45;&gt;Node14</title>
<path fill="none" stroke="midnightblue" d="M566.607,-550.359C585.529,-543.342 605.873,-532.004 617,-514 627.349,-497.255 622.101,-474.543 615.804,-458.318"/>
<polygon fill="midnightblue" stroke="midnightblue" points="618.84,-456.519 611.669,-448.72 612.412,-459.289 618.84,-456.519"/>
</g>
<!-- Node23&#45;&gt;Node16 -->
<g id="edge76" class="edge"><title>Node23&#45;&gt;Node16</title>
<path fill="none" stroke="midnightblue" d="M479.393,-550.359C460.471,-543.342 440.127,-532.004 429,-514 423.86,-505.683 428.402,-501.759 429,-492 432.562,-433.895 413.768,-411.127 445,-362 456.093,-344.551 475.072,-331.756 492.383,-323.013"/>
<polygon fill="midnightblue" stroke="midnightblue" points="494.228,-326.012 501.768,-318.569 491.232,-319.686 494.228,-326.012"/>
</g>
<!-- Node24 -->
<g id="node63" class="node"><title>Node24</title>
<a xlink:href="MojRefCount_8h.htm" target="_top" xlink:title="core/MojRefCount.h">
<polygon fill="white" stroke="black" points="137,-492.5 137,-513.5 247,-513.5 247,-492.5 137,-492.5"/>
<text text-anchor="middle" x="192" y="-500.5" font-family="Helvetica,sans-Serif" font-size="10.00">core/MojRefCount.h</text>
</a>
</g>
<!-- Node23&#45;&gt;Node24 -->
<g id="edge78" class="edge"><title>Node23&#45;&gt;Node24</title>
<path fill="none" stroke="midnightblue" d="M474.16,-552.442C416.634,-542.362 320.85,-525.578 257.068,-514.402"/>
<polygon fill="midnightblue" stroke="midnightblue" points="257.571,-510.936 247.117,-512.658 256.363,-517.831 257.571,-510.936"/>
</g>
<!-- Node26 -->
<g id="node72" class="node"><title>Node26</title>
<a xlink:href="MojVectorInternal_8h.htm" target="_top" xlink:title="core/internal/MojVectorInternal.h">
<polygon fill="white" stroke="black" points="437.5,-492.5 437.5,-513.5 608.5,-513.5 608.5,-492.5 437.5,-492.5"/>
<text text-anchor="middle" x="523" y="-500.5" font-family="Helvetica,sans-Serif" font-size="10.00">core/internal/MojVectorInternal.h</text>
</a>
</g>
<!-- Node23&#45;&gt;Node26 -->
<g id="edge92" class="edge"><title>Node23&#45;&gt;Node26</title>
<path fill="none" stroke="midnightblue" d="M523,-550.362C523,-542.922 523,-532.743 523,-523.728"/>
<polygon fill="midnightblue" stroke="midnightblue" points="526.5,-523.571 523,-513.571 519.5,-523.571 526.5,-523.571"/>
</g>
<!-- Node24&#45;&gt;Node2 -->
<g id="edge80" class="edge"><title>Node24&#45;&gt;Node2</title>
<path fill="none" stroke="midnightblue" d="M191.659,-492.338C191.668,-475.243 194.036,-441.45 211,-420 251.564,-368.708 414.051,-313.696 475,-290 510.019,-276.385 550.639,-264.554 582.318,-256.168"/>
<polygon fill="midnightblue" stroke="midnightblue" points="583.479,-259.482 592.27,-253.569 581.71,-252.71 583.479,-259.482"/>
</g>
<!-- Node24&#45;&gt;Node19 -->
<g id="edge84" class="edge"><title>Node24&#45;&gt;Node19</title>
<path fill="none" stroke="midnightblue" d="M178.959,-492.44C168.031,-483.312 152.291,-469.495 140,-456 121.402,-435.58 102.807,-409.792 90.9037,-392.425"/>
<polygon fill="midnightblue" stroke="midnightblue" points="93.5237,-390.051 85.0214,-383.73 87.7259,-393.973 93.5237,-390.051"/>
</g>
<!-- Node24&#45;&gt;Node20 -->
<g id="edge82" class="edge"><title>Node24&#45;&gt;Node20</title>
<path fill="none" stroke="midnightblue" d="M186.4,-492.269C178.696,-475.94 166.963,-444.198 178,-420 198.275,-375.546 245.875,-341.925 277.237,-323.604"/>
<polygon fill="midnightblue" stroke="midnightblue" points="279.035,-326.608 286.007,-318.63 275.582,-320.519 279.035,-326.608"/>
</g>
<!-- Node25 -->
<g id="node68" class="node"><title>Node25</title>
<a xlink:href="MojRefCountInternal_8h.htm" target="_top" xlink:title="core/internal/MojRefCount\lInternal.h">
<polygon fill="white" stroke="black" points="220,-421 220,-455 360,-455 360,-421 220,-421"/>
<text text-anchor="start" x="228" y="-442" font-family="Helvetica,sans-Serif" font-size="10.00">core/internal/MojRefCount</text>
<text text-anchor="middle" x="290" y="-429" font-family="Helvetica,sans-Serif" font-size="10.00">Internal.h</text>
</a>
</g>
<!-- Node24&#45;&gt;Node25 -->
<g id="edge86" class="edge"><title>Node24&#45;&gt;Node25</title>
<path fill="none" stroke="midnightblue" d="M208.183,-492.267C221.026,-483.748 239.437,-471.537 255.543,-460.854"/>
<polygon fill="midnightblue" stroke="midnightblue" points="257.805,-463.554 264.204,-455.11 253.935,-457.721 257.805,-463.554"/>
</g>
<!-- Node25&#45;&gt;Node15 -->
<g id="edge88" class="edge"><title>Node25&#45;&gt;Node15</title>
<path fill="none" stroke="midnightblue" d="M353.32,-420.922C393.475,-410.092 444.658,-396.287 481.767,-386.279"/>
<polygon fill="midnightblue" stroke="midnightblue" points="483.096,-389.545 491.839,-383.562 481.273,-382.787 483.096,-389.545"/>
</g>
</g>
</svg>
