<?xml version="1.0" encoding="UTF-8" standalone="no"?>
<!DOCTYPE svg PUBLIC "-//W3C//DTD SVG 1.1//EN"
 "http://www.w3.org/Graphics/SVG/1.1/DTD/svg11.dtd">
<!-- Generated by graphviz version 2.26.3 (20100126.1600)
 -->
<!-- Title: MojObjectSerialization.h Pages: 1 -->
<svg width="2409pt" height="262pt"
 viewBox="0.00 0.00 2409.00 262.00" xmlns="http://www.w3.org/2000/svg" xmlns:xlink="http://www.w3.org/1999/xlink">
<g id="graph1" class="graph" transform="scale(1 1) rotate(0) translate(4 258)">
<title>MojObjectSerialization.h</title>
<polygon fill="white" stroke="white" points="-4,5 -4,-258 2406,-258 2406,5 -4,5"/>
<!-- Node1 -->
<g id="node1" class="node"><title>Node1</title>
<polygon fill="#bfbfbf" stroke="black" points="1324,-232.5 1324,-253.5 1454,-253.5 1454,-232.5 1324,-232.5"/>
<text text-anchor="middle" x="1389" y="-240.5" font-family="Helvetica,sans-Serif" font-size="10.00">MojObjectSerialization.h</text>
</g>
<!-- Node2 -->
<g id="node3" class="node"><title>Node2</title>
<a xlink:href="MojDbObjectHeader_8h.htm" target="_top" xlink:title="MojDbObjectHeader.h">
<polygon fill="white" stroke="black" points="762,-174.5 762,-195.5 882,-195.5 882,-174.5 762,-174.5"/>
<text text-anchor="middle" x="822" y="-182.5" font-family="Helvetica,sans-Serif" font-size="10.00">MojDbObjectHeader.h</text>
</a>
</g>
<!-- Node1&#45;&gt;Node2 -->
<g id="edge2" class="edge"><title>Node1&#45;&gt;Node2</title>
<path fill="none" stroke="midnightblue" d="M1313.95,-235.322C1200.29,-223.696 986.728,-201.851 882.423,-191.181"/>
<polygon fill="midnightblue" stroke="midnightblue" points="1313.65,-238.811 1323.96,-236.347 1314.37,-231.847 1313.65,-238.811"/>
</g>
<!-- Node6 -->
<g id="node11" class="node"><title>Node6</title>
<a xlink:href="MojDbLevelEngine_8cpp.htm" target="_top" xlink:title="MojDbLevelEngine.cpp">
<polygon fill="white" stroke="black" points="-0.5,-0.5 -0.5,-21.5 124.5,-21.5 124.5,-0.5 -0.5,-0.5"/>
<text text-anchor="middle" x="62" y="-8.5" font-family="Helvetica,sans-Serif" font-size="10.00">MojDbLevelEngine.cpp</text>
</a>
</g>
<!-- Node1&#45;&gt;Node6 -->
<g id="edge70" class="edge"><title>Node1&#45;&gt;Node6</title>
<path fill="none" stroke="midnightblue" d="M1313.53,-240.443C1137.28,-234.193 702.575,-217.102 558,-196 447.703,-179.901 422.137,-165.038 314,-138 215.484,-113.367 170.498,-145.621 93,-80 74.9598,-64.7246 66.9627,-36.8177 63.8044,-21.5942"/>
<polygon fill="midnightblue" stroke="midnightblue" points="1313.64,-243.949 1323.75,-240.803 1313.88,-236.953 1313.64,-243.949"/>
</g>
<!-- Node8 -->
<g id="node15" class="node"><title>Node8</title>
<a xlink:href="MojDbLevelQuery_8cpp.htm" target="_top" xlink:title="MojDbLevelQuery.cpp">
<polygon fill="white" stroke="black" points="270,-0.5 270,-21.5 390,-21.5 390,-0.5 270,-0.5"/>
<text text-anchor="middle" x="330" y="-8.5" font-family="Helvetica,sans-Serif" font-size="10.00">MojDbLevelQuery.cpp</text>
</a>
</g>
<!-- Node1&#45;&gt;Node8 -->
<g id="edge72" class="edge"><title>Node1&#45;&gt;Node8</title>
<path fill="none" stroke="midnightblue" d="M1313.72,-240.334C1191.04,-235.385 940.558,-222.749 730,-196 588.348,-178.005 550.787,-178.968 414,-138 350.659,-119.029 313.521,-135.12 277,-80 262.733,-58.4676 291.174,-34.9146 311.633,-21.6477"/>
<polygon fill="midnightblue" stroke="midnightblue" points="1313.63,-243.833 1323.76,-240.734 1313.9,-236.839 1313.63,-243.833"/>
</g>
<!-- Node15 -->
<g id="node30" class="node"><title>Node15</title>
<a xlink:href="MojDbBerkeleyEngine_8cpp.htm" target="_top" xlink:title="MojDbBerkeleyEngine.cpp">
<polygon fill="white" stroke="black" points="698,-0.5 698,-21.5 838,-21.5 838,-0.5 698,-0.5"/>
<text text-anchor="middle" x="768" y="-8.5" font-family="Helvetica,sans-Serif" font-size="10.00">MojDbBerkeleyEngine.cpp</text>
</a>
</g>
<!-- Node1&#45;&gt;Node15 -->
<g id="edge74" class="edge"><title>Node1&#45;&gt;Node15</title>
<path fill="none" stroke="midnightblue" d="M1313.58,-242.282C1154.39,-240.079 795.177,-231.219 753,-196 705.68,-156.486 721.665,-117.161 739,-58 742.99,-44.3824 752.059,-30.8014 759.001,-21.7661"/>
<polygon fill="midnightblue" stroke="midnightblue" points="1313.72,-245.784 1323.77,-242.418 1313.82,-238.785 1313.72,-245.784"/>
</g>
<!-- Node16 -->
<g id="node32" class="node"><title>Node16</title>
<a xlink:href="MojDbBerkeleyQuery_8cpp.htm" target="_top" xlink:title="MojDbBerkeleyQuery.cpp">
<polygon fill="white" stroke="black" points="1040,-0.5 1040,-21.5 1176,-21.5 1176,-0.5 1040,-0.5"/>
<text text-anchor="middle" x="1108" y="-8.5" font-family="Helvetica,sans-Serif" font-size="10.00">MojDbBerkeleyQuery.cpp</text>
</a>
</g>
<!-- Node1&#45;&gt;Node16 -->
<g id="edge76" class="edge"><title>Node1&#45;&gt;Node16</title>
<path fill="none" stroke="midnightblue" d="M1313.91,-237.918C1250.28,-232.009 1165.69,-219.843 1142,-196 1141.61,-195.605 1117.12,-61.1137 1109.95,-21.7206"/>
<polygon fill="midnightblue" stroke="midnightblue" points="1313.66,-241.409 1323.93,-238.813 1314.28,-234.437 1313.66,-241.409"/>
</g>
<!-- Node18 -->
<g id="node38" class="node"><title>Node18</title>
<a xlink:href="MojDb_8cpp.htm" target="_top" xlink:title="MojDb.cpp">
<polygon fill="white" stroke="black" points="1052,-116.5 1052,-137.5 1118,-137.5 1118,-116.5 1052,-116.5"/>
<text text-anchor="middle" x="1085" y="-124.5" font-family="Helvetica,sans-Serif" font-size="10.00">MojDb.cpp</text>
</a>
</g>
<!-- Node1&#45;&gt;Node18 -->
<g id="edge54" class="edge"><title>Node1&#45;&gt;Node18</title>
<path fill="none" stroke="midnightblue" d="M1313.29,-238.874C1241.13,-233.457 1139.15,-221.459 1109,-196 1091.56,-181.272 1086.78,-153.143 1085.48,-137.739"/>
<polygon fill="midnightblue" stroke="midnightblue" points="1313.48,-242.397 1323.7,-239.626 1313.98,-235.415 1313.48,-242.397"/>
</g>
<!-- Node20 -->
<g id="node44" class="node"><title>Node20</title>
<a xlink:href="MojObject_8cpp.htm" target="_top" xlink:title="MojObject.cpp">
<polygon fill="white" stroke="black" points="1150.5,-174.5 1150.5,-195.5 1233.5,-195.5 1233.5,-174.5 1150.5,-174.5"/>
<text text-anchor="middle" x="1192" y="-182.5" font-family="Helvetica,sans-Serif" font-size="10.00">MojObject.cpp</text>
</a>
</g>
<!-- Node1&#45;&gt;Node20 -->
<g id="edge48" class="edge"><title>Node1&#45;&gt;Node20</title>
<path fill="none" stroke="midnightblue" d="M1343.3,-229.546C1308.11,-219.186 1260.16,-205.067 1227.74,-195.523"/>
<polygon fill="midnightblue" stroke="midnightblue" points="1342.74,-233.03 1353.32,-232.497 1344.72,-226.315 1342.74,-233.03"/>
</g>
<!-- Node21 -->
<g id="node46" class="node"><title>Node21</title>
<a xlink:href="MojObjectSerialization_8cpp.htm" target="_top" xlink:title="MojObjectSerialization.cpp">
<polygon fill="white" stroke="black" points="1250.5,-174.5 1250.5,-195.5 1391.5,-195.5 1391.5,-174.5 1250.5,-174.5"/>
<text text-anchor="middle" x="1321" y="-182.5" font-family="Helvetica,sans-Serif" font-size="10.00">MojObjectSerialization.cpp</text>
</a>
</g>
<!-- Node1&#45;&gt;Node21 -->
<g id="edge50" class="edge"><title>Node1&#45;&gt;Node21</title>
<path fill="none" stroke="midnightblue" d="M1368.71,-225.691C1357.23,-215.9 1343.24,-203.973 1333.39,-195.571"/>
<polygon fill="midnightblue" stroke="midnightblue" points="1366.65,-228.535 1376.53,-232.362 1371.19,-223.209 1366.65,-228.535"/>
</g>
<!-- Node22 -->
<g id="node48" class="node"><title>Node22</title>
<a xlink:href="MojTokenSet_8cpp.htm" target="_top" xlink:title="MojTokenSet.cpp">
<polygon fill="white" stroke="black" points="1408.5,-174.5 1408.5,-195.5 1507.5,-195.5 1507.5,-174.5 1408.5,-174.5"/>
<text text-anchor="middle" x="1458" y="-182.5" font-family="Helvetica,sans-Serif" font-size="10.00">MojTokenSet.cpp</text>
</a>
</g>
<!-- Node1&#45;&gt;Node22 -->
<g id="edge52" class="edge"><title>Node1&#45;&gt;Node22</title>
<path fill="none" stroke="midnightblue" d="M1409.59,-225.691C1421.24,-215.9 1435.43,-203.973 1445.42,-195.571"/>
<polygon fill="midnightblue" stroke="midnightblue" points="1407.06,-223.248 1401.66,-232.362 1411.56,-228.607 1407.06,-223.248"/>
</g>
<!-- Node23 -->
<g id="node51" class="node"><title>Node23</title>
<a xlink:href="MojDbIdGenerator_8cpp.htm" target="_top" xlink:title="MojDbIdGenerator.cpp">
<polygon fill="white" stroke="black" points="1525,-174.5 1525,-195.5 1649,-195.5 1649,-174.5 1525,-174.5"/>
<text text-anchor="middle" x="1587" y="-182.5" font-family="Helvetica,sans-Serif" font-size="10.00">MojDbIdGenerator.cpp</text>
</a>
</g>
<!-- Node1&#45;&gt;Node23 -->
<g id="edge56" class="edge"><title>Node1&#45;&gt;Node23</title>
<path fill="none" stroke="midnightblue" d="M1434.47,-229.68C1469.88,-219.307 1518.36,-205.108 1551.08,-195.523"/>
<polygon fill="midnightblue" stroke="midnightblue" points="1433.47,-226.327 1424.86,-232.497 1435.44,-233.044 1433.47,-226.327"/>
</g>
<!-- Node24 -->
<g id="node53" class="node"><title>Node24</title>
<a xlink:href="MojDbIndex_8cpp.htm" target="_top" xlink:title="MojDbIndex.cpp">
<polygon fill="white" stroke="black" points="1667,-174.5 1667,-195.5 1759,-195.5 1759,-174.5 1667,-174.5"/>
<text text-anchor="middle" x="1713" y="-182.5" font-family="Helvetica,sans-Serif" font-size="10.00">MojDbIndex.cpp</text>
</a>
</g>
<!-- Node1&#45;&gt;Node24 -->
<g id="edge58" class="edge"><title>Node1&#45;&gt;Node24</title>
<path fill="none" stroke="midnightblue" d="M1462.05,-230.732C1516.2,-221.518 1591.79,-208.404 1658,-196 1660.87,-195.462 1663.83,-194.899 1666.8,-194.325"/>
<polygon fill="midnightblue" stroke="midnightblue" points="1461.13,-227.339 1451.86,-232.464 1462.3,-234.24 1461.13,-227.339"/>
</g>
<!-- Node25 -->
<g id="node55" class="node"><title>Node25</title>
<a xlink:href="MojDbIsamQuery_8cpp.htm" target="_top" xlink:title="MojDbIsamQuery.cpp">
<polygon fill="white" stroke="black" points="1776.5,-174.5 1776.5,-195.5 1893.5,-195.5 1893.5,-174.5 1776.5,-174.5"/>
<text text-anchor="middle" x="1835" y="-182.5" font-family="Helvetica,sans-Serif" font-size="10.00">MojDbIsamQuery.cpp</text>
</a>
</g>
<!-- Node1&#45;&gt;Node25 -->
<g id="edge60" class="edge"><title>Node1&#45;&gt;Node25</title>
<path fill="none" stroke="midnightblue" d="M1464.19,-234.559C1540.74,-225.758 1662.8,-211.153 1768,-196 1770.68,-195.613 1773.43,-195.208 1776.19,-194.789"/>
<polygon fill="midnightblue" stroke="midnightblue" points="1463.69,-231.093 1454.16,-235.709 1464.49,-238.047 1463.69,-231.093"/>
</g>
<!-- Node26 -->
<g id="node57" class="node"><title>Node26</title>
<a xlink:href="MojDbKey_8cpp.htm" target="_top" xlink:title="MojDbKey.cpp">
<polygon fill="white" stroke="black" points="1911,-174.5 1911,-195.5 1995,-195.5 1995,-174.5 1911,-174.5"/>
<text text-anchor="middle" x="1953" y="-182.5" font-family="Helvetica,sans-Serif" font-size="10.00">MojDbKey.cpp</text>
</a>
</g>
<!-- Node1&#45;&gt;Node26 -->
<g id="edge62" class="edge"><title>Node1&#45;&gt;Node26</title>
<path fill="none" stroke="midnightblue" d="M1464.13,-238.973C1564.39,-232.948 1747.3,-219.681 1902,-196 1904.87,-195.561 1907.81,-195.061 1910.77,-194.52"/>
<polygon fill="midnightblue" stroke="midnightblue" points="1463.87,-235.483 1454.09,-239.569 1464.28,-242.47 1463.87,-235.483"/>
</g>
<!-- Node27 -->
<g id="node59" class="node"><title>Node27</title>
<a xlink:href="MojDbKindState_8cpp.htm" target="_top" xlink:title="MojDbKindState.cpp">
<polygon fill="white" stroke="black" points="2013,-174.5 2013,-195.5 2125,-195.5 2125,-174.5 2013,-174.5"/>
<text text-anchor="middle" x="2069" y="-182.5" font-family="Helvetica,sans-Serif" font-size="10.00">MojDbKindState.cpp</text>
</a>
</g>
<!-- Node1&#45;&gt;Node27 -->
<g id="edge64" class="edge"><title>Node1&#45;&gt;Node27</title>
<path fill="none" stroke="midnightblue" d="M1464.49,-239.457C1580.7,-233.5 1810.29,-219.742 2004,-196 2006.84,-195.652 2009.75,-195.267 2012.68,-194.855"/>
<polygon fill="midnightblue" stroke="midnightblue" points="1464.09,-235.972 1454.28,-239.975 1464.44,-242.963 1464.09,-235.972"/>
</g>
<!-- Node28 -->
<g id="node61" class="node"><title>Node28</title>
<a xlink:href="MojDbQueryPlan_8cpp.htm" target="_top" xlink:title="MojDbQueryPlan.cpp">
<polygon fill="white" stroke="black" points="2143,-174.5 2143,-195.5 2259,-195.5 2259,-174.5 2143,-174.5"/>
<text text-anchor="middle" x="2201" y="-182.5" font-family="Helvetica,sans-Serif" font-size="10.00">MojDbQueryPlan.cpp</text>
</a>
</g>
<!-- Node1&#45;&gt;Node28 -->
<g id="edge66" class="edge"><title>Node1&#45;&gt;Node28</title>
<path fill="none" stroke="midnightblue" d="M1464.43,-240.728C1599.19,-236.116 1890.05,-223.651 2134,-196 2136.93,-195.668 2139.92,-195.296 2142.94,-194.895"/>
<polygon fill="midnightblue" stroke="midnightblue" points="1464.09,-237.237 1454.21,-241.073 1464.33,-244.233 1464.09,-237.237"/>
</g>
<!-- Node29 -->
<g id="node63" class="node"><title>Node29</title>
<a xlink:href="MojDbTextCollator_8cpp.htm" target="_top" xlink:title="MojDbTextCollator.cpp">
<polygon fill="white" stroke="black" points="2277,-174.5 2277,-195.5 2401,-195.5 2401,-174.5 2277,-174.5"/>
<text text-anchor="middle" x="2339" y="-182.5" font-family="Helvetica,sans-Serif" font-size="10.00">MojDbTextCollator.cpp</text>
</a>
</g>
<!-- Node1&#45;&gt;Node29 -->
<g id="edge68" class="edge"><title>Node1&#45;&gt;Node29</title>
<path fill="none" stroke="midnightblue" d="M1464.41,-241.515C1616.67,-237.954 1971.56,-226.81 2268,-196 2270.85,-195.703 2273.77,-195.371 2276.71,-195.013"/>
<polygon fill="midnightblue" stroke="midnightblue" points="1464.15,-238.019 1454.24,-241.748 1464.31,-245.018 1464.15,-238.019"/>
</g>
<!-- Node3 -->
<g id="node5" class="node"><title>Node3</title>
<a xlink:href="MojDbLevelItem_8h.htm" target="_top" xlink:title="MojDbLevelItem.h">
<polygon fill="white" stroke="black" points="422.5,-116.5 422.5,-137.5 523.5,-137.5 523.5,-116.5 422.5,-116.5"/>
<text text-anchor="middle" x="473" y="-124.5" font-family="Helvetica,sans-Serif" font-size="10.00">MojDbLevelItem.h</text>
</a>
</g>
<!-- Node2&#45;&gt;Node3 -->
<g id="edge4" class="edge"><title>Node2&#45;&gt;Node3</title>
<path fill="none" stroke="midnightblue" d="M751.469,-173.279C683.894,-162.048 583.58,-145.377 523.601,-135.409"/>
<polygon fill="midnightblue" stroke="midnightblue" points="751.169,-176.777 761.607,-174.963 752.316,-169.871 751.169,-176.777"/>
</g>
<!-- Node2&#45;&gt;Node6 -->
<g id="edge44" class="edge"><title>Node2&#45;&gt;Node6</title>
<path fill="none" stroke="midnightblue" d="M751.628,-180.91C596.285,-170.856 229.401,-141.175 123,-80 97.9108,-65.575 77.8058,-37.0552 68.179,-21.5825"/>
<polygon fill="midnightblue" stroke="midnightblue" points="751.793,-184.428 761.996,-181.572 752.239,-177.442 751.793,-184.428"/>
</g>
<!-- Node13 -->
<g id="node26" class="node"><title>Node13</title>
<a xlink:href="MojDbBerkeleyEngine_8h.htm" target="_top" xlink:title="MojDbBerkeleyEngine.h">
<polygon fill="white" stroke="black" points="757.5,-116.5 757.5,-137.5 886.5,-137.5 886.5,-116.5 757.5,-116.5"/>
<text text-anchor="middle" x="822" y="-124.5" font-family="Helvetica,sans-Serif" font-size="10.00">MojDbBerkeleyEngine.h</text>
</a>
</g>
<!-- Node2&#45;&gt;Node13 -->
<g id="edge26" class="edge"><title>Node2&#45;&gt;Node13</title>
<path fill="none" stroke="midnightblue" d="M822,-164.191C822,-155.168 822,-144.994 822,-137.571"/>
<polygon fill="midnightblue" stroke="midnightblue" points="818.5,-164.362 822,-174.362 825.5,-164.362 818.5,-164.362"/>
</g>
<!-- Node2&#45;&gt;Node15 -->
<g id="edge46" class="edge"><title>Node2&#45;&gt;Node15</title>
<path fill="none" stroke="midnightblue" d="M783.607,-169.696C770.173,-162.26 756.566,-151.869 749,-138 727.861,-99.2486 750.787,-44.4687 762.261,-21.6356"/>
<polygon fill="midnightblue" stroke="midnightblue" points="782.303,-172.96 792.803,-174.379 785.479,-166.722 782.303,-172.96"/>
</g>
<!-- Node2&#45;&gt;Node18 -->
<g id="edge40" class="edge"><title>Node2&#45;&gt;Node18</title>
<path fill="none" stroke="midnightblue" d="M884.893,-172.437C929.213,-163.386 989.886,-150.596 1043,-138 1045.79,-137.339 1048.67,-136.632 1051.56,-135.907"/>
<polygon fill="midnightblue" stroke="midnightblue" points="883.946,-169.058 874.845,-174.482 885.343,-175.917 883.946,-169.058"/>
</g>
<!-- Node19 -->
<g id="node40" class="node"><title>Node19</title>
<a xlink:href="MojDbObjectHeader_8cpp.htm" target="_top" xlink:title="MojDbObjectHeader.cpp">
<polygon fill="white" stroke="black" points="903.5,-116.5 903.5,-137.5 1034.5,-137.5 1034.5,-116.5 903.5,-116.5"/>
<text text-anchor="middle" x="969" y="-124.5" font-family="Helvetica,sans-Serif" font-size="10.00">MojDbObjectHeader.cpp</text>
</a>
</g>
<!-- Node2&#45;&gt;Node19 -->
<g id="edge42" class="edge"><title>Node2&#45;&gt;Node19</title>
<path fill="none" stroke="midnightblue" d="M858.114,-170.751C884.073,-160.509 918.512,-146.921 942.081,-137.621"/>
<polygon fill="midnightblue" stroke="midnightblue" points="856.638,-167.571 848.621,-174.497 859.207,-174.082 856.638,-167.571"/>
</g>
<!-- Node4 -->
<g id="node7" class="node"><title>Node4</title>
<a xlink:href="MojDbLevelQuery_8h.htm" target="_top" xlink:title="MojDbLevelQuery.h">
<polygon fill="white" stroke="black" points="285.5,-58.5 285.5,-79.5 394.5,-79.5 394.5,-58.5 285.5,-58.5"/>
<text text-anchor="middle" x="340" y="-66.5" font-family="Helvetica,sans-Serif" font-size="10.00">MojDbLevelQuery.h</text>
</a>
</g>
<!-- Node3&#45;&gt;Node4 -->
<g id="edge6" class="edge"><title>Node3&#45;&gt;Node4</title>
<path fill="none" stroke="midnightblue" d="M439.703,-112.479C416.29,-102.269 385.492,-88.8386 364.356,-79.6212"/>
<polygon fill="midnightblue" stroke="midnightblue" points="438.349,-115.707 448.915,-116.497 441.147,-109.291 438.349,-115.707"/>
</g>
<!-- Node9 -->
<g id="node17" class="node"><title>Node9</title>
<a xlink:href="MojDbLevelSeq_8h.htm" target="_top" xlink:title="MojDbLevelSeq.h">
<polygon fill="white" stroke="black" points="131.5,-58.5 131.5,-79.5 230.5,-79.5 230.5,-58.5 131.5,-58.5"/>
<text text-anchor="middle" x="181" y="-66.5" font-family="Helvetica,sans-Serif" font-size="10.00">MojDbLevelSeq.h</text>
</a>
</g>
<!-- Node3&#45;&gt;Node9 -->
<g id="edge16" class="edge"><title>Node3&#45;&gt;Node9</title>
<path fill="none" stroke="midnightblue" d="M412.392,-114.961C358.662,-104.289 281.14,-88.8907 230.911,-78.9138"/>
<polygon fill="midnightblue" stroke="midnightblue" points="411.981,-118.448 422.471,-116.963 413.344,-111.582 411.981,-118.448"/>
</g>
<!-- Node11 -->
<g id="node22" class="node"><title>Node11</title>
<a xlink:href="MojDbLevelCursor_8cpp.htm" target="_top" xlink:title="MojDbLevelCursor.cpp">
<polygon fill="white" stroke="black" points="411.5,-58.5 411.5,-79.5 534.5,-79.5 534.5,-58.5 411.5,-58.5"/>
<text text-anchor="middle" x="473" y="-66.5" font-family="Helvetica,sans-Serif" font-size="10.00">MojDbLevelCursor.cpp</text>
</a>
</g>
<!-- Node3&#45;&gt;Node11 -->
<g id="edge22" class="edge"><title>Node3&#45;&gt;Node11</title>
<path fill="none" stroke="midnightblue" d="M473,-106.191C473,-97.1684 473,-86.9941 473,-79.5707"/>
<polygon fill="midnightblue" stroke="midnightblue" points="469.5,-106.362 473,-116.362 476.5,-106.362 469.5,-106.362"/>
</g>
<!-- Node12 -->
<g id="node24" class="node"><title>Node12</title>
<a xlink:href="MojDbLevelItem_8cpp.htm" target="_top" xlink:title="MojDbLevelItem.cpp">
<polygon fill="white" stroke="black" points="552,-58.5 552,-79.5 664,-79.5 664,-58.5 552,-58.5"/>
<text text-anchor="middle" x="608" y="-66.5" font-family="Helvetica,sans-Serif" font-size="10.00">MojDbLevelItem.cpp</text>
</a>
</g>
<!-- Node3&#45;&gt;Node12 -->
<g id="edge24" class="edge"><title>Node3&#45;&gt;Node12</title>
<path fill="none" stroke="midnightblue" d="M506.798,-112.479C530.562,-102.269 561.824,-88.8386 583.278,-79.6212"/>
<polygon fill="midnightblue" stroke="midnightblue" points="505.254,-109.333 497.447,-116.497 508.017,-115.765 505.254,-109.333"/>
</g>
<!-- Node5 -->
<g id="node9" class="node"><title>Node5</title>
<a xlink:href="MojDbLevelDatabase_8cpp.htm" target="_top" xlink:title="MojDbLevelDatabase.cpp">
<polygon fill="white" stroke="black" points="543.5,-0.5 543.5,-21.5 680.5,-21.5 680.5,-0.5 543.5,-0.5"/>
<text text-anchor="middle" x="612" y="-8.5" font-family="Helvetica,sans-Serif" font-size="10.00">MojDbLevelDatabase.cpp</text>
</a>
</g>
<!-- Node4&#45;&gt;Node5 -->
<g id="edge8" class="edge"><title>Node4&#45;&gt;Node5</title>
<path fill="none" stroke="midnightblue" d="M399.069,-56.4045C447.97,-45.977 516.645,-31.333 562.65,-21.5231"/>
<polygon fill="midnightblue" stroke="midnightblue" points="398.307,-52.988 389.257,-58.4966 399.767,-59.8341 398.307,-52.988"/>
</g>
<!-- Node4&#45;&gt;Node6 -->
<g id="edge10" class="edge"><title>Node4&#45;&gt;Node6</title>
<path fill="none" stroke="midnightblue" d="M279.628,-56.4045C229.649,-45.977 159.458,-31.333 112.438,-21.5231"/>
<polygon fill="midnightblue" stroke="midnightblue" points="279.152,-59.8804 289.656,-58.4966 280.582,-53.028 279.152,-59.8804"/>
</g>
<!-- Node7 -->
<g id="node13" class="node"><title>Node7</title>
<a xlink:href="MojDbLevelIndex_8cpp.htm" target="_top" xlink:title="MojDbLevelIndex.cpp">
<polygon fill="white" stroke="black" points="408,-0.5 408,-21.5 526,-21.5 526,-0.5 408,-0.5"/>
<text text-anchor="middle" x="467" y="-8.5" font-family="Helvetica,sans-Serif" font-size="10.00">MojDbLevelIndex.cpp</text>
</a>
</g>
<!-- Node4&#45;&gt;Node7 -->
<g id="edge12" class="edge"><title>Node4&#45;&gt;Node7</title>
<path fill="none" stroke="midnightblue" d="M372.393,-54.2064C394.673,-44.031 423.74,-30.7567 443.743,-21.6212"/>
<polygon fill="midnightblue" stroke="midnightblue" points="370.641,-51.1587 362.999,-58.4966 373.549,-57.5261 370.641,-51.1587"/>
</g>
<!-- Node4&#45;&gt;Node8 -->
<g id="edge14" class="edge"><title>Node4&#45;&gt;Node8</title>
<path fill="none" stroke="midnightblue" d="M336.463,-48.4876C334.895,-39.3924 333.116,-29.0756 331.823,-21.5707"/>
<polygon fill="midnightblue" stroke="midnightblue" points="333.018,-49.102 338.166,-58.3619 339.916,-47.9126 333.018,-49.102"/>
</g>
<!-- Node9&#45;&gt;Node6 -->
<g id="edge18" class="edge"><title>Node9&#45;&gt;Node6</title>
<path fill="none" stroke="midnightblue" d="M150.366,-54.0693C129.526,-43.9121 102.451,-30.7157 83.7918,-21.6212"/>
<polygon fill="midnightblue" stroke="midnightblue" points="148.927,-57.2615 159.45,-58.4966 151.994,-50.9691 148.927,-57.2615"/>
</g>
<!-- Node10 -->
<g id="node20" class="node"><title>Node10</title>
<a xlink:href="MojDbLevelSeq_8cpp.htm" target="_top" xlink:title="MojDbLevelSeq.cpp">
<polygon fill="white" stroke="black" points="142,-0.5 142,-21.5 252,-21.5 252,-0.5 142,-0.5"/>
<text text-anchor="middle" x="197" y="-8.5" font-family="Helvetica,sans-Serif" font-size="10.00">MojDbLevelSeq.cpp</text>
</a>
</g>
<!-- Node9&#45;&gt;Node10 -->
<g id="edge20" class="edge"><title>Node9&#45;&gt;Node10</title>
<path fill="none" stroke="midnightblue" d="M186.659,-48.4876C189.168,-39.3924 192.014,-29.0756 194.084,-21.5707"/>
<polygon fill="midnightblue" stroke="midnightblue" points="183.22,-47.7912 183.935,-58.3619 189.968,-49.6528 183.22,-47.7912"/>
</g>
<!-- Node14 -->
<g id="node28" class="node"><title>Node14</title>
<a xlink:href="MojDbBerkeleyQuery_8h.htm" target="_top" xlink:title="MojDbBerkeleyQuery.h">
<polygon fill="white" stroke="black" points="955.5,-58.5 955.5,-79.5 1080.5,-79.5 1080.5,-58.5 955.5,-58.5"/>
<text text-anchor="middle" x="1018" y="-66.5" font-family="Helvetica,sans-Serif" font-size="10.00">MojDbBerkeleyQuery.h</text>
</a>
</g>
<!-- Node13&#45;&gt;Node14 -->
<g id="edge28" class="edge"><title>Node13&#45;&gt;Node14</title>
<path fill="none" stroke="midnightblue" d="M867.464,-113.546C902.476,-103.186 950.188,-89.0668 982.439,-79.5231"/>
<polygon fill="midnightblue" stroke="midnightblue" points="866.09,-110.303 857.494,-116.497 868.076,-117.015 866.09,-110.303"/>
</g>
<!-- Node13&#45;&gt;Node15 -->
<g id="edge34" class="edge"><title>Node13&#45;&gt;Node15</title>
<path fill="none" stroke="midnightblue" d="M805.598,-108.352C799.044,-100.118 791.905,-90.0412 787,-80 777.511,-60.5743 772.143,-35.6791 769.679,-21.7237"/>
<polygon fill="midnightblue" stroke="midnightblue" points="803.018,-110.725 812.097,-116.187 808.406,-106.255 803.018,-110.725"/>
</g>
<!-- Node13&#45;&gt;Node16 -->
<g id="edge38" class="edge"><title>Node13&#45;&gt;Node16</title>
<path fill="none" stroke="midnightblue" d="M897.068,-114.775C974.775,-101.975 1085.4,-83.2775 1089,-80 1105.54,-64.9498 1108.22,-36.9514 1108.34,-21.6538"/>
<polygon fill="midnightblue" stroke="midnightblue" points="896.112,-111.385 886.813,-116.462 897.248,-118.293 896.112,-111.385"/>
</g>
<!-- Node17 -->
<g id="node35" class="node"><title>Node17</title>
<a xlink:href="MojDbBerkeleyFactory_8cpp.htm" target="_top" xlink:title="MojDbBerkeleyFactory.cpp">
<polygon fill="white" stroke="black" points="795.5,-58.5 795.5,-79.5 938.5,-79.5 938.5,-58.5 795.5,-58.5"/>
<text text-anchor="middle" x="867" y="-66.5" font-family="Helvetica,sans-Serif" font-size="10.00">MojDbBerkeleyFactory.cpp</text>
</a>
</g>
<!-- Node13&#45;&gt;Node17 -->
<g id="edge36" class="edge"><title>Node13&#45;&gt;Node17</title>
<path fill="none" stroke="midnightblue" d="M836.547,-108.25C843.918,-98.75 852.596,-87.5651 858.799,-79.5707"/>
<polygon fill="midnightblue" stroke="midnightblue" points="833.618,-106.316 830.254,-116.362 839.149,-110.607 833.618,-106.316"/>
</g>
<!-- Node14&#45;&gt;Node15 -->
<g id="edge30" class="edge"><title>Node14&#45;&gt;Node15</title>
<path fill="none" stroke="midnightblue" d="M962.862,-56.2081C917.973,-45.7938 855.378,-31.2716 813.358,-21.5231"/>
<polygon fill="midnightblue" stroke="midnightblue" points="962.195,-59.646 972.727,-58.4966 963.777,-52.8271 962.195,-59.646"/>
</g>
<!-- Node14&#45;&gt;Node16 -->
<g id="edge32" class="edge"><title>Node14&#45;&gt;Node16</title>
<path fill="none" stroke="midnightblue" d="M1043.1,-52.8215C1058.61,-42.8312 1078.05,-30.2993 1091.6,-21.5707"/>
<polygon fill="midnightblue" stroke="midnightblue" points="1041.02,-50.0028 1034.51,-58.3619 1044.81,-55.8869 1041.02,-50.0028"/>
</g>
</g>
</svg>
