<?xml version="1.0" encoding="UTF-8" standalone="no"?>
<!DOCTYPE svg PUBLIC "-//W3C//DTD SVG 1.1//EN"
 "http://www.w3.org/Graphics/SVG/1.1/DTD/svg11.dtd">
<!-- Generated by graphviz version 2.26.3 (20100126.1600)
 -->
<!-- Title: MojObjectFilter.cpp Pages: 1 -->
<svg width="1258pt" height="812pt"
 viewBox="0.00 0.00 1258.00 812.00" xmlns="http://www.w3.org/2000/svg" xmlns:xlink="http://www.w3.org/1999/xlink">
<g id="graph1" class="graph" transform="scale(1 1) rotate(0) translate(4 808)">
<title>MojObjectFilter.cpp</title>
<polygon fill="white" stroke="white" points="-4,5 -4,-808 1255,-808 1255,5 -4,5"/>
<!-- Node1 -->
<g id="node1" class="node"><title>Node1</title>
<polygon fill="#bfbfbf" stroke="black" points="683.5,-782.5 683.5,-803.5 790.5,-803.5 790.5,-782.5 683.5,-782.5"/>
<text text-anchor="middle" x="737" y="-790.5" font-family="Helvetica,sans-Serif" font-size="10.00">MojObjectFilter.cpp</text>
</g>
<!-- Node2 -->
<g id="node3" class="node"><title>Node2</title>
<a xlink:href="MojObjectFilter_8h.htm" target="_top" xlink:title="core/MojObjectFilter.h">
<polygon fill="white" stroke="black" points="677.5,-724.5 677.5,-745.5 796.5,-745.5 796.5,-724.5 677.5,-724.5"/>
<text text-anchor="middle" x="737" y="-732.5" font-family="Helvetica,sans-Serif" font-size="10.00">core/MojObjectFilter.h</text>
</a>
</g>
<!-- Node1&#45;&gt;Node2 -->
<g id="edge2" class="edge"><title>Node1&#45;&gt;Node2</title>
<path fill="none" stroke="midnightblue" d="M737,-782.362C737,-774.922 737,-764.743 737,-755.728"/>
<polygon fill="midnightblue" stroke="midnightblue" points="740.5,-755.571 737,-745.571 733.5,-755.571 740.5,-755.571"/>
</g>
<!-- Node3 -->
<g id="node5" class="node"><title>Node3</title>
<a xlink:href="MojObject_8h.htm" target="_top" xlink:title="MojObject.h">
<polygon fill="white" stroke="black" points="547,-666.5 547,-687.5 619,-687.5 619,-666.5 547,-666.5"/>
<text text-anchor="middle" x="583" y="-674.5" font-family="Helvetica,sans-Serif" font-size="10.00">MojObject.h</text>
</a>
</g>
<!-- Node2&#45;&gt;Node3 -->
<g id="edge4" class="edge"><title>Node2&#45;&gt;Node3</title>
<path fill="none" stroke="midnightblue" d="M709.112,-724.497C684.332,-715.164 647.905,-701.445 620.564,-691.147"/>
<polygon fill="midnightblue" stroke="midnightblue" points="621.532,-687.772 610.941,-687.523 619.065,-694.323 621.532,-687.772"/>
</g>
<!-- Node24 -->
<g id="node57" class="node"><title>Node24</title>
<a xlink:href="MojString_8h.htm" target="_top" xlink:title="core/MojString.h">
<polygon fill="white" stroke="black" points="690,-608.5 690,-629.5 784,-629.5 784,-608.5 690,-608.5"/>
<text text-anchor="middle" x="737" y="-616.5" font-family="Helvetica,sans-Serif" font-size="10.00">core/MojString.h</text>
</a>
</g>
<!-- Node2&#45;&gt;Node24 -->
<g id="edge110" class="edge"><title>Node2&#45;&gt;Node24</title>
<path fill="none" stroke="midnightblue" d="M737,-724.295C737,-705.131 737,-664.654 737,-639.843"/>
<polygon fill="midnightblue" stroke="midnightblue" points="740.5,-639.679 737,-629.679 733.5,-639.679 740.5,-639.679"/>
</g>
<!-- Node29 -->
<g id="node79" class="node"><title>Node29</title>
<a xlink:href="MojSet_8h.htm" target="_top" xlink:title="core/MojSet.h">
<polygon fill="white" stroke="black" points="911,-492.5 911,-513.5 993,-513.5 993,-492.5 911,-492.5"/>
<text text-anchor="middle" x="952" y="-500.5" font-family="Helvetica,sans-Serif" font-size="10.00">core/MojSet.h</text>
</a>
</g>
<!-- Node2&#45;&gt;Node29 -->
<g id="edge100" class="edge"><title>Node2&#45;&gt;Node29</title>
<path fill="none" stroke="midnightblue" d="M746.797,-724.429C780.585,-687.969 892.513,-567.191 935.231,-521.095"/>
<polygon fill="midnightblue" stroke="midnightblue" points="937.916,-523.347 942.146,-513.634 932.781,-518.589 937.916,-523.347"/>
</g>
<!-- Node4 -->
<g id="node7" class="node"><title>Node4</title>
<a xlink:href="MojCoreDefs_8h.htm" target="_top" xlink:title="core/MojCoreDefs.h">
<polygon fill="white" stroke="black" points="506.5,-232.5 506.5,-253.5 617.5,-253.5 617.5,-232.5 506.5,-232.5"/>
<text text-anchor="middle" x="562" y="-240.5" font-family="Helvetica,sans-Serif" font-size="10.00">core/MojCoreDefs.h</text>
</a>
</g>
<!-- Node3&#45;&gt;Node4 -->
<g id="edge6" class="edge"><title>Node3&#45;&gt;Node4</title>
<path fill="none" stroke="midnightblue" d="M546.971,-673.684C419.864,-661.509 0,-617.05 0,-561 0,-561 0,-561 0,-373 0,-324.743 27.2571,-312.399 70,-290 106.869,-270.679 370.522,-253.644 495.977,-246.531"/>
<polygon fill="midnightblue" stroke="midnightblue" points="496.434,-250.011 506.222,-245.955 496.041,-243.022 496.434,-250.011"/>
</g>
<!-- Node14 -->
<g id="node27" class="node"><title>Node14</title>
<a xlink:href="MojDecimal_8h.htm" target="_top" xlink:title="core/MojDecimal.h">
<polygon fill="white" stroke="black" points="64,-550.5 64,-571.5 168,-571.5 168,-550.5 64,-550.5"/>
<text text-anchor="middle" x="116" y="-558.5" font-family="Helvetica,sans-Serif" font-size="10.00">core/MojDecimal.h</text>
</a>
</g>
<!-- Node3&#45;&gt;Node14 -->
<g id="edge26" class="edge"><title>Node3&#45;&gt;Node14</title>
<path fill="none" stroke="midnightblue" d="M546.744,-667.994C464.573,-647.583 263.9,-597.738 168.299,-573.991"/>
<polygon fill="midnightblue" stroke="midnightblue" points="169.103,-570.584 158.554,-571.57 167.415,-577.378 169.103,-570.584"/>
</g>
<!-- Node19 -->
<g id="node41" class="node"><title>Node19</title>
<a xlink:href="MojMap_8h.htm" target="_top" xlink:title="core/MojMap.h">
<polygon fill="white" stroke="black" points="651.5,-492.5 651.5,-513.5 738.5,-513.5 738.5,-492.5 651.5,-492.5"/>
<text text-anchor="middle" x="695" y="-500.5" font-family="Helvetica,sans-Serif" font-size="10.00">core/MojMap.h</text>
</a>
</g>
<!-- Node3&#45;&gt;Node19 -->
<g id="edge44" class="edge"><title>Node3&#45;&gt;Node19</title>
<path fill="none" stroke="midnightblue" d="M589.838,-666.377C608.149,-637.93 658.514,-559.684 682.275,-522.769"/>
<polygon fill="midnightblue" stroke="midnightblue" points="685.497,-524.231 687.966,-513.928 679.611,-520.442 685.497,-524.231"/>
</g>
<!-- Node3&#45;&gt;Node24 -->
<g id="edge66" class="edge"><title>Node3&#45;&gt;Node24</title>
<path fill="none" stroke="midnightblue" d="M610.888,-666.497C635.668,-657.164 672.095,-643.445 699.436,-633.147"/>
<polygon fill="midnightblue" stroke="midnightblue" points="700.935,-636.323 709.059,-629.523 698.468,-629.772 700.935,-636.323"/>
</g>
<!-- Node25 -->
<g id="node63" class="node"><title>Node25</title>
<a xlink:href="MojVector_8h.htm" target="_top" xlink:title="core/MojVector.h">
<polygon fill="white" stroke="black" points="334.5,-550.5 334.5,-571.5 431.5,-571.5 431.5,-550.5 334.5,-550.5"/>
<text text-anchor="middle" x="383" y="-558.5" font-family="Helvetica,sans-Serif" font-size="10.00">core/MojVector.h</text>
</a>
</g>
<!-- Node3&#45;&gt;Node25 -->
<g id="edge98" class="edge"><title>Node3&#45;&gt;Node25</title>
<path fill="none" stroke="midnightblue" d="M564.543,-666.295C529.031,-645.698 451.069,-600.48 409.819,-576.555"/>
<polygon fill="midnightblue" stroke="midnightblue" points="411.53,-573.501 401.124,-571.512 408.018,-579.557 411.53,-573.501"/>
</g>
<!-- Node5 -->
<g id="node9" class="node"><title>Node5</title>
<a xlink:href="MojConfig_8h.htm" target="_top" xlink:title="core/internal/MojConfig.h">
<polygon fill="white" stroke="black" points="717.5,-174.5 717.5,-195.5 852.5,-195.5 852.5,-174.5 717.5,-174.5"/>
<text text-anchor="middle" x="785" y="-182.5" font-family="Helvetica,sans-Serif" font-size="10.00">core/internal/MojConfig.h</text>
</a>
</g>
<!-- Node4&#45;&gt;Node5 -->
<g id="edge8" class="edge"><title>Node4&#45;&gt;Node5</title>
<path fill="none" stroke="midnightblue" d="M602.384,-232.497C639.526,-222.836 694.737,-208.477 734.723,-198.077"/>
<polygon fill="midnightblue" stroke="midnightblue" points="735.744,-201.428 744.541,-195.523 733.982,-194.653 735.744,-201.428"/>
</g>
<!-- Node6 -->
<g id="node11" class="node"><title>Node6</title>
<a xlink:href="MojNew_8h.htm" target="_top" xlink:title="core/internal/MojNew.h">
<polygon fill="white" stroke="black" points="379.5,-174.5 379.5,-195.5 504.5,-195.5 504.5,-174.5 379.5,-174.5"/>
<text text-anchor="middle" x="442" y="-182.5" font-family="Helvetica,sans-Serif" font-size="10.00">core/internal/MojNew.h</text>
</a>
</g>
<!-- Node4&#45;&gt;Node6 -->
<g id="edge10" class="edge"><title>Node4&#45;&gt;Node6</title>
<path fill="none" stroke="midnightblue" d="M540.269,-232.497C521.526,-223.438 494.233,-210.246 473.164,-200.063"/>
<polygon fill="midnightblue" stroke="midnightblue" points="474.502,-196.822 463.975,-195.621 471.455,-203.124 474.502,-196.822"/>
</g>
<!-- Node8 -->
<g id="node15" class="node"><title>Node8</title>
<a xlink:href="MojErr_8h.htm" target="_top" xlink:title="core/MojErr.h">
<polygon fill="white" stroke="black" points="522,-174.5 522,-195.5 602,-195.5 602,-174.5 522,-174.5"/>
<text text-anchor="middle" x="562" y="-182.5" font-family="Helvetica,sans-Serif" font-size="10.00">core/MojErr.h</text>
</a>
</g>
<!-- Node4&#45;&gt;Node8 -->
<g id="edge14" class="edge"><title>Node4&#45;&gt;Node8</title>
<path fill="none" stroke="midnightblue" d="M562,-232.362C562,-224.922 562,-214.743 562,-205.728"/>
<polygon fill="midnightblue" stroke="midnightblue" points="565.5,-205.571 562,-195.571 558.5,-205.571 565.5,-205.571"/>
</g>
<!-- Node12 -->
<g id="node23" class="node"><title>Node12</title>
<a xlink:href="MojOs_8h.htm" target="_top" xlink:title="core/MojOs.h">
<polygon fill="white" stroke="black" points="620,-174.5 620,-195.5 700,-195.5 700,-174.5 620,-174.5"/>
<text text-anchor="middle" x="660" y="-182.5" font-family="Helvetica,sans-Serif" font-size="10.00">core/MojOs.h</text>
</a>
</g>
<!-- Node4&#45;&gt;Node12 -->
<g id="edge22" class="edge"><title>Node4&#45;&gt;Node12</title>
<path fill="none" stroke="midnightblue" d="M579.975,-232.362C594.894,-223.532 616.333,-210.844 633.266,-200.822"/>
<polygon fill="midnightblue" stroke="midnightblue" points="635.316,-203.676 642.139,-195.571 631.751,-197.652 635.316,-203.676"/>
</g>
<!-- Node7 -->
<g id="node13" class="node"><title>Node7</title>
<polygon fill="white" stroke="#bfbfbf" points="424,-116.5 424,-137.5 460,-137.5 460,-116.5 424,-116.5"/>
<text text-anchor="middle" x="442" y="-124.5" font-family="Helvetica,sans-Serif" font-size="10.00">new</text>
</g>
<!-- Node6&#45;&gt;Node7 -->
<g id="edge12" class="edge"><title>Node6&#45;&gt;Node7</title>
<path fill="none" stroke="midnightblue" d="M442,-174.362C442,-166.922 442,-156.743 442,-147.728"/>
<polygon fill="midnightblue" stroke="midnightblue" points="445.5,-147.571 442,-137.571 438.5,-147.571 445.5,-147.571"/>
</g>
<!-- Node9 -->
<g id="node17" class="node"><title>Node9</title>
<a xlink:href="MojLog_8h.htm" target="_top" xlink:title="core/MojLog.h">
<polygon fill="white" stroke="black" points="520,-116.5 520,-137.5 604,-137.5 604,-116.5 520,-116.5"/>
<text text-anchor="middle" x="562" y="-124.5" font-family="Helvetica,sans-Serif" font-size="10.00">core/MojLog.h</text>
</a>
</g>
<!-- Node8&#45;&gt;Node9 -->
<g id="edge16" class="edge"><title>Node8&#45;&gt;Node9</title>
<path fill="none" stroke="midnightblue" d="M562,-174.362C562,-166.922 562,-156.743 562,-147.728"/>
<polygon fill="midnightblue" stroke="midnightblue" points="565.5,-147.571 562,-137.571 558.5,-147.571 565.5,-147.571"/>
</g>
<!-- Node10 -->
<g id="node19" class="node"><title>Node10</title>
<a xlink:href="MojListEntry_8h.htm" target="_top" xlink:title="core/MojListEntry.h">
<polygon fill="white" stroke="black" points="682.5,-58.5 682.5,-79.5 789.5,-79.5 789.5,-58.5 682.5,-58.5"/>
<text text-anchor="middle" x="736" y="-66.5" font-family="Helvetica,sans-Serif" font-size="10.00">core/MojListEntry.h</text>
</a>
</g>
<!-- Node9&#45;&gt;Node10 -->
<g id="edge18" class="edge"><title>Node9&#45;&gt;Node10</title>
<path fill="none" stroke="midnightblue" d="M593.51,-116.497C621.877,-107.041 663.751,-93.0829 694.772,-82.7428"/>
<polygon fill="midnightblue" stroke="midnightblue" points="696.051,-86.0058 704.431,-79.5231 693.837,-79.365 696.051,-86.0058"/>
</g>
<!-- Node11 -->
<g id="node21" class="node"><title>Node11</title>
<a xlink:href="MojNoCopy_8h.htm" target="_top" xlink:title="core/MojNoCopy.h">
<polygon fill="white" stroke="black" points="811,-0.5 811,-21.5 915,-21.5 915,-0.5 811,-0.5"/>
<text text-anchor="middle" x="863" y="-8.5" font-family="Helvetica,sans-Serif" font-size="10.00">core/MojNoCopy.h</text>
</a>
</g>
<!-- Node10&#45;&gt;Node11 -->
<g id="edge20" class="edge"><title>Node10&#45;&gt;Node11</title>
<path fill="none" stroke="midnightblue" d="M758.999,-58.4966C779.013,-49.3562 808.241,-36.0082 830.619,-25.7883"/>
<polygon fill="midnightblue" stroke="midnightblue" points="832.101,-28.9592 839.743,-21.6212 829.193,-22.5918 832.101,-28.9592"/>
</g>
<!-- Node13 -->
<g id="node25" class="node"><title>Node13</title>
<a xlink:href="MojOsInternal_8h.htm" target="_top" xlink:title="core/internal/MojOsInternal.h">
<polygon fill="white" stroke="black" points="622,-116.5 622,-137.5 776,-137.5 776,-116.5 622,-116.5"/>
<text text-anchor="middle" x="699" y="-124.5" font-family="Helvetica,sans-Serif" font-size="10.00">core/internal/MojOsInternal.h</text>
</a>
</g>
<!-- Node12&#45;&gt;Node13 -->
<g id="edge24" class="edge"><title>Node12&#45;&gt;Node13</title>
<path fill="none" stroke="midnightblue" d="M667.153,-174.362C672.486,-166.431 679.911,-155.389 686.251,-145.961"/>
<polygon fill="midnightblue" stroke="midnightblue" points="689.217,-147.822 691.892,-137.571 683.408,-143.916 689.217,-147.822"/>
</g>
<!-- Node14&#45;&gt;Node4 -->
<g id="edge28" class="edge"><title>Node14&#45;&gt;Node4</title>
<path fill="none" stroke="midnightblue" d="M97.0257,-550.47C83.8723,-542.211 66.9885,-529.53 57,-514 38.166,-484.716 38,-472.817 38,-438 38,-438 38,-438 38,-373 38,-279.615 355.473,-252.844 496.194,-245.565"/>
<polygon fill="midnightblue" stroke="midnightblue" points="496.606,-249.049 506.419,-245.054 496.257,-242.058 496.606,-249.049"/>
</g>
<!-- Node15 -->
<g id="node30" class="node"><title>Node15</title>
<a xlink:href="MojHasher_8h.htm" target="_top" xlink:title="core/MojHasher.h">
<polygon fill="white" stroke="black" points="65.5,-492.5 65.5,-513.5 166.5,-513.5 166.5,-492.5 65.5,-492.5"/>
<text text-anchor="middle" x="116" y="-500.5" font-family="Helvetica,sans-Serif" font-size="10.00">core/MojHasher.h</text>
</a>
</g>
<!-- Node14&#45;&gt;Node15 -->
<g id="edge30" class="edge"><title>Node14&#45;&gt;Node15</title>
<path fill="none" stroke="midnightblue" d="M116,-550.362C116,-542.922 116,-532.743 116,-523.728"/>
<polygon fill="midnightblue" stroke="midnightblue" points="119.5,-523.571 116,-513.571 112.5,-523.571 119.5,-523.571"/>
</g>
<!-- Node15&#45;&gt;Node4 -->
<g id="edge32" class="edge"><title>Node15&#45;&gt;Node4</title>
<path fill="none" stroke="midnightblue" d="M120.943,-492.337C138.028,-456.791 198.384,-341.682 286,-290 320.716,-269.522 426.284,-255.852 496.334,-248.763"/>
<polygon fill="midnightblue" stroke="midnightblue" points="496.793,-252.234 506.399,-247.764 496.103,-245.268 496.793,-252.234"/>
</g>
<!-- Node16 -->
<g id="node33" class="node"><title>Node16</title>
<a xlink:href="MojUtil_8h.htm" target="_top" xlink:title="core/MojUtil.h">
<polygon fill="white" stroke="black" points="233.5,-427.5 233.5,-448.5 314.5,-448.5 314.5,-427.5 233.5,-427.5"/>
<text text-anchor="middle" x="274" y="-435.5" font-family="Helvetica,sans-Serif" font-size="10.00">core/MojUtil.h</text>
</a>
</g>
<!-- Node15&#45;&gt;Node16 -->
<g id="edge34" class="edge"><title>Node15&#45;&gt;Node16</title>
<path fill="none" stroke="midnightblue" d="M141.737,-492.412C168.134,-481.552 209.382,-464.583 238.792,-452.484"/>
<polygon fill="midnightblue" stroke="midnightblue" points="240.358,-455.625 248.274,-448.584 237.694,-449.151 240.358,-455.625"/>
</g>
<!-- Node16&#45;&gt;Node4 -->
<g id="edge36" class="edge"><title>Node16&#45;&gt;Node4</title>
<path fill="none" stroke="midnightblue" d="M273.364,-427.133C272.4,-399.677 273.967,-327.075 314,-290 339.979,-265.94 431.986,-253.527 496.306,-247.644"/>
<polygon fill="midnightblue" stroke="midnightblue" points="496.724,-251.121 506.377,-246.756 496.108,-244.148 496.724,-251.121"/>
</g>
<!-- Node17 -->
<g id="node36" class="node"><title>Node17</title>
<a xlink:href="MojUtilInternal_8h.htm" target="_top" xlink:title="core/internal/MojUtilInternal.h">
<polygon fill="white" stroke="black" points="355.5,-362.5 355.5,-383.5 510.5,-383.5 510.5,-362.5 355.5,-362.5"/>
<text text-anchor="middle" x="433" y="-370.5" font-family="Helvetica,sans-Serif" font-size="10.00">core/internal/MojUtilInternal.h</text>
</a>
</g>
<!-- Node16&#45;&gt;Node17 -->
<g id="edge38" class="edge"><title>Node16&#45;&gt;Node17</title>
<path fill="none" stroke="midnightblue" d="M299.9,-427.412C326.464,-416.552 367.973,-399.583 397.57,-387.484"/>
<polygon fill="midnightblue" stroke="midnightblue" points="399.179,-390.607 407.111,-383.584 396.53,-384.128 399.179,-390.607"/>
</g>
<!-- Node18 -->
<g id="node38" class="node"><title>Node18</title>
<a xlink:href="MojComp_8h.htm" target="_top" xlink:title="core/MojComp.h">
<polygon fill="white" stroke="black" points="478,-297.5 478,-318.5 572,-318.5 572,-297.5 478,-297.5"/>
<text text-anchor="middle" x="525" y="-305.5" font-family="Helvetica,sans-Serif" font-size="10.00">core/MojComp.h</text>
</a>
</g>
<!-- Node17&#45;&gt;Node18 -->
<g id="edge40" class="edge"><title>Node17&#45;&gt;Node18</title>
<path fill="none" stroke="midnightblue" d="M448.192,-362.267C462.795,-351.949 485.063,-336.216 501.87,-324.342"/>
<polygon fill="midnightblue" stroke="midnightblue" points="503.943,-327.163 510.091,-318.534 499.904,-321.446 503.943,-327.163"/>
</g>
<!-- Node18&#45;&gt;Node4 -->
<g id="edge42" class="edge"><title>Node18&#45;&gt;Node4</title>
<path fill="none" stroke="midnightblue" d="M531.11,-297.267C536.498,-287.801 544.481,-273.777 550.981,-262.357"/>
<polygon fill="midnightblue" stroke="midnightblue" points="554.099,-263.956 556.004,-253.534 548.015,-260.493 554.099,-263.956"/>
</g>
<!-- Node19&#45;&gt;Node4 -->
<g id="edge46" class="edge"><title>Node19&#45;&gt;Node4</title>
<path fill="none" stroke="midnightblue" d="M689.622,-492.486C669.529,-453.208 598.67,-314.687 572.134,-262.81"/>
<polygon fill="midnightblue" stroke="midnightblue" points="575.116,-260.954 567.445,-253.645 568.884,-264.142 575.116,-260.954"/>
</g>
<!-- Node19&#45;&gt;Node18 -->
<g id="edge48" class="edge"><title>Node19&#45;&gt;Node18</title>
<path fill="none" stroke="midnightblue" d="M678.713,-492.332C666.386,-483.652 649.646,-470.5 638,-456 608.625,-419.427 619.308,-398.627 590,-362 578.496,-347.623 562.649,-334.364 549.482,-324.582"/>
<polygon fill="midnightblue" stroke="midnightblue" points="551.448,-321.685 541.289,-318.679 547.356,-327.364 551.448,-321.685"/>
</g>
<!-- Node20 -->
<g id="node45" class="node"><title>Node20</title>
<a xlink:href="MojRbTreeBase_8h.htm" target="_top" xlink:title="core/internal/MojRbTreeBase.h">
<polygon fill="white" stroke="black" points="870,-427.5 870,-448.5 1034,-448.5 1034,-427.5 870,-427.5"/>
<text text-anchor="middle" x="952" y="-435.5" font-family="Helvetica,sans-Serif" font-size="10.00">core/internal/MojRbTreeBase.h</text>
</a>
</g>
<!-- Node19&#45;&gt;Node20 -->
<g id="edge50" class="edge"><title>Node19&#45;&gt;Node20</title>
<path fill="none" stroke="midnightblue" d="M736.577,-492.484C781.273,-481.18 852.383,-463.195 900.566,-451.008"/>
<polygon fill="midnightblue" stroke="midnightblue" points="901.646,-454.346 910.483,-448.501 899.93,-447.559 901.646,-454.346"/>
</g>
<!-- Node20&#45;&gt;Node4 -->
<g id="edge52" class="edge"><title>Node20&#45;&gt;Node4</title>
<path fill="none" stroke="midnightblue" d="M958.17,-427.438C972.898,-400.698 1006.34,-329.637 971,-290 948.622,-264.903 738.145,-251.307 628.195,-245.864"/>
<polygon fill="midnightblue" stroke="midnightblue" points="628.036,-242.352 617.878,-245.363 627.696,-249.344 628.036,-242.352"/>
</g>
<!-- Node21 -->
<g id="node48" class="node"><title>Node21</title>
<a xlink:href="MojAutoPtr_8h.htm" target="_top" xlink:title="core/MojAutoPtr.h">
<polygon fill="white" stroke="black" points="793.5,-362.5 793.5,-383.5 894.5,-383.5 894.5,-362.5 793.5,-362.5"/>
<text text-anchor="middle" x="844" y="-370.5" font-family="Helvetica,sans-Serif" font-size="10.00">core/MojAutoPtr.h</text>
</a>
</g>
<!-- Node20&#45;&gt;Node21 -->
<g id="edge54" class="edge"><title>Node20&#45;&gt;Node21</title>
<path fill="none" stroke="midnightblue" d="M934.166,-427.267C916.709,-416.76 889.92,-400.637 870.074,-388.692"/>
<polygon fill="midnightblue" stroke="midnightblue" points="871.875,-385.692 861.502,-383.534 868.265,-391.689 871.875,-385.692"/>
</g>
<!-- Node21&#45;&gt;Node4 -->
<g id="edge56" class="edge"><title>Node21&#45;&gt;Node4</title>
<path fill="none" stroke="midnightblue" d="M838.975,-362.408C829.883,-344.464 808.926,-308.262 780,-290 754.997,-274.215 682.224,-260.535 627.585,-252.067"/>
<polygon fill="midnightblue" stroke="midnightblue" points="628.023,-248.593 617.61,-250.547 626.968,-255.513 628.023,-248.593"/>
</g>
<!-- Node21&#45;&gt;Node11 -->
<g id="edge62" class="edge"><title>Node21&#45;&gt;Node11</title>
<path fill="none" stroke="midnightblue" d="M894.814,-365.945C921.119,-359.71 951.685,-347.992 971,-326 995.973,-297.567 990,-280.843 990,-243 990,-243 990,-243 990,-127 990,-77.586 936.936,-43.5862 899.409,-25.7196"/>
<polygon fill="midnightblue" stroke="midnightblue" points="900.794,-22.5045 890.245,-21.5253 897.881,-28.8695 900.794,-22.5045"/>
</g>
<!-- Node22 -->
<g id="node51" class="node"><title>Node22</title>
<a xlink:href="MojAtomicInt_8h.htm" target="_top" xlink:title="core/MojAtomicInt.h">
<polygon fill="white" stroke="black" points="628,-297.5 628,-318.5 738,-318.5 738,-297.5 628,-297.5"/>
<text text-anchor="middle" x="683" y="-305.5" font-family="Helvetica,sans-Serif" font-size="10.00">core/MojAtomicInt.h</text>
</a>
</g>
<!-- Node21&#45;&gt;Node22 -->
<g id="edge58" class="edge"><title>Node21&#45;&gt;Node22</title>
<path fill="none" stroke="midnightblue" d="M817.774,-362.412C790.876,-351.552 748.845,-334.583 718.876,-322.484"/>
<polygon fill="midnightblue" stroke="midnightblue" points="719.798,-319.082 709.215,-318.584 717.177,-325.573 719.798,-319.082"/>
</g>
<!-- Node23 -->
<g id="node55" class="node"><title>Node23</title>
<a xlink:href="MojAutoPtrInternal_8h.htm" target="_top" xlink:title="core/internal/MojAutoPtr\lInternal.h">
<polygon fill="white" stroke="black" points="831.5,-291 831.5,-325 962.5,-325 962.5,-291 831.5,-291"/>
<text text-anchor="start" x="839.5" y="-312" font-family="Helvetica,sans-Serif" font-size="10.00">core/internal/MojAutoPtr</text>
<text text-anchor="middle" x="897" y="-299" font-family="Helvetica,sans-Serif" font-size="10.00">Internal.h</text>
</a>
</g>
<!-- Node21&#45;&gt;Node23 -->
<g id="edge64" class="edge"><title>Node21&#45;&gt;Node23</title>
<path fill="none" stroke="midnightblue" d="M852.752,-362.267C859.248,-354.3 868.377,-343.104 876.657,-332.949"/>
<polygon fill="midnightblue" stroke="midnightblue" points="879.442,-335.072 883.049,-325.11 874.017,-330.648 879.442,-335.072"/>
</g>
<!-- Node22&#45;&gt;Node4 -->
<g id="edge60" class="edge"><title>Node22&#45;&gt;Node4</title>
<path fill="none" stroke="midnightblue" d="M663.29,-297.412C643.602,-286.836 613.126,-270.465 590.744,-258.441"/>
<polygon fill="midnightblue" stroke="midnightblue" points="592.167,-255.233 581.702,-253.584 588.855,-261.399 592.167,-255.233"/>
</g>
<!-- Node24&#45;&gt;Node4 -->
<g id="edge68" class="edge"><title>Node24&#45;&gt;Node4</title>
<path fill="none" stroke="midnightblue" d="M741.531,-608.348C749.688,-588.178 766,-542.857 766,-503 766,-503 766,-503 766,-373 766,-335.157 773.439,-317.075 747,-290 730.337,-272.937 673.927,-260.203 627.734,-252.325"/>
<polygon fill="midnightblue" stroke="midnightblue" points="628.188,-248.852 617.75,-250.669 627.043,-255.758 628.188,-248.852"/>
</g>
<!-- Node24&#45;&gt;Node15 -->
<g id="edge74" class="edge"><title>Node24&#45;&gt;Node15</title>
<path fill="none" stroke="midnightblue" d="M689.955,-616.738C613.053,-612.348 455.963,-600.471 326,-572 263.358,-558.277 193.018,-533.07 151.72,-517.218"/>
<polygon fill="midnightblue" stroke="midnightblue" points="152.956,-513.943 142.367,-513.597 150.429,-520.471 152.956,-513.943"/>
</g>
<!-- Node24&#45;&gt;Node18 -->
<g id="edge72" class="edge"><title>Node24&#45;&gt;Node18</title>
<path fill="none" stroke="midnightblue" d="M726.03,-608.314C707.591,-590.025 669.777,-551.099 643,-514 596.698,-449.849 553.49,-366.083 534.768,-328.184"/>
<polygon fill="midnightblue" stroke="midnightblue" points="537.696,-326.206 530.154,-318.765 531.41,-329.286 537.696,-326.206"/>
</g>
<!-- Node24&#45;&gt;Node21 -->
<g id="edge70" class="edge"><title>Node24&#45;&gt;Node21</title>
<path fill="none" stroke="midnightblue" d="M749.504,-608.159C759.046,-599.287 771.892,-585.964 780,-572 814.681,-512.272 833.168,-431.37 840.371,-393.785"/>
<polygon fill="midnightblue" stroke="midnightblue" points="843.881,-394.051 842.25,-383.583 836.997,-392.783 843.881,-394.051"/>
</g>
<!-- Node24&#45;&gt;Node25 -->
<g id="edge76" class="edge"><title>Node24&#45;&gt;Node25</title>
<path fill="none" stroke="midnightblue" d="M689.992,-611.298C625.906,-600.798 511.151,-581.997 441.553,-570.593"/>
<polygon fill="midnightblue" stroke="midnightblue" points="442.058,-567.13 431.624,-568.967 440.926,-574.038 442.058,-567.13"/>
</g>
<!-- Node25&#45;&gt;Node4 -->
<g id="edge78" class="edge"><title>Node25&#45;&gt;Node4</title>
<path fill="none" stroke="midnightblue" d="M334.186,-554.629C305.545,-548.566 270.483,-536.793 247,-514 175.491,-444.591 168.374,-362.26 237,-290 254.578,-271.491 406.629,-255.876 496.395,-248.165"/>
<polygon fill="midnightblue" stroke="midnightblue" points="496.817,-251.642 506.485,-247.309 496.225,-244.667 496.817,-251.642"/>
</g>
<!-- Node25&#45;&gt;Node16 -->
<g id="edge94" class="edge"><title>Node25&#45;&gt;Node16</title>
<path fill="none" stroke="midnightblue" d="M339.237,-550.497C306.558,-541.665 265.907,-528.23 256,-514 244.278,-497.163 252.7,-473.68 261.549,-457.288"/>
<polygon fill="midnightblue" stroke="midnightblue" points="264.627,-458.959 266.66,-448.561 258.586,-455.422 264.627,-458.959"/>
</g>
<!-- Node25&#45;&gt;Node18 -->
<g id="edge80" class="edge"><title>Node25&#45;&gt;Node18</title>
<path fill="none" stroke="midnightblue" d="M344.609,-550.463C312.418,-539.451 273.933,-519.87 289,-492 302.894,-466.3 372.512,-432.325 399,-420 449.484,-396.509 484.028,-427.329 519,-384 531.411,-368.623 531.386,-345.333 529.21,-328.59"/>
<polygon fill="midnightblue" stroke="midnightblue" points="532.657,-327.979 527.578,-318.681 525.75,-329.117 532.657,-327.979"/>
</g>
<!-- Node26 -->
<g id="node67" class="node"><title>Node26</title>
<a xlink:href="MojRefCount_8h.htm" target="_top" xlink:title="core/MojRefCount.h">
<polygon fill="white" stroke="black" points="486,-492.5 486,-513.5 596,-513.5 596,-492.5 486,-492.5"/>
<text text-anchor="middle" x="541" y="-500.5" font-family="Helvetica,sans-Serif" font-size="10.00">core/MojRefCount.h</text>
</a>
</g>
<!-- Node25&#45;&gt;Node26 -->
<g id="edge82" class="edge"><title>Node25&#45;&gt;Node26</title>
<path fill="none" stroke="midnightblue" d="M411.613,-550.497C437.148,-541.123 474.737,-527.324 502.829,-517.012"/>
<polygon fill="midnightblue" stroke="midnightblue" points="504.152,-520.255 512.334,-513.523 501.74,-513.684 504.152,-520.255"/>
</g>
<!-- Node28 -->
<g id="node76" class="node"><title>Node28</title>
<a xlink:href="MojVectorInternal_8h.htm" target="_top" xlink:title="core/internal/MojVectorInternal.h">
<polygon fill="white" stroke="black" points="297.5,-492.5 297.5,-513.5 468.5,-513.5 468.5,-492.5 297.5,-492.5"/>
<text text-anchor="middle" x="383" y="-500.5" font-family="Helvetica,sans-Serif" font-size="10.00">core/internal/MojVectorInternal.h</text>
</a>
</g>
<!-- Node25&#45;&gt;Node28 -->
<g id="edge96" class="edge"><title>Node25&#45;&gt;Node28</title>
<path fill="none" stroke="midnightblue" d="M383,-550.362C383,-542.922 383,-532.743 383,-523.728"/>
<polygon fill="midnightblue" stroke="midnightblue" points="386.5,-523.571 383,-513.571 379.5,-523.571 386.5,-523.571"/>
</g>
<!-- Node26&#45;&gt;Node4 -->
<g id="edge84" class="edge"><title>Node26&#45;&gt;Node4</title>
<path fill="none" stroke="midnightblue" d="M485.67,-493.157C457.727,-486.185 424.448,-474.651 399,-456 360.491,-427.776 323.326,-403.461 347,-362 380.288,-303.701 453.887,-272.111 505.663,-256.422"/>
<polygon fill="midnightblue" stroke="midnightblue" points="506.767,-259.745 515.385,-253.583 504.805,-253.026 506.767,-259.745"/>
</g>
<!-- Node26&#45;&gt;Node21 -->
<g id="edge88" class="edge"><title>Node26&#45;&gt;Node21</title>
<path fill="none" stroke="midnightblue" d="M589.549,-492.438C622.563,-484.432 666.827,-472.065 704,-456 747.344,-437.268 793.756,-407.624 820.761,-389.296"/>
<polygon fill="midnightblue" stroke="midnightblue" points="822.876,-392.09 829.143,-383.547 818.917,-386.317 822.876,-392.09"/>
</g>
<!-- Node26&#45;&gt;Node22 -->
<g id="edge86" class="edge"><title>Node26&#45;&gt;Node22</title>
<path fill="none" stroke="midnightblue" d="M548.837,-492.238C571.864,-460.617 639.543,-367.677 669.017,-327.203"/>
<polygon fill="midnightblue" stroke="midnightblue" points="671.955,-329.113 675.012,-318.969 666.296,-324.992 671.955,-329.113"/>
</g>
<!-- Node27 -->
<g id="node72" class="node"><title>Node27</title>
<a xlink:href="MojRefCountInternal_8h.htm" target="_top" xlink:title="core/internal/MojRefCount\lInternal.h">
<polygon fill="white" stroke="black" points="408,-421 408,-455 548,-455 548,-421 408,-421"/>
<text text-anchor="start" x="416" y="-442" font-family="Helvetica,sans-Serif" font-size="10.00">core/internal/MojRefCount</text>
<text text-anchor="middle" x="478" y="-429" font-family="Helvetica,sans-Serif" font-size="10.00">Internal.h</text>
</a>
</g>
<!-- Node26&#45;&gt;Node27 -->
<g id="edge90" class="edge"><title>Node26&#45;&gt;Node27</title>
<path fill="none" stroke="midnightblue" d="M530.597,-492.267C522.722,-484.142 511.593,-472.659 501.598,-462.347"/>
<polygon fill="midnightblue" stroke="midnightblue" points="504.056,-459.855 494.583,-455.11 499.03,-464.726 504.056,-459.855"/>
</g>
<!-- Node27&#45;&gt;Node17 -->
<g id="edge92" class="edge"><title>Node27&#45;&gt;Node17</title>
<path fill="none" stroke="midnightblue" d="M466.177,-420.922C460.083,-412.12 452.63,-401.354 446.332,-392.258"/>
<polygon fill="midnightblue" stroke="midnightblue" points="449.083,-390.082 440.513,-383.852 443.327,-394.066 449.083,-390.082"/>
</g>
<!-- Node29&#45;&gt;Node4 -->
<g id="edge102" class="edge"><title>Node29&#45;&gt;Node4</title>
<path fill="none" stroke="midnightblue" d="M993.307,-492.374C1011.9,-485.306 1032.09,-473.92 1043,-456 1074.62,-404.082 1040.81,-327.328 992,-290 963.728,-268.378 741.51,-253.005 628.105,-246.483"/>
<polygon fill="midnightblue" stroke="midnightblue" points="627.994,-242.971 617.812,-245.898 627.597,-249.96 627.994,-242.971"/>
</g>
<!-- Node29&#45;&gt;Node18 -->
<g id="edge104" class="edge"><title>Node29&#45;&gt;Node18</title>
<path fill="none" stroke="midnightblue" d="M928.739,-492.377C857.163,-459.69 640.06,-360.545 557.415,-322.803"/>
<polygon fill="midnightblue" stroke="midnightblue" points="558.572,-319.484 548.021,-318.513 555.664,-325.851 558.572,-319.484"/>
</g>
<!-- Node29&#45;&gt;Node20 -->
<g id="edge106" class="edge"><title>Node29&#45;&gt;Node20</title>
<path fill="none" stroke="midnightblue" d="M952,-492.267C952,-483.18 952,-469.892 952,-458.74"/>
<polygon fill="midnightblue" stroke="midnightblue" points="955.5,-458.534 952,-448.534 948.5,-458.534 955.5,-458.534"/>
</g>
<!-- Node30 -->
<g id="node84" class="node"><title>Node30</title>
<a xlink:href="MojSetInternal_8h.htm" target="_top" xlink:title="core/internal/MojSetInternal.h">
<polygon fill="white" stroke="black" points="1094,-427.5 1094,-448.5 1250,-448.5 1250,-427.5 1094,-427.5"/>
<text text-anchor="middle" x="1172" y="-435.5" font-family="Helvetica,sans-Serif" font-size="10.00">core/internal/MojSetInternal.h</text>
</a>
</g>
<!-- Node29&#45;&gt;Node30 -->
<g id="edge108" class="edge"><title>Node29&#45;&gt;Node30</title>
<path fill="none" stroke="midnightblue" d="M987.836,-492.412C1025.63,-481.246 1085.29,-463.619 1126.41,-451.47"/>
<polygon fill="midnightblue" stroke="midnightblue" points="1127.58,-454.774 1136.18,-448.584 1125.6,-448.06 1127.58,-454.774"/>
</g>
</g>
</svg>
