<?xml version="1.0" encoding="UTF-8" standalone="no"?>
<!DOCTYPE svg PUBLIC "-//W3C//DTD SVG 1.1//EN"
 "http://www.w3.org/Graphics/SVG/1.1/DTD/svg11.dtd">
<!-- Generated by graphviz version 2.26.3 (20100126.1600)
 -->
<!-- Title: MojPmLogAppender.h Pages: 1 -->
<svg width="1427pt" height="754pt"
 viewBox="0.00 0.00 1427.00 754.00" xmlns="http://www.w3.org/2000/svg" xmlns:xlink="http://www.w3.org/1999/xlink">
<g id="graph1" class="graph" transform="scale(1 1) rotate(0) translate(4 750)">
<title>MojPmLogAppender.h</title>
<polygon fill="white" stroke="white" points="-4,5 -4,-750 1424,-750 1424,5 -4,5"/>
<!-- Node1 -->
<g id="node1" class="node"><title>Node1</title>
<polygon fill="#bfbfbf" stroke="black" points="1157,-724.5 1157,-745.5 1279,-745.5 1279,-724.5 1157,-724.5"/>
<text text-anchor="middle" x="1218" y="-732.5" font-family="Helvetica,sans-Serif" font-size="10.00">MojPmLogAppender.h</text>
</g>
<!-- Node2 -->
<g id="node3" class="node"><title>Node2</title>
<a xlink:href="MojCoreDefs_8h.htm" target="_top" xlink:title="core/MojCoreDefs.h">
<polygon fill="white" stroke="black" points="810.5,-232.5 810.5,-253.5 921.5,-253.5 921.5,-232.5 810.5,-232.5"/>
<text text-anchor="middle" x="866" y="-240.5" font-family="Helvetica,sans-Serif" font-size="10.00">core/MojCoreDefs.h</text>
</a>
</g>
<!-- Node1&#45;&gt;Node2 -->
<g id="edge2" class="edge"><title>Node1&#45;&gt;Node2</title>
<path fill="none" stroke="midnightblue" d="M1261.25,-724.383C1309.54,-709.638 1381,-677.873 1381,-619 1381,-619 1381,-619 1381,-373 1381,-325.029 1354.3,-312.624 1312,-290 1279.26,-272.49 1047.71,-254.981 931.785,-247.192"/>
<polygon fill="midnightblue" stroke="midnightblue" points="931.824,-243.687 921.613,-246.513 931.358,-250.671 931.824,-243.687"/>
</g>
<!-- Node12 -->
<g id="node23" class="node"><title>Node12</title>
<a xlink:href="MojLogEngine_8h.htm" target="_top" xlink:title="core/MojLogEngine.h">
<polygon fill="white" stroke="black" points="996.5,-666.5 996.5,-687.5 1113.5,-687.5 1113.5,-666.5 996.5,-666.5"/>
<text text-anchor="middle" x="1055" y="-674.5" font-family="Helvetica,sans-Serif" font-size="10.00">core/MojLogEngine.h</text>
</a>
</g>
<!-- Node1&#45;&gt;Node12 -->
<g id="edge22" class="edge"><title>Node1&#45;&gt;Node12</title>
<path fill="none" stroke="midnightblue" d="M1188.48,-724.497C1162.02,-715.082 1123.02,-701.204 1094,-690.877"/>
<polygon fill="midnightblue" stroke="midnightblue" points="1095.17,-687.578 1084.57,-687.523 1092.82,-694.173 1095.17,-687.578"/>
</g>
<!-- Node3 -->
<g id="node5" class="node"><title>Node3</title>
<a xlink:href="MojConfig_8h.htm" target="_top" xlink:title="core/internal/MojConfig.h">
<polygon fill="white" stroke="black" points="923.5,-174.5 923.5,-195.5 1058.5,-195.5 1058.5,-174.5 923.5,-174.5"/>
<text text-anchor="middle" x="991" y="-182.5" font-family="Helvetica,sans-Serif" font-size="10.00">core/internal/MojConfig.h</text>
</a>
</g>
<!-- Node2&#45;&gt;Node3 -->
<g id="edge4" class="edge"><title>Node2&#45;&gt;Node3</title>
<path fill="none" stroke="midnightblue" d="M888.637,-232.497C908.248,-223.397 936.846,-210.127 958.833,-199.925"/>
<polygon fill="midnightblue" stroke="midnightblue" points="960.512,-203.005 968.109,-195.621 957.565,-196.655 960.512,-203.005"/>
</g>
<!-- Node4 -->
<g id="node7" class="node"><title>Node4</title>
<a xlink:href="MojNew_8h.htm" target="_top" xlink:title="core/internal/MojNew.h">
<polygon fill="white" stroke="black" points="683.5,-174.5 683.5,-195.5 808.5,-195.5 808.5,-174.5 683.5,-174.5"/>
<text text-anchor="middle" x="746" y="-182.5" font-family="Helvetica,sans-Serif" font-size="10.00">core/internal/MojNew.h</text>
</a>
</g>
<!-- Node2&#45;&gt;Node4 -->
<g id="edge6" class="edge"><title>Node2&#45;&gt;Node4</title>
<path fill="none" stroke="midnightblue" d="M844.269,-232.497C825.526,-223.438 798.233,-210.246 777.164,-200.063"/>
<polygon fill="midnightblue" stroke="midnightblue" points="778.502,-196.822 767.975,-195.621 775.455,-203.124 778.502,-196.822"/>
</g>
<!-- Node6 -->
<g id="node11" class="node"><title>Node6</title>
<a xlink:href="MojErr_8h.htm" target="_top" xlink:title="core/MojErr.h">
<polygon fill="white" stroke="black" points="826,-174.5 826,-195.5 906,-195.5 906,-174.5 826,-174.5"/>
<text text-anchor="middle" x="866" y="-182.5" font-family="Helvetica,sans-Serif" font-size="10.00">core/MojErr.h</text>
</a>
</g>
<!-- Node2&#45;&gt;Node6 -->
<g id="edge10" class="edge"><title>Node2&#45;&gt;Node6</title>
<path fill="none" stroke="midnightblue" d="M866,-232.362C866,-224.922 866,-214.743 866,-205.728"/>
<polygon fill="midnightblue" stroke="midnightblue" points="869.5,-205.571 866,-195.571 862.5,-205.571 869.5,-205.571"/>
</g>
<!-- Node10 -->
<g id="node19" class="node"><title>Node10</title>
<a xlink:href="MojOs_8h.htm" target="_top" xlink:title="core/MojOs.h">
<polygon fill="white" stroke="black" points="1076,-174.5 1076,-195.5 1156,-195.5 1156,-174.5 1076,-174.5"/>
<text text-anchor="middle" x="1116" y="-182.5" font-family="Helvetica,sans-Serif" font-size="10.00">core/MojOs.h</text>
</a>
</g>
<!-- Node2&#45;&gt;Node10 -->
<g id="edge18" class="edge"><title>Node2&#45;&gt;Node10</title>
<path fill="none" stroke="midnightblue" d="M911.273,-232.497C954.835,-222.39 1020.57,-207.14 1065.73,-196.662"/>
<polygon fill="midnightblue" stroke="midnightblue" points="1066.66,-200.04 1075.61,-194.371 1065.08,-193.221 1066.66,-200.04"/>
</g>
<!-- Node5 -->
<g id="node9" class="node"><title>Node5</title>
<polygon fill="white" stroke="#bfbfbf" points="728,-116.5 728,-137.5 764,-137.5 764,-116.5 728,-116.5"/>
<text text-anchor="middle" x="746" y="-124.5" font-family="Helvetica,sans-Serif" font-size="10.00">new</text>
</g>
<!-- Node4&#45;&gt;Node5 -->
<g id="edge8" class="edge"><title>Node4&#45;&gt;Node5</title>
<path fill="none" stroke="midnightblue" d="M746,-174.362C746,-166.922 746,-156.743 746,-147.728"/>
<polygon fill="midnightblue" stroke="midnightblue" points="749.5,-147.571 746,-137.571 742.5,-147.571 749.5,-147.571"/>
</g>
<!-- Node7 -->
<g id="node13" class="node"><title>Node7</title>
<a xlink:href="MojLog_8h.htm" target="_top" xlink:title="core/MojLog.h">
<polygon fill="white" stroke="black" points="881,-116.5 881,-137.5 965,-137.5 965,-116.5 881,-116.5"/>
<text text-anchor="middle" x="923" y="-124.5" font-family="Helvetica,sans-Serif" font-size="10.00">core/MojLog.h</text>
</a>
</g>
<!-- Node6&#45;&gt;Node7 -->
<g id="edge12" class="edge"><title>Node6&#45;&gt;Node7</title>
<path fill="none" stroke="midnightblue" d="M876.455,-174.362C884.57,-166.104 896.001,-154.472 905.504,-144.803"/>
<polygon fill="midnightblue" stroke="midnightblue" points="908.099,-147.156 912.612,-137.571 903.106,-142.25 908.099,-147.156"/>
</g>
<!-- Node8 -->
<g id="node15" class="node"><title>Node8</title>
<a xlink:href="MojListEntry_8h.htm" target="_top" xlink:title="core/MojListEntry.h">
<polygon fill="white" stroke="black" points="1077.5,-58.5 1077.5,-79.5 1184.5,-79.5 1184.5,-58.5 1077.5,-58.5"/>
<text text-anchor="middle" x="1131" y="-66.5" font-family="Helvetica,sans-Serif" font-size="10.00">core/MojListEntry.h</text>
</a>
</g>
<!-- Node7&#45;&gt;Node8 -->
<g id="edge14" class="edge"><title>Node7&#45;&gt;Node8</title>
<path fill="none" stroke="midnightblue" d="M960.667,-116.497C995.017,-106.918 1045.94,-92.7196 1083.15,-82.3418"/>
<polygon fill="midnightblue" stroke="midnightblue" points="1084.57,-85.5805 1093.26,-79.5231 1082.69,-78.8377 1084.57,-85.5805"/>
</g>
<!-- Node9 -->
<g id="node17" class="node"><title>Node9</title>
<a xlink:href="MojNoCopy_8h.htm" target="_top" xlink:title="core/MojNoCopy.h">
<polygon fill="white" stroke="black" points="1223,-0.5 1223,-21.5 1327,-21.5 1327,-0.5 1223,-0.5"/>
<text text-anchor="middle" x="1275" y="-8.5" font-family="Helvetica,sans-Serif" font-size="10.00">core/MojNoCopy.h</text>
</a>
</g>
<!-- Node8&#45;&gt;Node9 -->
<g id="edge16" class="edge"><title>Node8&#45;&gt;Node9</title>
<path fill="none" stroke="midnightblue" d="M1157.08,-58.4966C1180.07,-49.2337 1213.8,-35.6499 1239.3,-25.3793"/>
<polygon fill="midnightblue" stroke="midnightblue" points="1240.66,-28.6039 1248.63,-21.6212 1238.05,-22.1108 1240.66,-28.6039"/>
</g>
<!-- Node11 -->
<g id="node21" class="node"><title>Node11</title>
<a xlink:href="MojOsInternal_8h.htm" target="_top" xlink:title="core/internal/MojOsInternal.h">
<polygon fill="white" stroke="black" points="1039,-116.5 1039,-137.5 1193,-137.5 1193,-116.5 1039,-116.5"/>
<text text-anchor="middle" x="1116" y="-124.5" font-family="Helvetica,sans-Serif" font-size="10.00">core/internal/MojOsInternal.h</text>
</a>
</g>
<!-- Node10&#45;&gt;Node11 -->
<g id="edge20" class="edge"><title>Node10&#45;&gt;Node11</title>
<path fill="none" stroke="midnightblue" d="M1116,-174.362C1116,-166.922 1116,-156.743 1116,-147.728"/>
<polygon fill="midnightblue" stroke="midnightblue" points="1119.5,-147.571 1116,-137.571 1112.5,-147.571 1119.5,-147.571"/>
</g>
<!-- Node12&#45;&gt;Node2 -->
<g id="edge24" class="edge"><title>Node12&#45;&gt;Node2</title>
<path fill="none" stroke="midnightblue" d="M1113.88,-668.957C1153.42,-662.079 1205.95,-650.027 1249,-630 1295.99,-608.139 1343,-612.825 1343,-561 1343,-561 1343,-561 1343,-373 1343,-324.166 1314.18,-312.805 1271,-290 1213.72,-259.75 1031.34,-248.73 932.007,-244.906"/>
<polygon fill="midnightblue" stroke="midnightblue" points="931.905,-241.4 921.782,-244.526 931.646,-248.395 931.905,-241.4"/>
</g>
<!-- Node13 -->
<g id="node26" class="node"><title>Node13</title>
<a xlink:href="MojList_8h.htm" target="_top" xlink:title="core/MojList.h">
<polygon fill="white" stroke="black" points="1157.5,-608.5 1157.5,-629.5 1240.5,-629.5 1240.5,-608.5 1157.5,-608.5"/>
<text text-anchor="middle" x="1199" y="-616.5" font-family="Helvetica,sans-Serif" font-size="10.00">core/MojList.h</text>
</a>
</g>
<!-- Node12&#45;&gt;Node13 -->
<g id="edge26" class="edge"><title>Node12&#45;&gt;Node13</title>
<path fill="none" stroke="midnightblue" d="M1081.08,-666.497C1104.07,-657.234 1137.8,-643.65 1163.3,-633.379"/>
<polygon fill="midnightblue" stroke="midnightblue" points="1164.66,-636.604 1172.63,-629.621 1162.05,-630.111 1164.66,-636.604"/>
</g>
<!-- Node15 -->
<g id="node31" class="node"><title>Node15</title>
<a xlink:href="MojMap_8h.htm" target="_top" xlink:title="core/MojMap.h">
<polygon fill="white" stroke="black" points="-0.5,-492.5 -0.5,-513.5 86.5,-513.5 86.5,-492.5 -0.5,-492.5"/>
<text text-anchor="middle" x="43" y="-500.5" font-family="Helvetica,sans-Serif" font-size="10.00">core/MojMap.h</text>
</a>
</g>
<!-- Node12&#45;&gt;Node15 -->
<g id="edge32" class="edge"><title>Node12&#45;&gt;Node15</title>
<path fill="none" stroke="midnightblue" d="M996.343,-673.402C908.305,-667.468 736.965,-653.847 593,-630 405.269,-598.903 185.901,-541.915 90.8934,-516.203"/>
<polygon fill="midnightblue" stroke="midnightblue" points="91.5785,-512.762 81.0108,-513.519 89.7442,-519.517 91.5785,-512.762"/>
</g>
<!-- Node21 -->
<g id="node49" class="node"><title>Node21</title>
<a xlink:href="MojSet_8h.htm" target="_top" xlink:title="core/MojSet.h">
<polygon fill="white" stroke="black" points="186,-492.5 186,-513.5 268,-513.5 268,-492.5 186,-492.5"/>
<text text-anchor="middle" x="227" y="-500.5" font-family="Helvetica,sans-Serif" font-size="10.00">core/MojSet.h</text>
</a>
</g>
<!-- Node12&#45;&gt;Node21 -->
<g id="edge56" class="edge"><title>Node12&#45;&gt;Node21</title>
<path fill="none" stroke="midnightblue" d="M996.115,-670.58C883.817,-657.593 631.803,-624.858 425,-572 366.801,-557.125 301.363,-532.757 262.199,-517.315"/>
<polygon fill="midnightblue" stroke="midnightblue" points="263.415,-514.032 252.829,-513.593 260.83,-520.537 263.415,-514.032"/>
</g>
<!-- Node23 -->
<g id="node56" class="node"><title>Node23</title>
<a xlink:href="MojString_8h.htm" target="_top" xlink:title="core/MojString.h">
<polygon fill="white" stroke="black" points="805,-608.5 805,-629.5 899,-629.5 899,-608.5 805,-608.5"/>
<text text-anchor="middle" x="852" y="-616.5" font-family="Helvetica,sans-Serif" font-size="10.00">core/MojString.h</text>
</a>
</g>
<!-- Node12&#45;&gt;Node23 -->
<g id="edge66" class="edge"><title>Node12&#45;&gt;Node23</title>
<path fill="none" stroke="midnightblue" d="M1018.24,-666.497C984.714,-656.918 935.018,-642.72 898.696,-632.342"/>
<polygon fill="midnightblue" stroke="midnightblue" points="899.408,-628.905 888.831,-629.523 897.484,-635.636 899.408,-628.905"/>
</g>
<!-- Node31 -->
<g id="node85" class="node"><title>Node31</title>
<a xlink:href="MojThread_8h.htm" target="_top" xlink:title="core/MojThread.h">
<polygon fill="white" stroke="black" points="1074.5,-492.5 1074.5,-513.5 1175.5,-513.5 1175.5,-492.5 1074.5,-492.5"/>
<text text-anchor="middle" x="1125" y="-500.5" font-family="Helvetica,sans-Serif" font-size="10.00">core/MojThread.h</text>
</a>
</g>
<!-- Node12&#45;&gt;Node31 -->
<g id="edge108" class="edge"><title>Node12&#45;&gt;Node31</title>
<path fill="none" stroke="midnightblue" d="M1059.27,-666.377C1070.67,-638.051 1101.93,-560.349 1116.86,-523.242"/>
<polygon fill="midnightblue" stroke="midnightblue" points="1120.12,-524.511 1120.6,-513.928 1113.62,-521.899 1120.12,-524.511"/>
</g>
<!-- Node13&#45;&gt;Node2 -->
<g id="edge28" class="edge"><title>Node13&#45;&gt;Node2</title>
<path fill="none" stroke="midnightblue" d="M1232.24,-608.396C1250.57,-600.945 1272.32,-589.195 1286,-572 1305.8,-547.11 1305,-534.808 1305,-503 1305,-503 1305,-503 1305,-373 1305,-322.682 1272.72,-313.057 1228,-290 1177.76,-264.1 1021.78,-251.475 931.808,-246.199"/>
<polygon fill="midnightblue" stroke="midnightblue" points="931.893,-242.699 921.709,-245.622 931.493,-249.687 931.893,-242.699"/>
</g>
<!-- Node14 -->
<g id="node29" class="node"><title>Node14</title>
<a xlink:href="MojListInternal_8h.htm" target="_top" xlink:title="core/internal/MojListInternal.h">
<polygon fill="white" stroke="black" points="1120.5,-550.5 1120.5,-571.5 1277.5,-571.5 1277.5,-550.5 1120.5,-550.5"/>
<text text-anchor="middle" x="1199" y="-558.5" font-family="Helvetica,sans-Serif" font-size="10.00">core/internal/MojListInternal.h</text>
</a>
</g>
<!-- Node13&#45;&gt;Node14 -->
<g id="edge30" class="edge"><title>Node13&#45;&gt;Node14</title>
<path fill="none" stroke="midnightblue" d="M1199,-608.362C1199,-600.922 1199,-590.743 1199,-581.728"/>
<polygon fill="midnightblue" stroke="midnightblue" points="1202.5,-581.571 1199,-571.571 1195.5,-581.571 1202.5,-581.571"/>
</g>
<!-- Node15&#45;&gt;Node2 -->
<g id="edge34" class="edge"><title>Node15&#45;&gt;Node2</title>
<path fill="none" stroke="midnightblue" d="M34.2467,-492.199C27.5065,-483.144 18.731,-469.553 15,-456 10.7532,-440.574 10.613,-435.387 15,-420 36.6424,-344.093 62.8024,-319.537 136,-290 196.634,-265.533 632.122,-250.015 800.126,-244.882"/>
<polygon fill="midnightblue" stroke="midnightblue" points="800.431,-248.375 810.321,-244.573 800.22,-241.378 800.431,-248.375"/>
</g>
<!-- Node16 -->
<g id="node34" class="node"><title>Node16</title>
<a xlink:href="MojComp_8h.htm" target="_top" xlink:title="core/MojComp.h">
<polygon fill="white" stroke="black" points="392,-297.5 392,-318.5 486,-318.5 486,-297.5 392,-297.5"/>
<text text-anchor="middle" x="439" y="-305.5" font-family="Helvetica,sans-Serif" font-size="10.00">core/MojComp.h</text>
</a>
</g>
<!-- Node15&#45;&gt;Node16 -->
<g id="edge36" class="edge"><title>Node15&#45;&gt;Node16</title>
<path fill="none" stroke="midnightblue" d="M35.9874,-492.376C25.7075,-475.334 9.46734,-441.613 26,-420 69.2015,-363.522 278.72,-328.884 381.67,-315.003"/>
<polygon fill="midnightblue" stroke="midnightblue" points="382.436,-318.432 391.889,-313.646 381.515,-311.493 382.436,-318.432"/>
</g>
<!-- Node17 -->
<g id="node37" class="node"><title>Node17</title>
<a xlink:href="MojRbTreeBase_8h.htm" target="_top" xlink:title="core/internal/MojRbTreeBase.h">
<polygon fill="white" stroke="black" points="35,-427.5 35,-448.5 199,-448.5 199,-427.5 35,-427.5"/>
<text text-anchor="middle" x="117" y="-435.5" font-family="Helvetica,sans-Serif" font-size="10.00">core/internal/MojRbTreeBase.h</text>
</a>
</g>
<!-- Node15&#45;&gt;Node17 -->
<g id="edge40" class="edge"><title>Node15&#45;&gt;Node17</title>
<path fill="none" stroke="midnightblue" d="M55.2196,-492.267C66.642,-482.233 83.8958,-467.078 97.2692,-455.331"/>
<polygon fill="midnightblue" stroke="midnightblue" points="99.8044,-457.763 105.008,-448.534 95.1848,-452.504 99.8044,-457.763"/>
</g>
<!-- Node16&#45;&gt;Node2 -->
<g id="edge38" class="edge"><title>Node16&#45;&gt;Node2</title>
<path fill="none" stroke="midnightblue" d="M471.904,-297.423C481.235,-294.704 491.454,-291.988 501,-290 604.499,-268.447 726.692,-255.12 800.174,-248.39"/>
<polygon fill="midnightblue" stroke="midnightblue" points="800.567,-251.869 810.212,-247.484 799.938,-244.897 800.567,-251.869"/>
</g>
<!-- Node17&#45;&gt;Node2 -->
<g id="edge42" class="edge"><title>Node17&#45;&gt;Node2</title>
<path fill="none" stroke="midnightblue" d="M131.027,-427.39C169.105,-399.236 278.569,-322.576 383,-290 459.043,-266.279 686.28,-251.958 799.858,-246.092"/>
<polygon fill="midnightblue" stroke="midnightblue" points="800.346,-249.572 810.155,-245.567 799.99,-242.581 800.346,-249.572"/>
</g>
<!-- Node18 -->
<g id="node40" class="node"><title>Node18</title>
<a xlink:href="MojAutoPtr_8h.htm" target="_top" xlink:title="core/MojAutoPtr.h">
<polygon fill="white" stroke="black" points="915.5,-362.5 915.5,-383.5 1016.5,-383.5 1016.5,-362.5 915.5,-362.5"/>
<text text-anchor="middle" x="966" y="-370.5" font-family="Helvetica,sans-Serif" font-size="10.00">core/MojAutoPtr.h</text>
</a>
</g>
<!-- Node17&#45;&gt;Node18 -->
<g id="edge44" class="edge"><title>Node17&#45;&gt;Node18</title>
<path fill="none" stroke="midnightblue" d="M185.508,-427.487C205.018,-424.753 226.316,-422.013 246,-420 489.629,-395.085 781.062,-380.813 905.196,-375.459"/>
<polygon fill="midnightblue" stroke="midnightblue" points="905.422,-378.953 915.264,-375.029 905.123,-371.959 905.422,-378.953"/>
</g>
<!-- Node18&#45;&gt;Node2 -->
<g id="edge46" class="edge"><title>Node18&#45;&gt;Node2</title>
<path fill="none" stroke="midnightblue" d="M947.486,-362.421C934.011,-353.97 916.081,-341.07 904,-326 888.824,-307.069 878.209,-281.097 872.128,-263.276"/>
<polygon fill="midnightblue" stroke="midnightblue" points="875.407,-262.041 868.998,-253.604 868.747,-264.196 875.407,-262.041"/>
</g>
<!-- Node18&#45;&gt;Node9 -->
<g id="edge52" class="edge"><title>Node18&#45;&gt;Node9</title>
<path fill="none" stroke="midnightblue" d="M1016.65,-369.232C1134.86,-359.049 1419,-325.945 1419,-243 1419,-243 1419,-243 1419,-127 1419,-74.8804 1361.08,-42.2132 1318.71,-25.2879"/>
<polygon fill="midnightblue" stroke="midnightblue" points="1319.72,-21.9254 1309.13,-21.6175 1317.21,-28.4624 1319.72,-21.9254"/>
</g>
<!-- Node19 -->
<g id="node43" class="node"><title>Node19</title>
<a xlink:href="MojAtomicInt_8h.htm" target="_top" xlink:title="core/MojAtomicInt.h">
<polygon fill="white" stroke="black" points="913,-297.5 913,-318.5 1023,-318.5 1023,-297.5 913,-297.5"/>
<text text-anchor="middle" x="968" y="-305.5" font-family="Helvetica,sans-Serif" font-size="10.00">core/MojAtomicInt.h</text>
</a>
</g>
<!-- Node18&#45;&gt;Node19 -->
<g id="edge48" class="edge"><title>Node18&#45;&gt;Node19</title>
<path fill="none" stroke="midnightblue" d="M966.33,-362.267C966.61,-353.18 967.019,-339.892 967.362,-328.74"/>
<polygon fill="midnightblue" stroke="midnightblue" points="970.867,-328.637 967.676,-318.534 963.87,-328.421 970.867,-328.637"/>
</g>
<!-- Node20 -->
<g id="node47" class="node"><title>Node20</title>
<a xlink:href="MojAutoPtrInternal_8h.htm" target="_top" xlink:title="core/internal/MojAutoPtr\lInternal.h">
<polygon fill="white" stroke="black" points="1040.5,-291 1040.5,-325 1171.5,-325 1171.5,-291 1040.5,-291"/>
<text text-anchor="start" x="1048.5" y="-312" font-family="Helvetica,sans-Serif" font-size="10.00">core/internal/MojAutoPtr</text>
<text text-anchor="middle" x="1106" y="-299" font-family="Helvetica,sans-Serif" font-size="10.00">Internal.h</text>
</a>
</g>
<!-- Node18&#45;&gt;Node20 -->
<g id="edge54" class="edge"><title>Node18&#45;&gt;Node20</title>
<path fill="none" stroke="midnightblue" d="M988.805,-362.412C1008.03,-353.488 1036.13,-340.438 1060,-329.356"/>
<polygon fill="midnightblue" stroke="midnightblue" points="1061.66,-332.446 1069.25,-325.06 1058.71,-326.097 1061.66,-332.446"/>
</g>
<!-- Node19&#45;&gt;Node2 -->
<g id="edge50" class="edge"><title>Node19&#45;&gt;Node2</title>
<path fill="none" stroke="midnightblue" d="M951.157,-297.267C934.818,-286.855 909.824,-270.927 891.133,-259.016"/>
<polygon fill="midnightblue" stroke="midnightblue" points="892.844,-255.956 882.53,-253.534 889.082,-261.859 892.844,-255.956"/>
</g>
<!-- Node21&#45;&gt;Node2 -->
<g id="edge58" class="edge"><title>Node21&#45;&gt;Node2</title>
<path fill="none" stroke="midnightblue" d="M185.916,-501.382C116.677,-496.98 -12.1598,-480.629 26,-420 97.1578,-306.944 168.072,-324.968 297,-290 390.259,-264.706 671.507,-250.678 800.304,-245.427"/>
<polygon fill="midnightblue" stroke="midnightblue" points="800.575,-248.919 810.426,-245.02 800.293,-241.925 800.575,-248.919"/>
</g>
<!-- Node21&#45;&gt;Node16 -->
<g id="edge60" class="edge"><title>Node21&#45;&gt;Node16</title>
<path fill="none" stroke="midnightblue" d="M226.83,-492.469C227.079,-475.558 229.778,-442.017 246,-420 283.067,-369.693 350.045,-338.317 394.526,-321.987"/>
<polygon fill="midnightblue" stroke="midnightblue" points="395.963,-325.191 404.209,-318.539 393.614,-318.597 395.963,-325.191"/>
</g>
<!-- Node21&#45;&gt;Node17 -->
<g id="edge62" class="edge"><title>Node21&#45;&gt;Node17</title>
<path fill="none" stroke="midnightblue" d="M208.836,-492.267C191.056,-481.76 163.77,-465.637 143.556,-453.692"/>
<polygon fill="midnightblue" stroke="midnightblue" points="145.216,-450.608 134.826,-448.534 141.655,-456.634 145.216,-450.608"/>
</g>
<!-- Node22 -->
<g id="node54" class="node"><title>Node22</title>
<a xlink:href="MojSetInternal_8h.htm" target="_top" xlink:title="core/internal/MojSetInternal.h">
<polygon fill="white" stroke="black" points="255,-427.5 255,-448.5 411,-448.5 411,-427.5 255,-427.5"/>
<text text-anchor="middle" x="333" y="-435.5" font-family="Helvetica,sans-Serif" font-size="10.00">core/internal/MojSetInternal.h</text>
</a>
</g>
<!-- Node21&#45;&gt;Node22 -->
<g id="edge64" class="edge"><title>Node21&#45;&gt;Node22</title>
<path fill="none" stroke="midnightblue" d="M244.504,-492.267C261.56,-481.807 287.694,-465.782 307.146,-453.854"/>
<polygon fill="midnightblue" stroke="midnightblue" points="309.127,-456.745 315.822,-448.534 305.467,-450.778 309.127,-456.745"/>
</g>
<!-- Node23&#45;&gt;Node2 -->
<g id="edge68" class="edge"><title>Node23&#45;&gt;Node2</title>
<path fill="none" stroke="midnightblue" d="M891.67,-608.448C974.866,-586.036 1161.77,-534.094 1184,-514 1235.9,-467.075 1234.45,-431.329 1225,-362 1220.51,-329.093 1229.99,-311.869 1205,-290 1184.82,-272.346 1024.6,-256.224 931.825,-248.248"/>
<polygon fill="midnightblue" stroke="midnightblue" points="931.947,-244.746 921.687,-247.386 931.354,-251.721 931.947,-244.746"/>
</g>
<!-- Node23&#45;&gt;Node16 -->
<g id="edge72" class="edge"><title>Node23&#45;&gt;Node16</title>
<path fill="none" stroke="midnightblue" d="M804.624,-615.734C696.142,-606.958 439,-578.221 439,-503 439,-503 439,-503 439,-438 439,-399.466 439,-354.508 439,-328.834"/>
<polygon fill="midnightblue" stroke="midnightblue" points="442.5,-328.786 439,-318.786 435.5,-328.786 442.5,-328.786"/>
</g>
<!-- Node23&#45;&gt;Node18 -->
<g id="edge70" class="edge"><title>Node23&#45;&gt;Node18</title>
<path fill="none" stroke="midnightblue" d="M882.461,-608.398C919.415,-593.692 979.993,-563.208 1006,-514 1019.2,-489.024 990.904,-482.06 980,-456 971.579,-435.874 968.218,-410.993 966.88,-393.749"/>
<polygon fill="midnightblue" stroke="midnightblue" points="970.366,-393.413 966.26,-383.646 963.379,-393.842 970.366,-393.413"/>
</g>
<!-- Node24 -->
<g id="node61" class="node"><title>Node24</title>
<a xlink:href="MojHasher_8h.htm" target="_top" xlink:title="core/MojHasher.h">
<polygon fill="white" stroke="black" points="504.5,-492.5 504.5,-513.5 605.5,-513.5 605.5,-492.5 504.5,-492.5"/>
<text text-anchor="middle" x="555" y="-500.5" font-family="Helvetica,sans-Serif" font-size="10.00">core/MojHasher.h</text>
</a>
</g>
<!-- Node23&#45;&gt;Node24 -->
<g id="edge74" class="edge"><title>Node23&#45;&gt;Node24</title>
<path fill="none" stroke="midnightblue" d="M804.843,-611.257C766.445,-603.976 711.367,-591.279 666,-572 633.146,-558.038 598.751,-535.178 577.118,-519.629"/>
<polygon fill="midnightblue" stroke="midnightblue" points="579.081,-516.728 568.94,-513.661 574.954,-522.383 579.081,-516.728"/>
</g>
<!-- Node27 -->
<g id="node70" class="node"><title>Node27</title>
<a xlink:href="MojVector_8h.htm" target="_top" xlink:title="core/MojVector.h">
<polygon fill="white" stroke="black" points="674.5,-550.5 674.5,-571.5 771.5,-571.5 771.5,-550.5 674.5,-550.5"/>
<text text-anchor="middle" x="723" y="-558.5" font-family="Helvetica,sans-Serif" font-size="10.00">core/MojVector.h</text>
</a>
</g>
<!-- Node23&#45;&gt;Node27 -->
<g id="edge86" class="edge"><title>Node23&#45;&gt;Node27</title>
<path fill="none" stroke="midnightblue" d="M828.639,-608.497C808.309,-599.356 778.622,-586.008 755.891,-575.788"/>
<polygon fill="midnightblue" stroke="midnightblue" points="757.179,-572.53 746.623,-571.621 754.308,-578.914 757.179,-572.53"/>
</g>
<!-- Node24&#45;&gt;Node2 -->
<g id="edge76" class="edge"><title>Node24&#45;&gt;Node2</title>
<path fill="none" stroke="midnightblue" d="M548.75,-492.283C534.935,-467.036 505.225,-402.882 534,-362 565.993,-316.546 719.601,-275.709 806.227,-255.804"/>
<polygon fill="midnightblue" stroke="midnightblue" points="807.215,-259.169 816.19,-253.539 805.663,-252.343 807.215,-259.169"/>
</g>
<!-- Node25 -->
<g id="node64" class="node"><title>Node25</title>
<a xlink:href="MojUtil_8h.htm" target="_top" xlink:title="core/MojUtil.h">
<polygon fill="white" stroke="black" points="542.5,-427.5 542.5,-448.5 623.5,-448.5 623.5,-427.5 542.5,-427.5"/>
<text text-anchor="middle" x="583" y="-435.5" font-family="Helvetica,sans-Serif" font-size="10.00">core/MojUtil.h</text>
</a>
</g>
<!-- Node24&#45;&gt;Node25 -->
<g id="edge78" class="edge"><title>Node24&#45;&gt;Node25</title>
<path fill="none" stroke="midnightblue" d="M559.624,-492.267C563.619,-482.991 569.501,-469.336 574.365,-458.045"/>
<polygon fill="midnightblue" stroke="midnightblue" points="577.721,-459.103 578.462,-448.534 571.292,-456.333 577.721,-459.103"/>
</g>
<!-- Node25&#45;&gt;Node2 -->
<g id="edge80" class="edge"><title>Node25&#45;&gt;Node2</title>
<path fill="none" stroke="midnightblue" d="M610.378,-427.458C641.442,-415.242 689.884,-395.341 706,-384 753.051,-350.891 750.949,-327.008 795,-290 808.741,-278.456 825.417,-267.29 839.154,-258.741"/>
<polygon fill="midnightblue" stroke="midnightblue" points="840.987,-261.723 847.697,-253.523 837.338,-255.749 840.987,-261.723"/>
</g>
<!-- Node26 -->
<g id="node67" class="node"><title>Node26</title>
<a xlink:href="MojUtilInternal_8h.htm" target="_top" xlink:title="core/internal/MojUtilInternal.h">
<polygon fill="white" stroke="black" points="542.5,-362.5 542.5,-383.5 697.5,-383.5 697.5,-362.5 542.5,-362.5"/>
<text text-anchor="middle" x="620" y="-370.5" font-family="Helvetica,sans-Serif" font-size="10.00">core/internal/MojUtilInternal.h</text>
</a>
</g>
<!-- Node25&#45;&gt;Node26 -->
<g id="edge82" class="edge"><title>Node25&#45;&gt;Node26</title>
<path fill="none" stroke="midnightblue" d="M589.11,-427.267C594.498,-417.801 602.481,-403.777 608.981,-392.357"/>
<polygon fill="midnightblue" stroke="midnightblue" points="612.099,-393.956 614.004,-383.534 606.015,-390.493 612.099,-393.956"/>
</g>
<!-- Node26&#45;&gt;Node16 -->
<g id="edge84" class="edge"><title>Node26&#45;&gt;Node16</title>
<path fill="none" stroke="midnightblue" d="M590.516,-362.412C559.882,-351.411 511.789,-334.14 478.021,-322.013"/>
<polygon fill="midnightblue" stroke="midnightblue" points="479.065,-318.669 468.471,-318.584 476.7,-325.257 479.065,-318.669"/>
</g>
<!-- Node27&#45;&gt;Node2 -->
<g id="edge88" class="edge"><title>Node27&#45;&gt;Node2</title>
<path fill="none" stroke="midnightblue" d="M710.922,-550.115C696.734,-535.986 676.714,-510.903 690,-492 717.162,-453.354 756.646,-489.449 790,-456 818.035,-427.886 849.208,-311.252 861.063,-263.511"/>
<polygon fill="midnightblue" stroke="midnightblue" points="864.49,-264.229 863.471,-253.683 857.692,-262.563 864.49,-264.229"/>
</g>
<!-- Node27&#45;&gt;Node16 -->
<g id="edge90" class="edge"><title>Node27&#45;&gt;Node16</title>
<path fill="none" stroke="midnightblue" d="M674.391,-556.833C615.598,-550.817 521.339,-537.725 496,-514 492.522,-510.744 457.922,-380.065 444.387,-328.561"/>
<polygon fill="midnightblue" stroke="midnightblue" points="447.693,-327.368 441.769,-318.584 440.922,-329.145 447.693,-327.368"/>
</g>
<!-- Node27&#45;&gt;Node25 -->
<g id="edge104" class="edge"><title>Node27&#45;&gt;Node25</title>
<path fill="none" stroke="midnightblue" d="M706.387,-550.381C692.659,-541.326 672.912,-527.643 657,-514 635.689,-495.728 613.521,-472.271 599.072,-456.281"/>
<polygon fill="midnightblue" stroke="midnightblue" points="601.539,-453.79 592.265,-448.667 596.321,-458.455 601.539,-453.79"/>
</g>
<!-- Node28 -->
<g id="node74" class="node"><title>Node28</title>
<a xlink:href="MojRefCount_8h.htm" target="_top" xlink:title="core/MojRefCount.h">
<polygon fill="white" stroke="black" points="699,-492.5 699,-513.5 809,-513.5 809,-492.5 699,-492.5"/>
<text text-anchor="middle" x="754" y="-500.5" font-family="Helvetica,sans-Serif" font-size="10.00">core/MojRefCount.h</text>
</a>
</g>
<!-- Node27&#45;&gt;Node28 -->
<g id="edge92" class="edge"><title>Node27&#45;&gt;Node28</title>
<path fill="none" stroke="midnightblue" d="M728.686,-550.362C732.837,-542.595 738.584,-531.843 743.553,-522.546"/>
<polygon fill="midnightblue" stroke="midnightblue" points="746.723,-524.04 748.35,-513.571 740.55,-520.74 746.723,-524.04"/>
</g>
<!-- Node30 -->
<g id="node83" class="node"><title>Node30</title>
<a xlink:href="MojVectorInternal_8h.htm" target="_top" xlink:title="core/internal/MojVectorInternal.h">
<polygon fill="white" stroke="black" points="826.5,-492.5 826.5,-513.5 997.5,-513.5 997.5,-492.5 826.5,-492.5"/>
<text text-anchor="middle" x="912" y="-500.5" font-family="Helvetica,sans-Serif" font-size="10.00">core/internal/MojVectorInternal.h</text>
</a>
</g>
<!-- Node27&#45;&gt;Node30 -->
<g id="edge106" class="edge"><title>Node27&#45;&gt;Node30</title>
<path fill="none" stroke="midnightblue" d="M757.226,-550.497C788.305,-540.959 834.312,-526.841 868.09,-516.475"/>
<polygon fill="midnightblue" stroke="midnightblue" points="869.176,-519.803 877.709,-513.523 867.123,-513.111 869.176,-519.803"/>
</g>
<!-- Node28&#45;&gt;Node2 -->
<g id="edge94" class="edge"><title>Node28&#45;&gt;Node2</title>
<path fill="none" stroke="midnightblue" d="M778.42,-492.352C793.582,-484.481 812.178,-472.302 823,-456 863.43,-395.093 867.291,-304.348 866.779,-263.836"/>
<polygon fill="midnightblue" stroke="midnightblue" points="870.278,-263.724 866.546,-253.809 863.28,-263.887 870.278,-263.724"/>
</g>
<!-- Node28&#45;&gt;Node18 -->
<g id="edge98" class="edge"><title>Node28&#45;&gt;Node18</title>
<path fill="none" stroke="midnightblue" d="M809.031,-493.061C837.662,-486.018 872.183,-474.447 899,-456 923.408,-439.21 943.474,-410.993 955.094,-392.187"/>
<polygon fill="midnightblue" stroke="midnightblue" points="958.122,-393.942 960.24,-383.561 952.11,-390.356 958.122,-393.942"/>
</g>
<!-- Node28&#45;&gt;Node19 -->
<g id="edge96" class="edge"><title>Node28&#45;&gt;Node19</title>
<path fill="none" stroke="midnightblue" d="M795.005,-492.469C816.761,-485.177 842.701,-473.56 861,-456 894.56,-423.796 878.828,-399.009 907,-362 917.719,-347.918 932.533,-334.702 944.877,-324.869"/>
<polygon fill="midnightblue" stroke="midnightblue" points="947.175,-327.516 952.948,-318.632 942.895,-321.977 947.175,-327.516"/>
</g>
<!-- Node29 -->
<g id="node79" class="node"><title>Node29</title>
<a xlink:href="MojRefCountInternal_8h.htm" target="_top" xlink:title="core/internal/MojRefCount\lInternal.h">
<polygon fill="white" stroke="black" points="641,-421 641,-455 781,-455 781,-421 641,-421"/>
<text text-anchor="start" x="649" y="-442" font-family="Helvetica,sans-Serif" font-size="10.00">core/internal/MojRefCount</text>
<text text-anchor="middle" x="711" y="-429" font-family="Helvetica,sans-Serif" font-size="10.00">Internal.h</text>
</a>
</g>
<!-- Node28&#45;&gt;Node29 -->
<g id="edge100" class="edge"><title>Node28&#45;&gt;Node29</title>
<path fill="none" stroke="midnightblue" d="M746.899,-492.267C741.734,-484.458 734.515,-473.546 727.905,-463.554"/>
<polygon fill="midnightblue" stroke="midnightblue" points="730.755,-461.519 722.319,-455.11 724.917,-465.381 730.755,-461.519"/>
</g>
<!-- Node29&#45;&gt;Node26 -->
<g id="edge102" class="edge"><title>Node29&#45;&gt;Node26</title>
<path fill="none" stroke="midnightblue" d="M687.091,-420.922C673.527,-411.233 656.63,-399.165 643.187,-389.562"/>
<polygon fill="midnightblue" stroke="midnightblue" points="645.093,-386.623 634.922,-383.658 641.025,-392.319 645.093,-386.623"/>
</g>
<!-- Node31&#45;&gt;Node2 -->
<g id="edge110" class="edge"><title>Node31&#45;&gt;Node2</title>
<path fill="none" stroke="midnightblue" d="M1148.38,-492.462C1162.67,-484.636 1179.74,-472.467 1188,-456 1206.5,-419.112 1235.29,-350.332 1180,-290 1163.48,-271.97 1018.95,-256.351 931.845,-248.465"/>
<polygon fill="midnightblue" stroke="midnightblue" points="932.052,-244.969 921.78,-247.565 931.429,-251.941 932.052,-244.969"/>
</g>
<!-- Node31&#45;&gt;Node19 -->
<g id="edge112" class="edge"><title>Node31&#45;&gt;Node19</title>
<path fill="none" stroke="midnightblue" d="M1140.93,-492.346C1151.95,-483.944 1165.73,-471.139 1172,-456 1178.12,-441.218 1180.15,-433.77 1172,-420 1153.21,-388.248 1057.4,-344.798 1004.03,-322.501"/>
<polygon fill="midnightblue" stroke="midnightblue" points="1005.17,-319.182 994.589,-318.591 1002.49,-325.65 1005.17,-319.182"/>
</g>
<!-- Node32 -->
<g id="node89" class="node"><title>Node32</title>
<a xlink:href="MojThreadInternal_8h.htm" target="_top" xlink:title="core/internal/MojThreadInternal.h">
<polygon fill="white" stroke="black" points="988.5,-427.5 988.5,-448.5 1163.5,-448.5 1163.5,-427.5 988.5,-427.5"/>
<text text-anchor="middle" x="1076" y="-435.5" font-family="Helvetica,sans-Serif" font-size="10.00">core/internal/MojThreadInternal.h</text>
</a>
</g>
<!-- Node31&#45;&gt;Node32 -->
<g id="edge114" class="edge"><title>Node31&#45;&gt;Node32</title>
<path fill="none" stroke="midnightblue" d="M1116.91,-492.267C1109.63,-482.612 1098.78,-468.215 1090.08,-456.675"/>
<polygon fill="midnightblue" stroke="midnightblue" points="1092.76,-454.412 1083.94,-448.534 1087.17,-458.626 1092.76,-454.412"/>
</g>
<!-- Node32&#45;&gt;Node18 -->
<g id="edge116" class="edge"><title>Node32&#45;&gt;Node18</title>
<path fill="none" stroke="midnightblue" d="M1057.84,-427.267C1040.06,-416.76 1012.77,-400.637 992.556,-388.692"/>
<polygon fill="midnightblue" stroke="midnightblue" points="994.216,-385.608 983.826,-383.534 990.655,-391.634 994.216,-385.608"/>
</g>
</g>
</svg>
