<?xml version="1.0" encoding="UTF-8" standalone="no"?>
<!DOCTYPE svg PUBLIC "-//W3C//DTD SVG 1.1//EN"
 "http://www.w3.org/Graphics/SVG/1.1/DTD/svg11.dtd">
<!-- Generated by graphviz version 2.26.3 (20100126.1600)
 -->
<!-- Title: MojRbTreeBase.cpp Pages: 1 -->
<svg width="703pt" height="508pt"
 viewBox="0.00 0.00 703.00 508.00" xmlns="http://www.w3.org/2000/svg" xmlns:xlink="http://www.w3.org/1999/xlink">
<g id="graph1" class="graph" transform="scale(1 1) rotate(0) translate(4 504)">
<title>MojRbTreeBase.cpp</title>
<polygon fill="white" stroke="white" points="-4,5 -4,-504 700,-504 700,5 -4,5"/>
<!-- Node1 -->
<g id="node1" class="node"><title>Node1</title>
<polygon fill="#bfbfbf" stroke="black" points="336.5,-478.5 336.5,-499.5 449.5,-499.5 449.5,-478.5 336.5,-478.5"/>
<text text-anchor="middle" x="393" y="-486.5" font-family="Helvetica,sans-Serif" font-size="10.00">MojRbTreeBase.cpp</text>
</g>
<!-- Node2 -->
<g id="node3" class="node"><title>Node2</title>
<a xlink:href="MojRbTreeBase_8h.htm" target="_top" xlink:title="core/internal/MojRbTreeBase.h">
<polygon fill="white" stroke="black" points="311,-420.5 311,-441.5 475,-441.5 475,-420.5 311,-420.5"/>
<text text-anchor="middle" x="393" y="-428.5" font-family="Helvetica,sans-Serif" font-size="10.00">core/internal/MojRbTreeBase.h</text>
</a>
</g>
<!-- Node1&#45;&gt;Node2 -->
<g id="edge2" class="edge"><title>Node1&#45;&gt;Node2</title>
<path fill="none" stroke="midnightblue" d="M393,-478.362C393,-470.922 393,-460.743 393,-451.728"/>
<polygon fill="midnightblue" stroke="midnightblue" points="396.5,-451.571 393,-441.571 389.5,-451.571 396.5,-451.571"/>
</g>
<!-- Node3 -->
<g id="node5" class="node"><title>Node3</title>
<a xlink:href="MojCoreDefs_8h.htm" target="_top" xlink:title="core/MojCoreDefs.h">
<polygon fill="white" stroke="black" points="278.5,-232.5 278.5,-253.5 389.5,-253.5 389.5,-232.5 278.5,-232.5"/>
<text text-anchor="middle" x="334" y="-240.5" font-family="Helvetica,sans-Serif" font-size="10.00">core/MojCoreDefs.h</text>
</a>
</g>
<!-- Node2&#45;&gt;Node3 -->
<g id="edge4" class="edge"><title>Node2&#45;&gt;Node3</title>
<path fill="none" stroke="midnightblue" d="M389.28,-420.314C382.724,-401.383 368.788,-360.677 358,-326 351.384,-304.734 344.369,-280.216 339.644,-263.372"/>
<polygon fill="midnightblue" stroke="midnightblue" points="342.954,-262.214 336.896,-253.522 336.212,-264.095 342.954,-262.214"/>
</g>
<!-- Node13 -->
<g id="node25" class="node"><title>Node13</title>
<a xlink:href="MojAutoPtr_8h.htm" target="_top" xlink:title="core/MojAutoPtr.h">
<polygon fill="white" stroke="black" points="403.5,-362.5 403.5,-383.5 504.5,-383.5 504.5,-362.5 403.5,-362.5"/>
<text text-anchor="middle" x="454" y="-370.5" font-family="Helvetica,sans-Serif" font-size="10.00">core/MojAutoPtr.h</text>
</a>
</g>
<!-- Node2&#45;&gt;Node13 -->
<g id="edge24" class="edge"><title>Node2&#45;&gt;Node13</title>
<path fill="none" stroke="midnightblue" d="M404.188,-420.362C412.959,-412.023 425.349,-400.242 435.578,-390.516"/>
<polygon fill="midnightblue" stroke="midnightblue" points="438.047,-392.998 442.883,-383.571 433.224,-387.925 438.047,-392.998"/>
</g>
<!-- Node4 -->
<g id="node7" class="node"><title>Node4</title>
<a xlink:href="MojConfig_8h.htm" target="_top" xlink:title="core/internal/MojConfig.h">
<polygon fill="white" stroke="black" points="-0.5,-174.5 -0.5,-195.5 134.5,-195.5 134.5,-174.5 -0.5,-174.5"/>
<text text-anchor="middle" x="67" y="-182.5" font-family="Helvetica,sans-Serif" font-size="10.00">core/internal/MojConfig.h</text>
</a>
</g>
<!-- Node3&#45;&gt;Node4 -->
<g id="edge6" class="edge"><title>Node3&#45;&gt;Node4</title>
<path fill="none" stroke="midnightblue" d="M285.648,-232.497C240.613,-222.714 173.389,-208.111 125.38,-197.682"/>
<polygon fill="midnightblue" stroke="midnightblue" points="125.957,-194.226 115.442,-195.523 124.471,-201.066 125.957,-194.226"/>
</g>
<!-- Node5 -->
<g id="node9" class="node"><title>Node5</title>
<a xlink:href="MojNew_8h.htm" target="_top" xlink:title="core/internal/MojNew.h">
<polygon fill="white" stroke="black" points="151.5,-174.5 151.5,-195.5 276.5,-195.5 276.5,-174.5 151.5,-174.5"/>
<text text-anchor="middle" x="214" y="-182.5" font-family="Helvetica,sans-Serif" font-size="10.00">core/internal/MojNew.h</text>
</a>
</g>
<!-- Node3&#45;&gt;Node5 -->
<g id="edge8" class="edge"><title>Node3&#45;&gt;Node5</title>
<path fill="none" stroke="midnightblue" d="M312.269,-232.497C293.526,-223.438 266.233,-210.246 245.164,-200.063"/>
<polygon fill="midnightblue" stroke="midnightblue" points="246.502,-196.822 235.975,-195.621 243.455,-203.124 246.502,-196.822"/>
</g>
<!-- Node7 -->
<g id="node13" class="node"><title>Node7</title>
<a xlink:href="MojErr_8h.htm" target="_top" xlink:title="core/MojErr.h">
<polygon fill="white" stroke="black" points="294,-174.5 294,-195.5 374,-195.5 374,-174.5 294,-174.5"/>
<text text-anchor="middle" x="334" y="-182.5" font-family="Helvetica,sans-Serif" font-size="10.00">core/MojErr.h</text>
</a>
</g>
<!-- Node3&#45;&gt;Node7 -->
<g id="edge12" class="edge"><title>Node3&#45;&gt;Node7</title>
<path fill="none" stroke="midnightblue" d="M334,-232.362C334,-224.922 334,-214.743 334,-205.728"/>
<polygon fill="midnightblue" stroke="midnightblue" points="337.5,-205.571 334,-195.571 330.5,-205.571 337.5,-205.571"/>
</g>
<!-- Node11 -->
<g id="node21" class="node"><title>Node11</title>
<a xlink:href="MojOs_8h.htm" target="_top" xlink:title="core/MojOs.h">
<polygon fill="white" stroke="black" points="392,-174.5 392,-195.5 472,-195.5 472,-174.5 392,-174.5"/>
<text text-anchor="middle" x="432" y="-182.5" font-family="Helvetica,sans-Serif" font-size="10.00">core/MojOs.h</text>
</a>
</g>
<!-- Node3&#45;&gt;Node11 -->
<g id="edge20" class="edge"><title>Node3&#45;&gt;Node11</title>
<path fill="none" stroke="midnightblue" d="M351.975,-232.362C366.894,-223.532 388.333,-210.844 405.266,-200.822"/>
<polygon fill="midnightblue" stroke="midnightblue" points="407.316,-203.676 414.139,-195.571 403.751,-197.652 407.316,-203.676"/>
</g>
<!-- Node6 -->
<g id="node11" class="node"><title>Node6</title>
<polygon fill="white" stroke="#bfbfbf" points="196,-116.5 196,-137.5 232,-137.5 232,-116.5 196,-116.5"/>
<text text-anchor="middle" x="214" y="-124.5" font-family="Helvetica,sans-Serif" font-size="10.00">new</text>
</g>
<!-- Node5&#45;&gt;Node6 -->
<g id="edge10" class="edge"><title>Node5&#45;&gt;Node6</title>
<path fill="none" stroke="midnightblue" d="M214,-174.362C214,-166.922 214,-156.743 214,-147.728"/>
<polygon fill="midnightblue" stroke="midnightblue" points="217.5,-147.571 214,-137.571 210.5,-147.571 217.5,-147.571"/>
</g>
<!-- Node8 -->
<g id="node15" class="node"><title>Node8</title>
<a xlink:href="MojLog_8h.htm" target="_top" xlink:title="core/MojLog.h">
<polygon fill="white" stroke="black" points="253,-116.5 253,-137.5 337,-137.5 337,-116.5 253,-116.5"/>
<text text-anchor="middle" x="295" y="-124.5" font-family="Helvetica,sans-Serif" font-size="10.00">core/MojLog.h</text>
</a>
</g>
<!-- Node7&#45;&gt;Node8 -->
<g id="edge14" class="edge"><title>Node7&#45;&gt;Node8</title>
<path fill="none" stroke="midnightblue" d="M326.847,-174.362C321.514,-166.431 314.089,-155.389 307.749,-145.961"/>
<polygon fill="midnightblue" stroke="midnightblue" points="310.592,-143.916 302.108,-137.571 304.783,-147.822 310.592,-143.916"/>
</g>
<!-- Node9 -->
<g id="node17" class="node"><title>Node9</title>
<a xlink:href="MojListEntry_8h.htm" target="_top" xlink:title="core/MojListEntry.h">
<polygon fill="white" stroke="black" points="322.5,-58.5 322.5,-79.5 429.5,-79.5 429.5,-58.5 322.5,-58.5"/>
<text text-anchor="middle" x="376" y="-66.5" font-family="Helvetica,sans-Serif" font-size="10.00">core/MojListEntry.h</text>
</a>
</g>
<!-- Node8&#45;&gt;Node9 -->
<g id="edge16" class="edge"><title>Node8&#45;&gt;Node9</title>
<path fill="none" stroke="midnightblue" d="M309.857,-116.362C321.846,-107.777 338.927,-95.5459 352.728,-85.6636"/>
<polygon fill="midnightblue" stroke="midnightblue" points="355.145,-88.2383 361.238,-79.5707 351.069,-82.5469 355.145,-88.2383"/>
</g>
<!-- Node10 -->
<g id="node19" class="node"><title>Node10</title>
<a xlink:href="MojNoCopy_8h.htm" target="_top" xlink:title="core/MojNoCopy.h">
<polygon fill="white" stroke="black" points="404,-0.5 404,-21.5 508,-21.5 508,-0.5 404,-0.5"/>
<text text-anchor="middle" x="456" y="-8.5" font-family="Helvetica,sans-Serif" font-size="10.00">core/MojNoCopy.h</text>
</a>
</g>
<!-- Node9&#45;&gt;Node10 -->
<g id="edge18" class="edge"><title>Node9&#45;&gt;Node10</title>
<path fill="none" stroke="midnightblue" d="M390.673,-58.3619C402.514,-49.7773 419.385,-37.5459 433.016,-27.6636"/>
<polygon fill="midnightblue" stroke="midnightblue" points="435.378,-30.274 441.42,-21.5707 431.269,-24.6067 435.378,-30.274"/>
</g>
<!-- Node12 -->
<g id="node23" class="node"><title>Node12</title>
<a xlink:href="MojOsInternal_8h.htm" target="_top" xlink:title="core/internal/MojOsInternal.h">
<polygon fill="white" stroke="black" points="355,-116.5 355,-137.5 509,-137.5 509,-116.5 355,-116.5"/>
<text text-anchor="middle" x="432" y="-124.5" font-family="Helvetica,sans-Serif" font-size="10.00">core/internal/MojOsInternal.h</text>
</a>
</g>
<!-- Node11&#45;&gt;Node12 -->
<g id="edge22" class="edge"><title>Node11&#45;&gt;Node12</title>
<path fill="none" stroke="midnightblue" d="M432,-174.362C432,-166.922 432,-156.743 432,-147.728"/>
<polygon fill="midnightblue" stroke="midnightblue" points="435.5,-147.571 432,-137.571 428.5,-147.571 435.5,-147.571"/>
</g>
<!-- Node13&#45;&gt;Node3 -->
<g id="edge26" class="edge"><title>Node13&#45;&gt;Node3</title>
<path fill="none" stroke="midnightblue" d="M436.43,-362.463C422.8,-353.759 403.945,-340.513 390,-326 371.302,-306.541 354.687,-280.158 344.505,-262.406"/>
<polygon fill="midnightblue" stroke="midnightblue" points="347.476,-260.548 339.538,-253.53 341.368,-263.966 347.476,-260.548"/>
</g>
<!-- Node13&#45;&gt;Node10 -->
<g id="edge32" class="edge"><title>Node13&#45;&gt;Node10</title>
<path fill="none" stroke="midnightblue" d="M475.6,-362.383C489.774,-354.316 507.555,-341.9 518,-326 538.777,-294.371 537,-280.843 537,-243 537,-243 537,-243 537,-127 537,-85.9121 502.416,-48.9919 478.444,-28.336"/>
<polygon fill="midnightblue" stroke="midnightblue" points="480.412,-25.4209 470.481,-21.7279 475.941,-30.8075 480.412,-25.4209"/>
</g>
<!-- Node14 -->
<g id="node28" class="node"><title>Node14</title>
<a xlink:href="MojAtomicInt_8h.htm" target="_top" xlink:title="core/MojAtomicInt.h">
<polygon fill="white" stroke="black" points="399,-297.5 399,-318.5 509,-318.5 509,-297.5 399,-297.5"/>
<text text-anchor="middle" x="454" y="-305.5" font-family="Helvetica,sans-Serif" font-size="10.00">core/MojAtomicInt.h</text>
</a>
</g>
<!-- Node13&#45;&gt;Node14 -->
<g id="edge28" class="edge"><title>Node13&#45;&gt;Node14</title>
<path fill="none" stroke="midnightblue" d="M454,-362.267C454,-353.18 454,-339.892 454,-328.74"/>
<polygon fill="midnightblue" stroke="midnightblue" points="457.5,-328.534 454,-318.534 450.5,-328.534 457.5,-328.534"/>
</g>
<!-- Node15 -->
<g id="node32" class="node"><title>Node15</title>
<a xlink:href="MojAutoPtrInternal_8h.htm" target="_top" xlink:title="core/internal/MojAutoPtr\lInternal.h">
<polygon fill="white" stroke="black" points="564.5,-291 564.5,-325 695.5,-325 695.5,-291 564.5,-291"/>
<text text-anchor="start" x="572.5" y="-312" font-family="Helvetica,sans-Serif" font-size="10.00">core/internal/MojAutoPtr</text>
<text text-anchor="middle" x="630" y="-299" font-family="Helvetica,sans-Serif" font-size="10.00">Internal.h</text>
</a>
</g>
<!-- Node13&#45;&gt;Node15 -->
<g id="edge34" class="edge"><title>Node13&#45;&gt;Node15</title>
<path fill="none" stroke="midnightblue" d="M482.669,-362.412C507.367,-353.291 543.736,-339.859 574.159,-328.623"/>
<polygon fill="midnightblue" stroke="midnightblue" points="575.638,-331.808 583.806,-325.06 573.212,-325.242 575.638,-331.808"/>
</g>
<!-- Node14&#45;&gt;Node3 -->
<g id="edge30" class="edge"><title>Node14&#45;&gt;Node3</title>
<path fill="none" stroke="midnightblue" d="M434.453,-297.412C414.927,-286.836 384.704,-270.465 362.506,-258.441"/>
<polygon fill="midnightblue" stroke="midnightblue" points="363.999,-255.269 353.539,-253.584 360.665,-261.424 363.999,-255.269"/>
</g>
</g>
</svg>
