<?xml version="1.0" encoding="UTF-8" standalone="no"?>
<!DOCTYPE svg PUBLIC "-//W3C//DTD SVG 1.1//EN"
 "http://www.w3.org/Graphics/SVG/1.1/DTD/svg11.dtd">
<!-- Generated by graphviz version 2.26.3 (20100126.1600)
 -->
<!-- Title: MojReactor.h Pages: 1 -->
<svg width="719pt" height="204pt"
 viewBox="0.00 0.00 719.00 204.00" xmlns="http://www.w3.org/2000/svg" xmlns:xlink="http://www.w3.org/1999/xlink">
<g id="graph1" class="graph" transform="scale(1 1) rotate(0) translate(4 200)">
<title>MojReactor.h</title>
<polygon fill="white" stroke="white" points="-4,5 -4,-200 716,-200 716,5 -4,5"/>
<!-- Node1 -->
<g id="node1" class="node"><title>Node1</title>
<polygon fill="#bfbfbf" stroke="black" points="367,-174.5 367,-195.5 447,-195.5 447,-174.5 367,-174.5"/>
<text text-anchor="middle" x="407" y="-182.5" font-family="Helvetica,sans-Serif" font-size="10.00">MojReactor.h</text>
</g>
<!-- Node2 -->
<g id="node3" class="node"><title>Node2</title>
<a xlink:href="MojEpollReactor_8h.htm" target="_top" xlink:title="MojEpollReactor.h">
<polygon fill="white" stroke="black" points="84.5,-116.5 84.5,-137.5 187.5,-137.5 187.5,-116.5 84.5,-116.5"/>
<text text-anchor="middle" x="136" y="-124.5" font-family="Helvetica,sans-Serif" font-size="10.00">MojEpollReactor.h</text>
</a>
</g>
<!-- Node1&#45;&gt;Node2 -->
<g id="edge2" class="edge"><title>Node1&#45;&gt;Node2</title>
<path fill="none" stroke="midnightblue" d="M356.672,-174.229C307.718,-163.751 233.817,-147.935 185.238,-137.538"/>
<polygon fill="midnightblue" stroke="midnightblue" points="356.21,-177.709 366.721,-176.379 357.675,-170.864 356.21,-177.709"/>
</g>
<!-- Node4 -->
<g id="node7" class="node"><title>Node4</title>
<a xlink:href="MojGmainReactor_8h.htm" target="_top" xlink:title="MojGmainReactor.h">
<polygon fill="white" stroke="black" points="283,-116.5 283,-137.5 393,-137.5 393,-116.5 283,-116.5"/>
<text text-anchor="middle" x="338" y="-124.5" font-family="Helvetica,sans-Serif" font-size="10.00">MojGmainReactor.h</text>
</a>
</g>
<!-- Node1&#45;&gt;Node4 -->
<g id="edge6" class="edge"><title>Node1&#45;&gt;Node4</title>
<path fill="none" stroke="midnightblue" d="M386.408,-167.691C374.76,-157.9 360.571,-145.973 350.575,-137.571"/>
<polygon fill="midnightblue" stroke="midnightblue" points="384.437,-170.607 394.344,-174.362 388.942,-165.248 384.437,-170.607"/>
</g>
<!-- Node8 -->
<g id="node15" class="node"><title>Node8</title>
<a xlink:href="MojSocketService_8h.htm" target="_top" xlink:title="MojSocketService.h">
<polygon fill="white" stroke="black" points="421,-116.5 421,-137.5 531,-137.5 531,-116.5 421,-116.5"/>
<text text-anchor="middle" x="476" y="-124.5" font-family="Helvetica,sans-Serif" font-size="10.00">MojSocketService.h</text>
</a>
</g>
<!-- Node1&#45;&gt;Node8 -->
<g id="edge14" class="edge"><title>Node1&#45;&gt;Node8</title>
<path fill="none" stroke="midnightblue" d="M427.592,-167.691C439.24,-157.9 453.429,-145.973 463.425,-137.571"/>
<polygon fill="midnightblue" stroke="midnightblue" points="425.058,-165.248 419.656,-174.362 429.563,-170.607 425.058,-165.248"/>
</g>
<!-- Node11 -->
<g id="node21" class="node"><title>Node11</title>
<a xlink:href="MojDbServiceHandlerBase_8cpp.htm" target="_top" xlink:title="MojDbServiceHandlerBase.cpp">
<polygon fill="white" stroke="black" points="548.5,-116.5 548.5,-137.5 711.5,-137.5 711.5,-116.5 548.5,-116.5"/>
<text text-anchor="middle" x="630" y="-124.5" font-family="Helvetica,sans-Serif" font-size="10.00">MojDbServiceHandlerBase.cpp</text>
</a>
</g>
<!-- Node1&#45;&gt;Node11 -->
<g id="edge20" class="edge"><title>Node1&#45;&gt;Node11</title>
<path fill="none" stroke="midnightblue" d="M456.931,-172.013C496.883,-161.622 552.197,-147.236 589.444,-137.548"/>
<polygon fill="midnightblue" stroke="midnightblue" points="455.922,-168.659 447.125,-174.564 457.685,-175.434 455.922,-168.659"/>
</g>
<!-- Node3 -->
<g id="node5" class="node"><title>Node3</title>
<a xlink:href="MojEpollReactor_8cpp.htm" target="_top" xlink:title="MojEpollReactor.cpp">
<polygon fill="white" stroke="black" points="0,-58.5 0,-79.5 114,-79.5 114,-58.5 0,-58.5"/>
<text text-anchor="middle" x="57" y="-66.5" font-family="Helvetica,sans-Serif" font-size="10.00">MojEpollReactor.cpp</text>
</a>
</g>
<!-- Node2&#45;&gt;Node3 -->
<g id="edge4" class="edge"><title>Node2&#45;&gt;Node3</title>
<path fill="none" stroke="midnightblue" d="M113.197,-110.259C99.7201,-100.364 83.0647,-88.1361 71.398,-79.5707"/>
<polygon fill="midnightblue" stroke="midnightblue" points="111.378,-113.265 121.51,-116.362 115.521,-107.623 111.378,-113.265"/>
</g>
<!-- Node5 -->
<g id="node9" class="node"><title>Node5</title>
<a xlink:href="MojGmainReactor_8cpp.htm" target="_top" xlink:title="MojGmainReactor.cpp">
<polygon fill="white" stroke="black" points="132,-58.5 132,-79.5 254,-79.5 254,-58.5 132,-58.5"/>
<text text-anchor="middle" x="193" y="-66.5" font-family="Helvetica,sans-Serif" font-size="10.00">MojGmainReactor.cpp</text>
</a>
</g>
<!-- Node4&#45;&gt;Node5 -->
<g id="edge8" class="edge"><title>Node4&#45;&gt;Node5</title>
<path fill="none" stroke="midnightblue" d="M302.377,-112.751C276.771,-102.509 242.801,-88.9206 219.553,-79.6212"/>
<polygon fill="midnightblue" stroke="midnightblue" points="301.157,-116.032 311.742,-116.497 303.757,-109.533 301.157,-116.032"/>
</g>
<!-- Node6 -->
<g id="node11" class="node"><title>Node6</title>
<a xlink:href="MojDbLunaServiceApp_8h.htm" target="_top" xlink:title="MojDbLunaServiceApp.h">
<polygon fill="white" stroke="black" points="272,-58.5 272,-79.5 404,-79.5 404,-58.5 272,-58.5"/>
<text text-anchor="middle" x="338" y="-66.5" font-family="Helvetica,sans-Serif" font-size="10.00">MojDbLunaServiceApp.h</text>
</a>
</g>
<!-- Node4&#45;&gt;Node6 -->
<g id="edge10" class="edge"><title>Node4&#45;&gt;Node6</title>
<path fill="none" stroke="midnightblue" d="M338,-106.191C338,-97.1684 338,-86.9941 338,-79.5707"/>
<polygon fill="midnightblue" stroke="midnightblue" points="334.5,-106.362 338,-116.362 341.5,-106.362 334.5,-106.362"/>
</g>
<!-- Node7 -->
<g id="node13" class="node"><title>Node7</title>
<a xlink:href="MojDbLunaServiceApp_8cpp.htm" target="_top" xlink:title="MojDbLunaServiceApp.cpp">
<polygon fill="white" stroke="black" points="266.5,-0.5 266.5,-21.5 409.5,-21.5 409.5,-0.5 266.5,-0.5"/>
<text text-anchor="middle" x="338" y="-8.5" font-family="Helvetica,sans-Serif" font-size="10.00">MojDbLunaServiceApp.cpp</text>
</a>
</g>
<!-- Node6&#45;&gt;Node7 -->
<g id="edge12" class="edge"><title>Node6&#45;&gt;Node7</title>
<path fill="none" stroke="midnightblue" d="M338,-48.1906C338,-39.1684 338,-28.9941 338,-21.5707"/>
<polygon fill="midnightblue" stroke="midnightblue" points="334.5,-48.3619 338,-58.3619 341.5,-48.3619 334.5,-48.3619"/>
</g>
<!-- Node9 -->
<g id="node17" class="node"><title>Node9</title>
<a xlink:href="MojSocketMessage_8cpp.htm" target="_top" xlink:title="MojSocketMessage.cpp">
<polygon fill="white" stroke="black" points="421.5,-58.5 421.5,-79.5 550.5,-79.5 550.5,-58.5 421.5,-58.5"/>
<text text-anchor="middle" x="486" y="-66.5" font-family="Helvetica,sans-Serif" font-size="10.00">MojSocketMessage.cpp</text>
</a>
</g>
<!-- Node8&#45;&gt;Node9 -->
<g id="edge16" class="edge"><title>Node8&#45;&gt;Node9</title>
<path fill="none" stroke="midnightblue" d="M479.537,-106.488C481.105,-97.3924 482.884,-87.0756 484.177,-79.5707"/>
<polygon fill="midnightblue" stroke="midnightblue" points="476.084,-105.913 477.834,-116.362 482.982,-107.102 476.084,-105.913"/>
</g>
<!-- Node10 -->
<g id="node19" class="node"><title>Node10</title>
<a xlink:href="MojSocketService_8cpp.htm" target="_top" xlink:title="MojSocketService.cpp">
<polygon fill="white" stroke="black" points="567.5,-58.5 567.5,-79.5 688.5,-79.5 688.5,-58.5 567.5,-58.5"/>
<text text-anchor="middle" x="628" y="-66.5" font-family="Helvetica,sans-Serif" font-size="10.00">MojSocketService.cpp</text>
</a>
</g>
<!-- Node8&#45;&gt;Node10 -->
<g id="edge18" class="edge"><title>Node8&#45;&gt;Node10</title>
<path fill="none" stroke="midnightblue" d="M513.019,-112.874C539.992,-102.582 575.948,-88.862 600.422,-79.5231"/>
<polygon fill="midnightblue" stroke="midnightblue" points="511.621,-109.661 503.526,-116.497 514.117,-116.202 511.621,-109.661"/>
</g>
</g>
</svg>
