<?xml version="1.0" encoding="UTF-8" standalone="no"?>
<!DOCTYPE svg PUBLIC "-//W3C//DTD SVG 1.1//EN"
 "http://www.w3.org/Graphics/SVG/1.1/DTD/svg11.dtd">
<!-- Generated by graphviz version 2.26.3 (20100126.1600)
 -->
<!-- Title: MojReactorApp.h Pages: 1 -->
<svg width="1426pt" height="884pt"
 viewBox="0.00 0.00 1426.00 884.00" xmlns="http://www.w3.org/2000/svg" xmlns:xlink="http://www.w3.org/1999/xlink">
<g id="graph1" class="graph" transform="scale(1 1) rotate(0) translate(4 880)">
<title>MojReactorApp.h</title>
<polygon fill="white" stroke="white" points="-4,5 -4,-880 1423,-880 1423,5 -4,5"/>
<!-- Node1 -->
<g id="node1" class="node"><title>Node1</title>
<polygon fill="#bfbfbf" stroke="black" points="1207,-854.5 1207,-875.5 1305,-875.5 1305,-854.5 1207,-854.5"/>
<text text-anchor="middle" x="1256" y="-862.5" font-family="Helvetica,sans-Serif" font-size="10.00">MojReactorApp.h</text>
</g>
<!-- Node2 -->
<g id="node3" class="node"><title>Node2</title>
<a xlink:href="MojCoreDefs_8h.htm" target="_top" xlink:title="core/MojCoreDefs.h">
<polygon fill="white" stroke="black" points="737.5,-232.5 737.5,-253.5 848.5,-253.5 848.5,-232.5 737.5,-232.5"/>
<text text-anchor="middle" x="793" y="-240.5" font-family="Helvetica,sans-Serif" font-size="10.00">core/MojCoreDefs.h</text>
</a>
</g>
<!-- Node1&#45;&gt;Node2 -->
<g id="edge2" class="edge"><title>Node1&#45;&gt;Node2</title>
<path fill="none" stroke="midnightblue" d="M1256,-854.214C1256,-831.939 1256,-779.236 1256,-735 1256,-735 1256,-735 1256,-366 1256,-284.82 986.772,-255.925 858.917,-246.78"/>
<polygon fill="midnightblue" stroke="midnightblue" points="859.067,-243.282 848.849,-246.08 858.582,-250.266 859.067,-243.282"/>
</g>
<!-- Node12 -->
<g id="node23" class="node"><title>Node12</title>
<a xlink:href="MojServiceApp_8h.htm" target="_top" xlink:title="core/MojServiceApp.h">
<polygon fill="white" stroke="black" points="1108,-789.5 1108,-810.5 1228,-810.5 1228,-789.5 1108,-789.5"/>
<text text-anchor="middle" x="1168" y="-797.5" font-family="Helvetica,sans-Serif" font-size="10.00">core/MojServiceApp.h</text>
</a>
</g>
<!-- Node1&#45;&gt;Node12 -->
<g id="edge22" class="edge"><title>Node1&#45;&gt;Node12</title>
<path fill="none" stroke="midnightblue" d="M1241.47,-854.267C1227.63,-844.044 1206.59,-828.504 1190.57,-816.67"/>
<polygon fill="midnightblue" stroke="midnightblue" points="1192.38,-813.66 1182.26,-810.534 1188.23,-819.29 1192.38,-813.66"/>
</g>
<!-- Node30 -->
<g id="node88" class="node"><title>Node30</title>
<a xlink:href="MojReactorAppInternal_8h.htm" target="_top" xlink:title="core/internal/MojReactor\lAppInternal.h">
<polygon fill="white" stroke="black" points="1284,-783 1284,-817 1418,-817 1418,-783 1284,-783"/>
<text text-anchor="start" x="1292" y="-804" font-family="Helvetica,sans-Serif" font-size="10.00">core/internal/MojReactor</text>
<text text-anchor="middle" x="1351" y="-791" font-family="Helvetica,sans-Serif" font-size="10.00">AppInternal.h</text>
</a>
</g>
<!-- Node1&#45;&gt;Node30 -->
<g id="edge116" class="edge"><title>Node1&#45;&gt;Node30</title>
<path fill="none" stroke="midnightblue" d="M1271.69,-854.267C1284.14,-845.748 1301.99,-833.537 1317.6,-822.854"/>
<polygon fill="midnightblue" stroke="midnightblue" points="1319.72,-825.645 1325.99,-817.11 1315.76,-819.868 1319.72,-825.645"/>
</g>
<!-- Node3 -->
<g id="node5" class="node"><title>Node3</title>
<a xlink:href="MojConfig_8h.htm" target="_top" xlink:title="core/internal/MojConfig.h">
<polygon fill="white" stroke="black" points="850.5,-174.5 850.5,-195.5 985.5,-195.5 985.5,-174.5 850.5,-174.5"/>
<text text-anchor="middle" x="918" y="-182.5" font-family="Helvetica,sans-Serif" font-size="10.00">core/internal/MojConfig.h</text>
</a>
</g>
<!-- Node2&#45;&gt;Node3 -->
<g id="edge4" class="edge"><title>Node2&#45;&gt;Node3</title>
<path fill="none" stroke="midnightblue" d="M815.637,-232.497C835.248,-223.397 863.846,-210.127 885.833,-199.925"/>
<polygon fill="midnightblue" stroke="midnightblue" points="887.512,-203.005 895.109,-195.621 884.565,-196.655 887.512,-203.005"/>
</g>
<!-- Node4 -->
<g id="node7" class="node"><title>Node4</title>
<a xlink:href="MojNew_8h.htm" target="_top" xlink:title="core/internal/MojNew.h">
<polygon fill="white" stroke="black" points="512.5,-174.5 512.5,-195.5 637.5,-195.5 637.5,-174.5 512.5,-174.5"/>
<text text-anchor="middle" x="575" y="-182.5" font-family="Helvetica,sans-Serif" font-size="10.00">core/internal/MojNew.h</text>
</a>
</g>
<!-- Node2&#45;&gt;Node4 -->
<g id="edge6" class="edge"><title>Node2&#45;&gt;Node4</title>
<path fill="none" stroke="midnightblue" d="M753.522,-232.497C717.367,-222.877 663.696,-208.598 624.647,-198.209"/>
<polygon fill="midnightblue" stroke="midnightblue" points="625.116,-194.712 614.552,-195.523 623.316,-201.477 625.116,-194.712"/>
</g>
<!-- Node6 -->
<g id="node11" class="node"><title>Node6</title>
<a xlink:href="MojErr_8h.htm" target="_top" xlink:title="core/MojErr.h">
<polygon fill="white" stroke="black" points="655,-174.5 655,-195.5 735,-195.5 735,-174.5 655,-174.5"/>
<text text-anchor="middle" x="695" y="-182.5" font-family="Helvetica,sans-Serif" font-size="10.00">core/MojErr.h</text>
</a>
</g>
<!-- Node2&#45;&gt;Node6 -->
<g id="edge10" class="edge"><title>Node2&#45;&gt;Node6</title>
<path fill="none" stroke="midnightblue" d="M775.025,-232.362C760.106,-223.532 738.667,-210.844 721.734,-200.822"/>
<polygon fill="midnightblue" stroke="midnightblue" points="723.249,-197.652 712.861,-195.571 719.684,-203.676 723.249,-197.652"/>
</g>
<!-- Node10 -->
<g id="node19" class="node"><title>Node10</title>
<a xlink:href="MojOs_8h.htm" target="_top" xlink:title="core/MojOs.h">
<polygon fill="white" stroke="black" points="753,-174.5 753,-195.5 833,-195.5 833,-174.5 753,-174.5"/>
<text text-anchor="middle" x="793" y="-182.5" font-family="Helvetica,sans-Serif" font-size="10.00">core/MojOs.h</text>
</a>
</g>
<!-- Node2&#45;&gt;Node10 -->
<g id="edge18" class="edge"><title>Node2&#45;&gt;Node10</title>
<path fill="none" stroke="midnightblue" d="M793,-232.362C793,-224.922 793,-214.743 793,-205.728"/>
<polygon fill="midnightblue" stroke="midnightblue" points="796.5,-205.571 793,-195.571 789.5,-205.571 796.5,-205.571"/>
</g>
<!-- Node5 -->
<g id="node9" class="node"><title>Node5</title>
<polygon fill="white" stroke="#bfbfbf" points="557,-116.5 557,-137.5 593,-137.5 593,-116.5 557,-116.5"/>
<text text-anchor="middle" x="575" y="-124.5" font-family="Helvetica,sans-Serif" font-size="10.00">new</text>
</g>
<!-- Node4&#45;&gt;Node5 -->
<g id="edge8" class="edge"><title>Node4&#45;&gt;Node5</title>
<path fill="none" stroke="midnightblue" d="M575,-174.362C575,-166.922 575,-156.743 575,-147.728"/>
<polygon fill="midnightblue" stroke="midnightblue" points="578.5,-147.571 575,-137.571 571.5,-147.571 578.5,-147.571"/>
</g>
<!-- Node7 -->
<g id="node13" class="node"><title>Node7</title>
<a xlink:href="MojLog_8h.htm" target="_top" xlink:title="core/MojLog.h">
<polygon fill="white" stroke="black" points="613,-116.5 613,-137.5 697,-137.5 697,-116.5 613,-116.5"/>
<text text-anchor="middle" x="655" y="-124.5" font-family="Helvetica,sans-Serif" font-size="10.00">core/MojLog.h</text>
</a>
</g>
<!-- Node6&#45;&gt;Node7 -->
<g id="edge12" class="edge"><title>Node6&#45;&gt;Node7</title>
<path fill="none" stroke="midnightblue" d="M687.663,-174.362C682.194,-166.431 674.578,-155.389 668.076,-145.961"/>
<polygon fill="midnightblue" stroke="midnightblue" points="670.849,-143.816 662.29,-137.571 665.086,-147.79 670.849,-143.816"/>
</g>
<!-- Node8 -->
<g id="node15" class="node"><title>Node8</title>
<a xlink:href="MojListEntry_8h.htm" target="_top" xlink:title="core/MojListEntry.h">
<polygon fill="white" stroke="black" points="304.5,-58.5 304.5,-79.5 411.5,-79.5 411.5,-58.5 304.5,-58.5"/>
<text text-anchor="middle" x="358" y="-66.5" font-family="Helvetica,sans-Serif" font-size="10.00">core/MojListEntry.h</text>
</a>
</g>
<!-- Node7&#45;&gt;Node8 -->
<g id="edge14" class="edge"><title>Node7&#45;&gt;Node8</title>
<path fill="none" stroke="midnightblue" d="M612.774,-118.179C609.132,-117.436 605.502,-116.701 602,-116 540.857,-103.767 470.973,-90.3645 421.711,-81.0131"/>
<polygon fill="midnightblue" stroke="midnightblue" points="422.31,-77.5644 411.833,-79.1398 421.006,-84.4418 422.31,-77.5644"/>
</g>
<!-- Node9 -->
<g id="node17" class="node"><title>Node9</title>
<a xlink:href="MojNoCopy_8h.htm" target="_top" xlink:title="core/MojNoCopy.h">
<polygon fill="white" stroke="black" points="127,-0.5 127,-21.5 231,-21.5 231,-0.5 127,-0.5"/>
<text text-anchor="middle" x="179" y="-8.5" font-family="Helvetica,sans-Serif" font-size="10.00">core/MojNoCopy.h</text>
</a>
</g>
<!-- Node8&#45;&gt;Node9 -->
<g id="edge16" class="edge"><title>Node8&#45;&gt;Node9</title>
<path fill="none" stroke="midnightblue" d="M325.584,-58.4966C296.276,-49.0001 252.952,-34.9619 220.999,-24.6087"/>
<polygon fill="midnightblue" stroke="midnightblue" points="222.068,-21.276 211.476,-21.5231 219.911,-27.9352 222.068,-21.276"/>
</g>
<!-- Node11 -->
<g id="node21" class="node"><title>Node11</title>
<a xlink:href="MojOsInternal_8h.htm" target="_top" xlink:title="core/internal/MojOsInternal.h">
<polygon fill="white" stroke="black" points="716,-116.5 716,-137.5 870,-137.5 870,-116.5 716,-116.5"/>
<text text-anchor="middle" x="793" y="-124.5" font-family="Helvetica,sans-Serif" font-size="10.00">core/internal/MojOsInternal.h</text>
</a>
</g>
<!-- Node10&#45;&gt;Node11 -->
<g id="edge20" class="edge"><title>Node10&#45;&gt;Node11</title>
<path fill="none" stroke="midnightblue" d="M793,-174.362C793,-166.922 793,-156.743 793,-147.728"/>
<polygon fill="midnightblue" stroke="midnightblue" points="796.5,-147.571 793,-137.571 789.5,-147.571 796.5,-147.571"/>
</g>
<!-- Node12&#45;&gt;Node2 -->
<g id="edge24" class="edge"><title>Node12&#45;&gt;Node2</title>
<path fill="none" stroke="midnightblue" d="M1175.59,-789.402C1189.58,-768.807 1218,-721.489 1218,-677 1218,-677 1218,-677 1218,-366 1218,-351.502 1220.45,-333.71 1108,-290 1063.8,-272.817 937.385,-257.558 858.793,-249.36"/>
<polygon fill="midnightblue" stroke="midnightblue" points="858.814,-245.844 848.508,-248.299 858.096,-252.807 858.814,-245.844"/>
</g>
<!-- Node13 -->
<g id="node26" class="node"><title>Node13</title>
<a xlink:href="MojApp_8h.htm" target="_top" xlink:title="core/MojApp.h">
<polygon fill="white" stroke="black" points="739.5,-724.5 739.5,-745.5 824.5,-745.5 824.5,-724.5 739.5,-724.5"/>
<text text-anchor="middle" x="782" y="-732.5" font-family="Helvetica,sans-Serif" font-size="10.00">core/MojApp.h</text>
</a>
</g>
<!-- Node12&#45;&gt;Node13 -->
<g id="edge26" class="edge"><title>Node12&#45;&gt;Node13</title>
<path fill="none" stroke="midnightblue" d="M1107.69,-789.844C1032.71,-777.218 905.949,-755.872 834.695,-743.874"/>
<polygon fill="midnightblue" stroke="midnightblue" points="835.04,-740.382 824.598,-742.173 833.878,-747.285 835.04,-740.382"/>
</g>
<!-- Node13&#45;&gt;Node2 -->
<g id="edge28" class="edge"><title>Node13&#45;&gt;Node2</title>
<path fill="none" stroke="midnightblue" d="M824.593,-731.673C927.266,-722.485 1180,-692.412 1180,-619 1180,-619 1180,-619 1180,-366 1180,-351.43 1183.01,-335.319 1069,-290 1000.29,-262.689 915.786,-251.24 858.517,-246.445"/>
<polygon fill="midnightblue" stroke="midnightblue" points="858.751,-242.953 848.506,-245.652 858.198,-249.931 858.751,-242.953"/>
</g>
<!-- Node14 -->
<g id="node29" class="node"><title>Node14</title>
<a xlink:href="MojAutoPtr_8h.htm" target="_top" xlink:title="core/MojAutoPtr.h">
<polygon fill="white" stroke="black" points="95.5,-427.5 95.5,-448.5 196.5,-448.5 196.5,-427.5 95.5,-427.5"/>
<text text-anchor="middle" x="146" y="-435.5" font-family="Helvetica,sans-Serif" font-size="10.00">core/MojAutoPtr.h</text>
</a>
</g>
<!-- Node13&#45;&gt;Node14 -->
<g id="edge30" class="edge"><title>Node13&#45;&gt;Node14</title>
<path fill="none" stroke="midnightblue" d="M739.283,-731.749C596.684,-720.333 146,-679.468 146,-619 146,-619 146,-619 146,-561 146,-525.052 146,-483.195 146,-458.745"/>
<polygon fill="midnightblue" stroke="midnightblue" points="149.5,-458.53 146,-448.53 142.5,-458.53 149.5,-458.53"/>
</g>
<!-- Node17 -->
<g id="node38" class="node"><title>Node17</title>
<a xlink:href="MojMap_8h.htm" target="_top" xlink:title="core/MojMap.h">
<polygon fill="white" stroke="black" points="814.5,-550.5 814.5,-571.5 901.5,-571.5 901.5,-550.5 814.5,-550.5"/>
<text text-anchor="middle" x="858" y="-558.5" font-family="Helvetica,sans-Serif" font-size="10.00">core/MojMap.h</text>
</a>
</g>
<!-- Node13&#45;&gt;Node17 -->
<g id="edge42" class="edge"><title>Node13&#45;&gt;Node17</title>
<path fill="none" stroke="midnightblue" d="M784.112,-724.469C787.046,-710.723 792.92,-686.053 801,-666 813.581,-634.776 833.119,-600.94 845.737,-580.354"/>
<polygon fill="midnightblue" stroke="midnightblue" points="848.851,-581.975 851.156,-571.634 842.905,-578.28 848.851,-581.975"/>
</g>
<!-- Node20 -->
<g id="node48" class="node"><title>Node20</title>
<a xlink:href="MojObject_8h.htm" target="_top" xlink:title="core/MojObject.h">
<polygon fill="white" stroke="black" points="810,-666.5 810,-687.5 906,-687.5 906,-666.5 810,-666.5"/>
<text text-anchor="middle" x="858" y="-674.5" font-family="Helvetica,sans-Serif" font-size="10.00">core/MojObject.h</text>
</a>
</g>
<!-- Node13&#45;&gt;Node20 -->
<g id="edge56" class="edge"><title>Node13&#45;&gt;Node20</title>
<path fill="none" stroke="midnightblue" d="M795.94,-724.362C807.188,-715.777 823.216,-703.546 836.165,-693.664"/>
<polygon fill="midnightblue" stroke="midnightblue" points="838.323,-696.42 844.149,-687.571 834.076,-690.855 838.323,-696.42"/>
</g>
<!-- Node25 -->
<g id="node64" class="node"><title>Node25</title>
<a xlink:href="MojString_8h.htm" target="_top" xlink:title="core/MojString.h">
<polygon fill="white" stroke="black" points="643,-608.5 643,-629.5 737,-629.5 737,-608.5 643,-608.5"/>
<text text-anchor="middle" x="690" y="-616.5" font-family="Helvetica,sans-Serif" font-size="10.00">core/MojString.h</text>
</a>
</g>
<!-- Node13&#45;&gt;Node25 -->
<g id="edge112" class="edge"><title>Node13&#45;&gt;Node25</title>
<path fill="none" stroke="midnightblue" d="M773.51,-724.295C757.832,-704.527 724.167,-662.08 704.708,-637.544"/>
<polygon fill="midnightblue" stroke="midnightblue" points="707.426,-635.339 698.47,-629.679 701.941,-639.689 707.426,-635.339"/>
</g>
<!-- Node26 -->
<g id="node70" class="node"><title>Node26</title>
<a xlink:href="MojVector_8h.htm" target="_top" xlink:title="core/MojVector.h">
<polygon fill="white" stroke="black" points="527.5,-550.5 527.5,-571.5 624.5,-571.5 624.5,-550.5 527.5,-550.5"/>
<text text-anchor="middle" x="576" y="-558.5" font-family="Helvetica,sans-Serif" font-size="10.00">core/MojVector.h</text>
</a>
</g>
<!-- Node13&#45;&gt;Node26 -->
<g id="edge114" class="edge"><title>Node13&#45;&gt;Node26</title>
<path fill="none" stroke="midnightblue" d="M752.719,-724.408C714.088,-709.083 646.187,-677.281 605,-630 592.912,-616.124 585.323,-596.483 580.955,-581.703"/>
<polygon fill="midnightblue" stroke="midnightblue" points="584.308,-580.695 578.325,-571.951 577.55,-582.518 584.308,-580.695"/>
</g>
<!-- Node14&#45;&gt;Node2 -->
<g id="edge32" class="edge"><title>Node14&#45;&gt;Node2</title>
<path fill="none" stroke="midnightblue" d="M113.168,-427.462C93.0643,-419.116 68.9687,-405.261 57,-384 49.1512,-370.057 47.91,-361.167 57,-348 98.3151,-288.154 139.053,-305.969 210,-290 306.815,-268.208 595.645,-252.295 726.845,-245.986"/>
<polygon fill="midnightblue" stroke="midnightblue" points="727.329,-249.467 737.15,-245.495 726.995,-242.475 727.329,-249.467"/>
</g>
<!-- Node14&#45;&gt;Node9 -->
<g id="edge38" class="edge"><title>Node14&#45;&gt;Node9</title>
<path fill="none" stroke="midnightblue" d="M119.221,-427.374C77.0724,-408.678 0,-365.652 0,-301 0,-301 0,-301 0,-127 0,-69.7718 65.2312,-39.365 116.937,-24.2521"/>
<polygon fill="midnightblue" stroke="midnightblue" points="118.052,-27.5748 126.745,-21.5175 116.172,-20.832 118.052,-27.5748"/>
</g>
<!-- Node15 -->
<g id="node32" class="node"><title>Node15</title>
<a xlink:href="MojAtomicInt_8h.htm" target="_top" xlink:title="core/MojAtomicInt.h">
<polygon fill="white" stroke="black" points="252,-355.5 252,-376.5 362,-376.5 362,-355.5 252,-355.5"/>
<text text-anchor="middle" x="307" y="-363.5" font-family="Helvetica,sans-Serif" font-size="10.00">core/MojAtomicInt.h</text>
</a>
</g>
<!-- Node14&#45;&gt;Node15 -->
<g id="edge34" class="edge"><title>Node14&#45;&gt;Node15</title>
<path fill="none" stroke="midnightblue" d="M169.756,-427.376C197.302,-415.057 242.884,-394.673 273.894,-380.805"/>
<polygon fill="midnightblue" stroke="midnightblue" points="275.709,-383.828 283.409,-376.55 272.851,-377.438 275.709,-383.828"/>
</g>
<!-- Node16 -->
<g id="node36" class="node"><title>Node16</title>
<a xlink:href="MojAutoPtrInternal_8h.htm" target="_top" xlink:title="core/internal/MojAutoPtr\lInternal.h">
<polygon fill="white" stroke="black" points="65.5,-349 65.5,-383 196.5,-383 196.5,-349 65.5,-349"/>
<text text-anchor="start" x="73.5" y="-370" font-family="Helvetica,sans-Serif" font-size="10.00">core/internal/MojAutoPtr</text>
<text text-anchor="middle" x="131" y="-357" font-family="Helvetica,sans-Serif" font-size="10.00">Internal.h</text>
</a>
</g>
<!-- Node14&#45;&gt;Node16 -->
<g id="edge40" class="edge"><title>Node14&#45;&gt;Node16</title>
<path fill="none" stroke="midnightblue" d="M143.787,-427.376C141.908,-418.36 139.13,-405.024 136.642,-393.084"/>
<polygon fill="midnightblue" stroke="midnightblue" points="140.027,-392.17 134.561,-383.094 133.175,-393.598 140.027,-392.17"/>
</g>
<!-- Node15&#45;&gt;Node2 -->
<g id="edge36" class="edge"><title>Node15&#45;&gt;Node2</title>
<path fill="none" stroke="midnightblue" d="M313.037,-355.447C323.438,-338.377 346.491,-305.099 376,-290 435.725,-259.441 625.346,-248.526 727.048,-244.806"/>
<polygon fill="midnightblue" stroke="midnightblue" points="727.336,-248.299 737.206,-244.448 727.089,-241.303 727.336,-248.299"/>
</g>
<!-- Node17&#45;&gt;Node2 -->
<g id="edge44" class="edge"><title>Node17&#45;&gt;Node2</title>
<path fill="none" stroke="midnightblue" d="M901.912,-552.55C954.455,-542.062 1036.68,-524.304 1047,-514 1071.63,-489.396 1066,-472.817 1066,-438 1066,-438 1066,-438 1066,-366 1066,-318.703 928.067,-276.498 848.289,-256.044"/>
<polygon fill="midnightblue" stroke="midnightblue" points="848.94,-252.598 838.387,-253.54 847.224,-259.385 848.94,-252.598"/>
</g>
<!-- Node18 -->
<g id="node41" class="node"><title>Node18</title>
<a xlink:href="MojComp_8h.htm" target="_top" xlink:title="core/MojComp.h">
<polygon fill="white" stroke="black" points="591,-290.5 591,-311.5 685,-311.5 685,-290.5 591,-290.5"/>
<text text-anchor="middle" x="638" y="-298.5" font-family="Helvetica,sans-Serif" font-size="10.00">core/MojComp.h</text>
</a>
</g>
<!-- Node17&#45;&gt;Node18 -->
<g id="edge46" class="edge"><title>Node17&#45;&gt;Node18</title>
<path fill="none" stroke="midnightblue" d="M869.616,-550.192C882.785,-536.564 901.182,-512.444 891,-492 845.448,-400.535 732.894,-341.276 674.485,-315.618"/>
<polygon fill="midnightblue" stroke="midnightblue" points="675.823,-312.384 665.254,-311.646 673.056,-318.814 675.823,-312.384"/>
</g>
<!-- Node19 -->
<g id="node44" class="node"><title>Node19</title>
<a xlink:href="MojRbTreeBase_8h.htm" target="_top" xlink:title="core/internal/MojRbTreeBase.h">
<polygon fill="white" stroke="black" points="718,-492.5 718,-513.5 882,-513.5 882,-492.5 718,-492.5"/>
<text text-anchor="middle" x="800" y="-500.5" font-family="Helvetica,sans-Serif" font-size="10.00">core/internal/MojRbTreeBase.h</text>
</a>
</g>
<!-- Node17&#45;&gt;Node19 -->
<g id="edge50" class="edge"><title>Node17&#45;&gt;Node19</title>
<path fill="none" stroke="midnightblue" d="M847.362,-550.362C839.104,-542.104 827.472,-530.472 817.803,-520.803"/>
<polygon fill="midnightblue" stroke="midnightblue" points="820.117,-518.167 810.571,-513.571 815.167,-523.117 820.117,-518.167"/>
</g>
<!-- Node18&#45;&gt;Node2 -->
<g id="edge48" class="edge"><title>Node18&#45;&gt;Node2</title>
<path fill="none" stroke="midnightblue" d="M666.069,-290.497C691.01,-281.164 727.674,-267.445 755.192,-257.147"/>
<polygon fill="midnightblue" stroke="midnightblue" points="756.739,-260.306 764.878,-253.523 754.286,-253.75 756.739,-260.306"/>
</g>
<!-- Node19&#45;&gt;Node2 -->
<g id="edge52" class="edge"><title>Node19&#45;&gt;Node2</title>
<path fill="none" stroke="midnightblue" d="M799.717,-492.486C798.666,-453.453 794.977,-316.414 793.56,-263.793"/>
<polygon fill="midnightblue" stroke="midnightblue" points="797.055,-263.547 793.287,-253.645 790.057,-263.736 797.055,-263.547"/>
</g>
<!-- Node19&#45;&gt;Node14 -->
<g id="edge54" class="edge"><title>Node19&#45;&gt;Node14</title>
<path fill="none" stroke="midnightblue" d="M717.833,-494.834C584.792,-481.611 325.239,-455.814 207.14,-444.077"/>
<polygon fill="midnightblue" stroke="midnightblue" points="207.138,-440.559 196.84,-443.053 206.445,-447.525 207.138,-440.559"/>
</g>
<!-- Node20&#45;&gt;Node2 -->
<g id="edge58" class="edge"><title>Node20&#45;&gt;Node2</title>
<path fill="none" stroke="midnightblue" d="M906.177,-667.665C987.203,-650.572 1142,-611.331 1142,-561 1142,-561 1142,-561 1142,-366 1142,-352.818 1143.92,-336.383 1033,-290 976.748,-266.476 908.084,-254.554 858.634,-248.621"/>
<polygon fill="midnightblue" stroke="midnightblue" points="859.032,-245.143 848.697,-247.478 858.232,-252.097 859.032,-245.143"/>
</g>
<!-- Node20&#45;&gt;Node17 -->
<g id="edge76" class="edge"><title>Node20&#45;&gt;Node17</title>
<path fill="none" stroke="midnightblue" d="M858,-666.295C858,-647.131 858,-606.654 858,-581.843"/>
<polygon fill="midnightblue" stroke="midnightblue" points="861.5,-581.679 858,-571.679 854.5,-581.679 861.5,-581.679"/>
</g>
<!-- Node21 -->
<g id="node51" class="node"><title>Node21</title>
<a xlink:href="MojDecimal_8h.htm" target="_top" xlink:title="core/MojDecimal.h">
<polygon fill="white" stroke="black" points="936,-550.5 936,-571.5 1040,-571.5 1040,-550.5 936,-550.5"/>
<text text-anchor="middle" x="988" y="-558.5" font-family="Helvetica,sans-Serif" font-size="10.00">core/MojDecimal.h</text>
</a>
</g>
<!-- Node20&#45;&gt;Node21 -->
<g id="edge60" class="edge"><title>Node20&#45;&gt;Node21</title>
<path fill="none" stroke="midnightblue" d="M869.997,-666.295C892.441,-646.268 940.971,-602.964 968.288,-578.589"/>
<polygon fill="midnightblue" stroke="midnightblue" points="970.901,-580.949 976.032,-571.679 966.24,-575.726 970.901,-580.949"/>
</g>
<!-- Node20&#45;&gt;Node25 -->
<g id="edge78" class="edge"><title>Node20&#45;&gt;Node25</title>
<path fill="none" stroke="midnightblue" d="M827.576,-666.497C800.306,-657.082 760.107,-643.204 730.196,-632.877"/>
<polygon fill="midnightblue" stroke="midnightblue" points="731.075,-629.478 720.481,-629.523 728.791,-636.095 731.075,-629.478"/>
</g>
<!-- Node20&#45;&gt;Node26 -->
<g id="edge110" class="edge"><title>Node20&#45;&gt;Node26</title>
<path fill="none" stroke="midnightblue" d="M809.956,-670.667C753.303,-662.557 663.152,-647.447 634,-630 613.873,-617.954 597.431,-596.359 587.259,-580.527"/>
<polygon fill="midnightblue" stroke="midnightblue" points="589.968,-578.249 581.759,-571.551 584,-581.907 589.968,-578.249"/>
</g>
<!-- Node21&#45;&gt;Node2 -->
<g id="edge62" class="edge"><title>Node21&#45;&gt;Node2</title>
<path fill="none" stroke="midnightblue" d="M1014.51,-550.355C1031.56,-542.418 1053.21,-530.163 1068,-514 1093.23,-486.424 1104,-475.376 1104,-438 1104,-438 1104,-438 1104,-366 1104,-354.836 1104.48,-337.613 998,-290 953.657,-270.171 900.042,-258.259 858.765,-251.39"/>
<polygon fill="midnightblue" stroke="midnightblue" points="859.248,-247.922 848.819,-249.792 858.137,-254.834 859.248,-247.922"/>
</g>
<!-- Node22 -->
<g id="node54" class="node"><title>Node22</title>
<a xlink:href="MojHasher_8h.htm" target="_top" xlink:title="core/MojHasher.h">
<polygon fill="white" stroke="black" points="937.5,-492.5 937.5,-513.5 1038.5,-513.5 1038.5,-492.5 937.5,-492.5"/>
<text text-anchor="middle" x="988" y="-500.5" font-family="Helvetica,sans-Serif" font-size="10.00">core/MojHasher.h</text>
</a>
</g>
<!-- Node21&#45;&gt;Node22 -->
<g id="edge64" class="edge"><title>Node21&#45;&gt;Node22</title>
<path fill="none" stroke="midnightblue" d="M988,-550.362C988,-542.922 988,-532.743 988,-523.728"/>
<polygon fill="midnightblue" stroke="midnightblue" points="991.5,-523.571 988,-513.571 984.5,-523.571 991.5,-523.571"/>
</g>
<!-- Node22&#45;&gt;Node2 -->
<g id="edge66" class="edge"><title>Node22&#45;&gt;Node2</title>
<path fill="none" stroke="midnightblue" d="M985.561,-492.294C979.114,-465.731 959.628,-395.518 924,-348 895.285,-309.702 849.501,-277.33 820.365,-259.042"/>
<polygon fill="midnightblue" stroke="midnightblue" points="821.884,-255.867 811.533,-253.609 818.217,-261.83 821.884,-255.867"/>
</g>
<!-- Node23 -->
<g id="node57" class="node"><title>Node23</title>
<a xlink:href="MojUtil_8h.htm" target="_top" xlink:title="core/MojUtil.h">
<polygon fill="white" stroke="black" points="665.5,-427.5 665.5,-448.5 746.5,-448.5 746.5,-427.5 665.5,-427.5"/>
<text text-anchor="middle" x="706" y="-435.5" font-family="Helvetica,sans-Serif" font-size="10.00">core/MojUtil.h</text>
</a>
</g>
<!-- Node22&#45;&gt;Node23 -->
<g id="edge68" class="edge"><title>Node22&#45;&gt;Node23</title>
<path fill="none" stroke="midnightblue" d="M942.378,-492.484C891.416,-480.738 809.158,-461.778 756.35,-449.606"/>
<polygon fill="midnightblue" stroke="midnightblue" points="757.054,-446.176 746.523,-447.34 755.482,-452.997 757.054,-446.176"/>
</g>
<!-- Node23&#45;&gt;Node2 -->
<g id="edge70" class="edge"><title>Node23&#45;&gt;Node2</title>
<path fill="none" stroke="midnightblue" d="M708.884,-427.19C715.781,-402.18 734.564,-338.738 760,-290 765.081,-280.263 771.9,-270.204 778.02,-261.902"/>
<polygon fill="midnightblue" stroke="midnightblue" points="781.004,-263.76 784.271,-253.682 775.432,-259.523 781.004,-263.76"/>
</g>
<!-- Node24 -->
<g id="node60" class="node"><title>Node24</title>
<a xlink:href="MojUtilInternal_8h.htm" target="_top" xlink:title="core/internal/MojUtilInternal.h">
<polygon fill="white" stroke="black" points="417.5,-355.5 417.5,-376.5 572.5,-376.5 572.5,-355.5 417.5,-355.5"/>
<text text-anchor="middle" x="495" y="-363.5" font-family="Helvetica,sans-Serif" font-size="10.00">core/internal/MojUtilInternal.h</text>
</a>
</g>
<!-- Node23&#45;&gt;Node24 -->
<g id="edge72" class="edge"><title>Node23&#45;&gt;Node24</title>
<path fill="none" stroke="midnightblue" d="M674.866,-427.376C637.906,-414.764 576.17,-393.698 535.518,-379.826"/>
<polygon fill="midnightblue" stroke="midnightblue" points="536.512,-376.467 525.918,-376.55 534.252,-383.092 536.512,-376.467"/>
</g>
<!-- Node24&#45;&gt;Node18 -->
<g id="edge74" class="edge"><title>Node24&#45;&gt;Node18</title>
<path fill="none" stroke="midnightblue" d="M518.294,-355.412C541.977,-344.647 578.868,-327.878 605.438,-315.801"/>
<polygon fill="midnightblue" stroke="midnightblue" points="607.061,-318.908 614.716,-311.584 604.164,-312.535 607.061,-318.908"/>
</g>
<!-- Node25&#45;&gt;Node2 -->
<g id="edge80" class="edge"><title>Node25&#45;&gt;Node2</title>
<path fill="none" stroke="midnightblue" d="M689.061,-608.27C687.563,-585.254 686.775,-530.139 709,-492 722.071,-469.57 741.616,-478.245 755,-456 774.456,-423.664 786.78,-310.868 791.182,-263.838"/>
<polygon fill="midnightblue" stroke="midnightblue" points="794.691,-263.904 792.109,-253.628 787.719,-263.271 794.691,-263.904"/>
</g>
<!-- Node25&#45;&gt;Node14 -->
<g id="edge82" class="edge"><title>Node25&#45;&gt;Node14</title>
<path fill="none" stroke="midnightblue" d="M642.973,-612.778C536.659,-598.076 281.356,-559.025 208,-514 185.469,-500.171 167.464,-475.164 156.781,-457.623"/>
<polygon fill="midnightblue" stroke="midnightblue" points="159.677,-455.641 151.618,-448.764 153.63,-459.166 159.677,-455.641"/>
</g>
<!-- Node25&#45;&gt;Node18 -->
<g id="edge84" class="edge"><title>Node25&#45;&gt;Node18</title>
<path fill="none" stroke="midnightblue" d="M686.381,-608.277C683.291,-598.817 678.899,-584.612 676,-572 654.857,-480.015 643.645,-367.594 639.683,-321.85"/>
<polygon fill="midnightblue" stroke="midnightblue" points="643.156,-321.381 638.83,-311.71 636.181,-321.968 643.156,-321.381"/>
</g>
<!-- Node25&#45;&gt;Node22 -->
<g id="edge86" class="edge"><title>Node25&#45;&gt;Node22</title>
<path fill="none" stroke="midnightblue" d="M704.661,-608.405C725.995,-593.436 767.28,-566.127 806,-550 845.101,-533.714 891.339,-521.86 927.425,-514.131"/>
<polygon fill="midnightblue" stroke="midnightblue" points="928.248,-517.534 937.319,-512.06 926.814,-510.683 928.248,-517.534"/>
</g>
<!-- Node25&#45;&gt;Node26 -->
<g id="edge88" class="edge"><title>Node25&#45;&gt;Node26</title>
<path fill="none" stroke="midnightblue" d="M669.355,-608.497C651.63,-599.479 625.855,-586.365 605.877,-576.201"/>
<polygon fill="midnightblue" stroke="midnightblue" points="607.376,-573.036 596.876,-571.621 604.202,-579.275 607.376,-573.036"/>
</g>
<!-- Node26&#45;&gt;Node2 -->
<g id="edge90" class="edge"><title>Node26&#45;&gt;Node2</title>
<path fill="none" stroke="midnightblue" d="M527.469,-557.671C439.153,-551.115 259.521,-535.301 241,-514 229.905,-501.24 171.775,-469.089 243,-348 269.244,-303.382 294.748,-305.928 344,-290 413.625,-267.483 620.56,-252.809 727.455,-246.516"/>
<polygon fill="midnightblue" stroke="midnightblue" points="727.7,-250.007 737.48,-245.933 727.293,-243.019 727.7,-250.007"/>
</g>
<!-- Node26&#45;&gt;Node18 -->
<g id="edge92" class="edge"><title>Node26&#45;&gt;Node18</title>
<path fill="none" stroke="midnightblue" d="M578.143,-550.3C584.468,-519.009 603.876,-425.018 624,-348 626.275,-339.294 629.057,-329.766 631.541,-321.578"/>
<polygon fill="midnightblue" stroke="midnightblue" points="634.964,-322.356 634.566,-311.769 628.274,-320.294 634.964,-322.356"/>
</g>
<!-- Node26&#45;&gt;Node23 -->
<g id="edge106" class="edge"><title>Node26&#45;&gt;Node23</title>
<path fill="none" stroke="midnightblue" d="M587.537,-550.085C610.047,-528.787 660.003,-481.52 687.301,-455.692"/>
<polygon fill="midnightblue" stroke="midnightblue" points="689.816,-458.131 694.675,-448.715 685.005,-453.046 689.816,-458.131"/>
</g>
<!-- Node27 -->
<g id="node74" class="node"><title>Node27</title>
<a xlink:href="MojRefCount_8h.htm" target="_top" xlink:title="core/MojRefCount.h">
<polygon fill="white" stroke="black" points="250,-492.5 250,-513.5 360,-513.5 360,-492.5 250,-492.5"/>
<text text-anchor="middle" x="305" y="-500.5" font-family="Helvetica,sans-Serif" font-size="10.00">core/MojRefCount.h</text>
</a>
</g>
<!-- Node26&#45;&gt;Node27 -->
<g id="edge94" class="edge"><title>Node26&#45;&gt;Node27</title>
<path fill="none" stroke="midnightblue" d="M527.238,-550.564C481.474,-540.769 412.938,-526.101 364.088,-515.646"/>
<polygon fill="midnightblue" stroke="midnightblue" points="364.796,-512.219 354.285,-513.548 363.331,-519.064 364.796,-512.219"/>
</g>
<!-- Node29 -->
<g id="node83" class="node"><title>Node29</title>
<a xlink:href="MojVectorInternal_8h.htm" target="_top" xlink:title="core/internal/MojVectorInternal.h">
<polygon fill="white" stroke="black" points="377.5,-492.5 377.5,-513.5 548.5,-513.5 548.5,-492.5 377.5,-492.5"/>
<text text-anchor="middle" x="463" y="-500.5" font-family="Helvetica,sans-Serif" font-size="10.00">core/internal/MojVectorInternal.h</text>
</a>
</g>
<!-- Node26&#45;&gt;Node29 -->
<g id="edge108" class="edge"><title>Node26&#45;&gt;Node29</title>
<path fill="none" stroke="midnightblue" d="M555.537,-550.497C537.967,-541.479 512.418,-528.365 492.615,-518.201"/>
<polygon fill="midnightblue" stroke="midnightblue" points="494.188,-515.074 483.693,-513.621 490.991,-521.301 494.188,-515.074"/>
</g>
<!-- Node27&#45;&gt;Node2 -->
<g id="edge96" class="edge"><title>Node27&#45;&gt;Node2</title>
<path fill="none" stroke="midnightblue" d="M309.278,-492.205C320.925,-464.181 355.924,-388.488 409,-348 458.955,-309.893 631.645,-272.952 727.535,-254.742"/>
<polygon fill="midnightblue" stroke="midnightblue" points="728.24,-258.171 737.419,-252.88 726.943,-251.292 728.24,-258.171"/>
</g>
<!-- Node27&#45;&gt;Node14 -->
<g id="edge100" class="edge"><title>Node27&#45;&gt;Node14</title>
<path fill="none" stroke="midnightblue" d="M279.1,-492.412C252.536,-481.552 211.027,-464.583 181.43,-452.484"/>
<polygon fill="midnightblue" stroke="midnightblue" points="182.47,-449.128 171.889,-448.584 179.821,-455.607 182.47,-449.128"/>
</g>
<!-- Node27&#45;&gt;Node15 -->
<g id="edge98" class="edge"><title>Node27&#45;&gt;Node15</title>
<path fill="none" stroke="midnightblue" d="M305.157,-492.25C305.488,-469.541 306.265,-416.348 306.697,-386.768"/>
<polygon fill="midnightblue" stroke="midnightblue" points="310.197,-386.75 306.844,-376.7 303.198,-386.648 310.197,-386.75"/>
</g>
<!-- Node28 -->
<g id="node79" class="node"><title>Node28</title>
<a xlink:href="MojRefCountInternal_8h.htm" target="_top" xlink:title="core/internal/MojRefCount\lInternal.h">
<polygon fill="white" stroke="black" points="422,-421 422,-455 562,-455 562,-421 422,-421"/>
<text text-anchor="start" x="430" y="-442" font-family="Helvetica,sans-Serif" font-size="10.00">core/internal/MojRefCount</text>
<text text-anchor="middle" x="492" y="-429" font-family="Helvetica,sans-Serif" font-size="10.00">Internal.h</text>
</a>
</g>
<!-- Node27&#45;&gt;Node28 -->
<g id="edge102" class="edge"><title>Node27&#45;&gt;Node28</title>
<path fill="none" stroke="midnightblue" d="M335.461,-492.412C361.816,-483.251 400.68,-469.742 433.089,-458.477"/>
<polygon fill="midnightblue" stroke="midnightblue" points="434.622,-461.65 442.919,-455.06 432.324,-455.038 434.622,-461.65"/>
</g>
<!-- Node28&#45;&gt;Node24 -->
<g id="edge104" class="edge"><title>Node28&#45;&gt;Node24</title>
<path fill="none" stroke="midnightblue" d="M492.711,-420.937C493.133,-410.814 493.671,-397.898 494.119,-387.133"/>
<polygon fill="midnightblue" stroke="midnightblue" points="497.626,-387.038 494.546,-376.901 490.632,-386.747 497.626,-387.038"/>
</g>
</g>
</svg>
