<?xml version="1.0" encoding="UTF-8" standalone="no"?>
<!DOCTYPE svg PUBLIC "-//W3C//DTD SVG 1.1//EN"
 "http://www.w3.org/Graphics/SVG/1.1/DTD/svg11.dtd">
<!-- Generated by graphviz version 2.26.3 (20100126.1600)
 -->
<!-- Title: MojReactor.h Pages: 1 -->
<svg width="968pt" height="696pt"
 viewBox="0.00 0.00 968.00 696.00" xmlns="http://www.w3.org/2000/svg" xmlns:xlink="http://www.w3.org/1999/xlink">
<g id="graph1" class="graph" transform="scale(1 1) rotate(0) translate(4 692)">
<title>MojReactor.h</title>
<polygon fill="white" stroke="white" points="-4,5 -4,-692 965,-692 965,5 -4,5"/>
<!-- Node1 -->
<g id="node1" class="node"><title>Node1</title>
<polygon fill="#bfbfbf" stroke="black" points="621,-666.5 621,-687.5 701,-687.5 701,-666.5 621,-666.5"/>
<text text-anchor="middle" x="661" y="-674.5" font-family="Helvetica,sans-Serif" font-size="10.00">MojReactor.h</text>
</g>
<!-- Node2 -->
<g id="node3" class="node"><title>Node2</title>
<a xlink:href="MojCoreDefs_8h.htm" target="_top" xlink:title="core/MojCoreDefs.h">
<polygon fill="white" stroke="black" points="266.5,-232.5 266.5,-253.5 377.5,-253.5 377.5,-232.5 266.5,-232.5"/>
<text text-anchor="middle" x="322" y="-240.5" font-family="Helvetica,sans-Serif" font-size="10.00">core/MojCoreDefs.h</text>
</a>
</g>
<!-- Node1&#45;&gt;Node2 -->
<g id="edge2" class="edge"><title>Node1&#45;&gt;Node2</title>
<path fill="none" stroke="midnightblue" d="M701.014,-670.152C782.489,-655.072 960,-615.914 960,-561 960,-561 960,-561 960,-373 960,-276.761 853.244,-313.822 760,-290 691.337,-272.458 492.539,-255.682 388.011,-247.757"/>
<polygon fill="midnightblue" stroke="midnightblue" points="388.125,-244.256 377.891,-246.995 387.6,-251.236 388.125,-244.256"/>
</g>
<!-- Node12 -->
<g id="node23" class="node"><title>Node12</title>
<a xlink:href="MojSignal_8h.htm" target="_top" xlink:title="core/MojSignal.h">
<polygon fill="white" stroke="black" points="259.5,-608.5 259.5,-629.5 354.5,-629.5 354.5,-608.5 259.5,-608.5"/>
<text text-anchor="middle" x="307" y="-616.5" font-family="Helvetica,sans-Serif" font-size="10.00">core/MojSignal.h</text>
</a>
</g>
<!-- Node1&#45;&gt;Node12 -->
<g id="edge22" class="edge"><title>Node1&#45;&gt;Node12</title>
<path fill="none" stroke="midnightblue" d="M620.736,-670.403C558.038,-660.131 436.812,-640.269 364.79,-628.468"/>
<polygon fill="midnightblue" stroke="midnightblue" points="364.967,-624.951 354.533,-626.788 363.836,-631.859 364.967,-624.951"/>
</g>
<!-- Node3 -->
<g id="node5" class="node"><title>Node3</title>
<a xlink:href="MojConfig_8h.htm" target="_top" xlink:title="core/internal/MojConfig.h">
<polygon fill="white" stroke="black" points="141.5,-174.5 141.5,-195.5 276.5,-195.5 276.5,-174.5 141.5,-174.5"/>
<text text-anchor="middle" x="209" y="-182.5" font-family="Helvetica,sans-Serif" font-size="10.00">core/internal/MojConfig.h</text>
</a>
</g>
<!-- Node2&#45;&gt;Node3 -->
<g id="edge4" class="edge"><title>Node2&#45;&gt;Node3</title>
<path fill="none" stroke="midnightblue" d="M301.537,-232.497C283.967,-223.479 258.418,-210.365 238.615,-200.201"/>
<polygon fill="midnightblue" stroke="midnightblue" points="240.188,-197.074 229.693,-195.621 236.991,-203.301 240.188,-197.074"/>
</g>
<!-- Node4 -->
<g id="node7" class="node"><title>Node4</title>
<a xlink:href="MojNew_8h.htm" target="_top" xlink:title="core/internal/MojNew.h">
<polygon fill="white" stroke="black" points="293.5,-174.5 293.5,-195.5 418.5,-195.5 418.5,-174.5 293.5,-174.5"/>
<text text-anchor="middle" x="356" y="-182.5" font-family="Helvetica,sans-Serif" font-size="10.00">core/internal/MojNew.h</text>
</a>
</g>
<!-- Node2&#45;&gt;Node4 -->
<g id="edge6" class="edge"><title>Node2&#45;&gt;Node4</title>
<path fill="none" stroke="midnightblue" d="M328.236,-232.362C332.837,-224.513 339.225,-213.616 344.714,-204.253"/>
<polygon fill="midnightblue" stroke="midnightblue" points="347.766,-205.968 349.803,-195.571 341.727,-202.428 347.766,-205.968"/>
</g>
<!-- Node6 -->
<g id="node11" class="node"><title>Node6</title>
<a xlink:href="MojErr_8h.htm" target="_top" xlink:title="core/MojErr.h">
<polygon fill="white" stroke="black" points="436,-174.5 436,-195.5 516,-195.5 516,-174.5 436,-174.5"/>
<text text-anchor="middle" x="476" y="-182.5" font-family="Helvetica,sans-Serif" font-size="10.00">core/MojErr.h</text>
</a>
</g>
<!-- Node2&#45;&gt;Node6 -->
<g id="edge10" class="edge"><title>Node2&#45;&gt;Node6</title>
<path fill="none" stroke="midnightblue" d="M349.888,-232.497C374.668,-223.164 411.095,-209.445 438.436,-199.147"/>
<polygon fill="midnightblue" stroke="midnightblue" points="439.935,-202.323 448.059,-195.523 437.468,-195.772 439.935,-202.323"/>
</g>
<!-- Node10 -->
<g id="node19" class="node"><title>Node10</title>
<a xlink:href="MojOs_8h.htm" target="_top" xlink:title="core/MojOs.h">
<polygon fill="white" stroke="black" points="44,-174.5 44,-195.5 124,-195.5 124,-174.5 44,-174.5"/>
<text text-anchor="middle" x="84" y="-182.5" font-family="Helvetica,sans-Serif" font-size="10.00">core/MojOs.h</text>
</a>
</g>
<!-- Node2&#45;&gt;Node10 -->
<g id="edge18" class="edge"><title>Node2&#45;&gt;Node10</title>
<path fill="none" stroke="midnightblue" d="M278.9,-232.497C238.1,-222.554 176.869,-207.632 133.955,-197.174"/>
<polygon fill="midnightblue" stroke="midnightblue" points="134.551,-193.717 124.007,-194.75 132.894,-200.518 134.551,-193.717"/>
</g>
<!-- Node5 -->
<g id="node9" class="node"><title>Node5</title>
<polygon fill="white" stroke="#bfbfbf" points="338,-116.5 338,-137.5 374,-137.5 374,-116.5 338,-116.5"/>
<text text-anchor="middle" x="356" y="-124.5" font-family="Helvetica,sans-Serif" font-size="10.00">new</text>
</g>
<!-- Node4&#45;&gt;Node5 -->
<g id="edge8" class="edge"><title>Node4&#45;&gt;Node5</title>
<path fill="none" stroke="midnightblue" d="M356,-174.362C356,-166.922 356,-156.743 356,-147.728"/>
<polygon fill="midnightblue" stroke="midnightblue" points="359.5,-147.571 356,-137.571 352.5,-147.571 359.5,-147.571"/>
</g>
<!-- Node7 -->
<g id="node13" class="node"><title>Node7</title>
<a xlink:href="MojLog_8h.htm" target="_top" xlink:title="core/MojLog.h">
<polygon fill="white" stroke="black" points="434,-116.5 434,-137.5 518,-137.5 518,-116.5 434,-116.5"/>
<text text-anchor="middle" x="476" y="-124.5" font-family="Helvetica,sans-Serif" font-size="10.00">core/MojLog.h</text>
</a>
</g>
<!-- Node6&#45;&gt;Node7 -->
<g id="edge12" class="edge"><title>Node6&#45;&gt;Node7</title>
<path fill="none" stroke="midnightblue" d="M476,-174.362C476,-166.922 476,-156.743 476,-147.728"/>
<polygon fill="midnightblue" stroke="midnightblue" points="479.5,-147.571 476,-137.571 472.5,-147.571 479.5,-147.571"/>
</g>
<!-- Node8 -->
<g id="node15" class="node"><title>Node8</title>
<a xlink:href="MojListEntry_8h.htm" target="_top" xlink:title="core/MojListEntry.h">
<polygon fill="white" stroke="black" points="422.5,-58.5 422.5,-79.5 529.5,-79.5 529.5,-58.5 422.5,-58.5"/>
<text text-anchor="middle" x="476" y="-66.5" font-family="Helvetica,sans-Serif" font-size="10.00">core/MojListEntry.h</text>
</a>
</g>
<!-- Node7&#45;&gt;Node8 -->
<g id="edge14" class="edge"><title>Node7&#45;&gt;Node8</title>
<path fill="none" stroke="midnightblue" d="M476,-116.362C476,-108.922 476,-98.7427 476,-89.7276"/>
<polygon fill="midnightblue" stroke="midnightblue" points="479.5,-89.5706 476,-79.5707 472.5,-89.5707 479.5,-89.5706"/>
</g>
<!-- Node9 -->
<g id="node17" class="node"><title>Node9</title>
<a xlink:href="MojNoCopy_8h.htm" target="_top" xlink:title="core/MojNoCopy.h">
<polygon fill="white" stroke="black" points="464,-0.5 464,-21.5 568,-21.5 568,-0.5 464,-0.5"/>
<text text-anchor="middle" x="516" y="-8.5" font-family="Helvetica,sans-Serif" font-size="10.00">core/MojNoCopy.h</text>
</a>
</g>
<!-- Node8&#45;&gt;Node9 -->
<g id="edge16" class="edge"><title>Node8&#45;&gt;Node9</title>
<path fill="none" stroke="midnightblue" d="M483.337,-58.3619C488.806,-50.4313 496.422,-39.3885 502.924,-29.9606"/>
<polygon fill="midnightblue" stroke="midnightblue" points="505.914,-31.7899 508.71,-21.5707 500.151,-27.8157 505.914,-31.7899"/>
</g>
<!-- Node11 -->
<g id="node21" class="node"><title>Node11</title>
<a xlink:href="MojOsInternal_8h.htm" target="_top" xlink:title="core/internal/MojOsInternal.h">
<polygon fill="white" stroke="black" points="7,-116.5 7,-137.5 161,-137.5 161,-116.5 7,-116.5"/>
<text text-anchor="middle" x="84" y="-124.5" font-family="Helvetica,sans-Serif" font-size="10.00">core/internal/MojOsInternal.h</text>
</a>
</g>
<!-- Node10&#45;&gt;Node11 -->
<g id="edge20" class="edge"><title>Node10&#45;&gt;Node11</title>
<path fill="none" stroke="midnightblue" d="M84,-174.362C84,-166.922 84,-156.743 84,-147.728"/>
<polygon fill="midnightblue" stroke="midnightblue" points="87.5001,-147.571 84,-137.571 80.5001,-147.571 87.5001,-147.571"/>
</g>
<!-- Node12&#45;&gt;Node2 -->
<g id="edge24" class="edge"><title>Node12&#45;&gt;Node2</title>
<path fill="none" stroke="midnightblue" d="M259.356,-613.948C196.684,-606.643 90.566,-591.806 57,-572 22.7423,-551.785 0,-542.777 0,-503 0,-503 0,-503 0,-373 0,-322.983 32.3255,-314.377 76,-290 106.255,-273.113 194.186,-259.036 256.252,-250.815"/>
<polygon fill="midnightblue" stroke="midnightblue" points="256.899,-254.26 266.363,-249.497 255.994,-247.319 256.899,-254.26"/>
</g>
<!-- Node13 -->
<g id="node26" class="node"><title>Node13</title>
<a xlink:href="MojList_8h.htm" target="_top" xlink:title="core/MojList.h">
<polygon fill="white" stroke="black" points="65.5,-550.5 65.5,-571.5 148.5,-571.5 148.5,-550.5 65.5,-550.5"/>
<text text-anchor="middle" x="107" y="-558.5" font-family="Helvetica,sans-Serif" font-size="10.00">core/MojList.h</text>
</a>
</g>
<!-- Node12&#45;&gt;Node13 -->
<g id="edge26" class="edge"><title>Node12&#45;&gt;Node13</title>
<path fill="none" stroke="midnightblue" d="M270.782,-608.497C237.753,-598.918 188.792,-584.72 153.006,-574.342"/>
<polygon fill="midnightblue" stroke="midnightblue" points="153.866,-570.947 143.286,-571.523 151.916,-577.67 153.866,-570.947"/>
</g>
<!-- Node15 -->
<g id="node31" class="node"><title>Node15</title>
<a xlink:href="MojThread_8h.htm" target="_top" xlink:title="core/MojThread.h">
<polygon fill="white" stroke="black" points="239.5,-492.5 239.5,-513.5 340.5,-513.5 340.5,-492.5 239.5,-492.5"/>
<text text-anchor="middle" x="290" y="-500.5" font-family="Helvetica,sans-Serif" font-size="10.00">core/MojThread.h</text>
</a>
</g>
<!-- Node12&#45;&gt;Node15 -->
<g id="edge32" class="edge"><title>Node12&#45;&gt;Node15</title>
<path fill="none" stroke="midnightblue" d="M319.769,-608.489C334.307,-595.167 354.845,-571.363 345,-550 339.234,-537.489 328.313,-527.071 317.713,-519.249"/>
<polygon fill="midnightblue" stroke="midnightblue" points="319.613,-516.308 309.385,-513.542 315.656,-522.082 319.613,-516.308"/>
</g>
<!-- Node20 -->
<g id="node46" class="node"><title>Node20</title>
<a xlink:href="MojVector_8h.htm" target="_top" xlink:title="core/MojVector.h">
<polygon fill="white" stroke="black" points="578.5,-550.5 578.5,-571.5 675.5,-571.5 675.5,-550.5 578.5,-550.5"/>
<text text-anchor="middle" x="627" y="-558.5" font-family="Helvetica,sans-Serif" font-size="10.00">core/MojVector.h</text>
</a>
</g>
<!-- Node12&#45;&gt;Node20 -->
<g id="edge52" class="edge"><title>Node12&#45;&gt;Node20</title>
<path fill="none" stroke="midnightblue" d="M354.562,-610.379C411.543,-600.052 506.996,-582.751 568.454,-571.611"/>
<polygon fill="midnightblue" stroke="midnightblue" points="569.174,-575.038 578.39,-569.811 567.926,-568.15 569.174,-575.038"/>
</g>
<!-- Node27 -->
<g id="node68" class="node"><title>Node27</title>
<a xlink:href="MojSignalInternal_8h.htm" target="_top" xlink:title="core/internal/MojSignalInternal.h">
<polygon fill="white" stroke="black" points="166,-550.5 166,-571.5 336,-571.5 336,-550.5 166,-550.5"/>
<text text-anchor="middle" x="251" y="-558.5" font-family="Helvetica,sans-Serif" font-size="10.00">core/internal/MojSignalInternal.h</text>
</a>
</g>
<!-- Node12&#45;&gt;Node27 -->
<g id="edge82" class="edge"><title>Node12&#45;&gt;Node27</title>
<path fill="none" stroke="midnightblue" d="M296.729,-608.362C288.756,-600.104 277.525,-588.472 268.189,-578.803"/>
<polygon fill="midnightblue" stroke="midnightblue" points="270.67,-576.334 261.206,-571.571 265.634,-581.196 270.67,-576.334"/>
</g>
<!-- Node13&#45;&gt;Node2 -->
<g id="edge28" class="edge"><title>Node13&#45;&gt;Node2</title>
<path fill="none" stroke="midnightblue" d="M91.6486,-550.38C80.4173,-541.818 65.6823,-528.796 57,-514 39.3792,-483.971 38,-472.817 38,-438 38,-438 38,-438 38,-373 38,-322.977 185.513,-277.534 267.913,-256.052"/>
<polygon fill="midnightblue" stroke="midnightblue" points="268.813,-259.434 277.625,-253.552 267.068,-252.655 268.813,-259.434"/>
</g>
<!-- Node14 -->
<g id="node29" class="node"><title>Node14</title>
<a xlink:href="MojListInternal_8h.htm" target="_top" xlink:title="core/internal/MojListInternal.h">
<polygon fill="white" stroke="black" points="65.5,-492.5 65.5,-513.5 222.5,-513.5 222.5,-492.5 65.5,-492.5"/>
<text text-anchor="middle" x="144" y="-500.5" font-family="Helvetica,sans-Serif" font-size="10.00">core/internal/MojListInternal.h</text>
</a>
</g>
<!-- Node13&#45;&gt;Node14 -->
<g id="edge30" class="edge"><title>Node13&#45;&gt;Node14</title>
<path fill="none" stroke="midnightblue" d="M113.786,-550.362C118.793,-542.513 125.745,-531.616 131.718,-522.253"/>
<polygon fill="midnightblue" stroke="midnightblue" points="134.829,-523.884 137.257,-513.571 128.928,-520.119 134.829,-523.884"/>
</g>
<!-- Node15&#45;&gt;Node2 -->
<g id="edge34" class="edge"><title>Node15&#45;&gt;Node2</title>
<path fill="none" stroke="midnightblue" d="M277.567,-492.323C241.319,-459.907 141.369,-360.535 191,-290 200.159,-276.983 234.584,-264.917 265.845,-256.27"/>
<polygon fill="midnightblue" stroke="midnightblue" points="267.096,-259.558 275.847,-253.585 265.282,-252.797 267.096,-259.558"/>
</g>
<!-- Node16 -->
<g id="node34" class="node"><title>Node16</title>
<a xlink:href="MojAtomicInt_8h.htm" target="_top" xlink:title="core/MojAtomicInt.h">
<polygon fill="white" stroke="black" points="233,-297.5 233,-318.5 343,-318.5 343,-297.5 233,-297.5"/>
<text text-anchor="middle" x="288" y="-305.5" font-family="Helvetica,sans-Serif" font-size="10.00">core/MojAtomicInt.h</text>
</a>
</g>
<!-- Node15&#45;&gt;Node16 -->
<g id="edge36" class="edge"><title>Node15&#45;&gt;Node16</title>
<path fill="none" stroke="midnightblue" d="M283.92,-492.203C279.067,-482.929 272.658,-469.033 270,-456 260.828,-411.022 273.002,-357.336 281.349,-328.591"/>
<polygon fill="midnightblue" stroke="midnightblue" points="284.745,-329.452 284.308,-318.866 278.049,-327.414 284.745,-329.452"/>
</g>
<!-- Node17 -->
<g id="node37" class="node"><title>Node17</title>
<a xlink:href="MojThreadInternal_8h.htm" target="_top" xlink:title="core/internal/MojThreadInternal.h">
<polygon fill="white" stroke="black" points="278.5,-427.5 278.5,-448.5 453.5,-448.5 453.5,-427.5 278.5,-427.5"/>
<text text-anchor="middle" x="366" y="-435.5" font-family="Helvetica,sans-Serif" font-size="10.00">core/internal/MojThreadInternal.h</text>
</a>
</g>
<!-- Node15&#45;&gt;Node17 -->
<g id="edge40" class="edge"><title>Node15&#45;&gt;Node17</title>
<path fill="none" stroke="midnightblue" d="M302.55,-492.267C314.281,-482.233 332.001,-467.078 345.736,-455.331"/>
<polygon fill="midnightblue" stroke="midnightblue" points="348.359,-457.693 353.684,-448.534 343.809,-452.374 348.359,-457.693"/>
</g>
<!-- Node16&#45;&gt;Node2 -->
<g id="edge38" class="edge"><title>Node16&#45;&gt;Node2</title>
<path fill="none" stroke="midnightblue" d="M293.614,-297.267C298.516,-287.896 305.755,-274.057 311.695,-262.7"/>
<polygon fill="midnightblue" stroke="midnightblue" points="314.956,-264.017 316.49,-253.534 308.754,-260.772 314.956,-264.017"/>
</g>
<!-- Node18 -->
<g id="node39" class="node"><title>Node18</title>
<a xlink:href="MojAutoPtr_8h.htm" target="_top" xlink:title="core/MojAutoPtr.h">
<polygon fill="white" stroke="black" points="428.5,-362.5 428.5,-383.5 529.5,-383.5 529.5,-362.5 428.5,-362.5"/>
<text text-anchor="middle" x="479" y="-370.5" font-family="Helvetica,sans-Serif" font-size="10.00">core/MojAutoPtr.h</text>
</a>
</g>
<!-- Node17&#45;&gt;Node18 -->
<g id="edge42" class="edge"><title>Node17&#45;&gt;Node18</title>
<path fill="none" stroke="midnightblue" d="M384.407,-427.412C402.711,-416.883 431,-400.611 451.876,-388.602"/>
<polygon fill="midnightblue" stroke="midnightblue" points="453.678,-391.604 460.601,-383.584 450.188,-385.536 453.678,-391.604"/>
</g>
<!-- Node18&#45;&gt;Node2 -->
<g id="edge44" class="edge"><title>Node18&#45;&gt;Node2</title>
<path fill="none" stroke="midnightblue" d="M452.407,-362.33C433.784,-354.085 408.942,-341.48 390,-326 367.276,-307.43 346.768,-280.283 334.355,-262.148"/>
<polygon fill="midnightblue" stroke="midnightblue" points="337.097,-259.952 328.632,-253.58 331.276,-263.839 337.097,-259.952"/>
</g>
<!-- Node18&#45;&gt;Node9 -->
<g id="edge48" class="edge"><title>Node18&#45;&gt;Node9</title>
<path fill="none" stroke="midnightblue" d="M498.35,-362.354C511.507,-354.12 528.237,-341.518 538,-326 558.152,-293.969 557,-280.843 557,-243 557,-243 557,-243 557,-127 557,-91.4618 539.682,-53.1198 527.556,-30.6296"/>
<polygon fill="midnightblue" stroke="midnightblue" points="530.524,-28.7655 522.587,-21.747 524.415,-32.183 530.524,-28.7655"/>
</g>
<!-- Node18&#45;&gt;Node16 -->
<g id="edge46" class="edge"><title>Node18&#45;&gt;Node16</title>
<path fill="none" stroke="midnightblue" d="M447.887,-362.412C415.422,-351.364 364.374,-333.991 328.719,-321.857"/>
<polygon fill="midnightblue" stroke="midnightblue" points="329.694,-318.492 319.099,-318.584 327.438,-325.119 329.694,-318.492"/>
</g>
<!-- Node19 -->
<g id="node44" class="node"><title>Node19</title>
<a xlink:href="MojAutoPtrInternal_8h.htm" target="_top" xlink:title="core/internal/MojAutoPtr\lInternal.h">
<polygon fill="white" stroke="black" points="398.5,-291 398.5,-325 529.5,-325 529.5,-291 398.5,-291"/>
<text text-anchor="start" x="406.5" y="-312" font-family="Helvetica,sans-Serif" font-size="10.00">core/internal/MojAutoPtr</text>
<text text-anchor="middle" x="464" y="-299" font-family="Helvetica,sans-Serif" font-size="10.00">Internal.h</text>
</a>
</g>
<!-- Node18&#45;&gt;Node19 -->
<g id="edge50" class="edge"><title>Node18&#45;&gt;Node19</title>
<path fill="none" stroke="midnightblue" d="M476.523,-362.267C474.812,-354.852 472.455,-344.64 470.248,-335.074"/>
<polygon fill="midnightblue" stroke="midnightblue" points="473.607,-334.067 467.948,-325.11 466.787,-335.641 473.607,-334.067"/>
</g>
<!-- Node20&#45;&gt;Node2 -->
<g id="edge54" class="edge"><title>Node20&#45;&gt;Node2</title>
<path fill="none" stroke="midnightblue" d="M583.221,-550.494C493.066,-528.521 293.157,-477.938 270,-456 242.211,-429.674 203.608,-322.395 224,-290 233.579,-274.782 249.607,-264.381 265.954,-257.319"/>
<polygon fill="midnightblue" stroke="midnightblue" points="267.546,-260.455 275.57,-253.536 264.983,-253.94 267.546,-260.455"/>
</g>
<!-- Node21 -->
<g id="node49" class="node"><title>Node21</title>
<a xlink:href="MojComp_8h.htm" target="_top" xlink:title="core/MojComp.h">
<polygon fill="white" stroke="black" points="623,-297.5 623,-318.5 717,-318.5 717,-297.5 623,-297.5"/>
<text text-anchor="middle" x="670" y="-305.5" font-family="Helvetica,sans-Serif" font-size="10.00">core/MojComp.h</text>
</a>
</g>
<!-- Node20&#45;&gt;Node21 -->
<g id="edge56" class="edge"><title>Node20&#45;&gt;Node21</title>
<path fill="none" stroke="midnightblue" d="M642.636,-550.488C666.457,-533.578 711.44,-497.947 734,-456 749.441,-427.289 744.874,-416.449 748,-384 748.937,-374.267 752.538,-370.661 748,-362 739.054,-344.926 721.986,-332.178 706.092,-323.368"/>
<polygon fill="midnightblue" stroke="midnightblue" points="707.43,-320.12 696.94,-318.633 704.214,-326.337 707.43,-320.12"/>
</g>
<!-- Node22 -->
<g id="node52" class="node"><title>Node22</title>
<a xlink:href="MojRefCount_8h.htm" target="_top" xlink:title="core/MojRefCount.h">
<polygon fill="white" stroke="black" points="502,-492.5 502,-513.5 612,-513.5 612,-492.5 502,-492.5"/>
<text text-anchor="middle" x="557" y="-500.5" font-family="Helvetica,sans-Serif" font-size="10.00">core/MojRefCount.h</text>
</a>
</g>
<!-- Node20&#45;&gt;Node22 -->
<g id="edge60" class="edge"><title>Node20&#45;&gt;Node22</title>
<path fill="none" stroke="midnightblue" d="M614.161,-550.362C603.998,-541.941 589.599,-530.011 577.796,-520.231"/>
<polygon fill="midnightblue" stroke="midnightblue" points="579.691,-517.256 569.758,-513.571 575.225,-522.646 579.691,-517.256"/>
</g>
<!-- Node25 -->
<g id="node62" class="node"><title>Node25</title>
<a xlink:href="MojUtil_8h.htm" target="_top" xlink:title="core/MojUtil.h">
<polygon fill="white" stroke="black" points="780.5,-427.5 780.5,-448.5 861.5,-448.5 861.5,-427.5 780.5,-427.5"/>
<text text-anchor="middle" x="821" y="-435.5" font-family="Helvetica,sans-Serif" font-size="10.00">core/MojUtil.h</text>
</a>
</g>
<!-- Node20&#45;&gt;Node25 -->
<g id="edge74" class="edge"><title>Node20&#45;&gt;Node25</title>
<path fill="none" stroke="midnightblue" d="M646.728,-550.446C663.72,-541.21 688.785,-527.236 710,-514 740.999,-494.659 775.565,-470.574 797.76,-454.767"/>
<polygon fill="midnightblue" stroke="midnightblue" points="800.091,-457.403 806.188,-448.738 796.019,-451.709 800.091,-457.403"/>
</g>
<!-- Node26 -->
<g id="node66" class="node"><title>Node26</title>
<a xlink:href="MojVectorInternal_8h.htm" target="_top" xlink:title="core/internal/MojVectorInternal.h">
<polygon fill="white" stroke="black" points="761.5,-492.5 761.5,-513.5 932.5,-513.5 932.5,-492.5 761.5,-492.5"/>
<text text-anchor="middle" x="847" y="-500.5" font-family="Helvetica,sans-Serif" font-size="10.00">core/internal/MojVectorInternal.h</text>
</a>
</g>
<!-- Node20&#45;&gt;Node26 -->
<g id="edge80" class="edge"><title>Node20&#45;&gt;Node26</title>
<path fill="none" stroke="midnightblue" d="M666.84,-550.497C703.483,-540.836 757.951,-526.477 797.399,-516.077"/>
<polygon fill="midnightblue" stroke="midnightblue" points="798.308,-519.457 807.085,-513.523 796.523,-512.688 798.308,-519.457"/>
</g>
<!-- Node21&#45;&gt;Node2 -->
<g id="edge58" class="edge"><title>Node21&#45;&gt;Node2</title>
<path fill="none" stroke="midnightblue" d="M636.956,-297.434C627.948,-294.777 618.15,-292.091 609,-290 533.894,-272.839 446.358,-259.438 387.893,-251.411"/>
<polygon fill="midnightblue" stroke="midnightblue" points="388.066,-247.903 377.685,-250.024 387.123,-254.839 388.066,-247.903"/>
</g>
<!-- Node22&#45;&gt;Node2 -->
<g id="edge62" class="edge"><title>Node22&#45;&gt;Node2</title>
<path fill="none" stroke="midnightblue" d="M559.877,-492.493C568.521,-458.394 590.552,-349.586 538,-290 518.404,-267.781 443.882,-255.268 387.811,-248.834"/>
<polygon fill="midnightblue" stroke="midnightblue" points="387.898,-245.323 377.574,-247.703 387.129,-252.28 387.898,-245.323"/>
</g>
<!-- Node22&#45;&gt;Node16 -->
<g id="edge64" class="edge"><title>Node22&#45;&gt;Node16</title>
<path fill="none" stroke="midnightblue" d="M544.842,-492.201C521.186,-471.217 470.532,-426.419 462,-420 412.193,-382.528 349.977,-344.405 315.049,-323.724"/>
<polygon fill="midnightblue" stroke="midnightblue" points="316.76,-320.67 306.367,-318.611 313.208,-326.702 316.76,-320.67"/>
</g>
<!-- Node22&#45;&gt;Node18 -->
<g id="edge66" class="edge"><title>Node22&#45;&gt;Node18</title>
<path fill="none" stroke="midnightblue" d="M550.617,-492.362C537.533,-470.555 507.5,-420.5 490.78,-392.634"/>
<polygon fill="midnightblue" stroke="midnightblue" points="493.617,-390.56 485.471,-383.785 487.615,-394.161 493.617,-390.56"/>
</g>
<!-- Node23 -->
<g id="node57" class="node"><title>Node23</title>
<a xlink:href="MojRefCountInternal_8h.htm" target="_top" xlink:title="core/internal/MojRefCount\lInternal.h">
<polygon fill="white" stroke="black" points="585,-421 585,-455 725,-455 725,-421 585,-421"/>
<text text-anchor="start" x="593" y="-442" font-family="Helvetica,sans-Serif" font-size="10.00">core/internal/MojRefCount</text>
<text text-anchor="middle" x="655" y="-429" font-family="Helvetica,sans-Serif" font-size="10.00">Internal.h</text>
</a>
</g>
<!-- Node22&#45;&gt;Node23 -->
<g id="edge68" class="edge"><title>Node22&#45;&gt;Node23</title>
<path fill="none" stroke="midnightblue" d="M573.183,-492.267C586.026,-483.748 604.437,-471.537 620.543,-460.854"/>
<polygon fill="midnightblue" stroke="midnightblue" points="622.805,-463.554 629.204,-455.11 618.935,-457.721 622.805,-463.554"/>
</g>
<!-- Node24 -->
<g id="node59" class="node"><title>Node24</title>
<a xlink:href="MojUtilInternal_8h.htm" target="_top" xlink:title="core/internal/MojUtilInternal.h">
<polygon fill="white" stroke="black" points="584.5,-362.5 584.5,-383.5 739.5,-383.5 739.5,-362.5 584.5,-362.5"/>
<text text-anchor="middle" x="662" y="-370.5" font-family="Helvetica,sans-Serif" font-size="10.00">core/internal/MojUtilInternal.h</text>
</a>
</g>
<!-- Node23&#45;&gt;Node24 -->
<g id="edge70" class="edge"><title>Node23&#45;&gt;Node24</title>
<path fill="none" stroke="midnightblue" d="M656.839,-420.922C657.728,-412.67 658.802,-402.692 659.74,-393.982"/>
<polygon fill="midnightblue" stroke="midnightblue" points="663.24,-394.169 660.831,-383.852 656.281,-393.42 663.24,-394.169"/>
</g>
<!-- Node24&#45;&gt;Node21 -->
<g id="edge72" class="edge"><title>Node24&#45;&gt;Node21</title>
<path fill="none" stroke="midnightblue" d="M663.321,-362.267C664.439,-353.18 666.075,-339.892 667.447,-328.74"/>
<polygon fill="midnightblue" stroke="midnightblue" points="670.956,-328.886 668.704,-318.534 664.008,-328.031 670.956,-328.886"/>
</g>
<!-- Node25&#45;&gt;Node2 -->
<g id="edge76" class="edge"><title>Node25&#45;&gt;Node2</title>
<path fill="none" stroke="midnightblue" d="M817.929,-427.243C809.144,-398.728 780.937,-321.247 726,-290 669.832,-258.053 487.48,-247.763 388.08,-244.492"/>
<polygon fill="midnightblue" stroke="midnightblue" points="387.953,-240.987 377.848,-244.171 387.733,-247.983 387.953,-240.987"/>
</g>
<!-- Node25&#45;&gt;Node24 -->
<g id="edge78" class="edge"><title>Node25&#45;&gt;Node24</title>
<path fill="none" stroke="midnightblue" d="M795.1,-427.412C768.536,-416.552 727.027,-399.583 697.43,-387.484"/>
<polygon fill="midnightblue" stroke="midnightblue" points="698.47,-384.128 687.889,-383.584 695.821,-390.607 698.47,-384.128"/>
</g>
</g>
</svg>
