<?xml version="1.0" encoding="UTF-8" standalone="no"?>
<!DOCTYPE svg PUBLIC "-//W3C//DTD SVG 1.1//EN"
 "http://www.w3.org/Graphics/SVG/1.1/DTD/svg11.dtd">
<!-- Generated by graphviz version 2.26.3 (20100126.1600)
 -->
<!-- Title: MojRefCount.h Pages: 1 -->
<svg width="510pt" height="522pt"
 viewBox="0.00 0.00 509.77 522.00" xmlns="http://www.w3.org/2000/svg" xmlns:xlink="http://www.w3.org/1999/xlink">
<g id="graph1" class="graph" transform="scale(1 1) rotate(0) translate(4 518)">
<title>MojRefCount.h</title>
<polygon fill="white" stroke="white" points="-4,5 -4,-518 506.773,-518 506.773,5 -4,5"/>
<!-- Node1 -->
<g id="node1" class="node"><title>Node1</title>
<polygon fill="#bfbfbf" stroke="black" points="140,-492.5 140,-513.5 226,-513.5 226,-492.5 140,-492.5"/>
<text text-anchor="middle" x="183" y="-500.5" font-family="Helvetica,sans-Serif" font-size="10.00">MojRefCount.h</text>
</g>
<!-- Node2 -->
<g id="node3" class="node"><title>Node2</title>
<a xlink:href="MojCoreDefs_8h.htm" target="_top" xlink:title="core/MojCoreDefs.h">
<polygon fill="white" stroke="black" points="150.5,-232.5 150.5,-253.5 261.5,-253.5 261.5,-232.5 150.5,-232.5"/>
<text text-anchor="middle" x="206" y="-240.5" font-family="Helvetica,sans-Serif" font-size="10.00">core/MojCoreDefs.h</text>
</a>
</g>
<!-- Node1&#45;&gt;Node2 -->
<g id="edge2" class="edge"><title>Node1&#45;&gt;Node2</title>
<path fill="none" stroke="midnightblue" d="M139.752,-492.512C106.448,-483.535 64.2555,-469.892 53,-456 26.5514,-423.356 39.5347,-403.87 43,-362 45.6758,-329.669 33.6796,-314.452 55,-290 66.8752,-276.381 106.457,-264.342 142.115,-255.858"/>
<polygon fill="midnightblue" stroke="midnightblue" points="143.089,-259.225 152.043,-253.561 141.511,-252.405 143.089,-259.225"/>
</g>
<!-- Node12 -->
<g id="node23" class="node"><title>Node12</title>
<a xlink:href="MojAtomicInt_8h.htm" target="_top" xlink:title="core/MojAtomicInt.h">
<polygon fill="white" stroke="black" points="176,-297.5 176,-318.5 286,-318.5 286,-297.5 176,-297.5"/>
<text text-anchor="middle" x="231" y="-305.5" font-family="Helvetica,sans-Serif" font-size="10.00">core/MojAtomicInt.h</text>
</a>
</g>
<!-- Node1&#45;&gt;Node12 -->
<g id="edge22" class="edge"><title>Node1&#45;&gt;Node12</title>
<path fill="none" stroke="midnightblue" d="M191.011,-492.417C197.499,-483.275 206.305,-469.451 211,-456 226.161,-412.562 229.913,-358.235 230.789,-328.984"/>
<polygon fill="midnightblue" stroke="midnightblue" points="234.293,-328.817 231.005,-318.745 227.295,-328.669 234.293,-328.817"/>
</g>
<!-- Node13 -->
<g id="node26" class="node"><title>Node13</title>
<a xlink:href="MojAutoPtr_8h.htm" target="_top" xlink:title="core/MojAutoPtr.h">
<polygon fill="white" stroke="black" points="263.5,-362.5 263.5,-383.5 364.5,-383.5 364.5,-362.5 263.5,-362.5"/>
<text text-anchor="middle" x="314" y="-370.5" font-family="Helvetica,sans-Serif" font-size="10.00">core/MojAutoPtr.h</text>
</a>
</g>
<!-- Node1&#45;&gt;Node13 -->
<g id="edge26" class="edge"><title>Node1&#45;&gt;Node13</title>
<path fill="none" stroke="midnightblue" d="M200.266,-492.384C213.963,-483.538 233.198,-470.14 248,-456 268.745,-436.183 288.691,-409.736 301.123,-392.075"/>
<polygon fill="midnightblue" stroke="midnightblue" points="304.091,-393.936 306.903,-383.721 298.335,-389.953 304.091,-393.936"/>
</g>
<!-- Node15 -->
<g id="node33" class="node"><title>Node15</title>
<a xlink:href="MojRefCountInternal_8h.htm" target="_top" xlink:title="core/internal/MojRefCount\lInternal.h">
<polygon fill="white" stroke="black" points="62,-421 62,-455 202,-455 202,-421 62,-421"/>
<text text-anchor="start" x="70" y="-442" font-family="Helvetica,sans-Serif" font-size="10.00">core/internal/MojRefCount</text>
<text text-anchor="middle" x="132" y="-429" font-family="Helvetica,sans-Serif" font-size="10.00">Internal.h</text>
</a>
</g>
<!-- Node1&#45;&gt;Node15 -->
<g id="edge36" class="edge"><title>Node1&#45;&gt;Node15</title>
<path fill="none" stroke="midnightblue" d="M174.578,-492.267C168.39,-484.379 159.717,-473.325 151.812,-463.251"/>
<polygon fill="midnightblue" stroke="midnightblue" points="154.351,-460.817 145.425,-455.11 148.844,-465.138 154.351,-460.817"/>
</g>
<!-- Node3 -->
<g id="node5" class="node"><title>Node3</title>
<a xlink:href="MojConfig_8h.htm" target="_top" xlink:title="core/internal/MojConfig.h">
<polygon fill="white" stroke="black" points="337.5,-174.5 337.5,-195.5 472.5,-195.5 472.5,-174.5 337.5,-174.5"/>
<text text-anchor="middle" x="405" y="-182.5" font-family="Helvetica,sans-Serif" font-size="10.00">core/internal/MojConfig.h</text>
</a>
</g>
<!-- Node2&#45;&gt;Node3 -->
<g id="edge4" class="edge"><title>Node2&#45;&gt;Node3</title>
<path fill="none" stroke="midnightblue" d="M242.037,-232.497C274.901,-222.918 323.617,-208.72 359.224,-198.342"/>
<polygon fill="midnightblue" stroke="midnightblue" points="360.274,-201.681 368.895,-195.523 358.315,-194.961 360.274,-201.681"/>
</g>
<!-- Node4 -->
<g id="node7" class="node"><title>Node4</title>
<a xlink:href="MojNew_8h.htm" target="_top" xlink:title="core/internal/MojNew.h">
<polygon fill="white" stroke="black" points="-0.5,-174.5 -0.5,-195.5 124.5,-195.5 124.5,-174.5 -0.5,-174.5"/>
<text text-anchor="middle" x="62" y="-182.5" font-family="Helvetica,sans-Serif" font-size="10.00">core/internal/MojNew.h</text>
</a>
</g>
<!-- Node2&#45;&gt;Node4 -->
<g id="edge6" class="edge"><title>Node2&#45;&gt;Node4</title>
<path fill="none" stroke="midnightblue" d="M179.923,-232.497C156.925,-223.234 123.2,-209.65 97.7005,-199.379"/>
<polygon fill="midnightblue" stroke="midnightblue" points="98.9534,-196.111 88.3699,-195.621 96.3381,-202.604 98.9534,-196.111"/>
</g>
<!-- Node6 -->
<g id="node11" class="node"><title>Node6</title>
<a xlink:href="MojErr_8h.htm" target="_top" xlink:title="core/MojErr.h">
<polygon fill="white" stroke="black" points="142,-174.5 142,-195.5 222,-195.5 222,-174.5 142,-174.5"/>
<text text-anchor="middle" x="182" y="-182.5" font-family="Helvetica,sans-Serif" font-size="10.00">core/MojErr.h</text>
</a>
</g>
<!-- Node2&#45;&gt;Node6 -->
<g id="edge10" class="edge"><title>Node2&#45;&gt;Node6</title>
<path fill="none" stroke="midnightblue" d="M201.598,-232.362C198.418,-224.677 194.028,-214.069 190.21,-204.84"/>
<polygon fill="midnightblue" stroke="midnightblue" points="193.432,-203.473 186.374,-195.571 186.964,-206.149 193.432,-203.473"/>
</g>
<!-- Node10 -->
<g id="node19" class="node"><title>Node10</title>
<a xlink:href="MojOs_8h.htm" target="_top" xlink:title="core/MojOs.h">
<polygon fill="white" stroke="black" points="240,-174.5 240,-195.5 320,-195.5 320,-174.5 240,-174.5"/>
<text text-anchor="middle" x="280" y="-182.5" font-family="Helvetica,sans-Serif" font-size="10.00">core/MojOs.h</text>
</a>
</g>
<!-- Node2&#45;&gt;Node10 -->
<g id="edge18" class="edge"><title>Node2&#45;&gt;Node10</title>
<path fill="none" stroke="midnightblue" d="M219.573,-232.362C230.421,-223.859 245.834,-211.779 258.379,-201.947"/>
<polygon fill="midnightblue" stroke="midnightblue" points="260.802,-204.494 266.513,-195.571 256.484,-198.985 260.802,-204.494"/>
</g>
<!-- Node5 -->
<g id="node9" class="node"><title>Node5</title>
<polygon fill="white" stroke="#bfbfbf" points="44,-116.5 44,-137.5 80,-137.5 80,-116.5 44,-116.5"/>
<text text-anchor="middle" x="62" y="-124.5" font-family="Helvetica,sans-Serif" font-size="10.00">new</text>
</g>
<!-- Node4&#45;&gt;Node5 -->
<g id="edge8" class="edge"><title>Node4&#45;&gt;Node5</title>
<path fill="none" stroke="midnightblue" d="M62,-174.362C62,-166.922 62,-156.743 62,-147.728"/>
<polygon fill="midnightblue" stroke="midnightblue" points="65.5001,-147.571 62,-137.571 58.5001,-147.571 65.5001,-147.571"/>
</g>
<!-- Node7 -->
<g id="node13" class="node"><title>Node7</title>
<a xlink:href="MojLog_8h.htm" target="_top" xlink:title="core/MojLog.h">
<polygon fill="white" stroke="black" points="140,-116.5 140,-137.5 224,-137.5 224,-116.5 140,-116.5"/>
<text text-anchor="middle" x="182" y="-124.5" font-family="Helvetica,sans-Serif" font-size="10.00">core/MojLog.h</text>
</a>
</g>
<!-- Node6&#45;&gt;Node7 -->
<g id="edge12" class="edge"><title>Node6&#45;&gt;Node7</title>
<path fill="none" stroke="midnightblue" d="M182,-174.362C182,-166.922 182,-156.743 182,-147.728"/>
<polygon fill="midnightblue" stroke="midnightblue" points="185.5,-147.571 182,-137.571 178.5,-147.571 185.5,-147.571"/>
</g>
<!-- Node8 -->
<g id="node15" class="node"><title>Node8</title>
<a xlink:href="MojListEntry_8h.htm" target="_top" xlink:title="core/MojListEntry.h">
<polygon fill="white" stroke="black" points="247.5,-58.5 247.5,-79.5 354.5,-79.5 354.5,-58.5 247.5,-58.5"/>
<text text-anchor="middle" x="301" y="-66.5" font-family="Helvetica,sans-Serif" font-size="10.00">core/MojListEntry.h</text>
</a>
</g>
<!-- Node7&#45;&gt;Node8 -->
<g id="edge14" class="edge"><title>Node7&#45;&gt;Node8</title>
<path fill="none" stroke="midnightblue" d="M203.55,-116.497C222.136,-107.438 249.202,-94.2462 270.095,-84.0628"/>
<polygon fill="midnightblue" stroke="midnightblue" points="271.753,-87.1487 279.208,-79.6212 268.686,-80.8563 271.753,-87.1487"/>
</g>
<!-- Node9 -->
<g id="node17" class="node"><title>Node9</title>
<a xlink:href="MojNoCopy_8h.htm" target="_top" xlink:title="core/MojNoCopy.h">
<polygon fill="white" stroke="black" points="348,-0.5 348,-21.5 452,-21.5 452,-0.5 348,-0.5"/>
<text text-anchor="middle" x="400" y="-8.5" font-family="Helvetica,sans-Serif" font-size="10.00">core/MojNoCopy.h</text>
</a>
</g>
<!-- Node8&#45;&gt;Node9 -->
<g id="edge16" class="edge"><title>Node8&#45;&gt;Node9</title>
<path fill="none" stroke="midnightblue" d="M319.158,-58.3619C334.23,-49.532 355.887,-36.844 372.993,-26.8224"/>
<polygon fill="midnightblue" stroke="midnightblue" points="375.098,-29.6456 381.957,-21.5707 371.559,-23.6058 375.098,-29.6456"/>
</g>
<!-- Node11 -->
<g id="node21" class="node"><title>Node11</title>
<a xlink:href="MojOsInternal_8h.htm" target="_top" xlink:title="core/internal/MojOsInternal.h">
<polygon fill="white" stroke="black" points="242,-116.5 242,-137.5 396,-137.5 396,-116.5 242,-116.5"/>
<text text-anchor="middle" x="319" y="-124.5" font-family="Helvetica,sans-Serif" font-size="10.00">core/internal/MojOsInternal.h</text>
</a>
</g>
<!-- Node10&#45;&gt;Node11 -->
<g id="edge20" class="edge"><title>Node10&#45;&gt;Node11</title>
<path fill="none" stroke="midnightblue" d="M287.153,-174.362C292.486,-166.431 299.911,-155.389 306.251,-145.961"/>
<polygon fill="midnightblue" stroke="midnightblue" points="309.217,-147.822 311.892,-137.571 303.408,-143.916 309.217,-147.822"/>
</g>
<!-- Node12&#45;&gt;Node2 -->
<g id="edge24" class="edge"><title>Node12&#45;&gt;Node2</title>
<path fill="none" stroke="midnightblue" d="M226.872,-297.267C223.304,-287.991 218.052,-274.336 213.71,-263.045"/>
<polygon fill="midnightblue" stroke="midnightblue" points="216.908,-261.611 210.051,-253.534 210.375,-264.124 216.908,-261.611"/>
</g>
<!-- Node13&#45;&gt;Node2 -->
<g id="edge28" class="edge"><title>Node13&#45;&gt;Node2</title>
<path fill="none" stroke="midnightblue" d="M314.27,-362.393C314.163,-345.375 311.659,-311.688 295,-290 283.789,-275.404 266.737,-264.863 250.549,-257.51"/>
<polygon fill="midnightblue" stroke="midnightblue" points="251.741,-254.214 241.168,-253.543 249.015,-260.661 251.741,-254.214"/>
</g>
<!-- Node13&#45;&gt;Node9 -->
<g id="edge32" class="edge"><title>Node13&#45;&gt;Node9</title>
<path fill="none" stroke="midnightblue" d="M364.793,-364.562C407.824,-356.394 465.01,-342.798 481,-326 507.091,-298.589 500,-280.843 500,-243 500,-243 500,-243 500,-127 500,-82.6626 457.572,-46.8687 427.989,-27.2998"/>
<polygon fill="midnightblue" stroke="midnightblue" points="429.596,-24.1742 419.281,-21.7561 425.837,-30.079 429.596,-24.1742"/>
</g>
<!-- Node13&#45;&gt;Node12 -->
<g id="edge30" class="edge"><title>Node13&#45;&gt;Node12</title>
<path fill="none" stroke="midnightblue" d="M300.294,-362.267C287.362,-352.139 267.765,-336.792 252.707,-325"/>
<polygon fill="midnightblue" stroke="midnightblue" points="254.482,-321.944 244.451,-318.534 250.166,-327.455 254.482,-321.944"/>
</g>
<!-- Node14 -->
<g id="node31" class="node"><title>Node14</title>
<a xlink:href="MojAutoPtrInternal_8h.htm" target="_top" xlink:title="core/internal/MojAutoPtr\lInternal.h">
<polygon fill="white" stroke="black" points="341.5,-291 341.5,-325 472.5,-325 472.5,-291 341.5,-291"/>
<text text-anchor="start" x="349.5" y="-312" font-family="Helvetica,sans-Serif" font-size="10.00">core/internal/MojAutoPtr</text>
<text text-anchor="middle" x="407" y="-299" font-family="Helvetica,sans-Serif" font-size="10.00">Internal.h</text>
</a>
</g>
<!-- Node13&#45;&gt;Node14 -->
<g id="edge34" class="edge"><title>Node13&#45;&gt;Node14</title>
<path fill="none" stroke="midnightblue" d="M329.357,-362.267C341.545,-353.748 359.017,-341.537 374.301,-330.854"/>
<polygon fill="midnightblue" stroke="midnightblue" points="376.328,-333.707 382.52,-325.11 372.318,-327.97 376.328,-333.707"/>
</g>
<!-- Node16 -->
<g id="node35" class="node"><title>Node16</title>
<a xlink:href="MojUtilInternal_8h.htm" target="_top" xlink:title="core/internal/MojUtilInternal.h">
<polygon fill="white" stroke="black" points="51.5,-362.5 51.5,-383.5 206.5,-383.5 206.5,-362.5 51.5,-362.5"/>
<text text-anchor="middle" x="129" y="-370.5" font-family="Helvetica,sans-Serif" font-size="10.00">core/internal/MojUtilInternal.h</text>
</a>
</g>
<!-- Node15&#45;&gt;Node16 -->
<g id="edge38" class="edge"><title>Node15&#45;&gt;Node16</title>
<path fill="none" stroke="midnightblue" d="M131.212,-420.922C130.831,-412.67 130.37,-402.692 129.968,-393.982"/>
<polygon fill="midnightblue" stroke="midnightblue" points="133.458,-393.68 129.501,-383.852 126.466,-394.003 133.458,-393.68"/>
</g>
<!-- Node17 -->
<g id="node37" class="node"><title>Node17</title>
<a xlink:href="MojComp_8h.htm" target="_top" xlink:title="core/MojComp.h">
<polygon fill="white" stroke="black" points="64,-297.5 64,-318.5 158,-318.5 158,-297.5 64,-297.5"/>
<text text-anchor="middle" x="111" y="-305.5" font-family="Helvetica,sans-Serif" font-size="10.00">core/MojComp.h</text>
</a>
</g>
<!-- Node16&#45;&gt;Node17 -->
<g id="edge40" class="edge"><title>Node16&#45;&gt;Node17</title>
<path fill="none" stroke="midnightblue" d="M126.028,-362.267C123.485,-353.085 119.755,-339.615 116.647,-328.392"/>
<polygon fill="midnightblue" stroke="midnightblue" points="119.959,-327.237 113.917,-318.534 113.213,-329.105 119.959,-327.237"/>
</g>
<!-- Node17&#45;&gt;Node2 -->
<g id="edge42" class="edge"><title>Node17&#45;&gt;Node2</title>
<path fill="none" stroke="midnightblue" d="M126.687,-297.267C141.766,-286.949 164.761,-271.216 182.115,-259.342"/>
<polygon fill="midnightblue" stroke="midnightblue" points="184.328,-262.069 190.605,-253.534 180.375,-256.292 184.328,-262.069"/>
</g>
</g>
</svg>
