<?xml version="1.0" encoding="UTF-8" standalone="no"?>
<!DOCTYPE svg PUBLIC "-//W3C//DTD SVG 1.1//EN"
 "http://www.w3.org/Graphics/SVG/1.1/DTD/svg11.dtd">
<!-- Generated by graphviz version 2.26.3 (20100126.1600)
 -->
<!-- Title: MojSocketMessage.h Pages: 1 -->
<svg width="318pt" height="204pt"
 viewBox="0.00 0.00 318.00 204.00" xmlns="http://www.w3.org/2000/svg" xmlns:xlink="http://www.w3.org/1999/xlink">
<g id="graph1" class="graph" transform="scale(1 1) rotate(0) translate(4 200)">
<title>MojSocketMessage.h</title>
<polygon fill="white" stroke="white" points="-4,5 -4,-200 315,-200 315,5 -4,5"/>
<!-- Node1 -->
<g id="node1" class="node"><title>Node1</title>
<polygon fill="#bfbfbf" stroke="black" points="185,-174.5 185,-195.5 303,-195.5 303,-174.5 185,-174.5"/>
<text text-anchor="middle" x="244" y="-182.5" font-family="Helvetica,sans-Serif" font-size="10.00">MojSocketMessage.h</text>
</g>
<!-- Node2 -->
<g id="node3" class="node"><title>Node2</title>
<a xlink:href="MojSocketEncoding_8h.htm" target="_top" xlink:title="MojSocketEncoding.h">
<polygon fill="white" stroke="black" points="138.5,-116.5 138.5,-137.5 257.5,-137.5 257.5,-116.5 138.5,-116.5"/>
<text text-anchor="middle" x="198" y="-124.5" font-family="Helvetica,sans-Serif" font-size="10.00">MojSocketEncoding.h</text>
</a>
</g>
<!-- Node1&#45;&gt;Node2 -->
<g id="edge2" class="edge"><title>Node1&#45;&gt;Node2</title>
<path fill="none" stroke="midnightblue" d="M229.13,-166.25C221.595,-156.75 212.724,-145.565 206.384,-137.571"/>
<polygon fill="midnightblue" stroke="midnightblue" points="226.607,-168.702 235.563,-174.362 232.091,-164.352 226.607,-168.702"/>
</g>
<!-- Node4 -->
<g id="node7" class="node"><title>Node4</title>
<a xlink:href="MojSocketMessage_8cpp.htm" target="_top" xlink:title="MojSocketMessage.cpp">
<polygon fill="white" stroke="black" points="181.5,-0.5 181.5,-21.5 310.5,-21.5 310.5,-0.5 181.5,-0.5"/>
<text text-anchor="middle" x="246" y="-8.5" font-family="Helvetica,sans-Serif" font-size="10.00">MojSocketMessage.cpp</text>
</a>
</g>
<!-- Node1&#45;&gt;Node4 -->
<g id="edge12" class="edge"><title>Node1&#45;&gt;Node4</title>
<path fill="none" stroke="midnightblue" d="M255.107,-165.127C259.187,-156.959 263.433,-147.258 266,-138 275.525,-103.641 280.913,-92.5235 272,-58 268.504,-44.4565 260.178,-30.6481 253.883,-21.5351"/>
<polygon fill="midnightblue" stroke="midnightblue" points="251.893,-163.718 250.335,-174.197 258.088,-166.977 251.893,-163.718"/>
</g>
<!-- Node3 -->
<g id="node5" class="node"><title>Node3</title>
<a xlink:href="MojSocketService_8h.htm" target="_top" xlink:title="MojSocketService.h">
<polygon fill="white" stroke="black" points="5,-58.5 5,-79.5 115,-79.5 115,-58.5 5,-58.5"/>
<text text-anchor="middle" x="60" y="-66.5" font-family="Helvetica,sans-Serif" font-size="10.00">MojSocketService.h</text>
</a>
</g>
<!-- Node2&#45;&gt;Node3 -->
<g id="edge4" class="edge"><title>Node2&#45;&gt;Node3</title>
<path fill="none" stroke="midnightblue" d="M163.774,-112.615C139.443,-102.389 107.3,-88.8796 85.2712,-79.6212"/>
<polygon fill="midnightblue" stroke="midnightblue" points="162.434,-115.849 173.009,-116.497 165.146,-109.395 162.434,-115.849"/>
</g>
<!-- Node6 -->
<g id="node11" class="node"><title>Node6</title>
<a xlink:href="MojSocketEncoding_8cpp.htm" target="_top" xlink:title="MojSocketEncoding.cpp">
<polygon fill="white" stroke="black" points="133,-58.5 133,-79.5 263,-79.5 263,-58.5 133,-58.5"/>
<text text-anchor="middle" x="198" y="-66.5" font-family="Helvetica,sans-Serif" font-size="10.00">MojSocketEncoding.cpp</text>
</a>
</g>
<!-- Node2&#45;&gt;Node6 -->
<g id="edge10" class="edge"><title>Node2&#45;&gt;Node6</title>
<path fill="none" stroke="midnightblue" d="M198,-106.191C198,-97.1684 198,-86.9941 198,-79.5707"/>
<polygon fill="midnightblue" stroke="midnightblue" points="194.5,-106.362 198,-116.362 201.5,-106.362 194.5,-106.362"/>
</g>
<!-- Node3&#45;&gt;Node4 -->
<g id="edge6" class="edge"><title>Node3&#45;&gt;Node4</title>
<path fill="none" stroke="midnightblue" d="M103.573,-55.4127C136.758,-45.0646 181.779,-31.0258 212.254,-21.5231"/>
<polygon fill="midnightblue" stroke="midnightblue" points="102.188,-52.1783 93.6832,-58.4966 104.272,-58.861 102.188,-52.1783"/>
</g>
<!-- Node5 -->
<g id="node9" class="node"><title>Node5</title>
<a xlink:href="MojSocketService_8cpp.htm" target="_top" xlink:title="MojSocketService.cpp">
<polygon fill="white" stroke="black" points="-0.5,-0.5 -0.5,-21.5 120.5,-21.5 120.5,-0.5 -0.5,-0.5"/>
<text text-anchor="middle" x="60" y="-8.5" font-family="Helvetica,sans-Serif" font-size="10.00">MojSocketService.cpp</text>
</a>
</g>
<!-- Node3&#45;&gt;Node5 -->
<g id="edge8" class="edge"><title>Node3&#45;&gt;Node5</title>
<path fill="none" stroke="midnightblue" d="M60,-48.1906C60,-39.1684 60,-28.9941 60,-21.5707"/>
<polygon fill="midnightblue" stroke="midnightblue" points="56.5001,-48.3619 60,-58.3619 63.5001,-48.3619 56.5001,-48.3619"/>
</g>
</g>
</svg>
