<?xml version="1.0" encoding="UTF-8" standalone="no"?>
<!DOCTYPE svg PUBLIC "-//W3C//DTD SVG 1.1//EN"
 "http://www.w3.org/Graphics/SVG/1.1/DTD/svg11.dtd">
<!-- Generated by graphviz version 2.26.3 (20100126.1600)
 -->
<!-- Title: MojServiceApp.h Pages: 1 -->
<svg width="252pt" height="204pt"
 viewBox="0.00 0.00 252.00 204.00" xmlns="http://www.w3.org/2000/svg" xmlns:xlink="http://www.w3.org/1999/xlink">
<g id="graph1" class="graph" transform="scale(1 1) rotate(0) translate(4 200)">
<title>MojServiceApp.h</title>
<polygon fill="white" stroke="white" points="-4,5 -4,-200 249,-200 249,5 -4,5"/>
<!-- Node1 -->
<g id="node1" class="node"><title>Node1</title>
<polygon fill="#bfbfbf" stroke="black" points="83,-174.5 83,-195.5 179,-195.5 179,-174.5 83,-174.5"/>
<text text-anchor="middle" x="131" y="-182.5" font-family="Helvetica,sans-Serif" font-size="10.00">MojServiceApp.h</text>
</g>
<!-- Node2 -->
<g id="node3" class="node"><title>Node2</title>
<a xlink:href="MojReactorApp_8h.htm" target="_top" xlink:title="MojReactorApp.h">
<polygon fill="white" stroke="black" points="22,-116.5 22,-137.5 120,-137.5 120,-116.5 22,-116.5"/>
<text text-anchor="middle" x="71" y="-124.5" font-family="Helvetica,sans-Serif" font-size="10.00">MojReactorApp.h</text>
</a>
</g>
<!-- Node1&#45;&gt;Node2 -->
<g id="edge2" class="edge"><title>Node1&#45;&gt;Node2</title>
<path fill="none" stroke="midnightblue" d="M112.798,-167.405C102.726,-157.668 90.5428,-145.891 81.9352,-137.571"/>
<polygon fill="midnightblue" stroke="midnightblue" points="110.373,-169.928 119.995,-174.362 115.238,-164.895 110.373,-169.928"/>
</g>
<!-- Node5 -->
<g id="node9" class="node"><title>Node5</title>
<a xlink:href="MojServiceApp_8cpp.htm" target="_top" xlink:title="MojServiceApp.cpp">
<polygon fill="white" stroke="black" points="137.5,-116.5 137.5,-137.5 244.5,-137.5 244.5,-116.5 137.5,-116.5"/>
<text text-anchor="middle" x="191" y="-124.5" font-family="Helvetica,sans-Serif" font-size="10.00">MojServiceApp.cpp</text>
</a>
</g>
<!-- Node1&#45;&gt;Node5 -->
<g id="edge8" class="edge"><title>Node1&#45;&gt;Node5</title>
<path fill="none" stroke="midnightblue" d="M149.202,-167.405C159.274,-157.668 171.457,-145.891 180.065,-137.571"/>
<polygon fill="midnightblue" stroke="midnightblue" points="146.762,-164.895 142.005,-174.362 151.627,-169.928 146.762,-164.895"/>
</g>
<!-- Node3 -->
<g id="node5" class="node"><title>Node3</title>
<a xlink:href="MojDbLunaServiceApp_8h.htm" target="_top" xlink:title="MojDbLunaServiceApp.h">
<polygon fill="white" stroke="black" points="5,-58.5 5,-79.5 137,-79.5 137,-58.5 5,-58.5"/>
<text text-anchor="middle" x="71" y="-66.5" font-family="Helvetica,sans-Serif" font-size="10.00">MojDbLunaServiceApp.h</text>
</a>
</g>
<!-- Node2&#45;&gt;Node3 -->
<g id="edge4" class="edge"><title>Node2&#45;&gt;Node3</title>
<path fill="none" stroke="midnightblue" d="M71,-106.191C71,-97.1684 71,-86.9941 71,-79.5707"/>
<polygon fill="midnightblue" stroke="midnightblue" points="67.5001,-106.362 71,-116.362 74.5001,-106.362 67.5001,-106.362"/>
</g>
<!-- Node4 -->
<g id="node7" class="node"><title>Node4</title>
<a xlink:href="MojDbLunaServiceApp_8cpp.htm" target="_top" xlink:title="MojDbLunaServiceApp.cpp">
<polygon fill="white" stroke="black" points="-0.5,-0.5 -0.5,-21.5 142.5,-21.5 142.5,-0.5 -0.5,-0.5"/>
<text text-anchor="middle" x="71" y="-8.5" font-family="Helvetica,sans-Serif" font-size="10.00">MojDbLunaServiceApp.cpp</text>
</a>
</g>
<!-- Node3&#45;&gt;Node4 -->
<g id="edge6" class="edge"><title>Node3&#45;&gt;Node4</title>
<path fill="none" stroke="midnightblue" d="M71,-48.1906C71,-39.1684 71,-28.9941 71,-21.5707"/>
<polygon fill="midnightblue" stroke="midnightblue" points="67.5001,-48.3619 71,-58.3619 74.5001,-48.3619 67.5001,-48.3619"/>
</g>
</g>
</svg>
