<?xml version="1.0" encoding="UTF-8" standalone="no"?>
<!DOCTYPE svg PUBLIC "-//W3C//DTD SVG 1.1//EN"
 "http://www.w3.org/Graphics/SVG/1.1/DTD/svg11.dtd">
<!-- Generated by graphviz version 2.26.3 (20100126.1600)
 -->
<!-- Title: MojSchema.h Pages: 1 -->
<svg width="1934pt" height="378pt"
 viewBox="0.00 0.00 1934.00 378.00" xmlns="http://www.w3.org/2000/svg" xmlns:xlink="http://www.w3.org/1999/xlink">
<g id="graph1" class="graph" transform="scale(1 1) rotate(0) translate(4 374)">
<title>MojSchema.h</title>
<polygon fill="white" stroke="white" points="-4,5 -4,-374 1931,-374 1931,5 -4,5"/>
<!-- Node1 -->
<g id="node1" class="node"><title>Node1</title>
<polygon fill="#bfbfbf" stroke="black" points="1411,-348.5 1411,-369.5 1491,-369.5 1491,-348.5 1411,-348.5"/>
<text text-anchor="middle" x="1451" y="-356.5" font-family="Helvetica,sans-Serif" font-size="10.00">MojSchema.h</text>
</g>
<!-- Node2 -->
<g id="node3" class="node"><title>Node2</title>
<a xlink:href="MojService_8h.htm" target="_top" xlink:title="MojService.h">
<polygon fill="white" stroke="black" points="529.5,-290.5 529.5,-311.5 606.5,-311.5 606.5,-290.5 529.5,-290.5"/>
<text text-anchor="middle" x="568" y="-298.5" font-family="Helvetica,sans-Serif" font-size="10.00">MojService.h</text>
</a>
</g>
<!-- Node1&#45;&gt;Node2 -->
<g id="edge2" class="edge"><title>Node1&#45;&gt;Node2</title>
<path fill="none" stroke="midnightblue" d="M1400.75,-355.699C1241.28,-345.224 748.756,-312.873 606.713,-303.543"/>
<polygon fill="midnightblue" stroke="midnightblue" points="1400.56,-359.194 1410.76,-356.357 1401.02,-352.209 1400.56,-359.194"/>
</g>
<!-- Node28 -->
<g id="node70" class="node"><title>Node28</title>
<a xlink:href="MojDbKind_8h.htm" target="_top" xlink:title="MojDbKind.h">
<polygon fill="white" stroke="black" points="1413,-290.5 1413,-311.5 1489,-311.5 1489,-290.5 1413,-290.5"/>
<text text-anchor="middle" x="1451" y="-298.5" font-family="Helvetica,sans-Serif" font-size="10.00">MojDbKind.h</text>
</a>
</g>
<!-- Node1&#45;&gt;Node28 -->
<g id="edge84" class="edge"><title>Node1&#45;&gt;Node28</title>
<path fill="none" stroke="midnightblue" d="M1451,-338.191C1451,-329.168 1451,-318.994 1451,-311.571"/>
<polygon fill="midnightblue" stroke="midnightblue" points="1447.5,-338.362 1451,-348.362 1454.5,-338.362 1447.5,-338.362"/>
</g>
<!-- Node37 -->
<g id="node88" class="node"><title>Node37</title>
<a xlink:href="MojSchema_8cpp.htm" target="_top" xlink:title="MojSchema.cpp">
<polygon fill="white" stroke="black" points="1507,-290.5 1507,-311.5 1599,-311.5 1599,-290.5 1507,-290.5"/>
<text text-anchor="middle" x="1553" y="-298.5" font-family="Helvetica,sans-Serif" font-size="10.00">MojSchema.cpp</text>
</a>
</g>
<!-- Node1&#45;&gt;Node37 -->
<g id="edge102" class="edge"><title>Node1&#45;&gt;Node37</title>
<path fill="none" stroke="midnightblue" d="M1478.47,-343.379C1496.19,-333.301 1518.77,-320.462 1534.41,-311.571"/>
<polygon fill="midnightblue" stroke="midnightblue" points="1476.67,-340.376 1469.71,-348.362 1480.13,-346.461 1476.67,-340.376"/>
</g>
<!-- Node3 -->
<g id="node5" class="node"><title>Node3</title>
<a xlink:href="MojServiceMessage_8h.htm" target="_top" xlink:title="MojServiceMessage.h">
<polygon fill="white" stroke="black" points="551.5,-232.5 551.5,-253.5 672.5,-253.5 672.5,-232.5 551.5,-232.5"/>
<text text-anchor="middle" x="612" y="-240.5" font-family="Helvetica,sans-Serif" font-size="10.00">MojServiceMessage.h</text>
</a>
</g>
<!-- Node2&#45;&gt;Node3 -->
<g id="edge4" class="edge"><title>Node2&#45;&gt;Node3</title>
<path fill="none" stroke="midnightblue" d="M582.224,-282.25C589.431,-272.75 597.916,-261.565 603.981,-253.571"/>
<polygon fill="midnightblue" stroke="midnightblue" points="579.326,-280.28 576.07,-290.362 584.903,-284.51 579.326,-280.28"/>
</g>
<!-- Node6 -->
<g id="node11" class="node"><title>Node6</title>
<a xlink:href="MojSocketService_8h.htm" target="_top" xlink:title="MojSocketService.h">
<polygon fill="white" stroke="black" points="5,-58.5 5,-79.5 115,-79.5 115,-58.5 5,-58.5"/>
<text text-anchor="middle" x="60" y="-66.5" font-family="Helvetica,sans-Serif" font-size="10.00">MojSocketService.h</text>
</a>
</g>
<!-- Node2&#45;&gt;Node6 -->
<g id="edge58" class="edge"><title>Node2&#45;&gt;Node6</title>
<path fill="none" stroke="midnightblue" d="M518.99,-299.875C400.083,-296.656 103.76,-285.524 73,-254 25.5542,-205.377 47.4884,-111.229 56.6658,-79.6321"/>
<polygon fill="midnightblue" stroke="midnightblue" points="519.171,-303.381 529.259,-300.145 519.355,-296.383 519.171,-303.381"/>
</g>
<!-- Node10 -->
<g id="node20" class="node"><title>Node10</title>
<a xlink:href="MojDbServiceHandlerBase_8h.htm" target="_top" xlink:title="MojDbServiceHandlerBase.h">
<polygon fill="white" stroke="black" points="528,-174.5 528,-195.5 680,-195.5 680,-174.5 528,-174.5"/>
<text text-anchor="middle" x="604" y="-182.5" font-family="Helvetica,sans-Serif" font-size="10.00">MojDbServiceHandlerBase.h</text>
</a>
</g>
<!-- Node2&#45;&gt;Node10 -->
<g id="edge60" class="edge"><title>Node2&#45;&gt;Node10</title>
<path fill="none" stroke="midnightblue" d="M616.609,-293.583C640.249,-287.261 666.607,-275.575 681,-254 697.486,-229.287 660.475,-207.689 632.246,-195.507"/>
<polygon fill="midnightblue" stroke="midnightblue" points="615.587,-290.229 606.687,-295.977 617.229,-297.034 615.587,-290.229"/>
</g>
<!-- Node17 -->
<g id="node35" class="node"><title>Node17</title>
<a xlink:href="MojDbServiceHandlerInternal_8h.htm" target="_top" xlink:title="MojDbServiceHandlerInternal.h">
<polygon fill="white" stroke="black" points="657,-116.5 657,-137.5 821,-137.5 821,-116.5 657,-116.5"/>
<text text-anchor="middle" x="739" y="-124.5" font-family="Helvetica,sans-Serif" font-size="10.00">MojDbServiceHandlerInternal.h</text>
</a>
</g>
<!-- Node2&#45;&gt;Node17 -->
<g id="edge62" class="edge"><title>Node2&#45;&gt;Node17</title>
<path fill="none" stroke="midnightblue" d="M616.91,-294.09C644.091,-287.869 676.636,-276.117 698,-254 730.194,-220.671 737.109,-161.904 738.594,-137.788"/>
<polygon fill="midnightblue" stroke="midnightblue" points="615.858,-290.735 606.79,-296.214 617.295,-297.585 615.858,-290.735"/>
</g>
<!-- Node22 -->
<g id="node49" class="node"><title>Node22</title>
<a xlink:href="MojService_8cpp.htm" target="_top" xlink:title="MojService.cpp">
<polygon fill="white" stroke="black" points="135.5,-174.5 135.5,-195.5 224.5,-195.5 224.5,-174.5 135.5,-174.5"/>
<text text-anchor="middle" x="180" y="-182.5" font-family="Helvetica,sans-Serif" font-size="10.00">MojService.cpp</text>
</a>
</g>
<!-- Node2&#45;&gt;Node22 -->
<g id="edge76" class="edge"><title>Node2&#45;&gt;Node22</title>
<path fill="none" stroke="midnightblue" d="M556.108,-281.785C545.002,-265.639 526.877,-243.423 505,-232 396.905,-175.559 353.224,-216.404 233,-196 230.313,-195.544 227.555,-195.05 224.776,-194.533"/>
<polygon fill="midnightblue" stroke="midnightblue" points="553.394,-284.028 561.811,-290.462 559.244,-280.183 553.394,-284.028"/>
</g>
<!-- Node24 -->
<g id="node56" class="node"><title>Node24</title>
<a xlink:href="MojLunaService_8h.htm" target="_top" xlink:title="MojLunaService.h">
<polygon fill="white" stroke="black" points="815.5,-232.5 815.5,-253.5 916.5,-253.5 916.5,-232.5 815.5,-232.5"/>
<text text-anchor="middle" x="866" y="-240.5" font-family="Helvetica,sans-Serif" font-size="10.00">MojLunaService.h</text>
</a>
</g>
<!-- Node2&#45;&gt;Node24 -->
<g id="edge64" class="edge"><title>Node2&#45;&gt;Node24</title>
<path fill="none" stroke="midnightblue" d="M616.805,-291.501C671.574,-280.841 760,-263.631 815.466,-252.835"/>
<polygon fill="midnightblue" stroke="midnightblue" points="615.8,-288.131 606.653,-293.477 617.137,-295.002 615.8,-288.131"/>
</g>
<!-- Node25 -->
<g id="node64" class="node"><title>Node25</title>
<a xlink:href="MojServiceRequest_8cpp.htm" target="_top" xlink:title="MojServiceRequest.cpp">
<polygon fill="white" stroke="black" points="82,-232.5 82,-253.5 210,-253.5 210,-232.5 82,-232.5"/>
<text text-anchor="middle" x="146" y="-240.5" font-family="Helvetica,sans-Serif" font-size="10.00">MojServiceRequest.cpp</text>
</a>
</g>
<!-- Node2&#45;&gt;Node25 -->
<g id="edge78" class="edge"><title>Node2&#45;&gt;Node25</title>
<path fill="none" stroke="midnightblue" d="M519.174,-294.67C451.659,-285.862 326.002,-269.266 219,-254 216.082,-253.584 213.099,-253.153 210.086,-252.715"/>
<polygon fill="midnightblue" stroke="midnightblue" points="519.13,-298.194 529.499,-296.016 520.035,-291.253 519.13,-298.194"/>
</g>
<!-- Node26 -->
<g id="node66" class="node"><title>Node26</title>
<a xlink:href="MojDbServiceClient_8cpp.htm" target="_top" xlink:title="MojDbServiceClient.cpp">
<polygon fill="white" stroke="black" points="228,-232.5 228,-253.5 356,-253.5 356,-232.5 228,-232.5"/>
<text text-anchor="middle" x="292" y="-240.5" font-family="Helvetica,sans-Serif" font-size="10.00">MojDbServiceClient.cpp</text>
</a>
</g>
<!-- Node2&#45;&gt;Node26 -->
<g id="edge80" class="edge"><title>Node2&#45;&gt;Node26</title>
<path fill="none" stroke="midnightblue" d="M519.442,-290.796C469.617,-280.325 392.463,-264.112 342.088,-253.526"/>
<polygon fill="midnightblue" stroke="midnightblue" points="518.827,-294.243 529.333,-292.874 520.266,-287.392 518.827,-294.243"/>
</g>
<!-- Node27 -->
<g id="node68" class="node"><title>Node27</title>
<a xlink:href="MojDbServiceDefs_8cpp.htm" target="_top" xlink:title="MojDbServiceDefs.cpp">
<polygon fill="white" stroke="black" points="373.5,-232.5 373.5,-253.5 496.5,-253.5 496.5,-232.5 373.5,-232.5"/>
<text text-anchor="middle" x="435" y="-240.5" font-family="Helvetica,sans-Serif" font-size="10.00">MojDbServiceDefs.cpp</text>
</a>
</g>
<!-- Node2&#45;&gt;Node27 -->
<g id="edge82" class="edge"><title>Node2&#45;&gt;Node27</title>
<path fill="none" stroke="midnightblue" d="M534.703,-286.479C511.29,-276.269 480.492,-262.839 459.356,-253.621"/>
<polygon fill="midnightblue" stroke="midnightblue" points="533.349,-289.707 543.915,-290.497 536.147,-283.291 533.349,-289.707"/>
</g>
<!-- Node4 -->
<g id="node7" class="node"><title>Node4</title>
<a xlink:href="MojSocketMessage_8h.htm" target="_top" xlink:title="MojSocketMessage.h">
<polygon fill="white" stroke="black" points="242,-174.5 242,-195.5 360,-195.5 360,-174.5 242,-174.5"/>
<text text-anchor="middle" x="301" y="-182.5" font-family="Helvetica,sans-Serif" font-size="10.00">MojSocketMessage.h</text>
</a>
</g>
<!-- Node3&#45;&gt;Node4 -->
<g id="edge6" class="edge"><title>Node3&#45;&gt;Node4</title>
<path fill="none" stroke="midnightblue" d="M545.51,-230.6C489.534,-220.161 410.357,-205.394 357.425,-195.523"/>
<polygon fill="midnightblue" stroke="midnightblue" points="545.208,-234.104 555.68,-232.497 546.491,-227.223 545.208,-234.104"/>
</g>
<!-- Node3&#45;&gt;Node10 -->
<g id="edge20" class="edge"><title>Node3&#45;&gt;Node10</title>
<path fill="none" stroke="midnightblue" d="M609.13,-222.191C607.885,-213.168 606.482,-202.994 605.458,-195.571"/>
<polygon fill="midnightblue" stroke="midnightblue" points="605.699,-222.934 610.533,-232.362 612.633,-221.977 605.699,-222.934"/>
</g>
<!-- Node3&#45;&gt;Node17 -->
<g id="edge46" class="edge"><title>Node3&#45;&gt;Node17</title>
<path fill="none" stroke="midnightblue" d="M643.01,-227.772C657.881,-219.585 675.377,-208.586 689,-196 708.124,-178.331 724.585,-152.344 733.006,-137.827"/>
<polygon fill="midnightblue" stroke="midnightblue" points="641.327,-224.703 634.148,-232.496 644.619,-230.881 641.327,-224.703"/>
</g>
<!-- Node19 -->
<g id="node43" class="node"><title>Node19</title>
<a xlink:href="MojLunaMessage_8h.htm" target="_top" xlink:title="MojLunaMessage.h">
<polygon fill="white" stroke="black" points="811.5,-174.5 811.5,-195.5 920.5,-195.5 920.5,-174.5 811.5,-174.5"/>
<text text-anchor="middle" x="866" y="-182.5" font-family="Helvetica,sans-Serif" font-size="10.00">MojLunaMessage.h</text>
</a>
</g>
<!-- Node3&#45;&gt;Node19 -->
<g id="edge48" class="edge"><title>Node3&#45;&gt;Node19</title>
<path fill="none" stroke="midnightblue" d="M668.02,-230.208C713.627,-219.794 777.224,-205.272 819.916,-195.523"/>
<polygon fill="midnightblue" stroke="midnightblue" points="666.967,-226.858 657.997,-232.497 668.526,-233.683 666.967,-226.858"/>
</g>
<!-- Node3&#45;&gt;Node22 -->
<g id="edge54" class="edge"><title>Node3&#45;&gt;Node22</title>
<path fill="none" stroke="midnightblue" d="M541.308,-232.445C540.198,-232.294 539.094,-232.146 538,-232 402.7,-213.963 367.73,-217.89 233,-196 230.31,-195.563 227.549,-195.084 224.769,-194.578"/>
<polygon fill="midnightblue" stroke="midnightblue" points="541.059,-235.944 551.445,-233.847 542.019,-229.01 541.059,-235.944"/>
</g>
<!-- Node23 -->
<g id="node51" class="node"><title>Node23</title>
<a xlink:href="MojServiceMessage_8cpp.htm" target="_top" xlink:title="MojServiceMessage.cpp">
<polygon fill="white" stroke="black" points="378,-174.5 378,-195.5 510,-195.5 510,-174.5 378,-174.5"/>
<text text-anchor="middle" x="444" y="-182.5" font-family="Helvetica,sans-Serif" font-size="10.00">MojServiceMessage.cpp</text>
</a>
</g>
<!-- Node3&#45;&gt;Node23 -->
<g id="edge56" class="edge"><title>Node3&#45;&gt;Node23</title>
<path fill="none" stroke="midnightblue" d="M571.866,-229.144C541.97,-218.823 501.769,-204.944 474.481,-195.523"/>
<polygon fill="midnightblue" stroke="midnightblue" points="570.982,-232.542 581.576,-232.497 573.266,-225.925 570.982,-232.542"/>
</g>
<!-- Node5 -->
<g id="node9" class="node"><title>Node5</title>
<a xlink:href="MojSocketEncoding_8h.htm" target="_top" xlink:title="MojSocketEncoding.h">
<polygon fill="white" stroke="black" points="138.5,-116.5 138.5,-137.5 257.5,-137.5 257.5,-116.5 138.5,-116.5"/>
<text text-anchor="middle" x="198" y="-124.5" font-family="Helvetica,sans-Serif" font-size="10.00">MojSocketEncoding.h</text>
</a>
</g>
<!-- Node4&#45;&gt;Node5 -->
<g id="edge8" class="edge"><title>Node4&#45;&gt;Node5</title>
<path fill="none" stroke="midnightblue" d="M273.259,-169.379C255.362,-159.301 232.563,-146.462 216.772,-137.571"/>
<polygon fill="midnightblue" stroke="midnightblue" points="271.677,-172.505 282.108,-174.362 275.112,-166.405 271.677,-172.505"/>
</g>
<!-- Node7 -->
<g id="node13" class="node"><title>Node7</title>
<a xlink:href="MojSocketMessage_8cpp.htm" target="_top" xlink:title="MojSocketMessage.cpp">
<polygon fill="white" stroke="black" points="182.5,-0.5 182.5,-21.5 311.5,-21.5 311.5,-0.5 182.5,-0.5"/>
<text text-anchor="middle" x="247" y="-8.5" font-family="Helvetica,sans-Serif" font-size="10.00">MojSocketMessage.cpp</text>
</a>
</g>
<!-- Node4&#45;&gt;Node7 -->
<g id="edge18" class="edge"><title>Node4&#45;&gt;Node7</title>
<path fill="none" stroke="midnightblue" d="M297.979,-164.161C293.88,-138.592 285.482,-94.1833 272,-58 267.159,-45.0092 259.408,-31.1058 253.819,-21.8193"/>
<polygon fill="midnightblue" stroke="midnightblue" points="294.541,-164.834 299.518,-174.186 301.46,-163.771 294.541,-164.834"/>
</g>
<!-- Node5&#45;&gt;Node6 -->
<g id="edge10" class="edge"><title>Node5&#45;&gt;Node6</title>
<path fill="none" stroke="midnightblue" d="M163.774,-112.615C139.443,-102.389 107.3,-88.8796 85.2712,-79.6212"/>
<polygon fill="midnightblue" stroke="midnightblue" points="162.434,-115.849 173.009,-116.497 165.146,-109.395 162.434,-115.849"/>
</g>
<!-- Node9 -->
<g id="node17" class="node"><title>Node9</title>
<a xlink:href="MojSocketEncoding_8cpp.htm" target="_top" xlink:title="MojSocketEncoding.cpp">
<polygon fill="white" stroke="black" points="133,-58.5 133,-79.5 263,-79.5 263,-58.5 133,-58.5"/>
<text text-anchor="middle" x="198" y="-66.5" font-family="Helvetica,sans-Serif" font-size="10.00">MojSocketEncoding.cpp</text>
</a>
</g>
<!-- Node5&#45;&gt;Node9 -->
<g id="edge16" class="edge"><title>Node5&#45;&gt;Node9</title>
<path fill="none" stroke="midnightblue" d="M198,-106.191C198,-97.1684 198,-86.9941 198,-79.5707"/>
<polygon fill="midnightblue" stroke="midnightblue" points="194.5,-106.362 198,-116.362 201.5,-106.362 194.5,-106.362"/>
</g>
<!-- Node6&#45;&gt;Node7 -->
<g id="edge12" class="edge"><title>Node6&#45;&gt;Node7</title>
<path fill="none" stroke="midnightblue" d="M103.807,-55.4127C137.171,-45.0646 182.434,-31.0258 213.072,-21.5231"/>
<polygon fill="midnightblue" stroke="midnightblue" points="102.379,-52.1913 93.8643,-58.4966 104.452,-58.8771 102.379,-52.1913"/>
</g>
<!-- Node8 -->
<g id="node15" class="node"><title>Node8</title>
<a xlink:href="MojSocketService_8cpp.htm" target="_top" xlink:title="MojSocketService.cpp">
<polygon fill="white" stroke="black" points="-0.5,-0.5 -0.5,-21.5 120.5,-21.5 120.5,-0.5 -0.5,-0.5"/>
<text text-anchor="middle" x="60" y="-8.5" font-family="Helvetica,sans-Serif" font-size="10.00">MojSocketService.cpp</text>
</a>
</g>
<!-- Node6&#45;&gt;Node8 -->
<g id="edge14" class="edge"><title>Node6&#45;&gt;Node8</title>
<path fill="none" stroke="midnightblue" d="M60,-48.1906C60,-39.1684 60,-28.9941 60,-21.5707"/>
<polygon fill="midnightblue" stroke="midnightblue" points="56.5001,-48.3619 60,-58.3619 63.5001,-48.3619 56.5001,-48.3619"/>
</g>
<!-- Node11 -->
<g id="node22" class="node"><title>Node11</title>
<a xlink:href="MojDbServiceHandler_8h.htm" target="_top" xlink:title="MojDbServiceHandler.h">
<polygon fill="white" stroke="black" points="511,-116.5 511,-137.5 639,-137.5 639,-116.5 511,-116.5"/>
<text text-anchor="middle" x="575" y="-124.5" font-family="Helvetica,sans-Serif" font-size="10.00">MojDbServiceHandler.h</text>
</a>
</g>
<!-- Node10&#45;&gt;Node11 -->
<g id="edge22" class="edge"><title>Node10&#45;&gt;Node11</title>
<path fill="none" stroke="midnightblue" d="M594.187,-165.373C589.534,-156.068 584.16,-145.32 580.285,-137.571"/>
<polygon fill="midnightblue" stroke="midnightblue" points="591.078,-166.983 598.681,-174.362 597.339,-163.852 591.078,-166.983"/>
</g>
<!-- Node10&#45;&gt;Node17 -->
<g id="edge36" class="edge"><title>Node10&#45;&gt;Node17</title>
<path fill="none" stroke="midnightblue" d="M637.798,-170.479C661.562,-160.269 692.824,-146.839 714.278,-137.621"/>
<polygon fill="midnightblue" stroke="midnightblue" points="636.254,-167.333 628.447,-174.497 639.017,-173.765 636.254,-167.333"/>
</g>
<!-- Node18 -->
<g id="node40" class="node"><title>Node18</title>
<a xlink:href="MojDbServiceHandlerBase_8cpp.htm" target="_top" xlink:title="MojDbServiceHandlerBase.cpp">
<polygon fill="white" stroke="black" points="330.5,-116.5 330.5,-137.5 493.5,-137.5 493.5,-116.5 330.5,-116.5"/>
<text text-anchor="middle" x="412" y="-124.5" font-family="Helvetica,sans-Serif" font-size="10.00">MojDbServiceHandlerBase.cpp</text>
</a>
</g>
<!-- Node10&#45;&gt;Node18 -->
<g id="edge44" class="edge"><title>Node10&#45;&gt;Node18</title>
<path fill="none" stroke="midnightblue" d="M559.464,-171.546C525.167,-161.186 478.428,-147.067 446.835,-137.523"/>
<polygon fill="midnightblue" stroke="midnightblue" points="558.645,-174.955 569.23,-174.497 560.67,-168.254 558.645,-174.955"/>
</g>
<!-- Node12 -->
<g id="node24" class="node"><title>Node12</title>
<a xlink:href="MojDbServiceHandler_8cpp.htm" target="_top" xlink:title="MojDbServiceHandler.cpp">
<polygon fill="white" stroke="black" points="710.5,-58.5 710.5,-79.5 849.5,-79.5 849.5,-58.5 710.5,-58.5"/>
<text text-anchor="middle" x="780" y="-66.5" font-family="Helvetica,sans-Serif" font-size="10.00">MojDbServiceHandler.cpp</text>
</a>
</g>
<!-- Node11&#45;&gt;Node12 -->
<g id="edge24" class="edge"><title>Node11&#45;&gt;Node12</title>
<path fill="none" stroke="midnightblue" d="M622.081,-113.68C658.742,-103.307 708.929,-89.1078 742.806,-79.5231"/>
<polygon fill="midnightblue" stroke="midnightblue" points="620.793,-110.406 612.124,-116.497 622.699,-117.142 620.793,-110.406"/>
</g>
<!-- Node13 -->
<g id="node26" class="node"><title>Node13</title>
<a xlink:href="MojDbServiceHandlerInternal_8cpp.htm" target="_top" xlink:title="MojDbServiceHandlerInternal.cpp">
<polygon fill="white" stroke="black" points="518.5,-58.5 518.5,-79.5 693.5,-79.5 693.5,-58.5 518.5,-58.5"/>
<text text-anchor="middle" x="606" y="-66.5" font-family="Helvetica,sans-Serif" font-size="10.00">MojDbServiceHandlerInternal.cpp</text>
</a>
</g>
<!-- Node11&#45;&gt;Node13 -->
<g id="edge26" class="edge"><title>Node11&#45;&gt;Node13</title>
<path fill="none" stroke="midnightblue" d="M585.49,-107.373C590.464,-98.0682 596.208,-87.3204 600.35,-79.5707"/>
<polygon fill="midnightblue" stroke="midnightblue" points="582.313,-105.893 580.686,-116.362 588.486,-109.192 582.313,-105.893"/>
</g>
<!-- Node14 -->
<g id="node28" class="node"><title>Node14</title>
<a xlink:href="MojDbServiceSchemas_8cpp.htm" target="_top" xlink:title="MojDbServiceSchemas.cpp">
<polygon fill="white" stroke="black" points="318.5,-58.5 318.5,-79.5 463.5,-79.5 463.5,-58.5 318.5,-58.5"/>
<text text-anchor="middle" x="391" y="-66.5" font-family="Helvetica,sans-Serif" font-size="10.00">MojDbServiceSchemas.cpp</text>
</a>
</g>
<!-- Node11&#45;&gt;Node14 -->
<g id="edge28" class="edge"><title>Node11&#45;&gt;Node14</title>
<path fill="none" stroke="midnightblue" d="M531.896,-113.413C499.067,-103.065 454.53,-89.0258 424.384,-79.5231"/>
<polygon fill="midnightblue" stroke="midnightblue" points="531.089,-116.828 541.679,-116.497 533.194,-110.152 531.089,-116.828"/>
</g>
<!-- Node15 -->
<g id="node30" class="node"><title>Node15</title>
<a xlink:href="MojDbLunaServiceApp_8h.htm" target="_top" xlink:title="MojDbLunaServiceApp.h">
<polygon fill="white" stroke="black" points="867,-58.5 867,-79.5 999,-79.5 999,-58.5 867,-58.5"/>
<text text-anchor="middle" x="933" y="-66.5" font-family="Helvetica,sans-Serif" font-size="10.00">MojDbLunaServiceApp.h</text>
</a>
</g>
<!-- Node11&#45;&gt;Node15 -->
<g id="edge30" class="edge"><title>Node11&#45;&gt;Node15</title>
<path fill="none" stroke="midnightblue" d="M649.113,-114.993C713.668,-104.534 806.342,-89.52 868.041,-79.5241"/>
<polygon fill="midnightblue" stroke="midnightblue" points="648.315,-111.576 639.003,-116.631 649.434,-118.486 648.315,-111.576"/>
</g>
<!-- Node16 -->
<g id="node32" class="node"><title>Node16</title>
<a xlink:href="MojDbLunaServiceApp_8cpp.htm" target="_top" xlink:title="MojDbLunaServiceApp.cpp">
<polygon fill="white" stroke="black" points="640.5,-0.5 640.5,-21.5 783.5,-21.5 783.5,-0.5 640.5,-0.5"/>
<text text-anchor="middle" x="712" y="-8.5" font-family="Helvetica,sans-Serif" font-size="10.00">MojDbLunaServiceApp.cpp</text>
</a>
</g>
<!-- Node11&#45;&gt;Node16 -->
<g id="edge34" class="edge"><title>Node11&#45;&gt;Node16</title>
<path fill="none" stroke="midnightblue" d="M543.246,-111.451C519.851,-97.9007 494.573,-77.4283 510,-58 526.261,-37.5212 589.098,-25.1507 640.423,-18.28"/>
<polygon fill="midnightblue" stroke="midnightblue" points="541.584,-114.531 552.032,-116.289 544.96,-108.399 541.584,-114.531"/>
</g>
<!-- Node15&#45;&gt;Node16 -->
<g id="edge32" class="edge"><title>Node15&#45;&gt;Node16</title>
<path fill="none" stroke="midnightblue" d="M883.255,-55.9447C843.648,-45.5501 788.93,-31.1897 752.096,-21.5231"/>
<polygon fill="midnightblue" stroke="midnightblue" points="882.418,-59.3435 892.979,-58.4966 884.195,-52.5727 882.418,-59.3435"/>
</g>
<!-- Node17&#45;&gt;Node12 -->
<g id="edge38" class="edge"><title>Node17&#45;&gt;Node12</title>
<path fill="none" stroke="midnightblue" d="M752.46,-107.959C759.131,-98.522 766.934,-87.4835 772.528,-79.5707"/>
<polygon fill="midnightblue" stroke="midnightblue" points="749.434,-106.176 746.52,-116.362 755.15,-110.216 749.434,-106.176"/>
</g>
<!-- Node17&#45;&gt;Node13 -->
<g id="edge40" class="edge"><title>Node17&#45;&gt;Node13</title>
<path fill="none" stroke="midnightblue" d="M705.703,-112.479C682.29,-102.269 651.492,-88.8386 630.356,-79.6212"/>
<polygon fill="midnightblue" stroke="midnightblue" points="704.349,-115.707 714.915,-116.497 707.147,-109.291 704.349,-115.707"/>
</g>
<!-- Node17&#45;&gt;Node15 -->
<g id="edge42" class="edge"><title>Node17&#45;&gt;Node15</title>
<path fill="none" stroke="midnightblue" d="M784,-113.546C818.655,-103.186 865.88,-89.0668 897.802,-79.5231"/>
<polygon fill="midnightblue" stroke="midnightblue" points="782.71,-110.279 774.132,-116.497 784.715,-116.985 782.71,-110.279"/>
</g>
<!-- Node20 -->
<g id="node45" class="node"><title>Node20</title>
<a xlink:href="MojLunaMessage_8cpp.htm" target="_top" xlink:title="MojLunaMessage.cpp">
<polygon fill="white" stroke="black" points="839,-116.5 839,-137.5 959,-137.5 959,-116.5 839,-116.5"/>
<text text-anchor="middle" x="899" y="-124.5" font-family="Helvetica,sans-Serif" font-size="10.00">MojLunaMessage.cpp</text>
</a>
</g>
<!-- Node19&#45;&gt;Node20 -->
<g id="edge50" class="edge"><title>Node19&#45;&gt;Node20</title>
<path fill="none" stroke="midnightblue" d="M877,-165.667C882.332,-156.295 888.53,-145.402 892.986,-137.571"/>
<polygon fill="midnightblue" stroke="midnightblue" points="873.956,-163.939 872.053,-174.362 880.04,-167.401 873.956,-163.939"/>
</g>
<!-- Node21 -->
<g id="node47" class="node"><title>Node21</title>
<a xlink:href="MojLunaService_8cpp.htm" target="_top" xlink:title="MojLunaService.cpp">
<polygon fill="white" stroke="black" points="977,-116.5 977,-137.5 1089,-137.5 1089,-116.5 977,-116.5"/>
<text text-anchor="middle" x="1033" y="-124.5" font-family="Helvetica,sans-Serif" font-size="10.00">MojLunaService.cpp</text>
</a>
</g>
<!-- Node19&#45;&gt;Node21 -->
<g id="edge52" class="edge"><title>Node19&#45;&gt;Node21</title>
<path fill="none" stroke="midnightblue" d="M905.895,-171.144C935.613,-160.823 975.575,-146.944 1002.7,-137.523"/>
<polygon fill="midnightblue" stroke="midnightblue" points="904.541,-167.909 896.242,-174.497 906.837,-174.522 904.541,-167.909"/>
</g>
<!-- Node24&#45;&gt;Node15 -->
<g id="edge70" class="edge"><title>Node24&#45;&gt;Node15</title>
<path fill="none" stroke="midnightblue" d="M910.542,-229.288C971.757,-209.432 1076.76,-171.391 1098,-138 1124.25,-96.7399 1055.75,-80.1317 999.144,-73.4594"/>
<polygon fill="midnightblue" stroke="midnightblue" points="909.199,-226.043 900.747,-232.432 911.338,-232.709 909.199,-226.043"/>
</g>
<!-- Node24&#45;&gt;Node17 -->
<g id="edge66" class="edge"><title>Node24&#45;&gt;Node17</title>
<path fill="none" stroke="midnightblue" d="M841.833,-226.544C829.76,-217.936 815.17,-206.935 803,-196 781.852,-177 759.886,-151.952 747.983,-137.855"/>
<polygon fill="midnightblue" stroke="midnightblue" points="839.913,-229.472 850.109,-232.353 843.935,-223.743 839.913,-229.472"/>
</g>
<!-- Node24&#45;&gt;Node19 -->
<g id="edge68" class="edge"><title>Node24&#45;&gt;Node19</title>
<path fill="none" stroke="midnightblue" d="M866,-222.191C866,-213.168 866,-202.994 866,-195.571"/>
<polygon fill="midnightblue" stroke="midnightblue" points="862.5,-222.362 866,-232.362 869.5,-222.362 862.5,-222.362"/>
</g>
<!-- Node24&#45;&gt;Node20 -->
<g id="edge72" class="edge"><title>Node24&#45;&gt;Node20</title>
<path fill="none" stroke="midnightblue" d="M898.337,-227.156C910.243,-219.515 922.418,-209.122 929,-196 939.073,-175.917 922.068,-151.673 909.824,-137.925"/>
<polygon fill="midnightblue" stroke="midnightblue" points="896.202,-224.353 889.383,-232.462 899.77,-230.375 896.202,-224.353"/>
</g>
<!-- Node24&#45;&gt;Node21 -->
<g id="edge74" class="edge"><title>Node24&#45;&gt;Node21</title>
<path fill="none" stroke="midnightblue" d="M894.25,-227.368C909.564,-218.604 928.648,-207.207 945,-196 973.025,-176.793 1003.86,-151.602 1020.56,-137.583"/>
<polygon fill="midnightblue" stroke="midnightblue" points="892.237,-224.486 885.26,-232.46 895.687,-230.577 892.237,-224.486"/>
</g>
<!-- Node29 -->
<g id="node72" class="node"><title>Node29</title>
<a xlink:href="MojDb_8cpp.htm" target="_top" xlink:title="MojDb.cpp">
<polygon fill="white" stroke="black" points="1534,-232.5 1534,-253.5 1600,-253.5 1600,-232.5 1534,-232.5"/>
<text text-anchor="middle" x="1567" y="-240.5" font-family="Helvetica,sans-Serif" font-size="10.00">MojDb.cpp</text>
</a>
</g>
<!-- Node28&#45;&gt;Node29 -->
<g id="edge86" class="edge"><title>Node28&#45;&gt;Node29</title>
<path fill="none" stroke="midnightblue" d="M1481.14,-285.932C1501.41,-275.793 1527.65,-262.675 1545.76,-253.621"/>
<polygon fill="midnightblue" stroke="midnightblue" points="1479.39,-282.894 1472.01,-290.497 1482.52,-289.155 1479.39,-282.894"/>
</g>
<!-- Node30 -->
<g id="node74" class="node"><title>Node30</title>
<a xlink:href="MojDbAdmin_8cpp.htm" target="_top" xlink:title="MojDbAdmin.cpp">
<polygon fill="white" stroke="black" points="1617.5,-232.5 1617.5,-253.5 1712.5,-253.5 1712.5,-232.5 1617.5,-232.5"/>
<text text-anchor="middle" x="1665" y="-240.5" font-family="Helvetica,sans-Serif" font-size="10.00">MojDbAdmin.cpp</text>
</a>
</g>
<!-- Node28&#45;&gt;Node30 -->
<g id="edge88" class="edge"><title>Node28&#45;&gt;Node30</title>
<path fill="none" stroke="midnightblue" d="M1499.15,-287.95C1537.44,-277.573 1590.32,-263.241 1625.99,-253.573"/>
<polygon fill="midnightblue" stroke="midnightblue" points="1498,-284.637 1489.26,-290.631 1499.83,-291.393 1498,-284.637"/>
</g>
<!-- Node31 -->
<g id="node76" class="node"><title>Node31</title>
<a xlink:href="MojDbIndex_8cpp.htm" target="_top" xlink:title="MojDbIndex.cpp">
<polygon fill="white" stroke="black" points="1730,-232.5 1730,-253.5 1822,-253.5 1822,-232.5 1730,-232.5"/>
<text text-anchor="middle" x="1776" y="-240.5" font-family="Helvetica,sans-Serif" font-size="10.00">MojDbIndex.cpp</text>
</a>
</g>
<!-- Node28&#45;&gt;Node31 -->
<g id="edge90" class="edge"><title>Node28&#45;&gt;Node31</title>
<path fill="none" stroke="midnightblue" d="M1499,-289.901C1598.17,-270.611 1625.29,-271.29 1721,-254 1723.87,-253.481 1726.83,-252.932 1729.81,-252.368"/>
<polygon fill="midnightblue" stroke="midnightblue" points="1498.31,-286.469 1489.17,-291.831 1499.66,-293.338 1498.31,-286.469"/>
</g>
<!-- Node32 -->
<g id="node78" class="node"><title>Node32</title>
<a xlink:href="MojDbKind_8cpp.htm" target="_top" xlink:title="MojDbKind.cpp">
<polygon fill="white" stroke="black" points="1839.5,-232.5 1839.5,-253.5 1926.5,-253.5 1926.5,-232.5 1839.5,-232.5"/>
<text text-anchor="middle" x="1883" y="-240.5" font-family="Helvetica,sans-Serif" font-size="10.00">MojDbKind.cpp</text>
</a>
</g>
<!-- Node28&#45;&gt;Node32 -->
<g id="edge92" class="edge"><title>Node28&#45;&gt;Node32</title>
<path fill="none" stroke="midnightblue" d="M1499.01,-289.997C1646.48,-265.51 1687.15,-276.93 1831,-254 1833.73,-253.564 1836.54,-253.08 1839.37,-252.563"/>
<polygon fill="midnightblue" stroke="midnightblue" points="1498.42,-286.547 1489.14,-291.662 1499.58,-293.449 1498.42,-286.547"/>
</g>
<!-- Node33 -->
<g id="node80" class="node"><title>Node33</title>
<a xlink:href="MojDbKindEngine_8cpp.htm" target="_top" xlink:title="MojDbKindEngine.cpp">
<polygon fill="white" stroke="black" points="934,-232.5 934,-253.5 1054,-253.5 1054,-232.5 934,-232.5"/>
<text text-anchor="middle" x="994" y="-240.5" font-family="Helvetica,sans-Serif" font-size="10.00">MojDbKindEngine.cpp</text>
</a>
</g>
<!-- Node28&#45;&gt;Node33 -->
<g id="edge94" class="edge"><title>Node28&#45;&gt;Node33</title>
<path fill="none" stroke="midnightblue" d="M1402.62,-295.73C1329.13,-287.592 1185.01,-271.109 1063,-254 1060.12,-253.596 1057.17,-253.171 1054.19,-252.732"/>
<polygon fill="midnightblue" stroke="midnightblue" points="1402.61,-299.251 1412.94,-296.869 1403.38,-292.293 1402.61,-299.251"/>
</g>
<!-- Node34 -->
<g id="node82" class="node"><title>Node34</title>
<a xlink:href="MojDbPermissionEngine_8cpp.htm" target="_top" xlink:title="MojDbPermissionEngine.cpp">
<polygon fill="white" stroke="black" points="1071.5,-232.5 1071.5,-253.5 1222.5,-253.5 1222.5,-232.5 1071.5,-232.5"/>
<text text-anchor="middle" x="1147" y="-240.5" font-family="Helvetica,sans-Serif" font-size="10.00">MojDbPermissionEngine.cpp</text>
</a>
</g>
<!-- Node28&#45;&gt;Node34 -->
<g id="edge96" class="edge"><title>Node28&#45;&gt;Node34</title>
<path fill="none" stroke="midnightblue" d="M1402.7,-291.785C1348.15,-281.378 1259.55,-264.473 1202.28,-253.546"/>
<polygon fill="midnightblue" stroke="midnightblue" points="1402.33,-295.277 1412.81,-293.713 1403.64,-288.401 1402.33,-295.277"/>
</g>
<!-- Node35 -->
<g id="node84" class="node"><title>Node35</title>
<a xlink:href="MojDbQuotaEngine_8cpp.htm" target="_top" xlink:title="MojDbQuotaEngine.cpp">
<polygon fill="white" stroke="black" points="1240,-232.5 1240,-253.5 1368,-253.5 1368,-232.5 1240,-232.5"/>
<text text-anchor="middle" x="1304" y="-240.5" font-family="Helvetica,sans-Serif" font-size="10.00">MojDbQuotaEngine.cpp</text>
</a>
</g>
<!-- Node28&#45;&gt;Node35 -->
<g id="edge98" class="edge"><title>Node28&#45;&gt;Node35</title>
<path fill="none" stroke="midnightblue" d="M1414.89,-286.751C1388.93,-276.509 1354.49,-262.921 1330.92,-253.621"/>
<polygon fill="midnightblue" stroke="midnightblue" points="1413.79,-290.082 1424.38,-290.497 1416.36,-283.571 1413.79,-290.082"/>
</g>
<!-- Node36 -->
<g id="node86" class="node"><title>Node36</title>
<a xlink:href="MojDbSearchCursor_8cpp.htm" target="_top" xlink:title="MojDbSearchCursor.cpp">
<polygon fill="white" stroke="black" points="1385.5,-232.5 1385.5,-253.5 1516.5,-253.5 1516.5,-232.5 1385.5,-232.5"/>
<text text-anchor="middle" x="1451" y="-240.5" font-family="Helvetica,sans-Serif" font-size="10.00">MojDbSearchCursor.cpp</text>
</a>
</g>
<!-- Node28&#45;&gt;Node36 -->
<g id="edge100" class="edge"><title>Node28&#45;&gt;Node36</title>
<path fill="none" stroke="midnightblue" d="M1451,-280.191C1451,-271.168 1451,-260.994 1451,-253.571"/>
<polygon fill="midnightblue" stroke="midnightblue" points="1447.5,-280.362 1451,-290.362 1454.5,-280.362 1447.5,-280.362"/>
</g>
</g>
</svg>
