<?xml version="1.0" encoding="UTF-8" standalone="no"?>
<!DOCTYPE svg PUBLIC "-//W3C//DTD SVG 1.1//EN"
 "http://www.w3.org/Graphics/SVG/1.1/DTD/svg11.dtd">
<!-- Generated by graphviz version 2.26.3 (20100126.1600)
 -->
<!-- Title: MojSignal.h Pages: 1 -->
<svg width="1272pt" height="638pt"
 viewBox="0.00 0.00 1271.55 638.00" xmlns="http://www.w3.org/2000/svg" xmlns:xlink="http://www.w3.org/1999/xlink">
<g id="graph1" class="graph" transform="scale(1 1) rotate(0) translate(4 634)">
<title>MojSignal.h</title>
<polygon fill="white" stroke="white" points="-4,5 -4,-634 1268.55,-634 1268.55,5 -4,5"/>
<!-- Node1 -->
<g id="node1" class="node"><title>Node1</title>
<polygon fill="#bfbfbf" stroke="black" points="871.049,-608.5 871.049,-629.5 942.049,-629.5 942.049,-608.5 871.049,-608.5"/>
<text text-anchor="middle" x="906.549" y="-616.5" font-family="Helvetica,sans-Serif" font-size="10.00">MojSignal.h</text>
</g>
<!-- Node2 -->
<g id="node3" class="node"><title>Node2</title>
<a xlink:href="MojCoreDefs_8h.htm" target="_top" xlink:title="core/MojCoreDefs.h">
<polygon fill="white" stroke="black" points="381.049,-232.5 381.049,-253.5 492.049,-253.5 492.049,-232.5 381.049,-232.5"/>
<text text-anchor="middle" x="436.549" y="-240.5" font-family="Helvetica,sans-Serif" font-size="10.00">core/MojCoreDefs.h</text>
</a>
</g>
<!-- Node1&#45;&gt;Node2 -->
<g id="edge2" class="edge"><title>Node1&#45;&gt;Node2</title>
<path fill="none" stroke="midnightblue" d="M942.232,-610.076C989.11,-595.963 1065.55,-563.651 1065.55,-503 1065.55,-503 1065.55,-503 1065.55,-373 1065.55,-315.954 663.649,-267.043 502.362,-249.711"/>
<polygon fill="midnightblue" stroke="midnightblue" points="502.408,-246.197 492.093,-248.616 501.665,-253.157 502.408,-246.197"/>
</g>
<!-- Node12 -->
<g id="node23" class="node"><title>Node12</title>
<a xlink:href="MojList_8h.htm" target="_top" xlink:title="core/MojList.h">
<polygon fill="white" stroke="black" points="865.049,-550.5 865.049,-571.5 948.049,-571.5 948.049,-550.5 865.049,-550.5"/>
<text text-anchor="middle" x="906.549" y="-558.5" font-family="Helvetica,sans-Serif" font-size="10.00">core/MojList.h</text>
</a>
</g>
<!-- Node1&#45;&gt;Node12 -->
<g id="edge22" class="edge"><title>Node1&#45;&gt;Node12</title>
<path fill="none" stroke="midnightblue" d="M906.549,-608.362C906.549,-600.922 906.549,-590.743 906.549,-581.728"/>
<polygon fill="midnightblue" stroke="midnightblue" points="910.049,-581.571 906.549,-571.571 903.049,-581.571 910.049,-581.571"/>
</g>
<!-- Node14 -->
<g id="node28" class="node"><title>Node14</title>
<a xlink:href="MojThread_8h.htm" target="_top" xlink:title="core/MojThread.h">
<polygon fill="white" stroke="black" points="115.049,-492.5 115.049,-513.5 216.049,-513.5 216.049,-492.5 115.049,-492.5"/>
<text text-anchor="middle" x="165.549" y="-500.5" font-family="Helvetica,sans-Serif" font-size="10.00">core/MojThread.h</text>
</a>
</g>
<!-- Node1&#45;&gt;Node14 -->
<g id="edge28" class="edge"><title>Node1&#45;&gt;Node14</title>
<path fill="none" stroke="midnightblue" d="M870.869,-613.878C812.161,-605.412 691.529,-587.857 589.549,-572 459.912,-551.842 308.23,-526.807 226.013,-513.115"/>
<polygon fill="midnightblue" stroke="midnightblue" points="226.533,-509.654 216.094,-511.462 225.383,-516.559 226.533,-509.654"/>
</g>
<!-- Node19 -->
<g id="node43" class="node"><title>Node19</title>
<a xlink:href="MojVector_8h.htm" target="_top" xlink:title="core/MojVector.h">
<polygon fill="white" stroke="black" points="598.049,-550.5 598.049,-571.5 695.049,-571.5 695.049,-550.5 598.049,-550.5"/>
<text text-anchor="middle" x="646.549" y="-558.5" font-family="Helvetica,sans-Serif" font-size="10.00">core/MojVector.h</text>
</a>
</g>
<!-- Node1&#45;&gt;Node19 -->
<g id="edge48" class="edge"><title>Node1&#45;&gt;Node19</title>
<path fill="none" stroke="midnightblue" d="M870.942,-611.057C827.915,-601.459 754.957,-585.183 703.949,-573.805"/>
<polygon fill="midnightblue" stroke="midnightblue" points="704.577,-570.359 694.055,-571.598 703.053,-577.191 704.577,-570.359"/>
</g>
<!-- Node26 -->
<g id="node65" class="node"><title>Node26</title>
<a xlink:href="MojSignalInternal_8h.htm" target="_top" xlink:title="core/internal/MojSignalInternal.h">
<polygon fill="white" stroke="black" points="1093.55,-550.5 1093.55,-571.5 1263.55,-571.5 1263.55,-550.5 1093.55,-550.5"/>
<text text-anchor="middle" x="1178.55" y="-558.5" font-family="Helvetica,sans-Serif" font-size="10.00">core/internal/MojSignalInternal.h</text>
</a>
</g>
<!-- Node1&#45;&gt;Node26 -->
<g id="edge78" class="edge"><title>Node1&#45;&gt;Node26</title>
<path fill="none" stroke="midnightblue" d="M942.108,-611.418C987.115,-601.82 1065.28,-585.153 1119.35,-573.623"/>
<polygon fill="midnightblue" stroke="midnightblue" points="1120.1,-577.041 1129.15,-571.533 1118.64,-570.195 1120.1,-577.041"/>
</g>
<!-- Node3 -->
<g id="node5" class="node"><title>Node3</title>
<a xlink:href="MojConfig_8h.htm" target="_top" xlink:title="core/internal/MojConfig.h">
<polygon fill="white" stroke="black" points="222.049,-174.5 222.049,-195.5 357.049,-195.5 357.049,-174.5 222.049,-174.5"/>
<text text-anchor="middle" x="289.549" y="-182.5" font-family="Helvetica,sans-Serif" font-size="10.00">core/internal/MojConfig.h</text>
</a>
</g>
<!-- Node2&#45;&gt;Node3 -->
<g id="edge4" class="edge"><title>Node2&#45;&gt;Node3</title>
<path fill="none" stroke="midnightblue" d="M409.928,-232.497C386.452,-223.234 352.024,-209.65 325.993,-199.379"/>
<polygon fill="midnightblue" stroke="midnightblue" points="327.055,-196.036 316.468,-195.621 324.486,-202.547 327.055,-196.036"/>
</g>
<!-- Node4 -->
<g id="node7" class="node"><title>Node4</title>
<a xlink:href="MojNew_8h.htm" target="_top" xlink:title="core/internal/MojNew.h">
<polygon fill="white" stroke="black" points="374.049,-174.5 374.049,-195.5 499.049,-195.5 499.049,-174.5 374.049,-174.5"/>
<text text-anchor="middle" x="436.549" y="-182.5" font-family="Helvetica,sans-Serif" font-size="10.00">core/internal/MojNew.h</text>
</a>
</g>
<!-- Node2&#45;&gt;Node4 -->
<g id="edge6" class="edge"><title>Node2&#45;&gt;Node4</title>
<path fill="none" stroke="midnightblue" d="M436.549,-232.362C436.549,-224.922 436.549,-214.743 436.549,-205.728"/>
<polygon fill="midnightblue" stroke="midnightblue" points="440.049,-205.571 436.549,-195.571 433.049,-205.571 440.049,-205.571"/>
</g>
<!-- Node6 -->
<g id="node11" class="node"><title>Node6</title>
<a xlink:href="MojErr_8h.htm" target="_top" xlink:title="core/MojErr.h">
<polygon fill="white" stroke="black" points="516.549,-174.5 516.549,-195.5 596.549,-195.5 596.549,-174.5 516.549,-174.5"/>
<text text-anchor="middle" x="556.549" y="-182.5" font-family="Helvetica,sans-Serif" font-size="10.00">core/MojErr.h</text>
</a>
</g>
<!-- Node2&#45;&gt;Node6 -->
<g id="edge10" class="edge"><title>Node2&#45;&gt;Node6</title>
<path fill="none" stroke="midnightblue" d="M458.28,-232.497C477.023,-223.438 504.316,-210.246 525.385,-200.063"/>
<polygon fill="midnightblue" stroke="midnightblue" points="527.094,-203.124 534.574,-195.621 524.047,-196.822 527.094,-203.124"/>
</g>
<!-- Node10 -->
<g id="node19" class="node"><title>Node10</title>
<a xlink:href="MojOs_8h.htm" target="_top" xlink:title="core/MojOs.h">
<polygon fill="white" stroke="black" points="124.549,-174.5 124.549,-195.5 204.549,-195.5 204.549,-174.5 124.549,-174.5"/>
<text text-anchor="middle" x="164.549" y="-182.5" font-family="Helvetica,sans-Serif" font-size="10.00">core/MojOs.h</text>
</a>
</g>
<!-- Node2&#45;&gt;Node10 -->
<g id="edge18" class="edge"><title>Node2&#45;&gt;Node10</title>
<path fill="none" stroke="midnightblue" d="M385.582,-232.456C342.565,-223.512 279.079,-210.208 214.588,-196.208"/>
<polygon fill="midnightblue" stroke="midnightblue" points="215.166,-192.752 204.651,-194.047 213.679,-199.592 215.166,-192.752"/>
</g>
<!-- Node5 -->
<g id="node9" class="node"><title>Node5</title>
<polygon fill="white" stroke="#bfbfbf" points="418.549,-116.5 418.549,-137.5 454.549,-137.5 454.549,-116.5 418.549,-116.5"/>
<text text-anchor="middle" x="436.549" y="-124.5" font-family="Helvetica,sans-Serif" font-size="10.00">new</text>
</g>
<!-- Node4&#45;&gt;Node5 -->
<g id="edge8" class="edge"><title>Node4&#45;&gt;Node5</title>
<path fill="none" stroke="midnightblue" d="M436.549,-174.362C436.549,-166.922 436.549,-156.743 436.549,-147.728"/>
<polygon fill="midnightblue" stroke="midnightblue" points="440.049,-147.571 436.549,-137.571 433.049,-147.571 440.049,-147.571"/>
</g>
<!-- Node7 -->
<g id="node13" class="node"><title>Node7</title>
<a xlink:href="MojLog_8h.htm" target="_top" xlink:title="core/MojLog.h">
<polygon fill="white" stroke="black" points="493.549,-116.5 493.549,-137.5 577.549,-137.5 577.549,-116.5 493.549,-116.5"/>
<text text-anchor="middle" x="535.549" y="-124.5" font-family="Helvetica,sans-Serif" font-size="10.00">core/MojLog.h</text>
</a>
</g>
<!-- Node6&#45;&gt;Node7 -->
<g id="edge12" class="edge"><title>Node6&#45;&gt;Node7</title>
<path fill="none" stroke="midnightblue" d="M552.697,-174.362C549.944,-166.758 546.155,-156.294 542.839,-147.135"/>
<polygon fill="midnightblue" stroke="midnightblue" points="546.072,-145.782 539.376,-137.571 539.49,-148.165 546.072,-145.782"/>
</g>
<!-- Node8 -->
<g id="node15" class="node"><title>Node8</title>
<a xlink:href="MojListEntry_8h.htm" target="_top" xlink:title="core/MojListEntry.h">
<polygon fill="white" stroke="black" points="272.049,-58.5 272.049,-79.5 379.049,-79.5 379.049,-58.5 272.049,-58.5"/>
<text text-anchor="middle" x="325.549" y="-66.5" font-family="Helvetica,sans-Serif" font-size="10.00">core/MojListEntry.h</text>
</a>
</g>
<!-- Node7&#45;&gt;Node8 -->
<g id="edge14" class="edge"><title>Node7&#45;&gt;Node8</title>
<path fill="none" stroke="midnightblue" d="M497.52,-116.497C462.691,-106.877 410.99,-92.5981 373.374,-82.209"/>
<polygon fill="midnightblue" stroke="midnightblue" points="374.221,-78.8117 363.65,-79.5231 372.357,-85.5591 374.221,-78.8117"/>
</g>
<!-- Node9 -->
<g id="node17" class="node"><title>Node9</title>
<a xlink:href="MojNoCopy_8h.htm" target="_top" xlink:title="core/MojNoCopy.h">
<polygon fill="white" stroke="black" points="127.549,-0.5 127.549,-21.5 231.549,-21.5 231.549,-0.5 127.549,-0.5"/>
<text text-anchor="middle" x="179.549" y="-8.5" font-family="Helvetica,sans-Serif" font-size="10.00">core/MojNoCopy.h</text>
</a>
</g>
<!-- Node8&#45;&gt;Node9 -->
<g id="edge16" class="edge"><title>Node8&#45;&gt;Node9</title>
<path fill="none" stroke="midnightblue" d="M299.109,-58.4966C275.793,-49.2337 241.599,-35.6499 215.745,-25.3793"/>
<polygon fill="midnightblue" stroke="midnightblue" points="216.871,-22.0605 206.285,-21.6212 214.286,-28.566 216.871,-22.0605"/>
</g>
<!-- Node11 -->
<g id="node21" class="node"><title>Node11</title>
<a xlink:href="MojOsInternal_8h.htm" target="_top" xlink:title="core/internal/MojOsInternal.h">
<polygon fill="white" stroke="black" points="87.549,-116.5 87.549,-137.5 241.549,-137.5 241.549,-116.5 87.549,-116.5"/>
<text text-anchor="middle" x="164.549" y="-124.5" font-family="Helvetica,sans-Serif" font-size="10.00">core/internal/MojOsInternal.h</text>
</a>
</g>
<!-- Node10&#45;&gt;Node11 -->
<g id="edge20" class="edge"><title>Node10&#45;&gt;Node11</title>
<path fill="none" stroke="midnightblue" d="M164.549,-174.362C164.549,-166.922 164.549,-156.743 164.549,-147.728"/>
<polygon fill="midnightblue" stroke="midnightblue" points="168.049,-147.571 164.549,-137.571 161.049,-147.571 168.049,-147.571"/>
</g>
<!-- Node12&#45;&gt;Node2 -->
<g id="edge24" class="edge"><title>Node12&#45;&gt;Node2</title>
<path fill="none" stroke="midnightblue" d="M896.859,-550.178C889.22,-541.11 878.838,-527.513 872.549,-514 857.857,-482.434 853.549,-472.817 853.549,-438 853.549,-438 853.549,-438 853.549,-373 853.549,-300.328 619.807,-263.604 502.322,-249.735"/>
<polygon fill="midnightblue" stroke="midnightblue" points="502.691,-246.255 492.355,-248.581 501.886,-253.208 502.691,-246.255"/>
</g>
<!-- Node13 -->
<g id="node26" class="node"><title>Node13</title>
<a xlink:href="MojListInternal_8h.htm" target="_top" xlink:title="core/internal/MojListInternal.h">
<polygon fill="white" stroke="black" points="881.049,-492.5 881.049,-513.5 1038.05,-513.5 1038.05,-492.5 881.049,-492.5"/>
<text text-anchor="middle" x="959.549" y="-500.5" font-family="Helvetica,sans-Serif" font-size="10.00">core/internal/MojListInternal.h</text>
</a>
</g>
<!-- Node12&#45;&gt;Node13 -->
<g id="edge26" class="edge"><title>Node12&#45;&gt;Node13</title>
<path fill="none" stroke="midnightblue" d="M916.27,-550.362C923.741,-542.186 934.235,-530.702 943.018,-521.091"/>
<polygon fill="midnightblue" stroke="midnightblue" points="945.728,-523.314 949.89,-513.571 940.56,-518.592 945.728,-523.314"/>
</g>
<!-- Node14&#45;&gt;Node2 -->
<g id="edge30" class="edge"><title>Node14&#45;&gt;Node2</title>
<path fill="none" stroke="midnightblue" d="M114.704,-493.606C76.3625,-485.367 28.4168,-472.188 16.549,-456 -23.263,-401.696 14.6364,-337.708 81.549,-290 126.696,-257.81 281.281,-247.66 370.877,-244.465"/>
<polygon fill="midnightblue" stroke="midnightblue" points="371.06,-247.96 380.936,-244.125 370.824,-240.964 371.06,-247.96"/>
</g>
<!-- Node15 -->
<g id="node31" class="node"><title>Node15</title>
<a xlink:href="MojAtomicInt_8h.htm" target="_top" xlink:title="core/MojAtomicInt.h">
<polygon fill="white" stroke="black" points="248.549,-297.5 248.549,-318.5 358.549,-318.5 358.549,-297.5 248.549,-297.5"/>
<text text-anchor="middle" x="303.549" y="-305.5" font-family="Helvetica,sans-Serif" font-size="10.00">core/MojAtomicInt.h</text>
</a>
</g>
<!-- Node14&#45;&gt;Node15 -->
<g id="edge32" class="edge"><title>Node14&#45;&gt;Node15</title>
<path fill="none" stroke="midnightblue" d="M176.357,-492.261C185.409,-483.024 198.433,-469.148 208.549,-456 242.172,-412.301 275.632,-356.608 292.427,-327.587"/>
<polygon fill="midnightblue" stroke="midnightblue" points="295.515,-329.238 297.46,-318.824 289.445,-325.752 295.515,-329.238"/>
</g>
<!-- Node16 -->
<g id="node34" class="node"><title>Node16</title>
<a xlink:href="MojThreadInternal_8h.htm" target="_top" xlink:title="core/internal/MojThreadInternal.h">
<polygon fill="white" stroke="black" points="25.049,-427.5 25.049,-448.5 200.049,-448.5 200.049,-427.5 25.049,-427.5"/>
<text text-anchor="middle" x="112.549" y="-435.5" font-family="Helvetica,sans-Serif" font-size="10.00">core/internal/MojThreadInternal.h</text>
</a>
</g>
<!-- Node14&#45;&gt;Node16 -->
<g id="edge36" class="edge"><title>Node14&#45;&gt;Node16</title>
<path fill="none" stroke="midnightblue" d="M156.797,-492.267C148.848,-482.517 136.955,-467.932 127.5,-456.336"/>
<polygon fill="midnightblue" stroke="midnightblue" points="130.17,-454.072 121.138,-448.534 124.745,-458.496 130.17,-454.072"/>
</g>
<!-- Node15&#45;&gt;Node2 -->
<g id="edge34" class="edge"><title>Node15&#45;&gt;Node2</title>
<path fill="none" stroke="midnightblue" d="M325.214,-297.412C347.048,-286.741 380.951,-270.172 405.612,-258.12"/>
<polygon fill="midnightblue" stroke="midnightblue" points="407.446,-261.119 414.894,-253.584 404.372,-254.83 407.446,-261.119"/>
</g>
<!-- Node17 -->
<g id="node36" class="node"><title>Node17</title>
<a xlink:href="MojAutoPtr_8h.htm" target="_top" xlink:title="core/MojAutoPtr.h">
<polygon fill="white" stroke="black" points="80.049,-362.5 80.049,-383.5 181.049,-383.5 181.049,-362.5 80.049,-362.5"/>
<text text-anchor="middle" x="130.549" y="-370.5" font-family="Helvetica,sans-Serif" font-size="10.00">core/MojAutoPtr.h</text>
</a>
</g>
<!-- Node16&#45;&gt;Node17 -->
<g id="edge38" class="edge"><title>Node16&#45;&gt;Node17</title>
<path fill="none" stroke="midnightblue" d="M115.521,-427.267C118.064,-418.085 121.794,-404.615 124.902,-393.392"/>
<polygon fill="midnightblue" stroke="midnightblue" points="128.336,-394.105 127.632,-383.534 121.59,-392.237 128.336,-394.105"/>
</g>
<!-- Node17&#45;&gt;Node2 -->
<g id="edge40" class="edge"><title>Node17&#45;&gt;Node2</title>
<path fill="none" stroke="midnightblue" d="M118.457,-362.234C100.859,-345.291 72.283,-312.069 91.549,-290 109.601,-269.322 275.706,-254.327 370.691,-247.36"/>
<polygon fill="midnightblue" stroke="midnightblue" points="371.058,-250.842 380.78,-246.63 370.553,-243.86 371.058,-250.842"/>
</g>
<!-- Node17&#45;&gt;Node9 -->
<g id="edge44" class="edge"><title>Node17&#45;&gt;Node9</title>
<path fill="none" stroke="midnightblue" d="M115.125,-362.477C87.988,-342.578 34.549,-296.588 34.549,-243 34.549,-243 34.549,-243 34.549,-127 34.549,-74.5504 93.114,-41.9152 135.805,-25.0934"/>
<polygon fill="midnightblue" stroke="midnightblue" points="137.07,-28.3568 145.186,-21.5463 134.594,-21.8092 137.07,-28.3568"/>
</g>
<!-- Node17&#45;&gt;Node15 -->
<g id="edge42" class="edge"><title>Node17&#45;&gt;Node15</title>
<path fill="none" stroke="midnightblue" d="M158.729,-362.412C187.884,-351.458 233.583,-334.288 265.836,-322.17"/>
<polygon fill="midnightblue" stroke="midnightblue" points="267.251,-325.377 275.381,-318.584 264.788,-318.824 267.251,-325.377"/>
</g>
<!-- Node18 -->
<g id="node41" class="node"><title>Node18</title>
<a xlink:href="MojAutoPtrInternal_8h.htm" target="_top" xlink:title="core/internal/MojAutoPtr\lInternal.h">
<polygon fill="white" stroke="black" points="100.049,-291 100.049,-325 231.049,-325 231.049,-291 100.049,-291"/>
<text text-anchor="start" x="108.049" y="-312" font-family="Helvetica,sans-Serif" font-size="10.00">core/internal/MojAutoPtr</text>
<text text-anchor="middle" x="165.549" y="-299" font-family="Helvetica,sans-Serif" font-size="10.00">Internal.h</text>
</a>
</g>
<!-- Node17&#45;&gt;Node18 -->
<g id="edge46" class="edge"><title>Node17&#45;&gt;Node18</title>
<path fill="none" stroke="midnightblue" d="M136.329,-362.267C140.448,-354.615 146.172,-343.986 151.463,-334.16"/>
<polygon fill="midnightblue" stroke="midnightblue" points="154.677,-335.574 156.336,-325.11 148.513,-332.255 154.677,-335.574"/>
</g>
<!-- Node19&#45;&gt;Node2 -->
<g id="edge50" class="edge"><title>Node19&#45;&gt;Node2</title>
<path fill="none" stroke="midnightblue" d="M635.665,-550.384C627.095,-541.436 615.477,-527.899 608.549,-514 593.016,-482.84 589.549,-472.817 589.549,-438 589.549,-438 589.549,-438 589.549,-373 589.549,-313.937 522.517,-276.107 477.191,-257.278"/>
<polygon fill="midnightblue" stroke="midnightblue" points="478.464,-254.018 467.88,-253.548 475.861,-260.516 478.464,-254.018"/>
</g>
<!-- Node20 -->
<g id="node46" class="node"><title>Node20</title>
<a xlink:href="MojComp_8h.htm" target="_top" xlink:title="core/MojComp.h">
<polygon fill="white" stroke="black" points="414.549,-297.5 414.549,-318.5 508.549,-318.5 508.549,-297.5 414.549,-297.5"/>
<text text-anchor="middle" x="461.549" y="-305.5" font-family="Helvetica,sans-Serif" font-size="10.00">core/MojComp.h</text>
</a>
</g>
<!-- Node19&#45;&gt;Node20 -->
<g id="edge52" class="edge"><title>Node19&#45;&gt;Node20</title>
<path fill="none" stroke="midnightblue" d="M622.19,-550.402C606.704,-542.484 587.407,-530.234 575.549,-514 534.138,-457.307 572.082,-420.018 532.549,-362 521.861,-346.315 505.133,-333.271 490.598,-323.935"/>
<polygon fill="midnightblue" stroke="midnightblue" points="492.261,-320.849 481.905,-318.61 488.605,-326.818 492.261,-320.849"/>
</g>
<!-- Node21 -->
<g id="node49" class="node"><title>Node21</title>
<a xlink:href="MojRefCount_8h.htm" target="_top" xlink:title="core/MojRefCount.h">
<polygon fill="white" stroke="black" points="286.549,-492.5 286.549,-513.5 396.549,-513.5 396.549,-492.5 286.549,-492.5"/>
<text text-anchor="middle" x="341.549" y="-500.5" font-family="Helvetica,sans-Serif" font-size="10.00">core/MojRefCount.h</text>
</a>
</g>
<!-- Node19&#45;&gt;Node21 -->
<g id="edge56" class="edge"><title>Node19&#45;&gt;Node21</title>
<path fill="none" stroke="midnightblue" d="M597.884,-551.746C546.161,-541.91 464.092,-526.303 406.792,-515.407"/>
<polygon fill="midnightblue" stroke="midnightblue" points="407.228,-511.927 396.75,-513.497 405.921,-518.804 407.228,-511.927"/>
</g>
<!-- Node24 -->
<g id="node59" class="node"><title>Node24</title>
<a xlink:href="MojUtil_8h.htm" target="_top" xlink:title="core/MojUtil.h">
<polygon fill="white" stroke="black" points="617.049,-427.5 617.049,-448.5 698.049,-448.5 698.049,-427.5 617.049,-427.5"/>
<text text-anchor="middle" x="657.549" y="-435.5" font-family="Helvetica,sans-Serif" font-size="10.00">core/MojUtil.h</text>
</a>
</g>
<!-- Node19&#45;&gt;Node24 -->
<g id="edge70" class="edge"><title>Node19&#45;&gt;Node24</title>
<path fill="none" stroke="midnightblue" d="M695.395,-552.146C734.355,-543.973 784.351,-530.605 796.549,-514 823.36,-477.503 758.179,-456.514 708.251,-446.183"/>
<polygon fill="midnightblue" stroke="midnightblue" points="708.672,-442.699 698.184,-444.198 707.318,-449.566 708.672,-442.699"/>
</g>
<!-- Node25 -->
<g id="node63" class="node"><title>Node25</title>
<a xlink:href="MojVectorInternal_8h.htm" target="_top" xlink:title="core/internal/MojVectorInternal.h">
<polygon fill="white" stroke="black" points="617.049,-492.5 617.049,-513.5 788.049,-513.5 788.049,-492.5 617.049,-492.5"/>
<text text-anchor="middle" x="702.549" y="-500.5" font-family="Helvetica,sans-Serif" font-size="10.00">core/internal/MojVectorInternal.h</text>
</a>
</g>
<!-- Node19&#45;&gt;Node25 -->
<g id="edge76" class="edge"><title>Node19&#45;&gt;Node25</title>
<path fill="none" stroke="midnightblue" d="M656.82,-550.362C664.793,-542.104 676.024,-530.472 685.36,-520.803"/>
<polygon fill="midnightblue" stroke="midnightblue" points="687.915,-523.196 692.343,-513.571 682.879,-518.334 687.915,-523.196"/>
</g>
<!-- Node20&#45;&gt;Node2 -->
<g id="edge54" class="edge"><title>Node20&#45;&gt;Node2</title>
<path fill="none" stroke="midnightblue" d="M457.421,-297.267C453.853,-287.991 448.601,-274.336 444.259,-263.045"/>
<polygon fill="midnightblue" stroke="midnightblue" points="447.457,-261.611 440.6,-253.534 440.924,-264.124 447.457,-261.611"/>
</g>
<!-- Node21&#45;&gt;Node2 -->
<g id="edge58" class="edge"><title>Node21&#45;&gt;Node2</title>
<path fill="none" stroke="midnightblue" d="M341.472,-492.381C341.617,-468.39 343.783,-408.469 360.549,-362 374.578,-323.119 403.097,-283.831 420.933,-261.539"/>
<polygon fill="midnightblue" stroke="midnightblue" points="423.8,-263.562 427.412,-253.601 418.377,-259.135 423.8,-263.562"/>
</g>
<!-- Node21&#45;&gt;Node15 -->
<g id="edge60" class="edge"><title>Node21&#45;&gt;Node15</title>
<path fill="none" stroke="midnightblue" d="M337.925,-492.278C334.832,-482.819 330.438,-468.615 327.549,-456 317.289,-411.2 309.765,-357.796 306.084,-328.967"/>
<polygon fill="midnightblue" stroke="midnightblue" points="309.534,-328.353 304.824,-318.863 302.588,-329.219 309.534,-328.353"/>
</g>
<!-- Node21&#45;&gt;Node17 -->
<g id="edge62" class="edge"><title>Node21&#45;&gt;Node17</title>
<path fill="none" stroke="midnightblue" d="M324.805,-492.434C299.642,-476.582 250.545,-445.754 208.549,-420 191.473,-409.528 172.193,-397.908 157.074,-388.843"/>
<polygon fill="midnightblue" stroke="midnightblue" points="158.632,-385.697 148.254,-383.561 155.035,-391.702 158.632,-385.697"/>
</g>
<!-- Node22 -->
<g id="node54" class="node"><title>Node22</title>
<a xlink:href="MojRefCountInternal_8h.htm" target="_top" xlink:title="core/internal/MojRefCount\lInternal.h">
<polygon fill="white" stroke="black" points="373.549,-421 373.549,-455 513.549,-455 513.549,-421 373.549,-421"/>
<text text-anchor="start" x="381.549" y="-442" font-family="Helvetica,sans-Serif" font-size="10.00">core/internal/MojRefCount</text>
<text text-anchor="middle" x="443.549" y="-429" font-family="Helvetica,sans-Serif" font-size="10.00">Internal.h</text>
</a>
</g>
<!-- Node21&#45;&gt;Node22 -->
<g id="edge64" class="edge"><title>Node21&#45;&gt;Node22</title>
<path fill="none" stroke="midnightblue" d="M358.392,-492.267C371.884,-483.669 391.278,-471.31 408.151,-460.558"/>
<polygon fill="midnightblue" stroke="midnightblue" points="410.147,-463.436 416.7,-455.11 406.385,-457.532 410.147,-463.436"/>
</g>
<!-- Node23 -->
<g id="node56" class="node"><title>Node23</title>
<a xlink:href="MojUtilInternal_8h.htm" target="_top" xlink:title="core/internal/MojUtilInternal.h">
<polygon fill="white" stroke="black" points="369.049,-362.5 369.049,-383.5 524.049,-383.5 524.049,-362.5 369.049,-362.5"/>
<text text-anchor="middle" x="446.549" y="-370.5" font-family="Helvetica,sans-Serif" font-size="10.00">core/internal/MojUtilInternal.h</text>
</a>
</g>
<!-- Node22&#45;&gt;Node23 -->
<g id="edge66" class="edge"><title>Node22&#45;&gt;Node23</title>
<path fill="none" stroke="midnightblue" d="M444.337,-420.922C444.718,-412.67 445.179,-402.692 445.581,-393.982"/>
<polygon fill="midnightblue" stroke="midnightblue" points="449.083,-394.003 446.048,-383.852 442.091,-393.68 449.083,-394.003"/>
</g>
<!-- Node23&#45;&gt;Node20 -->
<g id="edge68" class="edge"><title>Node23&#45;&gt;Node20</title>
<path fill="none" stroke="midnightblue" d="M449.026,-362.267C451.145,-353.085 454.253,-339.615 456.843,-328.392"/>
<polygon fill="midnightblue" stroke="midnightblue" points="460.28,-329.065 459.118,-318.534 453.459,-327.491 460.28,-329.065"/>
</g>
<!-- Node24&#45;&gt;Node2 -->
<g id="edge72" class="edge"><title>Node24&#45;&gt;Node2</title>
<path fill="none" stroke="midnightblue" d="M656.869,-427.258C654.559,-400.095 644.665,-328.123 603.549,-290 588.533,-276.077 542.353,-263.685 502.352,-255.125"/>
<polygon fill="midnightblue" stroke="midnightblue" points="502.842,-251.652 492.338,-253.033 501.411,-258.504 502.842,-251.652"/>
</g>
<!-- Node24&#45;&gt;Node23 -->
<g id="edge74" class="edge"><title>Node24&#45;&gt;Node23</title>
<path fill="none" stroke="midnightblue" d="M623.179,-427.412C587.007,-416.269 529.955,-398.694 490.526,-386.547"/>
<polygon fill="midnightblue" stroke="midnightblue" points="491.492,-383.183 480.905,-383.584 489.431,-389.873 491.492,-383.183"/>
</g>
</g>
</svg>
