<?xml version="1.0" encoding="UTF-8" standalone="no"?>
<!DOCTYPE svg PUBLIC "-//W3C//DTD SVG 1.1//EN"
 "http://www.w3.org/Graphics/SVG/1.1/DTD/svg11.dtd">
<!-- Generated by graphviz version 2.26.3 (20100126.1600)
 -->
<!-- Title: MojString.cpp Pages: 1 -->
<svg width="804pt" height="696pt"
 viewBox="0.00 0.00 804.00 696.00" xmlns="http://www.w3.org/2000/svg" xmlns:xlink="http://www.w3.org/1999/xlink">
<g id="graph1" class="graph" transform="scale(1 1) rotate(0) translate(4 692)">
<title>MojString.cpp</title>
<polygon fill="white" stroke="white" points="-4,5 -4,-692 801,-692 801,5 -4,5"/>
<!-- Node1 -->
<g id="node1" class="node"><title>Node1</title>
<polygon fill="#bfbfbf" stroke="black" points="528.5,-666.5 528.5,-687.5 609.5,-687.5 609.5,-666.5 528.5,-666.5"/>
<text text-anchor="middle" x="569" y="-674.5" font-family="Helvetica,sans-Serif" font-size="10.00">MojString.cpp</text>
</g>
<!-- Node2 -->
<g id="node3" class="node"><title>Node2</title>
<a xlink:href="MojString_8h.htm" target="_top" xlink:title="core/MojString.h">
<polygon fill="white" stroke="black" points="522,-608.5 522,-629.5 616,-629.5 616,-608.5 522,-608.5"/>
<text text-anchor="middle" x="569" y="-616.5" font-family="Helvetica,sans-Serif" font-size="10.00">core/MojString.h</text>
</a>
</g>
<!-- Node1&#45;&gt;Node2 -->
<g id="edge2" class="edge"><title>Node1&#45;&gt;Node2</title>
<path fill="none" stroke="midnightblue" d="M569,-666.362C569,-658.922 569,-648.743 569,-639.728"/>
<polygon fill="midnightblue" stroke="midnightblue" points="572.5,-639.571 569,-629.571 565.5,-639.571 572.5,-639.571"/>
</g>
<!-- Node3 -->
<g id="node5" class="node"><title>Node3</title>
<a xlink:href="MojCoreDefs_8h.htm" target="_top" xlink:title="core/MojCoreDefs.h">
<polygon fill="white" stroke="black" points="378.5,-232.5 378.5,-253.5 489.5,-253.5 489.5,-232.5 378.5,-232.5"/>
<text text-anchor="middle" x="434" y="-240.5" font-family="Helvetica,sans-Serif" font-size="10.00">core/MojCoreDefs.h</text>
</a>
</g>
<!-- Node2&#45;&gt;Node3 -->
<g id="edge4" class="edge"><title>Node2&#45;&gt;Node3</title>
<path fill="none" stroke="midnightblue" d="M616.035,-615.591C682.524,-607.924 796,-583.106 796,-503 796,-503 796,-503 796,-366 796,-313.985 754.091,-312.091 707,-290 671.177,-273.195 568.611,-258.575 499.906,-250.274"/>
<polygon fill="midnightblue" stroke="midnightblue" points="499.95,-246.755 489.606,-249.046 499.122,-253.706 499.95,-246.755"/>
</g>
<!-- Node13 -->
<g id="node25" class="node"><title>Node13</title>
<a xlink:href="MojAutoPtr_8h.htm" target="_top" xlink:title="core/MojAutoPtr.h">
<polygon fill="white" stroke="black" points="80.5,-427.5 80.5,-448.5 181.5,-448.5 181.5,-427.5 80.5,-427.5"/>
<text text-anchor="middle" x="131" y="-435.5" font-family="Helvetica,sans-Serif" font-size="10.00">core/MojAutoPtr.h</text>
</a>
</g>
<!-- Node2&#45;&gt;Node13 -->
<g id="edge24" class="edge"><title>Node2&#45;&gt;Node13</title>
<path fill="none" stroke="midnightblue" d="M521.814,-616.533C444.336,-610.369 288.27,-588.863 183,-514 162.96,-499.749 148.23,-475.187 139.663,-457.849"/>
<polygon fill="midnightblue" stroke="midnightblue" points="142.747,-456.181 135.337,-448.608 136.407,-459.149 142.747,-456.181"/>
</g>
<!-- Node16 -->
<g id="node34" class="node"><title>Node16</title>
<a xlink:href="MojComp_8h.htm" target="_top" xlink:title="core/MojComp.h">
<polygon fill="white" stroke="black" points="582,-290.5 582,-311.5 676,-311.5 676,-290.5 582,-290.5"/>
<text text-anchor="middle" x="629" y="-298.5" font-family="Helvetica,sans-Serif" font-size="10.00">core/MojComp.h</text>
</a>
</g>
<!-- Node2&#45;&gt;Node16 -->
<g id="edge36" class="edge"><title>Node2&#45;&gt;Node16</title>
<path fill="none" stroke="midnightblue" d="M582.959,-608.217C594.732,-598.952 611.874,-585.061 626,-572 652.31,-547.674 663.994,-544.98 682,-514 695.498,-490.776 695.184,-482.59 699,-456 705.904,-407.902 706.924,-389.712 682,-348 674.953,-336.206 663.963,-325.754 653.813,-317.72"/>
<polygon fill="midnightblue" stroke="midnightblue" points="655.693,-314.756 645.59,-311.564 651.498,-320.359 655.693,-314.756"/>
</g>
<!-- Node17 -->
<g id="node37" class="node"><title>Node17</title>
<a xlink:href="MojHasher_8h.htm" target="_top" xlink:title="core/MojHasher.h">
<polygon fill="white" stroke="black" points="327.5,-492.5 327.5,-513.5 428.5,-513.5 428.5,-492.5 327.5,-492.5"/>
<text text-anchor="middle" x="378" y="-500.5" font-family="Helvetica,sans-Serif" font-size="10.00">core/MojHasher.h</text>
</a>
</g>
<!-- Node2&#45;&gt;Node17 -->
<g id="edge40" class="edge"><title>Node2&#45;&gt;Node17</title>
<path fill="none" stroke="midnightblue" d="M551.374,-608.295C517.602,-587.785 443.631,-542.859 404.11,-518.857"/>
<polygon fill="midnightblue" stroke="midnightblue" points="405.672,-515.711 395.308,-513.512 402.038,-521.694 405.672,-515.711"/>
</g>
<!-- Node20 -->
<g id="node46" class="node"><title>Node20</title>
<a xlink:href="MojVector_8h.htm" target="_top" xlink:title="core/MojVector.h">
<polygon fill="white" stroke="black" points="520.5,-550.5 520.5,-571.5 617.5,-571.5 617.5,-550.5 520.5,-550.5"/>
<text text-anchor="middle" x="569" y="-558.5" font-family="Helvetica,sans-Serif" font-size="10.00">core/MojVector.h</text>
</a>
</g>
<!-- Node2&#45;&gt;Node20 -->
<g id="edge52" class="edge"><title>Node2&#45;&gt;Node20</title>
<path fill="none" stroke="midnightblue" d="M569,-608.362C569,-600.922 569,-590.743 569,-581.728"/>
<polygon fill="midnightblue" stroke="midnightblue" points="572.5,-581.571 569,-571.571 565.5,-581.571 572.5,-581.571"/>
</g>
<!-- Node4 -->
<g id="node7" class="node"><title>Node4</title>
<a xlink:href="MojConfig_8h.htm" target="_top" xlink:title="core/internal/MojConfig.h">
<polygon fill="white" stroke="black" points="491.5,-174.5 491.5,-195.5 626.5,-195.5 626.5,-174.5 491.5,-174.5"/>
<text text-anchor="middle" x="559" y="-182.5" font-family="Helvetica,sans-Serif" font-size="10.00">core/internal/MojConfig.h</text>
</a>
</g>
<!-- Node3&#45;&gt;Node4 -->
<g id="edge6" class="edge"><title>Node3&#45;&gt;Node4</title>
<path fill="none" stroke="midnightblue" d="M456.637,-232.497C476.248,-223.397 504.846,-210.127 526.833,-199.925"/>
<polygon fill="midnightblue" stroke="midnightblue" points="528.512,-203.005 536.109,-195.621 525.565,-196.655 528.512,-203.005"/>
</g>
<!-- Node5 -->
<g id="node9" class="node"><title>Node5</title>
<a xlink:href="MojNew_8h.htm" target="_top" xlink:title="core/internal/MojNew.h">
<polygon fill="white" stroke="black" points="153.5,-174.5 153.5,-195.5 278.5,-195.5 278.5,-174.5 153.5,-174.5"/>
<text text-anchor="middle" x="216" y="-182.5" font-family="Helvetica,sans-Serif" font-size="10.00">core/internal/MojNew.h</text>
</a>
</g>
<!-- Node3&#45;&gt;Node5 -->
<g id="edge8" class="edge"><title>Node3&#45;&gt;Node5</title>
<path fill="none" stroke="midnightblue" d="M394.522,-232.497C358.367,-222.877 304.696,-208.598 265.647,-198.209"/>
<polygon fill="midnightblue" stroke="midnightblue" points="266.116,-194.712 255.552,-195.523 264.316,-201.477 266.116,-194.712"/>
</g>
<!-- Node7 -->
<g id="node13" class="node"><title>Node7</title>
<a xlink:href="MojErr_8h.htm" target="_top" xlink:title="core/MojErr.h">
<polygon fill="white" stroke="black" points="296,-174.5 296,-195.5 376,-195.5 376,-174.5 296,-174.5"/>
<text text-anchor="middle" x="336" y="-182.5" font-family="Helvetica,sans-Serif" font-size="10.00">core/MojErr.h</text>
</a>
</g>
<!-- Node3&#45;&gt;Node7 -->
<g id="edge12" class="edge"><title>Node3&#45;&gt;Node7</title>
<path fill="none" stroke="midnightblue" d="M416.025,-232.362C401.106,-223.532 379.667,-210.844 362.734,-200.822"/>
<polygon fill="midnightblue" stroke="midnightblue" points="364.249,-197.652 353.861,-195.571 360.684,-203.676 364.249,-197.652"/>
</g>
<!-- Node11 -->
<g id="node21" class="node"><title>Node11</title>
<a xlink:href="MojOs_8h.htm" target="_top" xlink:title="core/MojOs.h">
<polygon fill="white" stroke="black" points="394,-174.5 394,-195.5 474,-195.5 474,-174.5 394,-174.5"/>
<text text-anchor="middle" x="434" y="-182.5" font-family="Helvetica,sans-Serif" font-size="10.00">core/MojOs.h</text>
</a>
</g>
<!-- Node3&#45;&gt;Node11 -->
<g id="edge20" class="edge"><title>Node3&#45;&gt;Node11</title>
<path fill="none" stroke="midnightblue" d="M434,-232.362C434,-224.922 434,-214.743 434,-205.728"/>
<polygon fill="midnightblue" stroke="midnightblue" points="437.5,-205.571 434,-195.571 430.5,-205.571 437.5,-205.571"/>
</g>
<!-- Node6 -->
<g id="node11" class="node"><title>Node6</title>
<polygon fill="white" stroke="#bfbfbf" points="198,-116.5 198,-137.5 234,-137.5 234,-116.5 198,-116.5"/>
<text text-anchor="middle" x="216" y="-124.5" font-family="Helvetica,sans-Serif" font-size="10.00">new</text>
</g>
<!-- Node5&#45;&gt;Node6 -->
<g id="edge10" class="edge"><title>Node5&#45;&gt;Node6</title>
<path fill="none" stroke="midnightblue" d="M216,-174.362C216,-166.922 216,-156.743 216,-147.728"/>
<polygon fill="midnightblue" stroke="midnightblue" points="219.5,-147.571 216,-137.571 212.5,-147.571 219.5,-147.571"/>
</g>
<!-- Node8 -->
<g id="node15" class="node"><title>Node8</title>
<a xlink:href="MojLog_8h.htm" target="_top" xlink:title="core/MojLog.h">
<polygon fill="white" stroke="black" points="253,-116.5 253,-137.5 337,-137.5 337,-116.5 253,-116.5"/>
<text text-anchor="middle" x="295" y="-124.5" font-family="Helvetica,sans-Serif" font-size="10.00">core/MojLog.h</text>
</a>
</g>
<!-- Node7&#45;&gt;Node8 -->
<g id="edge14" class="edge"><title>Node7&#45;&gt;Node8</title>
<path fill="none" stroke="midnightblue" d="M328.48,-174.362C322.874,-166.431 315.068,-155.389 308.403,-145.961"/>
<polygon fill="midnightblue" stroke="midnightblue" points="311.103,-143.716 302.472,-137.571 305.387,-147.757 311.103,-143.716"/>
</g>
<!-- Node9 -->
<g id="node17" class="node"><title>Node9</title>
<a xlink:href="MojListEntry_8h.htm" target="_top" xlink:title="core/MojListEntry.h">
<polygon fill="white" stroke="black" points="130.5,-58.5 130.5,-79.5 237.5,-79.5 237.5,-58.5 130.5,-58.5"/>
<text text-anchor="middle" x="184" y="-66.5" font-family="Helvetica,sans-Serif" font-size="10.00">core/MojListEntry.h</text>
</a>
</g>
<!-- Node8&#45;&gt;Node9 -->
<g id="edge16" class="edge"><title>Node8&#45;&gt;Node9</title>
<path fill="none" stroke="midnightblue" d="M274.899,-116.497C257.718,-107.519 232.77,-94.4835 213.355,-84.3387"/>
<polygon fill="midnightblue" stroke="midnightblue" points="214.811,-81.1503 204.327,-79.6212 211.569,-87.3544 214.811,-81.1503"/>
</g>
<!-- Node10 -->
<g id="node19" class="node"><title>Node10</title>
<a xlink:href="MojNoCopy_8h.htm" target="_top" xlink:title="core/MojNoCopy.h">
<polygon fill="white" stroke="black" points="40,-0.5 40,-21.5 144,-21.5 144,-0.5 40,-0.5"/>
<text text-anchor="middle" x="92" y="-8.5" font-family="Helvetica,sans-Serif" font-size="10.00">core/MojNoCopy.h</text>
</a>
</g>
<!-- Node9&#45;&gt;Node10 -->
<g id="edge18" class="edge"><title>Node9&#45;&gt;Node10</title>
<path fill="none" stroke="midnightblue" d="M167.126,-58.3619C153.249,-49.6138 133.366,-37.0786 117.54,-27.1015"/>
<polygon fill="midnightblue" stroke="midnightblue" points="119.093,-23.943 108.767,-21.5707 115.36,-29.8645 119.093,-23.943"/>
</g>
<!-- Node12 -->
<g id="node23" class="node"><title>Node12</title>
<a xlink:href="MojOsInternal_8h.htm" target="_top" xlink:title="core/internal/MojOsInternal.h">
<polygon fill="white" stroke="black" points="357,-116.5 357,-137.5 511,-137.5 511,-116.5 357,-116.5"/>
<text text-anchor="middle" x="434" y="-124.5" font-family="Helvetica,sans-Serif" font-size="10.00">core/internal/MojOsInternal.h</text>
</a>
</g>
<!-- Node11&#45;&gt;Node12 -->
<g id="edge22" class="edge"><title>Node11&#45;&gt;Node12</title>
<path fill="none" stroke="midnightblue" d="M434,-174.362C434,-166.922 434,-156.743 434,-147.728"/>
<polygon fill="midnightblue" stroke="midnightblue" points="437.5,-147.571 434,-137.571 430.5,-147.571 437.5,-147.571"/>
</g>
<!-- Node13&#45;&gt;Node3 -->
<g id="edge26" class="edge"><title>Node13&#45;&gt;Node3</title>
<path fill="none" stroke="midnightblue" d="M106.133,-427.389C88.881,-418.546 67.2319,-404.133 57,-384 49.751,-369.736 47.3223,-360.741 57,-348 94.5573,-298.553 270.671,-266.188 368.34,-251.72"/>
<polygon fill="midnightblue" stroke="midnightblue" points="369.015,-255.158 378.405,-250.251 368.004,-248.232 369.015,-255.158"/>
</g>
<!-- Node13&#45;&gt;Node10 -->
<g id="edge32" class="edge"><title>Node13&#45;&gt;Node10</title>
<path fill="none" stroke="midnightblue" d="M108.48,-427.387C71.0255,-407.991 0,-363.032 0,-301 0,-301 0,-301 0,-127 0,-83.8597 39.5437,-47.4263 66.7808,-27.4482"/>
<polygon fill="midnightblue" stroke="midnightblue" points="68.9781,-30.1812 75.1258,-21.5524 64.9389,-24.4641 68.9781,-30.1812"/>
</g>
<!-- Node14 -->
<g id="node28" class="node"><title>Node14</title>
<a xlink:href="MojAtomicInt_8h.htm" target="_top" xlink:title="core/MojAtomicInt.h">
<polygon fill="white" stroke="black" points="214,-355.5 214,-376.5 324,-376.5 324,-355.5 214,-355.5"/>
<text text-anchor="middle" x="269" y="-363.5" font-family="Helvetica,sans-Serif" font-size="10.00">core/MojAtomicInt.h</text>
</a>
</g>
<!-- Node13&#45;&gt;Node14 -->
<g id="edge28" class="edge"><title>Node13&#45;&gt;Node14</title>
<path fill="none" stroke="midnightblue" d="M151.362,-427.376C174.6,-415.252 212.812,-395.316 239.353,-381.468"/>
<polygon fill="midnightblue" stroke="midnightblue" points="241.307,-384.396 248.554,-376.667 238.069,-378.19 241.307,-384.396"/>
</g>
<!-- Node15 -->
<g id="node32" class="node"><title>Node15</title>
<a xlink:href="MojAutoPtrInternal_8h.htm" target="_top" xlink:title="core/internal/MojAutoPtr\lInternal.h">
<polygon fill="white" stroke="black" points="65.5,-349 65.5,-383 196.5,-383 196.5,-349 65.5,-349"/>
<text text-anchor="start" x="73.5" y="-370" font-family="Helvetica,sans-Serif" font-size="10.00">core/internal/MojAutoPtr</text>
<text text-anchor="middle" x="131" y="-357" font-family="Helvetica,sans-Serif" font-size="10.00">Internal.h</text>
</a>
</g>
<!-- Node13&#45;&gt;Node15 -->
<g id="edge34" class="edge"><title>Node13&#45;&gt;Node15</title>
<path fill="none" stroke="midnightblue" d="M131,-427.376C131,-418.451 131,-405.293 131,-393.446"/>
<polygon fill="midnightblue" stroke="midnightblue" points="134.5,-393.094 131,-383.094 127.5,-393.094 134.5,-393.094"/>
</g>
<!-- Node14&#45;&gt;Node3 -->
<g id="edge30" class="edge"><title>Node14&#45;&gt;Node3</title>
<path fill="none" stroke="midnightblue" d="M276.657,-355.243C288.398,-339.346 312.213,-309.378 338,-290 355.686,-276.709 377.719,-265.604 396.215,-257.532"/>
<polygon fill="midnightblue" stroke="midnightblue" points="397.679,-260.713 405.523,-253.591 394.95,-254.267 397.679,-260.713"/>
</g>
<!-- Node16&#45;&gt;Node3 -->
<g id="edge38" class="edge"><title>Node16&#45;&gt;Node3</title>
<path fill="none" stroke="midnightblue" d="M593.687,-290.497C561.621,-280.959 514.155,-266.841 479.304,-256.475"/>
<polygon fill="midnightblue" stroke="midnightblue" points="479.962,-253.019 469.379,-253.523 477.966,-259.729 479.962,-253.019"/>
</g>
<!-- Node17&#45;&gt;Node3 -->
<g id="edge42" class="edge"><title>Node17&#45;&gt;Node3</title>
<path fill="none" stroke="midnightblue" d="M393.39,-492.183C404.081,-483.699 417.526,-470.864 424,-456 452.451,-390.68 443.776,-303.191 437.716,-263.782"/>
<polygon fill="midnightblue" stroke="midnightblue" points="441.15,-263.092 436.073,-253.792 434.243,-264.228 441.15,-263.092"/>
</g>
<!-- Node18 -->
<g id="node40" class="node"><title>Node18</title>
<a xlink:href="MojUtil_8h.htm" target="_top" xlink:title="core/MojUtil.h">
<polygon fill="white" stroke="black" points="470.5,-427.5 470.5,-448.5 551.5,-448.5 551.5,-427.5 470.5,-427.5"/>
<text text-anchor="middle" x="511" y="-435.5" font-family="Helvetica,sans-Serif" font-size="10.00">core/MojUtil.h</text>
</a>
</g>
<!-- Node17&#45;&gt;Node18 -->
<g id="edge44" class="edge"><title>Node17&#45;&gt;Node18</title>
<path fill="none" stroke="midnightblue" d="M399.665,-492.412C421.499,-481.741 455.403,-465.172 480.063,-453.12"/>
<polygon fill="midnightblue" stroke="midnightblue" points="481.897,-456.119 489.345,-448.584 478.823,-449.83 481.897,-456.119"/>
</g>
<!-- Node18&#45;&gt;Node3 -->
<g id="edge46" class="edge"><title>Node18&#45;&gt;Node3</title>
<path fill="none" stroke="midnightblue" d="M506.75,-427.238C494.395,-395.949 458.333,-304.623 442.093,-263.495"/>
<polygon fill="midnightblue" stroke="midnightblue" points="445.26,-261.985 438.331,-253.969 438.749,-264.556 445.26,-261.985"/>
</g>
<!-- Node19 -->
<g id="node43" class="node"><title>Node19</title>
<a xlink:href="MojUtilInternal_8h.htm" target="_top" xlink:title="core/internal/MojUtilInternal.h">
<polygon fill="white" stroke="black" points="499.5,-355.5 499.5,-376.5 654.5,-376.5 654.5,-355.5 499.5,-355.5"/>
<text text-anchor="middle" x="577" y="-363.5" font-family="Helvetica,sans-Serif" font-size="10.00">core/internal/MojUtilInternal.h</text>
</a>
</g>
<!-- Node18&#45;&gt;Node19 -->
<g id="edge48" class="edge"><title>Node18&#45;&gt;Node19</title>
<path fill="none" stroke="midnightblue" d="M520.739,-427.376C531.17,-415.997 547.91,-397.735 560.422,-384.085"/>
<polygon fill="midnightblue" stroke="midnightblue" points="563.044,-386.404 567.222,-376.667 557.884,-381.674 563.044,-386.404"/>
</g>
<!-- Node19&#45;&gt;Node16 -->
<g id="edge50" class="edge"><title>Node19&#45;&gt;Node16</title>
<path fill="none" stroke="midnightblue" d="M585.587,-355.267C593.31,-345.612 604.828,-331.215 614.06,-319.675"/>
<polygon fill="midnightblue" stroke="midnightblue" points="617.059,-321.529 620.573,-311.534 611.593,-317.156 617.059,-321.529"/>
</g>
<!-- Node20&#45;&gt;Node3 -->
<g id="edge54" class="edge"><title>Node20&#45;&gt;Node3</title>
<path fill="none" stroke="midnightblue" d="M617.518,-551.026C639.948,-544.112 665.264,-532.668 682,-514 748.461,-439.865 752.61,-363.088 685,-290 660.496,-263.51 565.659,-251.705 499.847,-246.62"/>
<polygon fill="midnightblue" stroke="midnightblue" points="499.78,-243.105 489.549,-245.86 499.265,-250.086 499.78,-243.105"/>
</g>
<!-- Node20&#45;&gt;Node16 -->
<g id="edge56" class="edge"><title>Node20&#45;&gt;Node16</title>
<path fill="none" stroke="midnightblue" d="M612.607,-550.359C631.529,-543.342 651.873,-532.004 663,-514 701.787,-451.241 685.726,-418.19 663,-348 659.638,-337.618 653.031,-327.604 646.528,-319.507"/>
<polygon fill="midnightblue" stroke="midnightblue" points="649.101,-317.131 639.929,-311.827 643.792,-321.693 649.101,-317.131"/>
</g>
<!-- Node20&#45;&gt;Node18 -->
<g id="edge70" class="edge"><title>Node20&#45;&gt;Node18</title>
<path fill="none" stroke="midnightblue" d="M525.393,-550.359C506.471,-543.342 486.127,-532.004 475,-514 463.365,-495.175 478.13,-471.998 492.11,-456.223"/>
<polygon fill="midnightblue" stroke="midnightblue" points="494.884,-458.383 499.205,-448.71 489.794,-453.577 494.884,-458.383"/>
</g>
<!-- Node21 -->
<g id="node50" class="node"><title>Node21</title>
<a xlink:href="MojRefCount_8h.htm" target="_top" xlink:title="core/MojRefCount.h">
<polygon fill="white" stroke="black" points="192,-492.5 192,-513.5 302,-513.5 302,-492.5 192,-492.5"/>
<text text-anchor="middle" x="247" y="-500.5" font-family="Helvetica,sans-Serif" font-size="10.00">core/MojRefCount.h</text>
</a>
</g>
<!-- Node20&#45;&gt;Node21 -->
<g id="edge58" class="edge"><title>Node20&#45;&gt;Node21</title>
<path fill="none" stroke="midnightblue" d="M520.445,-552.254C464.942,-542.257 373.828,-525.845 312.179,-514.74"/>
<polygon fill="midnightblue" stroke="midnightblue" points="312.63,-511.265 302.168,-512.937 311.389,-518.154 312.63,-511.265"/>
</g>
<!-- Node23 -->
<g id="node59" class="node"><title>Node23</title>
<a xlink:href="MojVectorInternal_8h.htm" target="_top" xlink:title="core/internal/MojVectorInternal.h">
<polygon fill="white" stroke="black" points="483.5,-492.5 483.5,-513.5 654.5,-513.5 654.5,-492.5 483.5,-492.5"/>
<text text-anchor="middle" x="569" y="-500.5" font-family="Helvetica,sans-Serif" font-size="10.00">core/internal/MojVectorInternal.h</text>
</a>
</g>
<!-- Node20&#45;&gt;Node23 -->
<g id="edge72" class="edge"><title>Node20&#45;&gt;Node23</title>
<path fill="none" stroke="midnightblue" d="M569,-550.362C569,-542.922 569,-532.743 569,-523.728"/>
<polygon fill="midnightblue" stroke="midnightblue" points="572.5,-523.571 569,-513.571 565.5,-523.571 572.5,-523.571"/>
</g>
<!-- Node21&#45;&gt;Node3 -->
<g id="edge60" class="edge"><title>Node21&#45;&gt;Node3</title>
<path fill="none" stroke="midnightblue" d="M246.748,-492.407C246.881,-475.409 249.419,-441.748 266,-420 286.495,-393.118 307.611,-406.319 333,-384 374.044,-347.92 407.653,-292.133 423.742,-262.714"/>
<polygon fill="midnightblue" stroke="midnightblue" points="426.873,-264.281 428.512,-253.814 420.703,-260.974 426.873,-264.281"/>
</g>
<!-- Node21&#45;&gt;Node13 -->
<g id="edge64" class="edge"><title>Node21&#45;&gt;Node13</title>
<path fill="none" stroke="midnightblue" d="M228.104,-492.412C209.314,-481.883 180.274,-465.611 158.844,-453.602"/>
<polygon fill="midnightblue" stroke="midnightblue" points="160.322,-450.419 149.887,-448.584 156.9,-456.525 160.322,-450.419"/>
</g>
<!-- Node21&#45;&gt;Node14 -->
<g id="edge62" class="edge"><title>Node21&#45;&gt;Node14</title>
<path fill="none" stroke="midnightblue" d="M242.126,-492.321C235.507,-476.324 225.335,-445.315 233,-420 236.94,-406.989 245.162,-394.247 252.756,-384.411"/>
<polygon fill="midnightblue" stroke="midnightblue" points="255.534,-386.542 259.144,-376.581 250.11,-382.117 255.534,-386.542"/>
</g>
<!-- Node22 -->
<g id="node55" class="node"><title>Node22</title>
<a xlink:href="MojRefCountInternal_8h.htm" target="_top" xlink:title="core/internal/MojRefCount\lInternal.h">
<polygon fill="white" stroke="black" points="275,-421 275,-455 415,-455 415,-421 275,-421"/>
<text text-anchor="start" x="283" y="-442" font-family="Helvetica,sans-Serif" font-size="10.00">core/internal/MojRefCount</text>
<text text-anchor="middle" x="345" y="-429" font-family="Helvetica,sans-Serif" font-size="10.00">Internal.h</text>
</a>
</g>
<!-- Node21&#45;&gt;Node22 -->
<g id="edge66" class="edge"><title>Node21&#45;&gt;Node22</title>
<path fill="none" stroke="midnightblue" d="M263.183,-492.267C276.026,-483.748 294.437,-471.537 310.543,-460.854"/>
<polygon fill="midnightblue" stroke="midnightblue" points="312.805,-463.554 319.204,-455.11 308.935,-457.721 312.805,-463.554"/>
</g>
<!-- Node22&#45;&gt;Node19 -->
<g id="edge68" class="edge"><title>Node22&#45;&gt;Node19</title>
<path fill="none" stroke="midnightblue" d="M399.981,-420.937C440.695,-408.302 495.429,-391.315 533.204,-379.592"/>
<polygon fill="midnightblue" stroke="midnightblue" points="534.389,-382.889 542.902,-376.582 532.314,-376.203 534.389,-382.889"/>
</g>
</g>
</svg>
