<?xml version="1.0" encoding="UTF-8" standalone="no"?>
<!DOCTYPE svg PUBLIC "-//W3C//DTD SVG 1.1//EN"
 "http://www.w3.org/Graphics/SVG/1.1/DTD/svg11.dtd">
<!-- Generated by graphviz version 2.26.3 (20100126.1600)
 -->
<!-- Title: MojSchema.cpp Pages: 1 -->
<svg width="1212pt" height="812pt"
 viewBox="0.00 0.00 1212.31 812.00" xmlns="http://www.w3.org/2000/svg" xmlns:xlink="http://www.w3.org/1999/xlink">
<g id="graph1" class="graph" transform="scale(1 1) rotate(0) translate(4 808)">
<title>MojSchema.cpp</title>
<polygon fill="white" stroke="white" points="-4,5 -4,-808 1209.31,-808 1209.31,5 -4,5"/>
<!-- Node1 -->
<g id="node1" class="node"><title>Node1</title>
<polygon fill="#bfbfbf" stroke="black" points="640,-782.5 640,-803.5 732,-803.5 732,-782.5 640,-782.5"/>
<text text-anchor="middle" x="686" y="-790.5" font-family="Helvetica,sans-Serif" font-size="10.00">MojSchema.cpp</text>
</g>
<!-- Node2 -->
<g id="node3" class="node"><title>Node2</title>
<a xlink:href="MojSchema_8h.htm" target="_top" xlink:title="core/MojSchema.h">
<polygon fill="white" stroke="black" points="634,-724.5 634,-745.5 738,-745.5 738,-724.5 634,-724.5"/>
<text text-anchor="middle" x="686" y="-732.5" font-family="Helvetica,sans-Serif" font-size="10.00">core/MojSchema.h</text>
</a>
</g>
<!-- Node1&#45;&gt;Node2 -->
<g id="edge2" class="edge"><title>Node1&#45;&gt;Node2</title>
<path fill="none" stroke="midnightblue" d="M686,-782.362C686,-774.922 686,-764.743 686,-755.728"/>
<polygon fill="midnightblue" stroke="midnightblue" points="689.5,-755.571 686,-745.571 682.5,-755.571 689.5,-755.571"/>
</g>
<!-- Node3 -->
<g id="node5" class="node"><title>Node3</title>
<a xlink:href="MojCoreDefs_8h.htm" target="_top" xlink:title="core/MojCoreDefs.h">
<polygon fill="white" stroke="black" points="301.5,-232.5 301.5,-253.5 412.5,-253.5 412.5,-232.5 301.5,-232.5"/>
<text text-anchor="middle" x="357" y="-240.5" font-family="Helvetica,sans-Serif" font-size="10.00">core/MojCoreDefs.h</text>
</a>
</g>
<!-- Node2&#45;&gt;Node3 -->
<g id="edge4" class="edge"><title>Node2&#45;&gt;Node3</title>
<path fill="none" stroke="midnightblue" d="M633.692,-730.764C557.487,-724.152 411.655,-709.826 289,-688 158.988,-664.865 0,-751.055 0,-619 0,-619 0,-619 0,-373 0,-331.856 7.74994,-314.234 41,-290 79.7935,-261.726 210.598,-250.199 291.25,-245.699"/>
<polygon fill="midnightblue" stroke="midnightblue" points="291.513,-249.19 301.312,-245.159 291.139,-242.2 291.513,-249.19"/>
</g>
<!-- Node13 -->
<g id="node25" class="node"><title>Node13</title>
<a xlink:href="MojMap_8h.htm" target="_top" xlink:title="core/MojMap.h">
<polygon fill="white" stroke="black" points="765.5,-492.5 765.5,-513.5 852.5,-513.5 852.5,-492.5 765.5,-492.5"/>
<text text-anchor="middle" x="809" y="-500.5" font-family="Helvetica,sans-Serif" font-size="10.00">core/MojMap.h</text>
</a>
</g>
<!-- Node2&#45;&gt;Node13 -->
<g id="edge24" class="edge"><title>Node2&#45;&gt;Node13</title>
<path fill="none" stroke="midnightblue" d="M691.605,-724.429C710.735,-688.346 773.647,-569.683 798.635,-522.55"/>
<polygon fill="midnightblue" stroke="midnightblue" points="801.771,-524.108 803.362,-513.634 795.586,-520.829 801.771,-524.108"/>
</g>
<!-- Node19 -->
<g id="node43" class="node"><title>Node19</title>
<a xlink:href="MojObject_8h.htm" target="_top" xlink:title="core/MojObject.h">
<polygon fill="white" stroke="black" points="298,-666.5 298,-687.5 394,-687.5 394,-666.5 298,-666.5"/>
<text text-anchor="middle" x="346" y="-674.5" font-family="Helvetica,sans-Serif" font-size="10.00">core/MojObject.h</text>
</a>
</g>
<!-- Node2&#45;&gt;Node19 -->
<g id="edge48" class="edge"><title>Node2&#45;&gt;Node19</title>
<path fill="none" stroke="midnightblue" d="M633.991,-726.128C572.013,-715.555 468.746,-697.939 404.171,-686.923"/>
<polygon fill="midnightblue" stroke="midnightblue" points="404.598,-683.446 394.152,-685.214 403.421,-690.346 404.598,-683.446"/>
</g>
<!-- Node25 -->
<g id="node65" class="node"><title>Node25</title>
<a xlink:href="MojVector_8h.htm" target="_top" xlink:title="core/MojVector.h">
<polygon fill="white" stroke="black" points="335.5,-550.5 335.5,-571.5 432.5,-571.5 432.5,-550.5 335.5,-550.5"/>
<text text-anchor="middle" x="384" y="-558.5" font-family="Helvetica,sans-Serif" font-size="10.00">core/MojVector.h</text>
</a>
</g>
<!-- Node2&#45;&gt;Node25 -->
<g id="edge114" class="edge"><title>Node2&#45;&gt;Node25</title>
<path fill="none" stroke="midnightblue" d="M667.563,-724.377C616.386,-694.891 472.352,-611.905 411.589,-576.896"/>
<polygon fill="midnightblue" stroke="midnightblue" points="412.991,-573.664 402.579,-571.705 409.497,-579.73 412.991,-573.664"/>
</g>
<!-- Node29 -->
<g id="node81" class="node"><title>Node29</title>
<a xlink:href="MojSet_8h.htm" target="_top" xlink:title="core/MojSet.h">
<polygon fill="white" stroke="black" points="891,-492.5 891,-513.5 973,-513.5 973,-492.5 891,-492.5"/>
<text text-anchor="middle" x="932" y="-500.5" font-family="Helvetica,sans-Serif" font-size="10.00">core/MojSet.h</text>
</a>
</g>
<!-- Node2&#45;&gt;Node29 -->
<g id="edge104" class="edge"><title>Node2&#45;&gt;Node29</title>
<path fill="none" stroke="midnightblue" d="M697.209,-724.429C736.029,-687.818 864.997,-566.189 913.417,-520.526"/>
<polygon fill="midnightblue" stroke="midnightblue" points="915.851,-523.041 920.725,-513.634 911.048,-517.948 915.851,-523.041"/>
</g>
<!-- Node4 -->
<g id="node7" class="node"><title>Node4</title>
<a xlink:href="MojConfig_8h.htm" target="_top" xlink:title="core/internal/MojConfig.h">
<polygon fill="white" stroke="black" points="512.5,-174.5 512.5,-195.5 647.5,-195.5 647.5,-174.5 512.5,-174.5"/>
<text text-anchor="middle" x="580" y="-182.5" font-family="Helvetica,sans-Serif" font-size="10.00">core/internal/MojConfig.h</text>
</a>
</g>
<!-- Node3&#45;&gt;Node4 -->
<g id="edge6" class="edge"><title>Node3&#45;&gt;Node4</title>
<path fill="none" stroke="midnightblue" d="M397.384,-232.497C434.526,-222.836 489.737,-208.477 529.723,-198.077"/>
<polygon fill="midnightblue" stroke="midnightblue" points="530.744,-201.428 539.541,-195.523 528.982,-194.653 530.744,-201.428"/>
</g>
<!-- Node5 -->
<g id="node9" class="node"><title>Node5</title>
<a xlink:href="MojNew_8h.htm" target="_top" xlink:title="core/internal/MojNew.h">
<polygon fill="white" stroke="black" points="174.5,-174.5 174.5,-195.5 299.5,-195.5 299.5,-174.5 174.5,-174.5"/>
<text text-anchor="middle" x="237" y="-182.5" font-family="Helvetica,sans-Serif" font-size="10.00">core/internal/MojNew.h</text>
</a>
</g>
<!-- Node3&#45;&gt;Node5 -->
<g id="edge8" class="edge"><title>Node3&#45;&gt;Node5</title>
<path fill="none" stroke="midnightblue" d="M335.269,-232.497C316.526,-223.438 289.233,-210.246 268.164,-200.063"/>
<polygon fill="midnightblue" stroke="midnightblue" points="269.502,-196.822 258.975,-195.621 266.455,-203.124 269.502,-196.822"/>
</g>
<!-- Node7 -->
<g id="node13" class="node"><title>Node7</title>
<a xlink:href="MojErr_8h.htm" target="_top" xlink:title="core/MojErr.h">
<polygon fill="white" stroke="black" points="317,-174.5 317,-195.5 397,-195.5 397,-174.5 317,-174.5"/>
<text text-anchor="middle" x="357" y="-182.5" font-family="Helvetica,sans-Serif" font-size="10.00">core/MojErr.h</text>
</a>
</g>
<!-- Node3&#45;&gt;Node7 -->
<g id="edge12" class="edge"><title>Node3&#45;&gt;Node7</title>
<path fill="none" stroke="midnightblue" d="M357,-232.362C357,-224.922 357,-214.743 357,-205.728"/>
<polygon fill="midnightblue" stroke="midnightblue" points="360.5,-205.571 357,-195.571 353.5,-205.571 360.5,-205.571"/>
</g>
<!-- Node11 -->
<g id="node21" class="node"><title>Node11</title>
<a xlink:href="MojOs_8h.htm" target="_top" xlink:title="core/MojOs.h">
<polygon fill="white" stroke="black" points="415,-174.5 415,-195.5 495,-195.5 495,-174.5 415,-174.5"/>
<text text-anchor="middle" x="455" y="-182.5" font-family="Helvetica,sans-Serif" font-size="10.00">core/MojOs.h</text>
</a>
</g>
<!-- Node3&#45;&gt;Node11 -->
<g id="edge20" class="edge"><title>Node3&#45;&gt;Node11</title>
<path fill="none" stroke="midnightblue" d="M374.975,-232.362C389.894,-223.532 411.333,-210.844 428.266,-200.822"/>
<polygon fill="midnightblue" stroke="midnightblue" points="430.316,-203.676 437.139,-195.571 426.751,-197.652 430.316,-203.676"/>
</g>
<!-- Node6 -->
<g id="node11" class="node"><title>Node6</title>
<polygon fill="white" stroke="#bfbfbf" points="219,-116.5 219,-137.5 255,-137.5 255,-116.5 219,-116.5"/>
<text text-anchor="middle" x="237" y="-124.5" font-family="Helvetica,sans-Serif" font-size="10.00">new</text>
</g>
<!-- Node5&#45;&gt;Node6 -->
<g id="edge10" class="edge"><title>Node5&#45;&gt;Node6</title>
<path fill="none" stroke="midnightblue" d="M237,-174.362C237,-166.922 237,-156.743 237,-147.728"/>
<polygon fill="midnightblue" stroke="midnightblue" points="240.5,-147.571 237,-137.571 233.5,-147.571 240.5,-147.571"/>
</g>
<!-- Node8 -->
<g id="node15" class="node"><title>Node8</title>
<a xlink:href="MojLog_8h.htm" target="_top" xlink:title="core/MojLog.h">
<polygon fill="white" stroke="black" points="315,-116.5 315,-137.5 399,-137.5 399,-116.5 315,-116.5"/>
<text text-anchor="middle" x="357" y="-124.5" font-family="Helvetica,sans-Serif" font-size="10.00">core/MojLog.h</text>
</a>
</g>
<!-- Node7&#45;&gt;Node8 -->
<g id="edge14" class="edge"><title>Node7&#45;&gt;Node8</title>
<path fill="none" stroke="midnightblue" d="M357,-174.362C357,-166.922 357,-156.743 357,-147.728"/>
<polygon fill="midnightblue" stroke="midnightblue" points="360.5,-147.571 357,-137.571 353.5,-147.571 360.5,-147.571"/>
</g>
<!-- Node9 -->
<g id="node17" class="node"><title>Node9</title>
<a xlink:href="MojListEntry_8h.htm" target="_top" xlink:title="core/MojListEntry.h">
<polygon fill="white" stroke="black" points="476.5,-58.5 476.5,-79.5 583.5,-79.5 583.5,-58.5 476.5,-58.5"/>
<text text-anchor="middle" x="530" y="-66.5" font-family="Helvetica,sans-Serif" font-size="10.00">core/MojListEntry.h</text>
</a>
</g>
<!-- Node8&#45;&gt;Node9 -->
<g id="edge16" class="edge"><title>Node8&#45;&gt;Node9</title>
<path fill="none" stroke="midnightblue" d="M388.329,-116.497C416.533,-107.041 458.167,-93.0829 489.009,-82.7428"/>
<polygon fill="midnightblue" stroke="midnightblue" points="490.243,-86.0203 498.612,-79.5231 488.018,-79.3834 490.243,-86.0203"/>
</g>
<!-- Node10 -->
<g id="node19" class="node"><title>Node10</title>
<a xlink:href="MojNoCopy_8h.htm" target="_top" xlink:title="core/MojNoCopy.h">
<polygon fill="white" stroke="black" points="605,-0.5 605,-21.5 709,-21.5 709,-0.5 605,-0.5"/>
<text text-anchor="middle" x="657" y="-8.5" font-family="Helvetica,sans-Serif" font-size="10.00">core/MojNoCopy.h</text>
</a>
</g>
<!-- Node9&#45;&gt;Node10 -->
<g id="edge18" class="edge"><title>Node9&#45;&gt;Node10</title>
<path fill="none" stroke="midnightblue" d="M552.999,-58.4966C573.013,-49.3562 602.241,-36.0082 624.619,-25.7883"/>
<polygon fill="midnightblue" stroke="midnightblue" points="626.101,-28.9592 633.743,-21.6212 623.193,-22.5918 626.101,-28.9592"/>
</g>
<!-- Node12 -->
<g id="node23" class="node"><title>Node12</title>
<a xlink:href="MojOsInternal_8h.htm" target="_top" xlink:title="core/internal/MojOsInternal.h">
<polygon fill="white" stroke="black" points="417,-116.5 417,-137.5 571,-137.5 571,-116.5 417,-116.5"/>
<text text-anchor="middle" x="494" y="-124.5" font-family="Helvetica,sans-Serif" font-size="10.00">core/internal/MojOsInternal.h</text>
</a>
</g>
<!-- Node11&#45;&gt;Node12 -->
<g id="edge22" class="edge"><title>Node11&#45;&gt;Node12</title>
<path fill="none" stroke="midnightblue" d="M462.153,-174.362C467.486,-166.431 474.911,-155.389 481.251,-145.961"/>
<polygon fill="midnightblue" stroke="midnightblue" points="484.217,-147.822 486.892,-137.571 478.408,-143.916 484.217,-147.822"/>
</g>
<!-- Node13&#45;&gt;Node3 -->
<g id="edge26" class="edge"><title>Node13&#45;&gt;Node3</title>
<path fill="none" stroke="midnightblue" d="M809.76,-492.497C811.658,-457.458 812.575,-343.763 750,-290 725.694,-269.117 528.145,-253.712 422.731,-246.891"/>
<polygon fill="midnightblue" stroke="midnightblue" points="422.72,-243.383 412.517,-246.238 422.273,-250.369 422.72,-243.383"/>
</g>
<!-- Node14 -->
<g id="node28" class="node"><title>Node14</title>
<a xlink:href="MojComp_8h.htm" target="_top" xlink:title="core/MojComp.h">
<polygon fill="white" stroke="black" points="310,-297.5 310,-318.5 404,-318.5 404,-297.5 310,-297.5"/>
<text text-anchor="middle" x="357" y="-305.5" font-family="Helvetica,sans-Serif" font-size="10.00">core/MojComp.h</text>
</a>
</g>
<!-- Node13&#45;&gt;Node14 -->
<g id="edge28" class="edge"><title>Node13&#45;&gt;Node14</title>
<path fill="none" stroke="midnightblue" d="M784.65,-492.463C737.124,-471.862 628.716,-424.703 538,-384 516.589,-374.393 511.544,-371.305 490,-362 457.501,-347.963 420.116,-332.877 393.276,-322.228"/>
<polygon fill="midnightblue" stroke="midnightblue" points="394.479,-318.94 383.893,-318.516 391.904,-325.449 394.479,-318.94"/>
</g>
<!-- Node15 -->
<g id="node31" class="node"><title>Node15</title>
<a xlink:href="MojRbTreeBase_8h.htm" target="_top" xlink:title="core/internal/MojRbTreeBase.h">
<polygon fill="white" stroke="black" points="850,-427.5 850,-448.5 1014,-448.5 1014,-427.5 850,-427.5"/>
<text text-anchor="middle" x="932" y="-435.5" font-family="Helvetica,sans-Serif" font-size="10.00">core/internal/MojRbTreeBase.h</text>
</a>
</g>
<!-- Node13&#45;&gt;Node15 -->
<g id="edge32" class="edge"><title>Node13&#45;&gt;Node15</title>
<path fill="none" stroke="midnightblue" d="M829.036,-492.412C849.139,-481.788 880.306,-465.318 903.086,-453.28"/>
<polygon fill="midnightblue" stroke="midnightblue" points="904.767,-456.35 911.973,-448.584 901.496,-450.161 904.767,-456.35"/>
</g>
<!-- Node14&#45;&gt;Node3 -->
<g id="edge30" class="edge"><title>Node14&#45;&gt;Node3</title>
<path fill="none" stroke="midnightblue" d="M357,-297.267C357,-288.18 357,-274.892 357,-263.74"/>
<polygon fill="midnightblue" stroke="midnightblue" points="360.5,-263.534 357,-253.534 353.5,-263.534 360.5,-263.534"/>
</g>
<!-- Node15&#45;&gt;Node3 -->
<g id="edge34" class="edge"><title>Node15&#45;&gt;Node3</title>
<path fill="none" stroke="midnightblue" d="M928.748,-427.431C919.5,-399.38 890.16,-322.952 836,-290 801.501,-269.01 545.963,-252.92 422.888,-246.298"/>
<polygon fill="midnightblue" stroke="midnightblue" points="423.003,-242.8 412.831,-245.763 422.63,-249.79 423.003,-242.8"/>
</g>
<!-- Node16 -->
<g id="node34" class="node"><title>Node16</title>
<a xlink:href="MojAutoPtr_8h.htm" target="_top" xlink:title="core/MojAutoPtr.h">
<polygon fill="white" stroke="black" points="579.5,-362.5 579.5,-383.5 680.5,-383.5 680.5,-362.5 579.5,-362.5"/>
<text text-anchor="middle" x="630" y="-370.5" font-family="Helvetica,sans-Serif" font-size="10.00">core/MojAutoPtr.h</text>
</a>
</g>
<!-- Node15&#45;&gt;Node16 -->
<g id="edge36" class="edge"><title>Node15&#45;&gt;Node16</title>
<path fill="none" stroke="midnightblue" d="M883.143,-427.484C830.071,-416.062 745.308,-397.818 688.672,-385.628"/>
<polygon fill="midnightblue" stroke="midnightblue" points="689.3,-382.183 678.787,-383.501 687.827,-389.026 689.3,-382.183"/>
</g>
<!-- Node16&#45;&gt;Node3 -->
<g id="edge38" class="edge"><title>Node16&#45;&gt;Node3</title>
<path fill="none" stroke="midnightblue" d="M579.425,-362.664C534.58,-352.969 472.902,-338.181 451,-326 430.669,-314.692 430.362,-305.485 413,-290 401.639,-279.867 388.631,-268.913 378.014,-260.13"/>
<polygon fill="midnightblue" stroke="midnightblue" points="380.035,-257.26 370.088,-253.61 375.587,-262.666 380.035,-257.26"/>
</g>
<!-- Node16&#45;&gt;Node10 -->
<g id="edge44" class="edge"><title>Node16&#45;&gt;Node10</title>
<path fill="none" stroke="midnightblue" d="M661.909,-362.371C707.016,-345.093 784,-306.329 784,-243 784,-243 784,-243 784,-127 784,-77.586 730.936,-43.5862 693.409,-25.7196"/>
<polygon fill="midnightblue" stroke="midnightblue" points="694.794,-22.5045 684.245,-21.5253 691.881,-28.8695 694.794,-22.5045"/>
</g>
<!-- Node17 -->
<g id="node37" class="node"><title>Node17</title>
<a xlink:href="MojAtomicInt_8h.htm" target="_top" xlink:title="core/MojAtomicInt.h">
<polygon fill="white" stroke="black" points="608,-297.5 608,-318.5 718,-318.5 718,-297.5 608,-297.5"/>
<text text-anchor="middle" x="663" y="-305.5" font-family="Helvetica,sans-Serif" font-size="10.00">core/MojAtomicInt.h</text>
</a>
</g>
<!-- Node16&#45;&gt;Node17 -->
<g id="edge40" class="edge"><title>Node16&#45;&gt;Node17</title>
<path fill="none" stroke="midnightblue" d="M635.449,-362.267C640.207,-352.896 647.232,-339.057 652.998,-327.7"/>
<polygon fill="midnightblue" stroke="midnightblue" points="656.246,-329.035 657.652,-318.534 650.004,-325.866 656.246,-329.035"/>
</g>
<!-- Node18 -->
<g id="node41" class="node"><title>Node18</title>
<a xlink:href="MojAutoPtrInternal_8h.htm" target="_top" xlink:title="core/internal/MojAutoPtr\lInternal.h">
<polygon fill="white" stroke="black" points="459.5,-291 459.5,-325 590.5,-325 590.5,-291 459.5,-291"/>
<text text-anchor="start" x="467.5" y="-312" font-family="Helvetica,sans-Serif" font-size="10.00">core/internal/MojAutoPtr</text>
<text text-anchor="middle" x="525" y="-299" font-family="Helvetica,sans-Serif" font-size="10.00">Internal.h</text>
</a>
</g>
<!-- Node16&#45;&gt;Node18 -->
<g id="edge46" class="edge"><title>Node16&#45;&gt;Node18</title>
<path fill="none" stroke="midnightblue" d="M612.661,-362.267C598.773,-353.669 578.809,-341.31 561.439,-330.558"/>
<polygon fill="midnightblue" stroke="midnightblue" points="562.984,-327.398 552.639,-325.11 559.299,-333.349 562.984,-327.398"/>
</g>
<!-- Node17&#45;&gt;Node3 -->
<g id="edge42" class="edge"><title>Node17&#45;&gt;Node3</title>
<path fill="none" stroke="midnightblue" d="M627.591,-297.48C618.326,-294.882 608.321,-292.212 599,-290 539.712,-275.931 471.52,-262.974 422.665,-254.243"/>
<polygon fill="midnightblue" stroke="midnightblue" points="423.001,-250.748 412.543,-252.445 421.777,-257.64 423.001,-250.748"/>
</g>
<!-- Node19&#45;&gt;Node3 -->
<g id="edge50" class="edge"><title>Node19&#45;&gt;Node3</title>
<path fill="none" stroke="midnightblue" d="M297.875,-669.16C211.25,-653.677 38,-615.853 38,-561 38,-561 38,-561 38,-373 38,-332.791 42.3106,-314.75 74,-290 106.99,-264.234 218.67,-252.041 291.479,-246.705"/>
<polygon fill="midnightblue" stroke="midnightblue" points="291.755,-250.195 301.482,-245.997 291.26,-243.212 291.755,-250.195"/>
</g>
<!-- Node19&#45;&gt;Node13 -->
<g id="edge68" class="edge"><title>Node19&#45;&gt;Node13</title>
<path fill="none" stroke="midnightblue" d="M374.266,-666.377C454.031,-636.401 680.934,-551.129 771.245,-517.189"/>
<polygon fill="midnightblue" stroke="midnightblue" points="772.681,-520.388 780.811,-513.594 770.219,-513.835 772.681,-520.388"/>
</g>
<!-- Node20 -->
<g id="node46" class="node"><title>Node20</title>
<a xlink:href="MojDecimal_8h.htm" target="_top" xlink:title="core/MojDecimal.h">
<polygon fill="white" stroke="black" points="66,-550.5 66,-571.5 170,-571.5 170,-550.5 66,-550.5"/>
<text text-anchor="middle" x="118" y="-558.5" font-family="Helvetica,sans-Serif" font-size="10.00">core/MojDecimal.h</text>
</a>
</g>
<!-- Node19&#45;&gt;Node20 -->
<g id="edge52" class="edge"><title>Node19&#45;&gt;Node20</title>
<path fill="none" stroke="midnightblue" d="M324.933,-666.387C306.074,-656.879 277.675,-642.541 253,-630 216.687,-611.544 174.944,-590.187 147.606,-576.181"/>
<polygon fill="midnightblue" stroke="midnightblue" points="149.065,-572.996 138.569,-571.55 145.873,-579.225 149.065,-572.996"/>
</g>
<!-- Node24 -->
<g id="node59" class="node"><title>Node24</title>
<a xlink:href="MojString_8h.htm" target="_top" xlink:title="core/MojString.h">
<polygon fill="white" stroke="black" points="262,-608.5 262,-629.5 356,-629.5 356,-608.5 262,-608.5"/>
<text text-anchor="middle" x="309" y="-616.5" font-family="Helvetica,sans-Serif" font-size="10.00">core/MojString.h</text>
</a>
</g>
<!-- Node19&#45;&gt;Node24 -->
<g id="edge70" class="edge"><title>Node19&#45;&gt;Node24</title>
<path fill="none" stroke="midnightblue" d="M339.214,-666.362C334.207,-658.513 327.255,-647.616 321.282,-638.253"/>
<polygon fill="midnightblue" stroke="midnightblue" points="324.072,-636.119 315.743,-629.571 318.171,-639.884 324.072,-636.119"/>
</g>
<!-- Node19&#45;&gt;Node25 -->
<g id="edge102" class="edge"><title>Node19&#45;&gt;Node25</title>
<path fill="none" stroke="midnightblue" d="M350.735,-666.306C354.816,-656.865 360.71,-642.671 365,-630 370.407,-614.027 375.422,-595.597 378.94,-581.805"/>
<polygon fill="midnightblue" stroke="midnightblue" points="382.392,-582.423 381.419,-571.873 375.601,-580.728 382.392,-582.423"/>
</g>
<!-- Node20&#45;&gt;Node3 -->
<g id="edge54" class="edge"><title>Node20&#45;&gt;Node3</title>
<path fill="none" stroke="midnightblue" d="M111.621,-550.231C99.8717,-529.345 76,-481.55 76,-438 76,-438 76,-438 76,-373 76,-334.6 71.5162,-315.753 100,-290 127.522,-265.116 224.828,-252.842 291.484,-247.224"/>
<polygon fill="midnightblue" stroke="midnightblue" points="291.81,-250.709 301.494,-246.41 291.243,-243.732 291.81,-250.709"/>
</g>
<!-- Node21 -->
<g id="node49" class="node"><title>Node21</title>
<a xlink:href="MojHasher_8h.htm" target="_top" xlink:title="core/MojHasher.h">
<polygon fill="white" stroke="black" points="141.5,-492.5 141.5,-513.5 242.5,-513.5 242.5,-492.5 141.5,-492.5"/>
<text text-anchor="middle" x="192" y="-500.5" font-family="Helvetica,sans-Serif" font-size="10.00">core/MojHasher.h</text>
</a>
</g>
<!-- Node20&#45;&gt;Node21 -->
<g id="edge56" class="edge"><title>Node20&#45;&gt;Node21</title>
<path fill="none" stroke="midnightblue" d="M131.573,-550.362C142.421,-541.859 157.834,-529.779 170.379,-519.947"/>
<polygon fill="midnightblue" stroke="midnightblue" points="172.802,-522.494 178.513,-513.571 168.484,-516.985 172.802,-522.494"/>
</g>
<!-- Node21&#45;&gt;Node3 -->
<g id="edge58" class="edge"><title>Node21&#45;&gt;Node3</title>
<path fill="none" stroke="midnightblue" d="M188.061,-492.075C176.411,-457.634 146.017,-350.068 197,-290 209.554,-275.209 252.817,-263.023 291.193,-254.768"/>
<polygon fill="midnightblue" stroke="midnightblue" points="292.265,-258.12 301.339,-252.651 290.835,-251.268 292.265,-258.12"/>
</g>
<!-- Node22 -->
<g id="node52" class="node"><title>Node22</title>
<a xlink:href="MojUtil_8h.htm" target="_top" xlink:title="core/MojUtil.h">
<polygon fill="white" stroke="black" points="189.5,-427.5 189.5,-448.5 270.5,-448.5 270.5,-427.5 189.5,-427.5"/>
<text text-anchor="middle" x="230" y="-435.5" font-family="Helvetica,sans-Serif" font-size="10.00">core/MojUtil.h</text>
</a>
</g>
<!-- Node21&#45;&gt;Node22 -->
<g id="edge60" class="edge"><title>Node21&#45;&gt;Node22</title>
<path fill="none" stroke="midnightblue" d="M198.275,-492.267C203.808,-482.801 212.007,-468.777 218.684,-457.357"/>
<polygon fill="midnightblue" stroke="midnightblue" points="221.816,-458.933 223.842,-448.534 215.773,-455.4 221.816,-458.933"/>
</g>
<!-- Node22&#45;&gt;Node3 -->
<g id="edge62" class="edge"><title>Node22&#45;&gt;Node3</title>
<path fill="none" stroke="midnightblue" d="M224.461,-427.447C211.6,-401.331 183.083,-332.706 214,-290 223.973,-276.225 260.767,-264.308 294.533,-255.92"/>
<polygon fill="midnightblue" stroke="midnightblue" points="295.512,-259.285 304.415,-253.541 293.874,-252.479 295.512,-259.285"/>
</g>
<!-- Node23 -->
<g id="node55" class="node"><title>Node23</title>
<a xlink:href="MojUtilInternal_8h.htm" target="_top" xlink:title="core/internal/MojUtilInternal.h">
<polygon fill="white" stroke="black" points="255.5,-362.5 255.5,-383.5 410.5,-383.5 410.5,-362.5 255.5,-362.5"/>
<text text-anchor="middle" x="333" y="-370.5" font-family="Helvetica,sans-Serif" font-size="10.00">core/internal/MojUtilInternal.h</text>
</a>
</g>
<!-- Node22&#45;&gt;Node23 -->
<g id="edge64" class="edge"><title>Node22&#45;&gt;Node23</title>
<path fill="none" stroke="midnightblue" d="M247.008,-427.267C263.507,-416.855 288.747,-400.927 307.62,-389.016"/>
<polygon fill="midnightblue" stroke="midnightblue" points="309.719,-391.83 316.308,-383.534 305.983,-385.911 309.719,-391.83"/>
</g>
<!-- Node23&#45;&gt;Node14 -->
<g id="edge66" class="edge"><title>Node23&#45;&gt;Node14</title>
<path fill="none" stroke="midnightblue" d="M336.963,-362.267C340.388,-352.991 345.43,-339.336 349.599,-328.045"/>
<polygon fill="midnightblue" stroke="midnightblue" points="352.93,-329.127 353.111,-318.534 346.363,-326.702 352.93,-329.127"/>
</g>
<!-- Node24&#45;&gt;Node3 -->
<g id="edge72" class="edge"><title>Node24&#45;&gt;Node3</title>
<path fill="none" stroke="midnightblue" d="M289.27,-608.353C245.571,-584.615 143.635,-528.316 133,-514 112.237,-486.051 114,-472.817 114,-438 114,-438 114,-438 114,-373 114,-292.347 219.364,-261.543 291.332,-249.91"/>
<polygon fill="midnightblue" stroke="midnightblue" points="291.895,-253.365 301.251,-248.393 290.837,-246.445 291.895,-253.365"/>
</g>
<!-- Node24&#45;&gt;Node14 -->
<g id="edge76" class="edge"><title>Node24&#45;&gt;Node14</title>
<path fill="none" stroke="midnightblue" d="M310.894,-608.453C313.558,-594.689 318.997,-570 327,-550 334.834,-530.422 413.721,-404.416 419,-384 421.448,-374.534 423.051,-370.899 419,-362 411.937,-346.483 397.969,-333.691 385.077,-324.458"/>
<polygon fill="midnightblue" stroke="midnightblue" points="386.674,-321.315 376.421,-318.646 382.771,-327.126 386.674,-321.315"/>
</g>
<!-- Node24&#45;&gt;Node16 -->
<g id="edge74" class="edge"><title>Node24&#45;&gt;Node16</title>
<path fill="none" stroke="midnightblue" d="M355.737,-608.448C428.575,-590.943 563.678,-553.858 591,-514 596.528,-505.935 596.964,-499.748 591,-492 552.861,-442.452 493.139,-505.548 455,-456 445.241,-443.321 445.264,-432.696 455,-420 469.06,-401.666 524.601,-388.897 569.392,-381.344"/>
<polygon fill="midnightblue" stroke="midnightblue" points="570.041,-384.784 579.347,-379.719 568.914,-377.876 570.041,-384.784"/>
</g>
<!-- Node24&#45;&gt;Node21 -->
<g id="edge78" class="edge"><title>Node24&#45;&gt;Node21</title>
<path fill="none" stroke="midnightblue" d="M298.203,-608.295C278.09,-588.355 234.702,-545.337 210.06,-520.906"/>
<polygon fill="midnightblue" stroke="midnightblue" points="212.337,-518.234 202.771,-513.679 207.408,-523.205 212.337,-518.234"/>
</g>
<!-- Node24&#45;&gt;Node25 -->
<g id="edge80" class="edge"><title>Node24&#45;&gt;Node25</title>
<path fill="none" stroke="midnightblue" d="M322.756,-608.362C333.751,-599.859 349.373,-587.779 362.086,-577.947"/>
<polygon fill="midnightblue" stroke="midnightblue" points="364.562,-580.457 370.331,-571.571 360.279,-574.919 364.562,-580.457"/>
</g>
<!-- Node25&#45;&gt;Node3 -->
<g id="edge82" class="edge"><title>Node25&#45;&gt;Node3</title>
<path fill="none" stroke="midnightblue" d="M376.405,-550.147C359.525,-526.175 317.35,-467.098 279,-420 265.483,-403.4 254.608,-404.01 247,-384 227.081,-331.61 289.957,-282.992 328.761,-258.879"/>
<polygon fill="midnightblue" stroke="midnightblue" points="330.82,-261.725 337.575,-253.563 327.204,-255.731 330.82,-261.725"/>
</g>
<!-- Node25&#45;&gt;Node14 -->
<g id="edge84" class="edge"><title>Node25&#45;&gt;Node14</title>
<path fill="none" stroke="midnightblue" d="M385.305,-550.17C388.583,-525.747 398.631,-464.999 422,-420 435.376,-394.244 466.595,-387.085 452,-362 445.093,-350.13 415.613,-334.414 391.302,-322.999"/>
<polygon fill="midnightblue" stroke="midnightblue" points="392.506,-319.701 381.958,-318.7 389.579,-326.06 392.506,-319.701"/>
</g>
<!-- Node25&#45;&gt;Node22 -->
<g id="edge98" class="edge"><title>Node25&#45;&gt;Node22</title>
<path fill="none" stroke="midnightblue" d="M370.603,-550.3C343.867,-528.946 283.693,-480.885 251.417,-455.106"/>
<polygon fill="midnightblue" stroke="midnightblue" points="253.474,-452.269 243.476,-448.763 249.105,-457.739 253.474,-452.269"/>
</g>
<!-- Node26 -->
<g id="node69" class="node"><title>Node26</title>
<a xlink:href="MojRefCount_8h.htm" target="_top" xlink:title="core/MojRefCount.h">
<polygon fill="white" stroke="black" points="638,-492.5 638,-513.5 748,-513.5 748,-492.5 638,-492.5"/>
<text text-anchor="middle" x="693" y="-500.5" font-family="Helvetica,sans-Serif" font-size="10.00">core/MojRefCount.h</text>
</a>
</g>
<!-- Node25&#45;&gt;Node26 -->
<g id="edge86" class="edge"><title>Node25&#45;&gt;Node26</title>
<path fill="none" stroke="midnightblue" d="M432.621,-551.874C485.319,-541.982 569.681,-526.147 628.031,-515.195"/>
<polygon fill="midnightblue" stroke="midnightblue" points="628.702,-518.63 637.885,-513.345 627.411,-511.75 628.702,-518.63"/>
</g>
<!-- Node28 -->
<g id="node78" class="node"><title>Node28</title>
<a xlink:href="MojVectorInternal_8h.htm" target="_top" xlink:title="core/internal/MojVectorInternal.h">
<polygon fill="white" stroke="black" points="411.5,-492.5 411.5,-513.5 582.5,-513.5 582.5,-492.5 411.5,-492.5"/>
<text text-anchor="middle" x="497" y="-500.5" font-family="Helvetica,sans-Serif" font-size="10.00">core/internal/MojVectorInternal.h</text>
</a>
</g>
<!-- Node25&#45;&gt;Node28 -->
<g id="edge100" class="edge"><title>Node25&#45;&gt;Node28</title>
<path fill="none" stroke="midnightblue" d="M404.463,-550.497C422.033,-541.479 447.582,-528.365 467.385,-518.201"/>
<polygon fill="midnightblue" stroke="midnightblue" points="469.009,-521.301 476.307,-513.621 465.812,-515.074 469.009,-521.301"/>
</g>
<!-- Node26&#45;&gt;Node3 -->
<g id="edge88" class="edge"><title>Node26&#45;&gt;Node3</title>
<path fill="none" stroke="midnightblue" d="M700.018,-492.056C721.176,-457.56 779.728,-349.849 727,-290 707.265,-267.6 523.955,-253.082 422.982,-246.715"/>
<polygon fill="midnightblue" stroke="midnightblue" points="423.077,-243.214 412.88,-246.088 422.644,-250.201 423.077,-243.214"/>
</g>
<!-- Node26&#45;&gt;Node16 -->
<g id="edge92" class="edge"><title>Node26&#45;&gt;Node16</title>
<path fill="none" stroke="midnightblue" d="M682.628,-492.222C674.415,-483.18 663.169,-469.595 656,-456 645.485,-436.058 638.392,-411.147 634.305,-393.845"/>
<polygon fill="midnightblue" stroke="midnightblue" points="637.637,-392.704 632.048,-383.703 630.804,-394.224 637.637,-392.704"/>
</g>
<!-- Node26&#45;&gt;Node17 -->
<g id="edge90" class="edge"><title>Node26&#45;&gt;Node17</title>
<path fill="none" stroke="midnightblue" d="M694.206,-492.185C696.545,-468.288 700.515,-409.353 689,-362 686.087,-350.019 680.299,-337.559 674.923,-327.631"/>
<polygon fill="midnightblue" stroke="midnightblue" points="677.8,-325.611 669.806,-318.659 671.72,-329.079 677.8,-325.611"/>
</g>
<!-- Node27 -->
<g id="node74" class="node"><title>Node27</title>
<a xlink:href="MojRefCountInternal_8h.htm" target="_top" xlink:title="core/internal/MojRefCount\lInternal.h">
<polygon fill="white" stroke="black" points="464,-421 464,-455 604,-455 604,-421 464,-421"/>
<text text-anchor="start" x="472" y="-442" font-family="Helvetica,sans-Serif" font-size="10.00">core/internal/MojRefCount</text>
<text text-anchor="middle" x="534" y="-429" font-family="Helvetica,sans-Serif" font-size="10.00">Internal.h</text>
</a>
</g>
<!-- Node26&#45;&gt;Node27 -->
<g id="edge94" class="edge"><title>Node26&#45;&gt;Node27</title>
<path fill="none" stroke="midnightblue" d="M667.1,-492.412C644.981,-483.37 612.5,-470.091 585.162,-458.915"/>
<polygon fill="midnightblue" stroke="midnightblue" points="586.313,-455.605 575.732,-455.06 583.664,-462.084 586.313,-455.605"/>
</g>
<!-- Node27&#45;&gt;Node23 -->
<g id="edge96" class="edge"><title>Node27&#45;&gt;Node23</title>
<path fill="none" stroke="midnightblue" d="M481.19,-420.922C448.129,-410.231 406.104,-396.641 375.258,-386.665"/>
<polygon fill="midnightblue" stroke="midnightblue" points="376.253,-383.309 365.661,-383.562 374.099,-389.969 376.253,-383.309"/>
</g>
<!-- Node29&#45;&gt;Node3 -->
<g id="edge106" class="edge"><title>Node29&#45;&gt;Node3</title>
<path fill="none" stroke="midnightblue" d="M973.26,-501.894C1040.47,-499.127 1168.93,-489.481 1197,-456 1207.28,-443.738 1206,-433.23 1197,-420 1108.58,-289.994 1020.94,-326.457 868,-290 785.161,-270.253 541.067,-253.788 422.764,-246.716"/>
<polygon fill="midnightblue" stroke="midnightblue" points="422.937,-243.22 412.747,-246.122 422.522,-250.208 422.937,-243.22"/>
</g>
<!-- Node29&#45;&gt;Node14 -->
<g id="edge108" class="edge"><title>Node29&#45;&gt;Node14</title>
<path fill="none" stroke="midnightblue" d="M899.051,-492.46C815.964,-465.837 602.284,-397.067 571,-384 551.191,-375.726 547.909,-370.029 528,-362 476.754,-341.333 461.563,-343.041 409,-326 404.962,-324.691 400.758,-323.294 396.569,-321.879"/>
<polygon fill="midnightblue" stroke="midnightblue" points="397.499,-318.498 386.904,-318.578 395.236,-325.122 397.499,-318.498"/>
</g>
<!-- Node29&#45;&gt;Node15 -->
<g id="edge110" class="edge"><title>Node29&#45;&gt;Node15</title>
<path fill="none" stroke="midnightblue" d="M932,-492.267C932,-483.18 932,-469.892 932,-458.74"/>
<polygon fill="midnightblue" stroke="midnightblue" points="935.5,-458.534 932,-448.534 928.5,-458.534 935.5,-458.534"/>
</g>
<!-- Node30 -->
<g id="node86" class="node"><title>Node30</title>
<a xlink:href="MojSetInternal_8h.htm" target="_top" xlink:title="core/internal/MojSetInternal.h">
<polygon fill="white" stroke="black" points="1032,-427.5 1032,-448.5 1188,-448.5 1188,-427.5 1032,-427.5"/>
<text text-anchor="middle" x="1110" y="-435.5" font-family="Helvetica,sans-Serif" font-size="10.00">core/internal/MojSetInternal.h</text>
</a>
</g>
<!-- Node29&#45;&gt;Node30 -->
<g id="edge112" class="edge"><title>Node29&#45;&gt;Node30</title>
<path fill="none" stroke="midnightblue" d="M960.995,-492.412C990.992,-481.458 1038.01,-464.288 1071.2,-452.17"/>
<polygon fill="midnightblue" stroke="midnightblue" points="1072.82,-455.301 1081.02,-448.584 1070.42,-448.726 1072.82,-455.301"/>
</g>
</g>
</svg>
