<?xml version="1.0" encoding="UTF-8" standalone="no"?>
<!DOCTYPE svg PUBLIC "-//W3C//DTD SVG 1.1//EN"
 "http://www.w3.org/Graphics/SVG/1.1/DTD/svg11.dtd">
<!-- Generated by graphviz version 2.26.3 (20100126.1600)
 -->
<!-- Title: MojService.h Pages: 1 -->
<svg width="1487pt" height="320pt"
 viewBox="0.00 0.00 1487.00 320.00" xmlns="http://www.w3.org/2000/svg" xmlns:xlink="http://www.w3.org/1999/xlink">
<g id="graph1" class="graph" transform="scale(1 1) rotate(0) translate(4 316)">
<title>MojService.h</title>
<polygon fill="white" stroke="white" points="-4,5 -4,-316 1484,-316 1484,5 -4,5"/>
<!-- Node1 -->
<g id="node1" class="node"><title>Node1</title>
<polygon fill="#bfbfbf" stroke="black" points="851.5,-290.5 851.5,-311.5 928.5,-311.5 928.5,-290.5 851.5,-290.5"/>
<text text-anchor="middle" x="890" y="-298.5" font-family="Helvetica,sans-Serif" font-size="10.00">MojService.h</text>
</g>
<!-- Node2 -->
<g id="node3" class="node"><title>Node2</title>
<a xlink:href="MojServiceMessage_8h.htm" target="_top" xlink:title="MojServiceMessage.h">
<polygon fill="white" stroke="black" points="447.5,-232.5 447.5,-253.5 568.5,-253.5 568.5,-232.5 447.5,-232.5"/>
<text text-anchor="middle" x="508" y="-240.5" font-family="Helvetica,sans-Serif" font-size="10.00">MojServiceMessage.h</text>
</a>
</g>
<!-- Node1&#45;&gt;Node2 -->
<g id="edge2" class="edge"><title>Node1&#45;&gt;Node2</title>
<path fill="none" stroke="midnightblue" d="M841.031,-293.565C771.487,-283.006 644.197,-263.679 568.732,-252.221"/>
<polygon fill="midnightblue" stroke="midnightblue" points="840.857,-297.079 851.27,-295.119 841.908,-290.158 840.857,-297.079"/>
</g>
<!-- Node5 -->
<g id="node9" class="node"><title>Node5</title>
<a xlink:href="MojSocketService_8h.htm" target="_top" xlink:title="MojSocketService.h">
<polygon fill="white" stroke="black" points="884,-58.5 884,-79.5 994,-79.5 994,-58.5 884,-58.5"/>
<text text-anchor="middle" x="939" y="-66.5" font-family="Helvetica,sans-Serif" font-size="10.00">MojSocketService.h</text>
</a>
</g>
<!-- Node1&#45;&gt;Node5 -->
<g id="edge56" class="edge"><title>Node1&#45;&gt;Node5</title>
<path fill="none" stroke="midnightblue" d="M932.015,-286.839C989.111,-265.045 1088.91,-217.288 1131,-138 1135.58,-129.364 1137.04,-123.692 1131,-116 1114.21,-94.6046 1044.61,-81.686 994.031,-74.9491"/>
<polygon fill="midnightblue" stroke="midnightblue" points="930.704,-283.592 922.554,-290.361 933.146,-290.152 930.704,-283.592"/>
</g>
<!-- Node9 -->
<g id="node18" class="node"><title>Node9</title>
<a xlink:href="MojDbServiceHandlerBase_8h.htm" target="_top" xlink:title="MojDbServiceHandlerBase.h">
<polygon fill="white" stroke="black" points="228,-174.5 228,-195.5 380,-195.5 380,-174.5 228,-174.5"/>
<text text-anchor="middle" x="304" y="-182.5" font-family="Helvetica,sans-Serif" font-size="10.00">MojDbServiceHandlerBase.h</text>
</a>
</g>
<!-- Node1&#45;&gt;Node9 -->
<g id="edge58" class="edge"><title>Node1&#45;&gt;Node9</title>
<path fill="none" stroke="midnightblue" d="M841.065,-298.175C740.404,-291.995 513.355,-276.04 439,-254 393.07,-240.386 344.214,-211.254 319.806,-195.55"/>
<polygon fill="midnightblue" stroke="midnightblue" points="841.071,-301.682 851.264,-298.795 841.495,-294.695 841.071,-301.682"/>
</g>
<!-- Node16 -->
<g id="node33" class="node"><title>Node16</title>
<a xlink:href="MojDbServiceHandlerInternal_8h.htm" target="_top" xlink:title="MojDbServiceHandlerInternal.h">
<polygon fill="white" stroke="black" points="476,-116.5 476,-137.5 640,-137.5 640,-116.5 476,-116.5"/>
<text text-anchor="middle" x="558" y="-124.5" font-family="Helvetica,sans-Serif" font-size="10.00">MojDbServiceHandlerInternal.h</text>
</a>
</g>
<!-- Node1&#45;&gt;Node16 -->
<g id="edge60" class="edge"><title>Node1&#45;&gt;Node16</title>
<path fill="none" stroke="midnightblue" d="M841.211,-290.252C783.457,-275.823 686.264,-246.043 616,-196 593.183,-179.75 573.918,-152.49 564.393,-137.562"/>
<polygon fill="midnightblue" stroke="midnightblue" points="840.629,-293.712 851.174,-292.686 842.29,-286.912 840.629,-293.712"/>
</g>
<!-- Node21 -->
<g id="node47" class="node"><title>Node21</title>
<a xlink:href="MojService_8cpp.htm" target="_top" xlink:title="MojService.cpp">
<polygon fill="white" stroke="black" points="121.5,-174.5 121.5,-195.5 210.5,-195.5 210.5,-174.5 121.5,-174.5"/>
<text text-anchor="middle" x="166" y="-182.5" font-family="Helvetica,sans-Serif" font-size="10.00">MojService.cpp</text>
</a>
</g>
<!-- Node1&#45;&gt;Node21 -->
<g id="edge74" class="edge"><title>Node1&#45;&gt;Node21</title>
<path fill="none" stroke="midnightblue" d="M841.223,-300.029C749.973,-297.435 547.613,-288.002 381,-254 311.286,-239.773 232.353,-211.036 192.315,-195.515"/>
<polygon fill="midnightblue" stroke="midnightblue" points="841.179,-303.529 851.27,-300.299 841.368,-296.531 841.179,-303.529"/>
</g>
<!-- Node23 -->
<g id="node54" class="node"><title>Node23</title>
<a xlink:href="MojLunaService_8h.htm" target="_top" xlink:title="MojLunaService.h">
<polygon fill="white" stroke="black" points="839.5,-232.5 839.5,-253.5 940.5,-253.5 940.5,-232.5 839.5,-232.5"/>
<text text-anchor="middle" x="890" y="-240.5" font-family="Helvetica,sans-Serif" font-size="10.00">MojLunaService.h</text>
</a>
</g>
<!-- Node1&#45;&gt;Node23 -->
<g id="edge62" class="edge"><title>Node1&#45;&gt;Node23</title>
<path fill="none" stroke="midnightblue" d="M890,-280.191C890,-271.168 890,-260.994 890,-253.571"/>
<polygon fill="midnightblue" stroke="midnightblue" points="886.5,-280.362 890,-290.362 893.5,-280.362 886.5,-280.362"/>
</g>
<!-- Node24 -->
<g id="node62" class="node"><title>Node24</title>
<a xlink:href="MojServiceRequest_8cpp.htm" target="_top" xlink:title="MojServiceRequest.cpp">
<polygon fill="white" stroke="black" points="1065,-232.5 1065,-253.5 1193,-253.5 1193,-232.5 1065,-232.5"/>
<text text-anchor="middle" x="1129" y="-240.5" font-family="Helvetica,sans-Serif" font-size="10.00">MojServiceRequest.cpp</text>
</a>
</g>
<!-- Node1&#45;&gt;Node24 -->
<g id="edge76" class="edge"><title>Node1&#45;&gt;Node24</title>
<path fill="none" stroke="midnightblue" d="M938.638,-289.197C981.732,-278.739 1044.07,-263.61 1085.53,-253.549"/>
<polygon fill="midnightblue" stroke="midnightblue" points="937.558,-285.857 928.665,-291.617 939.208,-292.66 937.558,-285.857"/>
</g>
<!-- Node25 -->
<g id="node64" class="node"><title>Node25</title>
<a xlink:href="MojDbServiceClient_8cpp.htm" target="_top" xlink:title="MojDbServiceClient.cpp">
<polygon fill="white" stroke="black" points="1211,-232.5 1211,-253.5 1339,-253.5 1339,-232.5 1211,-232.5"/>
<text text-anchor="middle" x="1275" y="-240.5" font-family="Helvetica,sans-Serif" font-size="10.00">MojDbServiceClient.cpp</text>
</a>
</g>
<!-- Node1&#45;&gt;Node25 -->
<g id="edge78" class="edge"><title>Node1&#45;&gt;Node25</title>
<path fill="none" stroke="midnightblue" d="M938.852,-293.64C1007.95,-283.231 1134.33,-264.192 1210.9,-252.657"/>
<polygon fill="midnightblue" stroke="midnightblue" points="938.045,-290.222 928.678,-295.173 939.088,-297.144 938.045,-290.222"/>
</g>
<!-- Node26 -->
<g id="node66" class="node"><title>Node26</title>
<a xlink:href="MojDbServiceDefs_8cpp.htm" target="_top" xlink:title="MojDbServiceDefs.cpp">
<polygon fill="white" stroke="black" points="1356.5,-232.5 1356.5,-253.5 1479.5,-253.5 1479.5,-232.5 1356.5,-232.5"/>
<text text-anchor="middle" x="1418" y="-240.5" font-family="Helvetica,sans-Serif" font-size="10.00">MojDbServiceDefs.cpp</text>
</a>
</g>
<!-- Node1&#45;&gt;Node26 -->
<g id="edge80" class="edge"><title>Node1&#45;&gt;Node26</title>
<path fill="none" stroke="midnightblue" d="M938.672,-296.869C1022.45,-289.566 1199.24,-273.307 1348,-254 1350.68,-253.652 1353.42,-253.282 1356.19,-252.897"/>
<polygon fill="midnightblue" stroke="midnightblue" points="938.344,-293.384 928.684,-297.736 938.949,-300.358 938.344,-293.384"/>
</g>
<!-- Node3 -->
<g id="node5" class="node"><title>Node3</title>
<a xlink:href="MojSocketMessage_8h.htm" target="_top" xlink:title="MojSocketMessage.h">
<polygon fill="white" stroke="black" points="700,-174.5 700,-195.5 818,-195.5 818,-174.5 700,-174.5"/>
<text text-anchor="middle" x="759" y="-182.5" font-family="Helvetica,sans-Serif" font-size="10.00">MojSocketMessage.h</text>
</a>
</g>
<!-- Node2&#45;&gt;Node3 -->
<g id="edge4" class="edge"><title>Node2&#45;&gt;Node3</title>
<path fill="none" stroke="midnightblue" d="M563.358,-230.208C608.427,-219.794 671.273,-205.272 713.461,-195.523"/>
<polygon fill="midnightblue" stroke="midnightblue" points="562.409,-226.835 553.454,-232.497 563.985,-233.655 562.409,-226.835"/>
</g>
<!-- Node2&#45;&gt;Node9 -->
<g id="edge18" class="edge"><title>Node2&#45;&gt;Node9</title>
<path fill="none" stroke="midnightblue" d="M461.149,-229.68C424.666,-219.307 374.724,-205.108 341.012,-195.523"/>
<polygon fill="midnightblue" stroke="midnightblue" points="460.481,-233.128 471.057,-232.497 462.396,-226.395 460.481,-233.128"/>
</g>
<!-- Node2&#45;&gt;Node16 -->
<g id="edge44" class="edge"><title>Node2&#45;&gt;Node16</title>
<path fill="none" stroke="midnightblue" d="M522.389,-224.165C528.192,-215.875 534.552,-205.806 539,-196 547.932,-176.312 553.499,-151.511 556.15,-137.643"/>
<polygon fill="midnightblue" stroke="midnightblue" points="519.476,-222.22 516.428,-232.367 525.138,-226.336 519.476,-222.22"/>
</g>
<!-- Node18 -->
<g id="node41" class="node"><title>Node18</title>
<a xlink:href="MojLunaMessage_8h.htm" target="_top" xlink:title="MojLunaMessage.h">
<polygon fill="white" stroke="black" points="835.5,-174.5 835.5,-195.5 944.5,-195.5 944.5,-174.5 835.5,-174.5"/>
<text text-anchor="middle" x="890" y="-182.5" font-family="Helvetica,sans-Serif" font-size="10.00">MojLunaMessage.h</text>
</a>
</g>
<!-- Node2&#45;&gt;Node18 -->
<g id="edge46" class="edge"><title>Node2&#45;&gt;Node18</title>
<path fill="none" stroke="midnightblue" d="M578.722,-233.13C643.42,-223.97 741.749,-209.72 827,-196 829.74,-195.559 832.547,-195.099 835.379,-194.628"/>
<polygon fill="midnightblue" stroke="midnightblue" points="578.047,-229.69 568.635,-234.555 579.026,-236.622 578.047,-229.69"/>
</g>
<!-- Node2&#45;&gt;Node21 -->
<g id="edge52" class="edge"><title>Node2&#45;&gt;Node21</title>
<path fill="none" stroke="midnightblue" d="M437.361,-232.389C378.758,-223.375 293.302,-209.746 219,-196 216.228,-195.487 213.377,-194.943 210.505,-194.383"/>
<polygon fill="midnightblue" stroke="midnightblue" points="436.84,-235.85 447.255,-233.906 437.901,-228.931 436.84,-235.85"/>
</g>
<!-- Node22 -->
<g id="node49" class="node"><title>Node22</title>
<a xlink:href="MojServiceMessage_8cpp.htm" target="_top" xlink:title="MojServiceMessage.cpp">
<polygon fill="white" stroke="black" points="398,-174.5 398,-195.5 530,-195.5 530,-174.5 398,-174.5"/>
<text text-anchor="middle" x="464" y="-182.5" font-family="Helvetica,sans-Serif" font-size="10.00">MojServiceMessage.cpp</text>
</a>
</g>
<!-- Node2&#45;&gt;Node22 -->
<g id="edge54" class="edge"><title>Node2&#45;&gt;Node22</title>
<path fill="none" stroke="midnightblue" d="M493.776,-224.25C486.569,-214.75 478.084,-203.565 472.019,-195.571"/>
<polygon fill="midnightblue" stroke="midnightblue" points="491.097,-226.51 499.93,-232.362 496.674,-222.28 491.097,-226.51"/>
</g>
<!-- Node4 -->
<g id="node7" class="node"><title>Node4</title>
<a xlink:href="MojSocketEncoding_8h.htm" target="_top" xlink:title="MojSocketEncoding.h">
<polygon fill="white" stroke="black" points="735.5,-116.5 735.5,-137.5 854.5,-137.5 854.5,-116.5 735.5,-116.5"/>
<text text-anchor="middle" x="795" y="-124.5" font-family="Helvetica,sans-Serif" font-size="10.00">MojSocketEncoding.h</text>
</a>
</g>
<!-- Node3&#45;&gt;Node4 -->
<g id="edge6" class="edge"><title>Node3&#45;&gt;Node4</title>
<path fill="none" stroke="midnightblue" d="M771,-165.667C776.817,-156.295 783.578,-145.402 788.439,-137.571"/>
<polygon fill="midnightblue" stroke="midnightblue" points="767.903,-164.02 765.603,-174.362 773.85,-167.711 767.903,-164.02"/>
</g>
<!-- Node6 -->
<g id="node11" class="node"><title>Node6</title>
<a xlink:href="MojSocketMessage_8cpp.htm" target="_top" xlink:title="MojSocketMessage.cpp">
<polygon fill="white" stroke="black" points="687.5,-0.5 687.5,-21.5 816.5,-21.5 816.5,-0.5 687.5,-0.5"/>
<text text-anchor="middle" x="752" y="-8.5" font-family="Helvetica,sans-Serif" font-size="10.00">MojSocketMessage.cpp</text>
</a>
</g>
<!-- Node3&#45;&gt;Node6 -->
<g id="edge16" class="edge"><title>Node3&#45;&gt;Node6</title>
<path fill="none" stroke="midnightblue" d="M742.545,-166.407C736.404,-158.272 730.159,-148.253 727,-138 716.531,-104.021 718.396,-92.4987 727,-58 730.355,-44.5487 738.361,-30.7245 744.417,-21.5825"/>
<polygon fill="midnightblue" stroke="midnightblue" points="740.009,-168.839 749.016,-174.418 745.454,-164.44 740.009,-168.839"/>
</g>
<!-- Node4&#45;&gt;Node5 -->
<g id="edge8" class="edge"><title>Node4&#45;&gt;Node5</title>
<path fill="none" stroke="midnightblue" d="M830.377,-112.751C855.806,-102.509 889.542,-88.9206 912.63,-79.6212"/>
<polygon fill="midnightblue" stroke="midnightblue" points="829.046,-109.514 821.077,-116.497 831.661,-116.007 829.046,-109.514"/>
</g>
<!-- Node8 -->
<g id="node15" class="node"><title>Node8</title>
<a xlink:href="MojSocketEncoding_8cpp.htm" target="_top" xlink:title="MojSocketEncoding.cpp">
<polygon fill="white" stroke="black" points="736,-58.5 736,-79.5 866,-79.5 866,-58.5 736,-58.5"/>
<text text-anchor="middle" x="801" y="-66.5" font-family="Helvetica,sans-Serif" font-size="10.00">MojSocketEncoding.cpp</text>
</a>
</g>
<!-- Node4&#45;&gt;Node8 -->
<g id="edge14" class="edge"><title>Node4&#45;&gt;Node8</title>
<path fill="none" stroke="midnightblue" d="M797.153,-106.191C798.086,-97.1684 799.139,-86.9941 799.906,-79.5707"/>
<polygon fill="midnightblue" stroke="midnightblue" points="793.648,-106.055 796.1,-116.362 800.611,-106.775 793.648,-106.055"/>
</g>
<!-- Node5&#45;&gt;Node6 -->
<g id="edge10" class="edge"><title>Node5&#45;&gt;Node6</title>
<path fill="none" stroke="midnightblue" d="M895.193,-55.4127C861.829,-45.0646 816.566,-31.0258 785.928,-21.5231"/>
<polygon fill="midnightblue" stroke="midnightblue" points="894.548,-58.8771 905.136,-58.4966 896.621,-52.1913 894.548,-58.8771"/>
</g>
<!-- Node7 -->
<g id="node13" class="node"><title>Node7</title>
<a xlink:href="MojSocketService_8cpp.htm" target="_top" xlink:title="MojSocketService.cpp">
<polygon fill="white" stroke="black" points="878.5,-0.5 878.5,-21.5 999.5,-21.5 999.5,-0.5 878.5,-0.5"/>
<text text-anchor="middle" x="939" y="-8.5" font-family="Helvetica,sans-Serif" font-size="10.00">MojSocketService.cpp</text>
</a>
</g>
<!-- Node5&#45;&gt;Node7 -->
<g id="edge12" class="edge"><title>Node5&#45;&gt;Node7</title>
<path fill="none" stroke="midnightblue" d="M939,-48.1906C939,-39.1684 939,-28.9941 939,-21.5707"/>
<polygon fill="midnightblue" stroke="midnightblue" points="935.5,-48.3619 939,-58.3619 942.5,-48.3619 935.5,-48.3619"/>
</g>
<!-- Node10 -->
<g id="node20" class="node"><title>Node10</title>
<a xlink:href="MojDbServiceHandler_8h.htm" target="_top" xlink:title="MojDbServiceHandler.h">
<polygon fill="white" stroke="black" points="240,-116.5 240,-137.5 368,-137.5 368,-116.5 240,-116.5"/>
<text text-anchor="middle" x="304" y="-124.5" font-family="Helvetica,sans-Serif" font-size="10.00">MojDbServiceHandler.h</text>
</a>
</g>
<!-- Node9&#45;&gt;Node10 -->
<g id="edge20" class="edge"><title>Node9&#45;&gt;Node10</title>
<path fill="none" stroke="midnightblue" d="M304,-164.191C304,-155.168 304,-144.994 304,-137.571"/>
<polygon fill="midnightblue" stroke="midnightblue" points="300.5,-164.362 304,-174.362 307.5,-164.362 300.5,-164.362"/>
</g>
<!-- Node9&#45;&gt;Node16 -->
<g id="edge34" class="edge"><title>Node9&#45;&gt;Node16</title>
<path fill="none" stroke="midnightblue" d="M360.02,-172.208C405.627,-161.794 469.224,-147.272 511.916,-137.523"/>
<polygon fill="midnightblue" stroke="midnightblue" points="358.967,-168.858 349.997,-174.497 360.526,-175.683 358.967,-168.858"/>
</g>
<!-- Node17 -->
<g id="node38" class="node"><title>Node17</title>
<a xlink:href="MojDbServiceHandlerBase_8cpp.htm" target="_top" xlink:title="MojDbServiceHandlerBase.cpp">
<polygon fill="white" stroke="black" points="59.5,-116.5 59.5,-137.5 222.5,-137.5 222.5,-116.5 59.5,-116.5"/>
<text text-anchor="middle" x="141" y="-124.5" font-family="Helvetica,sans-Serif" font-size="10.00">MojDbServiceHandlerBase.cpp</text>
</a>
</g>
<!-- Node9&#45;&gt;Node17 -->
<g id="edge42" class="edge"><title>Node9&#45;&gt;Node17</title>
<path fill="none" stroke="midnightblue" d="M264.682,-171.009C235.715,-160.702 196.934,-146.903 170.573,-137.523"/>
<polygon fill="midnightblue" stroke="midnightblue" points="263.887,-174.442 274.482,-174.497 266.234,-167.847 263.887,-174.442"/>
</g>
<!-- Node11 -->
<g id="node22" class="node"><title>Node11</title>
<a xlink:href="MojDbServiceHandler_8cpp.htm" target="_top" xlink:title="MojDbServiceHandler.cpp">
<polygon fill="white" stroke="black" points="199.5,-58.5 199.5,-79.5 338.5,-79.5 338.5,-58.5 199.5,-58.5"/>
<text text-anchor="middle" x="269" y="-66.5" font-family="Helvetica,sans-Serif" font-size="10.00">MojDbServiceHandler.cpp</text>
</a>
</g>
<!-- Node10&#45;&gt;Node11 -->
<g id="edge22" class="edge"><title>Node10&#45;&gt;Node11</title>
<path fill="none" stroke="midnightblue" d="M292.333,-107.667C286.678,-98.2948 280.105,-87.4019 275.379,-79.5707"/>
<polygon fill="midnightblue" stroke="midnightblue" points="289.417,-109.608 297.58,-116.362 295.41,-105.992 289.417,-109.608"/>
</g>
<!-- Node12 -->
<g id="node24" class="node"><title>Node12</title>
<a xlink:href="MojDbServiceHandlerInternal_8cpp.htm" target="_top" xlink:title="MojDbServiceHandlerInternal.cpp">
<polygon fill="white" stroke="black" points="355.5,-58.5 355.5,-79.5 530.5,-79.5 530.5,-58.5 355.5,-58.5"/>
<text text-anchor="middle" x="443" y="-66.5" font-family="Helvetica,sans-Serif" font-size="10.00">MojDbServiceHandlerInternal.cpp</text>
</a>
</g>
<!-- Node10&#45;&gt;Node12 -->
<g id="edge24" class="edge"><title>Node10&#45;&gt;Node12</title>
<path fill="none" stroke="midnightblue" d="M338.474,-112.615C362.982,-102.389 395.358,-88.8796 417.546,-79.6212"/>
<polygon fill="midnightblue" stroke="midnightblue" points="337.053,-109.416 329.172,-116.497 339.748,-115.876 337.053,-109.416"/>
</g>
<!-- Node13 -->
<g id="node26" class="node"><title>Node13</title>
<a xlink:href="MojDbServiceSchemas_8cpp.htm" target="_top" xlink:title="MojDbServiceSchemas.cpp">
<polygon fill="white" stroke="black" points="-0.5,-58.5 -0.5,-79.5 144.5,-79.5 144.5,-58.5 -0.5,-58.5"/>
<text text-anchor="middle" x="72" y="-66.5" font-family="Helvetica,sans-Serif" font-size="10.00">MojDbServiceSchemas.cpp</text>
</a>
</g>
<!-- Node10&#45;&gt;Node13 -->
<g id="edge26" class="edge"><title>Node10&#45;&gt;Node13</title>
<path fill="none" stroke="midnightblue" d="M252.043,-114.011C210.444,-103.611 152.841,-89.2102 114.092,-79.5231"/>
<polygon fill="midnightblue" stroke="midnightblue" points="251.436,-117.467 261.987,-116.497 253.134,-110.676 251.436,-117.467"/>
</g>
<!-- Node14 -->
<g id="node28" class="node"><title>Node14</title>
<a xlink:href="MojDbLunaServiceApp_8h.htm" target="_top" xlink:title="MojDbLunaServiceApp.h">
<polygon fill="white" stroke="black" points="548,-58.5 548,-79.5 680,-79.5 680,-58.5 548,-58.5"/>
<text text-anchor="middle" x="614" y="-66.5" font-family="Helvetica,sans-Serif" font-size="10.00">MojDbLunaServiceApp.h</text>
</a>
</g>
<!-- Node10&#45;&gt;Node14 -->
<g id="edge28" class="edge"><title>Node10&#45;&gt;Node14</title>
<path fill="none" stroke="midnightblue" d="M370.276,-114.6C426.072,-104.161 504.995,-89.3945 557.756,-79.5231"/>
<polygon fill="midnightblue" stroke="midnightblue" points="369.324,-111.217 360.139,-116.497 370.612,-118.098 369.324,-111.217"/>
</g>
<!-- Node15 -->
<g id="node30" class="node"><title>Node15</title>
<a xlink:href="MojDbLunaServiceApp_8cpp.htm" target="_top" xlink:title="MojDbLunaServiceApp.cpp">
<polygon fill="white" stroke="black" points="336.5,-0.5 336.5,-21.5 479.5,-21.5 479.5,-0.5 336.5,-0.5"/>
<text text-anchor="middle" x="408" y="-8.5" font-family="Helvetica,sans-Serif" font-size="10.00">MojDbLunaServiceApp.cpp</text>
</a>
</g>
<!-- Node10&#45;&gt;Node15 -->
<g id="edge32" class="edge"><title>Node10&#45;&gt;Node15</title>
<path fill="none" stroke="midnightblue" d="M245.483,-113.54C208.148,-102.169 170.334,-83.6212 191,-58 209.12,-35.5349 280.294,-23.2698 336.253,-16.9586"/>
<polygon fill="midnightblue" stroke="midnightblue" points="244.859,-117.003 255.438,-116.416 246.802,-110.278 244.859,-117.003"/>
</g>
<!-- Node14&#45;&gt;Node15 -->
<g id="edge30" class="edge"><title>Node14&#45;&gt;Node15</title>
<path fill="none" stroke="midnightblue" d="M566.689,-55.6795C529.849,-45.307 479.417,-31.1078 445.375,-21.5231"/>
<polygon fill="midnightblue" stroke="midnightblue" points="566.121,-59.1554 576.695,-58.4966 568.018,-52.4174 566.121,-59.1554"/>
</g>
<!-- Node16&#45;&gt;Node11 -->
<g id="edge36" class="edge"><title>Node16&#45;&gt;Node11</title>
<path fill="none" stroke="midnightblue" d="M495.565,-114.47C443.587,-104.038 370.417,-89.3535 321.434,-79.5231"/>
<polygon fill="midnightblue" stroke="midnightblue" points="495.171,-117.96 505.664,-116.497 496.548,-111.097 495.171,-117.96"/>
</g>
<!-- Node16&#45;&gt;Node12 -->
<g id="edge38" class="edge"><title>Node16&#45;&gt;Node12</title>
<path fill="none" stroke="midnightblue" d="M528.124,-111.932C508.021,-101.793 482.01,-88.6748 464.059,-79.6212"/>
<polygon fill="midnightblue" stroke="midnightblue" points="526.67,-115.118 537.174,-116.497 529.822,-108.868 526.67,-115.118"/>
</g>
<!-- Node16&#45;&gt;Node14 -->
<g id="edge40" class="edge"><title>Node16&#45;&gt;Node14</title>
<path fill="none" stroke="midnightblue" d="M575.265,-109.118C584.612,-99.4377 595.839,-87.8098 603.794,-79.5707"/>
<polygon fill="midnightblue" stroke="midnightblue" points="572.699,-106.737 568.271,-116.362 577.735,-111.599 572.699,-106.737"/>
</g>
<!-- Node19 -->
<g id="node43" class="node"><title>Node19</title>
<a xlink:href="MojLunaMessage_8cpp.htm" target="_top" xlink:title="MojLunaMessage.cpp">
<polygon fill="white" stroke="black" points="872,-116.5 872,-137.5 992,-137.5 992,-116.5 872,-116.5"/>
<text text-anchor="middle" x="932" y="-124.5" font-family="Helvetica,sans-Serif" font-size="10.00">MojLunaMessage.cpp</text>
</a>
</g>
<!-- Node18&#45;&gt;Node19 -->
<g id="edge48" class="edge"><title>Node18&#45;&gt;Node19</title>
<path fill="none" stroke="midnightblue" d="M903.577,-166.25C910.457,-156.75 918.556,-145.565 924.345,-137.571"/>
<polygon fill="midnightblue" stroke="midnightblue" points="900.734,-164.21 897.703,-174.362 906.403,-168.315 900.734,-164.21"/>
</g>
<!-- Node20 -->
<g id="node45" class="node"><title>Node20</title>
<a xlink:href="MojLunaService_8cpp.htm" target="_top" xlink:title="MojLunaService.cpp">
<polygon fill="white" stroke="black" points="1010,-116.5 1010,-137.5 1122,-137.5 1122,-116.5 1010,-116.5"/>
<text text-anchor="middle" x="1066" y="-124.5" font-family="Helvetica,sans-Serif" font-size="10.00">MojLunaService.cpp</text>
</a>
</g>
<!-- Node18&#45;&gt;Node20 -->
<g id="edge50" class="edge"><title>Node18&#45;&gt;Node20</title>
<path fill="none" stroke="midnightblue" d="M931.637,-171.279C962.998,-160.944 1005.36,-146.985 1034.07,-137.523"/>
<polygon fill="midnightblue" stroke="midnightblue" points="930.274,-168.043 921.872,-174.497 932.465,-174.691 930.274,-168.043"/>
</g>
<!-- Node23&#45;&gt;Node14 -->
<g id="edge68" class="edge"><title>Node23&#45;&gt;Node14</title>
<path fill="none" stroke="midnightblue" d="M829.201,-234.298C778.908,-226.091 712.389,-212.588 691,-196 659.267,-171.39 670.391,-149.986 649,-116 640.871,-103.085 630.252,-89.1684 622.852,-79.8582"/>
<polygon fill="midnightblue" stroke="midnightblue" points="828.918,-237.797 839.345,-235.918 830.022,-230.885 828.918,-237.797"/>
</g>
<!-- Node23&#45;&gt;Node16 -->
<g id="edge64" class="edge"><title>Node23&#45;&gt;Node16</title>
<path fill="none" stroke="midnightblue" d="M829.156,-237.458C781.161,-231.502 713.32,-219.515 658,-196 623.059,-181.147 587.815,-153.069 569.969,-137.706"/>
<polygon fill="midnightblue" stroke="midnightblue" points="829.045,-240.969 839.388,-238.674 829.871,-234.018 829.045,-240.969"/>
</g>
<!-- Node23&#45;&gt;Node18 -->
<g id="edge66" class="edge"><title>Node23&#45;&gt;Node18</title>
<path fill="none" stroke="midnightblue" d="M890,-222.191C890,-213.168 890,-202.994 890,-195.571"/>
<polygon fill="midnightblue" stroke="midnightblue" points="886.5,-222.362 890,-232.362 893.5,-222.362 886.5,-222.362"/>
</g>
<!-- Node23&#45;&gt;Node19 -->
<g id="edge70" class="edge"><title>Node23&#45;&gt;Node19</title>
<path fill="none" stroke="midnightblue" d="M922.337,-227.156C934.243,-219.515 946.418,-209.122 953,-196 962.769,-176.525 949.557,-151.647 940.09,-137.709"/>
<polygon fill="midnightblue" stroke="midnightblue" points="920.202,-224.353 913.383,-232.462 923.77,-230.375 920.202,-224.353"/>
</g>
<!-- Node23&#45;&gt;Node20 -->
<g id="edge72" class="edge"><title>Node23&#45;&gt;Node20</title>
<path fill="none" stroke="midnightblue" d="M917.35,-227.164C932.448,-218.263 951.44,-206.799 968,-196 998.327,-176.222 1032.7,-151.454 1051.61,-137.615"/>
<polygon fill="midnightblue" stroke="midnightblue" points="915.366,-224.27 908.509,-232.347 918.906,-230.309 915.366,-224.27"/>
</g>
</g>
</svg>
