<?xml version="1.0" encoding="UTF-8" standalone="no"?>
<!DOCTYPE svg PUBLIC "-//W3C//DTD SVG 1.1//EN"
 "http://www.w3.org/Graphics/SVG/1.1/DTD/svg11.dtd">
<!-- Generated by graphviz version 2.26.3 (20100126.1600)
 -->
<!-- Title: MojSock.h Pages: 1 -->
<svg width="292pt" height="146pt"
 viewBox="0.00 0.00 292.00 146.00" xmlns="http://www.w3.org/2000/svg" xmlns:xlink="http://www.w3.org/1999/xlink">
<g id="graph1" class="graph" transform="scale(1 1) rotate(0) translate(4 142)">
<title>MojSock.h</title>
<polygon fill="white" stroke="white" points="-4,5 -4,-142 289,-142 289,5 -4,5"/>
<!-- Node1 -->
<g id="node1" class="node"><title>Node1</title>
<polygon fill="#bfbfbf" stroke="black" points="157.5,-116.5 157.5,-137.5 222.5,-137.5 222.5,-116.5 157.5,-116.5"/>
<text text-anchor="middle" x="190" y="-124.5" font-family="Helvetica,sans-Serif" font-size="10.00">MojSock.h</text>
</g>
<!-- Node2 -->
<g id="node3" class="node"><title>Node2</title>
<a xlink:href="MojSocketService_8h.htm" target="_top" xlink:title="MojSocketService.h">
<polygon fill="white" stroke="black" points="80,-58.5 80,-79.5 190,-79.5 190,-58.5 80,-58.5"/>
<text text-anchor="middle" x="135" y="-66.5" font-family="Helvetica,sans-Serif" font-size="10.00">MojSocketService.h</text>
</a>
</g>
<!-- Node1&#45;&gt;Node2 -->
<g id="edge2" class="edge"><title>Node1&#45;&gt;Node2</title>
<path fill="none" stroke="midnightblue" d="M172.77,-108.83C163.645,-99.2078 152.76,-87.7282 145.024,-79.5707"/>
<polygon fill="midnightblue" stroke="midnightblue" points="170.492,-111.514 179.912,-116.362 175.571,-106.697 170.492,-111.514"/>
</g>
<!-- Node5 -->
<g id="node9" class="node"><title>Node5</title>
<a xlink:href="MojSock_8cpp.htm" target="_top" xlink:title="MojSock.cpp">
<polygon fill="white" stroke="black" points="207.5,-58.5 207.5,-79.5 284.5,-79.5 284.5,-58.5 207.5,-58.5"/>
<text text-anchor="middle" x="246" y="-66.5" font-family="Helvetica,sans-Serif" font-size="10.00">MojSock.cpp</text>
</a>
</g>
<!-- Node1&#45;&gt;Node5 -->
<g id="edge8" class="edge"><title>Node1&#45;&gt;Node5</title>
<path fill="none" stroke="midnightblue" d="M207.265,-109.118C216.612,-99.4377 227.839,-87.8098 235.794,-79.5707"/>
<polygon fill="midnightblue" stroke="midnightblue" points="204.699,-106.737 200.271,-116.362 209.735,-111.599 204.699,-106.737"/>
</g>
<!-- Node3 -->
<g id="node5" class="node"><title>Node3</title>
<a xlink:href="MojSocketMessage_8cpp.htm" target="_top" xlink:title="MojSocketMessage.cpp">
<polygon fill="white" stroke="black" points="-0.5,-0.5 -0.5,-21.5 128.5,-21.5 128.5,-0.5 -0.5,-0.5"/>
<text text-anchor="middle" x="64" y="-8.5" font-family="Helvetica,sans-Serif" font-size="10.00">MojSocketMessage.cpp</text>
</a>
</g>
<!-- Node2&#45;&gt;Node3 -->
<g id="edge4" class="edge"><title>Node2&#45;&gt;Node3</title>
<path fill="none" stroke="midnightblue" d="M114.159,-51.9753C102.109,-42.1315 87.3254,-30.0545 76.9399,-21.5707"/>
<polygon fill="midnightblue" stroke="midnightblue" points="112.019,-54.746 121.978,-58.3619 116.447,-49.3249 112.019,-54.746"/>
</g>
<!-- Node4 -->
<g id="node7" class="node"><title>Node4</title>
<a xlink:href="MojSocketService_8cpp.htm" target="_top" xlink:title="MojSocketService.cpp">
<polygon fill="white" stroke="black" points="145.5,-0.5 145.5,-21.5 266.5,-21.5 266.5,-0.5 145.5,-0.5"/>
<text text-anchor="middle" x="206" y="-8.5" font-family="Helvetica,sans-Serif" font-size="10.00">MojSocketService.cpp</text>
</a>
</g>
<!-- Node2&#45;&gt;Node4 -->
<g id="edge6" class="edge"><title>Node2&#45;&gt;Node4</title>
<path fill="none" stroke="midnightblue" d="M155.841,-51.9753C167.891,-42.1315 182.675,-30.0545 193.06,-21.5707"/>
<polygon fill="midnightblue" stroke="midnightblue" points="153.553,-49.3249 148.022,-58.3619 157.981,-54.746 153.553,-49.3249"/>
</g>
</g>
</svg>
