<?xml version="1.0" encoding="UTF-8" standalone="no"?>
<!DOCTYPE svg PUBLIC "-//W3C//DTD SVG 1.1//EN"
 "http://www.w3.org/Graphics/SVG/1.1/DTD/svg11.dtd">
<!-- Generated by graphviz version 2.26.3 (20100126.1600)
 -->
<!-- Title: MojServiceRequest.h Pages: 1 -->
<svg width="1035pt" height="204pt"
 viewBox="0.00 0.00 1035.00 204.00" xmlns="http://www.w3.org/2000/svg" xmlns:xlink="http://www.w3.org/1999/xlink">
<g id="graph1" class="graph" transform="scale(1 1) rotate(0) translate(4 200)">
<title>MojServiceRequest.h</title>
<polygon fill="white" stroke="white" points="-4,5 -4,-200 1032,-200 1032,5 -4,5"/>
<!-- Node1 -->
<g id="node1" class="node"><title>Node1</title>
<polygon fill="#bfbfbf" stroke="black" points="625,-174.5 625,-195.5 741,-195.5 741,-174.5 625,-174.5"/>
<text text-anchor="middle" x="683" y="-182.5" font-family="Helvetica,sans-Serif" font-size="10.00">MojServiceRequest.h</text>
</g>
<!-- Node2 -->
<g id="node3" class="node"><title>Node2</title>
<a xlink:href="MojDbClient_8h.htm" target="_top" xlink:title="MojDbClient.h">
<polygon fill="white" stroke="black" points="145,-116.5 145,-137.5 227,-137.5 227,-116.5 145,-116.5"/>
<text text-anchor="middle" x="186" y="-124.5" font-family="Helvetica,sans-Serif" font-size="10.00">MojDbClient.h</text>
</a>
</g>
<!-- Node1&#45;&gt;Node2 -->
<g id="edge2" class="edge"><title>Node1&#45;&gt;Node2</title>
<path fill="none" stroke="midnightblue" d="M614.356,-176.989C509.404,-164.741 312.27,-141.736 227.014,-131.786"/>
<polygon fill="midnightblue" stroke="midnightblue" points="614.188,-180.493 624.526,-178.176 614.999,-173.54 614.188,-180.493"/>
</g>
<!-- Node6 -->
<g id="node11" class="node"><title>Node6</title>
<a xlink:href="MojDbServiceHandlerInternal_8h.htm" target="_top" xlink:title="MojDbServiceHandlerInternal.h">
<polygon fill="white" stroke="black" points="420,-116.5 420,-137.5 584,-137.5 584,-116.5 420,-116.5"/>
<text text-anchor="middle" x="502" y="-124.5" font-family="Helvetica,sans-Serif" font-size="10.00">MojDbServiceHandlerInternal.h</text>
</a>
</g>
<!-- Node1&#45;&gt;Node6 -->
<g id="edge10" class="edge"><title>Node1&#45;&gt;Node6</title>
<path fill="none" stroke="midnightblue" d="M640.598,-171.413C608.305,-161.065 564.494,-147.026 534.839,-137.523"/>
<polygon fill="midnightblue" stroke="midnightblue" points="639.631,-174.778 650.222,-174.497 641.767,-168.112 639.631,-174.778"/>
</g>
<!-- Node8 -->
<g id="node15" class="node"><title>Node8</title>
<a xlink:href="MojDbServiceHandlerInternal_8cpp.htm" target="_top" xlink:title="MojDbServiceHandlerInternal.cpp">
<polygon fill="white" stroke="black" points="555.5,-58.5 555.5,-79.5 730.5,-79.5 730.5,-58.5 555.5,-58.5"/>
<text text-anchor="middle" x="643" y="-66.5" font-family="Helvetica,sans-Serif" font-size="10.00">MojDbServiceHandlerInternal.cpp</text>
</a>
</g>
<!-- Node1&#45;&gt;Node8 -->
<g id="edge30" class="edge"><title>Node1&#45;&gt;Node8</title>
<path fill="none" stroke="midnightblue" d="M673.334,-165.161C669.511,-156.881 665.261,-147.09 662,-138 654.783,-117.884 648.687,-93.6513 645.464,-79.9143"/>
<polygon fill="midnightblue" stroke="midnightblue" points="670.248,-166.822 677.69,-174.363 676.575,-163.827 670.248,-166.822"/>
</g>
<!-- Node11 -->
<g id="node21" class="node"><title>Node11</title>
<a xlink:href="MojLunaRequest_8h.htm" target="_top" xlink:title="MojLunaRequest.h">
<polygon fill="white" stroke="black" points="671,-116.5 671,-137.5 775,-137.5 775,-116.5 671,-116.5"/>
<text text-anchor="middle" x="723" y="-124.5" font-family="Helvetica,sans-Serif" font-size="10.00">MojLunaRequest.h</text>
</a>
</g>
<!-- Node1&#45;&gt;Node11 -->
<g id="edge20" class="edge"><title>Node1&#45;&gt;Node11</title>
<path fill="none" stroke="midnightblue" d="M696.132,-165.959C702.64,-156.522 710.253,-145.484 715.71,-137.571"/>
<polygon fill="midnightblue" stroke="midnightblue" points="693.133,-164.143 690.337,-174.362 698.895,-168.117 693.133,-164.143"/>
</g>
<!-- Node14 -->
<g id="node27" class="node"><title>Node14</title>
<a xlink:href="MojService_8cpp.htm" target="_top" xlink:title="MojService.cpp">
<polygon fill="white" stroke="black" points="792.5,-116.5 792.5,-137.5 881.5,-137.5 881.5,-116.5 792.5,-116.5"/>
<text text-anchor="middle" x="837" y="-124.5" font-family="Helvetica,sans-Serif" font-size="10.00">MojService.cpp</text>
</a>
</g>
<!-- Node1&#45;&gt;Node14 -->
<g id="edge26" class="edge"><title>Node1&#45;&gt;Node14</title>
<path fill="none" stroke="midnightblue" d="M720.506,-170.874C747.834,-160.582 784.263,-146.862 809.059,-137.523"/>
<polygon fill="midnightblue" stroke="midnightblue" points="719.013,-167.697 710.888,-174.497 721.48,-174.247 719.013,-167.697"/>
</g>
<!-- Node15 -->
<g id="node29" class="node"><title>Node15</title>
<a xlink:href="MojServiceRequest_8cpp.htm" target="_top" xlink:title="MojServiceRequest.cpp">
<polygon fill="white" stroke="black" points="899,-116.5 899,-137.5 1027,-137.5 1027,-116.5 899,-116.5"/>
<text text-anchor="middle" x="963" y="-124.5" font-family="Helvetica,sans-Serif" font-size="10.00">MojServiceRequest.cpp</text>
</a>
</g>
<!-- Node1&#45;&gt;Node15 -->
<g id="edge28" class="edge"><title>Node1&#45;&gt;Node15</title>
<path fill="none" stroke="midnightblue" d="M743.806,-172.404C794.145,-161.977 864.841,-147.333 912.199,-137.523"/>
<polygon fill="midnightblue" stroke="midnightblue" points="742.788,-169.041 733.706,-174.497 744.208,-175.895 742.788,-169.041"/>
</g>
<!-- Node3 -->
<g id="node5" class="node"><title>Node3</title>
<a xlink:href="MojDbServiceClient_8h.htm" target="_top" xlink:title="MojDbServiceClient.h">
<polygon fill="white" stroke="black" points="5.5,-58.5 5.5,-79.5 122.5,-79.5 122.5,-58.5 5.5,-58.5"/>
<text text-anchor="middle" x="64" y="-66.5" font-family="Helvetica,sans-Serif" font-size="10.00">MojDbServiceClient.h</text>
</a>
</g>
<!-- Node2&#45;&gt;Node3 -->
<g id="edge4" class="edge"><title>Node2&#45;&gt;Node3</title>
<path fill="none" stroke="midnightblue" d="M154.594,-112.069C133.229,-101.912 105.471,-88.7157 86.3412,-79.6212"/>
<polygon fill="midnightblue" stroke="midnightblue" points="153.373,-115.364 163.907,-116.497 156.378,-109.042 153.373,-115.364"/>
</g>
<!-- Node5 -->
<g id="node9" class="node"><title>Node5</title>
<a xlink:href="MojDbClient_8cpp.htm" target="_top" xlink:title="MojDbClient.cpp">
<polygon fill="white" stroke="black" points="139.5,-58.5 139.5,-79.5 232.5,-79.5 232.5,-58.5 139.5,-58.5"/>
<text text-anchor="middle" x="186" y="-66.5" font-family="Helvetica,sans-Serif" font-size="10.00">MojDbClient.cpp</text>
</a>
</g>
<!-- Node2&#45;&gt;Node5 -->
<g id="edge8" class="edge"><title>Node2&#45;&gt;Node5</title>
<path fill="none" stroke="midnightblue" d="M186,-106.191C186,-97.1684 186,-86.9941 186,-79.5707"/>
<polygon fill="midnightblue" stroke="midnightblue" points="182.5,-106.362 186,-116.362 189.5,-106.362 182.5,-106.362"/>
</g>
<!-- Node4 -->
<g id="node7" class="node"><title>Node4</title>
<a xlink:href="MojDbServiceClient_8cpp.htm" target="_top" xlink:title="MojDbServiceClient.cpp">
<polygon fill="white" stroke="black" points="0,-0.5 0,-21.5 128,-21.5 128,-0.5 0,-0.5"/>
<text text-anchor="middle" x="64" y="-8.5" font-family="Helvetica,sans-Serif" font-size="10.00">MojDbServiceClient.cpp</text>
</a>
</g>
<!-- Node3&#45;&gt;Node4 -->
<g id="edge6" class="edge"><title>Node3&#45;&gt;Node4</title>
<path fill="none" stroke="midnightblue" d="M64,-48.1906C64,-39.1684 64,-28.9941 64,-21.5707"/>
<polygon fill="midnightblue" stroke="midnightblue" points="60.5001,-48.3619 64,-58.3619 67.5001,-48.3619 60.5001,-48.3619"/>
</g>
<!-- Node7 -->
<g id="node13" class="node"><title>Node7</title>
<a xlink:href="MojDbServiceHandler_8cpp.htm" target="_top" xlink:title="MojDbServiceHandler.cpp">
<polygon fill="white" stroke="black" points="249.5,-58.5 249.5,-79.5 388.5,-79.5 388.5,-58.5 249.5,-58.5"/>
<text text-anchor="middle" x="319" y="-66.5" font-family="Helvetica,sans-Serif" font-size="10.00">MojDbServiceHandler.cpp</text>
</a>
</g>
<!-- Node6&#45;&gt;Node7 -->
<g id="edge12" class="edge"><title>Node6&#45;&gt;Node7</title>
<path fill="none" stroke="midnightblue" d="M459.13,-113.413C426.48,-103.065 382.185,-89.0258 352.202,-79.5231"/>
<polygon fill="midnightblue" stroke="midnightblue" points="458.27,-116.812 468.86,-116.497 460.385,-110.139 458.27,-116.812"/>
</g>
<!-- Node6&#45;&gt;Node8 -->
<g id="edge14" class="edge"><title>Node6&#45;&gt;Node8</title>
<path fill="none" stroke="midnightblue" d="M536.97,-112.615C561.83,-102.389 594.672,-88.8796 617.179,-79.6212"/>
<polygon fill="midnightblue" stroke="midnightblue" points="535.451,-109.456 527.534,-116.497 538.114,-115.929 535.451,-109.456"/>
</g>
<!-- Node9 -->
<g id="node17" class="node"><title>Node9</title>
<a xlink:href="MojDbLunaServiceApp_8h.htm" target="_top" xlink:title="MojDbLunaServiceApp.h">
<polygon fill="white" stroke="black" points="406,-58.5 406,-79.5 538,-79.5 538,-58.5 406,-58.5"/>
<text text-anchor="middle" x="472" y="-66.5" font-family="Helvetica,sans-Serif" font-size="10.00">MojDbLunaServiceApp.h</text>
</a>
</g>
<!-- Node6&#45;&gt;Node9 -->
<g id="edge16" class="edge"><title>Node6&#45;&gt;Node9</title>
<path fill="none" stroke="midnightblue" d="M491.848,-107.373C487.035,-98.0682 481.476,-87.3204 477.468,-79.5707"/>
<polygon fill="midnightblue" stroke="midnightblue" points="488.794,-109.088 496.498,-116.362 495.012,-105.872 488.794,-109.088"/>
</g>
<!-- Node10 -->
<g id="node19" class="node"><title>Node10</title>
<a xlink:href="MojDbLunaServiceApp_8cpp.htm" target="_top" xlink:title="MojDbLunaServiceApp.cpp">
<polygon fill="white" stroke="black" points="400.5,-0.5 400.5,-21.5 543.5,-21.5 543.5,-0.5 400.5,-0.5"/>
<text text-anchor="middle" x="472" y="-8.5" font-family="Helvetica,sans-Serif" font-size="10.00">MojDbLunaServiceApp.cpp</text>
</a>
</g>
<!-- Node9&#45;&gt;Node10 -->
<g id="edge18" class="edge"><title>Node9&#45;&gt;Node10</title>
<path fill="none" stroke="midnightblue" d="M472,-48.1906C472,-39.1684 472,-28.9941 472,-21.5707"/>
<polygon fill="midnightblue" stroke="midnightblue" points="468.5,-48.3619 472,-58.3619 475.5,-48.3619 468.5,-48.3619"/>
</g>
<!-- Node12 -->
<g id="node23" class="node"><title>Node12</title>
<a xlink:href="MojLunaRequest_8cpp.htm" target="_top" xlink:title="MojLunaRequest.cpp">
<polygon fill="white" stroke="black" points="748,-58.5 748,-79.5 864,-79.5 864,-58.5 748,-58.5"/>
<text text-anchor="middle" x="806" y="-66.5" font-family="Helvetica,sans-Serif" font-size="10.00">MojLunaRequest.cpp</text>
</a>
</g>
<!-- Node11&#45;&gt;Node12 -->
<g id="edge22" class="edge"><title>Node11&#45;&gt;Node12</title>
<path fill="none" stroke="midnightblue" d="M746.554,-110.541C760.783,-100.597 778.499,-88.2177 790.873,-79.5707"/>
<polygon fill="midnightblue" stroke="midnightblue" points="744.416,-107.765 738.223,-116.362 748.425,-113.503 744.416,-107.765"/>
</g>
<!-- Node13 -->
<g id="node25" class="node"><title>Node13</title>
<a xlink:href="MojLunaService_8cpp.htm" target="_top" xlink:title="MojLunaService.cpp">
<polygon fill="white" stroke="black" points="882,-58.5 882,-79.5 994,-79.5 994,-58.5 882,-58.5"/>
<text text-anchor="middle" x="938" y="-66.5" font-family="Helvetica,sans-Serif" font-size="10.00">MojLunaService.cpp</text>
</a>
</g>
<!-- Node11&#45;&gt;Node13 -->
<g id="edge24" class="edge"><title>Node11&#45;&gt;Node13</title>
<path fill="none" stroke="midnightblue" d="M771.885,-113.812C810.377,-103.428 863.311,-89.1487 898.992,-79.5231"/>
<polygon fill="midnightblue" stroke="midnightblue" points="770.678,-110.513 761.935,-116.497 772.501,-117.271 770.678,-110.513"/>
</g>
</g>
</svg>
