<?xml version="1.0" encoding="UTF-8" standalone="no"?>
<!DOCTYPE svg PUBLIC "-//W3C//DTD SVG 1.1//EN"
 "http://www.w3.org/Graphics/SVG/1.1/DTD/svg11.dtd">
<!-- Generated by graphviz version 2.26.3 (20100126.1600)
 -->
<!-- Title: MojServiceMessage.h Pages: 1 -->
<svg width="1085pt" height="262pt"
 viewBox="0.00 0.00 1085.00 262.00" xmlns="http://www.w3.org/2000/svg" xmlns:xlink="http://www.w3.org/1999/xlink">
<g id="graph1" class="graph" transform="scale(1 1) rotate(0) translate(4 258)">
<title>MojServiceMessage.h</title>
<polygon fill="white" stroke="white" points="-4,5 -4,-258 1082,-258 1082,5 -4,5"/>
<!-- Node1 -->
<g id="node1" class="node"><title>Node1</title>
<polygon fill="#bfbfbf" stroke="black" points="595.5,-232.5 595.5,-253.5 716.5,-253.5 716.5,-232.5 595.5,-232.5"/>
<text text-anchor="middle" x="656" y="-240.5" font-family="Helvetica,sans-Serif" font-size="10.00">MojServiceMessage.h</text>
</g>
<!-- Node2 -->
<g id="node3" class="node"><title>Node2</title>
<a xlink:href="MojSocketMessage_8h.htm" target="_top" xlink:title="MojSocketMessage.h">
<polygon fill="white" stroke="black" points="232,-174.5 232,-195.5 350,-195.5 350,-174.5 232,-174.5"/>
<text text-anchor="middle" x="291" y="-182.5" font-family="Helvetica,sans-Serif" font-size="10.00">MojSocketMessage.h</text>
</a>
</g>
<!-- Node1&#45;&gt;Node2 -->
<g id="edge2" class="edge"><title>Node1&#45;&gt;Node2</title>
<path fill="none" stroke="midnightblue" d="M585.052,-231.726C516.587,-220.847 414.14,-204.567 350.011,-194.377"/>
<polygon fill="midnightblue" stroke="midnightblue" points="584.893,-235.245 595.318,-233.357 585.991,-228.331 584.893,-235.245"/>
</g>
<!-- Node8 -->
<g id="node16" class="node"><title>Node8</title>
<a xlink:href="MojDbServiceHandlerBase_8h.htm" target="_top" xlink:title="MojDbServiceHandlerBase.h">
<polygon fill="white" stroke="black" points="506,-174.5 506,-195.5 658,-195.5 658,-174.5 506,-174.5"/>
<text text-anchor="middle" x="582" y="-182.5" font-family="Helvetica,sans-Serif" font-size="10.00">MojDbServiceHandlerBase.h</text>
</a>
</g>
<!-- Node1&#45;&gt;Node8 -->
<g id="edge16" class="edge"><title>Node1&#45;&gt;Node8</title>
<path fill="none" stroke="midnightblue" d="M634.279,-225.975C621.72,-216.132 606.311,-204.055 595.487,-195.571"/>
<polygon fill="midnightblue" stroke="midnightblue" points="632.398,-228.948 642.427,-232.362 636.716,-223.438 632.398,-228.948"/>
</g>
<!-- Node15 -->
<g id="node31" class="node"><title>Node15</title>
<a xlink:href="MojDbServiceHandlerInternal_8h.htm" target="_top" xlink:title="MojDbServiceHandlerInternal.h">
<polygon fill="white" stroke="black" points="319,-116.5 319,-137.5 483,-137.5 483,-116.5 319,-116.5"/>
<text text-anchor="middle" x="401" y="-124.5" font-family="Helvetica,sans-Serif" font-size="10.00">MojDbServiceHandlerInternal.h</text>
</a>
</g>
<!-- Node1&#45;&gt;Node15 -->
<g id="edge42" class="edge"><title>Node1&#45;&gt;Node15</title>
<path fill="none" stroke="midnightblue" d="M594.594,-229.975C564.311,-222.286 527.776,-211.068 497,-196 464.003,-179.844 430.215,-152.547 412.875,-137.587"/>
<polygon fill="midnightblue" stroke="midnightblue" points="594.059,-233.449 604.607,-232.449 595.738,-226.653 594.059,-233.449"/>
</g>
<!-- Node17 -->
<g id="node39" class="node"><title>Node17</title>
<a xlink:href="MojLunaMessage_8h.htm" target="_top" xlink:title="MojLunaMessage.h">
<polygon fill="white" stroke="black" points="675.5,-174.5 675.5,-195.5 784.5,-195.5 784.5,-174.5 675.5,-174.5"/>
<text text-anchor="middle" x="730" y="-182.5" font-family="Helvetica,sans-Serif" font-size="10.00">MojLunaMessage.h</text>
</a>
</g>
<!-- Node1&#45;&gt;Node17 -->
<g id="edge44" class="edge"><title>Node1&#45;&gt;Node17</title>
<path fill="none" stroke="midnightblue" d="M677.721,-225.975C690.28,-216.132 705.689,-204.055 716.513,-195.571"/>
<polygon fill="midnightblue" stroke="midnightblue" points="675.284,-223.438 669.573,-232.362 679.602,-228.948 675.284,-223.438"/>
</g>
<!-- Node20 -->
<g id="node45" class="node"><title>Node20</title>
<a xlink:href="MojService_8cpp.htm" target="_top" xlink:title="MojService.cpp">
<polygon fill="white" stroke="black" points="801.5,-174.5 801.5,-195.5 890.5,-195.5 890.5,-174.5 801.5,-174.5"/>
<text text-anchor="middle" x="846" y="-182.5" font-family="Helvetica,sans-Serif" font-size="10.00">MojService.cpp</text>
</a>
</g>
<!-- Node1&#45;&gt;Node20 -->
<g id="edge50" class="edge"><title>Node1&#45;&gt;Node20</title>
<path fill="none" stroke="midnightblue" d="M700.072,-229.546C734.012,-219.186 780.264,-205.067 811.528,-195.523"/>
<polygon fill="midnightblue" stroke="midnightblue" points="698.95,-226.229 690.408,-232.497 700.994,-232.924 698.95,-226.229"/>
</g>
<!-- Node21 -->
<g id="node47" class="node"><title>Node21</title>
<a xlink:href="MojServiceMessage_8cpp.htm" target="_top" xlink:title="MojServiceMessage.cpp">
<polygon fill="white" stroke="black" points="908,-174.5 908,-195.5 1040,-195.5 1040,-174.5 908,-174.5"/>
<text text-anchor="middle" x="974" y="-182.5" font-family="Helvetica,sans-Serif" font-size="10.00">MojServiceMessage.cpp</text>
</a>
</g>
<!-- Node1&#45;&gt;Node21 -->
<g id="edge52" class="edge"><title>Node1&#45;&gt;Node21</title>
<path fill="none" stroke="midnightblue" d="M723.631,-230.665C780.887,-220.222 862.07,-205.415 916.305,-195.523"/>
<polygon fill="midnightblue" stroke="midnightblue" points="722.797,-227.259 713.587,-232.497 724.053,-234.145 722.797,-227.259"/>
</g>
<!-- Node3 -->
<g id="node5" class="node"><title>Node3</title>
<a xlink:href="MojSocketEncoding_8h.htm" target="_top" xlink:title="MojSocketEncoding.h">
<polygon fill="white" stroke="black" points="138.5,-116.5 138.5,-137.5 257.5,-137.5 257.5,-116.5 138.5,-116.5"/>
<text text-anchor="middle" x="198" y="-124.5" font-family="Helvetica,sans-Serif" font-size="10.00">MojSocketEncoding.h</text>
</a>
</g>
<!-- Node2&#45;&gt;Node3 -->
<g id="edge4" class="edge"><title>Node2&#45;&gt;Node3</title>
<path fill="none" stroke="midnightblue" d="M265.059,-168.821C249.04,-158.831 228.945,-146.299 214.949,-137.571"/>
<polygon fill="midnightblue" stroke="midnightblue" points="263.605,-172.04 273.942,-174.362 267.309,-166.1 263.605,-172.04"/>
</g>
<!-- Node5 -->
<g id="node9" class="node"><title>Node5</title>
<a xlink:href="MojSocketMessage_8cpp.htm" target="_top" xlink:title="MojSocketMessage.cpp">
<polygon fill="white" stroke="black" points="182.5,-0.5 182.5,-21.5 311.5,-21.5 311.5,-0.5 182.5,-0.5"/>
<text text-anchor="middle" x="247" y="-8.5" font-family="Helvetica,sans-Serif" font-size="10.00">MojSocketMessage.cpp</text>
</a>
</g>
<!-- Node2&#45;&gt;Node5 -->
<g id="edge14" class="edge"><title>Node2&#45;&gt;Node5</title>
<path fill="none" stroke="midnightblue" d="M290.05,-164.149C288.395,-138.568 283.926,-94.147 272,-58 267.656,-44.8347 259.82,-30.9613 254.075,-21.7296"/>
<polygon fill="midnightblue" stroke="midnightblue" points="286.558,-164.392 290.614,-174.18 293.547,-163.999 286.558,-164.392"/>
</g>
<!-- Node4 -->
<g id="node7" class="node"><title>Node4</title>
<a xlink:href="MojSocketService_8h.htm" target="_top" xlink:title="MojSocketService.h">
<polygon fill="white" stroke="black" points="5,-58.5 5,-79.5 115,-79.5 115,-58.5 5,-58.5"/>
<text text-anchor="middle" x="60" y="-66.5" font-family="Helvetica,sans-Serif" font-size="10.00">MojSocketService.h</text>
</a>
</g>
<!-- Node3&#45;&gt;Node4 -->
<g id="edge6" class="edge"><title>Node3&#45;&gt;Node4</title>
<path fill="none" stroke="midnightblue" d="M163.774,-112.615C139.443,-102.389 107.3,-88.8796 85.2712,-79.6212"/>
<polygon fill="midnightblue" stroke="midnightblue" points="162.434,-115.849 173.009,-116.497 165.146,-109.395 162.434,-115.849"/>
</g>
<!-- Node7 -->
<g id="node13" class="node"><title>Node7</title>
<a xlink:href="MojSocketEncoding_8cpp.htm" target="_top" xlink:title="MojSocketEncoding.cpp">
<polygon fill="white" stroke="black" points="133,-58.5 133,-79.5 263,-79.5 263,-58.5 133,-58.5"/>
<text text-anchor="middle" x="198" y="-66.5" font-family="Helvetica,sans-Serif" font-size="10.00">MojSocketEncoding.cpp</text>
</a>
</g>
<!-- Node3&#45;&gt;Node7 -->
<g id="edge12" class="edge"><title>Node3&#45;&gt;Node7</title>
<path fill="none" stroke="midnightblue" d="M198,-106.191C198,-97.1684 198,-86.9941 198,-79.5707"/>
<polygon fill="midnightblue" stroke="midnightblue" points="194.5,-106.362 198,-116.362 201.5,-106.362 194.5,-106.362"/>
</g>
<!-- Node4&#45;&gt;Node5 -->
<g id="edge8" class="edge"><title>Node4&#45;&gt;Node5</title>
<path fill="none" stroke="midnightblue" d="M103.807,-55.4127C137.171,-45.0646 182.434,-31.0258 213.072,-21.5231"/>
<polygon fill="midnightblue" stroke="midnightblue" points="102.379,-52.1913 93.8643,-58.4966 104.452,-58.8771 102.379,-52.1913"/>
</g>
<!-- Node6 -->
<g id="node11" class="node"><title>Node6</title>
<a xlink:href="MojSocketService_8cpp.htm" target="_top" xlink:title="MojSocketService.cpp">
<polygon fill="white" stroke="black" points="-0.5,-0.5 -0.5,-21.5 120.5,-21.5 120.5,-0.5 -0.5,-0.5"/>
<text text-anchor="middle" x="60" y="-8.5" font-family="Helvetica,sans-Serif" font-size="10.00">MojSocketService.cpp</text>
</a>
</g>
<!-- Node4&#45;&gt;Node6 -->
<g id="edge10" class="edge"><title>Node4&#45;&gt;Node6</title>
<path fill="none" stroke="midnightblue" d="M60,-48.1906C60,-39.1684 60,-28.9941 60,-21.5707"/>
<polygon fill="midnightblue" stroke="midnightblue" points="56.5001,-48.3619 60,-58.3619 63.5001,-48.3619 56.5001,-48.3619"/>
</g>
<!-- Node9 -->
<g id="node18" class="node"><title>Node9</title>
<a xlink:href="MojDbServiceHandler_8h.htm" target="_top" xlink:title="MojDbServiceHandler.h">
<polygon fill="white" stroke="black" points="681,-116.5 681,-137.5 809,-137.5 809,-116.5 681,-116.5"/>
<text text-anchor="middle" x="745" y="-124.5" font-family="Helvetica,sans-Serif" font-size="10.00">MojDbServiceHandler.h</text>
</a>
</g>
<!-- Node8&#45;&gt;Node9 -->
<g id="edge18" class="edge"><title>Node8&#45;&gt;Node9</title>
<path fill="none" stroke="midnightblue" d="M621.318,-171.009C650.285,-160.702 689.066,-146.903 715.427,-137.523"/>
<polygon fill="midnightblue" stroke="midnightblue" points="619.766,-167.847 611.518,-174.497 622.113,-174.442 619.766,-167.847"/>
</g>
<!-- Node8&#45;&gt;Node15 -->
<g id="edge32" class="edge"><title>Node8&#45;&gt;Node15</title>
<path fill="none" stroke="midnightblue" d="M539.598,-171.413C507.305,-161.065 463.494,-147.026 433.839,-137.523"/>
<polygon fill="midnightblue" stroke="midnightblue" points="538.631,-174.778 549.222,-174.497 540.767,-168.112 538.631,-174.778"/>
</g>
<!-- Node16 -->
<g id="node36" class="node"><title>Node16</title>
<a xlink:href="MojDbServiceHandlerBase_8cpp.htm" target="_top" xlink:title="MojDbServiceHandlerBase.cpp">
<polygon fill="white" stroke="black" points="500.5,-116.5 500.5,-137.5 663.5,-137.5 663.5,-116.5 500.5,-116.5"/>
<text text-anchor="middle" x="582" y="-124.5" font-family="Helvetica,sans-Serif" font-size="10.00">MojDbServiceHandlerBase.cpp</text>
</a>
</g>
<!-- Node8&#45;&gt;Node16 -->
<g id="edge40" class="edge"><title>Node8&#45;&gt;Node16</title>
<path fill="none" stroke="midnightblue" d="M582,-164.191C582,-155.168 582,-144.994 582,-137.571"/>
<polygon fill="midnightblue" stroke="midnightblue" points="578.5,-164.362 582,-174.362 585.5,-164.362 578.5,-164.362"/>
</g>
<!-- Node10 -->
<g id="node20" class="node"><title>Node10</title>
<a xlink:href="MojDbServiceHandler_8cpp.htm" target="_top" xlink:title="MojDbServiceHandler.cpp">
<polygon fill="white" stroke="black" points="324.5,-58.5 324.5,-79.5 463.5,-79.5 463.5,-58.5 324.5,-58.5"/>
<text text-anchor="middle" x="394" y="-66.5" font-family="Helvetica,sans-Serif" font-size="10.00">MojDbServiceHandler.cpp</text>
</a>
</g>
<!-- Node9&#45;&gt;Node10 -->
<g id="edge20" class="edge"><title>Node9&#45;&gt;Node10</title>
<path fill="none" stroke="midnightblue" d="M671.525,-114.859C608.268,-104.406 517.918,-89.4764 457.683,-79.5231"/>
<polygon fill="midnightblue" stroke="midnightblue" points="671,-118.319 681.437,-116.497 672.141,-111.413 671,-118.319"/>
</g>
<!-- Node11 -->
<g id="node22" class="node"><title>Node11</title>
<a xlink:href="MojDbServiceHandlerInternal_8cpp.htm" target="_top" xlink:title="MojDbServiceHandlerInternal.cpp">
<polygon fill="white" stroke="black" points="480.5,-58.5 480.5,-79.5 655.5,-79.5 655.5,-58.5 480.5,-58.5"/>
<text text-anchor="middle" x="568" y="-66.5" font-family="Helvetica,sans-Serif" font-size="10.00">MojDbServiceHandlerInternal.cpp</text>
</a>
</g>
<!-- Node9&#45;&gt;Node11 -->
<g id="edge22" class="edge"><title>Node9&#45;&gt;Node11</title>
<path fill="none" stroke="midnightblue" d="M703.126,-113.279C671.587,-102.944 628.988,-88.9849 600.113,-79.5231"/>
<polygon fill="midnightblue" stroke="midnightblue" points="702.354,-116.709 712.947,-116.497 704.534,-110.057 702.354,-116.709"/>
</g>
<!-- Node12 -->
<g id="node24" class="node"><title>Node12</title>
<a xlink:href="MojDbServiceSchemas_8cpp.htm" target="_top" xlink:title="MojDbServiceSchemas.cpp">
<polygon fill="white" stroke="black" points="860.5,-58.5 860.5,-79.5 1005.5,-79.5 1005.5,-58.5 860.5,-58.5"/>
<text text-anchor="middle" x="933" y="-66.5" font-family="Helvetica,sans-Serif" font-size="10.00">MojDbServiceSchemas.cpp</text>
</a>
</g>
<!-- Node9&#45;&gt;Node12 -->
<g id="edge24" class="edge"><title>Node9&#45;&gt;Node12</title>
<path fill="none" stroke="midnightblue" d="M788.608,-113.546C822.191,-103.186 867.956,-89.0668 898.891,-79.5231"/>
<polygon fill="midnightblue" stroke="midnightblue" points="787.569,-110.204 779.045,-116.497 789.633,-116.893 787.569,-110.204"/>
</g>
<!-- Node13 -->
<g id="node26" class="node"><title>Node13</title>
<a xlink:href="MojDbLunaServiceApp_8h.htm" target="_top" xlink:title="MojDbLunaServiceApp.h">
<polygon fill="white" stroke="black" points="673,-58.5 673,-79.5 805,-79.5 805,-58.5 673,-58.5"/>
<text text-anchor="middle" x="739" y="-66.5" font-family="Helvetica,sans-Serif" font-size="10.00">MojDbLunaServiceApp.h</text>
</a>
</g>
<!-- Node9&#45;&gt;Node13 -->
<g id="edge26" class="edge"><title>Node9&#45;&gt;Node13</title>
<path fill="none" stroke="midnightblue" d="M742.847,-106.191C741.914,-97.1684 740.861,-86.9941 740.094,-79.5707"/>
<polygon fill="midnightblue" stroke="midnightblue" points="739.389,-106.775 743.9,-116.362 746.352,-106.055 739.389,-106.775"/>
</g>
<!-- Node14 -->
<g id="node28" class="node"><title>Node14</title>
<a xlink:href="MojDbLunaServiceApp_8cpp.htm" target="_top" xlink:title="MojDbLunaServiceApp.cpp">
<polygon fill="white" stroke="black" points="714.5,-0.5 714.5,-21.5 857.5,-21.5 857.5,-0.5 714.5,-0.5"/>
<text text-anchor="middle" x="786" y="-8.5" font-family="Helvetica,sans-Serif" font-size="10.00">MojDbLunaServiceApp.cpp</text>
</a>
</g>
<!-- Node9&#45;&gt;Node14 -->
<g id="edge30" class="edge"><title>Node9&#45;&gt;Node14</title>
<path fill="none" stroke="midnightblue" d="M780.751,-111.583C793.646,-104.06 806.788,-93.6379 814,-80 824.515,-60.1145 807.801,-35.3846 796.015,-21.5822"/>
<polygon fill="midnightblue" stroke="midnightblue" points="779.081,-108.506 771.939,-116.332 782.402,-114.669 779.081,-108.506"/>
</g>
<!-- Node13&#45;&gt;Node14 -->
<g id="edge28" class="edge"><title>Node13&#45;&gt;Node14</title>
<path fill="none" stroke="midnightblue" d="M753.958,-50.5407C761.707,-40.9786 770.89,-29.6467 777.434,-21.5707"/>
<polygon fill="midnightblue" stroke="midnightblue" points="751.197,-48.389 747.621,-58.3619 756.636,-52.7961 751.197,-48.389"/>
</g>
<!-- Node15&#45;&gt;Node10 -->
<g id="edge34" class="edge"><title>Node15&#45;&gt;Node10</title>
<path fill="none" stroke="midnightblue" d="M398.489,-106.191C397.4,-97.1684 396.172,-86.9941 395.276,-79.5707"/>
<polygon fill="midnightblue" stroke="midnightblue" points="395.043,-106.853 399.716,-116.362 401.993,-106.015 395.043,-106.853"/>
</g>
<!-- Node15&#45;&gt;Node11 -->
<g id="edge36" class="edge"><title>Node15&#45;&gt;Node11</title>
<path fill="none" stroke="midnightblue" d="M440.895,-113.144C470.613,-102.823 510.575,-88.9439 537.701,-79.5231"/>
<polygon fill="midnightblue" stroke="midnightblue" points="439.541,-109.909 431.242,-116.497 441.837,-116.522 439.541,-109.909"/>
</g>
<!-- Node15&#45;&gt;Node13 -->
<g id="edge38" class="edge"><title>Node15&#45;&gt;Node13</title>
<path fill="none" stroke="midnightblue" d="M472.13,-114.794C533.026,-104.345 619.791,-89.4559 677.676,-79.5231"/>
<polygon fill="midnightblue" stroke="midnightblue" points="471.473,-111.356 462.209,-116.497 472.657,-118.255 471.473,-111.356"/>
</g>
<!-- Node18 -->
<g id="node41" class="node"><title>Node18</title>
<a xlink:href="MojLunaMessage_8cpp.htm" target="_top" xlink:title="MojLunaMessage.cpp">
<polygon fill="white" stroke="black" points="957,-116.5 957,-137.5 1077,-137.5 1077,-116.5 957,-116.5"/>
<text text-anchor="middle" x="1017" y="-124.5" font-family="Helvetica,sans-Serif" font-size="10.00">MojLunaMessage.cpp</text>
</a>
</g>
<!-- Node17&#45;&gt;Node18 -->
<g id="edge46" class="edge"><title>Node17&#45;&gt;Node18</title>
<path fill="none" stroke="midnightblue" d="M792.003,-172.47C843.621,-162.038 916.285,-147.354 964.929,-137.523"/>
<polygon fill="midnightblue" stroke="midnightblue" points="791.082,-169.085 781.974,-174.497 792.469,-175.946 791.082,-169.085"/>
</g>
<!-- Node19 -->
<g id="node43" class="node"><title>Node19</title>
<a xlink:href="MojLunaService_8cpp.htm" target="_top" xlink:title="MojLunaService.cpp">
<polygon fill="white" stroke="black" points="827,-116.5 827,-137.5 939,-137.5 939,-116.5 827,-116.5"/>
<text text-anchor="middle" x="883" y="-124.5" font-family="Helvetica,sans-Serif" font-size="10.00">MojLunaService.cpp</text>
</a>
</g>
<!-- Node17&#45;&gt;Node19 -->
<g id="edge48" class="edge"><title>Node17&#45;&gt;Node19</title>
<path fill="none" stroke="midnightblue" d="M767.263,-170.874C794.413,-160.582 830.605,-146.862 855.241,-137.523"/>
<polygon fill="midnightblue" stroke="midnightblue" points="765.817,-167.679 757.707,-174.497 768.298,-174.225 765.817,-167.679"/>
</g>
</g>
</svg>
