<?xml version="1.0" encoding="UTF-8" standalone="no"?>
<!DOCTYPE svg PUBLIC "-//W3C//DTD SVG 1.1//EN"
 "http://www.w3.org/Graphics/SVG/1.1/DTD/svg11.dtd">
<!-- Generated by graphviz version 2.26.3 (20100126.1600)
 -->
<!-- Title: MojServiceRequest.cpp Pages: 1 -->
<svg width="2079pt" height="884pt"
 viewBox="0.00 0.00 2079.08 884.00" xmlns="http://www.w3.org/2000/svg" xmlns:xlink="http://www.w3.org/1999/xlink">
<g id="graph1" class="graph" transform="scale(1 1) rotate(0) translate(4 880)">
<title>MojServiceRequest.cpp</title>
<polygon fill="white" stroke="white" points="-4,5 -4,-880 2076.08,-880 2076.08,5 -4,5"/>
<!-- Node1 -->
<g id="node1" class="node"><title>Node1</title>
<polygon fill="#bfbfbf" stroke="black" points="553,-854.5 553,-875.5 681,-875.5 681,-854.5 553,-854.5"/>
<text text-anchor="middle" x="617" y="-862.5" font-family="Helvetica,sans-Serif" font-size="10.00">MojServiceRequest.cpp</text>
</g>
<!-- Node2 -->
<g id="node3" class="node"><title>Node2</title>
<a xlink:href="MojServiceRequest_8h.htm" target="_top" xlink:title="core/MojServiceRequest.h">
<polygon fill="white" stroke="black" points="247,-680.5 247,-701.5 387,-701.5 387,-680.5 247,-680.5"/>
<text text-anchor="middle" x="317" y="-688.5" font-family="Helvetica,sans-Serif" font-size="10.00">core/MojServiceRequest.h</text>
</a>
</g>
<!-- Node1&#45;&gt;Node2 -->
<g id="edge2" class="edge"><title>Node1&#45;&gt;Node2</title>
<path fill="none" stroke="midnightblue" d="M598.638,-854.454C565.782,-835.572 494.775,-794.719 435,-760 403.659,-741.796 367.715,-720.754 343.815,-706.74"/>
<polygon fill="midnightblue" stroke="midnightblue" points="345.37,-703.594 334.973,-701.554 341.828,-709.632 345.37,-703.594"/>
</g>
<!-- Node29 -->
<g id="node72" class="node"><title>Node29</title>
<a xlink:href="MojService_8h.htm" target="_top" xlink:title="core/MojService.h">
<polygon fill="white" stroke="black" points="820.5,-796.5 820.5,-817.5 921.5,-817.5 921.5,-796.5 820.5,-796.5"/>
<text text-anchor="middle" x="871" y="-804.5" font-family="Helvetica,sans-Serif" font-size="10.00">core/MojService.h</text>
</a>
</g>
<!-- Node1&#45;&gt;Node29 -->
<g id="edge86" class="edge"><title>Node1&#45;&gt;Node29</title>
<path fill="none" stroke="midnightblue" d="M662.997,-854.497C705.661,-844.755 769.256,-830.233 814.888,-819.813"/>
<polygon fill="midnightblue" stroke="midnightblue" points="815.946,-823.161 824.916,-817.523 814.388,-816.337 815.946,-823.161"/>
</g>
<!-- Node3 -->
<g id="node5" class="node"><title>Node3</title>
<a xlink:href="MojCoreDefs_8h.htm" target="_top" xlink:title="core/MojCoreDefs.h">
<polygon fill="white" stroke="black" points="799.5,-232.5 799.5,-253.5 910.5,-253.5 910.5,-232.5 799.5,-232.5"/>
<text text-anchor="middle" x="855" y="-240.5" font-family="Helvetica,sans-Serif" font-size="10.00">core/MojCoreDefs.h</text>
</a>
</g>
<!-- Node2&#45;&gt;Node3 -->
<g id="edge4" class="edge"><title>Node2&#45;&gt;Node3</title>
<path fill="none" stroke="midnightblue" d="M257.375,-680.465C165.548,-662.523 0,-622.605 0,-568 0,-568 0,-568 0,-366 0,-270.91 107.148,-310.509 200,-290 310.914,-265.501 646.004,-250.665 789.086,-245.292"/>
<polygon fill="midnightblue" stroke="midnightblue" points="789.598,-248.776 799.461,-244.907 789.338,-241.781 789.598,-248.776"/>
</g>
<!-- Node13 -->
<g id="node25" class="node"><title>Node13</title>
<a xlink:href="MojSignal_8h.htm" target="_top" xlink:title="core/MojSignal.h">
<polygon fill="white" stroke="black" points="269.5,-622.5 269.5,-643.5 364.5,-643.5 364.5,-622.5 269.5,-622.5"/>
<text text-anchor="middle" x="317" y="-630.5" font-family="Helvetica,sans-Serif" font-size="10.00">core/MojSignal.h</text>
</a>
</g>
<!-- Node2&#45;&gt;Node13 -->
<g id="edge24" class="edge"><title>Node2&#45;&gt;Node13</title>
<path fill="none" stroke="midnightblue" d="M317,-680.362C317,-672.922 317,-662.743 317,-653.728"/>
<polygon fill="midnightblue" stroke="midnightblue" points="320.5,-653.571 317,-643.571 313.5,-653.571 320.5,-653.571"/>
</g>
<!-- Node4 -->
<g id="node7" class="node"><title>Node4</title>
<a xlink:href="MojConfig_8h.htm" target="_top" xlink:title="core/internal/MojConfig.h">
<polygon fill="white" stroke="black" points="912.5,-174.5 912.5,-195.5 1047.5,-195.5 1047.5,-174.5 912.5,-174.5"/>
<text text-anchor="middle" x="980" y="-182.5" font-family="Helvetica,sans-Serif" font-size="10.00">core/internal/MojConfig.h</text>
</a>
</g>
<!-- Node3&#45;&gt;Node4 -->
<g id="edge6" class="edge"><title>Node3&#45;&gt;Node4</title>
<path fill="none" stroke="midnightblue" d="M877.637,-232.497C897.248,-223.397 925.846,-210.127 947.833,-199.925"/>
<polygon fill="midnightblue" stroke="midnightblue" points="949.512,-203.005 957.109,-195.621 946.565,-196.655 949.512,-203.005"/>
</g>
<!-- Node5 -->
<g id="node9" class="node"><title>Node5</title>
<a xlink:href="MojNew_8h.htm" target="_top" xlink:title="core/internal/MojNew.h">
<polygon fill="white" stroke="black" points="574.5,-174.5 574.5,-195.5 699.5,-195.5 699.5,-174.5 574.5,-174.5"/>
<text text-anchor="middle" x="637" y="-182.5" font-family="Helvetica,sans-Serif" font-size="10.00">core/internal/MojNew.h</text>
</a>
</g>
<!-- Node3&#45;&gt;Node5 -->
<g id="edge8" class="edge"><title>Node3&#45;&gt;Node5</title>
<path fill="none" stroke="midnightblue" d="M815.522,-232.497C779.367,-222.877 725.696,-208.598 686.647,-198.209"/>
<polygon fill="midnightblue" stroke="midnightblue" points="687.116,-194.712 676.552,-195.523 685.316,-201.477 687.116,-194.712"/>
</g>
<!-- Node7 -->
<g id="node13" class="node"><title>Node7</title>
<a xlink:href="MojErr_8h.htm" target="_top" xlink:title="core/MojErr.h">
<polygon fill="white" stroke="black" points="717,-174.5 717,-195.5 797,-195.5 797,-174.5 717,-174.5"/>
<text text-anchor="middle" x="757" y="-182.5" font-family="Helvetica,sans-Serif" font-size="10.00">core/MojErr.h</text>
</a>
</g>
<!-- Node3&#45;&gt;Node7 -->
<g id="edge12" class="edge"><title>Node3&#45;&gt;Node7</title>
<path fill="none" stroke="midnightblue" d="M837.025,-232.362C822.106,-223.532 800.667,-210.844 783.734,-200.822"/>
<polygon fill="midnightblue" stroke="midnightblue" points="785.249,-197.652 774.861,-195.571 781.684,-203.676 785.249,-197.652"/>
</g>
<!-- Node11 -->
<g id="node21" class="node"><title>Node11</title>
<a xlink:href="MojOs_8h.htm" target="_top" xlink:title="core/MojOs.h">
<polygon fill="white" stroke="black" points="815,-174.5 815,-195.5 895,-195.5 895,-174.5 815,-174.5"/>
<text text-anchor="middle" x="855" y="-182.5" font-family="Helvetica,sans-Serif" font-size="10.00">core/MojOs.h</text>
</a>
</g>
<!-- Node3&#45;&gt;Node11 -->
<g id="edge20" class="edge"><title>Node3&#45;&gt;Node11</title>
<path fill="none" stroke="midnightblue" d="M855,-232.362C855,-224.922 855,-214.743 855,-205.728"/>
<polygon fill="midnightblue" stroke="midnightblue" points="858.5,-205.571 855,-195.571 851.5,-205.571 858.5,-205.571"/>
</g>
<!-- Node6 -->
<g id="node11" class="node"><title>Node6</title>
<polygon fill="white" stroke="#bfbfbf" points="619,-116.5 619,-137.5 655,-137.5 655,-116.5 619,-116.5"/>
<text text-anchor="middle" x="637" y="-124.5" font-family="Helvetica,sans-Serif" font-size="10.00">new</text>
</g>
<!-- Node5&#45;&gt;Node6 -->
<g id="edge10" class="edge"><title>Node5&#45;&gt;Node6</title>
<path fill="none" stroke="midnightblue" d="M637,-174.362C637,-166.922 637,-156.743 637,-147.728"/>
<polygon fill="midnightblue" stroke="midnightblue" points="640.5,-147.571 637,-137.571 633.5,-147.571 640.5,-147.571"/>
</g>
<!-- Node8 -->
<g id="node15" class="node"><title>Node8</title>
<a xlink:href="MojLog_8h.htm" target="_top" xlink:title="core/MojLog.h">
<polygon fill="white" stroke="black" points="674,-116.5 674,-137.5 758,-137.5 758,-116.5 674,-116.5"/>
<text text-anchor="middle" x="716" y="-124.5" font-family="Helvetica,sans-Serif" font-size="10.00">core/MojLog.h</text>
</a>
</g>
<!-- Node7&#45;&gt;Node8 -->
<g id="edge14" class="edge"><title>Node7&#45;&gt;Node8</title>
<path fill="none" stroke="midnightblue" d="M749.48,-174.362C743.874,-166.431 736.068,-155.389 729.403,-145.961"/>
<polygon fill="midnightblue" stroke="midnightblue" points="732.103,-143.716 723.472,-137.571 726.387,-147.757 732.103,-143.716"/>
</g>
<!-- Node9 -->
<g id="node17" class="node"><title>Node9</title>
<a xlink:href="MojListEntry_8h.htm" target="_top" xlink:title="core/MojListEntry.h">
<polygon fill="white" stroke="black" points="373.5,-58.5 373.5,-79.5 480.5,-79.5 480.5,-58.5 373.5,-58.5"/>
<text text-anchor="middle" x="427" y="-66.5" font-family="Helvetica,sans-Serif" font-size="10.00">core/MojListEntry.h</text>
</a>
</g>
<!-- Node8&#45;&gt;Node9 -->
<g id="edge16" class="edge"><title>Node8&#45;&gt;Node9</title>
<path fill="none" stroke="midnightblue" d="M673.724,-118.01C670.435,-117.325 667.164,-116.648 664,-116 605.303,-103.972 538.323,-90.734 490.578,-81.381"/>
<polygon fill="midnightblue" stroke="midnightblue" points="491.177,-77.932 480.691,-79.4459 489.833,-84.8017 491.177,-77.932"/>
</g>
<!-- Node10 -->
<g id="node19" class="node"><title>Node10</title>
<a xlink:href="MojNoCopy_8h.htm" target="_top" xlink:title="core/MojNoCopy.h">
<polygon fill="white" stroke="black" points="203,-0.5 203,-21.5 307,-21.5 307,-0.5 203,-0.5"/>
<text text-anchor="middle" x="255" y="-8.5" font-family="Helvetica,sans-Serif" font-size="10.00">core/MojNoCopy.h</text>
</a>
</g>
<!-- Node9&#45;&gt;Node10 -->
<g id="edge18" class="edge"><title>Node9&#45;&gt;Node10</title>
<path fill="none" stroke="midnightblue" d="M395.852,-58.4966C367.811,-49.0411 326.418,-35.0829 295.755,-24.7428"/>
<polygon fill="midnightblue" stroke="midnightblue" points="296.8,-21.4019 286.206,-21.5231 294.564,-28.035 296.8,-21.4019"/>
</g>
<!-- Node12 -->
<g id="node23" class="node"><title>Node12</title>
<a xlink:href="MojOsInternal_8h.htm" target="_top" xlink:title="core/internal/MojOsInternal.h">
<polygon fill="white" stroke="black" points="778,-116.5 778,-137.5 932,-137.5 932,-116.5 778,-116.5"/>
<text text-anchor="middle" x="855" y="-124.5" font-family="Helvetica,sans-Serif" font-size="10.00">core/internal/MojOsInternal.h</text>
</a>
</g>
<!-- Node11&#45;&gt;Node12 -->
<g id="edge22" class="edge"><title>Node11&#45;&gt;Node12</title>
<path fill="none" stroke="midnightblue" d="M855,-174.362C855,-166.922 855,-156.743 855,-147.728"/>
<polygon fill="midnightblue" stroke="midnightblue" points="858.5,-147.571 855,-137.571 851.5,-147.571 858.5,-147.571"/>
</g>
<!-- Node13&#45;&gt;Node3 -->
<g id="edge26" class="edge"><title>Node13&#45;&gt;Node3</title>
<path fill="none" stroke="midnightblue" d="M269.43,-625.438C227.348,-617.663 170.575,-604.137 157,-586 147.412,-573.191 148.281,-563.416 157,-550 178.467,-516.967 212.658,-544.162 238,-514 260.397,-487.343 257,-472.817 257,-438 257,-438 257,-438 257,-366 257,-318.231 289.732,-310.243 333,-290 373.373,-271.112 657.753,-253.603 788.96,-246.428"/>
<polygon fill="midnightblue" stroke="midnightblue" points="789.479,-249.905 799.275,-245.868 789.1,-242.915 789.479,-249.905"/>
</g>
<!-- Node14 -->
<g id="node28" class="node"><title>Node14</title>
<a xlink:href="MojList_8h.htm" target="_top" xlink:title="core/MojList.h">
<polygon fill="white" stroke="black" points="27.5,-557.5 27.5,-578.5 110.5,-578.5 110.5,-557.5 27.5,-557.5"/>
<text text-anchor="middle" x="69" y="-565.5" font-family="Helvetica,sans-Serif" font-size="10.00">core/MojList.h</text>
</a>
</g>
<!-- Node13&#45;&gt;Node14 -->
<g id="edge28" class="edge"><title>Node13&#45;&gt;Node14</title>
<path fill="none" stroke="midnightblue" d="M269.142,-622.431C229.922,-613.51 173.086,-599.986 124,-586 119.296,-584.66 114.391,-583.178 109.533,-581.657"/>
<polygon fill="midnightblue" stroke="midnightblue" points="110.296,-578.227 99.7051,-578.514 108.164,-584.894 110.296,-578.227"/>
</g>
<!-- Node16 -->
<g id="node33" class="node"><title>Node16</title>
<a xlink:href="MojThread_8h.htm" target="_top" xlink:title="core/MojThread.h">
<polygon fill="white" stroke="black" points="391.5,-557.5 391.5,-578.5 492.5,-578.5 492.5,-557.5 391.5,-557.5"/>
<text text-anchor="middle" x="442" y="-565.5" font-family="Helvetica,sans-Serif" font-size="10.00">core/MojThread.h</text>
</a>
</g>
<!-- Node13&#45;&gt;Node16 -->
<g id="edge34" class="edge"><title>Node13&#45;&gt;Node16</title>
<path fill="none" stroke="midnightblue" d="M337.362,-622.412C357.791,-611.788 389.465,-595.318 412.615,-583.28"/>
<polygon fill="midnightblue" stroke="midnightblue" points="414.39,-586.302 421.647,-578.584 411.16,-580.092 414.39,-586.302"/>
</g>
<!-- Node21 -->
<g id="node48" class="node"><title>Node21</title>
<a xlink:href="MojVector_8h.htm" target="_top" xlink:title="core/MojVector.h">
<polygon fill="white" stroke="black" points="1185.5,-557.5 1185.5,-578.5 1282.5,-578.5 1282.5,-557.5 1185.5,-557.5"/>
<text text-anchor="middle" x="1234" y="-565.5" font-family="Helvetica,sans-Serif" font-size="10.00">core/MojVector.h</text>
</a>
</g>
<!-- Node13&#45;&gt;Node21 -->
<g id="edge54" class="edge"><title>Node13&#45;&gt;Node21</title>
<path fill="none" stroke="midnightblue" d="M364.69,-629.62C519.171,-618.669 1005.62,-584.189 1175.08,-572.176"/>
<polygon fill="midnightblue" stroke="midnightblue" points="1175.58,-575.65 1185.31,-571.452 1175.08,-568.668 1175.58,-575.65"/>
</g>
<!-- Node28 -->
<g id="node70" class="node"><title>Node28</title>
<a xlink:href="MojSignalInternal_8h.htm" target="_top" xlink:title="core/internal/MojSignalInternal.h">
<polygon fill="white" stroke="black" points="166,-557.5 166,-578.5 336,-578.5 336,-557.5 166,-557.5"/>
<text text-anchor="middle" x="251" y="-565.5" font-family="Helvetica,sans-Serif" font-size="10.00">core/internal/MojSignalInternal.h</text>
</a>
</g>
<!-- Node13&#45;&gt;Node28 -->
<g id="edge84" class="edge"><title>Node13&#45;&gt;Node28</title>
<path fill="none" stroke="midnightblue" d="M306.101,-622.267C296.01,-612.328 280.815,-597.363 268.936,-585.664"/>
<polygon fill="midnightblue" stroke="midnightblue" points="271.277,-583.057 261.696,-578.534 266.365,-588.044 271.277,-583.057"/>
</g>
<!-- Node14&#45;&gt;Node3 -->
<g id="edge30" class="edge"><title>Node14&#45;&gt;Node3</title>
<path fill="none" stroke="midnightblue" d="M65.5655,-557.262C61.3305,-542.153 55.6524,-514.007 64,-492 106.543,-379.843 135.577,-343.379 243,-290 290.966,-266.166 641.058,-250.779 789.143,-245.272"/>
<polygon fill="midnightblue" stroke="midnightblue" points="789.584,-248.759 799.449,-244.893 789.327,-241.763 789.584,-248.759"/>
</g>
<!-- Node15 -->
<g id="node31" class="node"><title>Node15</title>
<a xlink:href="MojListInternal_8h.htm" target="_top" xlink:title="core/internal/MojListInternal.h">
<polygon fill="white" stroke="black" points="72.5,-492.5 72.5,-513.5 229.5,-513.5 229.5,-492.5 72.5,-492.5"/>
<text text-anchor="middle" x="151" y="-500.5" font-family="Helvetica,sans-Serif" font-size="10.00">core/internal/MojListInternal.h</text>
</a>
</g>
<!-- Node14&#45;&gt;Node15 -->
<g id="edge32" class="edge"><title>Node14&#45;&gt;Node15</title>
<path fill="none" stroke="midnightblue" d="M82.5406,-557.267C95.3173,-547.139 114.678,-531.792 129.554,-520"/>
<polygon fill="midnightblue" stroke="midnightblue" points="132.049,-522.488 137.711,-513.534 127.701,-517.003 132.049,-522.488"/>
</g>
<!-- Node16&#45;&gt;Node3 -->
<g id="edge36" class="edge"><title>Node16&#45;&gt;Node3</title>
<path fill="none" stroke="midnightblue" d="M425.157,-557.402C396.186,-537.714 340,-492.506 340,-438 340,-438 340,-438 340,-366 340,-274.638 650.494,-250.998 789.306,-244.995"/>
<polygon fill="midnightblue" stroke="midnightblue" points="789.55,-248.488 799.397,-244.577 789.26,-241.494 789.55,-248.488"/>
</g>
<!-- Node17 -->
<g id="node36" class="node"><title>Node17</title>
<a xlink:href="MojAtomicInt_8h.htm" target="_top" xlink:title="core/MojAtomicInt.h">
<polygon fill="white" stroke="black" points="474,-355.5 474,-376.5 584,-376.5 584,-355.5 474,-355.5"/>
<text text-anchor="middle" x="529" y="-363.5" font-family="Helvetica,sans-Serif" font-size="10.00">core/MojAtomicInt.h</text>
</a>
</g>
<!-- Node16&#45;&gt;Node17 -->
<g id="edge38" class="edge"><title>Node16&#45;&gt;Node17</title>
<path fill="none" stroke="midnightblue" d="M428.165,-557.399C411.348,-543.127 386.443,-516.671 397,-492 418.303,-442.214 470.006,-402.739 502.016,-382.001"/>
<polygon fill="midnightblue" stroke="midnightblue" points="503.894,-384.955 510.48,-376.656 500.156,-379.036 503.894,-384.955"/>
</g>
<!-- Node18 -->
<g id="node39" class="node"><title>Node18</title>
<a xlink:href="MojThreadInternal_8h.htm" target="_top" xlink:title="core/internal/MojThreadInternal.h">
<polygon fill="white" stroke="black" points="405.5,-492.5 405.5,-513.5 580.5,-513.5 580.5,-492.5 405.5,-492.5"/>
<text text-anchor="middle" x="493" y="-500.5" font-family="Helvetica,sans-Serif" font-size="10.00">core/internal/MojThreadInternal.h</text>
</a>
</g>
<!-- Node16&#45;&gt;Node18 -->
<g id="edge42" class="edge"><title>Node16&#45;&gt;Node18</title>
<path fill="none" stroke="midnightblue" d="M450.422,-557.267C457.997,-547.612 469.293,-533.215 478.347,-521.675"/>
<polygon fill="midnightblue" stroke="midnightblue" points="481.316,-523.562 484.735,-513.534 475.809,-519.241 481.316,-523.562"/>
</g>
<!-- Node17&#45;&gt;Node3 -->
<g id="edge40" class="edge"><title>Node17&#45;&gt;Node3</title>
<path fill="none" stroke="midnightblue" d="M557.077,-355.407C615.691,-333.291 751.103,-282.201 817.255,-257.241"/>
<polygon fill="midnightblue" stroke="midnightblue" points="818.755,-260.416 826.875,-253.612 816.283,-253.867 818.755,-260.416"/>
</g>
<!-- Node19 -->
<g id="node41" class="node"><title>Node19</title>
<a xlink:href="MojAutoPtr_8h.htm" target="_top" xlink:title="core/MojAutoPtr.h">
<polygon fill="white" stroke="black" points="623.5,-427.5 623.5,-448.5 724.5,-448.5 724.5,-427.5 623.5,-427.5"/>
<text text-anchor="middle" x="674" y="-435.5" font-family="Helvetica,sans-Serif" font-size="10.00">core/MojAutoPtr.h</text>
</a>
</g>
<!-- Node18&#45;&gt;Node19 -->
<g id="edge44" class="edge"><title>Node18&#45;&gt;Node19</title>
<path fill="none" stroke="midnightblue" d="M522.484,-492.412C553.118,-481.411 601.211,-464.14 634.979,-452.013"/>
<polygon fill="midnightblue" stroke="midnightblue" points="636.3,-455.257 644.529,-448.584 633.935,-448.669 636.3,-455.257"/>
</g>
<!-- Node19&#45;&gt;Node3 -->
<g id="edge46" class="edge"><title>Node19&#45;&gt;Node3</title>
<path fill="none" stroke="midnightblue" d="M691.289,-427.382C706.057,-417.605 727.064,-401.929 741,-384 769.194,-347.727 754.14,-324.914 784,-290 794.929,-277.221 810.164,-266.519 823.72,-258.571"/>
<polygon fill="midnightblue" stroke="midnightblue" points="825.741,-261.451 832.763,-253.517 822.326,-255.341 825.741,-261.451"/>
</g>
<!-- Node19&#45;&gt;Node10 -->
<g id="edge50" class="edge"><title>Node19&#45;&gt;Node10</title>
<path fill="none" stroke="midnightblue" d="M623.356,-437.024C480.218,-432.907 83,-411.525 83,-301 83,-301 83,-301 83,-127 83,-70.6101 147.332,-39.8068 197.308,-24.385"/>
<polygon fill="midnightblue" stroke="midnightblue" points="198.486,-27.6868 207.088,-21.5027 196.507,-20.9723 198.486,-27.6868"/>
</g>
<!-- Node19&#45;&gt;Node17 -->
<g id="edge48" class="edge"><title>Node19&#45;&gt;Node17</title>
<path fill="none" stroke="midnightblue" d="M652.605,-427.376C628.081,-415.199 587.686,-395.141 559.785,-381.286"/>
<polygon fill="midnightblue" stroke="midnightblue" points="560.996,-377.98 550.483,-376.667 557.883,-384.25 560.996,-377.98"/>
</g>
<!-- Node20 -->
<g id="node46" class="node"><title>Node20</title>
<a xlink:href="MojAutoPtrInternal_8h.htm" target="_top" xlink:title="core/internal/MojAutoPtr\lInternal.h">
<polygon fill="white" stroke="black" points="601.5,-349 601.5,-383 732.5,-383 732.5,-349 601.5,-349"/>
<text text-anchor="start" x="609.5" y="-370" font-family="Helvetica,sans-Serif" font-size="10.00">core/internal/MojAutoPtr</text>
<text text-anchor="middle" x="667" y="-357" font-family="Helvetica,sans-Serif" font-size="10.00">Internal.h</text>
</a>
</g>
<!-- Node19&#45;&gt;Node20 -->
<g id="edge52" class="edge"><title>Node19&#45;&gt;Node20</title>
<path fill="none" stroke="midnightblue" d="M672.967,-427.376C672.091,-418.36 670.794,-405.024 669.633,-393.084"/>
<polygon fill="midnightblue" stroke="midnightblue" points="673.113,-392.709 668.662,-383.094 666.146,-393.386 673.113,-392.709"/>
</g>
<!-- Node21&#45;&gt;Node3 -->
<g id="edge56" class="edge"><title>Node21&#45;&gt;Node3</title>
<path fill="none" stroke="midnightblue" d="M1265.66,-557.397C1307.82,-543.13 1377.54,-518.961 1381,-514 1413.92,-466.839 1307.48,-295.361 1300,-290 1269.89,-268.421 1037.6,-252.906 921.135,-246.398"/>
<polygon fill="midnightblue" stroke="midnightblue" points="921.093,-242.891 910.915,-245.834 920.707,-249.88 921.093,-242.891"/>
</g>
<!-- Node22 -->
<g id="node51" class="node"><title>Node22</title>
<a xlink:href="MojComp_8h.htm" target="_top" xlink:title="core/MojComp.h">
<polygon fill="white" stroke="black" points="1197,-290.5 1197,-311.5 1291,-311.5 1291,-290.5 1197,-290.5"/>
<text text-anchor="middle" x="1244" y="-298.5" font-family="Helvetica,sans-Serif" font-size="10.00">core/MojComp.h</text>
</a>
</g>
<!-- Node21&#45;&gt;Node22 -->
<g id="edge58" class="edge"><title>Node21&#45;&gt;Node22</title>
<path fill="none" stroke="midnightblue" d="M1264.52,-557.44C1301.34,-544.394 1359.08,-522.841 1365,-514 1389.12,-477.976 1298.09,-364.253 1260.01,-319.424"/>
<polygon fill="midnightblue" stroke="midnightblue" points="1262.52,-316.971 1253.36,-311.654 1257.21,-321.525 1262.52,-316.971"/>
</g>
<!-- Node23 -->
<g id="node54" class="node"><title>Node23</title>
<a xlink:href="MojRefCount_8h.htm" target="_top" xlink:title="core/MojRefCount.h">
<polygon fill="white" stroke="black" points="788,-492.5 788,-513.5 898,-513.5 898,-492.5 788,-492.5"/>
<text text-anchor="middle" x="843" y="-500.5" font-family="Helvetica,sans-Serif" font-size="10.00">core/MojRefCount.h</text>
</a>
</g>
<!-- Node21&#45;&gt;Node23 -->
<g id="edge62" class="edge"><title>Node21&#45;&gt;Node23</title>
<path fill="none" stroke="midnightblue" d="M1185.27,-559.899C1115.33,-548.272 986.319,-526.825 908.22,-513.842"/>
<polygon fill="midnightblue" stroke="midnightblue" points="908.457,-510.334 898.019,-512.146 907.309,-517.239 908.457,-510.334"/>
</g>
<!-- Node26 -->
<g id="node64" class="node"><title>Node26</title>
<a xlink:href="MojUtil_8h.htm" target="_top" xlink:title="core/MojUtil.h">
<polygon fill="white" stroke="black" points="1135.5,-427.5 1135.5,-448.5 1216.5,-448.5 1216.5,-427.5 1135.5,-427.5"/>
<text text-anchor="middle" x="1176" y="-435.5" font-family="Helvetica,sans-Serif" font-size="10.00">core/MojUtil.h</text>
</a>
</g>
<!-- Node21&#45;&gt;Node26 -->
<g id="edge76" class="edge"><title>Node21&#45;&gt;Node26</title>
<path fill="none" stroke="midnightblue" d="M1216.72,-557.336C1203.12,-547.846 1185.15,-532.605 1177,-514 1169.38,-496.59 1170.01,-474.711 1172.03,-458.905"/>
<polygon fill="midnightblue" stroke="midnightblue" points="1175.55,-459.04 1173.65,-448.619 1168.64,-457.955 1175.55,-459.04"/>
</g>
<!-- Node27 -->
<g id="node68" class="node"><title>Node27</title>
<a xlink:href="MojVectorInternal_8h.htm" target="_top" xlink:title="core/internal/MojVectorInternal.h">
<polygon fill="white" stroke="black" points="1185.5,-492.5 1185.5,-513.5 1356.5,-513.5 1356.5,-492.5 1185.5,-492.5"/>
<text text-anchor="middle" x="1271" y="-500.5" font-family="Helvetica,sans-Serif" font-size="10.00">core/internal/MojVectorInternal.h</text>
</a>
</g>
<!-- Node21&#45;&gt;Node27 -->
<g id="edge82" class="edge"><title>Node21&#45;&gt;Node27</title>
<path fill="none" stroke="midnightblue" d="M1240.11,-557.267C1245.5,-547.801 1253.48,-533.777 1259.98,-522.357"/>
<polygon fill="midnightblue" stroke="midnightblue" points="1263.1,-523.956 1265,-513.534 1257.02,-520.493 1263.1,-523.956"/>
</g>
<!-- Node22&#45;&gt;Node3 -->
<g id="edge60" class="edge"><title>Node22&#45;&gt;Node3</title>
<path fill="none" stroke="midnightblue" d="M1196.69,-293.946C1127.7,-283.66 999.228,-264.504 920.982,-252.838"/>
<polygon fill="midnightblue" stroke="midnightblue" points="921.164,-249.326 910.757,-251.313 920.131,-256.25 921.164,-249.326"/>
</g>
<!-- Node23&#45;&gt;Node3 -->
<g id="edge64" class="edge"><title>Node23&#45;&gt;Node3</title>
<path fill="none" stroke="midnightblue" d="M843.485,-492.486C845.287,-453.453 851.612,-316.414 854.04,-263.793"/>
<polygon fill="midnightblue" stroke="midnightblue" points="857.544,-263.796 854.509,-253.645 850.551,-263.473 857.544,-263.796"/>
</g>
<!-- Node23&#45;&gt;Node17 -->
<g id="edge66" class="edge"><title>Node23&#45;&gt;Node17</title>
<path fill="none" stroke="midnightblue" d="M832.118,-492.394C813.42,-474.757 773.302,-439.421 733,-420 675.123,-392.11 655.038,-400.698 593,-384 587.359,-382.482 581.448,-380.86 575.592,-379.236"/>
<polygon fill="midnightblue" stroke="midnightblue" points="576.423,-375.834 565.85,-376.517 574.541,-382.576 576.423,-375.834"/>
</g>
<!-- Node23&#45;&gt;Node19 -->
<g id="edge68" class="edge"><title>Node23&#45;&gt;Node19</title>
<path fill="none" stroke="midnightblue" d="M815.471,-492.412C787.114,-481.505 742.733,-464.436 711.249,-452.327"/>
<polygon fill="midnightblue" stroke="midnightblue" points="712.107,-448.907 701.517,-448.584 709.594,-455.44 712.107,-448.907"/>
</g>
<!-- Node24 -->
<g id="node59" class="node"><title>Node24</title>
<a xlink:href="MojRefCountInternal_8h.htm" target="_top" xlink:title="core/internal/MojRefCount\lInternal.h">
<polygon fill="white" stroke="black" points="978,-421 978,-455 1118,-455 1118,-421 978,-421"/>
<text text-anchor="start" x="986" y="-442" font-family="Helvetica,sans-Serif" font-size="10.00">core/internal/MojRefCount</text>
<text text-anchor="middle" x="1048" y="-429" font-family="Helvetica,sans-Serif" font-size="10.00">Internal.h</text>
</a>
</g>
<!-- Node23&#45;&gt;Node24 -->
<g id="edge70" class="edge"><title>Node23&#45;&gt;Node24</title>
<path fill="none" stroke="midnightblue" d="M876.393,-492.412C905.534,-483.172 948.625,-469.509 984.335,-458.186"/>
<polygon fill="midnightblue" stroke="midnightblue" points="985.72,-461.419 994.194,-455.06 983.604,-454.747 985.72,-461.419"/>
</g>
<!-- Node25 -->
<g id="node61" class="node"><title>Node25</title>
<a xlink:href="MojUtilInternal_8h.htm" target="_top" xlink:title="core/internal/MojUtilInternal.h">
<polygon fill="white" stroke="black" points="1061.5,-355.5 1061.5,-376.5 1216.5,-376.5 1216.5,-355.5 1061.5,-355.5"/>
<text text-anchor="middle" x="1139" y="-363.5" font-family="Helvetica,sans-Serif" font-size="10.00">core/internal/MojUtilInternal.h</text>
</a>
</g>
<!-- Node24&#45;&gt;Node25 -->
<g id="edge72" class="edge"><title>Node24&#45;&gt;Node25</title>
<path fill="none" stroke="midnightblue" d="M1069.57,-420.937C1084.06,-409.465 1103.1,-394.408 1117.57,-382.958"/>
<polygon fill="midnightblue" stroke="midnightblue" points="1119.82,-385.638 1125.49,-376.688 1115.48,-380.148 1119.82,-385.638"/>
</g>
<!-- Node25&#45;&gt;Node22 -->
<g id="edge74" class="edge"><title>Node25&#45;&gt;Node22</title>
<path fill="none" stroke="midnightblue" d="M1156.34,-355.267C1173.23,-344.807 1199.12,-328.782 1218.39,-316.854"/>
<polygon fill="midnightblue" stroke="midnightblue" points="1220.32,-319.773 1226.98,-311.534 1216.64,-313.821 1220.32,-319.773"/>
</g>
<!-- Node26&#45;&gt;Node3 -->
<g id="edge78" class="edge"><title>Node26&#45;&gt;Node3</title>
<path fill="none" stroke="midnightblue" d="M1146.78,-427.308C1121.28,-417.484 1083.67,-401.781 1053,-384 992.249,-348.777 983.52,-330.284 926,-290 910.902,-279.427 893.669,-268.003 879.961,-259.066"/>
<polygon fill="midnightblue" stroke="midnightblue" points="881.814,-256.096 871.52,-253.586 878.002,-261.967 881.814,-256.096"/>
</g>
<!-- Node26&#45;&gt;Node25 -->
<g id="edge80" class="edge"><title>Node26&#45;&gt;Node25</title>
<path fill="none" stroke="midnightblue" d="M1170.54,-427.376C1164.91,-416.422 1156,-399.09 1149.09,-385.634"/>
<polygon fill="midnightblue" stroke="midnightblue" points="1152.17,-383.962 1144.48,-376.667 1145.94,-387.162 1152.17,-383.962"/>
</g>
<!-- Node29&#45;&gt;Node3 -->
<g id="edge88" class="edge"><title>Node29&#45;&gt;Node3</title>
<path fill="none" stroke="midnightblue" d="M921.779,-804.684C1146.92,-794.086 2044,-748.267 2044,-691 2044,-691 2044,-691 2044,-366 2044,-319.326 2176.71,-352.48 1853,-290 1673.64,-255.382 1113.85,-245.913 921.042,-243.644"/>
<polygon fill="midnightblue" stroke="midnightblue" points="920.816,-240.141 910.777,-243.525 920.736,-247.14 920.816,-240.141"/>
</g>
<!-- Node29&#45;&gt;Node13 -->
<g id="edge168" class="edge"><title>Node29&#45;&gt;Node13</title>
<path fill="none" stroke="midnightblue" d="M820.269,-803.586C733.859,-797.254 562.031,-782.278 506,-760 449.826,-737.666 446.474,-713.267 396,-680 379.337,-669.018 360.104,-657.55 344.786,-648.692"/>
<polygon fill="midnightblue" stroke="midnightblue" points="346.229,-645.484 335.813,-643.541 342.744,-651.555 346.229,-645.484"/>
</g>
<!-- Node29&#45;&gt;Node19 -->
<g id="edge90" class="edge"><title>Node29&#45;&gt;Node19</title>
<path fill="none" stroke="midnightblue" d="M820.336,-800.989C723.134,-788.037 520,-753.494 520,-691 520,-691 520,-691 520,-633 520,-595.157 518.075,-581.531 539,-550 554.142,-527.184 567.653,-531.15 589,-514 612.607,-495.035 638.351,-471.599 655.249,-455.806"/>
<polygon fill="midnightblue" stroke="midnightblue" points="657.898,-458.121 662.786,-448.721 653.103,-453.02 657.898,-458.121"/>
</g>
<!-- Node30 -->
<g id="node76" class="node"><title>Node30</title>
<a xlink:href="MojHashMap_8h.htm" target="_top" xlink:title="core/MojHashMap.h">
<polygon fill="white" stroke="black" points="728,-622.5 728,-643.5 840,-643.5 840,-622.5 728,-622.5"/>
<text text-anchor="middle" x="784" y="-630.5" font-family="Helvetica,sans-Serif" font-size="10.00">core/MojHashMap.h</text>
</a>
</g>
<!-- Node29&#45;&gt;Node30 -->
<g id="edge92" class="edge"><title>Node29&#45;&gt;Node30</title>
<path fill="none" stroke="midnightblue" d="M865.689,-796.377C851.525,-768.051 812.674,-690.349 794.121,-653.242"/>
<polygon fill="midnightblue" stroke="midnightblue" points="797.067,-651.307 789.464,-643.928 790.806,-654.437 797.067,-651.307"/>
</g>
<!-- Node34 -->
<g id="node90" class="node"><title>Node34</title>
<a xlink:href="MojObject_8h.htm" target="_top" xlink:title="core/MojObject.h">
<polygon fill="white" stroke="black" points="1186,-680.5 1186,-701.5 1282,-701.5 1282,-680.5 1186,-680.5"/>
<text text-anchor="middle" x="1234" y="-688.5" font-family="Helvetica,sans-Serif" font-size="10.00">core/MojObject.h</text>
</a>
</g>
<!-- Node29&#45;&gt;Node34 -->
<g id="edge112" class="edge"><title>Node29&#45;&gt;Node34</title>
<path fill="none" stroke="midnightblue" d="M904.176,-796.398C970.204,-775.299 1118,-728.07 1191.21,-704.673"/>
<polygon fill="midnightblue" stroke="midnightblue" points="1192.57,-707.913 1201.03,-701.535 1190.44,-701.245 1192.57,-707.913"/>
</g>
<!-- Node38 -->
<g id="node105" class="node"><title>Node38</title>
<a xlink:href="MojString_8h.htm" target="_top" xlink:title="core/MojString.h">
<polygon fill="white" stroke="black" points="957,-622.5 957,-643.5 1051,-643.5 1051,-622.5 957,-622.5"/>
<text text-anchor="middle" x="1004" y="-630.5" font-family="Helvetica,sans-Serif" font-size="10.00">core/MojString.h</text>
</a>
</g>
<!-- Node29&#45;&gt;Node38 -->
<g id="edge170" class="edge"><title>Node29&#45;&gt;Node38</title>
<path fill="none" stroke="midnightblue" d="M879.12,-796.377C900.957,-767.809 961.182,-689.017 989.248,-652.3"/>
<polygon fill="midnightblue" stroke="midnightblue" points="992.355,-653.998 995.647,-643.928 986.794,-649.747 992.355,-653.998"/>
</g>
<!-- Node39 -->
<g id="node113" class="node"><title>Node39</title>
<a xlink:href="MojSchema_8h.htm" target="_top" xlink:title="core/MojSchema.h">
<polygon fill="white" stroke="black" points="1261,-738.5 1261,-759.5 1365,-759.5 1365,-738.5 1261,-738.5"/>
<text text-anchor="middle" x="1313" y="-746.5" font-family="Helvetica,sans-Serif" font-size="10.00">core/MojSchema.h</text>
</a>
</g>
<!-- Node29&#45;&gt;Node39 -->
<g id="edge148" class="edge"><title>Node29&#45;&gt;Node39</title>
<path fill="none" stroke="midnightblue" d="M921.729,-801.262C993.884,-792.96 1130.25,-776.749 1246,-760 1247.49,-759.784 1249.01,-759.562 1250.53,-759.335"/>
<polygon fill="midnightblue" stroke="midnightblue" points="1251.37,-762.748 1260.73,-757.779 1250.31,-755.828 1251.37,-762.748"/>
</g>
<!-- Node30&#45;&gt;Node3 -->
<g id="edge94" class="edge"><title>Node30&#45;&gt;Node3</title>
<path fill="none" stroke="midnightblue" d="M727.789,-629.269C624.166,-621.977 411.003,-604.886 383,-586 351.916,-565.036 302,-475.492 302,-438 302,-438 302,-438 302,-366 302,-314.322 342.534,-310.435 390,-290 460.103,-259.819 678.289,-248.614 789.056,-244.795"/>
<polygon fill="midnightblue" stroke="midnightblue" points="789.231,-248.291 799.108,-244.458 788.997,-241.295 789.231,-248.291"/>
</g>
<!-- Node30&#45;&gt;Node22 -->
<g id="edge96" class="edge"><title>Node30&#45;&gt;Node22</title>
<path fill="none" stroke="midnightblue" d="M811.241,-622.366C829.191,-614.363 852.364,-602.03 869,-586 931.022,-526.236 913.37,-485.755 969,-420 1000.76,-382.461 1009.27,-370.486 1053,-348 1095.05,-326.38 1147.48,-314.398 1186.76,-307.953"/>
<polygon fill="midnightblue" stroke="midnightblue" points="1187.37,-311.4 1196.71,-306.393 1186.29,-304.485 1187.37,-311.4"/>
</g>
<!-- Node31 -->
<g id="node80" class="node"><title>Node31</title>
<a xlink:href="MojHashBase_8h.htm" target="_top" xlink:title="core/internal/MojHashBase.h">
<polygon fill="white" stroke="black" points="707.5,-557.5 707.5,-578.5 860.5,-578.5 860.5,-557.5 707.5,-557.5"/>
<text text-anchor="middle" x="784" y="-565.5" font-family="Helvetica,sans-Serif" font-size="10.00">core/internal/MojHashBase.h</text>
</a>
</g>
<!-- Node30&#45;&gt;Node31 -->
<g id="edge98" class="edge"><title>Node30&#45;&gt;Node31</title>
<path fill="none" stroke="midnightblue" d="M784,-622.267C784,-613.18 784,-599.892 784,-588.74"/>
<polygon fill="midnightblue" stroke="midnightblue" points="787.5,-588.534 784,-578.534 780.5,-588.534 787.5,-588.534"/>
</g>
<!-- Node33 -->
<g id="node88" class="node"><title>Node33</title>
<a xlink:href="MojHashMapInternal_8h.htm" target="_top" xlink:title="core/internal/MojHashMap\lInternal.h">
<polygon fill="white" stroke="black" points="548,-551 548,-585 690,-585 690,-551 548,-551"/>
<text text-anchor="start" x="556" y="-572" font-family="Helvetica,sans-Serif" font-size="10.00">core/internal/MojHashMap</text>
<text text-anchor="middle" x="619" y="-559" font-family="Helvetica,sans-Serif" font-size="10.00">Internal.h</text>
</a>
</g>
<!-- Node30&#45;&gt;Node33 -->
<g id="edge110" class="edge"><title>Node30&#45;&gt;Node33</title>
<path fill="none" stroke="midnightblue" d="M757.123,-622.412C734.069,-613.33 700.167,-599.975 671.721,-588.769"/>
<polygon fill="midnightblue" stroke="midnightblue" points="672.894,-585.469 662.307,-585.06 670.328,-591.982 672.894,-585.469"/>
</g>
<!-- Node31&#45;&gt;Node3 -->
<g id="edge100" class="edge"><title>Node31&#45;&gt;Node3</title>
<path fill="none" stroke="midnightblue" d="M765.62,-557.459C746.666,-546.585 716.256,-529.126 690,-514 582.321,-451.964 390.165,-447.211 465,-348 503.884,-296.45 688.677,-264.727 789.31,-250.984"/>
<polygon fill="midnightblue" stroke="midnightblue" points="789.926,-254.433 799.371,-249.632 788.993,-247.495 789.926,-254.433"/>
</g>
<!-- Node31&#45;&gt;Node19 -->
<g id="edge102" class="edge"><title>Node31&#45;&gt;Node19</title>
<path fill="none" stroke="midnightblue" d="M763.282,-557.358C746.53,-547.882 723.293,-532.648 708,-514 694.391,-497.405 685.131,-474.494 679.753,-458.177"/>
<polygon fill="midnightblue" stroke="midnightblue" points="683.071,-457.058 676.773,-448.538 676.383,-459.126 683.071,-457.058"/>
</g>
<!-- Node32 -->
<g id="node84" class="node"><title>Node32</title>
<a xlink:href="MojHasher_8h.htm" target="_top" xlink:title="core/MojHasher.h">
<polygon fill="white" stroke="black" points="953.5,-492.5 953.5,-513.5 1054.5,-513.5 1054.5,-492.5 953.5,-492.5"/>
<text text-anchor="middle" x="1004" y="-500.5" font-family="Helvetica,sans-Serif" font-size="10.00">core/MojHasher.h</text>
</a>
</g>
<!-- Node31&#45;&gt;Node32 -->
<g id="edge104" class="edge"><title>Node31&#45;&gt;Node32</title>
<path fill="none" stroke="midnightblue" d="M819.836,-557.412C857.631,-546.246 917.288,-528.619 958.408,-516.47"/>
<polygon fill="midnightblue" stroke="midnightblue" points="959.58,-519.774 968.179,-513.584 957.597,-513.06 959.58,-519.774"/>
</g>
<!-- Node32&#45;&gt;Node3 -->
<g id="edge106" class="edge"><title>Node32&#45;&gt;Node3</title>
<path fill="none" stroke="midnightblue" d="M956.412,-492.454C935.552,-485.471 912.553,-474.133 898,-456 885.953,-440.99 865.789,-314.565 858.104,-263.888"/>
<polygon fill="midnightblue" stroke="midnightblue" points="861.53,-263.139 856.583,-253.771 854.608,-264.18 861.53,-263.139"/>
</g>
<!-- Node32&#45;&gt;Node26 -->
<g id="edge108" class="edge"><title>Node32&#45;&gt;Node26</title>
<path fill="none" stroke="midnightblue" d="M1032.02,-492.412C1061,-481.458 1106.44,-464.288 1138.5,-452.17"/>
<polygon fill="midnightblue" stroke="midnightblue" points="1139.88,-455.393 1147.99,-448.584 1137.4,-448.845 1139.88,-455.393"/>
</g>
<!-- Node34&#45;&gt;Node3 -->
<g id="edge114" class="edge"><title>Node34&#45;&gt;Node3</title>
<path fill="none" stroke="midnightblue" d="M1227.58,-680.311C1207.42,-647.58 1141.97,-547.585 1063,-492 1026.42,-466.249 1002.56,-485.585 969,-456 952.811,-441.728 888.965,-312.723 864.557,-262.698"/>
<polygon fill="midnightblue" stroke="midnightblue" points="867.626,-261.006 860.103,-253.547 861.332,-264.07 867.626,-261.006"/>
</g>
<!-- Node34&#45;&gt;Node21 -->
<g id="edge146" class="edge"><title>Node34&#45;&gt;Node21</title>
<path fill="none" stroke="midnightblue" d="M1234,-680.085C1234,-659.609 1234,-615.133 1234,-588.778"/>
<polygon fill="midnightblue" stroke="midnightblue" points="1237.5,-588.715 1234,-578.715 1230.5,-588.715 1237.5,-588.715"/>
</g>
<!-- Node35 -->
<g id="node93" class="node"><title>Node35</title>
<a xlink:href="MojDecimal_8h.htm" target="_top" xlink:title="core/MojDecimal.h">
<polygon fill="white" stroke="black" points="1300,-557.5 1300,-578.5 1404,-578.5 1404,-557.5 1300,-557.5"/>
<text text-anchor="middle" x="1352" y="-565.5" font-family="Helvetica,sans-Serif" font-size="10.00">core/MojDecimal.h</text>
</a>
</g>
<!-- Node34&#45;&gt;Node35 -->
<g id="edge116" class="edge"><title>Node34&#45;&gt;Node35</title>
<path fill="none" stroke="midnightblue" d="M1244.47,-680.085C1264.82,-658.878 1309.86,-611.925 1334.71,-586.026"/>
<polygon fill="midnightblue" stroke="midnightblue" points="1337.32,-588.355 1341.72,-578.715 1332.27,-583.509 1337.32,-588.355"/>
</g>
<!-- Node36 -->
<g id="node97" class="node"><title>Node36</title>
<a xlink:href="MojMap_8h.htm" target="_top" xlink:title="core/MojMap.h">
<polygon fill="white" stroke="black" points="1421.5,-557.5 1421.5,-578.5 1508.5,-578.5 1508.5,-557.5 1421.5,-557.5"/>
<text text-anchor="middle" x="1465" y="-565.5" font-family="Helvetica,sans-Serif" font-size="10.00">core/MojMap.h</text>
</a>
</g>
<!-- Node34&#45;&gt;Node36 -->
<g id="edge122" class="edge"><title>Node34&#45;&gt;Node36</title>
<path fill="none" stroke="midnightblue" d="M1254.1,-680.3C1295.16,-658.437 1388.79,-608.578 1436.27,-583.3"/>
<polygon fill="midnightblue" stroke="midnightblue" points="1437.93,-586.377 1445.12,-578.588 1434.64,-580.199 1437.93,-586.377"/>
</g>
<!-- Node34&#45;&gt;Node38 -->
<g id="edge134" class="edge"><title>Node34&#45;&gt;Node38</title>
<path fill="none" stroke="midnightblue" d="M1192.35,-680.497C1153.96,-670.816 1096.86,-656.416 1055.59,-646.01"/>
<polygon fill="midnightblue" stroke="midnightblue" points="1056.28,-642.575 1045.73,-643.523 1054.57,-649.362 1056.28,-642.575"/>
</g>
<!-- Node35&#45;&gt;Node3 -->
<g id="edge118" class="edge"><title>Node35&#45;&gt;Node3</title>
<path fill="none" stroke="midnightblue" d="M1380.84,-557.467C1423.39,-539.851 1498,-500.109 1498,-438 1498,-438 1498,-438 1498,-366 1498,-280.388 1403.89,-311.433 1321,-290 1247.12,-270.895 1031.07,-254.54 921.042,-247.172"/>
<polygon fill="midnightblue" stroke="midnightblue" points="920.944,-243.658 910.734,-246.487 920.48,-250.643 920.944,-243.658"/>
</g>
<!-- Node35&#45;&gt;Node32 -->
<g id="edge120" class="edge"><title>Node35&#45;&gt;Node32</title>
<path fill="none" stroke="midnightblue" d="M1318.96,-557.434C1309.95,-554.777 1300.15,-552.091 1291,-550 1213.69,-532.335 1123.21,-518.654 1064.82,-510.718"/>
<polygon fill="midnightblue" stroke="midnightblue" points="1065.04,-507.216 1054.66,-509.351 1064.1,-514.153 1065.04,-507.216"/>
</g>
<!-- Node36&#45;&gt;Node3 -->
<g id="edge124" class="edge"><title>Node36&#45;&gt;Node3</title>
<path fill="none" stroke="midnightblue" d="M1475.78,-557.273C1495.65,-536.317 1536,-487.632 1536,-438 1536,-438 1536,-438 1536,-366 1536,-342.115 1553.82,-334.581 1407,-290 1317.82,-262.921 1047.31,-249.905 921.128,-245.18"/>
<polygon fill="midnightblue" stroke="midnightblue" points="920.957,-241.671 910.835,-244.801 920.7,-248.666 920.957,-241.671"/>
</g>
<!-- Node36&#45;&gt;Node22 -->
<g id="edge126" class="edge"><title>Node36&#45;&gt;Node22</title>
<path fill="none" stroke="midnightblue" d="M1459.29,-557.435C1440.88,-524 1380.19,-418.547 1310,-348 1298.34,-336.285 1283.49,-325.424 1270.82,-317.1"/>
<polygon fill="midnightblue" stroke="midnightblue" points="1272.37,-313.94 1262.06,-311.512 1268.61,-319.841 1272.37,-313.94"/>
</g>
<!-- Node37 -->
<g id="node101" class="node"><title>Node37</title>
<a xlink:href="MojRbTreeBase_8h.htm" target="_top" xlink:title="core/internal/MojRbTreeBase.h">
<polygon fill="white" stroke="black" points="1564,-492.5 1564,-513.5 1728,-513.5 1728,-492.5 1564,-492.5"/>
<text text-anchor="middle" x="1646" y="-500.5" font-family="Helvetica,sans-Serif" font-size="10.00">core/internal/MojRbTreeBase.h</text>
</a>
</g>
<!-- Node36&#45;&gt;Node37 -->
<g id="edge128" class="edge"><title>Node36&#45;&gt;Node37</title>
<path fill="none" stroke="midnightblue" d="M1494.48,-557.412C1525.12,-546.411 1573.21,-529.14 1606.98,-517.013"/>
<polygon fill="midnightblue" stroke="midnightblue" points="1608.3,-520.257 1616.53,-513.584 1605.93,-513.669 1608.3,-520.257"/>
</g>
<!-- Node37&#45;&gt;Node3 -->
<g id="edge130" class="edge"><title>Node37&#45;&gt;Node3</title>
<path fill="none" stroke="midnightblue" d="M1644.94,-492.44C1640.74,-456.722 1621.77,-339.891 1550,-290 1499.14,-254.645 1084.55,-245.777 920.995,-243.645"/>
<polygon fill="midnightblue" stroke="midnightblue" points="920.635,-240.14 910.591,-243.514 920.547,-247.139 920.635,-240.14"/>
</g>
<!-- Node37&#45;&gt;Node19 -->
<g id="edge132" class="edge"><title>Node37&#45;&gt;Node19</title>
<path fill="none" stroke="midnightblue" d="M1563.97,-497.514C1373.1,-484.751 902.753,-453.297 734.813,-442.067"/>
<polygon fill="midnightblue" stroke="midnightblue" points="734.879,-438.563 724.668,-441.388 734.412,-445.548 734.879,-438.563"/>
</g>
<!-- Node38&#45;&gt;Node3 -->
<g id="edge136" class="edge"><title>Node38&#45;&gt;Node3</title>
<path fill="none" stroke="midnightblue" d="M995.626,-622.325C981.132,-604.585 949.584,-569.103 915,-550 860.268,-519.769 817.139,-563.548 779,-514 717.959,-434.699 803.224,-308.839 839.772,-261.667"/>
<polygon fill="midnightblue" stroke="midnightblue" points="842.724,-263.577 846.179,-253.561 837.232,-259.236 842.724,-263.577"/>
</g>
<!-- Node38&#45;&gt;Node19 -->
<g id="edge138" class="edge"><title>Node38&#45;&gt;Node19</title>
<path fill="none" stroke="midnightblue" d="M989.729,-622.436C965.842,-605.175 915.768,-570.773 869,-550 816.944,-526.879 794.602,-543.703 746,-514 721.7,-499.149 700.174,-474.007 687.129,-456.734"/>
<polygon fill="midnightblue" stroke="midnightblue" points="689.843,-454.516 681.111,-448.515 684.195,-458.651 689.843,-454.516"/>
</g>
<!-- Node38&#45;&gt;Node21 -->
<g id="edge144" class="edge"><title>Node38&#45;&gt;Node21</title>
<path fill="none" stroke="midnightblue" d="M1042.06,-622.466C1076.13,-613.009 1127.44,-598.702 1172,-586 1177.25,-584.502 1182.76,-582.922 1188.22,-581.345"/>
<polygon fill="midnightblue" stroke="midnightblue" points="1189.32,-584.671 1197.95,-578.529 1187.38,-577.947 1189.32,-584.671"/>
</g>
<!-- Node38&#45;&gt;Node22 -->
<g id="edge140" class="edge"><title>Node38&#45;&gt;Node22</title>
<path fill="none" stroke="midnightblue" d="M1016.88,-622.207C1045.41,-598.353 1116.26,-539.498 1177,-492 1198.01,-475.573 1211.64,-479.08 1225,-456 1249.67,-413.367 1248.89,-353.176 1246.36,-321.823"/>
<polygon fill="midnightblue" stroke="midnightblue" points="1249.83,-321.286 1245.4,-311.663 1242.86,-321.949 1249.83,-321.286"/>
</g>
<!-- Node38&#45;&gt;Node32 -->
<g id="edge142" class="edge"><title>Node38&#45;&gt;Node32</title>
<path fill="none" stroke="midnightblue" d="M1004,-622.362C1004,-600.936 1004,-552.24 1004,-524.114"/>
<polygon fill="midnightblue" stroke="midnightblue" points="1007.5,-523.785 1004,-513.785 1000.5,-523.785 1007.5,-523.785"/>
</g>
<!-- Node39&#45;&gt;Node3 -->
<g id="edge150" class="edge"><title>Node39&#45;&gt;Node3</title>
<path fill="none" stroke="midnightblue" d="M1365.09,-745.779C1526.25,-735.126 2006,-697.958 2006,-633 2006,-633 2006,-633 2006,-366 2006,-308.3 2248.98,-368.047 1779,-290 1613.65,-262.542 1103.81,-248.617 921.045,-244.409"/>
<polygon fill="midnightblue" stroke="midnightblue" points="920.853,-240.903 910.776,-244.174 920.693,-247.902 920.853,-240.903"/>
</g>
<!-- Node39&#45;&gt;Node21 -->
<g id="edge166" class="edge"><title>Node39&#45;&gt;Node21</title>
<path fill="none" stroke="midnightblue" d="M1310.1,-738.05C1306.32,-724.276 1299.22,-700.005 1291,-680 1277.27,-646.572 1257.45,-609.516 1245.16,-587.519"/>
<polygon fill="midnightblue" stroke="midnightblue" points="1248.06,-585.53 1240.1,-578.539 1241.96,-588.969 1248.06,-585.53"/>
</g>
<!-- Node39&#45;&gt;Node34 -->
<g id="edge154" class="edge"><title>Node39&#45;&gt;Node34</title>
<path fill="none" stroke="midnightblue" d="M1298.51,-738.362C1286.82,-729.777 1270.16,-717.546 1256.7,-707.664"/>
<polygon fill="midnightblue" stroke="midnightblue" points="1258.53,-704.667 1248.4,-701.571 1254.39,-710.31 1258.53,-704.667"/>
</g>
<!-- Node39&#45;&gt;Node36 -->
<g id="edge152" class="edge"><title>Node39&#45;&gt;Node36</title>
<path fill="none" stroke="midnightblue" d="M1321.83,-738.486C1346.81,-708.745 1418.19,-623.745 1449.71,-586.202"/>
<polygon fill="midnightblue" stroke="midnightblue" points="1452.4,-588.451 1456.15,-578.543 1447.04,-583.95 1452.4,-588.451"/>
</g>
<!-- Node40 -->
<g id="node118" class="node"><title>Node40</title>
<a xlink:href="MojSet_8h.htm" target="_top" xlink:title="core/MojSet.h">
<polygon fill="white" stroke="black" points="1715,-557.5 1715,-578.5 1797,-578.5 1797,-557.5 1715,-557.5"/>
<text text-anchor="middle" x="1756" y="-565.5" font-family="Helvetica,sans-Serif" font-size="10.00">core/MojSet.h</text>
</a>
</g>
<!-- Node39&#45;&gt;Node40 -->
<g id="edge156" class="edge"><title>Node39&#45;&gt;Node40</title>
<path fill="none" stroke="midnightblue" d="M1338.73,-738.486C1414.12,-707.683 1634.6,-617.603 1720.84,-582.366"/>
<polygon fill="midnightblue" stroke="midnightblue" points="1722.26,-585.565 1730.2,-578.543 1719.62,-579.085 1722.26,-585.565"/>
</g>
<!-- Node40&#45;&gt;Node3 -->
<g id="edge158" class="edge"><title>Node40&#45;&gt;Node3</title>
<path fill="none" stroke="midnightblue" d="M1797.09,-561.456C1847.25,-552.651 1928.02,-535.576 1949,-514 1973.27,-489.04 1968,-472.817 1968,-438 1968,-438 1968,-438 1968,-366 1968,-188.097 1751.44,-312.728 1575,-290 1335.43,-259.141 1048.26,-248.104 921.125,-244.536"/>
<polygon fill="midnightblue" stroke="midnightblue" points="920.879,-241.028 910.787,-244.253 920.687,-248.025 920.879,-241.028"/>
</g>
<!-- Node40&#45;&gt;Node22 -->
<g id="edge160" class="edge"><title>Node40&#45;&gt;Node22</title>
<path fill="none" stroke="midnightblue" d="M1756.26,-557.272C1756.07,-541.142 1753.38,-510.559 1737,-492 1621.17,-360.758 1404.34,-319.058 1301.26,-306.324"/>
<polygon fill="midnightblue" stroke="midnightblue" points="1301.39,-302.816 1291.05,-305.113 1300.57,-309.767 1301.39,-302.816"/>
</g>
<!-- Node40&#45;&gt;Node37 -->
<g id="edge162" class="edge"><title>Node40&#45;&gt;Node37</title>
<path fill="none" stroke="midnightblue" d="M1737.84,-557.267C1720.06,-546.76 1692.77,-530.637 1672.56,-518.692"/>
<polygon fill="midnightblue" stroke="midnightblue" points="1674.22,-515.608 1663.83,-513.534 1670.65,-521.634 1674.22,-515.608"/>
</g>
<!-- Node41 -->
<g id="node123" class="node"><title>Node41</title>
<a xlink:href="MojSetInternal_8h.htm" target="_top" xlink:title="core/internal/MojSetInternal.h">
<polygon fill="white" stroke="black" points="1784,-492.5 1784,-513.5 1940,-513.5 1940,-492.5 1784,-492.5"/>
<text text-anchor="middle" x="1862" y="-500.5" font-family="Helvetica,sans-Serif" font-size="10.00">core/internal/MojSetInternal.h</text>
</a>
</g>
<!-- Node40&#45;&gt;Node41 -->
<g id="edge164" class="edge"><title>Node40&#45;&gt;Node41</title>
<path fill="none" stroke="midnightblue" d="M1773.5,-557.267C1790.56,-546.807 1816.69,-530.782 1836.15,-518.854"/>
<polygon fill="midnightblue" stroke="midnightblue" points="1838.13,-521.745 1844.82,-513.534 1834.47,-515.778 1838.13,-521.745"/>
</g>
</g>
</svg>
