<?xml version="1.0" encoding="UTF-8" standalone="no"?>
<!DOCTYPE svg PUBLIC "-//W3C//DTD SVG 1.1//EN"
 "http://www.w3.org/Graphics/SVG/1.1/DTD/svg11.dtd">
<!-- Generated by graphviz version 2.26.3 (20100126.1600)
 -->
<!-- Title: MojServiceApp.cpp Pages: 1 -->
<svg width="1174pt" height="870pt"
 viewBox="0.00 0.00 1174.06 870.00" xmlns="http://www.w3.org/2000/svg" xmlns:xlink="http://www.w3.org/1999/xlink">
<g id="graph1" class="graph" transform="scale(1 1) rotate(0) translate(4 866)">
<title>MojServiceApp.cpp</title>
<polygon fill="white" stroke="white" points="-4,5 -4,-866 1171.06,-866 1171.06,5 -4,5"/>
<!-- Node1 -->
<g id="node1" class="node"><title>Node1</title>
<polygon fill="#bfbfbf" stroke="black" points="883.5,-840.5 883.5,-861.5 990.5,-861.5 990.5,-840.5 883.5,-840.5"/>
<text text-anchor="middle" x="937" y="-848.5" font-family="Helvetica,sans-Serif" font-size="10.00">MojServiceApp.cpp</text>
</g>
<!-- Node2 -->
<g id="node3" class="node"><title>Node2</title>
<a xlink:href="MojServiceApp_8h.htm" target="_top" xlink:title="core/MojServiceApp.h">
<polygon fill="white" stroke="black" points="877,-782.5 877,-803.5 997,-803.5 997,-782.5 877,-782.5"/>
<text text-anchor="middle" x="937" y="-790.5" font-family="Helvetica,sans-Serif" font-size="10.00">core/MojServiceApp.h</text>
</a>
</g>
<!-- Node1&#45;&gt;Node2 -->
<g id="edge2" class="edge"><title>Node1&#45;&gt;Node2</title>
<path fill="none" stroke="midnightblue" d="M937,-840.362C937,-832.922 937,-822.743 937,-813.728"/>
<polygon fill="midnightblue" stroke="midnightblue" points="940.5,-813.571 937,-803.571 933.5,-813.571 940.5,-813.571"/>
</g>
<!-- Node3 -->
<g id="node5" class="node"><title>Node3</title>
<a xlink:href="MojCoreDefs_8h.htm" target="_top" xlink:title="core/MojCoreDefs.h">
<polygon fill="white" stroke="black" points="639.5,-232.5 639.5,-253.5 750.5,-253.5 750.5,-232.5 639.5,-232.5"/>
<text text-anchor="middle" x="695" y="-240.5" font-family="Helvetica,sans-Serif" font-size="10.00">core/MojCoreDefs.h</text>
</a>
</g>
<!-- Node2&#45;&gt;Node3 -->
<g id="edge4" class="edge"><title>Node2&#45;&gt;Node3</title>
<path fill="none" stroke="midnightblue" d="M997.167,-788.173C1065.02,-779.057 1166,-752.763 1166,-677 1166,-677 1166,-677 1166,-366 1166,-352.545 1166.93,-331.758 1059,-290 1006.07,-269.522 850.556,-254.785 760.85,-247.716"/>
<polygon fill="midnightblue" stroke="midnightblue" points="761.022,-244.219 750.781,-246.933 760.479,-251.198 761.022,-244.219"/>
</g>
<!-- Node13 -->
<g id="node25" class="node"><title>Node13</title>
<a xlink:href="MojApp_8h.htm" target="_top" xlink:title="core/MojApp.h">
<polygon fill="white" stroke="black" points="666.5,-724.5 666.5,-745.5 751.5,-745.5 751.5,-724.5 666.5,-724.5"/>
<text text-anchor="middle" x="709" y="-732.5" font-family="Helvetica,sans-Serif" font-size="10.00">core/MojApp.h</text>
</a>
</g>
<!-- Node2&#45;&gt;Node13 -->
<g id="edge24" class="edge"><title>Node2&#45;&gt;Node13</title>
<path fill="none" stroke="midnightblue" d="M895.711,-782.497C857.656,-772.816 801.048,-758.416 760.145,-748.01"/>
<polygon fill="midnightblue" stroke="midnightblue" points="760.921,-744.597 750.367,-745.523 759.195,-751.38 760.921,-744.597"/>
</g>
<!-- Node4 -->
<g id="node7" class="node"><title>Node4</title>
<a xlink:href="MojConfig_8h.htm" target="_top" xlink:title="core/internal/MojConfig.h">
<polygon fill="white" stroke="black" points="752.5,-174.5 752.5,-195.5 887.5,-195.5 887.5,-174.5 752.5,-174.5"/>
<text text-anchor="middle" x="820" y="-182.5" font-family="Helvetica,sans-Serif" font-size="10.00">core/internal/MojConfig.h</text>
</a>
</g>
<!-- Node3&#45;&gt;Node4 -->
<g id="edge6" class="edge"><title>Node3&#45;&gt;Node4</title>
<path fill="none" stroke="midnightblue" d="M717.637,-232.497C737.248,-223.397 765.846,-210.127 787.833,-199.925"/>
<polygon fill="midnightblue" stroke="midnightblue" points="789.512,-203.005 797.109,-195.621 786.565,-196.655 789.512,-203.005"/>
</g>
<!-- Node5 -->
<g id="node9" class="node"><title>Node5</title>
<a xlink:href="MojNew_8h.htm" target="_top" xlink:title="core/internal/MojNew.h">
<polygon fill="white" stroke="black" points="414.5,-174.5 414.5,-195.5 539.5,-195.5 539.5,-174.5 414.5,-174.5"/>
<text text-anchor="middle" x="477" y="-182.5" font-family="Helvetica,sans-Serif" font-size="10.00">core/internal/MojNew.h</text>
</a>
</g>
<!-- Node3&#45;&gt;Node5 -->
<g id="edge8" class="edge"><title>Node3&#45;&gt;Node5</title>
<path fill="none" stroke="midnightblue" d="M655.522,-232.497C619.367,-222.877 565.696,-208.598 526.647,-198.209"/>
<polygon fill="midnightblue" stroke="midnightblue" points="527.116,-194.712 516.552,-195.523 525.316,-201.477 527.116,-194.712"/>
</g>
<!-- Node7 -->
<g id="node13" class="node"><title>Node7</title>
<a xlink:href="MojErr_8h.htm" target="_top" xlink:title="core/MojErr.h">
<polygon fill="white" stroke="black" points="557,-174.5 557,-195.5 637,-195.5 637,-174.5 557,-174.5"/>
<text text-anchor="middle" x="597" y="-182.5" font-family="Helvetica,sans-Serif" font-size="10.00">core/MojErr.h</text>
</a>
</g>
<!-- Node3&#45;&gt;Node7 -->
<g id="edge12" class="edge"><title>Node3&#45;&gt;Node7</title>
<path fill="none" stroke="midnightblue" d="M677.025,-232.362C662.106,-223.532 640.667,-210.844 623.734,-200.822"/>
<polygon fill="midnightblue" stroke="midnightblue" points="625.249,-197.652 614.861,-195.571 621.684,-203.676 625.249,-197.652"/>
</g>
<!-- Node11 -->
<g id="node21" class="node"><title>Node11</title>
<a xlink:href="MojOs_8h.htm" target="_top" xlink:title="core/MojOs.h">
<polygon fill="white" stroke="black" points="655,-174.5 655,-195.5 735,-195.5 735,-174.5 655,-174.5"/>
<text text-anchor="middle" x="695" y="-182.5" font-family="Helvetica,sans-Serif" font-size="10.00">core/MojOs.h</text>
</a>
</g>
<!-- Node3&#45;&gt;Node11 -->
<g id="edge20" class="edge"><title>Node3&#45;&gt;Node11</title>
<path fill="none" stroke="midnightblue" d="M695,-232.362C695,-224.922 695,-214.743 695,-205.728"/>
<polygon fill="midnightblue" stroke="midnightblue" points="698.5,-205.571 695,-195.571 691.5,-205.571 698.5,-205.571"/>
</g>
<!-- Node6 -->
<g id="node11" class="node"><title>Node6</title>
<polygon fill="white" stroke="#bfbfbf" points="459,-116.5 459,-137.5 495,-137.5 495,-116.5 459,-116.5"/>
<text text-anchor="middle" x="477" y="-124.5" font-family="Helvetica,sans-Serif" font-size="10.00">new</text>
</g>
<!-- Node5&#45;&gt;Node6 -->
<g id="edge10" class="edge"><title>Node5&#45;&gt;Node6</title>
<path fill="none" stroke="midnightblue" d="M477,-174.362C477,-166.922 477,-156.743 477,-147.728"/>
<polygon fill="midnightblue" stroke="midnightblue" points="480.5,-147.571 477,-137.571 473.5,-147.571 480.5,-147.571"/>
</g>
<!-- Node8 -->
<g id="node15" class="node"><title>Node8</title>
<a xlink:href="MojLog_8h.htm" target="_top" xlink:title="core/MojLog.h">
<polygon fill="white" stroke="black" points="514,-116.5 514,-137.5 598,-137.5 598,-116.5 514,-116.5"/>
<text text-anchor="middle" x="556" y="-124.5" font-family="Helvetica,sans-Serif" font-size="10.00">core/MojLog.h</text>
</a>
</g>
<!-- Node7&#45;&gt;Node8 -->
<g id="edge14" class="edge"><title>Node7&#45;&gt;Node8</title>
<path fill="none" stroke="midnightblue" d="M589.48,-174.362C583.874,-166.431 576.068,-155.389 569.403,-145.961"/>
<polygon fill="midnightblue" stroke="midnightblue" points="572.103,-143.716 563.472,-137.571 566.387,-147.757 572.103,-143.716"/>
</g>
<!-- Node9 -->
<g id="node17" class="node"><title>Node9</title>
<a xlink:href="MojListEntry_8h.htm" target="_top" xlink:title="core/MojListEntry.h">
<polygon fill="white" stroke="black" points="255.5,-58.5 255.5,-79.5 362.5,-79.5 362.5,-58.5 255.5,-58.5"/>
<text text-anchor="middle" x="309" y="-66.5" font-family="Helvetica,sans-Serif" font-size="10.00">core/MojListEntry.h</text>
</a>
</g>
<!-- Node8&#45;&gt;Node9 -->
<g id="edge16" class="edge"><title>Node8&#45;&gt;Node9</title>
<path fill="none" stroke="midnightblue" d="M513.82,-117.095C472.444,-107.38 409.148,-92.5164 363.876,-81.8858"/>
<polygon fill="midnightblue" stroke="midnightblue" points="364.466,-78.4293 353.931,-79.5505 362.866,-85.2439 364.466,-78.4293"/>
</g>
<!-- Node10 -->
<g id="node19" class="node"><title>Node10</title>
<a xlink:href="MojNoCopy_8h.htm" target="_top" xlink:title="core/MojNoCopy.h">
<polygon fill="white" stroke="black" points="102,-0.5 102,-21.5 206,-21.5 206,-0.5 102,-0.5"/>
<text text-anchor="middle" x="154" y="-8.5" font-family="Helvetica,sans-Serif" font-size="10.00">core/MojNoCopy.h</text>
</a>
</g>
<!-- Node9&#45;&gt;Node10 -->
<g id="edge18" class="edge"><title>Node9&#45;&gt;Node10</title>
<path fill="none" stroke="midnightblue" d="M280.931,-58.4966C255.99,-49.1639 219.326,-35.4447 191.808,-25.1475"/>
<polygon fill="midnightblue" stroke="midnightblue" points="192.714,-21.7497 182.122,-21.5231 190.261,-28.3058 192.714,-21.7497"/>
</g>
<!-- Node12 -->
<g id="node23" class="node"><title>Node12</title>
<a xlink:href="MojOsInternal_8h.htm" target="_top" xlink:title="core/internal/MojOsInternal.h">
<polygon fill="white" stroke="black" points="618,-116.5 618,-137.5 772,-137.5 772,-116.5 618,-116.5"/>
<text text-anchor="middle" x="695" y="-124.5" font-family="Helvetica,sans-Serif" font-size="10.00">core/internal/MojOsInternal.h</text>
</a>
</g>
<!-- Node11&#45;&gt;Node12 -->
<g id="edge22" class="edge"><title>Node11&#45;&gt;Node12</title>
<path fill="none" stroke="midnightblue" d="M695,-174.362C695,-166.922 695,-156.743 695,-147.728"/>
<polygon fill="midnightblue" stroke="midnightblue" points="698.5,-147.571 695,-137.571 691.5,-147.571 698.5,-147.571"/>
</g>
<!-- Node13&#45;&gt;Node3 -->
<g id="edge26" class="edge"><title>Node13&#45;&gt;Node3</title>
<path fill="none" stroke="midnightblue" d="M751.871,-732.264C858.66,-724.279 1128,-696.461 1128,-619 1128,-619 1128,-619 1128,-366 1128,-352.817 1128.93,-332.677 1021,-290 974.977,-271.802 842.147,-256.725 760.943,-248.869"/>
<polygon fill="midnightblue" stroke="midnightblue" points="761.105,-245.369 750.818,-247.901 760.439,-252.337 761.105,-245.369"/>
</g>
<!-- Node14 -->
<g id="node28" class="node"><title>Node14</title>
<a xlink:href="MojAutoPtr_8h.htm" target="_top" xlink:title="core/MojAutoPtr.h">
<polygon fill="white" stroke="black" points="80.5,-427.5 80.5,-448.5 181.5,-448.5 181.5,-427.5 80.5,-427.5"/>
<text text-anchor="middle" x="131" y="-435.5" font-family="Helvetica,sans-Serif" font-size="10.00">core/MojAutoPtr.h</text>
</a>
</g>
<!-- Node13&#45;&gt;Node14 -->
<g id="edge28" class="edge"><title>Node13&#45;&gt;Node14</title>
<path fill="none" stroke="midnightblue" d="M666.243,-731.479C526.774,-719.428 94,-677.333 94,-619 94,-619 94,-619 94,-561 94,-523.147 110.268,-481.412 121.23,-457.587"/>
<polygon fill="midnightblue" stroke="midnightblue" points="124.401,-459.07 125.541,-448.537 118.081,-456.06 124.401,-459.07"/>
</g>
<!-- Node17 -->
<g id="node37" class="node"><title>Node17</title>
<a xlink:href="MojMap_8h.htm" target="_top" xlink:title="core/MojMap.h">
<polygon fill="white" stroke="black" points="291.5,-550.5 291.5,-571.5 378.5,-571.5 378.5,-550.5 291.5,-550.5"/>
<text text-anchor="middle" x="335" y="-558.5" font-family="Helvetica,sans-Serif" font-size="10.00">core/MojMap.h</text>
</a>
</g>
<!-- Node13&#45;&gt;Node17 -->
<g id="edge40" class="edge"><title>Node13&#45;&gt;Node17</title>
<path fill="none" stroke="midnightblue" d="M686.168,-724.377C622.268,-694.649 441.472,-610.535 367.33,-576.041"/>
<polygon fill="midnightblue" stroke="midnightblue" points="368.552,-572.75 358.009,-571.705 365.599,-579.096 368.552,-572.75"/>
</g>
<!-- Node20 -->
<g id="node47" class="node"><title>Node20</title>
<a xlink:href="MojObject_8h.htm" target="_top" xlink:title="core/MojObject.h">
<polygon fill="white" stroke="black" points="661,-666.5 661,-687.5 757,-687.5 757,-666.5 661,-666.5"/>
<text text-anchor="middle" x="709" y="-674.5" font-family="Helvetica,sans-Serif" font-size="10.00">core/MojObject.h</text>
</a>
</g>
<!-- Node13&#45;&gt;Node20 -->
<g id="edge54" class="edge"><title>Node13&#45;&gt;Node20</title>
<path fill="none" stroke="midnightblue" d="M709,-724.362C709,-716.922 709,-706.743 709,-697.728"/>
<polygon fill="midnightblue" stroke="midnightblue" points="712.5,-697.571 709,-687.571 705.5,-697.571 712.5,-697.571"/>
</g>
<!-- Node25 -->
<g id="node63" class="node"><title>Node25</title>
<a xlink:href="MojString_8h.htm" target="_top" xlink:title="core/MojString.h">
<polygon fill="white" stroke="black" points="586,-608.5 586,-629.5 680,-629.5 680,-608.5 586,-608.5"/>
<text text-anchor="middle" x="633" y="-616.5" font-family="Helvetica,sans-Serif" font-size="10.00">core/MojString.h</text>
</a>
</g>
<!-- Node13&#45;&gt;Node25 -->
<g id="edge110" class="edge"><title>Node13&#45;&gt;Node25</title>
<path fill="none" stroke="midnightblue" d="M691.049,-724.433C678.359,-716.074 661.905,-703.284 652,-688 642.523,-673.376 637.728,-654.066 635.328,-639.593"/>
<polygon fill="midnightblue" stroke="midnightblue" points="638.785,-639.04 633.923,-629.627 631.854,-640.018 638.785,-639.04"/>
</g>
<!-- Node26 -->
<g id="node69" class="node"><title>Node26</title>
<a xlink:href="MojVector_8h.htm" target="_top" xlink:title="core/MojVector.h">
<polygon fill="white" stroke="black" points="686.5,-550.5 686.5,-571.5 783.5,-571.5 783.5,-550.5 686.5,-550.5"/>
<text text-anchor="middle" x="735" y="-558.5" font-family="Helvetica,sans-Serif" font-size="10.00">core/MojVector.h</text>
</a>
</g>
<!-- Node13&#45;&gt;Node26 -->
<g id="edge112" class="edge"><title>Node13&#45;&gt;Node26</title>
<path fill="none" stroke="midnightblue" d="M729.355,-724.453C742.477,-716.416 758.451,-704.009 766,-688 782.909,-652.141 762.308,-606.086 747.515,-580.447"/>
<polygon fill="midnightblue" stroke="midnightblue" points="750.387,-578.432 742.219,-571.684 744.396,-582.053 750.387,-578.432"/>
</g>
<!-- Node14&#45;&gt;Node3 -->
<g id="edge30" class="edge"><title>Node14&#45;&gt;Node3</title>
<path fill="none" stroke="midnightblue" d="M106.133,-427.389C88.881,-418.546 67.2319,-404.133 57,-384 49.751,-369.736 47.91,-361.167 57,-348 98.3151,-288.154 139.184,-306.542 210,-290 287.887,-271.806 515.335,-254.846 628.898,-247.224"/>
<polygon fill="midnightblue" stroke="midnightblue" points="629.447,-250.696 639.192,-246.538 628.982,-243.711 629.447,-250.696"/>
</g>
<!-- Node14&#45;&gt;Node10 -->
<g id="edge36" class="edge"><title>Node14&#45;&gt;Node10</title>
<path fill="none" stroke="midnightblue" d="M108.48,-427.387C71.0255,-407.991 0,-363.032 0,-301 0,-301 0,-301 0,-127 0,-73.2073 60.6898,-41.2386 105.871,-24.8924"/>
<polygon fill="midnightblue" stroke="midnightblue" points="107.233,-28.1248 115.537,-21.544 104.942,-21.5104 107.233,-28.1248"/>
</g>
<!-- Node15 -->
<g id="node31" class="node"><title>Node15</title>
<a xlink:href="MojAtomicInt_8h.htm" target="_top" xlink:title="core/MojAtomicInt.h">
<polygon fill="white" stroke="black" points="252,-355.5 252,-376.5 362,-376.5 362,-355.5 252,-355.5"/>
<text text-anchor="middle" x="307" y="-363.5" font-family="Helvetica,sans-Serif" font-size="10.00">core/MojAtomicInt.h</text>
</a>
</g>
<!-- Node14&#45;&gt;Node15 -->
<g id="edge32" class="edge"><title>Node14&#45;&gt;Node15</title>
<path fill="none" stroke="midnightblue" d="M156.969,-427.376C187.343,-414.951 237.775,-394.319 271.686,-380.446"/>
<polygon fill="midnightblue" stroke="midnightblue" points="273.281,-383.576 281.211,-376.55 270.63,-377.097 273.281,-383.576"/>
</g>
<!-- Node16 -->
<g id="node35" class="node"><title>Node16</title>
<a xlink:href="MojAutoPtrInternal_8h.htm" target="_top" xlink:title="core/internal/MojAutoPtr\lInternal.h">
<polygon fill="white" stroke="black" points="65.5,-349 65.5,-383 196.5,-383 196.5,-349 65.5,-349"/>
<text text-anchor="start" x="73.5" y="-370" font-family="Helvetica,sans-Serif" font-size="10.00">core/internal/MojAutoPtr</text>
<text text-anchor="middle" x="131" y="-357" font-family="Helvetica,sans-Serif" font-size="10.00">Internal.h</text>
</a>
</g>
<!-- Node14&#45;&gt;Node16 -->
<g id="edge38" class="edge"><title>Node14&#45;&gt;Node16</title>
<path fill="none" stroke="midnightblue" d="M131,-427.376C131,-418.451 131,-405.293 131,-393.446"/>
<polygon fill="midnightblue" stroke="midnightblue" points="134.5,-393.094 131,-383.094 127.5,-393.094 134.5,-393.094"/>
</g>
<!-- Node15&#45;&gt;Node3 -->
<g id="edge34" class="edge"><title>Node15&#45;&gt;Node3</title>
<path fill="none" stroke="midnightblue" d="M313.266,-355.285C323.83,-338.296 346.91,-305.515 376,-290 418.69,-267.232 549.17,-253.782 629.421,-247.448"/>
<polygon fill="midnightblue" stroke="midnightblue" points="629.731,-250.934 639.431,-246.674 629.191,-243.955 629.731,-250.934"/>
</g>
<!-- Node17&#45;&gt;Node3 -->
<g id="edge42" class="edge"><title>Node17&#45;&gt;Node3</title>
<path fill="none" stroke="midnightblue" d="M336.563,-550.461C343.523,-504.993 373.152,-326.294 414,-290 445.077,-262.388 556.494,-250.773 629.348,-246.052"/>
<polygon fill="midnightblue" stroke="midnightblue" points="629.595,-249.544 639.359,-245.431 629.162,-242.557 629.595,-249.544"/>
</g>
<!-- Node18 -->
<g id="node40" class="node"><title>Node18</title>
<a xlink:href="MojComp_8h.htm" target="_top" xlink:title="core/MojComp.h">
<polygon fill="white" stroke="black" points="648,-290.5 648,-311.5 742,-311.5 742,-290.5 648,-290.5"/>
<text text-anchor="middle" x="695" y="-298.5" font-family="Helvetica,sans-Serif" font-size="10.00">core/MojComp.h</text>
</a>
</g>
<!-- Node17&#45;&gt;Node18 -->
<g id="edge44" class="edge"><title>Node17&#45;&gt;Node18</title>
<path fill="none" stroke="midnightblue" d="M378.516,-554.256C420.087,-547.031 484.07,-533.851 537,-514 540.211,-512.796 643.806,-458.636 646,-456 679.102,-416.217 689.924,-353.895 693.399,-321.739"/>
<polygon fill="midnightblue" stroke="midnightblue" points="696.891,-321.994 694.347,-311.709 689.922,-321.335 696.891,-321.994"/>
</g>
<!-- Node19 -->
<g id="node43" class="node"><title>Node19</title>
<a xlink:href="MojRbTreeBase_8h.htm" target="_top" xlink:title="core/internal/MojRbTreeBase.h">
<polygon fill="white" stroke="black" points="160,-492.5 160,-513.5 324,-513.5 324,-492.5 160,-492.5"/>
<text text-anchor="middle" x="242" y="-500.5" font-family="Helvetica,sans-Serif" font-size="10.00">core/internal/MojRbTreeBase.h</text>
</a>
</g>
<!-- Node17&#45;&gt;Node19 -->
<g id="edge48" class="edge"><title>Node17&#45;&gt;Node19</title>
<path fill="none" stroke="midnightblue" d="M317.942,-550.362C303.915,-541.614 283.816,-529.079 267.818,-519.101"/>
<polygon fill="midnightblue" stroke="midnightblue" points="269.287,-515.893 258.949,-513.571 265.582,-521.832 269.287,-515.893"/>
</g>
<!-- Node18&#45;&gt;Node3 -->
<g id="edge46" class="edge"><title>Node18&#45;&gt;Node3</title>
<path fill="none" stroke="midnightblue" d="M695,-290.362C695,-282.922 695,-272.743 695,-263.728"/>
<polygon fill="midnightblue" stroke="midnightblue" points="698.5,-263.571 695,-253.571 691.5,-263.571 698.5,-263.571"/>
</g>
<!-- Node19&#45;&gt;Node3 -->
<g id="edge50" class="edge"><title>Node19&#45;&gt;Node3</title>
<path fill="none" stroke="midnightblue" d="M238.684,-492.282C231.129,-465.691 215.343,-395.421 243,-348 269.078,-303.285 294.982,-306.636 344,-290 395.382,-272.561 542.776,-256.826 629.355,-248.736"/>
<polygon fill="midnightblue" stroke="midnightblue" points="629.708,-252.219 639.343,-247.812 629.063,-245.248 629.708,-252.219"/>
</g>
<!-- Node19&#45;&gt;Node14 -->
<g id="edge52" class="edge"><title>Node19&#45;&gt;Node14</title>
<path fill="none" stroke="midnightblue" d="M223.671,-492.267C205.729,-481.76 178.195,-465.637 157.798,-453.692"/>
<polygon fill="midnightblue" stroke="midnightblue" points="159.386,-450.567 148.988,-448.534 155.849,-456.607 159.386,-450.567"/>
</g>
<!-- Node20&#45;&gt;Node3 -->
<g id="edge56" class="edge"><title>Node20&#45;&gt;Node3</title>
<path fill="none" stroke="midnightblue" d="M757.254,-672.541C859.776,-661.731 1090,-629.798 1090,-561 1090,-561 1090,-561 1090,-366 1090,-353.162 1090.93,-333.841 983,-290 943.799,-274.077 833.143,-258.923 760.968,-250.314"/>
<polygon fill="midnightblue" stroke="midnightblue" points="760.952,-246.788 750.611,-249.092 760.132,-253.74 760.952,-246.788"/>
</g>
<!-- Node20&#45;&gt;Node17 -->
<g id="edge74" class="edge"><title>Node20&#45;&gt;Node17</title>
<path fill="none" stroke="midnightblue" d="M674.819,-666.398C606.651,-645.255 453.896,-597.877 378.622,-574.53"/>
<polygon fill="midnightblue" stroke="midnightblue" points="379.555,-571.155 368.967,-571.535 377.481,-577.841 379.555,-571.155"/>
</g>
<!-- Node21 -->
<g id="node50" class="node"><title>Node21</title>
<a xlink:href="MojDecimal_8h.htm" target="_top" xlink:title="core/MojDecimal.h">
<polygon fill="white" stroke="black" points="922,-550.5 922,-571.5 1026,-571.5 1026,-550.5 922,-550.5"/>
<text text-anchor="middle" x="974" y="-558.5" font-family="Helvetica,sans-Serif" font-size="10.00">core/MojDecimal.h</text>
</a>
</g>
<!-- Node20&#45;&gt;Node21 -->
<g id="edge58" class="edge"><title>Node20&#45;&gt;Node21</title>
<path fill="none" stroke="midnightblue" d="M733.456,-666.295C781.102,-645.438 886.422,-599.336 940.509,-575.66"/>
<polygon fill="midnightblue" stroke="midnightblue" points="942.229,-578.728 949.986,-571.512 939.422,-572.315 942.229,-578.728"/>
</g>
<!-- Node20&#45;&gt;Node25 -->
<g id="edge76" class="edge"><title>Node20&#45;&gt;Node25</title>
<path fill="none" stroke="midnightblue" d="M695.06,-666.362C683.812,-657.777 667.784,-645.546 654.835,-635.664"/>
<polygon fill="midnightblue" stroke="midnightblue" points="656.924,-632.855 646.851,-629.571 652.677,-638.42 656.924,-632.855"/>
</g>
<!-- Node20&#45;&gt;Node26 -->
<g id="edge108" class="edge"><title>Node20&#45;&gt;Node26</title>
<path fill="none" stroke="midnightblue" d="M711.399,-666.295C715.714,-647.045 724.849,-606.289 730.403,-581.509"/>
<polygon fill="midnightblue" stroke="midnightblue" points="733.834,-582.203 732.606,-571.679 727.004,-580.672 733.834,-582.203"/>
</g>
<!-- Node21&#45;&gt;Node3 -->
<g id="edge60" class="edge"><title>Node21&#45;&gt;Node3</title>
<path fill="none" stroke="midnightblue" d="M992.974,-550.47C1006.13,-542.211 1023.01,-529.53 1033,-514 1051.83,-484.716 1052,-472.817 1052,-438 1052,-438 1052,-438 1052,-366 1052,-305.096 863.922,-267.804 760.791,-251.933"/>
<polygon fill="midnightblue" stroke="midnightblue" points="761.192,-248.454 750.781,-250.419 760.145,-255.375 761.192,-248.454"/>
</g>
<!-- Node22 -->
<g id="node53" class="node"><title>Node22</title>
<a xlink:href="MojHasher_8h.htm" target="_top" xlink:title="core/MojHasher.h">
<polygon fill="white" stroke="black" points="923.5,-492.5 923.5,-513.5 1024.5,-513.5 1024.5,-492.5 923.5,-492.5"/>
<text text-anchor="middle" x="974" y="-500.5" font-family="Helvetica,sans-Serif" font-size="10.00">core/MojHasher.h</text>
</a>
</g>
<!-- Node21&#45;&gt;Node22 -->
<g id="edge62" class="edge"><title>Node21&#45;&gt;Node22</title>
<path fill="none" stroke="midnightblue" d="M974,-550.362C974,-542.922 974,-532.743 974,-523.728"/>
<polygon fill="midnightblue" stroke="midnightblue" points="977.5,-523.571 974,-513.571 970.5,-523.571 977.5,-523.571"/>
</g>
<!-- Node22&#45;&gt;Node3 -->
<g id="edge64" class="edge"><title>Node22&#45;&gt;Node3</title>
<path fill="none" stroke="midnightblue" d="M974.293,-492.215C974.615,-457.266 970.625,-346.146 910,-290 888.525,-270.111 815.744,-257.194 760.761,-250.028"/>
<polygon fill="midnightblue" stroke="midnightblue" points="761.079,-246.54 750.718,-248.756 760.2,-253.484 761.079,-246.54"/>
</g>
<!-- Node23 -->
<g id="node56" class="node"><title>Node23</title>
<a xlink:href="MojUtil_8h.htm" target="_top" xlink:title="core/MojUtil.h">
<polygon fill="white" stroke="black" points="787.5,-427.5 787.5,-448.5 868.5,-448.5 868.5,-427.5 787.5,-427.5"/>
<text text-anchor="middle" x="828" y="-435.5" font-family="Helvetica,sans-Serif" font-size="10.00">core/MojUtil.h</text>
</a>
</g>
<!-- Node22&#45;&gt;Node23 -->
<g id="edge66" class="edge"><title>Node22&#45;&gt;Node23</title>
<path fill="none" stroke="midnightblue" d="M950.218,-492.412C926.038,-481.647 888.372,-464.878 861.245,-452.801"/>
<polygon fill="midnightblue" stroke="midnightblue" points="862.331,-449.453 851.772,-448.584 859.484,-455.848 862.331,-449.453"/>
</g>
<!-- Node23&#45;&gt;Node3 -->
<g id="edge68" class="edge"><title>Node23&#45;&gt;Node3</title>
<path fill="none" stroke="midnightblue" d="M824.197,-427.493C814.653,-402.052 787.794,-335.861 751,-290 741.85,-278.595 729.594,-267.936 718.881,-259.663"/>
<polygon fill="midnightblue" stroke="midnightblue" points="720.818,-256.741 710.709,-253.57 716.634,-262.353 720.818,-256.741"/>
</g>
<!-- Node24 -->
<g id="node59" class="node"><title>Node24</title>
<a xlink:href="MojUtilInternal_8h.htm" target="_top" xlink:title="core/internal/MojUtilInternal.h">
<polygon fill="white" stroke="black" points="493.5,-355.5 493.5,-376.5 648.5,-376.5 648.5,-355.5 493.5,-355.5"/>
<text text-anchor="middle" x="571" y="-363.5" font-family="Helvetica,sans-Serif" font-size="10.00">core/internal/MojUtilInternal.h</text>
</a>
</g>
<!-- Node23&#45;&gt;Node24 -->
<g id="edge70" class="edge"><title>Node23&#45;&gt;Node24</title>
<path fill="none" stroke="midnightblue" d="M790.355,-427.453C744.833,-414.7 668.165,-393.221 618.588,-379.332"/>
<polygon fill="midnightblue" stroke="midnightblue" points="619.319,-375.902 608.746,-376.575 617.431,-382.643 619.319,-375.902"/>
</g>
<!-- Node24&#45;&gt;Node18 -->
<g id="edge72" class="edge"><title>Node24&#45;&gt;Node18</title>
<path fill="none" stroke="midnightblue" d="M591.199,-355.412C611.465,-344.788 642.885,-328.318 665.85,-316.28"/>
<polygon fill="midnightblue" stroke="midnightblue" points="667.578,-319.326 674.81,-311.584 664.328,-313.126 667.578,-319.326"/>
</g>
<!-- Node25&#45;&gt;Node3 -->
<g id="edge78" class="edge"><title>Node25&#45;&gt;Node3</title>
<path fill="none" stroke="midnightblue" d="M585.926,-613.655C515.855,-603.002 393.854,-572.736 409,-492 427.733,-392.147 429.555,-343.375 516,-290 550.089,-268.952 593.436,-257.258 628.936,-250.798"/>
<polygon fill="midnightblue" stroke="midnightblue" points="629.94,-254.177 639.203,-249.035 628.755,-247.278 629.94,-254.177"/>
</g>
<!-- Node25&#45;&gt;Node14 -->
<g id="edge80" class="edge"><title>Node25&#45;&gt;Node14</title>
<path fill="none" stroke="midnightblue" d="M585.731,-616.854C517.677,-612.826 388.657,-601.668 283,-572 221.306,-554.677 192.627,-562.719 151,-514 137.894,-498.661 133.256,-475.684 131.676,-459.012"/>
<polygon fill="midnightblue" stroke="midnightblue" points="135.143,-458.4 131.004,-448.647 128.158,-458.853 135.143,-458.4"/>
</g>
<!-- Node25&#45;&gt;Node18 -->
<g id="edge82" class="edge"><title>Node25&#45;&gt;Node18</title>
<path fill="none" stroke="midnightblue" d="M627.1,-608.357C615.298,-585.51 591.667,-530.705 613,-492 627.463,-465.759 650.808,-479.01 670,-456 692.097,-429.508 692.436,-417.868 699,-384 703.076,-362.971 701.078,-338.416 698.681,-321.498"/>
<polygon fill="midnightblue" stroke="midnightblue" points="702.134,-320.924 697.108,-311.597 695.221,-322.022 702.134,-320.924"/>
</g>
<!-- Node25&#45;&gt;Node22 -->
<g id="edge84" class="edge"><title>Node25&#45;&gt;Node22</title>
<path fill="none" stroke="midnightblue" d="M671.484,-608.497C703.843,-599.458 751.218,-585.737 792,-572 843.372,-554.696 901.827,-531.985 938.316,-517.437"/>
<polygon fill="midnightblue" stroke="midnightblue" points="940.017,-520.526 948.001,-513.562 937.416,-514.027 940.017,-520.526"/>
</g>
<!-- Node25&#45;&gt;Node26 -->
<g id="edge86" class="edge"><title>Node25&#45;&gt;Node26</title>
<path fill="none" stroke="midnightblue" d="M651.708,-608.362C667.381,-599.45 689.964,-586.609 707.663,-576.545"/>
<polygon fill="midnightblue" stroke="midnightblue" points="709.447,-579.556 716.41,-571.571 705.987,-573.471 709.447,-579.556"/>
</g>
<!-- Node26&#45;&gt;Node3 -->
<g id="edge88" class="edge"><title>Node26&#45;&gt;Node3</title>
<path fill="none" stroke="midnightblue" d="M779.428,-550.417C802.723,-543.151 830.577,-531.575 851,-514 880.754,-488.395 896,-477.255 896,-438 896,-438 896,-438 896,-366 896,-301.318 819.335,-269.616 760.7,-254.828"/>
<polygon fill="midnightblue" stroke="midnightblue" points="761.264,-251.364 750.723,-252.428 759.627,-258.17 761.264,-251.364"/>
</g>
<!-- Node26&#45;&gt;Node18 -->
<g id="edge90" class="edge"><title>Node26&#45;&gt;Node18</title>
<path fill="none" stroke="midnightblue" d="M760.13,-550.393C774.948,-542.665 792.427,-530.629 801,-514 805.48,-505.309 803.648,-501.412 801,-492 795.921,-473.95 787.905,-472.502 779,-456 753.79,-409.285 754.682,-393.889 728,-348 722.479,-338.506 715.6,-328.48 709.553,-320.138"/>
<polygon fill="midnightblue" stroke="midnightblue" points="712.183,-317.808 703.421,-311.851 706.556,-321.972 712.183,-317.808"/>
</g>
<!-- Node26&#45;&gt;Node23 -->
<g id="edge104" class="edge"><title>Node26&#45;&gt;Node23</title>
<path fill="none" stroke="midnightblue" d="M782.148,-550.491C801.693,-543.559 822.46,-532.253 834,-514 844.501,-497.39 840.803,-474.482 835.844,-458.169"/>
<polygon fill="midnightblue" stroke="midnightblue" points="839.094,-456.857 832.54,-448.533 832.473,-459.128 839.094,-456.857"/>
</g>
<!-- Node27 -->
<g id="node73" class="node"><title>Node27</title>
<a xlink:href="MojRefCount_8h.htm" target="_top" xlink:title="core/MojRefCount.h">
<polygon fill="white" stroke="black" points="418,-492.5 418,-513.5 528,-513.5 528,-492.5 418,-492.5"/>
<text text-anchor="middle" x="473" y="-500.5" font-family="Helvetica,sans-Serif" font-size="10.00">core/MojRefCount.h</text>
</a>
</g>
<!-- Node26&#45;&gt;Node27 -->
<g id="edge92" class="edge"><title>Node26&#45;&gt;Node27</title>
<path fill="none" stroke="midnightblue" d="M687.554,-550.497C643.454,-540.734 577.672,-526.172 530.583,-515.747"/>
<polygon fill="midnightblue" stroke="midnightblue" points="531.055,-512.267 520.535,-513.523 529.542,-519.102 531.055,-512.267"/>
</g>
<!-- Node29 -->
<g id="node82" class="node"><title>Node29</title>
<a xlink:href="MojVectorInternal_8h.htm" target="_top" xlink:title="core/internal/MojVectorInternal.h">
<polygon fill="white" stroke="black" points="621.5,-492.5 621.5,-513.5 792.5,-513.5 792.5,-492.5 621.5,-492.5"/>
<text text-anchor="middle" x="707" y="-500.5" font-family="Helvetica,sans-Serif" font-size="10.00">core/internal/MojVectorInternal.h</text>
</a>
</g>
<!-- Node26&#45;&gt;Node29 -->
<g id="edge106" class="edge"><title>Node26&#45;&gt;Node29</title>
<path fill="none" stroke="midnightblue" d="M729.864,-550.362C726.154,-542.677 721.033,-532.069 716.578,-522.84"/>
<polygon fill="midnightblue" stroke="midnightblue" points="719.603,-521.055 712.103,-513.571 713.299,-524.098 719.603,-521.055"/>
</g>
<!-- Node27&#45;&gt;Node3 -->
<g id="edge94" class="edge"><title>Node27&#45;&gt;Node3</title>
<path fill="none" stroke="midnightblue" d="M470.562,-492.462C464.999,-465.685 454.115,-393.908 485,-348 518.952,-297.533 584.673,-270.225 633.592,-256.224"/>
<polygon fill="midnightblue" stroke="midnightblue" points="634.732,-259.54 643.447,-253.516 632.877,-252.79 634.732,-259.54"/>
</g>
<!-- Node27&#45;&gt;Node14 -->
<g id="edge98" class="edge"><title>Node27&#45;&gt;Node14</title>
<path fill="none" stroke="midnightblue" d="M417.672,-492.484C355.672,-480.701 255.481,-461.659 191.462,-449.491"/>
<polygon fill="midnightblue" stroke="midnightblue" points="191.987,-446.028 181.509,-447.6 190.68,-452.905 191.987,-446.028"/>
</g>
<!-- Node27&#45;&gt;Node15 -->
<g id="edge96" class="edge"><title>Node27&#45;&gt;Node15</title>
<path fill="none" stroke="midnightblue" d="M460.25,-492.477C431.835,-469.026 363.069,-412.274 328.131,-383.439"/>
<polygon fill="midnightblue" stroke="midnightblue" points="329.963,-380.413 320.022,-376.747 325.507,-385.812 329.963,-380.413"/>
</g>
<!-- Node28 -->
<g id="node78" class="node"><title>Node28</title>
<a xlink:href="MojRefCountInternal_8h.htm" target="_top" xlink:title="core/internal/MojRefCount\lInternal.h">
<polygon fill="white" stroke="black" points="497,-421 497,-455 637,-455 637,-421 497,-421"/>
<text text-anchor="start" x="505" y="-442" font-family="Helvetica,sans-Serif" font-size="10.00">core/internal/MojRefCount</text>
<text text-anchor="middle" x="567" y="-429" font-family="Helvetica,sans-Serif" font-size="10.00">Internal.h</text>
</a>
</g>
<!-- Node27&#45;&gt;Node28 -->
<g id="edge100" class="edge"><title>Node27&#45;&gt;Node28</title>
<path fill="none" stroke="midnightblue" d="M488.522,-492.267C500.842,-483.748 518.501,-471.537 533.949,-460.854"/>
<polygon fill="midnightblue" stroke="midnightblue" points="536.022,-463.676 542.257,-455.11 532.041,-457.919 536.022,-463.676"/>
</g>
<!-- Node28&#45;&gt;Node24 -->
<g id="edge102" class="edge"><title>Node28&#45;&gt;Node24</title>
<path fill="none" stroke="midnightblue" d="M567.948,-420.937C568.51,-410.814 569.228,-397.898 569.826,-387.133"/>
<polygon fill="midnightblue" stroke="midnightblue" points="573.334,-387.08 570.394,-376.901 566.345,-386.691 573.334,-387.08"/>
</g>
</g>
</svg>
