<?xml version="1.0" encoding="UTF-8" standalone="no"?>
<!DOCTYPE svg PUBLIC "-//W3C//DTD SVG 1.1//EN"
 "http://www.w3.org/Graphics/SVG/1.1/DTD/svg11.dtd">
<!-- Generated by graphviz version 2.26.3 (20100126.1600)
 -->
<!-- Title: MojService.h Pages: 1 -->
<svg width="2219pt" height="826pt"
 viewBox="0.00 0.00 2219.11 826.00" xmlns="http://www.w3.org/2000/svg" xmlns:xlink="http://www.w3.org/1999/xlink">
<g id="graph1" class="graph" transform="scale(1 1) rotate(0) translate(4 822)">
<title>MojService.h</title>
<polygon fill="white" stroke="white" points="-4,5 -4,-822 2216.11,-822 2216.11,5 -4,5"/>
<!-- Node1 -->
<g id="node1" class="node"><title>Node1</title>
<polygon fill="#bfbfbf" stroke="black" points="1416.61,-796.5 1416.61,-817.5 1493.61,-817.5 1493.61,-796.5 1416.61,-796.5"/>
<text text-anchor="middle" x="1455.11" y="-804.5" font-family="Helvetica,sans-Serif" font-size="10.00">MojService.h</text>
</g>
<!-- Node2 -->
<g id="node3" class="node"><title>Node2</title>
<a xlink:href="MojCoreDefs_8h.htm" target="_top" xlink:title="core/MojCoreDefs.h">
<polygon fill="white" stroke="black" points="1239.61,-232.5 1239.61,-253.5 1350.61,-253.5 1350.61,-232.5 1239.61,-232.5"/>
<text text-anchor="middle" x="1295.11" y="-240.5" font-family="Helvetica,sans-Serif" font-size="10.00">core/MojCoreDefs.h</text>
</a>
</g>
<!-- Node1&#45;&gt;Node2 -->
<g id="edge2" class="edge"><title>Node1&#45;&gt;Node2</title>
<path fill="none" stroke="midnightblue" d="M1493.87,-804.592C1597.85,-797.08 1875.11,-769.673 1875.11,-691 1875.11,-691 1875.11,-691 1875.11,-366 1875.11,-312.62 1831.47,-310.328 1782.11,-290 1707.59,-259.307 1475.93,-248.292 1361.06,-244.647"/>
<polygon fill="midnightblue" stroke="midnightblue" points="1361.09,-241.146 1350.99,-244.336 1360.88,-248.143 1361.09,-241.146"/>
</g>
<!-- Node12 -->
<g id="node23" class="node"><title>Node12</title>
<a xlink:href="MojAutoPtr_8h.htm" target="_top" xlink:title="core/MojAutoPtr.h">
<polygon fill="white" stroke="black" points="1367.61,-427.5 1367.61,-448.5 1468.61,-448.5 1468.61,-427.5 1367.61,-427.5"/>
<text text-anchor="middle" x="1418.11" y="-435.5" font-family="Helvetica,sans-Serif" font-size="10.00">core/MojAutoPtr.h</text>
</a>
</g>
<!-- Node1&#45;&gt;Node12 -->
<g id="edge22" class="edge"><title>Node1&#45;&gt;Node12</title>
<path fill="none" stroke="midnightblue" d="M1461.22,-796.191C1471.96,-776.127 1493.11,-731.477 1493.11,-691 1493.11,-691 1493.11,-691 1493.11,-568 1493.11,-533.183 1491.54,-522.141 1474.11,-492 1465.84,-477.699 1452.69,-464.737 1441.21,-455.099"/>
<polygon fill="midnightblue" stroke="midnightblue" points="1443.23,-452.23 1433.24,-448.696 1438.85,-457.687 1443.23,-452.23"/>
</g>
<!-- Node15 -->
<g id="node32" class="node"><title>Node15</title>
<a xlink:href="MojHashMap_8h.htm" target="_top" xlink:title="core/MojHashMap.h">
<polygon fill="white" stroke="black" points="59.1117,-622.5 59.1117,-643.5 171.112,-643.5 171.112,-622.5 59.1117,-622.5"/>
<text text-anchor="middle" x="115.112" y="-630.5" font-family="Helvetica,sans-Serif" font-size="10.00">core/MojHashMap.h</text>
</a>
</g>
<!-- Node1&#45;&gt;Node15 -->
<g id="edge34" class="edge"><title>Node1&#45;&gt;Node15</title>
<path fill="none" stroke="midnightblue" d="M1416.56,-804.505C1328.66,-798.62 1106.75,-782.642 922.112,-760 645.721,-726.106 318.605,-669.5 181.143,-644.956"/>
<polygon fill="midnightblue" stroke="midnightblue" points="181.643,-641.49 171.183,-643.175 180.411,-648.381 181.643,-641.49"/>
</g>
<!-- Node22 -->
<g id="node53" class="node"><title>Node22</title>
<a xlink:href="MojObject_8h.htm" target="_top" xlink:title="core/MojObject.h">
<polygon fill="white" stroke="black" points="789.112,-680.5 789.112,-701.5 885.112,-701.5 885.112,-680.5 789.112,-680.5"/>
<text text-anchor="middle" x="837.112" y="-688.5" font-family="Helvetica,sans-Serif" font-size="10.00">core/MojObject.h</text>
</a>
</g>
<!-- Node1&#45;&gt;Node22 -->
<g id="edge62" class="edge"><title>Node1&#45;&gt;Node22</title>
<path fill="none" stroke="midnightblue" d="M1416.5,-804.835C1319.11,-799.104 1065.41,-782.426 984.112,-760 939.672,-747.741 892.03,-722.992 863.406,-706.71"/>
<polygon fill="midnightblue" stroke="midnightblue" points="864.87,-703.514 854.46,-701.543 861.369,-709.575 864.87,-703.514"/>
</g>
<!-- Node26 -->
<g id="node68" class="node"><title>Node26</title>
<a xlink:href="MojString_8h.htm" target="_top" xlink:title="core/MojString.h">
<polygon fill="white" stroke="black" points="979.112,-622.5 979.112,-643.5 1073.11,-643.5 1073.11,-622.5 979.112,-622.5"/>
<text text-anchor="middle" x="1026.11" y="-630.5" font-family="Helvetica,sans-Serif" font-size="10.00">core/MojString.h</text>
</a>
</g>
<!-- Node1&#45;&gt;Node26 -->
<g id="edge162" class="edge"><title>Node1&#45;&gt;Node26</title>
<path fill="none" stroke="midnightblue" d="M1428.92,-796.377C1355.16,-766.462 1145.62,-681.474 1061.6,-647.396"/>
<polygon fill="midnightblue" stroke="midnightblue" points="1062.81,-644.109 1052.23,-643.594 1060.18,-650.596 1062.81,-644.109"/>
</g>
<!-- Node31 -->
<g id="node90" class="node"><title>Node31</title>
<a xlink:href="MojSchema_8h.htm" target="_top" xlink:title="core/MojSchema.h">
<polygon fill="white" stroke="black" points="993.112,-738.5 993.112,-759.5 1097.11,-759.5 1097.11,-738.5 993.112,-738.5"/>
<text text-anchor="middle" x="1045.11" y="-746.5" font-family="Helvetica,sans-Serif" font-size="10.00">core/MojSchema.h</text>
</a>
</g>
<!-- Node1&#45;&gt;Node31 -->
<g id="edge118" class="edge"><title>Node1&#45;&gt;Node31</title>
<path fill="none" stroke="midnightblue" d="M1416.54,-801.544C1345.47,-791.49 1193.29,-769.962 1107.41,-757.813"/>
<polygon fill="midnightblue" stroke="midnightblue" points="1107.67,-754.315 1097.28,-756.38 1106.69,-761.246 1107.67,-754.315"/>
</g>
<!-- Node34 -->
<g id="node103" class="node"><title>Node34</title>
<a xlink:href="MojSignal_8h.htm" target="_top" xlink:title="core/MojSignal.h">
<polygon fill="white" stroke="black" points="1902.61,-622.5 1902.61,-643.5 1997.61,-643.5 1997.61,-622.5 1902.61,-622.5"/>
<text text-anchor="middle" x="1950.11" y="-630.5" font-family="Helvetica,sans-Serif" font-size="10.00">core/MojSignal.h</text>
</a>
</g>
<!-- Node1&#45;&gt;Node34 -->
<g id="edge138" class="edge"><title>Node1&#45;&gt;Node34</title>
<path fill="none" stroke="midnightblue" d="M1493.93,-804.941C1594.37,-799.317 1857.17,-782.588 1889.11,-760 1924.88,-734.706 1940.46,-682.635 1946.59,-653.64"/>
<polygon fill="midnightblue" stroke="midnightblue" points="1950.04,-654.243 1948.5,-643.761 1943.17,-652.915 1950.04,-654.243"/>
</g>
<!-- Node3 -->
<g id="node5" class="node"><title>Node3</title>
<a xlink:href="MojConfig_8h.htm" target="_top" xlink:title="core/internal/MojConfig.h">
<polygon fill="white" stroke="black" points="1352.61,-174.5 1352.61,-195.5 1487.61,-195.5 1487.61,-174.5 1352.61,-174.5"/>
<text text-anchor="middle" x="1420.11" y="-182.5" font-family="Helvetica,sans-Serif" font-size="10.00">core/internal/MojConfig.h</text>
</a>
</g>
<!-- Node2&#45;&gt;Node3 -->
<g id="edge4" class="edge"><title>Node2&#45;&gt;Node3</title>
<path fill="none" stroke="midnightblue" d="M1317.75,-232.497C1337.36,-223.397 1365.96,-210.127 1387.95,-199.925"/>
<polygon fill="midnightblue" stroke="midnightblue" points="1389.62,-203.005 1397.22,-195.621 1386.68,-196.655 1389.62,-203.005"/>
</g>
<!-- Node4 -->
<g id="node7" class="node"><title>Node4</title>
<a xlink:href="MojNew_8h.htm" target="_top" xlink:title="core/internal/MojNew.h">
<polygon fill="white" stroke="black" points="1112.61,-174.5 1112.61,-195.5 1237.61,-195.5 1237.61,-174.5 1112.61,-174.5"/>
<text text-anchor="middle" x="1175.11" y="-182.5" font-family="Helvetica,sans-Serif" font-size="10.00">core/internal/MojNew.h</text>
</a>
</g>
<!-- Node2&#45;&gt;Node4 -->
<g id="edge6" class="edge"><title>Node2&#45;&gt;Node4</title>
<path fill="none" stroke="midnightblue" d="M1273.38,-232.497C1254.64,-223.438 1227.35,-210.246 1206.28,-200.063"/>
<polygon fill="midnightblue" stroke="midnightblue" points="1207.61,-196.822 1197.09,-195.621 1204.57,-203.124 1207.61,-196.822"/>
</g>
<!-- Node6 -->
<g id="node11" class="node"><title>Node6</title>
<a xlink:href="MojErr_8h.htm" target="_top" xlink:title="core/MojErr.h">
<polygon fill="white" stroke="black" points="1255.11,-174.5 1255.11,-195.5 1335.11,-195.5 1335.11,-174.5 1255.11,-174.5"/>
<text text-anchor="middle" x="1295.11" y="-182.5" font-family="Helvetica,sans-Serif" font-size="10.00">core/MojErr.h</text>
</a>
</g>
<!-- Node2&#45;&gt;Node6 -->
<g id="edge10" class="edge"><title>Node2&#45;&gt;Node6</title>
<path fill="none" stroke="midnightblue" d="M1295.11,-232.362C1295.11,-224.922 1295.11,-214.743 1295.11,-205.728"/>
<polygon fill="midnightblue" stroke="midnightblue" points="1298.61,-205.571 1295.11,-195.571 1291.61,-205.571 1298.61,-205.571"/>
</g>
<!-- Node10 -->
<g id="node19" class="node"><title>Node10</title>
<a xlink:href="MojOs_8h.htm" target="_top" xlink:title="core/MojOs.h">
<polygon fill="white" stroke="black" points="1505.11,-174.5 1505.11,-195.5 1585.11,-195.5 1585.11,-174.5 1505.11,-174.5"/>
<text text-anchor="middle" x="1545.11" y="-182.5" font-family="Helvetica,sans-Serif" font-size="10.00">core/MojOs.h</text>
</a>
</g>
<!-- Node2&#45;&gt;Node10 -->
<g id="edge18" class="edge"><title>Node2&#45;&gt;Node10</title>
<path fill="none" stroke="midnightblue" d="M1340.38,-232.497C1383.95,-222.39 1449.68,-207.14 1494.84,-196.662"/>
<polygon fill="midnightblue" stroke="midnightblue" points="1495.77,-200.04 1504.72,-194.371 1494.19,-193.221 1495.77,-200.04"/>
</g>
<!-- Node5 -->
<g id="node9" class="node"><title>Node5</title>
<polygon fill="white" stroke="#bfbfbf" points="1157.11,-116.5 1157.11,-137.5 1193.11,-137.5 1193.11,-116.5 1157.11,-116.5"/>
<text text-anchor="middle" x="1175.11" y="-124.5" font-family="Helvetica,sans-Serif" font-size="10.00">new</text>
</g>
<!-- Node4&#45;&gt;Node5 -->
<g id="edge8" class="edge"><title>Node4&#45;&gt;Node5</title>
<path fill="none" stroke="midnightblue" d="M1175.11,-174.362C1175.11,-166.922 1175.11,-156.743 1175.11,-147.728"/>
<polygon fill="midnightblue" stroke="midnightblue" points="1178.61,-147.571 1175.11,-137.571 1171.61,-147.571 1178.61,-147.571"/>
</g>
<!-- Node7 -->
<g id="node13" class="node"><title>Node7</title>
<a xlink:href="MojLog_8h.htm" target="_top" xlink:title="core/MojLog.h">
<polygon fill="white" stroke="black" points="1310.11,-116.5 1310.11,-137.5 1394.11,-137.5 1394.11,-116.5 1310.11,-116.5"/>
<text text-anchor="middle" x="1352.11" y="-124.5" font-family="Helvetica,sans-Serif" font-size="10.00">core/MojLog.h</text>
</a>
</g>
<!-- Node6&#45;&gt;Node7 -->
<g id="edge12" class="edge"><title>Node6&#45;&gt;Node7</title>
<path fill="none" stroke="midnightblue" d="M1305.57,-174.362C1313.68,-166.104 1325.11,-154.472 1334.62,-144.803"/>
<polygon fill="midnightblue" stroke="midnightblue" points="1337.21,-147.156 1341.72,-137.571 1332.22,-142.25 1337.21,-147.156"/>
</g>
<!-- Node8 -->
<g id="node15" class="node"><title>Node8</title>
<a xlink:href="MojListEntry_8h.htm" target="_top" xlink:title="core/MojListEntry.h">
<polygon fill="white" stroke="black" points="1462.61,-58.5 1462.61,-79.5 1569.61,-79.5 1569.61,-58.5 1462.61,-58.5"/>
<text text-anchor="middle" x="1516.11" y="-66.5" font-family="Helvetica,sans-Serif" font-size="10.00">core/MojListEntry.h</text>
</a>
</g>
<!-- Node7&#45;&gt;Node8 -->
<g id="edge14" class="edge"><title>Node7&#45;&gt;Node8</title>
<path fill="none" stroke="midnightblue" d="M1381.81,-116.497C1408.43,-107.082 1447.67,-93.2036 1476.87,-82.8773"/>
<polygon fill="midnightblue" stroke="midnightblue" points="1478.1,-86.1571 1486.36,-79.5231 1475.76,-79.5576 1478.1,-86.1571"/>
</g>
<!-- Node9 -->
<g id="node17" class="node"><title>Node9</title>
<a xlink:href="MojNoCopy_8h.htm" target="_top" xlink:title="core/MojNoCopy.h">
<polygon fill="white" stroke="black" points="1586.11,-0.5 1586.11,-21.5 1690.11,-21.5 1690.11,-0.5 1586.11,-0.5"/>
<text text-anchor="middle" x="1638.11" y="-8.5" font-family="Helvetica,sans-Serif" font-size="10.00">core/MojNoCopy.h</text>
</a>
</g>
<!-- Node8&#45;&gt;Node9 -->
<g id="edge16" class="edge"><title>Node8&#45;&gt;Node9</title>
<path fill="none" stroke="midnightblue" d="M1538.2,-58.4966C1557.35,-49.397 1585.26,-36.1273 1606.72,-25.9253"/>
<polygon fill="midnightblue" stroke="midnightblue" points="1608.24,-29.0758 1615.77,-21.6212 1605.24,-22.7539 1608.24,-29.0758"/>
</g>
<!-- Node11 -->
<g id="node21" class="node"><title>Node11</title>
<a xlink:href="MojOsInternal_8h.htm" target="_top" xlink:title="core/internal/MojOsInternal.h">
<polygon fill="white" stroke="black" points="1468.11,-116.5 1468.11,-137.5 1622.11,-137.5 1622.11,-116.5 1468.11,-116.5"/>
<text text-anchor="middle" x="1545.11" y="-124.5" font-family="Helvetica,sans-Serif" font-size="10.00">core/internal/MojOsInternal.h</text>
</a>
</g>
<!-- Node10&#45;&gt;Node11 -->
<g id="edge20" class="edge"><title>Node10&#45;&gt;Node11</title>
<path fill="none" stroke="midnightblue" d="M1545.11,-174.362C1545.11,-166.922 1545.11,-156.743 1545.11,-147.728"/>
<polygon fill="midnightblue" stroke="midnightblue" points="1548.61,-147.571 1545.11,-137.571 1541.61,-147.571 1548.61,-147.571"/>
</g>
<!-- Node12&#45;&gt;Node2 -->
<g id="edge24" class="edge"><title>Node12&#45;&gt;Node2</title>
<path fill="none" stroke="midnightblue" d="M1400.89,-427.477C1386.22,-417.761 1365.45,-402.122 1352.11,-384 1337.42,-364.046 1313.63,-297.561 1301.98,-263.5"/>
<polygon fill="midnightblue" stroke="midnightblue" points="1305.18,-262.027 1298.65,-253.68 1298.55,-264.274 1305.18,-262.027"/>
</g>
<!-- Node12&#45;&gt;Node9 -->
<g id="edge30" class="edge"><title>Node12&#45;&gt;Node9</title>
<path fill="none" stroke="midnightblue" d="M1436.01,-427.478C1453.05,-417.17 1479.14,-400.626 1500.11,-384 1518.34,-369.546 1518.9,-361.121 1538.11,-348 1628.57,-286.215 1761.11,-352.548 1761.11,-243 1761.11,-243 1761.11,-243 1761.11,-127 1761.11,-78.4994 1709.87,-44.2821 1673.53,-26.1154"/>
<polygon fill="midnightblue" stroke="midnightblue" points="1674.73,-22.8055 1664.2,-21.6309 1671.7,-29.1154 1674.73,-22.8055"/>
</g>
<!-- Node13 -->
<g id="node26" class="node"><title>Node13</title>
<a xlink:href="MojAtomicInt_8h.htm" target="_top" xlink:title="core/MojAtomicInt.h">
<polygon fill="white" stroke="black" points="1547.11,-355.5 1547.11,-376.5 1657.11,-376.5 1657.11,-355.5 1547.11,-355.5"/>
<text text-anchor="middle" x="1602.11" y="-363.5" font-family="Helvetica,sans-Serif" font-size="10.00">core/MojAtomicInt.h</text>
</a>
</g>
<!-- Node12&#45;&gt;Node13 -->
<g id="edge26" class="edge"><title>Node12&#45;&gt;Node13</title>
<path fill="none" stroke="midnightblue" d="M1445.26,-427.376C1477.15,-414.897 1530.19,-394.142 1565.65,-380.268"/>
<polygon fill="midnightblue" stroke="midnightblue" points="1567.11,-383.454 1575.15,-376.55 1564.56,-376.935 1567.11,-383.454"/>
</g>
<!-- Node14 -->
<g id="node30" class="node"><title>Node14</title>
<a xlink:href="MojAutoPtrInternal_8h.htm" target="_top" xlink:title="core/internal/MojAutoPtr\lInternal.h">
<polygon fill="white" stroke="black" points="1360.61,-349 1360.61,-383 1491.61,-383 1491.61,-349 1360.61,-349"/>
<text text-anchor="start" x="1368.61" y="-370" font-family="Helvetica,sans-Serif" font-size="10.00">core/internal/MojAutoPtr</text>
<text text-anchor="middle" x="1426.11" y="-357" font-family="Helvetica,sans-Serif" font-size="10.00">Internal.h</text>
</a>
</g>
<!-- Node12&#45;&gt;Node14 -->
<g id="edge32" class="edge"><title>Node12&#45;&gt;Node14</title>
<path fill="none" stroke="midnightblue" d="M1419.29,-427.376C1420.29,-418.36 1421.78,-405.024 1423.1,-393.084"/>
<polygon fill="midnightblue" stroke="midnightblue" points="1426.59,-393.42 1424.21,-383.094 1419.63,-392.647 1426.59,-393.42"/>
</g>
<!-- Node13&#45;&gt;Node2 -->
<g id="edge28" class="edge"><title>Node13&#45;&gt;Node2</title>
<path fill="none" stroke="midnightblue" d="M1575.67,-355.407C1520.59,-333.337 1393.48,-282.41 1331.04,-257.395"/>
<polygon fill="midnightblue" stroke="midnightblue" points="1332.18,-254.082 1321.6,-253.612 1329.58,-260.58 1332.18,-254.082"/>
</g>
<!-- Node15&#45;&gt;Node2 -->
<g id="edge36" class="edge"><title>Node15&#45;&gt;Node2</title>
<path fill="none" stroke="midnightblue" d="M75.707,-622.333C56.2484,-615.122 34.0208,-603.621 20.1117,-586 -3.33502,-556.296 1.11167,-540.843 1.11167,-503 1.11167,-503 1.11167,-503 1.11167,-366 1.11167,-288.876 82.3346,-308.879 157.112,-290 260.844,-263.81 1002.52,-248.311 1229.37,-244.145"/>
<polygon fill="midnightblue" stroke="midnightblue" points="1229.52,-247.643 1239.46,-243.961 1229.39,-240.644 1229.52,-247.643"/>
</g>
<!-- Node16 -->
<g id="node35" class="node"><title>Node16</title>
<a xlink:href="MojComp_8h.htm" target="_top" xlink:title="core/MojComp.h">
<polygon fill="white" stroke="black" points="927.112,-290.5 927.112,-311.5 1021.11,-311.5 1021.11,-290.5 927.112,-290.5"/>
<text text-anchor="middle" x="974.112" y="-298.5" font-family="Helvetica,sans-Serif" font-size="10.00">core/MojComp.h</text>
</a>
</g>
<!-- Node15&#45;&gt;Node16 -->
<g id="edge38" class="edge"><title>Node15&#45;&gt;Node16</title>
<path fill="none" stroke="midnightblue" d="M129.895,-622.454C143.115,-612.99 162.988,-598.679 180.112,-586 235.691,-544.848 243.136,-524.627 304.112,-492 513.955,-379.717 797.035,-327.202 916.802,-308.911"/>
<polygon fill="midnightblue" stroke="midnightblue" points="917.485,-312.348 926.852,-307.398 916.443,-305.426 917.485,-312.348"/>
</g>
<!-- Node17 -->
<g id="node38" class="node"><title>Node17</title>
<a xlink:href="MojHashBase_8h.htm" target="_top" xlink:title="core/internal/MojHashBase.h">
<polygon fill="white" stroke="black" points="386.612,-557.5 386.612,-578.5 539.612,-578.5 539.612,-557.5 386.612,-557.5"/>
<text text-anchor="middle" x="463.112" y="-565.5" font-family="Helvetica,sans-Serif" font-size="10.00">core/internal/MojHashBase.h</text>
</a>
</g>
<!-- Node15&#45;&gt;Node17 -->
<g id="edge42" class="edge"><title>Node15&#45;&gt;Node17</title>
<path fill="none" stroke="midnightblue" d="M171.13,-623.521C224.441,-614.375 306.867,-599.906 378.112,-586 386.717,-584.32 395.797,-582.476 404.691,-580.627"/>
<polygon fill="midnightblue" stroke="midnightblue" points="405.55,-584.023 414.62,-578.547 404.115,-577.172 405.55,-584.023"/>
</g>
<!-- Node21 -->
<g id="node51" class="node"><title>Node21</title>
<a xlink:href="MojHashMapInternal_8h.htm" target="_top" xlink:title="core/internal/MojHashMap\lInternal.h">
<polygon fill="white" stroke="black" points="29.1117,-551 29.1117,-585 171.112,-585 171.112,-551 29.1117,-551"/>
<text text-anchor="start" x="37.1117" y="-572" font-family="Helvetica,sans-Serif" font-size="10.00">core/internal/MojHashMap</text>
<text text-anchor="middle" x="100.112" y="-559" font-family="Helvetica,sans-Serif" font-size="10.00">Internal.h</text>
</a>
</g>
<!-- Node15&#45;&gt;Node21 -->
<g id="edge60" class="edge"><title>Node15&#45;&gt;Node21</title>
<path fill="none" stroke="midnightblue" d="M112.635,-622.267C110.924,-614.852 108.567,-604.64 106.36,-595.074"/>
<polygon fill="midnightblue" stroke="midnightblue" points="109.719,-594.067 104.06,-585.11 102.898,-595.641 109.719,-594.067"/>
</g>
<!-- Node16&#45;&gt;Node2 -->
<g id="edge40" class="edge"><title>Node16&#45;&gt;Node2</title>
<path fill="none" stroke="midnightblue" d="M1021.13,-292.504C1076.15,-282.564 1167.58,-266.044 1229.54,-254.847"/>
<polygon fill="midnightblue" stroke="midnightblue" points="1230.39,-258.252 1239.61,-253.029 1229.14,-251.363 1230.39,-258.252"/>
</g>
<!-- Node17&#45;&gt;Node2 -->
<g id="edge44" class="edge"><title>Node17&#45;&gt;Node2</title>
<path fill="none" stroke="midnightblue" d="M416.728,-557.474C375.545,-547.226 319.564,-530.781 304.112,-514 280.527,-488.387 285.112,-472.817 285.112,-438 285.112,-438 285.112,-438 285.112,-366 285.112,-290.471 364.105,-309.358 437.112,-290 512.82,-269.926 1041.73,-251.157 1229.32,-245.062"/>
<polygon fill="midnightblue" stroke="midnightblue" points="1229.44,-248.56 1239.32,-244.738 1229.22,-241.564 1229.44,-248.56"/>
</g>
<!-- Node17&#45;&gt;Node12 -->
<g id="edge46" class="edge"><title>Node17&#45;&gt;Node12</title>
<path fill="none" stroke="midnightblue" d="M469.375,-557.499C480.371,-540.185 504.967,-506.16 536.112,-492 612.161,-457.424 1203.93,-463.694 1287.11,-456 1310.21,-453.864 1335.47,-450.611 1357.6,-447.454"/>
<polygon fill="midnightblue" stroke="midnightblue" points="1358.14,-450.914 1367.53,-446.016 1357.13,-443.986 1358.14,-450.914"/>
</g>
<!-- Node18 -->
<g id="node42" class="node"><title>Node18</title>
<a xlink:href="MojHasher_8h.htm" target="_top" xlink:title="core/MojHasher.h">
<polygon fill="white" stroke="black" points="312.612,-492.5 312.612,-513.5 413.612,-513.5 413.612,-492.5 312.612,-492.5"/>
<text text-anchor="middle" x="363.112" y="-500.5" font-family="Helvetica,sans-Serif" font-size="10.00">core/MojHasher.h</text>
</a>
</g>
<!-- Node17&#45;&gt;Node18 -->
<g id="edge48" class="edge"><title>Node17&#45;&gt;Node18</title>
<path fill="none" stroke="midnightblue" d="M446.599,-557.267C430.581,-546.855 406.076,-530.927 387.752,-519.016"/>
<polygon fill="midnightblue" stroke="midnightblue" points="389.609,-516.049 379.317,-513.534 385.794,-521.918 389.609,-516.049"/>
</g>
<!-- Node18&#45;&gt;Node2 -->
<g id="edge50" class="edge"><title>Node18&#45;&gt;Node2</title>
<path fill="none" stroke="midnightblue" d="M364.451,-492.387C369.608,-456.499 391.712,-339.186 465.112,-290 496.697,-268.835 1038.78,-250.665 1229.44,-244.903"/>
<polygon fill="midnightblue" stroke="midnightblue" points="1229.71,-248.396 1239.6,-244.597 1229.5,-241.399 1229.71,-248.396"/>
</g>
<!-- Node19 -->
<g id="node45" class="node"><title>Node19</title>
<a xlink:href="MojUtil_8h.htm" target="_top" xlink:title="core/MojUtil.h">
<polygon fill="white" stroke="black" points="1039.61,-427.5 1039.61,-448.5 1120.61,-448.5 1120.61,-427.5 1039.61,-427.5"/>
<text text-anchor="middle" x="1080.11" y="-435.5" font-family="Helvetica,sans-Serif" font-size="10.00">core/MojUtil.h</text>
</a>
</g>
<!-- Node18&#45;&gt;Node19 -->
<g id="edge52" class="edge"><title>Node18&#45;&gt;Node19</title>
<path fill="none" stroke="midnightblue" d="M413.706,-493.883C418.232,-493.195 422.75,-492.554 427.112,-492 650.674,-463.599 919.282,-446.816 1029.33,-440.678"/>
<polygon fill="midnightblue" stroke="midnightblue" points="1029.69,-444.164 1039.48,-440.118 1029.3,-437.175 1029.69,-444.164"/>
</g>
<!-- Node19&#45;&gt;Node2 -->
<g id="edge54" class="edge"><title>Node19&#45;&gt;Node2</title>
<path fill="none" stroke="midnightblue" d="M1109.27,-427.418C1140.73,-415.621 1188.3,-396.555 1203.11,-384 1243.6,-349.678 1272.94,-293.102 1286.57,-263.113"/>
<polygon fill="midnightblue" stroke="midnightblue" points="1289.9,-264.256 1290.73,-253.694 1283.49,-261.427 1289.9,-264.256"/>
</g>
<!-- Node20 -->
<g id="node48" class="node"><title>Node20</title>
<a xlink:href="MojUtilInternal_8h.htm" target="_top" xlink:title="core/internal/MojUtilInternal.h">
<polygon fill="white" stroke="black" points="1039.61,-355.5 1039.61,-376.5 1194.61,-376.5 1194.61,-355.5 1039.61,-355.5"/>
<text text-anchor="middle" x="1117.11" y="-363.5" font-family="Helvetica,sans-Serif" font-size="10.00">core/internal/MojUtilInternal.h</text>
</a>
</g>
<!-- Node19&#45;&gt;Node20 -->
<g id="edge56" class="edge"><title>Node19&#45;&gt;Node20</title>
<path fill="none" stroke="midnightblue" d="M1085.57,-427.376C1091.2,-416.422 1100.11,-399.09 1107.02,-385.634"/>
<polygon fill="midnightblue" stroke="midnightblue" points="1110.17,-387.162 1111.63,-376.667 1103.95,-383.962 1110.17,-387.162"/>
</g>
<!-- Node20&#45;&gt;Node16 -->
<g id="edge58" class="edge"><title>Node20&#45;&gt;Node16</title>
<path fill="none" stroke="midnightblue" d="M1093.82,-355.412C1070.13,-344.647 1033.24,-327.878 1006.67,-315.801"/>
<polygon fill="midnightblue" stroke="midnightblue" points="1007.95,-312.535 997.395,-311.584 1005.05,-318.908 1007.95,-312.535"/>
</g>
<!-- Node22&#45;&gt;Node2 -->
<g id="edge64" class="edge"><title>Node22&#45;&gt;Node2</title>
<path fill="none" stroke="midnightblue" d="M789.035,-687.676C665.624,-678.317 341.364,-648.278 256.112,-586 194.86,-541.255 171.112,-513.854 171.112,-438 171.112,-438 171.112,-438 171.112,-366 171.112,-319.164 201.445,-309.316 244.112,-290 289.026,-269.666 1006.02,-250.194 1229.28,-244.598"/>
<polygon fill="midnightblue" stroke="midnightblue" points="1229.62,-248.091 1239.53,-244.342 1229.45,-241.093 1229.62,-248.091"/>
</g>
<!-- Node23 -->
<g id="node56" class="node"><title>Node23</title>
<a xlink:href="MojDecimal_8h.htm" target="_top" xlink:title="core/MojDecimal.h">
<polygon fill="white" stroke="black" points="265.112,-557.5 265.112,-578.5 369.112,-578.5 369.112,-557.5 265.112,-557.5"/>
<text text-anchor="middle" x="317.112" y="-565.5" font-family="Helvetica,sans-Serif" font-size="10.00">core/MojDecimal.h</text>
</a>
</g>
<!-- Node22&#45;&gt;Node23 -->
<g id="edge66" class="edge"><title>Node22&#45;&gt;Node23</title>
<path fill="none" stroke="midnightblue" d="M788.965,-681.015C705.111,-663.396 526.987,-624.953 378.112,-586 372.704,-584.585 367.049,-583.026 361.457,-581.435"/>
<polygon fill="midnightblue" stroke="midnightblue" points="362.104,-577.978 351.526,-578.56 360.158,-584.702 362.104,-577.978"/>
</g>
<!-- Node24 -->
<g id="node60" class="node"><title>Node24</title>
<a xlink:href="MojMap_8h.htm" target="_top" xlink:title="core/MojMap.h">
<polygon fill="white" stroke="black" points="594.612,-557.5 594.612,-578.5 681.612,-578.5 681.612,-557.5 594.612,-557.5"/>
<text text-anchor="middle" x="638.112" y="-565.5" font-family="Helvetica,sans-Serif" font-size="10.00">core/MojMap.h</text>
</a>
</g>
<!-- Node22&#45;&gt;Node24 -->
<g id="edge72" class="edge"><title>Node22&#45;&gt;Node24</title>
<path fill="none" stroke="midnightblue" d="M819.8,-680.3C784.723,-658.619 705.104,-609.407 663.896,-583.937"/>
<polygon fill="midnightblue" stroke="midnightblue" points="665.588,-580.868 655.242,-578.588 661.908,-586.823 665.588,-580.868"/>
</g>
<!-- Node22&#45;&gt;Node26 -->
<g id="edge84" class="edge"><title>Node22&#45;&gt;Node26</title>
<path fill="none" stroke="midnightblue" d="M871.338,-680.497C902.417,-670.959 948.423,-656.841 982.202,-646.475"/>
<polygon fill="midnightblue" stroke="midnightblue" points="983.288,-649.803 991.821,-643.523 981.234,-643.111 983.288,-649.803"/>
</g>
<!-- Node27 -->
<g id="node74" class="node"><title>Node27</title>
<a xlink:href="MojVector_8h.htm" target="_top" xlink:title="core/MojVector.h">
<polygon fill="white" stroke="black" points="1090.61,-557.5 1090.61,-578.5 1187.61,-578.5 1187.61,-557.5 1090.61,-557.5"/>
<text text-anchor="middle" x="1139.11" y="-565.5" font-family="Helvetica,sans-Serif" font-size="10.00">core/MojVector.h</text>
</a>
</g>
<!-- Node22&#45;&gt;Node27 -->
<g id="edge116" class="edge"><title>Node22&#45;&gt;Node27</title>
<path fill="none" stroke="midnightblue" d="M885.256,-685.923C946.991,-678.711 1049.93,-664.108 1082.11,-644 1103.74,-630.486 1120.04,-605.564 1129.55,-587.95"/>
<polygon fill="midnightblue" stroke="midnightblue" points="1132.92,-589.06 1134.36,-578.564 1126.69,-585.869 1132.92,-589.06"/>
</g>
<!-- Node23&#45;&gt;Node2 -->
<g id="edge68" class="edge"><title>Node23&#45;&gt;Node2</title>
<path fill="none" stroke="midnightblue" d="M298.791,-557.343C267.978,-537.885 209.112,-493.456 209.112,-438 209.112,-438 209.112,-438 209.112,-366 209.112,-307.306 261.597,-309.053 317.112,-290 402.789,-260.595 1023.8,-247.573 1229.29,-244.038"/>
<polygon fill="midnightblue" stroke="midnightblue" points="1229.4,-247.537 1239.34,-243.867 1229.28,-240.538 1229.4,-247.537"/>
</g>
<!-- Node23&#45;&gt;Node18 -->
<g id="edge70" class="edge"><title>Node23&#45;&gt;Node18</title>
<path fill="none" stroke="midnightblue" d="M324.708,-557.267C331.473,-547.707 341.53,-533.496 349.655,-522.015"/>
<polygon fill="midnightblue" stroke="midnightblue" points="352.737,-523.718 355.657,-513.534 347.023,-519.675 352.737,-523.718"/>
</g>
<!-- Node24&#45;&gt;Node2 -->
<g id="edge74" class="edge"><title>Node24&#45;&gt;Node2</title>
<path fill="none" stroke="midnightblue" d="M604.392,-557.4C557.719,-540.378 479.112,-502.181 479.112,-438 479.112,-438 479.112,-438 479.112,-366 479.112,-291.661 556.486,-309.901 628.112,-290 739.933,-258.931 1083.98,-247.723 1229.27,-244.304"/>
<polygon fill="midnightblue" stroke="midnightblue" points="1229.47,-247.801 1239.39,-244.072 1229.31,-240.803 1229.47,-247.801"/>
</g>
<!-- Node24&#45;&gt;Node16 -->
<g id="edge76" class="edge"><title>Node24&#45;&gt;Node16</title>
<path fill="none" stroke="midnightblue" d="M611.094,-557.441C583.823,-546.168 544.561,-528.033 536.112,-514 531.068,-505.623 530.755,-500.18 536.112,-492 581.58,-422.57 823.54,-344.993 927.064,-314.418"/>
<polygon fill="midnightblue" stroke="midnightblue" points="928.323,-317.696 936.933,-311.522 926.352,-310.979 928.323,-317.696"/>
</g>
<!-- Node25 -->
<g id="node64" class="node"><title>Node25</title>
<a xlink:href="MojRbTreeBase_8h.htm" target="_top" xlink:title="core/internal/MojRbTreeBase.h">
<polygon fill="white" stroke="black" points="545.112,-492.5 545.112,-513.5 709.112,-513.5 709.112,-492.5 545.112,-492.5"/>
<text text-anchor="middle" x="627.112" y="-500.5" font-family="Helvetica,sans-Serif" font-size="10.00">core/internal/MojRbTreeBase.h</text>
</a>
</g>
<!-- Node24&#45;&gt;Node25 -->
<g id="edge78" class="edge"><title>Node24&#45;&gt;Node25</title>
<path fill="none" stroke="midnightblue" d="M636.295,-557.267C634.758,-548.18 632.509,-534.892 630.621,-523.74"/>
<polygon fill="midnightblue" stroke="midnightblue" points="634.014,-522.809 628.894,-513.534 627.112,-523.978 634.014,-522.809"/>
</g>
<!-- Node25&#45;&gt;Node2 -->
<g id="edge80" class="edge"><title>Node25&#45;&gt;Node2</title>
<path fill="none" stroke="midnightblue" d="M623.964,-492.172C614.5,-457.088 590.315,-345.604 647.112,-290 667.704,-269.84 1068.47,-251.912 1229.23,-245.503"/>
<polygon fill="midnightblue" stroke="midnightblue" points="1229.61,-248.99 1239.46,-245.097 1229.33,-241.996 1229.61,-248.99"/>
</g>
<!-- Node25&#45;&gt;Node12 -->
<g id="edge82" class="edge"><title>Node25&#45;&gt;Node12</title>
<path fill="none" stroke="midnightblue" d="M709.342,-497.447C873.533,-486.316 1231.09,-461.837 1287.11,-456 1310.18,-453.596 1335.44,-450.287 1357.57,-447.16"/>
<polygon fill="midnightblue" stroke="midnightblue" points="1358.1,-450.621 1367.5,-445.741 1357.11,-443.691 1358.1,-450.621"/>
</g>
<!-- Node26&#45;&gt;Node2 -->
<g id="edge86" class="edge"><title>Node26&#45;&gt;Node2</title>
<path fill="none" stroke="midnightblue" d="M1027.44,-622.267C1029.9,-605.658 1036.31,-573.224 1051.11,-550 1071.92,-517.349 1081.56,-509.466 1116.11,-492 1185.43,-456.963 1237.05,-515.381 1287.11,-456 1311.18,-427.449 1302.27,-311.533 1297.42,-263.747"/>
<polygon fill="midnightblue" stroke="midnightblue" points="1300.89,-263.224 1296.35,-253.648 1293.93,-263.961 1300.89,-263.224"/>
</g>
<!-- Node26&#45;&gt;Node12 -->
<g id="edge88" class="edge"><title>Node26&#45;&gt;Node12</title>
<path fill="none" stroke="midnightblue" d="M1031.85,-622.247C1041.05,-605.61 1060.28,-573.14 1082.11,-550 1111.27,-519.091 1119.46,-509.648 1158.11,-492 1176.05,-483.81 1286.14,-462.449 1357.19,-449.179"/>
<polygon fill="midnightblue" stroke="midnightblue" points="1358.19,-452.554 1367.38,-447.282 1356.91,-445.672 1358.19,-452.554"/>
</g>
<!-- Node26&#45;&gt;Node16 -->
<g id="edge90" class="edge"><title>Node26&#45;&gt;Node16</title>
<path fill="none" stroke="midnightblue" d="M1022.1,-622.324C1018.7,-612.895 1013.94,-598.708 1011.11,-586 989.43,-488.591 979.042,-369.425 975.536,-321.957"/>
<polygon fill="midnightblue" stroke="midnightblue" points="979.009,-321.456 974.806,-311.731 972.027,-321.954 979.009,-321.456"/>
</g>
<!-- Node26&#45;&gt;Node18 -->
<g id="edge92" class="edge"><title>Node26&#45;&gt;Node18</title>
<path fill="none" stroke="midnightblue" d="M978.849,-631.751C880.044,-628.53 655.08,-617.831 586.112,-586 564.988,-576.251 568.488,-561.227 548.112,-550 509.776,-528.878 461.751,-517.04 424.241,-510.529"/>
<polygon fill="midnightblue" stroke="midnightblue" points="424.393,-507.007 413.957,-508.831 423.253,-513.913 424.393,-507.007"/>
</g>
<!-- Node26&#45;&gt;Node27 -->
<g id="edge94" class="edge"><title>Node26&#45;&gt;Node27</title>
<path fill="none" stroke="midnightblue" d="M1044.52,-622.412C1062.82,-611.883 1091.11,-595.611 1111.99,-583.602"/>
<polygon fill="midnightblue" stroke="midnightblue" points="1113.79,-586.604 1120.71,-578.584 1110.3,-580.536 1113.79,-586.604"/>
</g>
<!-- Node27&#45;&gt;Node2 -->
<g id="edge96" class="edge"><title>Node27&#45;&gt;Node2</title>
<path fill="none" stroke="midnightblue" d="M1187.62,-566.526C1317.4,-562.146 1665.32,-547.381 1704.11,-514 1730.5,-491.29 1723.11,-472.817 1723.11,-438 1723.11,-438 1723.11,-438 1723.11,-366 1723.11,-291.534 1480.77,-259.49 1360.8,-248.19"/>
<polygon fill="midnightblue" stroke="midnightblue" points="1360.91,-244.685 1350.63,-247.254 1360.26,-251.656 1360.91,-244.685"/>
</g>
<!-- Node27&#45;&gt;Node16 -->
<g id="edge98" class="edge"><title>Node27&#45;&gt;Node16</title>
<path fill="none" stroke="midnightblue" d="M1125.65,-557.305C1103.2,-538.835 1057.93,-498.802 1031.11,-456 1016.56,-432.782 991.964,-357.832 980.434,-321.34"/>
<polygon fill="midnightblue" stroke="midnightblue" points="983.756,-320.238 977.423,-311.744 977.077,-322.333 983.756,-320.238"/>
</g>
<!-- Node27&#45;&gt;Node19 -->
<g id="edge112" class="edge"><title>Node27&#45;&gt;Node19</title>
<path fill="none" stroke="midnightblue" d="M1136.71,-557.338C1133.11,-542.319 1125.61,-514.278 1115.11,-492 1109.35,-479.775 1101.22,-467.046 1094.24,-457.019"/>
<polygon fill="midnightblue" stroke="midnightblue" points="1096.93,-454.758 1088.26,-448.662 1091.24,-458.831 1096.93,-454.758"/>
</g>
<!-- Node28 -->
<g id="node78" class="node"><title>Node28</title>
<a xlink:href="MojRefCount_8h.htm" target="_top" xlink:title="core/MojRefCount.h">
<polygon fill="white" stroke="black" points="1355.11,-492.5 1355.11,-513.5 1465.11,-513.5 1465.11,-492.5 1355.11,-492.5"/>
<text text-anchor="middle" x="1410.11" y="-500.5" font-family="Helvetica,sans-Serif" font-size="10.00">core/MojRefCount.h</text>
</a>
</g>
<!-- Node27&#45;&gt;Node28 -->
<g id="edge100" class="edge"><title>Node27&#45;&gt;Node28</title>
<path fill="none" stroke="midnightblue" d="M1182.95,-557.484C1230.28,-546.133 1305.7,-528.044 1356.51,-515.856"/>
<polygon fill="midnightblue" stroke="midnightblue" points="1357.42,-519.236 1366.33,-513.501 1355.79,-512.429 1357.42,-519.236"/>
</g>
<!-- Node30 -->
<g id="node87" class="node"><title>Node30</title>
<a xlink:href="MojVectorInternal_8h.htm" target="_top" xlink:title="core/internal/MojVectorInternal.h">
<polygon fill="white" stroke="black" points="1166.61,-492.5 1166.61,-513.5 1337.61,-513.5 1337.61,-492.5 1166.61,-492.5"/>
<text text-anchor="middle" x="1252.11" y="-500.5" font-family="Helvetica,sans-Serif" font-size="10.00">core/internal/MojVectorInternal.h</text>
</a>
</g>
<!-- Node27&#45;&gt;Node30 -->
<g id="edge114" class="edge"><title>Node27&#45;&gt;Node30</title>
<path fill="none" stroke="midnightblue" d="M1157.52,-557.412C1175.82,-546.883 1204.11,-530.611 1224.99,-518.602"/>
<polygon fill="midnightblue" stroke="midnightblue" points="1226.79,-521.604 1233.71,-513.584 1223.3,-515.536 1226.79,-521.604"/>
</g>
<!-- Node28&#45;&gt;Node2 -->
<g id="edge102" class="edge"><title>Node28&#45;&gt;Node2</title>
<path fill="none" stroke="midnightblue" d="M1465.35,-492.877C1557.14,-473.605 1725.42,-426.425 1666.11,-348 1629.36,-299.399 1457.25,-266.821 1360.89,-252.055"/>
<polygon fill="midnightblue" stroke="midnightblue" points="1361.36,-248.587 1350.95,-250.555 1360.32,-255.509 1361.36,-248.587"/>
</g>
<!-- Node28&#45;&gt;Node12 -->
<g id="edge106" class="edge"><title>Node28&#45;&gt;Node12</title>
<path fill="none" stroke="midnightblue" d="M1411.43,-492.267C1412.55,-483.18 1414.19,-469.892 1415.56,-458.74"/>
<polygon fill="midnightblue" stroke="midnightblue" points="1419.07,-458.886 1416.82,-448.534 1412.12,-458.031 1419.07,-458.886"/>
</g>
<!-- Node28&#45;&gt;Node13 -->
<g id="edge104" class="edge"><title>Node28&#45;&gt;Node13</title>
<path fill="none" stroke="midnightblue" d="M1425.32,-492.413C1438.92,-482.922 1459.39,-468.594 1477.11,-456 1512.99,-430.502 1554.4,-400.588 1579.41,-382.476"/>
<polygon fill="midnightblue" stroke="midnightblue" points="1581.49,-385.291 1587.53,-376.589 1577.38,-379.624 1581.49,-385.291"/>
</g>
<!-- Node29 -->
<g id="node83" class="node"><title>Node29</title>
<a xlink:href="MojRefCountInternal_8h.htm" target="_top" xlink:title="core/internal/MojRefCount\lInternal.h">
<polygon fill="white" stroke="black" points="1138.11,-421 1138.11,-455 1278.11,-455 1278.11,-421 1138.11,-421"/>
<text text-anchor="start" x="1146.11" y="-442" font-family="Helvetica,sans-Serif" font-size="10.00">core/internal/MojRefCount</text>
<text text-anchor="middle" x="1208.11" y="-429" font-family="Helvetica,sans-Serif" font-size="10.00">Internal.h</text>
</a>
</g>
<!-- Node28&#45;&gt;Node29 -->
<g id="edge108" class="edge"><title>Node28&#45;&gt;Node29</title>
<path fill="none" stroke="midnightblue" d="M1377.21,-492.412C1348.49,-483.172 1306.03,-469.509 1270.84,-458.186"/>
<polygon fill="midnightblue" stroke="midnightblue" points="1271.72,-454.792 1261.13,-455.06 1269.58,-461.455 1271.72,-454.792"/>
</g>
<!-- Node29&#45;&gt;Node20 -->
<g id="edge110" class="edge"><title>Node29&#45;&gt;Node20</title>
<path fill="none" stroke="midnightblue" d="M1186.55,-420.937C1172.05,-409.465 1153.02,-394.408 1138.54,-382.958"/>
<polygon fill="midnightblue" stroke="midnightblue" points="1140.63,-380.148 1130.62,-376.688 1136.29,-385.638 1140.63,-380.148"/>
</g>
<!-- Node31&#45;&gt;Node2 -->
<g id="edge120" class="edge"><title>Node31&#45;&gt;Node2</title>
<path fill="none" stroke="midnightblue" d="M1097.13,-745.197C1253.44,-732.71 1714.55,-687.792 1818.11,-586 1845.1,-559.472 1837.11,-540.843 1837.11,-503 1837.11,-503 1837.11,-503 1837.11,-366 1837.11,-310.53 1789.62,-310.586 1738.11,-290 1671.3,-263.299 1467.61,-250.584 1361.29,-245.629"/>
<polygon fill="midnightblue" stroke="midnightblue" points="1361.15,-242.119 1351,-245.159 1360.83,-249.112 1361.15,-242.119"/>
</g>
<!-- Node31&#45;&gt;Node22 -->
<g id="edge124" class="edge"><title>Node31&#45;&gt;Node22</title>
<path fill="none" stroke="midnightblue" d="M1007.44,-738.497C973.094,-728.918 922.175,-714.72 884.958,-704.342"/>
<polygon fill="midnightblue" stroke="midnightblue" points="885.422,-700.838 874.85,-701.523 883.542,-707.581 885.422,-700.838"/>
</g>
<!-- Node31&#45;&gt;Node24 -->
<g id="edge122" class="edge"><title>Node31&#45;&gt;Node24</title>
<path fill="none" stroke="midnightblue" d="M1022.4,-738.481C992.893,-724.851 939.762,-700.415 894.112,-680 814.606,-644.446 720.71,-603.676 671.709,-582.493"/>
<polygon fill="midnightblue" stroke="midnightblue" points="673.093,-579.278 662.525,-578.524 670.316,-585.704 673.093,-579.278"/>
</g>
<!-- Node31&#45;&gt;Node27 -->
<g id="edge136" class="edge"><title>Node31&#45;&gt;Node27</title>
<path fill="none" stroke="midnightblue" d="M1052.3,-738.276C1064.64,-719.616 1090.23,-679.743 1108.11,-644 1117.33,-625.569 1126.03,-603.707 1131.85,-588.173"/>
<polygon fill="midnightblue" stroke="midnightblue" points="1135.22,-589.143 1135.39,-578.549 1128.65,-586.725 1135.22,-589.143"/>
</g>
<!-- Node32 -->
<g id="node95" class="node"><title>Node32</title>
<a xlink:href="MojSet_8h.htm" target="_top" xlink:title="core/MojSet.h">
<polygon fill="white" stroke="black" points="734.112,-557.5 734.112,-578.5 816.112,-578.5 816.112,-557.5 734.112,-557.5"/>
<text text-anchor="middle" x="775.112" y="-565.5" font-family="Helvetica,sans-Serif" font-size="10.00">core/MojSet.h</text>
</a>
</g>
<!-- Node31&#45;&gt;Node32 -->
<g id="edge126" class="edge"><title>Node31&#45;&gt;Node32</title>
<path fill="none" stroke="midnightblue" d="M1037.86,-738.175C1021.14,-713.985 977.404,-655.075 927.112,-622 896.286,-601.728 856.933,-588.019 825.993,-579.488"/>
<polygon fill="midnightblue" stroke="midnightblue" points="826.828,-576.089 816.264,-576.898 825.027,-582.853 826.828,-576.089"/>
</g>
<!-- Node32&#45;&gt;Node2 -->
<g id="edge128" class="edge"><title>Node32&#45;&gt;Node2</title>
<path fill="none" stroke="midnightblue" d="M774.793,-557.483C774.6,-542.638 775.186,-514.802 781.112,-492 808.398,-387.01 823.44,-342.961 918.112,-290 969.989,-260.979 1135.7,-249.525 1229.24,-245.287"/>
<polygon fill="midnightblue" stroke="midnightblue" points="1229.6,-248.775 1239.44,-244.841 1229.3,-241.782 1229.6,-248.775"/>
</g>
<!-- Node32&#45;&gt;Node16 -->
<g id="edge130" class="edge"><title>Node32&#45;&gt;Node16</title>
<path fill="none" stroke="midnightblue" d="M776.064,-557.307C777.797,-542.007 782.432,-513.36 794.112,-492 835.468,-416.364 914.007,-348.205 952.183,-317.781"/>
<polygon fill="midnightblue" stroke="midnightblue" points="954.423,-320.473 960.118,-311.539 950.095,-314.971 954.423,-320.473"/>
</g>
<!-- Node32&#45;&gt;Node25 -->
<g id="edge132" class="edge"><title>Node32&#45;&gt;Node25</title>
<path fill="none" stroke="midnightblue" d="M751.004,-557.412C726.385,-546.6 687.976,-529.731 660.451,-517.642"/>
<polygon fill="midnightblue" stroke="midnightblue" points="661.773,-514.4 651.21,-513.584 658.958,-520.809 661.773,-514.4"/>
</g>
<!-- Node33 -->
<g id="node100" class="node"><title>Node33</title>
<a xlink:href="MojSetInternal_8h.htm" target="_top" xlink:title="core/internal/MojSetInternal.h">
<polygon fill="white" stroke="black" points="803.112,-492.5 803.112,-513.5 959.112,-513.5 959.112,-492.5 803.112,-492.5"/>
<text text-anchor="middle" x="881.112" y="-500.5" font-family="Helvetica,sans-Serif" font-size="10.00">core/internal/MojSetInternal.h</text>
</a>
</g>
<!-- Node32&#45;&gt;Node33 -->
<g id="edge134" class="edge"><title>Node32&#45;&gt;Node33</title>
<path fill="none" stroke="midnightblue" d="M792.615,-557.267C809.672,-546.807 835.806,-530.782 855.257,-518.854"/>
<polygon fill="midnightblue" stroke="midnightblue" points="857.238,-521.745 863.934,-513.534 853.579,-515.778 857.238,-521.745"/>
</g>
<!-- Node34&#45;&gt;Node2 -->
<g id="edge140" class="edge"><title>Node34&#45;&gt;Node2</title>
<path fill="none" stroke="midnightblue" d="M1944.81,-622.168C1934.58,-600.235 1913.11,-548.758 1913.11,-503 1913.11,-503 1913.11,-503 1913.11,-366 1913.11,-330.578 1916.83,-312.05 1889.11,-290 1848.52,-257.711 1506.94,-247.168 1360.91,-244.115"/>
<polygon fill="midnightblue" stroke="midnightblue" points="1360.8,-240.612 1350.74,-243.908 1360.66,-247.611 1360.8,-240.612"/>
</g>
<!-- Node34&#45;&gt;Node27 -->
<g id="edge158" class="edge"><title>Node34&#45;&gt;Node27</title>
<path fill="none" stroke="midnightblue" d="M1902.41,-629.177C1762.18,-617.937 1351.51,-585.023 1197.95,-572.716"/>
<polygon fill="midnightblue" stroke="midnightblue" points="1198.03,-569.211 1187.78,-571.901 1197.47,-576.188 1198.03,-569.211"/>
</g>
<!-- Node35 -->
<g id="node106" class="node"><title>Node35</title>
<a xlink:href="MojList_8h.htm" target="_top" xlink:title="core/MojList.h">
<polygon fill="white" stroke="black" points="1940.61,-557.5 1940.61,-578.5 2023.61,-578.5 2023.61,-557.5 1940.61,-557.5"/>
<text text-anchor="middle" x="1982.11" y="-565.5" font-family="Helvetica,sans-Serif" font-size="10.00">core/MojList.h</text>
</a>
</g>
<!-- Node34&#45;&gt;Node35 -->
<g id="edge142" class="edge"><title>Node34&#45;&gt;Node35</title>
<path fill="none" stroke="midnightblue" d="M1955.4,-622.267C1960.01,-612.896 1966.82,-599.057 1972.41,-587.7"/>
<polygon fill="midnightblue" stroke="midnightblue" points="1975.65,-589.051 1976.93,-578.534 1969.37,-585.96 1975.65,-589.051"/>
</g>
<!-- Node37 -->
<g id="node111" class="node"><title>Node37</title>
<a xlink:href="MojThread_8h.htm" target="_top" xlink:title="core/MojThread.h">
<polygon fill="white" stroke="black" points="1708.61,-557.5 1708.61,-578.5 1809.61,-578.5 1809.61,-557.5 1708.61,-557.5"/>
<text text-anchor="middle" x="1759.11" y="-565.5" font-family="Helvetica,sans-Serif" font-size="10.00">core/MojThread.h</text>
</a>
</g>
<!-- Node34&#45;&gt;Node37 -->
<g id="edge148" class="edge"><title>Node34&#45;&gt;Node37</title>
<path fill="none" stroke="midnightblue" d="M1919,-622.412C1886.53,-611.364 1835.49,-593.991 1799.83,-581.857"/>
<polygon fill="midnightblue" stroke="midnightblue" points="1800.81,-578.492 1790.21,-578.584 1798.55,-585.119 1800.81,-578.492"/>
</g>
<!-- Node39 -->
<g id="node119" class="node"><title>Node39</title>
<a xlink:href="MojSignalInternal_8h.htm" target="_top" xlink:title="core/internal/MojSignalInternal.h">
<polygon fill="white" stroke="black" points="2041.11,-557.5 2041.11,-578.5 2211.11,-578.5 2211.11,-557.5 2041.11,-557.5"/>
<text text-anchor="middle" x="2126.11" y="-565.5" font-family="Helvetica,sans-Serif" font-size="10.00">core/internal/MojSignalInternal.h</text>
</a>
</g>
<!-- Node34&#45;&gt;Node39 -->
<g id="edge160" class="edge"><title>Node34&#45;&gt;Node39</title>
<path fill="none" stroke="midnightblue" d="M1978.78,-622.412C2008.44,-611.458 2054.93,-594.288 2087.74,-582.17"/>
<polygon fill="midnightblue" stroke="midnightblue" points="2089.29,-585.331 2097.45,-578.584 2086.86,-578.765 2089.29,-585.331"/>
</g>
<!-- Node35&#45;&gt;Node2 -->
<g id="edge144" class="edge"><title>Node35&#45;&gt;Node2</title>
<path fill="none" stroke="midnightblue" d="M1977.8,-557.418C1969.28,-535.521 1951.11,-483.476 1951.11,-438 1951.11,-438 1951.11,-438 1951.11,-366 1951.11,-330.578 1954.89,-311.985 1927.11,-290 1883.47,-255.455 1513.96,-246.156 1361,-243.776"/>
<polygon fill="midnightblue" stroke="midnightblue" points="1360.86,-240.273 1350.8,-243.623 1360.75,-247.273 1360.86,-240.273"/>
</g>
<!-- Node36 -->
<g id="node109" class="node"><title>Node36</title>
<a xlink:href="MojListInternal_8h.htm" target="_top" xlink:title="core/internal/MojListInternal.h">
<polygon fill="white" stroke="black" points="1978.61,-492.5 1978.61,-513.5 2135.61,-513.5 2135.61,-492.5 1978.61,-492.5"/>
<text text-anchor="middle" x="2057.11" y="-500.5" font-family="Helvetica,sans-Serif" font-size="10.00">core/internal/MojListInternal.h</text>
</a>
</g>
<!-- Node35&#45;&gt;Node36 -->
<g id="edge146" class="edge"><title>Node35&#45;&gt;Node36</title>
<path fill="none" stroke="midnightblue" d="M1994.5,-557.267C2006.07,-547.233 2023.56,-532.078 2037.11,-520.331"/>
<polygon fill="midnightblue" stroke="midnightblue" points="2039.69,-522.728 2044.96,-513.534 2035.11,-517.438 2039.69,-522.728"/>
</g>
<!-- Node37&#45;&gt;Node2 -->
<g id="edge150" class="edge"><title>Node37&#45;&gt;Node2</title>
<path fill="none" stroke="midnightblue" d="M1764.84,-557.217C1775.9,-535.372 1799.11,-484.047 1799.11,-438 1799.11,-438 1799.11,-438 1799.11,-366 1799.11,-276.902 1498.09,-252.055 1361.32,-245.365"/>
<polygon fill="midnightblue" stroke="midnightblue" points="1361.13,-241.852 1350.97,-244.878 1360.8,-248.844 1361.13,-241.852"/>
</g>
<!-- Node37&#45;&gt;Node13 -->
<g id="edge152" class="edge"><title>Node37&#45;&gt;Node13</title>
<path fill="none" stroke="midnightblue" d="M1751.46,-557.041C1741,-542.147 1721.54,-514.759 1704.11,-492 1674.27,-453.022 1637.74,-408.662 1617.49,-384.352"/>
<polygon fill="midnightblue" stroke="midnightblue" points="1620.14,-382.064 1611.04,-376.631 1614.76,-386.55 1620.14,-382.064"/>
</g>
<!-- Node38 -->
<g id="node115" class="node"><title>Node38</title>
<a xlink:href="MojThreadInternal_8h.htm" target="_top" xlink:title="core/internal/MojThreadInternal.h">
<polygon fill="white" stroke="black" points="1520.61,-492.5 1520.61,-513.5 1695.61,-513.5 1695.61,-492.5 1520.61,-492.5"/>
<text text-anchor="middle" x="1608.11" y="-500.5" font-family="Helvetica,sans-Serif" font-size="10.00">core/internal/MojThreadInternal.h</text>
</a>
</g>
<!-- Node37&#45;&gt;Node38 -->
<g id="edge154" class="edge"><title>Node37&#45;&gt;Node38</title>
<path fill="none" stroke="midnightblue" d="M1734.51,-557.412C1709.4,-546.6 1670.21,-529.731 1642.13,-517.642"/>
<polygon fill="midnightblue" stroke="midnightblue" points="1643.27,-514.323 1632.7,-513.584 1640.5,-520.752 1643.27,-514.323"/>
</g>
<!-- Node38&#45;&gt;Node12 -->
<g id="edge156" class="edge"><title>Node38&#45;&gt;Node12</title>
<path fill="none" stroke="midnightblue" d="M1577.16,-492.412C1544.87,-481.364 1494.09,-463.991 1458.62,-451.857"/>
<polygon fill="midnightblue" stroke="midnightblue" points="1459.64,-448.509 1449.05,-448.584 1457.38,-455.132 1459.64,-448.509"/>
</g>
</g>
</svg>
