<?xml version="1.0" encoding="UTF-8" standalone="no"?>
<!DOCTYPE svg PUBLIC "-//W3C//DTD SVG 1.1//EN"
 "http://www.w3.org/Graphics/SVG/1.1/DTD/svg11.dtd">
<!-- Generated by graphviz version 2.26.3 (20100126.1600)
 -->
<!-- Title: MojTestRunner.cpp Pages: 1 -->
<svg width="1759pt" height="870pt"
 viewBox="0.00 0.00 1759.20 870.00" xmlns="http://www.w3.org/2000/svg" xmlns:xlink="http://www.w3.org/1999/xlink">
<g id="graph1" class="graph" transform="scale(1 1) rotate(0) translate(4 866)">
<title>MojTestRunner.cpp</title>
<polygon fill="white" stroke="white" points="-4,5 -4,-866 1756.2,-866 1756.2,5 -4,5"/>
<!-- Node1 -->
<g id="node1" class="node"><title>Node1</title>
<polygon fill="#bfbfbf" stroke="black" points="557.5,-840.5 557.5,-861.5 666.5,-861.5 666.5,-840.5 557.5,-840.5"/>
<text text-anchor="middle" x="612" y="-848.5" font-family="Helvetica,sans-Serif" font-size="10.00">MojTestRunner.cpp</text>
</g>
<!-- Node2 -->
<g id="node3" class="node"><title>Node2</title>
<a xlink:href="MojTestRunner_8h.htm" target="_top" xlink:title="core/MojTestRunner.h">
<polygon fill="white" stroke="black" points="551,-782.5 551,-803.5 673,-803.5 673,-782.5 551,-782.5"/>
<text text-anchor="middle" x="612" y="-790.5" font-family="Helvetica,sans-Serif" font-size="10.00">core/MojTestRunner.h</text>
</a>
</g>
<!-- Node1&#45;&gt;Node2 -->
<g id="edge2" class="edge"><title>Node1&#45;&gt;Node2</title>
<path fill="none" stroke="midnightblue" d="M612,-840.362C612,-832.922 612,-822.743 612,-813.728"/>
<polygon fill="midnightblue" stroke="midnightblue" points="615.5,-813.571 612,-803.571 608.5,-813.571 615.5,-813.571"/>
</g>
<!-- Node23 -->
<g id="node56" class="node"><title>Node23</title>
<a xlink:href="MojUtil_8h.htm" target="_top" xlink:title="core/MojUtil.h">
<polygon fill="white" stroke="black" points="208.5,-492.5 208.5,-513.5 289.5,-513.5 289.5,-492.5 208.5,-492.5"/>
<text text-anchor="middle" x="249" y="-500.5" font-family="Helvetica,sans-Serif" font-size="10.00">core/MojUtil.h</text>
</a>
</g>
<!-- Node1&#45;&gt;Node23 -->
<g id="edge150" class="edge"><title>Node1&#45;&gt;Node23</title>
<path fill="none" stroke="midnightblue" d="M557.158,-844.891C420.549,-828.937 76,-783.855 76,-735 76,-735 76,-735 76,-619 76,-559.503 147.46,-528.568 198.525,-514.058"/>
<polygon fill="midnightblue" stroke="midnightblue" points="199.703,-517.365 208.439,-511.371 197.872,-510.608 199.703,-517.365"/>
</g>
<!-- Node32 -->
<g id="node94" class="node"><title>Node32</title>
<a xlink:href="MojLogEngine_8h.htm" target="_top" xlink:title="core/MojLogEngine.h">
<polygon fill="white" stroke="black" points="1183.5,-666.5 1183.5,-687.5 1300.5,-687.5 1300.5,-666.5 1183.5,-666.5"/>
<text text-anchor="middle" x="1242" y="-674.5" font-family="Helvetica,sans-Serif" font-size="10.00">core/MojLogEngine.h</text>
</a>
</g>
<!-- Node1&#45;&gt;Node32 -->
<g id="edge124" class="edge"><title>Node1&#45;&gt;Node32</title>
<path fill="none" stroke="midnightblue" d="M666.613,-841.708C754.027,-826.149 930.255,-791.953 1075,-746 1123.44,-730.622 1177.45,-707.074 1210.58,-691.855"/>
<polygon fill="midnightblue" stroke="midnightblue" points="1212.16,-694.985 1219.76,-687.608 1209.21,-688.632 1212.16,-694.985"/>
</g>
<!-- Node3 -->
<g id="node5" class="node"><title>Node3</title>
<a xlink:href="MojCoreDefs_8h.htm" target="_top" xlink:title="core/MojCoreDefs.h">
<polygon fill="white" stroke="black" points="691.5,-232.5 691.5,-253.5 802.5,-253.5 802.5,-232.5 691.5,-232.5"/>
<text text-anchor="middle" x="747" y="-240.5" font-family="Helvetica,sans-Serif" font-size="10.00">core/MojCoreDefs.h</text>
</a>
</g>
<!-- Node2&#45;&gt;Node3 -->
<g id="edge4" class="edge"><title>Node2&#45;&gt;Node3</title>
<path fill="none" stroke="midnightblue" d="M550.8,-788.678C395.803,-776.059 0,-732.706 0,-619 0,-619 0,-619 0,-366 0,-320.078 28.6076,-309.887 70,-290 124.166,-263.976 521.984,-249.58 681.301,-244.807"/>
<polygon fill="midnightblue" stroke="midnightblue" points="681.552,-248.302 691.444,-244.507 681.345,-241.305 681.552,-248.302"/>
</g>
<!-- Node13 -->
<g id="node25" class="node"><title>Node13</title>
<a xlink:href="MojApp_8h.htm" target="_top" xlink:title="core/MojApp.h">
<polygon fill="white" stroke="black" points="569.5,-724.5 569.5,-745.5 654.5,-745.5 654.5,-724.5 569.5,-724.5"/>
<text text-anchor="middle" x="612" y="-732.5" font-family="Helvetica,sans-Serif" font-size="10.00">core/MojApp.h</text>
</a>
</g>
<!-- Node2&#45;&gt;Node13 -->
<g id="edge24" class="edge"><title>Node2&#45;&gt;Node13</title>
<path fill="none" stroke="midnightblue" d="M612,-782.362C612,-774.922 612,-764.743 612,-755.728"/>
<polygon fill="midnightblue" stroke="midnightblue" points="615.5,-755.571 612,-745.571 608.5,-755.571 615.5,-755.571"/>
</g>
<!-- Node30 -->
<g id="node87" class="node"><title>Node30</title>
<a xlink:href="MojThread_8h.htm" target="_top" xlink:title="core/MojThread.h">
<polygon fill="white" stroke="black" points="1191.5,-550.5 1191.5,-571.5 1292.5,-571.5 1292.5,-550.5 1191.5,-550.5"/>
<text text-anchor="middle" x="1242" y="-558.5" font-family="Helvetica,sans-Serif" font-size="10.00">core/MojThread.h</text>
</a>
</g>
<!-- Node2&#45;&gt;Node30 -->
<g id="edge114" class="edge"><title>Node2&#45;&gt;Node30</title>
<path fill="none" stroke="midnightblue" d="M640.707,-782.429C742.804,-744.831 1088.38,-617.572 1203.98,-575.003"/>
<polygon fill="midnightblue" stroke="midnightblue" points="1205.31,-578.241 1213.49,-571.501 1202.89,-571.672 1205.31,-578.241"/>
</g>
<!-- Node4 -->
<g id="node7" class="node"><title>Node4</title>
<a xlink:href="MojConfig_8h.htm" target="_top" xlink:title="core/internal/MojConfig.h">
<polygon fill="white" stroke="black" points="554.5,-174.5 554.5,-195.5 689.5,-195.5 689.5,-174.5 554.5,-174.5"/>
<text text-anchor="middle" x="622" y="-182.5" font-family="Helvetica,sans-Serif" font-size="10.00">core/internal/MojConfig.h</text>
</a>
</g>
<!-- Node3&#45;&gt;Node4 -->
<g id="edge6" class="edge"><title>Node3&#45;&gt;Node4</title>
<path fill="none" stroke="midnightblue" d="M724.363,-232.497C704.752,-223.397 676.154,-210.127 654.167,-199.925"/>
<polygon fill="midnightblue" stroke="midnightblue" points="655.435,-196.655 644.891,-195.621 652.488,-203.005 655.435,-196.655"/>
</g>
<!-- Node5 -->
<g id="node9" class="node"><title>Node5</title>
<a xlink:href="MojNew_8h.htm" target="_top" xlink:title="core/internal/MojNew.h">
<polygon fill="white" stroke="black" points="804.5,-174.5 804.5,-195.5 929.5,-195.5 929.5,-174.5 804.5,-174.5"/>
<text text-anchor="middle" x="867" y="-182.5" font-family="Helvetica,sans-Serif" font-size="10.00">core/internal/MojNew.h</text>
</a>
</g>
<!-- Node3&#45;&gt;Node5 -->
<g id="edge8" class="edge"><title>Node3&#45;&gt;Node5</title>
<path fill="none" stroke="midnightblue" d="M768.731,-232.497C787.474,-223.438 814.767,-210.246 835.836,-200.063"/>
<polygon fill="midnightblue" stroke="midnightblue" points="837.545,-203.124 845.025,-195.621 834.498,-196.822 837.545,-203.124"/>
</g>
<!-- Node7 -->
<g id="node13" class="node"><title>Node7</title>
<a xlink:href="MojErr_8h.htm" target="_top" xlink:title="core/MojErr.h">
<polygon fill="white" stroke="black" points="1269,-174.5 1269,-195.5 1349,-195.5 1349,-174.5 1269,-174.5"/>
<text text-anchor="middle" x="1309" y="-182.5" font-family="Helvetica,sans-Serif" font-size="10.00">core/MojErr.h</text>
</a>
</g>
<!-- Node3&#45;&gt;Node7 -->
<g id="edge12" class="edge"><title>Node3&#45;&gt;Node7</title>
<path fill="none" stroke="midnightblue" d="M802.683,-237.253C912.168,-225.954 1153.91,-201.006 1258.8,-190.18"/>
<polygon fill="midnightblue" stroke="midnightblue" points="1259.23,-193.655 1268.82,-189.147 1258.51,-186.692 1259.23,-193.655"/>
</g>
<!-- Node11 -->
<g id="node21" class="node"><title>Node11</title>
<a xlink:href="MojOs_8h.htm" target="_top" xlink:title="core/MojOs.h">
<polygon fill="white" stroke="black" points="707,-174.5 707,-195.5 787,-195.5 787,-174.5 707,-174.5"/>
<text text-anchor="middle" x="747" y="-182.5" font-family="Helvetica,sans-Serif" font-size="10.00">core/MojOs.h</text>
</a>
</g>
<!-- Node3&#45;&gt;Node11 -->
<g id="edge20" class="edge"><title>Node3&#45;&gt;Node11</title>
<path fill="none" stroke="midnightblue" d="M747,-232.362C747,-224.922 747,-214.743 747,-205.728"/>
<polygon fill="midnightblue" stroke="midnightblue" points="750.5,-205.571 747,-195.571 743.5,-205.571 750.5,-205.571"/>
</g>
<!-- Node6 -->
<g id="node11" class="node"><title>Node6</title>
<polygon fill="white" stroke="#bfbfbf" points="849,-116.5 849,-137.5 885,-137.5 885,-116.5 849,-116.5"/>
<text text-anchor="middle" x="867" y="-124.5" font-family="Helvetica,sans-Serif" font-size="10.00">new</text>
</g>
<!-- Node5&#45;&gt;Node6 -->
<g id="edge10" class="edge"><title>Node5&#45;&gt;Node6</title>
<path fill="none" stroke="midnightblue" d="M867,-174.362C867,-166.922 867,-156.743 867,-147.728"/>
<polygon fill="midnightblue" stroke="midnightblue" points="870.5,-147.571 867,-137.571 863.5,-147.571 870.5,-147.571"/>
</g>
<!-- Node8 -->
<g id="node15" class="node"><title>Node8</title>
<a xlink:href="MojLog_8h.htm" target="_top" xlink:title="core/MojLog.h">
<polygon fill="white" stroke="black" points="1328,-116.5 1328,-137.5 1412,-137.5 1412,-116.5 1328,-116.5"/>
<text text-anchor="middle" x="1370" y="-124.5" font-family="Helvetica,sans-Serif" font-size="10.00">core/MojLog.h</text>
</a>
</g>
<!-- Node7&#45;&gt;Node8 -->
<g id="edge14" class="edge"><title>Node7&#45;&gt;Node8</title>
<path fill="none" stroke="midnightblue" d="M1320.19,-174.362C1328.96,-166.023 1341.35,-154.242 1351.58,-144.516"/>
<polygon fill="midnightblue" stroke="midnightblue" points="1354.05,-146.998 1358.88,-137.571 1349.22,-141.925 1354.05,-146.998"/>
</g>
<!-- Node9 -->
<g id="node17" class="node"><title>Node9</title>
<a xlink:href="MojListEntry_8h.htm" target="_top" xlink:title="core/MojListEntry.h">
<polygon fill="white" stroke="black" points="1477.5,-58.5 1477.5,-79.5 1584.5,-79.5 1584.5,-58.5 1477.5,-58.5"/>
<text text-anchor="middle" x="1531" y="-66.5" font-family="Helvetica,sans-Serif" font-size="10.00">core/MojListEntry.h</text>
</a>
</g>
<!-- Node8&#45;&gt;Node9 -->
<g id="edge16" class="edge"><title>Node8&#45;&gt;Node9</title>
<path fill="none" stroke="midnightblue" d="M1399.16,-116.497C1425.18,-107.123 1463.48,-93.3242 1492.1,-83.0122"/>
<polygon fill="midnightblue" stroke="midnightblue" points="1493.57,-86.2052 1501.79,-79.5231 1491.2,-79.6195 1493.57,-86.2052"/>
</g>
<!-- Node10 -->
<g id="node19" class="node"><title>Node10</title>
<a xlink:href="MojNoCopy_8h.htm" target="_top" xlink:title="core/MojNoCopy.h">
<polygon fill="white" stroke="black" points="1600,-0.5 1600,-21.5 1704,-21.5 1704,-0.5 1600,-0.5"/>
<text text-anchor="middle" x="1652" y="-8.5" font-family="Helvetica,sans-Serif" font-size="10.00">core/MojNoCopy.h</text>
</a>
</g>
<!-- Node9&#45;&gt;Node10 -->
<g id="edge18" class="edge"><title>Node9&#45;&gt;Node10</title>
<path fill="none" stroke="midnightblue" d="M1552.91,-58.4966C1571.81,-49.4378 1599.33,-36.2462 1620.58,-26.0628"/>
<polygon fill="midnightblue" stroke="midnightblue" points="1622.34,-29.0999 1629.84,-21.6212 1619.31,-22.7876 1622.34,-29.0999"/>
</g>
<!-- Node12 -->
<g id="node23" class="node"><title>Node12</title>
<a xlink:href="MojOsInternal_8h.htm" target="_top" xlink:title="core/internal/MojOsInternal.h">
<polygon fill="white" stroke="black" points="670,-116.5 670,-137.5 824,-137.5 824,-116.5 670,-116.5"/>
<text text-anchor="middle" x="747" y="-124.5" font-family="Helvetica,sans-Serif" font-size="10.00">core/internal/MojOsInternal.h</text>
</a>
</g>
<!-- Node11&#45;&gt;Node12 -->
<g id="edge22" class="edge"><title>Node11&#45;&gt;Node12</title>
<path fill="none" stroke="midnightblue" d="M747,-174.362C747,-166.922 747,-156.743 747,-147.728"/>
<polygon fill="midnightblue" stroke="midnightblue" points="750.5,-147.571 747,-137.571 743.5,-147.571 750.5,-147.571"/>
</g>
<!-- Node13&#45;&gt;Node3 -->
<g id="edge26" class="edge"><title>Node13&#45;&gt;Node3</title>
<path fill="none" stroke="midnightblue" d="M569.326,-730.91C436.3,-717.595 38,-673.201 38,-619 38,-619 38,-619 38,-366 38,-313.646 79.548,-309.833 128,-290 178.163,-269.467 531.735,-252.181 680.885,-245.719"/>
<polygon fill="midnightblue" stroke="midnightblue" points="681.423,-249.199 691.263,-245.272 681.122,-242.205 681.423,-249.199"/>
</g>
<!-- Node14 -->
<g id="node28" class="node"><title>Node14</title>
<a xlink:href="MojAutoPtr_8h.htm" target="_top" xlink:title="core/MojAutoPtr.h">
<polygon fill="white" stroke="black" points="862.5,-427.5 862.5,-448.5 963.5,-448.5 963.5,-427.5 862.5,-427.5"/>
<text text-anchor="middle" x="913" y="-435.5" font-family="Helvetica,sans-Serif" font-size="10.00">core/MojAutoPtr.h</text>
</a>
</g>
<!-- Node13&#45;&gt;Node14 -->
<g id="edge28" class="edge"><title>Node13&#45;&gt;Node14</title>
<path fill="none" stroke="midnightblue" d="M654.699,-730.597C716.354,-721.615 823,-695.081 823,-619 823,-619 823,-619 823,-561 823,-515.874 862.942,-476.285 889.609,-454.883"/>
<polygon fill="midnightblue" stroke="midnightblue" points="891.971,-457.48 897.733,-448.589 887.684,-451.946 891.971,-457.48"/>
</g>
<!-- Node17 -->
<g id="node37" class="node"><title>Node17</title>
<a xlink:href="MojMap_8h.htm" target="_top" xlink:title="core/MojMap.h">
<polygon fill="white" stroke="black" points="898.5,-608.5 898.5,-629.5 985.5,-629.5 985.5,-608.5 898.5,-608.5"/>
<text text-anchor="middle" x="942" y="-616.5" font-family="Helvetica,sans-Serif" font-size="10.00">core/MojMap.h</text>
</a>
</g>
<!-- Node13&#45;&gt;Node17 -->
<g id="edge40" class="edge"><title>Node13&#45;&gt;Node17</title>
<path fill="none" stroke="midnightblue" d="M654.873,-730.879C701.219,-725.331 776.56,-713.103 837,-688 868.728,-674.822 901.159,-651.742 921.419,-635.932"/>
<polygon fill="midnightblue" stroke="midnightblue" points="923.67,-638.614 929.32,-629.651 919.314,-633.135 923.67,-638.614"/>
</g>
<!-- Node20 -->
<g id="node47" class="node"><title>Node20</title>
<a xlink:href="MojObject_8h.htm" target="_top" xlink:title="core/MojObject.h">
<polygon fill="white" stroke="black" points="447,-666.5 447,-687.5 543,-687.5 543,-666.5 447,-666.5"/>
<text text-anchor="middle" x="495" y="-674.5" font-family="Helvetica,sans-Serif" font-size="10.00">core/MojObject.h</text>
</a>
</g>
<!-- Node13&#45;&gt;Node20 -->
<g id="edge54" class="edge"><title>Node13&#45;&gt;Node20</title>
<path fill="none" stroke="midnightblue" d="M590.812,-724.497C572.538,-715.438 545.928,-702.246 525.385,-692.063"/>
<polygon fill="midnightblue" stroke="midnightblue" points="526.94,-688.927 516.426,-687.621 523.831,-695.199 526.94,-688.927"/>
</g>
<!-- Node25 -->
<g id="node63" class="node"><title>Node25</title>
<a xlink:href="MojString_8h.htm" target="_top" xlink:title="core/MojString.h">
<polygon fill="white" stroke="black" points="514,-608.5 514,-629.5 608,-629.5 608,-608.5 514,-608.5"/>
<text text-anchor="middle" x="561" y="-616.5" font-family="Helvetica,sans-Serif" font-size="10.00">core/MojString.h</text>
</a>
</g>
<!-- Node13&#45;&gt;Node25 -->
<g id="edge110" class="edge"><title>Node13&#45;&gt;Node25</title>
<path fill="none" stroke="midnightblue" d="M607.293,-724.295C598.754,-704.872 580.589,-663.556 569.725,-638.846"/>
<polygon fill="midnightblue" stroke="midnightblue" points="572.924,-637.425 565.695,-629.679 566.516,-640.242 572.924,-637.425"/>
</g>
<!-- Node26 -->
<g id="node69" class="node"><title>Node26</title>
<a xlink:href="MojVector_8h.htm" target="_top" xlink:title="core/MojVector.h">
<polygon fill="white" stroke="black" points="475.5,-550.5 475.5,-571.5 572.5,-571.5 572.5,-550.5 475.5,-550.5"/>
<text text-anchor="middle" x="524" y="-558.5" font-family="Helvetica,sans-Serif" font-size="10.00">core/MojVector.h</text>
</a>
</g>
<!-- Node13&#45;&gt;Node26 -->
<g id="edge112" class="edge"><title>Node13&#45;&gt;Node26</title>
<path fill="none" stroke="midnightblue" d="M616.055,-724.478C624.223,-701.397 640.005,-645.402 617,-608 607.73,-592.929 591.969,-582.514 576.03,-575.396"/>
<polygon fill="midnightblue" stroke="midnightblue" points="577.253,-572.115 566.672,-571.576 574.607,-578.596 577.253,-572.115"/>
</g>
<!-- Node14&#45;&gt;Node3 -->
<g id="edge30" class="edge"><title>Node14&#45;&gt;Node3</title>
<path fill="none" stroke="midnightblue" d="M912.988,-427.469C912.51,-409.772 909.531,-373.506 894,-348 867.76,-304.906 816.447,-274.508 781.937,-257.868"/>
<polygon fill="midnightblue" stroke="midnightblue" points="783.225,-254.607 772.684,-253.541 780.259,-260.948 783.225,-254.607"/>
</g>
<!-- Node14&#45;&gt;Node10 -->
<g id="edge36" class="edge"><title>Node14&#45;&gt;Node10</title>
<path fill="none" stroke="midnightblue" d="M963.65,-434.711C1139.51,-422.625 1713,-377.356 1713,-301 1713,-301 1713,-301 1713,-127 1713,-88.8343 1686.81,-50.8827 1668.75,-29.2493"/>
<polygon fill="midnightblue" stroke="midnightblue" points="1671.27,-26.8024 1662.07,-21.5345 1665.97,-31.3851 1671.27,-26.8024"/>
</g>
<!-- Node15 -->
<g id="node31" class="node"><title>Node15</title>
<a xlink:href="MojAtomicInt_8h.htm" target="_top" xlink:title="core/MojAtomicInt.h">
<polygon fill="white" stroke="black" points="775,-355.5 775,-376.5 885,-376.5 885,-355.5 775,-355.5"/>
<text text-anchor="middle" x="830" y="-363.5" font-family="Helvetica,sans-Serif" font-size="10.00">core/MojAtomicInt.h</text>
</a>
</g>
<!-- Node14&#45;&gt;Node15 -->
<g id="edge32" class="edge"><title>Node14&#45;&gt;Node15</title>
<path fill="none" stroke="midnightblue" d="M900.753,-427.376C887.39,-415.784 865.793,-397.05 849.971,-383.324"/>
<polygon fill="midnightblue" stroke="midnightblue" points="852.145,-380.576 842.297,-376.667 847.558,-385.864 852.145,-380.576"/>
</g>
<!-- Node16 -->
<g id="node35" class="node"><title>Node16</title>
<a xlink:href="MojAutoPtrInternal_8h.htm" target="_top" xlink:title="core/internal/MojAutoPtr\lInternal.h">
<polygon fill="white" stroke="black" points="940.5,-349 940.5,-383 1071.5,-383 1071.5,-349 940.5,-349"/>
<text text-anchor="start" x="948.5" y="-370" font-family="Helvetica,sans-Serif" font-size="10.00">core/internal/MojAutoPtr</text>
<text text-anchor="middle" x="1006" y="-357" font-family="Helvetica,sans-Serif" font-size="10.00">Internal.h</text>
</a>
</g>
<!-- Node14&#45;&gt;Node16 -->
<g id="edge38" class="edge"><title>Node14&#45;&gt;Node16</title>
<path fill="none" stroke="midnightblue" d="M926.722,-427.376C939.544,-417.45 959.131,-402.286 975.627,-389.514"/>
<polygon fill="midnightblue" stroke="midnightblue" points="978.155,-391.984 983.92,-383.094 973.87,-386.449 978.155,-391.984"/>
</g>
<!-- Node15&#45;&gt;Node3 -->
<g id="edge34" class="edge"><title>Node15&#45;&gt;Node3</title>
<path fill="none" stroke="midnightblue" d="M828.075,-355.356C824.884,-339.865 817.376,-310.702 803,-290 794.831,-278.236 782.984,-267.712 772.288,-259.619"/>
<polygon fill="midnightblue" stroke="midnightblue" points="774.207,-256.688 764.049,-253.674 770.11,-262.364 774.207,-256.688"/>
</g>
<!-- Node17&#45;&gt;Node3 -->
<g id="edge42" class="edge"><title>Node17&#45;&gt;Node3</title>
<path fill="none" stroke="midnightblue" d="M962.953,-608.301C992.362,-592.119 1045.27,-558.523 1072,-514 1110.4,-450.033 1141.54,-407.859 1097,-348 1062.96,-302.254 904.151,-268.98 812.579,-253.219"/>
<polygon fill="midnightblue" stroke="midnightblue" points="813.019,-249.744 802.574,-251.52 811.847,-256.645 813.019,-249.744"/>
</g>
<!-- Node18 -->
<g id="node40" class="node"><title>Node18</title>
<a xlink:href="MojComp_8h.htm" target="_top" xlink:title="core/MojComp.h">
<polygon fill="white" stroke="black" points="700,-290.5 700,-311.5 794,-311.5 794,-290.5 700,-290.5"/>
<text text-anchor="middle" x="747" y="-298.5" font-family="Helvetica,sans-Serif" font-size="10.00">core/MojComp.h</text>
</a>
</g>
<!-- Node17&#45;&gt;Node18 -->
<g id="edge44" class="edge"><title>Node17&#45;&gt;Node18</title>
<path fill="none" stroke="midnightblue" d="M929.296,-608.234C904.155,-585.609 852.752,-531.923 880,-492 904.753,-455.734 933.064,-476.295 972,-456 1023.16,-429.335 1052.78,-434.863 1080,-384 1087.55,-369.893 1090.49,-360.078 1080,-348 1062.21,-327.523 894.766,-312.008 804.32,-305.042"/>
<polygon fill="midnightblue" stroke="midnightblue" points="804.455,-301.542 794.219,-304.274 803.925,-308.522 804.455,-301.542"/>
</g>
<!-- Node19 -->
<g id="node43" class="node"><title>Node19</title>
<a xlink:href="MojRbTreeBase_8h.htm" target="_top" xlink:title="core/internal/MojRbTreeBase.h">
<polygon fill="white" stroke="black" points="1157,-492.5 1157,-513.5 1321,-513.5 1321,-492.5 1157,-492.5"/>
<text text-anchor="middle" x="1239" y="-500.5" font-family="Helvetica,sans-Serif" font-size="10.00">core/internal/MojRbTreeBase.h</text>
</a>
</g>
<!-- Node17&#45;&gt;Node19 -->
<g id="edge48" class="edge"><title>Node17&#45;&gt;Node19</title>
<path fill="none" stroke="midnightblue" d="M985.611,-613.457C1026.77,-607.125 1089.53,-594.59 1140,-572 1169.98,-558.579 1200.38,-535.714 1219.43,-520.008"/>
<polygon fill="midnightblue" stroke="midnightblue" points="1221.7,-522.672 1227.11,-513.559 1217.2,-517.312 1221.7,-522.672"/>
</g>
<!-- Node18&#45;&gt;Node3 -->
<g id="edge46" class="edge"><title>Node18&#45;&gt;Node3</title>
<path fill="none" stroke="midnightblue" d="M747,-290.362C747,-282.922 747,-272.743 747,-263.728"/>
<polygon fill="midnightblue" stroke="midnightblue" points="750.5,-263.571 747,-253.571 743.5,-263.571 750.5,-263.571"/>
</g>
<!-- Node19&#45;&gt;Node3 -->
<g id="edge50" class="edge"><title>Node19&#45;&gt;Node3</title>
<path fill="none" stroke="midnightblue" d="M1238.23,-492.352C1235.05,-456.856 1219.62,-341.883 1151,-290 1124.61,-270.042 920.251,-254.112 812.707,-247.012"/>
<polygon fill="midnightblue" stroke="midnightblue" points="812.818,-243.512 802.611,-246.352 812.361,-250.497 812.818,-243.512"/>
</g>
<!-- Node19&#45;&gt;Node14 -->
<g id="edge52" class="edge"><title>Node19&#45;&gt;Node14</title>
<path fill="none" stroke="midnightblue" d="M1186.26,-492.484C1128.05,-480.878 1034.52,-462.23 973.412,-450.045"/>
<polygon fill="midnightblue" stroke="midnightblue" points="974.011,-446.596 963.519,-448.073 972.642,-453.461 974.011,-446.596"/>
</g>
<!-- Node20&#45;&gt;Node3 -->
<g id="edge56" class="edge"><title>Node20&#45;&gt;Node3</title>
<path fill="none" stroke="midnightblue" d="M446.847,-675.69C368.596,-672.626 218.482,-662.558 178,-630 106.86,-572.785 105,-529.293 105,-438 105,-438 105,-438 105,-366 105,-321.553 130.418,-310.219 170,-290 214.587,-267.224 539.347,-251.429 681.108,-245.546"/>
<polygon fill="midnightblue" stroke="midnightblue" points="681.552,-249.031 691.4,-245.123 681.265,-242.037 681.552,-249.031"/>
</g>
<!-- Node20&#45;&gt;Node17 -->
<g id="edge74" class="edge"><title>Node20&#45;&gt;Node17</title>
<path fill="none" stroke="midnightblue" d="M543.262,-670.738C627.408,-659.82 800.367,-637.377 888.228,-625.977"/>
<polygon fill="midnightblue" stroke="midnightblue" points="888.786,-629.434 898.253,-624.676 887.886,-622.492 888.786,-629.434"/>
</g>
<!-- Node21 -->
<g id="node50" class="node"><title>Node21</title>
<a xlink:href="MojDecimal_8h.htm" target="_top" xlink:title="core/MojDecimal.h">
<polygon fill="white" stroke="black" points="187,-608.5 187,-629.5 291,-629.5 291,-608.5 187,-608.5"/>
<text text-anchor="middle" x="239" y="-616.5" font-family="Helvetica,sans-Serif" font-size="10.00">core/MojDecimal.h</text>
</a>
</g>
<!-- Node20&#45;&gt;Node21 -->
<g id="edge58" class="edge"><title>Node20&#45;&gt;Node21</title>
<path fill="none" stroke="midnightblue" d="M448.64,-666.497C405.55,-656.734 341.275,-642.172 295.264,-631.747"/>
<polygon fill="midnightblue" stroke="midnightblue" points="295.973,-628.319 285.447,-629.523 294.426,-635.146 295.973,-628.319"/>
</g>
<!-- Node20&#45;&gt;Node25 -->
<g id="edge76" class="edge"><title>Node20&#45;&gt;Node25</title>
<path fill="none" stroke="midnightblue" d="M507.105,-666.362C516.688,-657.941 530.264,-646.011 541.393,-636.231"/>
<polygon fill="midnightblue" stroke="midnightblue" points="543.77,-638.801 548.971,-629.571 539.149,-633.543 543.77,-638.801"/>
</g>
<!-- Node20&#45;&gt;Node26 -->
<g id="edge108" class="edge"><title>Node20&#45;&gt;Node26</title>
<path fill="none" stroke="midnightblue" d="M495.768,-666.08C496.92,-652.337 499.566,-628.098 505,-608 507.482,-598.819 511.254,-589.014 514.785,-580.748"/>
<polygon fill="midnightblue" stroke="midnightblue" points="518,-582.133 518.869,-571.574 511.605,-579.286 518,-582.133"/>
</g>
<!-- Node21&#45;&gt;Node3 -->
<g id="edge60" class="edge"><title>Node21&#45;&gt;Node3</title>
<path fill="none" stroke="midnightblue" d="M220.14,-608.395C207.042,-600.1 190.177,-587.407 180,-572 145.946,-520.448 143,-499.784 143,-438 143,-438 143,-438 143,-366 143,-319.471 173.109,-310.25 215,-290 256.036,-270.164 547.883,-253.072 681.048,-246.211"/>
<polygon fill="midnightblue" stroke="midnightblue" points="681.317,-249.702 691.126,-245.695 680.96,-242.711 681.317,-249.702"/>
</g>
<!-- Node22 -->
<g id="node53" class="node"><title>Node22</title>
<a xlink:href="MojHasher_8h.htm" target="_top" xlink:title="core/MojHasher.h">
<polygon fill="white" stroke="black" points="188.5,-550.5 188.5,-571.5 289.5,-571.5 289.5,-550.5 188.5,-550.5"/>
<text text-anchor="middle" x="239" y="-558.5" font-family="Helvetica,sans-Serif" font-size="10.00">core/MojHasher.h</text>
</a>
</g>
<!-- Node21&#45;&gt;Node22 -->
<g id="edge62" class="edge"><title>Node21&#45;&gt;Node22</title>
<path fill="none" stroke="midnightblue" d="M239,-608.362C239,-600.922 239,-590.743 239,-581.728"/>
<polygon fill="midnightblue" stroke="midnightblue" points="242.5,-581.571 239,-571.571 235.5,-581.571 242.5,-581.571"/>
</g>
<!-- Node22&#45;&gt;Node3 -->
<g id="edge64" class="edge"><title>Node22&#45;&gt;Node3</title>
<path fill="none" stroke="midnightblue" d="M227.819,-550.438C219.017,-541.521 207.09,-527.999 200,-514 184.269,-482.939 181,-472.817 181,-438 181,-438 181,-438 181,-366 181,-310.53 228.436,-310.447 280,-290 351.343,-261.71 570.542,-249.606 681.38,-245.184"/>
<polygon fill="midnightblue" stroke="midnightblue" points="681.58,-248.679 691.436,-244.792 681.307,-241.685 681.58,-248.679"/>
</g>
<!-- Node22&#45;&gt;Node23 -->
<g id="edge66" class="edge"><title>Node22&#45;&gt;Node23</title>
<path fill="none" stroke="midnightblue" d="M240.834,-550.362C242.131,-542.84 243.911,-532.519 245.477,-523.431"/>
<polygon fill="midnightblue" stroke="midnightblue" points="248.927,-524.02 247.177,-513.571 242.029,-522.831 248.927,-524.02"/>
</g>
<!-- Node23&#45;&gt;Node3 -->
<g id="edge68" class="edge"><title>Node23&#45;&gt;Node3</title>
<path fill="none" stroke="midnightblue" d="M247.942,-492.493C245.056,-457.441 241.012,-343.711 303,-290 330.971,-265.764 564.326,-251.531 681.048,-245.865"/>
<polygon fill="midnightblue" stroke="midnightblue" points="681.467,-249.349 691.289,-245.375 681.133,-242.357 681.467,-249.349"/>
</g>
<!-- Node24 -->
<g id="node59" class="node"><title>Node24</title>
<a xlink:href="MojUtilInternal_8h.htm" target="_top" xlink:title="core/internal/MojUtilInternal.h">
<polygon fill="white" stroke="black" points="564.5,-355.5 564.5,-376.5 719.5,-376.5 719.5,-355.5 564.5,-355.5"/>
<text text-anchor="middle" x="642" y="-363.5" font-family="Helvetica,sans-Serif" font-size="10.00">core/internal/MojUtilInternal.h</text>
</a>
</g>
<!-- Node23&#45;&gt;Node24 -->
<g id="edge70" class="edge"><title>Node23&#45;&gt;Node24</title>
<path fill="none" stroke="midnightblue" d="M279.185,-492.477C349.338,-468.022 523.375,-407.353 602.143,-379.894"/>
<polygon fill="midnightblue" stroke="midnightblue" points="603.421,-383.155 611.712,-376.559 601.117,-376.545 603.421,-383.155"/>
</g>
<!-- Node24&#45;&gt;Node18 -->
<g id="edge72" class="edge"><title>Node24&#45;&gt;Node18</title>
<path fill="none" stroke="midnightblue" d="M659.339,-355.267C676.234,-344.807 702.121,-328.782 721.39,-316.854"/>
<polygon fill="midnightblue" stroke="midnightblue" points="723.324,-319.773 729.984,-311.534 719.639,-313.821 723.324,-319.773"/>
</g>
<!-- Node25&#45;&gt;Node3 -->
<g id="edge78" class="edge"><title>Node25&#45;&gt;Node3</title>
<path fill="none" stroke="midnightblue" d="M519.609,-608.43C449.994,-589.428 317,-547.325 317,-503 317,-503 317,-503 317,-366 317,-313.306 359.817,-311.332 408,-290 455.64,-268.908 597.097,-254.658 681.476,-247.773"/>
<polygon fill="midnightblue" stroke="midnightblue" points="681.785,-251.26 691.473,-246.97 681.225,-244.282 681.785,-251.26"/>
</g>
<!-- Node25&#45;&gt;Node14 -->
<g id="edge80" class="edge"><title>Node25&#45;&gt;Node14</title>
<path fill="none" stroke="midnightblue" d="M608.449,-612.203C659.629,-604.123 737.017,-589.508 761,-572 794.49,-547.551 778.792,-520.404 809,-492 827.379,-474.718 852.356,-461.508 873.226,-452.48"/>
<polygon fill="midnightblue" stroke="midnightblue" points="874.599,-455.699 882.487,-448.627 871.91,-449.237 874.599,-455.699"/>
</g>
<!-- Node25&#45;&gt;Node18 -->
<g id="edge82" class="edge"><title>Node25&#45;&gt;Node18</title>
<path fill="none" stroke="midnightblue" d="M608.417,-610.761C663.524,-598.147 747,-568.268 747,-503 747,-503 747,-503 747,-438 747,-396.793 747,-348.614 747,-321.773"/>
<polygon fill="midnightblue" stroke="midnightblue" points="750.5,-321.658 747,-311.658 743.5,-321.658 750.5,-321.658"/>
</g>
<!-- Node25&#45;&gt;Node22 -->
<g id="edge84" class="edge"><title>Node25&#45;&gt;Node22</title>
<path fill="none" stroke="midnightblue" d="M513.834,-610.504C457.159,-600.296 361.955,-583.147 299.808,-571.953"/>
<polygon fill="midnightblue" stroke="midnightblue" points="300.21,-568.469 289.748,-570.141 298.969,-575.358 300.21,-568.469"/>
</g>
<!-- Node25&#45;&gt;Node26 -->
<g id="edge86" class="edge"><title>Node25&#45;&gt;Node26</title>
<path fill="none" stroke="midnightblue" d="M554.214,-608.362C549.207,-600.513 542.255,-589.616 536.282,-580.253"/>
<polygon fill="midnightblue" stroke="midnightblue" points="539.072,-578.119 530.743,-571.571 533.171,-581.884 539.072,-578.119"/>
</g>
<!-- Node26&#45;&gt;Node3 -->
<g id="edge88" class="edge"><title>Node26&#45;&gt;Node3</title>
<path fill="none" stroke="midnightblue" d="M475.368,-551.158C437.127,-542.468 388.042,-528.891 374,-514 350.113,-488.669 355,-472.817 355,-438 355,-438 355,-438 355,-366 355,-298.475 569.431,-263.551 681.104,-249.941"/>
<polygon fill="midnightblue" stroke="midnightblue" points="681.738,-253.39 691.252,-248.728 680.908,-246.44 681.738,-253.39"/>
</g>
<!-- Node26&#45;&gt;Node18 -->
<g id="edge90" class="edge"><title>Node26&#45;&gt;Node18</title>
<path fill="none" stroke="midnightblue" d="M536.189,-550.424C545.25,-541.699 556.892,-528.443 562,-514 586.617,-444.399 510.459,-406.106 556,-348 572.407,-327.067 639.563,-314.207 689.635,-307.346"/>
<polygon fill="midnightblue" stroke="midnightblue" points="690.263,-310.793 699.718,-306.013 689.345,-303.854 690.263,-310.793"/>
</g>
<!-- Node26&#45;&gt;Node23 -->
<g id="edge104" class="edge"><title>Node26&#45;&gt;Node23</title>
<path fill="none" stroke="midnightblue" d="M475.469,-550.764C426.133,-540.359 350.018,-524.306 299.86,-513.727"/>
<polygon fill="midnightblue" stroke="midnightblue" points="300.387,-510.261 289.88,-511.622 298.943,-517.11 300.387,-510.261"/>
</g>
<!-- Node27 -->
<g id="node73" class="node"><title>Node27</title>
<a xlink:href="MojRefCount_8h.htm" target="_top" xlink:title="core/MojRefCount.h">
<polygon fill="white" stroke="black" points="609,-492.5 609,-513.5 719,-513.5 719,-492.5 609,-492.5"/>
<text text-anchor="middle" x="664" y="-500.5" font-family="Helvetica,sans-Serif" font-size="10.00">core/MojRefCount.h</text>
</a>
</g>
<!-- Node26&#45;&gt;Node27 -->
<g id="edge92" class="edge"><title>Node26&#45;&gt;Node27</title>
<path fill="none" stroke="midnightblue" d="M549.353,-550.497C571.613,-541.275 604.212,-527.769 628.963,-517.515"/>
<polygon fill="midnightblue" stroke="midnightblue" points="630.464,-520.682 638.363,-513.621 627.784,-514.215 630.464,-520.682"/>
</g>
<!-- Node29 -->
<g id="node82" class="node"><title>Node29</title>
<a xlink:href="MojVectorInternal_8h.htm" target="_top" xlink:title="core/internal/MojVectorInternal.h">
<polygon fill="white" stroke="black" points="382.5,-492.5 382.5,-513.5 553.5,-513.5 553.5,-492.5 382.5,-492.5"/>
<text text-anchor="middle" x="468" y="-500.5" font-family="Helvetica,sans-Serif" font-size="10.00">core/internal/MojVectorInternal.h</text>
</a>
</g>
<!-- Node26&#45;&gt;Node29 -->
<g id="edge106" class="edge"><title>Node26&#45;&gt;Node29</title>
<path fill="none" stroke="midnightblue" d="M513.729,-550.362C505.756,-542.104 494.525,-530.472 485.189,-520.803"/>
<polygon fill="midnightblue" stroke="midnightblue" points="487.67,-518.334 478.206,-513.571 482.634,-523.196 487.67,-518.334"/>
</g>
<!-- Node27&#45;&gt;Node3 -->
<g id="edge94" class="edge"><title>Node27&#45;&gt;Node3</title>
<path fill="none" stroke="midnightblue" d="M620.718,-492.427C600.98,-485.371 579.132,-473.981 566,-456 537.569,-417.072 531.461,-389.492 556,-348 585.162,-298.691 646.629,-270.981 691.995,-256.569"/>
<polygon fill="midnightblue" stroke="midnightblue" points="693.158,-259.873 701.702,-253.608 691.116,-253.178 693.158,-259.873"/>
</g>
<!-- Node27&#45;&gt;Node14 -->
<g id="edge98" class="edge"><title>Node27&#45;&gt;Node14</title>
<path fill="none" stroke="midnightblue" d="M704.283,-492.484C747.497,-481.204 816.196,-463.27 862.874,-451.085"/>
<polygon fill="midnightblue" stroke="midnightblue" points="863.983,-454.413 872.775,-448.501 862.215,-447.64 863.983,-454.413"/>
</g>
<!-- Node27&#45;&gt;Node15 -->
<g id="edge96" class="edge"><title>Node27&#45;&gt;Node15</title>
<path fill="none" stroke="midnightblue" d="M677.945,-492.326C690.184,-482.898 708.414,-468.713 724,-456 754.388,-431.214 788.89,-401.647 810.05,-383.345"/>
<polygon fill="midnightblue" stroke="midnightblue" points="812.465,-385.884 817.731,-376.69 807.881,-380.594 812.465,-385.884"/>
</g>
<!-- Node28 -->
<g id="node78" class="node"><title>Node28</title>
<a xlink:href="MojRefCountInternal_8h.htm" target="_top" xlink:title="core/internal/MojRefCount\lInternal.h">
<polygon fill="white" stroke="black" points="575,-421 575,-455 715,-455 715,-421 575,-421"/>
<text text-anchor="start" x="583" y="-442" font-family="Helvetica,sans-Serif" font-size="10.00">core/internal/MojRefCount</text>
<text text-anchor="middle" x="645" y="-429" font-family="Helvetica,sans-Serif" font-size="10.00">Internal.h</text>
</a>
</g>
<!-- Node27&#45;&gt;Node28 -->
<g id="edge100" class="edge"><title>Node27&#45;&gt;Node28</title>
<path fill="none" stroke="midnightblue" d="M660.863,-492.267C658.672,-484.773 655.647,-474.423 652.825,-464.769"/>
<polygon fill="midnightblue" stroke="midnightblue" points="656.167,-463.726 650.001,-455.11 649.448,-465.69 656.167,-463.726"/>
</g>
<!-- Node28&#45;&gt;Node24 -->
<g id="edge102" class="edge"><title>Node28&#45;&gt;Node24</title>
<path fill="none" stroke="midnightblue" d="M644.289,-420.937C643.867,-410.814 643.329,-397.898 642.881,-387.133"/>
<polygon fill="midnightblue" stroke="midnightblue" points="646.368,-386.747 642.454,-376.901 639.374,-387.038 646.368,-386.747"/>
</g>
<!-- Node30&#45;&gt;Node3 -->
<g id="edge116" class="edge"><title>Node30&#45;&gt;Node3</title>
<path fill="none" stroke="midnightblue" d="M1273.11,-550.487C1315.71,-533.886 1387,-497.254 1387,-438 1387,-438 1387,-438 1387,-366 1387,-266.324 1273.11,-312.474 1176,-290 1049.39,-260.699 897.411,-249.527 812.561,-245.369"/>
<polygon fill="midnightblue" stroke="midnightblue" points="812.706,-241.872 802.552,-244.896 812.376,-248.865 812.706,-241.872"/>
</g>
<!-- Node30&#45;&gt;Node15 -->
<g id="edge118" class="edge"><title>Node30&#45;&gt;Node15</title>
<path fill="none" stroke="midnightblue" d="M1220.26,-550.337C1201.16,-540.917 1172.64,-526.735 1148,-514 1069.22,-473.278 1052.72,-456.724 972,-420 938.606,-404.807 899.578,-390.182 870.898,-379.993"/>
<polygon fill="midnightblue" stroke="midnightblue" points="871.806,-376.602 861.211,-376.58 869.48,-383.204 871.806,-376.602"/>
</g>
<!-- Node31 -->
<g id="node91" class="node"><title>Node31</title>
<a xlink:href="MojThreadInternal_8h.htm" target="_top" xlink:title="core/internal/MojThreadInternal.h">
<polygon fill="white" stroke="black" points="888.5,-492.5 888.5,-513.5 1063.5,-513.5 1063.5,-492.5 888.5,-492.5"/>
<text text-anchor="middle" x="976" y="-500.5" font-family="Helvetica,sans-Serif" font-size="10.00">core/internal/MojThreadInternal.h</text>
</a>
</g>
<!-- Node30&#45;&gt;Node31 -->
<g id="edge120" class="edge"><title>Node30&#45;&gt;Node31</title>
<path fill="none" stroke="midnightblue" d="M1193.83,-550.497C1148.96,-540.714 1081.99,-526.111 1034.16,-515.682"/>
<polygon fill="midnightblue" stroke="midnightblue" points="1034.78,-512.234 1024.26,-513.523 1033.29,-519.073 1034.78,-512.234"/>
</g>
<!-- Node31&#45;&gt;Node14 -->
<g id="edge122" class="edge"><title>Node31&#45;&gt;Node14</title>
<path fill="none" stroke="midnightblue" d="M965.597,-492.267C956.056,-482.423 941.736,-467.648 930.446,-456"/>
<polygon fill="midnightblue" stroke="midnightblue" points="932.683,-453.278 923.21,-448.534 927.656,-458.15 932.683,-453.278"/>
</g>
<!-- Node32&#45;&gt;Node3 -->
<g id="edge126" class="edge"><title>Node32&#45;&gt;Node3</title>
<path fill="none" stroke="midnightblue" d="M1271.98,-666.434C1348.91,-638.862 1550.75,-563.449 1601,-514 1627.64,-487.786 1637,-475.376 1637,-438 1637,-438 1637,-438 1637,-366 1637,-316.787 1797.18,-360.356 1436,-290 1317.91,-266.998 961.556,-251.176 813.066,-245.413"/>
<polygon fill="midnightblue" stroke="midnightblue" points="812.868,-241.903 802.74,-245.015 812.598,-248.898 812.868,-241.903"/>
</g>
<!-- Node32&#45;&gt;Node17 -->
<g id="edge134" class="edge"><title>Node32&#45;&gt;Node17</title>
<path fill="none" stroke="midnightblue" d="M1187.67,-666.497C1133.26,-655.978 1050.03,-639.886 995.806,-629.403"/>
<polygon fill="midnightblue" stroke="midnightblue" points="996.182,-625.91 985.699,-627.448 994.853,-632.783 996.182,-625.91"/>
</g>
<!-- Node32&#45;&gt;Node25 -->
<g id="edge146" class="edge"><title>Node32&#45;&gt;Node25</title>
<path fill="none" stroke="midnightblue" d="M1183.35,-672.005C1054.09,-660.996 746.038,-634.76 618.163,-623.868"/>
<polygon fill="midnightblue" stroke="midnightblue" points="618.438,-620.379 608.177,-623.018 617.844,-627.354 618.438,-620.379"/>
</g>
<!-- Node32&#45;&gt;Node30 -->
<g id="edge148" class="edge"><title>Node32&#45;&gt;Node30</title>
<path fill="none" stroke="midnightblue" d="M1242,-666.295C1242,-647.131 1242,-606.654 1242,-581.843"/>
<polygon fill="midnightblue" stroke="midnightblue" points="1245.5,-581.679 1242,-571.679 1238.5,-581.679 1245.5,-581.679"/>
</g>
<!-- Node33 -->
<g id="node97" class="node"><title>Node33</title>
<a xlink:href="MojList_8h.htm" target="_top" xlink:title="core/MojList.h">
<polygon fill="white" stroke="black" points="1603.5,-608.5 1603.5,-629.5 1686.5,-629.5 1686.5,-608.5 1603.5,-608.5"/>
<text text-anchor="middle" x="1645" y="-616.5" font-family="Helvetica,sans-Serif" font-size="10.00">core/MojList.h</text>
</a>
</g>
<!-- Node32&#45;&gt;Node33 -->
<g id="edge128" class="edge"><title>Node32&#45;&gt;Node33</title>
<path fill="none" stroke="midnightblue" d="M1300.6,-668.566C1379.31,-657.239 1517.94,-637.286 1593.08,-626.472"/>
<polygon fill="midnightblue" stroke="midnightblue" points="1593.85,-629.898 1603.25,-625.009 1592.85,-622.969 1593.85,-629.898"/>
</g>
<!-- Node35 -->
<g id="node103" class="node"><title>Node35</title>
<a xlink:href="MojSet_8h.htm" target="_top" xlink:title="core/MojSet.h">
<polygon fill="white" stroke="black" points="1310,-550.5 1310,-571.5 1392,-571.5 1392,-550.5 1310,-550.5"/>
<text text-anchor="middle" x="1351" y="-558.5" font-family="Helvetica,sans-Serif" font-size="10.00">core/MojSet.h</text>
</a>
</g>
<!-- Node32&#45;&gt;Node35 -->
<g id="edge136" class="edge"><title>Node32&#45;&gt;Node35</title>
<path fill="none" stroke="midnightblue" d="M1252.06,-666.295C1270.72,-646.441 1310.87,-603.709 1333.88,-579.224"/>
<polygon fill="midnightblue" stroke="midnightblue" points="1336.67,-581.363 1340.97,-571.679 1331.57,-576.57 1336.67,-581.363"/>
</g>
<!-- Node33&#45;&gt;Node3 -->
<g id="edge130" class="edge"><title>Node33&#45;&gt;Node3</title>
<path fill="none" stroke="midnightblue" d="M1678.24,-608.396C1696.57,-600.945 1718.32,-589.195 1732,-572 1751.8,-547.11 1751,-534.808 1751,-503 1751,-503 1751,-503 1751,-438 1751,-358.615 1720.12,-329.049 1651,-290 1614.62,-269.449 1014.77,-250.606 812.78,-244.817"/>
<polygon fill="midnightblue" stroke="midnightblue" points="812.706,-241.313 802.611,-244.527 812.507,-248.311 812.706,-241.313"/>
</g>
<!-- Node34 -->
<g id="node100" class="node"><title>Node34</title>
<a xlink:href="MojListInternal_8h.htm" target="_top" xlink:title="core/internal/MojListInternal.h">
<polygon fill="white" stroke="black" points="1566.5,-550.5 1566.5,-571.5 1723.5,-571.5 1723.5,-550.5 1566.5,-550.5"/>
<text text-anchor="middle" x="1645" y="-558.5" font-family="Helvetica,sans-Serif" font-size="10.00">core/internal/MojListInternal.h</text>
</a>
</g>
<!-- Node33&#45;&gt;Node34 -->
<g id="edge132" class="edge"><title>Node33&#45;&gt;Node34</title>
<path fill="none" stroke="midnightblue" d="M1645,-608.362C1645,-600.922 1645,-590.743 1645,-581.728"/>
<polygon fill="midnightblue" stroke="midnightblue" points="1648.5,-581.571 1645,-571.571 1641.5,-581.571 1648.5,-581.571"/>
</g>
<!-- Node35&#45;&gt;Node3 -->
<g id="edge138" class="edge"><title>Node35&#45;&gt;Node3</title>
<path fill="none" stroke="midnightblue" d="M1392.11,-557.76C1450.56,-552.314 1553.55,-539.343 1580,-514 1605.14,-489.91 1599,-472.817 1599,-438 1599,-438 1599,-438 1599,-366 1599,-286.63 1012.33,-254.288 812.633,-245.579"/>
<polygon fill="midnightblue" stroke="midnightblue" points="812.715,-242.079 802.573,-245.146 812.414,-249.072 812.715,-242.079"/>
</g>
<!-- Node35&#45;&gt;Node18 -->
<g id="edge140" class="edge"><title>Node35&#45;&gt;Node18</title>
<path fill="none" stroke="midnightblue" d="M1349.99,-550.175C1348.15,-535.66 1343.16,-509.674 1330,-492 1260.86,-399.172 1221.46,-388.427 1113,-348 1057.71,-327.391 892.489,-312.106 804.166,-305.154"/>
<polygon fill="midnightblue" stroke="midnightblue" points="804.289,-301.653 794.048,-304.367 803.746,-308.632 804.289,-301.653"/>
</g>
<!-- Node35&#45;&gt;Node19 -->
<g id="edge142" class="edge"><title>Node35&#45;&gt;Node19</title>
<path fill="none" stroke="midnightblue" d="M1330.72,-550.497C1313.38,-541.519 1288.21,-528.484 1268.62,-518.339"/>
<polygon fill="midnightblue" stroke="midnightblue" points="1270,-515.112 1259.51,-513.621 1266.78,-521.328 1270,-515.112"/>
</g>
<!-- Node36 -->
<g id="node108" class="node"><title>Node36</title>
<a xlink:href="MojSetInternal_8h.htm" target="_top" xlink:title="core/internal/MojSetInternal.h">
<polygon fill="white" stroke="black" points="1415,-492.5 1415,-513.5 1571,-513.5 1571,-492.5 1415,-492.5"/>
<text text-anchor="middle" x="1493" y="-500.5" font-family="Helvetica,sans-Serif" font-size="10.00">core/internal/MojSetInternal.h</text>
</a>
</g>
<!-- Node35&#45;&gt;Node36 -->
<g id="edge144" class="edge"><title>Node35&#45;&gt;Node36</title>
<path fill="none" stroke="midnightblue" d="M1376.72,-550.497C1399.29,-541.275 1432.36,-527.769 1457.46,-517.515"/>
<polygon fill="midnightblue" stroke="midnightblue" points="1459.06,-520.643 1467,-513.621 1456.42,-514.162 1459.06,-520.643"/>
</g>
</g>
</svg>
