<?xml version="1.0" encoding="UTF-8" standalone="no"?>
<!DOCTYPE svg PUBLIC "-//W3C//DTD SVG 1.1//EN"
 "http://www.w3.org/Graphics/SVG/1.1/DTD/svg11.dtd">
<!-- Generated by graphviz version 2.26.3 (20100126.1600)
 -->
<!-- Title: MojTimeInternal.h Pages: 1 -->
<svg width="1012pt" height="146pt"
 viewBox="0.00 0.00 1012.00 146.00" xmlns="http://www.w3.org/2000/svg" xmlns:xlink="http://www.w3.org/1999/xlink">
<g id="graph1" class="graph" transform="scale(1 1) rotate(0) translate(4 142)">
<title>MojTimeInternal.h</title>
<polygon fill="white" stroke="white" points="-4,5 -4,-142 1009,-142 1009,5 -4,5"/>
<!-- Node1 -->
<g id="node1" class="node"><title>Node1</title>
<polygon fill="#bfbfbf" stroke="black" points="343.5,-116.5 343.5,-137.5 444.5,-137.5 444.5,-116.5 343.5,-116.5"/>
<text text-anchor="middle" x="394" y="-124.5" font-family="Helvetica,sans-Serif" font-size="10.00">MojTimeInternal.h</text>
</g>
<!-- Node2 -->
<g id="node3" class="node"><title>Node2</title>
<a xlink:href="MojTime_8h.htm" target="_top" xlink:title="MojTime.h">
<polygon fill="white" stroke="black" points="361.5,-58.5 361.5,-79.5 426.5,-79.5 426.5,-58.5 361.5,-58.5"/>
<text text-anchor="middle" x="394" y="-66.5" font-family="Helvetica,sans-Serif" font-size="10.00">MojTime.h</text>
</a>
</g>
<!-- Node1&#45;&gt;Node2 -->
<g id="edge2" class="edge"><title>Node1&#45;&gt;Node2</title>
<path fill="none" stroke="midnightblue" d="M394,-106.191C394,-97.1684 394,-86.9941 394,-79.5707"/>
<polygon fill="midnightblue" stroke="midnightblue" points="390.5,-106.362 394,-116.362 397.5,-106.362 390.5,-106.362"/>
</g>
<!-- Node3 -->
<g id="node5" class="node"><title>Node3</title>
<a xlink:href="MojLogEngine_8cpp.htm" target="_top" xlink:title="MojLogEngine.cpp">
<polygon fill="white" stroke="black" points="0,-0.5 0,-21.5 104,-21.5 104,-0.5 0,-0.5"/>
<text text-anchor="middle" x="52" y="-8.5" font-family="Helvetica,sans-Serif" font-size="10.00">MojLogEngine.cpp</text>
</a>
</g>
<!-- Node2&#45;&gt;Node3 -->
<g id="edge4" class="edge"><title>Node2&#45;&gt;Node3</title>
<path fill="none" stroke="midnightblue" d="M350.991,-61.9803C295.834,-52.9379 197.238,-36.6394 113,-22 110.137,-21.5025 107.2,-20.9876 104.236,-20.4645"/>
<polygon fill="midnightblue" stroke="midnightblue" points="350.664,-65.4734 361.099,-63.6358 351.796,-58.5654 350.664,-65.4734"/>
</g>
<!-- Node4 -->
<g id="node7" class="node"><title>Node4</title>
<a xlink:href="MojOs_8cpp.htm" target="_top" xlink:title="MojOs.cpp">
<polygon fill="white" stroke="black" points="121.5,-0.5 121.5,-21.5 188.5,-21.5 188.5,-0.5 121.5,-0.5"/>
<text text-anchor="middle" x="155" y="-8.5" font-family="Helvetica,sans-Serif" font-size="10.00">MojOs.cpp</text>
</a>
</g>
<!-- Node2&#45;&gt;Node4 -->
<g id="edge6" class="edge"><title>Node2&#45;&gt;Node4</title>
<path fill="none" stroke="midnightblue" d="M351.253,-59.0868C311.304,-49.755 250.029,-35.2685 197,-22 194.368,-21.3414 191.645,-20.6504 188.91,-19.9493"/>
<polygon fill="midnightblue" stroke="midnightblue" points="350.647,-62.5394 361.181,-61.4023 352.237,-55.7223 350.647,-62.5394"/>
</g>
<!-- Node5 -->
<g id="node9" class="node"><title>Node5</title>
<a xlink:href="MojService_8cpp.htm" target="_top" xlink:title="MojService.cpp">
<polygon fill="white" stroke="black" points="205.5,-0.5 205.5,-21.5 294.5,-21.5 294.5,-0.5 205.5,-0.5"/>
<text text-anchor="middle" x="250" y="-8.5" font-family="Helvetica,sans-Serif" font-size="10.00">MojService.cpp</text>
</a>
</g>
<!-- Node2&#45;&gt;Node5 -->
<g id="edge8" class="edge"><title>Node2&#45;&gt;Node5</title>
<path fill="none" stroke="midnightblue" d="M358.623,-54.7509C333.194,-44.5086 299.458,-30.9206 276.37,-21.6212"/>
<polygon fill="midnightblue" stroke="midnightblue" points="357.339,-58.007 367.923,-58.4966 359.954,-51.5139 357.339,-58.007"/>
</g>
<!-- Node6 -->
<g id="node11" class="node"><title>Node6</title>
<a xlink:href="MojDb_8cpp.htm" target="_top" xlink:title="MojDb.cpp">
<polygon fill="white" stroke="black" points="312,-0.5 312,-21.5 378,-21.5 378,-0.5 312,-0.5"/>
<text text-anchor="middle" x="345" y="-8.5" font-family="Helvetica,sans-Serif" font-size="10.00">MojDb.cpp</text>
</a>
</g>
<!-- Node2&#45;&gt;Node6 -->
<g id="edge10" class="edge"><title>Node2&#45;&gt;Node6</title>
<path fill="none" stroke="midnightblue" d="M378.405,-50.5407C370.327,-40.9786 360.753,-29.6467 353.93,-21.5707"/>
<polygon fill="midnightblue" stroke="midnightblue" points="375.885,-52.9818 385.013,-58.3619 381.233,-48.4643 375.885,-52.9818"/>
</g>
<!-- Node7 -->
<g id="node13" class="node"><title>Node7</title>
<a xlink:href="MojDbAdmin_8cpp.htm" target="_top" xlink:title="MojDbAdmin.cpp">
<polygon fill="white" stroke="black" points="395.5,-0.5 395.5,-21.5 490.5,-21.5 490.5,-0.5 395.5,-0.5"/>
<text text-anchor="middle" x="443" y="-8.5" font-family="Helvetica,sans-Serif" font-size="10.00">MojDbAdmin.cpp</text>
</a>
</g>
<!-- Node2&#45;&gt;Node7 -->
<g id="edge12" class="edge"><title>Node2&#45;&gt;Node7</title>
<path fill="none" stroke="midnightblue" d="M409.595,-50.5407C417.673,-40.9786 427.247,-29.6467 434.07,-21.5707"/>
<polygon fill="midnightblue" stroke="midnightblue" points="406.767,-48.4643 402.987,-58.3619 412.115,-52.9818 406.767,-48.4643"/>
</g>
<!-- Node8 -->
<g id="node15" class="node"><title>Node8</title>
<a xlink:href="MojDbIdGenerator_8cpp.htm" target="_top" xlink:title="MojDbIdGenerator.cpp">
<polygon fill="white" stroke="black" points="508,-0.5 508,-21.5 632,-21.5 632,-0.5 508,-0.5"/>
<text text-anchor="middle" x="570" y="-8.5" font-family="Helvetica,sans-Serif" font-size="10.00">MojDbIdGenerator.cpp</text>
</a>
</g>
<!-- Node2&#45;&gt;Node8 -->
<g id="edge14" class="edge"><title>Node2&#45;&gt;Node8</title>
<path fill="none" stroke="midnightblue" d="M435.637,-55.2787C466.998,-44.9437 509.356,-30.9849 538.068,-21.5231"/>
<polygon fill="midnightblue" stroke="midnightblue" points="434.274,-52.0425 425.872,-58.4966 436.465,-58.6908 434.274,-52.0425"/>
</g>
<!-- Node9 -->
<g id="node17" class="node"><title>Node9</title>
<a xlink:href="MojDbServiceHandlerBase_8cpp.htm" target="_top" xlink:title="MojDbServiceHandlerBase.cpp">
<polygon fill="white" stroke="black" points="649.5,-0.5 649.5,-21.5 812.5,-21.5 812.5,-0.5 649.5,-0.5"/>
<text text-anchor="middle" x="731" y="-8.5" font-family="Helvetica,sans-Serif" font-size="10.00">MojDbServiceHandlerBase.cpp</text>
</a>
</g>
<!-- Node2&#45;&gt;Node9 -->
<g id="edge16" class="edge"><title>Node2&#45;&gt;Node9</title>
<path fill="none" stroke="midnightblue" d="M436.702,-61.6507C495.646,-51.506 602.288,-33.1523 669.726,-21.5456"/>
<polygon fill="midnightblue" stroke="midnightblue" points="435.881,-58.2405 426.619,-63.386 437.068,-65.1391 435.881,-58.2405"/>
</g>
<!-- Node10 -->
<g id="node19" class="node"><title>Node10</title>
<a xlink:href="MojDbServiceHandlerInternal_8cpp.htm" target="_top" xlink:title="MojDbServiceHandlerInternal.cpp">
<polygon fill="white" stroke="black" points="829.5,-0.5 829.5,-21.5 1004.5,-21.5 1004.5,-0.5 829.5,-0.5"/>
<text text-anchor="middle" x="917" y="-8.5" font-family="Helvetica,sans-Serif" font-size="10.00">MojDbServiceHandlerInternal.cpp</text>
</a>
</g>
<!-- Node2&#45;&gt;Node10 -->
<g id="edge18" class="edge"><title>Node2&#45;&gt;Node10</title>
<path fill="none" stroke="midnightblue" d="M436.938,-64.3378C513.915,-55.9654 680.493,-37.7826 821,-22 823.751,-21.691 826.546,-21.3762 829.368,-21.0575"/>
<polygon fill="midnightblue" stroke="midnightblue" points="436.246,-60.8923 426.683,-65.4528 437.003,-67.8513 436.246,-60.8923"/>
</g>
</g>
</svg>
