<?xml version="1.0" encoding="UTF-8" standalone="no"?>
<!DOCTYPE svg PUBLIC "-//W3C//DTD SVG 1.1//EN"
 "http://www.w3.org/Graphics/SVG/1.1/DTD/svg11.dtd">
<!-- Generated by graphviz version 2.26.3 (20100126.1600)
 -->
<!-- Title: MojTestRunner.h Pages: 1 -->
<svg width="1351pt" height="812pt"
 viewBox="0.00 0.00 1351.46 812.00" xmlns="http://www.w3.org/2000/svg" xmlns:xlink="http://www.w3.org/1999/xlink">
<g id="graph1" class="graph" transform="scale(1 1) rotate(0) translate(4 808)">
<title>MojTestRunner.h</title>
<polygon fill="white" stroke="white" points="-4,5 -4,-808 1348.46,-808 1348.46,5 -4,5"/>
<!-- Node1 -->
<g id="node1" class="node"><title>Node1</title>
<polygon fill="#bfbfbf" stroke="black" points="1213,-782.5 1213,-803.5 1311,-803.5 1311,-782.5 1213,-782.5"/>
<text text-anchor="middle" x="1262" y="-790.5" font-family="Helvetica,sans-Serif" font-size="10.00">MojTestRunner.h</text>
</g>
<!-- Node2 -->
<g id="node3" class="node"><title>Node2</title>
<a xlink:href="MojCoreDefs_8h.htm" target="_top" xlink:title="core/MojCoreDefs.h">
<polygon fill="white" stroke="black" points="643.5,-232.5 643.5,-253.5 754.5,-253.5 754.5,-232.5 643.5,-232.5"/>
<text text-anchor="middle" x="699" y="-240.5" font-family="Helvetica,sans-Serif" font-size="10.00">core/MojCoreDefs.h</text>
</a>
</g>
<!-- Node1&#45;&gt;Node2 -->
<g id="edge2" class="edge"><title>Node1&#45;&gt;Node2</title>
<path fill="none" stroke="midnightblue" d="M1275.59,-782.452C1297.93,-763.798 1340,-722.624 1340,-677 1340,-677 1340,-677 1340,-366 1340,-336.162 1378.16,-340.836 1195,-290 1115.71,-267.995 880.318,-252.738 764.645,-246.353"/>
<polygon fill="midnightblue" stroke="midnightblue" points="764.682,-242.85 754.506,-245.799 764.301,-249.84 764.682,-242.85"/>
</g>
<!-- Node12 -->
<g id="node23" class="node"><title>Node12</title>
<a xlink:href="MojApp_8h.htm" target="_top" xlink:title="core/MojApp.h">
<polygon fill="white" stroke="black" points="561.5,-724.5 561.5,-745.5 646.5,-745.5 646.5,-724.5 561.5,-724.5"/>
<text text-anchor="middle" x="604" y="-732.5" font-family="Helvetica,sans-Serif" font-size="10.00">core/MojApp.h</text>
</a>
</g>
<!-- Node1&#45;&gt;Node12 -->
<g id="edge22" class="edge"><title>Node1&#45;&gt;Node12</title>
<path fill="none" stroke="midnightblue" d="M1212.81,-788.664C1091.94,-778.01 781.199,-750.619 656.72,-739.647"/>
<polygon fill="midnightblue" stroke="midnightblue" points="656.941,-736.153 646.672,-738.761 656.326,-743.126 656.941,-736.153"/>
</g>
<!-- Node29 -->
<g id="node85" class="node"><title>Node29</title>
<a xlink:href="MojThread_8h.htm" target="_top" xlink:title="core/MojThread.h">
<polygon fill="white" stroke="black" points="1211.5,-550.5 1211.5,-571.5 1312.5,-571.5 1312.5,-550.5 1211.5,-550.5"/>
<text text-anchor="middle" x="1262" y="-558.5" font-family="Helvetica,sans-Serif" font-size="10.00">core/MojThread.h</text>
</a>
</g>
<!-- Node1&#45;&gt;Node29 -->
<g id="edge112" class="edge"><title>Node1&#45;&gt;Node29</title>
<path fill="none" stroke="midnightblue" d="M1262,-782.429C1262,-746.648 1262,-629.663 1262,-581.748"/>
<polygon fill="midnightblue" stroke="midnightblue" points="1265.5,-581.633 1262,-571.634 1258.5,-581.634 1265.5,-581.633"/>
</g>
<!-- Node3 -->
<g id="node5" class="node"><title>Node3</title>
<a xlink:href="MojConfig_8h.htm" target="_top" xlink:title="core/internal/MojConfig.h">
<polygon fill="white" stroke="black" points="854.5,-174.5 854.5,-195.5 989.5,-195.5 989.5,-174.5 854.5,-174.5"/>
<text text-anchor="middle" x="922" y="-182.5" font-family="Helvetica,sans-Serif" font-size="10.00">core/internal/MojConfig.h</text>
</a>
</g>
<!-- Node2&#45;&gt;Node3 -->
<g id="edge4" class="edge"><title>Node2&#45;&gt;Node3</title>
<path fill="none" stroke="midnightblue" d="M739.384,-232.497C776.526,-222.836 831.737,-208.477 871.723,-198.077"/>
<polygon fill="midnightblue" stroke="midnightblue" points="872.744,-201.428 881.541,-195.523 870.982,-194.653 872.744,-201.428"/>
</g>
<!-- Node4 -->
<g id="node7" class="node"><title>Node4</title>
<a xlink:href="MojNew_8h.htm" target="_top" xlink:title="core/internal/MojNew.h">
<polygon fill="white" stroke="black" points="516.5,-174.5 516.5,-195.5 641.5,-195.5 641.5,-174.5 516.5,-174.5"/>
<text text-anchor="middle" x="579" y="-182.5" font-family="Helvetica,sans-Serif" font-size="10.00">core/internal/MojNew.h</text>
</a>
</g>
<!-- Node2&#45;&gt;Node4 -->
<g id="edge6" class="edge"><title>Node2&#45;&gt;Node4</title>
<path fill="none" stroke="midnightblue" d="M677.269,-232.497C658.526,-223.438 631.233,-210.246 610.164,-200.063"/>
<polygon fill="midnightblue" stroke="midnightblue" points="611.502,-196.822 600.975,-195.621 608.455,-203.124 611.502,-196.822"/>
</g>
<!-- Node6 -->
<g id="node11" class="node"><title>Node6</title>
<a xlink:href="MojErr_8h.htm" target="_top" xlink:title="core/MojErr.h">
<polygon fill="white" stroke="black" points="659,-174.5 659,-195.5 739,-195.5 739,-174.5 659,-174.5"/>
<text text-anchor="middle" x="699" y="-182.5" font-family="Helvetica,sans-Serif" font-size="10.00">core/MojErr.h</text>
</a>
</g>
<!-- Node2&#45;&gt;Node6 -->
<g id="edge10" class="edge"><title>Node2&#45;&gt;Node6</title>
<path fill="none" stroke="midnightblue" d="M699,-232.362C699,-224.922 699,-214.743 699,-205.728"/>
<polygon fill="midnightblue" stroke="midnightblue" points="702.5,-205.571 699,-195.571 695.5,-205.571 702.5,-205.571"/>
</g>
<!-- Node10 -->
<g id="node19" class="node"><title>Node10</title>
<a xlink:href="MojOs_8h.htm" target="_top" xlink:title="core/MojOs.h">
<polygon fill="white" stroke="black" points="757,-174.5 757,-195.5 837,-195.5 837,-174.5 757,-174.5"/>
<text text-anchor="middle" x="797" y="-182.5" font-family="Helvetica,sans-Serif" font-size="10.00">core/MojOs.h</text>
</a>
</g>
<!-- Node2&#45;&gt;Node10 -->
<g id="edge18" class="edge"><title>Node2&#45;&gt;Node10</title>
<path fill="none" stroke="midnightblue" d="M716.975,-232.362C731.894,-223.532 753.333,-210.844 770.266,-200.822"/>
<polygon fill="midnightblue" stroke="midnightblue" points="772.316,-203.676 779.139,-195.571 768.751,-197.652 772.316,-203.676"/>
</g>
<!-- Node5 -->
<g id="node9" class="node"><title>Node5</title>
<polygon fill="white" stroke="#bfbfbf" points="561,-116.5 561,-137.5 597,-137.5 597,-116.5 561,-116.5"/>
<text text-anchor="middle" x="579" y="-124.5" font-family="Helvetica,sans-Serif" font-size="10.00">new</text>
</g>
<!-- Node4&#45;&gt;Node5 -->
<g id="edge8" class="edge"><title>Node4&#45;&gt;Node5</title>
<path fill="none" stroke="midnightblue" d="M579,-174.362C579,-166.922 579,-156.743 579,-147.728"/>
<polygon fill="midnightblue" stroke="midnightblue" points="582.5,-147.571 579,-137.571 575.5,-147.571 582.5,-147.571"/>
</g>
<!-- Node7 -->
<g id="node13" class="node"><title>Node7</title>
<a xlink:href="MojLog_8h.htm" target="_top" xlink:title="core/MojLog.h">
<polygon fill="white" stroke="black" points="657,-116.5 657,-137.5 741,-137.5 741,-116.5 657,-116.5"/>
<text text-anchor="middle" x="699" y="-124.5" font-family="Helvetica,sans-Serif" font-size="10.00">core/MojLog.h</text>
</a>
</g>
<!-- Node6&#45;&gt;Node7 -->
<g id="edge12" class="edge"><title>Node6&#45;&gt;Node7</title>
<path fill="none" stroke="midnightblue" d="M699,-174.362C699,-166.922 699,-156.743 699,-147.728"/>
<polygon fill="midnightblue" stroke="midnightblue" points="702.5,-147.571 699,-137.571 695.5,-147.571 702.5,-147.571"/>
</g>
<!-- Node8 -->
<g id="node15" class="node"><title>Node8</title>
<a xlink:href="MojListEntry_8h.htm" target="_top" xlink:title="core/MojListEntry.h">
<polygon fill="white" stroke="black" points="810.5,-58.5 810.5,-79.5 917.5,-79.5 917.5,-58.5 810.5,-58.5"/>
<text text-anchor="middle" x="864" y="-66.5" font-family="Helvetica,sans-Serif" font-size="10.00">core/MojListEntry.h</text>
</a>
</g>
<!-- Node7&#45;&gt;Node8 -->
<g id="edge14" class="edge"><title>Node7&#45;&gt;Node8</title>
<path fill="none" stroke="midnightblue" d="M728.88,-116.497C755.663,-107.082 795.145,-93.2036 824.522,-82.8773"/>
<polygon fill="midnightblue" stroke="midnightblue" points="825.79,-86.1413 834.064,-79.5231 823.469,-79.5374 825.79,-86.1413"/>
</g>
<!-- Node9 -->
<g id="node17" class="node"><title>Node9</title>
<a xlink:href="MojNoCopy_8h.htm" target="_top" xlink:title="core/MojNoCopy.h">
<polygon fill="white" stroke="black" points="935,-0.5 935,-21.5 1039,-21.5 1039,-0.5 935,-0.5"/>
<text text-anchor="middle" x="987" y="-8.5" font-family="Helvetica,sans-Serif" font-size="10.00">core/MojNoCopy.h</text>
</a>
</g>
<!-- Node8&#45;&gt;Node9 -->
<g id="edge16" class="edge"><title>Node8&#45;&gt;Node9</title>
<path fill="none" stroke="midnightblue" d="M886.274,-58.4966C905.572,-49.397 933.713,-36.1273 955.348,-25.9253"/>
<polygon fill="midnightblue" stroke="midnightblue" points="956.924,-29.052 964.476,-21.6212 953.938,-22.7206 956.924,-29.052"/>
</g>
<!-- Node11 -->
<g id="node21" class="node"><title>Node11</title>
<a xlink:href="MojOsInternal_8h.htm" target="_top" xlink:title="core/internal/MojOsInternal.h">
<polygon fill="white" stroke="black" points="759,-116.5 759,-137.5 913,-137.5 913,-116.5 759,-116.5"/>
<text text-anchor="middle" x="836" y="-124.5" font-family="Helvetica,sans-Serif" font-size="10.00">core/internal/MojOsInternal.h</text>
</a>
</g>
<!-- Node10&#45;&gt;Node11 -->
<g id="edge20" class="edge"><title>Node10&#45;&gt;Node11</title>
<path fill="none" stroke="midnightblue" d="M804.153,-174.362C809.486,-166.431 816.911,-155.389 823.251,-145.961"/>
<polygon fill="midnightblue" stroke="midnightblue" points="826.217,-147.822 828.892,-137.571 820.408,-143.916 826.217,-147.822"/>
</g>
<!-- Node12&#45;&gt;Node2 -->
<g id="edge24" class="edge"><title>Node12&#45;&gt;Node2</title>
<path fill="none" stroke="midnightblue" d="M646.802,-732.568C755.566,-725.222 1034,-698.641 1034,-619 1034,-619 1034,-619 1034,-561 1034,-434.227 1058.67,-346.129 945,-290 913.978,-274.682 826.461,-260.246 764.677,-251.515"/>
<polygon fill="midnightblue" stroke="midnightblue" points="764.999,-248.026 754.611,-250.11 764.032,-254.959 764.999,-248.026"/>
</g>
<!-- Node13 -->
<g id="node26" class="node"><title>Node13</title>
<a xlink:href="MojAutoPtr_8h.htm" target="_top" xlink:title="core/MojAutoPtr.h">
<polygon fill="white" stroke="black" points="746.5,-427.5 746.5,-448.5 847.5,-448.5 847.5,-427.5 746.5,-427.5"/>
<text text-anchor="middle" x="797" y="-435.5" font-family="Helvetica,sans-Serif" font-size="10.00">core/MojAutoPtr.h</text>
</a>
</g>
<!-- Node12&#45;&gt;Node13 -->
<g id="edge26" class="edge"><title>Node12&#45;&gt;Node13</title>
<path fill="none" stroke="midnightblue" d="M646.701,-730.15C740.854,-718.267 958,-683.835 958,-619 958,-619 958,-619 958,-561 958,-529.192 960.402,-515.531 939,-492 917.966,-468.874 885.97,-455.586 857.671,-447.985"/>
<polygon fill="midnightblue" stroke="midnightblue" points="858.39,-444.557 847.84,-445.526 856.692,-451.348 858.39,-444.557"/>
</g>
<!-- Node16 -->
<g id="node35" class="node"><title>Node16</title>
<a xlink:href="MojMap_8h.htm" target="_top" xlink:title="core/MojMap.h">
<polygon fill="white" stroke="black" points="225.5,-550.5 225.5,-571.5 312.5,-571.5 312.5,-550.5 225.5,-550.5"/>
<text text-anchor="middle" x="269" y="-558.5" font-family="Helvetica,sans-Serif" font-size="10.00">core/MojMap.h</text>
</a>
</g>
<!-- Node12&#45;&gt;Node16 -->
<g id="edge38" class="edge"><title>Node12&#45;&gt;Node16</title>
<path fill="none" stroke="midnightblue" d="M583.549,-724.377C526.546,-694.77 365.69,-611.221 298.777,-576.466"/>
<polygon fill="midnightblue" stroke="midnightblue" points="300.097,-573.208 289.609,-571.705 296.871,-579.42 300.097,-573.208"/>
</g>
<!-- Node19 -->
<g id="node45" class="node"><title>Node19</title>
<a xlink:href="MojObject_8h.htm" target="_top" xlink:title="core/MojObject.h">
<polygon fill="white" stroke="black" points="247,-666.5 247,-687.5 343,-687.5 343,-666.5 247,-666.5"/>
<text text-anchor="middle" x="295" y="-674.5" font-family="Helvetica,sans-Serif" font-size="10.00">core/MojObject.h</text>
</a>
</g>
<!-- Node12&#45;&gt;Node19 -->
<g id="edge52" class="edge"><title>Node12&#45;&gt;Node19</title>
<path fill="none" stroke="midnightblue" d="M561.359,-726.996C507.286,-716.847 413.813,-699.302 353.21,-687.926"/>
<polygon fill="midnightblue" stroke="midnightblue" points="353.511,-684.422 343.036,-686.017 352.219,-691.301 353.511,-684.422"/>
</g>
<!-- Node24 -->
<g id="node61" class="node"><title>Node24</title>
<a xlink:href="MojString_8h.htm" target="_top" xlink:title="core/MojString.h">
<polygon fill="white" stroke="black" points="443,-608.5 443,-629.5 537,-629.5 537,-608.5 443,-608.5"/>
<text text-anchor="middle" x="490" y="-616.5" font-family="Helvetica,sans-Serif" font-size="10.00">core/MojString.h</text>
</a>
</g>
<!-- Node12&#45;&gt;Node24 -->
<g id="edge108" class="edge"><title>Node12&#45;&gt;Node24</title>
<path fill="none" stroke="midnightblue" d="M593.479,-724.295C573.883,-704.355 531.607,-661.337 507.597,-636.906"/>
<polygon fill="midnightblue" stroke="midnightblue" points="510.001,-634.358 500.495,-629.679 505.008,-639.265 510.001,-634.358"/>
</g>
<!-- Node25 -->
<g id="node67" class="node"><title>Node25</title>
<a xlink:href="MojVector_8h.htm" target="_top" xlink:title="core/MojVector.h">
<polygon fill="white" stroke="black" points="555.5,-550.5 555.5,-571.5 652.5,-571.5 652.5,-550.5 555.5,-550.5"/>
<text text-anchor="middle" x="604" y="-558.5" font-family="Helvetica,sans-Serif" font-size="10.00">core/MojVector.h</text>
</a>
</g>
<!-- Node12&#45;&gt;Node25 -->
<g id="edge110" class="edge"><title>Node12&#45;&gt;Node25</title>
<path fill="none" stroke="midnightblue" d="M604,-724.377C604,-696.293 604,-619.673 604,-582.203"/>
<polygon fill="midnightblue" stroke="midnightblue" points="607.5,-581.928 604,-571.928 600.5,-581.928 607.5,-581.928"/>
</g>
<!-- Node13&#45;&gt;Node2 -->
<g id="edge28" class="edge"><title>Node13&#45;&gt;Node2</title>
<path fill="none" stroke="midnightblue" d="M795.409,-427.326C792.561,-410.034 785.668,-375.102 773,-348 757.548,-314.942 731.618,-281.248 714.916,-261.235"/>
<polygon fill="midnightblue" stroke="midnightblue" points="717.521,-258.896 708.381,-253.538 712.185,-263.426 717.521,-258.896"/>
</g>
<!-- Node13&#45;&gt;Node9 -->
<g id="edge34" class="edge"><title>Node13&#45;&gt;Node9</title>
<path fill="none" stroke="midnightblue" d="M845.22,-427.432C933.019,-406.788 1110,-358.093 1110,-301 1110,-301 1110,-301 1110,-127 1110,-78.4994 1058.76,-44.2821 1022.42,-26.1154"/>
<polygon fill="midnightblue" stroke="midnightblue" points="1023.61,-22.8055 1013.09,-21.6309 1020.58,-29.1154 1023.61,-22.8055"/>
</g>
<!-- Node14 -->
<g id="node29" class="node"><title>Node14</title>
<a xlink:href="MojAtomicInt_8h.htm" target="_top" xlink:title="core/MojAtomicInt.h">
<polygon fill="white" stroke="black" points="820,-355.5 820,-376.5 930,-376.5 930,-355.5 820,-355.5"/>
<text text-anchor="middle" x="875" y="-363.5" font-family="Helvetica,sans-Serif" font-size="10.00">core/MojAtomicInt.h</text>
</a>
</g>
<!-- Node13&#45;&gt;Node14 -->
<g id="edge30" class="edge"><title>Node13&#45;&gt;Node14</title>
<path fill="none" stroke="midnightblue" d="M808.509,-427.376C820.952,-415.89 840.991,-397.393 855.822,-383.703"/>
<polygon fill="midnightblue" stroke="midnightblue" points="858.47,-386.022 863.444,-376.667 853.722,-380.878 858.47,-386.022"/>
</g>
<!-- Node15 -->
<g id="node33" class="node"><title>Node15</title>
<a xlink:href="MojAutoPtrInternal_8h.htm" target="_top" xlink:title="core/internal/MojAutoPtr\lInternal.h">
<polygon fill="white" stroke="black" points="633.5,-349 633.5,-383 764.5,-383 764.5,-349 633.5,-349"/>
<text text-anchor="start" x="641.5" y="-370" font-family="Helvetica,sans-Serif" font-size="10.00">core/internal/MojAutoPtr</text>
<text text-anchor="middle" x="699" y="-357" font-family="Helvetica,sans-Serif" font-size="10.00">Internal.h</text>
</a>
</g>
<!-- Node13&#45;&gt;Node15 -->
<g id="edge36" class="edge"><title>Node13&#45;&gt;Node15</title>
<path fill="none" stroke="midnightblue" d="M782.54,-427.376C768.905,-417.358 748.009,-402.007 730.528,-389.163"/>
<polygon fill="midnightblue" stroke="midnightblue" points="732.398,-386.195 722.267,-383.094 728.254,-391.836 732.398,-386.195"/>
</g>
<!-- Node14&#45;&gt;Node2 -->
<g id="edge32" class="edge"><title>Node14&#45;&gt;Node2</title>
<path fill="none" stroke="midnightblue" d="M867.636,-355.369C856.095,-339.365 832.327,-308.945 806,-290 786.522,-275.984 762.204,-264.887 741.675,-257.004"/>
<polygon fill="midnightblue" stroke="midnightblue" points="742.834,-253.7 732.241,-253.501 740.398,-260.263 742.834,-253.7"/>
</g>
<!-- Node16&#45;&gt;Node2 -->
<g id="edge40" class="edge"><title>Node16&#45;&gt;Node2</title>
<path fill="none" stroke="midnightblue" d="M253.596,-550.287C242.273,-541.676 227.298,-528.634 218,-514 199.004,-484.103 194,-473.422 194,-438 194,-438 194,-438 194,-366 194,-330.578 190.483,-312.305 218,-290 249.58,-264.402 509.01,-250.625 633.209,-245.442"/>
<polygon fill="midnightblue" stroke="midnightblue" points="633.507,-248.933 643.355,-245.025 633.219,-241.939 633.507,-248.933"/>
</g>
<!-- Node17 -->
<g id="node38" class="node"><title>Node17</title>
<a xlink:href="MojComp_8h.htm" target="_top" xlink:title="core/MojComp.h">
<polygon fill="white" stroke="black" points="410,-290.5 410,-311.5 504,-311.5 504,-290.5 410,-290.5"/>
<text text-anchor="middle" x="457" y="-298.5" font-family="Helvetica,sans-Serif" font-size="10.00">core/MojComp.h</text>
</a>
</g>
<!-- Node16&#45;&gt;Node17 -->
<g id="edge42" class="edge"><title>Node16&#45;&gt;Node17</title>
<path fill="none" stroke="midnightblue" d="M268.993,-550.074C269.564,-515.632 275.971,-408.063 332,-348 349.861,-328.853 376.292,-317.452 400.254,-310.69"/>
<polygon fill="midnightblue" stroke="midnightblue" points="401.196,-314.061 409.989,-308.151 399.429,-307.288 401.196,-314.061"/>
</g>
<!-- Node18 -->
<g id="node41" class="node"><title>Node18</title>
<a xlink:href="MojRbTreeBase_8h.htm" target="_top" xlink:title="core/internal/MojRbTreeBase.h">
<polygon fill="white" stroke="black" points="298,-492.5 298,-513.5 462,-513.5 462,-492.5 298,-492.5"/>
<text text-anchor="middle" x="380" y="-500.5" font-family="Helvetica,sans-Serif" font-size="10.00">core/internal/MojRbTreeBase.h</text>
</a>
</g>
<!-- Node16&#45;&gt;Node18 -->
<g id="edge46" class="edge"><title>Node16&#45;&gt;Node18</title>
<path fill="none" stroke="midnightblue" d="M289.101,-550.497C306.282,-541.519 331.23,-528.484 350.645,-518.339"/>
<polygon fill="midnightblue" stroke="midnightblue" points="352.431,-521.354 359.673,-513.621 349.189,-515.15 352.431,-521.354"/>
</g>
<!-- Node17&#45;&gt;Node2 -->
<g id="edge44" class="edge"><title>Node17&#45;&gt;Node2</title>
<path fill="none" stroke="midnightblue" d="M500.824,-290.497C541.387,-280.775 601.809,-266.294 645.265,-255.879"/>
<polygon fill="midnightblue" stroke="midnightblue" points="646.185,-259.257 655.093,-253.523 644.553,-252.45 646.185,-259.257"/>
</g>
<!-- Node18&#45;&gt;Node2 -->
<g id="edge48" class="edge"><title>Node18&#45;&gt;Node2</title>
<path fill="none" stroke="midnightblue" d="M363.74,-492.423C352.485,-484.058 338.418,-471.267 332,-456 313.398,-411.751 311.733,-391.512 332,-348 348.915,-311.684 364.547,-306.617 401,-290 441.282,-271.637 558.309,-257.031 633.159,-249.228"/>
<polygon fill="midnightblue" stroke="midnightblue" points="633.839,-252.676 643.429,-248.172 633.123,-245.713 633.839,-252.676"/>
</g>
<!-- Node18&#45;&gt;Node13 -->
<g id="edge50" class="edge"><title>Node18&#45;&gt;Node13</title>
<path fill="none" stroke="midnightblue" d="M447.462,-492.484C527.43,-480.019 659.509,-459.432 736.364,-447.452"/>
<polygon fill="midnightblue" stroke="midnightblue" points="737.03,-450.89 746.372,-445.892 735.952,-443.974 737.03,-450.89"/>
</g>
<!-- Node19&#45;&gt;Node2 -->
<g id="edge54" class="edge"><title>Node19&#45;&gt;Node2</title>
<path fill="none" stroke="midnightblue" d="M246.947,-668.399C163.355,-652.058 0,-613.418 0,-561 0,-561 0,-561 0,-366 0,-318.855 31.2837,-309.948 74,-290 123.725,-266.779 483.214,-250.969 633.37,-245.31"/>
<polygon fill="midnightblue" stroke="midnightblue" points="633.521,-248.807 643.383,-244.936 633.259,-241.812 633.521,-248.807"/>
</g>
<!-- Node19&#45;&gt;Node16 -->
<g id="edge72" class="edge"><title>Node19&#45;&gt;Node16</title>
<path fill="none" stroke="midnightblue" d="M292.601,-666.295C288.286,-647.045 279.151,-606.289 273.597,-581.509"/>
<polygon fill="midnightblue" stroke="midnightblue" points="276.996,-580.672 271.394,-571.679 270.166,-582.203 276.996,-580.672"/>
</g>
<!-- Node20 -->
<g id="node48" class="node"><title>Node20</title>
<a xlink:href="MojDecimal_8h.htm" target="_top" xlink:title="core/MojDecimal.h">
<polygon fill="white" stroke="black" points="64,-550.5 64,-571.5 168,-571.5 168,-550.5 64,-550.5"/>
<text text-anchor="middle" x="116" y="-558.5" font-family="Helvetica,sans-Serif" font-size="10.00">core/MojDecimal.h</text>
</a>
</g>
<!-- Node19&#45;&gt;Node20 -->
<g id="edge56" class="edge"><title>Node19&#45;&gt;Node20</title>
<path fill="none" stroke="midnightblue" d="M278.481,-666.295C246.965,-645.871 178.092,-601.238 140.94,-577.162"/>
<polygon fill="midnightblue" stroke="midnightblue" points="142.516,-574.013 132.221,-571.512 138.709,-579.887 142.516,-574.013"/>
</g>
<!-- Node19&#45;&gt;Node24 -->
<g id="edge74" class="edge"><title>Node19&#45;&gt;Node24</title>
<path fill="none" stroke="midnightblue" d="M330.313,-666.497C362.379,-656.959 409.845,-642.841 444.696,-632.475"/>
<polygon fill="midnightblue" stroke="midnightblue" points="446.034,-635.729 454.621,-629.523 444.038,-629.019 446.034,-635.729"/>
</g>
<!-- Node19&#45;&gt;Node25 -->
<g id="edge106" class="edge"><title>Node19&#45;&gt;Node25</title>
<path fill="none" stroke="midnightblue" d="M343.077,-671.893C406.005,-664.551 512.26,-649.699 546,-630 566.448,-618.062 582.986,-596.132 593.092,-580.192"/>
<polygon fill="midnightblue" stroke="midnightblue" points="596.097,-581.987 598.281,-571.62 590.109,-578.362 596.097,-581.987"/>
</g>
<!-- Node20&#45;&gt;Node2 -->
<g id="edge58" class="edge"><title>Node20&#45;&gt;Node2</title>
<path fill="none" stroke="midnightblue" d="M97.0257,-550.47C83.8723,-542.211 66.9885,-529.53 57,-514 38.166,-484.716 38,-472.817 38,-438 38,-438 38,-438 38,-366 38,-303.619 96.9704,-310.171 156,-290 242.656,-260.389 508.689,-248.687 633.311,-244.74"/>
<polygon fill="midnightblue" stroke="midnightblue" points="633.592,-248.233 643.479,-244.425 633.376,-241.236 633.592,-248.233"/>
</g>
<!-- Node21 -->
<g id="node51" class="node"><title>Node21</title>
<a xlink:href="MojHasher_8h.htm" target="_top" xlink:title="core/MojHasher.h">
<polygon fill="white" stroke="black" points="65.5,-492.5 65.5,-513.5 166.5,-513.5 166.5,-492.5 65.5,-492.5"/>
<text text-anchor="middle" x="116" y="-500.5" font-family="Helvetica,sans-Serif" font-size="10.00">core/MojHasher.h</text>
</a>
</g>
<!-- Node20&#45;&gt;Node21 -->
<g id="edge60" class="edge"><title>Node20&#45;&gt;Node21</title>
<path fill="none" stroke="midnightblue" d="M116,-550.362C116,-542.922 116,-532.743 116,-523.728"/>
<polygon fill="midnightblue" stroke="midnightblue" points="119.5,-523.571 116,-513.571 112.5,-523.571 119.5,-523.571"/>
</g>
<!-- Node21&#45;&gt;Node2 -->
<g id="edge62" class="edge"><title>Node21&#45;&gt;Node2</title>
<path fill="none" stroke="midnightblue" d="M115.45,-492.399C114.259,-457.052 115.69,-342.497 180,-290 214.375,-261.939 500.872,-249.284 632.873,-244.903"/>
<polygon fill="midnightblue" stroke="midnightblue" points="633.368,-248.389 643.249,-244.565 633.14,-241.392 633.368,-248.389"/>
</g>
<!-- Node22 -->
<g id="node54" class="node"><title>Node22</title>
<a xlink:href="MojUtil_8h.htm" target="_top" xlink:title="core/MojUtil.h">
<polygon fill="white" stroke="black" points="373.5,-427.5 373.5,-448.5 454.5,-448.5 454.5,-427.5 373.5,-427.5"/>
<text text-anchor="middle" x="414" y="-435.5" font-family="Helvetica,sans-Serif" font-size="10.00">core/MojUtil.h</text>
</a>
</g>
<!-- Node21&#45;&gt;Node22 -->
<g id="edge64" class="edge"><title>Node21&#45;&gt;Node22</title>
<path fill="none" stroke="midnightblue" d="M164.21,-492.484C218.797,-480.578 307.359,-461.261 363.052,-449.113"/>
<polygon fill="midnightblue" stroke="midnightblue" points="364.028,-452.482 373.053,-446.931 362.537,-445.643 364.028,-452.482"/>
</g>
<!-- Node22&#45;&gt;Node2 -->
<g id="edge66" class="edge"><title>Node22&#45;&gt;Node2</title>
<path fill="none" stroke="midnightblue" d="M442.281,-427.448C474.709,-415.126 525.629,-395.029 543,-384 599.943,-347.847 655.95,-290.434 682.711,-261.28"/>
<polygon fill="midnightblue" stroke="midnightblue" points="685.625,-263.278 689.754,-253.521 680.442,-258.573 685.625,-263.278"/>
</g>
<!-- Node23 -->
<g id="node57" class="node"><title>Node23</title>
<a xlink:href="MojUtilInternal_8h.htm" target="_top" xlink:title="core/internal/MojUtilInternal.h">
<polygon fill="white" stroke="black" points="379.5,-355.5 379.5,-376.5 534.5,-376.5 534.5,-355.5 379.5,-355.5"/>
<text text-anchor="middle" x="457" y="-363.5" font-family="Helvetica,sans-Serif" font-size="10.00">core/internal/MojUtilInternal.h</text>
</a>
</g>
<!-- Node22&#45;&gt;Node23 -->
<g id="edge68" class="edge"><title>Node22&#45;&gt;Node23</title>
<path fill="none" stroke="midnightblue" d="M420.345,-427.376C426.887,-416.422 437.238,-399.09 445.274,-385.634"/>
<polygon fill="midnightblue" stroke="midnightblue" points="448.507,-387.047 450.629,-376.667 442.497,-383.458 448.507,-387.047"/>
</g>
<!-- Node23&#45;&gt;Node17 -->
<g id="edge70" class="edge"><title>Node23&#45;&gt;Node17</title>
<path fill="none" stroke="midnightblue" d="M457,-355.267C457,-346.18 457,-332.892 457,-321.74"/>
<polygon fill="midnightblue" stroke="midnightblue" points="460.5,-321.534 457,-311.534 453.5,-321.534 460.5,-321.534"/>
</g>
<!-- Node24&#45;&gt;Node2 -->
<g id="edge76" class="edge"><title>Node24&#45;&gt;Node2</title>
<path fill="none" stroke="midnightblue" d="M460.614,-608.469C419.147,-592.601 342.553,-559.506 289,-514 256.825,-486.66 232,-480.222 232,-438 232,-438 232,-438 232,-366 232,-284.063 504.232,-255.543 632.995,-246.636"/>
<polygon fill="midnightblue" stroke="midnightblue" points="633.39,-250.118 643.133,-245.955 632.921,-243.133 633.39,-250.118"/>
</g>
<!-- Node24&#45;&gt;Node13 -->
<g id="edge78" class="edge"><title>Node24&#45;&gt;Node13</title>
<path fill="none" stroke="midnightblue" d="M497.801,-608.067C508.186,-593.885 527.517,-568.745 547,-550 577.619,-520.54 585.241,-511.485 623,-492 659.071,-473.386 702.704,-459.864 737.252,-451.007"/>
<polygon fill="midnightblue" stroke="midnightblue" points="738.349,-454.34 747.201,-448.52 736.651,-447.549 738.349,-454.34"/>
</g>
<!-- Node24&#45;&gt;Node17 -->
<g id="edge80" class="edge"><title>Node24&#45;&gt;Node17</title>
<path fill="none" stroke="midnightblue" d="M491.774,-608.34C495.103,-584.485 499.586,-526.219 471,-492 439.102,-453.817 393.978,-496.445 365,-456 354.267,-441.019 358.788,-366.767 371,-348 380.453,-333.474 395.998,-323.066 411.292,-315.8"/>
<polygon fill="midnightblue" stroke="midnightblue" points="412.966,-318.887 420.725,-311.672 410.16,-312.474 412.966,-318.887"/>
</g>
<!-- Node24&#45;&gt;Node21 -->
<g id="edge82" class="edge"><title>Node24&#45;&gt;Node21</title>
<path fill="none" stroke="midnightblue" d="M442.942,-616.979C387.176,-613.226 292.33,-602.518 217,-572 200.538,-565.331 162.466,-537.917 138.053,-519.716"/>
<polygon fill="midnightblue" stroke="midnightblue" points="140.146,-516.91 130.046,-513.711 135.947,-522.511 140.146,-516.91"/>
</g>
<!-- Node24&#45;&gt;Node25 -->
<g id="edge84" class="edge"><title>Node24&#45;&gt;Node25</title>
<path fill="none" stroke="midnightblue" d="M510.645,-608.497C528.37,-599.479 554.145,-586.365 574.123,-576.201"/>
<polygon fill="midnightblue" stroke="midnightblue" points="575.798,-579.275 583.124,-571.621 572.624,-573.036 575.798,-579.275"/>
</g>
<!-- Node25&#45;&gt;Node2 -->
<g id="edge86" class="edge"><title>Node25&#45;&gt;Node2</title>
<path fill="none" stroke="midnightblue" d="M652.613,-558.736C733.499,-554.226 891.525,-542.03 939,-514 975.358,-492.534 996,-480.222 996,-438 996,-438 996,-438 996,-366 996,-313.646 952.859,-313.349 906,-290 861.663,-267.908 806.817,-256.058 764.721,-249.785"/>
<polygon fill="midnightblue" stroke="midnightblue" points="764.975,-246.286 754.582,-248.345 763.99,-253.217 764.975,-246.286"/>
</g>
<!-- Node25&#45;&gt;Node17 -->
<g id="edge88" class="edge"><title>Node25&#45;&gt;Node17</title>
<path fill="none" stroke="midnightblue" d="M606.654,-550.465C613.634,-521.891 631.285,-443.49 621,-420 597.815,-367.046 536.821,-333.042 496.111,-315.479"/>
<polygon fill="midnightblue" stroke="midnightblue" points="497.317,-312.19 486.74,-311.571 494.622,-318.651 497.317,-312.19"/>
</g>
<!-- Node25&#45;&gt;Node22 -->
<g id="edge102" class="edge"><title>Node25&#45;&gt;Node22</title>
<path fill="none" stroke="midnightblue" d="M589.29,-550.414C569.964,-536.608 534.855,-511.873 504,-492 483.258,-478.641 459.281,-464.307 441.293,-453.767"/>
<polygon fill="midnightblue" stroke="midnightblue" points="442.882,-450.642 432.481,-448.626 439.355,-456.688 442.882,-450.642"/>
</g>
<!-- Node26 -->
<g id="node71" class="node"><title>Node26</title>
<a xlink:href="MojRefCount_8h.htm" target="_top" xlink:title="core/MojRefCount.h">
<polygon fill="white" stroke="black" points="820,-492.5 820,-513.5 930,-513.5 930,-492.5 820,-492.5"/>
<text text-anchor="middle" x="875" y="-500.5" font-family="Helvetica,sans-Serif" font-size="10.00">core/MojRefCount.h</text>
</a>
</g>
<!-- Node25&#45;&gt;Node26 -->
<g id="edge90" class="edge"><title>Node25&#45;&gt;Node26</title>
<path fill="none" stroke="midnightblue" d="M652.762,-550.564C698.526,-540.769 767.062,-526.101 815.912,-515.646"/>
<polygon fill="midnightblue" stroke="midnightblue" points="816.669,-519.064 825.715,-513.548 815.204,-512.219 816.669,-519.064"/>
</g>
<!-- Node28 -->
<g id="node80" class="node"><title>Node28</title>
<a xlink:href="MojVectorInternal_8h.htm" target="_top" xlink:title="core/internal/MojVectorInternal.h">
<polygon fill="white" stroke="black" points="631.5,-492.5 631.5,-513.5 802.5,-513.5 802.5,-492.5 631.5,-492.5"/>
<text text-anchor="middle" x="717" y="-500.5" font-family="Helvetica,sans-Serif" font-size="10.00">core/internal/MojVectorInternal.h</text>
</a>
</g>
<!-- Node25&#45;&gt;Node28 -->
<g id="edge104" class="edge"><title>Node25&#45;&gt;Node28</title>
<path fill="none" stroke="midnightblue" d="M624.463,-550.497C642.033,-541.479 667.582,-528.365 687.385,-518.201"/>
<polygon fill="midnightblue" stroke="midnightblue" points="689.009,-521.301 696.307,-513.621 685.812,-515.074 689.009,-521.301"/>
</g>
<!-- Node26&#45;&gt;Node2 -->
<g id="edge92" class="edge"><title>Node26&#45;&gt;Node2</title>
<path fill="none" stroke="midnightblue" d="M885.994,-492.342C911.317,-466.466 969.334,-398.722 939,-348 902.831,-287.521 822.523,-261.787 764.758,-250.895"/>
<polygon fill="midnightblue" stroke="midnightblue" points="765.07,-247.395 754.612,-249.089 763.844,-254.287 765.07,-247.395"/>
</g>
<!-- Node26&#45;&gt;Node13 -->
<g id="edge96" class="edge"><title>Node26&#45;&gt;Node13</title>
<path fill="none" stroke="midnightblue" d="M862.12,-492.267C849.966,-482.139 831.55,-466.792 817.399,-455"/>
<polygon fill="midnightblue" stroke="midnightblue" points="819.563,-452.247 809.64,-448.534 815.082,-457.624 819.563,-452.247"/>
</g>
<!-- Node26&#45;&gt;Node14 -->
<g id="edge94" class="edge"><title>Node26&#45;&gt;Node14</title>
<path fill="none" stroke="midnightblue" d="M875,-492.25C875,-469.541 875,-416.348 875,-386.768"/>
<polygon fill="midnightblue" stroke="midnightblue" points="878.5,-386.7 875,-376.7 871.5,-386.7 878.5,-386.7"/>
</g>
<!-- Node27 -->
<g id="node76" class="node"><title>Node27</title>
<a xlink:href="MojRefCountInternal_8h.htm" target="_top" xlink:title="core/internal/MojRefCount\lInternal.h">
<polygon fill="white" stroke="black" points="472,-421 472,-455 612,-455 612,-421 472,-421"/>
<text text-anchor="start" x="480" y="-442" font-family="Helvetica,sans-Serif" font-size="10.00">core/internal/MojRefCount</text>
<text text-anchor="middle" x="542" y="-429" font-family="Helvetica,sans-Serif" font-size="10.00">Internal.h</text>
</a>
</g>
<!-- Node26&#45;&gt;Node27 -->
<g id="edge98" class="edge"><title>Node26&#45;&gt;Node27</title>
<path fill="none" stroke="midnightblue" d="M821.128,-492.484C767.248,-481.967 683.746,-465.668 622.101,-453.635"/>
<polygon fill="midnightblue" stroke="midnightblue" points="622.503,-450.148 612.018,-451.667 621.162,-457.018 622.503,-450.148"/>
</g>
<!-- Node27&#45;&gt;Node23 -->
<g id="edge100" class="edge"><title>Node27&#45;&gt;Node23</title>
<path fill="none" stroke="midnightblue" d="M521.856,-420.937C508.44,-409.573 490.869,-394.689 477.4,-383.28"/>
<polygon fill="midnightblue" stroke="midnightblue" points="479.511,-380.481 469.618,-376.688 474.986,-385.822 479.511,-380.481"/>
</g>
<!-- Node29&#45;&gt;Node2 -->
<g id="edge114" class="edge"><title>Node29&#45;&gt;Node2</title>
<path fill="none" stroke="midnightblue" d="M1268.08,-550.193C1279.27,-529.241 1302,-481.338 1302,-438 1302,-438 1302,-438 1302,-366 1302,-264.231 1185.1,-313.16 1086,-290 974.991,-264.056 842.524,-251.905 764.894,-246.629"/>
<polygon fill="midnightblue" stroke="midnightblue" points="764.985,-243.127 754.776,-245.959 764.523,-250.112 764.985,-243.127"/>
</g>
<!-- Node29&#45;&gt;Node14 -->
<g id="edge116" class="edge"><title>Node29&#45;&gt;Node14</title>
<path fill="none" stroke="midnightblue" d="M1262.36,-550.446C1262.29,-535.526 1259.92,-508.277 1245,-492 1202.41,-445.551 1026.86,-400.178 933.699,-378.769"/>
<polygon fill="midnightblue" stroke="midnightblue" points="934.382,-375.335 923.854,-376.525 932.826,-382.16 934.382,-375.335"/>
</g>
<!-- Node30 -->
<g id="node89" class="node"><title>Node30</title>
<a xlink:href="MojThreadInternal_8h.htm" target="_top" xlink:title="core/internal/MojThreadInternal.h">
<polygon fill="white" stroke="black" points="1061.5,-492.5 1061.5,-513.5 1236.5,-513.5 1236.5,-492.5 1061.5,-492.5"/>
<text text-anchor="middle" x="1149" y="-500.5" font-family="Helvetica,sans-Serif" font-size="10.00">core/internal/MojThreadInternal.h</text>
</a>
</g>
<!-- Node29&#45;&gt;Node30 -->
<g id="edge118" class="edge"><title>Node29&#45;&gt;Node30</title>
<path fill="none" stroke="midnightblue" d="M1241.54,-550.497C1223.97,-541.479 1198.42,-528.365 1178.61,-518.201"/>
<polygon fill="midnightblue" stroke="midnightblue" points="1180.19,-515.074 1169.69,-513.621 1176.99,-521.301 1180.19,-515.074"/>
</g>
<!-- Node30&#45;&gt;Node13 -->
<g id="edge120" class="edge"><title>Node30&#45;&gt;Node13</title>
<path fill="none" stroke="midnightblue" d="M1092.05,-492.484C1027.78,-480.616 923.626,-461.383 857.805,-449.228"/>
<polygon fill="midnightblue" stroke="midnightblue" points="858.052,-445.715 847.582,-447.34 856.78,-452.598 858.052,-445.715"/>
</g>
</g>
</svg>
