<?xml version="1.0" encoding="UTF-8" standalone="no"?>
<!DOCTYPE svg PUBLIC "-//W3C//DTD SVG 1.1//EN"
 "http://www.w3.org/Graphics/SVG/1.1/DTD/svg11.dtd">
<!-- Generated by graphviz version 2.26.3 (20100126.1600)
 -->
<!-- Title: MojThread.h Pages: 1 -->
<svg width="703pt" height="508pt"
 viewBox="0.00 0.00 703.00 508.00" xmlns="http://www.w3.org/2000/svg" xmlns:xlink="http://www.w3.org/1999/xlink">
<g id="graph1" class="graph" transform="scale(1 1) rotate(0) translate(4 504)">
<title>MojThread.h</title>
<polygon fill="white" stroke="white" points="-4,5 -4,-504 700,-504 700,5 -4,5"/>
<!-- Node1 -->
<g id="node1" class="node"><title>Node1</title>
<polygon fill="#bfbfbf" stroke="black" points="361.5,-478.5 361.5,-499.5 438.5,-499.5 438.5,-478.5 361.5,-478.5"/>
<text text-anchor="middle" x="400" y="-486.5" font-family="Helvetica,sans-Serif" font-size="10.00">MojThread.h</text>
</g>
<!-- Node2 -->
<g id="node3" class="node"><title>Node2</title>
<a xlink:href="MojCoreDefs_8h.htm" target="_top" xlink:title="core/MojCoreDefs.h">
<polygon fill="white" stroke="black" points="278.5,-232.5 278.5,-253.5 389.5,-253.5 389.5,-232.5 278.5,-232.5"/>
<text text-anchor="middle" x="334" y="-240.5" font-family="Helvetica,sans-Serif" font-size="10.00">core/MojCoreDefs.h</text>
</a>
</g>
<!-- Node1&#45;&gt;Node2 -->
<g id="edge2" class="edge"><title>Node1&#45;&gt;Node2</title>
<path fill="none" stroke="midnightblue" d="M396.585,-478.394C388.316,-452.52 366.814,-384.024 352,-326 346.584,-304.788 341.396,-280.261 337.993,-263.401"/>
<polygon fill="midnightblue" stroke="midnightblue" points="341.415,-262.664 336.03,-253.539 334.549,-264.03 341.415,-262.664"/>
</g>
<!-- Node12 -->
<g id="node23" class="node"><title>Node12</title>
<a xlink:href="MojAtomicInt_8h.htm" target="_top" xlink:title="core/MojAtomicInt.h">
<polygon fill="white" stroke="black" points="361,-297.5 361,-318.5 471,-318.5 471,-297.5 361,-297.5"/>
<text text-anchor="middle" x="416" y="-305.5" font-family="Helvetica,sans-Serif" font-size="10.00">core/MojAtomicInt.h</text>
</a>
</g>
<!-- Node1&#45;&gt;Node12 -->
<g id="edge22" class="edge"><title>Node1&#45;&gt;Node12</title>
<path fill="none" stroke="midnightblue" d="M400.929,-478.486C403.503,-449.37 410.759,-367.292 414.176,-328.63"/>
<polygon fill="midnightblue" stroke="midnightblue" points="417.674,-328.812 415.068,-318.543 410.701,-328.196 417.674,-328.812"/>
</g>
<!-- Node13 -->
<g id="node26" class="node"><title>Node13</title>
<a xlink:href="MojThreadInternal_8h.htm" target="_top" xlink:title="core/internal/MojThreadInternal.h">
<polygon fill="white" stroke="black" points="427.5,-420.5 427.5,-441.5 602.5,-441.5 602.5,-420.5 427.5,-420.5"/>
<text text-anchor="middle" x="515" y="-428.5" font-family="Helvetica,sans-Serif" font-size="10.00">core/internal/MojThreadInternal.h</text>
</a>
</g>
<!-- Node1&#45;&gt;Node13 -->
<g id="edge26" class="edge"><title>Node1&#45;&gt;Node13</title>
<path fill="none" stroke="midnightblue" d="M420.826,-478.497C438.706,-469.479 464.707,-456.365 484.861,-446.201"/>
<polygon fill="midnightblue" stroke="midnightblue" points="486.588,-449.249 493.941,-441.621 483.436,-442.999 486.588,-449.249"/>
</g>
<!-- Node3 -->
<g id="node5" class="node"><title>Node3</title>
<a xlink:href="MojConfig_8h.htm" target="_top" xlink:title="core/internal/MojConfig.h">
<polygon fill="white" stroke="black" points="-0.5,-174.5 -0.5,-195.5 134.5,-195.5 134.5,-174.5 -0.5,-174.5"/>
<text text-anchor="middle" x="67" y="-182.5" font-family="Helvetica,sans-Serif" font-size="10.00">core/internal/MojConfig.h</text>
</a>
</g>
<!-- Node2&#45;&gt;Node3 -->
<g id="edge4" class="edge"><title>Node2&#45;&gt;Node3</title>
<path fill="none" stroke="midnightblue" d="M285.648,-232.497C240.613,-222.714 173.389,-208.111 125.38,-197.682"/>
<polygon fill="midnightblue" stroke="midnightblue" points="125.957,-194.226 115.442,-195.523 124.471,-201.066 125.957,-194.226"/>
</g>
<!-- Node4 -->
<g id="node7" class="node"><title>Node4</title>
<a xlink:href="MojNew_8h.htm" target="_top" xlink:title="core/internal/MojNew.h">
<polygon fill="white" stroke="black" points="151.5,-174.5 151.5,-195.5 276.5,-195.5 276.5,-174.5 151.5,-174.5"/>
<text text-anchor="middle" x="214" y="-182.5" font-family="Helvetica,sans-Serif" font-size="10.00">core/internal/MojNew.h</text>
</a>
</g>
<!-- Node2&#45;&gt;Node4 -->
<g id="edge6" class="edge"><title>Node2&#45;&gt;Node4</title>
<path fill="none" stroke="midnightblue" d="M312.269,-232.497C293.526,-223.438 266.233,-210.246 245.164,-200.063"/>
<polygon fill="midnightblue" stroke="midnightblue" points="246.502,-196.822 235.975,-195.621 243.455,-203.124 246.502,-196.822"/>
</g>
<!-- Node6 -->
<g id="node11" class="node"><title>Node6</title>
<a xlink:href="MojErr_8h.htm" target="_top" xlink:title="core/MojErr.h">
<polygon fill="white" stroke="black" points="294,-174.5 294,-195.5 374,-195.5 374,-174.5 294,-174.5"/>
<text text-anchor="middle" x="334" y="-182.5" font-family="Helvetica,sans-Serif" font-size="10.00">core/MojErr.h</text>
</a>
</g>
<!-- Node2&#45;&gt;Node6 -->
<g id="edge10" class="edge"><title>Node2&#45;&gt;Node6</title>
<path fill="none" stroke="midnightblue" d="M334,-232.362C334,-224.922 334,-214.743 334,-205.728"/>
<polygon fill="midnightblue" stroke="midnightblue" points="337.5,-205.571 334,-195.571 330.5,-205.571 337.5,-205.571"/>
</g>
<!-- Node10 -->
<g id="node19" class="node"><title>Node10</title>
<a xlink:href="MojOs_8h.htm" target="_top" xlink:title="core/MojOs.h">
<polygon fill="white" stroke="black" points="392,-174.5 392,-195.5 472,-195.5 472,-174.5 392,-174.5"/>
<text text-anchor="middle" x="432" y="-182.5" font-family="Helvetica,sans-Serif" font-size="10.00">core/MojOs.h</text>
</a>
</g>
<!-- Node2&#45;&gt;Node10 -->
<g id="edge18" class="edge"><title>Node2&#45;&gt;Node10</title>
<path fill="none" stroke="midnightblue" d="M351.975,-232.362C366.894,-223.532 388.333,-210.844 405.266,-200.822"/>
<polygon fill="midnightblue" stroke="midnightblue" points="407.316,-203.676 414.139,-195.571 403.751,-197.652 407.316,-203.676"/>
</g>
<!-- Node5 -->
<g id="node9" class="node"><title>Node5</title>
<polygon fill="white" stroke="#bfbfbf" points="196,-116.5 196,-137.5 232,-137.5 232,-116.5 196,-116.5"/>
<text text-anchor="middle" x="214" y="-124.5" font-family="Helvetica,sans-Serif" font-size="10.00">new</text>
</g>
<!-- Node4&#45;&gt;Node5 -->
<g id="edge8" class="edge"><title>Node4&#45;&gt;Node5</title>
<path fill="none" stroke="midnightblue" d="M214,-174.362C214,-166.922 214,-156.743 214,-147.728"/>
<polygon fill="midnightblue" stroke="midnightblue" points="217.5,-147.571 214,-137.571 210.5,-147.571 217.5,-147.571"/>
</g>
<!-- Node7 -->
<g id="node13" class="node"><title>Node7</title>
<a xlink:href="MojLog_8h.htm" target="_top" xlink:title="core/MojLog.h">
<polygon fill="white" stroke="black" points="253,-116.5 253,-137.5 337,-137.5 337,-116.5 253,-116.5"/>
<text text-anchor="middle" x="295" y="-124.5" font-family="Helvetica,sans-Serif" font-size="10.00">core/MojLog.h</text>
</a>
</g>
<!-- Node6&#45;&gt;Node7 -->
<g id="edge12" class="edge"><title>Node6&#45;&gt;Node7</title>
<path fill="none" stroke="midnightblue" d="M326.847,-174.362C321.514,-166.431 314.089,-155.389 307.749,-145.961"/>
<polygon fill="midnightblue" stroke="midnightblue" points="310.592,-143.916 302.108,-137.571 304.783,-147.822 310.592,-143.916"/>
</g>
<!-- Node8 -->
<g id="node15" class="node"><title>Node8</title>
<a xlink:href="MojListEntry_8h.htm" target="_top" xlink:title="core/MojListEntry.h">
<polygon fill="white" stroke="black" points="322.5,-58.5 322.5,-79.5 429.5,-79.5 429.5,-58.5 322.5,-58.5"/>
<text text-anchor="middle" x="376" y="-66.5" font-family="Helvetica,sans-Serif" font-size="10.00">core/MojListEntry.h</text>
</a>
</g>
<!-- Node7&#45;&gt;Node8 -->
<g id="edge14" class="edge"><title>Node7&#45;&gt;Node8</title>
<path fill="none" stroke="midnightblue" d="M309.857,-116.362C321.846,-107.777 338.927,-95.5459 352.728,-85.6636"/>
<polygon fill="midnightblue" stroke="midnightblue" points="355.145,-88.2383 361.238,-79.5707 351.069,-82.5469 355.145,-88.2383"/>
</g>
<!-- Node9 -->
<g id="node17" class="node"><title>Node9</title>
<a xlink:href="MojNoCopy_8h.htm" target="_top" xlink:title="core/MojNoCopy.h">
<polygon fill="white" stroke="black" points="404,-0.5 404,-21.5 508,-21.5 508,-0.5 404,-0.5"/>
<text text-anchor="middle" x="456" y="-8.5" font-family="Helvetica,sans-Serif" font-size="10.00">core/MojNoCopy.h</text>
</a>
</g>
<!-- Node8&#45;&gt;Node9 -->
<g id="edge16" class="edge"><title>Node8&#45;&gt;Node9</title>
<path fill="none" stroke="midnightblue" d="M390.673,-58.3619C402.514,-49.7773 419.385,-37.5459 433.016,-27.6636"/>
<polygon fill="midnightblue" stroke="midnightblue" points="435.378,-30.274 441.42,-21.5707 431.269,-24.6067 435.378,-30.274"/>
</g>
<!-- Node11 -->
<g id="node21" class="node"><title>Node11</title>
<a xlink:href="MojOsInternal_8h.htm" target="_top" xlink:title="core/internal/MojOsInternal.h">
<polygon fill="white" stroke="black" points="355,-116.5 355,-137.5 509,-137.5 509,-116.5 355,-116.5"/>
<text text-anchor="middle" x="432" y="-124.5" font-family="Helvetica,sans-Serif" font-size="10.00">core/internal/MojOsInternal.h</text>
</a>
</g>
<!-- Node10&#45;&gt;Node11 -->
<g id="edge20" class="edge"><title>Node10&#45;&gt;Node11</title>
<path fill="none" stroke="midnightblue" d="M432,-174.362C432,-166.922 432,-156.743 432,-147.728"/>
<polygon fill="midnightblue" stroke="midnightblue" points="435.5,-147.571 432,-137.571 428.5,-147.571 435.5,-147.571"/>
</g>
<!-- Node12&#45;&gt;Node2 -->
<g id="edge24" class="edge"><title>Node12&#45;&gt;Node2</title>
<path fill="none" stroke="midnightblue" d="M402.459,-297.267C389.683,-287.139 370.322,-271.792 355.446,-260"/>
<polygon fill="midnightblue" stroke="midnightblue" points="357.299,-257.003 347.289,-253.534 352.951,-262.488 357.299,-257.003"/>
</g>
<!-- Node14 -->
<g id="node28" class="node"><title>Node14</title>
<a xlink:href="MojAutoPtr_8h.htm" target="_top" xlink:title="core/MojAutoPtr.h">
<polygon fill="white" stroke="black" points="464.5,-362.5 464.5,-383.5 565.5,-383.5 565.5,-362.5 464.5,-362.5"/>
<text text-anchor="middle" x="515" y="-370.5" font-family="Helvetica,sans-Serif" font-size="10.00">core/MojAutoPtr.h</text>
</a>
</g>
<!-- Node13&#45;&gt;Node14 -->
<g id="edge28" class="edge"><title>Node13&#45;&gt;Node14</title>
<path fill="none" stroke="midnightblue" d="M515,-420.362C515,-412.922 515,-402.743 515,-393.728"/>
<polygon fill="midnightblue" stroke="midnightblue" points="518.5,-393.571 515,-383.571 511.5,-393.571 518.5,-393.571"/>
</g>
<!-- Node14&#45;&gt;Node2 -->
<g id="edge30" class="edge"><title>Node14&#45;&gt;Node2</title>
<path fill="none" stroke="midnightblue" d="M513.442,-362.466C510.3,-344.936 501.564,-309.753 480,-290 457.965,-269.816 427.194,-258.296 399.58,-251.723"/>
<polygon fill="midnightblue" stroke="midnightblue" points="400.09,-248.252 389.571,-249.518 398.584,-255.088 400.09,-248.252"/>
</g>
<!-- Node14&#45;&gt;Node9 -->
<g id="edge34" class="edge"><title>Node14&#45;&gt;Node9</title>
<path fill="none" stroke="midnightblue" d="M518.059,-362.318C524.104,-340.234 537,-287.865 537,-243 537,-243 537,-243 537,-127 537,-85.9121 502.416,-48.9919 478.444,-28.336"/>
<polygon fill="midnightblue" stroke="midnightblue" points="480.412,-25.4209 470.481,-21.7279 475.941,-30.8075 480.412,-25.4209"/>
</g>
<!-- Node14&#45;&gt;Node12 -->
<g id="edge32" class="edge"><title>Node14&#45;&gt;Node12</title>
<path fill="none" stroke="midnightblue" d="M498.652,-362.267C482.938,-351.949 458.975,-336.216 440.89,-324.342"/>
<polygon fill="midnightblue" stroke="midnightblue" points="442.324,-321.096 432.044,-318.534 438.482,-326.948 442.324,-321.096"/>
</g>
<!-- Node15 -->
<g id="node33" class="node"><title>Node15</title>
<a xlink:href="MojAutoPtrInternal_8h.htm" target="_top" xlink:title="core/internal/MojAutoPtr\lInternal.h">
<polygon fill="white" stroke="black" points="564.5,-291 564.5,-325 695.5,-325 695.5,-291 564.5,-291"/>
<text text-anchor="start" x="572.5" y="-312" font-family="Helvetica,sans-Serif" font-size="10.00">core/internal/MojAutoPtr</text>
<text text-anchor="middle" x="630" y="-299" font-family="Helvetica,sans-Serif" font-size="10.00">Internal.h</text>
</a>
</g>
<!-- Node14&#45;&gt;Node15 -->
<g id="edge36" class="edge"><title>Node14&#45;&gt;Node15</title>
<path fill="none" stroke="midnightblue" d="M533.733,-362.412C549.117,-353.716 571.432,-341.104 590.704,-330.211"/>
<polygon fill="midnightblue" stroke="midnightblue" points="592.609,-333.155 599.592,-325.187 589.164,-327.061 592.609,-333.155"/>
</g>
</g>
</svg>
