<?xml version="1.0" encoding="UTF-8" standalone="no"?>
<!DOCTYPE svg PUBLIC "-//W3C//DTD SVG 1.1//EN"
 "http://www.w3.org/Graphics/SVG/1.1/DTD/svg11.dtd">
<!-- Generated by graphviz version 2.26.3 (20100126.1600)
 -->
<!-- Title: MojUtil.cpp Pages: 1 -->
<svg width="822pt" height="696pt"
 viewBox="0.00 0.00 822.00 696.00" xmlns="http://www.w3.org/2000/svg" xmlns:xlink="http://www.w3.org/1999/xlink">
<g id="graph1" class="graph" transform="scale(1 1) rotate(0) translate(4 692)">
<title>MojUtil.cpp</title>
<polygon fill="white" stroke="white" points="-4,5 -4,-692 819,-692 819,5 -4,5"/>
<!-- Node1 -->
<g id="node1" class="node"><title>Node1</title>
<polygon fill="#bfbfbf" stroke="black" points="402,-666.5 402,-687.5 470,-687.5 470,-666.5 402,-666.5"/>
<text text-anchor="middle" x="436" y="-674.5" font-family="Helvetica,sans-Serif" font-size="10.00">MojUtil.cpp</text>
</g>
<!-- Node2 -->
<g id="node3" class="node"><title>Node2</title>
<a xlink:href="MojUtil_8h.htm" target="_top" xlink:title="core/MojUtil.h">
<polygon fill="white" stroke="black" points="109.5,-492.5 109.5,-513.5 190.5,-513.5 190.5,-492.5 109.5,-492.5"/>
<text text-anchor="middle" x="150" y="-500.5" font-family="Helvetica,sans-Serif" font-size="10.00">core/MojUtil.h</text>
</a>
</g>
<!-- Node1&#45;&gt;Node2 -->
<g id="edge2" class="edge"><title>Node1&#45;&gt;Node2</title>
<path fill="none" stroke="midnightblue" d="M414.447,-666.398C378.357,-648.385 303.774,-610.046 244,-572 218.199,-555.578 190.114,-534.508 171.426,-519.996"/>
<polygon fill="midnightblue" stroke="midnightblue" points="173.333,-517.044 163.301,-513.639 169.02,-522.557 173.333,-517.044"/>
</g>
<!-- Node15 -->
<g id="node30" class="node"><title>Node15</title>
<a xlink:href="MojAutoPtr_8h.htm" target="_top" xlink:title="core/MojAutoPtr.h">
<polygon fill="white" stroke="black" points="594.5,-427.5 594.5,-448.5 695.5,-448.5 695.5,-427.5 594.5,-427.5"/>
<text text-anchor="middle" x="645" y="-435.5" font-family="Helvetica,sans-Serif" font-size="10.00">core/MojAutoPtr.h</text>
</a>
</g>
<!-- Node1&#45;&gt;Node15 -->
<g id="edge30" class="edge"><title>Node1&#45;&gt;Node15</title>
<path fill="none" stroke="midnightblue" d="M451.162,-666.412C484.305,-642.603 564.069,-581.611 612,-514 624.167,-496.838 633.202,-474.48 638.713,-458.465"/>
<polygon fill="midnightblue" stroke="midnightblue" points="642.18,-459.125 641.961,-448.533 635.526,-456.95 642.18,-459.125"/>
</g>
<!-- Node18 -->
<g id="node39" class="node"><title>Node18</title>
<a xlink:href="MojString_8h.htm" target="_top" xlink:title="core/MojString.h">
<polygon fill="white" stroke="black" points="102,-608.5 102,-629.5 196,-629.5 196,-608.5 102,-608.5"/>
<text text-anchor="middle" x="149" y="-616.5" font-family="Helvetica,sans-Serif" font-size="10.00">core/MojString.h</text>
</a>
</g>
<!-- Node1&#45;&gt;Node18 -->
<g id="edge42" class="edge"><title>Node1&#45;&gt;Node18</title>
<path fill="none" stroke="midnightblue" d="M401.95,-670.119C353.595,-660.347 264.418,-642.325 205.912,-630.501"/>
<polygon fill="midnightblue" stroke="midnightblue" points="206.575,-627.065 196.08,-628.514 205.188,-633.926 206.575,-627.065"/>
</g>
<!-- Node24 -->
<g id="node63" class="node"><title>Node24</title>
<a xlink:href="MojFile_8h.htm" target="_top" xlink:title="core/MojFile.h">
<polygon fill="white" stroke="black" points="665.5,-290.5 665.5,-311.5 748.5,-311.5 748.5,-290.5 665.5,-290.5"/>
<text text-anchor="middle" x="707" y="-298.5" font-family="Helvetica,sans-Serif" font-size="10.00">core/MojFile.h</text>
</a>
</g>
<!-- Node1&#45;&gt;Node24 -->
<g id="edge78" class="edge"><title>Node1&#45;&gt;Node24</title>
<path fill="none" stroke="midnightblue" d="M470.212,-673.892C563.26,-664.503 814,-632.563 814,-561 814,-561 814,-561 814,-438 814,-385.035 763.713,-340.304 732.087,-317.409"/>
<polygon fill="midnightblue" stroke="midnightblue" points="733.916,-314.417 723.719,-311.542 729.897,-320.148 733.916,-314.417"/>
</g>
<!-- Node3 -->
<g id="node5" class="node"><title>Node3</title>
<a xlink:href="MojCoreDefs_8h.htm" target="_top" xlink:title="core/MojCoreDefs.h">
<polygon fill="white" stroke="black" points="334.5,-232.5 334.5,-253.5 445.5,-253.5 445.5,-232.5 334.5,-232.5"/>
<text text-anchor="middle" x="390" y="-240.5" font-family="Helvetica,sans-Serif" font-size="10.00">core/MojCoreDefs.h</text>
</a>
</g>
<!-- Node2&#45;&gt;Node3 -->
<g id="edge4" class="edge"><title>Node2&#45;&gt;Node3</title>
<path fill="none" stroke="midnightblue" d="M147.749,-492.167C142.852,-465.901 133.461,-397.356 157,-348 186.685,-285.759 266.204,-260.391 324.107,-250.065"/>
<polygon fill="midnightblue" stroke="midnightblue" points="325.002,-253.464 334.288,-248.363 323.847,-246.56 325.002,-253.464"/>
</g>
<!-- Node13 -->
<g id="node25" class="node"><title>Node13</title>
<a xlink:href="MojUtilInternal_8h.htm" target="_top" xlink:title="core/internal/MojUtilInternal.h">
<polygon fill="white" stroke="black" points="165.5,-355.5 165.5,-376.5 320.5,-376.5 320.5,-355.5 165.5,-355.5"/>
<text text-anchor="middle" x="243" y="-363.5" font-family="Helvetica,sans-Serif" font-size="10.00">core/internal/MojUtilInternal.h</text>
</a>
</g>
<!-- Node2&#45;&gt;Node13 -->
<g id="edge24" class="edge"><title>Node2&#45;&gt;Node13</title>
<path fill="none" stroke="midnightblue" d="M150.451,-492.398C151.624,-475.682 155.84,-442.763 171,-420 181.544,-404.169 198.341,-391.183 213.06,-381.917"/>
<polygon fill="midnightblue" stroke="midnightblue" points="215.099,-384.775 221.881,-376.635 211.504,-378.769 215.099,-384.775"/>
</g>
<!-- Node4 -->
<g id="node7" class="node"><title>Node4</title>
<a xlink:href="MojConfig_8h.htm" target="_top" xlink:title="core/internal/MojConfig.h">
<polygon fill="white" stroke="black" points="197.5,-174.5 197.5,-195.5 332.5,-195.5 332.5,-174.5 197.5,-174.5"/>
<text text-anchor="middle" x="265" y="-182.5" font-family="Helvetica,sans-Serif" font-size="10.00">core/internal/MojConfig.h</text>
</a>
</g>
<!-- Node3&#45;&gt;Node4 -->
<g id="edge6" class="edge"><title>Node3&#45;&gt;Node4</title>
<path fill="none" stroke="midnightblue" d="M367.363,-232.497C347.752,-223.397 319.154,-210.127 297.167,-199.925"/>
<polygon fill="midnightblue" stroke="midnightblue" points="298.435,-196.655 287.891,-195.621 295.488,-203.005 298.435,-196.655"/>
</g>
<!-- Node5 -->
<g id="node9" class="node"><title>Node5</title>
<a xlink:href="MojNew_8h.htm" target="_top" xlink:title="core/internal/MojNew.h">
<polygon fill="white" stroke="black" points="447.5,-174.5 447.5,-195.5 572.5,-195.5 572.5,-174.5 447.5,-174.5"/>
<text text-anchor="middle" x="510" y="-182.5" font-family="Helvetica,sans-Serif" font-size="10.00">core/internal/MojNew.h</text>
</a>
</g>
<!-- Node3&#45;&gt;Node5 -->
<g id="edge8" class="edge"><title>Node3&#45;&gt;Node5</title>
<path fill="none" stroke="midnightblue" d="M411.731,-232.497C430.474,-223.438 457.767,-210.246 478.836,-200.063"/>
<polygon fill="midnightblue" stroke="midnightblue" points="480.545,-203.124 488.025,-195.621 477.498,-196.822 480.545,-203.124"/>
</g>
<!-- Node7 -->
<g id="node13" class="node"><title>Node7</title>
<a xlink:href="MojErr_8h.htm" target="_top" xlink:title="core/MojErr.h">
<polygon fill="white" stroke="black" points="624,-174.5 624,-195.5 704,-195.5 704,-174.5 624,-174.5"/>
<text text-anchor="middle" x="664" y="-182.5" font-family="Helvetica,sans-Serif" font-size="10.00">core/MojErr.h</text>
</a>
</g>
<!-- Node3&#45;&gt;Node7 -->
<g id="edge12" class="edge"><title>Node3&#45;&gt;Node7</title>
<path fill="none" stroke="midnightblue" d="M439.619,-232.497C488.962,-222.052 564.26,-206.113 613.804,-195.625"/>
<polygon fill="midnightblue" stroke="midnightblue" points="614.602,-199.034 623.66,-193.539 613.152,-192.186 614.602,-199.034"/>
</g>
<!-- Node11 -->
<g id="node21" class="node"><title>Node11</title>
<a xlink:href="MojOs_8h.htm" target="_top" xlink:title="core/MojOs.h">
<polygon fill="white" stroke="black" points="350,-174.5 350,-195.5 430,-195.5 430,-174.5 350,-174.5"/>
<text text-anchor="middle" x="390" y="-182.5" font-family="Helvetica,sans-Serif" font-size="10.00">core/MojOs.h</text>
</a>
</g>
<!-- Node3&#45;&gt;Node11 -->
<g id="edge20" class="edge"><title>Node3&#45;&gt;Node11</title>
<path fill="none" stroke="midnightblue" d="M390,-232.362C390,-224.922 390,-214.743 390,-205.728"/>
<polygon fill="midnightblue" stroke="midnightblue" points="393.5,-205.571 390,-195.571 386.5,-205.571 393.5,-205.571"/>
</g>
<!-- Node6 -->
<g id="node11" class="node"><title>Node6</title>
<polygon fill="white" stroke="#bfbfbf" points="492,-116.5 492,-137.5 528,-137.5 528,-116.5 492,-116.5"/>
<text text-anchor="middle" x="510" y="-124.5" font-family="Helvetica,sans-Serif" font-size="10.00">new</text>
</g>
<!-- Node5&#45;&gt;Node6 -->
<g id="edge10" class="edge"><title>Node5&#45;&gt;Node6</title>
<path fill="none" stroke="midnightblue" d="M510,-174.362C510,-166.922 510,-156.743 510,-147.728"/>
<polygon fill="midnightblue" stroke="midnightblue" points="513.5,-147.571 510,-137.571 506.5,-147.571 513.5,-147.571"/>
</g>
<!-- Node8 -->
<g id="node15" class="node"><title>Node8</title>
<a xlink:href="MojLog_8h.htm" target="_top" xlink:title="core/MojLog.h">
<polygon fill="white" stroke="black" points="631,-116.5 631,-137.5 715,-137.5 715,-116.5 631,-116.5"/>
<text text-anchor="middle" x="673" y="-124.5" font-family="Helvetica,sans-Serif" font-size="10.00">core/MojLog.h</text>
</a>
</g>
<!-- Node7&#45;&gt;Node8 -->
<g id="edge14" class="edge"><title>Node7&#45;&gt;Node8</title>
<path fill="none" stroke="midnightblue" d="M665.651,-174.362C666.805,-166.922 668.385,-156.743 669.784,-147.728"/>
<polygon fill="midnightblue" stroke="midnightblue" points="673.285,-147.989 671.36,-137.571 666.368,-146.916 673.285,-147.989"/>
</g>
<!-- Node9 -->
<g id="node17" class="node"><title>Node9</title>
<a xlink:href="MojListEntry_8h.htm" target="_top" xlink:title="core/MojListEntry.h">
<polygon fill="white" stroke="black" points="636.5,-58.5 636.5,-79.5 743.5,-79.5 743.5,-58.5 636.5,-58.5"/>
<text text-anchor="middle" x="690" y="-66.5" font-family="Helvetica,sans-Serif" font-size="10.00">core/MojListEntry.h</text>
</a>
</g>
<!-- Node8&#45;&gt;Node9 -->
<g id="edge16" class="edge"><title>Node8&#45;&gt;Node9</title>
<path fill="none" stroke="midnightblue" d="M676.118,-116.362C678.323,-108.84 681.348,-98.5187 684.012,-89.4308"/>
<polygon fill="midnightblue" stroke="midnightblue" points="687.448,-90.1514 686.902,-79.5707 680.73,-88.1825 687.448,-90.1514"/>
</g>
<!-- Node10 -->
<g id="node19" class="node"><title>Node10</title>
<a xlink:href="MojNoCopy_8h.htm" target="_top" xlink:title="core/MojNoCopy.h">
<polygon fill="white" stroke="black" points="687,-0.5 687,-21.5 791,-21.5 791,-0.5 687,-0.5"/>
<text text-anchor="middle" x="739" y="-8.5" font-family="Helvetica,sans-Serif" font-size="10.00">core/MojNoCopy.h</text>
</a>
</g>
<!-- Node9&#45;&gt;Node10 -->
<g id="edge18" class="edge"><title>Node9&#45;&gt;Node10</title>
<path fill="none" stroke="midnightblue" d="M698.987,-58.3619C705.825,-50.2678 715.402,-38.9318 723.472,-29.3796"/>
<polygon fill="midnightblue" stroke="midnightblue" points="726.29,-31.4683 730.07,-21.5707 720.942,-26.9508 726.29,-31.4683"/>
</g>
<!-- Node12 -->
<g id="node23" class="node"><title>Node12</title>
<a xlink:href="MojOsInternal_8h.htm" target="_top" xlink:title="core/internal/MojOsInternal.h">
<polygon fill="white" stroke="black" points="313,-116.5 313,-137.5 467,-137.5 467,-116.5 313,-116.5"/>
<text text-anchor="middle" x="390" y="-124.5" font-family="Helvetica,sans-Serif" font-size="10.00">core/internal/MojOsInternal.h</text>
</a>
</g>
<!-- Node11&#45;&gt;Node12 -->
<g id="edge22" class="edge"><title>Node11&#45;&gt;Node12</title>
<path fill="none" stroke="midnightblue" d="M390,-174.362C390,-166.922 390,-156.743 390,-147.728"/>
<polygon fill="midnightblue" stroke="midnightblue" points="393.5,-147.571 390,-137.571 386.5,-147.571 393.5,-147.571"/>
</g>
<!-- Node14 -->
<g id="node27" class="node"><title>Node14</title>
<a xlink:href="MojComp_8h.htm" target="_top" xlink:title="core/MojComp.h">
<polygon fill="white" stroke="black" points="230,-290.5 230,-311.5 324,-311.5 324,-290.5 230,-290.5"/>
<text text-anchor="middle" x="277" y="-298.5" font-family="Helvetica,sans-Serif" font-size="10.00">core/MojComp.h</text>
</a>
</g>
<!-- Node13&#45;&gt;Node14 -->
<g id="edge26" class="edge"><title>Node13&#45;&gt;Node14</title>
<path fill="none" stroke="midnightblue" d="M248.614,-355.267C253.516,-345.896 260.755,-332.057 266.695,-320.7"/>
<polygon fill="midnightblue" stroke="midnightblue" points="269.956,-322.017 271.49,-311.534 263.754,-318.772 269.956,-322.017"/>
</g>
<!-- Node14&#45;&gt;Node3 -->
<g id="edge28" class="edge"><title>Node14&#45;&gt;Node3</title>
<path fill="none" stroke="midnightblue" d="M297.463,-290.497C315.033,-281.479 340.582,-268.365 360.385,-258.201"/>
<polygon fill="midnightblue" stroke="midnightblue" points="362.009,-261.301 369.307,-253.621 358.812,-255.074 362.009,-261.301"/>
</g>
<!-- Node15&#45;&gt;Node3 -->
<g id="edge32" class="edge"><title>Node15&#45;&gt;Node3</title>
<path fill="none" stroke="midnightblue" d="M669.867,-427.389C687.119,-418.546 708.768,-404.133 719,-384 726.249,-369.736 728.09,-361.167 719,-348 702.908,-324.691 531.31,-278.582 442.549,-256.033"/>
<polygon fill="midnightblue" stroke="midnightblue" points="443.222,-252.593 432.669,-253.533 441.506,-259.379 443.222,-252.593"/>
</g>
<!-- Node15&#45;&gt;Node10 -->
<g id="edge38" class="edge"><title>Node15&#45;&gt;Node10</title>
<path fill="none" stroke="midnightblue" d="M672.098,-427.349C692.162,-418.324 719.024,-403.701 737,-384 764.472,-353.891 776,-341.758 776,-301 776,-301 776,-301 776,-127 776,-91.8043 760.349,-53.3216 749.405,-30.7156"/>
<polygon fill="midnightblue" stroke="midnightblue" points="752.399,-28.8786 744.781,-21.5151 746.144,-32.0219 752.399,-28.8786"/>
</g>
<!-- Node16 -->
<g id="node33" class="node"><title>Node16</title>
<a xlink:href="MojAtomicInt_8h.htm" target="_top" xlink:title="core/MojAtomicInt.h">
<polygon fill="white" stroke="black" points="414,-355.5 414,-376.5 524,-376.5 524,-355.5 414,-355.5"/>
<text text-anchor="middle" x="469" y="-363.5" font-family="Helvetica,sans-Serif" font-size="10.00">core/MojAtomicInt.h</text>
</a>
</g>
<!-- Node15&#45;&gt;Node16 -->
<g id="edge34" class="edge"><title>Node15&#45;&gt;Node16</title>
<path fill="none" stroke="midnightblue" d="M619.031,-427.376C588.657,-414.951 538.225,-394.319 504.314,-380.446"/>
<polygon fill="midnightblue" stroke="midnightblue" points="505.37,-377.097 494.789,-376.55 502.719,-383.576 505.37,-377.097"/>
</g>
<!-- Node17 -->
<g id="node37" class="node"><title>Node17</title>
<a xlink:href="MojAutoPtrInternal_8h.htm" target="_top" xlink:title="core/internal/MojAutoPtr\lInternal.h">
<polygon fill="white" stroke="black" points="579.5,-349 579.5,-383 710.5,-383 710.5,-349 579.5,-349"/>
<text text-anchor="start" x="587.5" y="-370" font-family="Helvetica,sans-Serif" font-size="10.00">core/internal/MojAutoPtr</text>
<text text-anchor="middle" x="645" y="-357" font-family="Helvetica,sans-Serif" font-size="10.00">Internal.h</text>
</a>
</g>
<!-- Node15&#45;&gt;Node17 -->
<g id="edge40" class="edge"><title>Node15&#45;&gt;Node17</title>
<path fill="none" stroke="midnightblue" d="M645,-427.376C645,-418.451 645,-405.293 645,-393.446"/>
<polygon fill="midnightblue" stroke="midnightblue" points="648.5,-393.094 645,-383.094 641.5,-393.094 648.5,-393.094"/>
</g>
<!-- Node16&#45;&gt;Node3 -->
<g id="edge36" class="edge"><title>Node16&#45;&gt;Node3</title>
<path fill="none" stroke="midnightblue" d="M461.989,-355.085C448.604,-334.244 419.247,-288.537 402.45,-262.384"/>
<polygon fill="midnightblue" stroke="midnightblue" points="405.231,-260.238 396.882,-253.715 399.341,-264.021 405.231,-260.238"/>
</g>
<!-- Node18&#45;&gt;Node3 -->
<g id="edge44" class="edge"><title>Node18&#45;&gt;Node3</title>
<path fill="none" stroke="midnightblue" d="M112.931,-608.477C68.8343,-593.132 0,-560.043 0,-503 0,-503 0,-503 0,-366 0,-298.875 212.791,-263.804 324.012,-250.058"/>
<polygon fill="midnightblue" stroke="midnightblue" points="324.616,-253.51 334.123,-248.832 323.774,-246.561 324.616,-253.51"/>
</g>
<!-- Node18&#45;&gt;Node14 -->
<g id="edge48" class="edge"><title>Node18&#45;&gt;Node14</title>
<path fill="none" stroke="midnightblue" d="M126.804,-608.384C94.4116,-591.163 38,-553.869 38,-503 38,-503 38,-503 38,-438 38,-354.58 148.948,-321.236 219.659,-308.456"/>
<polygon fill="midnightblue" stroke="midnightblue" points="220.519,-311.86 229.781,-306.716 219.333,-304.961 220.519,-311.86"/>
</g>
<!-- Node18&#45;&gt;Node15 -->
<g id="edge46" class="edge"><title>Node18&#45;&gt;Node15</title>
<path fill="none" stroke="midnightblue" d="M196.179,-611.791C295.304,-595.99 521.381,-556.326 586,-514 607.693,-499.791 624.774,-474.865 634.858,-457.446"/>
<polygon fill="midnightblue" stroke="midnightblue" points="637.942,-459.101 639.725,-448.657 631.819,-455.71 637.942,-459.101"/>
</g>
<!-- Node19 -->
<g id="node44" class="node"><title>Node19</title>
<a xlink:href="MojHasher_8h.htm" target="_top" xlink:title="core/MojHasher.h">
<polygon fill="white" stroke="black" points="96.5,-550.5 96.5,-571.5 197.5,-571.5 197.5,-550.5 96.5,-550.5"/>
<text text-anchor="middle" x="147" y="-558.5" font-family="Helvetica,sans-Serif" font-size="10.00">core/MojHasher.h</text>
</a>
</g>
<!-- Node18&#45;&gt;Node19 -->
<g id="edge50" class="edge"><title>Node18&#45;&gt;Node19</title>
<path fill="none" stroke="midnightblue" d="M148.633,-608.362C148.377,-600.922 148.026,-590.743 147.715,-581.728"/>
<polygon fill="midnightblue" stroke="midnightblue" points="151.207,-581.444 147.365,-571.571 144.211,-581.685 151.207,-581.444"/>
</g>
<!-- Node20 -->
<g id="node48" class="node"><title>Node20</title>
<a xlink:href="MojVector_8h.htm" target="_top" xlink:title="core/MojVector.h">
<polygon fill="white" stroke="black" points="252.5,-550.5 252.5,-571.5 349.5,-571.5 349.5,-550.5 252.5,-550.5"/>
<text text-anchor="middle" x="301" y="-558.5" font-family="Helvetica,sans-Serif" font-size="10.00">core/MojVector.h</text>
</a>
</g>
<!-- Node18&#45;&gt;Node20 -->
<g id="edge56" class="edge"><title>Node18&#45;&gt;Node20</title>
<path fill="none" stroke="midnightblue" d="M176.526,-608.497C200.984,-599.164 236.938,-585.445 263.924,-575.147"/>
<polygon fill="midnightblue" stroke="midnightblue" points="265.327,-578.358 273.422,-571.523 262.832,-571.818 265.327,-578.358"/>
</g>
<!-- Node19&#45;&gt;Node2 -->
<g id="edge54" class="edge"><title>Node19&#45;&gt;Node2</title>
<path fill="none" stroke="midnightblue" d="M147.55,-550.362C147.935,-542.922 148.462,-532.743 148.928,-523.728"/>
<polygon fill="midnightblue" stroke="midnightblue" points="152.432,-523.738 149.453,-513.571 145.441,-523.376 152.432,-523.738"/>
</g>
<!-- Node19&#45;&gt;Node3 -->
<g id="edge52" class="edge"><title>Node19&#45;&gt;Node3</title>
<path fill="none" stroke="midnightblue" d="M133.616,-550.314C123.403,-541.528 109.659,-528.244 101,-514 82.5288,-483.616 76,-473.558 76,-438 76,-438 76,-438 76,-366 76,-308.031 129.12,-313.75 182,-290 227.239,-269.682 282.085,-257.758 324.098,-251.008"/>
<polygon fill="midnightblue" stroke="midnightblue" points="324.869,-254.43 334.216,-249.441 323.798,-247.512 324.869,-254.43"/>
</g>
<!-- Node20&#45;&gt;Node2 -->
<g id="edge74" class="edge"><title>Node20&#45;&gt;Node2</title>
<path fill="none" stroke="midnightblue" d="M273.655,-550.497C249.358,-541.164 213.64,-527.445 186.832,-517.147"/>
<polygon fill="midnightblue" stroke="midnightblue" points="187.986,-513.842 177.396,-513.523 185.476,-520.376 187.986,-513.842"/>
</g>
<!-- Node20&#45;&gt;Node3 -->
<g id="edge58" class="edge"><title>Node20&#45;&gt;Node3</title>
<path fill="none" stroke="midnightblue" d="M349.613,-555.286C419.153,-546.619 540.114,-529.512 553,-514 565.243,-499.262 599.9,-460.184 533,-348 507.549,-305.322 457.384,-274.734 423.762,-257.948"/>
<polygon fill="midnightblue" stroke="midnightblue" points="425.277,-254.793 414.751,-253.581 422.224,-261.092 425.277,-254.793"/>
</g>
<!-- Node20&#45;&gt;Node14 -->
<g id="edge60" class="edge"><title>Node20&#45;&gt;Node14</title>
<path fill="none" stroke="midnightblue" d="M278.456,-550.411C254.311,-537.572 221.434,-514.807 237,-492 261.753,-455.734 304.247,-492.266 329,-456 356.059,-416.354 348.482,-391.869 329,-348 323.598,-335.836 313.32,-325.487 303.318,-317.622"/>
<polygon fill="midnightblue" stroke="midnightblue" points="305.235,-314.687 295.095,-311.614 301.105,-320.34 305.235,-314.687"/>
</g>
<!-- Node21 -->
<g id="node52" class="node"><title>Node21</title>
<a xlink:href="MojRefCount_8h.htm" target="_top" xlink:title="core/MojRefCount.h">
<polygon fill="white" stroke="black" points="246,-492.5 246,-513.5 356,-513.5 356,-492.5 246,-492.5"/>
<text text-anchor="middle" x="301" y="-500.5" font-family="Helvetica,sans-Serif" font-size="10.00">core/MojRefCount.h</text>
</a>
</g>
<!-- Node20&#45;&gt;Node21 -->
<g id="edge62" class="edge"><title>Node20&#45;&gt;Node21</title>
<path fill="none" stroke="midnightblue" d="M301,-550.362C301,-542.922 301,-532.743 301,-523.728"/>
<polygon fill="midnightblue" stroke="midnightblue" points="304.5,-523.571 301,-513.571 297.5,-523.571 304.5,-523.571"/>
</g>
<!-- Node23 -->
<g id="node61" class="node"><title>Node23</title>
<a xlink:href="MojVectorInternal_8h.htm" target="_top" xlink:title="core/internal/MojVectorInternal.h">
<polygon fill="white" stroke="black" points="373.5,-492.5 373.5,-513.5 544.5,-513.5 544.5,-492.5 373.5,-492.5"/>
<text text-anchor="middle" x="459" y="-500.5" font-family="Helvetica,sans-Serif" font-size="10.00">core/internal/MojVectorInternal.h</text>
</a>
</g>
<!-- Node20&#45;&gt;Node23 -->
<g id="edge76" class="edge"><title>Node20&#45;&gt;Node23</title>
<path fill="none" stroke="midnightblue" d="M329.613,-550.497C355.148,-541.123 392.737,-527.324 420.829,-517.012"/>
<polygon fill="midnightblue" stroke="midnightblue" points="422.152,-520.255 430.334,-513.523 419.74,-513.684 422.152,-520.255"/>
</g>
<!-- Node21&#45;&gt;Node3 -->
<g id="edge64" class="edge"><title>Node21&#45;&gt;Node3</title>
<path fill="none" stroke="midnightblue" d="M317.444,-492.26C328.99,-483.814 343.782,-470.993 352,-456 386.91,-392.305 390.763,-303.308 390.558,-263.573"/>
<polygon fill="midnightblue" stroke="midnightblue" points="394.057,-263.472 390.41,-253.525 387.058,-263.575 394.057,-263.472"/>
</g>
<!-- Node21&#45;&gt;Node15 -->
<g id="edge68" class="edge"><title>Node21&#45;&gt;Node15</title>
<path fill="none" stroke="midnightblue" d="M356.27,-492.557C418.646,-480.77 519.804,-461.656 584.323,-449.465"/>
<polygon fill="midnightblue" stroke="midnightblue" points="585.175,-452.866 594.351,-447.57 583.875,-445.988 585.175,-452.866"/>
</g>
<!-- Node21&#45;&gt;Node16 -->
<g id="edge66" class="edge"><title>Node21&#45;&gt;Node16</title>
<path fill="none" stroke="midnightblue" d="M332.602,-492.425C353.197,-484.518 379.88,-472.27 400,-456 424.735,-435.999 445.731,-405.397 457.856,-385.541"/>
<polygon fill="midnightblue" stroke="midnightblue" points="460.979,-387.136 463.073,-376.75 454.96,-383.564 460.979,-387.136"/>
</g>
<!-- Node22 -->
<g id="node57" class="node"><title>Node22</title>
<a xlink:href="MojRefCountInternal_8h.htm" target="_top" xlink:title="core/internal/MojRefCount\lInternal.h">
<polygon fill="white" stroke="black" points="180,-421 180,-455 320,-455 320,-421 180,-421"/>
<text text-anchor="start" x="188" y="-442" font-family="Helvetica,sans-Serif" font-size="10.00">core/internal/MojRefCount</text>
<text text-anchor="middle" x="250" y="-429" font-family="Helvetica,sans-Serif" font-size="10.00">Internal.h</text>
</a>
</g>
<!-- Node21&#45;&gt;Node22 -->
<g id="edge70" class="edge"><title>Node21&#45;&gt;Node22</title>
<path fill="none" stroke="midnightblue" d="M292.578,-492.267C286.39,-484.379 277.717,-473.325 269.812,-463.251"/>
<polygon fill="midnightblue" stroke="midnightblue" points="272.351,-460.817 263.425,-455.11 266.844,-465.138 272.351,-460.817"/>
</g>
<!-- Node22&#45;&gt;Node13 -->
<g id="edge72" class="edge"><title>Node22&#45;&gt;Node13</title>
<path fill="none" stroke="midnightblue" d="M248.341,-420.937C247.357,-410.814 246.101,-397.898 245.055,-387.133"/>
<polygon fill="midnightblue" stroke="midnightblue" points="248.511,-386.515 244.06,-376.901 241.544,-387.193 248.511,-386.515"/>
</g>
<!-- Node24&#45;&gt;Node3 -->
<g id="edge80" class="edge"><title>Node24&#45;&gt;Node3</title>
<path fill="none" stroke="midnightblue" d="M665.275,-292.564C660.796,-291.686 656.305,-290.817 652,-290 585.14,-277.318 508.507,-263.675 455.467,-254.372"/>
<polygon fill="midnightblue" stroke="midnightblue" points="455.969,-250.907 445.515,-252.629 454.761,-257.802 455.969,-250.907"/>
</g>
</g>
</svg>
