<?xml version="1.0" encoding="UTF-8" standalone="no"?>
<!DOCTYPE svg PUBLIC "-//W3C//DTD SVG 1.1//EN"
 "http://www.w3.org/Graphics/SVG/1.1/DTD/svg11.dtd">
<!-- Generated by graphviz version 2.26.3 (20100126.1600)
 -->
<!-- Title: MojVector.h Pages: 1 -->
<svg width="875pt" height="580pt"
 viewBox="0.00 0.00 875.00 580.00" xmlns="http://www.w3.org/2000/svg" xmlns:xlink="http://www.w3.org/1999/xlink">
<g id="graph1" class="graph" transform="scale(1 1) rotate(0) translate(4 576)">
<title>MojVector.h</title>
<polygon fill="white" stroke="white" points="-4,5 -4,-576 872,-576 872,5 -4,5"/>
<!-- Node1 -->
<g id="node1" class="node"><title>Node1</title>
<polygon fill="#bfbfbf" stroke="black" points="564.5,-550.5 564.5,-571.5 637.5,-571.5 637.5,-550.5 564.5,-550.5"/>
<text text-anchor="middle" x="601" y="-558.5" font-family="Helvetica,sans-Serif" font-size="10.00">MojVector.h</text>
</g>
<!-- Node2 -->
<g id="node3" class="node"><title>Node2</title>
<a xlink:href="MojCoreDefs_8h.htm" target="_top" xlink:title="core/MojCoreDefs.h">
<polygon fill="white" stroke="black" points="307.5,-232.5 307.5,-253.5 418.5,-253.5 418.5,-232.5 307.5,-232.5"/>
<text text-anchor="middle" x="363" y="-240.5" font-family="Helvetica,sans-Serif" font-size="10.00">core/MojCoreDefs.h</text>
</a>
</g>
<!-- Node1&#45;&gt;Node2 -->
<g id="edge2" class="edge"><title>Node1&#45;&gt;Node2</title>
<path fill="none" stroke="midnightblue" d="M611.925,-550.251C631.147,-530.135 669,-484.604 669,-438 669,-438 669,-438 669,-373 669,-320.2 512.72,-276.473 423.53,-255.817"/>
<polygon fill="midnightblue" stroke="midnightblue" points="424.058,-252.348 413.53,-253.533 422.499,-259.172 424.058,-252.348"/>
</g>
<!-- Node12 -->
<g id="node23" class="node"><title>Node12</title>
<a xlink:href="MojComp_8h.htm" target="_top" xlink:title="core/MojComp.h">
<polygon fill="white" stroke="black" points="391,-297.5 391,-318.5 485,-318.5 485,-297.5 391,-297.5"/>
<text text-anchor="middle" x="438" y="-305.5" font-family="Helvetica,sans-Serif" font-size="10.00">core/MojComp.h</text>
</a>
</g>
<!-- Node1&#45;&gt;Node12 -->
<g id="edge22" class="edge"><title>Node1&#45;&gt;Node12</title>
<path fill="none" stroke="midnightblue" d="M595.603,-550.437C586.133,-531.695 566.186,-491.274 552,-456 535.533,-415.055 546.998,-396.911 520,-362 507.242,-345.503 487.95,-332.441 471.283,-323.298"/>
<polygon fill="midnightblue" stroke="midnightblue" points="472.835,-320.16 462.352,-318.625 469.59,-326.363 472.835,-320.16"/>
</g>
<!-- Node13 -->
<g id="node26" class="node"><title>Node13</title>
<a xlink:href="MojRefCount_8h.htm" target="_top" xlink:title="core/MojRefCount.h">
<polygon fill="white" stroke="black" points="274,-492.5 274,-513.5 384,-513.5 384,-492.5 274,-492.5"/>
<text text-anchor="middle" x="329" y="-500.5" font-family="Helvetica,sans-Serif" font-size="10.00">core/MojRefCount.h</text>
</a>
</g>
<!-- Node1&#45;&gt;Node13 -->
<g id="edge26" class="edge"><title>Node1&#45;&gt;Node13</title>
<path fill="none" stroke="midnightblue" d="M564.317,-553.178C519.225,-543.563 442.106,-527.118 388.495,-515.686"/>
<polygon fill="midnightblue" stroke="midnightblue" points="388.947,-512.204 378.437,-513.542 387.487,-519.05 388.947,-512.204"/>
</g>
<!-- Node19 -->
<g id="node44" class="node"><title>Node19</title>
<a xlink:href="MojUtil_8h.htm" target="_top" xlink:title="core/MojUtil.h">
<polygon fill="white" stroke="black" points="560.5,-427.5 560.5,-448.5 641.5,-448.5 641.5,-427.5 560.5,-427.5"/>
<text text-anchor="middle" x="601" y="-435.5" font-family="Helvetica,sans-Serif" font-size="10.00">core/MojUtil.h</text>
</a>
</g>
<!-- Node1&#45;&gt;Node19 -->
<g id="edge50" class="edge"><title>Node1&#45;&gt;Node19</title>
<path fill="none" stroke="midnightblue" d="M601,-550.085C601,-529.609 601,-485.133 601,-458.778"/>
<polygon fill="midnightblue" stroke="midnightblue" points="604.5,-458.715 601,-448.715 597.5,-458.715 604.5,-458.715"/>
</g>
<!-- Node20 -->
<g id="node48" class="node"><title>Node20</title>
<a xlink:href="MojVectorInternal_8h.htm" target="_top" xlink:title="core/internal/MojVectorInternal.h">
<polygon fill="white" stroke="black" points="696.5,-492.5 696.5,-513.5 867.5,-513.5 867.5,-492.5 696.5,-492.5"/>
<text text-anchor="middle" x="782" y="-500.5" font-family="Helvetica,sans-Serif" font-size="10.00">core/internal/MojVectorInternal.h</text>
</a>
</g>
<!-- Node1&#45;&gt;Node20 -->
<g id="edge56" class="edge"><title>Node1&#45;&gt;Node20</title>
<path fill="none" stroke="midnightblue" d="M633.778,-550.497C663.413,-541 707.222,-526.962 739.531,-516.609"/>
<polygon fill="midnightblue" stroke="midnightblue" points="740.706,-519.908 749.161,-513.523 738.57,-513.242 740.706,-519.908"/>
</g>
<!-- Node3 -->
<g id="node5" class="node"><title>Node3</title>
<a xlink:href="MojConfig_8h.htm" target="_top" xlink:title="core/internal/MojConfig.h">
<polygon fill="white" stroke="black" points="295.5,-174.5 295.5,-195.5 430.5,-195.5 430.5,-174.5 295.5,-174.5"/>
<text text-anchor="middle" x="363" y="-182.5" font-family="Helvetica,sans-Serif" font-size="10.00">core/internal/MojConfig.h</text>
</a>
</g>
<!-- Node2&#45;&gt;Node3 -->
<g id="edge4" class="edge"><title>Node2&#45;&gt;Node3</title>
<path fill="none" stroke="midnightblue" d="M363,-232.362C363,-224.922 363,-214.743 363,-205.728"/>
<polygon fill="midnightblue" stroke="midnightblue" points="366.5,-205.571 363,-195.571 359.5,-205.571 366.5,-205.571"/>
</g>
<!-- Node4 -->
<g id="node7" class="node"><title>Node4</title>
<a xlink:href="MojNew_8h.htm" target="_top" xlink:title="core/internal/MojNew.h">
<polygon fill="white" stroke="black" points="447.5,-174.5 447.5,-195.5 572.5,-195.5 572.5,-174.5 447.5,-174.5"/>
<text text-anchor="middle" x="510" y="-182.5" font-family="Helvetica,sans-Serif" font-size="10.00">core/internal/MojNew.h</text>
</a>
</g>
<!-- Node2&#45;&gt;Node4 -->
<g id="edge6" class="edge"><title>Node2&#45;&gt;Node4</title>
<path fill="none" stroke="midnightblue" d="M389.621,-232.497C413.097,-223.234 447.525,-209.65 473.556,-199.379"/>
<polygon fill="midnightblue" stroke="midnightblue" points="475.063,-202.547 483.081,-195.621 472.494,-196.036 475.063,-202.547"/>
</g>
<!-- Node6 -->
<g id="node11" class="node"><title>Node6</title>
<a xlink:href="MojErr_8h.htm" target="_top" xlink:title="core/MojErr.h">
<polygon fill="white" stroke="black" points="79,-174.5 79,-195.5 159,-195.5 159,-174.5 79,-174.5"/>
<text text-anchor="middle" x="119" y="-182.5" font-family="Helvetica,sans-Serif" font-size="10.00">core/MojErr.h</text>
</a>
</g>
<!-- Node2&#45;&gt;Node6 -->
<g id="edge10" class="edge"><title>Node2&#45;&gt;Node6</title>
<path fill="none" stroke="midnightblue" d="M318.813,-232.497C276.641,-222.472 213.179,-207.387 169.135,-196.917"/>
<polygon fill="midnightblue" stroke="midnightblue" points="169.754,-193.467 159.216,-194.559 168.135,-200.277 169.754,-193.467"/>
</g>
<!-- Node10 -->
<g id="node19" class="node"><title>Node10</title>
<a xlink:href="MojOs_8h.htm" target="_top" xlink:title="core/MojOs.h">
<polygon fill="white" stroke="black" points="198,-174.5 198,-195.5 278,-195.5 278,-174.5 198,-174.5"/>
<text text-anchor="middle" x="238" y="-182.5" font-family="Helvetica,sans-Serif" font-size="10.00">core/MojOs.h</text>
</a>
</g>
<!-- Node2&#45;&gt;Node10 -->
<g id="edge18" class="edge"><title>Node2&#45;&gt;Node10</title>
<path fill="none" stroke="midnightblue" d="M340.363,-232.497C320.752,-223.397 292.154,-210.127 270.167,-199.925"/>
<polygon fill="midnightblue" stroke="midnightblue" points="271.435,-196.655 260.891,-195.621 268.488,-203.005 271.435,-196.655"/>
</g>
<!-- Node5 -->
<g id="node9" class="node"><title>Node5</title>
<polygon fill="white" stroke="#bfbfbf" points="492,-116.5 492,-137.5 528,-137.5 528,-116.5 492,-116.5"/>
<text text-anchor="middle" x="510" y="-124.5" font-family="Helvetica,sans-Serif" font-size="10.00">new</text>
</g>
<!-- Node4&#45;&gt;Node5 -->
<g id="edge8" class="edge"><title>Node4&#45;&gt;Node5</title>
<path fill="none" stroke="midnightblue" d="M510,-174.362C510,-166.922 510,-156.743 510,-147.728"/>
<polygon fill="midnightblue" stroke="midnightblue" points="513.5,-147.571 510,-137.571 506.5,-147.571 513.5,-147.571"/>
</g>
<!-- Node7 -->
<g id="node13" class="node"><title>Node7</title>
<a xlink:href="MojLog_8h.htm" target="_top" xlink:title="core/MojLog.h">
<polygon fill="white" stroke="black" points="56,-116.5 56,-137.5 140,-137.5 140,-116.5 56,-116.5"/>
<text text-anchor="middle" x="98" y="-124.5" font-family="Helvetica,sans-Serif" font-size="10.00">core/MojLog.h</text>
</a>
</g>
<!-- Node6&#45;&gt;Node7 -->
<g id="edge12" class="edge"><title>Node6&#45;&gt;Node7</title>
<path fill="none" stroke="midnightblue" d="M115.148,-174.362C112.395,-166.758 108.606,-156.294 105.29,-147.135"/>
<polygon fill="midnightblue" stroke="midnightblue" points="108.523,-145.782 101.827,-137.571 101.941,-148.165 108.523,-145.782"/>
</g>
<!-- Node8 -->
<g id="node15" class="node"><title>Node8</title>
<a xlink:href="MojListEntry_8h.htm" target="_top" xlink:title="core/MojListEntry.h">
<polygon fill="white" stroke="black" points="40.5,-58.5 40.5,-79.5 147.5,-79.5 147.5,-58.5 40.5,-58.5"/>
<text text-anchor="middle" x="94" y="-66.5" font-family="Helvetica,sans-Serif" font-size="10.00">core/MojListEntry.h</text>
</a>
</g>
<!-- Node7&#45;&gt;Node8 -->
<g id="edge14" class="edge"><title>Node7&#45;&gt;Node8</title>
<path fill="none" stroke="midnightblue" d="M97.2663,-116.362C96.7532,-108.922 96.0512,-98.7427 95.4295,-89.7276"/>
<polygon fill="midnightblue" stroke="midnightblue" points="98.9088,-89.3061 94.729,-79.5707 91.9254,-89.7878 98.9088,-89.3061"/>
</g>
<!-- Node9 -->
<g id="node17" class="node"><title>Node9</title>
<a xlink:href="MojNoCopy_8h.htm" target="_top" xlink:title="core/MojNoCopy.h">
<polygon fill="white" stroke="black" points="0,-0.5 0,-21.5 104,-21.5 104,-0.5 0,-0.5"/>
<text text-anchor="middle" x="52" y="-8.5" font-family="Helvetica,sans-Serif" font-size="10.00">core/MojNoCopy.h</text>
</a>
</g>
<!-- Node8&#45;&gt;Node9 -->
<g id="edge16" class="edge"><title>Node8&#45;&gt;Node9</title>
<path fill="none" stroke="midnightblue" d="M86.2966,-58.3619C80.5537,-50.4313 72.5572,-39.3885 65.7301,-29.9606"/>
<polygon fill="midnightblue" stroke="midnightblue" points="68.3546,-27.6173 59.6546,-21.5707 62.6849,-31.7229 68.3546,-27.6173"/>
</g>
<!-- Node11 -->
<g id="node21" class="node"><title>Node11</title>
<a xlink:href="MojOsInternal_8h.htm" target="_top" xlink:title="core/internal/MojOsInternal.h">
<polygon fill="white" stroke="black" points="161,-116.5 161,-137.5 315,-137.5 315,-116.5 161,-116.5"/>
<text text-anchor="middle" x="238" y="-124.5" font-family="Helvetica,sans-Serif" font-size="10.00">core/internal/MojOsInternal.h</text>
</a>
</g>
<!-- Node10&#45;&gt;Node11 -->
<g id="edge20" class="edge"><title>Node10&#45;&gt;Node11</title>
<path fill="none" stroke="midnightblue" d="M238,-174.362C238,-166.922 238,-156.743 238,-147.728"/>
<polygon fill="midnightblue" stroke="midnightblue" points="241.5,-147.571 238,-137.571 234.5,-147.571 241.5,-147.571"/>
</g>
<!-- Node12&#45;&gt;Node2 -->
<g id="edge24" class="edge"><title>Node12&#45;&gt;Node2</title>
<path fill="none" stroke="midnightblue" d="M425.615,-297.267C414.038,-287.233 396.552,-272.078 382.997,-260.331"/>
<polygon fill="midnightblue" stroke="midnightblue" points="385.003,-257.438 375.154,-253.534 380.419,-262.728 385.003,-257.438"/>
</g>
<!-- Node13&#45;&gt;Node2 -->
<g id="edge28" class="edge"><title>Node13&#45;&gt;Node2</title>
<path fill="none" stroke="midnightblue" d="M330.375,-492.486C335.479,-453.453 353.4,-316.414 360.281,-263.793"/>
<polygon fill="midnightblue" stroke="midnightblue" points="363.782,-264.015 361.608,-253.645 356.841,-263.107 363.782,-264.015"/>
</g>
<!-- Node14 -->
<g id="node29" class="node"><title>Node14</title>
<a xlink:href="MojAtomicInt_8h.htm" target="_top" xlink:title="core/MojAtomicInt.h">
<polygon fill="white" stroke="black" points="225,-297.5 225,-318.5 335,-318.5 335,-297.5 225,-297.5"/>
<text text-anchor="middle" x="280" y="-305.5" font-family="Helvetica,sans-Serif" font-size="10.00">core/MojAtomicInt.h</text>
</a>
</g>
<!-- Node13&#45;&gt;Node14 -->
<g id="edge30" class="edge"><title>Node13&#45;&gt;Node14</title>
<path fill="none" stroke="midnightblue" d="M325.598,-492.223C322.647,-482.728 318.338,-468.503 315,-456 302.977,-410.959 290.889,-357.646 284.546,-328.897"/>
<polygon fill="midnightblue" stroke="midnightblue" points="287.897,-327.842 282.337,-318.824 281.06,-329.341 287.897,-327.842"/>
</g>
<!-- Node15 -->
<g id="node32" class="node"><title>Node15</title>
<a xlink:href="MojAutoPtr_8h.htm" target="_top" xlink:title="core/MojAutoPtr.h">
<polygon fill="white" stroke="black" points="91.5,-362.5 91.5,-383.5 192.5,-383.5 192.5,-362.5 91.5,-362.5"/>
<text text-anchor="middle" x="142" y="-370.5" font-family="Helvetica,sans-Serif" font-size="10.00">core/MojAutoPtr.h</text>
</a>
</g>
<!-- Node13&#45;&gt;Node15 -->
<g id="edge34" class="edge"><title>Node13&#45;&gt;Node15</title>
<path fill="none" stroke="midnightblue" d="M313.697,-492.362C281.153,-469.737 204.868,-416.705 165.871,-389.595"/>
<polygon fill="midnightblue" stroke="midnightblue" points="167.461,-386.437 157.252,-383.603 163.465,-392.185 167.461,-386.437"/>
</g>
<!-- Node17 -->
<g id="node39" class="node"><title>Node17</title>
<a xlink:href="MojRefCountInternal_8h.htm" target="_top" xlink:title="core/internal/MojRefCount\lInternal.h">
<polygon fill="white" stroke="black" points="360,-421 360,-455 500,-455 500,-421 360,-421"/>
<text text-anchor="start" x="368" y="-442" font-family="Helvetica,sans-Serif" font-size="10.00">core/internal/MojRefCount</text>
<text text-anchor="middle" x="430" y="-429" font-family="Helvetica,sans-Serif" font-size="10.00">Internal.h</text>
</a>
</g>
<!-- Node13&#45;&gt;Node17 -->
<g id="edge44" class="edge"><title>Node13&#45;&gt;Node17</title>
<path fill="none" stroke="midnightblue" d="M345.678,-492.267C359.038,-483.669 378.241,-471.31 394.949,-460.558"/>
<polygon fill="midnightblue" stroke="midnightblue" points="396.899,-463.465 403.414,-455.11 393.111,-457.579 396.899,-463.465"/>
</g>
<!-- Node14&#45;&gt;Node2 -->
<g id="edge32" class="edge"><title>Node14&#45;&gt;Node2</title>
<path fill="none" stroke="midnightblue" d="M293.706,-297.267C306.638,-287.139 326.235,-271.792 341.293,-260"/>
<polygon fill="midnightblue" stroke="midnightblue" points="343.834,-262.455 349.549,-253.534 339.518,-256.944 343.834,-262.455"/>
</g>
<!-- Node15&#45;&gt;Node2 -->
<g id="edge36" class="edge"><title>Node15&#45;&gt;Node2</title>
<path fill="none" stroke="midnightblue" d="M112.415,-362.479C96.1715,-355.006 77.4552,-343.206 68,-326 60.2945,-311.978 57.6144,-302.171 68,-290 82.7237,-272.745 215.102,-257.123 297.446,-248.961"/>
<polygon fill="midnightblue" stroke="midnightblue" points="297.865,-252.437 307.476,-247.979 297.183,-245.47 297.865,-252.437"/>
</g>
<!-- Node15&#45;&gt;Node9 -->
<g id="edge40" class="edge"><title>Node15&#45;&gt;Node9</title>
<path fill="none" stroke="midnightblue" d="M114.943,-362.442C97.1456,-354.472 74.2299,-342.147 58,-326 27.9472,-296.101 11,-285.393 11,-243 11,-243 11,-243 11,-127 11,-91.4618 28.3181,-53.1198 40.4436,-30.6296"/>
<polygon fill="midnightblue" stroke="midnightblue" points="43.585,-32.183 45.4126,-21.747 37.4759,-28.7655 43.585,-32.183"/>
</g>
<!-- Node15&#45;&gt;Node14 -->
<g id="edge38" class="edge"><title>Node15&#45;&gt;Node14</title>
<path fill="none" stroke="midnightblue" d="M164.479,-362.412C187.234,-351.694 222.624,-335.025 248.239,-322.96"/>
<polygon fill="midnightblue" stroke="midnightblue" points="249.975,-326.011 257.53,-318.584 246.992,-319.678 249.975,-326.011"/>
</g>
<!-- Node16 -->
<g id="node37" class="node"><title>Node16</title>
<a xlink:href="MojAutoPtrInternal_8h.htm" target="_top" xlink:title="core/internal/MojAutoPtr\lInternal.h">
<polygon fill="white" stroke="black" points="76.5,-291 76.5,-325 207.5,-325 207.5,-291 76.5,-291"/>
<text text-anchor="start" x="84.5" y="-312" font-family="Helvetica,sans-Serif" font-size="10.00">core/internal/MojAutoPtr</text>
<text text-anchor="middle" x="142" y="-299" font-family="Helvetica,sans-Serif" font-size="10.00">Internal.h</text>
</a>
</g>
<!-- Node15&#45;&gt;Node16 -->
<g id="edge42" class="edge"><title>Node15&#45;&gt;Node16</title>
<path fill="none" stroke="midnightblue" d="M142,-362.267C142,-354.931 142,-344.857 142,-335.38"/>
<polygon fill="midnightblue" stroke="midnightblue" points="145.5,-335.11 142,-325.11 138.5,-335.11 145.5,-335.11"/>
</g>
<!-- Node18 -->
<g id="node41" class="node"><title>Node18</title>
<a xlink:href="MojUtilInternal_8h.htm" target="_top" xlink:title="core/internal/MojUtilInternal.h">
<polygon fill="white" stroke="black" points="356.5,-362.5 356.5,-383.5 511.5,-383.5 511.5,-362.5 356.5,-362.5"/>
<text text-anchor="middle" x="434" y="-370.5" font-family="Helvetica,sans-Serif" font-size="10.00">core/internal/MojUtilInternal.h</text>
</a>
</g>
<!-- Node17&#45;&gt;Node18 -->
<g id="edge46" class="edge"><title>Node17&#45;&gt;Node18</title>
<path fill="none" stroke="midnightblue" d="M431.051,-420.922C431.559,-412.67 432.173,-402.692 432.709,-393.982"/>
<polygon fill="midnightblue" stroke="midnightblue" points="436.211,-394.048 433.332,-383.852 429.224,-393.618 436.211,-394.048"/>
</g>
<!-- Node18&#45;&gt;Node12 -->
<g id="edge48" class="edge"><title>Node18&#45;&gt;Node12</title>
<path fill="none" stroke="midnightblue" d="M434.661,-362.267C435.22,-353.18 436.037,-339.892 436.724,-328.74"/>
<polygon fill="midnightblue" stroke="midnightblue" points="440.231,-328.73 437.352,-318.534 433.244,-328.3 440.231,-328.73"/>
</g>
<!-- Node19&#45;&gt;Node2 -->
<g id="edge52" class="edge"><title>Node19&#45;&gt;Node2</title>
<path fill="none" stroke="midnightblue" d="M596.276,-427.18C583.775,-399.834 547.111,-327.469 494,-290 472.222,-274.636 444.891,-263.786 420.835,-256.413"/>
<polygon fill="midnightblue" stroke="midnightblue" points="421.683,-253.014 411.102,-253.561 419.714,-259.732 421.683,-253.014"/>
</g>
<!-- Node19&#45;&gt;Node18 -->
<g id="edge54" class="edge"><title>Node19&#45;&gt;Node18</title>
<path fill="none" stroke="midnightblue" d="M573.797,-427.412C545.775,-416.505 501.919,-399.436 470.808,-387.327"/>
<polygon fill="midnightblue" stroke="midnightblue" points="471.78,-383.949 461.191,-383.584 469.241,-390.472 471.78,-383.949"/>
</g>
</g>
</svg>
