<?xml version="1.0" encoding="UTF-8" standalone="no"?>
<!DOCTYPE svg PUBLIC "-//W3C//DTD SVG 1.1//EN"
 "http://www.w3.org/Graphics/SVG/1.1/DTD/svg11.dtd">
<!-- Generated by graphviz version 2.26.3 (20100126.1600)
 -->
<!-- Title: MojSharedPtrImpl&lt; T, DTOR &gt; Pages: 1 -->
<svg width="145pt" height="116pt"
 viewBox="0.00 0.00 145.00 116.00" xmlns="http://www.w3.org/2000/svg" xmlns:xlink="http://www.w3.org/1999/xlink">
<g id="graph1" class="graph" transform="scale(1 1) rotate(0) translate(4 112)">
<title>MojSharedPtrImpl&lt; T, DTOR &gt;</title>
<polygon fill="white" stroke="white" points="-4,5 -4,-112 142,-112 142,5 -4,5"/>
<!-- Node1 -->
<g id="node1" class="node"><title>Node1</title>
<polygon fill="#bfbfbf" stroke="black" points="-0.5,-1 -0.5,-35 118.5,-35 118.5,-1 -0.5,-1"/>
<text text-anchor="start" x="7.5" y="-22" font-family="Helvetica,sans-Serif" font-size="10.00">MojSharedPtrImpl&lt; T,</text>
<text text-anchor="middle" x="59" y="-9" font-family="Helvetica,sans-Serif" font-size="10.00"> DTOR &gt;</text>
</g>
<!-- Node2 -->
<g id="node2" class="node"><title>Node2</title>
<polygon fill="white" stroke="#bfbfbf" points="7,-86.5 7,-107.5 39,-107.5 39,-86.5 7,-86.5"/>
<text text-anchor="middle" x="23" y="-94.5" font-family="Helvetica,sans-Serif" font-size="10.00">T *</text>
</g>
<!-- Node2&#45;&gt;Node1 -->
<g id="edge2" class="edge"><title>Node2&#45;&gt;Node1</title>
<path fill="none" stroke="#9a32cd" stroke-dasharray="5,2" d="M32.1443,-76.9332C38.0291,-64.0194 45.5958,-47.4147 51.1969,-35.1236"/>
<polygon fill="#9a32cd" stroke="#9a32cd" points="28.817,-75.7946 27.8551,-86.3457 35.1868,-78.6974 28.817,-75.7946"/>
<text text-anchor="middle" x="55" y="-58.5" font-family="Helvetica,sans-Serif" font-size="10.00"> m_p</text>
</g>
<!-- Node3 -->
<g id="node4" class="node"><title>Node3</title>
<a xlink:href="classMojAtomicInt.htm" target="_top" xlink:title="MojAtomicInt">
<polygon fill="white" stroke="black" points="56.5,-86.5 56.5,-107.5 133.5,-107.5 133.5,-86.5 56.5,-86.5"/>
<text text-anchor="middle" x="95" y="-94.5" font-family="Helvetica,sans-Serif" font-size="10.00">MojAtomicInt</text>
</a>
</g>
<!-- Node3&#45;&gt;Node1 -->
<g id="edge4" class="edge"><title>Node3&#45;&gt;Node1</title>
<path fill="none" stroke="#9a32cd" stroke-dasharray="5,2" d="M85.8557,-76.9332C79.9709,-64.0194 72.4042,-47.4147 66.8031,-35.1236"/>
<polygon fill="#9a32cd" stroke="#9a32cd" points="82.8132,-78.6974 90.1449,-86.3457 89.183,-75.7946 82.8132,-78.6974"/>
<text text-anchor="middle" x="109" y="-58.5" font-family="Helvetica,sans-Serif" font-size="10.00"> m_refcount</text>
</g>
</g>
</svg>
