<?xml version="1.0" encoding="UTF-8" standalone="no"?>
<!DOCTYPE svg PUBLIC "-//W3C//DTD SVG 1.1//EN"
 "http://www.w3.org/Graphics/SVG/1.1/DTD/svg11.dtd">
<!-- Generated by graphviz version 2.26.3 (20100126.1600)
 -->
<!-- Title: MojErrMessageValue Pages: 1 -->
<svg width="191pt" height="102pt"
 viewBox="0.00 0.00 191.00 102.00" xmlns="http://www.w3.org/2000/svg" xmlns:xlink="http://www.w3.org/1999/xlink">
<g id="graph1" class="graph" transform="scale(1 1) rotate(0) translate(4 98)">
<title>MojErrMessageValue</title>
<polygon fill="white" stroke="white" points="-4,5 -4,-98 188,-98 188,5 -4,5"/>
<!-- Node1 -->
<g id="node1" class="node"><title>Node1</title>
<polygon fill="#bfbfbf" stroke="black" points="65,-0.5 65,-21.5 183,-21.5 183,-0.5 65,-0.5"/>
<text text-anchor="middle" x="124" y="-8.5" font-family="Helvetica,sans-Serif" font-size="10.00">MojErrMessageValue</text>
</g>
<!-- Node2 -->
<g id="node2" class="node"><title>Node2</title>
<a xlink:href="classMojString.htm" target="_top" xlink:title="MojString">
<polygon fill="white" stroke="black" points="0,-72.5 0,-93.5 62,-93.5 62,-72.5 0,-72.5"/>
<text text-anchor="middle" x="31" y="-80.5" font-family="Helvetica,sans-Serif" font-size="10.00">MojString</text>
</a>
</g>
<!-- Node2&#45;&gt;Node1 -->
<g id="edge2" class="edge"><title>Node2&#45;&gt;Node1</title>
<path fill="none" stroke="#9a32cd" stroke-dasharray="5,2" d="M52.8244,-66.1037C70.578,-52.359 95.0874,-33.384 110.221,-21.6674"/>
<polygon fill="#9a32cd" stroke="#9a32cd" points="50.4871,-63.4868 44.7225,-72.3762 54.7723,-69.0219 50.4871,-63.4868"/>
<text text-anchor="middle" x="104.5" y="-44.5" font-family="Helvetica,sans-Serif" font-size="10.00"> m_msg</text>
</g>
<!-- Node2&#45;&gt;Node2 -->
<g id="edge4" class="edge"><title>Node2&#45;&gt;Node2</title>
<path fill="none" stroke="#9a32cd" stroke-dasharray="5,2" d="M72.1528,-88.7507C76.9088,-87.6855 80,-85.7686 80,-83 80,-78.5703 72.0865,-76.3209 62.102,-76.2516"/>
<polygon fill="#9a32cd" stroke="#9a32cd" points="71.7073,-85.2776 62.102,-89.7484 72.3988,-92.2434 71.7073,-85.2776"/>
<text text-anchor="middle" x="96.5" y="-80.5" font-family="Helvetica,sans-Serif" font-size="10.00"> Empty</text>
</g>
<!-- Node3 -->
<g id="node5" class="node"><title>Node3</title>
<polygon fill="white" stroke="#bfbfbf" points="131,-72.5 131,-93.5 179,-93.5 179,-72.5 131,-72.5"/>
<text text-anchor="middle" x="155" y="-80.5" font-family="Helvetica,sans-Serif" font-size="10.00">MojErr</text>
</g>
<!-- Node3&#45;&gt;Node1 -->
<g id="edge6" class="edge"><title>Node3&#45;&gt;Node1</title>
<path fill="none" stroke="#9a32cd" stroke-dasharray="5,2" d="M146.4,-63.0266C140.636,-49.6374 133.271,-32.5318 128.593,-21.6674"/>
<polygon fill="#9a32cd" stroke="#9a32cd" points="143.257,-64.5754 150.426,-72.3762 149.686,-61.8072 143.257,-64.5754"/>
<text text-anchor="middle" x="157.5" y="-44.5" font-family="Helvetica,sans-Serif" font-size="10.00"> m_err</text>
</g>
</g>
</svg>
