<?xml version="1.0" encoding="UTF-8" standalone="no"?>
<!DOCTYPE svg PUBLIC "-//W3C//DTD SVG 1.1//EN"
 "http://www.w3.org/Graphics/SVG/1.1/DTD/svg11.dtd">
<!-- Generated by graphviz version 2.26.3 (20100126.1600)
 -->
<!-- Title: MojErrStr Pages: 1 -->
<svg width="220pt" height="102pt"
 viewBox="0.00 0.00 220.00 102.00" xmlns="http://www.w3.org/2000/svg" xmlns:xlink="http://www.w3.org/1999/xlink">
<g id="graph1" class="graph" transform="scale(1 1) rotate(0) translate(4 98)">
<title>MojErrStr</title>
<polygon fill="white" stroke="white" points="-4,5 -4,-98 217,-98 217,5 -4,5"/>
<!-- Node1 -->
<g id="node1" class="node"><title>Node1</title>
<polygon fill="#bfbfbf" stroke="black" points="85,-0.5 85,-21.5 147,-21.5 147,-0.5 85,-0.5"/>
<text text-anchor="middle" x="116" y="-8.5" font-family="Helvetica,sans-Serif" font-size="10.00">MojErrStr</text>
</g>
<!-- Node2 -->
<g id="node2" class="node"><title>Node2</title>
<polygon fill="white" stroke="#bfbfbf" points="-0.5,-72.5 -0.5,-93.5 118.5,-93.5 118.5,-72.5 -0.5,-72.5"/>
<text text-anchor="middle" x="59" y="-80.5" font-family="Helvetica,sans-Serif" font-size="10.00">const MojChar *const</text>
</g>
<!-- Node2&#45;&gt;Node1 -->
<g id="edge2" class="edge"><title>Node2&#45;&gt;Node1</title>
<path fill="none" stroke="#9a32cd" stroke-dasharray="5,2" d="M73.8848,-64.1981C84.6112,-50.649 98.701,-32.8514 107.555,-21.6674"/>
<polygon fill="#9a32cd" stroke="#9a32cd" points="70.8734,-62.3632 67.4105,-72.3762 76.3618,-66.7081 70.8734,-62.3632"/>
<text text-anchor="middle" x="108" y="-44.5" font-family="Helvetica,sans-Serif" font-size="10.00"> m_str</text>
</g>
<!-- Node3 -->
<g id="node4" class="node"><title>Node3</title>
<polygon fill="white" stroke="#bfbfbf" points="135.5,-72.5 135.5,-93.5 212.5,-93.5 212.5,-72.5 135.5,-72.5"/>
<text text-anchor="middle" x="174" y="-80.5" font-family="Helvetica,sans-Serif" font-size="10.00">const MojErr</text>
</g>
<!-- Node3&#45;&gt;Node1 -->
<g id="edge4" class="edge"><title>Node3&#45;&gt;Node1</title>
<path fill="none" stroke="#9a32cd" stroke-dasharray="5,2" d="M159.165,-64.5841C148.213,-50.9886 133.688,-32.9579 124.593,-21.6674"/>
<polygon fill="#9a32cd" stroke="#9a32cd" points="156.443,-66.7843 165.442,-72.3762 161.894,-62.3929 156.443,-66.7843"/>
<text text-anchor="middle" x="165.5" y="-44.5" font-family="Helvetica,sans-Serif" font-size="10.00"> m_err</text>
</g>
</g>
</svg>
