<?xml version="1.0" encoding="UTF-8" standalone="no"?>
<!DOCTYPE svg PUBLIC "-//W3C//DTD SVG 1.1//EN"
 "http://www.w3.org/Graphics/SVG/1.1/DTD/svg11.dtd">
<!-- Generated by graphviz version 2.26.3 (20100126.1600)
 -->
<!-- Title: MojService::CategoryHandler::CallbackInfo Pages: 1 -->
<svg width="2278pt" height="939pt"
 viewBox="0.00 0.00 2278.00 938.92" xmlns="http://www.w3.org/2000/svg" xmlns:xlink="http://www.w3.org/1999/xlink">
<g id="graph1" class="graph" transform="scale(1 1) rotate(0) translate(4 934.916)">
<title>MojService::CategoryHandler::CallbackInfo</title>
<polygon fill="white" stroke="white" points="-4,5 -4,-934.916 2275,-934.916 2275,5 -4,5"/>
<!-- Node1 -->
<g id="node1" class="node"><title>Node1</title>
<polygon fill="#bfbfbf" stroke="black" points="2114.5,-396 2114.5,-430 2269.5,-430 2269.5,-396 2114.5,-396"/>
<text text-anchor="start" x="2122.5" y="-417" font-family="Helvetica,sans-Serif" font-size="10.00">MojService::CategoryHandler</text>
<text text-anchor="middle" x="2192" y="-404" font-family="Helvetica,sans-Serif" font-size="10.00">::CallbackInfo</text>
</g>
<!-- Node2 -->
<g id="node2" class="node"><title>Node2</title>
<a xlink:href="classMojRefCountedPtr.htm" target="_top" xlink:title="MojRefCountedPtr\&lt; MojSchema \&gt;">
<polygon fill="white" stroke="black" points="1090.5,-708.5 1090.5,-729.5 1267.5,-729.5 1267.5,-708.5 1090.5,-708.5"/>
<text text-anchor="middle" x="1179" y="-716.5" font-family="Helvetica,sans-Serif" font-size="10.00">MojRefCountedPtr&lt; MojSchema &gt;</text>
</a>
</g>
<!-- Node2&#45;&gt;Node1 -->
<g id="edge2" class="edge"><title>Node2&#45;&gt;Node1</title>
<path fill="none" stroke="#9a32cd" stroke-dasharray="5,2" d="M1228.56,-706.002C1301.34,-688.088 1441.63,-658 1563,-658 1563,-658 1563,-658 1965,-658 2089.38,-658 2164.69,-485.995 2185.84,-430.228"/>
<polygon fill="#9a32cd" stroke="#9a32cd" points="1227.61,-702.632 1218.75,-708.444 1229.3,-709.425 1227.61,-702.632"/>
<text text-anchor="middle" x="1733" y="-662" font-family="Helvetica,sans-Serif" font-size="10.00"> m_schema</text>
</g>
<!-- Node3 -->
<g id="node4" class="node"><title>Node3</title>
<a xlink:href="classMojSmartPtrBase.htm" target="_top" xlink:title="MojSmartPtrBase\&lt; MojSchema \&gt;">
<polygon fill="white" stroke="black" points="664.5,-877.5 664.5,-898.5 837.5,-898.5 837.5,-877.5 664.5,-877.5"/>
<text text-anchor="middle" x="751" y="-885.5" font-family="Helvetica,sans-Serif" font-size="10.00">MojSmartPtrBase&lt; MojSchema &gt;</text>
</a>
</g>
<!-- Node3&#45;&gt;Node2 -->
<g id="edge4" class="edge"><title>Node3&#45;&gt;Node2</title>
<path fill="none" stroke="midnightblue" d="M787.166,-873.72C871.243,-840.521 1078.31,-758.757 1152.24,-729.568"/>
<polygon fill="midnightblue" stroke="midnightblue" points="785.789,-870.5 777.773,-877.428 788.36,-877.011 785.789,-870.5"/>
</g>
<!-- Node4 -->
<g id="node6" class="node"><title>Node4</title>
<a xlink:href="classMojNoCopy.htm" target="_top" xlink:title="MojNoCopy">
<polygon fill="white" stroke="black" points="11,-514.5 11,-535.5 83,-535.5 83,-514.5 11,-514.5"/>
<text text-anchor="middle" x="47" y="-522.5" font-family="Helvetica,sans-Serif" font-size="10.00">MojNoCopy</text>
</a>
</g>
<!-- Node4&#45;&gt;Node3 -->
<g id="edge6" class="edge"><title>Node4&#45;&gt;Node3</title>
<path fill="none" stroke="#8b1a1a" d="M49.7555,-545.918C58.4875,-608.857 87.6146,-794.512 132,-833 301.34,-979.84 603.488,-924.573 711.368,-898.524"/>
<polygon fill="#8b1a1a" stroke="#8b1a1a" points="53.1761,-545.096 48.3633,-535.657 46.2396,-546.037 53.1761,-545.096"/>
</g>
<!-- Node6 -->
<g id="node10" class="node"><title>Node6</title>
<a xlink:href="classMojRefCounted.htm" target="_top" xlink:title="MojRefCounted">
<polygon fill="white" stroke="black" points="171,-710.5 171,-731.5 261,-731.5 261,-710.5 171,-710.5"/>
<text text-anchor="middle" x="216" y="-718.5" font-family="Helvetica,sans-Serif" font-size="10.00">MojRefCounted</text>
</a>
</g>
<!-- Node4&#45;&gt;Node6 -->
<g id="edge12" class="edge"><title>Node4&#45;&gt;Node6</title>
<path fill="none" stroke="#8b1a1a" d="M62.7247,-543.237C97.3768,-583.425 179.414,-678.569 206.869,-710.41"/>
<polygon fill="#8b1a1a" stroke="#8b1a1a" points="65.2671,-540.826 56.0862,-535.538 59.9657,-545.397 65.2671,-540.826"/>
</g>
<!-- Node11 -->
<g id="node22" class="node"><title>Node11</title>
<a xlink:href="classMojListEntry.htm" target="_top" xlink:title="MojListEntry">
<polygon fill="white" stroke="black" points="348.5,-527.5 348.5,-548.5 423.5,-548.5 423.5,-527.5 348.5,-527.5"/>
<text text-anchor="middle" x="386" y="-535.5" font-family="Helvetica,sans-Serif" font-size="10.00">MojListEntry</text>
</a>
</g>
<!-- Node4&#45;&gt;Node11 -->
<g id="edge26" class="edge"><title>Node4&#45;&gt;Node11</title>
<path fill="none" stroke="#8b1a1a" d="M93.6646,-526.789C161.524,-529.392 286.12,-534.17 348.436,-536.559"/>
<polygon fill="#8b1a1a" stroke="#8b1a1a" points="93.4057,-523.277 83.2789,-526.391 93.1374,-530.272 93.4057,-523.277"/>
</g>
<!-- Node16 -->
<g id="node36" class="node"><title>Node16</title>
<a xlink:href="classMojSmartPtrBase.htm" target="_top" xlink:title="MojSmartPtrBase\&lt; MojService\l::CategoryHandler \&gt;">
<polygon fill="white" stroke="black" points="904.5,-396 904.5,-430 1065.5,-430 1065.5,-396 904.5,-396"/>
<text text-anchor="start" x="912.5" y="-417" font-family="Helvetica,sans-Serif" font-size="10.00">MojSmartPtrBase&lt; MojService</text>
<text text-anchor="middle" x="985" y="-404" font-family="Helvetica,sans-Serif" font-size="10.00">::CategoryHandler &gt;</text>
</a>
</g>
<!-- Node4&#45;&gt;Node16 -->
<g id="edge44" class="edge"><title>Node4&#45;&gt;Node16</title>
<path fill="none" stroke="#8b1a1a" d="M63.5966,-507.058C91.8926,-478.525 152.593,-426 216,-426 216,-426 216,-426 751,-426 802.063,-426 859.297,-422.876 904.381,-419.69"/>
<polygon fill="#8b1a1a" stroke="#8b1a1a" points="60.9294,-504.781 56.4997,-514.405 65.9644,-509.644 60.9294,-504.781"/>
</g>
<!-- Node20 -->
<g id="node46" class="node"><title>Node20</title>
<a xlink:href="classMojService.htm" target="_top" xlink:title="MojService">
<polygon fill="white" stroke="black" points="488.5,-262.5 488.5,-283.5 557.5,-283.5 557.5,-262.5 488.5,-262.5"/>
<text text-anchor="middle" x="523" y="-270.5" font-family="Helvetica,sans-Serif" font-size="10.00">MojService</text>
</a>
</g>
<!-- Node4&#45;&gt;Node20 -->
<g id="edge56" class="edge"><title>Node4&#45;&gt;Node20</title>
<path fill="none" stroke="#8b1a1a" d="M50.2711,-504.268C57.6463,-464.194 79.2314,-375.602 132,-325 195.752,-263.866 231.1,-270.811 318,-255 377.468,-244.18 394.047,-247.309 454,-255 465.788,-256.512 478.438,-259.422 489.646,-262.468"/>
<polygon fill="#8b1a1a" stroke="#8b1a1a" points="46.8066,-503.763 48.5536,-514.212 53.7045,-504.954 46.8066,-503.763"/>
</g>
<!-- Node21 -->
<g id="node49" class="node"><title>Node21</title>
<a xlink:href="classMojThreadMutex.htm" target="_top" xlink:title="MojThreadMutex">
<polygon fill="white" stroke="black" points="167.5,-476.5 167.5,-497.5 264.5,-497.5 264.5,-476.5 167.5,-476.5"/>
<text text-anchor="middle" x="216" y="-484.5" font-family="Helvetica,sans-Serif" font-size="10.00">MojThreadMutex</text>
</a>
</g>
<!-- Node4&#45;&gt;Node21 -->
<g id="edge60" class="edge"><title>Node4&#45;&gt;Node21</title>
<path fill="none" stroke="#8b1a1a" d="M93.0462,-514.646C116.691,-509.33 145.442,-502.865 169.195,-497.524"/>
<polygon fill="#8b1a1a" stroke="#8b1a1a" points="92.2433,-511.239 83.2547,-516.848 93.779,-518.069 92.2433,-511.239"/>
</g>
<!-- Node24 -->
<g id="node59" class="node"><title>Node24</title>
<a xlink:href="classMojMessageDispatcher.htm" target="_top" xlink:title="MojMessageDispatcher">
<polygon fill="white" stroke="black" points="152,-375.5 152,-396.5 280,-396.5 280,-375.5 152,-375.5"/>
<text text-anchor="middle" x="216" y="-383.5" font-family="Helvetica,sans-Serif" font-size="10.00">MojMessageDispatcher</text>
</a>
</g>
<!-- Node4&#45;&gt;Node24 -->
<g id="edge74" class="edge"><title>Node4&#45;&gt;Node24</title>
<path fill="none" stroke="#8b1a1a" d="M53.1765,-504.62C62.0025,-479.032 80.7117,-435.632 112,-412 123.584,-403.251 137.764,-397.419 151.882,-393.54"/>
<polygon fill="#8b1a1a" stroke="#8b1a1a" points="49.7646,-503.794 49.9912,-514.386 56.4196,-505.964 49.7646,-503.794"/>
</g>
<!-- Node25 -->
<g id="node62" class="node"><title>Node25</title>
<a xlink:href="classMojLogger.htm" target="_top" xlink:title="MojLogger">
<polygon fill="white" stroke="black" points="182,-334.5 182,-355.5 250,-355.5 250,-334.5 182,-334.5"/>
<text text-anchor="middle" x="216" y="-342.5" font-family="Helvetica,sans-Serif" font-size="10.00">MojLogger</text>
</a>
</g>
<!-- Node4&#45;&gt;Node25 -->
<g id="edge78" class="edge"><title>Node4&#45;&gt;Node25</title>
<path fill="none" stroke="#8b1a1a" d="M52.1708,-504.302C61.821,-470.089 85.8994,-401.958 132,-366 146.105,-354.998 165.247,-349.687 181.696,-347.153"/>
<polygon fill="#8b1a1a" stroke="#8b1a1a" points="48.7437,-503.569 49.5349,-514.134 55.505,-505.382 48.7437,-503.569"/>
</g>
<!-- Node32 -->
<g id="node79" class="node"><title>Node32</title>
<a xlink:href="classMojSignalBase.htm" target="_top" xlink:title="MojSignalBase">
<polygon fill="white" stroke="black" points="707.5,-623.5 707.5,-644.5 794.5,-644.5 794.5,-623.5 707.5,-623.5"/>
<text text-anchor="middle" x="751" y="-631.5" font-family="Helvetica,sans-Serif" font-size="10.00">MojSignalBase</text>
</a>
</g>
<!-- Node4&#45;&gt;Node32 -->
<g id="edge98" class="edge"><title>Node4&#45;&gt;Node32</title>
<path fill="none" stroke="#8b1a1a" d="M50.9077,-545.518C62.0396,-601.931 95.4781,-757.533 132,-793 193.934,-853.145 232.589,-836.421 318,-849 430.619,-865.586 468.488,-883.722 574,-841 668.668,-802.669 729.593,-681.655 746.32,-644.774"/>
<polygon fill="#8b1a1a" stroke="#8b1a1a" points="54.3282,-544.772 48.9844,-535.623 47.4568,-546.107 54.3282,-544.772"/>
</g>
<!-- Node33 -->
<g id="node84" class="node"><title>Node33</title>
<a xlink:href="classMojList.htm" target="_top" xlink:title="MojList\&lt; MojSlotBase,\l&amp;MojSlotBase::m_entry \&gt;">
<polygon fill="white" stroke="black" points="318.5,-814 318.5,-848 453.5,-848 453.5,-814 318.5,-814"/>
<text text-anchor="start" x="326.5" y="-835" font-family="Helvetica,sans-Serif" font-size="10.00">MojList&lt; MojSlotBase,</text>
<text text-anchor="middle" x="386" y="-822" font-family="Helvetica,sans-Serif" font-size="10.00">&amp;MojSlotBase::m_entry &gt;</text>
</a>
</g>
<!-- Node4&#45;&gt;Node33 -->
<g id="edge106" class="edge"><title>Node4&#45;&gt;Node33</title>
<path fill="none" stroke="#8b1a1a" d="M49.4167,-545.699C55.4588,-588.215 75.0675,-685.992 132,-741 182.719,-790.005 261.783,-812.504 318.221,-822.721"/>
<polygon fill="#8b1a1a" stroke="#8b1a1a" points="52.8754,-545.155 48.1049,-535.695 45.9348,-546.066 52.8754,-545.155"/>
</g>
<!-- Node5 -->
<g id="node8" class="node"><title>Node5</title>
<a xlink:href="classMojSchema.htm" target="_top" xlink:title="MojSchema">
<polygon fill="white" stroke="black" points="487,-764.5 487,-785.5 559,-785.5 559,-764.5 487,-764.5"/>
<text text-anchor="middle" x="523" y="-772.5" font-family="Helvetica,sans-Serif" font-size="10.00">MojSchema</text>
</a>
</g>
<!-- Node5&#45;&gt;Node3 -->
<g id="edge8" class="edge"><title>Node5&#45;&gt;Node3</title>
<path fill="none" stroke="#9a32cd" stroke-dasharray="5,2" d="M554.148,-790.234C560.708,-793.452 567.584,-796.833 574,-800 630.313,-827.8 696.563,-860.823 729.768,-877.396"/>
<polygon fill="#9a32cd" stroke="#9a32cd" points="555.373,-786.937 544.853,-785.679 552.292,-793.223 555.373,-786.937"/>
<text text-anchor="middle" x="619" y="-837" font-family="Helvetica,sans-Serif" font-size="10.00"> m_p</text>
</g>
<!-- Node6&#45;&gt;Node5 -->
<g id="edge10" class="edge"><title>Node6&#45;&gt;Node5</title>
<path fill="none" stroke="midnightblue" d="M235.566,-738.039C254.975,-753.721 286.324,-775.885 318,-785 375.186,-801.455 445,-792.186 486.631,-783.752"/>
<polygon fill="midnightblue" stroke="midnightblue" points="237.7,-735.263 227.771,-731.567 233.228,-740.648 237.7,-735.263"/>
</g>
<!-- Node10 -->
<g id="node19" class="node"><title>Node10</title>
<a xlink:href="classMojSignalHandler.htm" target="_top" xlink:title="MojSignalHandler">
<polygon fill="white" stroke="black" points="472.5,-613.5 472.5,-634.5 573.5,-634.5 573.5,-613.5 472.5,-613.5"/>
<text text-anchor="middle" x="523" y="-621.5" font-family="Helvetica,sans-Serif" font-size="10.00">MojSignalHandler</text>
</a>
</g>
<!-- Node6&#45;&gt;Node10 -->
<g id="edge22" class="edge"><title>Node6&#45;&gt;Node10</title>
<path fill="none" stroke="midnightblue" d="M242.876,-736.313C289.479,-760.627 386.736,-801.3 454,-760 500.253,-731.601 516.675,-661.475 521.383,-634.661"/>
<polygon fill="midnightblue" stroke="midnightblue" points="244.459,-733.19 233.992,-731.552 241.153,-739.36 244.459,-733.19"/>
</g>
<!-- Node14 -->
<g id="node31" class="node"><title>Node14</title>
<a xlink:href="classMojService_1_1Category.htm" target="_top" xlink:title="MojService::Category">
<polygon fill="white" stroke="black" points="1674.5,-402.5 1674.5,-423.5 1791.5,-423.5 1791.5,-402.5 1674.5,-402.5"/>
<text text-anchor="middle" x="1733" y="-410.5" font-family="Helvetica,sans-Serif" font-size="10.00">MojService::Category</text>
</a>
</g>
<!-- Node6&#45;&gt;Node14 -->
<g id="edge38" class="edge"><title>Node6&#45;&gt;Node14</title>
<path fill="none" stroke="midnightblue" d="M235.003,-703.222C254.45,-683.901 284.017,-651.186 300,-617 317.462,-579.652 288.896,-555.202 318,-526 324.161,-519.819 463.389,-496.421 472,-495 536.997,-484.271 553.123,-476 619,-476 619,-476 619,-476 1369,-476 1490.53,-476 1631.59,-441.479 1696.68,-423.545"/>
<polygon fill="midnightblue" stroke="midnightblue" points="232.335,-700.934 227.603,-710.414 237.214,-705.954 232.335,-700.934"/>
</g>
<!-- Node7 -->
<g id="node13" class="node"><title>Node7</title>
<polygon fill="white" stroke="#bfbfbf" points="197,-586.5 197,-607.5 235,-607.5 235,-586.5 197,-586.5"/>
<text text-anchor="middle" x="216" y="-594.5" font-family="Helvetica,sans-Serif" font-size="10.00">char</text>
</g>
<!-- Node7&#45;&gt;Node5 -->
<g id="edge14" class="edge"><title>Node7&#45;&gt;Node5</title>
<path fill="none" stroke="#9a32cd" stroke-dasharray="5,2" d="M245.281,-594.13C293.666,-590.973 391.192,-591.489 454,-638 497.66,-670.331 515.552,-738.131 521.02,-764.341"/>
<polygon fill="#9a32cd" stroke="#9a32cd" points="244.891,-590.65 235.182,-594.891 245.417,-597.63 244.891,-590.65"/>
<text text-anchor="middle" x="386" y="-772" font-family="Helvetica,sans-Serif" font-size="10.00"> MaxLengthKey</text>
<text text-anchor="middle" x="386" y="-759" font-family="Helvetica,sans-Serif" font-size="10.00">EnumKey</text>
<text text-anchor="middle" x="386" y="-746" font-family="Helvetica,sans-Serif" font-size="10.00">PropertiesKey</text>
<text text-anchor="middle" x="386" y="-733" font-family="Helvetica,sans-Serif" font-size="10.00">MaximumCanEqualKey</text>
<text text-anchor="middle" x="386" y="-720" font-family="Helvetica,sans-Serif" font-size="10.00">MinItemsKey</text>
<text text-anchor="middle" x="386" y="-707" font-family="Helvetica,sans-Serif" font-size="10.00">UniqueItemsKey</text>
<text text-anchor="middle" x="386" y="-694" font-family="Helvetica,sans-Serif" font-size="10.00">OptionalKey</text>
<text text-anchor="middle" x="386" y="-681" font-family="Helvetica,sans-Serif" font-size="10.00">MaximumKey</text>
<text text-anchor="middle" x="386" y="-668" font-family="Helvetica,sans-Serif" font-size="10.00">MinimumKey</text>
<text text-anchor="middle" x="386" y="-655" font-family="Helvetica,sans-Serif" font-size="10.00">TypeKey</text>
<text text-anchor="middle" x="386" y="-642" font-family="Helvetica,sans-Serif" font-size="10.00">...</text>
</g>
<!-- Node7&#45;&gt;Node20 -->
<g id="edge70" class="edge"><title>Node7&#45;&gt;Node20</title>
<path fill="none" stroke="#9a32cd" stroke-dasharray="5,2" d="M233.507,-578.945C250.751,-560.999 277.677,-532.537 300,-507 308.314,-497.488 307.661,-492.26 318,-485 370.458,-448.166 411.426,-484.918 454,-437 478.206,-409.755 458.364,-390.797 472,-357 483.426,-328.679 503.808,-298.895 515.035,-283.54"/>
<polygon fill="#9a32cd" stroke="#9a32cd" points="230.738,-576.774 226.316,-586.403 235.777,-581.633 230.738,-576.774"/>
<text text-anchor="middle" x="386" y="-489" font-family="Helvetica,sans-Serif" font-size="10.00"> DefaultCategory</text>
</g>
<!-- Node8 -->
<g id="node15" class="node"><title>Node8</title>
<a xlink:href="classMojServiceMessage.htm" target="_top" xlink:title="MojServiceMessage">
<polygon fill="white" stroke="black" points="1908.5,-402.5 1908.5,-423.5 2021.5,-423.5 2021.5,-402.5 1908.5,-402.5"/>
<text text-anchor="middle" x="1965" y="-410.5" font-family="Helvetica,sans-Serif" font-size="10.00">MojServiceMessage</text>
</a>
</g>
<!-- Node8&#45;&gt;Node1 -->
<g id="edge16" class="edge"><title>Node8&#45;&gt;Node1</title>
<path fill="none" stroke="#9a32cd" stroke-dasharray="5,2" d="M2031.77,-413C2057.62,-413 2087.4,-413 2114.21,-413"/>
<polygon fill="#9a32cd" stroke="#9a32cd" points="2031.7,-409.5 2021.7,-413 2031.7,-416.5 2031.7,-409.5"/>
<text text-anchor="middle" x="2068" y="-417" font-family="Helvetica,sans-Serif" font-size="10.00"> m_callback</text>
</g>
<!-- Node8&#45;&gt;Node8 -->
<g id="edge34" class="edge"><title>Node8&#45;&gt;Node8</title>
<path fill="none" stroke="#9a32cd" stroke-dasharray="5,2" d="M1946.2,-433.427C1947.65,-438.349 1953.92,-442 1965,-442 1982.73,-442 1988.13,-432.653 1981.21,-423.708"/>
<polygon fill="#9a32cd" stroke="#9a32cd" points="1949.6,-434.272 1948.79,-423.708 1942.84,-432.469 1949.6,-434.272"/>
<text text-anchor="middle" x="1965" y="-446" font-family="Helvetica,sans-Serif" font-size="10.00"> m_dispatchMethod</text>
</g>
<!-- Node9 -->
<g id="node17" class="node"><title>Node9</title>
<a xlink:href="classMojMessage.htm" target="_top" xlink:title="MojMessage">
<polygon fill="white" stroke="black" points="712.5,-540.5 712.5,-561.5 789.5,-561.5 789.5,-540.5 712.5,-540.5"/>
<text text-anchor="middle" x="751" y="-548.5" font-family="Helvetica,sans-Serif" font-size="10.00">MojMessage</text>
</a>
</g>
<!-- Node9&#45;&gt;Node8 -->
<g id="edge18" class="edge"><title>Node9&#45;&gt;Node8</title>
<path fill="none" stroke="midnightblue" d="M799.545,-538.771C846.627,-527.996 920.242,-514 985,-514 985,-514 985,-514 1733,-514 1822.62,-514 1916.73,-449.864 1951.26,-423.809"/>
<polygon fill="midnightblue" stroke="midnightblue" points="798.568,-535.405 789.624,-541.085 800.158,-542.223 798.568,-535.405"/>
</g>
<!-- Node10&#45;&gt;Node9 -->
<g id="edge20" class="edge"><title>Node10&#45;&gt;Node9</title>
<path fill="none" stroke="midnightblue" d="M565.752,-610.312C609.959,-596.158 678.026,-574.364 718.177,-561.509"/>
<polygon fill="midnightblue" stroke="midnightblue" points="564.61,-607.003 556.153,-613.385 566.744,-613.669 564.61,-607.003"/>
</g>
<!-- Node17 -->
<g id="node39" class="node"><title>Node17</title>
<a xlink:href="classMojService_1_1CategoryHandler.htm" target="_top" xlink:title="MojService::CategoryHandler">
<polygon fill="white" stroke="black" points="673.5,-376.5 673.5,-397.5 828.5,-397.5 828.5,-376.5 673.5,-376.5"/>
<text text-anchor="middle" x="751" y="-384.5" font-family="Helvetica,sans-Serif" font-size="10.00">MojService::CategoryHandler</text>
</a>
</g>
<!-- Node10&#45;&gt;Node17 -->
<g id="edge48" class="edge"><title>Node10&#45;&gt;Node17</title>
<path fill="none" stroke="midnightblue" d="M548.665,-607.625C557.06,-601.821 566.22,-594.987 574,-588 646.649,-522.758 719.214,-429.298 742.946,-397.818"/>
<polygon fill="midnightblue" stroke="midnightblue" points="546.628,-604.777 540.284,-613.263 550.535,-610.585 546.628,-604.777"/>
</g>
<!-- Node10&#45;&gt;Node32 -->
<g id="edge100" class="edge"><title>Node10&#45;&gt;Node32</title>
<path fill="none" stroke="#9a32cd" stroke-dasharray="5,2" d="M583.772,-626.665C622.738,-628.374 672.403,-630.553 707.452,-632.09"/>
<polygon fill="#9a32cd" stroke="#9a32cd" points="583.744,-623.161 573.601,-626.219 583.438,-630.154 583.744,-623.161"/>
<text text-anchor="middle" x="619" y="-633" font-family="Helvetica,sans-Serif" font-size="10.00"> m_handler</text>
</g>
<!-- Node11&#45;&gt;Node9 -->
<g id="edge24" class="edge"><title>Node11&#45;&gt;Node9</title>
<path fill="none" stroke="#9a32cd" stroke-dasharray="5,2" d="M434,-539.71C507.202,-542.317 645.297,-547.235 712.421,-549.626"/>
<polygon fill="#9a32cd" stroke="#9a32cd" points="433.805,-536.201 423.687,-539.342 433.556,-543.196 433.805,-536.201"/>
<text text-anchor="middle" x="523" y="-548" font-family="Helvetica,sans-Serif" font-size="10.00"> m_queueEntry</text>
</g>
<!-- Node11&#45;&gt;Node11 -->
<g id="edge28" class="edge"><title>Node11&#45;&gt;Node11</title>
<path fill="none" stroke="#9a32cd" stroke-dasharray="5,2" d="M360.804,-558.055C362.456,-563.164 370.855,-567 386,-567 409.641,-567 416.844,-557.653 407.609,-548.708"/>
<polygon fill="#9a32cd" stroke="#9a32cd" points="364.076,-559.298 364.391,-548.708 357.54,-556.79 364.076,-559.298"/>
<text text-anchor="middle" x="386" y="-584" font-family="Helvetica,sans-Serif" font-size="10.00"> m_prev</text>
<text text-anchor="middle" x="386" y="-571" font-family="Helvetica,sans-Serif" font-size="10.00">m_next</text>
</g>
<!-- Node12 -->
<g id="node26" class="node"><title>Node12</title>
<polygon fill="white" stroke="#bfbfbf" points="1676.5,-283 1676.5,-317 1789.5,-317 1789.5,-283 1676.5,-283"/>
<text text-anchor="start" x="1684.5" y="-304" font-family="Helvetica,sans-Serif" font-size="10.00">static const MojChar</text>
<text text-anchor="middle" x="1733" y="-291" font-family="Helvetica,sans-Serif" font-size="10.00"> *const</text>
</g>
<!-- Node12&#45;&gt;Node8 -->
<g id="edge30" class="edge"><title>Node12&#45;&gt;Node8</title>
<path fill="none" stroke="#9a32cd" stroke-dasharray="5,2" d="M1799.72,-286.938C1829.01,-284.498 1862.84,-286.387 1890,-301 1931.22,-323.173 1953.81,-379.06 1961.72,-402.45"/>
<polygon fill="#9a32cd" stroke="#9a32cd" points="1799.16,-283.477 1789.57,-287.968 1799.87,-290.441 1799.16,-283.477"/>
<text text-anchor="middle" x="1850" y="-331" font-family="Helvetica,sans-Serif" font-size="10.00"> ReturnValueKey</text>
<text text-anchor="middle" x="1850" y="-318" font-family="Helvetica,sans-Serif" font-size="10.00">ErrorTextKey</text>
<text text-anchor="middle" x="1850" y="-305" font-family="Helvetica,sans-Serif" font-size="10.00">ErrorCodeKey</text>
</g>
<!-- Node13 -->
<g id="node28" class="node"><title>Node13</title>
<polygon fill="white" stroke="#bfbfbf" points="1706,-542.5 1706,-563.5 1760,-563.5 1760,-542.5 1706,-542.5"/>
<text text-anchor="middle" x="1733" y="-550.5" font-family="Helvetica,sans-Serif" font-size="10.00">MojSize</text>
</g>
<!-- Node13&#45;&gt;Node8 -->
<g id="edge32" class="edge"><title>Node13&#45;&gt;Node8</title>
<path fill="none" stroke="#9a32cd" stroke-dasharray="5,2" d="M1770.43,-555.269C1804.28,-555.521 1854.17,-551.243 1890,-528 1929.8,-502.188 1953.04,-447.015 1961.42,-423.726"/>
<polygon fill="#9a32cd" stroke="#9a32cd" points="1770.12,-551.761 1760.04,-555.046 1769.97,-558.759 1770.12,-551.761"/>
<text text-anchor="middle" x="1850" y="-556" font-family="Helvetica,sans-Serif" font-size="10.00"> m_numReplies</text>
</g>
<!-- Node14&#45;&gt;Node8 -->
<g id="edge36" class="edge"><title>Node14&#45;&gt;Node8</title>
<path fill="none" stroke="#9a32cd" stroke-dasharray="5,2" d="M1801.87,-413C1835.85,-413 1876.34,-413 1908.48,-413"/>
<polygon fill="#9a32cd" stroke="#9a32cd" points="1801.54,-409.5 1791.54,-413 1801.54,-416.5 1801.54,-409.5"/>
<text text-anchor="middle" x="1850" y="-417" font-family="Helvetica,sans-Serif" font-size="10.00"> m_category</text>
</g>
<!-- Node15 -->
<g id="node34" class="node"><title>Node15</title>
<a xlink:href="classMojRefCountedPtr.htm" target="_top" xlink:title="MojRefCountedPtr\&lt; MojService\l::CategoryHandler \&gt;">
<polygon fill="white" stroke="black" points="1286.5,-396 1286.5,-430 1451.5,-430 1451.5,-396 1286.5,-396"/>
<text text-anchor="start" x="1294.5" y="-417" font-family="Helvetica,sans-Serif" font-size="10.00">MojRefCountedPtr&lt; MojService</text>
<text text-anchor="middle" x="1369" y="-404" font-family="Helvetica,sans-Serif" font-size="10.00">::CategoryHandler &gt;</text>
</a>
</g>
<!-- Node15&#45;&gt;Node14 -->
<g id="edge40" class="edge"><title>Node15&#45;&gt;Node14</title>
<path fill="none" stroke="#9a32cd" stroke-dasharray="5,2" d="M1461.72,-413C1528.6,-413 1616.85,-413 1674.25,-413"/>
<polygon fill="#9a32cd" stroke="#9a32cd" points="1461.6,-409.5 1451.6,-413 1461.6,-416.5 1461.6,-409.5"/>
<text text-anchor="middle" x="1563" y="-417" font-family="Helvetica,sans-Serif" font-size="10.00"> m_handler</text>
</g>
<!-- Node16&#45;&gt;Node15 -->
<g id="edge42" class="edge"><title>Node16&#45;&gt;Node15</title>
<path fill="none" stroke="midnightblue" d="M1076.03,-413C1139.9,-413 1224.59,-413 1286.49,-413"/>
<polygon fill="midnightblue" stroke="midnightblue" points="1075.97,-409.5 1065.97,-413 1075.97,-416.5 1075.97,-409.5"/>
</g>
<!-- Node17&#45;&gt;Node16 -->
<g id="edge46" class="edge"><title>Node17&#45;&gt;Node16</title>
<path fill="none" stroke="#9a32cd" stroke-dasharray="5,2" d="M838.796,-394.694C852.594,-396.04 866.691,-397.494 880,-399 887.949,-399.899 896.229,-400.897 904.496,-401.934"/>
<polygon fill="#9a32cd" stroke="#9a32cd" points="839.106,-391.208 828.817,-393.734 838.436,-398.176 839.106,-391.208"/>
<text text-anchor="middle" x="868" y="-403" font-family="Helvetica,sans-Serif" font-size="10.00"> m_p</text>
</g>
<!-- Node18 -->
<g id="node42" class="node"><title>Node18</title>
<a xlink:href="classMojHashMap.htm" target="_top" xlink:title="MojHashMap\&lt; MojString,\l CallbackInfo, const\l MojChar * \&gt;">
<polygon fill="white" stroke="black" points="318,-291.5 318,-338.5 454,-338.5 454,-291.5 318,-291.5"/>
<text text-anchor="start" x="326" y="-325.5" font-family="Helvetica,sans-Serif" font-size="10.00">MojHashMap&lt; MojString,</text>
<text text-anchor="start" x="326" y="-312.5" font-family="Helvetica,sans-Serif" font-size="10.00"> CallbackInfo, const</text>
<text text-anchor="middle" x="386" y="-299.5" font-family="Helvetica,sans-Serif" font-size="10.00"> MojChar * &gt;</text>
</a>
</g>
<!-- Node18&#45;&gt;Node17 -->
<g id="edge50" class="edge"><title>Node18&#45;&gt;Node17</title>
<path fill="none" stroke="#9a32cd" stroke-dasharray="5,2" d="M464.479,-334.232C502.805,-343.284 549.674,-353.854 592,-362 619.714,-367.334 650.309,-372.35 677.198,-376.47"/>
<polygon fill="#9a32cd" stroke="#9a32cd" points="464.957,-330.748 454.419,-331.845 463.341,-337.559 464.957,-330.748"/>
<text text-anchor="middle" x="523" y="-362" font-family="Helvetica,sans-Serif" font-size="10.00"> m_callbackMap</text>
</g>
<!-- Node19 -->
<g id="node44" class="node"><title>Node19</title>
<a xlink:href="classMojHashBase.htm" target="_top" xlink:title="MojHashBase">
<polygon fill="white" stroke="black" points="5.5,-202.5 5.5,-223.5 88.5,-223.5 88.5,-202.5 5.5,-202.5"/>
<text text-anchor="middle" x="47" y="-210.5" font-family="Helvetica,sans-Serif" font-size="10.00">MojHashBase</text>
</a>
</g>
<!-- Node19&#45;&gt;Node18 -->
<g id="edge52" class="edge"><title>Node19&#45;&gt;Node18</title>
<path fill="none" stroke="#8b1a1a" d="M81.6205,-227.391C96.9268,-233.506 115.224,-240.482 132,-246 194.181,-266.454 266.305,-285.622 317.774,-298.539"/>
<polygon fill="#8b1a1a" stroke="#8b1a1a" points="82.623,-224.021 72.04,-223.521 80.0011,-230.512 82.623,-224.021"/>
</g>
<!-- Node23 -->
<g id="node55" class="node"><title>Node23</title>
<a xlink:href="classMojHashMap.htm" target="_top" xlink:title="MojHashMap\&lt; MojString,\l MojRefCountedPtr\&lt; Category\l \&gt;, const MojChar * \&gt;">
<polygon fill="white" stroke="black" points="136.5,-123.5 136.5,-170.5 295.5,-170.5 295.5,-123.5 136.5,-123.5"/>
<text text-anchor="start" x="144.5" y="-157.5" font-family="Helvetica,sans-Serif" font-size="10.00">MojHashMap&lt; MojString,</text>
<text text-anchor="start" x="144.5" y="-144.5" font-family="Helvetica,sans-Serif" font-size="10.00"> MojRefCountedPtr&lt; Category</text>
<text text-anchor="middle" x="216" y="-131.5" font-family="Helvetica,sans-Serif" font-size="10.00"> &gt;, const MojChar * &gt;</text>
</a>
</g>
<!-- Node19&#45;&gt;Node23 -->
<g id="edge68" class="edge"><title>Node19&#45;&gt;Node23</title>
<path fill="none" stroke="#8b1a1a" d="M83.6585,-198.684C104.671,-190.478 131.57,-179.973 155.623,-170.579"/>
<polygon fill="#8b1a1a" stroke="#8b1a1a" points="82.1944,-195.498 74.1528,-202.396 84.7409,-202.018 82.1944,-195.498"/>
</g>
<!-- Node26 -->
<g id="node65" class="node"><title>Node26</title>
<a xlink:href="classMojHashMap.htm" target="_top" xlink:title="MojHashMap\&lt; Token,\l MojRefCountedPtr\&lt; MojService\lRequest \&gt; \&gt;">
<polygon fill="white" stroke="black" points="132,-189.5 132,-236.5 300,-236.5 300,-189.5 132,-189.5"/>
<text text-anchor="start" x="140" y="-223.5" font-family="Helvetica,sans-Serif" font-size="10.00">MojHashMap&lt; Token,</text>
<text text-anchor="start" x="140" y="-210.5" font-family="Helvetica,sans-Serif" font-size="10.00"> MojRefCountedPtr&lt; MojService</text>
<text text-anchor="middle" x="216" y="-197.5" font-family="Helvetica,sans-Serif" font-size="10.00">Request &gt; &gt;</text>
</a>
</g>
<!-- Node19&#45;&gt;Node26 -->
<g id="edge82" class="edge"><title>Node19&#45;&gt;Node26</title>
<path fill="none" stroke="#8b1a1a" d="M98.918,-213C109.351,-213 120.566,-213 131.775,-213"/>
<polygon fill="#8b1a1a" stroke="#8b1a1a" points="98.7753,-209.5 88.7753,-213 98.7753,-216.5 98.7753,-209.5"/>
</g>
<!-- Node20&#45;&gt;Node8 -->
<g id="edge90" class="edge"><title>Node20&#45;&gt;Node8</title>
<path fill="none" stroke="#9a32cd" stroke-dasharray="5,2" d="M567.772,-276.894C731.491,-291.205 1313.1,-342.681 1792,-393 1830.79,-397.076 1874.41,-402.122 1908.15,-406.126"/>
<polygon fill="#9a32cd" stroke="#9a32cd" points="567.864,-273.389 557.598,-276.005 567.255,-280.362 567.864,-273.389"/>
<text text-anchor="middle" x="1179" y="-344" font-family="Helvetica,sans-Serif" font-size="10.00"> m_service</text>
</g>
<!-- Node20&#45;&gt;Node14 -->
<g id="edge54" class="edge"><title>Node20&#45;&gt;Node14</title>
<path fill="none" stroke="#9a32cd" stroke-dasharray="5,2" d="M542.436,-290.337C555.487,-300.887 573.603,-313.537 592,-320 772.853,-383.539 1261,-370.725 1452,-387 1528.89,-393.552 1617.53,-401.883 1674.36,-407.324"/>
<polygon fill="#9a32cd" stroke="#9a32cd" points="544.55,-287.542 534.64,-283.795 540.05,-292.904 544.55,-287.542"/>
<text text-anchor="middle" x="985" y="-377" font-family="Helvetica,sans-Serif" font-size="10.00"> m_service</text>
</g>
<!-- Node21&#45;&gt;Node20 -->
<g id="edge58" class="edge"><title>Node21&#45;&gt;Node20</title>
<path fill="none" stroke="#9a32cd" stroke-dasharray="5,2" d="M239.214,-470.663C259.377,-456.969 289.706,-437.538 318,-424 375.82,-396.333 403.36,-415.296 454,-376 471.004,-362.805 503.554,-307.361 516.98,-283.736"/>
<polygon fill="#9a32cd" stroke="#9a32cd" points="237.23,-467.78 230.97,-476.328 241.194,-473.549 237.23,-467.78"/>
<text text-anchor="middle" x="386" y="-428" font-family="Helvetica,sans-Serif" font-size="10.00"> m_mutex</text>
</g>
<!-- Node21&#45;&gt;Node32 -->
<g id="edge102" class="edge"><title>Node21&#45;&gt;Node32</title>
<path fill="none" stroke="#9a32cd" stroke-dasharray="5,2" d="M274.951,-485.092C347.355,-484.54 472.991,-489.456 574,-524 608.747,-535.883 699.685,-598.088 735.85,-623.336"/>
<polygon fill="#9a32cd" stroke="#9a32cd" points="274.623,-481.595 264.664,-485.21 274.703,-488.595 274.623,-481.595"/>
<text text-anchor="middle" x="523" y="-528" font-family="Helvetica,sans-Serif" font-size="10.00"> m_mutex</text>
</g>
<!-- Node22 -->
<g id="node52" class="node"><title>Node22</title>
<a xlink:href="classMojString.htm" target="_top" xlink:title="MojString">
<polygon fill="white" stroke="black" points="185,-52.5 185,-73.5 247,-73.5 247,-52.5 185,-52.5"/>
<text text-anchor="middle" x="216" y="-60.5" font-family="Helvetica,sans-Serif" font-size="10.00">MojString</text>
</a>
</g>
<!-- Node22&#45;&gt;Node20 -->
<g id="edge62" class="edge"><title>Node22&#45;&gt;Node20</title>
<path fill="none" stroke="#9a32cd" stroke-dasharray="5,2" d="M257.278,-63.6534C308.896,-66.5656 397.352,-78.7341 454,-126 498.376,-163.026 515.927,-235.017 521.159,-262.231"/>
<polygon fill="#9a32cd" stroke="#9a32cd" points="257.31,-60.1512 247.156,-63.1749 256.98,-67.1434 257.31,-60.1512"/>
<text text-anchor="middle" x="386" y="-130" font-family="Helvetica,sans-Serif" font-size="10.00"> m_name</text>
</g>
<!-- Node22&#45;&gt;Node22 -->
<g id="edge64" class="edge"><title>Node22&#45;&gt;Node22</title>
<path fill="none" stroke="#9a32cd" stroke-dasharray="5,2" d="M197.202,-83.4266C198.653,-88.3489 204.918,-92 216,-92 233.73,-92 239.133,-82.6531 232.207,-73.7079"/>
<polygon fill="#9a32cd" stroke="#9a32cd" points="200.599,-84.272 199.793,-73.7079 193.836,-82.4689 200.599,-84.272"/>
<text text-anchor="middle" x="216" y="-96" font-family="Helvetica,sans-Serif" font-size="10.00"> Empty</text>
</g>
<!-- Node23&#45;&gt;Node20 -->
<g id="edge66" class="edge"><title>Node23&#45;&gt;Node20</title>
<path fill="none" stroke="#9a32cd" stroke-dasharray="5,2" d="M305.754,-142.727C352.829,-144.358 409.743,-152.734 454,-179 487.599,-198.941 509.755,-242.242 518.625,-262.346"/>
<polygon fill="#9a32cd" stroke="#9a32cd" points="305.644,-139.223 295.56,-142.472 305.469,-146.221 305.644,-139.223"/>
<text text-anchor="middle" x="386" y="-183" font-family="Helvetica,sans-Serif" font-size="10.00"> m_categories</text>
</g>
<!-- Node24&#45;&gt;Node20 -->
<g id="edge72" class="edge"><title>Node24&#45;&gt;Node20</title>
<path fill="none" stroke="#9a32cd" stroke-dasharray="5,2" d="M270.215,-373.201C285.622,-369.72 302.44,-366.068 318,-363 378.145,-351.142 399.32,-367.715 454,-340 480.808,-326.412 504.03,-298.808 515.455,-283.616"/>
<polygon fill="#9a32cd" stroke="#9a32cd" points="269.295,-369.821 260.323,-375.456 270.85,-376.646 269.295,-369.821"/>
<text text-anchor="middle" x="386" y="-367" font-family="Helvetica,sans-Serif" font-size="10.00"> m_dispatcher</text>
</g>
<!-- Node25&#45;&gt;Node20 -->
<g id="edge76" class="edge"><title>Node25&#45;&gt;Node20</title>
<path fill="none" stroke="#9a32cd" stroke-dasharray="5,2" d="M259.922,-338.11C274.16,-334.002 289.081,-327.449 300,-317 316.161,-301.535 299.57,-282.677 318,-270 344.687,-251.643 437.042,-260.904 488.205,-267.791"/>
<polygon fill="#9a32cd" stroke="#9a32cd" points="259.055,-334.719 250.23,-340.581 260.785,-341.502 259.055,-334.719"/>
<text text-anchor="middle" x="386" y="-274" font-family="Helvetica,sans-Serif" font-size="10.00"> s_log</text>
</g>
<!-- Node26&#45;&gt;Node20 -->
<g id="edge80" class="edge"><title>Node26&#45;&gt;Node20</title>
<path fill="none" stroke="#9a32cd" stroke-dasharray="5,2" d="M310.092,-198.035C354.986,-194.607 408.665,-196.046 454,-213 480.467,-222.898 503.487,-248.039 515.058,-262.441"/>
<polygon fill="#9a32cd" stroke="#9a32cd" points="309.73,-194.553 300.064,-198.892 310.326,-201.528 309.73,-194.553"/>
<text text-anchor="middle" x="386" y="-217" font-family="Helvetica,sans-Serif" font-size="10.00"> m_requests</text>
</g>
<!-- Node27 -->
<g id="node68" class="node"><title>Node27</title>
<a xlink:href="classMojMap.htm" target="_top" xlink:title="MojMap\&lt; SubscriptionKey,\l MojServiceMessage * \&gt;">
<polygon fill="white" stroke="black" points="145.5,-0 145.5,-34 286.5,-34 286.5,-0 145.5,-0"/>
<text text-anchor="start" x="153.5" y="-21" font-family="Helvetica,sans-Serif" font-size="10.00">MojMap&lt; SubscriptionKey,</text>
<text text-anchor="middle" x="216" y="-8" font-family="Helvetica,sans-Serif" font-size="10.00"> MojServiceMessage * &gt;</text>
</a>
</g>
<!-- Node27&#45;&gt;Node20 -->
<g id="edge84" class="edge"><title>Node27&#45;&gt;Node20</title>
<path fill="none" stroke="#9a32cd" stroke-dasharray="5,2" d="M296.871,-9.32275C347.607,-8.96473 411.275,-17.2841 454,-54 487.106,-82.4495 514.066,-222.494 521.167,-262.381"/>
<polygon fill="#9a32cd" stroke="#9a32cd" points="296.513,-5.82869 286.58,-9.51385 296.643,-12.8275 296.513,-5.82869"/>
<text text-anchor="middle" x="386" y="-58" font-family="Helvetica,sans-Serif" font-size="10.00"> m_subscriptions</text>
</g>
<!-- Node28 -->
<g id="node70" class="node"><title>Node28</title>
<a xlink:href="classMojRbTreeBase.htm" target="_top" xlink:title="MojRbTreeBase">
<polygon fill="white" stroke="black" points="0.5,-6.5 0.5,-27.5 93.5,-27.5 93.5,-6.5 0.5,-6.5"/>
<text text-anchor="middle" x="47" y="-14.5" font-family="Helvetica,sans-Serif" font-size="10.00">MojRbTreeBase</text>
</a>
</g>
<!-- Node28&#45;&gt;Node27 -->
<g id="edge86" class="edge"><title>Node28&#45;&gt;Node27</title>
<path fill="none" stroke="#8b1a1a" d="M103.649,-17C117.056,-17 131.517,-17 145.457,-17"/>
<polygon fill="#8b1a1a" stroke="#8b1a1a" points="103.627,-13.5001 93.6274,-17 103.627,-20.5001 103.627,-13.5001"/>
</g>
<!-- Node29 -->
<g id="node72" class="node"><title>Node29</title>
<polygon fill="white" stroke="#bfbfbf" points="1715,-223.5 1715,-244.5 1751,-244.5 1751,-223.5 1715,-223.5"/>
<text text-anchor="middle" x="1733" y="-231.5" font-family="Helvetica,sans-Serif" font-size="10.00">bool</text>
</g>
<!-- Node29&#45;&gt;Node1 -->
<g id="edge108" class="edge"><title>Node29&#45;&gt;Node1</title>
<path fill="none" stroke="#9a32cd" stroke-dasharray="5,2" d="M1761.28,-228.975C1793.19,-224.367 1846.33,-219.916 1890,-232 2008.12,-264.686 2126.46,-357.199 2172.23,-395.776"/>
<polygon fill="#9a32cd" stroke="#9a32cd" points="1760.66,-225.529 1751.31,-230.52 1761.73,-232.446 1760.66,-225.529"/>
<text text-anchor="middle" x="1965" y="-293" font-family="Helvetica,sans-Serif" font-size="10.00"> m_pub</text>
</g>
<!-- Node29&#45;&gt;Node8 -->
<g id="edge88" class="edge"><title>Node29&#45;&gt;Node8</title>
<path fill="none" stroke="#9a32cd" stroke-dasharray="5,2" d="M1761.15,-230.446C1795.04,-227.719 1852.13,-228.263 1890,-256 1940.69,-293.127 1958.52,-373.567 1963.42,-402.427"/>
<polygon fill="#9a32cd" stroke="#9a32cd" points="1760.63,-226.979 1751.01,-231.416 1761.3,-233.947 1760.63,-226.979"/>
<text text-anchor="middle" x="1850" y="-273" font-family="Helvetica,sans-Serif" font-size="10.00"> m_fixmode</text>
<text text-anchor="middle" x="1850" y="-260" font-family="Helvetica,sans-Serif" font-size="10.00">m_subscribed</text>
</g>
<!-- Node30 -->
<g id="node75" class="node"><title>Node30</title>
<a xlink:href="classMojSignal.htm" target="_top" xlink:title="MojSignal\&lt; MojServiceMessage * \&gt;">
<polygon fill="white" stroke="black" points="1470.5,-598.5 1470.5,-619.5 1655.5,-619.5 1655.5,-598.5 1470.5,-598.5"/>
<text text-anchor="middle" x="1563" y="-606.5" font-family="Helvetica,sans-Serif" font-size="10.00">MojSignal&lt; MojServiceMessage * &gt;</text>
</a>
</g>
<!-- Node30&#45;&gt;Node8 -->
<g id="edge92" class="edge"><title>Node30&#45;&gt;Node8</title>
<path fill="none" stroke="#9a32cd" stroke-dasharray="5,2" d="M1654.21,-620.124C1724.92,-623.859 1822,-617.768 1890,-569 1940.79,-532.571 1958.56,-452.355 1963.44,-423.554"/>
<polygon fill="#9a32cd" stroke="#9a32cd" points="1654.17,-616.615 1643.98,-619.506 1653.75,-623.602 1654.17,-616.615"/>
<text text-anchor="middle" x="1733" y="-625" font-family="Helvetica,sans-Serif" font-size="10.00"> m_cancelSignal</text>
</g>
<!-- Node31 -->
<g id="node77" class="node"><title>Node31</title>
<a xlink:href="classMojSignal3.htm" target="_top" xlink:title="MojSignal3\&lt; MojServiceMessage\l *, MojTagNil, MojTagNil \&gt;">
<polygon fill="white" stroke="black" points="898,-604 898,-638 1072,-638 1072,-604 898,-604"/>
<text text-anchor="start" x="906" y="-625" font-family="Helvetica,sans-Serif" font-size="10.00">MojSignal3&lt; MojServiceMessage</text>
<text text-anchor="middle" x="985" y="-612" font-family="Helvetica,sans-Serif" font-size="10.00"> *, MojTagNil, MojTagNil &gt;</text>
</a>
</g>
<!-- Node31&#45;&gt;Node30 -->
<g id="edge94" class="edge"><title>Node31&#45;&gt;Node30</title>
<path fill="none" stroke="midnightblue" d="M1082.42,-618.977C1190.64,-616.731 1364.08,-613.13 1470.34,-610.924"/>
<polygon fill="midnightblue" stroke="midnightblue" points="1082.08,-615.484 1072.16,-619.19 1082.23,-622.482 1082.08,-615.484"/>
</g>
<!-- Node32&#45;&gt;Node31 -->
<g id="edge96" class="edge"><title>Node32&#45;&gt;Node31</title>
<path fill="none" stroke="midnightblue" d="M804.95,-631.003C832.494,-629.473 866.687,-627.573 897.851,-625.842"/>
<polygon fill="midnightblue" stroke="midnightblue" points="804.53,-627.521 794.739,-631.57 804.918,-634.51 804.53,-627.521"/>
</g>
<!-- Node33&#45;&gt;Node32 -->
<g id="edge104" class="edge"><title>Node33&#45;&gt;Node32</title>
<path fill="none" stroke="#9a32cd" stroke-dasharray="5,2" d="M463.876,-825.725C498.966,-820.97 540.048,-811.976 574,-795 651.281,-756.359 719.828,-674.225 742.816,-644.783"/>
<polygon fill="#9a32cd" stroke="#9a32cd" points="463.156,-822.288 453.673,-827.013 464.032,-829.233 463.156,-822.288"/>
<text text-anchor="middle" x="523" y="-828" font-family="Helvetica,sans-Serif" font-size="10.00"> m_slots</text>
</g>
</g>
</svg>
