<?xml version="1.0" encoding="UTF-8" standalone="no"?>
<!DOCTYPE svg PUBLIC "-//W3C//DTD SVG 1.1//EN"
 "http://www.w3.org/Graphics/SVG/1.1/DTD/svg11.dtd">
<!-- Generated by graphviz version 2.26.3 (20100126.1600)
 -->
<!-- Title: MojHasher&lt; const MojChar * &gt; Pages: 1 -->
<svg width="290pt" height="88pt"
 viewBox="0.00 0.00 290.00 88.00" xmlns="http://www.w3.org/2000/svg" xmlns:xlink="http://www.w3.org/1999/xlink">
<g id="graph1" class="graph" transform="scale(1 1) rotate(0) translate(4 84)">
<title>MojHasher&lt; const MojChar * &gt;</title>
<polygon fill="white" stroke="white" points="-4,5 -4,-84 287,-84 287,5 -4,5"/>
<!-- Node1 -->
<g id="node1" class="node"><title>Node1</title>
<polygon fill="#bfbfbf" stroke="black" points="60,-58.5 60,-79.5 224,-79.5 224,-58.5 60,-58.5"/>
<text text-anchor="middle" x="142" y="-66.5" font-family="Helvetica,sans-Serif" font-size="10.00">MojHasher&lt; const MojChar * &gt;</text>
</g>
<!-- Node2 -->
<g id="node3" class="node"><title>Node2</title>
<a xlink:href="structMojHasher_3_01MojChar_01_5_01_4.htm" target="_top" xlink:title="MojHasher\&lt; MojChar * \&gt;">
<polygon fill="white" stroke="black" points="-0.5,-0.5 -0.5,-21.5 134.5,-21.5 134.5,-0.5 -0.5,-0.5"/>
<text text-anchor="middle" x="67" y="-8.5" font-family="Helvetica,sans-Serif" font-size="10.00">MojHasher&lt; MojChar * &gt;</text>
</a>
</g>
<!-- Node1&#45;&gt;Node2 -->
<g id="edge2" class="edge"><title>Node1&#45;&gt;Node2</title>
<path fill="none" stroke="midnightblue" d="M119.985,-51.9753C107.256,-42.1315 91.6395,-30.0545 80.6689,-21.5707"/>
<polygon fill="midnightblue" stroke="midnightblue" points="118.192,-55.0131 128.244,-58.3619 122.474,-49.4757 118.192,-55.0131"/>
</g>
<!-- Node3 -->
<g id="node5" class="node"><title>Node3</title>
<a xlink:href="structMojHasher_3_01MojString_01_4.htm" target="_top" xlink:title="MojHasher\&lt; MojString \&gt;">
<polygon fill="white" stroke="black" points="151.5,-0.5 151.5,-21.5 282.5,-21.5 282.5,-0.5 151.5,-0.5"/>
<text text-anchor="middle" x="217" y="-8.5" font-family="Helvetica,sans-Serif" font-size="10.00">MojHasher&lt; MojString &gt;</text>
</a>
</g>
<!-- Node1&#45;&gt;Node3 -->
<g id="edge4" class="edge"><title>Node1&#45;&gt;Node3</title>
<path fill="none" stroke="midnightblue" d="M164.015,-51.9753C176.744,-42.1315 192.361,-30.0545 203.331,-21.5707"/>
<polygon fill="midnightblue" stroke="midnightblue" points="161.526,-49.4757 155.756,-58.3619 165.808,-55.0131 161.526,-49.4757"/>
</g>
</g>
</svg>
