<?xml version="1.0" encoding="UTF-8" standalone="no"?>
<!DOCTYPE svg PUBLIC "-//W3C//DTD SVG 1.1//EN"
 "http://www.w3.org/Graphics/SVG/1.1/DTD/svg11.dtd">
<!-- Generated by graphviz version 2.26.3 (20100126.1600)
 -->
<!-- Title: MojDbReqRef Pages: 1 -->
<svg width="90pt" height="162pt"
 viewBox="0.00 0.00 90.00 162.00" xmlns="http://www.w3.org/2000/svg" xmlns:xlink="http://www.w3.org/1999/xlink">
<g id="graph1" class="graph" transform="scale(1 1) rotate(0) translate(4 158)">
<title>MojDbReqRef</title>
<polygon fill="white" stroke="white" points="-4,5 -4,-158 87,-158 87,5 -4,5"/>
<!-- Node1 -->
<g id="node1" class="node"><title>Node1</title>
<polygon fill="#bfbfbf" stroke="black" points="-0.5,-0.5 -0.5,-21.5 82.5,-21.5 82.5,-0.5 -0.5,-0.5"/>
<text text-anchor="middle" x="41" y="-8.5" font-family="Helvetica,sans-Serif" font-size="10.00">MojDbReqRef</text>
</g>
<!-- Node2 -->
<g id="node2" class="node"><title>Node2</title>
<a xlink:href="classMojDbReq.htm" target="_top" xlink:title="MojDbReq">
<polygon fill="white" stroke="black" points="8,-72.5 8,-93.5 74,-93.5 74,-72.5 8,-72.5"/>
<text text-anchor="middle" x="41" y="-80.5" font-family="Helvetica,sans-Serif" font-size="10.00">MojDbReq</text>
</a>
</g>
<!-- Node2&#45;&gt;Node1 -->
<g id="edge2" class="edge"><title>Node2&#45;&gt;Node1</title>
<path fill="none" stroke="#9a32cd" stroke-dasharray="5,2" d="M41,-62.2348C41,-48.969 41,-32.3188 41,-21.6674"/>
<polygon fill="#9a32cd" stroke="#9a32cd" points="37.5001,-62.3761 41,-72.3762 44.5001,-62.3762 37.5001,-62.3761"/>
<text text-anchor="middle" x="58" y="-44.5" font-family="Helvetica,sans-Serif" font-size="10.00"> m_req</text>
</g>
<!-- Node3 -->
<g id="node4" class="node"><title>Node3</title>
<a xlink:href="classMojNoCopy.htm" target="_top" xlink:title="MojNoCopy">
<polygon fill="white" stroke="black" points="5,-132.5 5,-153.5 77,-153.5 77,-132.5 5,-132.5"/>
<text text-anchor="middle" x="41" y="-140.5" font-family="Helvetica,sans-Serif" font-size="10.00">MojNoCopy</text>
</a>
</g>
<!-- Node3&#45;&gt;Node2 -->
<g id="edge4" class="edge"><title>Node3&#45;&gt;Node2</title>
<path fill="none" stroke="#8b1a1a" d="M41,-122.231C41,-112.592 41,-101.544 41,-93.6339"/>
<polygon fill="#8b1a1a" stroke="#8b1a1a" points="37.5001,-122.273 41,-132.273 44.5001,-122.273 37.5001,-122.273"/>
</g>
</g>
</svg>
