<?xml version="1.0" encoding="UTF-8" standalone="no"?>
<!DOCTYPE svg PUBLIC "-//W3C//DTD SVG 1.1//EN"
 "http://www.w3.org/Graphics/SVG/1.1/DTD/svg11.dtd">
<!-- Generated by graphviz version 2.26.3 (20100126.1600)
 -->
<!-- Title: MojDbCollationStrInfo Pages: 1 -->
<svg width="192pt" height="102pt"
 viewBox="0.00 0.00 192.00 102.00" xmlns="http://www.w3.org/2000/svg" xmlns:xlink="http://www.w3.org/1999/xlink">
<g id="graph1" class="graph" transform="scale(1 1) rotate(0) translate(4 98)">
<title>MojDbCollationStrInfo</title>
<polygon fill="white" stroke="white" points="-4,5 -4,-98 189,-98 189,5 -4,5"/>
<!-- Node1 -->
<g id="node1" class="node"><title>Node1</title>
<polygon fill="#bfbfbf" stroke="black" points="54.5,-0.5 54.5,-21.5 173.5,-21.5 173.5,-0.5 54.5,-0.5"/>
<text text-anchor="middle" x="114" y="-8.5" font-family="Helvetica,sans-Serif" font-size="10.00">MojDbCollationStrInfo</text>
</g>
<!-- Node2 -->
<g id="node2" class="node"><title>Node2</title>
<polygon fill="white" stroke="#bfbfbf" points="0,-72.5 0,-93.5 128,-93.5 128,-72.5 0,-72.5"/>
<text text-anchor="middle" x="64" y="-80.5" font-family="Helvetica,sans-Serif" font-size="10.00">MojDbCollationStrength</text>
</g>
<!-- Node2&#45;&gt;Node1 -->
<g id="edge2" class="edge"><title>Node2&#45;&gt;Node1</title>
<path fill="none" stroke="#9a32cd" stroke-dasharray="5,2" d="M77.3265,-63.8099C86.701,-50.3106 98.8994,-32.7449 106.592,-21.6674"/>
<polygon fill="#9a32cd" stroke="#9a32cd" points="74.2069,-62.166 71.3777,-72.3762 79.9565,-66.1588 74.2069,-62.166"/>
<text text-anchor="middle" x="111" y="-44.5" font-family="Helvetica,sans-Serif" font-size="10.00"> m_coll</text>
</g>
<!-- Node3 -->
<g id="node4" class="node"><title>Node3</title>
<polygon fill="white" stroke="#bfbfbf" points="146,-72.5 146,-93.5 184,-93.5 184,-72.5 146,-72.5"/>
<text text-anchor="middle" x="165" y="-80.5" font-family="Helvetica,sans-Serif" font-size="10.00">char</text>
</g>
<!-- Node3&#45;&gt;Node1 -->
<g id="edge4" class="edge"><title>Node3&#45;&gt;Node1</title>
<path fill="none" stroke="#9a32cd" stroke-dasharray="5,2" d="M151.682,-64.1981C142.085,-50.649 129.478,-32.8514 121.556,-21.6674"/>
<polygon fill="#9a32cd" stroke="#9a32cd" points="148.838,-66.239 157.475,-72.3762 154.551,-62.1928 148.838,-66.239"/>
<text text-anchor="middle" x="159" y="-44.5" font-family="Helvetica,sans-Serif" font-size="10.00"> m_str</text>
</g>
</g>
</svg>
