<?xml version="1.0" encoding="UTF-8" standalone="no"?>
<!DOCTYPE svg PUBLIC "-//W3C//DTD SVG 1.1//EN"
 "http://www.w3.org/Graphics/SVG/1.1/DTD/svg11.dtd">
<!-- Generated by graphviz version 2.26.3 (20100126.1600)
 -->
<!-- Title: MojService::CategoryHandler::Method Pages: 1 -->
<svg width="2130pt" height="813pt"
 viewBox="0.00 0.00 2130.00 812.96" xmlns="http://www.w3.org/2000/svg" xmlns:xlink="http://www.w3.org/1999/xlink">
<g id="graph1" class="graph" transform="scale(1 1) rotate(0) translate(4 808.964)">
<title>MojService::CategoryHandler::Method</title>
<polygon fill="white" stroke="white" points="-4,5 -4,-808.964 2127,-808.964 2127,5 -4,5"/>
<!-- Node1 -->
<g id="node1" class="node"><title>Node1</title>
<polygon fill="#bfbfbf" stroke="black" points="1966.5,-625.467 1966.5,-659.467 2121.5,-659.467 2121.5,-625.467 1966.5,-625.467"/>
<text text-anchor="start" x="1974.5" y="-646.467" font-family="Helvetica,sans-Serif" font-size="10.00">MojService::CategoryHandler</text>
<text text-anchor="middle" x="2044" y="-633.467" font-family="Helvetica,sans-Serif" font-size="10.00">::Method</text>
</g>
<!-- Node2 -->
<g id="node2" class="node"><title>Node2</title>
<polygon fill="white" stroke="#bfbfbf" points="441,-584.967 441,-605.967 479,-605.967 479,-584.967 441,-584.967"/>
<text text-anchor="middle" x="460" y="-592.967" font-family="Helvetica,sans-Serif" font-size="10.00">char</text>
</g>
<!-- Node2&#45;&gt;Node1 -->
<g id="edge2" class="edge"><title>Node2&#45;&gt;Node1</title>
<path fill="none" stroke="#9a32cd" stroke-dasharray="5,2" d="M489.425,-597.397C540.145,-600.552 647.325,-606.467 738,-606.467 738,-606.467 738,-606.467 1415,-606.467 1613.8,-606.467 1847.36,-624.613 1966.12,-635.139"/>
<polygon fill="#9a32cd" stroke="#9a32cd" points="489.402,-593.889 479.201,-596.751 488.96,-600.875 489.402,-593.889"/>
<text text-anchor="middle" x="1221" y="-610.467" font-family="Helvetica,sans-Serif" font-size="10.00"> m_name</text>
</g>
<!-- Node17 -->
<g id="node38" class="node"><title>Node17</title>
<a xlink:href="classMojService.htm" target="_top" xlink:title="MojService">
<polygon fill="white" stroke="black" points="703.5,-362.967 703.5,-383.967 772.5,-383.967 772.5,-362.967 703.5,-362.967"/>
<text text-anchor="middle" x="738" y="-370.967" font-family="Helvetica,sans-Serif" font-size="10.00">MojService</text>
</a>
</g>
<!-- Node2&#45;&gt;Node17 -->
<g id="edge60" class="edge"><title>Node2&#45;&gt;Node17</title>
<path fill="none" stroke="#9a32cd" stroke-dasharray="5,2" d="M489.315,-593.313C528.97,-588.879 599.61,-575.383 642,-534.467 658.393,-518.644 649.449,-506.661 660,-486.467 680.974,-446.324 713.78,-403.524 729.302,-384.123"/>
<polygon fill="#9a32cd" stroke="#9a32cd" points="488.837,-589.843 479.234,-594.318 489.532,-596.809 488.837,-589.843"/>
<text text-anchor="middle" x="602" y="-580.467" font-family="Helvetica,sans-Serif" font-size="10.00"> DefaultCategory</text>
</g>
<!-- Node3 -->
<g id="node4" class="node"><title>Node3</title>
<a xlink:href="classMojServiceMessage.htm" target="_top" xlink:title="MojServiceMessage">
<polygon fill="white" stroke="black" points="1760.5,-527.967 1760.5,-548.967 1873.5,-548.967 1873.5,-527.967 1760.5,-527.967"/>
<text text-anchor="middle" x="1817" y="-535.967" font-family="Helvetica,sans-Serif" font-size="10.00">MojServiceMessage</text>
</a>
</g>
<!-- Node3&#45;&gt;Node1 -->
<g id="edge4" class="edge"><title>Node3&#45;&gt;Node1</title>
<path fill="none" stroke="#9a32cd" stroke-dasharray="5,2" d="M1849.13,-553.189C1890.65,-572.211 1962.8,-605.265 2006.69,-625.376"/>
<polygon fill="#9a32cd" stroke="#9a32cd" points="1850.56,-549.995 1840.02,-549.012 1847.65,-556.359 1850.56,-549.995"/>
<text text-anchor="middle" x="1920" y="-600.467" font-family="Helvetica,sans-Serif" font-size="10.00"> m_callback</text>
</g>
<!-- Node3&#45;&gt;Node3 -->
<g id="edge24" class="edge"><title>Node3&#45;&gt;Node3</title>
<path fill="none" stroke="#9a32cd" stroke-dasharray="5,2" d="M1798.2,-558.894C1799.65,-563.816 1805.92,-567.467 1817,-567.467 1834.73,-567.467 1840.13,-558.121 1833.21,-549.175"/>
<polygon fill="#9a32cd" stroke="#9a32cd" points="1801.6,-559.739 1800.79,-549.175 1794.84,-557.936 1801.6,-559.739"/>
<text text-anchor="middle" x="1817" y="-571.467" font-family="Helvetica,sans-Serif" font-size="10.00"> m_dispatchMethod</text>
</g>
<!-- Node4 -->
<g id="node6" class="node"><title>Node4</title>
<a xlink:href="classMojMessage.htm" target="_top" xlink:title="MojMessage">
<polygon fill="white" stroke="black" points="699.5,-645.967 699.5,-666.967 776.5,-666.967 776.5,-645.967 699.5,-645.967"/>
<text text-anchor="middle" x="738" y="-653.967" font-family="Helvetica,sans-Serif" font-size="10.00">MojMessage</text>
</a>
</g>
<!-- Node4&#45;&gt;Node3 -->
<g id="edge6" class="edge"><title>Node4&#45;&gt;Node3</title>
<path fill="none" stroke="midnightblue" d="M786.787,-657.239C962.771,-659.449 1563.91,-661.862 1742,-595.467 1768.66,-585.527 1793.73,-562.767 1807.05,-549.206"/>
<polygon fill="midnightblue" stroke="midnightblue" points="786.586,-653.736 776.541,-657.105 786.494,-660.736 786.586,-653.736"/>
</g>
<!-- Node5 -->
<g id="node8" class="node"><title>Node5</title>
<a xlink:href="classMojSignalHandler.htm" target="_top" xlink:title="MojSignalHandler">
<polygon fill="white" stroke="black" points="409.5,-640.967 409.5,-661.967 510.5,-661.967 510.5,-640.967 409.5,-640.967"/>
<text text-anchor="middle" x="460" y="-648.967" font-family="Helvetica,sans-Serif" font-size="10.00">MojSignalHandler</text>
</a>
</g>
<!-- Node5&#45;&gt;Node4 -->
<g id="edge8" class="edge"><title>Node5&#45;&gt;Node4</title>
<path fill="none" stroke="midnightblue" d="M520.861,-652.562C575.184,-653.539 653.092,-654.94 699.32,-655.772"/>
<polygon fill="midnightblue" stroke="midnightblue" points="520.728,-649.059 510.666,-652.379 520.602,-656.058 520.728,-649.059"/>
</g>
<!-- Node14 -->
<g id="node31" class="node"><title>Node14</title>
<a xlink:href="classMojService_1_1CategoryHandler.htm" target="_top" xlink:title="MojService::CategoryHandler">
<polygon fill="white" stroke="black" points="660.5,-495.967 660.5,-516.967 815.5,-516.967 815.5,-495.967 660.5,-495.967"/>
<text text-anchor="middle" x="738" y="-503.967" font-family="Helvetica,sans-Serif" font-size="10.00">MojService::CategoryHandler</text>
</a>
</g>
<!-- Node5&#45;&gt;Node14 -->
<g id="edge38" class="edge"><title>Node5&#45;&gt;Node14</title>
<path fill="none" stroke="midnightblue" d="M520.826,-639.958C557.584,-631.293 604.434,-617.128 642,-595.467 679.212,-574.011 713.804,-535.726 729.362,-517.156"/>
<polygon fill="midnightblue" stroke="midnightblue" points="519.713,-636.622 510.741,-642.258 521.269,-643.446 519.713,-636.622"/>
</g>
<!-- Node29 -->
<g id="node71" class="node"><title>Node29</title>
<a xlink:href="classMojSignalBase.htm" target="_top" xlink:title="MojSignalBase">
<polygon fill="white" stroke="black" points="694.5,-739.967 694.5,-760.967 781.5,-760.967 781.5,-739.967 694.5,-739.967"/>
<text text-anchor="middle" x="738" y="-747.967" font-family="Helvetica,sans-Serif" font-size="10.00">MojSignalBase</text>
</a>
</g>
<!-- Node5&#45;&gt;Node29 -->
<g id="edge90" class="edge"><title>Node5&#45;&gt;Node29</title>
<path fill="none" stroke="#9a32cd" stroke-dasharray="5,2" d="M490.24,-666.696C506.341,-674.957 526.399,-685.494 544,-695.467 552.157,-700.09 553.353,-702.844 562,-706.467 605.283,-724.602 657.804,-736.533 694.146,-743.337"/>
<polygon fill="#9a32cd" stroke="#9a32cd" points="491.764,-663.544 481.266,-662.116 488.582,-669.779 491.764,-663.544"/>
<text text-anchor="middle" x="602" y="-734.467" font-family="Helvetica,sans-Serif" font-size="10.00"> m_handler</text>
</g>
<!-- Node6 -->
<g id="node10" class="node"><title>Node6</title>
<a xlink:href="classMojRefCounted.htm" target="_top" xlink:title="MojRefCounted">
<polygon fill="white" stroke="black" points="112,-534.967 112,-555.967 202,-555.967 202,-534.967 112,-534.967"/>
<text text-anchor="middle" x="157" y="-542.967" font-family="Helvetica,sans-Serif" font-size="10.00">MojRefCounted</text>
</a>
</g>
<!-- Node6&#45;&gt;Node5 -->
<g id="edge10" class="edge"><title>Node6&#45;&gt;Node5</title>
<path fill="none" stroke="midnightblue" d="M196.901,-559.426C258.415,-580.946 375.036,-621.744 429.961,-640.959"/>
<polygon fill="midnightblue" stroke="midnightblue" points="197.755,-556.017 187.161,-556.019 195.444,-562.625 197.755,-556.017"/>
</g>
<!-- Node11 -->
<g id="node23" class="node"><title>Node11</title>
<a xlink:href="classMojService_1_1Category.htm" target="_top" xlink:title="MojService::Category">
<polygon fill="white" stroke="black" points="1526.5,-464.967 1526.5,-485.967 1643.5,-485.967 1643.5,-464.967 1526.5,-464.967"/>
<text text-anchor="middle" x="1585" y="-472.967" font-family="Helvetica,sans-Serif" font-size="10.00">MojService::Category</text>
</a>
</g>
<!-- Node6&#45;&gt;Node11 -->
<g id="edge28" class="edge"><title>Node6&#45;&gt;Node11</title>
<path fill="none" stroke="midnightblue" d="M212.308,-545.467C273.05,-545.467 373.474,-545.467 460,-545.467 460,-545.467 460,-545.467 1221,-545.467 1345.2,-545.467 1489.02,-505.681 1552.28,-486.099"/>
<polygon fill="midnightblue" stroke="midnightblue" points="212.175,-541.968 202.175,-545.467 212.174,-548.968 212.175,-541.968"/>
</g>
<!-- Node7 -->
<g id="node12" class="node"><title>Node7</title>
<a xlink:href="classMojNoCopy.htm" target="_top" xlink:title="MojNoCopy">
<polygon fill="white" stroke="black" points="0,-495.967 0,-516.967 72,-516.967 72,-495.967 0,-495.967"/>
<text text-anchor="middle" x="36" y="-503.967" font-family="Helvetica,sans-Serif" font-size="10.00">MojNoCopy</text>
</a>
</g>
<!-- Node7&#45;&gt;Node6 -->
<g id="edge12" class="edge"><title>Node7&#45;&gt;Node6</title>
<path fill="none" stroke="#8b1a1a" d="M78.3521,-520.118C93.4018,-524.969 110.103,-530.352 124.229,-534.905"/>
<polygon fill="#8b1a1a" stroke="#8b1a1a" points="79.3359,-516.758 68.7443,-517.021 77.1884,-523.42 79.3359,-516.758"/>
</g>
<!-- Node8 -->
<g id="node14" class="node"><title>Node8</title>
<a xlink:href="classMojListEntry.htm" target="_top" xlink:title="MojListEntry">
<polygon fill="white" stroke="black" points="252.5,-644.967 252.5,-665.967 327.5,-665.967 327.5,-644.967 252.5,-644.967"/>
<text text-anchor="middle" x="290" y="-652.967" font-family="Helvetica,sans-Serif" font-size="10.00">MojListEntry</text>
</a>
</g>
<!-- Node7&#45;&gt;Node8 -->
<g id="edge16" class="edge"><title>Node7&#45;&gt;Node8</title>
<path fill="none" stroke="#8b1a1a" d="M55.7355,-524.088C70.1726,-536.498 90.5528,-553.047 110,-565.467 162.56,-599.036 229.336,-629.548 264.949,-644.946"/>
<polygon fill="#8b1a1a" stroke="#8b1a1a" points="57.8119,-521.255 47.974,-517.322 53.2121,-526.532 57.8119,-521.255"/>
</g>
<!-- Node13 -->
<g id="node28" class="node"><title>Node13</title>
<a xlink:href="classMojSmartPtrBase.htm" target="_top" xlink:title="MojSmartPtrBase\&lt; MojService\l::CategoryHandler \&gt;">
<polygon fill="white" stroke="black" points="882.5,-458.467 882.5,-492.467 1043.5,-492.467 1043.5,-458.467 882.5,-458.467"/>
<text text-anchor="start" x="890.5" y="-479.467" font-family="Helvetica,sans-Serif" font-size="10.00">MojSmartPtrBase&lt; MojService</text>
<text text-anchor="middle" x="963" y="-466.467" font-family="Helvetica,sans-Serif" font-size="10.00">::CategoryHandler &gt;</text>
</a>
</g>
<!-- Node7&#45;&gt;Node13 -->
<g id="edge34" class="edge"><title>Node7&#45;&gt;Node13</title>
<path fill="none" stroke="#8b1a1a" d="M82.3359,-500.159C183.672,-487.011 432.68,-458.231 642,-462.467 723.833,-464.124 817.328,-468.153 882.225,-471.29"/>
<polygon fill="#8b1a1a" stroke="#8b1a1a" points="81.6013,-496.725 72.1404,-501.494 82.5102,-503.666 81.6013,-496.725"/>
</g>
<!-- Node7&#45;&gt;Node17 -->
<g id="edge46" class="edge"><title>Node7&#45;&gt;Node17</title>
<path fill="none" stroke="#8b1a1a" d="M36.9344,-485.607C40.7254,-410.164 57.3599,-152.82 110,-93.4675 144.785,-54.2468 170.507,-66.3024 222,-56.4675 405.454,-21.4286 504.992,56.4656 642,-70.4675 687.438,-112.564 727.01,-313.848 736.061,-362.746"/>
<polygon fill="#8b1a1a" stroke="#8b1a1a" points="33.4318,-485.581 36.449,-495.737 40.4238,-485.916 33.4318,-485.581"/>
</g>
<!-- Node18 -->
<g id="node41" class="node"><title>Node18</title>
<a xlink:href="classMojThreadMutex.htm" target="_top" xlink:title="MojThreadMutex">
<polygon fill="white" stroke="black" points="411.5,-495.967 411.5,-516.967 508.5,-516.967 508.5,-495.967 411.5,-495.967"/>
<text text-anchor="middle" x="460" y="-503.967" font-family="Helvetica,sans-Serif" font-size="10.00">MojThreadMutex</text>
</a>
</g>
<!-- Node7&#45;&gt;Node18 -->
<g id="edge50" class="edge"><title>Node7&#45;&gt;Node18</title>
<path fill="none" stroke="#8b1a1a" d="M82.5166,-506.467C163.406,-506.467 329.193,-506.467 411.468,-506.467"/>
<polygon fill="#8b1a1a" stroke="#8b1a1a" points="82.15,-502.968 72.15,-506.467 82.15,-509.968 82.15,-502.968"/>
</g>
<!-- Node21 -->
<g id="node51" class="node"><title>Node21</title>
<a xlink:href="classMojMessageDispatcher.htm" target="_top" xlink:title="MojMessageDispatcher">
<polygon fill="white" stroke="black" points="226,-65.9675 226,-86.9675 354,-86.9675 354,-65.9675 226,-65.9675"/>
<text text-anchor="middle" x="290" y="-73.9675" font-family="Helvetica,sans-Serif" font-size="10.00">MojMessageDispatcher</text>
</a>
</g>
<!-- Node7&#45;&gt;Node21 -->
<g id="edge64" class="edge"><title>Node7&#45;&gt;Node21</title>
<path fill="none" stroke="#8b1a1a" d="M37.9528,-485.641C44.617,-418.497 68.3864,-209.092 110,-157.467 141.291,-118.649 195.159,-97.7902 235.832,-87.0161"/>
<polygon fill="#8b1a1a" stroke="#8b1a1a" points="34.4485,-485.517 36.9678,-495.808 41.4159,-486.192 34.4485,-485.517"/>
</g>
<!-- Node22 -->
<g id="node54" class="node"><title>Node22</title>
<a xlink:href="classMojLogger.htm" target="_top" xlink:title="MojLogger">
<polygon fill="white" stroke="black" points="123,-416.967 123,-437.967 191,-437.967 191,-416.967 123,-416.967"/>
<text text-anchor="middle" x="157" y="-424.967" font-family="Helvetica,sans-Serif" font-size="10.00">MojLogger</text>
</a>
</g>
<!-- Node7&#45;&gt;Node22 -->
<g id="edge68" class="edge"><title>Node7&#45;&gt;Node22</title>
<path fill="none" stroke="#8b1a1a" d="M51.1215,-488.226C61.197,-476.998 75.2568,-462.982 90,-453.467 100.064,-446.972 112.002,-441.692 122.993,-437.63"/>
<polygon fill="#8b1a1a" stroke="#8b1a1a" points="48.4528,-485.961 44.5363,-495.806 53.737,-490.552 48.4528,-485.961"/>
</g>
<!-- Node7&#45;&gt;Node29 -->
<g id="edge88" class="edge"><title>Node7&#45;&gt;Node29</title>
<path fill="none" stroke="#8b1a1a" d="M41.5561,-526.592C57.9751,-581.32 112.145,-731.562 222,-773.467 392.918,-838.667 619.1,-785.349 703.935,-760.999"/>
<polygon fill="#8b1a1a" stroke="#8b1a1a" points="44.9158,-525.61 38.7704,-516.98 38.1925,-527.559 44.9158,-525.61"/>
</g>
<!-- Node30 -->
<g id="node76" class="node"><title>Node30</title>
<a xlink:href="classMojList.htm" target="_top" xlink:title="MojList\&lt; MojSlotBase,\l&amp;MojSlotBase::m_entry \&gt;">
<polygon fill="white" stroke="black" points="222.5,-730.467 222.5,-764.467 357.5,-764.467 357.5,-730.467 222.5,-730.467"/>
<text text-anchor="start" x="230.5" y="-751.467" font-family="Helvetica,sans-Serif" font-size="10.00">MojList&lt; MojSlotBase,</text>
<text text-anchor="middle" x="290" y="-738.467" font-family="Helvetica,sans-Serif" font-size="10.00">&amp;MojSlotBase::m_entry &gt;</text>
</a>
</g>
<!-- Node7&#45;&gt;Node30 -->
<g id="edge96" class="edge"><title>Node7&#45;&gt;Node30</title>
<path fill="none" stroke="#8b1a1a" d="M47.7039,-525.593C73.8838,-566.847 141.26,-664.867 222,-719.467 228.028,-723.544 234.743,-727.193 241.54,-730.404"/>
<polygon fill="#8b1a1a" stroke="#8b1a1a" points="50.6199,-523.655 42.3491,-517.033 44.6854,-527.368 50.6199,-523.655"/>
</g>
<!-- Node8&#45;&gt;Node4 -->
<g id="edge14" class="edge"><title>Node8&#45;&gt;Node4</title>
<path fill="none" stroke="#9a32cd" stroke-dasharray="5,2" d="M337.668,-665.573C350.094,-667.867 363.504,-670.044 376,-671.467 493.515,-684.859 524.541,-693.342 642,-679.467 662.424,-677.055 684.794,-671.85 702.798,-667.002"/>
<polygon fill="#9a32cd" stroke="#9a32cd" points="337.982,-662.07 327.503,-663.632 336.669,-668.945 337.982,-662.07"/>
<text text-anchor="middle" x="460" y="-690.467" font-family="Helvetica,sans-Serif" font-size="10.00"> m_queueEntry</text>
</g>
<!-- Node8&#45;&gt;Node8 -->
<g id="edge18" class="edge"><title>Node8&#45;&gt;Node8</title>
<path fill="none" stroke="#9a32cd" stroke-dasharray="5,2" d="M265.674,-675.894C267.55,-680.816 275.659,-684.467 290,-684.467 312.945,-684.467 319.936,-675.121 310.973,-666.175"/>
<polygon fill="#9a32cd" stroke="#9a32cd" points="269.074,-676.77 269.027,-666.175 262.457,-674.487 269.074,-676.77"/>
<text text-anchor="middle" x="290" y="-701.467" font-family="Helvetica,sans-Serif" font-size="10.00"> m_prev</text>
<text text-anchor="middle" x="290" y="-688.467" font-family="Helvetica,sans-Serif" font-size="10.00">m_next</text>
</g>
<!-- Node9 -->
<g id="node18" class="node"><title>Node9</title>
<polygon fill="white" stroke="#bfbfbf" points="1528.5,-544.467 1528.5,-578.467 1641.5,-578.467 1641.5,-544.467 1528.5,-544.467"/>
<text text-anchor="start" x="1536.5" y="-565.467" font-family="Helvetica,sans-Serif" font-size="10.00">static const MojChar</text>
<text text-anchor="middle" x="1585" y="-552.467" font-family="Helvetica,sans-Serif" font-size="10.00"> *const</text>
</g>
<!-- Node9&#45;&gt;Node3 -->
<g id="edge20" class="edge"><title>Node9&#45;&gt;Node3</title>
<path fill="none" stroke="#9a32cd" stroke-dasharray="5,2" d="M1651.72,-554.853C1686.12,-551.443 1727.62,-547.328 1760.43,-544.076"/>
<polygon fill="#9a32cd" stroke="#9a32cd" points="1651.36,-551.371 1641.75,-555.841 1652.05,-558.337 1651.36,-551.371"/>
<text text-anchor="middle" x="1702" y="-582.467" font-family="Helvetica,sans-Serif" font-size="10.00"> ReturnValueKey</text>
<text text-anchor="middle" x="1702" y="-569.467" font-family="Helvetica,sans-Serif" font-size="10.00">ErrorTextKey</text>
<text text-anchor="middle" x="1702" y="-556.467" font-family="Helvetica,sans-Serif" font-size="10.00">ErrorCodeKey</text>
</g>
<!-- Node10 -->
<g id="node20" class="node"><title>Node10</title>
<polygon fill="white" stroke="#bfbfbf" points="1558,-504.967 1558,-525.967 1612,-525.967 1612,-504.967 1558,-504.967"/>
<text text-anchor="middle" x="1585" y="-512.967" font-family="Helvetica,sans-Serif" font-size="10.00">MojSize</text>
</g>
<!-- Node10&#45;&gt;Node3 -->
<g id="edge22" class="edge"><title>Node10&#45;&gt;Node3</title>
<path fill="none" stroke="#9a32cd" stroke-dasharray="5,2" d="M1622.46,-518.041C1654.3,-520.354 1701.2,-524.061 1742,-528.467 1747.88,-529.102 1754.01,-529.823 1760.12,-530.579"/>
<polygon fill="#9a32cd" stroke="#9a32cd" points="1622.49,-514.534 1612.27,-517.31 1621.99,-521.516 1622.49,-514.534"/>
<text text-anchor="middle" x="1702" y="-532.467" font-family="Helvetica,sans-Serif" font-size="10.00"> m_numReplies</text>
</g>
<!-- Node11&#45;&gt;Node3 -->
<g id="edge26" class="edge"><title>Node11&#45;&gt;Node3</title>
<path fill="none" stroke="#9a32cd" stroke-dasharray="5,2" d="M1653.69,-483.757C1681.5,-488.131 1713.67,-494.5 1742,-503.467 1761.73,-509.712 1782.99,-520.005 1797.82,-527.817"/>
<polygon fill="#9a32cd" stroke="#9a32cd" points="1654.07,-480.274 1643.66,-482.235 1653.02,-487.195 1654.07,-480.274"/>
<text text-anchor="middle" x="1702" y="-507.467" font-family="Helvetica,sans-Serif" font-size="10.00"> m_category</text>
</g>
<!-- Node12 -->
<g id="node26" class="node"><title>Node12</title>
<a xlink:href="classMojRefCountedPtr.htm" target="_top" xlink:title="MojRefCountedPtr\&lt; MojService\l::CategoryHandler \&gt;">
<polygon fill="white" stroke="black" points="1138.5,-458.467 1138.5,-492.467 1303.5,-492.467 1303.5,-458.467 1138.5,-458.467"/>
<text text-anchor="start" x="1146.5" y="-479.467" font-family="Helvetica,sans-Serif" font-size="10.00">MojRefCountedPtr&lt; MojService</text>
<text text-anchor="middle" x="1221" y="-466.467" font-family="Helvetica,sans-Serif" font-size="10.00">::CategoryHandler &gt;</text>
</a>
</g>
<!-- Node12&#45;&gt;Node11 -->
<g id="edge30" class="edge"><title>Node12&#45;&gt;Node11</title>
<path fill="none" stroke="#9a32cd" stroke-dasharray="5,2" d="M1313.72,-475.467C1380.6,-475.467 1468.85,-475.467 1526.25,-475.467"/>
<polygon fill="#9a32cd" stroke="#9a32cd" points="1313.6,-471.968 1303.6,-475.467 1313.6,-478.968 1313.6,-471.968"/>
<text text-anchor="middle" x="1415" y="-479.467" font-family="Helvetica,sans-Serif" font-size="10.00"> m_handler</text>
</g>
<!-- Node13&#45;&gt;Node12 -->
<g id="edge32" class="edge"><title>Node13&#45;&gt;Node12</title>
<path fill="none" stroke="midnightblue" d="M1053.61,-475.467C1081.19,-475.467 1111.35,-475.467 1138.37,-475.467"/>
<polygon fill="midnightblue" stroke="midnightblue" points="1053.57,-471.968 1043.57,-475.467 1053.57,-478.968 1053.57,-471.968"/>
</g>
<!-- Node14&#45;&gt;Node13 -->
<g id="edge36" class="edge"><title>Node14&#45;&gt;Node13</title>
<path fill="none" stroke="#9a32cd" stroke-dasharray="5,2" d="M824.632,-494.532C843.657,-491.91 863.725,-489.145 882.497,-486.559"/>
<polygon fill="#9a32cd" stroke="#9a32cd" points="823.917,-491.097 814.489,-495.929 824.873,-498.031 823.917,-491.097"/>
<text text-anchor="middle" x="846" y="-496.467" font-family="Helvetica,sans-Serif" font-size="10.00"> m_p</text>
</g>
<!-- Node15 -->
<g id="node34" class="node"><title>Node15</title>
<a xlink:href="classMojHashMap.htm" target="_top" xlink:title="MojHashMap\&lt; MojString,\l CallbackInfo, const\l MojChar * \&gt;">
<polygon fill="white" stroke="black" points="392,-290.967 392,-337.967 528,-337.967 528,-290.967 392,-290.967"/>
<text text-anchor="start" x="400" y="-324.967" font-family="Helvetica,sans-Serif" font-size="10.00">MojHashMap&lt; MojString,</text>
<text text-anchor="start" x="400" y="-311.967" font-family="Helvetica,sans-Serif" font-size="10.00"> CallbackInfo, const</text>
<text text-anchor="middle" x="460" y="-298.967" font-family="Helvetica,sans-Serif" font-size="10.00"> MojChar * &gt;</text>
</a>
</g>
<!-- Node15&#45;&gt;Node14 -->
<g id="edge40" class="edge"><title>Node15&#45;&gt;Node14</title>
<path fill="none" stroke="#9a32cd" stroke-dasharray="5,2" d="M536.513,-339.588C539.247,-341.98 541.766,-344.599 544,-347.467 582.819,-397.309 516.772,-444.359 562,-488.467 593.334,-519.027 644.318,-521.142 683.367,-517.011"/>
<polygon fill="#9a32cd" stroke="#9a32cd" points="538.398,-336.626 528.296,-333.43 534.2,-342.228 538.398,-336.626"/>
<text text-anchor="middle" x="602" y="-521.467" font-family="Helvetica,sans-Serif" font-size="10.00"> m_callbackMap</text>
</g>
<!-- Node16 -->
<g id="node36" class="node"><title>Node16</title>
<a xlink:href="classMojHashBase.htm" target="_top" xlink:title="MojHashBase">
<polygon fill="white" stroke="black" points="115.5,-166.967 115.5,-187.967 198.5,-187.967 198.5,-166.967 115.5,-166.967"/>
<text text-anchor="middle" x="157" y="-174.967" font-family="Helvetica,sans-Serif" font-size="10.00">MojHashBase</text>
</a>
</g>
<!-- Node16&#45;&gt;Node15 -->
<g id="edge42" class="edge"><title>Node16&#45;&gt;Node15</title>
<path fill="none" stroke="#8b1a1a" d="M187.025,-192.536C228.943,-213.386 307.564,-251.817 376,-281.467 383.188,-284.582 390.773,-287.739 398.325,-290.802"/>
<polygon fill="#8b1a1a" stroke="#8b1a1a" points="188.43,-189.326 177.919,-187.996 185.307,-195.59 188.43,-189.326"/>
</g>
<!-- Node20 -->
<g id="node47" class="node"><title>Node20</title>
<a xlink:href="classMojHashMap.htm" target="_top" xlink:title="MojHashMap\&lt; MojString,\l MojRefCountedPtr\&lt; Category\l \&gt;, const MojChar * \&gt;">
<polygon fill="white" stroke="black" points="380.5,-153.967 380.5,-200.967 539.5,-200.967 539.5,-153.967 380.5,-153.967"/>
<text text-anchor="start" x="388.5" y="-187.967" font-family="Helvetica,sans-Serif" font-size="10.00">MojHashMap&lt; MojString,</text>
<text text-anchor="start" x="388.5" y="-174.967" font-family="Helvetica,sans-Serif" font-size="10.00"> MojRefCountedPtr&lt; Category</text>
<text text-anchor="middle" x="460" y="-161.967" font-family="Helvetica,sans-Serif" font-size="10.00"> &gt;, const MojChar * &gt;</text>
</a>
</g>
<!-- Node16&#45;&gt;Node20 -->
<g id="edge58" class="edge"><title>Node16&#45;&gt;Node20</title>
<path fill="none" stroke="#8b1a1a" d="M209.085,-177.467C256.17,-177.467 326.191,-177.467 380.309,-177.467"/>
<polygon fill="#8b1a1a" stroke="#8b1a1a" points="208.813,-173.968 198.813,-177.467 208.813,-180.968 208.813,-173.968"/>
</g>
<!-- Node23 -->
<g id="node57" class="node"><title>Node23</title>
<a xlink:href="classMojHashMap.htm" target="_top" xlink:title="MojHashMap\&lt; Token,\l MojRefCountedPtr\&lt; MojService\lRequest \&gt; \&gt;">
<polygon fill="white" stroke="black" points="376,-87.9675 376,-134.967 544,-134.967 544,-87.9675 376,-87.9675"/>
<text text-anchor="start" x="384" y="-121.967" font-family="Helvetica,sans-Serif" font-size="10.00">MojHashMap&lt; Token,</text>
<text text-anchor="start" x="384" y="-108.967" font-family="Helvetica,sans-Serif" font-size="10.00"> MojRefCountedPtr&lt; MojService</text>
<text text-anchor="middle" x="460" y="-95.9675" font-family="Helvetica,sans-Serif" font-size="10.00">Request &gt; &gt;</text>
</a>
</g>
<!-- Node16&#45;&gt;Node23 -->
<g id="edge72" class="edge"><title>Node16&#45;&gt;Node23</title>
<path fill="none" stroke="#8b1a1a" d="M208.807,-166.183C254.575,-156.214 322.171,-141.49 375.717,-129.826"/>
<polygon fill="#8b1a1a" stroke="#8b1a1a" points="207.839,-162.812 198.813,-168.36 209.329,-169.651 207.839,-162.812"/>
</g>
<!-- Node17&#45;&gt;Node3 -->
<g id="edge80" class="edge"><title>Node17&#45;&gt;Node3</title>
<path fill="none" stroke="#9a32cd" stroke-dasharray="5,2" d="M782.774,-376.313C828.166,-378.95 900.437,-382.467 963,-382.467 963,-382.467 963,-382.467 1585,-382.467 1689.35,-382.467 1782.06,-492.5 1809.08,-527.745"/>
<polygon fill="#9a32cd" stroke="#9a32cd" points="782.863,-372.813 772.673,-375.715 782.449,-379.8 782.863,-372.813"/>
<text text-anchor="middle" x="1221" y="-386.467" font-family="Helvetica,sans-Serif" font-size="10.00"> m_service</text>
</g>
<!-- Node17&#45;&gt;Node11 -->
<g id="edge44" class="edge"><title>Node17&#45;&gt;Node11</title>
<path fill="none" stroke="#9a32cd" stroke-dasharray="5,2" d="M782.584,-385.427C798.691,-389.408 817.074,-393.562 834,-396.467 901.675,-408.083 1361.54,-453.594 1526.37,-469.745"/>
<polygon fill="#9a32cd" stroke="#9a32cd" points="783.434,-382.032 772.882,-382.983 781.724,-388.82 783.434,-382.032"/>
<text text-anchor="middle" x="1094" y="-432.467" font-family="Helvetica,sans-Serif" font-size="10.00"> m_service</text>
</g>
<!-- Node18&#45;&gt;Node17 -->
<g id="edge48" class="edge"><title>Node18&#45;&gt;Node17</title>
<path fill="none" stroke="#9a32cd" stroke-dasharray="5,2" d="M504.177,-492.837C541.791,-480.505 596.764,-460.742 642,-437.467 672.992,-421.522 706.204,-397.686 724.3,-384.052"/>
<polygon fill="#9a32cd" stroke="#9a32cd" points="502.963,-489.551 494.529,-495.962 505.121,-496.21 502.963,-489.551"/>
<text text-anchor="middle" x="602" y="-475.467" font-family="Helvetica,sans-Serif" font-size="10.00"> m_mutex</text>
</g>
<!-- Node18&#45;&gt;Node29 -->
<g id="edge92" class="edge"><title>Node18&#45;&gt;Node29</title>
<path fill="none" stroke="#9a32cd" stroke-dasharray="5,2" d="M482.029,-523.594C499.265,-537.223 523.642,-557.007 544,-575.467 552.381,-583.067 553.775,-585.699 562,-593.467 621.831,-649.982 696.207,-714.537 725.404,-739.667"/>
<polygon fill="#9a32cd" stroke="#9a32cd" points="483.75,-520.495 473.725,-517.067 479.424,-525.998 483.75,-520.495"/>
<text text-anchor="middle" x="602" y="-666.467" font-family="Helvetica,sans-Serif" font-size="10.00"> m_mutex</text>
</g>
<!-- Node19 -->
<g id="node44" class="node"><title>Node19</title>
<a xlink:href="classMojString.htm" target="_top" xlink:title="MojString">
<polygon fill="white" stroke="black" points="429,-219.967 429,-240.967 491,-240.967 491,-219.967 429,-219.967"/>
<text text-anchor="middle" x="460" y="-227.967" font-family="Helvetica,sans-Serif" font-size="10.00">MojString</text>
</a>
</g>
<!-- Node19&#45;&gt;Node17 -->
<g id="edge52" class="edge"><title>Node19&#45;&gt;Node17</title>
<path fill="none" stroke="#9a32cd" stroke-dasharray="5,2" d="M489.593,-245.69C546.287,-274.852 668.898,-337.922 717.528,-362.937"/>
<polygon fill="#9a32cd" stroke="#9a32cd" points="490.936,-242.444 480.442,-240.983 487.734,-248.669 490.936,-242.444"/>
<text text-anchor="middle" x="602" y="-326.467" font-family="Helvetica,sans-Serif" font-size="10.00"> m_name</text>
</g>
<!-- Node19&#45;&gt;Node19 -->
<g id="edge54" class="edge"><title>Node19&#45;&gt;Node19</title>
<path fill="none" stroke="#9a32cd" stroke-dasharray="5,2" d="M433.692,-250.523C435.418,-255.631 444.187,-259.467 460,-259.467 484.684,-259.467 492.204,-250.121 482.562,-241.175"/>
<polygon fill="#9a32cd" stroke="#9a32cd" points="436.967,-251.76 437.438,-241.175 430.469,-249.156 436.967,-251.76"/>
<text text-anchor="middle" x="460" y="-263.467" font-family="Helvetica,sans-Serif" font-size="10.00"> Empty</text>
</g>
<!-- Node20&#45;&gt;Node17 -->
<g id="edge56" class="edge"><title>Node20&#45;&gt;Node17</title>
<path fill="none" stroke="#9a32cd" stroke-dasharray="5,2" d="M532.502,-205.133C536.416,-206.88 540.271,-208.664 544,-210.467 589.358,-232.41 602.847,-235.752 642,-267.467 679.235,-297.629 714.891,-342.56 730.185,-362.848"/>
<polygon fill="#9a32cd" stroke="#9a32cd" points="533.856,-201.905 523.29,-201.127 531.065,-208.324 533.856,-201.905"/>
<text text-anchor="middle" x="602" y="-271.467" font-family="Helvetica,sans-Serif" font-size="10.00"> m_categories</text>
</g>
<!-- Node21&#45;&gt;Node17 -->
<g id="edge62" class="edge"><title>Node21&#45;&gt;Node17</title>
<path fill="none" stroke="#9a32cd" stroke-dasharray="5,2" d="M338.834,-63.6475C391.223,-52.3124 476.056,-41.0229 544,-65.4675 677.497,-113.496 726.048,-314.153 735.975,-362.807"/>
<polygon fill="#9a32cd" stroke="#9a32cd" points="337.791,-60.2946 328.803,-65.9046 339.327,-67.1239 337.791,-60.2946"/>
<text text-anchor="middle" x="460" y="-69.4675" font-family="Helvetica,sans-Serif" font-size="10.00"> m_dispatcher</text>
</g>
<!-- Node22&#45;&gt;Node17 -->
<g id="edge66" class="edge"><title>Node22&#45;&gt;Node17</title>
<path fill="none" stroke="#9a32cd" stroke-dasharray="5,2" d="M201.376,-425.784C286.93,-422.163 480.508,-412.143 642,-390.467 662.466,-387.72 685.228,-383.731 703.45,-380.307"/>
<polygon fill="#9a32cd" stroke="#9a32cd" points="201.092,-422.293 191.245,-426.204 201.382,-429.287 201.092,-422.293"/>
<text text-anchor="middle" x="460" y="-419.467" font-family="Helvetica,sans-Serif" font-size="10.00"> s_log</text>
</g>
<!-- Node23&#45;&gt;Node17 -->
<g id="edge70" class="edge"><title>Node23&#45;&gt;Node17</title>
<path fill="none" stroke="#9a32cd" stroke-dasharray="5,2" d="M541.757,-139.075C576.081,-153.888 614.361,-175.047 642,-203.467 690.916,-253.766 723.493,-333.872 734.171,-362.695"/>
<polygon fill="#9a32cd" stroke="#9a32cd" points="542.768,-135.704 532.193,-135.064 540.061,-142.159 542.768,-135.704"/>
<text text-anchor="middle" x="602" y="-207.467" font-family="Helvetica,sans-Serif" font-size="10.00"> m_requests</text>
</g>
<!-- Node24 -->
<g id="node60" class="node"><title>Node24</title>
<a xlink:href="classMojMap.htm" target="_top" xlink:title="MojMap\&lt; SubscriptionKey,\l MojServiceMessage * \&gt;">
<polygon fill="white" stroke="black" points="389.5,-356.467 389.5,-390.467 530.5,-390.467 530.5,-356.467 389.5,-356.467"/>
<text text-anchor="start" x="397.5" y="-377.467" font-family="Helvetica,sans-Serif" font-size="10.00">MojMap&lt; SubscriptionKey,</text>
<text text-anchor="middle" x="460" y="-364.467" font-family="Helvetica,sans-Serif" font-size="10.00"> MojServiceMessage * &gt;</text>
</a>
</g>
<!-- Node24&#45;&gt;Node17 -->
<g id="edge74" class="edge"><title>Node24&#45;&gt;Node17</title>
<path fill="none" stroke="#9a32cd" stroke-dasharray="5,2" d="M540.732,-373.467C594.577,-373.467 662.664,-373.467 703.139,-373.467"/>
<polygon fill="#9a32cd" stroke="#9a32cd" points="540.511,-369.968 530.511,-373.467 540.51,-376.968 540.511,-369.968"/>
<text text-anchor="middle" x="602" y="-377.467" font-family="Helvetica,sans-Serif" font-size="10.00"> m_subscriptions</text>
</g>
<!-- Node25 -->
<g id="node62" class="node"><title>Node25</title>
<a xlink:href="classMojRbTreeBase.htm" target="_top" xlink:title="MojRbTreeBase">
<polygon fill="white" stroke="black" points="110.5,-362.967 110.5,-383.967 203.5,-383.967 203.5,-362.967 110.5,-362.967"/>
<text text-anchor="middle" x="157" y="-370.967" font-family="Helvetica,sans-Serif" font-size="10.00">MojRbTreeBase</text>
</a>
</g>
<!-- Node25&#45;&gt;Node24 -->
<g id="edge76" class="edge"><title>Node25&#45;&gt;Node24</title>
<path fill="none" stroke="#8b1a1a" d="M213.925,-373.467C263.615,-373.467 335.925,-373.467 389.31,-373.467"/>
<polygon fill="#8b1a1a" stroke="#8b1a1a" points="213.68,-369.968 203.68,-373.467 213.68,-376.968 213.68,-369.968"/>
</g>
<!-- Node26 -->
<g id="node64" class="node"><title>Node26</title>
<polygon fill="white" stroke="#bfbfbf" points="1567,-330.967 1567,-351.967 1603,-351.967 1603,-330.967 1567,-330.967"/>
<text text-anchor="middle" x="1585" y="-338.967" font-family="Helvetica,sans-Serif" font-size="10.00">bool</text>
</g>
<!-- Node26&#45;&gt;Node3 -->
<g id="edge78" class="edge"><title>Node26&#45;&gt;Node3</title>
<path fill="none" stroke="#9a32cd" stroke-dasharray="5,2" d="M1613.13,-332.853C1646.92,-324.334 1703.83,-316.022 1742,-342.467 1774.5,-364.979 1805.79,-490.157 1814.57,-527.774"/>
<polygon fill="#9a32cd" stroke="#9a32cd" points="1612.18,-329.485 1603.43,-335.465 1614,-336.244 1612.18,-329.485"/>
<text text-anchor="middle" x="1702" y="-359.467" font-family="Helvetica,sans-Serif" font-size="10.00"> m_fixmode</text>
<text text-anchor="middle" x="1702" y="-346.467" font-family="Helvetica,sans-Serif" font-size="10.00">m_subscribed</text>
</g>
<!-- Node27 -->
<g id="node67" class="node"><title>Node27</title>
<a xlink:href="classMojSignal.htm" target="_top" xlink:title="MojSignal\&lt; MojServiceMessage * \&gt;">
<polygon fill="white" stroke="black" points="1322.5,-683.967 1322.5,-704.967 1507.5,-704.967 1507.5,-683.967 1322.5,-683.967"/>
<text text-anchor="middle" x="1415" y="-691.967" font-family="Helvetica,sans-Serif" font-size="10.00">MojSignal&lt; MojServiceMessage * &gt;</text>
</a>
</g>
<!-- Node27&#45;&gt;Node3 -->
<g id="edge82" class="edge"><title>Node27&#45;&gt;Node3</title>
<path fill="none" stroke="#9a32cd" stroke-dasharray="5,2" d="M1517.95,-703.974C1586.37,-705.326 1675.53,-697.119 1742,-655.467 1782.89,-629.846 1805.67,-572.847 1813.67,-549.136"/>
<polygon fill="#9a32cd" stroke="#9a32cd" points="1517.67,-700.465 1507.58,-703.693 1517.48,-707.463 1517.67,-700.465"/>
<text text-anchor="middle" x="1585" y="-707.467" font-family="Helvetica,sans-Serif" font-size="10.00"> m_cancelSignal</text>
</g>
<!-- Node28 -->
<g id="node69" class="node"><title>Node28</title>
<a xlink:href="classMojSignal3.htm" target="_top" xlink:title="MojSignal3\&lt; MojServiceMessage\l *, MojTagNil, MojTagNil \&gt;">
<polygon fill="white" stroke="black" points="876,-689.467 876,-723.467 1050,-723.467 1050,-689.467 876,-689.467"/>
<text text-anchor="start" x="884" y="-710.467" font-family="Helvetica,sans-Serif" font-size="10.00">MojSignal3&lt; MojServiceMessage</text>
<text text-anchor="middle" x="963" y="-697.467" font-family="Helvetica,sans-Serif" font-size="10.00"> *, MojTagNil, MojTagNil &gt;</text>
</a>
</g>
<!-- Node28&#45;&gt;Node27 -->
<g id="edge84" class="edge"><title>Node28&#45;&gt;Node27</title>
<path fill="none" stroke="midnightblue" d="M1060.41,-703.881C1138.02,-701.821 1245.94,-698.956 1322.29,-696.929"/>
<polygon fill="midnightblue" stroke="midnightblue" points="1060.05,-700.389 1050.15,-704.154 1060.24,-707.387 1060.05,-700.389"/>
</g>
<!-- Node29&#45;&gt;Node28 -->
<g id="edge86" class="edge"><title>Node29&#45;&gt;Node28</title>
<path fill="none" stroke="midnightblue" d="M791.702,-739.966C816.822,-735.053 847.382,-729.077 875.697,-723.54"/>
<polygon fill="midnightblue" stroke="midnightblue" points="790.791,-736.577 781.649,-741.932 792.135,-743.447 790.791,-736.577"/>
</g>
<!-- Node30&#45;&gt;Node29 -->
<g id="edge94" class="edge"><title>Node30&#45;&gt;Node29</title>
<path fill="none" stroke="#9a32cd" stroke-dasharray="5,2" d="M367.638,-747.987C462.195,-748.621 618.639,-749.668 694.319,-750.175"/>
<polygon fill="#9a32cd" stroke="#9a32cd" points="367.578,-744.487 357.555,-747.92 367.531,-751.487 367.578,-744.487"/>
<text text-anchor="middle" x="460" y="-752.467" font-family="Helvetica,sans-Serif" font-size="10.00"> m_slots</text>
</g>
</g>
</svg>
