<?xml version="1.0" encoding="UTF-8" standalone="no"?>
<!DOCTYPE svg PUBLIC "-//W3C//DTD SVG 1.1//EN"
 "http://www.w3.org/Graphics/SVG/1.1/DTD/svg11.dtd">
<!-- Generated by graphviz version 2.26.3 (20100126.1600)
 -->
<!-- Title: MojTestCaseRef Pages: 1 -->
<svg width="123pt" height="174pt"
 viewBox="0.00 0.00 123.00 174.00" xmlns="http://www.w3.org/2000/svg" xmlns:xlink="http://www.w3.org/1999/xlink">
<g id="graph1" class="graph" transform="scale(1 1) rotate(0) translate(4 170)">
<title>MojTestCaseRef</title>
<polygon fill="white" stroke="white" points="-4,5 -4,-170 120,-170 120,5 -4,5"/>
<!-- Node1 -->
<g id="node1" class="node"><title>Node1</title>
<polygon fill="#bfbfbf" stroke="black" points="4,-0.5 4,-21.5 100,-21.5 100,-0.5 4,-0.5"/>
<text text-anchor="middle" x="52" y="-8.5" font-family="Helvetica,sans-Serif" font-size="10.00">MojTestCaseRef</text>
</g>
<!-- Node2 -->
<g id="node2" class="node"><title>Node2</title>
<a xlink:href="classMojTestCase.htm" target="_top" xlink:title="MojTestCase">
<polygon fill="white" stroke="black" points="12,-72.5 12,-93.5 92,-93.5 92,-72.5 12,-72.5"/>
<text text-anchor="middle" x="52" y="-80.5" font-family="Helvetica,sans-Serif" font-size="10.00">MojTestCase</text>
</a>
</g>
<!-- Node2&#45;&gt;Node1 -->
<g id="edge2" class="edge"><title>Node2&#45;&gt;Node1</title>
<path fill="none" stroke="#9a32cd" stroke-dasharray="5,2" d="M52,-62.2348C52,-48.969 52,-32.3188 52,-21.6674"/>
<polygon fill="#9a32cd" stroke="#9a32cd" points="48.5001,-62.3761 52,-72.3762 55.5001,-62.3762 48.5001,-62.3761"/>
<text text-anchor="middle" x="72" y="-44.5" font-family="Helvetica,sans-Serif" font-size="10.00"> m_case</text>
</g>
<!-- Node3 -->
<g id="node4" class="node"><title>Node3</title>
<polygon fill="white" stroke="#bfbfbf" points="0,-144.5 0,-165.5 38,-165.5 38,-144.5 0,-144.5"/>
<text text-anchor="middle" x="19" y="-152.5" font-family="Helvetica,sans-Serif" font-size="10.00">char</text>
</g>
<!-- Node3&#45;&gt;Node2 -->
<g id="edge4" class="edge"><title>Node3&#45;&gt;Node2</title>
<path fill="none" stroke="#9a32cd" stroke-dasharray="5,2" d="M16.2004,-134.038C16.0692,-126.775 16.9067,-118.764 20,-112 23.305,-104.772 29.3594,-98.5583 35.3197,-93.7573"/>
<polygon fill="#9a32cd" stroke="#9a32cd" points="12.7271,-134.522 16.9765,-144.228 19.7069,-133.991 12.7271,-134.522"/>
<text text-anchor="middle" x="42" y="-116.5" font-family="Helvetica,sans-Serif" font-size="10.00"> m_name</text>
</g>
<!-- Node4 -->
<g id="node6" class="node"><title>Node4</title>
<polygon fill="white" stroke="#bfbfbf" points="68,-144.5 68,-165.5 104,-165.5 104,-144.5 68,-144.5"/>
<text text-anchor="middle" x="86" y="-152.5" font-family="Helvetica,sans-Serif" font-size="10.00">bool</text>
</g>
<!-- Node4&#45;&gt;Node2 -->
<g id="edge6" class="edge"><title>Node4&#45;&gt;Node2</title>
<path fill="none" stroke="#9a32cd" stroke-dasharray="5,2" d="M76.5681,-135.027C70.2454,-121.637 62.1678,-104.532 57.0374,-93.6674"/>
<polygon fill="#9a32cd" stroke="#9a32cd" points="73.5482,-136.828 80.9832,-144.376 79.8779,-133.839 73.5482,-136.828"/>
<text text-anchor="middle" x="93.5" y="-116.5" font-family="Helvetica,sans-Serif" font-size="10.00"> m_failed</text>
</g>
</g>
</svg>
